<?xml version="1.0" encoding="UTF-8" standalone="no"?><svg xmlns="http://www.w3.org/2000/svg" xmlns:xlink="http://www.w3.org/1999/xlink" contentScriptType="application/ecmascript" contentStyleType="text/css" height="136px" preserveAspectRatio="none" style="width:388px;height:136px;background:#FFFFFF;" version="1.1" viewBox="0 0 388 136" width="388px" zoomAndPan="magnify"><defs><filter height="300%" id="fvtxjb5sep9bm" width="300%" x="-1" y="-1"><feGaussianBlur result="blurOut" stdDeviation="2.0"/><feColorMatrix in="blurOut" result="blurOut2" type="matrix" values="0 0 0 0 0 0 0 0 0 0 0 0 0 0 0 0 0 0 .4 0"/><feOffset dx="4.0" dy="4.0" in="blurOut2" result="blurOut3"/><feBlend in="SourceGraphic" in2="blurOut3" mode="normal"/></filter></defs><g><!--MD5=[a134a3ade86260c850043fcbc351e6e4]
class org.apache.wiki.htmltowiki.syntax.OptionDecorator--><a href="OptionDecorator.html" target="_top" title="OptionDecorator.html" xlink:actuate="onRequest" xlink:href="OptionDecorator.html" xlink:show="new" xlink:title="OptionDecorator.html" xlink:type="simple"><rect codeLine="5" fill="#FEFECE" filter="url(#fvtxjb5sep9bm)" height="105.1563" id="org.apache.wiki.htmltowiki.syntax.OptionDecorator" style="stroke:#A80036;stroke-width:1.5;" width="367" x="7" y="7"/><ellipse cx="105.25" cy="25.9688" fill="#ADD1B2" rx="11" ry="11" style="stroke:#A80036;stroke-width:1.0;"/><path d="M108.2188,31.6094 Q107.6406,31.9063 107,32.0469 Q106.3594,32.2031 105.6563,32.2031 Q103.1563,32.2031 101.8281,30.5625 Q100.5156,28.9063 100.5156,25.7813 Q100.5156,22.6563 101.8281,21 Q103.1563,19.3438 105.6563,19.3438 Q106.3594,19.3438 107,19.5 Q107.6563,19.6563 108.2188,19.9531 L108.2188,22.6719 Q107.5938,22.0938 107,21.8281 Q106.4063,21.5469 105.7813,21.5469 Q104.4375,21.5469 103.75,22.625 Q103.0625,23.6875 103.0625,25.7813 Q103.0625,27.875 103.75,28.9531 Q104.4375,30.0156 105.7813,30.0156 Q106.4063,30.0156 107,29.75 Q107.5938,29.4688 108.2188,28.8906 L108.2188,31.6094 Z " fill="#000000"/><text fill="#000000" font-family="sans-serif" font-size="14" lengthAdjust="spacing" textLength="115" x="149.25" y="24.9951">OptionDecorator</text><text fill="#000000" font-family="sans-serif" font-size="10" lengthAdjust="spacing" textLength="162" x="125.75" y="37.5791">org.apache.wiki.htmltowiki.syntax</text><line style="stroke:#A80036;stroke-width:1.5;" x1="8" x2="373" y1="44.9375" y2="44.9375"/><polygon fill="none" points="18,50.9375,22,54.9375,18,58.9375,14,54.9375" style="stroke:#B38D22;stroke-width:1.0;"/><text fill="#000000" font-family="sans-serif" font-size="11" lengthAdjust="spacing" textLength="85" x="27" y="59.1479">out: PrintWriter</text><polygon fill="none" points="18,63.7422,22,67.7422,18,71.7422,14,67.7422" style="stroke:#B38D22;stroke-width:1.0;"/><text fill="#000000" font-family="sans-serif" font-size="11" lengthAdjust="spacing" textLength="211" x="27" y="71.9526">chain: XHtmlElementToWikiTranslator</text><line style="stroke:#A80036;stroke-width:1.5;" x1="8" x2="373" y1="78.5469" y2="78.5469"/><ellipse cx="18" cy="89.5469" fill="#84BE84" rx="3" ry="3" style="stroke:#038048;stroke-width:1.0;"/><text fill="#000000" font-family="sans-serif" font-size="11" lengthAdjust="spacing" textLength="341" x="27" y="92.7573">OptionDecorator(PrintWriter, XHtmlElementToWikiTranslator)</text><ellipse cx="18" cy="102.3516" fill="#84BE84" rx="3" ry="3" style="stroke:#038048;stroke-width:1.0;"/><text fill="#000000" font-family="sans-serif" font-size="11" lengthAdjust="spacing" textLength="189" x="27" y="105.562">decorate(Element, Element): void</text></a><text fill="#888888" font-family="sans-serif" font-size="10" lengthAdjust="spacing" textLength="192" x="94.5" y="128.4385">UMLDoclet 2.0.15, PlantUML 1.2021.13</text><!--MD5=[f84b368be24e864677a90294c950ffe2]
@startuml
    set namespaceSeparator none
    hide empty fields
    hide empty methods

    class "<size:14>OptionDecorator\n<size:10>org.apache.wiki.htmltowiki.syntax" as org.apache.wiki.htmltowiki.syntax.OptionDecorator [[OptionDecorator.html]] {
        #out: PrintWriter
        #chain: XHtmlElementToWikiTranslator
        +OptionDecorator(PrintWriter, XHtmlElementToWikiTranslator)
        +decorate(Element, Element): void
    }

    center footer UMLDoclet 2.0.15, PlantUML 1.2021.13
@enduml

PlantUML version 1.2021.13(Mon Nov 01 11:38:45 UTC 2021)
(APACHE source distribution)
Java Runtime: OpenJDK Runtime Environment
JVM: OpenJDK 64-Bit Server VM
Default Encoding: ISO-8859-1
Language: en
Country: US
--></g></svg>