<?xml version="1.0" encoding="UTF-8" standalone="no"?><svg xmlns="http://www.w3.org/2000/svg" xmlns:xlink="http://www.w3.org/1999/xlink" contentScriptType="application/ecmascript" contentStyleType="text/css" height="149px" preserveAspectRatio="none" style="width:513px;height:149px;background:#FFFFFF;" version="1.1" viewBox="0 0 513 149" width="513px" zoomAndPan="magnify"><defs><filter height="300%" id="fnmu73wpc4jk" width="300%" x="-1" y="-1"><feGaussianBlur result="blurOut" stdDeviation="2.0"/><feColorMatrix in="blurOut" result="blurOut2" type="matrix" values="0 0 0 0 0 0 0 0 0 0 0 0 0 0 0 0 0 0 .4 0"/><feOffset dx="4.0" dy="4.0" in="blurOut2" result="blurOut3"/><feBlend in="SourceGraphic" in2="blurOut3" mode="normal"/></filter></defs><g><!--MD5=[ed1ac7cb8a98cc495a168cd0bd65d676]
class org.apache.wiki.htmltowiki.syntax.TableDecorator--><a href="TableDecorator.html" target="_top" title="TableDecorator.html" xlink:actuate="onRequest" xlink:href="TableDecorator.html" xlink:show="new" xlink:title="TableDecorator.html" xlink:type="simple"><rect codeLine="5" fill="#FEFECE" filter="url(#fnmu73wpc4jk)" height="117.9609" id="org.apache.wiki.htmltowiki.syntax.TableDecorator" style="stroke:#A80036;stroke-width:1.5;" width="492" x="7" y="7"/><ellipse cx="167.75" cy="25.9688" fill="#ADD1B2" rx="11" ry="11" style="stroke:#A80036;stroke-width:1.0;"/><path d="M170.7188,31.6094 Q170.1406,31.9063 169.5,32.0469 Q168.8594,32.2031 168.1563,32.2031 Q165.6563,32.2031 164.3281,30.5625 Q163.0156,28.9063 163.0156,25.7813 Q163.0156,22.6563 164.3281,21 Q165.6563,19.3438 168.1563,19.3438 Q168.8594,19.3438 169.5,19.5 Q170.1563,19.6563 170.7188,19.9531 L170.7188,22.6719 Q170.0938,22.0938 169.5,21.8281 Q168.9063,21.5469 168.2813,21.5469 Q166.9375,21.5469 166.25,22.625 Q165.5625,23.6875 165.5625,25.7813 Q165.5625,27.875 166.25,28.9531 Q166.9375,30.0156 168.2813,30.0156 Q168.9063,30.0156 169.5,29.75 Q170.0938,29.4688 170.7188,28.8906 L170.7188,31.6094 Z " fill="#000000"/><text fill="#000000" font-family="sans-serif" font-size="14" lengthAdjust="spacing" textLength="107" x="215.75" y="24.9951">TableDecorator</text><text fill="#000000" font-family="sans-serif" font-size="10" lengthAdjust="spacing" textLength="162" x="188.25" y="37.5791">org.apache.wiki.htmltowiki.syntax</text><line style="stroke:#A80036;stroke-width:1.5;" x1="8" x2="498" y1="44.9375" y2="44.9375"/><polygon fill="none" points="18,50.9375,22,54.9375,18,58.9375,14,54.9375" style="stroke:#B38D22;stroke-width:1.0;"/><text fill="#000000" font-family="sans-serif" font-size="11" lengthAdjust="spacing" textLength="85" x="27" y="59.1479">out: PrintWriter</text><polygon fill="none" points="18,63.7422,22,67.7422,18,71.7422,14,67.7422" style="stroke:#B38D22;stroke-width:1.0;"/><text fill="#000000" font-family="sans-serif" font-size="11" lengthAdjust="spacing" textLength="211" x="27" y="71.9526">chain: XHtmlElementToWikiTranslator</text><polygon fill="none" points="18,76.5469,22,80.5469,18,84.5469,14,80.5469" style="stroke:#B38D22;stroke-width:1.0;"/><text fill="#000000" font-family="sans-serif" font-size="11" lengthAdjust="spacing" textLength="198" x="27" y="84.7573">outTrimmer: WhitespaceTrimWriter</text><line style="stroke:#A80036;stroke-width:1.5;" x1="8" x2="498" y1="91.3516" y2="91.3516"/><ellipse cx="18" cy="102.3516" fill="#84BE84" rx="3" ry="3" style="stroke:#038048;stroke-width:1.0;"/><text fill="#000000" font-family="sans-serif" font-size="11" lengthAdjust="spacing" textLength="466" x="27" y="105.562">TableDecorator(PrintWriter, WhitespaceTrimWriter, XHtmlElementToWikiTranslator)</text><ellipse cx="18" cy="115.1563" fill="#84BE84" rx="3" ry="3" style="stroke:#038048;stroke-width:1.0;"/><text fill="#000000" font-family="sans-serif" font-size="11" lengthAdjust="spacing" textLength="135" x="27" y="118.3667">decorate(Element): void</text></a><text fill="#888888" font-family="sans-serif" font-size="10" lengthAdjust="spacing" textLength="192" x="157" y="141.2432">UMLDoclet 2.0.15, PlantUML 1.2021.13</text><!--MD5=[32efa53368e5ca362e604832d6c16992]
@startuml
    set namespaceSeparator none
    hide empty fields
    hide empty methods

    class "<size:14>TableDecorator\n<size:10>org.apache.wiki.htmltowiki.syntax" as org.apache.wiki.htmltowiki.syntax.TableDecorator [[TableDecorator.html]] {
        #out: PrintWriter
        #chain: XHtmlElementToWikiTranslator
        #outTrimmer: WhitespaceTrimWriter
        +TableDecorator(PrintWriter, WhitespaceTrimWriter, XHtmlElementToWikiTranslator)
        +decorate(Element): void
    }

    center footer UMLDoclet 2.0.15, PlantUML 1.2021.13
@enduml

PlantUML version 1.2021.13(Mon Nov 01 11:38:45 UTC 2021)
(APACHE source distribution)
Java Runtime: OpenJDK Runtime Environment
JVM: OpenJDK 64-Bit Server VM
Default Encoding: ISO-8859-1
Language: en
Country: US
--></g></svg>