<?xml version="1.0" encoding="UTF-8" standalone="no"?><svg xmlns="http://www.w3.org/2000/svg" xmlns:xlink="http://www.w3.org/1999/xlink" contentScriptType="application/ecmascript" contentStyleType="text/css" height="316px" preserveAspectRatio="none" style="width:394px;height:316px;" version="1.1" viewBox="0 0 394 316" width="394px" zoomAndPan="magnify"><defs><filter height="300%" id="f1h770zrsfj8wd" width="300%" x="-1" y="-1"><feGaussianBlur result="blurOut" stdDeviation="2.0"/><feColorMatrix in="blurOut" result="blurOut2" type="matrix" values="0 0 0 0 0 0 0 0 0 0 0 0 0 0 0 0 0 0 .4 0"/><feOffset dx="4.0" dy="4.0" in="blurOut2" result="blurOut3"/><feBlend in="SourceGraphic" in2="blurOut3" mode="normal"/></filter></defs><g><!--MD5=[28c722b654e921a66cbe3fa7b58e7ec0]
class org.apache.wiki.plugin.DefaultPluginManager.WikiPluginInfo--><a href="DefaultPluginManager.WikiPluginInfo.html" target="_top" title="DefaultPluginManager.WikiPluginInfo.html" xlink:actuate="onRequest" xlink:href="DefaultPluginManager.WikiPluginInfo.html" xlink:show="new" xlink:title="DefaultPluginManager.WikiPluginInfo.html" xlink:type="simple"><rect codeLine="5" fill="#FEFECE" filter="url(#f1h770zrsfj8wd)" height="172.7109" id="org.apache.wiki.plugin.DefaultPluginManager.WikiPluginInfo" style="stroke: #A80036; stroke-width: 1.5;" width="365" x="9" y="107"/><ellipse cx="71.25" cy="127.0938" fill="#ADD1B2" rx="11" ry="11" style="stroke: #A80036; stroke-width: 1.0;"/><path d="M74.0156,122.9688 Q74.1719,122.75 74.3594,122.6406 Q74.5469,122.5313 74.7656,122.5313 Q75.1406,122.5313 75.375,122.7969 Q75.6094,123.0469 75.6094,123.6563 L75.6094,125.1094 Q75.6094,125.7188 75.375,125.9844 Q75.1406,126.25 74.7656,126.25 Q74.4219,126.25 74.2188,126.0469 Q74.0156,125.8594 73.9063,125.3438 Q73.8594,124.9844 73.6719,124.7969 Q73.3438,124.4219 72.7344,124.2031 Q72.125,123.9844 71.5,123.9844 Q70.7344,123.9844 70.0938,124.3125 Q69.4688,124.6406 68.9688,125.3906 Q68.4844,126.1406 68.4844,127.1719 L68.4844,128.2656 Q68.4844,129.5 69.375,130.3281 Q70.2656,131.1406 71.8594,131.1406 Q72.7969,131.1406 73.4531,130.8906 Q73.8438,130.7344 74.2656,130.2969 Q74.5313,130.0313 74.6719,129.9531 Q74.8281,129.875 75.0313,129.875 Q75.3594,129.875 75.6094,130.1406 Q75.875,130.3906 75.875,130.7344 Q75.875,131.0781 75.5313,131.4844 Q75.0313,132.0625 74.2344,132.3906 Q73.1563,132.8438 71.8594,132.8438 Q70.3438,132.8438 69.1406,132.2188 Q68.1563,131.7188 67.4688,130.6563 Q66.7813,129.5781 66.7813,128.2969 L66.7813,127.1406 Q66.7813,125.8125 67.3906,124.6719 Q68.0156,123.5156 69.1094,122.9063 Q70.2031,122.2813 71.4375,122.2813 Q72.1719,122.2813 72.8125,122.4531 Q73.4688,122.6094 74.0156,122.9688 Z "/><text fill="#000000" font-family="sans-serif" font-size="14" lengthAdjust="spacingAndGlyphs" textLength="232" x="91.75" y="126.5332">DefaultPluginManager.WikiPluginInfo</text><text fill="#000000" font-family="sans-serif" font-size="10" lengthAdjust="spacingAndGlyphs" textLength="107" x="154.25" y="139.9902">org.apache.wiki.plugin</text><line style="stroke: #A80036; stroke-width: 1.5;" x1="10" x2="373" y1="147.1875" y2="147.1875"/><polygon fill="#FFFF44" points="20,153.1875,24,157.1875,20,161.1875,16,157.1875" style="stroke: #B38D22; stroke-width: 1.0;"/><text fill="#000000" font-family="sans-serif" font-size="11" lengthAdjust="spacingAndGlyphs" text-decoration="underline" textLength="339" x="29" y="162.6064">newInstance(String, Element, List&lt;String&gt;, List&lt;String&gt;): WikiPluginInfo</text><polygon fill="#FFFF44" points="20,167.0234,24,171.0234,20,175.0234,16,171.0234" style="stroke: #B38D22; stroke-width: 1.0;"/><text fill="#000000" font-family="sans-serif" font-size="11" lengthAdjust="spacingAndGlyphs" textLength="328" x="29" y="176.4424">initializePlugin(WikiPluginInfo, Engine, List&lt;String&gt;, List&lt;String&gt;): void</text><polygon fill="#FFFF44" points="20,180.8594,24,184.8594,20,188.8594,16,184.8594" style="stroke: #B38D22; stroke-width: 1.0;"/><text fill="#000000" font-family="sans-serif" font-size="11" lengthAdjust="spacingAndGlyphs" textLength="153" x="29" y="190.2783">initializeFromXML(Element): void</text><polygon fill="#FFFF44" points="20,194.6953,24,198.6953,20,202.6953,16,198.6953" style="stroke: #B38D22; stroke-width: 1.0;"/><text fill="#000000" font-family="sans-serif" font-size="11" lengthAdjust="spacingAndGlyphs" text-decoration="underline" textLength="187" x="29" y="204.1143">newInstance(Class&lt;?&gt;): WikiPluginInfo</text><ellipse cx="20" cy="213.5313" fill="#84BE84" rx="3" ry="3" style="stroke: #038048; stroke-width: 1.0;"/><text fill="#000000" font-family="sans-serif" font-size="11" lengthAdjust="spacingAndGlyphs" textLength="111" x="29" y="217.9502">getClassName(): String</text><ellipse cx="20" cy="227.3672" fill="#84BE84" rx="3" ry="3" style="stroke: #038048; stroke-width: 1.0;"/><text fill="#000000" font-family="sans-serif" font-size="11" lengthAdjust="spacingAndGlyphs" textLength="81" x="29" y="231.7861">getAlias(): String</text><ellipse cx="20" cy="241.2031" fill="#84BE84" rx="3" ry="3" style="stroke: #038048; stroke-width: 1.0;"/><text fill="#000000" font-family="sans-serif" font-size="11" lengthAdjust="spacingAndGlyphs" textLength="103" x="29" y="245.6221">getAjaxAlias(): String</text><ellipse cx="20" cy="255.0391" fill="#84BE84" rx="3" ry="3" style="stroke: #038048; stroke-width: 1.0;"/><text fill="#000000" font-family="sans-serif" font-size="11" lengthAdjust="spacingAndGlyphs" textLength="253" x="29" y="259.458">newPluginInstance(List&lt;String&gt;, List&lt;String&gt;): Plugin</text><ellipse cx="20" cy="268.875" fill="#84BE84" rx="3" ry="3" style="stroke: #038048; stroke-width: 1.0;"/><text fill="#000000" font-family="sans-serif" font-size="11" lengthAdjust="spacingAndGlyphs" textLength="140" x="29" y="273.2939">getIncludeText(String): String</text></a><!--MD5=[dd52e2f9cbe92169871feb29737709c4]
class org.apache.wiki.modules.WikiModuleInfo--><a href="..\modules\WikiModuleInfo.html" target="_top" title="..\modules\WikiModuleInfo.html" xlink:actuate="onRequest" xlink:href="..\modules\WikiModuleInfo.html" xlink:show="new" xlink:title="..\modules\WikiModuleInfo.html" xlink:type="simple"><rect codeLine="17" fill="#FEFECE" filter="url(#f1h770zrsfj8wd)" height="40.1875" id="org.apache.wiki.modules.WikiModuleInfo" style="stroke: #A80036; stroke-width: 1.5;" width="149" x="19" y="7"/><ellipse cx="34" cy="27.0938" fill="#ADD1B2" rx="11" ry="11" style="stroke: #A80036; stroke-width: 1.0;"/><path d="M36.7656,22.9688 Q36.9219,22.75 37.1094,22.6406 Q37.2969,22.5313 37.5156,22.5313 Q37.8906,22.5313 38.125,22.7969 Q38.3594,23.0469 38.3594,23.6563 L38.3594,25.1094 Q38.3594,25.7188 38.125,25.9844 Q37.8906,26.25 37.5156,26.25 Q37.1719,26.25 36.9688,26.0469 Q36.7656,25.8594 36.6563,25.3438 Q36.6094,24.9844 36.4219,24.7969 Q36.0938,24.4219 35.4844,24.2031 Q34.875,23.9844 34.25,23.9844 Q33.4844,23.9844 32.8438,24.3125 Q32.2188,24.6406 31.7188,25.3906 Q31.2344,26.1406 31.2344,27.1719 L31.2344,28.2656 Q31.2344,29.5 32.125,30.3281 Q33.0156,31.1406 34.6094,31.1406 Q35.5469,31.1406 36.2031,30.8906 Q36.5938,30.7344 37.0156,30.2969 Q37.2813,30.0313 37.4219,29.9531 Q37.5781,29.875 37.7813,29.875 Q38.1094,29.875 38.3594,30.1406 Q38.625,30.3906 38.625,30.7344 Q38.625,31.0781 38.2813,31.4844 Q37.7813,32.0625 36.9844,32.3906 Q35.9063,32.8438 34.6094,32.8438 Q33.0938,32.8438 31.8906,32.2188 Q30.9063,31.7188 30.2188,30.6563 Q29.5313,29.5781 29.5313,28.2969 L29.5313,27.1406 Q29.5313,25.8125 30.1406,24.6719 Q30.7656,23.5156 31.8594,22.9063 Q32.9531,22.2813 34.1875,22.2813 Q34.9219,22.2813 35.5625,22.4531 Q36.2188,22.6094 36.7656,22.9688 Z "/><text fill="#000000" font-family="sans-serif" font-size="14" lengthAdjust="spacingAndGlyphs" textLength="95" x="59" y="26.5332">WikiModuleInfo</text><text fill="#000000" font-family="sans-serif" font-size="10" lengthAdjust="spacingAndGlyphs" textLength="117" x="48" y="39.9902">org.apache.wiki.modules</text></a><!--MD5=[38e4ed245f3fc3d963733be6d44c7718]
class org.apache.wiki.plugin.DefaultPluginManager--><a href="DefaultPluginManager.html" target="_top" title="DefaultPluginManager.html" xlink:actuate="onRequest" xlink:href="DefaultPluginManager.html" xlink:show="new" xlink:title="DefaultPluginManager.html" xlink:type="simple"><rect codeLine="18" fill="#FEFECE" filter="url(#f1h770zrsfj8wd)" height="40.1875" id="org.apache.wiki.plugin.DefaultPluginManager" style="stroke: #A80036; stroke-width: 1.5;" width="172" x="203.5" y="7"/><ellipse cx="218.5" cy="27.0938" fill="#ADD1B2" rx="11" ry="11" style="stroke: #A80036; stroke-width: 1.0;"/><path d="M221.2656,22.9688 Q221.4219,22.75 221.6094,22.6406 Q221.7969,22.5313 222.0156,22.5313 Q222.3906,22.5313 222.625,22.7969 Q222.8594,23.0469 222.8594,23.6563 L222.8594,25.1094 Q222.8594,25.7188 222.625,25.9844 Q222.3906,26.25 222.0156,26.25 Q221.6719,26.25 221.4688,26.0469 Q221.2656,25.8594 221.1563,25.3438 Q221.1094,24.9844 220.9219,24.7969 Q220.5938,24.4219 219.9844,24.2031 Q219.375,23.9844 218.75,23.9844 Q217.9844,23.9844 217.3438,24.3125 Q216.7188,24.6406 216.2188,25.3906 Q215.7344,26.1406 215.7344,27.1719 L215.7344,28.2656 Q215.7344,29.5 216.625,30.3281 Q217.5156,31.1406 219.1094,31.1406 Q220.0469,31.1406 220.7031,30.8906 Q221.0938,30.7344 221.5156,30.2969 Q221.7813,30.0313 221.9219,29.9531 Q222.0781,29.875 222.2813,29.875 Q222.6094,29.875 222.8594,30.1406 Q223.125,30.3906 223.125,30.7344 Q223.125,31.0781 222.7813,31.4844 Q222.2813,32.0625 221.4844,32.3906 Q220.4063,32.8438 219.1094,32.8438 Q217.5938,32.8438 216.3906,32.2188 Q215.4063,31.7188 214.7188,30.6563 Q214.0313,29.5781 214.0313,28.2969 L214.0313,27.1406 Q214.0313,25.8125 214.6406,24.6719 Q215.2656,23.5156 216.3594,22.9063 Q217.4531,22.2813 218.6875,22.2813 Q219.4219,22.2813 220.0625,22.4531 Q220.7188,22.6094 221.2656,22.9688 Z "/><text fill="#000000" font-family="sans-serif" font-size="14" lengthAdjust="spacingAndGlyphs" textLength="140" x="232.5" y="26.5332">DefaultPluginManager</text><text fill="#000000" font-family="sans-serif" font-size="10" lengthAdjust="spacingAndGlyphs" textLength="107" x="249" y="39.9902">org.apache.wiki.plugin</text></a><!--MD5=[c97515fe48a04baac1329631cd66b7c3]
reverse link org.apache.wiki.modules.WikiModuleInfo to org.apache.wiki.plugin.DefaultPluginManager.WikiPluginInfo--><path codeLine="20" d="M115.5681,64.4932 C123.0264,77.1648 131.6924,91.8881 140.4459,106.7601 " fill="none" id="org.apache.wiki.modules.WikiModuleInfo-backto-org.apache.wiki.plugin.DefaultPluginManager.WikiPluginInfo" style="stroke: #A80036; stroke-width: 1.0;"/><polygon fill="none" points="109.4335,67.8706,105.3211,47.0838,121.4987,60.7691,109.4335,67.8706" style="stroke: #A80036; stroke-width: 1.0;"/><!--MD5=[48f90a326c6d9b429bdabe10acd844b5]
reverse link org.apache.wiki.plugin.DefaultPluginManager to org.apache.wiki.plugin.DefaultPluginManager.WikiPluginInfo--><path codeLine="21" d="M270.0123,60.1092 C262.0114,73.7026 252.3374,90.1384 242.5541,106.7601 " fill="none" id="org.apache.wiki.plugin.DefaultPluginManager-backto-org.apache.wiki.plugin.DefaultPluginManager.WikiPluginInfo" style="stroke: #A80036; stroke-width: 1.0;"/><ellipse cx="273.6209" cy="53.9782" fill="#FFFFFF" rx="8" ry="8" style="stroke: #A80036; stroke-width: 1.0;"/><line style="stroke: #A80036; stroke-width: 1.0;" x1="269.5629" x2="277.6789" y1="60.8726" y2="47.0838"/><line style="stroke: #A80036; stroke-width: 1.0;" x1="266.7265" x2="280.5153" y1="49.9202" y2="58.0362"/><text fill="#888888" font-family="sans-serif" font-size="10" lengthAdjust="spacingAndGlyphs" textLength="190" x="93.25" y="303.0918">UMLDoclet 2.0.12, PlantUML 1.2020.16</text><!--MD5=[bdf7ec0ecab71a6096e083b89f67ca16]
@startuml
    set namespaceSeparator none
    hide empty fields
    hide empty methods

    class "<size:14>DefaultPluginManager.WikiPluginInfo\n<size:10>org.apache.wiki.plugin" as org.apache.wiki.plugin.DefaultPluginManager.WikiPluginInfo [[DefaultPluginManager.WikiPluginInfo.html]] {
        {static} #newInstance(String, Element, List<String>, List<String>): WikiPluginInfo
        #initializePlugin(WikiPluginInfo, Engine, List<String>, List<String>): void
        #initializeFromXML(Element): void
        {static} #newInstance(Class<?>): WikiPluginInfo
        +getClassName(): String
        +getAlias(): String
        +getAjaxAlias(): String
        +newPluginInstance(List<String>, List<String>): Plugin
        +getIncludeText(String): String
    }

    class "<size:14>WikiModuleInfo\n<size:10>org.apache.wiki.modules" as org.apache.wiki.modules.WikiModuleInfo [[..\modules\WikiModuleInfo.html]]
    class "<size:14>DefaultPluginManager\n<size:10>org.apache.wiki.plugin" as org.apache.wiki.plugin.DefaultPluginManager [[DefaultPluginManager.html]]

    org.apache.wiki.modules.WikiModuleInfo <|- - org.apache.wiki.plugin.DefaultPluginManager.WikiPluginInfo
    org.apache.wiki.plugin.DefaultPluginManager +- - org.apache.wiki.plugin.DefaultPluginManager.WikiPluginInfo

    center footer UMLDoclet 2.0.12, PlantUML 1.2020.16
@enduml

PlantUML version 1.2020.16(Sun Aug 23 22:20:43 CEST 2020)
(APACHE source distribution)
Java Runtime: OpenJDK Runtime Environment
JVM: OpenJDK 64-Bit Server VM
Default Encoding: Cp1252
Language: es
Country: ES
--></g></svg>