<?xml version="1.0" encoding="UTF-8" standalone="no"?><svg xmlns="http://www.w3.org/2000/svg" xmlns:xlink="http://www.w3.org/1999/xlink" contentScriptType="application/ecmascript" contentStyleType="text/css" height="429px" preserveAspectRatio="none" style="width:310px;height:429px;" version="1.1" viewBox="0 0 310 429" width="310px" zoomAndPan="magnify"><defs><filter height="300%" id="f1qqgcki5mr8u8" width="300%" x="-1" y="-1"><feGaussianBlur result="blurOut" stdDeviation="2.0"/><feColorMatrix in="blurOut" result="blurOut2" type="matrix" values="0 0 0 0 0 0 0 0 0 0 0 0 0 0 0 0 0 0 .4 0"/><feOffset dx="4.0" dy="4.0" in="blurOut2" result="blurOut3"/><feBlend in="SourceGraphic" in2="blurOut3" mode="normal"/></filter></defs><g><!--MD5=[6338ac175d85efd8e738fe573146a3f4]
class org.apache.wiki.plugin.PluginManager--><a href="PluginManager.html" target="_top" title="PluginManager.html" xlink:actuate="onRequest" xlink:href="PluginManager.html" xlink:show="new" xlink:title="PluginManager.html" xlink:type="simple"><rect codeLine="5" fill="#FEFECE" filter="url(#f1qqgcki5mr8u8)" height="236.0547" id="org.apache.wiki.plugin.PluginManager" style="stroke: #A80036; stroke-width: 1.5;" width="284" x="7" y="157"/><ellipse cx="90.75" cy="177.0938" fill="#B4A7E5" rx="11" ry="11" style="stroke: #A80036; stroke-width: 1.0;"/><path d="M91.7031,173.7344 L91.7031,180.3906 L93.4219,180.3906 Q94.0313,180.3906 94.2969,180.625 Q94.5625,180.8594 94.5625,181.25 Q94.5625,181.625 94.2969,181.8594 Q94.0313,182.0938 93.4219,182.0938 L88.2813,182.0938 Q87.6719,182.0938 87.4063,181.8594 Q87.1406,181.625 87.1406,181.2344 Q87.1406,180.8594 87.4063,180.625 Q87.6719,180.3906 88.2813,180.3906 L90,180.3906 L90,173.7344 L88.2813,173.7344 Q87.6719,173.7344 87.4063,173.5 Q87.1406,173.2656 87.1406,172.875 Q87.1406,172.5 87.4063,172.2656 Q87.6719,172.0313 88.2813,172.0313 L93.4219,172.0313 Q94.0313,172.0313 94.2969,172.2656 Q94.5625,172.5 94.5625,172.875 Q94.5625,173.2656 94.2969,173.5 Q94.0313,173.7344 93.4219,173.7344 L91.7031,173.7344 Z "/><text fill="#000000" font-family="sans-serif" font-size="14" font-style="italic" lengthAdjust="spacingAndGlyphs" textLength="96" x="117.25" y="176.5332">PluginManager</text><text fill="#000000" font-family="sans-serif" font-size="10" font-style="italic" lengthAdjust="spacingAndGlyphs" textLength="108" x="111.25" y="189.9902">org.apache.wiki.plugin</text><line style="stroke: #A80036; stroke-width: 1.5;" x1="8" x2="290" y1="197.1875" y2="197.1875"/><ellipse cx="18" cy="208.1875" fill="none" rx="3" ry="3" style="stroke: #038048; stroke-width: 1.0;"/><text fill="#000000" font-family="sans-serif" font-size="11" lengthAdjust="spacingAndGlyphs" text-decoration="underline" textLength="147" x="27" y="212.6064">PROP_EXTERNALJARS: String</text><ellipse cx="18" cy="222.0234" fill="none" rx="3" ry="3" style="stroke: #038048; stroke-width: 1.0;"/><text fill="#000000" font-family="sans-serif" font-size="11" lengthAdjust="spacingAndGlyphs" text-decoration="underline" textLength="136" x="27" y="226.4424">DEFAULT_PACKAGE: String</text><ellipse cx="18" cy="235.8594" fill="none" rx="3" ry="3" style="stroke: #038048; stroke-width: 1.0;"/><text fill="#000000" font-family="sans-serif" font-size="11" lengthAdjust="spacingAndGlyphs" text-decoration="underline" textLength="107" x="27" y="240.2783">PARAM_BODY: String</text><ellipse cx="18" cy="249.6953" fill="none" rx="3" ry="3" style="stroke: #038048; stroke-width: 1.0;"/><text fill="#000000" font-family="sans-serif" font-size="11" lengthAdjust="spacingAndGlyphs" text-decoration="underline" textLength="120" x="27" y="254.1143">PARAM_CMDLINE: String</text><ellipse cx="18" cy="263.5313" fill="none" rx="3" ry="3" style="stroke: #038048; stroke-width: 1.0;"/><text fill="#000000" font-family="sans-serif" font-size="11" lengthAdjust="spacingAndGlyphs" text-decoration="underline" textLength="120" x="27" y="267.9502">PARAM_BOUNDS: String</text><ellipse cx="18" cy="277.3672" fill="none" rx="3" ry="3" style="stroke: #038048; stroke-width: 1.0;"/><text fill="#000000" font-family="sans-serif" font-size="11" lengthAdjust="spacingAndGlyphs" text-decoration="underline" textLength="112" x="27" y="281.7861">PARAM_DEBUG: String</text><line style="stroke: #A80036; stroke-width: 1.5;" x1="8" x2="290" y1="288.2031" y2="288.2031"/><ellipse cx="18" cy="299.2031" fill="#84BE84" rx="3" ry="3" style="stroke: #038048; stroke-width: 1.0;"/><text fill="#000000" font-family="sans-serif" font-size="11" font-style="italic" lengthAdjust="spacingAndGlyphs" textLength="145" x="27" y="303.6221">enablePlugins(boolean): void</text><ellipse cx="18" cy="313.0391" fill="#84BE84" rx="3" ry="3" style="stroke: #038048; stroke-width: 1.0;"/><text fill="#000000" font-family="sans-serif" font-size="11" font-style="italic" lengthAdjust="spacingAndGlyphs" textLength="131" x="27" y="317.458">pluginsEnabled(): boolean</text><ellipse cx="18" cy="326.875" fill="#84BE84" rx="3" ry="3" style="stroke: #038048; stroke-width: 1.0;"/><text fill="#000000" font-family="sans-serif" font-size="11" font-style="italic" lengthAdjust="spacingAndGlyphs" textLength="130" x="27" y="331.2939">getPluginPattern(): Pattern</text><ellipse cx="18" cy="340.7109" fill="#84BE84" rx="3" ry="3" style="stroke: #038048; stroke-width: 1.0;"/><text fill="#000000" font-family="sans-serif" font-size="11" font-style="italic" lengthAdjust="spacingAndGlyphs" textLength="258" x="27" y="345.1299">execute(Context, String, Map&lt;String, String&gt;): String</text><ellipse cx="18" cy="354.5469" fill="#84BE84" rx="3" ry="3" style="stroke: #038048; stroke-width: 1.0;"/><text fill="#000000" font-family="sans-serif" font-size="11" font-style="italic" lengthAdjust="spacingAndGlyphs" textLength="191" x="27" y="358.9658">parseArgs(String): Map&lt;String, String&gt;</text><ellipse cx="18" cy="368.3828" fill="#84BE84" rx="3" ry="3" style="stroke: #038048; stroke-width: 1.0;"/><text fill="#000000" font-family="sans-serif" font-size="11" font-style="italic" lengthAdjust="spacingAndGlyphs" textLength="155" x="27" y="372.8018">execute(Context, String): String</text><ellipse cx="18" cy="382.2188" fill="#84BE84" rx="3" ry="3" style="stroke: #038048; stroke-width: 1.0;"/><text fill="#000000" font-family="sans-serif" font-size="11" font-style="italic" lengthAdjust="spacingAndGlyphs" textLength="235" x="27" y="386.6377">newWikiPlugin(String, ResourceBundle): Plugin</text></a><!--MD5=[0d707e6870a8b962eb78e46288801ad8]
class org.apache.wiki.modules.ModuleManager--><a href="..\modules\ModuleManager.html" target="_top" title="..\modules\ModuleManager.html" xlink:actuate="onRequest" xlink:href="..\modules\ModuleManager.html" xlink:show="new" xlink:title="..\modules\ModuleManager.html" xlink:type="simple"><rect codeLine="21" fill="#FEFECE" filter="url(#f1qqgcki5mr8u8)" height="89.6953" id="org.apache.wiki.modules.ModuleManager" style="stroke: #A80036; stroke-width: 1.5;" width="252" x="23" y="7"/><ellipse cx="86.25" cy="27.0938" fill="#B4A7E5" rx="11" ry="11" style="stroke: #A80036; stroke-width: 1.0;"/><path d="M87.2031,23.7344 L87.2031,30.3906 L88.9219,30.3906 Q89.5313,30.3906 89.7969,30.625 Q90.0625,30.8594 90.0625,31.25 Q90.0625,31.625 89.7969,31.8594 Q89.5313,32.0938 88.9219,32.0938 L83.7813,32.0938 Q83.1719,32.0938 82.9063,31.8594 Q82.6406,31.625 82.6406,31.2344 Q82.6406,30.8594 82.9063,30.625 Q83.1719,30.3906 83.7813,30.3906 L85.5,30.3906 L85.5,23.7344 L83.7813,23.7344 Q83.1719,23.7344 82.9063,23.5 Q82.6406,23.2656 82.6406,22.875 Q82.6406,22.5 82.9063,22.2656 Q83.1719,22.0313 83.7813,22.0313 L88.9219,22.0313 Q89.5313,22.0313 89.7969,22.2656 Q90.0625,22.5 90.0625,22.875 Q90.0625,23.2656 89.7969,23.5 Q89.5313,23.7344 88.9219,23.7344 L87.2031,23.7344 Z "/><text fill="#000000" font-family="sans-serif" font-size="14" font-style="italic" lengthAdjust="spacingAndGlyphs" textLength="104" x="113.25" y="26.5332">ModuleManager</text><text fill="#000000" font-family="sans-serif" font-size="10" font-style="italic" lengthAdjust="spacingAndGlyphs" textLength="117" x="106.75" y="39.9902">org.apache.wiki.modules</text><line style="stroke: #A80036; stroke-width: 1.5;" x1="24" x2="274" y1="47.1875" y2="47.1875"/><ellipse cx="34" cy="58.1875" fill="#84BE84" rx="3" ry="3" style="stroke: #038048; stroke-width: 1.0;"/><text fill="#000000" font-family="sans-serif" font-size="11" font-style="italic" lengthAdjust="spacingAndGlyphs" textLength="226" x="43" y="62.6064">checkCompatibility(WikiModuleInfo): boolean</text><ellipse cx="34" cy="72.0234" fill="#84BE84" rx="3" ry="3" style="stroke: #038048; stroke-width: 1.0;"/><text fill="#000000" font-family="sans-serif" font-size="11" font-style="italic" lengthAdjust="spacingAndGlyphs" textLength="189" x="43" y="76.4424">getModuleInfo(String): WikiModuleInfo</text><ellipse cx="34" cy="85.8594" fill="#84BE84" rx="3" ry="3" style="stroke: #038048; stroke-width: 1.0;"/><text fill="#000000" font-family="sans-serif" font-size="11" font-style="italic" lengthAdjust="spacingAndGlyphs" textLength="195" x="43" y="90.2783">modules(): Collection&lt;WikiModuleInfo&gt;</text></a><!--MD5=[a5ec84222b2004cf6970b79187e5c099]
reverse link org.apache.wiki.modules.ModuleManager to org.apache.wiki.plugin.PluginManager--><path codeLine="27" d="M149,117.559 C149,129.9127 149,143.1783 149,156.5777 " fill="none" id="org.apache.wiki.modules.ModuleManager-backto-org.apache.wiki.plugin.PluginManager" style="stroke: #A80036; stroke-width: 1.0;"/><polygon fill="none" points="142.0001,117.1274,149,97.1274,156.0001,117.1273,142.0001,117.1274" style="stroke: #A80036; stroke-width: 1.0;"/><text fill="#888888" font-family="sans-serif" font-size="10" lengthAdjust="spacingAndGlyphs" textLength="190" x="51" y="416.4355">UMLDoclet 2.0.12, PlantUML 1.2020.16</text><!--MD5=[3bf07610bb2232981719ea51934e79e4]
@startuml
    set namespaceSeparator none
    hide empty fields
    hide empty methods

    interface "<size:14>PluginManager\n<size:10>org.apache.wiki.plugin" as org.apache.wiki.plugin.PluginManager [[PluginManager.html]] {
        {static} +PROP_EXTERNALJARS: String
        {static} +DEFAULT_PACKAGE: String
        {static} +PARAM_BODY: String
        {static} +PARAM_CMDLINE: String
        {static} +PARAM_BOUNDS: String
        {static} +PARAM_DEBUG: String
        {abstract} +enablePlugins(boolean): void
        {abstract} +pluginsEnabled(): boolean
        {abstract} +getPluginPattern(): Pattern
        {abstract} +execute(Context, String, Map<String, String>): String
        {abstract} +parseArgs(String): Map<String, String>
        {abstract} +execute(Context, String): String
        {abstract} +newWikiPlugin(String, ResourceBundle): Plugin
    }

    interface "<size:14>ModuleManager\n<size:10>org.apache.wiki.modules" as org.apache.wiki.modules.ModuleManager [[..\modules\ModuleManager.html]] {
        {abstract} +checkCompatibility(WikiModuleInfo): boolean
        {abstract} +getModuleInfo(String): WikiModuleInfo
        {abstract} +modules(): Collection<WikiModuleInfo>
    }

    org.apache.wiki.modules.ModuleManager <|- - org.apache.wiki.plugin.PluginManager

    center footer UMLDoclet 2.0.12, PlantUML 1.2020.16
@enduml

PlantUML version 1.2020.16(Sun Aug 23 22:20:43 CEST 2020)
(APACHE source distribution)
Java Runtime: OpenJDK Runtime Environment
JVM: OpenJDK 64-Bit Server VM
Default Encoding: Cp1252
Language: es
Country: ES
--></g></svg>