<?xml version="1.0" encoding="UTF-8" standalone="no"?><svg xmlns="http://www.w3.org/2000/svg" xmlns:xlink="http://www.w3.org/1999/xlink" contentScriptType="application/ecmascript" contentStyleType="text/css" height="241px" preserveAspectRatio="none" style="width:282px;height:241px;background:#FFFFFF;" version="1.1" viewBox="0 0 282 241" width="282px" zoomAndPan="magnify"><defs><filter height="300%" id="f1ns4nwwcp6e1j" width="300%" x="-1" y="-1"><feGaussianBlur result="blurOut" stdDeviation="2.0"/><feColorMatrix in="blurOut" result="blurOut2" type="matrix" values="0 0 0 0 0 0 0 0 0 0 0 0 0 0 0 0 0 0 .4 0"/><feOffset dx="4.0" dy="4.0" in="blurOut2" result="blurOut3"/><feBlend in="SourceGraphic" in2="blurOut3" mode="normal"/></filter></defs><g><!--MD5=[f112c0cd869bb24c4e982c904bf90aa4]
class org.apache.wiki.markdown.renderer.JSPWikiNodeRendererFactory--><a href="JSPWikiNodeRendererFactory.html" target="_top" title="JSPWikiNodeRendererFactory.html" xlink:actuate="onRequest" xlink:href="JSPWikiNodeRendererFactory.html" xlink:show="new" xlink:title="JSPWikiNodeRendererFactory.html" xlink:type="simple"><rect codeLine="5" fill="#FEFECE" filter="url(#f1ns4nwwcp6e1j)" height="84.3516" id="org.apache.wiki.markdown.renderer.JSPWikiNodeRendererFactory" style="stroke:#A80036;stroke-width:1.5;" width="238" x="18.5" y="126"/><ellipse cx="36.2" cy="144.9688" fill="#ADD1B2" rx="11" ry="11" style="stroke:#A80036;stroke-width:1.0;"/><path d="M39.1688,150.6094 Q38.5906,150.9063 37.95,151.0469 Q37.3094,151.2031 36.6063,151.2031 Q34.1063,151.2031 32.7781,149.5625 Q31.4656,147.9063 31.4656,144.7813 Q31.4656,141.6563 32.7781,140 Q34.1063,138.3438 36.6063,138.3438 Q37.3094,138.3438 37.95,138.5 Q38.6063,138.6563 39.1688,138.9531 L39.1688,141.6719 Q38.5438,141.0938 37.95,140.8281 Q37.3563,140.5469 36.7313,140.5469 Q35.3875,140.5469 34.7,141.625 Q34.0125,142.6875 34.0125,144.7813 Q34.0125,146.875 34.7,147.9531 Q35.3875,149.0156 36.7313,149.0156 Q37.3563,149.0156 37.95,148.75 Q38.5438,148.4688 39.1688,147.8906 L39.1688,150.6094 Z " fill="#000000"/><text fill="#000000" font-family="sans-serif" font-size="14" lengthAdjust="spacing" textLength="200" x="50.8" y="143.9951">JSPWikiNodeRendererFactory</text><text fill="#000000" font-family="sans-serif" font-size="10" lengthAdjust="spacing" textLength="173" x="64.3" y="156.5791">org.apache.wiki.markdown.renderer</text><line style="stroke:#A80036;stroke-width:1.5;" x1="19.5" x2="255.5" y1="163.9375" y2="163.9375"/><ellipse cx="29.5" cy="174.9375" fill="#84BE84" rx="3" ry="3" style="stroke:#038048;stroke-width:1.0;"/><text fill="#000000" font-family="sans-serif" font-size="11" lengthAdjust="spacing" textLength="212" x="38.5" y="178.1479">JSPWikiNodeRendererFactory(Context)</text><ellipse cx="29.5" cy="187.7422" fill="#84BE84" rx="3" ry="3" style="stroke:#038048;stroke-width:1.0;"/><text fill="#000000" font-family="sans-serif" font-size="11" lengthAdjust="spacing" textLength="190" x="38.5" y="190.9526">apply(DataHolder): NodeRenderer</text><ellipse cx="29.5" cy="200.5469" fill="#84BE84" rx="3" ry="3" style="stroke:#038048;stroke-width:1.0;"/><text fill="#000000" font-family="sans-serif" font-size="11" lengthAdjust="spacing" textLength="184" x="38.5" y="203.7573">getDelegates(): Set&lt;Class&lt;?&gt;&gt;</text></a><!--MD5=[4e00c90093d4c055e89ecf9ca716b50d]
class com.vladsch.flexmark.html.renderer.DelegatingNodeRendererFactory--><rect codeLine="11" fill="#FEFECE" filter="url(#f1ns4nwwcp6e1j)" height="58.7422" id="com.vladsch.flexmark.html.renderer.DelegatingNodeRendererFactory" style="stroke:#A80036;stroke-width:1.5;" width="261" x="7" y="7"/><ellipse cx="22" cy="25.9688" fill="#B4A7E5" rx="11" ry="11" style="stroke:#A80036;stroke-width:1.0;"/><path d="M17.9219,21.7344 L17.9219,19.5781 L25.3125,19.5781 L25.3125,21.7344 L22.8438,21.7344 L22.8438,29.8125 L25.3125,29.8125 L25.3125,31.9688 L17.9219,31.9688 L17.9219,29.8125 L20.3906,29.8125 L20.3906,21.7344 L17.9219,21.7344 Z " fill="#000000"/><text fill="#000000" font-family="sans-serif" font-size="14" font-style="italic" lengthAdjust="spacing" textLength="229" x="36" y="24.9951">DelegatingNodeRendererFactory</text><text fill="#000000" font-family="sans-serif" font-size="10" font-style="italic" lengthAdjust="spacing" textLength="182" x="59.5" y="37.5791">com.vladsch.flexmark.html.renderer</text><line style="stroke:#A80036;stroke-width:1.5;" x1="8" x2="267" y1="44.9375" y2="44.9375"/><ellipse cx="18" cy="55.9375" fill="#84BE84" rx="3" ry="3" style="stroke:#038048;stroke-width:1.0;"/><text fill="#000000" font-family="sans-serif" font-size="11" font-style="italic" lengthAdjust="spacing" textLength="180" x="27" y="59.1479">getDelegates(): Set&lt;Class&lt;?&gt;&gt;</text><!--MD5=[e5905f6b45b43ed64153bd892e314954]
reverse link com.vladsch.flexmark.html.renderer.DelegatingNodeRendererFactory to org.apache.wiki.markdown.renderer.JSPWikiNodeRendererFactory--><path codeLine="15" d="M137.5,86.63 C137.5,99.47 137.5,113.17 137.5,125.56 " fill="none" id="com.vladsch.flexmark.html.renderer.DelegatingNodeRendererFactory-backto-org.apache.wiki.markdown.renderer.JSPWikiNodeRendererFactory" style="stroke:#A80036;stroke-width:1.0;stroke-dasharray:7.0,7.0;"/><polygon fill="none" points="130.5,86.24,137.5,66.24,144.5,86.24,130.5,86.24" style="stroke:#A80036;stroke-width:1.0;"/><text fill="#888888" font-family="sans-serif" font-size="10" lengthAdjust="spacing" textLength="192" x="38.5" y="232.6338">UMLDoclet 2.0.15, PlantUML 1.2021.13</text><!--MD5=[36fb5c37b9000bbffc078a4a09f815cb]
@startuml
    set namespaceSeparator none
    hide empty fields
    hide empty methods

    class "<size:14>JSPWikiNodeRendererFactory\n<size:10>org.apache.wiki.markdown.renderer" as org.apache.wiki.markdown.renderer.JSPWikiNodeRendererFactory [[JSPWikiNodeRendererFactory.html]] {
        +JSPWikiNodeRendererFactory(Context)
        +apply(DataHolder): NodeRenderer
        +getDelegates(): Set<Class<?>>
    }

    interface "<size:14>DelegatingNodeRendererFactory\n<size:10>com.vladsch.flexmark.html.renderer" as com.vladsch.flexmark.html.renderer.DelegatingNodeRendererFactory {
        {abstract} +getDelegates(): Set<Class<?>>
    }

    com.vladsch.flexmark.html.renderer.DelegatingNodeRendererFactory <|.. org.apache.wiki.markdown.renderer.JSPWikiNodeRendererFactory

    center footer UMLDoclet 2.0.15, PlantUML 1.2021.13
@enduml

PlantUML version 1.2021.13(Mon Nov 01 11:38:45 UTC 2021)
(APACHE source distribution)
Java Runtime: OpenJDK Runtime Environment
JVM: OpenJDK 64-Bit Server VM
Default Encoding: UTF-8
Language: en
Country: null
--></g></svg>