<?xml version="1.0" encoding="UTF-8" standalone="no"?><svg xmlns="http://www.w3.org/2000/svg" xmlns:xlink="http://www.w3.org/1999/xlink" contentScriptType="application/ecmascript" contentStyleType="text/css" height="302px" preserveAspectRatio="none" style="width:726px;height:302px;background:#FFFFFF;" version="1.1" viewBox="0 0 726 302" width="726px" zoomAndPan="magnify"><defs><filter height="300%" id="f1dmw5f1apyyig" width="300%" x="-1" y="-1"><feGaussianBlur result="blurOut" stdDeviation="2.0"/><feColorMatrix in="blurOut" result="blurOut2" type="matrix" values="0 0 0 0 0 0 0 0 0 0 0 0 0 0 0 0 0 0 .4 0"/><feOffset dx="4.0" dy="4.0" in="blurOut2" result="blurOut3"/><feBlend in="SourceGraphic" in2="blurOut3" mode="normal"/></filter></defs><g><!--MD5=[52f38bc6e96f690059962166698ac6df]
cluster org.apache.wiki.markdown.renderer--><polygon fill="#FFFFFF" filter="url(#f1dmw5f1apyyig)" points="16,142,311,142,318,164.2969,709,164.2969,709,279,16,279,16,142" style="stroke:#000000;stroke-width:1.5;"/><line style="stroke:#000000;stroke-width:1.5;" x1="16" x2="318" y1="164.2969" y2="164.2969"/><text fill="#000000" font-family="sans-serif" font-size="14" font-weight="bold" lengthAdjust="spacing" textLength="289" x="20" y="156.9951">org.apache.wiki.markdown.renderer</text><!--MD5=[42cc0244660440778e2306a052f6938e]
cluster com.vladsch.flexmark.html.renderer--><polygon fill="#FFFFFF" filter="url(#f1dmw5f1apyyig)" points="16,6,308,6,315,28.2969,709,28.2969,709,118,16,118,16,6" style="stroke:#000000;stroke-width:1.5;"/><line style="stroke:#000000;stroke-width:1.5;" x1="16" x2="315" y1="28.2969" y2="28.2969"/><text fill="#000000" font-family="sans-serif" font-size="14" font-weight="bold" lengthAdjust="spacing" textLength="286" x="20" y="20.9951">com.vladsch.flexmark.html.renderer</text><!--MD5=[ff26b3f40c441dec855ee9cf7e6d2a8f]
class org.apache.wiki.markdown.renderer.JSPWikiLinkRenderer--><a href="JSPWikiLinkRenderer.html" target="_top" title="JSPWikiLinkRenderer.html" xlink:actuate="onRequest" xlink:href="JSPWikiLinkRenderer.html" xlink:show="new" xlink:title="JSPWikiLinkRenderer.html" xlink:type="simple"><rect codeLine="3" fill="#FEFECE" filter="url(#f1dmw5f1apyyig)" height="60.8047" id="org.apache.wiki.markdown.renderer.JSPWikiLinkRenderer" style="stroke:#A80036;stroke-width:1.5;" width="388" x="305" y="189.5"/><ellipse cx="432.25" cy="205.5" fill="#ADD1B2" rx="11" ry="11" style="stroke:#A80036;stroke-width:1.0;"/><path d="M435.2188,211.1406 Q434.6406,211.4375 434,211.5781 Q433.3594,211.7344 432.6563,211.7344 Q430.1563,211.7344 428.8281,210.0938 Q427.5156,208.4375 427.5156,205.3125 Q427.5156,202.1875 428.8281,200.5313 Q430.1563,198.875 432.6563,198.875 Q433.3594,198.875 434,199.0313 Q434.6563,199.1875 435.2188,199.4844 L435.2188,202.2031 Q434.5938,201.625 434,201.3594 Q433.4063,201.0781 432.7813,201.0781 Q431.4375,201.0781 430.75,202.1563 Q430.0625,203.2188 430.0625,205.3125 Q430.0625,207.4063 430.75,208.4844 Q431.4375,209.5469 432.7813,209.5469 Q433.4063,209.5469 434,209.2813 Q434.5938,209 435.2188,208.4219 L435.2188,211.1406 Z " fill="#000000"/><text fill="#000000" font-family="sans-serif" font-size="12" lengthAdjust="spacing" textLength="125" x="452.75" y="209.6543">JSPWikiLinkRenderer</text><line style="stroke:#A80036;stroke-width:1.5;" x1="306" x2="692" y1="221.5" y2="221.5"/><line style="stroke:#A80036;stroke-width:1.5;" x1="306" x2="692" y1="229.5" y2="229.5"/><ellipse cx="316" cy="240.5" fill="#84BE84" rx="3" ry="3" style="stroke:#038048;stroke-width:1.0;"/><text fill="#000000" font-family="sans-serif" font-size="11" lengthAdjust="spacing" textLength="362" x="325" y="243.7104">getNodeRenderingHandlers(): Set&lt;NodeRenderingHandler&lt;?&gt;&gt;</text></a><!--MD5=[f112c0cd869bb24c4e982c904bf90aa4]
class org.apache.wiki.markdown.renderer.JSPWikiNodeRendererFactory--><a href="JSPWikiNodeRendererFactory.html" target="_top" title="JSPWikiNodeRendererFactory.html" xlink:actuate="onRequest" xlink:href="JSPWikiNodeRendererFactory.html" xlink:show="new" xlink:title="JSPWikiNodeRendererFactory.html" xlink:type="simple"><rect codeLine="7" fill="#FEFECE" filter="url(#f1dmw5f1apyyig)" height="86.4141" id="org.apache.wiki.markdown.renderer.JSPWikiNodeRendererFactory" style="stroke:#A80036;stroke-width:1.5;" width="238" x="32" y="177"/><ellipse cx="58.7" cy="193" fill="#ADD1B2" rx="11" ry="11" style="stroke:#A80036;stroke-width:1.0;"/><path d="M61.6688,198.6406 Q61.0906,198.9375 60.45,199.0781 Q59.8094,199.2344 59.1063,199.2344 Q56.6063,199.2344 55.2781,197.5938 Q53.9656,195.9375 53.9656,192.8125 Q53.9656,189.6875 55.2781,188.0313 Q56.6063,186.375 59.1063,186.375 Q59.8094,186.375 60.45,186.5313 Q61.1063,186.6875 61.6688,186.9844 L61.6688,189.7031 Q61.0438,189.125 60.45,188.8594 Q59.8563,188.5781 59.2313,188.5781 Q57.8875,188.5781 57.2,189.6563 Q56.5125,190.7188 56.5125,192.8125 Q56.5125,194.9063 57.2,195.9844 Q57.8875,197.0469 59.2313,197.0469 Q59.8563,197.0469 60.45,196.7813 Q61.0438,196.5 61.6688,195.9219 L61.6688,198.6406 Z " fill="#000000"/><text fill="#000000" font-family="sans-serif" font-size="12" lengthAdjust="spacing" textLength="180" x="75.3" y="197.1543">JSPWikiNodeRendererFactory</text><line style="stroke:#A80036;stroke-width:1.5;" x1="33" x2="269" y1="209" y2="209"/><line style="stroke:#A80036;stroke-width:1.5;" x1="33" x2="269" y1="217" y2="217"/><ellipse cx="43" cy="228" fill="#84BE84" rx="3" ry="3" style="stroke:#038048;stroke-width:1.0;"/><text fill="#000000" font-family="sans-serif" font-size="11" lengthAdjust="spacing" textLength="212" x="52" y="231.2104">JSPWikiNodeRendererFactory(Context)</text><ellipse cx="43" cy="240.8047" fill="#84BE84" rx="3" ry="3" style="stroke:#038048;stroke-width:1.0;"/><text fill="#000000" font-family="sans-serif" font-size="11" lengthAdjust="spacing" textLength="190" x="52" y="244.0151">apply(DataHolder): NodeRenderer</text><ellipse cx="43" cy="253.6094" fill="#84BE84" rx="3" ry="3" style="stroke:#038048;stroke-width:1.0;"/><text fill="#000000" font-family="sans-serif" font-size="11" lengthAdjust="spacing" textLength="184" x="52" y="256.8198">getDelegates(): Set&lt;Class&lt;?&gt;&gt;</text></a><!--MD5=[8cd6336943773a98c226716fab62c4b2]
class com.vladsch.flexmark.html.renderer.NodeRenderer--><rect codeLine="18" fill="#FEFECE" filter="url(#f1dmw5f1apyyig)" height="60.8047" id="com.vladsch.flexmark.html.renderer.NodeRenderer" style="stroke:#A80036;stroke-width:1.5;" width="388" x="305" y="41"/><ellipse cx="449.25" cy="57" fill="#B4A7E5" rx="11" ry="11" style="stroke:#A80036;stroke-width:1.0;"/><path d="M445.1719,52.7656 L445.1719,50.6094 L452.5625,50.6094 L452.5625,52.7656 L450.0938,52.7656 L450.0938,60.8438 L452.5625,60.8438 L452.5625,63 L445.1719,63 L445.1719,60.8438 L447.6406,60.8438 L447.6406,52.7656 L445.1719,52.7656 Z " fill="#000000"/><text fill="#000000" font-family="sans-serif" font-size="12" font-style="italic" lengthAdjust="spacing" textLength="91" x="469.75" y="61.1543">NodeRenderer</text><line style="stroke:#A80036;stroke-width:1.5;" x1="306" x2="692" y1="73" y2="73"/><line style="stroke:#A80036;stroke-width:1.5;" x1="306" x2="692" y1="81" y2="81"/><ellipse cx="316" cy="92" fill="#84BE84" rx="3" ry="3" style="stroke:#038048;stroke-width:1.0;"/><text fill="#000000" font-family="sans-serif" font-size="11" font-style="italic" lengthAdjust="spacing" textLength="362" x="325" y="95.2104">getNodeRenderingHandlers(): Set&lt;NodeRenderingHandler&lt;?&gt;&gt;</text><!--MD5=[4e00c90093d4c055e89ecf9ca716b50d]
class com.vladsch.flexmark.html.renderer.DelegatingNodeRendererFactory--><rect codeLine="21" fill="#FEFECE" filter="url(#f1dmw5f1apyyig)" height="60.8047" id="com.vladsch.flexmark.html.renderer.DelegatingNodeRendererFactory" style="stroke:#A80036;stroke-width:1.5;" width="238" x="32" y="41"/><ellipse cx="47" cy="57" fill="#B4A7E5" rx="11" ry="11" style="stroke:#A80036;stroke-width:1.0;"/><path d="M42.9219,52.7656 L42.9219,50.6094 L50.3125,50.6094 L50.3125,52.7656 L47.8438,52.7656 L47.8438,60.8438 L50.3125,60.8438 L50.3125,63 L42.9219,63 L42.9219,60.8438 L45.3906,60.8438 L45.3906,52.7656 L42.9219,52.7656 Z " fill="#000000"/><text fill="#000000" font-family="sans-serif" font-size="12" font-style="italic" lengthAdjust="spacing" textLength="206" x="61" y="61.1543">DelegatingNodeRendererFactory</text><line style="stroke:#A80036;stroke-width:1.5;" x1="33" x2="269" y1="73" y2="73"/><line style="stroke:#A80036;stroke-width:1.5;" x1="33" x2="269" y1="81" y2="81"/><ellipse cx="43" cy="92" fill="#84BE84" rx="3" ry="3" style="stroke:#038048;stroke-width:1.0;"/><text fill="#000000" font-family="sans-serif" font-size="11" font-style="italic" lengthAdjust="spacing" textLength="180" x="52" y="95.2104">getDelegates(): Set&lt;Class&lt;?&gt;&gt;</text><!--MD5=[1cbfc9c4a74f847993c4b08a699904dc]
reverse link com.vladsch.flexmark.html.renderer.NodeRenderer to org.apache.wiki.markdown.renderer.JSPWikiLinkRenderer--><path codeLine="13" d="M499,122.24 C499,144.56 499,170.15 499,189.4 " fill="none" id="com.vladsch.flexmark.html.renderer.NodeRenderer-backto-org.apache.wiki.markdown.renderer.JSPWikiLinkRenderer" style="stroke:#A80036;stroke-width:1.0;stroke-dasharray:7.0,7.0;"/><polygon fill="none" points="492,122.15,499,102.15,506,122.15,492,122.15" style="stroke:#A80036;stroke-width:1.0;"/><!--MD5=[e5905f6b45b43ed64153bd892e314954]
reverse link com.vladsch.flexmark.html.renderer.DelegatingNodeRendererFactory to org.apache.wiki.markdown.renderer.JSPWikiNodeRendererFactory--><path codeLine="14" d="M151,122.43 C151,140.15 151,159.9 151,176.91 " fill="none" id="com.vladsch.flexmark.html.renderer.DelegatingNodeRendererFactory-backto-org.apache.wiki.markdown.renderer.JSPWikiNodeRendererFactory" style="stroke:#A80036;stroke-width:1.0;stroke-dasharray:7.0,7.0;"/><polygon fill="none" points="144,122.15,151,102.15,158,122.15,144,122.15" style="stroke:#A80036;stroke-width:1.0;"/><text fill="#888888" font-family="sans-serif" font-size="10" lengthAdjust="spacing" textLength="192" x="260.5" y="294.2822">UMLDoclet 2.0.15, PlantUML 1.2021.13</text><!--MD5=[e1ebc844bf481ddafb467a6d86825b4d]
@startuml
    namespace org.apache.wiki.markdown.renderer {

        class JSPWikiLinkRenderer [[JSPWikiLinkRenderer.html]] {
            +getNodeRenderingHandlers(): Set<NodeRenderingHandler<?>>
        }

        class JSPWikiNodeRendererFactory [[JSPWikiNodeRendererFactory.html]] {
            +JSPWikiNodeRendererFactory(Context)
            +apply(DataHolder): NodeRenderer
            +getDelegates(): Set<Class<?>>
        }

        com.vladsch.flexmark.html.renderer.NodeRenderer <|.. JSPWikiLinkRenderer
        com.vladsch.flexmark.html.renderer.DelegatingNodeRendererFactory <|.. JSPWikiNodeRendererFactory
    }

    namespace com.vladsch.flexmark.html.renderer {
        interface NodeRenderer {
            {abstract} +getNodeRenderingHandlers(): Set<NodeRenderingHandler<?>>
        }
        interface DelegatingNodeRendererFactory {
            {abstract} +getDelegates(): Set<Class<?>>
        }
    }

    center footer UMLDoclet 2.0.15, PlantUML 1.2021.13
@enduml

PlantUML version 1.2021.13(Mon Nov 01 11:38:45 UTC 2021)
(APACHE source distribution)
Java Runtime: OpenJDK Runtime Environment
JVM: OpenJDK 64-Bit Server VM
Default Encoding: UTF-8
Language: en
Country: US
--></g></svg>