<?xml version="1.0" encoding="UTF-8" standalone="no"?><svg xmlns="http://www.w3.org/2000/svg" xmlns:xlink="http://www.w3.org/1999/xlink" contentScriptType="application/ecmascript" contentStyleType="text/css" height="255px" preserveAspectRatio="none" style="width:463px;height:255px;" version="1.1" viewBox="0 0 463 255" width="463px" zoomAndPan="magnify"><defs><filter height="300%" id="fwh5r41w4cb5d" width="300%" x="-1" y="-1"><feGaussianBlur result="blurOut" stdDeviation="2.0"/><feColorMatrix in="blurOut" result="blurOut2" type="matrix" values="0 0 0 0 0 0 0 0 0 0 0 0 0 0 0 0 0 0 .4 0"/><feOffset dx="4.0" dy="4.0" in="blurOut2" result="blurOut3"/><feBlend in="SourceGraphic" in2="blurOut3" mode="normal"/></filter></defs><g><!--MD5=[74eba5e69ae8ca9ffec51585b25df123]
cluster org.apache.wiki.tasks.pages--><polygon fill="#FFFFFF" filter="url(#fwh5r41w4cb5d)" points="16,114,220,114,227,137.6094,441,137.6094,441,226,16,226,16,114" style="stroke: #000000; stroke-width: 1.5;"/><line style="stroke: #000000; stroke-width: 1.5;" x1="16" x2="227" y1="137.6094" y2="137.6094"/><text fill="#000000" font-family="sans-serif" font-size="14" font-weight="bold" lengthAdjust="spacingAndGlyphs" textLength="198" x="20" y="130.5332">org.apache.wiki.tasks.pages</text><!--MD5=[1bb04c14740e941ad380a800748883c1]
cluster org.apache.wiki.workflow--><polygon fill="#FFFFFF" filter="url(#fwh5r41w4cb5d)" points="145,6,328,6,335,29.6094,338,29.6094,338,90,145,90,145,6" style="stroke: #000000; stroke-width: 1.5;"/><line style="stroke: #000000; stroke-width: 1.5;" x1="145" x2="335" y1="29.6094" y2="29.6094"/><text fill="#000000" font-family="sans-serif" font-size="14" font-weight="bold" lengthAdjust="spacingAndGlyphs" textLength="177" x="149" y="22.5332">org.apache.wiki.workflow</text><!--MD5=[e9cff159f2090a2ff1e9bb81a1449c26]
class org.apache.wiki.tasks.pages.PreSaveWikiPageTask--><a href="PreSaveWikiPageTask.html" target="_top" title="PreSaveWikiPageTask.html" xlink:actuate="onRequest" xlink:href="PreSaveWikiPageTask.html" xlink:show="new" xlink:title="PreSaveWikiPageTask.html" xlink:type="simple"><rect codeLine="3" fill="#FEFECE" filter="url(#fwh5r41w4cb5d)" height="75.6719" id="org.apache.wiki.tasks.pages.PreSaveWikiPageTask" style="stroke: #A80036; stroke-width: 1.5;" width="212" x="221" y="142"/><ellipse cx="260.75" cy="158" fill="#ADD1B2" rx="11" ry="11" style="stroke: #A80036; stroke-width: 1.0;"/><path d="M263.5156,153.875 Q263.6719,153.6563 263.8594,153.5469 Q264.0469,153.4375 264.2656,153.4375 Q264.6406,153.4375 264.875,153.7031 Q265.1094,153.9531 265.1094,154.5625 L265.1094,156.0156 Q265.1094,156.625 264.875,156.8906 Q264.6406,157.1563 264.2656,157.1563 Q263.9219,157.1563 263.7188,156.9531 Q263.5156,156.7656 263.4063,156.25 Q263.3594,155.8906 263.1719,155.7031 Q262.8438,155.3281 262.2344,155.1094 Q261.625,154.8906 261,154.8906 Q260.2344,154.8906 259.5938,155.2188 Q258.9688,155.5469 258.4688,156.2969 Q257.9844,157.0469 257.9844,158.0781 L257.9844,159.1719 Q257.9844,160.4063 258.875,161.2344 Q259.7656,162.0469 261.3594,162.0469 Q262.2969,162.0469 262.9531,161.7969 Q263.3438,161.6406 263.7656,161.2031 Q264.0313,160.9375 264.1719,160.8594 Q264.3281,160.7813 264.5313,160.7813 Q264.8594,160.7813 265.1094,161.0469 Q265.375,161.2969 265.375,161.6406 Q265.375,161.9844 265.0313,162.3906 Q264.5313,162.9688 263.7344,163.2969 Q262.6563,163.75 261.3594,163.75 Q259.8438,163.75 258.6406,163.125 Q257.6563,162.625 256.9688,161.5625 Q256.2813,160.4844 256.2813,159.2031 L256.2813,158.0469 Q256.2813,156.7188 256.8906,155.5781 Q257.5156,154.4219 258.6094,153.8125 Q259.7031,153.1875 260.9375,153.1875 Q261.6719,153.1875 262.3125,153.3594 Q262.9688,153.5156 263.5156,153.875 Z "/><text fill="#000000" font-family="sans-serif" font-size="12" lengthAdjust="spacingAndGlyphs" textLength="125" x="280.25" y="162.9102">PreSaveWikiPageTask</text><line style="stroke: #A80036; stroke-width: 1.5;" x1="222" x2="432" y1="174" y2="174"/><line style="stroke: #A80036; stroke-width: 1.5;" x1="222" x2="432" y1="182" y2="182"/><ellipse cx="232" cy="193" fill="#84BE84" rx="3" ry="3" style="stroke: #038048; stroke-width: 1.0;"/><text fill="#000000" font-family="sans-serif" font-size="11" lengthAdjust="spacingAndGlyphs" textLength="186" x="241" y="197.4189">PreSaveWikiPageTask(Context, String)</text><ellipse cx="232" cy="206.8359" fill="#84BE84" rx="3" ry="3" style="stroke: #038048; stroke-width: 1.0;"/><text fill="#000000" font-family="sans-serif" font-size="11" lengthAdjust="spacingAndGlyphs" textLength="96" x="241" y="211.2549">execute(): Outcome</text></a><!--MD5=[5318503f74c99f5c286a5a625737de8a]
class org.apache.wiki.tasks.pages.SaveWikiPageTask--><a href="SaveWikiPageTask.html" target="_top" title="SaveWikiPageTask.html" xlink:actuate="onRequest" xlink:href="SaveWikiPageTask.html" xlink:show="new" xlink:title="SaveWikiPageTask.html" xlink:type="simple"><rect codeLine="8" fill="#FEFECE" filter="url(#fwh5r41w4cb5d)" height="75.6719" id="org.apache.wiki.tasks.pages.SaveWikiPageTask" style="stroke: #A80036; stroke-width: 1.5;" width="162" x="24" y="142"/><ellipse cx="49.8" cy="158" fill="#ADD1B2" rx="11" ry="11" style="stroke: #A80036; stroke-width: 1.0;"/><path d="M52.5656,153.875 Q52.7219,153.6563 52.9094,153.5469 Q53.0969,153.4375 53.3156,153.4375 Q53.6906,153.4375 53.925,153.7031 Q54.1594,153.9531 54.1594,154.5625 L54.1594,156.0156 Q54.1594,156.625 53.925,156.8906 Q53.6906,157.1563 53.3156,157.1563 Q52.9719,157.1563 52.7688,156.9531 Q52.5656,156.7656 52.4563,156.25 Q52.4094,155.8906 52.2219,155.7031 Q51.8938,155.3281 51.2844,155.1094 Q50.675,154.8906 50.05,154.8906 Q49.2844,154.8906 48.6438,155.2188 Q48.0188,155.5469 47.5188,156.2969 Q47.0344,157.0469 47.0344,158.0781 L47.0344,159.1719 Q47.0344,160.4063 47.925,161.2344 Q48.8156,162.0469 50.4094,162.0469 Q51.3469,162.0469 52.0031,161.7969 Q52.3938,161.6406 52.8156,161.2031 Q53.0813,160.9375 53.2219,160.8594 Q53.3781,160.7813 53.5813,160.7813 Q53.9094,160.7813 54.1594,161.0469 Q54.425,161.2969 54.425,161.6406 Q54.425,161.9844 54.0813,162.3906 Q53.5813,162.9688 52.7844,163.2969 Q51.7063,163.75 50.4094,163.75 Q48.8938,163.75 47.6906,163.125 Q46.7063,162.625 46.0188,161.5625 Q45.3313,160.4844 45.3313,159.2031 L45.3313,158.0469 Q45.3313,156.7188 45.9406,155.5781 Q46.5656,154.4219 47.6594,153.8125 Q48.7531,153.1875 49.9875,153.1875 Q50.7219,153.1875 51.3625,153.3594 Q52.0188,153.5156 52.5656,153.875 Z "/><text fill="#000000" font-family="sans-serif" font-size="12" lengthAdjust="spacingAndGlyphs" textLength="106" x="66.2" y="162.9102">SaveWikiPageTask</text><line style="stroke: #A80036; stroke-width: 1.5;" x1="25" x2="185" y1="174" y2="174"/><line style="stroke: #A80036; stroke-width: 1.5;" x1="25" x2="185" y1="182" y2="182"/><ellipse cx="35" cy="193" fill="#84BE84" rx="3" ry="3" style="stroke: #038048; stroke-width: 1.0;"/><text fill="#000000" font-family="sans-serif" font-size="11" lengthAdjust="spacingAndGlyphs" textLength="136" x="44" y="197.4189">SaveWikiPageTask(Context)</text><ellipse cx="35" cy="206.8359" fill="#84BE84" rx="3" ry="3" style="stroke: #038048; stroke-width: 1.0;"/><text fill="#000000" font-family="sans-serif" font-size="11" lengthAdjust="spacingAndGlyphs" textLength="96" x="44" y="211.2549">execute(): Outcome</text></a><!--MD5=[ddd9fe3ac7221505577f2a4ed232731a]
class org.apache.wiki.workflow.Task--><a href="..\..\workflow\Task.html" target="_top" title="..\..\workflow\Task.html" xlink:actuate="onRequest" xlink:href="..\..\workflow\Task.html" xlink:show="new" xlink:title="..\..\workflow\Task.html" xlink:type="simple"><rect codeLine="18" fill="#FEFECE" filter="url(#fwh5r41w4cb5d)" height="48" id="org.apache.wiki.workflow.Task" style="stroke: #A80036; stroke-width: 1.5;" width="59" x="178.5" y="34"/><ellipse cx="193.5" cy="50" fill="#A9DCDF" rx="11" ry="11" style="stroke: #A80036; stroke-width: 1.0;"/><path d="M195.6875,51.7656 L191.5469,51.7656 L191.125,52.7969 L191.5469,52.7969 Q192.1563,52.7969 192.4219,53.0313 Q192.6875,53.2656 192.6875,53.6563 Q192.6875,54.0313 192.4219,54.2656 Q192.1563,54.5 191.5469,54.5 L189.25,54.5 Q188.6406,54.5 188.3906,54.2656 Q188.125,54.0313 188.125,53.6406 Q188.125,53.2656 188.4063,53.0313 Q188.6719,52.7813 189.2969,52.7969 L191.9688,46.1406 L190.8594,46.1406 Q190.25,46.1406 189.9844,45.9063 Q189.7188,45.6719 189.7188,45.2813 Q189.7188,44.9063 189.9844,44.6719 Q190.25,44.4375 190.8594,44.4375 L194.5313,44.4375 L197.9219,52.7969 Q198.5156,52.7969 198.7031,52.9375 Q199.0938,53.2031 199.0938,53.6563 Q199.0938,54.0313 198.8281,54.2656 Q198.5781,54.5 197.9688,54.5 L195.6719,54.5 Q195.0625,54.5 194.7969,54.2656 Q194.5313,54.0313 194.5313,53.6406 Q194.5313,53.2656 194.7969,53.0313 Q195.0625,52.7969 195.6719,52.7969 L196.0938,52.7969 L195.6875,51.7656 Z M194.9688,50.0625 L193.6094,46.6875 L192.2344,50.0625 L194.9688,50.0625 Z "/><text fill="#000000" font-family="sans-serif" font-size="12" font-style="italic" lengthAdjust="spacingAndGlyphs" textLength="27" x="207.5" y="54.9102">Task</text><line style="stroke: #A80036; stroke-width: 1.5;" x1="179.5" x2="236.5" y1="66" y2="66"/><line style="stroke: #A80036; stroke-width: 1.5;" x1="179.5" x2="236.5" y1="74" y2="74"/></a><!--MD5=[d3a27e2507cf71a76c8bbb2bf56b4408]
reverse link org.apache.wiki.workflow.Task to org.apache.wiki.tasks.pages.PreSaveWikiPageTask--><path codeLine="13" d="M245.7605,96.7124 C259.7253,111.0293 275.5426,127.2453 289.4855,141.5397 " fill="none" id="org.apache.wiki.workflow.Task-backto-org.apache.wiki.tasks.pages.PreSaveWikiPageTask" style="stroke: #A80036; stroke-width: 1.0;"/><polygon fill="none" points="240.4646,101.3081,231.5106,82.1033,250.4866,91.5326,240.4646,101.3081" style="stroke: #A80036; stroke-width: 1.0;"/><!--MD5=[4c8165edfdaa6bb8cce79b21523a4214]
reverse link org.apache.wiki.workflow.Task to org.apache.wiki.tasks.pages.SaveWikiPageTask--><path codeLine="14" d="M174.5429,97.6288 C162.6475,111.7185 149.282,127.5494 137.4705,141.5397 " fill="none" id="org.apache.wiki.workflow.Task-backto-org.apache.wiki.tasks.pages.SaveWikiPageTask" style="stroke: #A80036; stroke-width: 1.0;"/><polygon fill="none" points="169.3998,92.8696,187.6505,82.1033,180.0972,101.901,169.3998,92.8696" style="stroke: #A80036; stroke-width: 1.0;"/><text fill="#888888" font-family="sans-serif" font-size="10" lengthAdjust="spacingAndGlyphs" textLength="190" x="127.5" y="242.3809">UMLDoclet 2.0.12, PlantUML 1.2020.16</text><!--MD5=[49cf30901e7567527b81ca21d3be3e4b]
@startuml
    namespace org.apache.wiki.tasks.pages {

        class PreSaveWikiPageTask [[PreSaveWikiPageTask.html]] {
            +PreSaveWikiPageTask(Context, String)
            +execute(): Outcome
        }

        class SaveWikiPageTask [[SaveWikiPageTask.html]] {
            +SaveWikiPageTask(Context)
            +execute(): Outcome
        }

        org.apache.wiki.workflow.Task <|- - PreSaveWikiPageTask
        org.apache.wiki.workflow.Task <|- - SaveWikiPageTask
    }

    namespace org.apache.wiki.workflow {
        abstract class Task [[..\..\workflow\Task.html]] {
        }
    }

    center footer UMLDoclet 2.0.12, PlantUML 1.2020.16
@enduml

PlantUML version 1.2020.16(Sun Aug 23 22:20:43 CEST 2020)
(APACHE source distribution)
Java Runtime: OpenJDK Runtime Environment
JVM: OpenJDK 64-Bit Server VM
Default Encoding: Cp1252
Language: es
Country: ES
--></g></svg>