<?xml version="1.0" encoding="UTF-8" standalone="no"?><svg xmlns="http://www.w3.org/2000/svg" xmlns:xlink="http://www.w3.org/1999/xlink" contentScriptType="application/ecmascript" contentStyleType="text/css" height="219px" preserveAspectRatio="none" style="width:238px;height:219px;" version="1.1" viewBox="0 0 238 219" width="238px" zoomAndPan="magnify"><defs><filter height="300%" id="f17gxidqhshg2j" width="300%" x="-1" y="-1"><feGaussianBlur result="blurOut" stdDeviation="2.0"/><feColorMatrix in="blurOut" result="blurOut2" type="matrix" values="0 0 0 0 0 0 0 0 0 0 0 0 0 0 0 0 0 0 .4 0"/><feOffset dx="4.0" dy="4.0" in="blurOut2" result="blurOut3"/><feBlend in="SourceGraphic" in2="blurOut3" mode="normal"/></filter></defs><g><!--MD5=[e9cff159f2090a2ff1e9bb81a1449c26]
class org.apache.wiki.tasks.pages.PreSaveWikiPageTask--><a href="PreSaveWikiPageTask.html" target="_top" title="PreSaveWikiPageTask.html" xlink:actuate="onRequest" xlink:href="PreSaveWikiPageTask.html" xlink:show="new" xlink:title="PreSaveWikiPageTask.html" xlink:type="simple"><rect codeLine="5" fill="#FEFECE" filter="url(#f17gxidqhshg2j)" height="75.8594" id="org.apache.wiki.tasks.pages.PreSaveWikiPageTask" style="stroke: #A80036; stroke-width: 1.5;" width="212" x="7" y="107"/><ellipse cx="38.2" cy="127.0938" fill="#ADD1B2" rx="11" ry="11" style="stroke: #A80036; stroke-width: 1.0;"/><path d="M40.9656,122.9688 Q41.1219,122.75 41.3094,122.6406 Q41.4969,122.5313 41.7156,122.5313 Q42.0906,122.5313 42.325,122.7969 Q42.5594,123.0469 42.5594,123.6563 L42.5594,125.1094 Q42.5594,125.7188 42.325,125.9844 Q42.0906,126.25 41.7156,126.25 Q41.3719,126.25 41.1688,126.0469 Q40.9656,125.8594 40.8563,125.3438 Q40.8094,124.9844 40.6219,124.7969 Q40.2938,124.4219 39.6844,124.2031 Q39.075,123.9844 38.45,123.9844 Q37.6844,123.9844 37.0438,124.3125 Q36.4188,124.6406 35.9188,125.3906 Q35.4344,126.1406 35.4344,127.1719 L35.4344,128.2656 Q35.4344,129.5 36.325,130.3281 Q37.2156,131.1406 38.8094,131.1406 Q39.7469,131.1406 40.4031,130.8906 Q40.7938,130.7344 41.2156,130.2969 Q41.4813,130.0313 41.6219,129.9531 Q41.7781,129.875 41.9813,129.875 Q42.3094,129.875 42.5594,130.1406 Q42.825,130.3906 42.825,130.7344 Q42.825,131.0781 42.4813,131.4844 Q41.9813,132.0625 41.1844,132.3906 Q40.1063,132.8438 38.8094,132.8438 Q37.2938,132.8438 36.0906,132.2188 Q35.1063,131.7188 34.4188,130.6563 Q33.7313,129.5781 33.7313,128.2969 L33.7313,127.1406 Q33.7313,125.8125 34.3406,124.6719 Q34.9656,123.5156 36.0594,122.9063 Q37.1531,122.2813 38.3875,122.2813 Q39.1219,122.2813 39.7625,122.4531 Q40.4188,122.6094 40.9656,122.9688 Z "/><text fill="#000000" font-family="sans-serif" font-size="14" lengthAdjust="spacingAndGlyphs" textLength="144" x="55.8" y="126.5332">PreSaveWikiPageTask</text><text fill="#000000" font-family="sans-serif" font-size="10" lengthAdjust="spacingAndGlyphs" textLength="129" x="63.3" y="139.9902">org.apache.wiki.tasks.pages</text><line style="stroke: #A80036; stroke-width: 1.5;" x1="8" x2="218" y1="147.1875" y2="147.1875"/><ellipse cx="18" cy="158.1875" fill="#84BE84" rx="3" ry="3" style="stroke: #038048; stroke-width: 1.0;"/><text fill="#000000" font-family="sans-serif" font-size="11" lengthAdjust="spacingAndGlyphs" textLength="186" x="27" y="162.6064">PreSaveWikiPageTask(Context, String)</text><ellipse cx="18" cy="172.0234" fill="#84BE84" rx="3" ry="3" style="stroke: #038048; stroke-width: 1.0;"/><text fill="#000000" font-family="sans-serif" font-size="11" lengthAdjust="spacingAndGlyphs" textLength="96" x="27" y="176.4424">execute(): Outcome</text></a><!--MD5=[ddd9fe3ac7221505577f2a4ed232731a]
class org.apache.wiki.workflow.Task--><a href="..\..\workflow\Task.html" target="_top" title="..\..\workflow\Task.html" xlink:actuate="onRequest" xlink:href="..\..\workflow\Task.html" xlink:show="new" xlink:title="..\..\workflow\Task.html" xlink:type="simple"><rect codeLine="10" fill="#FEFECE" filter="url(#f17gxidqhshg2j)" height="40.1875" id="org.apache.wiki.workflow.Task" style="stroke: #A80036; stroke-width: 1.5;" width="152" x="37" y="7"/><ellipse cx="52" cy="27.0938" fill="#A9DCDF" rx="11" ry="11" style="stroke: #A80036; stroke-width: 1.0;"/><path d="M54.1875,28.8594 L50.0469,28.8594 L49.625,29.8906 L50.0469,29.8906 Q50.6563,29.8906 50.9219,30.125 Q51.1875,30.3594 51.1875,30.75 Q51.1875,31.125 50.9219,31.3594 Q50.6563,31.5938 50.0469,31.5938 L47.75,31.5938 Q47.1406,31.5938 46.8906,31.3594 Q46.625,31.125 46.625,30.7344 Q46.625,30.3594 46.9063,30.125 Q47.1719,29.875 47.7969,29.8906 L50.4688,23.2344 L49.3594,23.2344 Q48.75,23.2344 48.4844,23 Q48.2188,22.7656 48.2188,22.375 Q48.2188,22 48.4844,21.7656 Q48.75,21.5313 49.3594,21.5313 L53.0313,21.5313 L56.4219,29.8906 Q57.0156,29.8906 57.2031,30.0313 Q57.5938,30.2969 57.5938,30.75 Q57.5938,31.125 57.3281,31.3594 Q57.0781,31.5938 56.4688,31.5938 L54.1719,31.5938 Q53.5625,31.5938 53.2969,31.3594 Q53.0313,31.125 53.0313,30.7344 Q53.0313,30.3594 53.2969,30.125 Q53.5625,29.8906 54.1719,29.8906 L54.5938,29.8906 L54.1875,28.8594 Z M53.4688,27.1563 L52.1094,23.7813 L50.7344,27.1563 L53.4688,27.1563 Z "/><text fill="#000000" font-family="sans-serif" font-size="14" font-style="italic" lengthAdjust="spacingAndGlyphs" textLength="32" x="110" y="26.5332">Task</text><text fill="#000000" font-family="sans-serif" font-size="10" font-style="italic" lengthAdjust="spacingAndGlyphs" textLength="120" x="66" y="39.9902">org.apache.wiki.workflow</text></a><!--MD5=[d3a27e2507cf71a76c8bbb2bf56b4408]
reverse link org.apache.wiki.workflow.Task to org.apache.wiki.tasks.pages.PreSaveWikiPageTask--><path codeLine="12" d="M113,67.3546 C113,80.095 113,94.1282 113,106.7193 " fill="none" id="org.apache.wiki.workflow.Task-backto-org.apache.wiki.tasks.pages.PreSaveWikiPageTask" style="stroke: #A80036; stroke-width: 1.0;"/><polygon fill="none" points="106.0001,67.0171,113,47.0171,120.0001,67.0171,106.0001,67.0171" style="stroke: #A80036; stroke-width: 1.0;"/><text fill="#888888" font-family="sans-serif" font-size="10" lengthAdjust="spacingAndGlyphs" textLength="190" x="15" y="206.2402">UMLDoclet 2.0.12, PlantUML 1.2020.16</text><!--MD5=[f2f316b7d55fb09e2bb90307994b44f0]
@startuml
    set namespaceSeparator none
    hide empty fields
    hide empty methods

    class "<size:14>PreSaveWikiPageTask\n<size:10>org.apache.wiki.tasks.pages" as org.apache.wiki.tasks.pages.PreSaveWikiPageTask [[PreSaveWikiPageTask.html]] {
        +PreSaveWikiPageTask(Context, String)
        +execute(): Outcome
    }

    abstract class "<size:14>Task\n<size:10>org.apache.wiki.workflow" as org.apache.wiki.workflow.Task [[..\..\workflow\Task.html]]

    org.apache.wiki.workflow.Task <|- - org.apache.wiki.tasks.pages.PreSaveWikiPageTask

    center footer UMLDoclet 2.0.12, PlantUML 1.2020.16
@enduml

PlantUML version 1.2020.16(Sun Aug 23 22:20:43 CEST 2020)
(APACHE source distribution)
Java Runtime: OpenJDK Runtime Environment
JVM: OpenJDK 64-Bit Server VM
Default Encoding: Cp1252
Language: es
Country: ES
--></g></svg>