<?xml version="1.0" encoding="UTF-8" standalone="no"?><svg xmlns="http://www.w3.org/2000/svg" xmlns:xlink="http://www.w3.org/1999/xlink" contentScriptType="application/ecmascript" contentStyleType="text/css" height="126px" preserveAspectRatio="none" style="width:276px;height:126px;" version="1.1" viewBox="0 0 276 126" width="276px" zoomAndPan="magnify"><defs><filter height="300%" id="f1u7lytuv3yo5z" width="300%" x="-1" y="-1"><feGaussianBlur result="blurOut" stdDeviation="2.0"/><feColorMatrix in="blurOut" result="blurOut2" type="matrix" values="0 0 0 0 0 0 0 0 0 0 0 0 0 0 0 0 0 0 .4 0"/><feOffset dx="4.0" dy="4.0" in="blurOut2" result="blurOut3"/><feBlend in="SourceGraphic" in2="blurOut3" mode="normal"/></filter></defs><g><!--class JSPWikiNodeRendererFactory--><a href="JSPWikiNodeRendererFactory.html" target="_top" xlink:actuate="onRequest" xlink:show="new" xlink:title="JSPWikiNodeRendererFactory.html" xlink:type="simple"><rect fill="#FEFECE" filter="url(#f1u7lytuv3yo5z)" height="86.4141" id="JSPWikiNodeRendererFactory" style="stroke: #A80036; stroke-width: 1.5;" width="259" x="6" y="8"/><ellipse cx="42.15" cy="24" fill="#ADD1B2" rx="11" ry="11" style="stroke: #A80036; stroke-width: 1.0;"/><path d="M45.1188,29.6406 Q44.5406,29.9375 43.9,30.0859 Q43.2594,30.2344 42.5563,30.2344 Q40.0563,30.2344 38.7359,28.5859 Q37.4156,26.9375 37.4156,23.8125 Q37.4156,20.6875 38.7359,19.0313 Q40.0563,17.375 42.5563,17.375 Q43.2594,17.375 43.9078,17.5313 Q44.5563,17.6875 45.1188,17.9844 L45.1188,20.7031 Q44.4938,20.125 43.9,19.8516 Q43.3063,19.5781 42.6813,19.5781 Q41.3375,19.5781 40.65,20.6484 Q39.9625,21.7188 39.9625,23.8125 Q39.9625,25.9063 40.65,26.9766 Q41.3375,28.0469 42.6813,28.0469 Q43.3063,28.0469 43.9,27.7734 Q44.4938,27.5 45.1188,26.9219 L45.1188,29.6406 Z "/><text fill="#000000" font-family="sans-serif" font-size="12" lengthAdjust="spacingAndGlyphs" textLength="180" x="60.85" y="28.1543">JSPWikiNodeRendererFactory</text><line style="stroke: #A80036; stroke-width: 1.5;" x1="7" x2="264" y1="40" y2="40"/><line style="stroke: #A80036; stroke-width: 1.5;" x1="7" x2="264" y1="48" y2="48"/><ellipse cx="17" cy="59.9023" fill="#84BE84" rx="3" ry="3" style="stroke: #038048; stroke-width: 1.0;"/><text fill="#000000" font-family="sans-serif" font-size="11" lengthAdjust="spacingAndGlyphs" textLength="233" x="26" y="62.2104">JSPWikiNodeRendererFactory(WikiContext)</text><ellipse cx="17" cy="72.707" fill="#84BE84" rx="3" ry="3" style="stroke: #038048; stroke-width: 1.0;"/><text fill="#000000" font-family="sans-serif" font-size="11" lengthAdjust="spacingAndGlyphs" textLength="190" x="26" y="75.0151">apply(DataHolder): NodeRenderer</text><ellipse cx="17" cy="85.5117" fill="#84BE84" rx="3" ry="3" style="stroke: #038048; stroke-width: 1.0;"/><text fill="#000000" font-family="sans-serif" font-size="11" lengthAdjust="spacingAndGlyphs" textLength="184" x="26" y="87.8198">getDelegates(): Set&lt;Class&lt;?&gt;&gt;</text></a><text fill="#888888" font-family="sans-serif" font-size="10" lengthAdjust="spacingAndGlyphs" textLength="186" x="48.5" y="113.2822">UMLDoclet 1.1.4, PlantUML 1.2019.05</text><!--
@startuml

    class JSPWikiNodeRendererFactory [[JSPWikiNodeRendererFactory.html]] {
        +JSPWikiNodeRendererFactory(WikiContext)
        +apply(DataHolder): NodeRenderer
        +getDelegates(): Set<Class<?>>
    }


    center footer UMLDoclet 1.1.4, PlantUML 1.2019.05
@enduml

PlantUML version 1.2019.05(Sat Apr 20 16:45:36 UTC 2019)
(APACHE source distribution)
Java Runtime: Java(TM) SE Runtime Environment
JVM: Java HotSpot(TM) 64-Bit Server VM
Java Version: 1.8.0_191-b12
Operating System: Linux
OS Version: 4.15.0-60-generic
Default Encoding: ISO-8859-1
Language: en
Country: US
--></g></svg>