<?xml version="1.0" encoding="UTF-8" standalone="no"?><svg xmlns="http://www.w3.org/2000/svg" xmlns:xlink="http://www.w3.org/1999/xlink" contentScriptType="application/ecmascript" contentStyleType="text/css" height="345px" preserveAspectRatio="none" style="width:759px;height:345px;" version="1.1" viewBox="0 0 759 345" width="759px" zoomAndPan="magnify"><defs><filter height="300%" id="f1569q81jocn2e" width="300%" x="-1" y="-1"><feGaussianBlur result="blurOut" stdDeviation="2.0"/><feColorMatrix in="blurOut" result="blurOut2" type="matrix" values="0 0 0 0 0 0 0 0 0 0 0 0 0 0 0 0 0 0 .4 0"/><feOffset dx="4.0" dy="4.0" in="blurOut2" result="blurOut3"/><feBlend in="SourceGraphic" in2="blurOut3" mode="normal"/></filter></defs><g><!--cluster org.apache.wiki.markdown.renderer--><polygon fill="#FFFFFF" filter="url(#f1569q81jocn2e)" points="22,160,317,160,324,182.2969,737,182.2969,737,297,22,297,22,160" style="stroke: #000000; stroke-width: 1.5;"/><line style="stroke: #000000; stroke-width: 1.5;" x1="22" x2="324" y1="182.2969" y2="182.2969"/><text fill="#000000" font-family="sans-serif" font-size="14" font-weight="bold" lengthAdjust="spacingAndGlyphs" textLength="289" x="26" y="174.9951">org.apache.wiki.markdown.renderer</text><!--cluster com.vladsch.flexmark.html.renderer--><polygon fill="#FFFFFF" filter="url(#f1569q81jocn2e)" points="38,24,330,24,337,46.2969,731,46.2969,731,136,38,136,38,24" style="stroke: #000000; stroke-width: 1.5;"/><line style="stroke: #000000; stroke-width: 1.5;" x1="38" x2="337" y1="46.2969" y2="46.2969"/><text fill="#000000" font-family="sans-serif" font-size="14" font-weight="bold" lengthAdjust="spacingAndGlyphs" textLength="286" x="42" y="38.9951">com.vladsch.flexmark.html.renderer</text><!--class org.apache.wiki.markdown.renderer.JSPWikiLinkRenderer--><a href="JSPWikiLinkRenderer.html" target="_top" xlink:actuate="onRequest" xlink:show="new" xlink:title="JSPWikiLinkRenderer.html" xlink:type="simple"><rect fill="#FEFECE" filter="url(#f1569q81jocn2e)" height="60.8047" id="org.apache.wiki.markdown.renderer.JSPWikiLinkRenderer" style="stroke: #A80036; stroke-width: 1.5;" width="388" x="333" y="207.5"/><ellipse cx="460.25" cy="223.5" fill="#ADD1B2" rx="11" ry="11" style="stroke: #A80036; stroke-width: 1.0;"/><path d="M463.2188,229.1406 Q462.6406,229.4375 462,229.5859 Q461.3594,229.7344 460.6563,229.7344 Q458.1563,229.7344 456.8359,228.0859 Q455.5156,226.4375 455.5156,223.3125 Q455.5156,220.1875 456.8359,218.5313 Q458.1563,216.875 460.6563,216.875 Q461.3594,216.875 462.0078,217.0313 Q462.6563,217.1875 463.2188,217.4844 L463.2188,220.2031 Q462.5938,219.625 462,219.3516 Q461.4063,219.0781 460.7813,219.0781 Q459.4375,219.0781 458.75,220.1484 Q458.0625,221.2188 458.0625,223.3125 Q458.0625,225.4063 458.75,226.4766 Q459.4375,227.5469 460.7813,227.5469 Q461.4063,227.5469 462,227.2734 Q462.5938,227 463.2188,226.4219 L463.2188,229.1406 Z "/><text fill="#000000" font-family="sans-serif" font-size="12" lengthAdjust="spacingAndGlyphs" textLength="125" x="480.75" y="227.6543">JSPWikiLinkRenderer</text><line style="stroke: #A80036; stroke-width: 1.5;" x1="334" x2="720" y1="239.5" y2="239.5"/><line style="stroke: #A80036; stroke-width: 1.5;" x1="334" x2="720" y1="247.5" y2="247.5"/><ellipse cx="344" cy="259.4023" fill="#84BE84" rx="3" ry="3" style="stroke: #038048; stroke-width: 1.0;"/><text fill="#000000" font-family="sans-serif" font-size="11" lengthAdjust="spacingAndGlyphs" textLength="362" x="353" y="261.7104">getNodeRenderingHandlers(): Set&lt;NodeRenderingHandler&lt;?&gt;&gt;</text></a><!--class org.apache.wiki.markdown.renderer.JSPWikiNodeRendererFactory--><a href="JSPWikiNodeRendererFactory.html" target="_top" xlink:actuate="onRequest" xlink:show="new" xlink:title="JSPWikiNodeRendererFactory.html" xlink:type="simple"><rect fill="#FEFECE" filter="url(#f1569q81jocn2e)" height="86.4141" id="org.apache.wiki.markdown.renderer.JSPWikiNodeRendererFactory" style="stroke: #A80036; stroke-width: 1.5;" width="259" x="38.5" y="195"/><ellipse cx="74.65" cy="211" fill="#ADD1B2" rx="11" ry="11" style="stroke: #A80036; stroke-width: 1.0;"/><path d="M77.6188,216.6406 Q77.0406,216.9375 76.4,217.0859 Q75.7594,217.2344 75.0563,217.2344 Q72.5563,217.2344 71.2359,215.5859 Q69.9156,213.9375 69.9156,210.8125 Q69.9156,207.6875 71.2359,206.0313 Q72.5563,204.375 75.0563,204.375 Q75.7594,204.375 76.4078,204.5313 Q77.0563,204.6875 77.6188,204.9844 L77.6188,207.7031 Q76.9938,207.125 76.4,206.8516 Q75.8063,206.5781 75.1813,206.5781 Q73.8375,206.5781 73.15,207.6484 Q72.4625,208.7188 72.4625,210.8125 Q72.4625,212.9063 73.15,213.9766 Q73.8375,215.0469 75.1813,215.0469 Q75.8063,215.0469 76.4,214.7734 Q76.9938,214.5 77.6188,213.9219 L77.6188,216.6406 Z "/><text fill="#000000" font-family="sans-serif" font-size="12" lengthAdjust="spacingAndGlyphs" textLength="180" x="93.35" y="215.1543">JSPWikiNodeRendererFactory</text><line style="stroke: #A80036; stroke-width: 1.5;" x1="39.5" x2="296.5" y1="227" y2="227"/><line style="stroke: #A80036; stroke-width: 1.5;" x1="39.5" x2="296.5" y1="235" y2="235"/><ellipse cx="49.5" cy="246.9023" fill="#84BE84" rx="3" ry="3" style="stroke: #038048; stroke-width: 1.0;"/><text fill="#000000" font-family="sans-serif" font-size="11" lengthAdjust="spacingAndGlyphs" textLength="233" x="58.5" y="249.2104">JSPWikiNodeRendererFactory(WikiContext)</text><ellipse cx="49.5" cy="259.707" fill="#84BE84" rx="3" ry="3" style="stroke: #038048; stroke-width: 1.0;"/><text fill="#000000" font-family="sans-serif" font-size="11" lengthAdjust="spacingAndGlyphs" textLength="190" x="58.5" y="262.0151">apply(DataHolder): NodeRenderer</text><ellipse cx="49.5" cy="272.5117" fill="#84BE84" rx="3" ry="3" style="stroke: #038048; stroke-width: 1.0;"/><text fill="#000000" font-family="sans-serif" font-size="11" lengthAdjust="spacingAndGlyphs" textLength="184" x="58.5" y="274.8198">getDelegates(): Set&lt;Class&lt;?&gt;&gt;</text></a><!--class com.vladsch.flexmark.html.renderer.NodeRenderer--><rect fill="#FEFECE" filter="url(#f1569q81jocn2e)" height="60.8047" id="com.vladsch.flexmark.html.renderer.NodeRenderer" style="stroke: #A80036; stroke-width: 1.5;" width="388" x="327" y="59"/><ellipse cx="471.25" cy="75" fill="#B4A7E5" rx="11" ry="11" style="stroke: #A80036; stroke-width: 1.0;"/><path d="M467.1719,70.7656 L467.1719,68.6094 L474.5625,68.6094 L474.5625,70.7656 L472.0938,70.7656 L472.0938,78.8438 L474.5625,78.8438 L474.5625,81 L467.1719,81 L467.1719,78.8438 L469.6406,78.8438 L469.6406,70.7656 L467.1719,70.7656 Z "/><text fill="#000000" font-family="sans-serif" font-size="12" font-style="italic" lengthAdjust="spacingAndGlyphs" textLength="91" x="491.75" y="79.1543">NodeRenderer</text><line style="stroke: #A80036; stroke-width: 1.5;" x1="328" x2="714" y1="91" y2="91"/><line style="stroke: #A80036; stroke-width: 1.5;" x1="328" x2="714" y1="99" y2="99"/><ellipse cx="338" cy="110.9023" fill="#84BE84" rx="3" ry="3" style="stroke: #038048; stroke-width: 1.0;"/><text fill="#000000" font-family="sans-serif" font-size="11" font-style="italic" lengthAdjust="spacingAndGlyphs" textLength="362" x="347" y="113.2104">getNodeRenderingHandlers(): Set&lt;NodeRenderingHandler&lt;?&gt;&gt;</text><!--class com.vladsch.flexmark.html.renderer.DelegatingNodeRendererFactory--><rect fill="#FEFECE" filter="url(#f1569q81jocn2e)" height="60.8047" id="com.vladsch.flexmark.html.renderer.DelegatingNodeRendererFactory" style="stroke: #A80036; stroke-width: 1.5;" width="238" x="54" y="59"/><ellipse cx="69" cy="75" fill="#B4A7E5" rx="11" ry="11" style="stroke: #A80036; stroke-width: 1.0;"/><path d="M64.9219,70.7656 L64.9219,68.6094 L72.3125,68.6094 L72.3125,70.7656 L69.8438,70.7656 L69.8438,78.8438 L72.3125,78.8438 L72.3125,81 L64.9219,81 L64.9219,78.8438 L67.3906,78.8438 L67.3906,70.7656 L64.9219,70.7656 Z "/><text fill="#000000" font-family="sans-serif" font-size="12" font-style="italic" lengthAdjust="spacingAndGlyphs" textLength="206" x="83" y="79.1543">DelegatingNodeRendererFactory</text><line style="stroke: #A80036; stroke-width: 1.5;" x1="55" x2="291" y1="91" y2="91"/><line style="stroke: #A80036; stroke-width: 1.5;" x1="55" x2="291" y1="99" y2="99"/><ellipse cx="65" cy="110.9023" fill="#84BE84" rx="3" ry="3" style="stroke: #038048; stroke-width: 1.0;"/><text fill="#000000" font-family="sans-serif" font-size="11" font-style="italic" lengthAdjust="spacingAndGlyphs" textLength="180" x="74" y="113.2104">getDelegates(): Set&lt;Class&lt;?&gt;&gt;</text><!--link com.vladsch.flexmark.html.renderer.NodeRenderer to org.apache.wiki.markdown.renderer.JSPWikiLinkRenderer--><path d="M523.037,140.238 C523.951,162.563 524.999,188.146 525.788,207.398 " fill="none" id="com.vladsch.flexmark.html.renderer.NodeRenderer-org.apache.wiki.markdown.renderer.JSPWikiLinkRenderer" style="stroke: #A80036; stroke-width: 1.0; stroke-dasharray: 7.0,7.0;"/><polygon fill="none" points="516.039,140.416,522.214,120.146,530.027,139.843,516.039,140.416" style="stroke: #A80036; stroke-width: 1.0;"/><!--link com.vladsch.flexmark.html.renderer.DelegatingNodeRendererFactory to org.apache.wiki.markdown.renderer.JSPWikiNodeRendererFactory--><path d="M171.306,140.14 C170.698,157.935 170.02,177.811 169.437,194.906 " fill="none" id="com.vladsch.flexmark.html.renderer.DelegatingNodeRendererFactory-org.apache.wiki.markdown.renderer.JSPWikiNodeRendererFactory" style="stroke: #A80036; stroke-width: 1.0; stroke-dasharray: 7.0,7.0;"/><polygon fill="none" points="164.31,139.896,171.988,120.146,178.302,140.374,164.31,139.896" style="stroke: #A80036; stroke-width: 1.0;"/><text fill="#888888" font-family="sans-serif" font-size="10" lengthAdjust="spacingAndGlyphs" textLength="186" x="292.5" y="332.2822">UMLDoclet 1.1.4, PlantUML 1.2019.05</text><!--
@startuml

    namespace org.apache.wiki.markdown.renderer {

        class JSPWikiLinkRenderer [[JSPWikiLinkRenderer.html]] {
            +getNodeRenderingHandlers(): Set<NodeRenderingHandler<?>>
        }

        class JSPWikiNodeRendererFactory [[JSPWikiNodeRendererFactory.html]] {
            +JSPWikiNodeRendererFactory(WikiContext)
            +apply(DataHolder): NodeRenderer
            +getDelegates(): Set<Class<?>>
        }

        interface com.vladsch.flexmark.html.renderer.NodeRenderer {
            {abstract} +getNodeRenderingHandlers(): Set<NodeRenderingHandler<?>>
        }
        com.vladsch.flexmark.html.renderer.NodeRenderer <|.. JSPWikiLinkRenderer

        interface com.vladsch.flexmark.html.renderer.DelegatingNodeRendererFactory {
            {abstract} +getDelegates(): Set<Class<?>>
        }
        com.vladsch.flexmark.html.renderer.DelegatingNodeRendererFactory <|.. JSPWikiNodeRendererFactory

    }


    center footer UMLDoclet 1.1.4, PlantUML 1.2019.05
@enduml

PlantUML version 1.2019.05(Sat Apr 20 16:45:36 UTC 2019)
(APACHE source distribution)
Java Runtime: Java(TM) SE Runtime Environment
JVM: Java HotSpot(TM) 64-Bit Server VM
Java Version: 1.8.0_191-b12
Operating System: Linux
OS Version: 4.4.0-137-generic
Default Encoding: ISO-8859-1
Language: en
Country: US
--></g></svg>