<?xml version="1.0" encoding="UTF-8" standalone="no"?><svg xmlns="http://www.w3.org/2000/svg" xmlns:xlink="http://www.w3.org/1999/xlink" contentScriptType="application/ecmascript" contentStyleType="text/css" height="507px" preserveAspectRatio="none" style="width:1290px;height:507px;background:#FFFFFF;" version="1.1" viewBox="0 0 1290 507" width="1290px" zoomAndPan="magnify"><defs><filter height="300%" id="fbklmavm9snjk" width="300%" x="-1" y="-1"><feGaussianBlur result="blurOut" stdDeviation="2.0"/><feColorMatrix in="blurOut" result="blurOut2" type="matrix" values="0 0 0 0 0 0 0 0 0 0 0 0 0 0 0 0 0 0 .4 0"/><feOffset dx="4.0" dy="4.0" in="blurOut2" result="blurOut3"/><feBlend in="SourceGraphic" in2="blurOut3" mode="normal"/></filter></defs><g><!--MD5=[77af465126129a8e6058c3260ac3e597]
cluster org.apache.wiki.api.spi--><polygon fill="#FFFFFF" filter="url(#fbklmavm9snjk)" points="16,6,203,6,210,28.2969,1273,28.2969,1273,484,16,484,16,6" style="stroke:#000000;stroke-width:1.5;"/><line style="stroke:#000000;stroke-width:1.5;" x1="16" x2="210" y1="28.2969" y2="28.2969"/><text fill="#000000" font-family="sans-serif" font-size="14" font-weight="bold" lengthAdjust="spacing" textLength="181" x="20" y="20.9951">org.apache.wiki.api.spi</text><!--MD5=[62605e8db9c854b836cd96edfb3a0a61]
class org.apache.wiki.api.spi.EngineDSL--><a href="EngineDSL.html" target="_top" title="EngineDSL.html" xlink:actuate="onRequest" xlink:href="EngineDSL.html" xlink:show="new" xlink:title="EngineDSL.html" xlink:type="simple"><rect codeLine="3" fill="#FEFECE" filter="url(#fbklmavm9snjk)" height="86.4141" id="org.apache.wiki.api.spi.EngineDSL" style="stroke:#A80036;stroke-width:1.5;" width="251" x="24.5" y="39.5"/><ellipse cx="112.75" cy="55.5" fill="#ADD1B2" rx="11" ry="11" style="stroke:#A80036;stroke-width:1.0;"/><path d="M115.7188,61.1406 Q115.1406,61.4375 114.5,61.5781 Q113.8594,61.7344 113.1563,61.7344 Q110.6563,61.7344 109.3281,60.0938 Q108.0156,58.4375 108.0156,55.3125 Q108.0156,52.1875 109.3281,50.5313 Q110.6563,48.875 113.1563,48.875 Q113.8594,48.875 114.5,49.0313 Q115.1563,49.1875 115.7188,49.4844 L115.7188,52.2031 Q115.0938,51.625 114.5,51.3594 Q113.9063,51.0781 113.2813,51.0781 Q111.9375,51.0781 111.25,52.1563 Q110.5625,53.2188 110.5625,55.3125 Q110.5625,57.4063 111.25,58.4844 Q111.9375,59.5469 113.2813,59.5469 Q113.9063,59.5469 114.5,59.2813 Q115.0938,59 115.7188,58.4219 L115.7188,61.1406 Z " fill="#000000"/><text fill="#000000" font-family="sans-serif" font-size="12" lengthAdjust="spacing" textLength="66" x="133.25" y="59.6543">EngineDSL</text><line style="stroke:#A80036;stroke-width:1.5;" x1="25.5" x2="274.5" y1="71.5" y2="71.5"/><line style="stroke:#A80036;stroke-width:1.5;" x1="25.5" x2="274.5" y1="79.5" y2="79.5"/><ellipse cx="35.5" cy="90.5" fill="#84BE84" rx="3" ry="3" style="stroke:#038048;stroke-width:1.0;"/><text fill="#000000" font-family="sans-serif" font-size="11" lengthAdjust="spacing" textLength="151" x="44.5" y="93.7104">find(ServletConfig): Engine</text><ellipse cx="35.5" cy="103.3047" fill="#84BE84" rx="3" ry="3" style="stroke:#038048;stroke-width:1.0;"/><text fill="#000000" font-family="sans-serif" font-size="11" lengthAdjust="spacing" textLength="218" x="44.5" y="106.5151">find(ServletConfig, Properties): Engine</text><ellipse cx="35.5" cy="116.1094" fill="#84BE84" rx="3" ry="3" style="stroke:#038048;stroke-width:1.0;"/><text fill="#000000" font-family="sans-serif" font-size="11" lengthAdjust="spacing" textLength="225" x="44.5" y="119.3198">find(ServletContext, Properties): Engine</text></a><!--MD5=[72cef5af7c1e5c0a14454e3c188183b9]
class org.apache.wiki.api.spi.EngineSPI--><a href="EngineSPI.html" target="_top" title="EngineSPI.html" xlink:actuate="onRequest" xlink:href="EngineSPI.html" xlink:show="new" xlink:title="EngineSPI.html" xlink:type="simple"><rect codeLine="9" fill="#FEFECE" filter="url(#fbklmavm9snjk)" height="60.8047" id="org.apache.wiki.api.spi.EngineSPI" style="stroke:#A80036;stroke-width:1.5;" width="251" x="310.5" y="52"/><ellipse cx="400.75" cy="68" fill="#B4A7E5" rx="11" ry="11" style="stroke:#A80036;stroke-width:1.0;"/><path d="M396.6719,63.7656 L396.6719,61.6094 L404.0625,61.6094 L404.0625,63.7656 L401.5938,63.7656 L401.5938,71.8438 L404.0625,71.8438 L404.0625,74 L396.6719,74 L396.6719,71.8438 L399.1406,71.8438 L399.1406,63.7656 L396.6719,63.7656 Z " fill="#000000"/><text fill="#000000" font-family="sans-serif" font-size="12" font-style="italic" lengthAdjust="spacing" textLength="62" x="421.25" y="72.1543">EngineSPI</text><line style="stroke:#A80036;stroke-width:1.5;" x1="311.5" x2="560.5" y1="84" y2="84"/><line style="stroke:#A80036;stroke-width:1.5;" x1="311.5" x2="560.5" y1="92" y2="92"/><ellipse cx="321.5" cy="103" fill="#84BE84" rx="3" ry="3" style="stroke:#038048;stroke-width:1.0;"/><text fill="#000000" font-family="sans-serif" font-size="11" font-style="italic" lengthAdjust="spacing" textLength="225" x="330.5" y="106.2104">find(ServletContext, Properties): Engine</text></a><!--MD5=[8f2da63379beffa948bd49efaa6b9718]
class org.apache.wiki.api.spi.ContentsSPI--><a href="ContentsSPI.html" target="_top" title="ContentsSPI.html" xlink:actuate="onRequest" xlink:href="ContentsSPI.html" xlink:show="new" xlink:title="ContentsSPI.html" xlink:type="simple"><rect codeLine="13" fill="#FEFECE" filter="url(#fbklmavm9snjk)" height="73.6094" id="org.apache.wiki.api.spi.ContentsSPI" style="stroke:#A80036;stroke-width:1.5;" width="291" x="596.5" y="45.5"/><ellipse cx="700.25" cy="61.5" fill="#B4A7E5" rx="11" ry="11" style="stroke:#A80036;stroke-width:1.0;"/><path d="M696.1719,57.2656 L696.1719,55.1094 L703.5625,55.1094 L703.5625,57.2656 L701.0938,57.2656 L701.0938,65.3438 L703.5625,65.3438 L703.5625,67.5 L696.1719,67.5 L696.1719,65.3438 L698.6406,65.3438 L698.6406,57.2656 L696.1719,57.2656 Z " fill="#000000"/><text fill="#000000" font-family="sans-serif" font-size="12" font-style="italic" lengthAdjust="spacing" textLength="75" x="720.75" y="65.6543">ContentsSPI</text><line style="stroke:#A80036;stroke-width:1.5;" x1="597.5" x2="886.5" y1="77.5" y2="77.5"/><line style="stroke:#A80036;stroke-width:1.5;" x1="597.5" x2="886.5" y1="85.5" y2="85.5"/><ellipse cx="607.5" cy="96.5" fill="#84BE84" rx="3" ry="3" style="stroke:#038048;stroke-width:1.0;"/><text fill="#000000" font-family="sans-serif" font-size="11" font-style="italic" lengthAdjust="spacing" textLength="265" x="616.5" y="99.7104">attachment(Engine, String, String): Attachment</text><ellipse cx="607.5" cy="109.3047" fill="#84BE84" rx="3" ry="3" style="stroke:#038048;stroke-width:1.0;"/><text fill="#000000" font-family="sans-serif" font-size="11" font-style="italic" lengthAdjust="spacing" textLength="151" x="616.5" y="112.5151">page(Engine, String): Page</text></a><!--MD5=[f94607c025d7165374977c722d2704ab]
class org.apache.wiki.api.spi.ContextSPI--><a href="ContextSPI.html" target="_top" title="ContextSPI.html" xlink:actuate="onRequest" xlink:href="ContextSPI.html" xlink:show="new" xlink:title="ContextSPI.html" xlink:type="simple"><rect codeLine="18" fill="#FEFECE" filter="url(#fbklmavm9snjk)" height="99.2188" id="org.apache.wiki.api.spi.ContextSPI" style="stroke:#A80036;stroke-width:1.5;" width="343" x="922.5" y="33"/><ellipse cx="1055.75" cy="49" fill="#B4A7E5" rx="11" ry="11" style="stroke:#A80036;stroke-width:1.0;"/><path d="M1051.6719,44.7656 L1051.6719,42.6094 L1059.0625,42.6094 L1059.0625,44.7656 L1056.5938,44.7656 L1056.5938,52.8438 L1059.0625,52.8438 L1059.0625,55 L1051.6719,55 L1051.6719,52.8438 L1054.1406,52.8438 L1054.1406,44.7656 L1051.6719,44.7656 Z " fill="#000000"/><text fill="#000000" font-family="sans-serif" font-size="12" font-style="italic" lengthAdjust="spacing" textLength="68" x="1076.25" y="53.1543">ContextSPI</text><line style="stroke:#A80036;stroke-width:1.5;" x1="923.5" x2="1264.5" y1="65" y2="65"/><line style="stroke:#A80036;stroke-width:1.5;" x1="923.5" x2="1264.5" y1="73" y2="73"/><ellipse cx="933.5" cy="84" fill="#84BE84" rx="3" ry="3" style="stroke:#038048;stroke-width:1.0;"/><text fill="#000000" font-family="sans-serif" font-size="11" font-style="italic" lengthAdjust="spacing" textLength="170" x="942.5" y="87.2104">create(Engine, Page): Context</text><ellipse cx="933.5" cy="96.8047" fill="#84BE84" rx="3" ry="3" style="stroke:#038048;stroke-width:1.0;"/><text fill="#000000" font-family="sans-serif" font-size="11" font-style="italic" lengthAdjust="spacing" textLength="317" x="942.5" y="100.0151">create(Engine, HttpServletRequest, Command): Context</text><ellipse cx="933.5" cy="109.6094" fill="#84BE84" rx="3" ry="3" style="stroke:#038048;stroke-width:1.0;"/><text fill="#000000" font-family="sans-serif" font-size="11" font-style="italic" lengthAdjust="spacing" textLength="287" x="942.5" y="112.8198">create(Engine, HttpServletRequest, Page): Context</text><ellipse cx="933.5" cy="122.4141" fill="#84BE84" rx="3" ry="3" style="stroke:#038048;stroke-width:1.0;"/><text fill="#000000" font-family="sans-serif" font-size="11" font-style="italic" lengthAdjust="spacing" textLength="292" x="942.5" y="125.6245">create(Engine, HttpServletRequest, String): Context</text></a><!--MD5=[2ecf9bf15dd5696f1e4971959ac07095]
class org.apache.wiki.api.spi.ContextDSL--><a href="ContextDSL.html" target="_top" title="ContextDSL.html" xlink:actuate="onRequest" xlink:href="ContextDSL.html" xlink:show="new" xlink:title="ContextDSL.html" xlink:type="simple"><rect codeLine="25" fill="#FEFECE" filter="url(#fbklmavm9snjk)" height="99.2188" id="org.apache.wiki.api.spi.ContextDSL" style="stroke:#A80036;stroke-width:1.5;" width="342" x="24" y="192"/><ellipse cx="155.25" cy="208" fill="#ADD1B2" rx="11" ry="11" style="stroke:#A80036;stroke-width:1.0;"/><path d="M158.2188,213.6406 Q157.6406,213.9375 157,214.0781 Q156.3594,214.2344 155.6563,214.2344 Q153.1563,214.2344 151.8281,212.5938 Q150.5156,210.9375 150.5156,207.8125 Q150.5156,204.6875 151.8281,203.0313 Q153.1563,201.375 155.6563,201.375 Q156.3594,201.375 157,201.5313 Q157.6563,201.6875 158.2188,201.9844 L158.2188,204.7031 Q157.5938,204.125 157,203.8594 Q156.4063,203.5781 155.7813,203.5781 Q154.4375,203.5781 153.75,204.6563 Q153.0625,205.7188 153.0625,207.8125 Q153.0625,209.9063 153.75,210.9844 Q154.4375,212.0469 155.7813,212.0469 Q156.4063,212.0469 157,211.7813 Q157.5938,211.5 158.2188,210.9219 L158.2188,213.6406 Z " fill="#000000"/><text fill="#000000" font-family="sans-serif" font-size="12" lengthAdjust="spacing" textLength="71" x="175.75" y="212.1543">ContextDSL</text><line style="stroke:#A80036;stroke-width:1.5;" x1="25" x2="365" y1="224" y2="224"/><line style="stroke:#A80036;stroke-width:1.5;" x1="25" x2="365" y1="232" y2="232"/><ellipse cx="35" cy="243" fill="#84BE84" rx="3" ry="3" style="stroke:#038048;stroke-width:1.0;"/><text fill="#000000" font-family="sans-serif" font-size="11" lengthAdjust="spacing" textLength="169" x="44" y="246.2104">create(Engine, Page): Context</text><ellipse cx="35" cy="255.8047" fill="#84BE84" rx="3" ry="3" style="stroke:#038048;stroke-width:1.0;"/><text fill="#000000" font-family="sans-serif" font-size="11" lengthAdjust="spacing" textLength="316" x="44" y="259.0151">create(Engine, HttpServletRequest, Command): Context</text><ellipse cx="35" cy="268.6094" fill="#84BE84" rx="3" ry="3" style="stroke:#038048;stroke-width:1.0;"/><text fill="#000000" font-family="sans-serif" font-size="11" lengthAdjust="spacing" textLength="286" x="44" y="271.8198">create(Engine, HttpServletRequest, Page): Context</text><ellipse cx="35" cy="281.4141" fill="#84BE84" rx="3" ry="3" style="stroke:#038048;stroke-width:1.0;"/><text fill="#000000" font-family="sans-serif" font-size="11" lengthAdjust="spacing" textLength="292" x="44" y="284.6245">create(Engine, HttpServletRequest, String): Context</text></a><!--MD5=[52c031eca9d14e414123c0f3a82f168a]
class org.apache.wiki.api.spi.SessionSPI--><a href="SessionSPI.html" target="_top" title="SessionSPI.html" xlink:actuate="onRequest" xlink:href="SessionSPI.html" xlink:show="new" xlink:title="SessionSPI.html" xlink:type="simple"><rect codeLine="32" fill="#FEFECE" filter="url(#fbklmavm9snjk)" height="86.4141" id="org.apache.wiki.api.spi.SessionSPI" style="stroke:#A80036;stroke-width:1.5;" width="265" x="401.5" y="198.5"/><ellipse cx="496.75" cy="214.5" fill="#B4A7E5" rx="11" ry="11" style="stroke:#A80036;stroke-width:1.0;"/><path d="M492.6719,210.2656 L492.6719,208.1094 L500.0625,208.1094 L500.0625,210.2656 L497.5938,210.2656 L497.5938,218.3438 L500.0625,218.3438 L500.0625,220.5 L492.6719,220.5 L492.6719,218.3438 L495.1406,218.3438 L495.1406,210.2656 L492.6719,210.2656 Z " fill="#000000"/><text fill="#000000" font-family="sans-serif" font-size="12" font-style="italic" lengthAdjust="spacing" textLength="66" x="517.25" y="218.6543">SessionSPI</text><line style="stroke:#A80036;stroke-width:1.5;" x1="402.5" x2="665.5" y1="230.5" y2="230.5"/><line style="stroke:#A80036;stroke-width:1.5;" x1="402.5" x2="665.5" y1="238.5" y2="238.5"/><ellipse cx="412.5" cy="249.5" fill="#84BE84" rx="3" ry="3" style="stroke:#038048;stroke-width:1.0;"/><text fill="#000000" font-family="sans-serif" font-size="11" font-style="italic" lengthAdjust="spacing" textLength="239" x="421.5" y="252.7104">remove(Engine, HttpServletRequest): void</text><ellipse cx="412.5" cy="262.3047" fill="#84BE84" rx="3" ry="3" style="stroke:#038048;stroke-width:1.0;"/><text fill="#000000" font-family="sans-serif" font-size="11" font-style="italic" lengthAdjust="spacing" textLength="235" x="421.5" y="265.5151">find(Engine, HttpServletRequest): Session</text><ellipse cx="412.5" cy="275.1094" fill="#84BE84" rx="3" ry="3" style="stroke:#038048;stroke-width:1.0;"/><text fill="#000000" font-family="sans-serif" font-size="11" font-style="italic" lengthAdjust="spacing" textLength="128" x="421.5" y="278.3198">guest(Engine): Session</text></a><!--MD5=[3cc7a177362693a4101c4797076d4341]
class org.apache.wiki.api.spi.AclsSPI--><a href="AclsSPI.html" target="_top" title="AclsSPI.html" xlink:actuate="onRequest" xlink:href="AclsSPI.html" xlink:show="new" xlink:title="AclsSPI.html" xlink:type="simple"><rect codeLine="38" fill="#FEFECE" filter="url(#fbklmavm9snjk)" height="73.6094" id="org.apache.wiki.api.spi.AclsSPI" style="stroke:#A80036;stroke-width:1.5;" width="119" x="701.5" y="204.5"/><ellipse cx="736.3" cy="220.5" fill="#B4A7E5" rx="11" ry="11" style="stroke:#A80036;stroke-width:1.0;"/><path d="M732.2219,216.2656 L732.2219,214.1094 L739.6125,214.1094 L739.6125,216.2656 L737.1438,216.2656 L737.1438,224.3438 L739.6125,224.3438 L739.6125,226.5 L732.2219,226.5 L732.2219,224.3438 L734.6906,224.3438 L734.6906,216.2656 L732.2219,216.2656 Z " fill="#000000"/><text fill="#000000" font-family="sans-serif" font-size="12" font-style="italic" lengthAdjust="spacing" textLength="43" x="754.7" y="224.6543">AclsSPI</text><line style="stroke:#A80036;stroke-width:1.5;" x1="702.5" x2="819.5" y1="236.5" y2="236.5"/><line style="stroke:#A80036;stroke-width:1.5;" x1="702.5" x2="819.5" y1="244.5" y2="244.5"/><ellipse cx="712.5" cy="255.5" fill="#84BE84" rx="3" ry="3" style="stroke:#038048;stroke-width:1.0;"/><text fill="#000000" font-family="sans-serif" font-size="11" font-style="italic" lengthAdjust="spacing" textLength="49" x="721.5" y="258.7104">acl(): Acl</text><ellipse cx="712.5" cy="268.3047" fill="#84BE84" rx="3" ry="3" style="stroke:#038048;stroke-width:1.0;"/><text fill="#000000" font-family="sans-serif" font-size="11" font-style="italic" lengthAdjust="spacing" textLength="93" x="721.5" y="271.5151">entry(): AclEntry</text></a><!--MD5=[1a63e549a6f9e10ef624e76ecedcdbec]
class org.apache.wiki.api.spi.ContentsDSL--><a href="ContentsDSL.html" target="_top" title="ContentsDSL.html" xlink:actuate="onRequest" xlink:href="ContentsDSL.html" xlink:show="new" xlink:title="ContentsDSL.html" xlink:type="simple"><rect codeLine="43" fill="#FEFECE" filter="url(#fbklmavm9snjk)" height="73.6094" id="org.apache.wiki.api.spi.ContentsDSL" style="stroke:#A80036;stroke-width:1.5;" width="292" x="856" y="204.5"/><ellipse cx="957.75" cy="220.5" fill="#ADD1B2" rx="11" ry="11" style="stroke:#A80036;stroke-width:1.0;"/><path d="M960.7188,226.1406 Q960.1406,226.4375 959.5,226.5781 Q958.8594,226.7344 958.1563,226.7344 Q955.6563,226.7344 954.3281,225.0938 Q953.0156,223.4375 953.0156,220.3125 Q953.0156,217.1875 954.3281,215.5313 Q955.6563,213.875 958.1563,213.875 Q958.8594,213.875 959.5,214.0313 Q960.1563,214.1875 960.7188,214.4844 L960.7188,217.2031 Q960.0938,216.625 959.5,216.3594 Q958.9063,216.0781 958.2813,216.0781 Q956.9375,216.0781 956.25,217.1563 Q955.5625,218.2188 955.5625,220.3125 Q955.5625,222.4063 956.25,223.4844 Q956.9375,224.5469 958.2813,224.5469 Q958.9063,224.5469 959.5,224.2813 Q960.0938,224 960.7188,223.4219 L960.7188,226.1406 Z " fill="#000000"/><text fill="#000000" font-family="sans-serif" font-size="12" lengthAdjust="spacing" textLength="80" x="978.25" y="224.6543">ContentsDSL</text><line style="stroke:#A80036;stroke-width:1.5;" x1="857" x2="1147" y1="236.5" y2="236.5"/><line style="stroke:#A80036;stroke-width:1.5;" x1="857" x2="1147" y1="244.5" y2="244.5"/><ellipse cx="867" cy="255.5" fill="#84BE84" rx="3" ry="3" style="stroke:#038048;stroke-width:1.0;"/><text fill="#000000" font-family="sans-serif" font-size="11" lengthAdjust="spacing" textLength="266" x="876" y="258.7104">attachment(Engine, String, String): Attachment</text><ellipse cx="867" cy="268.3047" fill="#84BE84" rx="3" ry="3" style="stroke:#038048;stroke-width:1.0;"/><text fill="#000000" font-family="sans-serif" font-size="11" lengthAdjust="spacing" textLength="152" x="876" y="271.5151">page(Engine, String): Page</text></a><!--MD5=[13154259000ca19ba8a300a9ef212a04]
class org.apache.wiki.api.spi.AclsDSL--><a href="AclsDSL.html" target="_top" title="AclsDSL.html" xlink:actuate="onRequest" xlink:href="AclsDSL.html" xlink:show="new" xlink:title="AclsDSL.html" xlink:type="simple"><rect codeLine="48" fill="#FEFECE" filter="url(#fbklmavm9snjk)" height="73.6094" id="org.apache.wiki.api.spi.AclsDSL" style="stroke:#A80036;stroke-width:1.5;" width="116" x="137" y="376.5"/><ellipse cx="168.2" cy="392.5" fill="#ADD1B2" rx="11" ry="11" style="stroke:#A80036;stroke-width:1.0;"/><path d="M171.1688,398.1406 Q170.5906,398.4375 169.95,398.5781 Q169.3094,398.7344 168.6063,398.7344 Q166.1063,398.7344 164.7781,397.0938 Q163.4656,395.4375 163.4656,392.3125 Q163.4656,389.1875 164.7781,387.5313 Q166.1063,385.875 168.6063,385.875 Q169.3094,385.875 169.95,386.0313 Q170.6063,386.1875 171.1688,386.4844 L171.1688,389.2031 Q170.5438,388.625 169.95,388.3594 Q169.3563,388.0781 168.7313,388.0781 Q167.3875,388.0781 166.7,389.1563 Q166.0125,390.2188 166.0125,392.3125 Q166.0125,394.4063 166.7,395.4844 Q167.3875,396.5469 168.7313,396.5469 Q169.3563,396.5469 169.95,396.2813 Q170.5438,396 171.1688,395.4219 L171.1688,398.1406 Z " fill="#000000"/><text fill="#000000" font-family="sans-serif" font-size="12" lengthAdjust="spacing" textLength="48" x="185.8" y="396.6543">AclsDSL</text><line style="stroke:#A80036;stroke-width:1.5;" x1="138" x2="252" y1="408.5" y2="408.5"/><line style="stroke:#A80036;stroke-width:1.5;" x1="138" x2="252" y1="416.5" y2="416.5"/><ellipse cx="148" cy="427.5" fill="#84BE84" rx="3" ry="3" style="stroke:#038048;stroke-width:1.0;"/><text fill="#000000" font-family="sans-serif" font-size="11" lengthAdjust="spacing" textLength="48" x="157" y="430.7104">acl(): Acl</text><ellipse cx="148" cy="440.3047" fill="#84BE84" rx="3" ry="3" style="stroke:#038048;stroke-width:1.0;"/><text fill="#000000" font-family="sans-serif" font-size="11" lengthAdjust="spacing" textLength="90" x="157" y="443.5151">entry(): AclEntry</text></a><!--MD5=[de3d530920b5106156f3f4352c6d4935]
class org.apache.wiki.api.spi.Wiki--><a href="Wiki.html" target="_top" title="Wiki.html" xlink:actuate="onRequest" xlink:href="Wiki.html" xlink:show="new" xlink:title="Wiki.html" xlink:type="simple"><rect codeLine="53" fill="#FEFECE" filter="url(#fbklmavm9snjk)" height="124.8281" id="org.apache.wiki.api.spi.Wiki" style="stroke:#A80036;stroke-width:1.5;" width="201" x="288.5" y="351"/><ellipse cx="372.75" cy="367" fill="#ADD1B2" rx="11" ry="11" style="stroke:#A80036;stroke-width:1.0;"/><path d="M375.7188,372.6406 Q375.1406,372.9375 374.5,373.0781 Q373.8594,373.2344 373.1563,373.2344 Q370.6563,373.2344 369.3281,371.5938 Q368.0156,369.9375 368.0156,366.8125 Q368.0156,363.6875 369.3281,362.0313 Q370.6563,360.375 373.1563,360.375 Q373.8594,360.375 374.5,360.5313 Q375.1563,360.6875 375.7188,360.9844 L375.7188,363.7031 Q375.0938,363.125 374.5,362.8594 Q373.9063,362.5781 373.2813,362.5781 Q371.9375,362.5781 371.25,363.6563 Q370.5625,364.7188 370.5625,366.8125 Q370.5625,368.9063 371.25,369.9844 Q371.9375,371.0469 373.2813,371.0469 Q373.9063,371.0469 374.5,370.7813 Q375.0938,370.5 375.7188,369.9219 L375.7188,372.6406 Z " fill="#000000"/><text fill="#000000" font-family="sans-serif" font-size="12" lengthAdjust="spacing" textLength="24" x="393.25" y="371.1543">Wiki</text><line style="stroke:#A80036;stroke-width:1.5;" x1="289.5" x2="488.5" y1="383" y2="383"/><line style="stroke:#A80036;stroke-width:1.5;" x1="289.5" x2="488.5" y1="391" y2="391"/><ellipse cx="299.5" cy="402" fill="#84BE84" rx="3" ry="3" style="stroke:#038048;stroke-width:1.0;"/><text fill="#000000" font-family="sans-serif" font-size="11" lengthAdjust="spacing" text-decoration="underline" textLength="175" x="308.5" y="405.2104">init(ServletContext): Properties</text><ellipse cx="299.5" cy="414.8047" fill="#84BE84" rx="3" ry="3" style="stroke:#038048;stroke-width:1.0;"/><text fill="#000000" font-family="sans-serif" font-size="11" lengthAdjust="spacing" text-decoration="underline" textLength="84" x="308.5" y="418.0151">acls(): AclsDSL</text><ellipse cx="299.5" cy="427.6094" fill="#84BE84" rx="3" ry="3" style="stroke:#038048;stroke-width:1.0;"/><text fill="#000000" font-family="sans-serif" font-size="11" lengthAdjust="spacing" text-decoration="underline" textLength="138" x="308.5" y="430.8198">contents(): ContentsDSL</text><ellipse cx="299.5" cy="440.4141" fill="#84BE84" rx="3" ry="3" style="stroke:#038048;stroke-width:1.0;"/><text fill="#000000" font-family="sans-serif" font-size="11" lengthAdjust="spacing" text-decoration="underline" textLength="122" x="308.5" y="443.6245">context(): ContextDSL</text><ellipse cx="299.5" cy="453.2188" fill="#84BE84" rx="3" ry="3" style="stroke:#038048;stroke-width:1.0;"/><text fill="#000000" font-family="sans-serif" font-size="11" lengthAdjust="spacing" text-decoration="underline" textLength="114" x="308.5" y="456.4292">engine(): EngineDSL</text><ellipse cx="299.5" cy="466.0234" fill="#84BE84" rx="3" ry="3" style="stroke:#038048;stroke-width:1.0;"/><text fill="#000000" font-family="sans-serif" font-size="11" lengthAdjust="spacing" text-decoration="underline" textLength="129" x="308.5" y="469.2339">session(): SessionDSL</text></a><!--MD5=[916de04e4ea74ab47624c6d7ee6ceead]
class org.apache.wiki.api.spi.SessionDSL--><a href="SessionDSL.html" target="_top" title="SessionDSL.html" xlink:actuate="onRequest" xlink:href="SessionDSL.html" xlink:show="new" xlink:title="SessionDSL.html" xlink:type="simple"><rect codeLine="62" fill="#FEFECE" filter="url(#fbklmavm9snjk)" height="86.4141" id="org.apache.wiki.api.spi.SessionDSL" style="stroke:#A80036;stroke-width:1.5;" width="264" x="525" y="370.5"/><ellipse cx="616.75" cy="386.5" fill="#ADD1B2" rx="11" ry="11" style="stroke:#A80036;stroke-width:1.0;"/><path d="M619.7188,392.1406 Q619.1406,392.4375 618.5,392.5781 Q617.8594,392.7344 617.1563,392.7344 Q614.6563,392.7344 613.3281,391.0938 Q612.0156,389.4375 612.0156,386.3125 Q612.0156,383.1875 613.3281,381.5313 Q614.6563,379.875 617.1563,379.875 Q617.8594,379.875 618.5,380.0313 Q619.1563,380.1875 619.7188,380.4844 L619.7188,383.2031 Q619.0938,382.625 618.5,382.3594 Q617.9063,382.0781 617.2813,382.0781 Q615.9375,382.0781 615.25,383.1563 Q614.5625,384.2188 614.5625,386.3125 Q614.5625,388.4063 615.25,389.4844 Q615.9375,390.5469 617.2813,390.5469 Q617.9063,390.5469 618.5,390.2813 Q619.0938,390 619.7188,389.4219 L619.7188,392.1406 Z " fill="#000000"/><text fill="#000000" font-family="sans-serif" font-size="12" lengthAdjust="spacing" textLength="72" x="637.25" y="390.6543">SessionDSL</text><line style="stroke:#A80036;stroke-width:1.5;" x1="526" x2="788" y1="402.5" y2="402.5"/><line style="stroke:#A80036;stroke-width:1.5;" x1="526" x2="788" y1="410.5" y2="410.5"/><ellipse cx="536" cy="421.5" fill="#84BE84" rx="3" ry="3" style="stroke:#038048;stroke-width:1.0;"/><text fill="#000000" font-family="sans-serif" font-size="11" lengthAdjust="spacing" textLength="237" x="545" y="424.7104">remove(Engine, HttpServletRequest): void</text><ellipse cx="536" cy="434.3047" fill="#84BE84" rx="3" ry="3" style="stroke:#038048;stroke-width:1.0;"/><text fill="#000000" font-family="sans-serif" font-size="11" lengthAdjust="spacing" textLength="238" x="545" y="437.5151">find(Engine, HttpServletRequest): Session</text><ellipse cx="536" cy="447.1094" fill="#84BE84" rx="3" ry="3" style="stroke:#038048;stroke-width:1.0;"/><text fill="#000000" font-family="sans-serif" font-size="11" lengthAdjust="spacing" textLength="132" x="545" y="450.3198">guest(Engine): Session</text></a><!--MD5=[f35e145dc40f8bb2740e8b4b1a1bf183]
link org.apache.wiki.api.spi.EngineDSL to org.apache.wiki.api.spi.EngineSPI--><!--MD5=[5696f466a4517bb6167b99f92f7e837f]
link org.apache.wiki.api.spi.EngineSPI to org.apache.wiki.api.spi.ContentsSPI--><!--MD5=[3686bb97c5bc5a9d3273242bbff1a4b6]
link org.apache.wiki.api.spi.ContentsSPI to org.apache.wiki.api.spi.ContextSPI--><!--MD5=[ee4b51f1dc45c3cc4b6866894a9242b3]
link org.apache.wiki.api.spi.EngineDSL to org.apache.wiki.api.spi.ContextDSL--><!--MD5=[01d3335ad341910a134a3cf428993842]
link org.apache.wiki.api.spi.ContextDSL to org.apache.wiki.api.spi.SessionSPI--><!--MD5=[dcff7eaa75a6cbaf2112e1cbcdce8d7c]
link org.apache.wiki.api.spi.SessionSPI to org.apache.wiki.api.spi.AclsSPI--><!--MD5=[cca671e707ed149779619ad67b074d2e]
link org.apache.wiki.api.spi.AclsSPI to org.apache.wiki.api.spi.ContentsDSL--><!--MD5=[f08f53d6a994d28c8af6005d6df579df]
link org.apache.wiki.api.spi.ContextDSL to org.apache.wiki.api.spi.AclsDSL--><!--MD5=[c8416234eab103fbbdeeb53c246b948c]
link org.apache.wiki.api.spi.AclsDSL to org.apache.wiki.api.spi.Wiki--><!--MD5=[4051c763b044103c92722ec94d1e8e94]
link org.apache.wiki.api.spi.Wiki to org.apache.wiki.api.spi.SessionDSL--><text fill="#888888" font-family="sans-serif" font-size="10" lengthAdjust="spacing" textLength="192" x="542.5" y="499.2822">UMLDoclet 2.0.15, PlantUML 1.2021.13</text><!--MD5=[09276944daf185eb6624cbe9836d258b]
@startuml
    namespace org.apache.wiki.api.spi {

        class EngineDSL [[EngineDSL.html]] {
            +find(ServletConfig): Engine
            +find(ServletConfig, Properties): Engine
            +find(ServletContext, Properties): Engine
        }

        interface EngineSPI [[EngineSPI.html]] {
            {abstract} +find(ServletContext, Properties): Engine
        }

        interface ContentsSPI [[ContentsSPI.html]] {
            {abstract} +attachment(Engine, String, String): Attachment
            {abstract} +page(Engine, String): Page
        }

        interface ContextSPI [[ContextSPI.html]] {
            {abstract} +create(Engine, Page): Context
            {abstract} +create(Engine, HttpServletRequest, Command): Context
            {abstract} +create(Engine, HttpServletRequest, Page): Context
            {abstract} +create(Engine, HttpServletRequest, String): Context
        }

        class ContextDSL [[ContextDSL.html]] {
            +create(Engine, Page): Context
            +create(Engine, HttpServletRequest, Command): Context
            +create(Engine, HttpServletRequest, Page): Context
            +create(Engine, HttpServletRequest, String): Context
        }

        interface SessionSPI [[SessionSPI.html]] {
            {abstract} +remove(Engine, HttpServletRequest): void
            {abstract} +find(Engine, HttpServletRequest): Session
            {abstract} +guest(Engine): Session
        }

        interface AclsSPI [[AclsSPI.html]] {
            {abstract} +acl(): Acl
            {abstract} +entry(): AclEntry
        }

        class ContentsDSL [[ContentsDSL.html]] {
            +attachment(Engine, String, String): Attachment
            +page(Engine, String): Page
        }

        class AclsDSL [[AclsDSL.html]] {
            +acl(): Acl
            +entry(): AclEntry
        }

        class Wiki [[Wiki.html]] {
            {static} +init(ServletContext): Properties
            {static} +acls(): AclsDSL
            {static} +contents(): ContentsDSL
            {static} +context(): ContextDSL
            {static} +engine(): EngineDSL
            {static} +session(): SessionDSL
        }

        class SessionDSL [[SessionDSL.html]] {
            +remove(Engine, HttpServletRequest): void
            +find(Engine, HttpServletRequest): Session
            +guest(Engine): Session
        }

    }

    center footer UMLDoclet 2.0.15, PlantUML 1.2021.13
@enduml

PlantUML version 1.2021.13(Mon Nov 01 11:38:45 UTC 2021)
(APACHE source distribution)
Java Runtime: OpenJDK Runtime Environment
JVM: OpenJDK 64-Bit Server VM
Default Encoding: ISO-8859-1
Language: en
Country: US
--></g></svg>