<?xml version="1.0" encoding="UTF-8" standalone="no"?><svg xmlns="http://www.w3.org/2000/svg" xmlns:xlink="http://www.w3.org/1999/xlink" contentScriptType="application/ecmascript" contentStyleType="text/css" height="152px" preserveAspectRatio="none" style="width:403px;height:152px;" version="1.1" viewBox="0 0 403 152" width="403px" zoomAndPan="magnify"><defs><filter height="300%" id="fmp0qe9bhr0j3" width="300%" x="-1" y="-1"><feGaussianBlur result="blurOut" stdDeviation="2.0"/><feColorMatrix in="blurOut" result="blurOut2" type="matrix" values="0 0 0 0 0 0 0 0 0 0 0 0 0 0 0 0 0 0 .4 0"/><feOffset dx="4.0" dy="4.0" in="blurOut2" result="blurOut3"/><feBlend in="SourceGraphic" in2="blurOut3" mode="normal"/></filter></defs><g><!--class MarkdownForJSPWikiExtension--><a href="MarkdownForJSPWikiExtension.html" target="_top" xlink:actuate="onRequest" xlink:show="new" xlink:title="MarkdownForJSPWikiExtension.html" xlink:type="simple"><rect fill="#FEFECE" filter="url(#fmp0qe9bhr0j3)" height="112.0234" id="MarkdownForJSPWikiExtension" style="stroke: #A80036; stroke-width: 1.5;" width="386" x="6" y="8"/><ellipse cx="101.25" cy="24" fill="#ADD1B2" rx="11" ry="11" style="stroke: #A80036; stroke-width: 1.0;"/><path d="M104.2188,29.6406 Q103.6406,29.9375 103,30.0859 Q102.3594,30.2344 101.6563,30.2344 Q99.1563,30.2344 97.8359,28.5859 Q96.5156,26.9375 96.5156,23.8125 Q96.5156,20.6875 97.8359,19.0313 Q99.1563,17.375 101.6563,17.375 Q102.3594,17.375 103.0078,17.5313 Q103.6563,17.6875 104.2188,17.9844 L104.2188,20.7031 Q103.5938,20.125 103,19.8516 Q102.4063,19.5781 101.7813,19.5781 Q100.4375,19.5781 99.75,20.6484 Q99.0625,21.7188 99.0625,23.8125 Q99.0625,25.9063 99.75,26.9766 Q100.4375,28.0469 101.7813,28.0469 Q102.4063,28.0469 103,27.7734 Q103.5938,27.5 104.2188,26.9219 L104.2188,29.6406 Z "/><text fill="#000000" font-family="sans-serif" font-size="12" lengthAdjust="spacingAndGlyphs" textLength="187" x="121.75" y="28.1543">MarkdownForJSPWikiExtension</text><line style="stroke: #A80036; stroke-width: 1.5;" x1="7" x2="391" y1="40" y2="40"/><line style="stroke: #A80036; stroke-width: 1.5;" x1="7" x2="391" y1="48" y2="48"/><ellipse cx="17" cy="59.9023" fill="#84BE84" rx="3" ry="3" style="stroke: #038048; stroke-width: 1.0;"/><text fill="#000000" font-family="sans-serif" font-size="11" lengthAdjust="spacingAndGlyphs" textLength="360" x="26" y="62.2104">MarkdownForJSPWikiExtension(Context, boolean, List&lt;Pattern&gt;)</text><ellipse cx="17" cy="72.707" fill="#84BE84" rx="3" ry="3" style="stroke: #038048; stroke-width: 1.0;"/><text fill="#000000" font-family="sans-serif" font-size="11" lengthAdjust="spacingAndGlyphs" textLength="240" x="26" y="75.0151">rendererOptions(MutableDataHolder): void</text><ellipse cx="17" cy="85.5117" fill="#84BE84" rx="3" ry="3" style="stroke: #038048; stroke-width: 1.0;"/><text fill="#000000" font-family="sans-serif" font-size="11" lengthAdjust="spacingAndGlyphs" textLength="228" x="26" y="87.8198">parserOptions(MutableDataHolder): void</text><ellipse cx="17" cy="98.3164" fill="#84BE84" rx="3" ry="3" style="stroke: #038048; stroke-width: 1.0;"/><text fill="#000000" font-family="sans-serif" font-size="11" lengthAdjust="spacingAndGlyphs" textLength="241" x="26" y="100.6245">extend(HtmlRenderer.Builder, String): void</text><ellipse cx="17" cy="111.1211" fill="#84BE84" rx="3" ry="3" style="stroke: #038048; stroke-width: 1.0;"/><text fill="#000000" font-family="sans-serif" font-size="11" lengthAdjust="spacingAndGlyphs" textLength="159" x="26" y="113.4292">extend(Parser.Builder): void</text></a><text fill="#888888" font-family="sans-serif" font-size="10" lengthAdjust="spacingAndGlyphs" textLength="186" x="112" y="139.2822">UMLDoclet 1.1.4, PlantUML 1.2019.05</text><!--
@startuml

    class MarkdownForJSPWikiExtension [[MarkdownForJSPWikiExtension.html]] {
        +MarkdownForJSPWikiExtension(Context, boolean, List<Pattern>)
        +rendererOptions(MutableDataHolder): void
        +parserOptions(MutableDataHolder): void
        +extend(HtmlRenderer.Builder, String): void
        +extend(Parser.Builder): void
    }


    center footer UMLDoclet 1.1.4, PlantUML 1.2019.05
@enduml

PlantUML version 1.2019.05(Sat Apr 20 16:45:36 UTC 2019)
(APACHE source distribution)
Java Runtime: Java(TM) SE Runtime Environment
JVM: Java HotSpot(TM) 64-Bit Server VM
Java Version: 1.8.0_241-b07
Operating System: Linux
OS Version: 4.15.0-74-generic
Default Encoding: ISO-8859-1
Language: en
Country: US
--></g></svg>