<?xml version="1.0" encoding="UTF-8" standalone="no"?><svg xmlns="http://www.w3.org/2000/svg" xmlns:xlink="http://www.w3.org/1999/xlink" contentScriptType="application/ecmascript" contentStyleType="text/css" height="131px" preserveAspectRatio="none" style="width:270px;height:131px;" version="1.1" viewBox="0 0 270 131" width="270px" zoomAndPan="magnify"><defs><filter height="300%" id="fi6fn0rs4vovd" width="300%" x="-1" y="-1"><feGaussianBlur result="blurOut" stdDeviation="2.0"/><feColorMatrix in="blurOut" result="blurOut2" type="matrix" values="0 0 0 0 0 0 0 0 0 0 0 0 0 0 0 0 0 0 .4 0"/><feOffset dx="4.0" dy="4.0" in="blurOut2" result="blurOut3"/><feBlend in="SourceGraphic" in2="blurOut3" mode="normal"/></filter></defs><g><!--class ShortViewURLConstructor--><a href="ShortViewURLConstructor.html" target="_top" xlink:actuate="onRequest" xlink:show="new" xlink:title="ShortViewURLConstructor.html" xlink:type="simple"><rect fill="#FEFECE" filter="url(#fi6fn0rs4vovd)" height="89.5078" id="ShortViewURLConstructor" style="stroke: #A80036; stroke-width: 1.5;" width="253" x="6" y="8"/><ellipse cx="56.25" cy="24" fill="#ADD1B2" rx="11" ry="11" style="stroke: #A80036; stroke-width: 1.0;"/><path d="M59.0156,19.875 Q59.1719,19.6563 59.3594,19.5469 Q59.5469,19.4375 59.7656,19.4375 Q60.1406,19.4375 60.375,19.6953 Q60.6094,19.9531 60.6094,20.5625 L60.6094,22.0156 Q60.6094,22.625 60.375,22.8906 Q60.1406,23.1563 59.7656,23.1563 Q59.4219,23.1563 59.2188,22.9531 Q59.0156,22.7656 58.9063,22.25 Q58.8594,21.8906 58.6719,21.7031 Q58.3438,21.3281 57.7344,21.1094 Q57.125,20.8906 56.5,20.8906 Q55.7344,20.8906 55.1016,21.2188 Q54.4688,21.5469 53.9766,22.2969 Q53.4844,23.0469 53.4844,24.0781 L53.4844,25.1719 Q53.4844,26.4063 54.375,27.2266 Q55.2656,28.0469 56.8594,28.0469 Q57.7969,28.0469 58.4531,27.7969 Q58.8438,27.6406 59.2656,27.2031 Q59.5313,26.9375 59.6797,26.8594 Q59.8281,26.7813 60.0313,26.7813 Q60.3594,26.7813 60.6172,27.0391 Q60.875,27.2969 60.875,27.6406 Q60.875,27.9844 60.5313,28.3906 Q60.0313,28.9688 59.2344,29.2969 Q58.1563,29.75 56.8594,29.75 Q55.3438,29.75 54.1406,29.125 Q53.1563,28.625 52.4688,27.5547 Q51.7813,26.4844 51.7813,25.2031 L51.7813,24.0469 Q51.7813,22.7188 52.3984,21.5703 Q53.0156,20.4219 54.1094,19.8047 Q55.2031,19.1875 56.4375,19.1875 Q57.1719,19.1875 57.8203,19.3516 Q58.4688,19.5156 59.0156,19.875 Z "/><text fill="#000000" font-family="sans-serif" font-size="12" lengthAdjust="spacingAndGlyphs" textLength="144" x="76.75" y="28.9102">ShortViewURLConstructor</text><line style="stroke: #A80036; stroke-width: 1.5;" x1="7" x2="258" y1="40" y2="40"/><line style="stroke: #A80036; stroke-width: 1.5;" x1="7" x2="258" y1="48" y2="48"/><ellipse cx="17" cy="60.418" fill="#84BE84" rx="3" ry="3" style="stroke: #038048; stroke-width: 1.0;"/><text fill="#000000" font-family="sans-serif" font-size="11" lengthAdjust="spacingAndGlyphs" textLength="177" x="26" y="63.4189">initialize(WikiEngine, Properties): void</text><ellipse cx="17" cy="74.2539" fill="#84BE84" rx="3" ry="3" style="stroke: #038048; stroke-width: 1.0;"/><text fill="#000000" font-family="sans-serif" font-size="11" lengthAdjust="spacingAndGlyphs" textLength="227" x="26" y="77.2549">makeURL(String, String, boolean, String): String</text><ellipse cx="17" cy="88.0898" fill="#84BE84" rx="3" ry="3" style="stroke: #038048; stroke-width: 1.0;"/><text fill="#000000" font-family="sans-serif" font-size="11" lengthAdjust="spacingAndGlyphs" textLength="216" x="26" y="91.0908">getForwardPage(HttpServletRequest): String</text></a><text fill="#888888" font-family="sans-serif" font-size="10" lengthAdjust="spacingAndGlyphs" textLength="184" x="46.5" y="118.3809">UMLDoclet 1.1.4, PlantUML 1.2019.05</text><!--
@startuml

    class ShortViewURLConstructor [[ShortViewURLConstructor.html]] {
        +initialize(WikiEngine, Properties): void
        +makeURL(String, String, boolean, String): String
        +getForwardPage(HttpServletRequest): String
    }


    center footer UMLDoclet 1.1.4, PlantUML 1.2019.05
@enduml

PlantUML version 1.2019.05(Sat Apr 20 18:45:36 CEST 2019)
(APACHE source distribution)
Java Runtime: OpenJDK Runtime Environment
JVM: OpenJDK 64-Bit Server VM
Java Version: 1.8.0_212-b03
Operating System: Windows 10
OS Version: 10.0
Default Encoding: Cp1252
Language: es
Country: ES
--></g></svg>