<?xml version="1.0" encoding="UTF-8" standalone="no"?><svg xmlns="http://www.w3.org/2000/svg" xmlns:xlink="http://www.w3.org/1999/xlink" contentScriptType="application/ecmascript" contentStyleType="text/css" height="346px" preserveAspectRatio="none" style="width:279px;height:346px;" version="1.1" viewBox="0 0 279 346" width="279px" zoomAndPan="magnify"><defs><filter height="300%" id="fjs0spxtuzbyz" width="300%" x="-1" y="-1"><feGaussianBlur result="blurOut" stdDeviation="2.0"/><feColorMatrix in="blurOut" result="blurOut2" type="matrix" values="0 0 0 0 0 0 0 0 0 0 0 0 0 0 0 0 0 0 .4 0"/><feOffset dx="4.0" dy="4.0" in="blurOut2" result="blurOut3"/><feBlend in="SourceGraphic" in2="blurOut3" mode="normal"/></filter></defs><g><!--MD5=[83026b3c162e0a2ccaf377bc1e961a54]
class org.apache.wiki.auth.authorize.Role--><a href="Role.html" target="_top" title="Role.html" xlink:actuate="onRequest" xlink:href="Role.html" xlink:show="new" xlink:title="Role.html" xlink:type="simple"><rect codeLine="5" fill="#FEFECE" filter="url(#fjs0spxtuzbyz)" height="180.7109" id="org.apache.wiki.auth.authorize.Role" style="stroke: #A80036; stroke-width: 1.5;" width="188" x="41.5" y="129"/><ellipse cx="61.45" cy="149.0938" fill="#ADD1B2" rx="11" ry="11" style="stroke: #A80036; stroke-width: 1.0;"/><path d="M64.2156,144.9688 Q64.3719,144.75 64.5594,144.6406 Q64.7469,144.5313 64.9656,144.5313 Q65.3406,144.5313 65.575,144.7969 Q65.8094,145.0469 65.8094,145.6563 L65.8094,147.1094 Q65.8094,147.7188 65.575,147.9844 Q65.3406,148.25 64.9656,148.25 Q64.6219,148.25 64.4188,148.0469 Q64.2156,147.8594 64.1063,147.3438 Q64.0594,146.9844 63.8719,146.7969 Q63.5438,146.4219 62.9344,146.2031 Q62.325,145.9844 61.7,145.9844 Q60.9344,145.9844 60.2938,146.3125 Q59.6688,146.6406 59.1688,147.3906 Q58.6844,148.1406 58.6844,149.1719 L58.6844,150.2656 Q58.6844,151.5 59.575,152.3281 Q60.4656,153.1406 62.0594,153.1406 Q62.9969,153.1406 63.6531,152.8906 Q64.0438,152.7344 64.4656,152.2969 Q64.7313,152.0313 64.8719,151.9531 Q65.0281,151.875 65.2313,151.875 Q65.5594,151.875 65.8094,152.1406 Q66.075,152.3906 66.075,152.7344 Q66.075,153.0781 65.7313,153.4844 Q65.2313,154.0625 64.4344,154.3906 Q63.3563,154.8438 62.0594,154.8438 Q60.5438,154.8438 59.3406,154.2188 Q58.3563,153.7188 57.6688,152.6563 Q56.9813,151.5781 56.9813,150.2969 L56.9813,149.1406 Q56.9813,147.8125 57.5906,146.6719 Q58.2156,145.5156 59.3094,144.9063 Q60.4031,144.2813 61.6375,144.2813 Q62.3719,144.2813 63.0125,144.4531 Q63.6688,144.6094 64.2156,144.9688 Z "/><text fill="#000000" font-family="sans-serif" font-size="14" lengthAdjust="spacingAndGlyphs" textLength="29" x="134.55" y="148.5332">Role</text><text fill="#000000" font-family="sans-serif" font-size="10" lengthAdjust="spacingAndGlyphs" textLength="145" x="76.55" y="161.9902">org.apache.wiki.auth.authorize</text><line style="stroke: #A80036; stroke-width: 1.5;" x1="42.5" x2="228.5" y1="169.1875" y2="169.1875"/><ellipse cx="52.5" cy="180.1875" fill="none" rx="3" ry="3" style="stroke: #038048; stroke-width: 1.0;"/><text fill="#000000" font-family="sans-serif" font-size="11" lengthAdjust="spacingAndGlyphs" text-decoration="underline" textLength="47" x="61.5" y="184.6064">ALL: Role</text><ellipse cx="52.5" cy="194.0234" fill="none" rx="3" ry="3" style="stroke: #038048; stroke-width: 1.0;"/><text fill="#000000" font-family="sans-serif" font-size="11" lengthAdjust="spacingAndGlyphs" text-decoration="underline" textLength="95" x="61.5" y="198.4424">ANONYMOUS: Role</text><ellipse cx="52.5" cy="207.8594" fill="none" rx="3" ry="3" style="stroke: #038048; stroke-width: 1.0;"/><text fill="#000000" font-family="sans-serif" font-size="11" lengthAdjust="spacingAndGlyphs" text-decoration="underline" textLength="81" x="61.5" y="212.2783">ASSERTED: Role</text><ellipse cx="52.5" cy="221.6953" fill="none" rx="3" ry="3" style="stroke: #038048; stroke-width: 1.0;"/><text fill="#000000" font-family="sans-serif" font-size="11" lengthAdjust="spacingAndGlyphs" text-decoration="underline" textLength="110" x="61.5" y="226.1143">AUTHENTICATED: Role</text><line style="stroke: #A80036; stroke-width: 1.5;" x1="42.5" x2="228.5" y1="232.5313" y2="232.5313"/><polygon fill="#FFFF44" points="52.5,238.5313,56.5,242.5313,52.5,246.5313,48.5,242.5313" style="stroke: #B38D22; stroke-width: 1.0;"/><text fill="#000000" font-family="sans-serif" font-size="11" lengthAdjust="spacingAndGlyphs" textLength="29" x="61.5" y="247.9502">Role()</text><ellipse cx="52.5" cy="257.3672" fill="#84BE84" rx="3" ry="3" style="stroke: #038048; stroke-width: 1.0;"/><text fill="#000000" font-family="sans-serif" font-size="11" lengthAdjust="spacingAndGlyphs" textLength="57" x="61.5" y="261.7861">Role(String)</text><ellipse cx="52.5" cy="271.2031" fill="#84BE84" rx="3" ry="3" style="stroke: #038048; stroke-width: 1.0;"/><text fill="#000000" font-family="sans-serif" font-size="11" lengthAdjust="spacingAndGlyphs" text-decoration="underline" textLength="130" x="61.5" y="275.6221">isBuiltInRole(Role): boolean</text><ellipse cx="52.5" cy="285.0391" fill="#84BE84" rx="3" ry="3" style="stroke: #038048; stroke-width: 1.0;"/><text fill="#000000" font-family="sans-serif" font-size="11" lengthAdjust="spacingAndGlyphs" text-decoration="underline" textLength="162" x="61.5" y="289.458">isReservedName(String): boolean</text><ellipse cx="52.5" cy="298.875" fill="#84BE84" rx="3" ry="3" style="stroke: #038048; stroke-width: 1.0;"/><text fill="#000000" font-family="sans-serif" font-size="11" lengthAdjust="spacingAndGlyphs" textLength="84" x="61.5" y="303.2939">getName(): String</text></a><!--MD5=[e2dc22e8225a918eadd77002df418415]
class java.security.Principal--><rect codeLine="17" fill="#FEFECE" filter="url(#fjs0spxtuzbyz)" height="62.0234" id="java.security.Principal" style="stroke: #A80036; stroke-width: 1.5;" width="113" x="7" y="7"/><ellipse cx="32.35" cy="27.0938" fill="#B4A7E5" rx="11" ry="11" style="stroke: #A80036; stroke-width: 1.0;"/><path d="M33.3031,23.7344 L33.3031,30.3906 L35.0219,30.3906 Q35.6313,30.3906 35.8969,30.625 Q36.1625,30.8594 36.1625,31.25 Q36.1625,31.625 35.8969,31.8594 Q35.6313,32.0938 35.0219,32.0938 L29.8813,32.0938 Q29.2719,32.0938 29.0063,31.8594 Q28.7406,31.625 28.7406,31.2344 Q28.7406,30.8594 29.0063,30.625 Q29.2719,30.3906 29.8813,30.3906 L31.6,30.3906 L31.6,23.7344 L29.8813,23.7344 Q29.2719,23.7344 29.0063,23.5 Q28.7406,23.2656 28.7406,22.875 Q28.7406,22.5 29.0063,22.2656 Q29.2719,22.0313 29.8813,22.0313 L35.0219,22.0313 Q35.6313,22.0313 35.8969,22.2656 Q36.1625,22.5 36.1625,22.875 Q36.1625,23.2656 35.8969,23.5 Q35.6313,23.7344 35.0219,23.7344 L33.3031,23.7344 Z "/><text fill="#000000" font-family="sans-serif" font-size="14" font-style="italic" lengthAdjust="spacingAndGlyphs" textLength="54" x="50.65" y="26.5332">Principal</text><text fill="#000000" font-family="sans-serif" font-size="10" font-style="italic" lengthAdjust="spacingAndGlyphs" textLength="58" x="48.65" y="39.9902">java.security</text><line style="stroke: #A80036; stroke-width: 1.5;" x1="8" x2="119" y1="47.1875" y2="47.1875"/><ellipse cx="18" cy="58.1875" fill="#84BE84" rx="3" ry="3" style="stroke: #038048; stroke-width: 1.0;"/><text fill="#000000" font-family="sans-serif" font-size="11" font-style="italic" lengthAdjust="spacingAndGlyphs" textLength="87" x="27" y="62.6064">getName(): String</text><!--MD5=[5a5af9b0547913863cbe0ddf55a9ab5e]
class java.io.Serializable--><rect codeLine="20" fill="#FEFECE" filter="url(#fjs0spxtuzbyz)" height="40.1875" id="java.io.Serializable" style="stroke: #A80036; stroke-width: 1.5;" width="105" x="155" y="18"/><ellipse cx="170" cy="38.0938" fill="#B4A7E5" rx="11" ry="11" style="stroke: #A80036; stroke-width: 1.0;"/><path d="M170.9531,34.7344 L170.9531,41.3906 L172.6719,41.3906 Q173.2813,41.3906 173.5469,41.625 Q173.8125,41.8594 173.8125,42.25 Q173.8125,42.625 173.5469,42.8594 Q173.2813,43.0938 172.6719,43.0938 L167.5313,43.0938 Q166.9219,43.0938 166.6563,42.8594 Q166.3906,42.625 166.3906,42.2344 Q166.3906,41.8594 166.6563,41.625 Q166.9219,41.3906 167.5313,41.3906 L169.25,41.3906 L169.25,34.7344 L167.5313,34.7344 Q166.9219,34.7344 166.6563,34.5 Q166.3906,34.2656 166.3906,33.875 Q166.3906,33.5 166.6563,33.2656 Q166.9219,33.0313 167.5313,33.0313 L172.6719,33.0313 Q173.2813,33.0313 173.5469,33.2656 Q173.8125,33.5 173.8125,33.875 Q173.8125,34.2656 173.5469,34.5 Q173.2813,34.7344 172.6719,34.7344 L170.9531,34.7344 Z "/><text fill="#000000" font-family="sans-serif" font-size="14" font-style="italic" lengthAdjust="spacingAndGlyphs" textLength="73" x="184" y="37.5332">Serializable</text><text fill="#000000" font-family="sans-serif" font-size="10" font-style="italic" lengthAdjust="spacingAndGlyphs" textLength="31" x="205" y="50.9902">java.io</text><!--MD5=[ae73d3ae6e092238caceb29e878485ca]
reverse link java.security.Principal to org.apache.wiki.auth.authorize.Role--><path codeLine="22" d="M83.2716,87.8408 C88.3064,100.5328 93.8768,114.575 99.4489,128.6212 " fill="none" id="java.security.Principal-backto-org.apache.wiki.auth.authorize.Role" style="stroke: #A80036; stroke-width: 1.0; stroke-dasharray: 7.0,7.0;"/><polygon fill="none" points="76.7454,90.3728,75.8772,69.201,89.7588,85.2104,76.7454,90.3728" style="stroke: #A80036; stroke-width: 1.0;"/><!--MD5=[8de48516d660c290f3f98bb65755c4ac]
reverse link java.io.Serializable to org.apache.wiki.auth.authorize.Role--><path codeLine="23" d="M192.0834,76.8627 C186.0152,92.1596 178.7719,110.4187 171.5272,128.6815 " fill="none" id="java.io.Serializable-backto-org.apache.wiki.auth.authorize.Role" style="stroke: #A80036; stroke-width: 1.0; stroke-dasharray: 7.0,7.0;"/><polygon fill="none" points="185.638,74.1266,199.5196,58.1172,198.6515,79.289,185.638,74.1266" style="stroke: #A80036; stroke-width: 1.0;"/><text fill="#888888" font-family="sans-serif" font-size="10" lengthAdjust="spacingAndGlyphs" textLength="190" x="35.5" y="333.0918">UMLDoclet 2.0.12, PlantUML 1.2020.16</text><!--MD5=[f8f678e39010277c4e3f271f4e66b6bb]
@startuml
    set namespaceSeparator none
    hide empty fields
    hide empty methods

    class "<size:14>Role\n<size:10>org.apache.wiki.auth.authorize" as org.apache.wiki.auth.authorize.Role [[Role.html]] {
        {static} +ALL: Role
        {static} +ANONYMOUS: Role
        {static} +ASSERTED: Role
        {static} +AUTHENTICATED: Role
        #Role()
        +Role(String)
        {static} +isBuiltInRole(Role): boolean
        {static} +isReservedName(String): boolean
        +getName(): String
    }

    interface "<size:14>Principal\n<size:10>java.security" as java.security.Principal {
        {abstract} +getName(): String
    }
    interface "<size:14>Serializable\n<size:10>java.io" as java.io.Serializable

    java.security.Principal <|.. org.apache.wiki.auth.authorize.Role
    java.io.Serializable <|.. org.apache.wiki.auth.authorize.Role

    center footer UMLDoclet 2.0.12, PlantUML 1.2020.16
@enduml

PlantUML version 1.2020.16(Sun Aug 23 22:20:43 CEST 2020)
(APACHE source distribution)
Java Runtime: OpenJDK Runtime Environment
JVM: OpenJDK 64-Bit Server VM
Default Encoding: Cp1252
Language: es
Country: ES
--></g></svg>