<?xml version="1.0" encoding="UTF-8" standalone="no"?><svg xmlns="http://www.w3.org/2000/svg" xmlns:xlink="http://www.w3.org/1999/xlink" contentScriptType="application/ecmascript" contentStyleType="text/css" height="227px" preserveAspectRatio="none" style="width:474px;height:227px;" version="1.1" viewBox="0 0 474 227" width="474px" zoomAndPan="magnify"><defs><filter height="300%" id="fq7l4kkjtukac" width="300%" x="-1" y="-1"><feGaussianBlur result="blurOut" stdDeviation="2.0"/><feColorMatrix in="blurOut" result="blurOut2" type="matrix" values="0 0 0 0 0 0 0 0 0 0 0 0 0 0 0 0 0 0 .4 0"/><feOffset dx="4.0" dy="4.0" in="blurOut2" result="blurOut3"/><feBlend in="SourceGraphic" in2="blurOut3" mode="normal"/></filter></defs><g><!--MD5=[b30e552bcb7c0e7ac1c46f58285edb9d]
class org.apache.wiki.auth.authorize.WebContainerAuthorizer.LocalEntityResolver--><a href="WebContainerAuthorizer.LocalEntityResolver.html" target="_top" title="WebContainerAuthorizer.LocalEntityResolver.html" xlink:actuate="onRequest" xlink:href="WebContainerAuthorizer.LocalEntityResolver.html" xlink:show="new" xlink:title="WebContainerAuthorizer.LocalEntityResolver.html" xlink:type="simple"><rect codeLine="5" fill="#FEFECE" filter="url(#fq7l4kkjtukac)" height="62.0234" id="org.apache.wiki.auth.authorize.WebContainerAuthorizer.LocalEntityResolver" style="stroke: #A80036; stroke-width: 1.5;" width="316" x="83" y="129"/><ellipse cx="98" cy="149.0938" fill="#ADD1B2" rx="11" ry="11" style="stroke: #A80036; stroke-width: 1.0;"/><path d="M100.7656,144.9688 Q100.9219,144.75 101.1094,144.6406 Q101.2969,144.5313 101.5156,144.5313 Q101.8906,144.5313 102.125,144.7969 Q102.3594,145.0469 102.3594,145.6563 L102.3594,147.1094 Q102.3594,147.7188 102.125,147.9844 Q101.8906,148.25 101.5156,148.25 Q101.1719,148.25 100.9688,148.0469 Q100.7656,147.8594 100.6563,147.3438 Q100.6094,146.9844 100.4219,146.7969 Q100.0938,146.4219 99.4844,146.2031 Q98.875,145.9844 98.25,145.9844 Q97.4844,145.9844 96.8438,146.3125 Q96.2188,146.6406 95.7188,147.3906 Q95.2344,148.1406 95.2344,149.1719 L95.2344,150.2656 Q95.2344,151.5 96.125,152.3281 Q97.0156,153.1406 98.6094,153.1406 Q99.5469,153.1406 100.2031,152.8906 Q100.5938,152.7344 101.0156,152.2969 Q101.2813,152.0313 101.4219,151.9531 Q101.5781,151.875 101.7813,151.875 Q102.1094,151.875 102.3594,152.1406 Q102.625,152.3906 102.625,152.7344 Q102.625,153.0781 102.2813,153.4844 Q101.7813,154.0625 100.9844,154.3906 Q99.9063,154.8438 98.6094,154.8438 Q97.0938,154.8438 95.8906,154.2188 Q94.9063,153.7188 94.2188,152.6563 Q93.5313,151.5781 93.5313,150.2969 L93.5313,149.1406 Q93.5313,147.8125 94.1406,146.6719 Q94.7656,145.5156 95.8594,144.9063 Q96.9531,144.2813 98.1875,144.2813 Q98.9219,144.2813 99.5625,144.4531 Q100.2188,144.6094 100.7656,144.9688 Z "/><text fill="#000000" font-family="sans-serif" font-size="14" lengthAdjust="spacingAndGlyphs" textLength="284" x="112" y="148.5332">WebContainerAuthorizer.LocalEntityResolver</text><text fill="#000000" font-family="sans-serif" font-size="10" lengthAdjust="spacingAndGlyphs" textLength="145" x="181.5" y="161.9902">org.apache.wiki.auth.authorize</text><line style="stroke: #A80036; stroke-width: 1.5;" x1="84" x2="398" y1="169.1875" y2="169.1875"/><ellipse cx="94" cy="180.1875" fill="#84BE84" rx="3" ry="3" style="stroke: #038048; stroke-width: 1.0;"/><text fill="#000000" font-family="sans-serif" font-size="11" lengthAdjust="spacingAndGlyphs" textLength="196" x="103" y="184.6064">resolveEntity(String, String): InputSource</text></a><!--MD5=[f205561db4360621b7df08b802a2e83b]
class org.xml.sax.EntityResolver--><rect codeLine="9" fill="#FEFECE" filter="url(#fq7l4kkjtukac)" height="62.0234" id="org.xml.sax.EntityResolver" style="stroke: #A80036; stroke-width: 1.5;" width="226" x="7" y="7"/><ellipse cx="70.75" cy="27.0938" fill="#B4A7E5" rx="11" ry="11" style="stroke: #A80036; stroke-width: 1.0;"/><path d="M71.7031,23.7344 L71.7031,30.3906 L73.4219,30.3906 Q74.0313,30.3906 74.2969,30.625 Q74.5625,30.8594 74.5625,31.25 Q74.5625,31.625 74.2969,31.8594 Q74.0313,32.0938 73.4219,32.0938 L68.2813,32.0938 Q67.6719,32.0938 67.4063,31.8594 Q67.1406,31.625 67.1406,31.2344 Q67.1406,30.8594 67.4063,30.625 Q67.6719,30.3906 68.2813,30.3906 L70,30.3906 L70,23.7344 L68.2813,23.7344 Q67.6719,23.7344 67.4063,23.5 Q67.1406,23.2656 67.1406,22.875 Q67.1406,22.5 67.4063,22.2656 Q67.6719,22.0313 68.2813,22.0313 L73.4219,22.0313 Q74.0313,22.0313 74.2969,22.2656 Q74.5625,22.5 74.5625,22.875 Q74.5625,23.2656 74.2969,23.5 Q74.0313,23.7344 73.4219,23.7344 L71.7031,23.7344 Z "/><text fill="#000000" font-family="sans-serif" font-size="14" font-style="italic" lengthAdjust="spacingAndGlyphs" textLength="90" x="91.25" y="26.5332">EntityResolver</text><text fill="#000000" font-family="sans-serif" font-size="10" font-style="italic" lengthAdjust="spacingAndGlyphs" textLength="52" x="110.25" y="39.9902">org.xml.sax</text><line style="stroke: #A80036; stroke-width: 1.5;" x1="8" x2="232" y1="47.1875" y2="47.1875"/><ellipse cx="18" cy="58.1875" fill="#84BE84" rx="3" ry="3" style="stroke: #038048; stroke-width: 1.0;"/><text fill="#000000" font-family="sans-serif" font-size="11" font-style="italic" lengthAdjust="spacingAndGlyphs" textLength="200" x="27" y="62.6064">resolveEntity(String, String): InputSource</text><!--MD5=[3d2789bf30d309113705921699ae6807]
class org.apache.wiki.auth.authorize.WebContainerAuthorizer--><a href="WebContainerAuthorizer.html" target="_top" title="WebContainerAuthorizer.html" xlink:actuate="onRequest" xlink:href="WebContainerAuthorizer.html" xlink:show="new" xlink:title="WebContainerAuthorizer.html" xlink:type="simple"><rect codeLine="12" fill="#FEFECE" filter="url(#fq7l4kkjtukac)" height="40.1875" id="org.apache.wiki.auth.authorize.WebContainerAuthorizer" style="stroke: #A80036; stroke-width: 1.5;" width="187" x="268.5" y="18"/><ellipse cx="283.5" cy="38.0938" fill="#ADD1B2" rx="11" ry="11" style="stroke: #A80036; stroke-width: 1.0;"/><path d="M286.2656,33.9688 Q286.4219,33.75 286.6094,33.6406 Q286.7969,33.5313 287.0156,33.5313 Q287.3906,33.5313 287.625,33.7969 Q287.8594,34.0469 287.8594,34.6563 L287.8594,36.1094 Q287.8594,36.7188 287.625,36.9844 Q287.3906,37.25 287.0156,37.25 Q286.6719,37.25 286.4688,37.0469 Q286.2656,36.8594 286.1563,36.3438 Q286.1094,35.9844 285.9219,35.7969 Q285.5938,35.4219 284.9844,35.2031 Q284.375,34.9844 283.75,34.9844 Q282.9844,34.9844 282.3438,35.3125 Q281.7188,35.6406 281.2188,36.3906 Q280.7344,37.1406 280.7344,38.1719 L280.7344,39.2656 Q280.7344,40.5 281.625,41.3281 Q282.5156,42.1406 284.1094,42.1406 Q285.0469,42.1406 285.7031,41.8906 Q286.0938,41.7344 286.5156,41.2969 Q286.7813,41.0313 286.9219,40.9531 Q287.0781,40.875 287.2813,40.875 Q287.6094,40.875 287.8594,41.1406 Q288.125,41.3906 288.125,41.7344 Q288.125,42.0781 287.7813,42.4844 Q287.2813,43.0625 286.4844,43.3906 Q285.4063,43.8438 284.1094,43.8438 Q282.5938,43.8438 281.3906,43.2188 Q280.4063,42.7188 279.7188,41.6563 Q279.0313,40.5781 279.0313,39.2969 L279.0313,38.1406 Q279.0313,36.8125 279.6406,35.6719 Q280.2656,34.5156 281.3594,33.9063 Q282.4531,33.2813 283.6875,33.2813 Q284.4219,33.2813 285.0625,33.4531 Q285.7188,33.6094 286.2656,33.9688 Z "/><text fill="#000000" font-family="sans-serif" font-size="14" lengthAdjust="spacingAndGlyphs" textLength="155" x="297.5" y="37.5332">WebContainerAuthorizer</text><text fill="#000000" font-family="sans-serif" font-size="10" lengthAdjust="spacingAndGlyphs" textLength="145" x="302.5" y="50.9902">org.apache.wiki.auth.authorize</text></a><!--MD5=[69e4d2f80a268b2b49d8040ba300527c]
reverse link org.xml.sax.EntityResolver to org.apache.wiki.auth.authorize.WebContainerAuthorizer.LocalEntityResolver--><path codeLine="14" d="M165.2435,83.6174 C180.235,98.7328 196.5637,115.1964 210.2098,128.9554 " fill="none" id="org.xml.sax.EntityResolver-backto-org.apache.wiki.auth.authorize.WebContainerAuthorizer.LocalEntityResolver" style="stroke: #A80036; stroke-width: 1.0; stroke-dasharray: 7.0,7.0;"/><polygon fill="none" points="159.9602,88.231,150.8465,69.1014,169.9004,78.3723,159.9602,88.231" style="stroke: #A80036; stroke-width: 1.0;"/><!--MD5=[33c7e7bfc14ca36f7bb2e36f4ab1a0cd]
reverse link org.apache.wiki.auth.authorize.WebContainerAuthorizer to org.apache.wiki.auth.authorize.WebContainerAuthorizer.LocalEntityResolver--><path codeLine="15" d="M331.3953,68.8576 C313.194,87.2094 290.1708,110.4228 271.9151,128.8294 " fill="none" id="org.apache.wiki.auth.authorize.WebContainerAuthorizer-backto-org.apache.wiki.auth.authorize.WebContainerAuthorizer.LocalEntityResolver" style="stroke: #A80036; stroke-width: 1.0;"/><ellipse cx="336.3858" cy="63.8259" fill="#FFFFFF" rx="8" ry="8" style="stroke: #A80036; stroke-width: 1.0;"/><line style="stroke: #A80036; stroke-width: 1.0;" x1="330.7522" x2="342.0193" y1="69.506" y2="58.1458"/><line style="stroke: #A80036; stroke-width: 1.0;" x1="330.7057" x2="342.0659" y1="58.1924" y2="69.4594"/><text fill="#888888" font-family="sans-serif" font-size="10" lengthAdjust="spacingAndGlyphs" textLength="190" x="133.25" y="214.4043">UMLDoclet 2.0.12, PlantUML 1.2020.16</text><!--MD5=[82d9c48eecb20b1e3d45b997846a1bc3]
@startuml
    set namespaceSeparator none
    hide empty fields
    hide empty methods

    class "<size:14>WebContainerAuthorizer.LocalEntityResolver\n<size:10>org.apache.wiki.auth.authorize" as org.apache.wiki.auth.authorize.WebContainerAuthorizer.LocalEntityResolver [[WebContainerAuthorizer.LocalEntityResolver.html]] {
        +resolveEntity(String, String): InputSource
    }

    interface "<size:14>EntityResolver\n<size:10>org.xml.sax" as org.xml.sax.EntityResolver {
        {abstract} +resolveEntity(String, String): InputSource
    }
    class "<size:14>WebContainerAuthorizer\n<size:10>org.apache.wiki.auth.authorize" as org.apache.wiki.auth.authorize.WebContainerAuthorizer [[WebContainerAuthorizer.html]]

    org.xml.sax.EntityResolver <|.. org.apache.wiki.auth.authorize.WebContainerAuthorizer.LocalEntityResolver
    org.apache.wiki.auth.authorize.WebContainerAuthorizer +- - org.apache.wiki.auth.authorize.WebContainerAuthorizer.LocalEntityResolver

    center footer UMLDoclet 2.0.12, PlantUML 1.2020.16
@enduml

PlantUML version 1.2020.16(Sun Aug 23 22:20:43 CEST 2020)
(APACHE source distribution)
Java Runtime: OpenJDK Runtime Environment
JVM: OpenJDK 64-Bit Server VM
Default Encoding: Cp1252
Language: es
Country: ES
--></g></svg>