<?xml version="1.0" encoding="UTF-8" standalone="no"?><svg xmlns="http://www.w3.org/2000/svg" xmlns:xlink="http://www.w3.org/1999/xlink" contentScriptType="application/ecmascript" contentStyleType="text/css" height="333px" preserveAspectRatio="none" style="width:219px;height:333px;" version="1.1" viewBox="0 0 219 333" width="219px" zoomAndPan="magnify"><defs><filter height="300%" id="fq5b5kgz4hawa" width="300%" x="-1" y="-1"><feGaussianBlur result="blurOut" stdDeviation="2.0"/><feColorMatrix in="blurOut" result="blurOut2" type="matrix" values="0 0 0 0 0 0 0 0 0 0 0 0 0 0 0 0 0 0 .4 0"/><feOffset dx="4.0" dy="4.0" in="blurOut2" result="blurOut3"/><feBlend in="SourceGraphic" in2="blurOut3" mode="normal"/></filter></defs><g><!--MD5=[037cef252aa55dc5df6a3954c7883864]
class org.apache.wiki.auth.authorize.XMLGroupDatabase--><a href="XMLGroupDatabase.html" target="_top" title="XMLGroupDatabase.html" xlink:actuate="onRequest" xlink:href="XMLGroupDatabase.html" xlink:show="new" xlink:title="XMLGroupDatabase.html" xlink:type="simple"><rect codeLine="5" fill="#FEFECE" filter="url(#fq5b5kgz4hawa)" height="125.3672" id="org.apache.wiki.auth.authorize.XMLGroupDatabase" style="stroke: #A80036; stroke-width: 1.5;" width="184" x="11.5" y="171"/><ellipse cx="29.65" cy="191.0938" fill="#ADD1B2" rx="11" ry="11" style="stroke: #A80036; stroke-width: 1.0;"/><path d="M32.4156,186.9688 Q32.5719,186.75 32.7594,186.6406 Q32.9469,186.5313 33.1656,186.5313 Q33.5406,186.5313 33.775,186.7969 Q34.0094,187.0469 34.0094,187.6563 L34.0094,189.1094 Q34.0094,189.7188 33.775,189.9844 Q33.5406,190.25 33.1656,190.25 Q32.8219,190.25 32.6188,190.0469 Q32.4156,189.8594 32.3063,189.3438 Q32.2594,188.9844 32.0719,188.7969 Q31.7438,188.4219 31.1344,188.2031 Q30.525,187.9844 29.9,187.9844 Q29.1344,187.9844 28.4938,188.3125 Q27.8688,188.6406 27.3688,189.3906 Q26.8844,190.1406 26.8844,191.1719 L26.8844,192.2656 Q26.8844,193.5 27.775,194.3281 Q28.6656,195.1406 30.2594,195.1406 Q31.1969,195.1406 31.8531,194.8906 Q32.2438,194.7344 32.6656,194.2969 Q32.9313,194.0313 33.0719,193.9531 Q33.2281,193.875 33.4313,193.875 Q33.7594,193.875 34.0094,194.1406 Q34.275,194.3906 34.275,194.7344 Q34.275,195.0781 33.9313,195.4844 Q33.4313,196.0625 32.6344,196.3906 Q31.5563,196.8438 30.2594,196.8438 Q28.7438,196.8438 27.5406,196.2188 Q26.5563,195.7188 25.8688,194.6563 Q25.1813,193.5781 25.1813,192.2969 L25.1813,191.1406 Q25.1813,189.8125 25.7906,188.6719 Q26.4156,187.5156 27.5094,186.9063 Q28.6031,186.2813 29.8375,186.2813 Q30.5719,186.2813 31.2125,186.4531 Q31.8688,186.6094 32.4156,186.9688 Z "/><text fill="#000000" font-family="sans-serif" font-size="14" lengthAdjust="spacingAndGlyphs" textLength="128" x="52.85" y="190.5332">XMLGroupDatabase</text><text fill="#000000" font-family="sans-serif" font-size="10" lengthAdjust="spacingAndGlyphs" textLength="145" x="44.35" y="203.9902">org.apache.wiki.auth.authorize</text><line style="stroke: #A80036; stroke-width: 1.5;" x1="12.5" x2="194.5" y1="211.1875" y2="211.1875"/><ellipse cx="22.5" cy="222.1875" fill="none" rx="3" ry="3" style="stroke: #038048; stroke-width: 1.0;"/><text fill="#000000" font-family="sans-serif" font-size="11" lengthAdjust="spacingAndGlyphs" text-decoration="underline" textLength="124" x="31.5" y="226.6064">PROP_DATABASE: String</text><line style="stroke: #A80036; stroke-width: 1.5;" x1="12.5" x2="194.5" y1="233.0234" y2="233.0234"/><ellipse cx="22.5" cy="244.0234" fill="#84BE84" rx="3" ry="3" style="stroke: #038048; stroke-width: 1.0;"/><text fill="#000000" font-family="sans-serif" font-size="11" lengthAdjust="spacingAndGlyphs" textLength="93" x="31.5" y="248.4424">delete(Group): void</text><ellipse cx="22.5" cy="257.8594" fill="#84BE84" rx="3" ry="3" style="stroke: #038048; stroke-width: 1.0;"/><text fill="#000000" font-family="sans-serif" font-size="11" lengthAdjust="spacingAndGlyphs" textLength="84" x="31.5" y="262.2783">groups(): Group[]</text><ellipse cx="22.5" cy="271.6953" fill="#84BE84" rx="3" ry="3" style="stroke: #038048; stroke-width: 1.0;"/><text fill="#000000" font-family="sans-serif" font-size="11" lengthAdjust="spacingAndGlyphs" textLength="158" x="31.5" y="276.1143">initialize(Engine, Properties): void</text><ellipse cx="22.5" cy="285.5313" fill="#84BE84" rx="3" ry="3" style="stroke: #038048; stroke-width: 1.0;"/><text fill="#000000" font-family="sans-serif" font-size="11" lengthAdjust="spacingAndGlyphs" textLength="134" x="31.5" y="289.9502">save(Group, Principal): void</text></a><!--MD5=[eb52c5f5726315e2b7891c0ae06a04f0]
class org.apache.wiki.auth.authorize.GroupDatabase--><a href="GroupDatabase.html" target="_top" title="GroupDatabase.html" xlink:actuate="onRequest" xlink:href="GroupDatabase.html" xlink:show="new" xlink:title="GroupDatabase.html" xlink:type="simple"><rect codeLine="13" fill="#FEFECE" filter="url(#fq5b5kgz4hawa)" height="103.5313" id="org.apache.wiki.auth.authorize.GroupDatabase" style="stroke: #A80036; stroke-width: 1.5;" width="193" x="7" y="7"/><ellipse cx="28.75" cy="27.0938" fill="#B4A7E5" rx="11" ry="11" style="stroke: #A80036; stroke-width: 1.0;"/><path d="M29.7031,23.7344 L29.7031,30.3906 L31.4219,30.3906 Q32.0313,30.3906 32.2969,30.625 Q32.5625,30.8594 32.5625,31.25 Q32.5625,31.625 32.2969,31.8594 Q32.0313,32.0938 31.4219,32.0938 L26.2813,32.0938 Q25.6719,32.0938 25.4063,31.8594 Q25.1406,31.625 25.1406,31.2344 Q25.1406,30.8594 25.4063,30.625 Q25.6719,30.3906 26.2813,30.3906 L28,30.3906 L28,23.7344 L26.2813,23.7344 Q25.6719,23.7344 25.4063,23.5 Q25.1406,23.2656 25.1406,22.875 Q25.1406,22.5 25.4063,22.2656 Q25.6719,22.0313 26.2813,22.0313 L31.4219,22.0313 Q32.0313,22.0313 32.2969,22.2656 Q32.5625,22.5 32.5625,22.875 Q32.5625,23.2656 32.2969,23.5 Q32.0313,23.7344 31.4219,23.7344 L29.7031,23.7344 Z "/><text fill="#000000" font-family="sans-serif" font-size="14" font-style="italic" lengthAdjust="spacingAndGlyphs" textLength="101" x="66.75" y="26.5332">GroupDatabase</text><text fill="#000000" font-family="sans-serif" font-size="10" font-style="italic" lengthAdjust="spacingAndGlyphs" textLength="146" x="44.25" y="39.9902">org.apache.wiki.auth.authorize</text><line style="stroke: #A80036; stroke-width: 1.5;" x1="8" x2="199" y1="47.1875" y2="47.1875"/><ellipse cx="18" cy="58.1875" fill="#84BE84" rx="3" ry="3" style="stroke: #038048; stroke-width: 1.0;"/><text fill="#000000" font-family="sans-serif" font-size="11" font-style="italic" lengthAdjust="spacingAndGlyphs" textLength="95" x="27" y="62.6064">delete(Group): void</text><ellipse cx="18" cy="72.0234" fill="#84BE84" rx="3" ry="3" style="stroke: #038048; stroke-width: 1.0;"/><text fill="#000000" font-family="sans-serif" font-size="11" font-style="italic" lengthAdjust="spacingAndGlyphs" textLength="167" x="27" y="76.4424">initialize(Engine, Properties): void</text><ellipse cx="18" cy="85.8594" fill="#84BE84" rx="3" ry="3" style="stroke: #038048; stroke-width: 1.0;"/><text fill="#000000" font-family="sans-serif" font-size="11" font-style="italic" lengthAdjust="spacingAndGlyphs" textLength="138" x="27" y="90.2783">save(Group, Principal): void</text><ellipse cx="18" cy="99.6953" fill="#84BE84" rx="3" ry="3" style="stroke: #038048; stroke-width: 1.0;"/><text fill="#000000" font-family="sans-serif" font-size="11" font-style="italic" lengthAdjust="spacingAndGlyphs" textLength="85" x="27" y="104.1143">groups(): Group[]</text></a><!--MD5=[2ca2ea8bf8c89bda413994f2dd298ac4]
reverse link org.apache.wiki.auth.authorize.GroupDatabase to org.apache.wiki.auth.authorize.XMLGroupDatabase--><path codeLine="20" d="M103.5,131.8085 C103.5,144.7344 103.5,158.0952 103.5,170.7134 " fill="none" id="org.apache.wiki.auth.authorize.GroupDatabase-backto-org.apache.wiki.auth.authorize.XMLGroupDatabase" style="stroke: #A80036; stroke-width: 1.0; stroke-dasharray: 7.0,7.0;"/><polygon fill="none" points="96.5001,131.3558,103.5,111.3558,110.5001,131.3557,96.5001,131.3558" style="stroke: #A80036; stroke-width: 1.0;"/><text fill="#888888" font-family="sans-serif" font-size="10" lengthAdjust="spacingAndGlyphs" textLength="190" x="5.5" y="319.748">UMLDoclet 2.0.12, PlantUML 1.2020.16</text><!--MD5=[da00acc6dc9585353b34a89746d904e3]
@startuml
    set namespaceSeparator none
    hide empty fields
    hide empty methods

    class "<size:14>XMLGroupDatabase\n<size:10>org.apache.wiki.auth.authorize" as org.apache.wiki.auth.authorize.XMLGroupDatabase [[XMLGroupDatabase.html]] {
        {static} +PROP_DATABASE: String
        +delete(Group): void
        +groups(): Group[]
        +initialize(Engine, Properties): void
        +save(Group, Principal): void
    }

    interface "<size:14>GroupDatabase\n<size:10>org.apache.wiki.auth.authorize" as org.apache.wiki.auth.authorize.GroupDatabase [[GroupDatabase.html]] {
        {abstract} +delete(Group): void
        {abstract} +initialize(Engine, Properties): void
        {abstract} +save(Group, Principal): void
        {abstract} +groups(): Group[]
    }

    org.apache.wiki.auth.authorize.GroupDatabase <|.. org.apache.wiki.auth.authorize.XMLGroupDatabase

    center footer UMLDoclet 2.0.12, PlantUML 1.2020.16
@enduml

PlantUML version 1.2020.16(Sun Aug 23 22:20:43 CEST 2020)
(APACHE source distribution)
Java Runtime: OpenJDK Runtime Environment
JVM: OpenJDK 64-Bit Server VM
Default Encoding: Cp1252
Language: es
Country: ES
--></g></svg>