<?xml version="1.0" encoding="UTF-8" standalone="no"?><svg xmlns="http://www.w3.org/2000/svg" xmlns:xlink="http://www.w3.org/1999/xlink" contentScriptType="application/ecmascript" contentStyleType="text/css" height="578px" preserveAspectRatio="none" style="width:311px;height:578px;background:#FFFFFF;" version="1.1" viewBox="0 0 311 578" width="311px" zoomAndPan="magnify"><defs><filter height="300%" id="fx01fdpr1go5h" width="300%" x="-1" y="-1"><feGaussianBlur result="blurOut" stdDeviation="2.0"/><feColorMatrix in="blurOut" result="blurOut2" type="matrix" values="0 0 0 0 0 0 0 0 0 0 0 0 0 0 0 0 0 0 .4 0"/><feOffset dx="4.0" dy="4.0" in="blurOut2" result="blurOut3"/><feBlend in="SourceGraphic" in2="blurOut3" mode="normal"/></filter></defs><g><!--MD5=[8fd0d33d165af66d8dec3070c9153824]
cluster org.apache.wiki.api.filters--><polygon fill="#FFFFFF" filter="url(#fx01fdpr1go5h)" points="16,6,226,6,233,28.2969,294,28.2969,294,555,16,555,16,6" style="stroke:#000000;stroke-width:1.5;"/><line style="stroke:#000000;stroke-width:1.5;" x1="16" x2="233" y1="28.2969" y2="28.2969"/><text fill="#000000" font-family="sans-serif" font-size="14" font-weight="bold" lengthAdjust="spacing" textLength="204" x="20" y="20.9951">org.apache.wiki.api.filters</text><!--MD5=[a833b874e85e441aa0a4bb239711e1e4]
class org.apache.wiki.api.filters.PageFilter--><a href="PageFilter.html" target="_top" title="PageFilter.html" xlink:actuate="onRequest" xlink:href="PageFilter.html" xlink:show="new" xlink:title="PageFilter.html" xlink:type="simple"><rect codeLine="3" fill="#FEFECE" filter="url(#fx01fdpr1go5h)" height="124.8281" id="org.apache.wiki.api.filters.PageFilter" style="stroke:#A80036;stroke-width:1.5;" width="240" x="35" y="33"/><ellipse cx="119.75" cy="49" fill="#B4A7E5" rx="11" ry="11" style="stroke:#A80036;stroke-width:1.0;"/><path d="M115.6719,44.7656 L115.6719,42.6094 L123.0625,42.6094 L123.0625,44.7656 L120.5938,44.7656 L120.5938,52.8438 L123.0625,52.8438 L123.0625,55 L115.6719,55 L115.6719,52.8438 L118.1406,52.8438 L118.1406,44.7656 L115.6719,44.7656 Z " fill="#000000"/><text fill="#000000" font-family="sans-serif" font-size="12" font-style="italic" lengthAdjust="spacing" textLength="62" x="140.25" y="53.1543">PageFilter</text><line style="stroke:#A80036;stroke-width:1.5;" x1="36" x2="274" y1="65" y2="65"/><line style="stroke:#A80036;stroke-width:1.5;" x1="36" x2="274" y1="73" y2="73"/><ellipse cx="46" cy="84" fill="#84BE84" rx="3" ry="3" style="stroke:#038048;stroke-width:1.0;"/><text fill="#000000" font-family="sans-serif" font-size="11" font-style="italic" lengthAdjust="spacing" textLength="190" x="55" y="87.2104">initialize(Engine, Properties): void</text><ellipse cx="46" cy="96.8047" fill="#84BE84" rx="3" ry="3" style="stroke:#038048;stroke-width:1.0;"/><text fill="#000000" font-family="sans-serif" font-size="11" lengthAdjust="spacing" textLength="208" x="55" y="100.0151">preTranslate(Context, String): String</text><ellipse cx="46" cy="109.6094" fill="#84BE84" rx="3" ry="3" style="stroke:#038048;stroke-width:1.0;"/><text fill="#000000" font-family="sans-serif" font-size="11" lengthAdjust="spacing" textLength="214" x="55" y="112.8198">postTranslate(Context, String): String</text><ellipse cx="46" cy="122.4141" fill="#84BE84" rx="3" ry="3" style="stroke:#038048;stroke-width:1.0;"/><text fill="#000000" font-family="sans-serif" font-size="11" lengthAdjust="spacing" textLength="182" x="55" y="125.6245">preSave(Context, String): String</text><ellipse cx="46" cy="135.2188" fill="#84BE84" rx="3" ry="3" style="stroke:#038048;stroke-width:1.0;"/><text fill="#000000" font-family="sans-serif" font-size="11" lengthAdjust="spacing" textLength="177" x="55" y="138.4292">postSave(Context, String): void</text><ellipse cx="46" cy="148.0234" fill="#84BE84" rx="3" ry="3" style="stroke:#038048;stroke-width:1.0;"/><text fill="#000000" font-family="sans-serif" font-size="11" lengthAdjust="spacing" textLength="120" x="55" y="151.2339">destroy(Engine): void</text></a><!--MD5=[e6f7120dbe2c94b2a1428c9b3193884e]
class org.apache.wiki.api.filters.BasePageFilter--><a href="BasePageFilter.html" target="_top" title="BasePageFilter.html" xlink:actuate="onRequest" xlink:href="BasePageFilter.html" xlink:show="new" xlink:title="BasePageFilter.html" xlink:type="simple"><rect codeLine="12" fill="#FEFECE" filter="url(#fx01fdpr1go5h)" height="73.6094" id="org.apache.wiki.api.filters.BasePageFilter" style="stroke:#A80036;stroke-width:1.5;" width="215" x="47.5" y="218"/><ellipse cx="103.75" cy="234" fill="#ADD1B2" rx="11" ry="11" style="stroke:#A80036;stroke-width:1.0;"/><path d="M106.7188,239.6406 Q106.1406,239.9375 105.5,240.0781 Q104.8594,240.2344 104.1563,240.2344 Q101.6563,240.2344 100.3281,238.5938 Q99.0156,236.9375 99.0156,233.8125 Q99.0156,230.6875 100.3281,229.0313 Q101.6563,227.375 104.1563,227.375 Q104.8594,227.375 105.5,227.5313 Q106.1563,227.6875 106.7188,227.9844 L106.7188,230.7031 Q106.0938,230.125 105.5,229.8594 Q104.9063,229.5781 104.2813,229.5781 Q102.9375,229.5781 102.25,230.6563 Q101.5625,231.7188 101.5625,233.8125 Q101.5625,235.9063 102.25,236.9844 Q102.9375,238.0469 104.2813,238.0469 Q104.9063,238.0469 105.5,237.7813 Q106.0938,237.5 106.7188,236.9219 L106.7188,239.6406 Z " fill="#000000"/><text fill="#000000" font-family="sans-serif" font-size="12" lengthAdjust="spacing" textLength="94" x="124.25" y="238.1543">BasePageFilter</text><line style="stroke:#A80036;stroke-width:1.5;" x1="48.5" x2="261.5" y1="250" y2="250"/><polygon fill="none" points="58.5,256,62.5,260,58.5,264,54.5,260" style="stroke:#B38D22;stroke-width:1.0;"/><text fill="#000000" font-family="sans-serif" font-size="11" lengthAdjust="spacing" textLength="101" x="67.5" y="264.2104">m_engine: Engine</text><line style="stroke:#A80036;stroke-width:1.5;" x1="48.5" x2="261.5" y1="270.8047" y2="270.8047"/><ellipse cx="58.5" cy="281.8047" fill="#84BE84" rx="3" ry="3" style="stroke:#038048;stroke-width:1.0;"/><text fill="#000000" font-family="sans-serif" font-size="11" lengthAdjust="spacing" textLength="189" x="67.5" y="285.0151">initialize(Engine, Properties): void</text></a><!--MD5=[acf49c4f33178bfcd8eef1c0183c8f5f]
class org.apache.wiki.api.filters.BasicPageFilter--><a href="BasicPageFilter.html" target="_top" title="BasicPageFilter.html" xlink:actuate="onRequest" xlink:href="BasicPageFilter.html" xlink:show="new" xlink:title="BasicPageFilter.html" xlink:type="simple"><rect codeLine="17" fill="#FEFECE" filter="url(#fx01fdpr1go5h)" height="194.7891" id="org.apache.wiki.api.filters.BasicPageFilter" style="stroke:#A80036;stroke-width:1.5;" width="261" x="24.5" y="352"/><ellipse cx="102.75" cy="370.9688" fill="#ADD1B2" rx="11" ry="11" style="stroke:#A80036;stroke-width:1.0;"/><path d="M105.7188,376.6094 Q105.1406,376.9063 104.5,377.0469 Q103.8594,377.2031 103.1563,377.2031 Q100.6563,377.2031 99.3281,375.5625 Q98.0156,373.9063 98.0156,370.7813 Q98.0156,367.6563 99.3281,366 Q100.6563,364.3438 103.1563,364.3438 Q103.8594,364.3438 104.5,364.5 Q105.1563,364.6563 105.7188,364.9531 L105.7188,367.6719 Q105.0938,367.0938 104.5,366.8281 Q103.9063,366.5469 103.2813,366.5469 Q101.9375,366.5469 101.25,367.625 Q100.5625,368.6875 100.5625,370.7813 Q100.5625,372.875 101.25,373.9531 Q101.9375,375.0156 103.2813,375.0156 Q103.9063,375.0156 104.5,374.75 Q105.0938,374.4688 105.7188,373.8906 L105.7188,376.6094 Z " fill="#000000"/><text fill="#000000" font-family="sans-serif" font-size="12" font-style="italic" lengthAdjust="spacing" textLength="87" x="127.75" y="368.1387">«deprecated»</text><text fill="#000000" font-family="sans-serif" font-size="12" lengthAdjust="spacing" textLength="96" x="123.25" y="382.1074">BasicPageFilter</text><line style="stroke:#A80036;stroke-width:1.5;" x1="25.5" x2="284.5" y1="389.9375" y2="389.9375"/><line style="stroke:#A80036;stroke-width:1.5;" x1="25.5" x2="284.5" y1="397.9375" y2="397.9375"/><ellipse cx="35.5" cy="408.9375" fill="#84BE84" rx="3" ry="3" style="stroke:#038048;stroke-width:1.0;"/><text fill="#000000" font-family="sans-serif" font-size="11" lengthAdjust="spacing" textLength="210" x="44.5" y="412.1479">initialize(WikiEngine, Properties): void</text><ellipse cx="35.5" cy="421.7422" fill="#84BE84" rx="3" ry="3" style="stroke:#038048;stroke-width:1.0;"/><text fill="#000000" font-family="sans-serif" font-size="11" lengthAdjust="spacing" textLength="229" x="44.5" y="424.9526">preTranslate(WikiContext, String): String</text><ellipse cx="35.5" cy="434.5469" fill="#84BE84" rx="3" ry="3" style="stroke:#038048;stroke-width:1.0;"/><text fill="#000000" font-family="sans-serif" font-size="11" lengthAdjust="spacing" textLength="208" x="44.5" y="437.7573">preTranslate(Context, String): String</text><ellipse cx="35.5" cy="447.3516" fill="#84BE84" rx="3" ry="3" style="stroke:#038048;stroke-width:1.0;"/><text fill="#000000" font-family="sans-serif" font-size="11" lengthAdjust="spacing" textLength="235" x="44.5" y="450.562">postTranslate(WikiContext, String): String</text><ellipse cx="35.5" cy="460.1563" fill="#84BE84" rx="3" ry="3" style="stroke:#038048;stroke-width:1.0;"/><text fill="#000000" font-family="sans-serif" font-size="11" lengthAdjust="spacing" textLength="214" x="44.5" y="463.3667">postTranslate(Context, String): String</text><ellipse cx="35.5" cy="472.9609" fill="#84BE84" rx="3" ry="3" style="stroke:#038048;stroke-width:1.0;"/><text fill="#000000" font-family="sans-serif" font-size="11" lengthAdjust="spacing" textLength="203" x="44.5" y="476.1714">preSave(WikiContext, String): String</text><ellipse cx="35.5" cy="485.7656" fill="#84BE84" rx="3" ry="3" style="stroke:#038048;stroke-width:1.0;"/><text fill="#000000" font-family="sans-serif" font-size="11" lengthAdjust="spacing" textLength="182" x="44.5" y="488.9761">preSave(Context, String): String</text><ellipse cx="35.5" cy="498.5703" fill="#84BE84" rx="3" ry="3" style="stroke:#038048;stroke-width:1.0;"/><text fill="#000000" font-family="sans-serif" font-size="11" lengthAdjust="spacing" textLength="198" x="44.5" y="501.7808">postSave(WikiContext, String): void</text><ellipse cx="35.5" cy="511.375" fill="#84BE84" rx="3" ry="3" style="stroke:#038048;stroke-width:1.0;"/><text fill="#000000" font-family="sans-serif" font-size="11" lengthAdjust="spacing" textLength="177" x="44.5" y="514.5854">postSave(Context, String): void</text><ellipse cx="35.5" cy="524.1797" fill="#84BE84" rx="3" ry="3" style="stroke:#038048;stroke-width:1.0;"/><text fill="#000000" font-family="sans-serif" font-size="11" lengthAdjust="spacing" textLength="141" x="44.5" y="527.3901">destroy(WikiEngine): void</text><ellipse cx="35.5" cy="536.9844" fill="#84BE84" rx="3" ry="3" style="stroke:#038048;stroke-width:1.0;"/><text fill="#000000" font-family="sans-serif" font-size="11" lengthAdjust="spacing" textLength="120" x="44.5" y="540.1948">destroy(Engine): void</text></a><!--MD5=[deca6cae490fd4897084a8568d359281]
reverse link org.apache.wiki.api.filters.PageFilter to org.apache.wiki.api.filters.BasePageFilter--><path codeLine="31" d="M155,178.3165 C155,192.2016 155,205.9625 155,217.9124 " fill="none" id="org.apache.wiki.api.filters.PageFilter-backto-org.apache.wiki.api.filters.BasePageFilter" style="stroke:#A80036;stroke-width:1.0;stroke-dasharray:7.0,7.0;"/><polygon fill="none" points="148.0001,178.0809,155,158.0808,162.0001,178.0808,148.0001,178.0809" style="stroke:#A80036;stroke-width:1.0;"/><!--MD5=[f3e683fd0708669ec811e6ae6b1b4472]
reverse link org.apache.wiki.api.filters.BasePageFilter to org.apache.wiki.api.filters.BasicPageFilter--><path codeLine="32" d="M155,312.4529 C155,324.906 155,338.4113 155,351.925 " fill="none" id="org.apache.wiki.api.filters.BasePageFilter-backto-org.apache.wiki.api.filters.BasicPageFilter" style="stroke:#A80036;stroke-width:1.0;"/><polygon fill="none" points="148.0001,312.0418,155,292.0418,162.0001,312.0417,148.0001,312.0418" style="stroke:#A80036;stroke-width:1.0;"/><text fill="#888888" font-family="sans-serif" font-size="10" lengthAdjust="spacing" textLength="192" x="53" y="570.2822">UMLDoclet 2.0.15, PlantUML 1.2021.13</text><!--MD5=[450186f7e67e9766179481ebfcd20f1a]
@startuml
    namespace org.apache.wiki.api.filters {

        interface PageFilter [[PageFilter.html]] {
            {abstract} +initialize(Engine, Properties): void
            +preTranslate(Context, String): String
            +postTranslate(Context, String): String
            +preSave(Context, String): String
            +postSave(Context, String): void
            +destroy(Engine): void
        }

        class BasePageFilter [[BasePageFilter.html]] {
            #m_engine: Engine
            +initialize(Engine, Properties): void
        }

        class BasicPageFilter <<deprecated>> [[BasicPageFilter.html]] {
            +initialize(WikiEngine, Properties): void
            +preTranslate(WikiContext, String): String
            +preTranslate(Context, String): String
            +postTranslate(WikiContext, String): String
            +postTranslate(Context, String): String
            +preSave(WikiContext, String): String
            +preSave(Context, String): String
            +postSave(WikiContext, String): void
            +postSave(Context, String): void
            +destroy(WikiEngine): void
            +destroy(Engine): void
        }

        PageFilter <|.. BasePageFilter
        BasePageFilter <|- - BasicPageFilter
    }

    center footer UMLDoclet 2.0.15, PlantUML 1.2021.13
@enduml

PlantUML version 1.2021.13(Mon Nov 01 11:38:45 UTC 2021)
(APACHE source distribution)
Java Runtime: OpenJDK Runtime Environment
JVM: OpenJDK 64-Bit Server VM
Default Encoding: ISO-8859-1
Language: en
Country: US
--></g></svg>