<?xml version="1.0" encoding="UTF-8" standalone="no"?><svg xmlns="http://www.w3.org/2000/svg" xmlns:xlink="http://www.w3.org/1999/xlink" contentScriptType="application/ecmascript" contentStyleType="text/css" height="101px" preserveAspectRatio="none" style="width:305px;height:101px;" version="1.1" viewBox="0 0 305 101" width="305px" zoomAndPan="magnify"><defs><filter height="300%" id="f1s0zvijj27a4v" width="300%" x="-1" y="-1"><feGaussianBlur result="blurOut" stdDeviation="2.0"/><feColorMatrix in="blurOut" result="blurOut2" type="matrix" values="0 0 0 0 0 0 0 0 0 0 0 0 0 0 0 0 0 0 .4 0"/><feOffset dx="4.0" dy="4.0" in="blurOut2" result="blurOut3"/><feBlend in="SourceGraphic" in2="blurOut3" mode="normal"/></filter></defs><g><!--class FormOutput--><a href="FormOutput.html" target="_top" xlink:actuate="onRequest" xlink:show="new" xlink:title="FormOutput.html" xlink:type="simple"><rect fill="#FEFECE" filter="url(#f1s0zvijj27a4v)" height="60.8047" id="FormOutput" style="stroke: #A80036; stroke-width: 1.5;" width="288" x="6" y="8"/><ellipse cx="108.75" cy="24" fill="#ADD1B2" rx="11" ry="11" style="stroke: #A80036; stroke-width: 1.0;"/><path d="M111.7188,29.6406 Q111.1406,29.9375 110.5,30.0781 Q109.8594,30.2344 109.1563,30.2344 Q106.6563,30.2344 105.3281,28.5938 Q104.0156,26.9375 104.0156,23.8125 Q104.0156,20.6875 105.3281,19.0313 Q106.6563,17.375 109.1563,17.375 Q109.8594,17.375 110.5,17.5313 Q111.1563,17.6875 111.7188,17.9844 L111.7188,20.7031 Q111.0938,20.125 110.5,19.8594 Q109.9063,19.5781 109.2813,19.5781 Q107.9375,19.5781 107.25,20.6563 Q106.5625,21.7188 106.5625,23.8125 Q106.5625,25.9063 107.25,26.9844 Q107.9375,28.0469 109.2813,28.0469 Q109.9063,28.0469 110.5,27.7813 Q111.0938,27.5 111.7188,26.9219 L111.7188,29.6406 Z "/><text fill="#000000" font-family="sans-serif" font-size="12" lengthAdjust="spacingAndGlyphs" textLength="74" x="129.25" y="28.1543">FormOutput</text><line style="stroke: #A80036; stroke-width: 1.5;" x1="7" x2="293" y1="40" y2="40"/><line style="stroke: #A80036; stroke-width: 1.5;" x1="7" x2="293" y1="48" y2="48"/><ellipse cx="17" cy="59.9023" fill="#84BE84" rx="3" ry="3" style="stroke: #038048; stroke-width: 1.0;"/><text fill="#000000" font-family="sans-serif" font-size="11" lengthAdjust="spacingAndGlyphs" textLength="262" x="26" y="62.2104">execute(Context, Map&lt;String, String&gt;): String</text></a><text fill="#888888" font-family="sans-serif" font-size="10" lengthAdjust="spacingAndGlyphs" textLength="186" x="63" y="88.2822">UMLDoclet 1.1.4, PlantUML 1.2019.05</text><!--
@startuml

    class FormOutput [[FormOutput.html]] {
        +execute(Context, Map<String, String>): String
    }


    center footer UMLDoclet 1.1.4, PlantUML 1.2019.05
@enduml

PlantUML version 1.2019.05(Sat Apr 20 16:45:36 UTC 2019)
(APACHE source distribution)
Java Runtime: OpenJDK Runtime Environment
JVM: OpenJDK 64-Bit Server VM
Java Version: 1.8.0_252-b09
Operating System: Linux
OS Version: 4.15.0-74-generic
Default Encoding: ISO-8859-1
Language: en
Country: US
--></g></svg>