<?xml version="1.0" encoding="UTF-8" standalone="no"?><svg xmlns="http://www.w3.org/2000/svg" xmlns:xlink="http://www.w3.org/1999/xlink" contentScriptType="application/ecmascript" contentStyleType="text/css" height="777px" preserveAspectRatio="none" style="width:1634px;height:777px;" version="1.1" viewBox="0 0 1634 777" width="1634px" zoomAndPan="magnify"><defs><filter height="300%" id="f1hq5uih7ngung" width="300%" x="-1" y="-1"><feGaussianBlur result="blurOut" stdDeviation="2.0"/><feColorMatrix in="blurOut" result="blurOut2" type="matrix" values="0 0 0 0 0 0 0 0 0 0 0 0 0 0 0 0 0 0 .4 0"/><feOffset dx="4.0" dy="4.0" in="blurOut2" result="blurOut3"/><feBlend in="SourceGraphic" in2="blurOut3" mode="normal"/></filter></defs><g><!--cluster org.apache.wiki.htmltowiki--><polygon fill="#FFFFFF" filter="url(#f1hq5uih7ngung)" points="14,162,231,162,238,184.2969,1612,184.2969,1612,737,14,737,14,162" style="stroke: #000000; stroke-width: 1.5;"/><line style="stroke: #000000; stroke-width: 1.5;" x1="14" x2="238" y1="184.2969" y2="184.2969"/><text fill="#000000" font-family="sans-serif" font-size="14" font-weight="bold" lengthAdjust="spacingAndGlyphs" textLength="211" x="18" y="176.9951">org.apache.wiki.htmltowiki</text><!--cluster java.util--><polygon fill="#FFFFFF" filter="url(#f1hq5uih7ngung)" points="142,35,208,35,215,57.2969,447,57.2969,447,118,142,118,142,35" style="stroke: #000000; stroke-width: 1.5;"/><line style="stroke: #000000; stroke-width: 1.5;" x1="142" x2="215" y1="57.2969" y2="57.2969"/><text fill="#000000" font-family="sans-serif" font-size="14" font-weight="bold" lengthAdjust="spacingAndGlyphs" textLength="60" x="146" y="49.9951">java.util</text><!--cluster java.io--><polygon fill="#FFFFFF" filter="url(#f1hq5uih7ngung)" points="678,16,734,16,741,38.2969,866,38.2969,866,137,678,137,678,16" style="stroke: #000000; stroke-width: 1.5;"/><line style="stroke: #000000; stroke-width: 1.5;" x1="678" x2="741" y1="38.2969" y2="38.2969"/><text fill="#000000" font-family="sans-serif" font-size="14" font-weight="bold" lengthAdjust="spacingAndGlyphs" textLength="50" x="682" y="30.9951">java.io</text><!--class org.apache.wiki.htmltowiki.PersistentMapDecorator--><a href="PersistentMapDecorator.html" target="_top" xlink:actuate="onRequest" xlink:show="new" xlink:title="PersistentMapDecorator.html" xlink:type="simple"><rect fill="#FEFECE" filter="url(#f1hq5uih7ngung)" height="252.875" id="org.apache.wiki.htmltowiki.PersistentMapDecorator" style="stroke: #A80036; stroke-width: 1.5;" width="292" x="321" y="189"/><ellipse cx="386.25" cy="205" fill="#ADD1B2" rx="11" ry="11" style="stroke: #A80036; stroke-width: 1.0;"/><path d="M389.2188,210.6406 Q388.6406,210.9375 388,211.0781 Q387.3594,211.2344 386.6563,211.2344 Q384.1563,211.2344 382.8281,209.5938 Q381.5156,207.9375 381.5156,204.8125 Q381.5156,201.6875 382.8281,200.0313 Q384.1563,198.375 386.6563,198.375 Q387.3594,198.375 388,198.5313 Q388.6563,198.6875 389.2188,198.9844 L389.2188,201.7031 Q388.5938,201.125 388,200.8594 Q387.4063,200.5781 386.7813,200.5781 Q385.4375,200.5781 384.75,201.6563 Q384.0625,202.7188 384.0625,204.8125 Q384.0625,206.9063 384.75,207.9844 Q385.4375,209.0469 386.7813,209.0469 Q387.4063,209.0469 388,208.7813 Q388.5938,208.5 389.2188,207.9219 L389.2188,210.6406 Z "/><text fill="#000000" font-family="sans-serif" font-size="12" lengthAdjust="spacingAndGlyphs" textLength="153" x="406.75" y="209.1543">PersistentMapDecorator</text><line style="stroke: #A80036; stroke-width: 1.5;" x1="322" x2="612" y1="221" y2="221"/><line style="stroke: #A80036; stroke-width: 1.5;" x1="322" x2="612" y1="229" y2="229"/><ellipse cx="332" cy="240.9023" fill="#84BE84" rx="3" ry="3" style="stroke: #038048; stroke-width: 1.0;"/><text fill="#000000" font-family="sans-serif" font-size="11" lengthAdjust="spacingAndGlyphs" textLength="266" x="341" y="243.2104">PersistentMapDecorator(Map&lt;Object, Object&gt;)</text><ellipse cx="332" cy="253.707" fill="#84BE84" rx="3" ry="3" style="stroke: #038048; stroke-width: 1.0;"/><text fill="#000000" font-family="sans-serif" font-size="11" lengthAdjust="spacingAndGlyphs" textLength="67" x="341" y="256.0151">clear(): void</text><ellipse cx="332" cy="266.5117" fill="#84BE84" rx="3" ry="3" style="stroke: #038048; stroke-width: 1.0;"/><text fill="#000000" font-family="sans-serif" font-size="11" lengthAdjust="spacingAndGlyphs" textLength="165" x="341" y="268.8198">containsKey(Object): boolean</text><ellipse cx="332" cy="279.3164" fill="#84BE84" rx="3" ry="3" style="stroke: #038048; stroke-width: 1.0;"/><text fill="#000000" font-family="sans-serif" font-size="11" lengthAdjust="spacingAndGlyphs" textLength="176" x="341" y="281.6245">containsValue(Object): boolean</text><ellipse cx="332" cy="292.1211" fill="#84BE84" rx="3" ry="3" style="stroke: #038048; stroke-width: 1.0;"/><text fill="#000000" font-family="sans-serif" font-size="11" lengthAdjust="spacingAndGlyphs" textLength="255" x="341" y="294.4292">entrySet(): Set&lt;Map.Entry&lt;Object, Object&gt;&gt;</text><ellipse cx="332" cy="304.9258" fill="#84BE84" rx="3" ry="3" style="stroke: #038048; stroke-width: 1.0;"/><text fill="#000000" font-family="sans-serif" font-size="11" lengthAdjust="spacingAndGlyphs" textLength="135" x="341" y="307.2339">equals(Object): boolean</text><ellipse cx="332" cy="317.7305" fill="#84BE84" rx="3" ry="3" style="stroke: #038048; stroke-width: 1.0;"/><text fill="#000000" font-family="sans-serif" font-size="11" lengthAdjust="spacingAndGlyphs" textLength="106" x="341" y="320.0386">get(Object): Object</text><ellipse cx="332" cy="330.5352" fill="#84BE84" rx="3" ry="3" style="stroke: #038048; stroke-width: 1.0;"/><text fill="#000000" font-family="sans-serif" font-size="11" lengthAdjust="spacingAndGlyphs" textLength="87" x="341" y="332.8433">hashCode(): int</text><ellipse cx="332" cy="343.3398" fill="#84BE84" rx="3" ry="3" style="stroke: #038048; stroke-width: 1.0;"/><text fill="#000000" font-family="sans-serif" font-size="11" lengthAdjust="spacingAndGlyphs" textLength="106" x="341" y="345.6479">isEmpty(): boolean</text><ellipse cx="332" cy="356.1445" fill="#84BE84" rx="3" ry="3" style="stroke: #038048; stroke-width: 1.0;"/><text fill="#000000" font-family="sans-serif" font-size="11" lengthAdjust="spacingAndGlyphs" textLength="127" x="341" y="358.4526">keySet(): Set&lt;Object&gt;</text><ellipse cx="332" cy="368.9492" fill="#84BE84" rx="3" ry="3" style="stroke: #038048; stroke-width: 1.0;"/><text fill="#000000" font-family="sans-serif" font-size="11" lengthAdjust="spacingAndGlyphs" textLength="150" x="341" y="371.2573">put(Object, Object): Object</text><ellipse cx="332" cy="381.7539" fill="#84BE84" rx="3" ry="3" style="stroke: #038048; stroke-width: 1.0;"/><text fill="#000000" font-family="sans-serif" font-size="11" lengthAdjust="spacingAndGlyphs" textLength="131" x="341" y="384.062">putAll(Map&lt;?, ?&gt;): void</text><ellipse cx="332" cy="394.5586" fill="#84BE84" rx="3" ry="3" style="stroke: #038048; stroke-width: 1.0;"/><text fill="#000000" font-family="sans-serif" font-size="11" lengthAdjust="spacingAndGlyphs" textLength="131" x="341" y="396.8667">remove(Object): Object</text><ellipse cx="332" cy="407.3633" fill="#84BE84" rx="3" ry="3" style="stroke: #038048; stroke-width: 1.0;"/><text fill="#000000" font-family="sans-serif" font-size="11" lengthAdjust="spacingAndGlyphs" textLength="52" x="341" y="409.6714">size(): int</text><ellipse cx="332" cy="420.168" fill="#84BE84" rx="3" ry="3" style="stroke: #038048; stroke-width: 1.0;"/><text fill="#000000" font-family="sans-serif" font-size="11" lengthAdjust="spacingAndGlyphs" textLength="95" x="341" y="422.4761">toString(): String</text><ellipse cx="332" cy="432.9727" fill="#84BE84" rx="3" ry="3" style="stroke: #038048; stroke-width: 1.0;"/><text fill="#000000" font-family="sans-serif" font-size="11" lengthAdjust="spacingAndGlyphs" textLength="162" x="341" y="435.2808">values(): Collection&lt;Object&gt;</text></a><!--class org.apache.wiki.htmltowiki.WhitespaceTrimWriter--><a href="WhitespaceTrimWriter.html" target="_top" xlink:actuate="onRequest" xlink:show="new" xlink:title="WhitespaceTrimWriter.html" xlink:type="simple"><rect fill="#FEFECE" filter="url(#f1hq5uih7ngung)" height="124.8281" id="org.apache.wiki.htmltowiki.WhitespaceTrimWriter" style="stroke: #A80036; stroke-width: 1.5;" width="248" x="648" y="253"/><ellipse cx="699.75" cy="269" fill="#ADD1B2" rx="11" ry="11" style="stroke: #A80036; stroke-width: 1.0;"/><path d="M702.7188,274.6406 Q702.1406,274.9375 701.5,275.0781 Q700.8594,275.2344 700.1563,275.2344 Q697.6563,275.2344 696.3281,273.5938 Q695.0156,271.9375 695.0156,268.8125 Q695.0156,265.6875 696.3281,264.0313 Q697.6563,262.375 700.1563,262.375 Q700.8594,262.375 701.5,262.5313 Q702.1563,262.6875 702.7188,262.9844 L702.7188,265.7031 Q702.0938,265.125 701.5,264.8594 Q700.9063,264.5781 700.2813,264.5781 Q698.9375,264.5781 698.25,265.6563 Q697.5625,266.7188 697.5625,268.8125 Q697.5625,270.9063 698.25,271.9844 Q698.9375,273.0469 700.2813,273.0469 Q700.9063,273.0469 701.5,272.7813 Q702.0938,272.5 702.7188,271.9219 L702.7188,274.6406 Z "/><text fill="#000000" font-family="sans-serif" font-size="12" lengthAdjust="spacingAndGlyphs" textLength="136" x="720.25" y="273.1543">WhitespaceTrimWriter</text><line style="stroke: #A80036; stroke-width: 1.5;" x1="649" x2="895" y1="285" y2="285"/><line style="stroke: #A80036; stroke-width: 1.5;" x1="649" x2="895" y1="293" y2="293"/><ellipse cx="659" cy="304.9023" fill="#84BE84" rx="3" ry="3" style="stroke: #038048; stroke-width: 1.0;"/><text fill="#000000" font-family="sans-serif" font-size="11" lengthAdjust="spacingAndGlyphs" textLength="67" x="668" y="307.2104">flush(): void</text><ellipse cx="659" cy="317.707" fill="#84BE84" rx="3" ry="3" style="stroke: #038048; stroke-width: 1.0;"/><text fill="#000000" font-family="sans-serif" font-size="11" lengthAdjust="spacingAndGlyphs" textLength="191" x="668" y="320.0151">isWhitespaceTrimMode(): boolean</text><ellipse cx="659" cy="330.5117" fill="#84BE84" rx="3" ry="3" style="stroke: #038048; stroke-width: 1.0;"/><text fill="#000000" font-family="sans-serif" font-size="11" lengthAdjust="spacingAndGlyphs" textLength="222" x="668" y="332.8198">setWhitespaceTrimMode(boolean): void</text><ellipse cx="659" cy="343.3164" fill="#84BE84" rx="3" ry="3" style="stroke: #038048; stroke-width: 1.0;"/><text fill="#000000" font-family="sans-serif" font-size="11" lengthAdjust="spacingAndGlyphs" textLength="144" x="668" y="345.6245">write(char[], int, int): void</text><ellipse cx="659" cy="356.1211" fill="#84BE84" rx="3" ry="3" style="stroke: #038048; stroke-width: 1.0;"/><text fill="#000000" font-family="sans-serif" font-size="11" lengthAdjust="spacingAndGlyphs" textLength="69" x="668" y="358.4292">close(): void</text><ellipse cx="659" cy="368.9258" fill="#84BE84" rx="3" ry="3" style="stroke: #038048; stroke-width: 1.0;"/><text fill="#000000" font-family="sans-serif" font-size="11" lengthAdjust="spacingAndGlyphs" textLength="194" x="668" y="371.2339">isCurrentlyOnLineBegin(): boolean</text></a><!--class org.apache.wiki.htmltowiki.HtmlStringToWikiTranslator--><a href="HtmlStringToWikiTranslator.html" target="_top" xlink:actuate="onRequest" xlink:show="new" xlink:title="HtmlStringToWikiTranslator.html" xlink:type="simple"><rect fill="#FEFECE" filter="url(#f1hq5uih7ngung)" height="99.2188" id="org.apache.wiki.htmltowiki.HtmlStringToWikiTranslator" style="stroke: #A80036; stroke-width: 1.5;" width="273" x="931.5" y="266"/><ellipse cx="979.75" cy="282" fill="#ADD1B2" rx="11" ry="11" style="stroke: #A80036; stroke-width: 1.0;"/><path d="M982.7188,287.6406 Q982.1406,287.9375 981.5,288.0781 Q980.8594,288.2344 980.1563,288.2344 Q977.6563,288.2344 976.3281,286.5938 Q975.0156,284.9375 975.0156,281.8125 Q975.0156,278.6875 976.3281,277.0313 Q977.6563,275.375 980.1563,275.375 Q980.8594,275.375 981.5,275.5313 Q982.1563,275.6875 982.7188,275.9844 L982.7188,278.7031 Q982.0938,278.125 981.5,277.8594 Q980.9063,277.5781 980.2813,277.5781 Q978.9375,277.5781 978.25,278.6563 Q977.5625,279.7188 977.5625,281.8125 Q977.5625,283.9063 978.25,284.9844 Q978.9375,286.0469 980.2813,286.0469 Q980.9063,286.0469 981.5,285.7813 Q982.0938,285.5 982.7188,284.9219 L982.7188,287.6406 Z "/><text fill="#000000" font-family="sans-serif" font-size="12" lengthAdjust="spacingAndGlyphs" textLength="168" x="1000.25" y="286.1543">HtmlStringToWikiTranslator</text><line style="stroke: #A80036; stroke-width: 1.5;" x1="932.5" x2="1203.5" y1="298" y2="298"/><line style="stroke: #A80036; stroke-width: 1.5;" x1="932.5" x2="1203.5" y1="306" y2="306"/><ellipse cx="942.5" cy="317.9023" fill="#84BE84" rx="3" ry="3" style="stroke: #038048; stroke-width: 1.0;"/><text fill="#000000" font-family="sans-serif" font-size="11" lengthAdjust="spacingAndGlyphs" textLength="135" x="951.5" y="320.2104">translate(String): String</text><ellipse cx="942.5" cy="330.707" fill="#84BE84" rx="3" ry="3" style="stroke: #038048; stroke-width: 1.0;"/><text fill="#000000" font-family="sans-serif" font-size="11" lengthAdjust="spacingAndGlyphs" textLength="186" x="951.5" y="333.0151">translate(String, Context): String</text><ellipse cx="942.5" cy="343.5117" fill="#84BE84" rx="3" ry="3" style="stroke: #038048; stroke-width: 1.0;"/><text fill="#000000" font-family="sans-serif" font-size="11" lengthAdjust="spacingAndGlyphs" textLength="247" x="951.5" y="345.8198">translate(String, XHtmlToWikiConfig): String</text><ellipse cx="942.5" cy="356.3164" fill="#84BE84" rx="3" ry="3" style="stroke: #038048; stroke-width: 1.0;"/><text fill="#000000" font-family="sans-serif" font-size="11" lengthAdjust="spacingAndGlyphs" text-decoration="underline" textLength="183" x="951.5" y="358.6245">element2String(Element): String</text></a><!--class org.apache.wiki.htmltowiki.ForgetNullValuesLinkedHashMap--><a href="ForgetNullValuesLinkedHashMap.html" target="_top" xlink:actuate="onRequest" xlink:show="new" xlink:title="ForgetNullValuesLinkedHashMap.html" xlink:type="simple"><rect fill="#FEFECE" filter="url(#f1hq5uih7ngung)" height="60.8047" id="org.apache.wiki.htmltowiki.ForgetNullValuesLinkedHashMap" style="stroke: #A80036; stroke-width: 1.5;" width="264" x="22" y="285"/><ellipse cx="37" cy="301" fill="#ADD1B2" rx="11" ry="11" style="stroke: #A80036; stroke-width: 1.0;"/><path d="M39.9688,306.6406 Q39.3906,306.9375 38.75,307.0781 Q38.1094,307.2344 37.4063,307.2344 Q34.9063,307.2344 33.5781,305.5938 Q32.2656,303.9375 32.2656,300.8125 Q32.2656,297.6875 33.5781,296.0313 Q34.9063,294.375 37.4063,294.375 Q38.1094,294.375 38.75,294.5313 Q39.4063,294.6875 39.9688,294.9844 L39.9688,297.7031 Q39.3438,297.125 38.75,296.8594 Q38.1563,296.5781 37.5313,296.5781 Q36.1875,296.5781 35.5,297.6563 Q34.8125,298.7188 34.8125,300.8125 Q34.8125,302.9063 35.5,303.9844 Q36.1875,305.0469 37.5313,305.0469 Q38.1563,305.0469 38.75,304.7813 Q39.3438,304.5 39.9688,303.9219 L39.9688,306.6406 Z "/><text fill="#000000" font-family="sans-serif" font-size="12" lengthAdjust="spacingAndGlyphs" textLength="204" x="51" y="305.1543">ForgetNullValuesLinkedHashMap</text><rect fill="#FFFFFF" height="15.9688" style="stroke: #000000; stroke-width: 1.0; stroke-dasharray: 2.0,2.0;" width="26" x="263" y="282"/><text fill="#000000" font-family="sans-serif" font-size="12" font-style="italic" lengthAdjust="spacingAndGlyphs" textLength="24" x="264" y="294.1387">K, V</text><line style="stroke: #A80036; stroke-width: 1.5;" x1="23" x2="285" y1="317" y2="317"/><line style="stroke: #A80036; stroke-width: 1.5;" x1="23" x2="285" y1="325" y2="325"/><ellipse cx="33" cy="336.9023" fill="#84BE84" rx="3" ry="3" style="stroke: #038048; stroke-width: 1.0;"/><text fill="#000000" font-family="sans-serif" font-size="11" lengthAdjust="spacingAndGlyphs" textLength="63" x="42" y="339.2104">put(K, V): V</text></a><!--class org.apache.wiki.htmltowiki.XHtmlElementToWikiTranslator--><a href="XHtmlElementToWikiTranslator.html" target="_top" xlink:actuate="onRequest" xlink:show="new" xlink:title="XHtmlElementToWikiTranslator.html" xlink:type="simple"><rect fill="#FEFECE" filter="url(#f1hq5uih7ngung)" height="86.4141" id="org.apache.wiki.htmltowiki.XHtmlElementToWikiTranslator" style="stroke: #A80036; stroke-width: 1.5;" width="365" x="1239.5" y="272.5"/><ellipse cx="1323.25" cy="288.5" fill="#ADD1B2" rx="11" ry="11" style="stroke: #A80036; stroke-width: 1.0;"/><path d="M1326.2188,294.1406 Q1325.6406,294.4375 1325,294.5781 Q1324.3594,294.7344 1323.6563,294.7344 Q1321.1563,294.7344 1319.8281,293.0938 Q1318.5156,291.4375 1318.5156,288.3125 Q1318.5156,285.1875 1319.8281,283.5313 Q1321.1563,281.875 1323.6563,281.875 Q1324.3594,281.875 1325,282.0313 Q1325.6563,282.1875 1326.2188,282.4844 L1326.2188,285.2031 Q1325.5938,284.625 1325,284.3594 Q1324.4063,284.0781 1323.7813,284.0781 Q1322.4375,284.0781 1321.75,285.1563 Q1321.0625,286.2188 1321.0625,288.3125 Q1321.0625,290.4063 1321.75,291.4844 Q1322.4375,292.5469 1323.7813,292.5469 Q1324.4063,292.5469 1325,292.2813 Q1325.5938,292 1326.2188,291.4219 L1326.2188,294.1406 Z "/><text fill="#000000" font-family="sans-serif" font-size="12" lengthAdjust="spacingAndGlyphs" textLength="189" x="1343.75" y="292.6543">XHtmlElementToWikiTranslator</text><line style="stroke: #A80036; stroke-width: 1.5;" x1="1240.5" x2="1603.5" y1="304.5" y2="304.5"/><line style="stroke: #A80036; stroke-width: 1.5;" x1="1240.5" x2="1603.5" y1="312.5" y2="312.5"/><ellipse cx="1250.5" cy="324.4023" fill="#84BE84" rx="3" ry="3" style="stroke: #038048; stroke-width: 1.0;"/><text fill="#000000" font-family="sans-serif" font-size="11" lengthAdjust="spacingAndGlyphs" textLength="227" x="1259.5" y="326.7104">XHtmlElementToWikiTranslator(Element)</text><ellipse cx="1250.5" cy="337.207" fill="#84BE84" rx="3" ry="3" style="stroke: #038048; stroke-width: 1.0;"/><text fill="#000000" font-family="sans-serif" font-size="11" lengthAdjust="spacingAndGlyphs" textLength="339" x="1259.5" y="339.5151">XHtmlElementToWikiTranslator(Element, XHtmlToWikiConfig)</text><ellipse cx="1250.5" cy="350.0117" fill="#84BE84" rx="3" ry="3" style="stroke: #038048; stroke-width: 1.0;"/><text fill="#000000" font-family="sans-serif" font-size="11" lengthAdjust="spacingAndGlyphs" textLength="123" x="1259.5" y="352.3198">getWikiString(): String</text></a><!--class org.apache.wiki.htmltowiki.XHtmlToWikiConfig--><a href="XHtmlToWikiConfig.html" target="_top" xlink:actuate="onRequest" xlink:show="new" xlink:title="XHtmlToWikiConfig.html" xlink:type="simple"><rect fill="#FEFECE" filter="url(#f1hq5uih7ngung)" height="227.2656" id="org.apache.wiki.htmltowiki.XHtmlToWikiConfig" style="stroke: #A80036; stroke-width: 1.5;" width="183" x="976.5" y="502"/><ellipse cx="1008.6" cy="518" fill="#ADD1B2" rx="11" ry="11" style="stroke: #A80036; stroke-width: 1.0;"/><path d="M1011.5688,523.6406 Q1010.9906,523.9375 1010.35,524.0781 Q1009.7094,524.2344 1009.0063,524.2344 Q1006.5063,524.2344 1005.1781,522.5938 Q1003.8656,520.9375 1003.8656,517.8125 Q1003.8656,514.6875 1005.1781,513.0313 Q1006.5063,511.375 1009.0063,511.375 Q1009.7094,511.375 1010.35,511.5313 Q1011.0063,511.6875 1011.5688,511.9844 L1011.5688,514.7031 Q1010.9438,514.125 1010.35,513.8594 Q1009.7563,513.5781 1009.1313,513.5781 Q1007.7875,513.5781 1007.1,514.6563 Q1006.4125,515.7188 1006.4125,517.8125 Q1006.4125,519.9063 1007.1,520.9844 Q1007.7875,522.0469 1009.1313,522.0469 Q1009.7563,522.0469 1010.35,521.7813 Q1010.9438,521.5 1011.5688,520.9219 L1011.5688,523.6406 Z "/><text fill="#000000" font-family="sans-serif" font-size="12" lengthAdjust="spacingAndGlyphs" textLength="113" x="1026.4" y="522.1543">XHtmlToWikiConfig</text><line style="stroke: #A80036; stroke-width: 1.5;" x1="977.5" x2="1158.5" y1="534" y2="534"/><line style="stroke: #A80036; stroke-width: 1.5;" x1="977.5" x2="1158.5" y1="542" y2="542"/><ellipse cx="987.5" cy="553.9023" fill="#84BE84" rx="3" ry="3" style="stroke: #038048; stroke-width: 1.0;"/><text fill="#000000" font-family="sans-serif" font-size="11" lengthAdjust="spacingAndGlyphs" textLength="112" x="996.5" y="556.2104">XHtmlToWikiConfig()</text><ellipse cx="987.5" cy="566.707" fill="#84BE84" rx="3" ry="3" style="stroke: #038048; stroke-width: 1.0;"/><text fill="#000000" font-family="sans-serif" font-size="11" lengthAdjust="spacingAndGlyphs" textLength="155" x="996.5" y="569.0151">XHtmlToWikiConfig(Context)</text><ellipse cx="987.5" cy="579.5117" fill="#84BE84" rx="3" ry="3" style="stroke: #038048; stroke-width: 1.0;"/><text fill="#000000" font-family="sans-serif" font-size="11" lengthAdjust="spacingAndGlyphs" textLength="131" x="996.5" y="581.8198">getAttachPage(): String</text><ellipse cx="987.5" cy="592.3164" fill="#84BE84" rx="3" ry="3" style="stroke: #038048; stroke-width: 1.0;"/><text fill="#000000" font-family="sans-serif" font-size="11" lengthAdjust="spacingAndGlyphs" textLength="154" x="996.5" y="594.6245">setAttachPage(String): void</text><ellipse cx="987.5" cy="605.1211" fill="#84BE84" rx="3" ry="3" style="stroke: #038048; stroke-width: 1.0;"/><text fill="#000000" font-family="sans-serif" font-size="11" lengthAdjust="spacingAndGlyphs" textLength="107" x="996.5" y="607.4292">getOutlink(): String</text><ellipse cx="987.5" cy="617.9258" fill="#84BE84" rx="3" ry="3" style="stroke: #038048; stroke-width: 1.0;"/><text fill="#000000" font-family="sans-serif" font-size="11" lengthAdjust="spacingAndGlyphs" textLength="130" x="996.5" y="620.2339">setOutlink(String): void</text><ellipse cx="987.5" cy="630.7305" fill="#84BE84" rx="3" ry="3" style="stroke: #038048; stroke-width: 1.0;"/><text fill="#000000" font-family="sans-serif" font-size="11" lengthAdjust="spacingAndGlyphs" textLength="134" x="996.5" y="633.0386">getPageInfoJsp(): String</text><ellipse cx="987.5" cy="643.5352" fill="#84BE84" rx="3" ry="3" style="stroke: #038048; stroke-width: 1.0;"/><text fill="#000000" font-family="sans-serif" font-size="11" lengthAdjust="spacingAndGlyphs" textLength="157" x="996.5" y="645.8433">setPageInfoJsp(String): void</text><ellipse cx="987.5" cy="656.3398" fill="#84BE84" rx="3" ry="3" style="stroke: #038048; stroke-width: 1.0;"/><text fill="#000000" font-family="sans-serif" font-size="11" lengthAdjust="spacingAndGlyphs" textLength="129" x="996.5" y="658.6479">getPageName(): String</text><ellipse cx="987.5" cy="669.1445" fill="#84BE84" rx="3" ry="3" style="stroke: #038048; stroke-width: 1.0;"/><text fill="#000000" font-family="sans-serif" font-size="11" lengthAdjust="spacingAndGlyphs" textLength="152" x="996.5" y="671.4526">setPageName(String): void</text><ellipse cx="987.5" cy="681.9492" fill="#84BE84" rx="3" ry="3" style="stroke: #038048; stroke-width: 1.0;"/><text fill="#000000" font-family="sans-serif" font-size="11" lengthAdjust="spacingAndGlyphs" textLength="134" x="996.5" y="684.2573">getWikiJspPage(): String</text><ellipse cx="987.5" cy="694.7539" fill="#84BE84" rx="3" ry="3" style="stroke: #038048; stroke-width: 1.0;"/><text fill="#000000" font-family="sans-serif" font-size="11" lengthAdjust="spacingAndGlyphs" textLength="157" x="996.5" y="697.062">setWikiJspPage(String): void</text><ellipse cx="987.5" cy="707.5586" fill="#84BE84" rx="3" ry="3" style="stroke: #038048; stroke-width: 1.0;"/><text fill="#000000" font-family="sans-serif" font-size="11" lengthAdjust="spacingAndGlyphs" textLength="134" x="996.5" y="709.8667">getEditJspPage(): String</text><ellipse cx="987.5" cy="720.3633" fill="#84BE84" rx="3" ry="3" style="stroke: #038048; stroke-width: 1.0;"/><text fill="#000000" font-family="sans-serif" font-size="11" lengthAdjust="spacingAndGlyphs" textLength="157" x="996.5" y="722.6714">setEditJspPage(String): void</text></a><!--class java.util.Properties--><rect fill="#FEFECE" filter="url(#f1hq5uih7ngung)" height="48" id="java.util.Properties" style="stroke: #A80036; stroke-width: 1.5;" width="97" x="342.5" y="62"/><ellipse cx="357.5" cy="78" fill="#ADD1B2" rx="11" ry="11" style="stroke: #A80036; stroke-width: 1.0;"/><path d="M360.4688,83.6406 Q359.8906,83.9375 359.25,84.0781 Q358.6094,84.2344 357.9063,84.2344 Q355.4063,84.2344 354.0781,82.5938 Q352.7656,80.9375 352.7656,77.8125 Q352.7656,74.6875 354.0781,73.0313 Q355.4063,71.375 357.9063,71.375 Q358.6094,71.375 359.25,71.5313 Q359.9063,71.6875 360.4688,71.9844 L360.4688,74.7031 Q359.8438,74.125 359.25,73.8594 Q358.6563,73.5781 358.0313,73.5781 Q356.6875,73.5781 356,74.6563 Q355.3125,75.7188 355.3125,77.8125 Q355.3125,79.9063 356,80.9844 Q356.6875,82.0469 358.0313,82.0469 Q358.6563,82.0469 359.25,81.7813 Q359.8438,81.5 360.4688,80.9219 L360.4688,83.6406 Z "/><text fill="#000000" font-family="sans-serif" font-size="12" lengthAdjust="spacingAndGlyphs" textLength="65" x="371.5" y="82.1543">Properties</text><line style="stroke: #A80036; stroke-width: 1.5;" x1="343.5" x2="438.5" y1="94" y2="94"/><line style="stroke: #A80036; stroke-width: 1.5;" x1="343.5" x2="438.5" y1="102" y2="102"/><!--class java.util.LinkedHashMap--><rect fill="#FEFECE" filter="url(#f1hq5uih7ngung)" height="48" id="java.util.LinkedHashMap" style="stroke: #A80036; stroke-width: 1.5;" width="158" x="150" y="62"/><ellipse cx="165" cy="78" fill="#ADD1B2" rx="11" ry="11" style="stroke: #A80036; stroke-width: 1.0;"/><path d="M167.9688,83.6406 Q167.3906,83.9375 166.75,84.0781 Q166.1094,84.2344 165.4063,84.2344 Q162.9063,84.2344 161.5781,82.5938 Q160.2656,80.9375 160.2656,77.8125 Q160.2656,74.6875 161.5781,73.0313 Q162.9063,71.375 165.4063,71.375 Q166.1094,71.375 166.75,71.5313 Q167.4063,71.6875 167.9688,71.9844 L167.9688,74.7031 Q167.3438,74.125 166.75,73.8594 Q166.1563,73.5781 165.5313,73.5781 Q164.1875,73.5781 163.5,74.6563 Q162.8125,75.7188 162.8125,77.8125 Q162.8125,79.9063 163.5,80.9844 Q164.1875,82.0469 165.5313,82.0469 Q166.1563,82.0469 166.75,81.7813 Q167.3438,81.5 167.9688,80.9219 L167.9688,83.6406 Z "/><text fill="#000000" font-family="sans-serif" font-size="12" lengthAdjust="spacingAndGlyphs" textLength="98" x="179" y="82.1543">LinkedHashMap</text><rect fill="#FFFFFF" height="15.9688" style="stroke: #000000; stroke-width: 1.0; stroke-dasharray: 2.0,2.0;" width="26" x="285" y="59"/><text fill="#000000" font-family="sans-serif" font-size="12" font-style="italic" lengthAdjust="spacingAndGlyphs" textLength="24" x="286" y="71.1387">K, V</text><line style="stroke: #A80036; stroke-width: 1.5;" x1="151" x2="307" y1="94" y2="94"/><line style="stroke: #A80036; stroke-width: 1.5;" x1="151" x2="307" y1="102" y2="102"/><!--class java.io.Writer--><rect fill="#FEFECE" filter="url(#f1hq5uih7ngung)" height="86.4141" id="java.io.Writer" style="stroke: #A80036; stroke-width: 1.5;" width="171" x="686.5" y="43"/><ellipse cx="748.75" cy="59" fill="#A9DCDF" rx="11" ry="11" style="stroke: #A80036; stroke-width: 1.0;"/><path d="M748.8594,54.3438 L747.7031,59.4219 L750.0313,59.4219 L748.8594,54.3438 Z M747.375,52.1094 L750.3594,52.1094 L753.7188,64.5 L751.2656,64.5 L750.5,61.4375 L747.2188,61.4375 L746.4688,64.5 L744.0313,64.5 L747.375,52.1094 Z "/><text fill="#000000" font-family="sans-serif" font-size="12" font-style="italic" lengthAdjust="spacingAndGlyphs" textLength="38" x="769.25" y="63.1543">Writer</text><line style="stroke: #A80036; stroke-width: 1.5;" x1="687.5" x2="856.5" y1="75" y2="75"/><line style="stroke: #A80036; stroke-width: 1.5;" x1="687.5" x2="856.5" y1="83" y2="83"/><ellipse cx="697.5" cy="94.9023" fill="#84BE84" rx="3" ry="3" style="stroke: #038048; stroke-width: 1.0;"/><text fill="#000000" font-family="sans-serif" font-size="11" font-style="italic" lengthAdjust="spacingAndGlyphs" textLength="145" x="706.5" y="97.2104">write(char[], int, int): void</text><ellipse cx="697.5" cy="107.707" fill="#84BE84" rx="3" ry="3" style="stroke: #038048; stroke-width: 1.0;"/><text fill="#000000" font-family="sans-serif" font-size="11" font-style="italic" lengthAdjust="spacingAndGlyphs" textLength="67" x="706.5" y="110.0151">flush(): void</text><ellipse cx="697.5" cy="120.5117" fill="#84BE84" rx="3" ry="3" style="stroke: #038048; stroke-width: 1.0;"/><text fill="#000000" font-family="sans-serif" font-size="11" font-style="italic" lengthAdjust="spacingAndGlyphs" textLength="69" x="706.5" y="122.8198">close(): void</text><!--link java.util.Properties to org.apache.wiki.htmltowiki.PersistentMapDecorator--><path d="M405.3199,129.2424 C411.0511,146.5489 417.9771,167.4636 425.0877,188.936 " fill="none" id="java.util.Properties-org.apache.wiki.htmltowiki.PersistentMapDecorator" style="stroke: #A80036; stroke-width: 1.0;"/><polygon fill="none" points="398.632,131.3134,398.9897,110.1268,411.9222,126.9122,398.632,131.3134" style="stroke: #A80036; stroke-width: 1.0;"/><!--link java.io.Writer to org.apache.wiki.htmltowiki.WhitespaceTrimWriter--><path d="M772,149.198 C772,181.3965 772,220.4312 772,252.589 " fill="none" id="java.io.Writer-org.apache.wiki.htmltowiki.WhitespaceTrimWriter" style="stroke: #A80036; stroke-width: 1.0;"/><polygon fill="none" points="765.0001,149.1672,772,129.1672,779.0001,149.1672,765.0001,149.1672" style="stroke: #A80036; stroke-width: 1.0;"/><!--link java.util.LinkedHashMap to org.apache.wiki.htmltowiki.ForgetNullValuesLinkedHashMap--><path d="M214.8413,129.3257 C200.0091,174.7121 177.0893,244.8469 164.0258,284.8211 " fill="none" id="java.util.LinkedHashMap-org.apache.wiki.htmltowiki.ForgetNullValuesLinkedHashMap" style="stroke: #A80036; stroke-width: 1.0;"/><polygon fill="none" points="208.249,126.9629,221.1154,110.1268,221.5565,131.3118,208.249,126.9629" style="stroke: #A80036; stroke-width: 1.0;"/><!--link org.apache.wiki.htmltowiki.HtmlStringToWikiTranslator to org.apache.wiki.htmltowiki.XHtmlElementToWikiTranslator--><!--link org.apache.wiki.htmltowiki.HtmlStringToWikiTranslator to org.apache.wiki.htmltowiki.XHtmlToWikiConfig--><text fill="#888888" font-family="sans-serif" font-size="10" lengthAdjust="spacingAndGlyphs" textLength="186" x="726" y="764.2822">UMLDoclet 1.1.4, PlantUML 1.2019.05</text><!--
@startuml

    namespace org.apache.wiki.htmltowiki {

        class PersistentMapDecorator [[PersistentMapDecorator.html]] {
            +PersistentMapDecorator(Map<Object, Object>)
            +clear(): void
            +containsKey(Object): boolean
            +containsValue(Object): boolean
            +entrySet(): Set<Map.Entry<Object, Object>>
            +equals(Object): boolean
            +get(Object): Object
            +hashCode(): int
            +isEmpty(): boolean
            +keySet(): Set<Object>
            +put(Object, Object): Object
            +putAll(Map<?, ?>): void
            +remove(Object): Object
            +size(): int
            +toString(): String
            +values(): Collection<Object>
        }

        class WhitespaceTrimWriter [[WhitespaceTrimWriter.html]] {
            +flush(): void
            +isWhitespaceTrimMode(): boolean
            +setWhitespaceTrimMode(boolean): void
            +write(char[], int, int): void
            +close(): void
            +isCurrentlyOnLineBegin(): boolean
        }

        class HtmlStringToWikiTranslator [[HtmlStringToWikiTranslator.html]] {
            +translate(String): String
            +translate(String, Context): String
            +translate(String, XHtmlToWikiConfig): String
            {static} +element2String(Element): String
        }

        class ForgetNullValuesLinkedHashMap<K, V> [[ForgetNullValuesLinkedHashMap.html]] {
            +put(K, V): V
        }

        class XHtmlElementToWikiTranslator [[XHtmlElementToWikiTranslator.html]] {
            +XHtmlElementToWikiTranslator(Element)
            +XHtmlElementToWikiTranslator(Element, XHtmlToWikiConfig)
            +getWikiString(): String
        }

        class XHtmlToWikiConfig [[XHtmlToWikiConfig.html]] {
            +XHtmlToWikiConfig()
            +XHtmlToWikiConfig(Context)
            +getAttachPage(): String
            +setAttachPage(String): void
            +getOutlink(): String
            +setOutlink(String): void
            +getPageInfoJsp(): String
            +setPageInfoJsp(String): void
            +getPageName(): String
            +setPageName(String): void
            +getWikiJspPage(): String
            +setWikiJspPage(String): void
            +getEditJspPage(): String
            +setEditJspPage(String): void
        }

        class java.util.Properties
        java.util.Properties <|- - PersistentMapDecorator

        abstract class java.io.Writer {
            {abstract} +write(char[], int, int): void
            {abstract} +flush(): void
            {abstract} +close(): void
        }
        java.io.Writer <|- - WhitespaceTrimWriter

        class java.util.LinkedHashMap<K, V>
        java.util.LinkedHashMap <|- - ForgetNullValuesLinkedHashMap

    }


    center footer UMLDoclet 1.1.4, PlantUML 1.2019.05
@enduml

PlantUML version 1.2019.05(Sat Apr 20 16:45:36 UTC 2019)
(APACHE source distribution)
Java Runtime: OpenJDK Runtime Environment
JVM: OpenJDK 64-Bit Server VM
Java Version: 1.8.0_252-b09
Operating System: Linux
OS Version: 4.15.0-66-generic
Default Encoding: ISO-8859-1
Language: en
Country: US
--></g></svg>