<?xml version="1.0" encoding="UTF-8" standalone="no"?><svg xmlns="http://www.w3.org/2000/svg" xmlns:xlink="http://www.w3.org/1999/xlink" contentScriptType="application/ecmascript" contentStyleType="text/css" height="267px" preserveAspectRatio="none" style="width:208px;height:267px;" version="1.1" viewBox="0 0 208 267" width="208px" zoomAndPan="magnify"><defs><filter height="300%" id="f5ztr59ts3li6" width="300%" x="-1" y="-1"><feGaussianBlur result="blurOut" stdDeviation="2.0"/><feColorMatrix in="blurOut" result="blurOut2" type="matrix" values="0 0 0 0 0 0 0 0 0 0 0 0 0 0 0 0 0 0 .4 0"/><feOffset dx="4.0" dy="4.0" in="blurOut2" result="blurOut3"/><feBlend in="SourceGraphic" in2="blurOut3" mode="normal"/></filter></defs><g><!--class XHtmlToWikiConfig--><a href="XHtmlToWikiConfig.html" target="_top" xlink:actuate="onRequest" xlink:show="new" xlink:title="XHtmlToWikiConfig.html" xlink:type="simple"><rect fill="#FEFECE" filter="url(#f5ztr59ts3li6)" height="227.2656" id="XHtmlToWikiConfig" style="stroke: #A80036; stroke-width: 1.5;" width="183" x="6" y="8"/><ellipse cx="38.1" cy="24" fill="#ADD1B2" rx="11" ry="11" style="stroke: #A80036; stroke-width: 1.0;"/><path d="M41.0688,29.6406 Q40.4906,29.9375 39.85,30.0859 Q39.2094,30.2344 38.5063,30.2344 Q36.0063,30.2344 34.6859,28.5859 Q33.3656,26.9375 33.3656,23.8125 Q33.3656,20.6875 34.6859,19.0313 Q36.0063,17.375 38.5063,17.375 Q39.2094,17.375 39.8578,17.5313 Q40.5063,17.6875 41.0688,17.9844 L41.0688,20.7031 Q40.4438,20.125 39.85,19.8516 Q39.2563,19.5781 38.6313,19.5781 Q37.2875,19.5781 36.6,20.6484 Q35.9125,21.7188 35.9125,23.8125 Q35.9125,25.9063 36.6,26.9766 Q37.2875,28.0469 38.6313,28.0469 Q39.2563,28.0469 39.85,27.7734 Q40.4438,27.5 41.0688,26.9219 L41.0688,29.6406 Z "/><text fill="#000000" font-family="sans-serif" font-size="12" lengthAdjust="spacingAndGlyphs" textLength="113" x="55.9" y="28.1543">XHtmlToWikiConfig</text><line style="stroke: #A80036; stroke-width: 1.5;" x1="7" x2="188" y1="40" y2="40"/><line style="stroke: #A80036; stroke-width: 1.5;" x1="7" x2="188" y1="48" y2="48"/><ellipse cx="17" cy="59.9023" fill="#84BE84" rx="3" ry="3" style="stroke: #038048; stroke-width: 1.0;"/><text fill="#000000" font-family="sans-serif" font-size="11" lengthAdjust="spacingAndGlyphs" textLength="112" x="26" y="62.2104">XHtmlToWikiConfig()</text><ellipse cx="17" cy="72.707" fill="#84BE84" rx="3" ry="3" style="stroke: #038048; stroke-width: 1.0;"/><text fill="#000000" font-family="sans-serif" font-size="11" lengthAdjust="spacingAndGlyphs" textLength="155" x="26" y="75.0151">XHtmlToWikiConfig(Context)</text><ellipse cx="17" cy="85.5117" fill="#84BE84" rx="3" ry="3" style="stroke: #038048; stroke-width: 1.0;"/><text fill="#000000" font-family="sans-serif" font-size="11" lengthAdjust="spacingAndGlyphs" textLength="131" x="26" y="87.8198">getAttachPage(): String</text><ellipse cx="17" cy="98.3164" fill="#84BE84" rx="3" ry="3" style="stroke: #038048; stroke-width: 1.0;"/><text fill="#000000" font-family="sans-serif" font-size="11" lengthAdjust="spacingAndGlyphs" textLength="154" x="26" y="100.6245">setAttachPage(String): void</text><ellipse cx="17" cy="111.1211" fill="#84BE84" rx="3" ry="3" style="stroke: #038048; stroke-width: 1.0;"/><text fill="#000000" font-family="sans-serif" font-size="11" lengthAdjust="spacingAndGlyphs" textLength="107" x="26" y="113.4292">getOutlink(): String</text><ellipse cx="17" cy="123.9258" fill="#84BE84" rx="3" ry="3" style="stroke: #038048; stroke-width: 1.0;"/><text fill="#000000" font-family="sans-serif" font-size="11" lengthAdjust="spacingAndGlyphs" textLength="130" x="26" y="126.2339">setOutlink(String): void</text><ellipse cx="17" cy="136.7305" fill="#84BE84" rx="3" ry="3" style="stroke: #038048; stroke-width: 1.0;"/><text fill="#000000" font-family="sans-serif" font-size="11" lengthAdjust="spacingAndGlyphs" textLength="134" x="26" y="139.0386">getPageInfoJsp(): String</text><ellipse cx="17" cy="149.5352" fill="#84BE84" rx="3" ry="3" style="stroke: #038048; stroke-width: 1.0;"/><text fill="#000000" font-family="sans-serif" font-size="11" lengthAdjust="spacingAndGlyphs" textLength="157" x="26" y="151.8433">setPageInfoJsp(String): void</text><ellipse cx="17" cy="162.3398" fill="#84BE84" rx="3" ry="3" style="stroke: #038048; stroke-width: 1.0;"/><text fill="#000000" font-family="sans-serif" font-size="11" lengthAdjust="spacingAndGlyphs" textLength="129" x="26" y="164.6479">getPageName(): String</text><ellipse cx="17" cy="175.1445" fill="#84BE84" rx="3" ry="3" style="stroke: #038048; stroke-width: 1.0;"/><text fill="#000000" font-family="sans-serif" font-size="11" lengthAdjust="spacingAndGlyphs" textLength="152" x="26" y="177.4526">setPageName(String): void</text><ellipse cx="17" cy="187.9492" fill="#84BE84" rx="3" ry="3" style="stroke: #038048; stroke-width: 1.0;"/><text fill="#000000" font-family="sans-serif" font-size="11" lengthAdjust="spacingAndGlyphs" textLength="134" x="26" y="190.2573">getWikiJspPage(): String</text><ellipse cx="17" cy="200.7539" fill="#84BE84" rx="3" ry="3" style="stroke: #038048; stroke-width: 1.0;"/><text fill="#000000" font-family="sans-serif" font-size="11" lengthAdjust="spacingAndGlyphs" textLength="157" x="26" y="203.062">setWikiJspPage(String): void</text><ellipse cx="17" cy="213.5586" fill="#84BE84" rx="3" ry="3" style="stroke: #038048; stroke-width: 1.0;"/><text fill="#000000" font-family="sans-serif" font-size="11" lengthAdjust="spacingAndGlyphs" textLength="134" x="26" y="215.8667">getEditJspPage(): String</text><ellipse cx="17" cy="226.3633" fill="#84BE84" rx="3" ry="3" style="stroke: #038048; stroke-width: 1.0;"/><text fill="#000000" font-family="sans-serif" font-size="11" lengthAdjust="spacingAndGlyphs" textLength="157" x="26" y="228.6714">setEditJspPage(String): void</text></a><text fill="#888888" font-family="sans-serif" font-size="10" lengthAdjust="spacingAndGlyphs" textLength="186" x="10.5" y="254.2822">UMLDoclet 1.1.4, PlantUML 1.2019.05</text><!--
@startuml

    class XHtmlToWikiConfig [[XHtmlToWikiConfig.html]] {
        +XHtmlToWikiConfig()
        +XHtmlToWikiConfig(Context)
        +getAttachPage(): String
        +setAttachPage(String): void
        +getOutlink(): String
        +setOutlink(String): void
        +getPageInfoJsp(): String
        +setPageInfoJsp(String): void
        +getPageName(): String
        +setPageName(String): void
        +getWikiJspPage(): String
        +setWikiJspPage(String): void
        +getEditJspPage(): String
        +setEditJspPage(String): void
    }


    center footer UMLDoclet 1.1.4, PlantUML 1.2019.05
@enduml

PlantUML version 1.2019.05(Sat Apr 20 16:45:36 UTC 2019)
(APACHE source distribution)
Java Runtime: Java(TM) SE Runtime Environment
JVM: Java HotSpot(TM) 64-Bit Server VM
Java Version: 1.8.0_241-b07
Operating System: Linux
OS Version: 4.15.0-74-generic
Default Encoding: ISO-8859-1
Language: en
Country: US
--></g></svg>