<?xml version="1.0" encoding="UTF-8" standalone="no"?><svg xmlns="http://www.w3.org/2000/svg" xmlns:xlink="http://www.w3.org/1999/xlink" contentScriptType="application/ecmascript" contentStyleType="text/css" height="114px" preserveAspectRatio="none" style="width:198px;height:114px;" version="1.1" viewBox="0 0 198 114" width="198px" zoomAndPan="magnify"><defs><filter height="300%" id="f1wf6tjs94f823" width="300%" x="-1" y="-1"><feGaussianBlur result="blurOut" stdDeviation="2.0"/><feColorMatrix in="blurOut" result="blurOut2" type="matrix" values="0 0 0 0 0 0 0 0 0 0 0 0 0 0 0 0 0 0 .4 0"/><feOffset dx="4.0" dy="4.0" in="blurOut2" result="blurOut3"/><feBlend in="SourceGraphic" in2="blurOut3" mode="normal"/></filter></defs><g><!--class AclsSPIDefaultImpl--><a href="AclsSPIDefaultImpl.html" target="_top" xlink:actuate="onRequest" xlink:show="new" xlink:title="AclsSPIDefaultImpl.html" xlink:type="simple"><rect fill="#FEFECE" filter="url(#f1wf6tjs94f823)" height="73.6094" id="AclsSPIDefaultImpl" style="stroke: #A80036; stroke-width: 1.5;" width="146" x="14" y="8"/><ellipse cx="29" cy="24" fill="#ADD1B2" rx="11" ry="11" style="stroke: #A80036; stroke-width: 1.0;"/><path d="M31.9688,29.6406 Q31.3906,29.9375 30.75,30.0781 Q30.1094,30.2344 29.4063,30.2344 Q26.9063,30.2344 25.5781,28.5938 Q24.2656,26.9375 24.2656,23.8125 Q24.2656,20.6875 25.5781,19.0313 Q26.9063,17.375 29.4063,17.375 Q30.1094,17.375 30.75,17.5313 Q31.4063,17.6875 31.9688,17.9844 L31.9688,20.7031 Q31.3438,20.125 30.75,19.8594 Q30.1563,19.5781 29.5313,19.5781 Q28.1875,19.5781 27.5,20.6563 Q26.8125,21.7188 26.8125,23.8125 Q26.8125,25.9063 27.5,26.9844 Q28.1875,28.0469 29.5313,28.0469 Q30.1563,28.0469 30.75,27.7813 Q31.3438,27.5 31.9688,26.9219 L31.9688,29.6406 Z "/><text fill="#000000" font-family="sans-serif" font-size="12" lengthAdjust="spacingAndGlyphs" textLength="114" x="43" y="28.1543">AclsSPIDefaultImpl</text><line style="stroke: #A80036; stroke-width: 1.5;" x1="15" x2="159" y1="40" y2="40"/><line style="stroke: #A80036; stroke-width: 1.5;" x1="15" x2="159" y1="48" y2="48"/><ellipse cx="25" cy="59.9023" fill="#84BE84" rx="3" ry="3" style="stroke: #038048; stroke-width: 1.0;"/><text fill="#000000" font-family="sans-serif" font-size="11" lengthAdjust="spacingAndGlyphs" textLength="48" x="34" y="62.2104">acl(): Acl</text><ellipse cx="25" cy="72.707" fill="#84BE84" rx="3" ry="3" style="stroke: #038048; stroke-width: 1.0;"/><text fill="#000000" font-family="sans-serif" font-size="11" lengthAdjust="spacingAndGlyphs" textLength="90" x="34" y="75.0151">entry(): AclEntry</text></a><text fill="#888888" font-family="sans-serif" font-size="10" lengthAdjust="spacingAndGlyphs" textLength="186" x="0" y="101.2822">UMLDoclet 1.1.4, PlantUML 1.2019.05</text><!--
@startuml

    class AclsSPIDefaultImpl [[AclsSPIDefaultImpl.html]] {
        +acl(): Acl
        +entry(): AclEntry
    }


    center footer UMLDoclet 1.1.4, PlantUML 1.2019.05
@enduml

PlantUML version 1.2019.05(Sat Apr 20 16:45:36 UTC 2019)
(APACHE source distribution)
Java Runtime: OpenJDK Runtime Environment
JVM: OpenJDK 64-Bit Server VM
Java Version: 1.8.0_252-b09
Operating System: Linux
OS Version: 4.15.0-74-generic
Default Encoding: ISO-8859-1
Language: en
Country: US
--></g></svg>