<?xml version="1.0" encoding="UTF-8" standalone="no"?><svg xmlns="http://www.w3.org/2000/svg" xmlns:xlink="http://www.w3.org/1999/xlink" contentScriptType="application/ecmascript" contentStyleType="text/css" height="271px" preserveAspectRatio="none" style="width:291px;height:271px;" version="1.1" viewBox="0 0 291 271" width="291px" zoomAndPan="magnify"><defs><filter height="300%" id="f18ugj238kvfg7" width="300%" x="-1" y="-1"><feGaussianBlur result="blurOut" stdDeviation="2.0"/><feColorMatrix in="blurOut" result="blurOut2" type="matrix" values="0 0 0 0 0 0 0 0 0 0 0 0 0 0 0 0 0 0 .4 0"/><feOffset dx="4.0" dy="4.0" in="blurOut2" result="blurOut3"/><feBlend in="SourceGraphic" in2="blurOut3" mode="normal"/></filter></defs><g><!--MD5=[2bc55fd8165625d9167c85c4dc28a7d0]
class org.apache.wiki.spi.SessionSPIDefaultImpl--><a href="SessionSPIDefaultImpl.html" target="_top" title="SessionSPIDefaultImpl.html" xlink:actuate="onRequest" xlink:href="SessionSPIDefaultImpl.html" xlink:show="new" xlink:title="SessionSPIDefaultImpl.html" xlink:type="simple"><rect codeLine="5" fill="#FEFECE" filter="url(#f18ugj238kvfg7)" height="84.3516" id="org.apache.wiki.spi.SessionSPIDefaultImpl" style="stroke: #A80036; stroke-width: 1.5;" width="264" x="7.5" y="151"/><ellipse cx="58.75" cy="169.9688" fill="#ADD1B2" rx="11" ry="11" style="stroke: #A80036; stroke-width: 1.0;"/><path d="M61.7188,175.6094 Q61.1406,175.9063 60.5,176.0469 Q59.8594,176.2031 59.1563,176.2031 Q56.6563,176.2031 55.3281,174.5625 Q54.0156,172.9063 54.0156,169.7813 Q54.0156,166.6563 55.3281,165 Q56.6563,163.3438 59.1563,163.3438 Q59.8594,163.3438 60.5,163.5 Q61.1563,163.6563 61.7188,163.9531 L61.7188,166.6719 Q61.0938,166.0938 60.5,165.8281 Q59.9063,165.5469 59.2813,165.5469 Q57.9375,165.5469 57.25,166.625 Q56.5625,167.6875 56.5625,169.7813 Q56.5625,171.875 57.25,172.9531 Q57.9375,174.0156 59.2813,174.0156 Q59.9063,174.0156 60.5,173.75 Q61.0938,173.4688 61.7188,172.8906 L61.7188,175.6094 Z "/><text fill="#000000" font-family="sans-serif" font-size="14" lengthAdjust="spacingAndGlyphs" textLength="153" x="79.25" y="168.9951">SessionSPIDefaultImpl</text><text fill="#000000" font-family="sans-serif" font-size="10" lengthAdjust="spacingAndGlyphs" textLength="90" x="110.75" y="181.5791">org.apache.wiki.spi</text><line style="stroke: #A80036; stroke-width: 1.5;" x1="8.5" x2="270.5" y1="188.9375" y2="188.9375"/><ellipse cx="18.5" cy="199.9375" fill="#84BE84" rx="3" ry="3" style="stroke: #038048; stroke-width: 1.0;"/><text fill="#000000" font-family="sans-serif" font-size="11" lengthAdjust="spacingAndGlyphs" textLength="237" x="27.5" y="203.1479">remove(Engine, HttpServletRequest): void</text><ellipse cx="18.5" cy="212.7422" fill="#84BE84" rx="3" ry="3" style="stroke: #038048; stroke-width: 1.0;"/><text fill="#000000" font-family="sans-serif" font-size="11" lengthAdjust="spacingAndGlyphs" textLength="238" x="27.5" y="215.9526">find(Engine, HttpServletRequest): Session</text><ellipse cx="18.5" cy="225.5469" fill="#84BE84" rx="3" ry="3" style="stroke: #038048; stroke-width: 1.0;"/><text fill="#000000" font-family="sans-serif" font-size="11" lengthAdjust="spacingAndGlyphs" textLength="132" x="27.5" y="228.7573">guest(Engine): Session</text></a><!--MD5=[52c031eca9d14e414123c0f3a82f168a]
class org.apache.wiki.api.spi.SessionSPI--><a href="../api/spi/SessionSPI.html" target="_top" title="../api/spi/SessionSPI.html" xlink:actuate="onRequest" xlink:href="../api/spi/SessionSPI.html" xlink:show="new" xlink:title="../api/spi/SessionSPI.html" xlink:type="simple"><rect codeLine="11" fill="#FEFECE" filter="url(#f18ugj238kvfg7)" height="84.3516" id="org.apache.wiki.api.spi.SessionSPI" style="stroke: #A80036; stroke-width: 1.5;" width="265" x="7" y="7"/><ellipse cx="78.75" cy="25.9688" fill="#B4A7E5" rx="11" ry="11" style="stroke: #A80036; stroke-width: 1.0;"/><path d="M74.6719,21.7344 L74.6719,19.5781 L82.0625,19.5781 L82.0625,21.7344 L79.5938,21.7344 L79.5938,29.8125 L82.0625,29.8125 L82.0625,31.9688 L74.6719,31.9688 L74.6719,29.8125 L77.1406,29.8125 L77.1406,21.7344 L74.6719,21.7344 Z "/><text fill="#000000" font-family="sans-serif" font-size="14" font-style="italic" lengthAdjust="spacingAndGlyphs" textLength="74" x="118.75" y="24.9951">SessionSPI</text><text fill="#000000" font-family="sans-serif" font-size="10" font-style="italic" lengthAdjust="spacingAndGlyphs" textLength="113" x="99.25" y="37.5791">org.apache.wiki.api.spi</text><line style="stroke: #A80036; stroke-width: 1.5;" x1="8" x2="271" y1="44.9375" y2="44.9375"/><ellipse cx="18" cy="55.9375" fill="#84BE84" rx="3" ry="3" style="stroke: #038048; stroke-width: 1.0;"/><text fill="#000000" font-family="sans-serif" font-size="11" font-style="italic" lengthAdjust="spacingAndGlyphs" textLength="239" x="27" y="59.1479">remove(Engine, HttpServletRequest): void</text><ellipse cx="18" cy="68.7422" fill="#84BE84" rx="3" ry="3" style="stroke: #038048; stroke-width: 1.0;"/><text fill="#000000" font-family="sans-serif" font-size="11" font-style="italic" lengthAdjust="spacingAndGlyphs" textLength="235" x="27" y="71.9526">find(Engine, HttpServletRequest): Session</text><ellipse cx="18" cy="81.5469" fill="#84BE84" rx="3" ry="3" style="stroke: #038048; stroke-width: 1.0;"/><text fill="#000000" font-family="sans-serif" font-size="11" font-style="italic" lengthAdjust="spacingAndGlyphs" textLength="128" x="27" y="84.7573">guest(Engine): Session</text></a><!--MD5=[e961bf79034f4e3b8f1711b47b5dac8c]
reverse link org.apache.wiki.api.spi.SessionSPI to org.apache.wiki.spi.SessionSPIDefaultImpl--><path codeLine="17" d="M139.5,111.2896 C139.5,124.5826 139.5,138.3254 139.5,150.6606 " fill="none" id="org.apache.wiki.api.spi.SessionSPI-backto-org.apache.wiki.spi.SessionSPIDefaultImpl" style="stroke: #A80036; stroke-width: 1.0; stroke-dasharray: 7.0,7.0;"/><polygon fill="none" points="132.5001,111.0379,139.5,91.0379,146.5001,111.0378,132.5001,111.0379" style="stroke: #A80036; stroke-width: 1.0;"/><text fill="#888888" font-family="sans-serif" font-size="10" lengthAdjust="spacingAndGlyphs" textLength="192" x="40.5" y="257.6338">UMLDoclet 2.0.12, PlantUML 1.2020.16</text><!--MD5=[6382010f1a160472e25b76a6d75a2e7a]
@startuml
    set namespaceSeparator none
    hide empty fields
    hide empty methods

    class "<size:14>SessionSPIDefaultImpl\n<size:10>org.apache.wiki.spi" as org.apache.wiki.spi.SessionSPIDefaultImpl [[SessionSPIDefaultImpl.html]] {
        +remove(Engine, HttpServletRequest): void
        +find(Engine, HttpServletRequest): Session
        +guest(Engine): Session
    }

    interface "<size:14>SessionSPI\n<size:10>org.apache.wiki.api.spi" as org.apache.wiki.api.spi.SessionSPI [[../api/spi/SessionSPI.html]] {
        {abstract} +remove(Engine, HttpServletRequest): void
        {abstract} +find(Engine, HttpServletRequest): Session
        {abstract} +guest(Engine): Session
    }

    org.apache.wiki.api.spi.SessionSPI <|.. org.apache.wiki.spi.SessionSPIDefaultImpl

    center footer UMLDoclet 2.0.12, PlantUML 1.2020.16
@enduml

PlantUML version 1.2020.16(Sun Aug 23 20:20:43 UTC 2020)
(APACHE source distribution)
Java Runtime: Java(TM) SE Runtime Environment
JVM: Java HotSpot(TM) 64-Bit Server VM
Default Encoding: ISO-8859-1
Language: en
Country: US
--></g></svg>