<?xml version="1.0" encoding="UTF-8" standalone="no"?><svg xmlns="http://www.w3.org/2000/svg" xmlns:xlink="http://www.w3.org/1999/xlink" contentScriptType="application/ecmascript" contentStyleType="text/css" height="601px" preserveAspectRatio="none" style="width:351px;height:601px;" version="1.1" viewBox="0 0 351 601" width="351px" zoomAndPan="magnify"><defs><filter height="300%" id="f1u9cvis5vzheb" width="300%" x="-1" y="-1"><feGaussianBlur result="blurOut" stdDeviation="2.0"/><feColorMatrix in="blurOut" result="blurOut2" type="matrix" values="0 0 0 0 0 0 0 0 0 0 0 0 0 0 0 0 0 0 .4 0"/><feOffset dx="4.0" dy="4.0" in="blurOut2" result="blurOut3"/><feBlend in="SourceGraphic" in2="blurOut3" mode="normal"/></filter></defs><g><!--MD5=[220d8dd95f97487a17b2caedc3dff0a6]
class org.apache.wiki.attachment.DefaultAttachmentManager--><a href="DefaultAttachmentManager.html" target="_top" title="DefaultAttachmentManager.html" xlink:actuate="onRequest" xlink:href="DefaultAttachmentManager.html" xlink:show="new" xlink:title="DefaultAttachmentManager.html" xlink:type="simple"><rect codeLine="5" fill="#FEFECE" filter="url(#f1u9cvis5vzheb)" height="255.7266" id="org.apache.wiki.attachment.DefaultAttachmentManager" style="stroke: #A80036; stroke-width: 1.5;" width="320" x="9.5" y="309"/><ellipse cx="79.25" cy="329.0938" fill="#ADD1B2" rx="11" ry="11" style="stroke: #A80036; stroke-width: 1.0;"/><path d="M82.0156,324.9688 Q82.1719,324.75 82.3594,324.6406 Q82.5469,324.5313 82.7656,324.5313 Q83.1406,324.5313 83.375,324.7969 Q83.6094,325.0469 83.6094,325.6563 L83.6094,327.1094 Q83.6094,327.7188 83.375,327.9844 Q83.1406,328.25 82.7656,328.25 Q82.4219,328.25 82.2188,328.0469 Q82.0156,327.8594 81.9063,327.3438 Q81.8594,326.9844 81.6719,326.7969 Q81.3438,326.4219 80.7344,326.2031 Q80.125,325.9844 79.5,325.9844 Q78.7344,325.9844 78.0938,326.3125 Q77.4688,326.6406 76.9688,327.3906 Q76.4844,328.1406 76.4844,329.1719 L76.4844,330.2656 Q76.4844,331.5 77.375,332.3281 Q78.2656,333.1406 79.8594,333.1406 Q80.7969,333.1406 81.4531,332.8906 Q81.8438,332.7344 82.2656,332.2969 Q82.5313,332.0313 82.6719,331.9531 Q82.8281,331.875 83.0313,331.875 Q83.3594,331.875 83.6094,332.1406 Q83.875,332.3906 83.875,332.7344 Q83.875,333.0781 83.5313,333.4844 Q83.0313,334.0625 82.2344,334.3906 Q81.1563,334.8438 79.8594,334.8438 Q78.3438,334.8438 77.1406,334.2188 Q76.1563,333.7188 75.4688,332.6563 Q74.7813,331.5781 74.7813,330.2969 L74.7813,329.1406 Q74.7813,327.8125 75.3906,326.6719 Q76.0156,325.5156 77.1094,324.9063 Q78.2031,324.2813 79.4375,324.2813 Q80.1719,324.2813 80.8125,324.4531 Q81.4688,324.6094 82.0156,324.9688 Z "/><text fill="#000000" font-family="sans-serif" font-size="14" lengthAdjust="spacingAndGlyphs" textLength="172" x="99.75" y="328.5332">DefaultAttachmentManager</text><text fill="#000000" font-family="sans-serif" font-size="10" lengthAdjust="spacingAndGlyphs" textLength="131" x="120.25" y="341.9902">org.apache.wiki.attachment</text><line style="stroke: #A80036; stroke-width: 1.5;" x1="10.5" x2="328.5" y1="349.1875" y2="349.1875"/><ellipse cx="20.5" cy="360.1875" fill="#84BE84" rx="3" ry="3" style="stroke: #038048; stroke-width: 1.0;"/><text fill="#000000" font-family="sans-serif" font-size="11" lengthAdjust="spacingAndGlyphs" textLength="226" x="29.5" y="364.6064">DefaultAttachmentManager(Engine, Properties)</text><ellipse cx="20.5" cy="374.0234" fill="#84BE84" rx="3" ry="3" style="stroke: #038048; stroke-width: 1.0;"/><text fill="#000000" font-family="sans-serif" font-size="11" lengthAdjust="spacingAndGlyphs" textLength="149" x="29.5" y="378.4424">attachmentsEnabled(): boolean</text><ellipse cx="20.5" cy="387.8594" fill="#84BE84" rx="3" ry="3" style="stroke: #038048; stroke-width: 1.0;"/><text fill="#000000" font-family="sans-serif" font-size="11" lengthAdjust="spacingAndGlyphs" textLength="228" x="29.5" y="392.2783">getAttachmentInfoName(Context, String): String</text><ellipse cx="20.5" cy="401.6953" fill="#84BE84" rx="3" ry="3" style="stroke: #038048; stroke-width: 1.0;"/><text fill="#000000" font-family="sans-serif" font-size="11" lengthAdjust="spacingAndGlyphs" textLength="245" x="29.5" y="406.1143">getAttachmentInfo(Context, String, int): Attachment</text><ellipse cx="20.5" cy="415.5313" fill="#84BE84" rx="3" ry="3" style="stroke: #038048; stroke-width: 1.0;"/><text fill="#000000" font-family="sans-serif" font-size="11" lengthAdjust="spacingAndGlyphs" textLength="196" x="29.5" y="419.9502">listAttachments(Page): List&lt;Attachment&gt;</text><ellipse cx="20.5" cy="429.3672" fill="#84BE84" rx="3" ry="3" style="stroke: #038048; stroke-width: 1.0;"/><text fill="#000000" font-family="sans-serif" font-size="11" lengthAdjust="spacingAndGlyphs" textLength="155" x="29.5" y="433.7861">forceDownload(String): boolean</text><ellipse cx="20.5" cy="443.2031" fill="#84BE84" rx="3" ry="3" style="stroke: #038048; stroke-width: 1.0;"/><text fill="#000000" font-family="sans-serif" font-size="11" lengthAdjust="spacingAndGlyphs" textLength="273" x="29.5" y="447.6221">getAttachmentStream(Context, Attachment): InputStream</text><ellipse cx="20.5" cy="457.0391" fill="#84BE84" rx="3" ry="3" style="stroke: #038048; stroke-width: 1.0;"/><text fill="#000000" font-family="sans-serif" font-size="11" lengthAdjust="spacingAndGlyphs" textLength="294" x="29.5" y="461.458">storeDynamicAttachment(Context, DynamicAttachment): void</text><ellipse cx="20.5" cy="470.875" fill="#84BE84" rx="3" ry="3" style="stroke: #038048; stroke-width: 1.0;"/><text fill="#000000" font-family="sans-serif" font-size="11" lengthAdjust="spacingAndGlyphs" textLength="249" x="29.5" y="475.2939">getDynamicAttachment(String): DynamicAttachment</text><ellipse cx="20.5" cy="484.7109" fill="#84BE84" rx="3" ry="3" style="stroke: #038048; stroke-width: 1.0;"/><text fill="#000000" font-family="sans-serif" font-size="11" lengthAdjust="spacingAndGlyphs" textLength="232" x="29.5" y="489.1299">storeAttachment(Attachment, InputStream): void</text><ellipse cx="20.5" cy="498.5469" fill="#84BE84" rx="3" ry="3" style="stroke: #038048; stroke-width: 1.0;"/><text fill="#000000" font-family="sans-serif" font-size="11" lengthAdjust="spacingAndGlyphs" textLength="213" x="29.5" y="502.9658">getVersionHistory(String): List&lt;Attachment&gt;</text><ellipse cx="20.5" cy="512.3828" fill="#84BE84" rx="3" ry="3" style="stroke: #038048; stroke-width: 1.0;"/><text fill="#000000" font-family="sans-serif" font-size="11" lengthAdjust="spacingAndGlyphs" textLength="215" x="29.5" y="516.8018">getAllAttachments(): Collection&lt;Attachment&gt;</text><ellipse cx="20.5" cy="526.2188" fill="#84BE84" rx="3" ry="3" style="stroke: #038048; stroke-width: 1.0;"/><text fill="#000000" font-family="sans-serif" font-size="11" lengthAdjust="spacingAndGlyphs" textLength="200" x="29.5" y="530.6377">getCurrentProvider(): AttachmentProvider</text><ellipse cx="20.5" cy="540.0547" fill="#84BE84" rx="3" ry="3" style="stroke: #038048; stroke-width: 1.0;"/><text fill="#000000" font-family="sans-serif" font-size="11" lengthAdjust="spacingAndGlyphs" textLength="156" x="29.5" y="544.4736">deleteVersion(Attachment): void</text><ellipse cx="20.5" cy="553.8906" fill="#84BE84" rx="3" ry="3" style="stroke: #038048; stroke-width: 1.0;"/><text fill="#000000" font-family="sans-serif" font-size="11" lengthAdjust="spacingAndGlyphs" textLength="173" x="29.5" y="558.3096">deleteAttachment(Attachment): void</text></a><!--MD5=[2d69f9029f561f66f9c9e603a1116d9b]
class org.apache.wiki.attachment.AttachmentManager--><a href="AttachmentManager.html" target="_top" title="AttachmentManager.html" xlink:actuate="onRequest" xlink:href="AttachmentManager.html" xlink:show="new" xlink:title="AttachmentManager.html" xlink:type="simple"><rect codeLine="23" fill="#FEFECE" filter="url(#f1u9cvis5vzheb)" height="241.8906" id="org.apache.wiki.attachment.AttachmentManager" style="stroke: #A80036; stroke-width: 1.5;" width="325" x="7" y="7"/><ellipse cx="100.75" cy="27.0938" fill="#B4A7E5" rx="11" ry="11" style="stroke: #A80036; stroke-width: 1.0;"/><path d="M101.7031,23.7344 L101.7031,30.3906 L103.4219,30.3906 Q104.0313,30.3906 104.2969,30.625 Q104.5625,30.8594 104.5625,31.25 Q104.5625,31.625 104.2969,31.8594 Q104.0313,32.0938 103.4219,32.0938 L98.2813,32.0938 Q97.6719,32.0938 97.4063,31.8594 Q97.1406,31.625 97.1406,31.2344 Q97.1406,30.8594 97.4063,30.625 Q97.6719,30.3906 98.2813,30.3906 L100,30.3906 L100,23.7344 L98.2813,23.7344 Q97.6719,23.7344 97.4063,23.5 Q97.1406,23.2656 97.1406,22.875 Q97.1406,22.5 97.4063,22.2656 Q97.6719,22.0313 98.2813,22.0313 L103.4219,22.0313 Q104.0313,22.0313 104.2969,22.2656 Q104.5625,22.5 104.5625,22.875 Q104.5625,23.2656 104.2969,23.5 Q104.0313,23.7344 103.4219,23.7344 L101.7031,23.7344 Z "/><text fill="#000000" font-family="sans-serif" font-size="14" font-style="italic" lengthAdjust="spacingAndGlyphs" textLength="128" x="121.75" y="26.5332">AttachmentManager</text><text fill="#000000" font-family="sans-serif" font-size="10" font-style="italic" lengthAdjust="spacingAndGlyphs" textLength="129" x="121.25" y="39.9902">org.apache.wiki.attachment</text><line style="stroke: #A80036; stroke-width: 1.5;" x1="8" x2="331" y1="47.1875" y2="47.1875"/><ellipse cx="18" cy="58.1875" fill="#84BE84" rx="3" ry="3" style="stroke: #038048; stroke-width: 1.0;"/><text fill="#000000" font-family="sans-serif" font-size="11" font-style="italic" lengthAdjust="spacingAndGlyphs" textLength="155" x="27" y="62.6064">attachmentsEnabled(): boolean</text><ellipse cx="18" cy="72.0234" fill="#84BE84" rx="3" ry="3" style="stroke: #038048; stroke-width: 1.0;"/><text fill="#000000" font-family="sans-serif" font-size="11" font-style="italic" lengthAdjust="spacingAndGlyphs" textLength="248" x="27" y="76.4424">getAttachmentInfo(Context, String, int): Attachment</text><ellipse cx="18" cy="85.8594" fill="#84BE84" rx="3" ry="3" style="stroke: #038048; stroke-width: 1.0;"/><text fill="#000000" font-family="sans-serif" font-size="11" font-style="italic" lengthAdjust="spacingAndGlyphs" textLength="233" x="27" y="90.2783">getAttachmentInfoName(Context, String): String</text><ellipse cx="18" cy="99.6953" fill="#84BE84" rx="3" ry="3" style="stroke: #038048; stroke-width: 1.0;"/><text fill="#000000" font-family="sans-serif" font-size="11" font-style="italic" lengthAdjust="spacingAndGlyphs" textLength="200" x="27" y="104.1143">listAttachments(Page): List&lt;Attachment&gt;</text><ellipse cx="18" cy="113.5313" fill="#84BE84" rx="3" ry="3" style="stroke: #038048; stroke-width: 1.0;"/><text fill="#000000" font-family="sans-serif" font-size="11" font-style="italic" lengthAdjust="spacingAndGlyphs" textLength="156" x="27" y="117.9502">forceDownload(String): boolean</text><ellipse cx="18" cy="127.3672" fill="#84BE84" rx="3" ry="3" style="stroke: #038048; stroke-width: 1.0;"/><text fill="#000000" font-family="sans-serif" font-size="11" font-style="italic" lengthAdjust="spacingAndGlyphs" textLength="277" x="27" y="131.7861">getAttachmentStream(Context, Attachment): InputStream</text><ellipse cx="18" cy="141.2031" fill="#84BE84" rx="3" ry="3" style="stroke: #038048; stroke-width: 1.0;"/><text fill="#000000" font-family="sans-serif" font-size="11" font-style="italic" lengthAdjust="spacingAndGlyphs" textLength="299" x="27" y="145.6221">storeDynamicAttachment(Context, DynamicAttachment): void</text><ellipse cx="18" cy="155.0391" fill="#84BE84" rx="3" ry="3" style="stroke: #038048; stroke-width: 1.0;"/><text fill="#000000" font-family="sans-serif" font-size="11" font-style="italic" lengthAdjust="spacingAndGlyphs" textLength="254" x="27" y="159.458">getDynamicAttachment(String): DynamicAttachment</text><ellipse cx="18" cy="168.875" fill="#84BE84" rx="3" ry="3" style="stroke: #038048; stroke-width: 1.0;"/><text fill="#000000" font-family="sans-serif" font-size="11" font-style="italic" lengthAdjust="spacingAndGlyphs" textLength="234" x="27" y="173.2939">storeAttachment(Attachment, InputStream): void</text><ellipse cx="18" cy="182.7109" fill="#84BE84" rx="3" ry="3" style="stroke: #038048; stroke-width: 1.0;"/><text fill="#000000" font-family="sans-serif" font-size="11" font-style="italic" lengthAdjust="spacingAndGlyphs" textLength="216" x="27" y="187.1299">getVersionHistory(String): List&lt;Attachment&gt;</text><ellipse cx="18" cy="196.5469" fill="#84BE84" rx="3" ry="3" style="stroke: #038048; stroke-width: 1.0;"/><text fill="#000000" font-family="sans-serif" font-size="11" font-style="italic" lengthAdjust="spacingAndGlyphs" textLength="220" x="27" y="200.9658">getAllAttachments(): Collection&lt;Attachment&gt;</text><ellipse cx="18" cy="210.3828" fill="#84BE84" rx="3" ry="3" style="stroke: #038048; stroke-width: 1.0;"/><text fill="#000000" font-family="sans-serif" font-size="11" font-style="italic" lengthAdjust="spacingAndGlyphs" textLength="203" x="27" y="214.8018">getCurrentProvider(): AttachmentProvider</text><ellipse cx="18" cy="224.2188" fill="#84BE84" rx="3" ry="3" style="stroke: #038048; stroke-width: 1.0;"/><text fill="#000000" font-family="sans-serif" font-size="11" font-style="italic" lengthAdjust="spacingAndGlyphs" textLength="157" x="27" y="228.6377">deleteVersion(Attachment): void</text><ellipse cx="18" cy="238.0547" fill="#84BE84" rx="3" ry="3" style="stroke: #038048; stroke-width: 1.0;"/><text fill="#000000" font-family="sans-serif" font-size="11" font-style="italic" lengthAdjust="spacingAndGlyphs" textLength="174" x="27" y="242.4736">deleteAttachment(Attachment): void</text></a><!--MD5=[1f0bac36cdefe313a58bd3101046f366]
reverse link org.apache.wiki.attachment.AttachmentManager to org.apache.wiki.attachment.DefaultAttachmentManager--><path codeLine="40" d="M169.5,269.6755 C169.5,282.7809 169.5,296.0102 169.5,308.9827 " fill="none" id="org.apache.wiki.attachment.AttachmentManager-backto-org.apache.wiki.attachment.DefaultAttachmentManager" style="stroke: #A80036; stroke-width: 1.0; stroke-dasharray: 7.0,7.0;"/><polygon fill="none" points="162.5001,269.2381,169.5,249.2381,176.5001,269.2381,162.5001,269.2381" style="stroke: #A80036; stroke-width: 1.0;"/><text fill="#888888" font-family="sans-serif" font-size="10" lengthAdjust="spacingAndGlyphs" textLength="190" x="71.5" y="588.1074">UMLDoclet 2.0.12, PlantUML 1.2020.16</text><!--MD5=[ae087d36b8d9d1d3b8c6eb51c0fedc7c]
@startuml
    set namespaceSeparator none
    hide empty fields
    hide empty methods

    class "<size:14>DefaultAttachmentManager\n<size:10>org.apache.wiki.attachment" as org.apache.wiki.attachment.DefaultAttachmentManager [[DefaultAttachmentManager.html]] {
        +DefaultAttachmentManager(Engine, Properties)
        +attachmentsEnabled(): boolean
        +getAttachmentInfoName(Context, String): String
        +getAttachmentInfo(Context, String, int): Attachment
        +listAttachments(Page): List<Attachment>
        +forceDownload(String): boolean
        +getAttachmentStream(Context, Attachment): InputStream
        +storeDynamicAttachment(Context, DynamicAttachment): void
        +getDynamicAttachment(String): DynamicAttachment
        +storeAttachment(Attachment, InputStream): void
        +getVersionHistory(String): List<Attachment>
        +getAllAttachments(): Collection<Attachment>
        +getCurrentProvider(): AttachmentProvider
        +deleteVersion(Attachment): void
        +deleteAttachment(Attachment): void
    }

    interface "<size:14>AttachmentManager\n<size:10>org.apache.wiki.attachment" as org.apache.wiki.attachment.AttachmentManager [[AttachmentManager.html]] {
        {abstract} +attachmentsEnabled(): boolean
        {abstract} +getAttachmentInfo(Context, String, int): Attachment
        {abstract} +getAttachmentInfoName(Context, String): String
        {abstract} +listAttachments(Page): List<Attachment>
        {abstract} +forceDownload(String): boolean
        {abstract} +getAttachmentStream(Context, Attachment): InputStream
        {abstract} +storeDynamicAttachment(Context, DynamicAttachment): void
        {abstract} +getDynamicAttachment(String): DynamicAttachment
        {abstract} +storeAttachment(Attachment, InputStream): void
        {abstract} +getVersionHistory(String): List<Attachment>
        {abstract} +getAllAttachments(): Collection<Attachment>
        {abstract} +getCurrentProvider(): AttachmentProvider
        {abstract} +deleteVersion(Attachment): void
        {abstract} +deleteAttachment(Attachment): void
    }

    org.apache.wiki.attachment.AttachmentManager <|.. org.apache.wiki.attachment.DefaultAttachmentManager

    center footer UMLDoclet 2.0.12, PlantUML 1.2020.16
@enduml

PlantUML version 1.2020.16(Sun Aug 23 22:20:43 CEST 2020)
(APACHE source distribution)
Java Runtime: OpenJDK Runtime Environment
JVM: OpenJDK 64-Bit Server VM
Default Encoding: Cp1252
Language: es
Country: ES
--></g></svg>