<?xml version="1.0" encoding="UTF-8" standalone="no"?><svg xmlns="http://www.w3.org/2000/svg" xmlns:xlink="http://www.w3.org/1999/xlink" contentScriptType="application/ecmascript" contentStyleType="text/css" height="322px" preserveAspectRatio="none" style="width:1520px;height:322px;background:#FFFFFF;" version="1.1" viewBox="0 0 1520 322" width="1520px" zoomAndPan="magnify"><defs><filter height="300%" id="f8oismtkmmlmv" width="300%" x="-1" y="-1"><feGaussianBlur result="blurOut" stdDeviation="2.0"/><feColorMatrix in="blurOut" result="blurOut2" type="matrix" values="0 0 0 0 0 0 0 0 0 0 0 0 0 0 0 0 0 0 .4 0"/><feOffset dx="4.0" dy="4.0" in="blurOut2" result="blurOut3"/><feBlend in="SourceGraphic" in2="blurOut3" mode="normal"/></filter></defs><g><!--MD5=[fb2c7b2f7599c932a3820ef6ef7e43d3]
cluster org.apache.wiki.markdown--><polygon fill="#FFFFFF" filter="url(#f8oismtkmmlmv)" points="778,152,997,152,1004,174.2969,1503,174.2969,1503,299,778,299,778,152" style="stroke:#000000;stroke-width:1.5;"/><line style="stroke:#000000;stroke-width:1.5;" x1="778" x2="1004" y1="174.2969" y2="174.2969"/><text fill="#000000" font-family="sans-serif" font-size="14" font-weight="bold" lengthAdjust="spacing" textLength="213" x="782" y="166.9951">org.apache.wiki.markdown</text><!--MD5=[8529d58379be969c1a4023ad0066ab1a]
cluster com.vladsch.flexmark.parser.Parser--><polygon fill="#FFFFFF" filter="url(#f8oismtkmmlmv)" points="537,12,828,12,835,34.2969,838,34.2969,838,121,537,121,537,12" style="stroke:#000000;stroke-width:1.5;"/><line style="stroke:#000000;stroke-width:1.5;" x1="537" x2="835" y1="34.2969" y2="34.2969"/><text fill="#000000" font-family="sans-serif" font-size="14" font-weight="bold" lengthAdjust="spacing" textLength="285" x="541" y="26.9951">com.vladsch.flexmark.parser.Parser</text><!--MD5=[27ff01e6535a70ccebb8584b0446a0cd]
cluster com.vladsch.flexmark.html.HtmlRenderer--><polygon fill="#FFFFFF" filter="url(#f8oismtkmmlmv)" points="851,12,1181,12,1188,34.2969,1191,34.2969,1191,121,851,121,851,12" style="stroke:#000000;stroke-width:1.5;"/><line style="stroke:#000000;stroke-width:1.5;" x1="851" x2="1188" y1="34.2969" y2="34.2969"/><text fill="#000000" font-family="sans-serif" font-size="14" font-weight="bold" lengthAdjust="spacing" textLength="324" x="855" y="26.9951">com.vladsch.flexmark.html.HtmlRenderer</text><!--MD5=[06e4b2620a8b168056b961578cd367b2]
cluster org.apache.wiki.api.engine--><polygon fill="#FFFFFF" filter="url(#f8oismtkmmlmv)" points="1223,6,1441,6,1448,28.2969,1479,28.2969,1479,127,1223,127,1223,6" style="stroke:#000000;stroke-width:1.5;"/><line style="stroke:#000000;stroke-width:1.5;" x1="1223" x2="1448" y1="28.2969" y2="28.2969"/><text fill="#000000" font-family="sans-serif" font-size="14" font-weight="bold" lengthAdjust="spacing" textLength="212" x="1227" y="20.9951">org.apache.wiki.api.engine</text><!--MD5=[78d382a548cec4277f964a1f07f6752d]
class org.apache.wiki.markdown.MarkdownForJSPWikiExtension--><a href="MarkdownForJSPWikiExtension.html" target="_top" title="MarkdownForJSPWikiExtension.html" xlink:actuate="onRequest" xlink:href="MarkdownForJSPWikiExtension.html" xlink:show="new" xlink:title="MarkdownForJSPWikiExtension.html" xlink:type="simple"><rect codeLine="3" fill="#FEFECE" filter="url(#f8oismtkmmlmv)" height="112.0234" id="org.apache.wiki.markdown.MarkdownForJSPWikiExtension" style="stroke:#A80036;stroke-width:1.5;" width="386" x="786" y="179"/><ellipse cx="881.25" cy="195" fill="#ADD1B2" rx="11" ry="11" style="stroke:#A80036;stroke-width:1.0;"/><path d="M884.2188,200.6406 Q883.6406,200.9375 883,201.0781 Q882.3594,201.2344 881.6563,201.2344 Q879.1563,201.2344 877.8281,199.5938 Q876.5156,197.9375 876.5156,194.8125 Q876.5156,191.6875 877.8281,190.0313 Q879.1563,188.375 881.6563,188.375 Q882.3594,188.375 883,188.5313 Q883.6563,188.6875 884.2188,188.9844 L884.2188,191.7031 Q883.5938,191.125 883,190.8594 Q882.4063,190.5781 881.7813,190.5781 Q880.4375,190.5781 879.75,191.6563 Q879.0625,192.7188 879.0625,194.8125 Q879.0625,196.9063 879.75,197.9844 Q880.4375,199.0469 881.7813,199.0469 Q882.4063,199.0469 883,198.7813 Q883.5938,198.5 884.2188,197.9219 L884.2188,200.6406 Z " fill="#000000"/><text fill="#000000" font-family="sans-serif" font-size="12" lengthAdjust="spacing" textLength="187" x="901.75" y="199.1543">MarkdownForJSPWikiExtension</text><line style="stroke:#A80036;stroke-width:1.5;" x1="787" x2="1171" y1="211" y2="211"/><line style="stroke:#A80036;stroke-width:1.5;" x1="787" x2="1171" y1="219" y2="219"/><ellipse cx="797" cy="230" fill="#84BE84" rx="3" ry="3" style="stroke:#038048;stroke-width:1.0;"/><text fill="#000000" font-family="sans-serif" font-size="11" lengthAdjust="spacing" textLength="360" x="806" y="233.2104">MarkdownForJSPWikiExtension(Context, boolean, List&lt;Pattern&gt;)</text><ellipse cx="797" cy="242.8047" fill="#84BE84" rx="3" ry="3" style="stroke:#038048;stroke-width:1.0;"/><text fill="#000000" font-family="sans-serif" font-size="11" lengthAdjust="spacing" textLength="240" x="806" y="246.0151">rendererOptions(MutableDataHolder): void</text><ellipse cx="797" cy="255.6094" fill="#84BE84" rx="3" ry="3" style="stroke:#038048;stroke-width:1.0;"/><text fill="#000000" font-family="sans-serif" font-size="11" lengthAdjust="spacing" textLength="228" x="806" y="258.8198">parserOptions(MutableDataHolder): void</text><ellipse cx="797" cy="268.4141" fill="#84BE84" rx="3" ry="3" style="stroke:#038048;stroke-width:1.0;"/><text fill="#000000" font-family="sans-serif" font-size="11" lengthAdjust="spacing" textLength="159" x="806" y="271.6245">extend(Builder, String): void</text><ellipse cx="797" cy="281.2188" fill="#84BE84" rx="3" ry="3" style="stroke:#038048;stroke-width:1.0;"/><text fill="#000000" font-family="sans-serif" font-size="11" lengthAdjust="spacing" textLength="117" x="806" y="284.4292">extend(Builder): void</text></a><!--MD5=[51f838ed34f26df5bb78bfd5ee964d2d]
class org.apache.wiki.markdown.MarkdownSetupEngineLifecycleExtension--><a href="MarkdownSetupEngineLifecycleExtension.html" target="_top" title="MarkdownSetupEngineLifecycleExtension.html" xlink:actuate="onRequest" xlink:href="MarkdownSetupEngineLifecycleExtension.html" xlink:show="new" xlink:title="MarkdownSetupEngineLifecycleExtension.html" xlink:type="simple"><rect codeLine="11" fill="#FEFECE" filter="url(#f8oismtkmmlmv)" height="60.8047" id="org.apache.wiki.markdown.MarkdownSetupEngineLifecycleExtension" style="stroke:#A80036;stroke-width:1.5;" width="288" x="1207" y="204.5"/><ellipse cx="1222" cy="220.5" fill="#ADD1B2" rx="11" ry="11" style="stroke:#A80036;stroke-width:1.0;"/><path d="M1224.9688,226.1406 Q1224.3906,226.4375 1223.75,226.5781 Q1223.1094,226.7344 1222.4063,226.7344 Q1219.9063,226.7344 1218.5781,225.0938 Q1217.2656,223.4375 1217.2656,220.3125 Q1217.2656,217.1875 1218.5781,215.5313 Q1219.9063,213.875 1222.4063,213.875 Q1223.1094,213.875 1223.75,214.0313 Q1224.4063,214.1875 1224.9688,214.4844 L1224.9688,217.2031 Q1224.3438,216.625 1223.75,216.3594 Q1223.1563,216.0781 1222.5313,216.0781 Q1221.1875,216.0781 1220.5,217.1563 Q1219.8125,218.2188 1219.8125,220.3125 Q1219.8125,222.4063 1220.5,223.4844 Q1221.1875,224.5469 1222.5313,224.5469 Q1223.1563,224.5469 1223.75,224.2813 Q1224.3438,224 1224.9688,223.4219 L1224.9688,226.1406 Z " fill="#000000"/><text fill="#000000" font-family="sans-serif" font-size="12" lengthAdjust="spacing" textLength="256" x="1236" y="224.6543">MarkdownSetupEngineLifecycleExtension</text><line style="stroke:#A80036;stroke-width:1.5;" x1="1208" x2="1494" y1="236.5" y2="236.5"/><line style="stroke:#A80036;stroke-width:1.5;" x1="1208" x2="1494" y1="244.5" y2="244.5"/><ellipse cx="1218" cy="255.5" fill="#84BE84" rx="3" ry="3" style="stroke:#038048;stroke-width:1.0;"/><text fill="#000000" font-family="sans-serif" font-size="11" lengthAdjust="spacing" textLength="129" x="1227" y="258.7104">onInit(Properties): void</text></a><!--MD5=[da4c856ffeccf833939dadb411d6ee93]
class com.vladsch.flexmark.parser.Parser.ParserExtension--><rect codeLine="21" fill="#FEFECE" filter="url(#f8oismtkmmlmv)" height="73.6094" id="com.vladsch.flexmark.parser.Parser.ParserExtension" style="stroke:#A80036;stroke-width:1.5;" width="253" x="573.5" y="39"/><ellipse cx="645.75" cy="55" fill="#B4A7E5" rx="11" ry="11" style="stroke:#A80036;stroke-width:1.0;"/><path d="M641.6719,50.7656 L641.6719,48.6094 L649.0625,48.6094 L649.0625,50.7656 L646.5938,50.7656 L646.5938,58.8438 L649.0625,58.8438 L649.0625,61 L641.6719,61 L641.6719,58.8438 L644.1406,58.8438 L644.1406,50.7656 L641.6719,50.7656 Z " fill="#000000"/><text fill="#000000" font-family="sans-serif" font-size="12" font-style="italic" lengthAdjust="spacing" textLength="100" x="666.25" y="59.1543">ParserExtension</text><line style="stroke:#A80036;stroke-width:1.5;" x1="574.5" x2="825.5" y1="71" y2="71"/><line style="stroke:#A80036;stroke-width:1.5;" x1="574.5" x2="825.5" y1="79" y2="79"/><ellipse cx="584.5" cy="90" fill="#84BE84" rx="3" ry="3" style="stroke:#038048;stroke-width:1.0;"/><text fill="#000000" font-family="sans-serif" font-size="11" font-style="italic" lengthAdjust="spacing" textLength="227" x="593.5" y="93.2104">parserOptions(MutableDataHolder): void</text><ellipse cx="584.5" cy="102.8047" fill="#84BE84" rx="3" ry="3" style="stroke:#038048;stroke-width:1.0;"/><text fill="#000000" font-family="sans-serif" font-size="11" font-style="italic" lengthAdjust="spacing" textLength="119" x="593.5" y="106.0151">extend(Builder): void</text><!--MD5=[d0d076f074b713937459612c7dd1a1e5]
class com.vladsch.flexmark.html.HtmlRenderer.HtmlRendererExtension--><rect codeLine="28" fill="#FEFECE" filter="url(#f8oismtkmmlmv)" height="73.6094" id="com.vladsch.flexmark.html.HtmlRenderer.HtmlRendererExtension" style="stroke:#A80036;stroke-width:1.5;" width="266" x="862" y="39"/><ellipse cx="917.25" cy="55" fill="#B4A7E5" rx="11" ry="11" style="stroke:#A80036;stroke-width:1.0;"/><path d="M913.1719,50.7656 L913.1719,48.6094 L920.5625,48.6094 L920.5625,50.7656 L918.0938,50.7656 L918.0938,58.8438 L920.5625,58.8438 L920.5625,61 L913.1719,61 L913.1719,58.8438 L915.6406,58.8438 L915.6406,50.7656 L913.1719,50.7656 Z " fill="#000000"/><text fill="#000000" font-family="sans-serif" font-size="12" font-style="italic" lengthAdjust="spacing" textLength="147" x="937.75" y="59.1543">HtmlRendererExtension</text><line style="stroke:#A80036;stroke-width:1.5;" x1="863" x2="1127" y1="71" y2="71"/><line style="stroke:#A80036;stroke-width:1.5;" x1="863" x2="1127" y1="79" y2="79"/><ellipse cx="873" cy="90" fill="#84BE84" rx="3" ry="3" style="stroke:#038048;stroke-width:1.0;"/><text fill="#000000" font-family="sans-serif" font-size="11" font-style="italic" lengthAdjust="spacing" textLength="240" x="882" y="93.2104">rendererOptions(MutableDataHolder): void</text><ellipse cx="873" cy="102.8047" fill="#84BE84" rx="3" ry="3" style="stroke:#038048;stroke-width:1.0;"/><text fill="#000000" font-family="sans-serif" font-size="11" font-style="italic" lengthAdjust="spacing" textLength="160" x="882" y="106.0151">extend(Builder, String): void</text><!--MD5=[66016f6e0be98eb33bea0342a410e4a5]
class org.apache.wiki.api.engine.EngineLifecycleExtension--><a href="../api/engine/EngineLifecycleExtension.html" target="_top" title="../api/engine/EngineLifecycleExtension.html" xlink:actuate="onRequest" xlink:href="../api/engine/EngineLifecycleExtension.html" xlink:show="new" xlink:title="../api/engine/EngineLifecycleExtension.html" xlink:type="simple"><rect codeLine="35" fill="#FEFECE" filter="url(#f8oismtkmmlmv)" height="86.4141" id="org.apache.wiki.api.engine.EngineLifecycleExtension" style="stroke:#A80036;stroke-width:1.5;" width="240" x="1231" y="33"/><ellipse cx="1268.5" cy="49" fill="#B4A7E5" rx="11" ry="11" style="stroke:#A80036;stroke-width:1.0;"/><path d="M1264.4219,44.7656 L1264.4219,42.6094 L1271.8125,42.6094 L1271.8125,44.7656 L1269.3438,44.7656 L1269.3438,52.8438 L1271.8125,52.8438 L1271.8125,55 L1264.4219,55 L1264.4219,52.8438 L1266.8906,52.8438 L1266.8906,44.7656 L1264.4219,44.7656 Z " fill="#000000"/><text fill="#000000" font-family="sans-serif" font-size="12" font-style="italic" lengthAdjust="spacing" textLength="158" x="1287.5" y="53.1543">EngineLifecycleExtension</text><line style="stroke:#A80036;stroke-width:1.5;" x1="1232" x2="1470" y1="65" y2="65"/><line style="stroke:#A80036;stroke-width:1.5;" x1="1232" x2="1470" y1="73" y2="73"/><ellipse cx="1242" cy="84" fill="#84BE84" rx="3" ry="3" style="stroke:#038048;stroke-width:1.0;"/><text fill="#000000" font-family="sans-serif" font-size="11" lengthAdjust="spacing" textLength="129" x="1251" y="87.2104">onInit(Properties): void</text><ellipse cx="1242" cy="96.8047" fill="#84BE84" rx="3" ry="3" style="stroke:#038048;stroke-width:1.0;"/><text fill="#000000" font-family="sans-serif" font-size="11" lengthAdjust="spacing" textLength="186" x="1251" y="100.0151">onStart(Engine, Properties): void</text><ellipse cx="1242" cy="109.6094" fill="#84BE84" rx="3" ry="3" style="stroke:#038048;stroke-width:1.0;"/><text fill="#000000" font-family="sans-serif" font-size="11" lengthAdjust="spacing" textLength="214" x="1251" y="112.8198">onShutdown(Engine, Properties): void</text></a><polygon fill="#FFFFFF" filter="url(#f8oismtkmmlmv)" points="16,49.5,250,49.5,257,71.7969,264,71.7969,264,102.0938,16,102.0938,16,49.5" style="stroke:#000000;stroke-width:1.5;"/><line style="stroke:#000000;stroke-width:1.5;" x1="16" x2="257" y1="71.7969" y2="71.7969"/><text fill="#000000" font-family="sans-serif" font-size="14" font-weight="bold" lengthAdjust="spacing" textLength="228" x="20" y="64.4951">com.vladsch.flexmark.parser</text><polygon fill="#FFFFFF" filter="url(#f8oismtkmmlmv)" points="299,49.5,515,49.5,522,71.7969,529,71.7969,529,102.0938,299,102.0938,299,49.5" style="stroke:#000000;stroke-width:1.5;"/><line style="stroke:#000000;stroke-width:1.5;" x1="299" x2="522" y1="71.7969" y2="71.7969"/><text fill="#000000" font-family="sans-serif" font-size="14" font-weight="bold" lengthAdjust="spacing" textLength="210" x="303" y="64.4951">com.vladsch.flexmark.html</text><!--MD5=[7ac2f1000e5c11606c0ecc977265693e]
reverse link com.vladsch.flexmark.parser.Parser.ParserExtension to org.apache.wiki.markdown.MarkdownForJSPWikiExtension--><path codeLine="15" d="M782.6123,123.0801 C813.395,140.623 848.6374,160.7073 880.6921,178.9751 " fill="none" id="com.vladsch.flexmark.parser.Parser.ParserExtension-backto-org.apache.wiki.markdown.MarkdownForJSPWikiExtension" style="stroke:#A80036;stroke-width:1.0;stroke-dasharray:7.0,7.0;"/><polygon fill="none" points="778.9714,129.0622,765.061,113.0778,785.9033,116.8987,778.9714,129.0622" style="stroke:#A80036;stroke-width:1.0;"/><!--MD5=[d70facbb31c1cb839b323a96d91e6551]
reverse link com.vladsch.flexmark.html.HtmlRenderer.HtmlRendererExtension to org.apache.wiki.markdown.MarkdownForJSPWikiExtension--><path codeLine="16" d="M989.2339,133.3004 C987.7382,148.1642 986.1292,164.1536 984.64,178.9522 " fill="none" id="com.vladsch.flexmark.html.HtmlRenderer.HtmlRendererExtension-backto-org.apache.wiki.markdown.MarkdownForJSPWikiExtension" style="stroke:#A80036;stroke-width:1.0;stroke-dasharray:7.0,7.0;"/><polygon fill="none" points="982.2813,132.477,991.2487,113.2784,996.211,133.8788,982.2813,132.477" style="stroke:#A80036;stroke-width:1.0;"/><!--MD5=[b8e7b8f8e96cc5349aede9b2834a5b49]
reverse link org.apache.wiki.api.engine.EngineLifecycleExtension to org.apache.wiki.markdown.MarkdownSetupEngineLifecycleExtension--><path codeLine="17" d="M1351,139.2049 C1351,161.5069 1351,185.5965 1351,204.0396 " fill="none" id="org.apache.wiki.api.engine.EngineLifecycleExtension-backto-org.apache.wiki.markdown.MarkdownSetupEngineLifecycleExtension" style="stroke:#A80036;stroke-width:1.0;stroke-dasharray:7.0,7.0;"/><polygon fill="none" points="1344.0001,139.0277,1351,119.0277,1358.0001,139.0277,1344.0001,139.0277" style="stroke:#A80036;stroke-width:1.0;"/><text fill="#888888" font-family="sans-serif" font-size="10" lengthAdjust="spacing" textLength="192" x="657.5" y="314.2822">UMLDoclet 2.0.15, PlantUML 1.2021.13</text><!--MD5=[2e3f499c2b756c52b62cddc51c6a5cd4]
@startuml
    namespace org.apache.wiki.markdown {

        class MarkdownForJSPWikiExtension [[MarkdownForJSPWikiExtension.html]] {
            +MarkdownForJSPWikiExtension(Context, boolean, List<Pattern>)
            +rendererOptions(MutableDataHolder): void
            +parserOptions(MutableDataHolder): void
            +extend(Builder, String): void
            +extend(Builder): void
        }

        class MarkdownSetupEngineLifecycleExtension [[MarkdownSetupEngineLifecycleExtension.html]] {
            +onInit(Properties): void
        }

        com.vladsch.flexmark.parser.Parser.ParserExtension <|.. MarkdownForJSPWikiExtension
        com.vladsch.flexmark.html.HtmlRenderer.HtmlRendererExtension <|.. MarkdownForJSPWikiExtension
        org.apache.wiki.api.engine.EngineLifecycleExtension <|.. MarkdownSetupEngineLifecycleExtension
    }

    namespace com.vladsch.flexmark.parser {
        interface com.vladsch.flexmark.parser.Parser.ParserExtension {
            {abstract} +parserOptions(MutableDataHolder): void
            {abstract} +extend(Builder): void
        }
    }

    namespace com.vladsch.flexmark.html {
        interface com.vladsch.flexmark.html.HtmlRenderer.HtmlRendererExtension {
            {abstract} +rendererOptions(MutableDataHolder): void
            {abstract} +extend(Builder, String): void
        }
    }

    namespace org.apache.wiki.api.engine {
        interface EngineLifecycleExtension [[../api/engine/EngineLifecycleExtension.html]] {
            +onInit(Properties): void
            +onStart(Engine, Properties): void
            +onShutdown(Engine, Properties): void
        }
    }

    center footer UMLDoclet 2.0.15, PlantUML 1.2021.13
@enduml

PlantUML version 1.2021.13(Mon Nov 01 11:38:45 UTC 2021)
(APACHE source distribution)
Java Runtime: OpenJDK Runtime Environment
JVM: OpenJDK 64-Bit Server VM
Default Encoding: ISO-8859-1
Language: en
Country: US
--></g></svg>