<?xml version="1.0" encoding="UTF-8" standalone="no"?><svg xmlns="http://www.w3.org/2000/svg" xmlns:xlink="http://www.w3.org/1999/xlink" contentScriptType="application/ecmascript" contentStyleType="text/css" height="532px" preserveAspectRatio="none" style="width:212px;height:532px;" version="1.1" viewBox="0 0 212 532" width="212px" zoomAndPan="magnify"><defs><filter height="300%" id="ftph5do38nmax" width="300%" x="-1" y="-1"><feGaussianBlur result="blurOut" stdDeviation="2.0"/><feColorMatrix in="blurOut" result="blurOut2" type="matrix" values="0 0 0 0 0 0 0 0 0 0 0 0 0 0 0 0 0 0 .4 0"/><feOffset dx="4.0" dy="4.0" in="blurOut2" result="blurOut3"/><feBlend in="SourceGraphic" in2="blurOut3" mode="normal"/></filter></defs><g><!--MD5=[889525efa4e3ca98a2fc8d25461cc82b]
class org.apache.wiki.event.WikiPageEvent--><a href="WikiPageEvent.html" target="_top" title="WikiPageEvent.html" xlink:actuate="onRequest" xlink:href="WikiPageEvent.html" xlink:show="new" xlink:title="WikiPageEvent.html" xlink:type="simple"><rect codeLine="5" fill="#FEFECE" filter="url(#ftph5do38nmax)" height="388.25" id="org.apache.wiki.event.WikiPageEvent" style="stroke: #A80036; stroke-width: 1.5;" width="186" x="7" y="107"/><ellipse cx="44.95" cy="127.0938" fill="#ADD1B2" rx="11" ry="11" style="stroke: #A80036; stroke-width: 1.0;"/><path d="M47.7156,122.9688 Q47.8719,122.75 48.0594,122.6406 Q48.2469,122.5313 48.4656,122.5313 Q48.8406,122.5313 49.075,122.7969 Q49.3094,123.0469 49.3094,123.6563 L49.3094,125.1094 Q49.3094,125.7188 49.075,125.9844 Q48.8406,126.25 48.4656,126.25 Q48.1219,126.25 47.9188,126.0469 Q47.7156,125.8594 47.6063,125.3438 Q47.5594,124.9844 47.3719,124.7969 Q47.0438,124.4219 46.4344,124.2031 Q45.825,123.9844 45.2,123.9844 Q44.4344,123.9844 43.7938,124.3125 Q43.1688,124.6406 42.6688,125.3906 Q42.1844,126.1406 42.1844,127.1719 L42.1844,128.2656 Q42.1844,129.5 43.075,130.3281 Q43.9656,131.1406 45.5594,131.1406 Q46.4969,131.1406 47.1531,130.8906 Q47.5438,130.7344 47.9656,130.2969 Q48.2313,130.0313 48.3719,129.9531 Q48.5281,129.875 48.7313,129.875 Q49.0594,129.875 49.3094,130.1406 Q49.575,130.3906 49.575,130.7344 Q49.575,131.0781 49.2313,131.4844 Q48.7313,132.0625 47.9344,132.3906 Q46.8563,132.8438 45.5594,132.8438 Q44.0438,132.8438 42.8406,132.2188 Q41.8563,131.7188 41.1688,130.6563 Q40.4813,129.5781 40.4813,128.2969 L40.4813,127.1406 Q40.4813,125.8125 41.0906,124.6719 Q41.7156,123.5156 42.8094,122.9063 Q43.9031,122.2813 45.1375,122.2813 Q45.8719,122.2813 46.5125,122.4531 Q47.1688,122.6094 47.7156,122.9688 Z "/><text fill="#000000" font-family="sans-serif" font-size="14" lengthAdjust="spacingAndGlyphs" textLength="95" x="68.05" y="126.5332">WikiPageEvent</text><text fill="#000000" font-family="sans-serif" font-size="10" lengthAdjust="spacingAndGlyphs" textLength="103" x="64.05" y="139.9902">org.apache.wiki.event</text><line style="stroke: #A80036; stroke-width: 1.5;" x1="8" x2="192" y1="147.1875" y2="147.1875"/><ellipse cx="18" cy="158.1875" fill="none" rx="3" ry="3" style="stroke: #038048; stroke-width: 1.0;"/><text fill="#000000" font-family="sans-serif" font-size="11" lengthAdjust="spacingAndGlyphs" text-decoration="underline" textLength="79" x="27" y="162.6064">PAGE_LOCK: int</text><ellipse cx="18" cy="172.0234" fill="none" rx="3" ry="3" style="stroke: #038048; stroke-width: 1.0;"/><text fill="#000000" font-family="sans-serif" font-size="11" lengthAdjust="spacingAndGlyphs" text-decoration="underline" textLength="93" x="27" y="176.4424">PAGE_UNLOCK: int</text><ellipse cx="18" cy="185.8594" fill="none" rx="3" ry="3" style="stroke: #038048; stroke-width: 1.0;"/><text fill="#000000" font-family="sans-serif" font-size="11" lengthAdjust="spacingAndGlyphs" text-decoration="underline" textLength="139" x="27" y="190.2783">PRE_TRANSLATE_BEGIN: int</text><ellipse cx="18" cy="199.6953" fill="none" rx="3" ry="3" style="stroke: #038048; stroke-width: 1.0;"/><text fill="#000000" font-family="sans-serif" font-size="11" lengthAdjust="spacingAndGlyphs" text-decoration="underline" textLength="103" x="27" y="204.1143">PRE_TRANSLATE: int</text><ellipse cx="18" cy="213.5313" fill="none" rx="3" ry="3" style="stroke: #038048; stroke-width: 1.0;"/><text fill="#000000" font-family="sans-serif" font-size="11" lengthAdjust="spacingAndGlyphs" text-decoration="underline" textLength="129" x="27" y="217.9502">PRE_TRANSLATE_END: int</text><ellipse cx="18" cy="227.3672" fill="none" rx="3" ry="3" style="stroke: #038048; stroke-width: 1.0;"/><text fill="#000000" font-family="sans-serif" font-size="11" lengthAdjust="spacingAndGlyphs" text-decoration="underline" textLength="147" x="27" y="231.7861">POST_TRANSLATE_BEGIN: int</text><ellipse cx="18" cy="241.2031" fill="none" rx="3" ry="3" style="stroke: #038048; stroke-width: 1.0;"/><text fill="#000000" font-family="sans-serif" font-size="11" lengthAdjust="spacingAndGlyphs" text-decoration="underline" textLength="111" x="27" y="245.6221">POST_TRANSLATE: int</text><ellipse cx="18" cy="255.0391" fill="none" rx="3" ry="3" style="stroke: #038048; stroke-width: 1.0;"/><text fill="#000000" font-family="sans-serif" font-size="11" lengthAdjust="spacingAndGlyphs" text-decoration="underline" textLength="137" x="27" y="259.458">POST_TRANSLATE_END: int</text><ellipse cx="18" cy="268.875" fill="none" rx="3" ry="3" style="stroke: #038048; stroke-width: 1.0;"/><text fill="#000000" font-family="sans-serif" font-size="11" lengthAdjust="spacingAndGlyphs" text-decoration="underline" textLength="107" x="27" y="273.2939">PRE_SAVE_BEGIN: int</text><ellipse cx="18" cy="282.7109" fill="none" rx="3" ry="3" style="stroke: #038048; stroke-width: 1.0;"/><text fill="#000000" font-family="sans-serif" font-size="11" lengthAdjust="spacingAndGlyphs" text-decoration="underline" textLength="71" x="27" y="287.1299">PRE_SAVE: int</text><ellipse cx="18" cy="296.5469" fill="none" rx="3" ry="3" style="stroke: #038048; stroke-width: 1.0;"/><text fill="#000000" font-family="sans-serif" font-size="11" lengthAdjust="spacingAndGlyphs" text-decoration="underline" textLength="97" x="27" y="300.9658">PRE_SAVE_END: int</text><ellipse cx="18" cy="310.3828" fill="none" rx="3" ry="3" style="stroke: #038048; stroke-width: 1.0;"/><text fill="#000000" font-family="sans-serif" font-size="11" lengthAdjust="spacingAndGlyphs" text-decoration="underline" textLength="115" x="27" y="314.8018">POST_SAVE_BEGIN: int</text><ellipse cx="18" cy="324.2188" fill="none" rx="3" ry="3" style="stroke: #038048; stroke-width: 1.0;"/><text fill="#000000" font-family="sans-serif" font-size="11" lengthAdjust="spacingAndGlyphs" text-decoration="underline" textLength="79" x="27" y="328.6377">POST_SAVE: int</text><ellipse cx="18" cy="338.0547" fill="none" rx="3" ry="3" style="stroke: #038048; stroke-width: 1.0;"/><text fill="#000000" font-family="sans-serif" font-size="11" lengthAdjust="spacingAndGlyphs" text-decoration="underline" textLength="105" x="27" y="342.4736">POST_SAVE_END: int</text><ellipse cx="18" cy="351.8906" fill="none" rx="3" ry="3" style="stroke: #038048; stroke-width: 1.0;"/><text fill="#000000" font-family="sans-serif" font-size="11" lengthAdjust="spacingAndGlyphs" text-decoration="underline" textLength="111" x="27" y="356.3096">PAGE_REQUESTED: int</text><ellipse cx="18" cy="365.7266" fill="none" rx="3" ry="3" style="stroke: #038048; stroke-width: 1.0;"/><text fill="#000000" font-family="sans-serif" font-size="11" lengthAdjust="spacingAndGlyphs" text-decoration="underline" textLength="106" x="27" y="370.1455">PAGE_DELIVERED: int</text><ellipse cx="18" cy="379.5625" fill="none" rx="3" ry="3" style="stroke: #038048; stroke-width: 1.0;"/><text fill="#000000" font-family="sans-serif" font-size="11" lengthAdjust="spacingAndGlyphs" text-decoration="underline" textLength="141" x="27" y="383.9814">PAGE_DELETE_REQUEST: int</text><ellipse cx="18" cy="393.3984" fill="none" rx="3" ry="3" style="stroke: #038048; stroke-width: 1.0;"/><text fill="#000000" font-family="sans-serif" font-size="11" lengthAdjust="spacingAndGlyphs" text-decoration="underline" textLength="95" x="27" y="397.8174">PAGE_DELETED: int</text><ellipse cx="18" cy="407.2344" fill="none" rx="3" ry="3" style="stroke: #038048; stroke-width: 1.0;"/><text fill="#000000" font-family="sans-serif" font-size="11" lengthAdjust="spacingAndGlyphs" text-decoration="underline" textLength="93" x="27" y="411.6533">PAGE_REINDEX: int</text><line style="stroke: #A80036; stroke-width: 1.5;" x1="8" x2="192" y1="418.0703" y2="418.0703"/><ellipse cx="18" cy="429.0703" fill="#84BE84" rx="3" ry="3" style="stroke: #038048; stroke-width: 1.0;"/><text fill="#000000" font-family="sans-serif" font-size="11" lengthAdjust="spacingAndGlyphs" textLength="160" x="27" y="433.4893">WikiPageEvent(Object, int, String)</text><ellipse cx="18" cy="442.9063" fill="#84BE84" rx="3" ry="3" style="stroke: #038048; stroke-width: 1.0;"/><text fill="#000000" font-family="sans-serif" font-size="11" lengthAdjust="spacingAndGlyphs" textLength="108" x="27" y="447.3252">getPageName(): String</text><ellipse cx="18" cy="456.7422" fill="#84BE84" rx="3" ry="3" style="stroke: #038048; stroke-width: 1.0;"/><text fill="#000000" font-family="sans-serif" font-size="11" lengthAdjust="spacingAndGlyphs" text-decoration="underline" textLength="119" x="27" y="461.1611">isValidType(int): boolean</text><ellipse cx="18" cy="470.5781" fill="#84BE84" rx="3" ry="3" style="stroke: #038048; stroke-width: 1.0;"/><text fill="#000000" font-family="sans-serif" font-size="11" lengthAdjust="spacingAndGlyphs" textLength="96" x="27" y="474.9971">eventName(): String</text><ellipse cx="18" cy="484.4141" fill="#84BE84" rx="3" ry="3" style="stroke: #038048; stroke-width: 1.0;"/><text fill="#000000" font-family="sans-serif" font-size="11" lengthAdjust="spacingAndGlyphs" textLength="135" x="27" y="488.833">getTypeDescription(): String</text></a><!--MD5=[d2cc3a35dd189502b7ca97d9a282f202]
class org.apache.wiki.event.WikiEvent--><a href="WikiEvent.html" target="_top" title="WikiEvent.html" xlink:actuate="onRequest" xlink:href="WikiEvent.html" xlink:show="new" xlink:title="WikiEvent.html" xlink:type="simple"><rect codeLine="32" fill="#FEFECE" filter="url(#ftph5do38nmax)" height="40.1875" id="org.apache.wiki.event.WikiEvent" style="stroke: #A80036; stroke-width: 1.5;" width="136" x="32" y="7"/><ellipse cx="47" cy="27.0938" fill="#A9DCDF" rx="11" ry="11" style="stroke: #A80036; stroke-width: 1.0;"/><path d="M49.1875,28.8594 L45.0469,28.8594 L44.625,29.8906 L45.0469,29.8906 Q45.6563,29.8906 45.9219,30.125 Q46.1875,30.3594 46.1875,30.75 Q46.1875,31.125 45.9219,31.3594 Q45.6563,31.5938 45.0469,31.5938 L42.75,31.5938 Q42.1406,31.5938 41.8906,31.3594 Q41.625,31.125 41.625,30.7344 Q41.625,30.3594 41.9063,30.125 Q42.1719,29.875 42.7969,29.8906 L45.4688,23.2344 L44.3594,23.2344 Q43.75,23.2344 43.4844,23 Q43.2188,22.7656 43.2188,22.375 Q43.2188,22 43.4844,21.7656 Q43.75,21.5313 44.3594,21.5313 L48.0313,21.5313 L51.4219,29.8906 Q52.0156,29.8906 52.2031,30.0313 Q52.5938,30.2969 52.5938,30.75 Q52.5938,31.125 52.3281,31.3594 Q52.0781,31.5938 51.4688,31.5938 L49.1719,31.5938 Q48.5625,31.5938 48.2969,31.3594 Q48.0313,31.125 48.0313,30.7344 Q48.0313,30.3594 48.2969,30.125 Q48.5625,29.8906 49.1719,29.8906 L49.5938,29.8906 L49.1875,28.8594 Z M48.4688,27.1563 L47.1094,23.7813 L45.7344,27.1563 L48.4688,27.1563 Z "/><text fill="#000000" font-family="sans-serif" font-size="14" font-style="italic" lengthAdjust="spacingAndGlyphs" textLength="63" x="81.5" y="26.5332">WikiEvent</text><text fill="#000000" font-family="sans-serif" font-size="10" font-style="italic" lengthAdjust="spacingAndGlyphs" textLength="104" x="61" y="39.9902">org.apache.wiki.event</text></a><!--MD5=[ed499d9a036367b2681cc1d2e015ac9c]
reverse link org.apache.wiki.event.WikiEvent to org.apache.wiki.event.WikiPageEvent--><path codeLine="34" d="M100,67.4557 C100,79.0383 100,92.4931 100,106.9837 " fill="none" id="org.apache.wiki.event.WikiEvent-backto-org.apache.wiki.event.WikiPageEvent" style="stroke: #A80036; stroke-width: 1.0;"/><polygon fill="none" points="93.0001,67.1479,100,47.1479,107.0001,67.1478,93.0001,67.1479" style="stroke: #A80036; stroke-width: 1.0;"/><text fill="#888888" font-family="sans-serif" font-size="10" lengthAdjust="spacingAndGlyphs" textLength="190" x="2" y="518.6309">UMLDoclet 2.0.12, PlantUML 1.2020.16</text><!--MD5=[d4f9f9d2f8f7be3e94c5f209526f99c7]
@startuml
    set namespaceSeparator none
    hide empty fields
    hide empty methods

    class "<size:14>WikiPageEvent\n<size:10>org.apache.wiki.event" as org.apache.wiki.event.WikiPageEvent [[WikiPageEvent.html]] {
        {static} +PAGE_LOCK: int
        {static} +PAGE_UNLOCK: int
        {static} +PRE_TRANSLATE_BEGIN: int
        {static} +PRE_TRANSLATE: int
        {static} +PRE_TRANSLATE_END: int
        {static} +POST_TRANSLATE_BEGIN: int
        {static} +POST_TRANSLATE: int
        {static} +POST_TRANSLATE_END: int
        {static} +PRE_SAVE_BEGIN: int
        {static} +PRE_SAVE: int
        {static} +PRE_SAVE_END: int
        {static} +POST_SAVE_BEGIN: int
        {static} +POST_SAVE: int
        {static} +POST_SAVE_END: int
        {static} +PAGE_REQUESTED: int
        {static} +PAGE_DELIVERED: int
        {static} +PAGE_DELETE_REQUEST: int
        {static} +PAGE_DELETED: int
        {static} +PAGE_REINDEX: int
        +WikiPageEvent(Object, int, String)
        +getPageName(): String
        {static} +isValidType(int): boolean
        +eventName(): String
        +getTypeDescription(): String
    }

    abstract class "<size:14>WikiEvent\n<size:10>org.apache.wiki.event" as org.apache.wiki.event.WikiEvent [[WikiEvent.html]]

    org.apache.wiki.event.WikiEvent <|- - org.apache.wiki.event.WikiPageEvent

    center footer UMLDoclet 2.0.12, PlantUML 1.2020.16
@enduml

PlantUML version 1.2020.16(Sun Aug 23 22:20:43 CEST 2020)
(APACHE source distribution)
Java Runtime: OpenJDK Runtime Environment
JVM: OpenJDK 64-Bit Server VM
Default Encoding: Cp1252
Language: es
Country: ES
--></g></svg>