<?xml version="1.0" encoding="UTF-8" standalone="no"?><svg xmlns="http://www.w3.org/2000/svg" xmlns:xlink="http://www.w3.org/1999/xlink" contentScriptType="application/ecmascript" contentStyleType="text/css" height="531px" preserveAspectRatio="none" style="width:1482px;height:531px;" version="1.1" viewBox="0 0 1482 531" width="1482px" zoomAndPan="magnify"><defs><filter height="300%" id="f1v4ucc6qn3hxy" width="300%" x="-1" y="-1"><feGaussianBlur result="blurOut" stdDeviation="2.0"/><feColorMatrix in="blurOut" result="blurOut2" type="matrix" values="0 0 0 0 0 0 0 0 0 0 0 0 0 0 0 0 0 0 .4 0"/><feOffset dx="4.0" dy="4.0" in="blurOut2" result="blurOut3"/><feBlend in="SourceGraphic" in2="blurOut3" mode="normal"/></filter></defs><g><!--MD5=[033be043fb277336b8890b347fde2a9a]
cluster org.apache.wiki.api.exceptions--><polygon fill="#FFFFFF" filter="url(#f1v4ucc6qn3hxy)" points="16,114,267,114,274,136.2969,1460,136.2969,1460,503,16,503,16,114" style="stroke: #000000; stroke-width: 1.5;"/><line style="stroke: #000000; stroke-width: 1.5;" x1="16" x2="274" y1="136.2969" y2="136.2969"/><text fill="#000000" font-family="sans-serif" font-size="14" font-weight="bold" lengthAdjust="spacingAndGlyphs" textLength="245" x="20" y="128.9951">org.apache.wiki.api.exceptions</text><!--MD5=[aa8f7b917213fcc1c2766e2d59b49067]
cluster java.lang--><polygon fill="#FFFFFF" filter="url(#f1v4ucc6qn3hxy)" points="631,6,706,6,713,28.2969,739,28.2969,739,89,631,89,631,6" style="stroke: #000000; stroke-width: 1.5;"/><line style="stroke: #000000; stroke-width: 1.5;" x1="631" x2="713" y1="28.2969" y2="28.2969"/><text fill="#000000" font-family="sans-serif" font-size="14" font-weight="bold" lengthAdjust="spacingAndGlyphs" textLength="69" x="635" y="20.9951">java.lang</text><!--MD5=[24a53e4790a197f300953d98b1392050]
class org.apache.wiki.api.exceptions.RedirectException--><a href="RedirectException.html" target="_top" title="RedirectException.html" xlink:actuate="onRequest" xlink:href="RedirectException.html" xlink:show="new" xlink:title="RedirectException.html" xlink:type="simple"><rect codeLine="3" fill="#FEFECE" filter="url(#f1v4ucc6qn3hxy)" height="73.6094" id="org.apache.wiki.api.exceptions.RedirectException" style="stroke: #A80036; stroke-width: 1.5;" width="210" x="252" y="421"/><ellipse cx="296.25" cy="437" fill="#ADD1B2" rx="11" ry="11" style="stroke: #A80036; stroke-width: 1.0;"/><path d="M299.2188,442.6406 Q298.6406,442.9375 298,443.0781 Q297.3594,443.2344 296.6563,443.2344 Q294.1563,443.2344 292.8281,441.5938 Q291.5156,439.9375 291.5156,436.8125 Q291.5156,433.6875 292.8281,432.0313 Q294.1563,430.375 296.6563,430.375 Q297.3594,430.375 298,430.5313 Q298.6563,430.6875 299.2188,430.9844 L299.2188,433.7031 Q298.5938,433.125 298,432.8594 Q297.4063,432.5781 296.7813,432.5781 Q295.4375,432.5781 294.75,433.6563 Q294.0625,434.7188 294.0625,436.8125 Q294.0625,438.9063 294.75,439.9844 Q295.4375,441.0469 296.7813,441.0469 Q297.4063,441.0469 298,440.7813 Q298.5938,440.5 299.2188,439.9219 L299.2188,442.6406 Z "/><text fill="#000000" font-family="sans-serif" font-size="12" lengthAdjust="spacingAndGlyphs" textLength="113" x="316.75" y="441.1543">RedirectException</text><line style="stroke: #A80036; stroke-width: 1.5;" x1="253" x2="461" y1="453" y2="453"/><line style="stroke: #A80036; stroke-width: 1.5;" x1="253" x2="461" y1="461" y2="461"/><ellipse cx="263" cy="472" fill="#84BE84" rx="3" ry="3" style="stroke: #038048; stroke-width: 1.0;"/><text fill="#000000" font-family="sans-serif" font-size="11" lengthAdjust="spacingAndGlyphs" textLength="184" x="272" y="475.2104">RedirectException(String, String)</text><ellipse cx="263" cy="484.8047" fill="#84BE84" rx="3" ry="3" style="stroke: #038048; stroke-width: 1.0;"/><text fill="#000000" font-family="sans-serif" font-size="11" lengthAdjust="spacingAndGlyphs" textLength="114" x="272" y="488.0151">getRedirect(): String</text></a><!--MD5=[676e832b30a9eebd8a3177baabd07280]
class org.apache.wiki.api.exceptions.WikiI18nException--><a href="WikiI18nException.html" target="_top" title="WikiI18nException.html" xlink:actuate="onRequest" xlink:href="WikiI18nException.html" xlink:show="new" xlink:title="WikiI18nException.html" xlink:type="simple"><rect codeLine="8" fill="#FEFECE" filter="url(#f1v4ucc6qn3hxy)" height="86.4141" id="org.apache.wiki.api.exceptions.WikiI18nException" style="stroke: #A80036; stroke-width: 1.5;" width="223" x="23.5" y="275"/><ellipse cx="74.75" cy="291" fill="#ADD1B2" rx="11" ry="11" style="stroke: #A80036; stroke-width: 1.0;"/><path d="M77.7188,296.6406 Q77.1406,296.9375 76.5,297.0781 Q75.8594,297.2344 75.1563,297.2344 Q72.6563,297.2344 71.3281,295.5938 Q70.0156,293.9375 70.0156,290.8125 Q70.0156,287.6875 71.3281,286.0313 Q72.6563,284.375 75.1563,284.375 Q75.8594,284.375 76.5,284.5313 Q77.1563,284.6875 77.7188,284.9844 L77.7188,287.7031 Q77.0938,287.125 76.5,286.8594 Q75.9063,286.5781 75.2813,286.5781 Q73.9375,286.5781 73.25,287.6563 Q72.5625,288.7188 72.5625,290.8125 Q72.5625,292.9063 73.25,293.9844 Q73.9375,295.0469 75.2813,295.0469 Q75.9063,295.0469 76.5,294.7813 Q77.0938,294.5 77.7188,293.9219 L77.7188,296.6406 Z "/><text fill="#000000" font-family="sans-serif" font-size="12" lengthAdjust="spacingAndGlyphs" textLength="112" x="95.25" y="295.1543">WikiI18nException</text><line style="stroke: #A80036; stroke-width: 1.5;" x1="24.5" x2="245.5" y1="307" y2="307"/><polygon fill="none" points="34.5,313,38.5,317,34.5,321,30.5,317" style="stroke: #B38D22; stroke-width: 1.0;"/><text fill="#000000" font-family="sans-serif" font-size="11" lengthAdjust="spacingAndGlyphs" textLength="78" x="43.5" y="321.2104">args: Object[]</text><line style="stroke: #A80036; stroke-width: 1.5;" x1="24.5" x2="245.5" y1="327.8047" y2="327.8047"/><ellipse cx="34.5" cy="338.8047" fill="#84BE84" rx="3" ry="3" style="stroke: #038048; stroke-width: 1.0;"/><text fill="#000000" font-family="sans-serif" font-size="11" lengthAdjust="spacingAndGlyphs" textLength="197" x="43.5" y="342.0151">WikiI18nException(String, Object...)</text><ellipse cx="34.5" cy="351.6094" fill="#84BE84" rx="3" ry="3" style="stroke: #038048; stroke-width: 1.0;"/><text fill="#000000" font-family="sans-serif" font-size="11" lengthAdjust="spacingAndGlyphs" textLength="104" x="43.5" y="354.8198">getArgs(): Object[]</text></a><!--MD5=[7b3401d984463d04818fd1f6037aaa8a]
class org.apache.wiki.api.exceptions.FilterException--><a href="FilterException.html" target="_top" title="FilterException.html" xlink:actuate="onRequest" xlink:href="FilterException.html" xlink:show="new" xlink:title="FilterException.html" xlink:type="simple"><rect codeLine="14" fill="#FEFECE" filter="url(#f1v4ucc6qn3hxy)" height="60.8047" id="org.apache.wiki.api.exceptions.FilterException" style="stroke: #A80036; stroke-width: 1.5;" width="150" x="282" y="287.5"/><ellipse cx="308.7" cy="303.5" fill="#ADD1B2" rx="11" ry="11" style="stroke: #A80036; stroke-width: 1.0;"/><path d="M311.6688,309.1406 Q311.0906,309.4375 310.45,309.5781 Q309.8094,309.7344 309.1063,309.7344 Q306.6063,309.7344 305.2781,308.0938 Q303.9656,306.4375 303.9656,303.3125 Q303.9656,300.1875 305.2781,298.5313 Q306.6063,296.875 309.1063,296.875 Q309.8094,296.875 310.45,297.0313 Q311.1063,297.1875 311.6688,297.4844 L311.6688,300.2031 Q311.0438,299.625 310.45,299.3594 Q309.8563,299.0781 309.2313,299.0781 Q307.8875,299.0781 307.2,300.1563 Q306.5125,301.2188 306.5125,303.3125 Q306.5125,305.4063 307.2,306.4844 Q307.8875,307.5469 309.2313,307.5469 Q309.8563,307.5469 310.45,307.2813 Q311.0438,307 311.6688,306.4219 L311.6688,309.1406 Z "/><text fill="#000000" font-family="sans-serif" font-size="12" lengthAdjust="spacingAndGlyphs" textLength="92" x="325.3" y="307.6543">FilterException</text><line style="stroke: #A80036; stroke-width: 1.5;" x1="283" x2="431" y1="319.5" y2="319.5"/><line style="stroke: #A80036; stroke-width: 1.5;" x1="283" x2="431" y1="327.5" y2="327.5"/><ellipse cx="293" cy="338.5" fill="#84BE84" rx="3" ry="3" style="stroke: #038048; stroke-width: 1.0;"/><text fill="#000000" font-family="sans-serif" font-size="11" lengthAdjust="spacingAndGlyphs" textLength="124" x="302" y="341.7104">FilterException(String)</text></a><!--MD5=[fe642f6a06a6f958bbc14bfb47242453]
class org.apache.wiki.api.exceptions.NoSuchVariableException--><a href="NoSuchVariableException.html" target="_top" title="NoSuchVariableException.html" xlink:actuate="onRequest" xlink:href="NoSuchVariableException.html" xlink:show="new" xlink:title="NoSuchVariableException.html" xlink:type="simple"><rect codeLine="18" fill="#FEFECE" filter="url(#f1v4ucc6qn3hxy)" height="60.8047" id="org.apache.wiki.api.exceptions.NoSuchVariableException" style="stroke: #A80036; stroke-width: 1.5;" width="211" x="467.5" y="287.5"/><ellipse cx="491.05" cy="303.5" fill="#ADD1B2" rx="11" ry="11" style="stroke: #A80036; stroke-width: 1.0;"/><path d="M494.0188,309.1406 Q493.4406,309.4375 492.8,309.5781 Q492.1594,309.7344 491.4563,309.7344 Q488.9563,309.7344 487.6281,308.0938 Q486.3156,306.4375 486.3156,303.3125 Q486.3156,300.1875 487.6281,298.5313 Q488.9563,296.875 491.4563,296.875 Q492.1594,296.875 492.8,297.0313 Q493.4563,297.1875 494.0188,297.4844 L494.0188,300.2031 Q493.3938,299.625 492.8,299.3594 Q492.2063,299.0781 491.5813,299.0781 Q490.2375,299.0781 489.55,300.1563 Q488.8625,301.2188 488.8625,303.3125 Q488.8625,305.4063 489.55,306.4844 Q490.2375,307.5469 491.5813,307.5469 Q492.2063,307.5469 492.8,307.2813 Q493.3938,307 494.0188,306.4219 L494.0188,309.1406 Z "/><text fill="#000000" font-family="sans-serif" font-size="12" lengthAdjust="spacingAndGlyphs" textLength="160" x="506.95" y="307.6543">NoSuchVariableException</text><line style="stroke: #A80036; stroke-width: 1.5;" x1="468.5" x2="677.5" y1="319.5" y2="319.5"/><line style="stroke: #A80036; stroke-width: 1.5;" x1="468.5" x2="677.5" y1="327.5" y2="327.5"/><ellipse cx="478.5" cy="338.5" fill="#84BE84" rx="3" ry="3" style="stroke: #038048; stroke-width: 1.0;"/><text fill="#000000" font-family="sans-serif" font-size="11" lengthAdjust="spacingAndGlyphs" textLength="185" x="487.5" y="341.7104">NoSuchVariableException(String)</text></a><!--MD5=[6346ac6320f1e597efc440bdcfb72a27]
class org.apache.wiki.api.exceptions.ProviderException--><a href="ProviderException.html" target="_top" title="ProviderException.html" xlink:actuate="onRequest" xlink:href="ProviderException.html" xlink:show="new" xlink:title="ProviderException.html" xlink:type="simple"><rect codeLine="22" fill="#FEFECE" filter="url(#f1v4ucc6qn3hxy)" height="60.8047" id="org.apache.wiki.api.exceptions.ProviderException" style="stroke: #A80036; stroke-width: 1.5;" width="169" x="713.5" y="287.5"/><ellipse cx="739.75" cy="303.5" fill="#ADD1B2" rx="11" ry="11" style="stroke: #A80036; stroke-width: 1.0;"/><path d="M742.7188,309.1406 Q742.1406,309.4375 741.5,309.5781 Q740.8594,309.7344 740.1563,309.7344 Q737.6563,309.7344 736.3281,308.0938 Q735.0156,306.4375 735.0156,303.3125 Q735.0156,300.1875 736.3281,298.5313 Q737.6563,296.875 740.1563,296.875 Q740.8594,296.875 741.5,297.0313 Q742.1563,297.1875 742.7188,297.4844 L742.7188,300.2031 Q742.0938,299.625 741.5,299.3594 Q740.9063,299.0781 740.2813,299.0781 Q738.9375,299.0781 738.25,300.1563 Q737.5625,301.2188 737.5625,303.3125 Q737.5625,305.4063 738.25,306.4844 Q738.9375,307.5469 740.2813,307.5469 Q740.9063,307.5469 741.5,307.2813 Q742.0938,307 742.7188,306.4219 L742.7188,309.1406 Z "/><text fill="#000000" font-family="sans-serif" font-size="12" lengthAdjust="spacingAndGlyphs" textLength="112" x="756.25" y="307.6543">ProviderException</text><line style="stroke: #A80036; stroke-width: 1.5;" x1="714.5" x2="881.5" y1="319.5" y2="319.5"/><line style="stroke: #A80036; stroke-width: 1.5;" x1="714.5" x2="881.5" y1="327.5" y2="327.5"/><ellipse cx="724.5" cy="338.5" fill="#84BE84" rx="3" ry="3" style="stroke: #038048; stroke-width: 1.0;"/><text fill="#000000" font-family="sans-serif" font-size="11" lengthAdjust="spacingAndGlyphs" textLength="143" x="733.5" y="341.7104">ProviderException(String)</text></a><!--MD5=[51e0bd45a8d20f3becd765be19a9d68b]
class org.apache.wiki.api.exceptions.WikiException--><a href="WikiException.html" target="_top" title="WikiException.html" xlink:actuate="onRequest" xlink:href="WikiException.html" xlink:show="new" xlink:title="WikiException.html" xlink:type="simple"><rect codeLine="26" fill="#FEFECE" filter="url(#f1v4ucc6qn3hxy)" height="73.6094" id="org.apache.wiki.api.exceptions.WikiException" style="stroke: #A80036; stroke-width: 1.5;" width="210" x="580" y="141"/><ellipse cx="638.25" cy="157" fill="#ADD1B2" rx="11" ry="11" style="stroke: #A80036; stroke-width: 1.0;"/><path d="M641.2188,162.6406 Q640.6406,162.9375 640,163.0781 Q639.3594,163.2344 638.6563,163.2344 Q636.1563,163.2344 634.8281,161.5938 Q633.5156,159.9375 633.5156,156.8125 Q633.5156,153.6875 634.8281,152.0313 Q636.1563,150.375 638.6563,150.375 Q639.3594,150.375 640,150.5313 Q640.6563,150.6875 641.2188,150.9844 L641.2188,153.7031 Q640.5938,153.125 640,152.8594 Q639.4063,152.5781 638.7813,152.5781 Q637.4375,152.5781 636.75,153.6563 Q636.0625,154.7188 636.0625,156.8125 Q636.0625,158.9063 636.75,159.9844 Q637.4375,161.0469 638.7813,161.0469 Q639.4063,161.0469 640,160.7813 Q640.5938,160.5 641.2188,159.9219 L641.2188,162.6406 Z "/><text fill="#000000" font-family="sans-serif" font-size="12" lengthAdjust="spacingAndGlyphs" textLength="85" x="658.75" y="161.1543">WikiException</text><line style="stroke: #A80036; stroke-width: 1.5;" x1="581" x2="789" y1="173" y2="173"/><line style="stroke: #A80036; stroke-width: 1.5;" x1="581" x2="789" y1="181" y2="181"/><ellipse cx="591" cy="192" fill="#84BE84" rx="3" ry="3" style="stroke: #038048; stroke-width: 1.0;"/><text fill="#000000" font-family="sans-serif" font-size="11" lengthAdjust="spacingAndGlyphs" textLength="117" x="600" y="195.2104">WikiException(String)</text><ellipse cx="591" cy="204.8047" fill="#84BE84" rx="3" ry="3" style="stroke: #038048; stroke-width: 1.0;"/><text fill="#000000" font-family="sans-serif" font-size="11" lengthAdjust="spacingAndGlyphs" textLength="184" x="600" y="208.0151">WikiException(String, Throwable)</text></a><!--MD5=[86cdede55c62ee6e2c64f60e4ecc29af]
class org.apache.wiki.api.exceptions.NoRequiredPropertyException--><a href="NoRequiredPropertyException.html" target="_top" title="NoRequiredPropertyException.html" xlink:actuate="onRequest" xlink:href="NoRequiredPropertyException.html" xlink:show="new" xlink:title="NoRequiredPropertyException.html" xlink:type="simple"><rect codeLine="31" fill="#FEFECE" filter="url(#f1v4ucc6qn3hxy)" height="60.8047" id="org.apache.wiki.api.exceptions.NoRequiredPropertyException" style="stroke: #A80036; stroke-width: 1.5;" width="277" x="917.5" y="287.5"/><ellipse cx="958.6" cy="303.5" fill="#ADD1B2" rx="11" ry="11" style="stroke: #A80036; stroke-width: 1.0;"/><path d="M961.5688,309.1406 Q960.9906,309.4375 960.35,309.5781 Q959.7094,309.7344 959.0063,309.7344 Q956.5063,309.7344 955.1781,308.0938 Q953.8656,306.4375 953.8656,303.3125 Q953.8656,300.1875 955.1781,298.5313 Q956.5063,296.875 959.0063,296.875 Q959.7094,296.875 960.35,297.0313 Q961.0063,297.1875 961.5688,297.4844 L961.5688,300.2031 Q960.9438,299.625 960.35,299.3594 Q959.7563,299.0781 959.1313,299.0781 Q957.7875,299.0781 957.1,300.1563 Q956.4125,301.2188 956.4125,303.3125 Q956.4125,305.4063 957.1,306.4844 Q957.7875,307.5469 959.1313,307.5469 Q959.7563,307.5469 960.35,307.2813 Q960.9438,307 961.5688,306.4219 L961.5688,309.1406 Z "/><text fill="#000000" font-family="sans-serif" font-size="12" lengthAdjust="spacingAndGlyphs" textLength="187" x="978.4" y="307.6543">NoRequiredPropertyException</text><line style="stroke: #A80036; stroke-width: 1.5;" x1="918.5" x2="1193.5" y1="319.5" y2="319.5"/><line style="stroke: #A80036; stroke-width: 1.5;" x1="918.5" x2="1193.5" y1="327.5" y2="327.5"/><ellipse cx="928.5" cy="338.5" fill="#84BE84" rx="3" ry="3" style="stroke: #038048; stroke-width: 1.0;"/><text fill="#000000" font-family="sans-serif" font-size="11" lengthAdjust="spacingAndGlyphs" textLength="251" x="937.5" y="341.7104">NoRequiredPropertyException(String, String)</text></a><!--MD5=[537623f78fe54ea63d01296e26bbd90b]
class org.apache.wiki.api.exceptions.PluginException--><a href="PluginException.html" target="_top" title="PluginException.html" xlink:actuate="onRequest" xlink:href="PluginException.html" xlink:show="new" xlink:title="PluginException.html" xlink:type="simple"><rect codeLine="35" fill="#FEFECE" filter="url(#f1v4ucc6qn3hxy)" height="86.4141" id="org.apache.wiki.api.exceptions.PluginException" style="stroke: #A80036; stroke-width: 1.5;" width="223" x="1229.5" y="275"/><ellipse cx="1287.25" cy="291" fill="#ADD1B2" rx="11" ry="11" style="stroke: #A80036; stroke-width: 1.0;"/><path d="M1290.2188,296.6406 Q1289.6406,296.9375 1289,297.0781 Q1288.3594,297.2344 1287.6563,297.2344 Q1285.1563,297.2344 1283.8281,295.5938 Q1282.5156,293.9375 1282.5156,290.8125 Q1282.5156,287.6875 1283.8281,286.0313 Q1285.1563,284.375 1287.6563,284.375 Q1288.3594,284.375 1289,284.5313 Q1289.6563,284.6875 1290.2188,284.9844 L1290.2188,287.7031 Q1289.5938,287.125 1289,286.8594 Q1288.4063,286.5781 1287.7813,286.5781 Q1286.4375,286.5781 1285.75,287.6563 Q1285.0625,288.7188 1285.0625,290.8125 Q1285.0625,292.9063 1285.75,293.9844 Q1286.4375,295.0469 1287.7813,295.0469 Q1288.4063,295.0469 1289,294.7813 Q1289.5938,294.5 1290.2188,293.9219 L1290.2188,296.6406 Z "/><text fill="#000000" font-family="sans-serif" font-size="12" lengthAdjust="spacingAndGlyphs" textLength="99" x="1307.75" y="295.1543">PluginException</text><line style="stroke: #A80036; stroke-width: 1.5;" x1="1230.5" x2="1451.5" y1="307" y2="307"/><line style="stroke: #A80036; stroke-width: 1.5;" x1="1230.5" x2="1451.5" y1="315" y2="315"/><ellipse cx="1240.5" cy="326" fill="#84BE84" rx="3" ry="3" style="stroke: #038048; stroke-width: 1.0;"/><text fill="#000000" font-family="sans-serif" font-size="11" lengthAdjust="spacingAndGlyphs" textLength="130" x="1249.5" y="329.2104">PluginException(String)</text><ellipse cx="1240.5" cy="338.8047" fill="#84BE84" rx="3" ry="3" style="stroke: #038048; stroke-width: 1.0;"/><text fill="#000000" font-family="sans-serif" font-size="11" lengthAdjust="spacingAndGlyphs" textLength="197" x="1249.5" y="342.0151">PluginException(String, Throwable)</text><ellipse cx="1240.5" cy="351.6094" fill="#84BE84" rx="3" ry="3" style="stroke: #038048; stroke-width: 1.0;"/><text fill="#000000" font-family="sans-serif" font-size="11" lengthAdjust="spacingAndGlyphs" textLength="177" x="1249.5" y="354.8198">getRootThrowable(): Throwable</text></a><!--MD5=[46c05dfe24a0851e179497c4631d3ff2]
class java.lang.Exception--><rect codeLine="52" fill="#FEFECE" filter="url(#f1v4ucc6qn3hxy)" height="48" id="java.lang.Exception" style="stroke: #A80036; stroke-width: 1.5;" width="93" x="638.5" y="33"/><ellipse cx="653.5" cy="49" fill="#ADD1B2" rx="11" ry="11" style="stroke: #A80036; stroke-width: 1.0;"/><path d="M656.4688,54.6406 Q655.8906,54.9375 655.25,55.0781 Q654.6094,55.2344 653.9063,55.2344 Q651.4063,55.2344 650.0781,53.5938 Q648.7656,51.9375 648.7656,48.8125 Q648.7656,45.6875 650.0781,44.0313 Q651.4063,42.375 653.9063,42.375 Q654.6094,42.375 655.25,42.5313 Q655.9063,42.6875 656.4688,42.9844 L656.4688,45.7031 Q655.8438,45.125 655.25,44.8594 Q654.6563,44.5781 654.0313,44.5781 Q652.6875,44.5781 652,45.6563 Q651.3125,46.7188 651.3125,48.8125 Q651.3125,50.9063 652,51.9844 Q652.6875,53.0469 654.0313,53.0469 Q654.6563,53.0469 655.25,52.7813 Q655.8438,52.5 656.4688,51.9219 L656.4688,54.6406 Z "/><text fill="#000000" font-family="sans-serif" font-size="12" lengthAdjust="spacingAndGlyphs" textLength="61" x="667.5" y="53.1543">Exception</text><line style="stroke: #A80036; stroke-width: 1.5;" x1="639.5" x2="730.5" y1="65" y2="65"/><line style="stroke: #A80036; stroke-width: 1.5;" x1="639.5" x2="730.5" y1="73" y2="73"/><!--MD5=[da79e2284644c267c82b4b2852046e57]
reverse link org.apache.wiki.api.exceptions.FilterException to org.apache.wiki.api.exceptions.RedirectException--><path codeLine="41" d="M357,368.9112 C357,386.1034 357,404.959 357,420.8788 " fill="none" id="org.apache.wiki.api.exceptions.FilterException-backto-org.apache.wiki.api.exceptions.RedirectException" style="stroke: #A80036; stroke-width: 1.0;"/><polygon fill="none" points="350.0001,368.7236,357,348.7236,364.0001,368.7236,350.0001,368.7236" style="stroke: #A80036; stroke-width: 1.0;"/><!--MD5=[7154bccf71731a0642a8c6a4edb907b3]
reverse link org.apache.wiki.api.exceptions.WikiException to org.apache.wiki.api.exceptions.WikiI18nException--><path codeLine="42" d="M560.2839,203.6376 C476.3262,221.6703 363.4005,247.4268 265,275 C259.0485,276.6677 252.965,278.4402 246.8376,280.279 " fill="none" id="org.apache.wiki.api.exceptions.WikiException-backto-org.apache.wiki.api.exceptions.WikiI18nException" style="stroke: #A80036; stroke-width: 1.0;"/><polygon fill="none" points="558.8748,196.7807,579.8953,199.4526,561.7966,210.4725,558.8748,196.7807" style="stroke: #A80036; stroke-width: 1.0;"/><!--MD5=[0bc9dd1b575c567de88e8c17c18850f6]
reverse link org.apache.wiki.api.exceptions.WikiException to org.apache.wiki.api.exceptions.FilterException--><path codeLine="43" d="M574.2534,222.6044 C534.8742,238.757 490.3175,257.3676 450,275 C440.9548,278.9558 431.4604,283.2175 422.1368,287.4664 " fill="none" id="org.apache.wiki.api.exceptions.WikiException-backto-org.apache.wiki.api.exceptions.FilterException" style="stroke: #A80036; stroke-width: 1.0;"/><polygon fill="none" points="571.6697,216.0984,592.8313,215.0084,576.9682,229.057,571.6697,216.0984" style="stroke: #A80036; stroke-width: 1.0;"/><!--MD5=[993e9671c3b593f7bdd3df7b08783192]
reverse link org.apache.wiki.api.exceptions.WikiException to org.apache.wiki.api.exceptions.NoSuchVariableException--><path codeLine="44" d="M642.6629,230.9214 C627.4347,249.9566 610.771,270.7862 597.5605,287.2994 " fill="none" id="org.apache.wiki.api.exceptions.WikiException-backto-org.apache.wiki.api.exceptions.NoSuchVariableException" style="stroke: #A80036; stroke-width: 1.0;"/><polygon fill="none" points="637.3201,226.3944,655.2801,215.1499,648.2523,235.1401,637.3201,226.3944" style="stroke: #A80036; stroke-width: 1.0;"/><!--MD5=[a656e25f6046074046b2742b96157540]
reverse link org.apache.wiki.api.exceptions.WikiException to org.apache.wiki.api.exceptions.ProviderException--><path codeLine="45" d="M727.7152,230.9214 C743.0792,249.9566 759.8917,270.7862 773.2202,287.2994 " fill="none" id="org.apache.wiki.api.exceptions.WikiException-backto-org.apache.wiki.api.exceptions.ProviderException" style="stroke: #A80036; stroke-width: 1.0;"/><polygon fill="none" points="722.0998,235.1095,714.9853,215.1499,732.9939,226.3163,722.0998,235.1095" style="stroke: #A80036; stroke-width: 1.0;"/><!--MD5=[eed413f56936acbb0f540fee28899af8]
reverse link java.lang.Exception to org.apache.wiki.api.exceptions.WikiException--><path codeLine="46" d="M685,101.5529 C685,114.5142 685,128.5269 685,140.9716 " fill="none" id="java.lang.Exception-backto-org.apache.wiki.api.exceptions.WikiException" style="stroke: #A80036; stroke-width: 1.0;"/><polygon fill="none" points="678.0001,101.1954,685,81.1953,692.0001,101.1953,678.0001,101.1954" style="stroke: #A80036; stroke-width: 1.0;"/><!--MD5=[39264478238c0831a0f9e5371d7d9738]
reverse link org.apache.wiki.api.exceptions.WikiException to org.apache.wiki.api.exceptions.NoRequiredPropertyException--><path codeLine="47" d="M802.4764,222.3307 C858.6358,243.5229 924.4506,268.3587 974.947,287.414 " fill="none" id="org.apache.wiki.api.exceptions.WikiException-backto-org.apache.wiki.api.exceptions.NoRequiredPropertyException" style="stroke: #A80036; stroke-width: 1.0;"/><polygon fill="none" points="799.6878,228.7603,783.4472,215.1499,804.6306,215.6619,799.6878,228.7603" style="stroke: #A80036; stroke-width: 1.0;"/><!--MD5=[6a69a9de40e333362dc32b7eb51cedcc]
reverse link org.apache.wiki.api.exceptions.WikiException to org.apache.wiki.api.exceptions.PluginException--><path codeLine="48" d="M809.9659,195.958 C917.427,212.5973 1076.1185,240.0305 1212,275 C1217.7156,276.4709 1223.5451,278.0646 1229.4117,279.7431 " fill="none" id="org.apache.wiki.api.exceptions.WikiException-backto-org.apache.wiki.api.exceptions.PluginException" style="stroke: #A80036; stroke-width: 1.0;"/><polygon fill="none" points="808.8897,202.8749,790.1805,192.9268,811.0099,189.0364,808.8897,202.8749" style="stroke: #A80036; stroke-width: 1.0;"/><text fill="#888888" font-family="sans-serif" font-size="10" lengthAdjust="spacingAndGlyphs" textLength="192" x="636" y="518.2822">UMLDoclet 2.0.12, PlantUML 1.2020.16</text><!--MD5=[449dc79879fdd9be9eb80c683c4f9827]
@startuml
    namespace org.apache.wiki.api.exceptions {

        class RedirectException [[RedirectException.html]] {
            +RedirectException(String, String)
            +getRedirect(): String
        }

        class WikiI18nException [[WikiI18nException.html]] {
            #args: Object[]
            +WikiI18nException(String, Object...)
            +getArgs(): Object[]
        }

        class FilterException [[FilterException.html]] {
            +FilterException(String)
        }

        class NoSuchVariableException [[NoSuchVariableException.html]] {
            +NoSuchVariableException(String)
        }

        class ProviderException [[ProviderException.html]] {
            +ProviderException(String)
        }

        class WikiException [[WikiException.html]] {
            +WikiException(String)
            +WikiException(String, Throwable)
        }

        class NoRequiredPropertyException [[NoRequiredPropertyException.html]] {
            +NoRequiredPropertyException(String, String)
        }

        class PluginException [[PluginException.html]] {
            +PluginException(String)
            +PluginException(String, Throwable)
            +getRootThrowable(): Throwable
        }

        FilterException <|- - RedirectException
        WikiException <|- - WikiI18nException
        WikiException <|- - FilterException
        WikiException <|- - NoSuchVariableException
        WikiException <|- - ProviderException
        java.lang.Exception <|- - WikiException
        WikiException <|- - NoRequiredPropertyException
        WikiException <|- - PluginException
    }

    namespace java.lang {
        class Exception {
        }
    }

    center footer UMLDoclet 2.0.12, PlantUML 1.2020.16
@enduml

PlantUML version 1.2020.16(Sun Aug 23 20:20:43 UTC 2020)
(APACHE source distribution)
Java Runtime: Java(TM) SE Runtime Environment
JVM: Java HotSpot(TM) 64-Bit Server VM
Default Encoding: ISO-8859-1
Language: en
Country: US
--></g></svg>