<?plantuml 1.2026.2?><svg xmlns="http://www.w3.org/2000/svg" xmlns:xlink="http://www.w3.org/1999/xlink" contentStyleType="text/css" data-diagram-type="CLASS" height="190px" preserveAspectRatio="none" style="width:272px;height:190px;background:#FFFFFF;" version="1.1" viewBox="0 0 272 190" width="272px" zoomAndPan="magnify"><defs/><g><!--class org.apache.wiki.api.exceptions.WikiException--><g class="entity" data-qualified-name="org.apache.wiki.api.exceptions.WikiException" data-source-line="13" id="ent0002"><a href="WikiException.html" target="_top" title="WikiException.html" xlink:actuate="onRequest" xlink:href="WikiException.html" xlink:show="new" xlink:title="WikiException.html" xlink:type="simple"><rect fill="#F1F1F1" height="78.5313" rx="2.5" ry="2.5" style="stroke:#181818;stroke-width:0.5;" width="259.6455" x="6" y="86"/><ellipse cx="54.0239" cy="104.9688" fill="#ADD1B2" rx="11" ry="11" style="stroke:#181818;stroke-width:1;"/><path d="M56.9927,110.6094 Q56.4146,110.9063 55.7739,111.0469 Q55.1333,111.2031 54.4302,111.2031 Q51.9302,111.2031 50.6021,109.5625 Q49.2896,107.9063 49.2896,104.7813 Q49.2896,101.6563 50.6021,100 Q51.9302,98.3438 54.4302,98.3438 Q55.1333,98.3438 55.7739,98.5 Q56.4302,98.6563 56.9927,98.9531 L56.9927,101.6719 Q56.3677,101.0938 55.7739,100.8281 Q55.1802,100.5469 54.5552,100.5469 Q53.2114,100.5469 52.5239,101.625 Q51.8364,102.6875 51.8364,104.7813 Q51.8364,106.875 52.5239,107.9531 Q53.2114,109.0156 54.5552,109.0156 Q55.1802,109.0156 55.7739,108.75 Q56.3677,108.4688 56.9927,107.8906 L56.9927,110.6094 Z " fill="#000000"/><text fill="#000000" font-family="sans-serif" font-size="14" lengthAdjust="spacing" textLength="98.875" x="102.6353" y="103.9951">WikiException</text><text fill="#000000" font-family="sans-serif" font-size="10" lengthAdjust="spacing" textLength="155.0977" x="74.5239" y="116.5791">org.apache.wiki.api.exceptions</text><line style="stroke:#181818;stroke-width:0.5;" x1="7" x2="264.6455" y1="123.9375" y2="123.9375"/></a><g data-visibility-modifier="PUBLIC_METHOD"><a href="WikiException.html" target="_top" title="WikiException.html" xlink:actuate="onRequest" xlink:href="WikiException.html" xlink:show="new" xlink:title="WikiException.html" xlink:type="simple"><ellipse cx="17" cy="137.5859" fill="#84BE84" rx="3" ry="3" style="stroke:#038048;stroke-width:1;"/></a></g><a href="WikiException.html" target="_top" title="WikiException.html" xlink:actuate="onRequest" xlink:href="WikiException.html" xlink:show="new" xlink:title="WikiException.html" xlink:type="simple"><text fill="#000000" font-family="sans-serif" font-size="14" lengthAdjust="spacing" textLength="151.5801" x="26" y="140.9326">WikiException(String)</text></a><g data-visibility-modifier="PUBLIC_METHOD"><a href="WikiException.html" target="_top" title="WikiException.html" xlink:actuate="onRequest" xlink:href="WikiException.html" xlink:show="new" xlink:title="WikiException.html" xlink:type="simple"><ellipse cx="17" cy="153.8828" fill="#84BE84" rx="3" ry="3" style="stroke:#038048;stroke-width:1;"/></a></g><a href="WikiException.html" target="_top" title="WikiException.html" xlink:actuate="onRequest" xlink:href="WikiException.html" xlink:show="new" xlink:title="WikiException.html" xlink:type="simple"><text fill="#000000" font-family="sans-serif" font-size="14" lengthAdjust="spacing" textLength="233.6455" x="26" y="157.2295">WikiException(String, Throwable)</text></a></g><!--class java.lang.Exception--><g class="entity" data-qualified-name="java.lang.Exception" data-source-line="18" id="ent0003"><rect fill="#F1F1F1" height="37.9375" rx="2.5" ry="2.5" style="stroke:#181818;stroke-width:0.5;" width="101.1455" x="85.5" y="12"/><ellipse cx="100.5" cy="30.9688" fill="#ADD1B2" rx="11" ry="11" style="stroke:#181818;stroke-width:1;"/><path d="M103.4688,36.6094 Q102.8906,36.9063 102.25,37.0469 Q101.6094,37.2031 100.9063,37.2031 Q98.4063,37.2031 97.0781,35.5625 Q95.7656,33.9063 95.7656,30.7813 Q95.7656,27.6563 97.0781,26 Q98.4063,24.3438 100.9063,24.3438 Q101.6094,24.3438 102.25,24.5 Q102.9063,24.6563 103.4688,24.9531 L103.4688,27.6719 Q102.8438,27.0938 102.25,26.8281 Q101.6563,26.5469 101.0313,26.5469 Q99.6875,26.5469 99,27.625 Q98.3125,28.6875 98.3125,30.7813 Q98.3125,32.875 99,33.9531 Q99.6875,35.0156 101.0313,35.0156 Q101.6563,35.0156 102.25,34.75 Q102.8438,34.4688 103.4688,33.8906 L103.4688,36.6094 Z " fill="#000000"/><text fill="#000000" font-family="sans-serif" font-size="14" lengthAdjust="spacing" textLength="69.1455" x="114.5" y="29.9951">Exception</text><text fill="#000000" font-family="sans-serif" font-size="10" lengthAdjust="spacing" textLength="45.7227" x="126.2114" y="42.5791">java.lang</text></g><g class="link" data-entity-1="ent0003" data-entity-2="ent0002" data-link-type="extension" id="lnk4"><polygon fill="none" points="136,50.275,130,68.275,142,68.275,136,50.275" style="stroke:#181818;stroke-width:1;"/><path d="M136,68.275 C136,78.4893 136,73.6196 136,85.9896" fill="none" style="stroke:#181818;stroke-width:1;"/></g><g class="footer" data-source-line="28"><text fill="#888888" font-family="sans-serif" font-size="10" lengthAdjust="spacing" textLength="3.1787" x="130.9106" y="168.2822">&#160;</text><a href="https://github.com/talsma-ict/umldoclet" target="_top" title="https://github.com/talsma-ict/umldoclet" xlink:actuate="onRequest" xlink:href="https://github.com/talsma-ict/umldoclet" xlink:show="new" xlink:title="https://github.com/talsma-ict/umldoclet" xlink:type="simple"><text fill="#888888" font-family="sans-serif" font-size="10" lengthAdjust="spacing" textLength="82.3096" x="91.3452" y="179.9229">UMLDoclet 2.3.0</text></a></g><?plantuml-src bLDhRzem5FqSViLTzw5K0nCosW52I8XLUuX9qm1D6kM3SIw9XsEdjbF67lzzDw6qPMAJ9aLAxiF7vznx4fp3sEGxAvFKWpVWK-bW_c42NCUGe4RBFSOWCvwWWnKgenEtRqJWXK-D1REk8c6iHPSR7KkTm7j-ny6PmWfqh5OBpc5sWDvozmHwjIkJhurGwA4-ldZ29mhRLyqeZAvWnfNBEBmRprW9zNWWOYzP20Iif43j2A_GCTgAq2ZdWbwJVQK1TsYTD9hEX2L8gL0OxRdK3d9klIkLV5HS-v9bcvKtimZge-dac5NOgrWrO6GrBsBuP6wBlSfdkUK94LLyPmeFBaFFDQU28wwQPpGVBd2AT1ttD3fjDDQ2LCO8cEL-1sk9AdP7AS983ULgWL3SEJWREFaT--tEyBFSoEjl0dDFicxqVJuS6fimNebdMsgXRydmqEVEWER_xnPsX0oBnL7CKf-fvH9-r8BWnL6bFlMMbd_njqA3J63DbgyKKi-l4v9EoVbALcAqbgHY_X2nHu84T2ez-Dbi_fTImXaulrCu90LhOpmvgLGPlDtbQ2TIRyP6qTgUTu-Iyz9oIceaYukDHb943YDzmQ1rWBj7kz6BHUfzxlgjLY9zMgoOC5dBL_vkIk5RHQRYlRV_SFboMRhspSEFKrgm6TBJcRMx_R3RZteix5nUzg9svzMNnRKNhVbilFmD?></g></svg>