<?xml version="1.0" encoding="UTF-8" standalone="no"?><svg xmlns="http://www.w3.org/2000/svg" xmlns:xlink="http://www.w3.org/1999/xlink" contentScriptType="application/ecmascript" contentStyleType="text/css" height="337px" preserveAspectRatio="none" style="width:1323px;height:337px;" version="1.1" viewBox="0 0 1323 337" width="1323px" zoomAndPan="magnify"><defs><filter height="300%" id="fxyb5q91yc9dt" width="300%" x="-1" y="-1"><feGaussianBlur result="blurOut" stdDeviation="2.0"/><feColorMatrix in="blurOut" result="blurOut2" type="matrix" values="0 0 0 0 0 0 0 0 0 0 0 0 0 0 0 0 0 0 .4 0"/><feOffset dx="4.0" dy="4.0" in="blurOut2" result="blurOut3"/><feBlend in="SourceGraphic" in2="blurOut3" mode="normal"/></filter></defs><g><!--MD5=[99bb6b03b9edc14496f1c9354e61e158]
cluster org.apache.wiki.spi--><polygon fill="#FFFFFF" filter="url(#fxyb5q91yc9dt)" points="23,169,164,169,171,192.6094,1301,192.6094,1301,308,23,308,23,169" style="stroke: #000000; stroke-width: 1.5;"/><line style="stroke: #000000; stroke-width: 1.5;" x1="23" x2="171" y1="192.6094" y2="192.6094"/><text fill="#000000" font-family="sans-serif" font-size="14" font-weight="bold" lengthAdjust="spacingAndGlyphs" textLength="135" x="27" y="185.5332">org.apache.wiki.spi</text><!--MD5=[77af465126129a8e6058c3260ac3e597]
cluster org.apache.wiki.api.spi--><polygon fill="#FFFFFF" filter="url(#fxyb5q91yc9dt)" points="16,6,182,6,189,29.6094,1285,29.6094,1285,145,16,145,16,6" style="stroke: #000000; stroke-width: 1.5;"/><line style="stroke: #000000; stroke-width: 1.5;" x1="16" x2="189" y1="29.6094" y2="29.6094"/><text fill="#000000" font-family="sans-serif" font-size="14" font-weight="bold" lengthAdjust="spacingAndGlyphs" textLength="160" x="20" y="22.5332">org.apache.wiki.api.spi</text><!--MD5=[d0d26a0ba7cf9360da845a8dc69b0583]
class org.apache.wiki.spi.AclsSPIDefaultImpl--><a href="AclsSPIDefaultImpl.html" target="_top" title="AclsSPIDefaultImpl.html" xlink:actuate="onRequest" xlink:href="AclsSPIDefaultImpl.html" xlink:show="new" xlink:title="AclsSPIDefaultImpl.html" xlink:type="simple"><rect codeLine="3" fill="#FEFECE" filter="url(#fxyb5q91yc9dt)" height="75.6719" id="org.apache.wiki.spi.AclsSPIDefaultImpl" style="stroke: #A80036; stroke-width: 1.5;" width="137" x="1155.5" y="210.5"/><ellipse cx="1170.5" cy="226.5" fill="#ADD1B2" rx="11" ry="11" style="stroke: #A80036; stroke-width: 1.0;"/><path d="M1173.2656,222.375 Q1173.4219,222.1563 1173.6094,222.0469 Q1173.7969,221.9375 1174.0156,221.9375 Q1174.3906,221.9375 1174.625,222.2031 Q1174.8594,222.4531 1174.8594,223.0625 L1174.8594,224.5156 Q1174.8594,225.125 1174.625,225.3906 Q1174.3906,225.6563 1174.0156,225.6563 Q1173.6719,225.6563 1173.4688,225.4531 Q1173.2656,225.2656 1173.1563,224.75 Q1173.1094,224.3906 1172.9219,224.2031 Q1172.5938,223.8281 1171.9844,223.6094 Q1171.375,223.3906 1170.75,223.3906 Q1169.9844,223.3906 1169.3438,223.7188 Q1168.7188,224.0469 1168.2188,224.7969 Q1167.7344,225.5469 1167.7344,226.5781 L1167.7344,227.6719 Q1167.7344,228.9063 1168.625,229.7344 Q1169.5156,230.5469 1171.1094,230.5469 Q1172.0469,230.5469 1172.7031,230.2969 Q1173.0938,230.1406 1173.5156,229.7031 Q1173.7813,229.4375 1173.9219,229.3594 Q1174.0781,229.2813 1174.2813,229.2813 Q1174.6094,229.2813 1174.8594,229.5469 Q1175.125,229.7969 1175.125,230.1406 Q1175.125,230.4844 1174.7813,230.8906 Q1174.2813,231.4688 1173.4844,231.7969 Q1172.4063,232.25 1171.1094,232.25 Q1169.5938,232.25 1168.3906,231.625 Q1167.4063,231.125 1166.7188,230.0625 Q1166.0313,228.9844 1166.0313,227.7031 L1166.0313,226.5469 Q1166.0313,225.2188 1166.6406,224.0781 Q1167.2656,222.9219 1168.3594,222.3125 Q1169.4531,221.6875 1170.6875,221.6875 Q1171.4219,221.6875 1172.0625,221.8594 Q1172.7188,222.0156 1173.2656,222.375 Z "/><text fill="#000000" font-family="sans-serif" font-size="12" lengthAdjust="spacingAndGlyphs" textLength="105" x="1184.5" y="231.4102">AclsSPIDefaultImpl</text><line style="stroke: #A80036; stroke-width: 1.5;" x1="1156.5" x2="1291.5" y1="242.5" y2="242.5"/><line style="stroke: #A80036; stroke-width: 1.5;" x1="1156.5" x2="1291.5" y1="250.5" y2="250.5"/><ellipse cx="1166.5" cy="261.5" fill="#84BE84" rx="3" ry="3" style="stroke: #038048; stroke-width: 1.0;"/><text fill="#000000" font-family="sans-serif" font-size="11" lengthAdjust="spacingAndGlyphs" textLength="44" x="1175.5" y="265.9189">acl(): Acl</text><ellipse cx="1166.5" cy="275.3359" fill="#84BE84" rx="3" ry="3" style="stroke: #038048; stroke-width: 1.0;"/><text fill="#000000" font-family="sans-serif" font-size="11" lengthAdjust="spacingAndGlyphs" textLength="80" x="1175.5" y="279.7549">entry(): AclEntry</text></a><!--MD5=[6861a3ba990e090d402f6fb44333b95e]
class org.apache.wiki.spi.ContentsSPIDefaultImpl--><a href="ContentsSPIDefaultImpl.html" target="_top" title="ContentsSPIDefaultImpl.html" xlink:actuate="onRequest" xlink:href="ContentsSPIDefaultImpl.html" xlink:show="new" xlink:title="ContentsSPIDefaultImpl.html" xlink:type="simple"><rect codeLine="8" fill="#FEFECE" filter="url(#fxyb5q91yc9dt)" height="75.6719" id="org.apache.wiki.spi.ContentsSPIDefaultImpl" style="stroke: #A80036; stroke-width: 1.5;" width="248" x="872" y="210.5"/><ellipse cx="925.75" cy="226.5" fill="#ADD1B2" rx="11" ry="11" style="stroke: #A80036; stroke-width: 1.0;"/><path d="M928.5156,222.375 Q928.6719,222.1563 928.8594,222.0469 Q929.0469,221.9375 929.2656,221.9375 Q929.6406,221.9375 929.875,222.2031 Q930.1094,222.4531 930.1094,223.0625 L930.1094,224.5156 Q930.1094,225.125 929.875,225.3906 Q929.6406,225.6563 929.2656,225.6563 Q928.9219,225.6563 928.7188,225.4531 Q928.5156,225.2656 928.4063,224.75 Q928.3594,224.3906 928.1719,224.2031 Q927.8438,223.8281 927.2344,223.6094 Q926.625,223.3906 926,223.3906 Q925.2344,223.3906 924.5938,223.7188 Q923.9688,224.0469 923.4688,224.7969 Q922.9844,225.5469 922.9844,226.5781 L922.9844,227.6719 Q922.9844,228.9063 923.875,229.7344 Q924.7656,230.5469 926.3594,230.5469 Q927.2969,230.5469 927.9531,230.2969 Q928.3438,230.1406 928.7656,229.7031 Q929.0313,229.4375 929.1719,229.3594 Q929.3281,229.2813 929.5313,229.2813 Q929.8594,229.2813 930.1094,229.5469 Q930.375,229.7969 930.375,230.1406 Q930.375,230.4844 930.0313,230.8906 Q929.5313,231.4688 928.7344,231.7969 Q927.6563,232.25 926.3594,232.25 Q924.8438,232.25 923.6406,231.625 Q922.6563,231.125 921.9688,230.0625 Q921.2813,228.9844 921.2813,227.7031 L921.2813,226.5469 Q921.2813,225.2188 921.8906,224.0781 Q922.5156,222.9219 923.6094,222.3125 Q924.7031,221.6875 925.9375,221.6875 Q926.6719,221.6875 927.3125,221.8594 Q927.9688,222.0156 928.5156,222.375 Z "/><text fill="#000000" font-family="sans-serif" font-size="12" lengthAdjust="spacingAndGlyphs" textLength="132" x="946.25" y="231.4102">ContentsSPIDefaultImpl</text><line style="stroke: #A80036; stroke-width: 1.5;" x1="873" x2="1119" y1="242.5" y2="242.5"/><line style="stroke: #A80036; stroke-width: 1.5;" x1="873" x2="1119" y1="250.5" y2="250.5"/><ellipse cx="883" cy="261.5" fill="#84BE84" rx="3" ry="3" style="stroke: #038048; stroke-width: 1.0;"/><text fill="#000000" font-family="sans-serif" font-size="11" lengthAdjust="spacingAndGlyphs" textLength="222" x="892" y="265.9189">attachment(Engine, String, String): Attachment</text><ellipse cx="883" cy="275.3359" fill="#84BE84" rx="3" ry="3" style="stroke: #038048; stroke-width: 1.0;"/><text fill="#000000" font-family="sans-serif" font-size="11" lengthAdjust="spacingAndGlyphs" textLength="128" x="892" y="279.7549">page(Engine, String): Page</text></a><!--MD5=[eb966b2a1cdf5ea93a7ce4f7b42b1565]
class org.apache.wiki.spi.ContextSPIDefaultImpl--><a href="ContextSPIDefaultImpl.html" target="_top" title="ContextSPIDefaultImpl.html" xlink:actuate="onRequest" xlink:href="ContextSPIDefaultImpl.html" xlink:show="new" xlink:title="ContextSPIDefaultImpl.html" xlink:type="simple"><rect codeLine="13" fill="#FEFECE" filter="url(#fxyb5q91yc9dt)" height="103.3438" id="org.apache.wiki.spi.ContextSPIDefaultImpl" style="stroke: #A80036; stroke-width: 1.5;" width="292" x="545" y="197"/><ellipse cx="625.25" cy="213" fill="#ADD1B2" rx="11" ry="11" style="stroke: #A80036; stroke-width: 1.0;"/><path d="M628.0156,208.875 Q628.1719,208.6563 628.3594,208.5469 Q628.5469,208.4375 628.7656,208.4375 Q629.1406,208.4375 629.375,208.7031 Q629.6094,208.9531 629.6094,209.5625 L629.6094,211.0156 Q629.6094,211.625 629.375,211.8906 Q629.1406,212.1563 628.7656,212.1563 Q628.4219,212.1563 628.2188,211.9531 Q628.0156,211.7656 627.9063,211.25 Q627.8594,210.8906 627.6719,210.7031 Q627.3438,210.3281 626.7344,210.1094 Q626.125,209.8906 625.5,209.8906 Q624.7344,209.8906 624.0938,210.2188 Q623.4688,210.5469 622.9688,211.2969 Q622.4844,212.0469 622.4844,213.0781 L622.4844,214.1719 Q622.4844,215.4063 623.375,216.2344 Q624.2656,217.0469 625.8594,217.0469 Q626.7969,217.0469 627.4531,216.7969 Q627.8438,216.6406 628.2656,216.2031 Q628.5313,215.9375 628.6719,215.8594 Q628.8281,215.7813 629.0313,215.7813 Q629.3594,215.7813 629.6094,216.0469 Q629.875,216.2969 629.875,216.6406 Q629.875,216.9844 629.5313,217.3906 Q629.0313,217.9688 628.2344,218.2969 Q627.1563,218.75 625.8594,218.75 Q624.3438,218.75 623.1406,218.125 Q622.1563,217.625 621.4688,216.5625 Q620.7813,215.4844 620.7813,214.2031 L620.7813,213.0469 Q620.7813,211.7188 621.3906,210.5781 Q622.0156,209.4219 623.1094,208.8125 Q624.2031,208.1875 625.4375,208.1875 Q626.1719,208.1875 626.8125,208.3594 Q627.4688,208.5156 628.0156,208.875 Z "/><text fill="#000000" font-family="sans-serif" font-size="12" lengthAdjust="spacingAndGlyphs" textLength="123" x="645.75" y="217.9102">ContextSPIDefaultImpl</text><line style="stroke: #A80036; stroke-width: 1.5;" x1="546" x2="836" y1="229" y2="229"/><line style="stroke: #A80036; stroke-width: 1.5;" x1="546" x2="836" y1="237" y2="237"/><ellipse cx="556" cy="248" fill="#84BE84" rx="3" ry="3" style="stroke: #038048; stroke-width: 1.0;"/><text fill="#000000" font-family="sans-serif" font-size="11" lengthAdjust="spacingAndGlyphs" textLength="144" x="565" y="252.4189">create(Engine, Page): Context</text><ellipse cx="556" cy="261.8359" fill="#84BE84" rx="3" ry="3" style="stroke: #038048; stroke-width: 1.0;"/><text fill="#000000" font-family="sans-serif" font-size="11" lengthAdjust="spacingAndGlyphs" textLength="266" x="565" y="266.2549">create(Engine, HttpServletRequest, Command): Context</text><ellipse cx="556" cy="275.6719" fill="#84BE84" rx="3" ry="3" style="stroke: #038048; stroke-width: 1.0;"/><text fill="#000000" font-family="sans-serif" font-size="11" lengthAdjust="spacingAndGlyphs" textLength="243" x="565" y="280.0908">create(Engine, HttpServletRequest, Page): Context</text><ellipse cx="556" cy="289.5078" fill="#84BE84" rx="3" ry="3" style="stroke: #038048; stroke-width: 1.0;"/><text fill="#000000" font-family="sans-serif" font-size="11" lengthAdjust="spacingAndGlyphs" textLength="247" x="565" y="293.9268">create(Engine, HttpServletRequest, String): Context</text></a><!--MD5=[f9dcc5841462d4e26bb663dfcd19f843]
class org.apache.wiki.spi.EngineSPIDefaultImpl--><a href="EngineSPIDefaultImpl.html" target="_top" title="EngineSPIDefaultImpl.html" xlink:actuate="onRequest" xlink:href="EngineSPIDefaultImpl.html" xlink:show="new" xlink:title="EngineSPIDefaultImpl.html" xlink:type="simple"><rect codeLine="20" fill="#FEFECE" filter="url(#fxyb5q91yc9dt)" height="61.8359" id="org.apache.wiki.spi.EngineSPIDefaultImpl" style="stroke: #A80036; stroke-width: 1.5;" width="216" x="294" y="217.5"/><ellipse cx="337.35" cy="233.5" fill="#ADD1B2" rx="11" ry="11" style="stroke: #A80036; stroke-width: 1.0;"/><path d="M340.1156,229.375 Q340.2719,229.1563 340.4594,229.0469 Q340.6469,228.9375 340.8656,228.9375 Q341.2406,228.9375 341.475,229.2031 Q341.7094,229.4531 341.7094,230.0625 L341.7094,231.5156 Q341.7094,232.125 341.475,232.3906 Q341.2406,232.6563 340.8656,232.6563 Q340.5219,232.6563 340.3188,232.4531 Q340.1156,232.2656 340.0063,231.75 Q339.9594,231.3906 339.7719,231.2031 Q339.4438,230.8281 338.8344,230.6094 Q338.225,230.3906 337.6,230.3906 Q336.8344,230.3906 336.1938,230.7188 Q335.5688,231.0469 335.0688,231.7969 Q334.5844,232.5469 334.5844,233.5781 L334.5844,234.6719 Q334.5844,235.9063 335.475,236.7344 Q336.3656,237.5469 337.9594,237.5469 Q338.8969,237.5469 339.5531,237.2969 Q339.9438,237.1406 340.3656,236.7031 Q340.6313,236.4375 340.7719,236.3594 Q340.9281,236.2813 341.1313,236.2813 Q341.4594,236.2813 341.7094,236.5469 Q341.975,236.7969 341.975,237.1406 Q341.975,237.4844 341.6313,237.8906 Q341.1313,238.4688 340.3344,238.7969 Q339.2563,239.25 337.9594,239.25 Q336.4438,239.25 335.2406,238.625 Q334.2563,238.125 333.5688,237.0625 Q332.8813,235.9844 332.8813,234.7031 L332.8813,233.5469 Q332.8813,232.2188 333.4906,231.0781 Q334.1156,229.9219 335.2094,229.3125 Q336.3031,228.6875 337.5375,228.6875 Q338.2719,228.6875 338.9125,228.8594 Q339.5688,229.0156 340.1156,229.375 Z "/><text fill="#000000" font-family="sans-serif" font-size="12" lengthAdjust="spacingAndGlyphs" textLength="121" x="357.65" y="238.4102">EngineSPIDefaultImpl</text><line style="stroke: #A80036; stroke-width: 1.5;" x1="295" x2="509" y1="249.5" y2="249.5"/><line style="stroke: #A80036; stroke-width: 1.5;" x1="295" x2="509" y1="257.5" y2="257.5"/><ellipse cx="305" cy="268.5" fill="#84BE84" rx="3" ry="3" style="stroke: #038048; stroke-width: 1.0;"/><text fill="#000000" font-family="sans-serif" font-size="11" lengthAdjust="spacingAndGlyphs" textLength="190" x="314" y="272.9189">find(ServletContext, Properties): Engine</text></a><!--MD5=[2bc55fd8165625d9167c85c4dc28a7d0]
class org.apache.wiki.spi.SessionSPIDefaultImpl--><a href="SessionSPIDefaultImpl.html" target="_top" title="SessionSPIDefaultImpl.html" xlink:actuate="onRequest" xlink:href="SessionSPIDefaultImpl.html" xlink:show="new" xlink:title="SessionSPIDefaultImpl.html" xlink:type="simple"><rect codeLine="24" fill="#FEFECE" filter="url(#fxyb5q91yc9dt)" height="89.5078" id="org.apache.wiki.spi.SessionSPIDefaultImpl" style="stroke: #A80036; stroke-width: 1.5;" width="228" x="31" y="203.5"/><ellipse cx="76.75" cy="219.5" fill="#ADD1B2" rx="11" ry="11" style="stroke: #A80036; stroke-width: 1.0;"/><path d="M79.5156,215.375 Q79.6719,215.1563 79.8594,215.0469 Q80.0469,214.9375 80.2656,214.9375 Q80.6406,214.9375 80.875,215.2031 Q81.1094,215.4531 81.1094,216.0625 L81.1094,217.5156 Q81.1094,218.125 80.875,218.3906 Q80.6406,218.6563 80.2656,218.6563 Q79.9219,218.6563 79.7188,218.4531 Q79.5156,218.2656 79.4063,217.75 Q79.3594,217.3906 79.1719,217.2031 Q78.8438,216.8281 78.2344,216.6094 Q77.625,216.3906 77,216.3906 Q76.2344,216.3906 75.5938,216.7188 Q74.9688,217.0469 74.4688,217.7969 Q73.9844,218.5469 73.9844,219.5781 L73.9844,220.6719 Q73.9844,221.9063 74.875,222.7344 Q75.7656,223.5469 77.3594,223.5469 Q78.2969,223.5469 78.9531,223.2969 Q79.3438,223.1406 79.7656,222.7031 Q80.0313,222.4375 80.1719,222.3594 Q80.3281,222.2813 80.5313,222.2813 Q80.8594,222.2813 81.1094,222.5469 Q81.375,222.7969 81.375,223.1406 Q81.375,223.4844 81.0313,223.8906 Q80.5313,224.4688 79.7344,224.7969 Q78.6563,225.25 77.3594,225.25 Q75.8438,225.25 74.6406,224.625 Q73.6563,224.125 72.9688,223.0625 Q72.2813,221.9844 72.2813,220.7031 L72.2813,219.5469 Q72.2813,218.2188 72.8906,217.0781 Q73.5156,215.9219 74.6094,215.3125 Q75.7031,214.6875 76.9375,214.6875 Q77.6719,214.6875 78.3125,214.8594 Q78.9688,215.0156 79.5156,215.375 Z "/><text fill="#000000" font-family="sans-serif" font-size="12" lengthAdjust="spacingAndGlyphs" textLength="128" x="97.25" y="224.4102">SessionSPIDefaultImpl</text><line style="stroke: #A80036; stroke-width: 1.5;" x1="32" x2="258" y1="235.5" y2="235.5"/><line style="stroke: #A80036; stroke-width: 1.5;" x1="32" x2="258" y1="243.5" y2="243.5"/><ellipse cx="42" cy="254.5" fill="#84BE84" rx="3" ry="3" style="stroke: #038048; stroke-width: 1.0;"/><text fill="#000000" font-family="sans-serif" font-size="11" lengthAdjust="spacingAndGlyphs" textLength="201" x="51" y="258.9189">remove(Engine, HttpServletRequest): void</text><ellipse cx="42" cy="268.3359" fill="#84BE84" rx="3" ry="3" style="stroke: #038048; stroke-width: 1.0;"/><text fill="#000000" font-family="sans-serif" font-size="11" lengthAdjust="spacingAndGlyphs" textLength="202" x="51" y="272.7549">find(Engine, HttpServletRequest): Session</text><ellipse cx="42" cy="282.1719" fill="#84BE84" rx="3" ry="3" style="stroke: #038048; stroke-width: 1.0;"/><text fill="#000000" font-family="sans-serif" font-size="11" lengthAdjust="spacingAndGlyphs" textLength="112" x="51" y="286.5908">guest(Engine): Session</text></a><!--MD5=[3cc7a177362693a4101c4797076d4341]
class org.apache.wiki.api.spi.AclsSPI--><a href="..\api\spi\AclsSPI.html" target="_top" title="..\api\spi\AclsSPI.html" xlink:actuate="onRequest" xlink:href="..\api\spi\AclsSPI.html" xlink:show="new" xlink:title="..\api\spi\AclsSPI.html" xlink:type="simple"><rect codeLine="38" fill="#FEFECE" filter="url(#fxyb5q91yc9dt)" height="75.6719" id="org.apache.wiki.api.spi.AclsSPI" style="stroke: #A80036; stroke-width: 1.5;" width="105" x="1171.5" y="47.5"/><ellipse cx="1200" cy="63.5" fill="#B4A7E5" rx="11" ry="11" style="stroke: #A80036; stroke-width: 1.0;"/><path d="M1200.9531,60.1406 L1200.9531,66.7969 L1202.6719,66.7969 Q1203.2813,66.7969 1203.5469,67.0313 Q1203.8125,67.2656 1203.8125,67.6563 Q1203.8125,68.0313 1203.5469,68.2656 Q1203.2813,68.5 1202.6719,68.5 L1197.5313,68.5 Q1196.9219,68.5 1196.6563,68.2656 Q1196.3906,68.0313 1196.3906,67.6406 Q1196.3906,67.2656 1196.6563,67.0313 Q1196.9219,66.7969 1197.5313,66.7969 L1199.25,66.7969 L1199.25,60.1406 L1197.5313,60.1406 Q1196.9219,60.1406 1196.6563,59.9063 Q1196.3906,59.6719 1196.3906,59.2813 Q1196.3906,58.9063 1196.6563,58.6719 Q1196.9219,58.4375 1197.5313,58.4375 L1202.6719,58.4375 Q1203.2813,58.4375 1203.5469,58.6719 Q1203.8125,58.9063 1203.8125,59.2813 Q1203.8125,59.6719 1203.5469,59.9063 Q1203.2813,60.1406 1202.6719,60.1406 L1200.9531,60.1406 Z "/><text fill="#000000" font-family="sans-serif" font-size="12" font-style="italic" lengthAdjust="spacingAndGlyphs" textLength="43" x="1217" y="68.4102">AclsSPI</text><line style="stroke: #A80036; stroke-width: 1.5;" x1="1172.5" x2="1275.5" y1="79.5" y2="79.5"/><line style="stroke: #A80036; stroke-width: 1.5;" x1="1172.5" x2="1275.5" y1="87.5" y2="87.5"/><ellipse cx="1182.5" cy="98.5" fill="#84BE84" rx="3" ry="3" style="stroke: #038048; stroke-width: 1.0;"/><text fill="#000000" font-family="sans-serif" font-size="11" font-style="italic" lengthAdjust="spacingAndGlyphs" textLength="45" x="1191.5" y="102.9189">acl(): Acl</text><ellipse cx="1182.5" cy="112.3359" fill="#84BE84" rx="3" ry="3" style="stroke: #038048; stroke-width: 1.0;"/><text fill="#000000" font-family="sans-serif" font-size="11" font-style="italic" lengthAdjust="spacingAndGlyphs" textLength="79" x="1191.5" y="116.7549">entry(): AclEntry</text></a><!--MD5=[8f2da63379beffa948bd49efaa6b9718]
class org.apache.wiki.api.spi.ContentsSPI--><a href="..\api\spi\ContentsSPI.html" target="_top" title="..\api\spi\ContentsSPI.html" xlink:actuate="onRequest" xlink:href="..\api\spi\ContentsSPI.html" xlink:show="new" xlink:title="..\api\spi\ContentsSPI.html" xlink:type="simple"><rect codeLine="42" fill="#FEFECE" filter="url(#fxyb5q91yc9dt)" height="75.6719" id="org.apache.wiki.api.spi.ContentsSPI" style="stroke: #A80036; stroke-width: 1.5;" width="253" x="883.5" y="47.5"/><ellipse cx="971.25" cy="63.5" fill="#B4A7E5" rx="11" ry="11" style="stroke: #A80036; stroke-width: 1.0;"/><path d="M972.2031,60.1406 L972.2031,66.7969 L973.9219,66.7969 Q974.5313,66.7969 974.7969,67.0313 Q975.0625,67.2656 975.0625,67.6563 Q975.0625,68.0313 974.7969,68.2656 Q974.5313,68.5 973.9219,68.5 L968.7813,68.5 Q968.1719,68.5 967.9063,68.2656 Q967.6406,68.0313 967.6406,67.6406 Q967.6406,67.2656 967.9063,67.0313 Q968.1719,66.7969 968.7813,66.7969 L970.5,66.7969 L970.5,60.1406 L968.7813,60.1406 Q968.1719,60.1406 967.9063,59.9063 Q967.6406,59.6719 967.6406,59.2813 Q967.6406,58.9063 967.9063,58.6719 Q968.1719,58.4375 968.7813,58.4375 L973.9219,58.4375 Q974.5313,58.4375 974.7969,58.6719 Q975.0625,58.9063 975.0625,59.2813 Q975.0625,59.6719 974.7969,59.9063 Q974.5313,60.1406 973.9219,60.1406 L972.2031,60.1406 Z "/><text fill="#000000" font-family="sans-serif" font-size="12" font-style="italic" lengthAdjust="spacingAndGlyphs" textLength="69" x="991.75" y="68.4102">ContentsSPI</text><line style="stroke: #A80036; stroke-width: 1.5;" x1="884.5" x2="1135.5" y1="79.5" y2="79.5"/><line style="stroke: #A80036; stroke-width: 1.5;" x1="884.5" x2="1135.5" y1="87.5" y2="87.5"/><ellipse cx="894.5" cy="98.5" fill="#84BE84" rx="3" ry="3" style="stroke: #038048; stroke-width: 1.0;"/><text fill="#000000" font-family="sans-serif" font-size="11" font-style="italic" lengthAdjust="spacingAndGlyphs" textLength="227" x="903.5" y="102.9189">attachment(Engine, String, String): Attachment</text><ellipse cx="894.5" cy="112.3359" fill="#84BE84" rx="3" ry="3" style="stroke: #038048; stroke-width: 1.0;"/><text fill="#000000" font-family="sans-serif" font-size="11" font-style="italic" lengthAdjust="spacingAndGlyphs" textLength="132" x="903.5" y="116.7549">page(Engine, String): Page</text></a><!--MD5=[f94607c025d7165374977c722d2704ab]
class org.apache.wiki.api.spi.ContextSPI--><a href="..\api\spi\ContextSPI.html" target="_top" title="..\api\spi\ContextSPI.html" xlink:actuate="onRequest" xlink:href="..\api\spi\ContextSPI.html" xlink:show="new" xlink:title="..\api\spi\ContextSPI.html" xlink:type="simple"><rect codeLine="46" fill="#FEFECE" filter="url(#fxyb5q91yc9dt)" height="103.3438" id="org.apache.wiki.api.spi.ContextSPI" style="stroke: #A80036; stroke-width: 1.5;" width="300" x="548" y="34"/><ellipse cx="662.75" cy="50" fill="#B4A7E5" rx="11" ry="11" style="stroke: #A80036; stroke-width: 1.0;"/><path d="M663.7031,46.6406 L663.7031,53.2969 L665.4219,53.2969 Q666.0313,53.2969 666.2969,53.5313 Q666.5625,53.7656 666.5625,54.1563 Q666.5625,54.5313 666.2969,54.7656 Q666.0313,55 665.4219,55 L660.2813,55 Q659.6719,55 659.4063,54.7656 Q659.1406,54.5313 659.1406,54.1406 Q659.1406,53.7656 659.4063,53.5313 Q659.6719,53.2969 660.2813,53.2969 L662,53.2969 L662,46.6406 L660.2813,46.6406 Q659.6719,46.6406 659.4063,46.4063 Q659.1406,46.1719 659.1406,45.7813 Q659.1406,45.4063 659.4063,45.1719 Q659.6719,44.9375 660.2813,44.9375 L665.4219,44.9375 Q666.0313,44.9375 666.2969,45.1719 Q666.5625,45.4063 666.5625,45.7813 Q666.5625,46.1719 666.2969,46.4063 Q666.0313,46.6406 665.4219,46.6406 L663.7031,46.6406 Z "/><text fill="#000000" font-family="sans-serif" font-size="12" font-style="italic" lengthAdjust="spacingAndGlyphs" textLength="62" x="683.25" y="54.9102">ContextSPI</text><line style="stroke: #A80036; stroke-width: 1.5;" x1="549" x2="847" y1="66" y2="66"/><line style="stroke: #A80036; stroke-width: 1.5;" x1="549" x2="847" y1="74" y2="74"/><ellipse cx="559" cy="85" fill="#84BE84" rx="3" ry="3" style="stroke: #038048; stroke-width: 1.0;"/><text fill="#000000" font-family="sans-serif" font-size="11" font-style="italic" lengthAdjust="spacingAndGlyphs" textLength="148" x="568" y="89.4189">create(Engine, Page): Context</text><ellipse cx="559" cy="98.8359" fill="#84BE84" rx="3" ry="3" style="stroke: #038048; stroke-width: 1.0;"/><text fill="#000000" font-family="sans-serif" font-size="11" font-style="italic" lengthAdjust="spacingAndGlyphs" textLength="274" x="568" y="103.2549">create(Engine, HttpServletRequest, Command): Context</text><ellipse cx="559" cy="112.6719" fill="#84BE84" rx="3" ry="3" style="stroke: #038048; stroke-width: 1.0;"/><text fill="#000000" font-family="sans-serif" font-size="11" font-style="italic" lengthAdjust="spacingAndGlyphs" textLength="249" x="568" y="117.0908">create(Engine, HttpServletRequest, Page): Context</text><ellipse cx="559" cy="126.5078" fill="#84BE84" rx="3" ry="3" style="stroke: #038048; stroke-width: 1.0;"/><text fill="#000000" font-family="sans-serif" font-size="11" font-style="italic" lengthAdjust="spacingAndGlyphs" textLength="253" x="568" y="130.9268">create(Engine, HttpServletRequest, String): Context</text></a><!--MD5=[72cef5af7c1e5c0a14454e3c188183b9]
class org.apache.wiki.api.spi.EngineSPI--><a href="..\api\spi\EngineSPI.html" target="_top" title="..\api\spi\EngineSPI.html" xlink:actuate="onRequest" xlink:href="..\api\spi\EngineSPI.html" xlink:show="new" xlink:title="..\api\spi\EngineSPI.html" xlink:type="simple"><rect codeLine="52" fill="#FEFECE" filter="url(#fxyb5q91yc9dt)" height="61.8359" id="org.apache.wiki.api.spi.EngineSPI" style="stroke: #A80036; stroke-width: 1.5;" width="221" x="291.5" y="54.5"/><ellipse cx="368.25" cy="70.5" fill="#B4A7E5" rx="11" ry="11" style="stroke: #A80036; stroke-width: 1.0;"/><path d="M369.2031,67.1406 L369.2031,73.7969 L370.9219,73.7969 Q371.5313,73.7969 371.7969,74.0313 Q372.0625,74.2656 372.0625,74.6563 Q372.0625,75.0313 371.7969,75.2656 Q371.5313,75.5 370.9219,75.5 L365.7813,75.5 Q365.1719,75.5 364.9063,75.2656 Q364.6406,75.0313 364.6406,74.6406 Q364.6406,74.2656 364.9063,74.0313 Q365.1719,73.7969 365.7813,73.7969 L367.5,73.7969 L367.5,67.1406 L365.7813,67.1406 Q365.1719,67.1406 364.9063,66.9063 Q364.6406,66.6719 364.6406,66.2813 Q364.6406,65.9063 364.9063,65.6719 Q365.1719,65.4375 365.7813,65.4375 L370.9219,65.4375 Q371.5313,65.4375 371.7969,65.6719 Q372.0625,65.9063 372.0625,66.2813 Q372.0625,66.6719 371.7969,66.9063 Q371.5313,67.1406 370.9219,67.1406 L369.2031,67.1406 Z "/><text fill="#000000" font-family="sans-serif" font-size="12" font-style="italic" lengthAdjust="spacingAndGlyphs" textLength="59" x="388.75" y="75.4102">EngineSPI</text><line style="stroke: #A80036; stroke-width: 1.5;" x1="292.5" x2="511.5" y1="86.5" y2="86.5"/><line style="stroke: #A80036; stroke-width: 1.5;" x1="292.5" x2="511.5" y1="94.5" y2="94.5"/><ellipse cx="302.5" cy="105.5" fill="#84BE84" rx="3" ry="3" style="stroke: #038048; stroke-width: 1.0;"/><text fill="#000000" font-family="sans-serif" font-size="11" font-style="italic" lengthAdjust="spacingAndGlyphs" textLength="195" x="311.5" y="109.9189">find(ServletContext, Properties): Engine</text></a><!--MD5=[52c031eca9d14e414123c0f3a82f168a]
class org.apache.wiki.api.spi.SessionSPI--><a href="..\api\spi\SessionSPI.html" target="_top" title="..\api\spi\SessionSPI.html" xlink:actuate="onRequest" xlink:href="..\api\spi\SessionSPI.html" xlink:show="new" xlink:title="..\api\spi\SessionSPI.html" xlink:type="simple"><rect codeLine="55" fill="#FEFECE" filter="url(#fxyb5q91yc9dt)" height="89.5078" id="org.apache.wiki.api.spi.SessionSPI" style="stroke: #A80036; stroke-width: 1.5;" width="233" x="23.5" y="40.5"/><ellipse cx="103.75" cy="56.5" fill="#B4A7E5" rx="11" ry="11" style="stroke: #A80036; stroke-width: 1.0;"/><path d="M104.7031,53.1406 L104.7031,59.7969 L106.4219,59.7969 Q107.0313,59.7969 107.2969,60.0313 Q107.5625,60.2656 107.5625,60.6563 Q107.5625,61.0313 107.2969,61.2656 Q107.0313,61.5 106.4219,61.5 L101.2813,61.5 Q100.6719,61.5 100.4063,61.2656 Q100.1406,61.0313 100.1406,60.6406 Q100.1406,60.2656 100.4063,60.0313 Q100.6719,59.7969 101.2813,59.7969 L103,59.7969 L103,53.1406 L101.2813,53.1406 Q100.6719,53.1406 100.4063,52.9063 Q100.1406,52.6719 100.1406,52.2813 Q100.1406,51.9063 100.4063,51.6719 Q100.6719,51.4375 101.2813,51.4375 L106.4219,51.4375 Q107.0313,51.4375 107.2969,51.6719 Q107.5625,51.9063 107.5625,52.2813 Q107.5625,52.6719 107.2969,52.9063 Q107.0313,53.1406 106.4219,53.1406 L104.7031,53.1406 Z "/><text fill="#000000" font-family="sans-serif" font-size="12" font-style="italic" lengthAdjust="spacingAndGlyphs" textLength="64" x="124.25" y="61.4102">SessionSPI</text><line style="stroke: #A80036; stroke-width: 1.5;" x1="24.5" x2="255.5" y1="72.5" y2="72.5"/><line style="stroke: #A80036; stroke-width: 1.5;" x1="24.5" x2="255.5" y1="80.5" y2="80.5"/><ellipse cx="34.5" cy="91.5" fill="#84BE84" rx="3" ry="3" style="stroke: #038048; stroke-width: 1.0;"/><text fill="#000000" font-family="sans-serif" font-size="11" font-style="italic" lengthAdjust="spacingAndGlyphs" textLength="205" x="43.5" y="95.9189">remove(Engine, HttpServletRequest): void</text><ellipse cx="34.5" cy="105.3359" fill="#84BE84" rx="3" ry="3" style="stroke: #038048; stroke-width: 1.0;"/><text fill="#000000" font-family="sans-serif" font-size="11" font-style="italic" lengthAdjust="spacingAndGlyphs" textLength="207" x="43.5" y="109.7549">find(Engine, HttpServletRequest): Session</text><ellipse cx="34.5" cy="119.1719" fill="#84BE84" rx="3" ry="3" style="stroke: #038048; stroke-width: 1.0;"/><text fill="#000000" font-family="sans-serif" font-size="11" font-style="italic" lengthAdjust="spacingAndGlyphs" textLength="115" x="43.5" y="123.5908">guest(Engine): Session</text></a><!--MD5=[e9b31059058649ce94fcbaaa439892c6]
reverse link org.apache.wiki.api.spi.AclsSPI to org.apache.wiki.spi.AclsSPIDefaultImpl--><path codeLine="30" d="M1224,143.882 C1224,165.9493 1224,190.4819 1224,210.2411 " fill="none" id="org.apache.wiki.api.spi.AclsSPI-backto-org.apache.wiki.spi.AclsSPIDefaultImpl" style="stroke: #A80036; stroke-width: 1.0; stroke-dasharray: 7.0,7.0;"/><polygon fill="none" points="1217.0001,143.7163,1224,123.7163,1231.0001,143.7162,1217.0001,143.7163" style="stroke: #A80036; stroke-width: 1.0;"/><!--MD5=[76506b523babbddcba7740e56960da8f]
reverse link org.apache.wiki.api.spi.ContentsSPI to org.apache.wiki.spi.ContentsSPIDefaultImpl--><path codeLine="31" d="M1004.9856,143.882 C1003.0902,165.9493 1000.9832,190.4819 999.286,210.2411 " fill="none" id="org.apache.wiki.api.spi.ContentsSPI-backto-org.apache.wiki.spi.ContentsSPIDefaultImpl" style="stroke: #A80036; stroke-width: 1.0; stroke-dasharray: 7.0,7.0;"/><polygon fill="none" points="998.0317,143.0438,1006.7176,123.7163,1011.9804,144.2419,998.0317,143.0438" style="stroke: #A80036; stroke-width: 1.0;"/><!--MD5=[1360acf7fc0cafca9b9fe5d9309b1c6a]
reverse link org.apache.wiki.api.spi.ContextSPI to org.apache.wiki.spi.ContextSPIDefaultImpl--><path codeLine="32" d="M694.9084,157.489 C694.3372,170.7919 693.7512,184.4374 693.2124,196.9817 " fill="none" id="org.apache.wiki.api.spi.ContextSPI-backto-org.apache.wiki.spi.ContextSPIDefaultImpl" style="stroke: #A80036; stroke-width: 1.0; stroke-dasharray: 7.0,7.0;"/><polygon fill="none" points="687.9334,156.7554,695.7852,137.0742,701.9205,157.3562,687.9334,156.7554" style="stroke: #A80036; stroke-width: 1.0;"/><!--MD5=[450734fb1794e4448a04b6eb726990cb]
reverse link org.apache.wiki.api.spi.EngineSPI to org.apache.wiki.spi.EngineSPIDefaultImpl--><path codeLine="33" d="M402,136.8346 C402,163.2361 402,194.5549 402,217.2957 " fill="none" id="org.apache.wiki.api.spi.EngineSPI-backto-org.apache.wiki.spi.EngineSPIDefaultImpl" style="stroke: #A80036; stroke-width: 1.0; stroke-dasharray: 7.0,7.0;"/><polygon fill="none" points="395.0001,136.5428,402,116.5427,409.0001,136.5427,395.0001,136.5428" style="stroke: #A80036; stroke-width: 1.0;"/><!--MD5=[e961bf79034f4e3b8f1711b47b5dac8c]
reverse link org.apache.wiki.api.spi.SessionSPI to org.apache.wiki.spi.SessionSPIDefaultImpl--><path codeLine="34" d="M142.0142,151.1617 C142.5514,168.6743 143.1197,187.2017 143.6147,203.3389 " fill="none" id="org.apache.wiki.api.spi.SessionSPI-backto-org.apache.wiki.spi.SessionSPIDefaultImpl" style="stroke: #A80036; stroke-width: 1.0; stroke-dasharray: 7.0,7.0;"/><polygon fill="none" points="135.0094,151.1098,141.3928,130.9046,149.0028,150.6805,135.0094,151.1098" style="stroke: #A80036; stroke-width: 1.0;"/><text fill="#888888" font-family="sans-serif" font-size="10" lengthAdjust="spacingAndGlyphs" textLength="190" x="557.5" y="324.3809">UMLDoclet 2.0.12, PlantUML 1.2020.16</text><!--MD5=[3af36bc237501e0326eda5d3c9783329]
@startuml
    namespace org.apache.wiki.spi {

        class AclsSPIDefaultImpl [[AclsSPIDefaultImpl.html]] {
            +acl(): Acl
            +entry(): AclEntry
        }

        class ContentsSPIDefaultImpl [[ContentsSPIDefaultImpl.html]] {
            +attachment(Engine, String, String): Attachment
            +page(Engine, String): Page
        }

        class ContextSPIDefaultImpl [[ContextSPIDefaultImpl.html]] {
            +create(Engine, Page): Context
            +create(Engine, HttpServletRequest, Command): Context
            +create(Engine, HttpServletRequest, Page): Context
            +create(Engine, HttpServletRequest, String): Context
        }

        class EngineSPIDefaultImpl [[EngineSPIDefaultImpl.html]] {
            +find(ServletContext, Properties): Engine
        }

        class SessionSPIDefaultImpl [[SessionSPIDefaultImpl.html]] {
            +remove(Engine, HttpServletRequest): void
            +find(Engine, HttpServletRequest): Session
            +guest(Engine): Session
        }

        org.apache.wiki.api.spi.AclsSPI <|.. AclsSPIDefaultImpl
        org.apache.wiki.api.spi.ContentsSPI <|.. ContentsSPIDefaultImpl
        org.apache.wiki.api.spi.ContextSPI <|.. ContextSPIDefaultImpl
        org.apache.wiki.api.spi.EngineSPI <|.. EngineSPIDefaultImpl
        org.apache.wiki.api.spi.SessionSPI <|.. SessionSPIDefaultImpl
    }

    namespace org.apache.wiki.api.spi {
        interface AclsSPI [[..\api\spi\AclsSPI.html]] {
            {abstract} +acl(): Acl
            {abstract} +entry(): AclEntry
        }
        interface ContentsSPI [[..\api\spi\ContentsSPI.html]] {
            {abstract} +attachment(Engine, String, String): Attachment
            {abstract} +page(Engine, String): Page
        }
        interface ContextSPI [[..\api\spi\ContextSPI.html]] {
            {abstract} +create(Engine, Page): Context
            {abstract} +create(Engine, HttpServletRequest, Command): Context
            {abstract} +create(Engine, HttpServletRequest, Page): Context
            {abstract} +create(Engine, HttpServletRequest, String): Context
        }
        interface EngineSPI [[..\api\spi\EngineSPI.html]] {
            {abstract} +find(ServletContext, Properties): Engine
        }
        interface SessionSPI [[..\api\spi\SessionSPI.html]] {
            {abstract} +remove(Engine, HttpServletRequest): void
            {abstract} +find(Engine, HttpServletRequest): Session
            {abstract} +guest(Engine): Session
        }
    }

    center footer UMLDoclet 2.0.12, PlantUML 1.2020.16
@enduml

PlantUML version 1.2020.16(Sun Aug 23 22:20:43 CEST 2020)
(APACHE source distribution)
Java Runtime: OpenJDK Runtime Environment
JVM: OpenJDK 64-Bit Server VM
Default Encoding: Cp1252
Language: es
Country: ES
--></g></svg>