<?xml version="1.0" encoding="UTF-8" standalone="no"?><svg xmlns="http://www.w3.org/2000/svg" xmlns:xlink="http://www.w3.org/1999/xlink" contentScriptType="application/ecmascript" contentStyleType="text/css" height="291px" preserveAspectRatio="none" style="width:312px;height:291px;" version="1.1" viewBox="0 0 312 291" width="312px" zoomAndPan="magnify"><defs><filter height="300%" id="f1fxbv7dbnw4kq" width="300%" x="-1" y="-1"><feGaussianBlur result="blurOut" stdDeviation="2.0"/><feColorMatrix in="blurOut" result="blurOut2" type="matrix" values="0 0 0 0 0 0 0 0 0 0 0 0 0 0 0 0 0 0 .4 0"/><feOffset dx="4.0" dy="4.0" in="blurOut2" result="blurOut3"/><feBlend in="SourceGraphic" in2="blurOut3" mode="normal"/></filter></defs><g><!--cluster org.apache.wiki.render.markdown--><polygon fill="#FFFFFF" filter="url(#f1fxbv7dbnw4kq)" points="14,138,258,138,265,161.6094,290,161.6094,290,250,14,250,14,138" style="stroke: #000000; stroke-width: 1.5;"/><line style="stroke: #000000; stroke-width: 1.5;" x1="14" x2="265" y1="161.6094" y2="161.6094"/><text fill="#000000" font-family="sans-serif" font-size="14" font-weight="bold" lengthAdjust="spacingAndGlyphs" textLength="238" x="18" y="154.5332">org.apache.wiki.render.markdown</text><!--cluster org.apache.wiki.render--><polygon fill="#FFFFFF" filter="url(#f1fxbv7dbnw4kq)" points="63,16,231,16,238,39.6094,241,39.6094,241,114,63,114,63,16" style="stroke: #000000; stroke-width: 1.5;"/><line style="stroke: #000000; stroke-width: 1.5;" x1="63" x2="238" y1="39.6094" y2="39.6094"/><text fill="#000000" font-family="sans-serif" font-size="14" font-weight="bold" lengthAdjust="spacingAndGlyphs" textLength="162" x="67" y="32.5332">org.apache.wiki.render</text><!--class org.apache.wiki.render.markdown.MarkdownRenderer--><a href="MarkdownRenderer.html" target="_top" xlink:actuate="onRequest" xlink:show="new" xlink:title="MarkdownRenderer.html" xlink:type="simple"><rect fill="#FEFECE" filter="url(#f1fxbv7dbnw4kq)" height="75.6719" id="org.apache.wiki.render.markdown.MarkdownRenderer" style="stroke: #A80036; stroke-width: 1.5;" width="259" x="22.5" y="166"/><ellipse cx="93.75" cy="182" fill="#ADD1B2" rx="11" ry="11" style="stroke: #A80036; stroke-width: 1.0;"/><path d="M96.5156,177.875 Q96.6719,177.6563 96.8594,177.5469 Q97.0469,177.4375 97.2656,177.4375 Q97.6406,177.4375 97.875,177.6953 Q98.1094,177.9531 98.1094,178.5625 L98.1094,180.0156 Q98.1094,180.625 97.875,180.8906 Q97.6406,181.1563 97.2656,181.1563 Q96.9219,181.1563 96.7188,180.9531 Q96.5156,180.7656 96.4063,180.25 Q96.3594,179.8906 96.1719,179.7031 Q95.8438,179.3281 95.2344,179.1094 Q94.625,178.8906 94,178.8906 Q93.2344,178.8906 92.6016,179.2188 Q91.9688,179.5469 91.4766,180.2969 Q90.9844,181.0469 90.9844,182.0781 L90.9844,183.1719 Q90.9844,184.4063 91.875,185.2266 Q92.7656,186.0469 94.3594,186.0469 Q95.2969,186.0469 95.9531,185.7969 Q96.3438,185.6406 96.7656,185.2031 Q97.0313,184.9375 97.1797,184.8594 Q97.3281,184.7813 97.5313,184.7813 Q97.8594,184.7813 98.1172,185.0391 Q98.375,185.2969 98.375,185.6406 Q98.375,185.9844 98.0313,186.3906 Q97.5313,186.9688 96.7344,187.2969 Q95.6563,187.75 94.3594,187.75 Q92.8438,187.75 91.6406,187.125 Q90.6563,186.625 89.9688,185.5547 Q89.2813,184.4844 89.2813,183.2031 L89.2813,182.0469 Q89.2813,180.7188 89.8984,179.5703 Q90.5156,178.4219 91.6094,177.8047 Q92.7031,177.1875 93.9375,177.1875 Q94.6719,177.1875 95.3203,177.3516 Q95.9688,177.5156 96.5156,177.875 Z "/><text fill="#000000" font-family="sans-serif" font-size="12" lengthAdjust="spacingAndGlyphs" textLength="108" x="114.25" y="186.9102">MarkdownRenderer</text><line style="stroke: #A80036; stroke-width: 1.5;" x1="23.5" x2="280.5" y1="198" y2="198"/><line style="stroke: #A80036; stroke-width: 1.5;" x1="23.5" x2="280.5" y1="206" y2="206"/><ellipse cx="33.5" cy="218.418" fill="#84BE84" rx="3" ry="3" style="stroke: #038048; stroke-width: 1.0;"/><text fill="#000000" font-family="sans-serif" font-size="11" lengthAdjust="spacingAndGlyphs" textLength="233" x="42.5" y="221.4189">MarkdownRenderer(WikiContext, WikiDocument)</text><ellipse cx="33.5" cy="232.2539" fill="#84BE84" rx="3" ry="3" style="stroke: #038048; stroke-width: 1.0;"/><text fill="#000000" font-family="sans-serif" font-size="11" lengthAdjust="spacingAndGlyphs" textLength="85" x="42.5" y="235.2549">getString(): String</text></a><!--class org.apache.wiki.render.WikiRenderer--><rect fill="#FEFECE" filter="url(#f1fxbv7dbnw4kq)" height="61.8359" id="org.apache.wiki.render.WikiRenderer" style="stroke: #A80036; stroke-width: 1.5;" width="113" x="95.5" y="44"/><ellipse cx="112.75" cy="60" fill="#A9DCDF" rx="11" ry="11" style="stroke: #A80036; stroke-width: 1.0;"/><path d="M114.9375,61.7656 L110.7969,61.7656 L110.375,62.7969 L110.7969,62.7969 Q111.4063,62.7969 111.6719,63.0313 Q111.9375,63.2656 111.9375,63.6563 Q111.9375,64.0313 111.6719,64.2656 Q111.4063,64.5 110.7969,64.5 L108.5,64.5 Q107.8906,64.5 107.6328,64.2656 Q107.375,64.0313 107.375,63.6406 Q107.375,63.2656 107.6484,63.0234 Q107.9219,62.7813 108.5469,62.7969 L111.2188,56.1406 L110.1094,56.1406 Q109.5,56.1406 109.2344,55.9063 Q108.9688,55.6719 108.9688,55.2813 Q108.9688,54.9063 109.2344,54.6719 Q109.5,54.4375 110.1094,54.4375 L113.7813,54.4375 L117.1719,62.7969 Q117.7656,62.7969 117.9531,62.9375 Q118.3438,63.2031 118.3438,63.6563 Q118.3438,64.0313 118.0859,64.2656 Q117.8281,64.5 117.2188,64.5 L114.9219,64.5 Q114.3125,64.5 114.0469,64.2656 Q113.7813,64.0313 113.7813,63.6406 Q113.7813,63.2656 114.0469,63.0313 Q114.3125,62.7969 114.9219,62.7969 L115.3438,62.7969 L114.9375,61.7656 Z M114.2188,60.0625 L112.8594,56.6875 L111.4844,60.0625 L114.2188,60.0625 Z "/><text fill="#000000" font-family="sans-serif" font-size="12" font-style="italic" lengthAdjust="spacingAndGlyphs" textLength="76" x="127.25" y="64.9102">WikiRenderer</text><line style="stroke: #A80036; stroke-width: 1.5;" x1="96.5" x2="207.5" y1="76" y2="76"/><line style="stroke: #A80036; stroke-width: 1.5;" x1="96.5" x2="207.5" y1="84" y2="84"/><ellipse cx="106.5" cy="96.418" fill="#84BE84" rx="3" ry="3" style="stroke: #038048; stroke-width: 1.0;"/><text fill="#000000" font-family="sans-serif" font-size="11" font-style="italic" lengthAdjust="spacingAndGlyphs" textLength="87" x="115.5" y="99.4189">getString(): String</text><!--link org.apache.wiki.render.WikiRenderer to org.apache.wiki.render.markdown.MarkdownRenderer--><path d="M152,126.4842 C152,139.5654 152,153.3919 152,165.6886 " fill="none" id="org.apache.wiki.render.WikiRenderer-org.apache.wiki.render.markdown.MarkdownRenderer" style="stroke: #A80036; stroke-width: 1.0;"/><polygon fill="none" points="145.0001,126.2273,152,106.2273,159.0001,126.2273,145.0001,126.2273" style="stroke: #A80036; stroke-width: 1.0;"/><text fill="#888888" font-family="sans-serif" font-size="10" lengthAdjust="spacingAndGlyphs" textLength="184" x="66" y="278.3809">UMLDoclet 1.1.4, PlantUML 1.2019.05</text><!--
@startuml

    namespace org.apache.wiki.render.markdown {

        class MarkdownRenderer [[MarkdownRenderer.html]] {
            +MarkdownRenderer(WikiContext, WikiDocument)
            +getString(): String
        }

        abstract class org.apache.wiki.render.WikiRenderer {
            {abstract} +getString(): String
        }
        org.apache.wiki.render.WikiRenderer <|- - MarkdownRenderer

    }


    center footer UMLDoclet 1.1.4, PlantUML 1.2019.05
@enduml

PlantUML version 1.2019.05(Sat Apr 20 18:45:36 CEST 2019)
(APACHE source distribution)
Java Runtime: OpenJDK Runtime Environment
JVM: OpenJDK 64-Bit Server VM
Java Version: 1.8.0_212-b03
Operating System: Windows 10
OS Version: 10.0
Default Encoding: Cp1252
Language: es
Country: ES
--></g></svg>