<?xml version="1.0" encoding="UTF-8" standalone="no"?><svg xmlns="http://www.w3.org/2000/svg" xmlns:xlink="http://www.w3.org/1999/xlink" contentScriptType="application/ecmascript" contentStyleType="text/css" height="374px" preserveAspectRatio="none" style="width:350px;height:374px;" version="1.1" viewBox="0 0 350 374" width="350px" zoomAndPan="magnify"><defs><filter height="300%" id="f1f0crf3m4hq33" width="300%" x="-1" y="-1"><feGaussianBlur result="blurOut" stdDeviation="2.0"/><feColorMatrix in="blurOut" result="blurOut2" type="matrix" values="0 0 0 0 0 0 0 0 0 0 0 0 0 0 0 0 0 0 .4 0"/><feOffset dx="4.0" dy="4.0" in="blurOut2" result="blurOut3"/><feBlend in="SourceGraphic" in2="blurOut3" mode="normal"/></filter></defs><g><!--cluster org.apache.wiki.tasks--><polygon fill="#FFFFFF" filter="url(#f1f0crf3m4hq33)" points="14,16,171,16,178,39.6094,328,39.6094,328,333,14,333,14,16" style="stroke: #000000; stroke-width: 1.5;"/><line style="stroke: #000000; stroke-width: 1.5;" x1="14" x2="178" y1="39.6094" y2="39.6094"/><text fill="#000000" font-family="sans-serif" font-size="14" font-weight="bold" lengthAdjust="spacingAndGlyphs" textLength="151" x="18" y="32.5332">org.apache.wiki.tasks</text><!--class org.apache.wiki.tasks.TasksManager--><a href="TasksManager.html" target="_top" xlink:actuate="onRequest" xlink:show="new" xlink:title="TasksManager.html" xlink:type="simple"><rect fill="#FEFECE" filter="url(#f1f0crf3m4hq33)" height="131.0156" id="org.apache.wiki.tasks.TasksManager" style="stroke: #A80036; stroke-width: 1.5;" width="297" x="22.5" y="44"/><ellipse cx="126.25" cy="60" fill="#B4A7E5" rx="11" ry="11" style="stroke: #A80036; stroke-width: 1.0;"/><path d="M127.2031,56.6406 L127.2031,63.2969 L128.9219,63.2969 Q129.5313,63.2969 129.7969,63.5313 Q130.0625,63.7656 130.0625,64.1563 Q130.0625,64.5313 129.7969,64.7656 Q129.5313,65 128.9219,65 L123.7813,65 Q123.1719,65 122.9063,64.7656 Q122.6406,64.5313 122.6406,64.1406 Q122.6406,63.7656 122.9063,63.5313 Q123.1719,63.2969 123.7813,63.2969 L125.5,63.2969 L125.5,56.6406 L123.7813,56.6406 Q123.1719,56.6406 122.9063,56.4063 Q122.6406,56.1719 122.6406,55.7813 Q122.6406,55.4063 122.9063,55.1719 Q123.1719,54.9375 123.7813,54.9375 L128.9219,54.9375 Q129.5313,54.9375 129.7969,55.1719 Q130.0625,55.4063 130.0625,55.7813 Q130.0625,56.1719 129.7969,56.4063 Q129.5313,56.6406 128.9219,56.6406 L127.2031,56.6406 Z "/><text fill="#000000" font-family="sans-serif" font-size="12" font-style="italic" lengthAdjust="spacingAndGlyphs" textLength="81" x="146.75" y="64.9102">TasksManager</text><line style="stroke: #A80036; stroke-width: 1.5;" x1="23.5" x2="318.5" y1="76" y2="76"/><ellipse cx="33.5" cy="88.418" fill="none" rx="3" ry="3" style="stroke: #038048; stroke-width: 1.0;"/><text fill="#000000" font-family="sans-serif" font-size="11" lengthAdjust="spacingAndGlyphs" text-decoration="underline" textLength="254" x="42.5" y="91.4189">WIKIPAGE_PRESAVE_TASK_MESSAGE_KEY: String</text><ellipse cx="33.5" cy="102.2539" fill="none" rx="3" ry="3" style="stroke: #038048; stroke-width: 1.0;"/><text fill="#000000" font-family="sans-serif" font-size="11" lengthAdjust="spacingAndGlyphs" text-decoration="underline" textLength="235" x="42.5" y="105.2549">WIKIPAGE_SAVE_TASK_MESSAGE_KEY: String</text><ellipse cx="33.5" cy="116.0898" fill="none" rx="3" ry="3" style="stroke: #038048; stroke-width: 1.0;"/><text fill="#000000" font-family="sans-serif" font-size="11" lengthAdjust="spacingAndGlyphs" text-decoration="underline" textLength="260" x="42.5" y="119.0908">USER_PROFILE_SAVE_TASK_MESSAGE_KEY: String</text><line style="stroke: #A80036; stroke-width: 1.5;" x1="23.5" x2="318.5" y1="125.5078" y2="125.5078"/><ellipse cx="33.5" cy="137.9258" fill="#84BE84" rx="3" ry="3" style="stroke: #038048; stroke-width: 1.0;"/><text fill="#000000" font-family="sans-serif" font-size="11" font-style="italic" lengthAdjust="spacingAndGlyphs" textLength="271" x="42.5" y="140.9268">buildPreSaveWikiPageTask(WikiContext, String): Step</text><ellipse cx="33.5" cy="151.7617" fill="#84BE84" rx="3" ry="3" style="stroke: #038048; stroke-width: 1.0;"/><text fill="#000000" font-family="sans-serif" font-size="11" font-style="italic" lengthAdjust="spacingAndGlyphs" textLength="158" x="42.5" y="154.7627">buildSaveWikiPageTask(): Step</text><ellipse cx="33.5" cy="165.5977" fill="#84BE84" rx="3" ry="3" style="stroke: #038048; stroke-width: 1.0;"/><text fill="#000000" font-family="sans-serif" font-size="11" font-style="italic" lengthAdjust="spacingAndGlyphs" textLength="261" x="42.5" y="168.5986">buildSaveUserProfileTask(WikiEngine, Locale): Step</text></a><!--class org.apache.wiki.tasks.DefaultTasksManager--><a href="DefaultTasksManager.html" target="_top" xlink:actuate="onRequest" xlink:show="new" xlink:title="DefaultTasksManager.html" xlink:type="simple"><rect fill="#FEFECE" filter="url(#f1f0crf3m4hq33)" height="89.5078" id="org.apache.wiki.tasks.DefaultTasksManager" style="stroke: #A80036; stroke-width: 1.5;" width="281" x="30.5" y="235"/><ellipse cx="106.25" cy="251" fill="#ADD1B2" rx="11" ry="11" style="stroke: #A80036; stroke-width: 1.0;"/><path d="M109.0156,246.875 Q109.1719,246.6563 109.3594,246.5469 Q109.5469,246.4375 109.7656,246.4375 Q110.1406,246.4375 110.375,246.6953 Q110.6094,246.9531 110.6094,247.5625 L110.6094,249.0156 Q110.6094,249.625 110.375,249.8906 Q110.1406,250.1563 109.7656,250.1563 Q109.4219,250.1563 109.2188,249.9531 Q109.0156,249.7656 108.9063,249.25 Q108.8594,248.8906 108.6719,248.7031 Q108.3438,248.3281 107.7344,248.1094 Q107.125,247.8906 106.5,247.8906 Q105.7344,247.8906 105.1016,248.2188 Q104.4688,248.5469 103.9766,249.2969 Q103.4844,250.0469 103.4844,251.0781 L103.4844,252.1719 Q103.4844,253.4063 104.375,254.2266 Q105.2656,255.0469 106.8594,255.0469 Q107.7969,255.0469 108.4531,254.7969 Q108.8438,254.6406 109.2656,254.2031 Q109.5313,253.9375 109.6797,253.8594 Q109.8281,253.7813 110.0313,253.7813 Q110.3594,253.7813 110.6172,254.0391 Q110.875,254.2969 110.875,254.6406 Q110.875,254.9844 110.5313,255.3906 Q110.0313,255.9688 109.2344,256.2969 Q108.1563,256.75 106.8594,256.75 Q105.3438,256.75 104.1406,256.125 Q103.1563,255.625 102.4688,254.5547 Q101.7813,253.4844 101.7813,252.2031 L101.7813,251.0469 Q101.7813,249.7188 102.3984,248.5703 Q103.0156,247.4219 104.1094,246.8047 Q105.2031,246.1875 106.4375,246.1875 Q107.1719,246.1875 107.8203,246.3516 Q108.4688,246.5156 109.0156,246.875 Z "/><text fill="#000000" font-family="sans-serif" font-size="12" lengthAdjust="spacingAndGlyphs" textLength="121" x="126.75" y="255.9102">DefaultTasksManager</text><line style="stroke: #A80036; stroke-width: 1.5;" x1="31.5" x2="310.5" y1="267" y2="267"/><line style="stroke: #A80036; stroke-width: 1.5;" x1="31.5" x2="310.5" y1="275" y2="275"/><ellipse cx="41.5" cy="287.418" fill="#84BE84" rx="3" ry="3" style="stroke: #038048; stroke-width: 1.0;"/><text fill="#000000" font-family="sans-serif" font-size="11" lengthAdjust="spacingAndGlyphs" textLength="255" x="50.5" y="290.4189">buildPreSaveWikiPageTask(WikiContext, String): Step</text><ellipse cx="41.5" cy="301.2539" fill="#84BE84" rx="3" ry="3" style="stroke: #038048; stroke-width: 1.0;"/><text fill="#000000" font-family="sans-serif" font-size="11" lengthAdjust="spacingAndGlyphs" textLength="149" x="50.5" y="304.2549">buildSaveWikiPageTask(): Step</text><ellipse cx="41.5" cy="315.0898" fill="#84BE84" rx="3" ry="3" style="stroke: #038048; stroke-width: 1.0;"/><text fill="#000000" font-family="sans-serif" font-size="11" lengthAdjust="spacingAndGlyphs" textLength="248" x="50.5" y="318.0908">buildSaveUserProfileTask(WikiEngine, Locale): Step</text></a><!--link org.apache.wiki.tasks.TasksManager to org.apache.wiki.tasks.DefaultTasksManager--><path d="M171,195.7661 C171,209.2711 171,222.7421 171,234.8231 " fill="none" id="org.apache.wiki.tasks.TasksManager-org.apache.wiki.tasks.DefaultTasksManager" style="stroke: #A80036; stroke-width: 1.0; stroke-dasharray: 7.0,7.0;"/><polygon fill="none" points="164.0001,195.4198,171,175.4198,178.0001,195.4197,164.0001,195.4198" style="stroke: #A80036; stroke-width: 1.0;"/><text fill="#888888" font-family="sans-serif" font-size="10" lengthAdjust="spacingAndGlyphs" textLength="184" x="85" y="361.3809">UMLDoclet 1.1.4, PlantUML 1.2019.05</text><!--
@startuml

    namespace org.apache.wiki.tasks {

        interface TasksManager [[TasksManager.html]] {
            {static} +WIKIPAGE_PRESAVE_TASK_MESSAGE_KEY: String
            {static} +WIKIPAGE_SAVE_TASK_MESSAGE_KEY: String
            {static} +USER_PROFILE_SAVE_TASK_MESSAGE_KEY: String
            {abstract} +buildPreSaveWikiPageTask(WikiContext, String): Step
            {abstract} +buildSaveWikiPageTask(): Step
            {abstract} +buildSaveUserProfileTask(WikiEngine, Locale): Step
        }

        class DefaultTasksManager [[DefaultTasksManager.html]] {
            +buildPreSaveWikiPageTask(WikiContext, String): Step
            +buildSaveWikiPageTask(): Step
            +buildSaveUserProfileTask(WikiEngine, Locale): Step
        }

        TasksManager <|.. DefaultTasksManager

    }


    center footer UMLDoclet 1.1.4, PlantUML 1.2019.05
@enduml

PlantUML version 1.2019.05(Sat Apr 20 18:45:36 CEST 2019)
(APACHE source distribution)
Java Runtime: OpenJDK Runtime Environment
JVM: OpenJDK 64-Bit Server VM
Java Version: 1.8.0_212-b03
Operating System: Windows 10
OS Version: 10.0
Default Encoding: Cp1252
Language: es
Country: ES
--></g></svg>