<?xml version="1.0" encoding="UTF-8" standalone="no"?><svg xmlns="http://www.w3.org/2000/svg" xmlns:xlink="http://www.w3.org/1999/xlink" contentScriptType="application/ecmascript" contentStyleType="text/css" height="311px" preserveAspectRatio="none" style="width:338px;height:311px;" version="1.1" viewBox="0 0 338 311" width="338px" zoomAndPan="magnify"><defs><filter height="300%" id="f3tzs3bfioykr" width="300%" x="-1" y="-1"><feGaussianBlur result="blurOut" stdDeviation="2.0"/><feColorMatrix in="blurOut" result="blurOut2" type="matrix" values="0 0 0 0 0 0 0 0 0 0 0 0 0 0 0 0 0 0 .4 0"/><feOffset dx="4.0" dy="4.0" in="blurOut2" result="blurOut3"/><feBlend in="SourceGraphic" in2="blurOut3" mode="normal"/></filter></defs><g><!--MD5=[ecec1072b1fec46c11893203695e8936]
class org.apache.wiki.auth.permissions.AllPermission--><a href="AllPermission.html" target="_top" title="AllPermission.html" xlink:actuate="onRequest" xlink:href="AllPermission.html" xlink:show="new" xlink:title="AllPermission.html" xlink:type="simple"><rect codeLine="5" fill="#FEFECE" filter="url(#f3tzs3bfioykr)" height="131.2031" id="org.apache.wiki.auth.permissions.AllPermission" style="stroke: #A80036; stroke-width: 1.5;" width="258" x="51" y="143"/><ellipse cx="98.25" cy="163.0938" fill="#ADD1B2" rx="11" ry="11" style="stroke: #A80036; stroke-width: 1.0;"/><path d="M101.0156,158.9688 Q101.1719,158.75 101.3594,158.6406 Q101.5469,158.5313 101.7656,158.5313 Q102.1406,158.5313 102.375,158.7969 Q102.6094,159.0469 102.6094,159.6563 L102.6094,161.1094 Q102.6094,161.7188 102.375,161.9844 Q102.1406,162.25 101.7656,162.25 Q101.4219,162.25 101.2188,162.0469 Q101.0156,161.8594 100.9063,161.3438 Q100.8594,160.9844 100.6719,160.7969 Q100.3438,160.4219 99.7344,160.2031 Q99.125,159.9844 98.5,159.9844 Q97.7344,159.9844 97.0938,160.3125 Q96.4688,160.6406 95.9688,161.3906 Q95.4844,162.1406 95.4844,163.1719 L95.4844,164.2656 Q95.4844,165.5 96.375,166.3281 Q97.2656,167.1406 98.8594,167.1406 Q99.7969,167.1406 100.4531,166.8906 Q100.8438,166.7344 101.2656,166.2969 Q101.5313,166.0313 101.6719,165.9531 Q101.8281,165.875 102.0313,165.875 Q102.3594,165.875 102.6094,166.1406 Q102.875,166.3906 102.875,166.7344 Q102.875,167.0781 102.5313,167.4844 Q102.0313,168.0625 101.2344,168.3906 Q100.1563,168.8438 98.8594,168.8438 Q97.3438,168.8438 96.1406,168.2188 Q95.1563,167.7188 94.4688,166.6563 Q93.7813,165.5781 93.7813,164.2969 L93.7813,163.1406 Q93.7813,161.8125 94.3906,160.6719 Q95.0156,159.5156 96.1094,158.9063 Q97.2031,158.2813 98.4375,158.2813 Q99.1719,158.2813 99.8125,158.4531 Q100.4688,158.6094 101.0156,158.9688 Z "/><text fill="#000000" font-family="sans-serif" font-size="14" lengthAdjust="spacingAndGlyphs" textLength="84" x="154.25" y="162.5332">AllPermission</text><text fill="#000000" font-family="sans-serif" font-size="10" lengthAdjust="spacingAndGlyphs" textLength="155" x="118.75" y="175.9902">org.apache.wiki.auth.permissions</text><line style="stroke: #A80036; stroke-width: 1.5;" x1="52" x2="308" y1="183.1875" y2="183.1875"/><polygon fill="#FFFF44" points="62,189.1875,66,193.1875,62,197.1875,58,193.1875" style="stroke: #B38D22; stroke-width: 1.0;"/><text fill="#000000" font-family="sans-serif" font-size="11" lengthAdjust="spacingAndGlyphs" textLength="72" x="71" y="198.6064">AllPermission()</text><ellipse cx="62" cy="208.0234" fill="#84BE84" rx="3" ry="3" style="stroke: #038048; stroke-width: 1.0;"/><text fill="#000000" font-family="sans-serif" font-size="11" lengthAdjust="spacingAndGlyphs" textLength="100" x="71" y="212.4424">AllPermission(String)</text><ellipse cx="62" cy="221.8594" fill="#84BE84" rx="3" ry="3" style="stroke: #038048; stroke-width: 1.0;"/><text fill="#000000" font-family="sans-serif" font-size="11" lengthAdjust="spacingAndGlyphs" textLength="94" x="71" y="226.2783">getActions(): String</text><ellipse cx="62" cy="235.6953" fill="#84BE84" rx="3" ry="3" style="stroke: #038048; stroke-width: 1.0;"/><text fill="#000000" font-family="sans-serif" font-size="11" lengthAdjust="spacingAndGlyphs" textLength="76" x="71" y="240.1143">getWiki(): String</text><ellipse cx="62" cy="249.5313" fill="#84BE84" rx="3" ry="3" style="stroke: #038048; stroke-width: 1.0;"/><text fill="#000000" font-family="sans-serif" font-size="11" lengthAdjust="spacingAndGlyphs" textLength="136" x="71" y="253.9502">implies(Permission): boolean</text><ellipse cx="62" cy="263.3672" fill="#84BE84" rx="3" ry="3" style="stroke: #038048; stroke-width: 1.0;"/><text fill="#000000" font-family="sans-serif" font-size="11" lengthAdjust="spacingAndGlyphs" textLength="232" x="71" y="267.7861">newPermissionCollection(): PermissionCollection</text></a><!--MD5=[8ecc5ab52b5db3e6aee192eba9449f2a]
class java.security.Permission--><rect codeLine="14" fill="#FEFECE" filter="url(#f3tzs3bfioykr)" height="75.8594" id="java.security.Permission" style="stroke: #A80036; stroke-width: 1.5;" width="172" x="7" y="7"/><ellipse cx="54.25" cy="27.0938" fill="#A9DCDF" rx="11" ry="11" style="stroke: #A80036; stroke-width: 1.0;"/><path d="M56.4375,28.8594 L52.2969,28.8594 L51.875,29.8906 L52.2969,29.8906 Q52.9063,29.8906 53.1719,30.125 Q53.4375,30.3594 53.4375,30.75 Q53.4375,31.125 53.1719,31.3594 Q52.9063,31.5938 52.2969,31.5938 L50,31.5938 Q49.3906,31.5938 49.1406,31.3594 Q48.875,31.125 48.875,30.7344 Q48.875,30.3594 49.1563,30.125 Q49.4219,29.875 50.0469,29.8906 L52.7188,23.2344 L51.6094,23.2344 Q51,23.2344 50.7344,23 Q50.4688,22.7656 50.4688,22.375 Q50.4688,22 50.7344,21.7656 Q51,21.5313 51.6094,21.5313 L55.2813,21.5313 L58.6719,29.8906 Q59.2656,29.8906 59.4531,30.0313 Q59.8438,30.2969 59.8438,30.75 Q59.8438,31.125 59.5781,31.3594 Q59.3281,31.5938 58.7188,31.5938 L56.4219,31.5938 Q55.8125,31.5938 55.5469,31.3594 Q55.2813,31.125 55.2813,30.7344 Q55.2813,30.3594 55.5469,30.125 Q55.8125,29.8906 56.4219,29.8906 L56.8438,29.8906 L56.4375,28.8594 Z M55.7188,27.1563 L54.3594,23.7813 L52.9844,27.1563 L55.7188,27.1563 Z "/><text fill="#000000" font-family="sans-serif" font-size="14" font-style="italic" lengthAdjust="spacingAndGlyphs" textLength="69" x="74.75" y="26.5332">Permission</text><text fill="#000000" font-family="sans-serif" font-size="10" font-style="italic" lengthAdjust="spacingAndGlyphs" textLength="58" x="80.25" y="39.9902">java.security</text><line style="stroke: #A80036; stroke-width: 1.5;" x1="8" x2="178" y1="47.1875" y2="47.1875"/><ellipse cx="18" cy="58.1875" fill="#84BE84" rx="3" ry="3" style="stroke: #038048; stroke-width: 1.0;"/><text fill="#000000" font-family="sans-serif" font-size="11" font-style="italic" lengthAdjust="spacingAndGlyphs" textLength="146" x="27" y="62.6064">implies(Permission): boolean</text><ellipse cx="18" cy="72.0234" fill="#84BE84" rx="3" ry="3" style="stroke: #038048; stroke-width: 1.0;"/><text fill="#000000" font-family="sans-serif" font-size="11" font-style="italic" lengthAdjust="spacingAndGlyphs" textLength="95" x="27" y="76.4424">getActions(): String</text><!--MD5=[5a5af9b0547913863cbe0ddf55a9ab5e]
class java.io.Serializable--><rect codeLine="18" fill="#FEFECE" filter="url(#f3tzs3bfioykr)" height="40.1875" id="java.io.Serializable" style="stroke: #A80036; stroke-width: 1.5;" width="105" x="214.5" y="25"/><ellipse cx="229.5" cy="45.0938" fill="#B4A7E5" rx="11" ry="11" style="stroke: #A80036; stroke-width: 1.0;"/><path d="M230.4531,41.7344 L230.4531,48.3906 L232.1719,48.3906 Q232.7813,48.3906 233.0469,48.625 Q233.3125,48.8594 233.3125,49.25 Q233.3125,49.625 233.0469,49.8594 Q232.7813,50.0938 232.1719,50.0938 L227.0313,50.0938 Q226.4219,50.0938 226.1563,49.8594 Q225.8906,49.625 225.8906,49.2344 Q225.8906,48.8594 226.1563,48.625 Q226.4219,48.3906 227.0313,48.3906 L228.75,48.3906 L228.75,41.7344 L227.0313,41.7344 Q226.4219,41.7344 226.1563,41.5 Q225.8906,41.2656 225.8906,40.875 Q225.8906,40.5 226.1563,40.2656 Q226.4219,40.0313 227.0313,40.0313 L232.1719,40.0313 Q232.7813,40.0313 233.0469,40.2656 Q233.3125,40.5 233.3125,40.875 Q233.3125,41.2656 233.0469,41.5 Q232.7813,41.7344 232.1719,41.7344 L230.4531,41.7344 Z "/><text fill="#000000" font-family="sans-serif" font-size="14" font-style="italic" lengthAdjust="spacingAndGlyphs" textLength="73" x="243.5" y="44.5332">Serializable</text><text fill="#000000" font-family="sans-serif" font-size="10" font-style="italic" lengthAdjust="spacingAndGlyphs" textLength="31" x="264.5" y="57.9902">java.io</text><!--MD5=[58899357b03cf5c4e181cfbd38aeef2d]
reverse link java.security.Permission to org.apache.wiki.auth.permissions.AllPermission--><path codeLine="20" d="M123.0093,101.3969 C130.1242,114.768 137.7735,129.1433 145.0857,142.8852 " fill="none" id="java.security.Permission-backto-org.apache.wiki.auth.permissions.AllPermission" style="stroke: #A80036; stroke-width: 1.0;"/><polygon fill="none" points="116.613,104.2778,113.3976,83.3335,128.9722,97.7013,116.613,104.2778" style="stroke: #A80036; stroke-width: 1.0;"/><!--MD5=[18576e9016d19de10edb469d9959344c]
reverse link java.io.Serializable to org.apache.wiki.auth.permissions.AllPermission--><path codeLine="21" d="M246.8195,82.9254 C237.3191,100.7796 225.7119,122.5932 214.8536,142.9992 " fill="none" id="java.io.Serializable-backto-org.apache.wiki.auth.permissions.AllPermission" style="stroke: #A80036; stroke-width: 1.0; stroke-dasharray: 7.0,7.0;"/><polygon fill="none" points="240.7575,79.4161,256.3321,65.0483,253.1167,85.9926,240.7575,79.4161" style="stroke: #A80036; stroke-width: 1.0;"/><text fill="#888888" font-family="sans-serif" font-size="10" lengthAdjust="spacingAndGlyphs" textLength="190" x="65.25" y="297.584">UMLDoclet 2.0.12, PlantUML 1.2020.16</text><!--MD5=[3f6435a960dba39cb05597f55b0811c5]
@startuml
    set namespaceSeparator none
    hide empty fields
    hide empty methods

    class "<size:14>AllPermission\n<size:10>org.apache.wiki.auth.permissions" as org.apache.wiki.auth.permissions.AllPermission [[AllPermission.html]] {
        #AllPermission()
        +AllPermission(String)
        +getActions(): String
        +getWiki(): String
        +implies(Permission): boolean
        +newPermissionCollection(): PermissionCollection
    }

    abstract class "<size:14>Permission\n<size:10>java.security" as java.security.Permission {
        {abstract} +implies(Permission): boolean
        {abstract} +getActions(): String
    }
    interface "<size:14>Serializable\n<size:10>java.io" as java.io.Serializable

    java.security.Permission <|- - org.apache.wiki.auth.permissions.AllPermission
    java.io.Serializable <|.. org.apache.wiki.auth.permissions.AllPermission

    center footer UMLDoclet 2.0.12, PlantUML 1.2020.16
@enduml

PlantUML version 1.2020.16(Sun Aug 23 22:20:43 CEST 2020)
(APACHE source distribution)
Java Runtime: OpenJDK Runtime Environment
JVM: OpenJDK 64-Bit Server VM
Default Encoding: Cp1252
Language: es
Country: ES
--></g></svg>