<?xml version="1.0" encoding="UTF-8" standalone="no"?><svg xmlns="http://www.w3.org/2000/svg" xmlns:xlink="http://www.w3.org/1999/xlink" contentScriptType="application/ecmascript" contentStyleType="text/css" height="490px" preserveAspectRatio="none" style="width:336px;height:490px;" version="1.1" viewBox="0 0 336 490" width="336px" zoomAndPan="magnify"><defs><filter height="300%" id="f1m0am2nfsmyhu" width="300%" x="-1" y="-1"><feGaussianBlur result="blurOut" stdDeviation="2.0"/><feColorMatrix in="blurOut" result="blurOut2" type="matrix" values="0 0 0 0 0 0 0 0 0 0 0 0 0 0 0 0 0 0 .4 0"/><feOffset dx="4.0" dy="4.0" in="blurOut2" result="blurOut3"/><feBlend in="SourceGraphic" in2="blurOut3" mode="normal"/></filter></defs><g><!--class WorkflowManager--><a href="WorkflowManager.html" target="_top" xlink:actuate="onRequest" xlink:show="new" xlink:title="WorkflowManager.html" xlink:type="simple"><rect fill="#FEFECE" filter="url(#f1m0am2nfsmyhu)" height="449.2422" id="WorkflowManager" style="stroke: #A80036; stroke-width: 1.5;" width="319" x="6" y="8"/><ellipse cx="112.25" cy="24" fill="#ADD1B2" rx="11" ry="11" style="stroke: #A80036; stroke-width: 1.0;"/><path d="M115.0156,19.875 Q115.1719,19.6563 115.3594,19.5469 Q115.5469,19.4375 115.7656,19.4375 Q116.1406,19.4375 116.375,19.6953 Q116.6094,19.9531 116.6094,20.5625 L116.6094,22.0156 Q116.6094,22.625 116.375,22.8906 Q116.1406,23.1563 115.7656,23.1563 Q115.4219,23.1563 115.2188,22.9531 Q115.0156,22.7656 114.9063,22.25 Q114.8594,21.8906 114.6719,21.7031 Q114.3438,21.3281 113.7344,21.1094 Q113.125,20.8906 112.5,20.8906 Q111.7344,20.8906 111.1016,21.2188 Q110.4688,21.5469 109.9766,22.2969 Q109.4844,23.0469 109.4844,24.0781 L109.4844,25.1719 Q109.4844,26.4063 110.375,27.2266 Q111.2656,28.0469 112.8594,28.0469 Q113.7969,28.0469 114.4531,27.7969 Q114.8438,27.6406 115.2656,27.2031 Q115.5313,26.9375 115.6797,26.8594 Q115.8281,26.7813 116.0313,26.7813 Q116.3594,26.7813 116.6172,27.0391 Q116.875,27.2969 116.875,27.6406 Q116.875,27.9844 116.5313,28.3906 Q116.0313,28.9688 115.2344,29.2969 Q114.1563,29.75 112.8594,29.75 Q111.3438,29.75 110.1406,29.125 Q109.1563,28.625 108.4688,27.5547 Q107.7813,26.4844 107.7813,25.2031 L107.7813,24.0469 Q107.7813,22.7188 108.3984,21.5703 Q109.0156,20.4219 110.1094,19.8047 Q111.2031,19.1875 112.4375,19.1875 Q113.1719,19.1875 113.8203,19.3516 Q114.4688,19.5156 115.0156,19.875 Z "/><text fill="#000000" font-family="sans-serif" font-size="12" lengthAdjust="spacingAndGlyphs" textLength="98" x="132.75" y="28.9102">WorkflowManager</text><line style="stroke: #A80036; stroke-width: 1.5;" x1="7" x2="324" y1="40" y2="40"/><ellipse cx="17" cy="52.418" fill="none" rx="3" ry="3" style="stroke: #038048; stroke-width: 1.0;"/><text fill="#000000" font-family="sans-serif" font-size="11" lengthAdjust="spacingAndGlyphs" text-decoration="underline" textLength="274" x="26" y="55.4189">WF_WP_SAVE_ATTR_PRESAVE_WIKI_CONTEXT: String</text><ellipse cx="17" cy="66.2539" fill="none" rx="3" ry="3" style="stroke: #038048; stroke-width: 1.0;"/><text fill="#000000" font-family="sans-serif" font-size="11" lengthAdjust="spacingAndGlyphs" text-decoration="underline" textLength="169" x="26" y="69.2549">WF_WP_SAVE_APPROVER: String</text><ellipse cx="17" cy="80.0898" fill="none" rx="3" ry="3" style="stroke: #038048; stroke-width: 1.0;"/><text fill="#000000" font-family="sans-serif" font-size="11" lengthAdjust="spacingAndGlyphs" text-decoration="underline" textLength="242" x="26" y="83.0908">WF_WP_SAVE_DECISION_MESSAGE_KEY: String</text><ellipse cx="17" cy="93.9258" fill="none" rx="3" ry="3" style="stroke: #038048; stroke-width: 1.0;"/><text fill="#000000" font-family="sans-serif" font-size="11" lengthAdjust="spacingAndGlyphs" text-decoration="underline" textLength="233" x="26" y="96.9268">WF_WP_SAVE_REJECT_MESSAGE_KEY: String</text><ellipse cx="17" cy="107.7617" fill="none" rx="3" ry="3" style="stroke: #038048; stroke-width: 1.0;"/><text fill="#000000" font-family="sans-serif" font-size="11" lengthAdjust="spacingAndGlyphs" text-decoration="underline" textLength="209" x="26" y="110.7627">WF_WP_SAVE_FACT_PAGE_NAME: String</text><ellipse cx="17" cy="121.5977" fill="none" rx="3" ry="3" style="stroke: #038048; stroke-width: 1.0;"/><text fill="#000000" font-family="sans-serif" font-size="11" lengthAdjust="spacingAndGlyphs" text-decoration="underline" textLength="198" x="26" y="124.5986">WF_WP_SAVE_FACT_DIFF_TEXT: String</text><ellipse cx="17" cy="135.4336" fill="none" rx="3" ry="3" style="stroke: #038048; stroke-width: 1.0;"/><text fill="#000000" font-family="sans-serif" font-size="11" lengthAdjust="spacingAndGlyphs" text-decoration="underline" textLength="224" x="26" y="138.4346">WF_WP_SAVE_FACT_CURRENT_TEXT: String</text><ellipse cx="17" cy="149.2695" fill="none" rx="3" ry="3" style="stroke: #038048; stroke-width: 1.0;"/><text fill="#000000" font-family="sans-serif" font-size="11" lengthAdjust="spacingAndGlyphs" text-decoration="underline" textLength="232" x="26" y="152.2705">WF_WP_SAVE_FACT_PROPOSED_TEXT: String</text><ellipse cx="17" cy="163.1055" fill="none" rx="3" ry="3" style="stroke: #038048; stroke-width: 1.0;"/><text fill="#000000" font-family="sans-serif" font-size="11" lengthAdjust="spacingAndGlyphs" text-decoration="underline" textLength="244" x="26" y="166.1064">WF_WP_SAVE_FACT_IS_AUTHENTICATED: String</text><ellipse cx="17" cy="176.9414" fill="none" rx="3" ry="3" style="stroke: #038048; stroke-width: 1.0;"/><text fill="#000000" font-family="sans-serif" font-size="11" lengthAdjust="spacingAndGlyphs" text-decoration="underline" textLength="272" x="26" y="179.9424">WF_UP_CREATE_SAVE_ATTR_SAVED_PROFILE: String</text><ellipse cx="17" cy="190.7773" fill="none" rx="3" ry="3" style="stroke: #038048; stroke-width: 1.0;"/><text fill="#000000" font-family="sans-serif" font-size="11" lengthAdjust="spacingAndGlyphs" text-decoration="underline" textLength="212" x="26" y="193.7783">WF_UP_CREATE_SAVE_APPROVER: String</text><ellipse cx="17" cy="204.6133" fill="none" rx="3" ry="3" style="stroke: #038048; stroke-width: 1.0;"/><text fill="#000000" font-family="sans-serif" font-size="11" lengthAdjust="spacingAndGlyphs" text-decoration="underline" textLength="285" x="26" y="207.6143">WF_UP_CREATE_SAVE_DECISION_MESSAGE_KEY: String</text><ellipse cx="17" cy="218.4492" fill="none" rx="3" ry="3" style="stroke: #038048; stroke-width: 1.0;"/><text fill="#000000" font-family="sans-serif" font-size="11" lengthAdjust="spacingAndGlyphs" text-decoration="underline" textLength="245" x="26" y="221.4502">WF_UP_CREATE_SAVE_FACT_SUBMITTER: String</text><ellipse cx="17" cy="232.2852" fill="none" rx="3" ry="3" style="stroke: #038048; stroke-width: 1.0;"/><text fill="#000000" font-family="sans-serif" font-size="11" lengthAdjust="spacingAndGlyphs" text-decoration="underline" textLength="293" x="26" y="235.2861">WF_UP_CREATE_SAVE_FACT_PREFS_LOGIN_NAME: String</text><ellipse cx="17" cy="246.1211" fill="none" rx="3" ry="3" style="stroke: #038048; stroke-width: 1.0;"/><text fill="#000000" font-family="sans-serif" font-size="11" lengthAdjust="spacingAndGlyphs" text-decoration="underline" textLength="287" x="26" y="249.1221">WF_UP_CREATE_SAVE_FACT_PREFS_FULL_NAME: String</text><ellipse cx="17" cy="259.957" fill="none" rx="3" ry="3" style="stroke: #038048; stroke-width: 1.0;"/><text fill="#000000" font-family="sans-serif" font-size="11" lengthAdjust="spacingAndGlyphs" text-decoration="underline" textLength="257" x="26" y="262.958">WF_UP_CREATE_SAVE_FACT_PREFS_EMAIL: String</text><polygon fill="none" points="17,268.793,21,272.793,17,276.793,13,272.793" style="stroke: #B38D22; stroke-width: 1.0;"/><text fill="#000000" font-family="sans-serif" font-size="11" lengthAdjust="spacingAndGlyphs" text-decoration="underline" textLength="190" x="26" y="276.7939">PROPERTY_APPROVER_PREFIX: String</text><line style="stroke: #A80036; stroke-width: 1.5;" x1="7" x2="324" y1="283.2109" y2="283.2109"/><ellipse cx="17" cy="295.6289" fill="#84BE84" rx="3" ry="3" style="stroke: #038048; stroke-width: 1.0;"/><text fill="#000000" font-family="sans-serif" font-size="11" lengthAdjust="spacingAndGlyphs" textLength="103" x="26" y="298.6299">start(Workflow): void</text><ellipse cx="17" cy="309.4648" fill="#84BE84" rx="3" ry="3" style="stroke: #038048; stroke-width: 1.0;"/><text fill="#000000" font-family="sans-serif" font-size="11" lengthAdjust="spacingAndGlyphs" textLength="187" x="26" y="312.4658">getWorkflows(): Collection&lt;Workflow&gt;</text><ellipse cx="17" cy="323.3008" fill="#84BE84" rx="3" ry="3" style="stroke: #038048; stroke-width: 1.0;"/><text fill="#000000" font-family="sans-serif" font-size="11" lengthAdjust="spacingAndGlyphs" textLength="208" x="26" y="326.3018">getCompletedWorkflows(): List&lt;Workflow&gt;</text><ellipse cx="17" cy="337.1367" fill="#84BE84" rx="3" ry="3" style="stroke: #038048; stroke-width: 1.0;"/><text fill="#000000" font-family="sans-serif" font-size="11" lengthAdjust="spacingAndGlyphs" textLength="177" x="26" y="340.1377">initialize(WikiEngine, Properties): void</text><ellipse cx="17" cy="350.9727" fill="#84BE84" rx="3" ry="3" style="stroke: #038048; stroke-width: 1.0;"/><text fill="#000000" font-family="sans-serif" font-size="11" lengthAdjust="spacingAndGlyphs" textLength="164" x="26" y="353.9736">requiresApproval(String): boolean</text><ellipse cx="17" cy="364.8086" fill="#84BE84" rx="3" ry="3" style="stroke: #038048; stroke-width: 1.0;"/><text fill="#000000" font-family="sans-serif" font-size="11" lengthAdjust="spacingAndGlyphs" textLength="143" x="26" y="367.8096">getApprover(String): Principal</text><polygon fill="#FFFF44" points="17,373.6445,21,377.6445,17,381.6445,13,377.6445" style="stroke: #B38D22; stroke-width: 1.0;"/><text fill="#000000" font-family="sans-serif" font-size="11" lengthAdjust="spacingAndGlyphs" textLength="112" x="26" y="381.6455">getEngine(): WikiEngine</text><ellipse cx="17" cy="392.4805" fill="#84BE84" rx="3" ry="3" style="stroke: #038048; stroke-width: 1.0;"/><text fill="#000000" font-family="sans-serif" font-size="11" lengthAdjust="spacingAndGlyphs" textLength="175" x="26" y="395.4814">getDecisionQueue(): DecisionQueue</text><ellipse cx="17" cy="406.3164" fill="#84BE84" rx="3" ry="3" style="stroke: #038048; stroke-width: 1.0;"/><text fill="#000000" font-family="sans-serif" font-size="11" lengthAdjust="spacingAndGlyphs" textLength="279" x="26" y="409.3174">getOwnerWorkflows(WikiSession): Collection&lt;Workflow&gt;</text><ellipse cx="17" cy="420.1523" fill="#84BE84" rx="3" ry="3" style="stroke: #038048; stroke-width: 1.0;"/><text fill="#000000" font-family="sans-serif" font-size="11" lengthAdjust="spacingAndGlyphs" textLength="159" x="26" y="423.1533">actionPerformed(WikiEvent): void</text><polygon fill="#FFFF44" points="17,428.9883,21,432.9883,17,436.9883,13,432.9883" style="stroke: #B38D22; stroke-width: 1.0;"/><text fill="#000000" font-family="sans-serif" font-size="11" lengthAdjust="spacingAndGlyphs" textLength="99" x="26" y="436.9893">add(Workflow): void</text><polygon fill="#FFFF44" points="17,442.8242,21,446.8242,17,450.8242,13,446.8242" style="stroke: #B38D22; stroke-width: 1.0;"/><text fill="#000000" font-family="sans-serif" font-size="11" lengthAdjust="spacingAndGlyphs" textLength="117" x="26" y="450.8252">remove(Workflow): void</text></a><text fill="#888888" font-family="sans-serif" font-size="10" lengthAdjust="spacingAndGlyphs" textLength="184" x="79.5" y="477.3809">UMLDoclet 1.1.4, PlantUML 1.2019.05</text><!--
@startuml

    class WorkflowManager [[WorkflowManager.html]] {
        {static} +WF_WP_SAVE_ATTR_PRESAVE_WIKI_CONTEXT: String
        {static} +WF_WP_SAVE_APPROVER: String
        {static} +WF_WP_SAVE_DECISION_MESSAGE_KEY: String
        {static} +WF_WP_SAVE_REJECT_MESSAGE_KEY: String
        {static} +WF_WP_SAVE_FACT_PAGE_NAME: String
        {static} +WF_WP_SAVE_FACT_DIFF_TEXT: String
        {static} +WF_WP_SAVE_FACT_CURRENT_TEXT: String
        {static} +WF_WP_SAVE_FACT_PROPOSED_TEXT: String
        {static} +WF_WP_SAVE_FACT_IS_AUTHENTICATED: String
        {static} +WF_UP_CREATE_SAVE_ATTR_SAVED_PROFILE: String
        {static} +WF_UP_CREATE_SAVE_APPROVER: String
        {static} +WF_UP_CREATE_SAVE_DECISION_MESSAGE_KEY: String
        {static} +WF_UP_CREATE_SAVE_FACT_SUBMITTER: String
        {static} +WF_UP_CREATE_SAVE_FACT_PREFS_LOGIN_NAME: String
        {static} +WF_UP_CREATE_SAVE_FACT_PREFS_FULL_NAME: String
        {static} +WF_UP_CREATE_SAVE_FACT_PREFS_EMAIL: String
        {static} #PROPERTY_APPROVER_PREFIX: String
        +start(Workflow): void
        +getWorkflows(): Collection<Workflow>
        +getCompletedWorkflows(): List<Workflow>
        +initialize(WikiEngine, Properties): void
        +requiresApproval(String): boolean
        +getApprover(String): Principal
        #getEngine(): WikiEngine
        +getDecisionQueue(): DecisionQueue
        +getOwnerWorkflows(WikiSession): Collection<Workflow>
        +actionPerformed(WikiEvent): void
        #add(Workflow): void
        #remove(Workflow): void
    }


    center footer UMLDoclet 1.1.4, PlantUML 1.2019.05
@enduml

PlantUML version 1.2019.05(Sat Apr 20 18:45:36 CEST 2019)
(APACHE source distribution)
Java Runtime: OpenJDK Runtime Environment
JVM: OpenJDK 64-Bit Server VM
Java Version: 1.8.0_212-b03
Operating System: Windows 10
OS Version: 10.0
Default Encoding: Cp1252
Language: es
Country: ES
--></g></svg>