<?xml version="1.0" encoding="UTF-8" standalone="no"?><svg xmlns="http://www.w3.org/2000/svg" xmlns:xlink="http://www.w3.org/1999/xlink" contentScriptType="application/ecmascript" contentStyleType="text/css" height="627px" preserveAspectRatio="none" style="width:1615px;height:627px;" version="1.1" viewBox="0 0 1615 627" width="1615px" zoomAndPan="magnify"><defs><filter height="300%" id="f1lcnqr8kidda2" width="300%" x="-1" y="-1"><feGaussianBlur result="blurOut" stdDeviation="2.0"/><feColorMatrix in="blurOut" result="blurOut2" type="matrix" values="0 0 0 0 0 0 0 0 0 0 0 0 0 0 0 0 0 0 .4 0"/><feOffset dx="4.0" dy="4.0" in="blurOut2" result="blurOut3"/><feBlend in="SourceGraphic" in2="blurOut3" mode="normal"/></filter></defs><g><!--MD5=[7dc2eda1bbd5486466a9aa81d854d1a9]
cluster org.apache.wiki.diff--><polygon fill="#FFFFFF" filter="url(#f1lcnqr8kidda2)" points="16,152,178,152,185,174.2969,1593,174.2969,1593,599,16,599,16,152" style="stroke: #000000; stroke-width: 1.5;"/><line style="stroke: #000000; stroke-width: 1.5;" x1="16" x2="185" y1="174.2969" y2="174.2969"/><text fill="#000000" font-family="sans-serif" font-size="14" font-weight="bold" lengthAdjust="spacingAndGlyphs" textLength="156" x="20" y="166.9951">org.apache.wiki.diff</text><!--MD5=[3f2b3f282a606937f9c016a796d44e78]
cluster org.apache.wiki.api.providers--><polygon fill="#FFFFFF" filter="url(#f1lcnqr8kidda2)" points="674,6,914,6,921,28.2969,924,28.2969,924,127,674,127,674,6" style="stroke: #000000; stroke-width: 1.5;"/><line style="stroke: #000000; stroke-width: 1.5;" x1="674" x2="921" y1="28.2969" y2="28.2969"/><text fill="#000000" font-family="sans-serif" font-size="14" font-weight="bold" lengthAdjust="spacingAndGlyphs" textLength="234" x="678" y="20.9951">org.apache.wiki.api.providers</text><!--MD5=[2fbc833a06f80c01937c2c222d4f23da]
class org.apache.wiki.diff.DiffProvider--><a href="DiffProvider.html" target="_top" title="DiffProvider.html" xlink:actuate="onRequest" xlink:href="DiffProvider.html" xlink:show="new" xlink:title="DiffProvider.html" xlink:type="simple"><rect codeLine="3" fill="#FEFECE" filter="url(#f1lcnqr8kidda2)" height="60.8047" id="org.apache.wiki.diff.DiffProvider" style="stroke: #A80036; stroke-width: 1.5;" width="277" x="660.5" y="191.5"/><ellipse cx="759.75" cy="207.5" fill="#B4A7E5" rx="11" ry="11" style="stroke: #A80036; stroke-width: 1.0;"/><path d="M755.6719,203.2656 L755.6719,201.1094 L763.0625,201.1094 L763.0625,203.2656 L760.5938,203.2656 L760.5938,211.3438 L763.0625,211.3438 L763.0625,213.5 L755.6719,213.5 L755.6719,211.3438 L758.1406,211.3438 L758.1406,203.2656 L755.6719,203.2656 Z "/><text fill="#000000" font-family="sans-serif" font-size="12" font-style="italic" lengthAdjust="spacingAndGlyphs" textLength="70" x="780.25" y="211.6543">DiffProvider</text><line style="stroke: #A80036; stroke-width: 1.5;" x1="661.5" x2="936.5" y1="223.5" y2="223.5"/><line style="stroke: #A80036; stroke-width: 1.5;" x1="661.5" x2="936.5" y1="231.5" y2="231.5"/><ellipse cx="671.5" cy="242.5" fill="#84BE84" rx="3" ry="3" style="stroke: #038048; stroke-width: 1.0;"/><text fill="#000000" font-family="sans-serif" font-size="11" font-style="italic" lengthAdjust="spacingAndGlyphs" textLength="251" x="680.5" y="245.7104">makeDiffHtml(Context, String, String): String</text></a><!--MD5=[f7c2a4d107fd15e7fa0fbf8825b4539e]
class org.apache.wiki.diff.DiffProvider.NullDiffProvider--><a href="DiffProvider.NullDiffProvider.html" target="_top" title="DiffProvider.NullDiffProvider.html" xlink:actuate="onRequest" xlink:href="DiffProvider.NullDiffProvider.html" xlink:show="new" xlink:title="DiffProvider.NullDiffProvider.html" xlink:type="simple"><rect codeLine="7" fill="#FEFECE" filter="url(#f1lcnqr8kidda2)" height="86.4141" id="org.apache.wiki.diff.DiffProvider.NullDiffProvider" style="stroke: #A80036; stroke-width: 1.5;" width="279" x="345.5" y="415"/><ellipse cx="396.25" cy="431" fill="#ADD1B2" rx="11" ry="11" style="stroke: #A80036; stroke-width: 1.0;"/><path d="M399.2188,436.6406 Q398.6406,436.9375 398,437.0781 Q397.3594,437.2344 396.6563,437.2344 Q394.1563,437.2344 392.8281,435.5938 Q391.5156,433.9375 391.5156,430.8125 Q391.5156,427.6875 392.8281,426.0313 Q394.1563,424.375 396.6563,424.375 Q397.3594,424.375 398,424.5313 Q398.6563,424.6875 399.2188,424.9844 L399.2188,427.7031 Q398.5938,427.125 398,426.8594 Q397.4063,426.5781 396.7813,426.5781 Q395.4375,426.5781 394.75,427.6563 Q394.0625,428.7188 394.0625,430.8125 Q394.0625,432.9063 394.75,433.9844 Q395.4375,435.0469 396.7813,435.0469 Q397.4063,435.0469 398,434.7813 Q398.5938,434.5 399.2188,433.9219 L399.2188,436.6406 Z "/><text fill="#000000" font-family="sans-serif" font-size="12" lengthAdjust="spacingAndGlyphs" textLength="169" x="416.75" y="435.1543">DiffProvider.NullDiffProvider</text><line style="stroke: #A80036; stroke-width: 1.5;" x1="346.5" x2="623.5" y1="447" y2="447"/><line style="stroke: #A80036; stroke-width: 1.5;" x1="346.5" x2="623.5" y1="455" y2="455"/><ellipse cx="356.5" cy="466" fill="#84BE84" rx="3" ry="3" style="stroke: #038048; stroke-width: 1.0;"/><text fill="#000000" font-family="sans-serif" font-size="11" lengthAdjust="spacingAndGlyphs" textLength="253" x="365.5" y="469.2104">makeDiffHtml(Context, String, String): String</text><ellipse cx="356.5" cy="478.8047" fill="#84BE84" rx="3" ry="3" style="stroke: #038048; stroke-width: 1.0;"/><text fill="#000000" font-family="sans-serif" font-size="11" lengthAdjust="spacingAndGlyphs" textLength="189" x="365.5" y="482.0151">initialize(Engine, Properties): void</text><ellipse cx="356.5" cy="491.6094" fill="#84BE84" rx="3" ry="3" style="stroke: #038048; stroke-width: 1.0;"/><text fill="#000000" font-family="sans-serif" font-size="11" lengthAdjust="spacingAndGlyphs" textLength="136" x="365.5" y="494.8198">getProviderInfo(): String</text></a><!--MD5=[6655744ebfcd6b1b3f4725e436ffca53]
class org.apache.wiki.diff.DefaultDifferenceManager--><a href="DefaultDifferenceManager.html" target="_top" title="DefaultDifferenceManager.html" xlink:actuate="onRequest" xlink:href="DefaultDifferenceManager.html" xlink:show="new" xlink:title="DefaultDifferenceManager.html" xlink:type="simple"><rect codeLine="13" fill="#FEFECE" filter="url(#f1lcnqr8kidda2)" height="86.4141" id="org.apache.wiki.diff.DefaultDifferenceManager" style="stroke: #A80036; stroke-width: 1.5;" width="286" x="24" y="415"/><ellipse cx="80.75" cy="431" fill="#ADD1B2" rx="11" ry="11" style="stroke: #A80036; stroke-width: 1.0;"/><path d="M83.7188,436.6406 Q83.1406,436.9375 82.5,437.0781 Q81.8594,437.2344 81.1563,437.2344 Q78.6563,437.2344 77.3281,435.5938 Q76.0156,433.9375 76.0156,430.8125 Q76.0156,427.6875 77.3281,426.0313 Q78.6563,424.375 81.1563,424.375 Q81.8594,424.375 82.5,424.5313 Q83.1563,424.6875 83.7188,424.9844 L83.7188,427.7031 Q83.0938,427.125 82.5,426.8594 Q81.9063,426.5781 81.2813,426.5781 Q79.9375,426.5781 79.25,427.6563 Q78.5625,428.7188 78.5625,430.8125 Q78.5625,432.9063 79.25,433.9844 Q79.9375,435.0469 81.2813,435.0469 Q81.9063,435.0469 82.5,434.7813 Q83.0938,434.5 83.7188,433.9219 L83.7188,436.6406 Z "/><text fill="#000000" font-family="sans-serif" font-size="12" lengthAdjust="spacingAndGlyphs" textLength="164" x="101.25" y="435.1543">DefaultDifferenceManager</text><line style="stroke: #A80036; stroke-width: 1.5;" x1="25" x2="309" y1="447" y2="447"/><line style="stroke: #A80036; stroke-width: 1.5;" x1="25" x2="309" y1="455" y2="455"/><ellipse cx="35" cy="466" fill="#84BE84" rx="3" ry="3" style="stroke: #038048; stroke-width: 1.0;"/><text fill="#000000" font-family="sans-serif" font-size="11" lengthAdjust="spacingAndGlyphs" textLength="260" x="44" y="469.2104">DefaultDifferenceManager(Engine, Properties)</text><ellipse cx="35" cy="478.8047" fill="#84BE84" rx="3" ry="3" style="stroke: #038048; stroke-width: 1.0;"/><text fill="#000000" font-family="sans-serif" font-size="11" lengthAdjust="spacingAndGlyphs" textLength="227" x="44" y="482.0151">makeDiff(Context, String, String): String</text><ellipse cx="35" cy="491.6094" fill="#84BE84" rx="3" ry="3" style="stroke: #038048; stroke-width: 1.0;"/><text fill="#000000" font-family="sans-serif" font-size="11" lengthAdjust="spacingAndGlyphs" textLength="174" x="44" y="494.8198">getDiff(Context, int, int): String</text></a><!--MD5=[137a59db26e3269bff49ae5ceb70570a]
class org.apache.wiki.diff.TraditionalDiffProvider--><a href="TraditionalDiffProvider.html" target="_top" title="TraditionalDiffProvider.html" xlink:actuate="onRequest" xlink:href="TraditionalDiffProvider.html" xlink:show="new" xlink:title="TraditionalDiffProvider.html" xlink:type="simple"><rect codeLine="19" fill="#FEFECE" filter="url(#f1lcnqr8kidda2)" height="86.4141" id="org.apache.wiki.diff.TraditionalDiffProvider" style="stroke: #A80036; stroke-width: 1.5;" width="279" x="659.5" y="415"/><ellipse cx="726.25" cy="431" fill="#ADD1B2" rx="11" ry="11" style="stroke: #A80036; stroke-width: 1.0;"/><path d="M729.2188,436.6406 Q728.6406,436.9375 728,437.0781 Q727.3594,437.2344 726.6563,437.2344 Q724.1563,437.2344 722.8281,435.5938 Q721.5156,433.9375 721.5156,430.8125 Q721.5156,427.6875 722.8281,426.0313 Q724.1563,424.375 726.6563,424.375 Q727.3594,424.375 728,424.5313 Q728.6563,424.6875 729.2188,424.9844 L729.2188,427.7031 Q728.5938,427.125 728,426.8594 Q727.4063,426.5781 726.7813,426.5781 Q725.4375,426.5781 724.75,427.6563 Q724.0625,428.7188 724.0625,430.8125 Q724.0625,432.9063 724.75,433.9844 Q725.4375,435.0469 726.7813,435.0469 Q727.4063,435.0469 728,434.7813 Q728.5938,434.5 729.2188,433.9219 L729.2188,436.6406 Z "/><text fill="#000000" font-family="sans-serif" font-size="12" lengthAdjust="spacingAndGlyphs" textLength="137" x="746.75" y="435.1543">TraditionalDiffProvider</text><line style="stroke: #A80036; stroke-width: 1.5;" x1="660.5" x2="937.5" y1="447" y2="447"/><line style="stroke: #A80036; stroke-width: 1.5;" x1="660.5" x2="937.5" y1="455" y2="455"/><ellipse cx="670.5" cy="466" fill="#84BE84" rx="3" ry="3" style="stroke: #038048; stroke-width: 1.0;"/><text fill="#000000" font-family="sans-serif" font-size="11" lengthAdjust="spacingAndGlyphs" textLength="136" x="679.5" y="469.2104">getProviderInfo(): String</text><ellipse cx="670.5" cy="478.8047" fill="#84BE84" rx="3" ry="3" style="stroke: #038048; stroke-width: 1.0;"/><text fill="#000000" font-family="sans-serif" font-size="11" lengthAdjust="spacingAndGlyphs" textLength="189" x="679.5" y="482.0151">initialize(Engine, Properties): void</text><ellipse cx="670.5" cy="491.6094" fill="#84BE84" rx="3" ry="3" style="stroke: #038048; stroke-width: 1.0;"/><text fill="#000000" font-family="sans-serif" font-size="11" lengthAdjust="spacingAndGlyphs" textLength="253" x="679.5" y="494.8198">makeDiffHtml(Context, String, String): String</text></a><!--MD5=[11d86fbbbd2220e39d121be4dffb58f1]
class org.apache.wiki.diff.ExternalDiffProvider--><a href="ExternalDiffProvider.html" target="_top" title="ExternalDiffProvider.html" xlink:actuate="onRequest" xlink:href="ExternalDiffProvider.html" xlink:show="new" xlink:title="ExternalDiffProvider.html" xlink:type="simple"><rect codeLine="25" fill="#FEFECE" filter="url(#f1lcnqr8kidda2)" height="99.2188" id="org.apache.wiki.diff.ExternalDiffProvider" style="stroke: #A80036; stroke-width: 1.5;" width="279" x="973.5" y="408.5"/><ellipse cx="1047.75" cy="424.5" fill="#ADD1B2" rx="11" ry="11" style="stroke: #A80036; stroke-width: 1.0;"/><path d="M1050.7188,430.1406 Q1050.1406,430.4375 1049.5,430.5781 Q1048.8594,430.7344 1048.1563,430.7344 Q1045.6563,430.7344 1044.3281,429.0938 Q1043.0156,427.4375 1043.0156,424.3125 Q1043.0156,421.1875 1044.3281,419.5313 Q1045.6563,417.875 1048.1563,417.875 Q1048.8594,417.875 1049.5,418.0313 Q1050.1563,418.1875 1050.7188,418.4844 L1050.7188,421.2031 Q1050.0938,420.625 1049.5,420.3594 Q1048.9063,420.0781 1048.2813,420.0781 Q1046.9375,420.0781 1046.25,421.1563 Q1045.5625,422.2188 1045.5625,424.3125 Q1045.5625,426.4063 1046.25,427.4844 Q1046.9375,428.5469 1048.2813,428.5469 Q1048.9063,428.5469 1049.5,428.2813 Q1050.0938,428 1050.7188,427.4219 L1050.7188,430.1406 Z "/><text fill="#000000" font-family="sans-serif" font-size="12" lengthAdjust="spacingAndGlyphs" textLength="122" x="1068.25" y="428.6543">ExternalDiffProvider</text><line style="stroke: #A80036; stroke-width: 1.5;" x1="974.5" x2="1251.5" y1="440.5" y2="440.5"/><ellipse cx="984.5" cy="451.5" fill="none" rx="3" ry="3" style="stroke: #038048; stroke-width: 1.0;"/><text fill="#000000" font-family="sans-serif" font-size="11" lengthAdjust="spacingAndGlyphs" text-decoration="underline" textLength="159" x="993.5" y="454.7104">PROP_DIFFCOMMAND: String</text><line style="stroke: #A80036; stroke-width: 1.5;" x1="974.5" x2="1251.5" y1="461.3047" y2="461.3047"/><ellipse cx="984.5" cy="472.3047" fill="#84BE84" rx="3" ry="3" style="stroke: #038048; stroke-width: 1.0;"/><text fill="#000000" font-family="sans-serif" font-size="11" lengthAdjust="spacingAndGlyphs" textLength="136" x="993.5" y="475.5151">getProviderInfo(): String</text><ellipse cx="984.5" cy="485.1094" fill="#84BE84" rx="3" ry="3" style="stroke: #038048; stroke-width: 1.0;"/><text fill="#000000" font-family="sans-serif" font-size="11" lengthAdjust="spacingAndGlyphs" textLength="189" x="993.5" y="488.3198">initialize(Engine, Properties): void</text><ellipse cx="984.5" cy="497.9141" fill="#84BE84" rx="3" ry="3" style="stroke: #038048; stroke-width: 1.0;"/><text fill="#000000" font-family="sans-serif" font-size="11" lengthAdjust="spacingAndGlyphs" textLength="253" x="993.5" y="501.1245">makeDiffHtml(Context, String, String): String</text></a><!--MD5=[ba37733331afd63636f98cb022b164f5]
class org.apache.wiki.diff.ContextualDiffProvider--><a href="ContextualDiffProvider.html" target="_top" title="ContextualDiffProvider.html" xlink:actuate="onRequest" xlink:href="ContextualDiffProvider.html" xlink:show="new" xlink:title="ContextualDiffProvider.html" xlink:type="simple"><rect codeLine="32" fill="#FEFECE" filter="url(#f1lcnqr8kidda2)" height="265.6797" id="org.apache.wiki.diff.ContextualDiffProvider" style="stroke: #A80036; stroke-width: 1.5;" width="297" x="1287.5" y="325"/><ellipse cx="1362.75" cy="341" fill="#ADD1B2" rx="11" ry="11" style="stroke: #A80036; stroke-width: 1.0;"/><path d="M1365.7188,346.6406 Q1365.1406,346.9375 1364.5,347.0781 Q1363.8594,347.2344 1363.1563,347.2344 Q1360.6563,347.2344 1359.3281,345.5938 Q1358.0156,343.9375 1358.0156,340.8125 Q1358.0156,337.6875 1359.3281,336.0313 Q1360.6563,334.375 1363.1563,334.375 Q1363.8594,334.375 1364.5,334.5313 Q1365.1563,334.6875 1365.7188,334.9844 L1365.7188,337.7031 Q1365.0938,337.125 1364.5,336.8594 Q1363.9063,336.5781 1363.2813,336.5781 Q1361.9375,336.5781 1361.25,337.6563 Q1360.5625,338.7188 1360.5625,340.8125 Q1360.5625,342.9063 1361.25,343.9844 Q1361.9375,345.0469 1363.2813,345.0469 Q1363.9063,345.0469 1364.5,344.7813 Q1365.0938,344.5 1365.7188,343.9219 L1365.7188,346.6406 Z "/><text fill="#000000" font-family="sans-serif" font-size="12" lengthAdjust="spacingAndGlyphs" textLength="138" x="1383.25" y="345.1543">ContextualDiffProvider</text><line style="stroke: #A80036; stroke-width: 1.5;" x1="1288.5" x2="1583.5" y1="357" y2="357"/><ellipse cx="1298.5" cy="368" fill="none" rx="3" ry="3" style="stroke: #038048; stroke-width: 1.0;"/><text fill="#000000" font-family="sans-serif" font-size="11" lengthAdjust="spacingAndGlyphs" text-decoration="underline" textLength="242" x="1307.5" y="371.2104">PROP_UNCHANGED_CONTEXT_LIMIT: String</text><ellipse cx="1298.5" cy="380.8047" fill="none" rx="3" ry="3" style="stroke: #038048; stroke-width: 1.0;"/><text fill="#000000" font-family="sans-serif" font-size="11" lengthAdjust="spacingAndGlyphs" textLength="271" x="1307.5" y="384.0151">m_emitChangeNextPreviousHyperlinks: boolean</text><ellipse cx="1298.5" cy="393.6094" fill="none" rx="3" ry="3" style="stroke: #038048; stroke-width: 1.0;"/><text fill="#000000" font-family="sans-serif" font-size="11" lengthAdjust="spacingAndGlyphs" text-decoration="underline" textLength="167" x="1307.5" y="396.8198">CHANGE_START_HTML: String</text><ellipse cx="1298.5" cy="406.4141" fill="none" rx="3" ry="3" style="stroke: #038048; stroke-width: 1.0;"/><text fill="#000000" font-family="sans-serif" font-size="11" lengthAdjust="spacingAndGlyphs" text-decoration="underline" textLength="154" x="1307.5" y="409.6245">CHANGE_END_HTML: String</text><ellipse cx="1298.5" cy="419.2188" fill="none" rx="3" ry="3" style="stroke: #038048; stroke-width: 1.0;"/><text fill="#000000" font-family="sans-serif" font-size="11" lengthAdjust="spacingAndGlyphs" text-decoration="underline" textLength="107" x="1307.5" y="422.4292">DIFF_START: String</text><ellipse cx="1298.5" cy="432.0234" fill="none" rx="3" ry="3" style="stroke: #038048; stroke-width: 1.0;"/><text fill="#000000" font-family="sans-serif" font-size="11" lengthAdjust="spacingAndGlyphs" text-decoration="underline" textLength="94" x="1307.5" y="435.2339">DIFF_END: String</text><ellipse cx="1298.5" cy="444.8281" fill="none" rx="3" ry="3" style="stroke: #038048; stroke-width: 1.0;"/><text fill="#000000" font-family="sans-serif" font-size="11" lengthAdjust="spacingAndGlyphs" text-decoration="underline" textLength="180" x="1307.5" y="448.0386">INSERTION_START_HTML: String</text><ellipse cx="1298.5" cy="457.6328" fill="none" rx="3" ry="3" style="stroke: #038048; stroke-width: 1.0;"/><text fill="#000000" font-family="sans-serif" font-size="11" lengthAdjust="spacingAndGlyphs" text-decoration="underline" textLength="167" x="1307.5" y="460.8433">INSERTION_END_HTML: String</text><ellipse cx="1298.5" cy="470.4375" fill="none" rx="3" ry="3" style="stroke: #038048; stroke-width: 1.0;"/><text fill="#000000" font-family="sans-serif" font-size="11" lengthAdjust="spacingAndGlyphs" text-decoration="underline" textLength="175" x="1307.5" y="473.6479">DELETION_START_HTML: String</text><ellipse cx="1298.5" cy="483.2422" fill="none" rx="3" ry="3" style="stroke: #038048; stroke-width: 1.0;"/><text fill="#000000" font-family="sans-serif" font-size="11" lengthAdjust="spacingAndGlyphs" text-decoration="underline" textLength="162" x="1307.5" y="486.4526">DELETION_END_HTML: String</text><ellipse cx="1298.5" cy="496.0469" fill="none" rx="3" ry="3" style="stroke: #038048; stroke-width: 1.0;"/><text fill="#000000" font-family="sans-serif" font-size="11" lengthAdjust="spacingAndGlyphs" text-decoration="underline" textLength="219" x="1307.5" y="499.2573">ELIDED_HEAD_INDICATOR_HTML: String</text><ellipse cx="1298.5" cy="508.8516" fill="none" rx="3" ry="3" style="stroke: #038048; stroke-width: 1.0;"/><text fill="#000000" font-family="sans-serif" font-size="11" lengthAdjust="spacingAndGlyphs" text-decoration="underline" textLength="212" x="1307.5" y="512.062">ELIDED_TAIL_INDICATOR_HTML: String</text><ellipse cx="1298.5" cy="521.6563" fill="none" rx="3" ry="3" style="stroke: #038048; stroke-width: 1.0;"/><text fill="#000000" font-family="sans-serif" font-size="11" lengthAdjust="spacingAndGlyphs" text-decoration="underline" textLength="144" x="1307.5" y="524.8667">LINE_BREAK_HTML: String</text><ellipse cx="1298.5" cy="534.4609" fill="none" rx="3" ry="3" style="stroke: #038048; stroke-width: 1.0;"/><text fill="#000000" font-family="sans-serif" font-size="11" lengthAdjust="spacingAndGlyphs" text-decoration="underline" textLength="197" x="1307.5" y="537.6714">ALTERNATING_SPACE_HTML: String</text><line style="stroke: #A80036; stroke-width: 1.5;" x1="1288.5" x2="1583.5" y1="544.2656" y2="544.2656"/><ellipse cx="1298.5" cy="555.2656" fill="#84BE84" rx="3" ry="3" style="stroke: #038048; stroke-width: 1.0;"/><text fill="#000000" font-family="sans-serif" font-size="11" lengthAdjust="spacingAndGlyphs" textLength="136" x="1307.5" y="558.4761">getProviderInfo(): String</text><ellipse cx="1298.5" cy="568.0703" fill="#84BE84" rx="3" ry="3" style="stroke: #038048; stroke-width: 1.0;"/><text fill="#000000" font-family="sans-serif" font-size="11" lengthAdjust="spacingAndGlyphs" textLength="189" x="1307.5" y="571.2808">initialize(Engine, Properties): void</text><ellipse cx="1298.5" cy="580.875" fill="#84BE84" rx="3" ry="3" style="stroke: #038048; stroke-width: 1.0;"/><text fill="#000000" font-family="sans-serif" font-size="11" lengthAdjust="spacingAndGlyphs" textLength="253" x="1307.5" y="584.0854">makeDiffHtml(Context, String, String): String</text></a><!--MD5=[ee9cc49abb5b030b7a2b749dc25dcc6d]
class org.apache.wiki.diff.DifferenceManager--><a href="DifferenceManager.html" target="_top" title="DifferenceManager.html" xlink:actuate="onRequest" xlink:href="DifferenceManager.html" xlink:show="new" xlink:title="DifferenceManager.html" xlink:type="simple"><rect codeLine="52" fill="#FEFECE" filter="url(#f1lcnqr8kidda2)" height="86.4141" id="org.apache.wiki.diff.DifferenceManager" style="stroke: #A80036; stroke-width: 1.5;" width="251" x="41.5" y="179"/><ellipse cx="103.25" cy="195" fill="#B4A7E5" rx="11" ry="11" style="stroke: #A80036; stroke-width: 1.0;"/><path d="M99.1719,190.7656 L99.1719,188.6094 L106.5625,188.6094 L106.5625,190.7656 L104.0938,190.7656 L104.0938,198.8438 L106.5625,198.8438 L106.5625,201 L99.1719,201 L99.1719,198.8438 L101.6406,198.8438 L101.6406,190.7656 L99.1719,190.7656 Z "/><text fill="#000000" font-family="sans-serif" font-size="12" font-style="italic" lengthAdjust="spacingAndGlyphs" textLength="119" x="123.75" y="199.1543">DifferenceManager</text><line style="stroke: #A80036; stroke-width: 1.5;" x1="42.5" x2="291.5" y1="211" y2="211"/><ellipse cx="52.5" cy="222" fill="none" rx="3" ry="3" style="stroke: #038048; stroke-width: 1.0;"/><text fill="#000000" font-family="sans-serif" font-size="11" lengthAdjust="spacingAndGlyphs" text-decoration="underline" textLength="162" x="61.5" y="225.2104">PROP_DIFF_PROVIDER: String</text><line style="stroke: #A80036; stroke-width: 1.5;" x1="42.5" x2="291.5" y1="231.8047" y2="231.8047"/><ellipse cx="52.5" cy="242.8047" fill="#84BE84" rx="3" ry="3" style="stroke: #038048; stroke-width: 1.0;"/><text fill="#000000" font-family="sans-serif" font-size="11" font-style="italic" lengthAdjust="spacingAndGlyphs" textLength="225" x="61.5" y="246.0151">makeDiff(Context, String, String): String</text><ellipse cx="52.5" cy="255.6094" fill="#84BE84" rx="3" ry="3" style="stroke: #038048; stroke-width: 1.0;"/><text fill="#000000" font-family="sans-serif" font-size="11" font-style="italic" lengthAdjust="spacingAndGlyphs" textLength="174" x="61.5" y="258.8198">getDiff(Context, int, int): String</text></a><!--MD5=[576393cc879ee6b41d5e539d7321559d]
class org.apache.wiki.api.providers.WikiProvider--><a href="../api/providers/WikiProvider.html" target="_top" title="../api/providers/WikiProvider.html" xlink:actuate="onRequest" xlink:href="../api/providers/WikiProvider.html" xlink:show="new" xlink:title="../api/providers/WikiProvider.html" xlink:type="simple"><rect codeLine="68" fill="#FEFECE" filter="url(#f1lcnqr8kidda2)" height="86.4141" id="org.apache.wiki.api.providers.WikiProvider" style="stroke: #A80036; stroke-width: 1.5;" width="216" x="691" y="33"/><ellipse cx="757.25" cy="49" fill="#B4A7E5" rx="11" ry="11" style="stroke: #A80036; stroke-width: 1.0;"/><path d="M753.1719,44.7656 L753.1719,42.6094 L760.5625,42.6094 L760.5625,44.7656 L758.0938,44.7656 L758.0938,52.8438 L760.5625,52.8438 L760.5625,55 L753.1719,55 L753.1719,52.8438 L755.6406,52.8438 L755.6406,44.7656 L753.1719,44.7656 Z "/><text fill="#000000" font-family="sans-serif" font-size="12" font-style="italic" lengthAdjust="spacingAndGlyphs" textLength="75" x="777.75" y="53.1543">WikiProvider</text><line style="stroke: #A80036; stroke-width: 1.5;" x1="692" x2="906" y1="65" y2="65"/><ellipse cx="702" cy="76" fill="none" rx="3" ry="3" style="stroke: #038048; stroke-width: 1.0;"/><text fill="#000000" font-family="sans-serif" font-size="11" lengthAdjust="spacingAndGlyphs" text-decoration="underline" textLength="119" x="711" y="79.2104">LATEST_VERSION: int</text><line style="stroke: #A80036; stroke-width: 1.5;" x1="692" x2="906" y1="85.8047" y2="85.8047"/><ellipse cx="702" cy="96.8047" fill="#84BE84" rx="3" ry="3" style="stroke: #038048; stroke-width: 1.0;"/><text fill="#000000" font-family="sans-serif" font-size="11" font-style="italic" lengthAdjust="spacingAndGlyphs" textLength="190" x="711" y="100.0151">initialize(Engine, Properties): void</text><ellipse cx="702" cy="109.6094" fill="#84BE84" rx="3" ry="3" style="stroke: #038048; stroke-width: 1.0;"/><text fill="#000000" font-family="sans-serif" font-size="11" font-style="italic" lengthAdjust="spacingAndGlyphs" textLength="136" x="711" y="112.8198">getProviderInfo(): String</text></a><!--MD5=[feff548d1c1621887c59c8377d101c6e]
reverse link org.apache.wiki.api.providers.WikiProvider to org.apache.wiki.diff.DiffProvider--><path codeLine="58" d="M799,139.2046 C799,157.2759 799,176.1628 799,191.3269 " fill="none" id="org.apache.wiki.api.providers.WikiProvider-backto-org.apache.wiki.diff.DiffProvider" style="stroke: #A80036; stroke-width: 1.0;"/><polygon fill="none" points="792.0001,139.0152,799,119.0152,806.0001,139.0151,792.0001,139.0152" style="stroke: #A80036; stroke-width: 1.0;"/><!--MD5=[e3438b585460cab8bb6696c3e1599f03]
reverse link org.apache.wiki.diff.DiffProvider to org.apache.wiki.diff.DiffProvider.NullDiffProvider--><path codeLine="59" d="M716.9626,263.021 C687.1487,281.2356 653.8979,303.4068 625,325 C587.0836,353.332 546.3583,387.965 518.2462,414.7866 " fill="none" id="org.apache.wiki.diff.DiffProvider-backto-org.apache.wiki.diff.DiffProvider.NullDiffProvider" style="stroke: #A80036; stroke-width: 1.0; stroke-dasharray: 7.0,7.0;"/><polygon fill="none" points="713.7774,256.7696,734.5346,252.5106,720.9638,268.7844,713.7774,256.7696" style="stroke: #A80036; stroke-width: 1.0;"/><!--MD5=[e3438b585460cab8bb6696c3e1599f03]
reverse link org.apache.wiki.diff.DiffProvider to org.apache.wiki.diff.DiffProvider.NullDiffProvider--><path codeLine="60" d="M752.1493,260.9856 C724.6525,279.5694 689.9832,302.5958 660,325 C622.0836,353.332 581.3583,387.965 548.3934,414.7866 " fill="none" id="org.apache.wiki.diff.DiffProvider-backto-org.apache.wiki.diff.DiffProvider.NullDiffProvider-1" style="stroke: #A80036; stroke-width: 1.0;"/><ellipse cx="758.0089" cy="257.0057" fill="#FFFFFF" rx="8" ry="8" style="stroke: #A80036; stroke-width: 1.0;"/><line style="stroke: #A80036; stroke-width: 1.0;" x1="751.3911" x2="764.6266" y1="261.5007" y2="252.5106"/><line style="stroke: #A80036; stroke-width: 1.0;" x1="753.5138" x2="762.5039" y1="250.3879" y2="263.6234"/><!--MD5=[4e5014feda05a720923f36f5627af5eb]
reverse link org.apache.wiki.diff.DifferenceManager to org.apache.wiki.diff.DefaultDifferenceManager--><path codeLine="61" d="M167,285.2797 C167,326.2899 167,378.6262 167,414.8855 " fill="none" id="org.apache.wiki.diff.DifferenceManager-backto-org.apache.wiki.diff.DefaultDifferenceManager" style="stroke: #A80036; stroke-width: 1.0; stroke-dasharray: 7.0,7.0;"/><polygon fill="none" points="160.0001,285.0117,167,265.0116,174.0001,285.0116,160.0001,285.0117" style="stroke: #A80036; stroke-width: 1.0;"/><!--MD5=[c5a1856f02175d4fd3ce607ef737f96f]
reverse link org.apache.wiki.diff.DiffProvider to org.apache.wiki.diff.TraditionalDiffProvider--><path codeLine="62" d="M799,272.9186 C799,315.2046 799,374.7005 799,414.7183 " fill="none" id="org.apache.wiki.diff.DiffProvider-backto-org.apache.wiki.diff.TraditionalDiffProvider" style="stroke: #A80036; stroke-width: 1.0; stroke-dasharray: 7.0,7.0;"/><polygon fill="none" points="792.0001,272.8529,799,252.8529,806.0001,272.8528,792.0001,272.8529" style="stroke: #A80036; stroke-width: 1.0;"/><!--MD5=[1e78fc3cc820e2646d942b9f56f70cfd]
reverse link org.apache.wiki.diff.DiffProvider to org.apache.wiki.diff.ExternalDiffProvider--><path codeLine="63" d="M865.8114,263.2778 C894.1634,281.4438 927.2378,303.5082 956,325 C990.9117,351.0869 1028.2047,382.5156 1057.6805,408.27 " fill="none" id="org.apache.wiki.diff.DiffProvider-backto-org.apache.wiki.diff.ExternalDiffProvider" style="stroke: #A80036; stroke-width: 1.0; stroke-dasharray: 7.0,7.0;"/><polygon fill="none" points="861.9832,269.139,848.8493,252.5106,869.4861,257.3192,861.9832,269.139" style="stroke: #A80036; stroke-width: 1.0;"/><!--MD5=[d971adc30da1767192a29e31d3e52265]
reverse link org.apache.wiki.diff.DiffProvider to org.apache.wiki.diff.ContextualDiffProvider--><path codeLine="64" d="M957.6512,238.2302 C1051.9075,252.3003 1171.8136,278.1282 1270,325 C1275.8321,327.7841 1281.6425,330.809 1287.407,334.0289 " fill="none" id="org.apache.wiki.diff.DiffProvider-backto-org.apache.wiki.diff.ContextualDiffProvider" style="stroke: #A80036; stroke-width: 1.0; stroke-dasharray: 7.0,7.0;"/><polygon fill="none" points="956.4444,245.1289,937.6403,235.3611,958.4314,231.2706,956.4444,245.1289" style="stroke: #A80036; stroke-width: 1.0;"/><text fill="#888888" font-family="sans-serif" font-size="10" lengthAdjust="spacingAndGlyphs" textLength="192" x="702.5" y="614.2822">UMLDoclet 2.0.12, PlantUML 1.2020.16</text><!--MD5=[2f198e0fe0cdfc162a819802e04baf1b]
@startuml
    namespace org.apache.wiki.diff {

        interface DiffProvider [[DiffProvider.html]] {
            {abstract} +makeDiffHtml(Context, String, String): String
        }

        class org.apache.wiki.diff.DiffProvider.NullDiffProvider [[DiffProvider.NullDiffProvider.html]] {
            +makeDiffHtml(Context, String, String): String
            +initialize(Engine, Properties): void
            +getProviderInfo(): String
        }

        class DefaultDifferenceManager [[DefaultDifferenceManager.html]] {
            +DefaultDifferenceManager(Engine, Properties)
            +makeDiff(Context, String, String): String
            +getDiff(Context, int, int): String
        }

        class TraditionalDiffProvider [[TraditionalDiffProvider.html]] {
            +getProviderInfo(): String
            +initialize(Engine, Properties): void
            +makeDiffHtml(Context, String, String): String
        }

        class ExternalDiffProvider [[ExternalDiffProvider.html]] {
            {static} +PROP_DIFFCOMMAND: String
            +getProviderInfo(): String
            +initialize(Engine, Properties): void
            +makeDiffHtml(Context, String, String): String
        }

        class ContextualDiffProvider [[ContextualDiffProvider.html]] {
            {static} +PROP_UNCHANGED_CONTEXT_LIMIT: String
            +m_emitChangeNextPreviousHyperlinks: boolean
            {static} +CHANGE_START_HTML: String
            {static} +CHANGE_END_HTML: String
            {static} +DIFF_START: String
            {static} +DIFF_END: String
            {static} +INSERTION_START_HTML: String
            {static} +INSERTION_END_HTML: String
            {static} +DELETION_START_HTML: String
            {static} +DELETION_END_HTML: String
            {static} +ELIDED_HEAD_INDICATOR_HTML: String
            {static} +ELIDED_TAIL_INDICATOR_HTML: String
            {static} +LINE_BREAK_HTML: String
            {static} +ALTERNATING_SPACE_HTML: String
            +getProviderInfo(): String
            +initialize(Engine, Properties): void
            +makeDiffHtml(Context, String, String): String
        }

        interface DifferenceManager [[DifferenceManager.html]] {
            {static} +PROP_DIFF_PROVIDER: String
            {abstract} +makeDiff(Context, String, String): String
            {abstract} +getDiff(Context, int, int): String
        }

        org.apache.wiki.api.providers.WikiProvider <|- - DiffProvider
        DiffProvider <|.. org.apache.wiki.diff.DiffProvider.NullDiffProvider
        DiffProvider +- - org.apache.wiki.diff.DiffProvider.NullDiffProvider
        DifferenceManager <|.. DefaultDifferenceManager
        DiffProvider <|.. TraditionalDiffProvider
        DiffProvider <|.. ExternalDiffProvider
        DiffProvider <|.. ContextualDiffProvider
    }

    namespace org.apache.wiki.api.providers {
        interface WikiProvider [[../api/providers/WikiProvider.html]] {
            {static} +LATEST_VERSION: int
            {abstract} +initialize(Engine, Properties): void
            {abstract} +getProviderInfo(): String
        }
    }

    center footer UMLDoclet 2.0.12, PlantUML 1.2020.16
@enduml

PlantUML version 1.2020.16(Sun Aug 23 20:20:43 UTC 2020)
(APACHE source distribution)
Java Runtime: Java(TM) SE Runtime Environment
JVM: Java HotSpot(TM) 64-Bit Server VM
Default Encoding: ISO-8859-1
Language: en
Country: US
--></g></svg>