<?xml version="1.0" encoding="UTF-8" standalone="no"?><svg xmlns="http://www.w3.org/2000/svg" xmlns:xlink="http://www.w3.org/1999/xlink" contentScriptType="application/ecmascript" contentStyleType="text/css" height="627px" preserveAspectRatio="none" style="width:1615px;height:627px;" version="1.1" viewBox="0 0 1615 627" width="1615px" zoomAndPan="magnify"><defs><filter height="300%" id="fwp36o534e20w" width="300%" x="-1" y="-1"><feGaussianBlur result="blurOut" stdDeviation="2.0"/><feColorMatrix in="blurOut" result="blurOut2" type="matrix" values="0 0 0 0 0 0 0 0 0 0 0 0 0 0 0 0 0 0 .4 0"/><feOffset dx="4.0" dy="4.0" in="blurOut2" result="blurOut3"/><feBlend in="SourceGraphic" in2="blurOut3" mode="normal"/></filter></defs><g><!--MD5=[7dc2eda1bbd5486466a9aa81d854d1a9]
cluster org.apache.wiki.diff--><polygon fill="#FFFFFF" filter="url(#fwp36o534e20w)" points="16,152,178,152,185,174.2969,1593,174.2969,1593,599,16,599,16,152" style="stroke: #000000; stroke-width: 1.5;"/><line style="stroke: #000000; stroke-width: 1.5;" x1="16" x2="185" y1="174.2969" y2="174.2969"/><text fill="#000000" font-family="sans-serif" font-size="14" font-weight="bold" lengthAdjust="spacingAndGlyphs" textLength="156" x="20" y="166.9951">org.apache.wiki.diff</text><!--MD5=[3f2b3f282a606937f9c016a796d44e78]
cluster org.apache.wiki.api.providers--><polygon fill="#FFFFFF" filter="url(#fwp36o534e20w)" points="667,6,907,6,914,28.2969,917,28.2969,917,127,667,127,667,6" style="stroke: #000000; stroke-width: 1.5;"/><line style="stroke: #000000; stroke-width: 1.5;" x1="667" x2="914" y1="28.2969" y2="28.2969"/><text fill="#000000" font-family="sans-serif" font-size="14" font-weight="bold" lengthAdjust="spacingAndGlyphs" textLength="234" x="671" y="20.9951">org.apache.wiki.api.providers</text><!--MD5=[6655744ebfcd6b1b3f4725e436ffca53]
class org.apache.wiki.diff.DefaultDifferenceManager--><a href="DefaultDifferenceManager.html" target="_top" title="DefaultDifferenceManager.html" xlink:actuate="onRequest" xlink:href="DefaultDifferenceManager.html" xlink:show="new" xlink:title="DefaultDifferenceManager.html" xlink:type="simple"><rect codeLine="3" fill="#FEFECE" filter="url(#fwp36o534e20w)" height="86.4141" id="org.apache.wiki.diff.DefaultDifferenceManager" style="stroke: #A80036; stroke-width: 1.5;" width="286" x="1299" y="415"/><ellipse cx="1355.75" cy="431" fill="#ADD1B2" rx="11" ry="11" style="stroke: #A80036; stroke-width: 1.0;"/><path d="M1358.7188,436.6406 Q1358.1406,436.9375 1357.5,437.0781 Q1356.8594,437.2344 1356.1563,437.2344 Q1353.6563,437.2344 1352.3281,435.5938 Q1351.0156,433.9375 1351.0156,430.8125 Q1351.0156,427.6875 1352.3281,426.0313 Q1353.6563,424.375 1356.1563,424.375 Q1356.8594,424.375 1357.5,424.5313 Q1358.1563,424.6875 1358.7188,424.9844 L1358.7188,427.7031 Q1358.0938,427.125 1357.5,426.8594 Q1356.9063,426.5781 1356.2813,426.5781 Q1354.9375,426.5781 1354.25,427.6563 Q1353.5625,428.7188 1353.5625,430.8125 Q1353.5625,432.9063 1354.25,433.9844 Q1354.9375,435.0469 1356.2813,435.0469 Q1356.9063,435.0469 1357.5,434.7813 Q1358.0938,434.5 1358.7188,433.9219 L1358.7188,436.6406 Z "/><text fill="#000000" font-family="sans-serif" font-size="12" lengthAdjust="spacingAndGlyphs" textLength="164" x="1376.25" y="435.1543">DefaultDifferenceManager</text><line style="stroke: #A80036; stroke-width: 1.5;" x1="1300" x2="1584" y1="447" y2="447"/><line style="stroke: #A80036; stroke-width: 1.5;" x1="1300" x2="1584" y1="455" y2="455"/><ellipse cx="1310" cy="466" fill="#84BE84" rx="3" ry="3" style="stroke: #038048; stroke-width: 1.0;"/><text fill="#000000" font-family="sans-serif" font-size="11" lengthAdjust="spacingAndGlyphs" textLength="260" x="1319" y="469.2104">DefaultDifferenceManager(Engine, Properties)</text><ellipse cx="1310" cy="478.8047" fill="#84BE84" rx="3" ry="3" style="stroke: #038048; stroke-width: 1.0;"/><text fill="#000000" font-family="sans-serif" font-size="11" lengthAdjust="spacingAndGlyphs" textLength="227" x="1319" y="482.0151">makeDiff(Context, String, String): String</text><ellipse cx="1310" cy="491.6094" fill="#84BE84" rx="3" ry="3" style="stroke: #038048; stroke-width: 1.0;"/><text fill="#000000" font-family="sans-serif" font-size="11" lengthAdjust="spacingAndGlyphs" textLength="174" x="1319" y="494.8198">getDiff(Context, int, int): String</text></a><!--MD5=[137a59db26e3269bff49ae5ceb70570a]
class org.apache.wiki.diff.TraditionalDiffProvider--><a href="TraditionalDiffProvider.html" target="_top" title="TraditionalDiffProvider.html" xlink:actuate="onRequest" xlink:href="TraditionalDiffProvider.html" xlink:show="new" xlink:title="TraditionalDiffProvider.html" xlink:type="simple"><rect codeLine="9" fill="#FEFECE" filter="url(#fwp36o534e20w)" height="86.4141" id="org.apache.wiki.diff.TraditionalDiffProvider" style="stroke: #A80036; stroke-width: 1.5;" width="279" x="24.5" y="415"/><ellipse cx="91.25" cy="431" fill="#ADD1B2" rx="11" ry="11" style="stroke: #A80036; stroke-width: 1.0;"/><path d="M94.2188,436.6406 Q93.6406,436.9375 93,437.0781 Q92.3594,437.2344 91.6563,437.2344 Q89.1563,437.2344 87.8281,435.5938 Q86.5156,433.9375 86.5156,430.8125 Q86.5156,427.6875 87.8281,426.0313 Q89.1563,424.375 91.6563,424.375 Q92.3594,424.375 93,424.5313 Q93.6563,424.6875 94.2188,424.9844 L94.2188,427.7031 Q93.5938,427.125 93,426.8594 Q92.4063,426.5781 91.7813,426.5781 Q90.4375,426.5781 89.75,427.6563 Q89.0625,428.7188 89.0625,430.8125 Q89.0625,432.9063 89.75,433.9844 Q90.4375,435.0469 91.7813,435.0469 Q92.4063,435.0469 93,434.7813 Q93.5938,434.5 94.2188,433.9219 L94.2188,436.6406 Z "/><text fill="#000000" font-family="sans-serif" font-size="12" lengthAdjust="spacingAndGlyphs" textLength="137" x="111.75" y="435.1543">TraditionalDiffProvider</text><line style="stroke: #A80036; stroke-width: 1.5;" x1="25.5" x2="302.5" y1="447" y2="447"/><line style="stroke: #A80036; stroke-width: 1.5;" x1="25.5" x2="302.5" y1="455" y2="455"/><ellipse cx="35.5" cy="466" fill="#84BE84" rx="3" ry="3" style="stroke: #038048; stroke-width: 1.0;"/><text fill="#000000" font-family="sans-serif" font-size="11" lengthAdjust="spacingAndGlyphs" textLength="136" x="44.5" y="469.2104">getProviderInfo(): String</text><ellipse cx="35.5" cy="478.8047" fill="#84BE84" rx="3" ry="3" style="stroke: #038048; stroke-width: 1.0;"/><text fill="#000000" font-family="sans-serif" font-size="11" lengthAdjust="spacingAndGlyphs" textLength="189" x="44.5" y="482.0151">initialize(Engine, Properties): void</text><ellipse cx="35.5" cy="491.6094" fill="#84BE84" rx="3" ry="3" style="stroke: #038048; stroke-width: 1.0;"/><text fill="#000000" font-family="sans-serif" font-size="11" lengthAdjust="spacingAndGlyphs" textLength="253" x="44.5" y="494.8198">makeDiffHtml(Context, String, String): String</text></a><!--MD5=[11d86fbbbd2220e39d121be4dffb58f1]
class org.apache.wiki.diff.ExternalDiffProvider--><a href="ExternalDiffProvider.html" target="_top" title="ExternalDiffProvider.html" xlink:actuate="onRequest" xlink:href="ExternalDiffProvider.html" xlink:show="new" xlink:title="ExternalDiffProvider.html" xlink:type="simple"><rect codeLine="15" fill="#FEFECE" filter="url(#fwp36o534e20w)" height="99.2188" id="org.apache.wiki.diff.ExternalDiffProvider" style="stroke: #A80036; stroke-width: 1.5;" width="279" x="338.5" y="408.5"/><ellipse cx="412.75" cy="424.5" fill="#ADD1B2" rx="11" ry="11" style="stroke: #A80036; stroke-width: 1.0;"/><path d="M415.7188,430.1406 Q415.1406,430.4375 414.5,430.5781 Q413.8594,430.7344 413.1563,430.7344 Q410.6563,430.7344 409.3281,429.0938 Q408.0156,427.4375 408.0156,424.3125 Q408.0156,421.1875 409.3281,419.5313 Q410.6563,417.875 413.1563,417.875 Q413.8594,417.875 414.5,418.0313 Q415.1563,418.1875 415.7188,418.4844 L415.7188,421.2031 Q415.0938,420.625 414.5,420.3594 Q413.9063,420.0781 413.2813,420.0781 Q411.9375,420.0781 411.25,421.1563 Q410.5625,422.2188 410.5625,424.3125 Q410.5625,426.4063 411.25,427.4844 Q411.9375,428.5469 413.2813,428.5469 Q413.9063,428.5469 414.5,428.2813 Q415.0938,428 415.7188,427.4219 L415.7188,430.1406 Z "/><text fill="#000000" font-family="sans-serif" font-size="12" lengthAdjust="spacingAndGlyphs" textLength="122" x="433.25" y="428.6543">ExternalDiffProvider</text><line style="stroke: #A80036; stroke-width: 1.5;" x1="339.5" x2="616.5" y1="440.5" y2="440.5"/><ellipse cx="349.5" cy="451.5" fill="none" rx="3" ry="3" style="stroke: #038048; stroke-width: 1.0;"/><text fill="#000000" font-family="sans-serif" font-size="11" lengthAdjust="spacingAndGlyphs" text-decoration="underline" textLength="159" x="358.5" y="454.7104">PROP_DIFFCOMMAND: String</text><line style="stroke: #A80036; stroke-width: 1.5;" x1="339.5" x2="616.5" y1="461.3047" y2="461.3047"/><ellipse cx="349.5" cy="472.3047" fill="#84BE84" rx="3" ry="3" style="stroke: #038048; stroke-width: 1.0;"/><text fill="#000000" font-family="sans-serif" font-size="11" lengthAdjust="spacingAndGlyphs" textLength="136" x="358.5" y="475.5151">getProviderInfo(): String</text><ellipse cx="349.5" cy="485.1094" fill="#84BE84" rx="3" ry="3" style="stroke: #038048; stroke-width: 1.0;"/><text fill="#000000" font-family="sans-serif" font-size="11" lengthAdjust="spacingAndGlyphs" textLength="189" x="358.5" y="488.3198">initialize(Engine, Properties): void</text><ellipse cx="349.5" cy="497.9141" fill="#84BE84" rx="3" ry="3" style="stroke: #038048; stroke-width: 1.0;"/><text fill="#000000" font-family="sans-serif" font-size="11" lengthAdjust="spacingAndGlyphs" textLength="253" x="358.5" y="501.1245">makeDiffHtml(Context, String, String): String</text></a><!--MD5=[ee9cc49abb5b030b7a2b749dc25dcc6d]
class org.apache.wiki.diff.DifferenceManager--><a href="DifferenceManager.html" target="_top" title="DifferenceManager.html" xlink:actuate="onRequest" xlink:href="DifferenceManager.html" xlink:show="new" xlink:title="DifferenceManager.html" xlink:type="simple"><rect codeLine="22" fill="#FEFECE" filter="url(#fwp36o534e20w)" height="86.4141" id="org.apache.wiki.diff.DifferenceManager" style="stroke: #A80036; stroke-width: 1.5;" width="251" x="1316.5" y="179"/><ellipse cx="1378.25" cy="195" fill="#B4A7E5" rx="11" ry="11" style="stroke: #A80036; stroke-width: 1.0;"/><path d="M1374.1719,190.7656 L1374.1719,188.6094 L1381.5625,188.6094 L1381.5625,190.7656 L1379.0938,190.7656 L1379.0938,198.8438 L1381.5625,198.8438 L1381.5625,201 L1374.1719,201 L1374.1719,198.8438 L1376.6406,198.8438 L1376.6406,190.7656 L1374.1719,190.7656 Z "/><text fill="#000000" font-family="sans-serif" font-size="12" font-style="italic" lengthAdjust="spacingAndGlyphs" textLength="119" x="1398.75" y="199.1543">DifferenceManager</text><line style="stroke: #A80036; stroke-width: 1.5;" x1="1317.5" x2="1566.5" y1="211" y2="211"/><ellipse cx="1327.5" cy="222" fill="none" rx="3" ry="3" style="stroke: #038048; stroke-width: 1.0;"/><text fill="#000000" font-family="sans-serif" font-size="11" lengthAdjust="spacingAndGlyphs" text-decoration="underline" textLength="162" x="1336.5" y="225.2104">PROP_DIFF_PROVIDER: String</text><line style="stroke: #A80036; stroke-width: 1.5;" x1="1317.5" x2="1566.5" y1="231.8047" y2="231.8047"/><ellipse cx="1327.5" cy="242.8047" fill="#84BE84" rx="3" ry="3" style="stroke: #038048; stroke-width: 1.0;"/><text fill="#000000" font-family="sans-serif" font-size="11" font-style="italic" lengthAdjust="spacingAndGlyphs" textLength="225" x="1336.5" y="246.0151">makeDiff(Context, String, String): String</text><ellipse cx="1327.5" cy="255.6094" fill="#84BE84" rx="3" ry="3" style="stroke: #038048; stroke-width: 1.0;"/><text fill="#000000" font-family="sans-serif" font-size="11" font-style="italic" lengthAdjust="spacingAndGlyphs" textLength="174" x="1336.5" y="258.8198">getDiff(Context, int, int): String</text></a><!--MD5=[2fbc833a06f80c01937c2c222d4f23da]
class org.apache.wiki.diff.DiffProvider--><a href="DiffProvider.html" target="_top" title="DiffProvider.html" xlink:actuate="onRequest" xlink:href="DiffProvider.html" xlink:show="new" xlink:title="DiffProvider.html" xlink:type="simple"><rect codeLine="28" fill="#FEFECE" filter="url(#fwp36o534e20w)" height="60.8047" id="org.apache.wiki.diff.DiffProvider" style="stroke: #A80036; stroke-width: 1.5;" width="277" x="653.5" y="191.5"/><ellipse cx="752.75" cy="207.5" fill="#B4A7E5" rx="11" ry="11" style="stroke: #A80036; stroke-width: 1.0;"/><path d="M748.6719,203.2656 L748.6719,201.1094 L756.0625,201.1094 L756.0625,203.2656 L753.5938,203.2656 L753.5938,211.3438 L756.0625,211.3438 L756.0625,213.5 L748.6719,213.5 L748.6719,211.3438 L751.1406,211.3438 L751.1406,203.2656 L748.6719,203.2656 Z "/><text fill="#000000" font-family="sans-serif" font-size="12" font-style="italic" lengthAdjust="spacingAndGlyphs" textLength="70" x="773.25" y="211.6543">DiffProvider</text><line style="stroke: #A80036; stroke-width: 1.5;" x1="654.5" x2="929.5" y1="223.5" y2="223.5"/><line style="stroke: #A80036; stroke-width: 1.5;" x1="654.5" x2="929.5" y1="231.5" y2="231.5"/><ellipse cx="664.5" cy="242.5" fill="#84BE84" rx="3" ry="3" style="stroke: #038048; stroke-width: 1.0;"/><text fill="#000000" font-family="sans-serif" font-size="11" font-style="italic" lengthAdjust="spacingAndGlyphs" textLength="251" x="673.5" y="245.7104">makeDiffHtml(Context, String, String): String</text></a><!--MD5=[f7c2a4d107fd15e7fa0fbf8825b4539e]
class org.apache.wiki.diff.DiffProvider.NullDiffProvider--><a href="DiffProvider.NullDiffProvider.html" target="_top" title="DiffProvider.NullDiffProvider.html" xlink:actuate="onRequest" xlink:href="DiffProvider.NullDiffProvider.html" xlink:show="new" xlink:title="DiffProvider.NullDiffProvider.html" xlink:type="simple"><rect codeLine="32" fill="#FEFECE" filter="url(#fwp36o534e20w)" height="86.4141" id="org.apache.wiki.diff.DiffProvider.NullDiffProvider" style="stroke: #A80036; stroke-width: 1.5;" width="279" x="652.5" y="415"/><ellipse cx="703.25" cy="431" fill="#ADD1B2" rx="11" ry="11" style="stroke: #A80036; stroke-width: 1.0;"/><path d="M706.2188,436.6406 Q705.6406,436.9375 705,437.0781 Q704.3594,437.2344 703.6563,437.2344 Q701.1563,437.2344 699.8281,435.5938 Q698.5156,433.9375 698.5156,430.8125 Q698.5156,427.6875 699.8281,426.0313 Q701.1563,424.375 703.6563,424.375 Q704.3594,424.375 705,424.5313 Q705.6563,424.6875 706.2188,424.9844 L706.2188,427.7031 Q705.5938,427.125 705,426.8594 Q704.4063,426.5781 703.7813,426.5781 Q702.4375,426.5781 701.75,427.6563 Q701.0625,428.7188 701.0625,430.8125 Q701.0625,432.9063 701.75,433.9844 Q702.4375,435.0469 703.7813,435.0469 Q704.4063,435.0469 705,434.7813 Q705.5938,434.5 706.2188,433.9219 L706.2188,436.6406 Z "/><text fill="#000000" font-family="sans-serif" font-size="12" lengthAdjust="spacingAndGlyphs" textLength="169" x="723.75" y="435.1543">DiffProvider.NullDiffProvider</text><line style="stroke: #A80036; stroke-width: 1.5;" x1="653.5" x2="930.5" y1="447" y2="447"/><line style="stroke: #A80036; stroke-width: 1.5;" x1="653.5" x2="930.5" y1="455" y2="455"/><ellipse cx="663.5" cy="466" fill="#84BE84" rx="3" ry="3" style="stroke: #038048; stroke-width: 1.0;"/><text fill="#000000" font-family="sans-serif" font-size="11" lengthAdjust="spacingAndGlyphs" textLength="253" x="672.5" y="469.2104">makeDiffHtml(Context, String, String): String</text><ellipse cx="663.5" cy="478.8047" fill="#84BE84" rx="3" ry="3" style="stroke: #038048; stroke-width: 1.0;"/><text fill="#000000" font-family="sans-serif" font-size="11" lengthAdjust="spacingAndGlyphs" textLength="189" x="672.5" y="482.0151">initialize(Engine, Properties): void</text><ellipse cx="663.5" cy="491.6094" fill="#84BE84" rx="3" ry="3" style="stroke: #038048; stroke-width: 1.0;"/><text fill="#000000" font-family="sans-serif" font-size="11" lengthAdjust="spacingAndGlyphs" textLength="136" x="672.5" y="494.8198">getProviderInfo(): String</text></a><!--MD5=[ba37733331afd63636f98cb022b164f5]
class org.apache.wiki.diff.ContextualDiffProvider--><a href="ContextualDiffProvider.html" target="_top" title="ContextualDiffProvider.html" xlink:actuate="onRequest" xlink:href="ContextualDiffProvider.html" xlink:show="new" xlink:title="ContextualDiffProvider.html" xlink:type="simple"><rect codeLine="38" fill="#FEFECE" filter="url(#fwp36o534e20w)" height="265.6797" id="org.apache.wiki.diff.ContextualDiffProvider" style="stroke: #A80036; stroke-width: 1.5;" width="297" x="966.5" y="325"/><ellipse cx="1041.75" cy="341" fill="#ADD1B2" rx="11" ry="11" style="stroke: #A80036; stroke-width: 1.0;"/><path d="M1044.7188,346.6406 Q1044.1406,346.9375 1043.5,347.0781 Q1042.8594,347.2344 1042.1563,347.2344 Q1039.6563,347.2344 1038.3281,345.5938 Q1037.0156,343.9375 1037.0156,340.8125 Q1037.0156,337.6875 1038.3281,336.0313 Q1039.6563,334.375 1042.1563,334.375 Q1042.8594,334.375 1043.5,334.5313 Q1044.1563,334.6875 1044.7188,334.9844 L1044.7188,337.7031 Q1044.0938,337.125 1043.5,336.8594 Q1042.9063,336.5781 1042.2813,336.5781 Q1040.9375,336.5781 1040.25,337.6563 Q1039.5625,338.7188 1039.5625,340.8125 Q1039.5625,342.9063 1040.25,343.9844 Q1040.9375,345.0469 1042.2813,345.0469 Q1042.9063,345.0469 1043.5,344.7813 Q1044.0938,344.5 1044.7188,343.9219 L1044.7188,346.6406 Z "/><text fill="#000000" font-family="sans-serif" font-size="12" lengthAdjust="spacingAndGlyphs" textLength="138" x="1062.25" y="345.1543">ContextualDiffProvider</text><line style="stroke: #A80036; stroke-width: 1.5;" x1="967.5" x2="1262.5" y1="357" y2="357"/><ellipse cx="977.5" cy="368" fill="none" rx="3" ry="3" style="stroke: #038048; stroke-width: 1.0;"/><text fill="#000000" font-family="sans-serif" font-size="11" lengthAdjust="spacingAndGlyphs" text-decoration="underline" textLength="242" x="986.5" y="371.2104">PROP_UNCHANGED_CONTEXT_LIMIT: String</text><ellipse cx="977.5" cy="380.8047" fill="none" rx="3" ry="3" style="stroke: #038048; stroke-width: 1.0;"/><text fill="#000000" font-family="sans-serif" font-size="11" lengthAdjust="spacingAndGlyphs" textLength="271" x="986.5" y="384.0151">m_emitChangeNextPreviousHyperlinks: boolean</text><ellipse cx="977.5" cy="393.6094" fill="none" rx="3" ry="3" style="stroke: #038048; stroke-width: 1.0;"/><text fill="#000000" font-family="sans-serif" font-size="11" lengthAdjust="spacingAndGlyphs" text-decoration="underline" textLength="167" x="986.5" y="396.8198">CHANGE_START_HTML: String</text><ellipse cx="977.5" cy="406.4141" fill="none" rx="3" ry="3" style="stroke: #038048; stroke-width: 1.0;"/><text fill="#000000" font-family="sans-serif" font-size="11" lengthAdjust="spacingAndGlyphs" text-decoration="underline" textLength="154" x="986.5" y="409.6245">CHANGE_END_HTML: String</text><ellipse cx="977.5" cy="419.2188" fill="none" rx="3" ry="3" style="stroke: #038048; stroke-width: 1.0;"/><text fill="#000000" font-family="sans-serif" font-size="11" lengthAdjust="spacingAndGlyphs" text-decoration="underline" textLength="107" x="986.5" y="422.4292">DIFF_START: String</text><ellipse cx="977.5" cy="432.0234" fill="none" rx="3" ry="3" style="stroke: #038048; stroke-width: 1.0;"/><text fill="#000000" font-family="sans-serif" font-size="11" lengthAdjust="spacingAndGlyphs" text-decoration="underline" textLength="94" x="986.5" y="435.2339">DIFF_END: String</text><ellipse cx="977.5" cy="444.8281" fill="none" rx="3" ry="3" style="stroke: #038048; stroke-width: 1.0;"/><text fill="#000000" font-family="sans-serif" font-size="11" lengthAdjust="spacingAndGlyphs" text-decoration="underline" textLength="180" x="986.5" y="448.0386">INSERTION_START_HTML: String</text><ellipse cx="977.5" cy="457.6328" fill="none" rx="3" ry="3" style="stroke: #038048; stroke-width: 1.0;"/><text fill="#000000" font-family="sans-serif" font-size="11" lengthAdjust="spacingAndGlyphs" text-decoration="underline" textLength="167" x="986.5" y="460.8433">INSERTION_END_HTML: String</text><ellipse cx="977.5" cy="470.4375" fill="none" rx="3" ry="3" style="stroke: #038048; stroke-width: 1.0;"/><text fill="#000000" font-family="sans-serif" font-size="11" lengthAdjust="spacingAndGlyphs" text-decoration="underline" textLength="175" x="986.5" y="473.6479">DELETION_START_HTML: String</text><ellipse cx="977.5" cy="483.2422" fill="none" rx="3" ry="3" style="stroke: #038048; stroke-width: 1.0;"/><text fill="#000000" font-family="sans-serif" font-size="11" lengthAdjust="spacingAndGlyphs" text-decoration="underline" textLength="162" x="986.5" y="486.4526">DELETION_END_HTML: String</text><ellipse cx="977.5" cy="496.0469" fill="none" rx="3" ry="3" style="stroke: #038048; stroke-width: 1.0;"/><text fill="#000000" font-family="sans-serif" font-size="11" lengthAdjust="spacingAndGlyphs" text-decoration="underline" textLength="219" x="986.5" y="499.2573">ELIDED_HEAD_INDICATOR_HTML: String</text><ellipse cx="977.5" cy="508.8516" fill="none" rx="3" ry="3" style="stroke: #038048; stroke-width: 1.0;"/><text fill="#000000" font-family="sans-serif" font-size="11" lengthAdjust="spacingAndGlyphs" text-decoration="underline" textLength="212" x="986.5" y="512.062">ELIDED_TAIL_INDICATOR_HTML: String</text><ellipse cx="977.5" cy="521.6563" fill="none" rx="3" ry="3" style="stroke: #038048; stroke-width: 1.0;"/><text fill="#000000" font-family="sans-serif" font-size="11" lengthAdjust="spacingAndGlyphs" text-decoration="underline" textLength="144" x="986.5" y="524.8667">LINE_BREAK_HTML: String</text><ellipse cx="977.5" cy="534.4609" fill="none" rx="3" ry="3" style="stroke: #038048; stroke-width: 1.0;"/><text fill="#000000" font-family="sans-serif" font-size="11" lengthAdjust="spacingAndGlyphs" text-decoration="underline" textLength="197" x="986.5" y="537.6714">ALTERNATING_SPACE_HTML: String</text><line style="stroke: #A80036; stroke-width: 1.5;" x1="967.5" x2="1262.5" y1="544.2656" y2="544.2656"/><ellipse cx="977.5" cy="555.2656" fill="#84BE84" rx="3" ry="3" style="stroke: #038048; stroke-width: 1.0;"/><text fill="#000000" font-family="sans-serif" font-size="11" lengthAdjust="spacingAndGlyphs" textLength="136" x="986.5" y="558.4761">getProviderInfo(): String</text><ellipse cx="977.5" cy="568.0703" fill="#84BE84" rx="3" ry="3" style="stroke: #038048; stroke-width: 1.0;"/><text fill="#000000" font-family="sans-serif" font-size="11" lengthAdjust="spacingAndGlyphs" textLength="189" x="986.5" y="571.2808">initialize(Engine, Properties): void</text><ellipse cx="977.5" cy="580.875" fill="#84BE84" rx="3" ry="3" style="stroke: #038048; stroke-width: 1.0;"/><text fill="#000000" font-family="sans-serif" font-size="11" lengthAdjust="spacingAndGlyphs" textLength="253" x="986.5" y="584.0854">makeDiffHtml(Context, String, String): String</text></a><!--MD5=[576393cc879ee6b41d5e539d7321559d]
class org.apache.wiki.api.providers.WikiProvider--><a href="../api/providers/WikiProvider.html" target="_top" title="../api/providers/WikiProvider.html" xlink:actuate="onRequest" xlink:href="../api/providers/WikiProvider.html" xlink:show="new" xlink:title="../api/providers/WikiProvider.html" xlink:type="simple"><rect codeLine="68" fill="#FEFECE" filter="url(#fwp36o534e20w)" height="86.4141" id="org.apache.wiki.api.providers.WikiProvider" style="stroke: #A80036; stroke-width: 1.5;" width="216" x="684" y="33"/><ellipse cx="750.25" cy="49" fill="#B4A7E5" rx="11" ry="11" style="stroke: #A80036; stroke-width: 1.0;"/><path d="M746.1719,44.7656 L746.1719,42.6094 L753.5625,42.6094 L753.5625,44.7656 L751.0938,44.7656 L751.0938,52.8438 L753.5625,52.8438 L753.5625,55 L746.1719,55 L746.1719,52.8438 L748.6406,52.8438 L748.6406,44.7656 L746.1719,44.7656 Z "/><text fill="#000000" font-family="sans-serif" font-size="12" font-style="italic" lengthAdjust="spacingAndGlyphs" textLength="75" x="770.75" y="53.1543">WikiProvider</text><line style="stroke: #A80036; stroke-width: 1.5;" x1="685" x2="899" y1="65" y2="65"/><ellipse cx="695" cy="76" fill="none" rx="3" ry="3" style="stroke: #038048; stroke-width: 1.0;"/><text fill="#000000" font-family="sans-serif" font-size="11" lengthAdjust="spacingAndGlyphs" text-decoration="underline" textLength="119" x="704" y="79.2104">LATEST_VERSION: int</text><line style="stroke: #A80036; stroke-width: 1.5;" x1="685" x2="899" y1="85.8047" y2="85.8047"/><ellipse cx="695" cy="96.8047" fill="#84BE84" rx="3" ry="3" style="stroke: #038048; stroke-width: 1.0;"/><text fill="#000000" font-family="sans-serif" font-size="11" font-style="italic" lengthAdjust="spacingAndGlyphs" textLength="190" x="704" y="100.0151">initialize(Engine, Properties): void</text><ellipse cx="695" cy="109.6094" fill="#84BE84" rx="3" ry="3" style="stroke: #038048; stroke-width: 1.0;"/><text fill="#000000" font-family="sans-serif" font-size="11" font-style="italic" lengthAdjust="spacingAndGlyphs" textLength="136" x="704" y="112.8198">getProviderInfo(): String</text></a><!--MD5=[4e5014feda05a720923f36f5627af5eb]
reverse link org.apache.wiki.diff.DifferenceManager to org.apache.wiki.diff.DefaultDifferenceManager--><path codeLine="58" d="M1442,285.2797 C1442,326.2899 1442,378.6262 1442,414.8855 " fill="none" id="org.apache.wiki.diff.DifferenceManager-backto-org.apache.wiki.diff.DefaultDifferenceManager" style="stroke: #A80036; stroke-width: 1.0; stroke-dasharray: 7.0,7.0;"/><polygon fill="none" points="1435.0001,285.0117,1442,265.0116,1449.0001,285.0116,1435.0001,285.0117" style="stroke: #A80036; stroke-width: 1.0;"/><!--MD5=[c5a1856f02175d4fd3ce607ef737f96f]
reverse link org.apache.wiki.diff.DiffProvider to org.apache.wiki.diff.TraditionalDiffProvider--><path codeLine="59" d="M633.384,237.1836 C538.8827,250.8901 418.7112,276.7033 321,325 C276.006,347.2396 233.1096,385.129 203.5611,414.7913 " fill="none" id="org.apache.wiki.diff.DiffProvider-backto-org.apache.wiki.diff.TraditionalDiffProvider" style="stroke: #A80036; stroke-width: 1.0; stroke-dasharray: 7.0,7.0;"/><polygon fill="none" points="632.6748,230.215,653.4474,234.3983,634.5999,244.082,632.6748,230.215" style="stroke: #A80036; stroke-width: 1.0;"/><!--MD5=[1e78fc3cc820e2646d942b9f56f70cfd]
reverse link org.apache.wiki.diff.DiffProvider to org.apache.wiki.diff.ExternalDiffProvider--><path codeLine="60" d="M725.1886,263.2778 C696.8366,281.4438 663.7622,303.5082 635,325 C600.0883,351.0869 562.7953,382.5156 533.3195,408.27 " fill="none" id="org.apache.wiki.diff.DiffProvider-backto-org.apache.wiki.diff.ExternalDiffProvider" style="stroke: #A80036; stroke-width: 1.0; stroke-dasharray: 7.0,7.0;"/><polygon fill="none" points="721.5139,257.3192,742.1507,252.5106,729.0168,269.139,721.5139,257.3192" style="stroke: #A80036; stroke-width: 1.0;"/><!--MD5=[feff548d1c1621887c59c8377d101c6e]
reverse link org.apache.wiki.api.providers.WikiProvider to org.apache.wiki.diff.DiffProvider--><path codeLine="61" d="M792,139.2046 C792,157.2759 792,176.1628 792,191.3269 " fill="none" id="org.apache.wiki.api.providers.WikiProvider-backto-org.apache.wiki.diff.DiffProvider" style="stroke: #A80036; stroke-width: 1.0;"/><polygon fill="none" points="785.0001,139.0152,792,119.0152,799.0001,139.0151,785.0001,139.0152" style="stroke: #A80036; stroke-width: 1.0;"/><!--MD5=[e3438b585460cab8bb6696c3e1599f03]
reverse link org.apache.wiki.diff.DiffProvider to org.apache.wiki.diff.DiffProvider.NullDiffProvider--><path codeLine="62" d="M781.2939,272.9186 C778.3891,315.2046 778.5805,374.7005 781.8682,414.7183 " fill="none" id="org.apache.wiki.diff.DiffProvider-backto-org.apache.wiki.diff.DiffProvider.NullDiffProvider" style="stroke: #A80036; stroke-width: 1.0; stroke-dasharray: 7.0,7.0;"/><polygon fill="none" points="774.3335,272.1607,783.0632,252.8529,788.2794,273.3904,774.3335,272.1607" style="stroke: #A80036; stroke-width: 1.0;"/><!--MD5=[e3438b585460cab8bb6696c3e1599f03]
reverse link org.apache.wiki.diff.DiffProvider to org.apache.wiki.diff.DiffProvider.NullDiffProvider--><path codeLine="63" d="M802.9391,267.7835 C806.4227,310.2702 806.3522,373.0522 802.7278,414.7183 " fill="none" id="org.apache.wiki.diff.DiffProvider-backto-org.apache.wiki.diff.DiffProvider.NullDiffProvider-1" style="stroke: #A80036; stroke-width: 1.0;"/><ellipse cx="802.2499" cy="260.8141" fill="#FFFFFF" rx="8" ry="8" style="stroke: #A80036; stroke-width: 1.0;"/><line style="stroke: #A80036; stroke-width: 1.0;" x1="803.0372" x2="801.4625" y1="268.7752" y2="252.8529"/><line style="stroke: #A80036; stroke-width: 1.0;" x1="794.2887" x2="810.211" y1="261.6014" y2="260.0267"/><!--MD5=[d971adc30da1767192a29e31d3e52265]
reverse link org.apache.wiki.diff.DiffProvider to org.apache.wiki.diff.ContextualDiffProvider--><path codeLine="64" d="M858.2088,263.4574 C886.5825,281.7288 919.8373,303.8242 949,325 C954.6775,329.1226 960.4267,333.3659 966.2056,337.6892 " fill="none" id="org.apache.wiki.diff.DiffProvider-backto-org.apache.wiki.diff.ContextualDiffProvider" style="stroke: #A80036; stroke-width: 1.0; stroke-dasharray: 7.0,7.0;"/><polygon fill="none" points="854.3332,269.288,841.2531,252.6174,861.8743,257.4925,854.3332,269.288" style="stroke: #A80036; stroke-width: 1.0;"/><text fill="#888888" font-family="sans-serif" font-size="10" lengthAdjust="spacingAndGlyphs" textLength="192" x="702.5" y="614.2822">UMLDoclet 2.0.12, PlantUML 1.2020.16</text><!--MD5=[17b6f8dc5106e6bf806591cd84da13c1]
@startuml
    namespace org.apache.wiki.diff {

        class DefaultDifferenceManager [[DefaultDifferenceManager.html]] {
            +DefaultDifferenceManager(Engine, Properties)
            +makeDiff(Context, String, String): String
            +getDiff(Context, int, int): String
        }

        class TraditionalDiffProvider [[TraditionalDiffProvider.html]] {
            +getProviderInfo(): String
            +initialize(Engine, Properties): void
            +makeDiffHtml(Context, String, String): String
        }

        class ExternalDiffProvider [[ExternalDiffProvider.html]] {
            {static} +PROP_DIFFCOMMAND: String
            +getProviderInfo(): String
            +initialize(Engine, Properties): void
            +makeDiffHtml(Context, String, String): String
        }

        interface DifferenceManager [[DifferenceManager.html]] {
            {static} +PROP_DIFF_PROVIDER: String
            {abstract} +makeDiff(Context, String, String): String
            {abstract} +getDiff(Context, int, int): String
        }

        interface DiffProvider [[DiffProvider.html]] {
            {abstract} +makeDiffHtml(Context, String, String): String
        }

        class org.apache.wiki.diff.DiffProvider.NullDiffProvider [[DiffProvider.NullDiffProvider.html]] {
            +makeDiffHtml(Context, String, String): String
            +initialize(Engine, Properties): void
            +getProviderInfo(): String
        }

        class ContextualDiffProvider [[ContextualDiffProvider.html]] {
            {static} +PROP_UNCHANGED_CONTEXT_LIMIT: String
            +m_emitChangeNextPreviousHyperlinks: boolean
            {static} +CHANGE_START_HTML: String
            {static} +CHANGE_END_HTML: String
            {static} +DIFF_START: String
            {static} +DIFF_END: String
            {static} +INSERTION_START_HTML: String
            {static} +INSERTION_END_HTML: String
            {static} +DELETION_START_HTML: String
            {static} +DELETION_END_HTML: String
            {static} +ELIDED_HEAD_INDICATOR_HTML: String
            {static} +ELIDED_TAIL_INDICATOR_HTML: String
            {static} +LINE_BREAK_HTML: String
            {static} +ALTERNATING_SPACE_HTML: String
            +getProviderInfo(): String
            +initialize(Engine, Properties): void
            +makeDiffHtml(Context, String, String): String
        }

        DifferenceManager <|.. DefaultDifferenceManager
        DiffProvider <|.. TraditionalDiffProvider
        DiffProvider <|.. ExternalDiffProvider
        org.apache.wiki.api.providers.WikiProvider <|- - DiffProvider
        DiffProvider <|.. org.apache.wiki.diff.DiffProvider.NullDiffProvider
        DiffProvider +- - org.apache.wiki.diff.DiffProvider.NullDiffProvider
        DiffProvider <|.. ContextualDiffProvider
    }

    namespace org.apache.wiki.api.providers {
        interface WikiProvider [[../api/providers/WikiProvider.html]] {
            {static} +LATEST_VERSION: int
            {abstract} +initialize(Engine, Properties): void
            {abstract} +getProviderInfo(): String
        }
    }

    center footer UMLDoclet 2.0.12, PlantUML 1.2020.16
@enduml

PlantUML version 1.2020.16(Sun Aug 23 20:20:43 UTC 2020)
(APACHE source distribution)
Java Runtime: Java(TM) SE Runtime Environment
JVM: Java HotSpot(TM) 64-Bit Server VM
Default Encoding: ISO-8859-1
Language: en
Country: US
--></g></svg>