<?xml version="1.0" encoding="UTF-8" standalone="no"?><svg xmlns="http://www.w3.org/2000/svg" xmlns:xlink="http://www.w3.org/1999/xlink" contentScriptType="application/ecmascript" contentStyleType="text/css" height="216px" preserveAspectRatio="none" style="width:372px;height:216px;" version="1.1" viewBox="0 0 372 216" width="372px" zoomAndPan="magnify"><defs><filter height="300%" id="ff3hns7dlig69" width="300%" x="-1" y="-1"><feGaussianBlur result="blurOut" stdDeviation="2.0"/><feColorMatrix in="blurOut" result="blurOut2" type="matrix" values="0 0 0 0 0 0 0 0 0 0 0 0 0 0 0 0 0 0 .4 0"/><feOffset dx="4.0" dy="4.0" in="blurOut2" result="blurOut3"/><feBlend in="SourceGraphic" in2="blurOut3" mode="normal"/></filter></defs><g><!--class DefaultRSSGenerator--><a href="DefaultRSSGenerator.html" target="_top" xlink:actuate="onRequest" xlink:show="new" xlink:title="DefaultRSSGenerator.html" xlink:type="simple"><rect fill="#FEFECE" filter="url(#ff3hns7dlig69)" height="176.0469" id="DefaultRSSGenerator" style="stroke: #A80036; stroke-width: 1.5;" width="355" x="6" y="8"/><ellipse cx="112.75" cy="24" fill="#ADD1B2" rx="11" ry="11" style="stroke: #A80036; stroke-width: 1.0;"/><path d="M115.7188,29.6406 Q115.1406,29.9375 114.5,30.0781 Q113.8594,30.2344 113.1563,30.2344 Q110.6563,30.2344 109.3281,28.5938 Q108.0156,26.9375 108.0156,23.8125 Q108.0156,20.6875 109.3281,19.0313 Q110.6563,17.375 113.1563,17.375 Q113.8594,17.375 114.5,17.5313 Q115.1563,17.6875 115.7188,17.9844 L115.7188,20.7031 Q115.0938,20.125 114.5,19.8594 Q113.9063,19.5781 113.2813,19.5781 Q111.9375,19.5781 111.25,20.6563 Q110.5625,21.7188 110.5625,23.8125 Q110.5625,25.9063 111.25,26.9844 Q111.9375,28.0469 113.2813,28.0469 Q113.9063,28.0469 114.5,27.7813 Q115.0938,27.5 115.7188,26.9219 L115.7188,29.6406 Z "/><text fill="#000000" font-family="sans-serif" font-size="12" lengthAdjust="spacingAndGlyphs" textLength="133" x="133.25" y="28.1543">DefaultRSSGenerator</text><line style="stroke: #A80036; stroke-width: 1.5;" x1="7" x2="360" y1="40" y2="40"/><line style="stroke: #A80036; stroke-width: 1.5;" x1="7" x2="360" y1="48" y2="48"/><ellipse cx="17" cy="59.9023" fill="#84BE84" rx="3" ry="3" style="stroke: #038048; stroke-width: 1.0;"/><text fill="#000000" font-family="sans-serif" font-size="11" lengthAdjust="spacingAndGlyphs" textLength="234" x="26" y="62.2104">DefaultRSSGenerator(Engine, Properties)</text><ellipse cx="17" cy="72.707" fill="#84BE84" rx="3" ry="3" style="stroke: #038048; stroke-width: 1.0;"/><text fill="#000000" font-family="sans-serif" font-size="11" lengthAdjust="spacingAndGlyphs" textLength="189" x="26" y="75.0151">initialize(Engine, Properties): void</text><ellipse cx="17" cy="85.5117" fill="#84BE84" rx="3" ry="3" style="stroke: #038048; stroke-width: 1.0;"/><text fill="#000000" font-family="sans-serif" font-size="11" lengthAdjust="spacingAndGlyphs" textLength="101" x="26" y="87.8198">generate(): String</text><ellipse cx="17" cy="98.3164" fill="#84BE84" rx="3" ry="3" style="stroke: #038048; stroke-width: 1.0;"/><text fill="#000000" font-family="sans-serif" font-size="11" lengthAdjust="spacingAndGlyphs" textLength="329" x="26" y="100.6245">generateFeed(Context, List&lt;Page&gt;, String, String): String</text><ellipse cx="17" cy="111.1211" fill="#84BE84" rx="3" ry="3" style="stroke: #038048; stroke-width: 1.0;"/><text fill="#000000" font-family="sans-serif" font-size="11" lengthAdjust="spacingAndGlyphs" textLength="116" x="26" y="113.4292">isEnabled(): boolean</text><ellipse cx="17" cy="123.9258" fill="#84BE84" rx="3" ry="3" style="stroke: #038048; stroke-width: 1.0;"/><text fill="#000000" font-family="sans-serif" font-size="11" lengthAdjust="spacingAndGlyphs" textLength="147" x="26" y="126.2339">setEnabled(boolean): void</text><ellipse cx="17" cy="136.7305" fill="#84BE84" rx="3" ry="3" style="stroke: #038048; stroke-width: 1.0;"/><text fill="#000000" font-family="sans-serif" font-size="11" lengthAdjust="spacingAndGlyphs" textLength="108" x="26" y="139.0386">getRssFile(): String</text><ellipse cx="17" cy="149.5352" fill="#84BE84" rx="3" ry="3" style="stroke: #038048; stroke-width: 1.0;"/><text fill="#000000" font-family="sans-serif" font-size="11" lengthAdjust="spacingAndGlyphs" textLength="242" x="26" y="151.8433">generateFullWikiRSS(Context, Feed): String</text><ellipse cx="17" cy="162.3398" fill="#84BE84" rx="3" ry="3" style="stroke: #038048; stroke-width: 1.0;"/><text fill="#000000" font-family="sans-serif" font-size="11" lengthAdjust="spacingAndGlyphs" textLength="325" x="26" y="164.6479">generateWikiPageRSS(Context, List&lt;Page&gt;, Feed): String</text><ellipse cx="17" cy="175.1445" fill="#84BE84" rx="3" ry="3" style="stroke: #038048; stroke-width: 1.0;"/><text fill="#000000" font-family="sans-serif" font-size="11" lengthAdjust="spacingAndGlyphs" textLength="301" x="26" y="177.4526">generateBlogRSS(Context, List&lt;Page&gt;, Feed): String</text></a><text fill="#888888" font-family="sans-serif" font-size="10" lengthAdjust="spacingAndGlyphs" textLength="186" x="96.5" y="203.2822">UMLDoclet 1.1.4, PlantUML 1.2019.05</text><!--
@startuml

    class DefaultRSSGenerator [[DefaultRSSGenerator.html]] {
        +DefaultRSSGenerator(Engine, Properties)
        +initialize(Engine, Properties): void
        +generate(): String
        +generateFeed(Context, List<Page>, String, String): String
        +isEnabled(): boolean
        +setEnabled(boolean): void
        +getRssFile(): String
        +generateFullWikiRSS(Context, Feed): String
        +generateWikiPageRSS(Context, List<Page>, Feed): String
        +generateBlogRSS(Context, List<Page>, Feed): String
    }


    center footer UMLDoclet 1.1.4, PlantUML 1.2019.05
@enduml

PlantUML version 1.2019.05(Sat Apr 20 16:45:36 UTC 2019)
(APACHE source distribution)
Java Runtime: OpenJDK Runtime Environment
JVM: OpenJDK 64-Bit Server VM
Java Version: 1.8.0_252-b09
Operating System: Linux
OS Version: 4.15.0-74-generic
Default Encoding: ISO-8859-1
Language: en
Country: US
--></g></svg>