<?xml version="1.0" encoding="UTF-8" standalone="no"?><svg xmlns="http://www.w3.org/2000/svg" xmlns:xlink="http://www.w3.org/1999/xlink" contentScriptType="application/ecmascript" contentStyleType="text/css" height="216px" preserveAspectRatio="none" style="width:198px;height:216px;" version="1.1" viewBox="0 0 198 216" width="198px" zoomAndPan="magnify"><defs><filter height="300%" id="fid17w5gu47m9" width="300%" x="-1" y="-1"><feGaussianBlur result="blurOut" stdDeviation="2.0"/><feColorMatrix in="blurOut" result="blurOut2" type="matrix" values="0 0 0 0 0 0 0 0 0 0 0 0 0 0 0 0 0 0 .4 0"/><feOffset dx="4.0" dy="4.0" in="blurOut2" result="blurOut3"/><feBlend in="SourceGraphic" in2="blurOut3" mode="normal"/></filter></defs><g><!--class Entry--><a href="Entry.html" target="_top" xlink:actuate="onRequest" xlink:show="new" xlink:title="Entry.html" xlink:type="simple"><rect fill="#FEFECE" filter="url(#fid17w5gu47m9)" height="176.0469" id="Entry" style="stroke: #A80036; stroke-width: 1.5;" width="161" x="6.5" y="8"/><ellipse cx="66.75" cy="24" fill="#ADD1B2" rx="11" ry="11" style="stroke: #A80036; stroke-width: 1.0;"/><path d="M69.7188,29.6406 Q69.1406,29.9375 68.5,30.0781 Q67.8594,30.2344 67.1563,30.2344 Q64.6563,30.2344 63.3281,28.5938 Q62.0156,26.9375 62.0156,23.8125 Q62.0156,20.6875 63.3281,19.0313 Q64.6563,17.375 67.1563,17.375 Q67.8594,17.375 68.5,17.5313 Q69.1563,17.6875 69.7188,17.9844 L69.7188,20.7031 Q69.0938,20.125 68.5,19.8594 Q67.9063,19.5781 67.2813,19.5781 Q65.9375,19.5781 65.25,20.6563 Q64.5625,21.7188 64.5625,23.8125 Q64.5625,25.9063 65.25,26.9844 Q65.9375,28.0469 67.2813,28.0469 Q67.9063,28.0469 68.5,27.7813 Q69.0938,27.5 69.7188,26.9219 L69.7188,29.6406 Z "/><text fill="#000000" font-family="sans-serif" font-size="12" lengthAdjust="spacingAndGlyphs" textLength="32" x="87.25" y="28.1543">Entry</text><line style="stroke: #A80036; stroke-width: 1.5;" x1="7.5" x2="166.5" y1="40" y2="40"/><line style="stroke: #A80036; stroke-width: 1.5;" x1="7.5" x2="166.5" y1="48" y2="48"/><ellipse cx="17.5" cy="59.9023" fill="#84BE84" rx="3" ry="3" style="stroke: #038048; stroke-width: 1.0;"/><text fill="#000000" font-family="sans-serif" font-size="11" lengthAdjust="spacingAndGlyphs" textLength="128" x="26.5" y="62.2104">setAuthor(String): void</text><ellipse cx="17.5" cy="72.707" fill="#84BE84" rx="3" ry="3" style="stroke: #038048; stroke-width: 1.0;"/><text fill="#000000" font-family="sans-serif" font-size="11" lengthAdjust="spacingAndGlyphs" textLength="105" x="26.5" y="75.0151">getAuthor(): String</text><ellipse cx="17.5" cy="85.5117" fill="#84BE84" rx="3" ry="3" style="stroke: #038048; stroke-width: 1.0;"/><text fill="#000000" font-family="sans-serif" font-size="11" lengthAdjust="spacingAndGlyphs" textLength="90" x="26.5" y="87.8198">getPage(): Page</text><ellipse cx="17.5" cy="98.3164" fill="#84BE84" rx="3" ry="3" style="stroke: #038048; stroke-width: 1.0;"/><text fill="#000000" font-family="sans-serif" font-size="11" lengthAdjust="spacingAndGlyphs" textLength="113" x="26.5" y="100.6245">setPage(Page): void</text><ellipse cx="17.5" cy="111.1211" fill="#84BE84" rx="3" ry="3" style="stroke: #038048; stroke-width: 1.0;"/><text fill="#000000" font-family="sans-serif" font-size="11" lengthAdjust="spacingAndGlyphs" textLength="115" x="26.5" y="113.4292">setTitle(String): void</text><ellipse cx="17.5" cy="123.9258" fill="#84BE84" rx="3" ry="3" style="stroke: #038048; stroke-width: 1.0;"/><text fill="#000000" font-family="sans-serif" font-size="11" lengthAdjust="spacingAndGlyphs" textLength="92" x="26.5" y="126.2339">getTitle(): String</text><ellipse cx="17.5" cy="136.7305" fill="#84BE84" rx="3" ry="3" style="stroke: #038048; stroke-width: 1.0;"/><text fill="#000000" font-family="sans-serif" font-size="11" lengthAdjust="spacingAndGlyphs" textLength="112" x="26.5" y="139.0386">setURL(String): void</text><ellipse cx="17.5" cy="149.5352" fill="#84BE84" rx="3" ry="3" style="stroke: #038048; stroke-width: 1.0;"/><text fill="#000000" font-family="sans-serif" font-size="11" lengthAdjust="spacingAndGlyphs" textLength="89" x="26.5" y="151.8433">getURL(): String</text><ellipse cx="17.5" cy="162.3398" fill="#84BE84" rx="3" ry="3" style="stroke: #038048; stroke-width: 1.0;"/><text fill="#000000" font-family="sans-serif" font-size="11" lengthAdjust="spacingAndGlyphs" textLength="135" x="26.5" y="164.6479">setContent(String): void</text><ellipse cx="17.5" cy="175.1445" fill="#84BE84" rx="3" ry="3" style="stroke: #038048; stroke-width: 1.0;"/><text fill="#000000" font-family="sans-serif" font-size="11" lengthAdjust="spacingAndGlyphs" textLength="112" x="26.5" y="177.4526">getContent(): String</text></a><text fill="#888888" font-family="sans-serif" font-size="10" lengthAdjust="spacingAndGlyphs" textLength="186" x="0" y="203.2822">UMLDoclet 1.1.4, PlantUML 1.2019.05</text><!--
@startuml

    class Entry [[Entry.html]] {
        +setAuthor(String): void
        +getAuthor(): String
        +getPage(): Page
        +setPage(Page): void
        +setTitle(String): void
        +getTitle(): String
        +setURL(String): void
        +getURL(): String
        +setContent(String): void
        +getContent(): String
    }


    center footer UMLDoclet 1.1.4, PlantUML 1.2019.05
@enduml

PlantUML version 1.2019.05(Sat Apr 20 16:45:36 UTC 2019)
(APACHE source distribution)
Java Runtime: OpenJDK Runtime Environment
JVM: OpenJDK 64-Bit Server VM
Java Version: 1.8.0_252-b09
Operating System: Linux
OS Version: 4.15.0-66-generic
Default Encoding: ISO-8859-1
Language: en
Country: US
--></g></svg>