<?xml version="1.0" encoding="UTF-8" standalone="no"?><svg xmlns="http://www.w3.org/2000/svg" xmlns:xlink="http://www.w3.org/1999/xlink" contentScriptType="application/ecmascript" contentStyleType="text/css" height="113px" preserveAspectRatio="none" style="width:202px;height:113px;" version="1.1" viewBox="0 0 202 113" width="202px" zoomAndPan="magnify"><defs><filter height="300%" id="fb8n12mpo1rxh" width="300%" x="-1" y="-1"><feGaussianBlur result="blurOut" stdDeviation="2.0"/><feColorMatrix in="blurOut" result="blurOut2" type="matrix" values="0 0 0 0 0 0 0 0 0 0 0 0 0 0 0 0 0 0 .4 0"/><feOffset dx="4.0" dy="4.0" in="blurOut2" result="blurOut3"/><feBlend in="SourceGraphic" in2="blurOut3" mode="normal"/></filter></defs><g><!--MD5=[13154259000ca19ba8a300a9ef212a04]
class org.apache.wiki.api.spi.AclsDSL--><a href="AclsDSL.html" target="_top" title="AclsDSL.html" xlink:actuate="onRequest" xlink:href="AclsDSL.html" xlink:show="new" xlink:title="AclsDSL.html" xlink:type="simple"><rect codeLine="5" fill="#FEFECE" filter="url(#fb8n12mpo1rxh)" height="75.8594" id="org.apache.wiki.api.spi.AclsDSL" style="stroke: #A80036; stroke-width: 1.5;" width="140" x="25" y="7"/><ellipse cx="40" cy="27.0938" fill="#ADD1B2" rx="11" ry="11" style="stroke: #A80036; stroke-width: 1.0;"/><path d="M42.7656,22.9688 Q42.9219,22.75 43.1094,22.6406 Q43.2969,22.5313 43.5156,22.5313 Q43.8906,22.5313 44.125,22.7969 Q44.3594,23.0469 44.3594,23.6563 L44.3594,25.1094 Q44.3594,25.7188 44.125,25.9844 Q43.8906,26.25 43.5156,26.25 Q43.1719,26.25 42.9688,26.0469 Q42.7656,25.8594 42.6563,25.3438 Q42.6094,24.9844 42.4219,24.7969 Q42.0938,24.4219 41.4844,24.2031 Q40.875,23.9844 40.25,23.9844 Q39.4844,23.9844 38.8438,24.3125 Q38.2188,24.6406 37.7188,25.3906 Q37.2344,26.1406 37.2344,27.1719 L37.2344,28.2656 Q37.2344,29.5 38.125,30.3281 Q39.0156,31.1406 40.6094,31.1406 Q41.5469,31.1406 42.2031,30.8906 Q42.5938,30.7344 43.0156,30.2969 Q43.2813,30.0313 43.4219,29.9531 Q43.5781,29.875 43.7813,29.875 Q44.1094,29.875 44.3594,30.1406 Q44.625,30.3906 44.625,30.7344 Q44.625,31.0781 44.2813,31.4844 Q43.7813,32.0625 42.9844,32.3906 Q41.9063,32.8438 40.6094,32.8438 Q39.0938,32.8438 37.8906,32.2188 Q36.9063,31.7188 36.2188,30.6563 Q35.5313,29.5781 35.5313,28.2969 L35.5313,27.1406 Q35.5313,25.8125 36.1406,24.6719 Q36.7656,23.5156 37.8594,22.9063 Q38.9531,22.2813 40.1875,22.2813 Q40.9219,22.2813 41.5625,22.4531 Q42.2188,22.6094 42.7656,22.9688 Z "/><text fill="#000000" font-family="sans-serif" font-size="14" lengthAdjust="spacingAndGlyphs" textLength="53" x="81.5" y="26.5332">AclsDSL</text><text fill="#000000" font-family="sans-serif" font-size="10" lengthAdjust="spacingAndGlyphs" textLength="108" x="54" y="39.9902">org.apache.wiki.api.spi</text><line style="stroke: #A80036; stroke-width: 1.5;" x1="26" x2="164" y1="47.1875" y2="47.1875"/><ellipse cx="36" cy="58.1875" fill="#84BE84" rx="3" ry="3" style="stroke: #038048; stroke-width: 1.0;"/><text fill="#000000" font-family="sans-serif" font-size="11" lengthAdjust="spacingAndGlyphs" textLength="44" x="45" y="62.6064">acl(): Acl</text><ellipse cx="36" cy="72.0234" fill="#84BE84" rx="3" ry="3" style="stroke: #038048; stroke-width: 1.0;"/><text fill="#000000" font-family="sans-serif" font-size="11" lengthAdjust="spacingAndGlyphs" textLength="80" x="45" y="76.4424">entry(): AclEntry</text></a><text fill="#888888" font-family="sans-serif" font-size="10" lengthAdjust="spacingAndGlyphs" textLength="190" x="0" y="100.2402">UMLDoclet 2.0.12, PlantUML 1.2020.16</text><!--MD5=[872ec887ac1740710c5633372b6d340e]
@startuml
    set namespaceSeparator none
    hide empty fields
    hide empty methods

    class "<size:14>AclsDSL\n<size:10>org.apache.wiki.api.spi" as org.apache.wiki.api.spi.AclsDSL [[AclsDSL.html]] {
        +acl(): Acl
        +entry(): AclEntry
    }

    center footer UMLDoclet 2.0.12, PlantUML 1.2020.16
@enduml

PlantUML version 1.2020.16(Sun Aug 23 22:20:43 CEST 2020)
(APACHE source distribution)
Java Runtime: OpenJDK Runtime Environment
JVM: OpenJDK 64-Bit Server VM
Default Encoding: Cp1252
Language: es
Country: ES
--></g></svg>