<?xml version="1.0" encoding="UTF-8" standalone="no"?><svg xmlns="http://www.w3.org/2000/svg" xmlns:xlink="http://www.w3.org/1999/xlink" contentScriptType="application/ecmascript" contentStyleType="text/css" height="533px" preserveAspectRatio="none" style="width:1353px;height:533px;" version="1.1" viewBox="0 0 1353 533" width="1353px" zoomAndPan="magnify"><defs><filter height="300%" id="f1e3ys037udcen" width="300%" x="-1" y="-1"><feGaussianBlur result="blurOut" stdDeviation="2.0"/><feColorMatrix in="blurOut" result="blurOut2" type="matrix" values="0 0 0 0 0 0 0 0 0 0 0 0 0 0 0 0 0 0 .4 0"/><feOffset dx="4.0" dy="4.0" in="blurOut2" result="blurOut3"/><feBlend in="SourceGraphic" in2="blurOut3" mode="normal"/></filter></defs><g><!--MD5=[0f3e7baf7cf91cc6710c1f04f4504e4b]
cluster org.apache.wiki.util.comparators--><polygon fill="#FFFFFF" filter="url(#f1e3ys037udcen)" points="16,120,281,120,288,142.2969,1331,142.2969,1331,505,16,505,16,120" style="stroke: #000000; stroke-width: 1.5;"/><line style="stroke: #000000; stroke-width: 1.5;" x1="16" x2="288" y1="142.2969" y2="142.2969"/><text fill="#000000" font-family="sans-serif" font-size="14" font-weight="bold" lengthAdjust="spacingAndGlyphs" textLength="259" x="20" y="134.9951">org.apache.wiki.util.comparators</text><!--MD5=[0d852700fdad35b7061d461d6907a324]
cluster java.io--><polygon fill="#FFFFFF" filter="url(#f1e3ys037udcen)" points="436,6,492,6,499,28.2969,556,28.2969,556,89,436,89,436,6" style="stroke: #000000; stroke-width: 1.5;"/><line style="stroke: #000000; stroke-width: 1.5;" x1="436" x2="499" y1="28.2969" y2="28.2969"/><text fill="#000000" font-family="sans-serif" font-size="14" font-weight="bold" lengthAdjust="spacingAndGlyphs" textLength="50" x="440" y="20.9951">java.io</text><!--MD5=[325022e2e078463a8f5a028d253d68a0]
class org.apache.wiki.util.comparators.JavaNaturalComparator--><a href="JavaNaturalComparator.html" target="_top" title="JavaNaturalComparator.html" xlink:actuate="onRequest" xlink:href="JavaNaturalComparator.html" xlink:show="new" xlink:title="JavaNaturalComparator.html" xlink:type="simple"><rect codeLine="3" fill="#FEFECE" filter="url(#f1e3ys037udcen)" height="73.6094" id="org.apache.wiki.util.comparators.JavaNaturalComparator" style="stroke: #A80036; stroke-width: 1.5;" width="316" x="1007" y="172.5"/><ellipse cx="1088.25" cy="188.5" fill="#ADD1B2" rx="11" ry="11" style="stroke: #A80036; stroke-width: 1.0;"/><path d="M1091.2188,194.1406 Q1090.6406,194.4375 1090,194.5781 Q1089.3594,194.7344 1088.6563,194.7344 Q1086.1563,194.7344 1084.8281,193.0938 Q1083.5156,191.4375 1083.5156,188.3125 Q1083.5156,185.1875 1084.8281,183.5313 Q1086.1563,181.875 1088.6563,181.875 Q1089.3594,181.875 1090,182.0313 Q1090.6563,182.1875 1091.2188,182.4844 L1091.2188,185.2031 Q1090.5938,184.625 1090,184.3594 Q1089.4063,184.0781 1088.7813,184.0781 Q1087.4375,184.0781 1086.75,185.1563 Q1086.0625,186.2188 1086.0625,188.3125 Q1086.0625,190.4063 1086.75,191.4844 Q1087.4375,192.5469 1088.7813,192.5469 Q1089.4063,192.5469 1090,192.2813 Q1090.5938,192 1091.2188,191.4219 L1091.2188,194.1406 Z "/><text fill="#000000" font-family="sans-serif" font-size="12" lengthAdjust="spacingAndGlyphs" textLength="145" x="1108.75" y="192.6543">JavaNaturalComparator</text><line style="stroke: #A80036; stroke-width: 1.5;" x1="1008" x2="1322" y1="204.5" y2="204.5"/><ellipse cx="1018" cy="215.5" fill="none" rx="3" ry="3" style="stroke: #038048; stroke-width: 1.0;"/><text fill="#000000" font-family="sans-serif" font-size="11" lengthAdjust="spacingAndGlyphs" text-decoration="underline" textLength="290" x="1027" y="218.7104">DEFAULT_JAVA_COMPARATOR: Comparator&lt;String&gt;</text><line style="stroke: #A80036; stroke-width: 1.5;" x1="1008" x2="1322" y1="225.3047" y2="225.3047"/><ellipse cx="1018" cy="236.3047" fill="#84BE84" rx="3" ry="3" style="stroke: #038048; stroke-width: 1.0;"/><text fill="#000000" font-family="sans-serif" font-size="11" lengthAdjust="spacingAndGlyphs" textLength="156" x="1027" y="239.5151">compare(String, String): int</text></a><!--MD5=[1191a098484ce3cc0e92c7d3ef89e073]
class org.apache.wiki.util.comparators.CollatorComparator--><a href="CollatorComparator.html" target="_top" title="CollatorComparator.html" xlink:actuate="onRequest" xlink:href="CollatorComparator.html" xlink:show="new" xlink:title="CollatorComparator.html" xlink:type="simple"><rect codeLine="8" fill="#FEFECE" filter="url(#f1e3ys037udcen)" height="124.8281" id="org.apache.wiki.util.comparators.CollatorComparator" style="stroke: #A80036; stroke-width: 1.5;" width="335" x="636.5" y="147"/><ellipse cx="738.75" cy="163" fill="#ADD1B2" rx="11" ry="11" style="stroke: #A80036; stroke-width: 1.0;"/><path d="M741.7188,168.6406 Q741.1406,168.9375 740.5,169.0781 Q739.8594,169.2344 739.1563,169.2344 Q736.6563,169.2344 735.3281,167.5938 Q734.0156,165.9375 734.0156,162.8125 Q734.0156,159.6875 735.3281,158.0313 Q736.6563,156.375 739.1563,156.375 Q739.8594,156.375 740.5,156.5313 Q741.1563,156.6875 741.7188,156.9844 L741.7188,159.7031 Q741.0938,159.125 740.5,158.8594 Q739.9063,158.5781 739.2813,158.5781 Q737.9375,158.5781 737.25,159.6563 Q736.5625,160.7188 736.5625,162.8125 Q736.5625,164.9063 737.25,165.9844 Q737.9375,167.0469 739.2813,167.0469 Q739.9063,167.0469 740.5,166.7813 Q741.0938,166.5 741.7188,165.9219 L741.7188,168.6406 Z "/><text fill="#000000" font-family="sans-serif" font-size="12" lengthAdjust="spacingAndGlyphs" textLength="122" x="759.25" y="167.1543">CollatorComparator</text><line style="stroke: #A80036; stroke-width: 1.5;" x1="637.5" x2="970.5" y1="179" y2="179"/><ellipse cx="647.5" cy="190" fill="none" rx="3" ry="3" style="stroke: #038048; stroke-width: 1.0;"/><text fill="#000000" font-family="sans-serif" font-size="11" lengthAdjust="spacingAndGlyphs" text-decoration="underline" textLength="309" x="656.5" y="193.2104">DEFAULT_LOCALE_COMPARATOR: Comparator&lt;String&gt;</text><polygon fill="none" points="647.5,197.8047,651.5,201.8047,647.5,205.8047,643.5,201.8047" style="stroke: #B38D22; stroke-width: 1.0;"/><text fill="#000000" font-family="sans-serif" font-size="11" lengthAdjust="spacingAndGlyphs" textLength="111" x="656.5" y="206.0151">m_collator: Collator</text><line style="stroke: #A80036; stroke-width: 1.5;" x1="637.5" x2="970.5" y1="212.6094" y2="212.6094"/><ellipse cx="647.5" cy="223.6094" fill="#84BE84" rx="3" ry="3" style="stroke: #038048; stroke-width: 1.0;"/><text fill="#000000" font-family="sans-serif" font-size="11" lengthAdjust="spacingAndGlyphs" textLength="120" x="656.5" y="226.8198">CollatorComparator()</text><ellipse cx="647.5" cy="236.4141" fill="#84BE84" rx="3" ry="3" style="stroke: #038048; stroke-width: 1.0;"/><text fill="#000000" font-family="sans-serif" font-size="11" lengthAdjust="spacingAndGlyphs" textLength="164" x="656.5" y="239.6245">CollatorComparator(Collator)</text><ellipse cx="647.5" cy="249.2188" fill="#84BE84" rx="3" ry="3" style="stroke: #038048; stroke-width: 1.0;"/><text fill="#000000" font-family="sans-serif" font-size="11" lengthAdjust="spacingAndGlyphs" textLength="156" x="656.5" y="252.4292">compare(String, String): int</text><ellipse cx="647.5" cy="262.0234" fill="#84BE84" rx="3" ry="3" style="stroke: #038048; stroke-width: 1.0;"/><text fill="#000000" font-family="sans-serif" font-size="11" lengthAdjust="spacingAndGlyphs" textLength="145" x="656.5" y="265.2339">setCollator(Collator): void</text></a><!--MD5=[b91e85267bf44aef968e825513b9d3b7]
class org.apache.wiki.util.comparators.PrincipalComparator--><a href="PrincipalComparator.html" target="_top" title="PrincipalComparator.html" xlink:actuate="onRequest" xlink:href="PrincipalComparator.html" xlink:show="new" xlink:title="PrincipalComparator.html" xlink:type="simple"><rect codeLine="17" fill="#FEFECE" filter="url(#f1e3ys037udcen)" height="60.8047" id="org.apache.wiki.util.comparators.PrincipalComparator" style="stroke: #A80036; stroke-width: 1.5;" width="210" x="391" y="179"/><ellipse cx="428.95" cy="195" fill="#ADD1B2" rx="11" ry="11" style="stroke: #A80036; stroke-width: 1.0;"/><path d="M431.9188,200.6406 Q431.3406,200.9375 430.7,201.0781 Q430.0594,201.2344 429.3563,201.2344 Q426.8563,201.2344 425.5281,199.5938 Q424.2156,197.9375 424.2156,194.8125 Q424.2156,191.6875 425.5281,190.0313 Q426.8563,188.375 429.3563,188.375 Q430.0594,188.375 430.7,188.5313 Q431.3563,188.6875 431.9188,188.9844 L431.9188,191.7031 Q431.2938,191.125 430.7,190.8594 Q430.1063,190.5781 429.4813,190.5781 Q428.1375,190.5781 427.45,191.6563 Q426.7625,192.7188 426.7625,194.8125 Q426.7625,196.9063 427.45,197.9844 Q428.1375,199.0469 429.4813,199.0469 Q430.1063,199.0469 430.7,198.7813 Q431.2938,198.5 431.9188,197.9219 L431.9188,200.6406 Z "/><text fill="#000000" font-family="sans-serif" font-size="12" lengthAdjust="spacingAndGlyphs" textLength="127" x="448.05" y="199.1543">PrincipalComparator</text><line style="stroke: #A80036; stroke-width: 1.5;" x1="392" x2="600" y1="211" y2="211"/><line style="stroke: #A80036; stroke-width: 1.5;" x1="392" x2="600" y1="219" y2="219"/><ellipse cx="402" cy="230" fill="#84BE84" rx="3" ry="3" style="stroke: #038048; stroke-width: 1.0;"/><text fill="#000000" font-family="sans-serif" font-size="11" lengthAdjust="spacingAndGlyphs" textLength="184" x="411" y="233.2104">compare(Principal, Principal): int</text></a><!--MD5=[b6a8b833e5631d2cc2e26e7fc7c82859]
class org.apache.wiki.util.comparators.HumanComparator--><a href="HumanComparator.html" target="_top" title="HumanComparator.html" xlink:actuate="onRequest" xlink:href="HumanComparator.html" xlink:show="new" xlink:title="HumanComparator.html" xlink:type="simple"><rect codeLine="21" fill="#FEFECE" filter="url(#f1e3ys037udcen)" height="112.0234" id="org.apache.wiki.util.comparators.HumanComparator" style="stroke: #A80036; stroke-width: 1.5;" width="332" x="24" y="153.5"/><ellipse cx="126.75" cy="169.5" fill="#ADD1B2" rx="11" ry="11" style="stroke: #A80036; stroke-width: 1.0;"/><path d="M129.7188,175.1406 Q129.1406,175.4375 128.5,175.5781 Q127.8594,175.7344 127.1563,175.7344 Q124.6563,175.7344 123.3281,174.0938 Q122.0156,172.4375 122.0156,169.3125 Q122.0156,166.1875 123.3281,164.5313 Q124.6563,162.875 127.1563,162.875 Q127.8594,162.875 128.5,163.0313 Q129.1563,163.1875 129.7188,163.4844 L129.7188,166.2031 Q129.0938,165.625 128.5,165.3594 Q127.9063,165.0781 127.2813,165.0781 Q125.9375,165.0781 125.25,166.1563 Q124.5625,167.2188 124.5625,169.3125 Q124.5625,171.4063 125.25,172.4844 Q125.9375,173.5469 127.2813,173.5469 Q127.9063,173.5469 128.5,173.2813 Q129.0938,173 129.7188,172.4219 L129.7188,175.1406 Z "/><text fill="#000000" font-family="sans-serif" font-size="12" lengthAdjust="spacingAndGlyphs" textLength="118" x="147.25" y="173.6543">HumanComparator</text><line style="stroke: #A80036; stroke-width: 1.5;" x1="25" x2="355" y1="185.5" y2="185.5"/><ellipse cx="35" cy="196.5" fill="none" rx="3" ry="3" style="stroke: #038048; stroke-width: 1.0;"/><text fill="#000000" font-family="sans-serif" font-size="11" lengthAdjust="spacingAndGlyphs" text-decoration="underline" textLength="306" x="44" y="199.7104">DEFAULT_HUMAN_COMPARATOR: Comparator&lt;String&gt;</text><line style="stroke: #A80036; stroke-width: 1.5;" x1="25" x2="355" y1="206.3047" y2="206.3047"/><ellipse cx="35" cy="217.3047" fill="#84BE84" rx="3" ry="3" style="stroke: #038048; stroke-width: 1.0;"/><text fill="#000000" font-family="sans-serif" font-size="11" lengthAdjust="spacingAndGlyphs" textLength="116" x="44" y="220.5151">HumanComparator()</text><ellipse cx="35" cy="230.1094" fill="#84BE84" rx="3" ry="3" style="stroke: #038048; stroke-width: 1.0;"/><text fill="#000000" font-family="sans-serif" font-size="11" lengthAdjust="spacingAndGlyphs" textLength="178" x="44" y="233.3198">HumanComparator(CharType[])</text><ellipse cx="35" cy="242.9141" fill="#84BE84" rx="3" ry="3" style="stroke: #038048; stroke-width: 1.0;"/><text fill="#000000" font-family="sans-serif" font-size="11" lengthAdjust="spacingAndGlyphs" text-decoration="underline" textLength="202" x="44" y="246.1245">getInstance(): Comparator&lt;String&gt;</text><ellipse cx="35" cy="255.7188" fill="#84BE84" rx="3" ry="3" style="stroke: #038048; stroke-width: 1.0;"/><text fill="#000000" font-family="sans-serif" font-size="11" lengthAdjust="spacingAndGlyphs" textLength="156" x="44" y="258.9292">compare(String, String): int</text></a><!--MD5=[8bec98bb2741db1ef762fb6aedd3ea44]
class org.apache.wiki.util.comparators.HumanComparator.CharType--><a href="HumanComparator.CharType.html" target="_top" title="HumanComparator.CharType.html" xlink:actuate="onRequest" xlink:href="HumanComparator.CharType.html" xlink:show="new" xlink:title="HumanComparator.CharType.html" xlink:type="simple"><rect codeLine="29" fill="#FEFECE" filter="url(#f1e3ys037udcen)" height="86.4141" id="org.apache.wiki.util.comparators.HumanComparator.CharType" style="stroke: #A80036; stroke-width: 1.5;" width="212" x="103" y="411"/><ellipse cx="118" cy="427" fill="#EB937F" rx="11" ry="11" style="stroke: #A80036; stroke-width: 1.0;"/><path d="M122.1094,433 L114.3906,433 L114.3906,420.6094 L122.1094,420.6094 L122.1094,422.7656 L116.8438,422.7656 L116.8438,425.4375 L121.6094,425.4375 L121.6094,427.5938 L116.8438,427.5938 L116.8438,430.8438 L122.1094,430.8438 L122.1094,433 Z "/><text fill="#000000" font-family="sans-serif" font-size="12" lengthAdjust="spacingAndGlyphs" textLength="180" x="132" y="431.1543">HumanComparator.CharType</text><line style="stroke: #A80036; stroke-width: 1.5;" x1="104" x2="314" y1="443" y2="443"/><ellipse cx="114" cy="454" fill="none" rx="3" ry="3" style="stroke: #038048; stroke-width: 1.0;"/><text fill="#000000" font-family="sans-serif" font-size="11" lengthAdjust="spacingAndGlyphs" text-decoration="underline" textLength="72" x="123" y="457.2104">TYPE_OTHER</text><ellipse cx="114" cy="466.8047" fill="none" rx="3" ry="3" style="stroke: #038048; stroke-width: 1.0;"/><text fill="#000000" font-family="sans-serif" font-size="11" lengthAdjust="spacingAndGlyphs" text-decoration="underline" textLength="64" x="123" y="470.0151">TYPE_DIGIT</text><ellipse cx="114" cy="479.6094" fill="none" rx="3" ry="3" style="stroke: #038048; stroke-width: 1.0;"/><text fill="#000000" font-family="sans-serif" font-size="11" lengthAdjust="spacingAndGlyphs" text-decoration="underline" textLength="75" x="123" y="482.8198">TYPE_LETTER</text><line style="stroke: #A80036; stroke-width: 1.5;" x1="104" x2="314" y1="489.4141" y2="489.4141"/></a><!--MD5=[a6e8f488073a930dc03af8729bdb6e82]
class org.apache.wiki.util.comparators.LocaleComparator--><a href="LocaleComparator.html" target="_top" title="LocaleComparator.html" xlink:actuate="onRequest" xlink:href="LocaleComparator.html" xlink:show="new" xlink:title="LocaleComparator.html" xlink:type="simple"><rect codeLine="35" fill="#FEFECE" filter="url(#f1e3ys037udcen)" height="86.4141" id="org.apache.wiki.util.comparators.LocaleComparator" style="stroke: #A80036; stroke-width: 1.5;" width="174" x="717" y="411"/><ellipse cx="744.6" cy="427" fill="#ADD1B2" rx="11" ry="11" style="stroke: #A80036; stroke-width: 1.0;"/><path d="M747.5688,432.6406 Q746.9906,432.9375 746.35,433.0781 Q745.7094,433.2344 745.0063,433.2344 Q742.5063,433.2344 741.1781,431.5938 Q739.8656,429.9375 739.8656,426.8125 Q739.8656,423.6875 741.1781,422.0313 Q742.5063,420.375 745.0063,420.375 Q745.7094,420.375 746.35,420.5313 Q747.0063,420.6875 747.5688,420.9844 L747.5688,423.7031 Q746.9438,423.125 746.35,422.8594 Q745.7563,422.5781 745.1313,422.5781 Q743.7875,422.5781 743.1,423.6563 Q742.4125,424.7188 742.4125,426.8125 Q742.4125,428.9063 743.1,429.9844 Q743.7875,431.0469 745.1313,431.0469 Q745.7563,431.0469 746.35,430.7813 Q746.9438,430.5 747.5688,429.9219 L747.5688,432.6406 Z "/><text fill="#000000" font-family="sans-serif" font-size="12" lengthAdjust="spacingAndGlyphs" textLength="114" x="761.4" y="431.1543">LocaleComparator</text><line style="stroke: #A80036; stroke-width: 1.5;" x1="718" x2="890" y1="443" y2="443"/><line style="stroke: #A80036; stroke-width: 1.5;" x1="718" x2="890" y1="451" y2="451"/><ellipse cx="728" cy="462" fill="#84BE84" rx="3" ry="3" style="stroke: #038048; stroke-width: 1.0;"/><text fill="#000000" font-family="sans-serif" font-size="11" lengthAdjust="spacingAndGlyphs" textLength="112" x="737" y="465.2104">LocaleComparator()</text><ellipse cx="728" cy="474.8047" fill="#84BE84" rx="3" ry="3" style="stroke: #038048; stroke-width: 1.0;"/><text fill="#000000" font-family="sans-serif" font-size="11" lengthAdjust="spacingAndGlyphs" textLength="148" x="737" y="478.0151">LocaleComparator(Locale)</text><ellipse cx="728" cy="487.6094" fill="#84BE84" rx="3" ry="3" style="stroke: #038048; stroke-width: 1.0;"/><text fill="#000000" font-family="sans-serif" font-size="11" lengthAdjust="spacingAndGlyphs" textLength="129" x="737" y="490.8198">setLocale(Locale): void</text></a><!--MD5=[5a5af9b0547913863cbe0ddf55a9ab5e]
class java.io.Serializable--><rect codeLine="48" fill="#FEFECE" filter="url(#f1e3ys037udcen)" height="48" id="java.io.Serializable" style="stroke: #A80036; stroke-width: 1.5;" width="103" x="444.5" y="33"/><ellipse cx="459.5" cy="49" fill="#B4A7E5" rx="11" ry="11" style="stroke: #A80036; stroke-width: 1.0;"/><path d="M455.4219,44.7656 L455.4219,42.6094 L462.8125,42.6094 L462.8125,44.7656 L460.3438,44.7656 L460.3438,52.8438 L462.8125,52.8438 L462.8125,55 L455.4219,55 L455.4219,52.8438 L457.8906,52.8438 L457.8906,44.7656 L455.4219,44.7656 Z "/><text fill="#000000" font-family="sans-serif" font-size="12" font-style="italic" lengthAdjust="spacingAndGlyphs" textLength="71" x="473.5" y="53.1543">Serializable</text><line style="stroke: #A80036; stroke-width: 1.5;" x1="445.5" x2="546.5" y1="65" y2="65"/><line style="stroke: #A80036; stroke-width: 1.5;" x1="445.5" x2="546.5" y1="73" y2="73"/><!--MD5=[009add9cc43bc6448939e1574ab0bc37]
reverse link java.io.Serializable to org.apache.wiki.util.comparators.PrincipalComparator--><path codeLine="41" d="M496,101.2674 C496,126.1647 496,156.6182 496,178.8722 " fill="none" id="java.io.Serializable-backto-org.apache.wiki.util.comparators.PrincipalComparator" style="stroke: #A80036; stroke-width: 1.0; stroke-dasharray: 7.0,7.0;"/><polygon fill="none" points="489.0001,101.1641,496,81.1641,503.0001,101.164,489.0001,101.1641" style="stroke: #A80036; stroke-width: 1.0;"/><!--MD5=[bd1a8cadf6ae1f9d966abcea8aba9f41]
link org.apache.wiki.util.comparators.HumanComparator to org.apache.wiki.util.comparators.HumanComparator.CharType--><path codeLine="42" d="M171.6601,265.6982 C165.5988,291.4529 161.6256,322.3399 167,350 C170.6834,368.9573 177.8164,388.8349 185.1733,406.0746 " fill="none" id="org.apache.wiki.util.comparators.HumanComparator-to-org.apache.wiki.util.comparators.HumanComparator.CharType" style="stroke: #A80036; stroke-width: 1.0;"/><polygon fill="#A80036" points="187.2516,410.8642,187.3383,401.0157,185.2612,406.2774,179.9995,404.2003,187.2516,410.8642" style="stroke: #A80036; stroke-width: 1.0;"/><text fill="#000000" font-family="sans-serif" font-size="13" lengthAdjust="spacingAndGlyphs" textLength="61" x="168" y="346.0669">sortOrder</text><text fill="#000000" font-family="sans-serif" font-size="13" lengthAdjust="spacingAndGlyphs" textLength="7" x="176.2276" y="399.8386">*</text><!--MD5=[76725e42c0c05d20eb4f9d4094edd8a9]
reverse link org.apache.wiki.util.comparators.HumanComparator to org.apache.wiki.util.comparators.HumanComparator.CharType--><path codeLine="43" d="M219.7346,279.8837 C225.6418,296.9667 230.9568,315.3909 234,333 C238.4748,358.8932 232.9426,387.7121 225.9559,410.7276 " fill="none" id="org.apache.wiki.util.comparators.HumanComparator-backto-org.apache.wiki.util.comparators.HumanComparator.CharType" style="stroke: #A80036; stroke-width: 1.0;"/><ellipse cx="217.2783" cy="273.1063" fill="#FFFFFF" rx="8" ry="8" style="stroke: #A80036; stroke-width: 1.0;"/><line style="stroke: #A80036; stroke-width: 1.0;" x1="220.0043" x2="214.5523" y1="280.6275" y2="265.5851"/><line style="stroke: #A80036; stroke-width: 1.0;" x1="209.7571" x2="224.7995" y1="275.8323" y2="270.3803"/><!--MD5=[6fe04298bba3fa65f8a63ba2fd94e132]
reverse link org.apache.wiki.util.comparators.CollatorComparator to org.apache.wiki.util.comparators.LocaleComparator--><path codeLine="44" d="M804,292.2657 C804,332.0229 804,378.0219 804,410.776 " fill="none" id="org.apache.wiki.util.comparators.CollatorComparator-backto-org.apache.wiki.util.comparators.LocaleComparator" style="stroke: #A80036; stroke-width: 1.0;"/><polygon fill="none" points="797.0001,292.1474,804,272.1473,811.0001,292.1473,797.0001,292.1474" style="stroke: #A80036; stroke-width: 1.0;"/><text fill="#888888" font-family="sans-serif" font-size="10" lengthAdjust="spacingAndGlyphs" textLength="192" x="571.5" y="520.2822">UMLDoclet 2.0.12, PlantUML 1.2020.16</text><!--MD5=[bad7dab735d7b5d360c01e52fae66620]
@startuml
    namespace org.apache.wiki.util.comparators {

        class JavaNaturalComparator [[JavaNaturalComparator.html]] {
            {static} +DEFAULT_JAVA_COMPARATOR: Comparator<String>
            +compare(String, String): int
        }

        class CollatorComparator [[CollatorComparator.html]] {
            {static} +DEFAULT_LOCALE_COMPARATOR: Comparator<String>
            #m_collator: Collator
            +CollatorComparator()
            +CollatorComparator(Collator)
            +compare(String, String): int
            +setCollator(Collator): void
        }

        class PrincipalComparator [[PrincipalComparator.html]] {
            +compare(Principal, Principal): int
        }

        class HumanComparator [[HumanComparator.html]] {
            {static} +DEFAULT_HUMAN_COMPARATOR: Comparator<String>
            +HumanComparator()
            +HumanComparator(CharType[])
            {static} +getInstance(): Comparator<String>
            +compare(String, String): int
        }

        enum org.apache.wiki.util.comparators.HumanComparator.CharType [[HumanComparator.CharType.html]] {
            {static} +TYPE_OTHER
            {static} +TYPE_DIGIT
            {static} +TYPE_LETTER
        }

        class LocaleComparator [[LocaleComparator.html]] {
            +LocaleComparator()
            +LocaleComparator(Locale)
            +setLocale(Locale): void
        }

        java.io.Serializable <|.. PrincipalComparator
        HumanComparator - -> "*" org.apache.wiki.util.comparators.HumanComparator.CharType: sortOrder
        HumanComparator +- - org.apache.wiki.util.comparators.HumanComparator.CharType
        CollatorComparator <|- - LocaleComparator
    }

    namespace java.io {
        interface Serializable
    }

    center footer UMLDoclet 2.0.12, PlantUML 1.2020.16
@enduml

PlantUML version 1.2020.16(Sun Aug 23 20:20:43 UTC 2020)
(APACHE source distribution)
Java Runtime: Java(TM) SE Runtime Environment
JVM: Java HotSpot(TM) 64-Bit Server VM
Default Encoding: ISO-8859-1
Language: en
Country: US
--></g></svg>