<?xml version="1.0" encoding="UTF-8" standalone="no"?><svg xmlns="http://www.w3.org/2000/svg" xmlns:xlink="http://www.w3.org/1999/xlink" contentScriptType="application/ecmascript" contentStyleType="text/css" height="615px" preserveAspectRatio="none" style="width:1264px;height:615px;" version="1.1" viewBox="0 0 1264 615" width="1264px" zoomAndPan="magnify"><defs><filter height="300%" id="f16nke215i5y1n" width="300%" x="-1" y="-1"><feGaussianBlur result="blurOut" stdDeviation="2.0"/><feColorMatrix in="blurOut" result="blurOut2" type="matrix" values="0 0 0 0 0 0 0 0 0 0 0 0 0 0 0 0 0 0 .4 0"/><feOffset dx="4.0" dy="4.0" in="blurOut2" result="blurOut3"/><feBlend in="SourceGraphic" in2="blurOut3" mode="normal"/></filter></defs><g><!--MD5=[6dc57847958aaf38c65e6559a7764042]
cluster org.apache.wiki.ui.admin.beans--><polygon fill="#FFFFFF" filter="url(#f16nke215i5y1n)" points="16,191,271,191,278,213.2969,1221,213.2969,1221,587,16,587,16,191" style="stroke: #000000; stroke-width: 1.5;"/><line style="stroke: #000000; stroke-width: 1.5;" x1="16" x2="278" y1="213.2969" y2="213.2969"/><text fill="#000000" font-family="sans-serif" font-size="14" font-weight="bold" lengthAdjust="spacingAndGlyphs" textLength="249" x="20" y="205.9951">org.apache.wiki.ui.admin.beans</text><!--MD5=[bd4ea5e1bea20afbbde5ba34844f37b5]
cluster org.apache.wiki.ui.admin--><polygon fill="#FFFFFF" filter="url(#f16nke215i5y1n)" points="588,6,790,6,797,28.2969,933,28.2969,933,166,588,166,588,6" style="stroke: #000000; stroke-width: 1.5;"/><line style="stroke: #000000; stroke-width: 1.5;" x1="588" x2="797" y1="28.2969" y2="28.2969"/><text fill="#000000" font-family="sans-serif" font-size="14" font-weight="bold" lengthAdjust="spacingAndGlyphs" textLength="196" x="592" y="20.9951">org.apache.wiki.ui.admin</text><!--MD5=[4c36762682833c7223099323ed6a41cb]
cluster org.apache.wiki.management--><polygon fill="#FFFFFF" filter="url(#f16nke215i5y1n)" points="994,25.5,1232,25.5,1239,47.7969,1242,47.7969,1242,146.5,994,146.5,994,25.5" style="stroke: #000000; stroke-width: 1.5;"/><line style="stroke: #000000; stroke-width: 1.5;" x1="994" x2="1239" y1="47.7969" y2="47.7969"/><text fill="#000000" font-family="sans-serif" font-size="14" font-weight="bold" lengthAdjust="spacingAndGlyphs" textLength="232" x="998" y="40.4951">org.apache.wiki.management</text><!--MD5=[ba7790b672014fb41ea1502a6bb32e26]
class org.apache.wiki.ui.admin.beans.UserBean--><a href="UserBean.html" target="_top" title="UserBean.html" xlink:actuate="onRequest" xlink:href="UserBean.html" xlink:show="new" xlink:title="UserBean.html" xlink:type="simple"><rect codeLine="3" fill="#FEFECE" filter="url(#f16nke215i5y1n)" height="124.8281" id="org.apache.wiki.ui.admin.beans.UserBean" style="stroke: #A80036; stroke-width: 1.5;" width="190" x="798" y="243.5"/><ellipse cx="858.25" cy="259.5" fill="#ADD1B2" rx="11" ry="11" style="stroke: #A80036; stroke-width: 1.0;"/><path d="M861.2188,265.1406 Q860.6406,265.4375 860,265.5781 Q859.3594,265.7344 858.6563,265.7344 Q856.1563,265.7344 854.8281,264.0938 Q853.5156,262.4375 853.5156,259.3125 Q853.5156,256.1875 854.8281,254.5313 Q856.1563,252.875 858.6563,252.875 Q859.3594,252.875 860,253.0313 Q860.6563,253.1875 861.2188,253.4844 L861.2188,256.2031 Q860.5938,255.625 860,255.3594 Q859.4063,255.0781 858.7813,255.0781 Q857.4375,255.0781 856.75,256.1563 Q856.0625,257.2188 856.0625,259.3125 Q856.0625,261.4063 856.75,262.4844 Q857.4375,263.5469 858.7813,263.5469 Q859.4063,263.5469 860,263.2813 Q860.5938,263 861.2188,262.4219 L861.2188,265.1406 Z "/><text fill="#000000" font-family="sans-serif" font-size="12" lengthAdjust="spacingAndGlyphs" textLength="61" x="878.75" y="263.6543">UserBean</text><line style="stroke: #A80036; stroke-width: 1.5;" x1="799" x2="987" y1="275.5" y2="275.5"/><line style="stroke: #A80036; stroke-width: 1.5;" x1="799" x2="987" y1="283.5" y2="283.5"/><ellipse cx="809" cy="294.5" fill="#84BE84" rx="3" ry="3" style="stroke: #038048; stroke-width: 1.0;"/><text fill="#000000" font-family="sans-serif" font-size="11" lengthAdjust="spacingAndGlyphs" textLength="102" x="818" y="297.7104">UserBean(Engine)</text><ellipse cx="809" cy="307.3047" fill="#84BE84" rx="3" ry="3" style="stroke: #038048; stroke-width: 1.0;"/><text fill="#000000" font-family="sans-serif" font-size="11" lengthAdjust="spacingAndGlyphs" textLength="164" x="818" y="310.5151">getAttributeNames(): String[]</text><ellipse cx="809" cy="320.1094" fill="#84BE84" rx="3" ry="3" style="stroke: #038048; stroke-width: 1.0;"/><text fill="#000000" font-family="sans-serif" font-size="11" lengthAdjust="spacingAndGlyphs" textLength="157" x="818" y="323.3198">getMethodNames(): String[]</text><ellipse cx="809" cy="332.9141" fill="#84BE84" rx="3" ry="3" style="stroke: #038048; stroke-width: 1.0;"/><text fill="#000000" font-family="sans-serif" font-size="11" lengthAdjust="spacingAndGlyphs" textLength="132" x="818" y="336.1245">doPost(Context): String</text><ellipse cx="809" cy="345.7188" fill="#84BE84" rx="3" ry="3" style="stroke: #038048; stroke-width: 1.0;"/><text fill="#000000" font-family="sans-serif" font-size="11" lengthAdjust="spacingAndGlyphs" textLength="92" x="818" y="348.9292">getTitle(): String</text><ellipse cx="809" cy="358.5234" fill="#84BE84" rx="3" ry="3" style="stroke: #038048; stroke-width: 1.0;"/><text fill="#000000" font-family="sans-serif" font-size="11" lengthAdjust="spacingAndGlyphs" textLength="75" x="818" y="361.7339">getType(): int</text></a><!--MD5=[f4502289d78f577e0c7f7be224bf5277]
class org.apache.wiki.ui.admin.beans.SearchManagerBean--><a href="SearchManagerBean.html" target="_top" title="SearchManagerBean.html" xlink:actuate="onRequest" xlink:href="SearchManagerBean.html" xlink:show="new" xlink:title="SearchManagerBean.html" xlink:type="simple"><rect codeLine="12" fill="#FEFECE" filter="url(#f16nke215i5y1n)" height="150.4375" id="org.apache.wiki.ui.admin.beans.SearchManagerBean" style="stroke: #A80036; stroke-width: 1.5;" width="190" x="573" y="231"/><ellipse cx="600.15" cy="247" fill="#ADD1B2" rx="11" ry="11" style="stroke: #A80036; stroke-width: 1.0;"/><path d="M603.1188,252.6406 Q602.5406,252.9375 601.9,253.0781 Q601.2594,253.2344 600.5563,253.2344 Q598.0563,253.2344 596.7281,251.5938 Q595.4156,249.9375 595.4156,246.8125 Q595.4156,243.6875 596.7281,242.0313 Q598.0563,240.375 600.5563,240.375 Q601.2594,240.375 601.9,240.5313 Q602.5563,240.6875 603.1188,240.9844 L603.1188,243.7031 Q602.4938,243.125 601.9,242.8594 Q601.3063,242.5781 600.6813,242.5781 Q599.3375,242.5781 598.65,243.6563 Q597.9625,244.7188 597.9625,246.8125 Q597.9625,248.9063 598.65,249.9844 Q599.3375,251.0469 600.6813,251.0469 Q601.3063,251.0469 601.9,250.7813 Q602.4938,250.5 603.1188,249.9219 L603.1188,252.6406 Z "/><text fill="#000000" font-family="sans-serif" font-size="12" lengthAdjust="spacingAndGlyphs" textLength="131" x="616.85" y="251.1543">SearchManagerBean</text><line style="stroke: #A80036; stroke-width: 1.5;" x1="574" x2="762" y1="263" y2="263"/><line style="stroke: #A80036; stroke-width: 1.5;" x1="574" x2="762" y1="271" y2="271"/><ellipse cx="584" cy="282" fill="#84BE84" rx="3" ry="3" style="stroke: #038048; stroke-width: 1.0;"/><text fill="#000000" font-family="sans-serif" font-size="11" lengthAdjust="spacingAndGlyphs" textLength="164" x="593" y="285.2104">SearchManagerBean(Engine)</text><ellipse cx="584" cy="294.8047" fill="#84BE84" rx="3" ry="3" style="stroke: #038048; stroke-width: 1.0;"/><text fill="#000000" font-family="sans-serif" font-size="11" lengthAdjust="spacingAndGlyphs" textLength="164" x="593" y="298.0151">getAttributeNames(): String[]</text><ellipse cx="584" cy="307.6094" fill="#84BE84" rx="3" ry="3" style="stroke: #038048; stroke-width: 1.0;"/><text fill="#000000" font-family="sans-serif" font-size="11" lengthAdjust="spacingAndGlyphs" textLength="157" x="593" y="310.8198">getMethodNames(): String[]</text><ellipse cx="584" cy="320.4141" fill="#84BE84" rx="3" ry="3" style="stroke: #038048; stroke-width: 1.0;"/><text fill="#000000" font-family="sans-serif" font-size="11" lengthAdjust="spacingAndGlyphs" textLength="92" x="593" y="323.6245">getTitle(): String</text><ellipse cx="584" cy="333.2188" fill="#84BE84" rx="3" ry="3" style="stroke: #038048; stroke-width: 1.0;"/><text fill="#000000" font-family="sans-serif" font-size="11" lengthAdjust="spacingAndGlyphs" textLength="75" x="593" y="336.4292">reload(): void</text><ellipse cx="584" cy="346.0234" fill="#84BE84" rx="3" ry="3" style="stroke: #038048; stroke-width: 1.0;"/><text fill="#000000" font-family="sans-serif" font-size="11" lengthAdjust="spacingAndGlyphs" textLength="75" x="593" y="349.2339">getType(): int</text><ellipse cx="584" cy="358.8281" fill="#84BE84" rx="3" ry="3" style="stroke: #038048; stroke-width: 1.0;"/><text fill="#000000" font-family="sans-serif" font-size="11" lengthAdjust="spacingAndGlyphs" textLength="127" x="593" y="362.0386">doGet(Context): String</text><ellipse cx="584" cy="371.6328" fill="#84BE84" rx="3" ry="3" style="stroke: #038048; stroke-width: 1.0;"/><text fill="#000000" font-family="sans-serif" font-size="11" lengthAdjust="spacingAndGlyphs" textLength="132" x="593" y="374.8433">doPost(Context): String</text></a><!--MD5=[06ed52a08f9f650f8a5ab2ea17093d77]
class org.apache.wiki.ui.admin.beans.ModuleBean--><a href="ModuleBean.html" target="_top" title="ModuleBean.html" xlink:actuate="onRequest" xlink:href="ModuleBean.html" xlink:show="new" xlink:title="ModuleBean.html" xlink:type="simple"><rect codeLine="23" fill="#FEFECE" filter="url(#f16nke215i5y1n)" height="176.0469" id="org.apache.wiki.ui.admin.beans.ModuleBean" style="stroke: #A80036; stroke-width: 1.5;" width="277" x="260.5" y="218"/><ellipse cx="356.25" cy="234" fill="#A9DCDF" rx="11" ry="11" style="stroke: #A80036; stroke-width: 1.0;"/><path d="M356.3594,229.3438 L355.2031,234.4219 L357.5313,234.4219 L356.3594,229.3438 Z M354.875,227.1094 L357.8594,227.1094 L361.2188,239.5 L358.7656,239.5 L358,236.4375 L354.7188,236.4375 L353.9688,239.5 L351.5313,239.5 L354.875,227.1094 Z "/><text fill="#000000" font-family="sans-serif" font-size="12" font-style="italic" lengthAdjust="spacingAndGlyphs" textLength="77" x="376.75" y="238.1543">ModuleBean</text><line style="stroke: #A80036; stroke-width: 1.5;" x1="261.5" x2="536.5" y1="250" y2="250"/><line style="stroke: #A80036; stroke-width: 1.5;" x1="261.5" x2="536.5" y1="258" y2="258"/><ellipse cx="271.5" cy="269" fill="#84BE84" rx="3" ry="3" style="stroke: #038048; stroke-width: 1.0;"/><text fill="#000000" font-family="sans-serif" font-size="11" lengthAdjust="spacingAndGlyphs" textLength="115" x="280.5" y="272.2104">ModuleBean(Engine)</text><ellipse cx="271.5" cy="281.8047" fill="#84BE84" rx="3" ry="3" style="stroke: #038048; stroke-width: 1.0;"/><text fill="#000000" font-family="sans-serif" font-size="11" lengthAdjust="spacingAndGlyphs" textLength="164" x="280.5" y="285.0151">getAttributeNames(): String[]</text><ellipse cx="271.5" cy="294.6094" fill="#84BE84" rx="3" ry="3" style="stroke: #038048; stroke-width: 1.0;"/><text fill="#000000" font-family="sans-serif" font-size="11" lengthAdjust="spacingAndGlyphs" textLength="157" x="280.5" y="297.8198">getMethodNames(): String[]</text><ellipse cx="271.5" cy="307.4141" fill="#84BE84" rx="3" ry="3" style="stroke: #038048; stroke-width: 1.0;"/><text fill="#000000" font-family="sans-serif" font-size="11" lengthAdjust="spacingAndGlyphs" textLength="127" x="280.5" y="310.6245">doGet(Context): String</text><polygon fill="#FFFF44" points="271.5,315.2188,275.5,319.2188,271.5,323.2188,267.5,319.2188" style="stroke: #B38D22; stroke-width: 1.0;"/><text fill="#000000" font-family="sans-serif" font-size="11" lengthAdjust="spacingAndGlyphs" textLength="83" x="280.5" y="323.4292">title(): Element</text><polygon fill="#FFFF44" points="271.5,328.0234,275.5,332.0234,271.5,336.0234,267.5,332.0234" style="stroke: #B38D22; stroke-width: 1.0;"/><text fill="#000000" font-family="sans-serif" font-size="11" lengthAdjust="spacingAndGlyphs" textLength="251" x="280.5" y="336.2339">containerForModuleDetail(Element): Element</text><polygon fill="#FFFF44" points="271.5,340.8281,275.5,344.8281,271.5,348.8281,267.5,344.8281" style="stroke: #B38D22; stroke-width: 1.0;"/><text fill="#000000" font-family="sans-serif" font-size="11" font-style="italic" lengthAdjust="spacingAndGlyphs" textLength="221" x="280.5" y="349.0386">modules(): Collection&lt;WikiModuleInfo&gt;</text><polygon fill="#FFFF44" points="271.5,353.6328,275.5,357.6328,271.5,361.6328,267.5,357.6328" style="stroke: #B38D22; stroke-width: 1.0;"/><text fill="#000000" font-family="sans-serif" font-size="11" font-style="italic" lengthAdjust="spacingAndGlyphs" textLength="107" x="280.5" y="361.8433">heading(): Element</text><polygon fill="#FFFF44" points="271.5,366.4375,275.5,370.4375,271.5,374.4375,267.5,370.4375" style="stroke: #B38D22; stroke-width: 1.0;"/><text fill="#000000" font-family="sans-serif" font-size="11" font-style="italic" lengthAdjust="spacingAndGlyphs" textLength="196" x="280.5" y="374.6479">rowBody(WikiModuleInfo): Element</text><polygon fill="#FFFF44" points="271.5,379.2422,275.5,383.2422,271.5,387.2422,267.5,383.2422" style="stroke: #B38D22; stroke-width: 1.0;"/><text fill="#000000" font-family="sans-serif" font-size="11" lengthAdjust="spacingAndGlyphs" textLength="241" x="280.5" y="387.4526">validModuleVersion(WikiModuleInfo): String</text></a><!--MD5=[7342196c61dd24d5387649e3050af40f]
class org.apache.wiki.ui.admin.beans.FilterBean--><a href="FilterBean.html" target="_top" title="FilterBean.html" xlink:actuate="onRequest" xlink:href="FilterBean.html" xlink:show="new" xlink:title="FilterBean.html" xlink:type="simple"><rect codeLine="36" fill="#FEFECE" filter="url(#f16nke215i5y1n)" height="124.8281" id="org.apache.wiki.ui.admin.beans.FilterBean" style="stroke: #A80036; stroke-width: 1.5;" width="246" x="150" y="454"/><ellipse cx="237.25" cy="470" fill="#ADD1B2" rx="11" ry="11" style="stroke: #A80036; stroke-width: 1.0;"/><path d="M240.2188,475.6406 Q239.6406,475.9375 239,476.0781 Q238.3594,476.2344 237.6563,476.2344 Q235.1563,476.2344 233.8281,474.5938 Q232.5156,472.9375 232.5156,469.8125 Q232.5156,466.6875 233.8281,465.0313 Q235.1563,463.375 237.6563,463.375 Q238.3594,463.375 239,463.5313 Q239.6563,463.6875 240.2188,463.9844 L240.2188,466.7031 Q239.5938,466.125 239,465.8594 Q238.4063,465.5781 237.7813,465.5781 Q236.4375,465.5781 235.75,466.6563 Q235.0625,467.7188 235.0625,469.8125 Q235.0625,471.9063 235.75,472.9844 Q236.4375,474.0469 237.7813,474.0469 Q238.4063,474.0469 239,473.7813 Q239.5938,473.5 240.2188,472.9219 L240.2188,475.6406 Z "/><text fill="#000000" font-family="sans-serif" font-size="12" lengthAdjust="spacingAndGlyphs" textLength="63" x="257.75" y="474.1543">FilterBean</text><line style="stroke: #A80036; stroke-width: 1.5;" x1="151" x2="395" y1="486" y2="486"/><line style="stroke: #A80036; stroke-width: 1.5;" x1="151" x2="395" y1="494" y2="494"/><ellipse cx="161" cy="505" fill="#84BE84" rx="3" ry="3" style="stroke: #038048; stroke-width: 1.0;"/><text fill="#000000" font-family="sans-serif" font-size="11" lengthAdjust="spacingAndGlyphs" textLength="103" x="170" y="508.2104">FilterBean(Engine)</text><ellipse cx="161" cy="517.8047" fill="#84BE84" rx="3" ry="3" style="stroke: #038048; stroke-width: 1.0;"/><text fill="#000000" font-family="sans-serif" font-size="11" lengthAdjust="spacingAndGlyphs" textLength="92" x="170" y="521.0151">getTitle(): String</text><ellipse cx="161" cy="530.6094" fill="#84BE84" rx="3" ry="3" style="stroke: #038048; stroke-width: 1.0;"/><text fill="#000000" font-family="sans-serif" font-size="11" lengthAdjust="spacingAndGlyphs" textLength="75" x="170" y="533.8198">getType(): int</text><polygon fill="#FFFF44" points="161,538.4141,165,542.4141,161,546.4141,157,542.4141" style="stroke: #B38D22; stroke-width: 1.0;"/><text fill="#000000" font-family="sans-serif" font-size="11" lengthAdjust="spacingAndGlyphs" textLength="220" x="170" y="546.6245">modules(): Collection&lt;WikiModuleInfo&gt;</text><polygon fill="#FFFF44" points="161,551.2188,165,555.2188,161,559.2188,157,555.2188" style="stroke: #B38D22; stroke-width: 1.0;"/><text fill="#000000" font-family="sans-serif" font-size="11" lengthAdjust="spacingAndGlyphs" textLength="107" x="170" y="559.4292">heading(): Element</text><polygon fill="#FFFF44" points="161,564.0234,165,568.0234,161,572.0234,157,568.0234" style="stroke: #B38D22; stroke-width: 1.0;"/><text fill="#000000" font-family="sans-serif" font-size="11" lengthAdjust="spacingAndGlyphs" textLength="193" x="170" y="572.2339">rowBody(WikiModuleInfo): Element</text></a><!--MD5=[fa3bdf59ff49a0b4f88c7ee155846082]
class org.apache.wiki.ui.admin.beans.PlainEditorAdminBean--><a href="PlainEditorAdminBean.html" target="_top" title="PlainEditorAdminBean.html" xlink:actuate="onRequest" xlink:href="PlainEditorAdminBean.html" xlink:show="new" xlink:title="PlainEditorAdminBean.html" xlink:type="simple"><rect codeLine="45" fill="#FEFECE" filter="url(#f16nke215i5y1n)" height="176.0469" id="org.apache.wiki.ui.admin.beans.PlainEditorAdminBean" style="stroke: #A80036; stroke-width: 1.5;" width="190" x="1023" y="218"/><ellipse cx="1047.45" cy="234" fill="#ADD1B2" rx="11" ry="11" style="stroke: #A80036; stroke-width: 1.0;"/><path d="M1050.4188,239.6406 Q1049.8406,239.9375 1049.2,240.0781 Q1048.5594,240.2344 1047.8563,240.2344 Q1045.3563,240.2344 1044.0281,238.5938 Q1042.7156,236.9375 1042.7156,233.8125 Q1042.7156,230.6875 1044.0281,229.0313 Q1045.3563,227.375 1047.8563,227.375 Q1048.5594,227.375 1049.2,227.5313 Q1049.8563,227.6875 1050.4188,227.9844 L1050.4188,230.7031 Q1049.7938,230.125 1049.2,229.8594 Q1048.6063,229.5781 1047.9813,229.5781 Q1046.6375,229.5781 1045.95,230.6563 Q1045.2625,231.7188 1045.2625,233.8125 Q1045.2625,235.9063 1045.95,236.9844 Q1046.6375,238.0469 1047.9813,238.0469 Q1048.6063,238.0469 1049.2,237.7813 Q1049.7938,237.5 1050.4188,236.9219 L1050.4188,239.6406 Z "/><text fill="#000000" font-family="sans-serif" font-size="12" lengthAdjust="spacingAndGlyphs" textLength="137" x="1063.55" y="238.1543">PlainEditorAdminBean</text><line style="stroke: #A80036; stroke-width: 1.5;" x1="1024" x2="1212" y1="250" y2="250"/><line style="stroke: #A80036; stroke-width: 1.5;" x1="1024" x2="1212" y1="258" y2="258"/><ellipse cx="1034" cy="269" fill="#84BE84" rx="3" ry="3" style="stroke: #038048; stroke-width: 1.0;"/><text fill="#000000" font-family="sans-serif" font-size="11" lengthAdjust="spacingAndGlyphs" textLength="127" x="1043" y="272.2104">doGet(Context): String</text><ellipse cx="1034" cy="281.8047" fill="#84BE84" rx="3" ry="3" style="stroke: #038048; stroke-width: 1.0;"/><text fill="#000000" font-family="sans-serif" font-size="11" lengthAdjust="spacingAndGlyphs" textLength="132" x="1043" y="285.0151">doPost(Context): String</text><ellipse cx="1034" cy="294.6094" fill="#84BE84" rx="3" ry="3" style="stroke: #038048; stroke-width: 1.0;"/><text fill="#000000" font-family="sans-serif" font-size="11" lengthAdjust="spacingAndGlyphs" textLength="92" x="1043" y="297.8198">getTitle(): String</text><ellipse cx="1034" cy="307.4141" fill="#84BE84" rx="3" ry="3" style="stroke: #038048; stroke-width: 1.0;"/><text fill="#000000" font-family="sans-serif" font-size="11" lengthAdjust="spacingAndGlyphs" textLength="75" x="1043" y="310.6245">getType(): int</text><ellipse cx="1034" cy="320.2188" fill="#84BE84" rx="3" ry="3" style="stroke: #038048; stroke-width: 1.0;"/><text fill="#000000" font-family="sans-serif" font-size="11" lengthAdjust="spacingAndGlyphs" textLength="116" x="1043" y="323.4292">isEnabled(): boolean</text><ellipse cx="1034" cy="333.0234" fill="#84BE84" rx="3" ry="3" style="stroke: #038048; stroke-width: 1.0;"/><text fill="#000000" font-family="sans-serif" font-size="11" lengthAdjust="spacingAndGlyphs" textLength="78" x="1043" y="336.2339">getId(): String</text><ellipse cx="1034" cy="345.8281" fill="#84BE84" rx="3" ry="3" style="stroke: #038048; stroke-width: 1.0;"/><text fill="#000000" font-family="sans-serif" font-size="11" lengthAdjust="spacingAndGlyphs" textLength="127" x="1043" y="349.0386">getChecked(): boolean</text><ellipse cx="1034" cy="358.6328" fill="#84BE84" rx="3" ry="3" style="stroke: #038048; stroke-width: 1.0;"/><text fill="#000000" font-family="sans-serif" font-size="11" lengthAdjust="spacingAndGlyphs" textLength="164" x="1043" y="361.8433">getAttributeNames(): String[]</text><ellipse cx="1034" cy="371.4375" fill="#84BE84" rx="3" ry="3" style="stroke: #038048; stroke-width: 1.0;"/><text fill="#000000" font-family="sans-serif" font-size="11" lengthAdjust="spacingAndGlyphs" textLength="157" x="1043" y="374.6479">getMethodNames(): String[]</text><ellipse cx="1034" cy="384.2422" fill="#84BE84" rx="3" ry="3" style="stroke: #038048; stroke-width: 1.0;"/><text fill="#000000" font-family="sans-serif" font-size="11" lengthAdjust="spacingAndGlyphs" textLength="122" x="1043" y="387.4526">initialize(Engine): void</text></a><!--MD5=[0beda2561645e205a02a1aa514f1ee2a]
class org.apache.wiki.ui.admin.beans.PluginBean--><a href="PluginBean.html" target="_top" title="PluginBean.html" xlink:actuate="onRequest" xlink:href="PluginBean.html" xlink:show="new" xlink:title="PluginBean.html" xlink:type="simple"><rect codeLine="58" fill="#FEFECE" filter="url(#f16nke215i5y1n)" height="124.8281" id="org.apache.wiki.ui.admin.beans.PluginBean" style="stroke: #A80036; stroke-width: 1.5;" width="246" x="431" y="454"/><ellipse cx="514.75" cy="470" fill="#ADD1B2" rx="11" ry="11" style="stroke: #A80036; stroke-width: 1.0;"/><path d="M517.7188,475.6406 Q517.1406,475.9375 516.5,476.0781 Q515.8594,476.2344 515.1563,476.2344 Q512.6563,476.2344 511.3281,474.5938 Q510.0156,472.9375 510.0156,469.8125 Q510.0156,466.6875 511.3281,465.0313 Q512.6563,463.375 515.1563,463.375 Q515.8594,463.375 516.5,463.5313 Q517.1563,463.6875 517.7188,463.9844 L517.7188,466.7031 Q517.0938,466.125 516.5,465.8594 Q515.9063,465.5781 515.2813,465.5781 Q513.9375,465.5781 513.25,466.6563 Q512.5625,467.7188 512.5625,469.8125 Q512.5625,471.9063 513.25,472.9844 Q513.9375,474.0469 515.2813,474.0469 Q515.9063,474.0469 516.5,473.7813 Q517.0938,473.5 517.7188,472.9219 L517.7188,475.6406 Z "/><text fill="#000000" font-family="sans-serif" font-size="12" lengthAdjust="spacingAndGlyphs" textLength="70" x="535.25" y="474.1543">PluginBean</text><line style="stroke: #A80036; stroke-width: 1.5;" x1="432" x2="676" y1="486" y2="486"/><line style="stroke: #A80036; stroke-width: 1.5;" x1="432" x2="676" y1="494" y2="494"/><ellipse cx="442" cy="505" fill="#84BE84" rx="3" ry="3" style="stroke: #038048; stroke-width: 1.0;"/><text fill="#000000" font-family="sans-serif" font-size="11" lengthAdjust="spacingAndGlyphs" textLength="109" x="451" y="508.2104">PluginBean(Engine)</text><ellipse cx="442" cy="517.8047" fill="#84BE84" rx="3" ry="3" style="stroke: #038048; stroke-width: 1.0;"/><text fill="#000000" font-family="sans-serif" font-size="11" lengthAdjust="spacingAndGlyphs" textLength="92" x="451" y="521.0151">getTitle(): String</text><ellipse cx="442" cy="530.6094" fill="#84BE84" rx="3" ry="3" style="stroke: #038048; stroke-width: 1.0;"/><text fill="#000000" font-family="sans-serif" font-size="11" lengthAdjust="spacingAndGlyphs" textLength="75" x="451" y="533.8198">getType(): int</text><polygon fill="#FFFF44" points="442,538.4141,446,542.4141,442,546.4141,438,542.4141" style="stroke: #B38D22; stroke-width: 1.0;"/><text fill="#000000" font-family="sans-serif" font-size="11" lengthAdjust="spacingAndGlyphs" textLength="220" x="451" y="546.6245">modules(): Collection&lt;WikiModuleInfo&gt;</text><polygon fill="#FFFF44" points="442,551.2188,446,555.2188,442,559.2188,438,555.2188" style="stroke: #B38D22; stroke-width: 1.0;"/><text fill="#000000" font-family="sans-serif" font-size="11" lengthAdjust="spacingAndGlyphs" textLength="107" x="451" y="559.4292">heading(): Element</text><polygon fill="#FFFF44" points="442,564.0234,446,568.0234,442,572.0234,438,568.0234" style="stroke: #B38D22; stroke-width: 1.0;"/><text fill="#000000" font-family="sans-serif" font-size="11" lengthAdjust="spacingAndGlyphs" textLength="193" x="451" y="572.2339">rowBody(WikiModuleInfo): Element</text></a><!--MD5=[6f4b698516e818847e5a672dbb84bd39]
class org.apache.wiki.ui.admin.beans.CoreBean--><a href="CoreBean.html" target="_top" title="CoreBean.html" xlink:actuate="onRequest" xlink:href="CoreBean.html" xlink:show="new" xlink:title="CoreBean.html" xlink:type="simple"><rect codeLine="67" fill="#FEFECE" filter="url(#f16nke215i5y1n)" height="176.0469" id="org.apache.wiki.ui.admin.beans.CoreBean" style="stroke: #A80036; stroke-width: 1.5;" width="201" x="24.5" y="218"/><ellipse cx="90.25" cy="234" fill="#ADD1B2" rx="11" ry="11" style="stroke: #A80036; stroke-width: 1.0;"/><path d="M93.2188,239.6406 Q92.6406,239.9375 92,240.0781 Q91.3594,240.2344 90.6563,240.2344 Q88.1563,240.2344 86.8281,238.5938 Q85.5156,236.9375 85.5156,233.8125 Q85.5156,230.6875 86.8281,229.0313 Q88.1563,227.375 90.6563,227.375 Q91.3594,227.375 92,227.5313 Q92.6563,227.6875 93.2188,227.9844 L93.2188,230.7031 Q92.5938,230.125 92,229.8594 Q91.4063,229.5781 90.7813,229.5781 Q89.4375,229.5781 88.75,230.6563 Q88.0625,231.7188 88.0625,233.8125 Q88.0625,235.9063 88.75,236.9844 Q89.4375,238.0469 90.7813,238.0469 Q91.4063,238.0469 92,237.7813 Q92.5938,237.5 93.2188,236.9219 L93.2188,239.6406 Z "/><text fill="#000000" font-family="sans-serif" font-size="12" lengthAdjust="spacingAndGlyphs" textLength="61" x="110.75" y="238.1543">CoreBean</text><line style="stroke: #A80036; stroke-width: 1.5;" x1="25.5" x2="224.5" y1="250" y2="250"/><line style="stroke: #A80036; stroke-width: 1.5;" x1="25.5" x2="224.5" y1="258" y2="258"/><ellipse cx="35.5" cy="269" fill="#84BE84" rx="3" ry="3" style="stroke: #038048; stroke-width: 1.0;"/><text fill="#000000" font-family="sans-serif" font-size="11" lengthAdjust="spacingAndGlyphs" textLength="102" x="44.5" y="272.2104">CoreBean(Engine)</text><ellipse cx="35.5" cy="281.8047" fill="#84BE84" rx="3" ry="3" style="stroke: #038048; stroke-width: 1.0;"/><text fill="#000000" font-family="sans-serif" font-size="11" lengthAdjust="spacingAndGlyphs" textLength="83" x="44.5" y="285.0151">getPages(): int</text><ellipse cx="35.5" cy="294.6094" fill="#84BE84" rx="3" ry="3" style="stroke: #038048; stroke-width: 1.0;"/><text fill="#000000" font-family="sans-serif" font-size="11" lengthAdjust="spacingAndGlyphs" textLength="167" x="44.5" y="297.8198">getPagesDescription(): String</text><ellipse cx="35.5" cy="307.4141" fill="#84BE84" rx="3" ry="3" style="stroke: #038048; stroke-width: 1.0;"/><text fill="#000000" font-family="sans-serif" font-size="11" lengthAdjust="spacingAndGlyphs" textLength="111" x="44.5" y="310.6245">getVersion(): String</text><ellipse cx="35.5" cy="320.2188" fill="#84BE84" rx="3" ry="3" style="stroke: #038048; stroke-width: 1.0;"/><text fill="#000000" font-family="sans-serif" font-size="11" lengthAdjust="spacingAndGlyphs" textLength="175" x="44.5" y="323.4292">getVersionDescription(): String</text><ellipse cx="35.5" cy="333.0234" fill="#84BE84" rx="3" ry="3" style="stroke: #038048; stroke-width: 1.0;"/><text fill="#000000" font-family="sans-serif" font-size="11" lengthAdjust="spacingAndGlyphs" textLength="92" x="44.5" y="336.2339">getTitle(): String</text><ellipse cx="35.5" cy="345.8281" fill="#84BE84" rx="3" ry="3" style="stroke: #038048; stroke-width: 1.0;"/><text fill="#000000" font-family="sans-serif" font-size="11" lengthAdjust="spacingAndGlyphs" textLength="75" x="44.5" y="349.0386">getType(): int</text><ellipse cx="35.5" cy="358.6328" fill="#84BE84" rx="3" ry="3" style="stroke: #038048; stroke-width: 1.0;"/><text fill="#000000" font-family="sans-serif" font-size="11" lengthAdjust="spacingAndGlyphs" textLength="78" x="44.5" y="361.8433">getId(): String</text><ellipse cx="35.5" cy="371.4375" fill="#84BE84" rx="3" ry="3" style="stroke: #038048; stroke-width: 1.0;"/><text fill="#000000" font-family="sans-serif" font-size="11" lengthAdjust="spacingAndGlyphs" textLength="164" x="44.5" y="374.6479">getAttributeNames(): String[]</text><ellipse cx="35.5" cy="384.2422" fill="#84BE84" rx="3" ry="3" style="stroke: #038048; stroke-width: 1.0;"/><text fill="#000000" font-family="sans-serif" font-size="11" lengthAdjust="spacingAndGlyphs" textLength="157" x="44.5" y="387.4526">getMethodNames(): String[]</text></a><!--MD5=[4b823098d8674ba19cb416ea00e3335e]
class org.apache.wiki.ui.admin.SimpleAdminBean--><a href="../SimpleAdminBean.html" target="_top" title="../SimpleAdminBean.html" xlink:actuate="onRequest" xlink:href="../SimpleAdminBean.html" xlink:show="new" xlink:title="../SimpleAdminBean.html" xlink:type="simple"><rect codeLine="91" fill="#FEFECE" filter="url(#f16nke215i5y1n)" height="60.8047" id="org.apache.wiki.ui.admin.SimpleAdminBean" style="stroke: #A80036; stroke-width: 1.5;" width="143" x="596.5" y="65"/><ellipse cx="611.5" cy="81" fill="#A9DCDF" rx="11" ry="11" style="stroke: #A80036; stroke-width: 1.0;"/><path d="M611.6094,76.3438 L610.4531,81.4219 L612.7813,81.4219 L611.6094,76.3438 Z M610.125,74.1094 L613.1094,74.1094 L616.4688,86.5 L614.0156,86.5 L613.25,83.4375 L609.9688,83.4375 L609.2188,86.5 L606.7813,86.5 L610.125,74.1094 Z "/><text fill="#000000" font-family="sans-serif" font-size="12" font-style="italic" lengthAdjust="spacingAndGlyphs" textLength="111" x="625.5" y="85.1543">SimpleAdminBean</text><line style="stroke: #A80036; stroke-width: 1.5;" x1="597.5" x2="738.5" y1="97" y2="97"/><polygon fill="none" points="607.5,103,611.5,107,607.5,111,603.5,107" style="stroke: #B38D22; stroke-width: 1.0;"/><text fill="#000000" font-family="sans-serif" font-size="11" lengthAdjust="spacingAndGlyphs" textLength="101" x="616.5" y="111.2104">m_engine: Engine</text><line style="stroke: #A80036; stroke-width: 1.5;" x1="597.5" x2="738.5" y1="117.8047" y2="117.8047"/></a><!--MD5=[3517fb5c0510b94d58fc0166fd09be85]
class org.apache.wiki.ui.admin.AdminBean--><a href="../AdminBean.html" target="_top" title="../AdminBean.html" xlink:actuate="onRequest" xlink:href="../AdminBean.html" xlink:show="new" xlink:title="../AdminBean.html" xlink:type="simple"><rect codeLine="94" fill="#FEFECE" filter="url(#f16nke215i5y1n)" height="124.8281" id="org.apache.wiki.ui.admin.AdminBean" style="stroke: #A80036; stroke-width: 1.5;" width="150" x="775" y="33"/><ellipse cx="811.6" cy="49" fill="#B4A7E5" rx="11" ry="11" style="stroke: #A80036; stroke-width: 1.0;"/><path d="M807.5219,44.7656 L807.5219,42.6094 L814.9125,42.6094 L814.9125,44.7656 L812.4438,44.7656 L812.4438,52.8438 L814.9125,52.8438 L814.9125,55 L807.5219,55 L807.5219,52.8438 L809.9906,52.8438 L809.9906,44.7656 L807.5219,44.7656 Z "/><text fill="#000000" font-family="sans-serif" font-size="12" font-style="italic" lengthAdjust="spacingAndGlyphs" textLength="70" x="830.4" y="53.1543">AdminBean</text><line style="stroke: #A80036; stroke-width: 1.5;" x1="776" x2="924" y1="65" y2="65"/><ellipse cx="786" cy="76" fill="none" rx="3" ry="3" style="stroke: #038048; stroke-width: 1.0;"/><text fill="#000000" font-family="sans-serif" font-size="11" lengthAdjust="spacingAndGlyphs" text-decoration="underline" textLength="79" x="795" y="79.2104">UNKNOWN: int</text><ellipse cx="786" cy="88.8047" fill="none" rx="3" ry="3" style="stroke: #038048; stroke-width: 1.0;"/><text fill="#000000" font-family="sans-serif" font-size="11" lengthAdjust="spacingAndGlyphs" text-decoration="underline" textLength="53" x="795" y="92.0151">CORE: int</text><ellipse cx="786" cy="101.6094" fill="none" rx="3" ry="3" style="stroke: #038048; stroke-width: 1.0;"/><text fill="#000000" font-family="sans-serif" font-size="11" lengthAdjust="spacingAndGlyphs" text-decoration="underline" textLength="63" x="795" y="104.8198">EDITOR: int</text><line style="stroke: #A80036; stroke-width: 1.5;" x1="776" x2="924" y1="111.4141" y2="111.4141"/><ellipse cx="786" cy="122.4141" fill="#84BE84" rx="3" ry="3" style="stroke: #038048; stroke-width: 1.0;"/><text fill="#000000" font-family="sans-serif" font-size="11" font-style="italic" lengthAdjust="spacingAndGlyphs" textLength="124" x="795" y="125.6245">initialize(Engine): void</text><ellipse cx="786" cy="135.2188" fill="#84BE84" rx="3" ry="3" style="stroke: #038048; stroke-width: 1.0;"/><text fill="#000000" font-family="sans-serif" font-size="11" font-style="italic" lengthAdjust="spacingAndGlyphs" textLength="91" x="795" y="138.4292">getTitle(): String</text><ellipse cx="786" cy="148.0234" fill="#84BE84" rx="3" ry="3" style="stroke: #038048; stroke-width: 1.0;"/><text fill="#000000" font-family="sans-serif" font-size="11" font-style="italic" lengthAdjust="spacingAndGlyphs" textLength="76" x="795" y="151.2339">getType(): int</text></a><!--MD5=[a9696cc3406e3bfeff149f6647ff5cab]
class org.apache.wiki.management.SimpleMBean--><a href="../../../management/SimpleMBean.html" target="_top" title="../../../management/SimpleMBean.html" xlink:actuate="onRequest" xlink:href="../../../management/SimpleMBean.html" xlink:show="new" xlink:title="../../../management/SimpleMBean.html" xlink:type="simple"><rect codeLine="105" fill="#FEFECE" filter="url(#f16nke215i5y1n)" height="86.4141" id="org.apache.wiki.management.SimpleMBean" style="stroke: #A80036; stroke-width: 1.5;" width="189" x="1023.5" y="52.5"/><ellipse cx="1072.25" cy="68.5" fill="#A9DCDF" rx="11" ry="11" style="stroke: #A80036; stroke-width: 1.0;"/><path d="M1072.3594,63.8438 L1071.2031,68.9219 L1073.5313,68.9219 L1072.3594,63.8438 Z M1070.875,61.6094 L1073.8594,61.6094 L1077.2188,74 L1074.7656,74 L1074,70.9375 L1070.7188,70.9375 L1069.9688,74 L1067.5313,74 L1070.875,61.6094 Z "/><text fill="#000000" font-family="sans-serif" font-size="12" font-style="italic" lengthAdjust="spacingAndGlyphs" textLength="83" x="1092.75" y="72.6543">SimpleMBean</text><line style="stroke: #A80036; stroke-width: 1.5;" x1="1024.5" x2="1211.5" y1="84.5" y2="84.5"/><polygon fill="none" points="1034.5,90.5,1038.5,94.5,1034.5,98.5,1030.5,94.5" style="stroke: #B38D22; stroke-width: 1.0;"/><text fill="#000000" font-family="sans-serif" font-size="11" lengthAdjust="spacingAndGlyphs" textLength="133" x="1043.5" y="98.7104">m_beanInfo: MBeanInfo</text><line style="stroke: #A80036; stroke-width: 1.5;" x1="1024.5" x2="1211.5" y1="105.3047" y2="105.3047"/><ellipse cx="1034.5" cy="116.3047" fill="#84BE84" rx="3" ry="3" style="stroke: #038048; stroke-width: 1.0;"/><text fill="#000000" font-family="sans-serif" font-size="11" font-style="italic" lengthAdjust="spacingAndGlyphs" textLength="163" x="1043.5" y="119.5151">getAttributeNames(): String[]</text><ellipse cx="1034.5" cy="129.1094" fill="#84BE84" rx="3" ry="3" style="stroke: #038048; stroke-width: 1.0;"/><text fill="#000000" font-family="sans-serif" font-size="11" font-style="italic" lengthAdjust="spacingAndGlyphs" textLength="155" x="1043.5" y="132.3198">getMethodNames(): String[]</text></a><!--MD5=[a5800cf21b59961b691f39be1f00b754]
reverse link org.apache.wiki.ui.admin.SimpleAdminBean to org.apache.wiki.ui.admin.beans.UserBean--><path codeLine="80" d="M721.3633,138.7877 C740.5215,154.7987 762.0616,173.3522 781,191 C798.7385,207.5297 817.3556,226.1061 834.2056,243.4291 " fill="none" id="org.apache.wiki.ui.admin.SimpleAdminBean-backto-org.apache.wiki.ui.admin.beans.UserBean" style="stroke: #A80036; stroke-width: 1.0;"/><polygon fill="none" points="716.8769,144.1612,705.94,126.0122,725.8077,133.3796,716.8769,144.1612" style="stroke: #A80036; stroke-width: 1.0;"/><!--MD5=[f41e50272af7cf222efc3001e245f110]
reverse link org.apache.wiki.ui.admin.SimpleAdminBean to org.apache.wiki.ui.admin.beans.SearchManagerBean--><path codeLine="81" d="M668,146.2415 C668,171.5833 668,202.7482 668,230.8034 " fill="none" id="org.apache.wiki.ui.admin.SimpleAdminBean-backto-org.apache.wiki.ui.admin.beans.SearchManagerBean" style="stroke: #A80036; stroke-width: 1.0;"/><polygon fill="none" points="661.0001,146.1085,668,126.1085,675.0001,146.1085,661.0001,146.1085" style="stroke: #A80036; stroke-width: 1.0;"/><!--MD5=[e4bbc004e4cd596be5c4ae748f36c9f6]
reverse link org.apache.wiki.ui.admin.SimpleAdminBean to org.apache.wiki.ui.admin.beans.ModuleBean--><path codeLine="82" d="M613.0471,138.5022 C583.7429,161.4335 546.5754,190.5181 511.4668,217.9916 " fill="none" id="org.apache.wiki.ui.admin.SimpleAdminBean-backto-org.apache.wiki.ui.admin.beans.ModuleBean" style="stroke: #A80036; stroke-width: 1.0;"/><polygon fill="none" points="608.8205,132.9212,628.8851,126.1085,617.4482,143.9467,608.8205,132.9212" style="stroke: #A80036; stroke-width: 1.0;"/><!--MD5=[b272b87b60605509cdeb62fbe5c8d212]
reverse link org.apache.wiki.ui.admin.beans.ModuleBean to org.apache.wiki.ui.admin.beans.FilterBean--><path codeLine="83" d="M335.8005,411.5833 C327.1634,426.0127 318.5313,440.4338 310.5535,453.7617 " fill="none" id="org.apache.wiki.ui.admin.beans.ModuleBean-backto-org.apache.wiki.ui.admin.beans.FilterBean" style="stroke: #A80036; stroke-width: 1.0;"/><polygon fill="none" points="330.0165,407.6167,346.2947,394.0513,342.029,414.8071,330.0165,407.6167" style="stroke: #A80036; stroke-width: 1.0;"/><!--MD5=[0e5d237d817b7583e019505be234d12e]
reverse link org.apache.wiki.management.SimpleMBean to org.apache.wiki.ui.admin.beans.PlainEditorAdminBean--><path codeLine="84" d="M1118,158.8625 C1118,177.3929 1118,197.9933 1118,217.7702 " fill="none" id="org.apache.wiki.management.SimpleMBean-backto-org.apache.wiki.ui.admin.beans.PlainEditorAdminBean" style="stroke: #A80036; stroke-width: 1.0;"/><polygon fill="none" points="1111.0001,158.6058,1118,138.6058,1125.0001,158.6057,1111.0001,158.6058" style="stroke: #A80036; stroke-width: 1.0;"/><!--MD5=[a7740c23a8ca9b2973570bbd036450ce]
reverse link org.apache.wiki.ui.admin.AdminBean to org.apache.wiki.ui.admin.beans.PlainEditorAdminBean--><path codeLine="85" d="M942.5653,146.9229 C964.0909,160.2907 986.4213,175.3618 1006,191 C1016.3435,199.2617 1026.7044,208.4167 1036.7203,217.8491 " fill="none" id="org.apache.wiki.ui.admin.AdminBean-backto-org.apache.wiki.ui.admin.beans.PlainEditorAdminBean" style="stroke: #A80036; stroke-width: 1.0; stroke-dasharray: 7.0,7.0;"/><polygon fill="none" points="938.6161,152.7146,925.1486,136.3552,945.8785,140.7455,938.6161,152.7146" style="stroke: #A80036; stroke-width: 1.0;"/><!--MD5=[b56e03e824a683c894d21505a50509d2]
reverse link org.apache.wiki.ui.admin.beans.ModuleBean to org.apache.wiki.ui.admin.beans.PluginBean--><path codeLine="86" d="M476.0448,410.6319 C486.9033,425.3783 497.7736,440.1409 507.8032,453.7617 " fill="none" id="org.apache.wiki.ui.admin.beans.ModuleBean-backto-org.apache.wiki.ui.admin.beans.PluginBean" style="stroke: #A80036; stroke-width: 1.0;"/><polygon fill="none" points="470.0579,414.3068,463.8359,394.0513,481.3314,406.0057,470.0579,414.3068" style="stroke: #A80036; stroke-width: 1.0;"/><!--MD5=[9b24dc26102375f1222e9745d75864d7]
reverse link org.apache.wiki.ui.admin.SimpleAdminBean to org.apache.wiki.ui.admin.beans.CoreBean--><path codeLine="87" d="M576.1122,101.6217 C486.4322,110.8353 348.4707,133.8214 243,191 C229.4201,198.3621 216.3188,207.7351 204.0985,217.9432 " fill="none" id="org.apache.wiki.ui.admin.SimpleAdminBean-backto-org.apache.wiki.ui.admin.beans.CoreBean" style="stroke: #A80036; stroke-width: 1.0;"/><polygon fill="none" points="575.5774,94.641,596.1519,99.7096,576.9072,108.5777,575.5774,94.641" style="stroke: #A80036; stroke-width: 1.0;"/><text fill="#888888" font-family="sans-serif" font-size="10" lengthAdjust="spacingAndGlyphs" textLength="192" x="527" y="602.2822">UMLDoclet 2.0.12, PlantUML 1.2020.16</text><!--MD5=[b37320487c0b2ce770f8ad5cfc1fda5a]
@startuml
    namespace org.apache.wiki.ui.admin.beans {

        class UserBean [[UserBean.html]] {
            +UserBean(Engine)
            +getAttributeNames(): String[]
            +getMethodNames(): String[]
            +doPost(Context): String
            +getTitle(): String
            +getType(): int
        }

        class SearchManagerBean [[SearchManagerBean.html]] {
            +SearchManagerBean(Engine)
            +getAttributeNames(): String[]
            +getMethodNames(): String[]
            +getTitle(): String
            +reload(): void
            +getType(): int
            +doGet(Context): String
            +doPost(Context): String
        }

        abstract class ModuleBean [[ModuleBean.html]] {
            +ModuleBean(Engine)
            +getAttributeNames(): String[]
            +getMethodNames(): String[]
            +doGet(Context): String
            #title(): Element
            #containerForModuleDetail(Element): Element
            {abstract} #modules(): Collection<WikiModuleInfo>
            {abstract} #heading(): Element
            {abstract} #rowBody(WikiModuleInfo): Element
            #validModuleVersion(WikiModuleInfo): String
        }

        class FilterBean [[FilterBean.html]] {
            +FilterBean(Engine)
            +getTitle(): String
            +getType(): int
            #modules(): Collection<WikiModuleInfo>
            #heading(): Element
            #rowBody(WikiModuleInfo): Element
        }

        class PlainEditorAdminBean [[PlainEditorAdminBean.html]] {
            +doGet(Context): String
            +doPost(Context): String
            +getTitle(): String
            +getType(): int
            +isEnabled(): boolean
            +getId(): String
            +getChecked(): boolean
            +getAttributeNames(): String[]
            +getMethodNames(): String[]
            +initialize(Engine): void
        }

        class PluginBean [[PluginBean.html]] {
            +PluginBean(Engine)
            +getTitle(): String
            +getType(): int
            #modules(): Collection<WikiModuleInfo>
            #heading(): Element
            #rowBody(WikiModuleInfo): Element
        }

        class CoreBean [[CoreBean.html]] {
            +CoreBean(Engine)
            +getPages(): int
            +getPagesDescription(): String
            +getVersion(): String
            +getVersionDescription(): String
            +getTitle(): String
            +getType(): int
            +getId(): String
            +getAttributeNames(): String[]
            +getMethodNames(): String[]
        }

        org.apache.wiki.ui.admin.SimpleAdminBean <|- - UserBean
        org.apache.wiki.ui.admin.SimpleAdminBean <|- - SearchManagerBean
        org.apache.wiki.ui.admin.SimpleAdminBean <|- - ModuleBean
        ModuleBean <|- - FilterBean
        org.apache.wiki.management.SimpleMBean <|- - PlainEditorAdminBean
        org.apache.wiki.ui.admin.AdminBean <|.. PlainEditorAdminBean
        ModuleBean <|- - PluginBean
        org.apache.wiki.ui.admin.SimpleAdminBean <|- - CoreBean
    }

    namespace org.apache.wiki.ui.admin {
        abstract class SimpleAdminBean [[../SimpleAdminBean.html]] {
            #m_engine: Engine
        }
        interface AdminBean [[../AdminBean.html]] {
            {static} +UNKNOWN: int
            {static} +CORE: int
            {static} +EDITOR: int
            {abstract} +initialize(Engine): void
            {abstract} +getTitle(): String
            {abstract} +getType(): int
        }
    }

    namespace org.apache.wiki.management {
        abstract class SimpleMBean [[../../../management/SimpleMBean.html]] {
            #m_beanInfo: MBeanInfo
            {abstract} +getAttributeNames(): String[]
            {abstract} +getMethodNames(): String[]
        }
    }

    center footer UMLDoclet 2.0.12, PlantUML 1.2020.16
@enduml

PlantUML version 1.2020.16(Sun Aug 23 20:20:43 UTC 2020)
(APACHE source distribution)
Java Runtime: Java(TM) SE Runtime Environment
JVM: Java HotSpot(TM) 64-Bit Server VM
Default Encoding: ISO-8859-1
Language: en
Country: US
--></g></svg>