<?xml version="1.0" encoding="UTF-8" standalone="no"?><svg xmlns="http://www.w3.org/2000/svg" xmlns:xlink="http://www.w3.org/1999/xlink" contentScriptType="application/ecmascript" contentStyleType="text/css" height="610px" preserveAspectRatio="none" style="width:1260px;height:610px;background:#FFFFFF;" version="1.1" viewBox="0 0 1260 610" width="1260px" zoomAndPan="magnify"><defs><filter height="300%" id="f1bgkbudfe0ujc" width="300%" x="-1" y="-1"><feGaussianBlur result="blurOut" stdDeviation="2.0"/><feColorMatrix in="blurOut" result="blurOut2" type="matrix" values="0 0 0 0 0 0 0 0 0 0 0 0 0 0 0 0 0 0 .4 0"/><feOffset dx="4.0" dy="4.0" in="blurOut2" result="blurOut3"/><feBlend in="SourceGraphic" in2="blurOut3" mode="normal"/></filter></defs><g><!--MD5=[6dc57847958aaf38c65e6559a7764042]
cluster org.apache.wiki.ui.admin.beans--><polygon fill="#FFFFFF" filter="url(#f1bgkbudfe0ujc)" points="16,191,271,191,278,213.2969,1222,213.2969,1222,587,16,587,16,191" style="stroke:#000000;stroke-width:1.5;"/><line style="stroke:#000000;stroke-width:1.5;" x1="16" x2="278" y1="213.2969" y2="213.2969"/><text fill="#000000" font-family="sans-serif" font-size="14" font-weight="bold" lengthAdjust="spacing" textLength="249" x="20" y="205.9951">org.apache.wiki.ui.admin.beans</text><!--MD5=[bd4ea5e1bea20afbbde5ba34844f37b5]
cluster org.apache.wiki.ui.admin--><polygon fill="#FFFFFF" filter="url(#f1bgkbudfe0ujc)" points="545,6,747,6,754,28.2969,890,28.2969,890,166,545,166,545,6" style="stroke:#000000;stroke-width:1.5;"/><line style="stroke:#000000;stroke-width:1.5;" x1="545" x2="754" y1="28.2969" y2="28.2969"/><text fill="#000000" font-family="sans-serif" font-size="14" font-weight="bold" lengthAdjust="spacing" textLength="196" x="549" y="20.9951">org.apache.wiki.ui.admin</text><!--MD5=[4c36762682833c7223099323ed6a41cb]
cluster org.apache.wiki.management--><polygon fill="#FFFFFF" filter="url(#f1bgkbudfe0ujc)" points="995,25.5,1233,25.5,1240,47.7969,1243,47.7969,1243,146.5,995,146.5,995,25.5" style="stroke:#000000;stroke-width:1.5;"/><line style="stroke:#000000;stroke-width:1.5;" x1="995" x2="1240" y1="47.7969" y2="47.7969"/><text fill="#000000" font-family="sans-serif" font-size="14" font-weight="bold" lengthAdjust="spacing" textLength="232" x="999" y="40.4951">org.apache.wiki.management</text><!--MD5=[ba7790b672014fb41ea1502a6bb32e26]
class org.apache.wiki.ui.admin.beans.UserBean--><a href="UserBean.html" target="_top" title="UserBean.html" xlink:actuate="onRequest" xlink:href="UserBean.html" xlink:show="new" xlink:title="UserBean.html" xlink:type="simple"><rect codeLine="3" fill="#FEFECE" filter="url(#f1bgkbudfe0ujc)" height="124.8281" id="org.apache.wiki.ui.admin.beans.UserBean" style="stroke:#A80036;stroke-width:1.5;" width="190" x="799" y="243.5"/><ellipse cx="859.25" cy="259.5" fill="#ADD1B2" rx="11" ry="11" style="stroke:#A80036;stroke-width:1.0;"/><path d="M862.2188,265.1406 Q861.6406,265.4375 861,265.5781 Q860.3594,265.7344 859.6563,265.7344 Q857.1563,265.7344 855.8281,264.0938 Q854.5156,262.4375 854.5156,259.3125 Q854.5156,256.1875 855.8281,254.5313 Q857.1563,252.875 859.6563,252.875 Q860.3594,252.875 861,253.0313 Q861.6563,253.1875 862.2188,253.4844 L862.2188,256.2031 Q861.5938,255.625 861,255.3594 Q860.4063,255.0781 859.7813,255.0781 Q858.4375,255.0781 857.75,256.1563 Q857.0625,257.2188 857.0625,259.3125 Q857.0625,261.4063 857.75,262.4844 Q858.4375,263.5469 859.7813,263.5469 Q860.4063,263.5469 861,263.2813 Q861.5938,263 862.2188,262.4219 L862.2188,265.1406 Z " fill="#000000"/><text fill="#000000" font-family="sans-serif" font-size="12" lengthAdjust="spacing" textLength="61" x="879.75" y="263.6543">UserBean</text><line style="stroke:#A80036;stroke-width:1.5;" x1="800" x2="988" y1="275.5" y2="275.5"/><line style="stroke:#A80036;stroke-width:1.5;" x1="800" x2="988" y1="283.5" y2="283.5"/><ellipse cx="810" cy="294.5" fill="#84BE84" rx="3" ry="3" style="stroke:#038048;stroke-width:1.0;"/><text fill="#000000" font-family="sans-serif" font-size="11" lengthAdjust="spacing" textLength="102" x="819" y="297.7104">UserBean(Engine)</text><ellipse cx="810" cy="307.3047" fill="#84BE84" rx="3" ry="3" style="stroke:#038048;stroke-width:1.0;"/><text fill="#000000" font-family="sans-serif" font-size="11" lengthAdjust="spacing" textLength="164" x="819" y="310.5151">getAttributeNames(): String[]</text><ellipse cx="810" cy="320.1094" fill="#84BE84" rx="3" ry="3" style="stroke:#038048;stroke-width:1.0;"/><text fill="#000000" font-family="sans-serif" font-size="11" lengthAdjust="spacing" textLength="157" x="819" y="323.3198">getMethodNames(): String[]</text><ellipse cx="810" cy="332.9141" fill="#84BE84" rx="3" ry="3" style="stroke:#038048;stroke-width:1.0;"/><text fill="#000000" font-family="sans-serif" font-size="11" lengthAdjust="spacing" textLength="132" x="819" y="336.1245">doPost(Context): String</text><ellipse cx="810" cy="345.7188" fill="#84BE84" rx="3" ry="3" style="stroke:#038048;stroke-width:1.0;"/><text fill="#000000" font-family="sans-serif" font-size="11" lengthAdjust="spacing" textLength="92" x="819" y="348.9292">getTitle(): String</text><ellipse cx="810" cy="358.5234" fill="#84BE84" rx="3" ry="3" style="stroke:#038048;stroke-width:1.0;"/><text fill="#000000" font-family="sans-serif" font-size="11" lengthAdjust="spacing" textLength="75" x="819" y="361.7339">getType(): int</text></a><!--MD5=[fa3bdf59ff49a0b4f88c7ee155846082]
class org.apache.wiki.ui.admin.beans.PlainEditorAdminBean--><a href="PlainEditorAdminBean.html" target="_top" title="PlainEditorAdminBean.html" xlink:actuate="onRequest" xlink:href="PlainEditorAdminBean.html" xlink:show="new" xlink:title="PlainEditorAdminBean.html" xlink:type="simple"><rect codeLine="12" fill="#FEFECE" filter="url(#f1bgkbudfe0ujc)" height="176.0469" id="org.apache.wiki.ui.admin.beans.PlainEditorAdminBean" style="stroke:#A80036;stroke-width:1.5;" width="190" x="1024" y="218"/><ellipse cx="1048.45" cy="234" fill="#ADD1B2" rx="11" ry="11" style="stroke:#A80036;stroke-width:1.0;"/><path d="M1051.4188,239.6406 Q1050.8406,239.9375 1050.2,240.0781 Q1049.5594,240.2344 1048.8563,240.2344 Q1046.3563,240.2344 1045.0281,238.5938 Q1043.7156,236.9375 1043.7156,233.8125 Q1043.7156,230.6875 1045.0281,229.0313 Q1046.3563,227.375 1048.8563,227.375 Q1049.5594,227.375 1050.2,227.5313 Q1050.8563,227.6875 1051.4188,227.9844 L1051.4188,230.7031 Q1050.7938,230.125 1050.2,229.8594 Q1049.6063,229.5781 1048.9813,229.5781 Q1047.6375,229.5781 1046.95,230.6563 Q1046.2625,231.7188 1046.2625,233.8125 Q1046.2625,235.9063 1046.95,236.9844 Q1047.6375,238.0469 1048.9813,238.0469 Q1049.6063,238.0469 1050.2,237.7813 Q1050.7938,237.5 1051.4188,236.9219 L1051.4188,239.6406 Z " fill="#000000"/><text fill="#000000" font-family="sans-serif" font-size="12" lengthAdjust="spacing" textLength="137" x="1064.55" y="238.1543">PlainEditorAdminBean</text><line style="stroke:#A80036;stroke-width:1.5;" x1="1025" x2="1213" y1="250" y2="250"/><line style="stroke:#A80036;stroke-width:1.5;" x1="1025" x2="1213" y1="258" y2="258"/><ellipse cx="1035" cy="269" fill="#84BE84" rx="3" ry="3" style="stroke:#038048;stroke-width:1.0;"/><text fill="#000000" font-family="sans-serif" font-size="11" lengthAdjust="spacing" textLength="127" x="1044" y="272.2104">doGet(Context): String</text><ellipse cx="1035" cy="281.8047" fill="#84BE84" rx="3" ry="3" style="stroke:#038048;stroke-width:1.0;"/><text fill="#000000" font-family="sans-serif" font-size="11" lengthAdjust="spacing" textLength="132" x="1044" y="285.0151">doPost(Context): String</text><ellipse cx="1035" cy="294.6094" fill="#84BE84" rx="3" ry="3" style="stroke:#038048;stroke-width:1.0;"/><text fill="#000000" font-family="sans-serif" font-size="11" lengthAdjust="spacing" textLength="92" x="1044" y="297.8198">getTitle(): String</text><ellipse cx="1035" cy="307.4141" fill="#84BE84" rx="3" ry="3" style="stroke:#038048;stroke-width:1.0;"/><text fill="#000000" font-family="sans-serif" font-size="11" lengthAdjust="spacing" textLength="75" x="1044" y="310.6245">getType(): int</text><ellipse cx="1035" cy="320.2188" fill="#84BE84" rx="3" ry="3" style="stroke:#038048;stroke-width:1.0;"/><text fill="#000000" font-family="sans-serif" font-size="11" lengthAdjust="spacing" textLength="116" x="1044" y="323.4292">isEnabled(): boolean</text><ellipse cx="1035" cy="333.0234" fill="#84BE84" rx="3" ry="3" style="stroke:#038048;stroke-width:1.0;"/><text fill="#000000" font-family="sans-serif" font-size="11" lengthAdjust="spacing" textLength="78" x="1044" y="336.2339">getId(): String</text><ellipse cx="1035" cy="345.8281" fill="#84BE84" rx="3" ry="3" style="stroke:#038048;stroke-width:1.0;"/><text fill="#000000" font-family="sans-serif" font-size="11" lengthAdjust="spacing" textLength="127" x="1044" y="349.0386">getChecked(): boolean</text><ellipse cx="1035" cy="358.6328" fill="#84BE84" rx="3" ry="3" style="stroke:#038048;stroke-width:1.0;"/><text fill="#000000" font-family="sans-serif" font-size="11" lengthAdjust="spacing" textLength="164" x="1044" y="361.8433">getAttributeNames(): String[]</text><ellipse cx="1035" cy="371.4375" fill="#84BE84" rx="3" ry="3" style="stroke:#038048;stroke-width:1.0;"/><text fill="#000000" font-family="sans-serif" font-size="11" lengthAdjust="spacing" textLength="157" x="1044" y="374.6479">getMethodNames(): String[]</text><ellipse cx="1035" cy="384.2422" fill="#84BE84" rx="3" ry="3" style="stroke:#038048;stroke-width:1.0;"/><text fill="#000000" font-family="sans-serif" font-size="11" lengthAdjust="spacing" textLength="122" x="1044" y="387.4526">initialize(Engine): void</text></a><!--MD5=[0beda2561645e205a02a1aa514f1ee2a]
class org.apache.wiki.ui.admin.beans.PluginBean--><a href="PluginBean.html" target="_top" title="PluginBean.html" xlink:actuate="onRequest" xlink:href="PluginBean.html" xlink:show="new" xlink:title="PluginBean.html" xlink:type="simple"><rect codeLine="25" fill="#FEFECE" filter="url(#f1bgkbudfe0ujc)" height="124.8281" id="org.apache.wiki.ui.admin.beans.PluginBean" style="stroke:#A80036;stroke-width:1.5;" width="246" x="361" y="454"/><ellipse cx="444.75" cy="470" fill="#ADD1B2" rx="11" ry="11" style="stroke:#A80036;stroke-width:1.0;"/><path d="M447.7188,475.6406 Q447.1406,475.9375 446.5,476.0781 Q445.8594,476.2344 445.1563,476.2344 Q442.6563,476.2344 441.3281,474.5938 Q440.0156,472.9375 440.0156,469.8125 Q440.0156,466.6875 441.3281,465.0313 Q442.6563,463.375 445.1563,463.375 Q445.8594,463.375 446.5,463.5313 Q447.1563,463.6875 447.7188,463.9844 L447.7188,466.7031 Q447.0938,466.125 446.5,465.8594 Q445.9063,465.5781 445.2813,465.5781 Q443.9375,465.5781 443.25,466.6563 Q442.5625,467.7188 442.5625,469.8125 Q442.5625,471.9063 443.25,472.9844 Q443.9375,474.0469 445.2813,474.0469 Q445.9063,474.0469 446.5,473.7813 Q447.0938,473.5 447.7188,472.9219 L447.7188,475.6406 Z " fill="#000000"/><text fill="#000000" font-family="sans-serif" font-size="12" lengthAdjust="spacing" textLength="70" x="465.25" y="474.1543">PluginBean</text><line style="stroke:#A80036;stroke-width:1.5;" x1="362" x2="606" y1="486" y2="486"/><line style="stroke:#A80036;stroke-width:1.5;" x1="362" x2="606" y1="494" y2="494"/><ellipse cx="372" cy="505" fill="#84BE84" rx="3" ry="3" style="stroke:#038048;stroke-width:1.0;"/><text fill="#000000" font-family="sans-serif" font-size="11" lengthAdjust="spacing" textLength="109" x="381" y="508.2104">PluginBean(Engine)</text><ellipse cx="372" cy="517.8047" fill="#84BE84" rx="3" ry="3" style="stroke:#038048;stroke-width:1.0;"/><text fill="#000000" font-family="sans-serif" font-size="11" lengthAdjust="spacing" textLength="92" x="381" y="521.0151">getTitle(): String</text><ellipse cx="372" cy="530.6094" fill="#84BE84" rx="3" ry="3" style="stroke:#038048;stroke-width:1.0;"/><text fill="#000000" font-family="sans-serif" font-size="11" lengthAdjust="spacing" textLength="75" x="381" y="533.8198">getType(): int</text><polygon fill="#FFFF44" points="372,538.4141,376,542.4141,372,546.4141,368,542.4141" style="stroke:#B38D22;stroke-width:1.0;"/><text fill="#000000" font-family="sans-serif" font-size="11" lengthAdjust="spacing" textLength="220" x="381" y="546.6245">modules(): Collection&lt;WikiModuleInfo&gt;</text><polygon fill="#FFFF44" points="372,551.2188,376,555.2188,372,559.2188,368,555.2188" style="stroke:#B38D22;stroke-width:1.0;"/><text fill="#000000" font-family="sans-serif" font-size="11" lengthAdjust="spacing" textLength="107" x="381" y="559.4292">heading(): Element</text><polygon fill="#FFFF44" points="372,564.0234,376,568.0234,372,572.0234,368,568.0234" style="stroke:#B38D22;stroke-width:1.0;"/><text fill="#000000" font-family="sans-serif" font-size="11" lengthAdjust="spacing" textLength="193" x="381" y="572.2339">rowBody(WikiModuleInfo): Element</text></a><!--MD5=[7342196c61dd24d5387649e3050af40f]
class org.apache.wiki.ui.admin.beans.FilterBean--><a href="FilterBean.html" target="_top" title="FilterBean.html" xlink:actuate="onRequest" xlink:href="FilterBean.html" xlink:show="new" xlink:title="FilterBean.html" xlink:type="simple"><rect codeLine="34" fill="#FEFECE" filter="url(#f1bgkbudfe0ujc)" height="124.8281" id="org.apache.wiki.ui.admin.beans.FilterBean" style="stroke:#A80036;stroke-width:1.5;" width="246" x="642" y="454"/><ellipse cx="729.25" cy="470" fill="#ADD1B2" rx="11" ry="11" style="stroke:#A80036;stroke-width:1.0;"/><path d="M732.2188,475.6406 Q731.6406,475.9375 731,476.0781 Q730.3594,476.2344 729.6563,476.2344 Q727.1563,476.2344 725.8281,474.5938 Q724.5156,472.9375 724.5156,469.8125 Q724.5156,466.6875 725.8281,465.0313 Q727.1563,463.375 729.6563,463.375 Q730.3594,463.375 731,463.5313 Q731.6563,463.6875 732.2188,463.9844 L732.2188,466.7031 Q731.5938,466.125 731,465.8594 Q730.4063,465.5781 729.7813,465.5781 Q728.4375,465.5781 727.75,466.6563 Q727.0625,467.7188 727.0625,469.8125 Q727.0625,471.9063 727.75,472.9844 Q728.4375,474.0469 729.7813,474.0469 Q730.4063,474.0469 731,473.7813 Q731.5938,473.5 732.2188,472.9219 L732.2188,475.6406 Z " fill="#000000"/><text fill="#000000" font-family="sans-serif" font-size="12" lengthAdjust="spacing" textLength="63" x="749.75" y="474.1543">FilterBean</text><line style="stroke:#A80036;stroke-width:1.5;" x1="643" x2="887" y1="486" y2="486"/><line style="stroke:#A80036;stroke-width:1.5;" x1="643" x2="887" y1="494" y2="494"/><ellipse cx="653" cy="505" fill="#84BE84" rx="3" ry="3" style="stroke:#038048;stroke-width:1.0;"/><text fill="#000000" font-family="sans-serif" font-size="11" lengthAdjust="spacing" textLength="103" x="662" y="508.2104">FilterBean(Engine)</text><ellipse cx="653" cy="517.8047" fill="#84BE84" rx="3" ry="3" style="stroke:#038048;stroke-width:1.0;"/><text fill="#000000" font-family="sans-serif" font-size="11" lengthAdjust="spacing" textLength="92" x="662" y="521.0151">getTitle(): String</text><ellipse cx="653" cy="530.6094" fill="#84BE84" rx="3" ry="3" style="stroke:#038048;stroke-width:1.0;"/><text fill="#000000" font-family="sans-serif" font-size="11" lengthAdjust="spacing" textLength="75" x="662" y="533.8198">getType(): int</text><polygon fill="#FFFF44" points="653,538.4141,657,542.4141,653,546.4141,649,542.4141" style="stroke:#B38D22;stroke-width:1.0;"/><text fill="#000000" font-family="sans-serif" font-size="11" lengthAdjust="spacing" textLength="220" x="662" y="546.6245">modules(): Collection&lt;WikiModuleInfo&gt;</text><polygon fill="#FFFF44" points="653,551.2188,657,555.2188,653,559.2188,649,555.2188" style="stroke:#B38D22;stroke-width:1.0;"/><text fill="#000000" font-family="sans-serif" font-size="11" lengthAdjust="spacing" textLength="107" x="662" y="559.4292">heading(): Element</text><polygon fill="#FFFF44" points="653,564.0234,657,568.0234,653,572.0234,649,568.0234" style="stroke:#B38D22;stroke-width:1.0;"/><text fill="#000000" font-family="sans-serif" font-size="11" lengthAdjust="spacing" textLength="193" x="662" y="572.2339">rowBody(WikiModuleInfo): Element</text></a><!--MD5=[f4502289d78f577e0c7f7be224bf5277]
class org.apache.wiki.ui.admin.beans.SearchManagerBean--><a href="SearchManagerBean.html" target="_top" title="SearchManagerBean.html" xlink:actuate="onRequest" xlink:href="SearchManagerBean.html" xlink:show="new" xlink:title="SearchManagerBean.html" xlink:type="simple"><rect codeLine="43" fill="#FEFECE" filter="url(#f1bgkbudfe0ujc)" height="150.4375" id="org.apache.wiki.ui.admin.beans.SearchManagerBean" style="stroke:#A80036;stroke-width:1.5;" width="190" x="261" y="231"/><ellipse cx="288.15" cy="247" fill="#ADD1B2" rx="11" ry="11" style="stroke:#A80036;stroke-width:1.0;"/><path d="M291.1188,252.6406 Q290.5406,252.9375 289.9,253.0781 Q289.2594,253.2344 288.5563,253.2344 Q286.0563,253.2344 284.7281,251.5938 Q283.4156,249.9375 283.4156,246.8125 Q283.4156,243.6875 284.7281,242.0313 Q286.0563,240.375 288.5563,240.375 Q289.2594,240.375 289.9,240.5313 Q290.5563,240.6875 291.1188,240.9844 L291.1188,243.7031 Q290.4938,243.125 289.9,242.8594 Q289.3063,242.5781 288.6813,242.5781 Q287.3375,242.5781 286.65,243.6563 Q285.9625,244.7188 285.9625,246.8125 Q285.9625,248.9063 286.65,249.9844 Q287.3375,251.0469 288.6813,251.0469 Q289.3063,251.0469 289.9,250.7813 Q290.4938,250.5 291.1188,249.9219 L291.1188,252.6406 Z " fill="#000000"/><text fill="#000000" font-family="sans-serif" font-size="12" lengthAdjust="spacing" textLength="131" x="304.85" y="251.1543">SearchManagerBean</text><line style="stroke:#A80036;stroke-width:1.5;" x1="262" x2="450" y1="263" y2="263"/><line style="stroke:#A80036;stroke-width:1.5;" x1="262" x2="450" y1="271" y2="271"/><ellipse cx="272" cy="282" fill="#84BE84" rx="3" ry="3" style="stroke:#038048;stroke-width:1.0;"/><text fill="#000000" font-family="sans-serif" font-size="11" lengthAdjust="spacing" textLength="164" x="281" y="285.2104">SearchManagerBean(Engine)</text><ellipse cx="272" cy="294.8047" fill="#84BE84" rx="3" ry="3" style="stroke:#038048;stroke-width:1.0;"/><text fill="#000000" font-family="sans-serif" font-size="11" lengthAdjust="spacing" textLength="164" x="281" y="298.0151">getAttributeNames(): String[]</text><ellipse cx="272" cy="307.6094" fill="#84BE84" rx="3" ry="3" style="stroke:#038048;stroke-width:1.0;"/><text fill="#000000" font-family="sans-serif" font-size="11" lengthAdjust="spacing" textLength="157" x="281" y="310.8198">getMethodNames(): String[]</text><ellipse cx="272" cy="320.4141" fill="#84BE84" rx="3" ry="3" style="stroke:#038048;stroke-width:1.0;"/><text fill="#000000" font-family="sans-serif" font-size="11" lengthAdjust="spacing" textLength="92" x="281" y="323.6245">getTitle(): String</text><ellipse cx="272" cy="333.2188" fill="#84BE84" rx="3" ry="3" style="stroke:#038048;stroke-width:1.0;"/><text fill="#000000" font-family="sans-serif" font-size="11" lengthAdjust="spacing" textLength="75" x="281" y="336.4292">reload(): void</text><ellipse cx="272" cy="346.0234" fill="#84BE84" rx="3" ry="3" style="stroke:#038048;stroke-width:1.0;"/><text fill="#000000" font-family="sans-serif" font-size="11" lengthAdjust="spacing" textLength="75" x="281" y="349.2339">getType(): int</text><ellipse cx="272" cy="358.8281" fill="#84BE84" rx="3" ry="3" style="stroke:#038048;stroke-width:1.0;"/><text fill="#000000" font-family="sans-serif" font-size="11" lengthAdjust="spacing" textLength="127" x="281" y="362.0386">doGet(Context): String</text><ellipse cx="272" cy="371.6328" fill="#84BE84" rx="3" ry="3" style="stroke:#038048;stroke-width:1.0;"/><text fill="#000000" font-family="sans-serif" font-size="11" lengthAdjust="spacing" textLength="132" x="281" y="374.8433">doPost(Context): String</text></a><!--MD5=[6f4b698516e818847e5a672dbb84bd39]
class org.apache.wiki.ui.admin.beans.CoreBean--><a href="CoreBean.html" target="_top" title="CoreBean.html" xlink:actuate="onRequest" xlink:href="CoreBean.html" xlink:show="new" xlink:title="CoreBean.html" xlink:type="simple"><rect codeLine="54" fill="#FEFECE" filter="url(#f1bgkbudfe0ujc)" height="176.0469" id="org.apache.wiki.ui.admin.beans.CoreBean" style="stroke:#A80036;stroke-width:1.5;" width="201" x="24.5" y="218"/><ellipse cx="90.25" cy="234" fill="#ADD1B2" rx="11" ry="11" style="stroke:#A80036;stroke-width:1.0;"/><path d="M93.2188,239.6406 Q92.6406,239.9375 92,240.0781 Q91.3594,240.2344 90.6563,240.2344 Q88.1563,240.2344 86.8281,238.5938 Q85.5156,236.9375 85.5156,233.8125 Q85.5156,230.6875 86.8281,229.0313 Q88.1563,227.375 90.6563,227.375 Q91.3594,227.375 92,227.5313 Q92.6563,227.6875 93.2188,227.9844 L93.2188,230.7031 Q92.5938,230.125 92,229.8594 Q91.4063,229.5781 90.7813,229.5781 Q89.4375,229.5781 88.75,230.6563 Q88.0625,231.7188 88.0625,233.8125 Q88.0625,235.9063 88.75,236.9844 Q89.4375,238.0469 90.7813,238.0469 Q91.4063,238.0469 92,237.7813 Q92.5938,237.5 93.2188,236.9219 L93.2188,239.6406 Z " fill="#000000"/><text fill="#000000" font-family="sans-serif" font-size="12" lengthAdjust="spacing" textLength="61" x="110.75" y="238.1543">CoreBean</text><line style="stroke:#A80036;stroke-width:1.5;" x1="25.5" x2="224.5" y1="250" y2="250"/><line style="stroke:#A80036;stroke-width:1.5;" x1="25.5" x2="224.5" y1="258" y2="258"/><ellipse cx="35.5" cy="269" fill="#84BE84" rx="3" ry="3" style="stroke:#038048;stroke-width:1.0;"/><text fill="#000000" font-family="sans-serif" font-size="11" lengthAdjust="spacing" textLength="102" x="44.5" y="272.2104">CoreBean(Engine)</text><ellipse cx="35.5" cy="281.8047" fill="#84BE84" rx="3" ry="3" style="stroke:#038048;stroke-width:1.0;"/><text fill="#000000" font-family="sans-serif" font-size="11" lengthAdjust="spacing" textLength="83" x="44.5" y="285.0151">getPages(): int</text><ellipse cx="35.5" cy="294.6094" fill="#84BE84" rx="3" ry="3" style="stroke:#038048;stroke-width:1.0;"/><text fill="#000000" font-family="sans-serif" font-size="11" lengthAdjust="spacing" textLength="167" x="44.5" y="297.8198">getPagesDescription(): String</text><ellipse cx="35.5" cy="307.4141" fill="#84BE84" rx="3" ry="3" style="stroke:#038048;stroke-width:1.0;"/><text fill="#000000" font-family="sans-serif" font-size="11" lengthAdjust="spacing" textLength="111" x="44.5" y="310.6245">getVersion(): String</text><ellipse cx="35.5" cy="320.2188" fill="#84BE84" rx="3" ry="3" style="stroke:#038048;stroke-width:1.0;"/><text fill="#000000" font-family="sans-serif" font-size="11" lengthAdjust="spacing" textLength="175" x="44.5" y="323.4292">getVersionDescription(): String</text><ellipse cx="35.5" cy="333.0234" fill="#84BE84" rx="3" ry="3" style="stroke:#038048;stroke-width:1.0;"/><text fill="#000000" font-family="sans-serif" font-size="11" lengthAdjust="spacing" textLength="92" x="44.5" y="336.2339">getTitle(): String</text><ellipse cx="35.5" cy="345.8281" fill="#84BE84" rx="3" ry="3" style="stroke:#038048;stroke-width:1.0;"/><text fill="#000000" font-family="sans-serif" font-size="11" lengthAdjust="spacing" textLength="75" x="44.5" y="349.0386">getType(): int</text><ellipse cx="35.5" cy="358.6328" fill="#84BE84" rx="3" ry="3" style="stroke:#038048;stroke-width:1.0;"/><text fill="#000000" font-family="sans-serif" font-size="11" lengthAdjust="spacing" textLength="78" x="44.5" y="361.8433">getId(): String</text><ellipse cx="35.5" cy="371.4375" fill="#84BE84" rx="3" ry="3" style="stroke:#038048;stroke-width:1.0;"/><text fill="#000000" font-family="sans-serif" font-size="11" lengthAdjust="spacing" textLength="164" x="44.5" y="374.6479">getAttributeNames(): String[]</text><ellipse cx="35.5" cy="384.2422" fill="#84BE84" rx="3" ry="3" style="stroke:#038048;stroke-width:1.0;"/><text fill="#000000" font-family="sans-serif" font-size="11" lengthAdjust="spacing" textLength="157" x="44.5" y="387.4526">getMethodNames(): String[]</text></a><!--MD5=[06ed52a08f9f650f8a5ab2ea17093d77]
class org.apache.wiki.ui.admin.beans.ModuleBean--><a href="ModuleBean.html" target="_top" title="ModuleBean.html" xlink:actuate="onRequest" xlink:href="ModuleBean.html" xlink:show="new" xlink:title="ModuleBean.html" xlink:type="simple"><rect codeLine="67" fill="#FEFECE" filter="url(#f1bgkbudfe0ujc)" height="176.0469" id="org.apache.wiki.ui.admin.beans.ModuleBean" style="stroke:#A80036;stroke-width:1.5;" width="277" x="486.5" y="218"/><ellipse cx="582.25" cy="234" fill="#A9DCDF" rx="11" ry="11" style="stroke:#A80036;stroke-width:1.0;"/><path d="M582.3594,229.3438 L581.2031,234.4219 L583.5313,234.4219 L582.3594,229.3438 Z M580.875,227.1094 L583.8594,227.1094 L587.2188,239.5 L584.7656,239.5 L584,236.4375 L580.7188,236.4375 L579.9688,239.5 L577.5313,239.5 L580.875,227.1094 Z " fill="#000000"/><text fill="#000000" font-family="sans-serif" font-size="12" font-style="italic" lengthAdjust="spacing" textLength="77" x="602.75" y="238.1543">ModuleBean</text><line style="stroke:#A80036;stroke-width:1.5;" x1="487.5" x2="762.5" y1="250" y2="250"/><line style="stroke:#A80036;stroke-width:1.5;" x1="487.5" x2="762.5" y1="258" y2="258"/><ellipse cx="497.5" cy="269" fill="#84BE84" rx="3" ry="3" style="stroke:#038048;stroke-width:1.0;"/><text fill="#000000" font-family="sans-serif" font-size="11" lengthAdjust="spacing" textLength="115" x="506.5" y="272.2104">ModuleBean(Engine)</text><ellipse cx="497.5" cy="281.8047" fill="#84BE84" rx="3" ry="3" style="stroke:#038048;stroke-width:1.0;"/><text fill="#000000" font-family="sans-serif" font-size="11" lengthAdjust="spacing" textLength="164" x="506.5" y="285.0151">getAttributeNames(): String[]</text><ellipse cx="497.5" cy="294.6094" fill="#84BE84" rx="3" ry="3" style="stroke:#038048;stroke-width:1.0;"/><text fill="#000000" font-family="sans-serif" font-size="11" lengthAdjust="spacing" textLength="157" x="506.5" y="297.8198">getMethodNames(): String[]</text><ellipse cx="497.5" cy="307.4141" fill="#84BE84" rx="3" ry="3" style="stroke:#038048;stroke-width:1.0;"/><text fill="#000000" font-family="sans-serif" font-size="11" lengthAdjust="spacing" textLength="127" x="506.5" y="310.6245">doGet(Context): String</text><polygon fill="#FFFF44" points="497.5,315.2188,501.5,319.2188,497.5,323.2188,493.5,319.2188" style="stroke:#B38D22;stroke-width:1.0;"/><text fill="#000000" font-family="sans-serif" font-size="11" lengthAdjust="spacing" textLength="83" x="506.5" y="323.4292">title(): Element</text><polygon fill="#FFFF44" points="497.5,328.0234,501.5,332.0234,497.5,336.0234,493.5,332.0234" style="stroke:#B38D22;stroke-width:1.0;"/><text fill="#000000" font-family="sans-serif" font-size="11" lengthAdjust="spacing" textLength="251" x="506.5" y="336.2339">containerForModuleDetail(Element): Element</text><polygon fill="#FFFF44" points="497.5,340.8281,501.5,344.8281,497.5,348.8281,493.5,344.8281" style="stroke:#B38D22;stroke-width:1.0;"/><text fill="#000000" font-family="sans-serif" font-size="11" font-style="italic" lengthAdjust="spacing" textLength="221" x="506.5" y="349.0386">modules(): Collection&lt;WikiModuleInfo&gt;</text><polygon fill="#FFFF44" points="497.5,353.6328,501.5,357.6328,497.5,361.6328,493.5,357.6328" style="stroke:#B38D22;stroke-width:1.0;"/><text fill="#000000" font-family="sans-serif" font-size="11" font-style="italic" lengthAdjust="spacing" textLength="107" x="506.5" y="361.8433">heading(): Element</text><polygon fill="#FFFF44" points="497.5,366.4375,501.5,370.4375,497.5,374.4375,493.5,370.4375" style="stroke:#B38D22;stroke-width:1.0;"/><text fill="#000000" font-family="sans-serif" font-size="11" font-style="italic" lengthAdjust="spacing" textLength="196" x="506.5" y="374.6479">rowBody(WikiModuleInfo): Element</text><polygon fill="#FFFF44" points="497.5,379.2422,501.5,383.2422,497.5,387.2422,493.5,383.2422" style="stroke:#B38D22;stroke-width:1.0;"/><text fill="#000000" font-family="sans-serif" font-size="11" lengthAdjust="spacing" textLength="241" x="506.5" y="387.4526">validModuleVersion(WikiModuleInfo): String</text></a><!--MD5=[4b823098d8674ba19cb416ea00e3335e]
class org.apache.wiki.ui.admin.SimpleAdminBean--><a href="../SimpleAdminBean.html" target="_top" title="../SimpleAdminBean.html" xlink:actuate="onRequest" xlink:href="../SimpleAdminBean.html" xlink:show="new" xlink:title="../SimpleAdminBean.html" xlink:type="simple"><rect codeLine="91" fill="#FEFECE" filter="url(#f1bgkbudfe0ujc)" height="60.8047" id="org.apache.wiki.ui.admin.SimpleAdminBean" style="stroke:#A80036;stroke-width:1.5;" width="143" x="553.5" y="65"/><ellipse cx="568.5" cy="81" fill="#A9DCDF" rx="11" ry="11" style="stroke:#A80036;stroke-width:1.0;"/><path d="M568.6094,76.3438 L567.4531,81.4219 L569.7813,81.4219 L568.6094,76.3438 Z M567.125,74.1094 L570.1094,74.1094 L573.4688,86.5 L571.0156,86.5 L570.25,83.4375 L566.9688,83.4375 L566.2188,86.5 L563.7813,86.5 L567.125,74.1094 Z " fill="#000000"/><text fill="#000000" font-family="sans-serif" font-size="12" font-style="italic" lengthAdjust="spacing" textLength="111" x="582.5" y="85.1543">SimpleAdminBean</text><line style="stroke:#A80036;stroke-width:1.5;" x1="554.5" x2="695.5" y1="97" y2="97"/><polygon fill="none" points="564.5,103,568.5,107,564.5,111,560.5,107" style="stroke:#B38D22;stroke-width:1.0;"/><text fill="#000000" font-family="sans-serif" font-size="11" lengthAdjust="spacing" textLength="101" x="573.5" y="111.2104">m_engine: Engine</text><line style="stroke:#A80036;stroke-width:1.5;" x1="554.5" x2="695.5" y1="117.8047" y2="117.8047"/></a><!--MD5=[3517fb5c0510b94d58fc0166fd09be85]
class org.apache.wiki.ui.admin.AdminBean--><a href="../AdminBean.html" target="_top" title="../AdminBean.html" xlink:actuate="onRequest" xlink:href="../AdminBean.html" xlink:show="new" xlink:title="../AdminBean.html" xlink:type="simple"><rect codeLine="94" fill="#FEFECE" filter="url(#f1bgkbudfe0ujc)" height="124.8281" id="org.apache.wiki.ui.admin.AdminBean" style="stroke:#A80036;stroke-width:1.5;" width="150" x="732" y="33"/><ellipse cx="768.6" cy="49" fill="#B4A7E5" rx="11" ry="11" style="stroke:#A80036;stroke-width:1.0;"/><path d="M764.5219,44.7656 L764.5219,42.6094 L771.9125,42.6094 L771.9125,44.7656 L769.4438,44.7656 L769.4438,52.8438 L771.9125,52.8438 L771.9125,55 L764.5219,55 L764.5219,52.8438 L766.9906,52.8438 L766.9906,44.7656 L764.5219,44.7656 Z " fill="#000000"/><text fill="#000000" font-family="sans-serif" font-size="12" font-style="italic" lengthAdjust="spacing" textLength="70" x="787.4" y="53.1543">AdminBean</text><line style="stroke:#A80036;stroke-width:1.5;" x1="733" x2="881" y1="65" y2="65"/><ellipse cx="743" cy="76" rx="3" ry="3" style="stroke:#038048;stroke-width:1.0;fill:none;"/><text fill="#000000" font-family="sans-serif" font-size="11" lengthAdjust="spacing" text-decoration="underline" textLength="79" x="752" y="79.2104">UNKNOWN: int</text><ellipse cx="743" cy="88.8047" rx="3" ry="3" style="stroke:#038048;stroke-width:1.0;fill:none;"/><text fill="#000000" font-family="sans-serif" font-size="11" lengthAdjust="spacing" text-decoration="underline" textLength="53" x="752" y="92.0151">CORE: int</text><ellipse cx="743" cy="101.6094" rx="3" ry="3" style="stroke:#038048;stroke-width:1.0;fill:none;"/><text fill="#000000" font-family="sans-serif" font-size="11" lengthAdjust="spacing" text-decoration="underline" textLength="63" x="752" y="104.8198">EDITOR: int</text><line style="stroke:#A80036;stroke-width:1.5;" x1="733" x2="881" y1="111.4141" y2="111.4141"/><ellipse cx="743" cy="122.4141" fill="#84BE84" rx="3" ry="3" style="stroke:#038048;stroke-width:1.0;"/><text fill="#000000" font-family="sans-serif" font-size="11" font-style="italic" lengthAdjust="spacing" textLength="124" x="752" y="125.6245">initialize(Engine): void</text><ellipse cx="743" cy="135.2188" fill="#84BE84" rx="3" ry="3" style="stroke:#038048;stroke-width:1.0;"/><text fill="#000000" font-family="sans-serif" font-size="11" font-style="italic" lengthAdjust="spacing" textLength="91" x="752" y="138.4292">getTitle(): String</text><ellipse cx="743" cy="148.0234" fill="#84BE84" rx="3" ry="3" style="stroke:#038048;stroke-width:1.0;"/><text fill="#000000" font-family="sans-serif" font-size="11" font-style="italic" lengthAdjust="spacing" textLength="76" x="752" y="151.2339">getType(): int</text></a><!--MD5=[a9696cc3406e3bfeff149f6647ff5cab]
class org.apache.wiki.management.SimpleMBean--><a href="../../../management/SimpleMBean.html" target="_top" title="../../../management/SimpleMBean.html" xlink:actuate="onRequest" xlink:href="../../../management/SimpleMBean.html" xlink:show="new" xlink:title="../../../management/SimpleMBean.html" xlink:type="simple"><rect codeLine="105" fill="#FEFECE" filter="url(#f1bgkbudfe0ujc)" height="86.4141" id="org.apache.wiki.management.SimpleMBean" style="stroke:#A80036;stroke-width:1.5;" width="189" x="1024.5" y="52.5"/><ellipse cx="1073.25" cy="68.5" fill="#A9DCDF" rx="11" ry="11" style="stroke:#A80036;stroke-width:1.0;"/><path d="M1073.3594,63.8438 L1072.2031,68.9219 L1074.5313,68.9219 L1073.3594,63.8438 Z M1071.875,61.6094 L1074.8594,61.6094 L1078.2188,74 L1075.7656,74 L1075,70.9375 L1071.7188,70.9375 L1070.9688,74 L1068.5313,74 L1071.875,61.6094 Z " fill="#000000"/><text fill="#000000" font-family="sans-serif" font-size="12" font-style="italic" lengthAdjust="spacing" textLength="83" x="1093.75" y="72.6543">SimpleMBean</text><line style="stroke:#A80036;stroke-width:1.5;" x1="1025.5" x2="1212.5" y1="84.5" y2="84.5"/><polygon fill="none" points="1035.5,90.5,1039.5,94.5,1035.5,98.5,1031.5,94.5" style="stroke:#B38D22;stroke-width:1.0;"/><text fill="#000000" font-family="sans-serif" font-size="11" lengthAdjust="spacing" textLength="133" x="1044.5" y="98.7104">m_beanInfo: MBeanInfo</text><line style="stroke:#A80036;stroke-width:1.5;" x1="1025.5" x2="1212.5" y1="105.3047" y2="105.3047"/><ellipse cx="1035.5" cy="116.3047" fill="#84BE84" rx="3" ry="3" style="stroke:#038048;stroke-width:1.0;"/><text fill="#000000" font-family="sans-serif" font-size="11" font-style="italic" lengthAdjust="spacing" textLength="163" x="1044.5" y="119.5151">getAttributeNames(): String[]</text><ellipse cx="1035.5" cy="129.1094" fill="#84BE84" rx="3" ry="3" style="stroke:#038048;stroke-width:1.0;"/><text fill="#000000" font-family="sans-serif" font-size="11" font-style="italic" lengthAdjust="spacing" textLength="155" x="1044.5" y="132.3198">getMethodNames(): String[]</text></a><!--MD5=[a5800cf21b59961b691f39be1f00b754]
reverse link org.apache.wiki.ui.admin.SimpleAdminBean to org.apache.wiki.ui.admin.beans.UserBean--><path codeLine="80" d="M674.8617,138.8626 C687.4481,148.5741 701.2947,158.2745 715,166 C742.325,181.4028 754.7304,173.8592 781,191 C803.0353,205.378 824.1239,224.7022 841.99,243.4017 " fill="none" id="org.apache.wiki.ui.admin.SimpleAdminBean-backto-org.apache.wiki.ui.admin.beans.UserBean" style="stroke:#A80036;stroke-width:1.0;"/><polygon fill="none" points="670.3717,144.2346,659.1594,126.2544,679.1371,133.3182,670.3717,144.2346" style="stroke:#A80036;stroke-width:1.0;"/><!--MD5=[0e5d237d817b7583e019505be234d12e]
reverse link org.apache.wiki.management.SimpleMBean to org.apache.wiki.ui.admin.beans.PlainEditorAdminBean--><path codeLine="81" d="M1119,158.8625 C1119,177.3929 1119,197.9933 1119,217.7702 " fill="none" id="org.apache.wiki.management.SimpleMBean-backto-org.apache.wiki.ui.admin.beans.PlainEditorAdminBean" style="stroke:#A80036;stroke-width:1.0;"/><polygon fill="none" points="1112.0001,158.6058,1119,138.6058,1126.0001,158.6057,1112.0001,158.6058" style="stroke:#A80036;stroke-width:1.0;"/><!--MD5=[a7740c23a8ca9b2973570bbd036450ce]
reverse link org.apache.wiki.ui.admin.AdminBean to org.apache.wiki.ui.admin.beans.PlainEditorAdminBean--><path codeLine="82" d="M900.5642,131.9344 C935.4954,147.6116 974.5297,167.7185 1007,191 C1018.2113,199.0386 1029.2743,208.2681 1039.8274,217.9274 " fill="none" id="org.apache.wiki.ui.admin.AdminBean-backto-org.apache.wiki.ui.admin.beans.PlainEditorAdminBean" style="stroke:#A80036;stroke-width:1.0;stroke-dasharray:7.0,7.0;"/><polygon fill="none" points="897.7222,138.3317,882.1899,123.9182,903.3204,125.4997,897.7222,138.3317" style="stroke:#A80036;stroke-width:1.0;"/><!--MD5=[b56e03e824a683c894d21505a50509d2]
reverse link org.apache.wiki.ui.admin.beans.ModuleBean to org.apache.wiki.ui.admin.beans.PluginBean--><path codeLine="83" d="M554.5954,411.1076 C544.8238,425.6956 535.0498,440.2874 526.0242,453.7617 " fill="none" id="org.apache.wiki.ui.admin.beans.ModuleBean-backto-org.apache.wiki.ui.admin.beans.PluginBean" style="stroke:#A80036;stroke-width:1.0;"/><polygon fill="none" points="549.074,406.7723,566.0203,394.0513,560.7057,414.5636,549.074,406.7723" style="stroke:#A80036;stroke-width:1.0;"/><!--MD5=[b272b87b60605509cdeb62fbe5c8d212]
reverse link org.apache.wiki.ui.admin.beans.ModuleBean to org.apache.wiki.ui.admin.beans.FilterBean--><path codeLine="84" d="M694.9053,411.1076 C704.6076,425.6956 714.3123,440.2874 723.2738,453.7617 " fill="none" id="org.apache.wiki.ui.admin.beans.ModuleBean-backto-org.apache.wiki.ui.admin.beans.FilterBean" style="stroke:#A80036;stroke-width:1.0;"/><polygon fill="none" points="688.8086,414.581,683.5614,394.0513,700.4658,406.8279,688.8086,414.581" style="stroke:#A80036;stroke-width:1.0;"/><!--MD5=[f41e50272af7cf222efc3001e245f110]
reverse link org.apache.wiki.ui.admin.SimpleAdminBean to org.apache.wiki.ui.admin.beans.SearchManagerBean--><path codeLine="85" d="M550.1583,136.2635 C523.5804,152.0294 494.0613,171.0736 469,191 C453.8826,203.0199 438.7053,216.9148 424.5986,230.8006 " fill="none" id="org.apache.wiki.ui.admin.SimpleAdminBean-backto-org.apache.wiki.ui.admin.beans.SearchManagerBean" style="stroke:#A80036;stroke-width:1.0;"/><polygon fill="none" points="546.7492,130.1485,567.5585,126.1517,553.7835,142.253,546.7492,130.1485" style="stroke:#A80036;stroke-width:1.0;"/><!--MD5=[9b24dc26102375f1222e9745d75864d7]
reverse link org.apache.wiki.ui.admin.SimpleAdminBean to org.apache.wiki.ui.admin.beans.CoreBean--><path codeLine="86" d="M533.3996,104.7263 C452.7494,115.9345 334.2673,140.0984 243,191 C229.6341,198.4544 216.7011,207.8157 204.6039,217.9613 " fill="none" id="org.apache.wiki.ui.admin.SimpleAdminBean-backto-org.apache.wiki.ui.admin.beans.CoreBean" style="stroke:#A80036;stroke-width:1.0;"/><polygon fill="none" points="532.5632,97.7761,553.3036,102.1161,534.3836,111.6573,532.5632,97.7761" style="stroke:#A80036;stroke-width:1.0;"/><!--MD5=[e4bbc004e4cd596be5c4ae748f36c9f6]
reverse link org.apache.wiki.ui.admin.SimpleAdminBean to org.apache.wiki.ui.admin.beans.ModuleBean--><path codeLine="87" d="M625,146.4007 C625,167.9067 625,193.5849 625,217.9916 " fill="none" id="org.apache.wiki.ui.admin.SimpleAdminBean-backto-org.apache.wiki.ui.admin.beans.ModuleBean" style="stroke:#A80036;stroke-width:1.0;"/><polygon fill="none" points="618.0001,146.1085,625,126.1085,632.0001,146.1085,618.0001,146.1085" style="stroke:#A80036;stroke-width:1.0;"/><text fill="#888888" font-family="sans-serif" font-size="10" lengthAdjust="spacing" textLength="186" x="530.5" y="602.2822">UMLDoclet 2.0.14, PlantUML 1.2021.9</text><!--MD5=[3a32e2deb2590d870a66c5635d42c23a]
@startuml
    namespace org.apache.wiki.ui.admin.beans {

        class UserBean [[UserBean.html]] {
            +UserBean(Engine)
            +getAttributeNames(): String[]
            +getMethodNames(): String[]
            +doPost(Context): String
            +getTitle(): String
            +getType(): int
        }

        class PlainEditorAdminBean [[PlainEditorAdminBean.html]] {
            +doGet(Context): String
            +doPost(Context): String
            +getTitle(): String
            +getType(): int
            +isEnabled(): boolean
            +getId(): String
            +getChecked(): boolean
            +getAttributeNames(): String[]
            +getMethodNames(): String[]
            +initialize(Engine): void
        }

        class PluginBean [[PluginBean.html]] {
            +PluginBean(Engine)
            +getTitle(): String
            +getType(): int
            #modules(): Collection<WikiModuleInfo>
            #heading(): Element
            #rowBody(WikiModuleInfo): Element
        }

        class FilterBean [[FilterBean.html]] {
            +FilterBean(Engine)
            +getTitle(): String
            +getType(): int
            #modules(): Collection<WikiModuleInfo>
            #heading(): Element
            #rowBody(WikiModuleInfo): Element
        }

        class SearchManagerBean [[SearchManagerBean.html]] {
            +SearchManagerBean(Engine)
            +getAttributeNames(): String[]
            +getMethodNames(): String[]
            +getTitle(): String
            +reload(): void
            +getType(): int
            +doGet(Context): String
            +doPost(Context): String
        }

        class CoreBean [[CoreBean.html]] {
            +CoreBean(Engine)
            +getPages(): int
            +getPagesDescription(): String
            +getVersion(): String
            +getVersionDescription(): String
            +getTitle(): String
            +getType(): int
            +getId(): String
            +getAttributeNames(): String[]
            +getMethodNames(): String[]
        }

        abstract class ModuleBean [[ModuleBean.html]] {
            +ModuleBean(Engine)
            +getAttributeNames(): String[]
            +getMethodNames(): String[]
            +doGet(Context): String
            #title(): Element
            #containerForModuleDetail(Element): Element
            {abstract} #modules(): Collection<WikiModuleInfo>
            {abstract} #heading(): Element
            {abstract} #rowBody(WikiModuleInfo): Element
            #validModuleVersion(WikiModuleInfo): String
        }

        org.apache.wiki.ui.admin.SimpleAdminBean <|- - UserBean
        org.apache.wiki.management.SimpleMBean <|- - PlainEditorAdminBean
        org.apache.wiki.ui.admin.AdminBean <|.. PlainEditorAdminBean
        ModuleBean <|- - PluginBean
        ModuleBean <|- - FilterBean
        org.apache.wiki.ui.admin.SimpleAdminBean <|- - SearchManagerBean
        org.apache.wiki.ui.admin.SimpleAdminBean <|- - CoreBean
        org.apache.wiki.ui.admin.SimpleAdminBean <|- - ModuleBean
    }

    namespace org.apache.wiki.ui.admin {
        abstract class SimpleAdminBean [[../SimpleAdminBean.html]] {
            #m_engine: Engine
        }
        interface AdminBean [[../AdminBean.html]] {
            {static} +UNKNOWN: int
            {static} +CORE: int
            {static} +EDITOR: int
            {abstract} +initialize(Engine): void
            {abstract} +getTitle(): String
            {abstract} +getType(): int
        }
    }

    namespace org.apache.wiki.management {
        abstract class SimpleMBean [[../../../management/SimpleMBean.html]] {
            #m_beanInfo: MBeanInfo
            {abstract} +getAttributeNames(): String[]
            {abstract} +getMethodNames(): String[]
        }
    }

    center footer UMLDoclet 2.0.14, PlantUML 1.2021.9
@enduml

PlantUML version 1.2021.9(Sun Jul 25 10:13:56 UTC 2021)
(APACHE source distribution)
Java Runtime: Java(TM) SE Runtime Environment
JVM: Java HotSpot(TM) 64-Bit Server VM
Default Encoding: ISO-8859-1
Language: en
Country: US
--></g></svg>