<?xml version="1.0" encoding="UTF-8" standalone="no"?><svg xmlns="http://www.w3.org/2000/svg" xmlns:xlink="http://www.w3.org/1999/xlink" contentScriptType="application/ecmascript" contentStyleType="text/css" height="615px" preserveAspectRatio="none" style="width:1265px;height:615px;" version="1.1" viewBox="0 0 1265 615" width="1265px" zoomAndPan="magnify"><defs><filter height="300%" id="f1wudllcveqcb5" width="300%" x="-1" y="-1"><feGaussianBlur result="blurOut" stdDeviation="2.0"/><feColorMatrix in="blurOut" result="blurOut2" type="matrix" values="0 0 0 0 0 0 0 0 0 0 0 0 0 0 0 0 0 0 .4 0"/><feOffset dx="4.0" dy="4.0" in="blurOut2" result="blurOut3"/><feBlend in="SourceGraphic" in2="blurOut3" mode="normal"/></filter></defs><g><!--MD5=[6dc57847958aaf38c65e6559a7764042]
cluster org.apache.wiki.ui.admin.beans--><polygon fill="#FFFFFF" filter="url(#f1wudllcveqcb5)" points="16,191,271,191,278,213.2969,1222,213.2969,1222,587,16,587,16,191" style="stroke: #000000; stroke-width: 1.5;"/><line style="stroke: #000000; stroke-width: 1.5;" x1="16" x2="278" y1="213.2969" y2="213.2969"/><text fill="#000000" font-family="sans-serif" font-size="14" font-weight="bold" lengthAdjust="spacingAndGlyphs" textLength="249" x="20" y="205.9951">org.apache.wiki.ui.admin.beans</text><!--MD5=[bd4ea5e1bea20afbbde5ba34844f37b5]
cluster org.apache.wiki.ui.admin--><polygon fill="#FFFFFF" filter="url(#f1wudllcveqcb5)" points="501,6,703,6,710,28.2969,846,28.2969,846,166,501,166,501,6" style="stroke: #000000; stroke-width: 1.5;"/><line style="stroke: #000000; stroke-width: 1.5;" x1="501" x2="710" y1="28.2969" y2="28.2969"/><text fill="#000000" font-family="sans-serif" font-size="14" font-weight="bold" lengthAdjust="spacingAndGlyphs" textLength="196" x="505" y="20.9951">org.apache.wiki.ui.admin</text><!--MD5=[4c36762682833c7223099323ed6a41cb]
cluster org.apache.wiki.management--><polygon fill="#FFFFFF" filter="url(#f1wudllcveqcb5)" points="995,25.5,1233,25.5,1240,47.7969,1243,47.7969,1243,146.5,995,146.5,995,25.5" style="stroke: #000000; stroke-width: 1.5;"/><line style="stroke: #000000; stroke-width: 1.5;" x1="995" x2="1240" y1="47.7969" y2="47.7969"/><text fill="#000000" font-family="sans-serif" font-size="14" font-weight="bold" lengthAdjust="spacingAndGlyphs" textLength="232" x="999" y="40.4951">org.apache.wiki.management</text><!--MD5=[06ed52a08f9f650f8a5ab2ea17093d77]
class org.apache.wiki.ui.admin.beans.ModuleBean--><a href="ModuleBean.html" target="_top" title="ModuleBean.html" xlink:actuate="onRequest" xlink:href="ModuleBean.html" xlink:show="new" xlink:title="ModuleBean.html" xlink:type="simple"><rect codeLine="3" fill="#FEFECE" filter="url(#f1wudllcveqcb5)" height="176.0469" id="org.apache.wiki.ui.admin.beans.ModuleBean" style="stroke: #A80036; stroke-width: 1.5;" width="277" x="711.5" y="218"/><ellipse cx="807.25" cy="234" fill="#A9DCDF" rx="11" ry="11" style="stroke: #A80036; stroke-width: 1.0;"/><path d="M807.3594,229.3438 L806.2031,234.4219 L808.5313,234.4219 L807.3594,229.3438 Z M805.875,227.1094 L808.8594,227.1094 L812.2188,239.5 L809.7656,239.5 L809,236.4375 L805.7188,236.4375 L804.9688,239.5 L802.5313,239.5 L805.875,227.1094 Z "/><text fill="#000000" font-family="sans-serif" font-size="12" font-style="italic" lengthAdjust="spacingAndGlyphs" textLength="77" x="827.75" y="238.1543">ModuleBean</text><line style="stroke: #A80036; stroke-width: 1.5;" x1="712.5" x2="987.5" y1="250" y2="250"/><line style="stroke: #A80036; stroke-width: 1.5;" x1="712.5" x2="987.5" y1="258" y2="258"/><ellipse cx="722.5" cy="269" fill="#84BE84" rx="3" ry="3" style="stroke: #038048; stroke-width: 1.0;"/><text fill="#000000" font-family="sans-serif" font-size="11" lengthAdjust="spacingAndGlyphs" textLength="115" x="731.5" y="272.2104">ModuleBean(Engine)</text><ellipse cx="722.5" cy="281.8047" fill="#84BE84" rx="3" ry="3" style="stroke: #038048; stroke-width: 1.0;"/><text fill="#000000" font-family="sans-serif" font-size="11" lengthAdjust="spacingAndGlyphs" textLength="164" x="731.5" y="285.0151">getAttributeNames(): String[]</text><ellipse cx="722.5" cy="294.6094" fill="#84BE84" rx="3" ry="3" style="stroke: #038048; stroke-width: 1.0;"/><text fill="#000000" font-family="sans-serif" font-size="11" lengthAdjust="spacingAndGlyphs" textLength="157" x="731.5" y="297.8198">getMethodNames(): String[]</text><ellipse cx="722.5" cy="307.4141" fill="#84BE84" rx="3" ry="3" style="stroke: #038048; stroke-width: 1.0;"/><text fill="#000000" font-family="sans-serif" font-size="11" lengthAdjust="spacingAndGlyphs" textLength="127" x="731.5" y="310.6245">doGet(Context): String</text><polygon fill="#FFFF44" points="722.5,315.2188,726.5,319.2188,722.5,323.2188,718.5,319.2188" style="stroke: #B38D22; stroke-width: 1.0;"/><text fill="#000000" font-family="sans-serif" font-size="11" lengthAdjust="spacingAndGlyphs" textLength="83" x="731.5" y="323.4292">title(): Element</text><polygon fill="#FFFF44" points="722.5,328.0234,726.5,332.0234,722.5,336.0234,718.5,332.0234" style="stroke: #B38D22; stroke-width: 1.0;"/><text fill="#000000" font-family="sans-serif" font-size="11" lengthAdjust="spacingAndGlyphs" textLength="251" x="731.5" y="336.2339">containerForModuleDetail(Element): Element</text><polygon fill="#FFFF44" points="722.5,340.8281,726.5,344.8281,722.5,348.8281,718.5,344.8281" style="stroke: #B38D22; stroke-width: 1.0;"/><text fill="#000000" font-family="sans-serif" font-size="11" font-style="italic" lengthAdjust="spacingAndGlyphs" textLength="221" x="731.5" y="349.0386">modules(): Collection&lt;WikiModuleInfo&gt;</text><polygon fill="#FFFF44" points="722.5,353.6328,726.5,357.6328,722.5,361.6328,718.5,357.6328" style="stroke: #B38D22; stroke-width: 1.0;"/><text fill="#000000" font-family="sans-serif" font-size="11" font-style="italic" lengthAdjust="spacingAndGlyphs" textLength="107" x="731.5" y="361.8433">heading(): Element</text><polygon fill="#FFFF44" points="722.5,366.4375,726.5,370.4375,722.5,374.4375,718.5,370.4375" style="stroke: #B38D22; stroke-width: 1.0;"/><text fill="#000000" font-family="sans-serif" font-size="11" font-style="italic" lengthAdjust="spacingAndGlyphs" textLength="196" x="731.5" y="374.6479">rowBody(WikiModuleInfo): Element</text><polygon fill="#FFFF44" points="722.5,379.2422,726.5,383.2422,722.5,387.2422,718.5,383.2422" style="stroke: #B38D22; stroke-width: 1.0;"/><text fill="#000000" font-family="sans-serif" font-size="11" lengthAdjust="spacingAndGlyphs" textLength="241" x="731.5" y="387.4526">validModuleVersion(WikiModuleInfo): String</text></a><!--MD5=[ba7790b672014fb41ea1502a6bb32e26]
class org.apache.wiki.ui.admin.beans.UserBean--><a href="UserBean.html" target="_top" title="UserBean.html" xlink:actuate="onRequest" xlink:href="UserBean.html" xlink:show="new" xlink:title="UserBean.html" xlink:type="simple"><rect codeLine="16" fill="#FEFECE" filter="url(#f1wudllcveqcb5)" height="124.8281" id="org.apache.wiki.ui.admin.beans.UserBean" style="stroke: #A80036; stroke-width: 1.5;" width="190" x="486" y="243.5"/><ellipse cx="546.25" cy="259.5" fill="#ADD1B2" rx="11" ry="11" style="stroke: #A80036; stroke-width: 1.0;"/><path d="M549.2188,265.1406 Q548.6406,265.4375 548,265.5781 Q547.3594,265.7344 546.6563,265.7344 Q544.1563,265.7344 542.8281,264.0938 Q541.5156,262.4375 541.5156,259.3125 Q541.5156,256.1875 542.8281,254.5313 Q544.1563,252.875 546.6563,252.875 Q547.3594,252.875 548,253.0313 Q548.6563,253.1875 549.2188,253.4844 L549.2188,256.2031 Q548.5938,255.625 548,255.3594 Q547.4063,255.0781 546.7813,255.0781 Q545.4375,255.0781 544.75,256.1563 Q544.0625,257.2188 544.0625,259.3125 Q544.0625,261.4063 544.75,262.4844 Q545.4375,263.5469 546.7813,263.5469 Q547.4063,263.5469 548,263.2813 Q548.5938,263 549.2188,262.4219 L549.2188,265.1406 Z "/><text fill="#000000" font-family="sans-serif" font-size="12" lengthAdjust="spacingAndGlyphs" textLength="61" x="566.75" y="263.6543">UserBean</text><line style="stroke: #A80036; stroke-width: 1.5;" x1="487" x2="675" y1="275.5" y2="275.5"/><line style="stroke: #A80036; stroke-width: 1.5;" x1="487" x2="675" y1="283.5" y2="283.5"/><ellipse cx="497" cy="294.5" fill="#84BE84" rx="3" ry="3" style="stroke: #038048; stroke-width: 1.0;"/><text fill="#000000" font-family="sans-serif" font-size="11" lengthAdjust="spacingAndGlyphs" textLength="102" x="506" y="297.7104">UserBean(Engine)</text><ellipse cx="497" cy="307.3047" fill="#84BE84" rx="3" ry="3" style="stroke: #038048; stroke-width: 1.0;"/><text fill="#000000" font-family="sans-serif" font-size="11" lengthAdjust="spacingAndGlyphs" textLength="164" x="506" y="310.5151">getAttributeNames(): String[]</text><ellipse cx="497" cy="320.1094" fill="#84BE84" rx="3" ry="3" style="stroke: #038048; stroke-width: 1.0;"/><text fill="#000000" font-family="sans-serif" font-size="11" lengthAdjust="spacingAndGlyphs" textLength="157" x="506" y="323.3198">getMethodNames(): String[]</text><ellipse cx="497" cy="332.9141" fill="#84BE84" rx="3" ry="3" style="stroke: #038048; stroke-width: 1.0;"/><text fill="#000000" font-family="sans-serif" font-size="11" lengthAdjust="spacingAndGlyphs" textLength="132" x="506" y="336.1245">doPost(Context): String</text><ellipse cx="497" cy="345.7188" fill="#84BE84" rx="3" ry="3" style="stroke: #038048; stroke-width: 1.0;"/><text fill="#000000" font-family="sans-serif" font-size="11" lengthAdjust="spacingAndGlyphs" textLength="92" x="506" y="348.9292">getTitle(): String</text><ellipse cx="497" cy="358.5234" fill="#84BE84" rx="3" ry="3" style="stroke: #038048; stroke-width: 1.0;"/><text fill="#000000" font-family="sans-serif" font-size="11" lengthAdjust="spacingAndGlyphs" textLength="75" x="506" y="361.7339">getType(): int</text></a><!--MD5=[6f4b698516e818847e5a672dbb84bd39]
class org.apache.wiki.ui.admin.beans.CoreBean--><a href="CoreBean.html" target="_top" title="CoreBean.html" xlink:actuate="onRequest" xlink:href="CoreBean.html" xlink:show="new" xlink:title="CoreBean.html" xlink:type="simple"><rect codeLine="25" fill="#FEFECE" filter="url(#f1wudllcveqcb5)" height="176.0469" id="org.apache.wiki.ui.admin.beans.CoreBean" style="stroke: #A80036; stroke-width: 1.5;" width="201" x="249.5" y="218"/><ellipse cx="315.25" cy="234" fill="#ADD1B2" rx="11" ry="11" style="stroke: #A80036; stroke-width: 1.0;"/><path d="M318.2188,239.6406 Q317.6406,239.9375 317,240.0781 Q316.3594,240.2344 315.6563,240.2344 Q313.1563,240.2344 311.8281,238.5938 Q310.5156,236.9375 310.5156,233.8125 Q310.5156,230.6875 311.8281,229.0313 Q313.1563,227.375 315.6563,227.375 Q316.3594,227.375 317,227.5313 Q317.6563,227.6875 318.2188,227.9844 L318.2188,230.7031 Q317.5938,230.125 317,229.8594 Q316.4063,229.5781 315.7813,229.5781 Q314.4375,229.5781 313.75,230.6563 Q313.0625,231.7188 313.0625,233.8125 Q313.0625,235.9063 313.75,236.9844 Q314.4375,238.0469 315.7813,238.0469 Q316.4063,238.0469 317,237.7813 Q317.5938,237.5 318.2188,236.9219 L318.2188,239.6406 Z "/><text fill="#000000" font-family="sans-serif" font-size="12" lengthAdjust="spacingAndGlyphs" textLength="61" x="335.75" y="238.1543">CoreBean</text><line style="stroke: #A80036; stroke-width: 1.5;" x1="250.5" x2="449.5" y1="250" y2="250"/><line style="stroke: #A80036; stroke-width: 1.5;" x1="250.5" x2="449.5" y1="258" y2="258"/><ellipse cx="260.5" cy="269" fill="#84BE84" rx="3" ry="3" style="stroke: #038048; stroke-width: 1.0;"/><text fill="#000000" font-family="sans-serif" font-size="11" lengthAdjust="spacingAndGlyphs" textLength="102" x="269.5" y="272.2104">CoreBean(Engine)</text><ellipse cx="260.5" cy="281.8047" fill="#84BE84" rx="3" ry="3" style="stroke: #038048; stroke-width: 1.0;"/><text fill="#000000" font-family="sans-serif" font-size="11" lengthAdjust="spacingAndGlyphs" textLength="83" x="269.5" y="285.0151">getPages(): int</text><ellipse cx="260.5" cy="294.6094" fill="#84BE84" rx="3" ry="3" style="stroke: #038048; stroke-width: 1.0;"/><text fill="#000000" font-family="sans-serif" font-size="11" lengthAdjust="spacingAndGlyphs" textLength="167" x="269.5" y="297.8198">getPagesDescription(): String</text><ellipse cx="260.5" cy="307.4141" fill="#84BE84" rx="3" ry="3" style="stroke: #038048; stroke-width: 1.0;"/><text fill="#000000" font-family="sans-serif" font-size="11" lengthAdjust="spacingAndGlyphs" textLength="111" x="269.5" y="310.6245">getVersion(): String</text><ellipse cx="260.5" cy="320.2188" fill="#84BE84" rx="3" ry="3" style="stroke: #038048; stroke-width: 1.0;"/><text fill="#000000" font-family="sans-serif" font-size="11" lengthAdjust="spacingAndGlyphs" textLength="175" x="269.5" y="323.4292">getVersionDescription(): String</text><ellipse cx="260.5" cy="333.0234" fill="#84BE84" rx="3" ry="3" style="stroke: #038048; stroke-width: 1.0;"/><text fill="#000000" font-family="sans-serif" font-size="11" lengthAdjust="spacingAndGlyphs" textLength="92" x="269.5" y="336.2339">getTitle(): String</text><ellipse cx="260.5" cy="345.8281" fill="#84BE84" rx="3" ry="3" style="stroke: #038048; stroke-width: 1.0;"/><text fill="#000000" font-family="sans-serif" font-size="11" lengthAdjust="spacingAndGlyphs" textLength="75" x="269.5" y="349.0386">getType(): int</text><ellipse cx="260.5" cy="358.6328" fill="#84BE84" rx="3" ry="3" style="stroke: #038048; stroke-width: 1.0;"/><text fill="#000000" font-family="sans-serif" font-size="11" lengthAdjust="spacingAndGlyphs" textLength="78" x="269.5" y="361.8433">getId(): String</text><ellipse cx="260.5" cy="371.4375" fill="#84BE84" rx="3" ry="3" style="stroke: #038048; stroke-width: 1.0;"/><text fill="#000000" font-family="sans-serif" font-size="11" lengthAdjust="spacingAndGlyphs" textLength="164" x="269.5" y="374.6479">getAttributeNames(): String[]</text><ellipse cx="260.5" cy="384.2422" fill="#84BE84" rx="3" ry="3" style="stroke: #038048; stroke-width: 1.0;"/><text fill="#000000" font-family="sans-serif" font-size="11" lengthAdjust="spacingAndGlyphs" textLength="157" x="269.5" y="387.4526">getMethodNames(): String[]</text></a><!--MD5=[f4502289d78f577e0c7f7be224bf5277]
class org.apache.wiki.ui.admin.beans.SearchManagerBean--><a href="SearchManagerBean.html" target="_top" title="SearchManagerBean.html" xlink:actuate="onRequest" xlink:href="SearchManagerBean.html" xlink:show="new" xlink:title="SearchManagerBean.html" xlink:type="simple"><rect codeLine="38" fill="#FEFECE" filter="url(#f1wudllcveqcb5)" height="150.4375" id="org.apache.wiki.ui.admin.beans.SearchManagerBean" style="stroke: #A80036; stroke-width: 1.5;" width="190" x="24" y="231"/><ellipse cx="51.15" cy="247" fill="#ADD1B2" rx="11" ry="11" style="stroke: #A80036; stroke-width: 1.0;"/><path d="M54.1188,252.6406 Q53.5406,252.9375 52.9,253.0781 Q52.2594,253.2344 51.5563,253.2344 Q49.0563,253.2344 47.7281,251.5938 Q46.4156,249.9375 46.4156,246.8125 Q46.4156,243.6875 47.7281,242.0313 Q49.0563,240.375 51.5563,240.375 Q52.2594,240.375 52.9,240.5313 Q53.5563,240.6875 54.1188,240.9844 L54.1188,243.7031 Q53.4938,243.125 52.9,242.8594 Q52.3063,242.5781 51.6813,242.5781 Q50.3375,242.5781 49.65,243.6563 Q48.9625,244.7188 48.9625,246.8125 Q48.9625,248.9063 49.65,249.9844 Q50.3375,251.0469 51.6813,251.0469 Q52.3063,251.0469 52.9,250.7813 Q53.4938,250.5 54.1188,249.9219 L54.1188,252.6406 Z "/><text fill="#000000" font-family="sans-serif" font-size="12" lengthAdjust="spacingAndGlyphs" textLength="131" x="67.85" y="251.1543">SearchManagerBean</text><line style="stroke: #A80036; stroke-width: 1.5;" x1="25" x2="213" y1="263" y2="263"/><line style="stroke: #A80036; stroke-width: 1.5;" x1="25" x2="213" y1="271" y2="271"/><ellipse cx="35" cy="282" fill="#84BE84" rx="3" ry="3" style="stroke: #038048; stroke-width: 1.0;"/><text fill="#000000" font-family="sans-serif" font-size="11" lengthAdjust="spacingAndGlyphs" textLength="164" x="44" y="285.2104">SearchManagerBean(Engine)</text><ellipse cx="35" cy="294.8047" fill="#84BE84" rx="3" ry="3" style="stroke: #038048; stroke-width: 1.0;"/><text fill="#000000" font-family="sans-serif" font-size="11" lengthAdjust="spacingAndGlyphs" textLength="164" x="44" y="298.0151">getAttributeNames(): String[]</text><ellipse cx="35" cy="307.6094" fill="#84BE84" rx="3" ry="3" style="stroke: #038048; stroke-width: 1.0;"/><text fill="#000000" font-family="sans-serif" font-size="11" lengthAdjust="spacingAndGlyphs" textLength="157" x="44" y="310.8198">getMethodNames(): String[]</text><ellipse cx="35" cy="320.4141" fill="#84BE84" rx="3" ry="3" style="stroke: #038048; stroke-width: 1.0;"/><text fill="#000000" font-family="sans-serif" font-size="11" lengthAdjust="spacingAndGlyphs" textLength="92" x="44" y="323.6245">getTitle(): String</text><ellipse cx="35" cy="333.2188" fill="#84BE84" rx="3" ry="3" style="stroke: #038048; stroke-width: 1.0;"/><text fill="#000000" font-family="sans-serif" font-size="11" lengthAdjust="spacingAndGlyphs" textLength="75" x="44" y="336.4292">reload(): void</text><ellipse cx="35" cy="346.0234" fill="#84BE84" rx="3" ry="3" style="stroke: #038048; stroke-width: 1.0;"/><text fill="#000000" font-family="sans-serif" font-size="11" lengthAdjust="spacingAndGlyphs" textLength="75" x="44" y="349.2339">getType(): int</text><ellipse cx="35" cy="358.8281" fill="#84BE84" rx="3" ry="3" style="stroke: #038048; stroke-width: 1.0;"/><text fill="#000000" font-family="sans-serif" font-size="11" lengthAdjust="spacingAndGlyphs" textLength="127" x="44" y="362.0386">doGet(Context): String</text><ellipse cx="35" cy="371.6328" fill="#84BE84" rx="3" ry="3" style="stroke: #038048; stroke-width: 1.0;"/><text fill="#000000" font-family="sans-serif" font-size="11" lengthAdjust="spacingAndGlyphs" textLength="132" x="44" y="374.8433">doPost(Context): String</text></a><!--MD5=[fa3bdf59ff49a0b4f88c7ee155846082]
class org.apache.wiki.ui.admin.beans.PlainEditorAdminBean--><a href="PlainEditorAdminBean.html" target="_top" title="PlainEditorAdminBean.html" xlink:actuate="onRequest" xlink:href="PlainEditorAdminBean.html" xlink:show="new" xlink:title="PlainEditorAdminBean.html" xlink:type="simple"><rect codeLine="49" fill="#FEFECE" filter="url(#f1wudllcveqcb5)" height="176.0469" id="org.apache.wiki.ui.admin.beans.PlainEditorAdminBean" style="stroke: #A80036; stroke-width: 1.5;" width="190" x="1024" y="218"/><ellipse cx="1048.45" cy="234" fill="#ADD1B2" rx="11" ry="11" style="stroke: #A80036; stroke-width: 1.0;"/><path d="M1051.4188,239.6406 Q1050.8406,239.9375 1050.2,240.0781 Q1049.5594,240.2344 1048.8563,240.2344 Q1046.3563,240.2344 1045.0281,238.5938 Q1043.7156,236.9375 1043.7156,233.8125 Q1043.7156,230.6875 1045.0281,229.0313 Q1046.3563,227.375 1048.8563,227.375 Q1049.5594,227.375 1050.2,227.5313 Q1050.8563,227.6875 1051.4188,227.9844 L1051.4188,230.7031 Q1050.7938,230.125 1050.2,229.8594 Q1049.6063,229.5781 1048.9813,229.5781 Q1047.6375,229.5781 1046.95,230.6563 Q1046.2625,231.7188 1046.2625,233.8125 Q1046.2625,235.9063 1046.95,236.9844 Q1047.6375,238.0469 1048.9813,238.0469 Q1049.6063,238.0469 1050.2,237.7813 Q1050.7938,237.5 1051.4188,236.9219 L1051.4188,239.6406 Z "/><text fill="#000000" font-family="sans-serif" font-size="12" lengthAdjust="spacingAndGlyphs" textLength="137" x="1064.55" y="238.1543">PlainEditorAdminBean</text><line style="stroke: #A80036; stroke-width: 1.5;" x1="1025" x2="1213" y1="250" y2="250"/><line style="stroke: #A80036; stroke-width: 1.5;" x1="1025" x2="1213" y1="258" y2="258"/><ellipse cx="1035" cy="269" fill="#84BE84" rx="3" ry="3" style="stroke: #038048; stroke-width: 1.0;"/><text fill="#000000" font-family="sans-serif" font-size="11" lengthAdjust="spacingAndGlyphs" textLength="127" x="1044" y="272.2104">doGet(Context): String</text><ellipse cx="1035" cy="281.8047" fill="#84BE84" rx="3" ry="3" style="stroke: #038048; stroke-width: 1.0;"/><text fill="#000000" font-family="sans-serif" font-size="11" lengthAdjust="spacingAndGlyphs" textLength="132" x="1044" y="285.0151">doPost(Context): String</text><ellipse cx="1035" cy="294.6094" fill="#84BE84" rx="3" ry="3" style="stroke: #038048; stroke-width: 1.0;"/><text fill="#000000" font-family="sans-serif" font-size="11" lengthAdjust="spacingAndGlyphs" textLength="92" x="1044" y="297.8198">getTitle(): String</text><ellipse cx="1035" cy="307.4141" fill="#84BE84" rx="3" ry="3" style="stroke: #038048; stroke-width: 1.0;"/><text fill="#000000" font-family="sans-serif" font-size="11" lengthAdjust="spacingAndGlyphs" textLength="75" x="1044" y="310.6245">getType(): int</text><ellipse cx="1035" cy="320.2188" fill="#84BE84" rx="3" ry="3" style="stroke: #038048; stroke-width: 1.0;"/><text fill="#000000" font-family="sans-serif" font-size="11" lengthAdjust="spacingAndGlyphs" textLength="116" x="1044" y="323.4292">isEnabled(): boolean</text><ellipse cx="1035" cy="333.0234" fill="#84BE84" rx="3" ry="3" style="stroke: #038048; stroke-width: 1.0;"/><text fill="#000000" font-family="sans-serif" font-size="11" lengthAdjust="spacingAndGlyphs" textLength="78" x="1044" y="336.2339">getId(): String</text><ellipse cx="1035" cy="345.8281" fill="#84BE84" rx="3" ry="3" style="stroke: #038048; stroke-width: 1.0;"/><text fill="#000000" font-family="sans-serif" font-size="11" lengthAdjust="spacingAndGlyphs" textLength="127" x="1044" y="349.0386">getChecked(): boolean</text><ellipse cx="1035" cy="358.6328" fill="#84BE84" rx="3" ry="3" style="stroke: #038048; stroke-width: 1.0;"/><text fill="#000000" font-family="sans-serif" font-size="11" lengthAdjust="spacingAndGlyphs" textLength="164" x="1044" y="361.8433">getAttributeNames(): String[]</text><ellipse cx="1035" cy="371.4375" fill="#84BE84" rx="3" ry="3" style="stroke: #038048; stroke-width: 1.0;"/><text fill="#000000" font-family="sans-serif" font-size="11" lengthAdjust="spacingAndGlyphs" textLength="157" x="1044" y="374.6479">getMethodNames(): String[]</text><ellipse cx="1035" cy="384.2422" fill="#84BE84" rx="3" ry="3" style="stroke: #038048; stroke-width: 1.0;"/><text fill="#000000" font-family="sans-serif" font-size="11" lengthAdjust="spacingAndGlyphs" textLength="122" x="1044" y="387.4526">initialize(Engine): void</text></a><!--MD5=[7342196c61dd24d5387649e3050af40f]
class org.apache.wiki.ui.admin.beans.FilterBean--><a href="FilterBean.html" target="_top" title="FilterBean.html" xlink:actuate="onRequest" xlink:href="FilterBean.html" xlink:show="new" xlink:title="FilterBean.html" xlink:type="simple"><rect codeLine="62" fill="#FEFECE" filter="url(#f1wudllcveqcb5)" height="124.8281" id="org.apache.wiki.ui.admin.beans.FilterBean" style="stroke: #A80036; stroke-width: 1.5;" width="246" x="566" y="454"/><ellipse cx="653.25" cy="470" fill="#ADD1B2" rx="11" ry="11" style="stroke: #A80036; stroke-width: 1.0;"/><path d="M656.2188,475.6406 Q655.6406,475.9375 655,476.0781 Q654.3594,476.2344 653.6563,476.2344 Q651.1563,476.2344 649.8281,474.5938 Q648.5156,472.9375 648.5156,469.8125 Q648.5156,466.6875 649.8281,465.0313 Q651.1563,463.375 653.6563,463.375 Q654.3594,463.375 655,463.5313 Q655.6563,463.6875 656.2188,463.9844 L656.2188,466.7031 Q655.5938,466.125 655,465.8594 Q654.4063,465.5781 653.7813,465.5781 Q652.4375,465.5781 651.75,466.6563 Q651.0625,467.7188 651.0625,469.8125 Q651.0625,471.9063 651.75,472.9844 Q652.4375,474.0469 653.7813,474.0469 Q654.4063,474.0469 655,473.7813 Q655.5938,473.5 656.2188,472.9219 L656.2188,475.6406 Z "/><text fill="#000000" font-family="sans-serif" font-size="12" lengthAdjust="spacingAndGlyphs" textLength="63" x="673.75" y="474.1543">FilterBean</text><line style="stroke: #A80036; stroke-width: 1.5;" x1="567" x2="811" y1="486" y2="486"/><line style="stroke: #A80036; stroke-width: 1.5;" x1="567" x2="811" y1="494" y2="494"/><ellipse cx="577" cy="505" fill="#84BE84" rx="3" ry="3" style="stroke: #038048; stroke-width: 1.0;"/><text fill="#000000" font-family="sans-serif" font-size="11" lengthAdjust="spacingAndGlyphs" textLength="103" x="586" y="508.2104">FilterBean(Engine)</text><ellipse cx="577" cy="517.8047" fill="#84BE84" rx="3" ry="3" style="stroke: #038048; stroke-width: 1.0;"/><text fill="#000000" font-family="sans-serif" font-size="11" lengthAdjust="spacingAndGlyphs" textLength="92" x="586" y="521.0151">getTitle(): String</text><ellipse cx="577" cy="530.6094" fill="#84BE84" rx="3" ry="3" style="stroke: #038048; stroke-width: 1.0;"/><text fill="#000000" font-family="sans-serif" font-size="11" lengthAdjust="spacingAndGlyphs" textLength="75" x="586" y="533.8198">getType(): int</text><polygon fill="#FFFF44" points="577,538.4141,581,542.4141,577,546.4141,573,542.4141" style="stroke: #B38D22; stroke-width: 1.0;"/><text fill="#000000" font-family="sans-serif" font-size="11" lengthAdjust="spacingAndGlyphs" textLength="220" x="586" y="546.6245">modules(): Collection&lt;WikiModuleInfo&gt;</text><polygon fill="#FFFF44" points="577,551.2188,581,555.2188,577,559.2188,573,555.2188" style="stroke: #B38D22; stroke-width: 1.0;"/><text fill="#000000" font-family="sans-serif" font-size="11" lengthAdjust="spacingAndGlyphs" textLength="107" x="586" y="559.4292">heading(): Element</text><polygon fill="#FFFF44" points="577,564.0234,581,568.0234,577,572.0234,573,568.0234" style="stroke: #B38D22; stroke-width: 1.0;"/><text fill="#000000" font-family="sans-serif" font-size="11" lengthAdjust="spacingAndGlyphs" textLength="193" x="586" y="572.2339">rowBody(WikiModuleInfo): Element</text></a><!--MD5=[0beda2561645e205a02a1aa514f1ee2a]
class org.apache.wiki.ui.admin.beans.PluginBean--><a href="PluginBean.html" target="_top" title="PluginBean.html" xlink:actuate="onRequest" xlink:href="PluginBean.html" xlink:show="new" xlink:title="PluginBean.html" xlink:type="simple"><rect codeLine="71" fill="#FEFECE" filter="url(#f1wudllcveqcb5)" height="124.8281" id="org.apache.wiki.ui.admin.beans.PluginBean" style="stroke: #A80036; stroke-width: 1.5;" width="246" x="847" y="454"/><ellipse cx="930.75" cy="470" fill="#ADD1B2" rx="11" ry="11" style="stroke: #A80036; stroke-width: 1.0;"/><path d="M933.7188,475.6406 Q933.1406,475.9375 932.5,476.0781 Q931.8594,476.2344 931.1563,476.2344 Q928.6563,476.2344 927.3281,474.5938 Q926.0156,472.9375 926.0156,469.8125 Q926.0156,466.6875 927.3281,465.0313 Q928.6563,463.375 931.1563,463.375 Q931.8594,463.375 932.5,463.5313 Q933.1563,463.6875 933.7188,463.9844 L933.7188,466.7031 Q933.0938,466.125 932.5,465.8594 Q931.9063,465.5781 931.2813,465.5781 Q929.9375,465.5781 929.25,466.6563 Q928.5625,467.7188 928.5625,469.8125 Q928.5625,471.9063 929.25,472.9844 Q929.9375,474.0469 931.2813,474.0469 Q931.9063,474.0469 932.5,473.7813 Q933.0938,473.5 933.7188,472.9219 L933.7188,475.6406 Z "/><text fill="#000000" font-family="sans-serif" font-size="12" lengthAdjust="spacingAndGlyphs" textLength="70" x="951.25" y="474.1543">PluginBean</text><line style="stroke: #A80036; stroke-width: 1.5;" x1="848" x2="1092" y1="486" y2="486"/><line style="stroke: #A80036; stroke-width: 1.5;" x1="848" x2="1092" y1="494" y2="494"/><ellipse cx="858" cy="505" fill="#84BE84" rx="3" ry="3" style="stroke: #038048; stroke-width: 1.0;"/><text fill="#000000" font-family="sans-serif" font-size="11" lengthAdjust="spacingAndGlyphs" textLength="109" x="867" y="508.2104">PluginBean(Engine)</text><ellipse cx="858" cy="517.8047" fill="#84BE84" rx="3" ry="3" style="stroke: #038048; stroke-width: 1.0;"/><text fill="#000000" font-family="sans-serif" font-size="11" lengthAdjust="spacingAndGlyphs" textLength="92" x="867" y="521.0151">getTitle(): String</text><ellipse cx="858" cy="530.6094" fill="#84BE84" rx="3" ry="3" style="stroke: #038048; stroke-width: 1.0;"/><text fill="#000000" font-family="sans-serif" font-size="11" lengthAdjust="spacingAndGlyphs" textLength="75" x="867" y="533.8198">getType(): int</text><polygon fill="#FFFF44" points="858,538.4141,862,542.4141,858,546.4141,854,542.4141" style="stroke: #B38D22; stroke-width: 1.0;"/><text fill="#000000" font-family="sans-serif" font-size="11" lengthAdjust="spacingAndGlyphs" textLength="220" x="867" y="546.6245">modules(): Collection&lt;WikiModuleInfo&gt;</text><polygon fill="#FFFF44" points="858,551.2188,862,555.2188,858,559.2188,854,555.2188" style="stroke: #B38D22; stroke-width: 1.0;"/><text fill="#000000" font-family="sans-serif" font-size="11" lengthAdjust="spacingAndGlyphs" textLength="107" x="867" y="559.4292">heading(): Element</text><polygon fill="#FFFF44" points="858,564.0234,862,568.0234,858,572.0234,854,568.0234" style="stroke: #B38D22; stroke-width: 1.0;"/><text fill="#000000" font-family="sans-serif" font-size="11" lengthAdjust="spacingAndGlyphs" textLength="193" x="867" y="572.2339">rowBody(WikiModuleInfo): Element</text></a><!--MD5=[4b823098d8674ba19cb416ea00e3335e]
class org.apache.wiki.ui.admin.SimpleAdminBean--><a href="../SimpleAdminBean.html" target="_top" title="../SimpleAdminBean.html" xlink:actuate="onRequest" xlink:href="../SimpleAdminBean.html" xlink:show="new" xlink:title="../SimpleAdminBean.html" xlink:type="simple"><rect codeLine="91" fill="#FEFECE" filter="url(#f1wudllcveqcb5)" height="60.8047" id="org.apache.wiki.ui.admin.SimpleAdminBean" style="stroke: #A80036; stroke-width: 1.5;" width="143" x="509.5" y="65"/><ellipse cx="524.5" cy="81" fill="#A9DCDF" rx="11" ry="11" style="stroke: #A80036; stroke-width: 1.0;"/><path d="M524.6094,76.3438 L523.4531,81.4219 L525.7813,81.4219 L524.6094,76.3438 Z M523.125,74.1094 L526.1094,74.1094 L529.4688,86.5 L527.0156,86.5 L526.25,83.4375 L522.9688,83.4375 L522.2188,86.5 L519.7813,86.5 L523.125,74.1094 Z "/><text fill="#000000" font-family="sans-serif" font-size="12" font-style="italic" lengthAdjust="spacingAndGlyphs" textLength="111" x="538.5" y="85.1543">SimpleAdminBean</text><line style="stroke: #A80036; stroke-width: 1.5;" x1="510.5" x2="651.5" y1="97" y2="97"/><polygon fill="none" points="520.5,103,524.5,107,520.5,111,516.5,107" style="stroke: #B38D22; stroke-width: 1.0;"/><text fill="#000000" font-family="sans-serif" font-size="11" lengthAdjust="spacingAndGlyphs" textLength="101" x="529.5" y="111.2104">m_engine: Engine</text><line style="stroke: #A80036; stroke-width: 1.5;" x1="510.5" x2="651.5" y1="117.8047" y2="117.8047"/></a><!--MD5=[3517fb5c0510b94d58fc0166fd09be85]
class org.apache.wiki.ui.admin.AdminBean--><a href="../AdminBean.html" target="_top" title="../AdminBean.html" xlink:actuate="onRequest" xlink:href="../AdminBean.html" xlink:show="new" xlink:title="../AdminBean.html" xlink:type="simple"><rect codeLine="94" fill="#FEFECE" filter="url(#f1wudllcveqcb5)" height="124.8281" id="org.apache.wiki.ui.admin.AdminBean" style="stroke: #A80036; stroke-width: 1.5;" width="150" x="688" y="33"/><ellipse cx="724.6" cy="49" fill="#B4A7E5" rx="11" ry="11" style="stroke: #A80036; stroke-width: 1.0;"/><path d="M720.5219,44.7656 L720.5219,42.6094 L727.9125,42.6094 L727.9125,44.7656 L725.4438,44.7656 L725.4438,52.8438 L727.9125,52.8438 L727.9125,55 L720.5219,55 L720.5219,52.8438 L722.9906,52.8438 L722.9906,44.7656 L720.5219,44.7656 Z "/><text fill="#000000" font-family="sans-serif" font-size="12" font-style="italic" lengthAdjust="spacingAndGlyphs" textLength="70" x="743.4" y="53.1543">AdminBean</text><line style="stroke: #A80036; stroke-width: 1.5;" x1="689" x2="837" y1="65" y2="65"/><ellipse cx="699" cy="76" fill="none" rx="3" ry="3" style="stroke: #038048; stroke-width: 1.0;"/><text fill="#000000" font-family="sans-serif" font-size="11" lengthAdjust="spacingAndGlyphs" text-decoration="underline" textLength="79" x="708" y="79.2104">UNKNOWN: int</text><ellipse cx="699" cy="88.8047" fill="none" rx="3" ry="3" style="stroke: #038048; stroke-width: 1.0;"/><text fill="#000000" font-family="sans-serif" font-size="11" lengthAdjust="spacingAndGlyphs" text-decoration="underline" textLength="53" x="708" y="92.0151">CORE: int</text><ellipse cx="699" cy="101.6094" fill="none" rx="3" ry="3" style="stroke: #038048; stroke-width: 1.0;"/><text fill="#000000" font-family="sans-serif" font-size="11" lengthAdjust="spacingAndGlyphs" text-decoration="underline" textLength="63" x="708" y="104.8198">EDITOR: int</text><line style="stroke: #A80036; stroke-width: 1.5;" x1="689" x2="837" y1="111.4141" y2="111.4141"/><ellipse cx="699" cy="122.4141" fill="#84BE84" rx="3" ry="3" style="stroke: #038048; stroke-width: 1.0;"/><text fill="#000000" font-family="sans-serif" font-size="11" font-style="italic" lengthAdjust="spacingAndGlyphs" textLength="124" x="708" y="125.6245">initialize(Engine): void</text><ellipse cx="699" cy="135.2188" fill="#84BE84" rx="3" ry="3" style="stroke: #038048; stroke-width: 1.0;"/><text fill="#000000" font-family="sans-serif" font-size="11" font-style="italic" lengthAdjust="spacingAndGlyphs" textLength="91" x="708" y="138.4292">getTitle(): String</text><ellipse cx="699" cy="148.0234" fill="#84BE84" rx="3" ry="3" style="stroke: #038048; stroke-width: 1.0;"/><text fill="#000000" font-family="sans-serif" font-size="11" font-style="italic" lengthAdjust="spacingAndGlyphs" textLength="76" x="708" y="151.2339">getType(): int</text></a><!--MD5=[a9696cc3406e3bfeff149f6647ff5cab]
class org.apache.wiki.management.SimpleMBean--><a href="../../../management/SimpleMBean.html" target="_top" title="../../../management/SimpleMBean.html" xlink:actuate="onRequest" xlink:href="../../../management/SimpleMBean.html" xlink:show="new" xlink:title="../../../management/SimpleMBean.html" xlink:type="simple"><rect codeLine="105" fill="#FEFECE" filter="url(#f1wudllcveqcb5)" height="86.4141" id="org.apache.wiki.management.SimpleMBean" style="stroke: #A80036; stroke-width: 1.5;" width="189" x="1024.5" y="52.5"/><ellipse cx="1073.25" cy="68.5" fill="#A9DCDF" rx="11" ry="11" style="stroke: #A80036; stroke-width: 1.0;"/><path d="M1073.3594,63.8438 L1072.2031,68.9219 L1074.5313,68.9219 L1073.3594,63.8438 Z M1071.875,61.6094 L1074.8594,61.6094 L1078.2188,74 L1075.7656,74 L1075,70.9375 L1071.7188,70.9375 L1070.9688,74 L1068.5313,74 L1071.875,61.6094 Z "/><text fill="#000000" font-family="sans-serif" font-size="12" font-style="italic" lengthAdjust="spacingAndGlyphs" textLength="83" x="1093.75" y="72.6543">SimpleMBean</text><line style="stroke: #A80036; stroke-width: 1.5;" x1="1025.5" x2="1212.5" y1="84.5" y2="84.5"/><polygon fill="none" points="1035.5,90.5,1039.5,94.5,1035.5,98.5,1031.5,94.5" style="stroke: #B38D22; stroke-width: 1.0;"/><text fill="#000000" font-family="sans-serif" font-size="11" lengthAdjust="spacingAndGlyphs" textLength="133" x="1044.5" y="98.7104">m_beanInfo: MBeanInfo</text><line style="stroke: #A80036; stroke-width: 1.5;" x1="1025.5" x2="1212.5" y1="105.3047" y2="105.3047"/><ellipse cx="1035.5" cy="116.3047" fill="#84BE84" rx="3" ry="3" style="stroke: #038048; stroke-width: 1.0;"/><text fill="#000000" font-family="sans-serif" font-size="11" font-style="italic" lengthAdjust="spacingAndGlyphs" textLength="163" x="1044.5" y="119.5151">getAttributeNames(): String[]</text><ellipse cx="1035.5" cy="129.1094" fill="#84BE84" rx="3" ry="3" style="stroke: #038048; stroke-width: 1.0;"/><text fill="#000000" font-family="sans-serif" font-size="11" font-style="italic" lengthAdjust="spacingAndGlyphs" textLength="155" x="1044.5" y="132.3198">getMethodNames(): String[]</text></a><!--MD5=[e4bbc004e4cd596be5c4ae748f36c9f6]
reverse link org.apache.wiki.ui.admin.SimpleAdminBean to org.apache.wiki.ui.admin.beans.ModuleBean--><path codeLine="80" d="M635.8588,138.4833 C647.4611,147.5711 659.6331,157.1028 671,166 C692.4364,182.7789 715.3211,200.6835 737.316,217.888 " fill="none" id="org.apache.wiki.ui.admin.SimpleAdminBean-backto-org.apache.wiki.ui.admin.beans.ModuleBean" style="stroke: #A80036; stroke-width: 1.0;"/><polygon fill="none" points="631.4066,143.8878,619.9789,126.0438,640.0401,132.8667,631.4066,143.8878" style="stroke: #A80036; stroke-width: 1.0;"/><!--MD5=[a5800cf21b59961b691f39be1f00b754]
reverse link org.apache.wiki.ui.admin.SimpleAdminBean to org.apache.wiki.ui.admin.beans.UserBean--><path codeLine="81" d="M581,146.2224 C581,175.3706 581,212.2273 581,243.195 " fill="none" id="org.apache.wiki.ui.admin.SimpleAdminBean-backto-org.apache.wiki.ui.admin.beans.UserBean" style="stroke: #A80036; stroke-width: 1.0;"/><polygon fill="none" points="574.0001,146.1085,581,126.1085,588.0001,146.1085,574.0001,146.1085" style="stroke: #A80036; stroke-width: 1.0;"/><!--MD5=[9b24dc26102375f1222e9745d75864d7]
reverse link org.apache.wiki.ui.admin.SimpleAdminBean to org.apache.wiki.ui.admin.beans.CoreBean--><path codeLine="82" d="M528.3703,139.214 C509.4302,155.2492 488.045,173.7086 469,191 C459.5344,199.5941 449.7638,208.6753 440.0803,217.8145 " fill="none" id="org.apache.wiki.ui.admin.SimpleAdminBean-backto-org.apache.wiki.ui.admin.beans.CoreBean" style="stroke: #A80036; stroke-width: 1.0;"/><polygon fill="none" points="524.1223,133.64,543.9313,126.1162,533.1378,144.3509,524.1223,133.64" style="stroke: #A80036; stroke-width: 1.0;"/><!--MD5=[f41e50272af7cf222efc3001e245f110]
reverse link org.apache.wiki.ui.admin.SimpleAdminBean to org.apache.wiki.ui.admin.beans.SearchManagerBean--><path codeLine="83" d="M489.3138,107.1228 C415.7694,119.5082 311.9803,144.0699 232,191 C213.8938,201.6242 196.6978,215.8938 181.4328,230.7609 " fill="none" id="org.apache.wiki.ui.admin.SimpleAdminBean-backto-org.apache.wiki.ui.admin.beans.SearchManagerBean" style="stroke: #A80036; stroke-width: 1.0;"/><polygon fill="none" points="488.3562,100.1871,509.2102,103.944,490.5651,114.0118,488.3562,100.1871" style="stroke: #A80036; stroke-width: 1.0;"/><!--MD5=[0e5d237d817b7583e019505be234d12e]
reverse link org.apache.wiki.management.SimpleMBean to org.apache.wiki.ui.admin.beans.PlainEditorAdminBean--><path codeLine="84" d="M1119,158.8625 C1119,177.3929 1119,197.9933 1119,217.7702 " fill="none" id="org.apache.wiki.management.SimpleMBean-backto-org.apache.wiki.ui.admin.beans.PlainEditorAdminBean" style="stroke: #A80036; stroke-width: 1.0;"/><polygon fill="none" points="1112.0001,158.6058,1119,138.6058,1126.0001,158.6057,1112.0001,158.6058" style="stroke: #A80036; stroke-width: 1.0;"/><!--MD5=[a7740c23a8ca9b2973570bbd036450ce]
reverse link org.apache.wiki.ui.admin.AdminBean to org.apache.wiki.ui.admin.beans.PlainEditorAdminBean--><path codeLine="85" d="M857.2949,122.2594 C904.2675,138.081 960.5764,160.9589 1006,191 C1017.7901,198.7974 1029.3259,207.9936 1040.2489,217.7333 " fill="none" id="org.apache.wiki.ui.admin.AdminBean-backto-org.apache.wiki.ui.admin.beans.PlainEditorAdminBean" style="stroke: #A80036; stroke-width: 1.0; stroke-dasharray: 7.0,7.0;"/><polygon fill="none" points="854.9779,128.8667,838.1298,116.016,859.3144,115.5553,854.9779,128.8667" style="stroke: #A80036; stroke-width: 1.0;"/><!--MD5=[b272b87b60605509cdeb62fbe5c8d212]
reverse link org.apache.wiki.ui.admin.beans.ModuleBean to org.apache.wiki.ui.admin.beans.FilterBean--><path codeLine="86" d="M770.3366,410.1562 C758.937,425.0607 747.5149,439.9944 736.9851,453.7617 " fill="none" id="org.apache.wiki.ui.admin.beans.ModuleBean-backto-org.apache.wiki.ui.admin.beans.FilterBean" style="stroke: #A80036; stroke-width: 1.0;"/><polygon fill="none" points="764.9438,405.6847,782.6544,394.0513,776.0641,414.19,764.9438,405.6847" style="stroke: #A80036; stroke-width: 1.0;"/><!--MD5=[b56e03e824a683c894d21505a50509d2]
reverse link org.apache.wiki.ui.admin.beans.ModuleBean to org.apache.wiki.ui.admin.beans.PluginBean--><path codeLine="87" d="M910.19,411.5833 C918.4158,426.0127 926.6369,440.4338 934.2347,453.7617 " fill="none" id="org.apache.wiki.ui.admin.beans.ModuleBean-backto-org.apache.wiki.ui.admin.beans.PluginBean" style="stroke: #A80036; stroke-width: 1.0;"/><polygon fill="none" points="904.0193,414.8931,900.1955,394.0513,916.1818,407.9595,904.0193,414.8931" style="stroke: #A80036; stroke-width: 1.0;"/><text fill="#888888" font-family="sans-serif" font-size="10" lengthAdjust="spacingAndGlyphs" textLength="192" x="527.5" y="602.2822">UMLDoclet 2.0.12, PlantUML 1.2020.16</text><!--MD5=[ce545c626e2fb2baac340ecc45d2b4e4]
@startuml
    namespace org.apache.wiki.ui.admin.beans {

        abstract class ModuleBean [[ModuleBean.html]] {
            +ModuleBean(Engine)
            +getAttributeNames(): String[]
            +getMethodNames(): String[]
            +doGet(Context): String
            #title(): Element
            #containerForModuleDetail(Element): Element
            {abstract} #modules(): Collection<WikiModuleInfo>
            {abstract} #heading(): Element
            {abstract} #rowBody(WikiModuleInfo): Element
            #validModuleVersion(WikiModuleInfo): String
        }

        class UserBean [[UserBean.html]] {
            +UserBean(Engine)
            +getAttributeNames(): String[]
            +getMethodNames(): String[]
            +doPost(Context): String
            +getTitle(): String
            +getType(): int
        }

        class CoreBean [[CoreBean.html]] {
            +CoreBean(Engine)
            +getPages(): int
            +getPagesDescription(): String
            +getVersion(): String
            +getVersionDescription(): String
            +getTitle(): String
            +getType(): int
            +getId(): String
            +getAttributeNames(): String[]
            +getMethodNames(): String[]
        }

        class SearchManagerBean [[SearchManagerBean.html]] {
            +SearchManagerBean(Engine)
            +getAttributeNames(): String[]
            +getMethodNames(): String[]
            +getTitle(): String
            +reload(): void
            +getType(): int
            +doGet(Context): String
            +doPost(Context): String
        }

        class PlainEditorAdminBean [[PlainEditorAdminBean.html]] {
            +doGet(Context): String
            +doPost(Context): String
            +getTitle(): String
            +getType(): int
            +isEnabled(): boolean
            +getId(): String
            +getChecked(): boolean
            +getAttributeNames(): String[]
            +getMethodNames(): String[]
            +initialize(Engine): void
        }

        class FilterBean [[FilterBean.html]] {
            +FilterBean(Engine)
            +getTitle(): String
            +getType(): int
            #modules(): Collection<WikiModuleInfo>
            #heading(): Element
            #rowBody(WikiModuleInfo): Element
        }

        class PluginBean [[PluginBean.html]] {
            +PluginBean(Engine)
            +getTitle(): String
            +getType(): int
            #modules(): Collection<WikiModuleInfo>
            #heading(): Element
            #rowBody(WikiModuleInfo): Element
        }

        org.apache.wiki.ui.admin.SimpleAdminBean <|- - ModuleBean
        org.apache.wiki.ui.admin.SimpleAdminBean <|- - UserBean
        org.apache.wiki.ui.admin.SimpleAdminBean <|- - CoreBean
        org.apache.wiki.ui.admin.SimpleAdminBean <|- - SearchManagerBean
        org.apache.wiki.management.SimpleMBean <|- - PlainEditorAdminBean
        org.apache.wiki.ui.admin.AdminBean <|.. PlainEditorAdminBean
        ModuleBean <|- - FilterBean
        ModuleBean <|- - PluginBean
    }

    namespace org.apache.wiki.ui.admin {
        abstract class SimpleAdminBean [[../SimpleAdminBean.html]] {
            #m_engine: Engine
        }
        interface AdminBean [[../AdminBean.html]] {
            {static} +UNKNOWN: int
            {static} +CORE: int
            {static} +EDITOR: int
            {abstract} +initialize(Engine): void
            {abstract} +getTitle(): String
            {abstract} +getType(): int
        }
    }

    namespace org.apache.wiki.management {
        abstract class SimpleMBean [[../../../management/SimpleMBean.html]] {
            #m_beanInfo: MBeanInfo
            {abstract} +getAttributeNames(): String[]
            {abstract} +getMethodNames(): String[]
        }
    }

    center footer UMLDoclet 2.0.12, PlantUML 1.2020.16
@enduml

PlantUML version 1.2020.16(Sun Aug 23 20:20:43 UTC 2020)
(APACHE source distribution)
Java Runtime: Java(TM) SE Runtime Environment
JVM: Java HotSpot(TM) 64-Bit Server VM
Default Encoding: ISO-8859-1
Language: en
Country: US
--></g></svg>