<?xml version="1.0" encoding="UTF-8" standalone="no"?><svg xmlns="http://www.w3.org/2000/svg" xmlns:xlink="http://www.w3.org/1999/xlink" contentScriptType="application/ecmascript" contentStyleType="text/css" height="582px" preserveAspectRatio="none" style="width:319px;height:582px;" version="1.1" viewBox="0 0 319 582" width="319px" zoomAndPan="magnify"><defs><filter height="300%" id="fzi6fjbvt1zsm" width="300%" x="-1" y="-1"><feGaussianBlur result="blurOut" stdDeviation="2.0"/><feColorMatrix in="blurOut" result="blurOut2" type="matrix" values="0 0 0 0 0 0 0 0 0 0 0 0 0 0 0 0 0 0 .4 0"/><feOffset dx="4.0" dy="4.0" in="blurOut2" result="blurOut3"/><feBlend in="SourceGraphic" in2="blurOut3" mode="normal"/></filter></defs><g><!--MD5=[04d44f0b3b9a3cc9fb31fbf7080e83b2]
class org.apache.wiki.providers.CachingAttachmentProvider--><a href="CachingAttachmentProvider.html" target="_top" title="CachingAttachmentProvider.html" xlink:actuate="onRequest" xlink:href="CachingAttachmentProvider.html" xlink:show="new" xlink:title="CachingAttachmentProvider.html" xlink:type="simple"><rect codeLine="5" fill="#FEFECE" filter="url(#fzi6fjbvt1zsm)" height="291.3984" id="org.apache.wiki.providers.CachingAttachmentProvider" style="stroke: #A80036; stroke-width: 1.5;" width="287" x="10" y="254"/><ellipse cx="61.25" cy="274.0938" fill="#ADD1B2" rx="11" ry="11" style="stroke: #A80036; stroke-width: 1.0;"/><path d="M64.0156,269.9688 Q64.1719,269.75 64.3594,269.6406 Q64.5469,269.5313 64.7656,269.5313 Q65.1406,269.5313 65.375,269.7969 Q65.6094,270.0469 65.6094,270.6563 L65.6094,272.1094 Q65.6094,272.7188 65.375,272.9844 Q65.1406,273.25 64.7656,273.25 Q64.4219,273.25 64.2188,273.0469 Q64.0156,272.8594 63.9063,272.3438 Q63.8594,271.9844 63.6719,271.7969 Q63.3438,271.4219 62.7344,271.2031 Q62.125,270.9844 61.5,270.9844 Q60.7344,270.9844 60.0938,271.3125 Q59.4688,271.6406 58.9688,272.3906 Q58.4844,273.1406 58.4844,274.1719 L58.4844,275.2656 Q58.4844,276.5 59.375,277.3281 Q60.2656,278.1406 61.8594,278.1406 Q62.7969,278.1406 63.4531,277.8906 Q63.8438,277.7344 64.2656,277.2969 Q64.5313,277.0313 64.6719,276.9531 Q64.8281,276.875 65.0313,276.875 Q65.3594,276.875 65.6094,277.1406 Q65.875,277.3906 65.875,277.7344 Q65.875,278.0781 65.5313,278.4844 Q65.0313,279.0625 64.2344,279.3906 Q63.1563,279.8438 61.8594,279.8438 Q60.3438,279.8438 59.1406,279.2188 Q58.1563,278.7188 57.4688,277.6563 Q56.7813,276.5781 56.7813,275.2969 L56.7813,274.1406 Q56.7813,272.8125 57.3906,271.6719 Q58.0156,270.5156 59.1094,269.9063 Q60.2031,269.2813 61.4375,269.2813 Q62.1719,269.2813 62.8125,269.4531 Q63.4688,269.6094 64.0156,269.9688 Z "/><text fill="#000000" font-family="sans-serif" font-size="14" lengthAdjust="spacingAndGlyphs" textLength="176" x="81.75" y="273.5332">CachingAttachmentProvider</text><text fill="#000000" font-family="sans-serif" font-size="10" lengthAdjust="spacingAndGlyphs" textLength="119" x="110.25" y="286.9902">org.apache.wiki.providers</text><line style="stroke: #A80036; stroke-width: 1.5;" x1="11" x2="296" y1="294.1875" y2="294.1875"/><ellipse cx="21" cy="305.1875" fill="none" rx="3" ry="3" style="stroke: #038048; stroke-width: 1.0;"/><text fill="#000000" font-family="sans-serif" font-size="11" lengthAdjust="spacingAndGlyphs" text-decoration="underline" textLength="72" x="30" y="309.6064">m_capacity: int</text><ellipse cx="21" cy="319.0234" fill="none" rx="3" ry="3" style="stroke: #038048; stroke-width: 1.0;"/><text fill="#000000" font-family="sans-serif" font-size="11" lengthAdjust="spacingAndGlyphs" text-decoration="underline" textLength="124" x="30" y="323.4424">ATTCACHE_NAME: String</text><ellipse cx="21" cy="332.8594" fill="none" rx="3" ry="3" style="stroke: #038048; stroke-width: 1.0;"/><text fill="#000000" font-family="sans-serif" font-size="11" lengthAdjust="spacingAndGlyphs" text-decoration="underline" textLength="151" x="30" y="337.2783">ATTCOLLCACHE_NAME: String</text><ellipse cx="21" cy="346.6953" fill="none" rx="3" ry="3" style="stroke: #038048; stroke-width: 1.0;"/><text fill="#000000" font-family="sans-serif" font-size="11" lengthAdjust="spacingAndGlyphs" text-decoration="underline" textLength="112" x="30" y="351.1143">DIR_EXTENSION: String</text><line style="stroke: #A80036; stroke-width: 1.5;" x1="11" x2="296" y1="357.5313" y2="357.5313"/><ellipse cx="21" cy="368.5313" fill="#84BE84" rx="3" ry="3" style="stroke: #038048; stroke-width: 1.0;"/><text fill="#000000" font-family="sans-serif" font-size="11" lengthAdjust="spacingAndGlyphs" textLength="158" x="30" y="372.9502">initialize(Engine, Properties): void</text><ellipse cx="21" cy="382.3672" fill="#84BE84" rx="3" ry="3" style="stroke: #038048; stroke-width: 1.0;"/><text fill="#000000" font-family="sans-serif" font-size="11" lengthAdjust="spacingAndGlyphs" textLength="244" x="30" y="386.7861">putAttachmentData(Attachment, InputStream): void</text><ellipse cx="21" cy="396.2031" fill="#84BE84" rx="3" ry="3" style="stroke: #038048; stroke-width: 1.0;"/><text fill="#000000" font-family="sans-serif" font-size="11" lengthAdjust="spacingAndGlyphs" textLength="218" x="30" y="400.6221">getAttachmentData(Attachment): InputStream</text><ellipse cx="21" cy="410.0391" fill="#84BE84" rx="3" ry="3" style="stroke: #038048; stroke-width: 1.0;"/><text fill="#000000" font-family="sans-serif" font-size="11" lengthAdjust="spacingAndGlyphs" textLength="196" x="30" y="414.458">listAttachments(Page): List&lt;Attachment&gt;</text><ellipse cx="21" cy="423.875" fill="#84BE84" rx="3" ry="3" style="stroke: #038048; stroke-width: 1.0;"/><text fill="#000000" font-family="sans-serif" font-size="11" lengthAdjust="spacingAndGlyphs" textLength="261" x="30" y="428.2939">findAttachments(QueryItem[]): Collection&lt;Attachment&gt;</text><ellipse cx="21" cy="437.7109" fill="#84BE84" rx="3" ry="3" style="stroke: #038048; stroke-width: 1.0;"/><text fill="#000000" font-family="sans-serif" font-size="11" lengthAdjust="spacingAndGlyphs" textLength="188" x="30" y="442.1299">listAllChanged(Date): List&lt;Attachment&gt;</text><ellipse cx="21" cy="451.5469" fill="#84BE84" rx="3" ry="3" style="stroke: #038048; stroke-width: 1.0;"/><text fill="#000000" font-family="sans-serif" font-size="11" lengthAdjust="spacingAndGlyphs" textLength="232" x="30" y="455.9658">getAttachmentInfo(Page, String, int): Attachment</text><ellipse cx="21" cy="465.3828" fill="#84BE84" rx="3" ry="3" style="stroke: #038048; stroke-width: 1.0;"/><text fill="#000000" font-family="sans-serif" font-size="11" lengthAdjust="spacingAndGlyphs" textLength="240" x="30" y="469.8018">getVersionHistory(Attachment): List&lt;Attachment&gt;</text><ellipse cx="21" cy="479.2188" fill="#84BE84" rx="3" ry="3" style="stroke: #038048; stroke-width: 1.0;"/><text fill="#000000" font-family="sans-serif" font-size="11" lengthAdjust="spacingAndGlyphs" textLength="156" x="30" y="483.6377">deleteVersion(Attachment): void</text><ellipse cx="21" cy="493.0547" fill="#84BE84" rx="3" ry="3" style="stroke: #038048; stroke-width: 1.0;"/><text fill="#000000" font-family="sans-serif" font-size="11" lengthAdjust="spacingAndGlyphs" textLength="173" x="30" y="497.4736">deleteAttachment(Attachment): void</text><ellipse cx="21" cy="506.8906" fill="#84BE84" rx="3" ry="3" style="stroke: #038048; stroke-width: 1.0;"/><text fill="#000000" font-family="sans-serif" font-size="11" lengthAdjust="spacingAndGlyphs" textLength="115" x="30" y="511.3096">getProviderInfo(): String</text><ellipse cx="21" cy="520.7266" fill="#84BE84" rx="3" ry="3" style="stroke: #038048; stroke-width: 1.0;"/><text fill="#000000" font-family="sans-serif" font-size="11" lengthAdjust="spacingAndGlyphs" textLength="185" x="30" y="525.1455">getRealProvider(): AttachmentProvider</text><ellipse cx="21" cy="534.5625" fill="#84BE84" rx="3" ry="3" style="stroke: #038048; stroke-width: 1.0;"/><text fill="#000000" font-family="sans-serif" font-size="11" lengthAdjust="spacingAndGlyphs" textLength="223" x="30" y="538.9814">moveAttachmentsForPage(String, String): void</text></a><!--MD5=[ea4dae4738ef87ae92f9f5ecbdcd9509]
class org.apache.wiki.api.providers.AttachmentProvider--><a href="..\api\providers\AttachmentProvider.html" target="_top" title="..\api\providers\AttachmentProvider.html" xlink:actuate="onRequest" xlink:href="..\api\providers\AttachmentProvider.html" xlink:show="new" xlink:title="..\api\providers\AttachmentProvider.html" xlink:type="simple"><rect codeLine="25" fill="#FEFECE" filter="url(#fzi6fjbvt1zsm)" height="186.5469" id="org.apache.wiki.api.providers.AttachmentProvider" style="stroke: #A80036; stroke-width: 1.5;" width="293" x="7" y="7"/><ellipse cx="79.75" cy="27.0938" fill="#B4A7E5" rx="11" ry="11" style="stroke: #A80036; stroke-width: 1.0;"/><path d="M80.7031,23.7344 L80.7031,30.3906 L82.4219,30.3906 Q83.0313,30.3906 83.2969,30.625 Q83.5625,30.8594 83.5625,31.25 Q83.5625,31.625 83.2969,31.8594 Q83.0313,32.0938 82.4219,32.0938 L77.2813,32.0938 Q76.6719,32.0938 76.4063,31.8594 Q76.1406,31.625 76.1406,31.2344 Q76.1406,30.8594 76.4063,30.625 Q76.6719,30.3906 77.2813,30.3906 L79,30.3906 L79,23.7344 L77.2813,23.7344 Q76.6719,23.7344 76.4063,23.5 Q76.1406,23.2656 76.1406,22.875 Q76.1406,22.5 76.4063,22.2656 Q76.6719,22.0313 77.2813,22.0313 L82.4219,22.0313 Q83.0313,22.0313 83.2969,22.2656 Q83.5625,22.5 83.5625,22.875 Q83.5625,23.2656 83.2969,23.5 Q83.0313,23.7344 82.4219,23.7344 L80.7031,23.7344 Z "/><text fill="#000000" font-family="sans-serif" font-size="14" font-style="italic" lengthAdjust="spacingAndGlyphs" textLength="123" x="108.25" y="26.5332">AttachmentProvider</text><text fill="#000000" font-family="sans-serif" font-size="10" font-style="italic" lengthAdjust="spacingAndGlyphs" textLength="139" x="100.25" y="39.9902">org.apache.wiki.api.providers</text><line style="stroke: #A80036; stroke-width: 1.5;" x1="8" x2="299" y1="47.1875" y2="47.1875"/><ellipse cx="18" cy="58.1875" fill="#84BE84" rx="3" ry="3" style="stroke: #038048; stroke-width: 1.0;"/><text fill="#000000" font-family="sans-serif" font-size="11" font-style="italic" lengthAdjust="spacingAndGlyphs" textLength="247" x="27" y="62.6064">putAttachmentData(Attachment, InputStream): void</text><ellipse cx="18" cy="72.0234" fill="#84BE84" rx="3" ry="3" style="stroke: #038048; stroke-width: 1.0;"/><text fill="#000000" font-family="sans-serif" font-size="11" font-style="italic" lengthAdjust="spacingAndGlyphs" textLength="221" x="27" y="76.4424">getAttachmentData(Attachment): InputStream</text><ellipse cx="18" cy="85.8594" fill="#84BE84" rx="3" ry="3" style="stroke: #038048; stroke-width: 1.0;"/><text fill="#000000" font-family="sans-serif" font-size="11" font-style="italic" lengthAdjust="spacingAndGlyphs" textLength="200" x="27" y="90.2783">listAttachments(Page): List&lt;Attachment&gt;</text><ellipse cx="18" cy="99.6953" fill="#84BE84" rx="3" ry="3" style="stroke: #038048; stroke-width: 1.0;"/><text fill="#000000" font-family="sans-serif" font-size="11" font-style="italic" lengthAdjust="spacingAndGlyphs" textLength="267" x="27" y="104.1143">findAttachments(QueryItem[]): Collection&lt;Attachment&gt;</text><ellipse cx="18" cy="113.5313" fill="#84BE84" rx="3" ry="3" style="stroke: #038048; stroke-width: 1.0;"/><text fill="#000000" font-family="sans-serif" font-size="11" font-style="italic" lengthAdjust="spacingAndGlyphs" textLength="194" x="27" y="117.9502">listAllChanged(Date): List&lt;Attachment&gt;</text><ellipse cx="18" cy="127.3672" fill="#84BE84" rx="3" ry="3" style="stroke: #038048; stroke-width: 1.0;"/><text fill="#000000" font-family="sans-serif" font-size="11" font-style="italic" lengthAdjust="spacingAndGlyphs" textLength="235" x="27" y="131.7861">getAttachmentInfo(Page, String, int): Attachment</text><ellipse cx="18" cy="141.2031" fill="#84BE84" rx="3" ry="3" style="stroke: #038048; stroke-width: 1.0;"/><text fill="#000000" font-family="sans-serif" font-size="11" font-style="italic" lengthAdjust="spacingAndGlyphs" textLength="242" x="27" y="145.6221">getVersionHistory(Attachment): List&lt;Attachment&gt;</text><ellipse cx="18" cy="155.0391" fill="#84BE84" rx="3" ry="3" style="stroke: #038048; stroke-width: 1.0;"/><text fill="#000000" font-family="sans-serif" font-size="11" font-style="italic" lengthAdjust="spacingAndGlyphs" textLength="157" x="27" y="159.458">deleteVersion(Attachment): void</text><ellipse cx="18" cy="168.875" fill="#84BE84" rx="3" ry="3" style="stroke: #038048; stroke-width: 1.0;"/><text fill="#000000" font-family="sans-serif" font-size="11" font-style="italic" lengthAdjust="spacingAndGlyphs" textLength="174" x="27" y="173.2939">deleteAttachment(Attachment): void</text><ellipse cx="18" cy="182.7109" fill="#84BE84" rx="3" ry="3" style="stroke: #038048; stroke-width: 1.0;"/><text fill="#000000" font-family="sans-serif" font-size="11" font-style="italic" lengthAdjust="spacingAndGlyphs" textLength="227" x="27" y="187.1299">moveAttachmentsForPage(String, String): void</text></a><!--MD5=[3b50cbe72e50c61773f4233130405e01]
reverse link org.apache.wiki.api.providers.AttachmentProvider to org.apache.wiki.providers.CachingAttachmentProvider--><path codeLine="38" d="M153.5,214.6957 C153.5,227.4821 153.5,240.634 153.5,253.7474 " fill="none" id="org.apache.wiki.api.providers.AttachmentProvider-backto-org.apache.wiki.providers.CachingAttachmentProvider" style="stroke: #A80036; stroke-width: 1.0; stroke-dasharray: 7.0,7.0;"/><polygon fill="none" points="146.5001,214.2851,153.5,194.2851,160.5001,214.2851,146.5001,214.2851" style="stroke: #A80036; stroke-width: 1.0;"/><text fill="#888888" font-family="sans-serif" font-size="10" lengthAdjust="spacingAndGlyphs" textLength="190" x="55.5" y="568.7793">UMLDoclet 2.0.12, PlantUML 1.2020.16</text><!--MD5=[f06aec4b5bea54ce8837a2dec53f1783]
@startuml
    set namespaceSeparator none
    hide empty fields
    hide empty methods

    class "<size:14>CachingAttachmentProvider\n<size:10>org.apache.wiki.providers" as org.apache.wiki.providers.CachingAttachmentProvider [[CachingAttachmentProvider.html]] {
        {static} +m_capacity: int
        {static} +ATTCACHE_NAME: String
        {static} +ATTCOLLCACHE_NAME: String
        {static} +DIR_EXTENSION: String
        +initialize(Engine, Properties): void
        +putAttachmentData(Attachment, InputStream): void
        +getAttachmentData(Attachment): InputStream
        +listAttachments(Page): List<Attachment>
        +findAttachments(QueryItem[]): Collection<Attachment>
        +listAllChanged(Date): List<Attachment>
        +getAttachmentInfo(Page, String, int): Attachment
        +getVersionHistory(Attachment): List<Attachment>
        +deleteVersion(Attachment): void
        +deleteAttachment(Attachment): void
        +getProviderInfo(): String
        +getRealProvider(): AttachmentProvider
        +moveAttachmentsForPage(String, String): void
    }

    interface "<size:14>AttachmentProvider\n<size:10>org.apache.wiki.api.providers" as org.apache.wiki.api.providers.AttachmentProvider [[..\api\providers\AttachmentProvider.html]] {
        {abstract} +putAttachmentData(Attachment, InputStream): void
        {abstract} +getAttachmentData(Attachment): InputStream
        {abstract} +listAttachments(Page): List<Attachment>
        {abstract} +findAttachments(QueryItem[]): Collection<Attachment>
        {abstract} +listAllChanged(Date): List<Attachment>
        {abstract} +getAttachmentInfo(Page, String, int): Attachment
        {abstract} +getVersionHistory(Attachment): List<Attachment>
        {abstract} +deleteVersion(Attachment): void
        {abstract} +deleteAttachment(Attachment): void
        {abstract} +moveAttachmentsForPage(String, String): void
    }

    org.apache.wiki.api.providers.AttachmentProvider <|.. org.apache.wiki.providers.CachingAttachmentProvider

    center footer UMLDoclet 2.0.12, PlantUML 1.2020.16
@enduml

PlantUML version 1.2020.16(Sun Aug 23 22:20:43 CEST 2020)
(APACHE source distribution)
Java Runtime: OpenJDK Runtime Environment
JVM: OpenJDK 64-Bit Server VM
Default Encoding: Cp1252
Language: es
Country: ES
--></g></svg>