<?xml version="1.0" encoding="UTF-8" standalone="no"?><svg xmlns="http://www.w3.org/2000/svg" xmlns:xlink="http://www.w3.org/1999/xlink" contentScriptType="application/ecmascript" contentStyleType="text/css" height="675px" preserveAspectRatio="none" style="width:2080px;height:675px;" version="1.1" viewBox="0 0 2080 675" width="2080px" zoomAndPan="magnify"><defs><filter height="300%" id="f1iw8tqpu70nv1" width="300%" x="-1" y="-1"><feGaussianBlur result="blurOut" stdDeviation="2.0"/><feColorMatrix in="blurOut" result="blurOut2" type="matrix" values="0 0 0 0 0 0 0 0 0 0 0 0 0 0 0 0 0 0 .4 0"/><feOffset dx="4.0" dy="4.0" in="blurOut2" result="blurOut3"/><feBlend in="SourceGraphic" in2="blurOut3" mode="normal"/></filter></defs><g><!--cluster org.apache.wiki.forms--><polygon fill="#FFFFFF" filter="url(#f1iw8tqpu70nv1)" points="14,137,196,137,203,159.2969,2058,159.2969,2058,635,14,635,14,137" style="stroke: #000000; stroke-width: 1.5;"/><line style="stroke: #000000; stroke-width: 1.5;" x1="14" x2="203" y1="159.2969" y2="159.2969"/><text fill="#000000" font-family="sans-serif" font-size="14" font-weight="bold" lengthAdjust="spacingAndGlyphs" textLength="176" x="18" y="151.9951">org.apache.wiki.forms</text><!--cluster java.io--><polygon fill="#FFFFFF" filter="url(#f1iw8tqpu70nv1)" points="436,22.5,492,22.5,499,44.7969,556,44.7969,556,105.5,436,105.5,436,22.5" style="stroke: #000000; stroke-width: 1.5;"/><line style="stroke: #000000; stroke-width: 1.5;" x1="436" x2="499" y1="44.7969" y2="44.7969"/><text fill="#000000" font-family="sans-serif" font-size="14" font-weight="bold" lengthAdjust="spacingAndGlyphs" textLength="50" x="440" y="37.4951">java.io</text><!--cluster org.apache.wiki.api.plugin--><polygon fill="#FFFFFF" filter="url(#f1iw8tqpu70nv1)" points="851,16,1063,16,1070,38.2969,1177,38.2969,1177,112,851,112,851,16" style="stroke: #000000; stroke-width: 1.5;"/><line style="stroke: #000000; stroke-width: 1.5;" x1="851" x2="1070" y1="38.2969" y2="38.2969"/><text fill="#000000" font-family="sans-serif" font-size="14" font-weight="bold" lengthAdjust="spacingAndGlyphs" textLength="206" x="855" y="30.9951">org.apache.wiki.api.plugin</text><!--class org.apache.wiki.forms.FormInfo--><a href="FormInfo.html" target="_top" xlink:actuate="onRequest" xlink:show="new" xlink:title="FormInfo.html" xlink:type="simple"><rect fill="#FEFECE" filter="url(#f1iw8tqpu70nv1)" height="304.0938" id="org.apache.wiki.forms.FormInfo" style="stroke: #A80036; stroke-width: 1.5;" width="270" x="361" y="164"/><ellipse cx="464.75" cy="180" fill="#ADD1B2" rx="11" ry="11" style="stroke: #A80036; stroke-width: 1.0;"/><path d="M467.7188,185.6406 Q467.1406,185.9375 466.5,186.0859 Q465.8594,186.2344 465.1563,186.2344 Q462.6563,186.2344 461.3359,184.5859 Q460.0156,182.9375 460.0156,179.8125 Q460.0156,176.6875 461.3359,175.0313 Q462.6563,173.375 465.1563,173.375 Q465.8594,173.375 466.5078,173.5313 Q467.1563,173.6875 467.7188,173.9844 L467.7188,176.7031 Q467.0938,176.125 466.5,175.8516 Q465.9063,175.5781 465.2813,175.5781 Q463.9375,175.5781 463.25,176.6484 Q462.5625,177.7188 462.5625,179.8125 Q462.5625,181.9063 463.25,182.9766 Q463.9375,184.0469 465.2813,184.0469 Q465.9063,184.0469 466.5,183.7734 Q467.0938,183.5 467.7188,182.9219 L467.7188,185.6406 Z "/><text fill="#000000" font-family="sans-serif" font-size="12" lengthAdjust="spacingAndGlyphs" textLength="54" x="485.25" y="184.1543">FormInfo</text><line style="stroke: #A80036; stroke-width: 1.5;" x1="362" x2="630" y1="196" y2="196"/><ellipse cx="372" cy="207.9023" fill="none" rx="3" ry="3" style="stroke: #038048; stroke-width: 1.0;"/><text fill="#000000" font-family="sans-serif" font-size="11" lengthAdjust="spacingAndGlyphs" text-decoration="underline" textLength="81" x="381" y="210.2104">EXECUTED: int</text><ellipse cx="372" cy="220.707" fill="none" rx="3" ry="3" style="stroke: #038048; stroke-width: 1.0;"/><text fill="#000000" font-family="sans-serif" font-size="11" lengthAdjust="spacingAndGlyphs" text-decoration="underline" textLength="38" x="381" y="223.0151">OK: int</text><ellipse cx="372" cy="233.5117" fill="none" rx="3" ry="3" style="stroke: #038048; stroke-width: 1.0;"/><text fill="#000000" font-family="sans-serif" font-size="11" lengthAdjust="spacingAndGlyphs" text-decoration="underline" textLength="59" x="381" y="235.8198">ERROR: int</text><line style="stroke: #A80036; stroke-width: 1.5;" x1="362" x2="630" y1="242.4141" y2="242.4141"/><ellipse cx="372" cy="254.3164" fill="#84BE84" rx="3" ry="3" style="stroke: #038048; stroke-width: 1.0;"/><text fill="#000000" font-family="sans-serif" font-size="11" lengthAdjust="spacingAndGlyphs" textLength="108" x="381" y="256.6245">setStatus(int): void</text><ellipse cx="372" cy="267.1211" fill="#84BE84" rx="3" ry="3" style="stroke: #038048; stroke-width: 1.0;"/><text fill="#000000" font-family="sans-serif" font-size="11" lengthAdjust="spacingAndGlyphs" textLength="85" x="381" y="269.4292">getStatus(): int</text><ellipse cx="372" cy="279.9258" fill="#84BE84" rx="3" ry="3" style="stroke: #038048; stroke-width: 1.0;"/><text fill="#000000" font-family="sans-serif" font-size="11" lengthAdjust="spacingAndGlyphs" textLength="127" x="381" y="282.2339">setHide(boolean): void</text><ellipse cx="372" cy="292.7305" fill="#84BE84" rx="3" ry="3" style="stroke: #038048; stroke-width: 1.0;"/><text fill="#000000" font-family="sans-serif" font-size="11" lengthAdjust="spacingAndGlyphs" textLength="85" x="381" y="295.0386">hide(): boolean</text><ellipse cx="372" cy="305.5352" fill="#84BE84" rx="3" ry="3" style="stroke: #038048; stroke-width: 1.0;"/><text fill="#000000" font-family="sans-serif" font-size="11" lengthAdjust="spacingAndGlyphs" textLength="125" x="381" y="307.8433">setAction(String): void</text><ellipse cx="372" cy="318.3398" fill="#84BE84" rx="3" ry="3" style="stroke: #038048; stroke-width: 1.0;"/><text fill="#000000" font-family="sans-serif" font-size="11" lengthAdjust="spacingAndGlyphs" textLength="102" x="381" y="320.6479">getAction(): String</text><ellipse cx="372" cy="331.1445" fill="#84BE84" rx="3" ry="3" style="stroke: #038048; stroke-width: 1.0;"/><text fill="#000000" font-family="sans-serif" font-size="11" lengthAdjust="spacingAndGlyphs" textLength="124" x="381" y="333.4526">setName(String): void</text><ellipse cx="372" cy="343.9492" fill="#84BE84" rx="3" ry="3" style="stroke: #038048; stroke-width: 1.0;"/><text fill="#000000" font-family="sans-serif" font-size="11" lengthAdjust="spacingAndGlyphs" textLength="101" x="381" y="346.2573">getName(): String</text><ellipse cx="372" cy="356.7539" fill="#84BE84" rx="3" ry="3" style="stroke: #038048; stroke-width: 1.0;"/><text fill="#000000" font-family="sans-serif" font-size="11" lengthAdjust="spacingAndGlyphs" textLength="135" x="381" y="359.062">setHandler(String): void</text><ellipse cx="372" cy="369.5586" fill="#84BE84" rx="3" ry="3" style="stroke: #038048; stroke-width: 1.0;"/><text fill="#000000" font-family="sans-serif" font-size="11" lengthAdjust="spacingAndGlyphs" textLength="112" x="381" y="371.8667">getHandler(): String</text><ellipse cx="372" cy="382.3633" fill="#84BE84" rx="3" ry="3" style="stroke: #038048; stroke-width: 1.0;"/><text fill="#000000" font-family="sans-serif" font-size="11" lengthAdjust="spacingAndGlyphs" textLength="126" x="381" y="384.6714">setResult(String): void</text><ellipse cx="372" cy="395.168" fill="#84BE84" rx="3" ry="3" style="stroke: #038048; stroke-width: 1.0;"/><text fill="#000000" font-family="sans-serif" font-size="11" lengthAdjust="spacingAndGlyphs" textLength="103" x="381" y="397.4761">getResult(): String</text><ellipse cx="372" cy="407.9727" fill="#84BE84" rx="3" ry="3" style="stroke: #038048; stroke-width: 1.0;"/><text fill="#000000" font-family="sans-serif" font-size="11" lengthAdjust="spacingAndGlyphs" textLength="120" x="381" y="410.2808">setError(String): void</text><ellipse cx="372" cy="420.7773" fill="#84BE84" rx="3" ry="3" style="stroke: #038048; stroke-width: 1.0;"/><text fill="#000000" font-family="sans-serif" font-size="11" lengthAdjust="spacingAndGlyphs" textLength="97" x="381" y="423.0854">getError(): String</text><ellipse cx="372" cy="433.582" fill="#84BE84" rx="3" ry="3" style="stroke: #038048; stroke-width: 1.0;"/><text fill="#000000" font-family="sans-serif" font-size="11" lengthAdjust="spacingAndGlyphs" textLength="241" x="381" y="435.8901">setSubmission(Map&lt;String, String&gt;): void</text><ellipse cx="372" cy="446.3867" fill="#84BE84" rx="3" ry="3" style="stroke: #038048; stroke-width: 1.0;"/><text fill="#000000" font-family="sans-serif" font-size="11" lengthAdjust="spacingAndGlyphs" textLength="244" x="381" y="448.6948">addSubmission(Map&lt;String, String&gt;): void</text><ellipse cx="372" cy="459.1914" fill="#84BE84" rx="3" ry="3" style="stroke: #038048; stroke-width: 1.0;"/><text fill="#000000" font-family="sans-serif" font-size="11" lengthAdjust="spacingAndGlyphs" textLength="218" x="381" y="461.4995">getSubmission(): Map&lt;String, String&gt;</text></a><!--class org.apache.wiki.forms.FormClose--><a href="FormClose.html" target="_top" xlink:actuate="onRequest" xlink:show="new" xlink:title="FormClose.html" xlink:type="simple"><rect fill="#FEFECE" filter="url(#f1iw8tqpu70nv1)" height="60.8047" id="org.apache.wiki.forms.FormClose" style="stroke: #A80036; stroke-width: 1.5;" width="309" x="21.5" y="547"/><ellipse cx="139.25" cy="563" fill="#ADD1B2" rx="11" ry="11" style="stroke: #A80036; stroke-width: 1.0;"/><path d="M142.2188,568.6406 Q141.6406,568.9375 141,569.0859 Q140.3594,569.2344 139.6563,569.2344 Q137.1563,569.2344 135.8359,567.5859 Q134.5156,565.9375 134.5156,562.8125 Q134.5156,559.6875 135.8359,558.0313 Q137.1563,556.375 139.6563,556.375 Q140.3594,556.375 141.0078,556.5313 Q141.6563,556.6875 142.2188,556.9844 L142.2188,559.7031 Q141.5938,559.125 141,558.8516 Q140.4063,558.5781 139.7813,558.5781 Q138.4375,558.5781 137.75,559.6484 Q137.0625,560.7188 137.0625,562.8125 Q137.0625,564.9063 137.75,565.9766 Q138.4375,567.0469 139.7813,567.0469 Q140.4063,567.0469 141,566.7734 Q141.5938,566.5 142.2188,565.9219 L142.2188,568.6406 Z "/><text fill="#000000" font-family="sans-serif" font-size="12" lengthAdjust="spacingAndGlyphs" textLength="65" x="159.75" y="567.1543">FormClose</text><line style="stroke: #A80036; stroke-width: 1.5;" x1="22.5" x2="329.5" y1="579" y2="579"/><line style="stroke: #A80036; stroke-width: 1.5;" x1="22.5" x2="329.5" y1="587" y2="587"/><ellipse cx="32.5" cy="598.9023" fill="#84BE84" rx="3" ry="3" style="stroke: #038048; stroke-width: 1.0;"/><text fill="#000000" font-family="sans-serif" font-size="11" lengthAdjust="spacingAndGlyphs" textLength="283" x="41.5" y="601.2104">execute(WikiContext, Map&lt;String, String&gt;): String</text></a><!--class org.apache.wiki.forms.FormOpen--><a href="FormOpen.html" target="_top" xlink:actuate="onRequest" xlink:show="new" xlink:title="FormOpen.html" xlink:type="simple"><rect fill="#FEFECE" filter="url(#f1iw8tqpu70nv1)" height="73.6094" id="org.apache.wiki.forms.FormOpen" style="stroke: #A80036; stroke-width: 1.5;" width="309" x="365.5" y="540.5"/><ellipse cx="483.75" cy="556.5" fill="#ADD1B2" rx="11" ry="11" style="stroke: #A80036; stroke-width: 1.0;"/><path d="M486.7188,562.1406 Q486.1406,562.4375 485.5,562.5859 Q484.8594,562.7344 484.1563,562.7344 Q481.6563,562.7344 480.3359,561.0859 Q479.0156,559.4375 479.0156,556.3125 Q479.0156,553.1875 480.3359,551.5313 Q481.6563,549.875 484.1563,549.875 Q484.8594,549.875 485.5078,550.0313 Q486.1563,550.1875 486.7188,550.4844 L486.7188,553.2031 Q486.0938,552.625 485.5,552.3516 Q484.9063,552.0781 484.2813,552.0781 Q482.9375,552.0781 482.25,553.1484 Q481.5625,554.2188 481.5625,556.3125 Q481.5625,558.4063 482.25,559.4766 Q482.9375,560.5469 484.2813,560.5469 Q484.9063,560.5469 485.5,560.2734 Q486.0938,560 486.7188,559.4219 L486.7188,562.1406 Z "/><text fill="#000000" font-family="sans-serif" font-size="12" lengthAdjust="spacingAndGlyphs" textLength="64" x="504.25" y="560.6543">FormOpen</text><line style="stroke: #A80036; stroke-width: 1.5;" x1="366.5" x2="673.5" y1="572.5" y2="572.5"/><ellipse cx="376.5" cy="584.4023" fill="none" rx="3" ry="3" style="stroke: #038048; stroke-width: 1.0;"/><text fill="#000000" font-family="sans-serif" font-size="11" lengthAdjust="spacingAndGlyphs" text-decoration="underline" textLength="133" x="385.5" y="586.7104">PARAM_METHOD: String</text><line style="stroke: #A80036; stroke-width: 1.5;" x1="366.5" x2="673.5" y1="593.3047" y2="593.3047"/><ellipse cx="376.5" cy="605.207" fill="#84BE84" rx="3" ry="3" style="stroke: #038048; stroke-width: 1.0;"/><text fill="#000000" font-family="sans-serif" font-size="11" lengthAdjust="spacingAndGlyphs" textLength="283" x="385.5" y="607.5151">execute(WikiContext, Map&lt;String, String&gt;): String</text></a><!--class org.apache.wiki.forms.FormElement--><a href="FormElement.html" target="_top" xlink:actuate="onRequest" xlink:show="new" xlink:title="FormElement.html" xlink:type="simple"><rect fill="#FEFECE" filter="url(#f1iw8tqpu70nv1)" height="227.2656" id="org.apache.wiki.forms.FormElement" style="stroke: #A80036; stroke-width: 1.5;" width="267" x="1042.5" y="202.5"/><ellipse cx="1130.75" cy="218.5" fill="#A9DCDF" rx="11" ry="11" style="stroke: #A80036; stroke-width: 1.0;"/><path d="M1130.8594,213.8438 L1129.7031,218.9219 L1132.0313,218.9219 L1130.8594,213.8438 Z M1129.375,211.6094 L1132.3594,211.6094 L1135.7188,224 L1133.2656,224 L1132.5,220.9375 L1129.2188,220.9375 L1128.4688,224 L1126.0313,224 L1129.375,211.6094 Z "/><text fill="#000000" font-family="sans-serif" font-size="12" font-style="italic" lengthAdjust="spacingAndGlyphs" textLength="82" x="1151.25" y="222.6543">FormElement</text><line style="stroke: #A80036; stroke-width: 1.5;" x1="1043.5" x2="1308.5" y1="234.5" y2="234.5"/><ellipse cx="1053.5" cy="246.4023" fill="none" rx="3" ry="3" style="stroke: #038048; stroke-width: 1.0;"/><text fill="#000000" font-family="sans-serif" font-size="11" lengthAdjust="spacingAndGlyphs" text-decoration="underline" textLength="173" x="1062.5" y="248.7104">HANDLERPARAM_PREFIX: String</text><ellipse cx="1053.5" cy="259.207" fill="none" rx="3" ry="3" style="stroke: #038048; stroke-width: 1.0;"/><text fill="#000000" font-family="sans-serif" font-size="11" lengthAdjust="spacingAndGlyphs" text-decoration="underline" textLength="174" x="1062.5" y="261.5151">FORM_VALUES_CARRIER: String</text><ellipse cx="1053.5" cy="272.0117" fill="none" rx="3" ry="3" style="stroke: #038048; stroke-width: 1.0;"/><text fill="#000000" font-family="sans-serif" font-size="11" lengthAdjust="spacingAndGlyphs" text-decoration="underline" textLength="129" x="1062.5" y="274.3198">HIDE_SUCCESS: String</text><ellipse cx="1053.5" cy="284.8164" fill="none" rx="3" ry="3" style="stroke: #038048; stroke-width: 1.0;"/><text fill="#000000" font-family="sans-serif" font-size="11" lengthAdjust="spacingAndGlyphs" text-decoration="underline" textLength="179" x="1062.5" y="287.1245">PARAM_SUBMITHANDLER: String</text><ellipse cx="1053.5" cy="297.6211" fill="none" rx="3" ry="3" style="stroke: #038048; stroke-width: 1.0;"/><text fill="#000000" font-family="sans-serif" font-size="11" lengthAdjust="spacingAndGlyphs" text-decoration="underline" textLength="136" x="1062.5" y="299.9292">PARAM_ELEMENT: String</text><ellipse cx="1053.5" cy="310.4258" fill="none" rx="3" ry="3" style="stroke: #038048; stroke-width: 1.0;"/><text fill="#000000" font-family="sans-serif" font-size="11" lengthAdjust="spacingAndGlyphs" text-decoration="underline" textLength="136" x="1062.5" y="312.7339">PARAM_HANDLER: String</text><ellipse cx="1053.5" cy="323.2305" fill="none" rx="3" ry="3" style="stroke: #038048; stroke-width: 1.0;"/><text fill="#000000" font-family="sans-serif" font-size="11" lengthAdjust="spacingAndGlyphs" text-decoration="underline" textLength="116" x="1062.5" y="325.5386">PARAM_FORM: String</text><ellipse cx="1053.5" cy="336.0352" fill="none" rx="3" ry="3" style="stroke: #038048; stroke-width: 1.0;"/><text fill="#000000" font-family="sans-serif" font-size="11" lengthAdjust="spacingAndGlyphs" text-decoration="underline" textLength="149" x="1062.5" y="338.3433">PARAM_INPUTNAME: String</text><ellipse cx="1053.5" cy="348.8398" fill="none" rx="3" ry="3" style="stroke: #038048; stroke-width: 1.0;"/><text fill="#000000" font-family="sans-serif" font-size="11" lengthAdjust="spacingAndGlyphs" text-decoration="underline" textLength="120" x="1062.5" y="351.1479">PARAM_VALUE: String</text><ellipse cx="1053.5" cy="361.6445" fill="none" rx="3" ry="3" style="stroke: #038048; stroke-width: 1.0;"/><text fill="#000000" font-family="sans-serif" font-size="11" lengthAdjust="spacingAndGlyphs" text-decoration="underline" textLength="142" x="1062.5" y="363.9526">PARAM_HIDEFORM: String</text><ellipse cx="1053.5" cy="374.4492" fill="none" rx="3" ry="3" style="stroke: #038048; stroke-width: 1.0;"/><text fill="#000000" font-family="sans-serif" font-size="11" lengthAdjust="spacingAndGlyphs" text-decoration="underline" textLength="143" x="1062.5" y="376.7573">PARAM_POPULATE: String</text><ellipse cx="1053.5" cy="387.2539" fill="none" rx="3" ry="3" style="stroke: #038048; stroke-width: 1.0;"/><text fill="#000000" font-family="sans-serif" font-size="11" lengthAdjust="spacingAndGlyphs" text-decoration="underline" textLength="189" x="1062.5" y="389.562">PARAM_FORMNAMEHIDDEN: String</text><line style="stroke: #A80036; stroke-width: 1.5;" x1="1043.5" x2="1308.5" y1="396.1563" y2="396.1563"/><polygon fill="#FFFF44" points="1053.5,403.0586,1057.5,407.0586,1053.5,411.0586,1049.5,407.0586" style="stroke: #B38D22; stroke-width: 1.0;"/><text fill="#000000" font-family="sans-serif" font-size="11" lengthAdjust="spacingAndGlyphs" textLength="241" x="1062.5" y="410.3667">storeFormInfo(WikiContext, FormInfo): void</text><polygon fill="#FFFF44" points="1053.5,415.8633,1057.5,419.8633,1053.5,423.8633,1049.5,419.8633" style="stroke: #B38D22; stroke-width: 1.0;"/><text fill="#000000" font-family="sans-serif" font-size="11" lengthAdjust="spacingAndGlyphs" textLength="198" x="1062.5" y="423.1714">getFormInfo(WikiContext): FormInfo</text></a><!--class org.apache.wiki.forms.FormOutput--><a href="FormOutput.html" target="_top" xlink:actuate="onRequest" xlink:show="new" xlink:title="FormOutput.html" xlink:type="simple"><rect fill="#FEFECE" filter="url(#f1iw8tqpu70nv1)" height="60.8047" id="org.apache.wiki.forms.FormOutput" style="stroke: #A80036; stroke-width: 1.5;" width="309" x="709.5" y="547"/><ellipse cx="822.75" cy="563" fill="#ADD1B2" rx="11" ry="11" style="stroke: #A80036; stroke-width: 1.0;"/><path d="M825.7188,568.6406 Q825.1406,568.9375 824.5,569.0859 Q823.8594,569.2344 823.1563,569.2344 Q820.6563,569.2344 819.3359,567.5859 Q818.0156,565.9375 818.0156,562.8125 Q818.0156,559.6875 819.3359,558.0313 Q820.6563,556.375 823.1563,556.375 Q823.8594,556.375 824.5078,556.5313 Q825.1563,556.6875 825.7188,556.9844 L825.7188,559.7031 Q825.0938,559.125 824.5,558.8516 Q823.9063,558.5781 823.2813,558.5781 Q821.9375,558.5781 821.25,559.6484 Q820.5625,560.7188 820.5625,562.8125 Q820.5625,564.9063 821.25,565.9766 Q821.9375,567.0469 823.2813,567.0469 Q823.9063,567.0469 824.5,566.7734 Q825.0938,566.5 825.7188,565.9219 L825.7188,568.6406 Z "/><text fill="#000000" font-family="sans-serif" font-size="12" lengthAdjust="spacingAndGlyphs" textLength="74" x="843.25" y="567.1543">FormOutput</text><line style="stroke: #A80036; stroke-width: 1.5;" x1="710.5" x2="1017.5" y1="579" y2="579"/><line style="stroke: #A80036; stroke-width: 1.5;" x1="710.5" x2="1017.5" y1="587" y2="587"/><ellipse cx="720.5" cy="598.9023" fill="#84BE84" rx="3" ry="3" style="stroke: #038048; stroke-width: 1.0;"/><text fill="#000000" font-family="sans-serif" font-size="11" lengthAdjust="spacingAndGlyphs" textLength="283" x="729.5" y="601.2104">execute(WikiContext, Map&lt;String, String&gt;): String</text></a><!--class org.apache.wiki.forms.FormSet--><a href="FormSet.html" target="_top" xlink:actuate="onRequest" xlink:show="new" xlink:title="FormSet.html" xlink:type="simple"><rect fill="#FEFECE" filter="url(#f1iw8tqpu70nv1)" height="60.8047" id="org.apache.wiki.forms.FormSet" style="stroke: #A80036; stroke-width: 1.5;" width="309" x="698.5" y="285.5"/><ellipse cx="822.75" cy="301.5" fill="#ADD1B2" rx="11" ry="11" style="stroke: #A80036; stroke-width: 1.0;"/><path d="M825.7188,307.1406 Q825.1406,307.4375 824.5,307.5859 Q823.8594,307.7344 823.1563,307.7344 Q820.6563,307.7344 819.3359,306.0859 Q818.0156,304.4375 818.0156,301.3125 Q818.0156,298.1875 819.3359,296.5313 Q820.6563,294.875 823.1563,294.875 Q823.8594,294.875 824.5078,295.0313 Q825.1563,295.1875 825.7188,295.4844 L825.7188,298.2031 Q825.0938,297.625 824.5,297.3516 Q823.9063,297.0781 823.2813,297.0781 Q821.9375,297.0781 821.25,298.1484 Q820.5625,299.2188 820.5625,301.3125 Q820.5625,303.4063 821.25,304.4766 Q821.9375,305.5469 823.2813,305.5469 Q823.9063,305.5469 824.5,305.2734 Q825.0938,305 825.7188,304.4219 L825.7188,307.1406 Z "/><text fill="#000000" font-family="sans-serif" font-size="12" lengthAdjust="spacingAndGlyphs" textLength="52" x="843.25" y="305.6543">FormSet</text><line style="stroke: #A80036; stroke-width: 1.5;" x1="699.5" x2="1006.5" y1="317.5" y2="317.5"/><line style="stroke: #A80036; stroke-width: 1.5;" x1="699.5" x2="1006.5" y1="325.5" y2="325.5"/><ellipse cx="709.5" cy="337.4023" fill="#84BE84" rx="3" ry="3" style="stroke: #038048; stroke-width: 1.0;"/><text fill="#000000" font-family="sans-serif" font-size="11" lengthAdjust="spacingAndGlyphs" textLength="283" x="718.5" y="339.7104">execute(WikiContext, Map&lt;String, String&gt;): String</text></a><!--class org.apache.wiki.forms.FormInput--><a href="FormInput.html" target="_top" xlink:actuate="onRequest" xlink:show="new" xlink:title="FormInput.html" xlink:type="simple"><rect fill="#FEFECE" filter="url(#f1iw8tqpu70nv1)" height="99.2188" id="org.apache.wiki.forms.FormInput" style="stroke: #A80036; stroke-width: 1.5;" width="309" x="1053.5" y="528"/><ellipse cx="1172.25" cy="544" fill="#ADD1B2" rx="11" ry="11" style="stroke: #A80036; stroke-width: 1.0;"/><path d="M1175.2188,549.6406 Q1174.6406,549.9375 1174,550.0859 Q1173.3594,550.2344 1172.6563,550.2344 Q1170.1563,550.2344 1168.8359,548.5859 Q1167.5156,546.9375 1167.5156,543.8125 Q1167.5156,540.6875 1168.8359,539.0313 Q1170.1563,537.375 1172.6563,537.375 Q1173.3594,537.375 1174.0078,537.5313 Q1174.6563,537.6875 1175.2188,537.9844 L1175.2188,540.7031 Q1174.5938,540.125 1174,539.8516 Q1173.4063,539.5781 1172.7813,539.5781 Q1171.4375,539.5781 1170.75,540.6484 Q1170.0625,541.7188 1170.0625,543.8125 Q1170.0625,545.9063 1170.75,546.9766 Q1171.4375,548.0469 1172.7813,548.0469 Q1173.4063,548.0469 1174,547.7734 Q1174.5938,547.5 1175.2188,546.9219 L1175.2188,549.6406 Z "/><text fill="#000000" font-family="sans-serif" font-size="12" lengthAdjust="spacingAndGlyphs" textLength="63" x="1192.75" y="548.1543">FormInput</text><line style="stroke: #A80036; stroke-width: 1.5;" x1="1054.5" x2="1361.5" y1="560" y2="560"/><ellipse cx="1064.5" cy="571.9023" fill="none" rx="3" ry="3" style="stroke: #038048; stroke-width: 1.0;"/><text fill="#000000" font-family="sans-serif" font-size="11" lengthAdjust="spacingAndGlyphs" text-decoration="underline" textLength="113" x="1073.5" y="574.2104">PARAM_TYPE: String</text><ellipse cx="1064.5" cy="584.707" fill="none" rx="3" ry="3" style="stroke: #038048; stroke-width: 1.0;"/><text fill="#000000" font-family="sans-serif" font-size="11" lengthAdjust="spacingAndGlyphs" text-decoration="underline" textLength="112" x="1073.5" y="587.0151">PARAM_SIZE: String</text><ellipse cx="1064.5" cy="597.5117" fill="none" rx="3" ry="3" style="stroke: #038048; stroke-width: 1.0;"/><text fill="#000000" font-family="sans-serif" font-size="11" lengthAdjust="spacingAndGlyphs" text-decoration="underline" textLength="138" x="1073.5" y="599.8198">PARAM_CHECKED: String</text><line style="stroke: #A80036; stroke-width: 1.5;" x1="1054.5" x2="1361.5" y1="606.4141" y2="606.4141"/><ellipse cx="1064.5" cy="618.3164" fill="#84BE84" rx="3" ry="3" style="stroke: #038048; stroke-width: 1.0;"/><text fill="#000000" font-family="sans-serif" font-size="11" lengthAdjust="spacingAndGlyphs" textLength="283" x="1073.5" y="620.6245">execute(WikiContext, Map&lt;String, String&gt;): String</text></a><!--class org.apache.wiki.forms.FormHandler--><a href="FormHandler.html" target="_top" xlink:actuate="onRequest" xlink:show="new" xlink:title="FormHandler.html" xlink:type="simple"><rect fill="#FEFECE" filter="url(#f1iw8tqpu70nv1)" height="48" id="org.apache.wiki.forms.FormHandler" style="stroke: #A80036; stroke-width: 1.5;" width="112" x="150" y="292"/><ellipse cx="165" cy="308" fill="#B4A7E5" rx="11" ry="11" style="stroke: #A80036; stroke-width: 1.0;"/><path d="M160.9219,303.7656 L160.9219,301.6094 L168.3125,301.6094 L168.3125,303.7656 L165.8438,303.7656 L165.8438,311.8438 L168.3125,311.8438 L168.3125,314 L160.9219,314 L160.9219,311.8438 L163.3906,311.8438 L163.3906,303.7656 L160.9219,303.7656 Z "/><text fill="#000000" font-family="sans-serif" font-size="12" font-style="italic" lengthAdjust="spacingAndGlyphs" textLength="80" x="179" y="312.1543">FormHandler</text><line style="stroke: #A80036; stroke-width: 1.5;" x1="151" x2="261" y1="324" y2="324"/><line style="stroke: #A80036; stroke-width: 1.5;" x1="151" x2="261" y1="332" y2="332"/></a><!--class org.apache.wiki.forms.FormSelect--><a href="FormSelect.html" target="_top" xlink:actuate="onRequest" xlink:show="new" xlink:title="FormSelect.html" xlink:type="simple"><rect fill="#FEFECE" filter="url(#f1iw8tqpu70nv1)" height="60.8047" id="org.apache.wiki.forms.FormSelect" style="stroke: #A80036; stroke-width: 1.5;" width="309" x="1397.5" y="547"/><ellipse cx="1512.75" cy="563" fill="#ADD1B2" rx="11" ry="11" style="stroke: #A80036; stroke-width: 1.0;"/><path d="M1515.7188,568.6406 Q1515.1406,568.9375 1514.5,569.0859 Q1513.8594,569.2344 1513.1563,569.2344 Q1510.6563,569.2344 1509.3359,567.5859 Q1508.0156,565.9375 1508.0156,562.8125 Q1508.0156,559.6875 1509.3359,558.0313 Q1510.6563,556.375 1513.1563,556.375 Q1513.8594,556.375 1514.5078,556.5313 Q1515.1563,556.6875 1515.7188,556.9844 L1515.7188,559.7031 Q1515.0938,559.125 1514.5,558.8516 Q1513.9063,558.5781 1513.2813,558.5781 Q1511.9375,558.5781 1511.25,559.6484 Q1510.5625,560.7188 1510.5625,562.8125 Q1510.5625,564.9063 1511.25,565.9766 Q1511.9375,567.0469 1513.2813,567.0469 Q1513.9063,567.0469 1514.5,566.7734 Q1515.0938,566.5 1515.7188,565.9219 L1515.7188,568.6406 Z "/><text fill="#000000" font-family="sans-serif" font-size="12" lengthAdjust="spacingAndGlyphs" textLength="70" x="1533.25" y="567.1543">FormSelect</text><line style="stroke: #A80036; stroke-width: 1.5;" x1="1398.5" x2="1705.5" y1="579" y2="579"/><line style="stroke: #A80036; stroke-width: 1.5;" x1="1398.5" x2="1705.5" y1="587" y2="587"/><ellipse cx="1408.5" cy="598.9023" fill="#84BE84" rx="3" ry="3" style="stroke: #038048; stroke-width: 1.0;"/><text fill="#000000" font-family="sans-serif" font-size="11" lengthAdjust="spacingAndGlyphs" textLength="283" x="1417.5" y="601.2104">execute(WikiContext, Map&lt;String, String&gt;): String</text></a><!--class org.apache.wiki.forms.FormTextarea--><a href="FormTextarea.html" target="_top" xlink:actuate="onRequest" xlink:show="new" xlink:title="FormTextarea.html" xlink:type="simple"><rect fill="#FEFECE" filter="url(#f1iw8tqpu70nv1)" height="86.4141" id="org.apache.wiki.forms.FormTextarea" style="stroke: #A80036; stroke-width: 1.5;" width="309" x="1741.5" y="534.5"/><ellipse cx="1848.75" cy="550.5" fill="#ADD1B2" rx="11" ry="11" style="stroke: #A80036; stroke-width: 1.0;"/><path d="M1851.7188,556.1406 Q1851.1406,556.4375 1850.5,556.5859 Q1849.8594,556.7344 1849.1563,556.7344 Q1846.6563,556.7344 1845.3359,555.0859 Q1844.0156,553.4375 1844.0156,550.3125 Q1844.0156,547.1875 1845.3359,545.5313 Q1846.6563,543.875 1849.1563,543.875 Q1849.8594,543.875 1850.5078,544.0313 Q1851.1563,544.1875 1851.7188,544.4844 L1851.7188,547.2031 Q1851.0938,546.625 1850.5,546.3516 Q1849.9063,546.0781 1849.2813,546.0781 Q1847.9375,546.0781 1847.25,547.1484 Q1846.5625,548.2188 1846.5625,550.3125 Q1846.5625,552.4063 1847.25,553.4766 Q1847.9375,554.5469 1849.2813,554.5469 Q1849.9063,554.5469 1850.5,554.2734 Q1851.0938,554 1851.7188,553.4219 L1851.7188,556.1406 Z "/><text fill="#000000" font-family="sans-serif" font-size="12" lengthAdjust="spacingAndGlyphs" textLength="86" x="1869.25" y="554.6543">FormTextarea</text><line style="stroke: #A80036; stroke-width: 1.5;" x1="1742.5" x2="2049.5" y1="566.5" y2="566.5"/><ellipse cx="1752.5" cy="578.4023" fill="none" rx="3" ry="3" style="stroke: #038048; stroke-width: 1.0;"/><text fill="#000000" font-family="sans-serif" font-size="11" lengthAdjust="spacingAndGlyphs" text-decoration="underline" textLength="118" x="1761.5" y="580.7104">PARAM_ROWS: String</text><ellipse cx="1752.5" cy="591.207" fill="none" rx="3" ry="3" style="stroke: #038048; stroke-width: 1.0;"/><text fill="#000000" font-family="sans-serif" font-size="11" lengthAdjust="spacingAndGlyphs" text-decoration="underline" textLength="116" x="1761.5" y="593.5151">PARAM_COLS: String</text><line style="stroke: #A80036; stroke-width: 1.5;" x1="1742.5" x2="2049.5" y1="600.1094" y2="600.1094"/><ellipse cx="1752.5" cy="612.0117" fill="#84BE84" rx="3" ry="3" style="stroke: #038048; stroke-width: 1.0;"/><text fill="#000000" font-family="sans-serif" font-size="11" lengthAdjust="spacingAndGlyphs" textLength="283" x="1761.5" y="614.3198">execute(WikiContext, Map&lt;String, String&gt;): String</text></a><!--class java.io.Serializable--><rect fill="#FEFECE" filter="url(#f1iw8tqpu70nv1)" height="48" id="java.io.Serializable" style="stroke: #A80036; stroke-width: 1.5;" width="103" x="444.5" y="49.5"/><ellipse cx="459.5" cy="65.5" fill="#B4A7E5" rx="11" ry="11" style="stroke: #A80036; stroke-width: 1.0;"/><path d="M455.4219,61.2656 L455.4219,59.1094 L462.8125,59.1094 L462.8125,61.2656 L460.3438,61.2656 L460.3438,69.3438 L462.8125,69.3438 L462.8125,71.5 L455.4219,71.5 L455.4219,69.3438 L457.8906,69.3438 L457.8906,61.2656 L455.4219,61.2656 Z "/><text fill="#000000" font-family="sans-serif" font-size="12" font-style="italic" lengthAdjust="spacingAndGlyphs" textLength="71" x="473.5" y="69.6543">Serializable</text><line style="stroke: #A80036; stroke-width: 1.5;" x1="445.5" x2="546.5" y1="81.5" y2="81.5"/><line style="stroke: #A80036; stroke-width: 1.5;" x1="445.5" x2="546.5" y1="89.5" y2="89.5"/><!--class org.apache.wiki.api.plugin.WikiPlugin--><rect fill="#FEFECE" filter="url(#f1iw8tqpu70nv1)" height="60.8047" id="org.apache.wiki.api.plugin.WikiPlugin" style="stroke: #A80036; stroke-width: 1.5;" width="310" x="859" y="43"/><ellipse cx="978.75" cy="59" fill="#B4A7E5" rx="11" ry="11" style="stroke: #A80036; stroke-width: 1.0;"/><path d="M974.6719,54.7656 L974.6719,52.6094 L982.0625,52.6094 L982.0625,54.7656 L979.5938,54.7656 L979.5938,62.8438 L982.0625,62.8438 L982.0625,65 L974.6719,65 L974.6719,62.8438 L977.1406,62.8438 L977.1406,54.7656 L974.6719,54.7656 Z "/><text fill="#000000" font-family="sans-serif" font-size="12" font-style="italic" lengthAdjust="spacingAndGlyphs" textLength="62" x="999.25" y="63.1543">WikiPlugin</text><line style="stroke: #A80036; stroke-width: 1.5;" x1="860" x2="1168" y1="75" y2="75"/><line style="stroke: #A80036; stroke-width: 1.5;" x1="860" x2="1168" y1="83" y2="83"/><ellipse cx="870" cy="94.9023" fill="#84BE84" rx="3" ry="3" style="stroke: #038048; stroke-width: 1.0;"/><text fill="#000000" font-family="sans-serif" font-size="11" font-style="italic" lengthAdjust="spacingAndGlyphs" textLength="284" x="879" y="97.2104">execute(WikiContext, Map&lt;String, String&gt;): String</text><!--link java.io.Serializable to org.apache.wiki.forms.FormInfo--><path d="M496,117.6761 C496,131.3418 496,147.2387 496,163.9731 " fill="none" id="java.io.Serializable-org.apache.wiki.forms.FormInfo" style="stroke: #A80036; stroke-width: 1.0; stroke-dasharray: 7.0,7.0;"/><polygon fill="none" points="489.0001,117.6384,496,97.6384,503.0001,117.6384,489.0001,117.6384" style="stroke: #A80036; stroke-width: 1.0;"/><!--link org.apache.wiki.forms.FormElement to org.apache.wiki.forms.FormClose--><path d="M1066.435,442.4619 C1053.3653,452.4049 1039.4851,461.2064 1025,468 C888.2583,532.1328 496.4761,500.3207 348,528 C322.3406,532.7835 295.0017,539.7573 269.848,546.969 " fill="none" id="org.apache.wiki.forms.FormElement-org.apache.wiki.forms.FormClose" style="stroke: #A80036; stroke-width: 1.0;"/><polygon fill="none" points="1062.0308,437.021,1081.9614,429.8258,1070.8679,447.8795,1062.0308,437.021" style="stroke: #A80036; stroke-width: 1.0;"/><!--link org.apache.wiki.forms.FormElement to org.apache.wiki.forms.FormOpen--><path d="M1063.6566,442.7794 C1051.3471,452.3307 1038.396,460.9665 1025,468 C891.8535,537.908 838.449,493.8269 692,528 C676.1134,531.7071 659.509,535.9755 643.1493,540.4191 " fill="none" id="org.apache.wiki.forms.FormElement-org.apache.wiki.forms.FormOpen" style="stroke: #A80036; stroke-width: 1.0;"/><polygon fill="none" points="1059.5687,437.0773,1079.4525,429.7535,1068.4757,447.8785,1059.5687,437.0773" style="stroke: #A80036; stroke-width: 1.0;"/><!--link org.apache.wiki.api.plugin.WikiPlugin to org.apache.wiki.forms.FormElement--><path d="M1045.6302,120.8477 C1061.2683,144.2565 1080.8754,173.6067 1100.0981,202.3815 " fill="none" id="org.apache.wiki.api.plugin.WikiPlugin-org.apache.wiki.forms.FormElement" style="stroke: #A80036; stroke-width: 1.0; stroke-dasharray: 7.0,7.0;"/><polygon fill="none" points="1039.8066,124.7317,1034.5174,104.2128,1051.4479,116.9548,1039.8066,124.7317" style="stroke: #A80036; stroke-width: 1.0;"/><!--link org.apache.wiki.forms.FormElement to org.apache.wiki.forms.FormOutput--><path d="M1052.8833,443.6742 C1043.6284,452.1048 1034.2783,460.2957 1025,468 C989.8911,497.1529 947.0384,526.0097 914.3727,546.7754 " fill="none" id="org.apache.wiki.forms.FormElement-org.apache.wiki.forms.FormOutput" style="stroke: #A80036; stroke-width: 1.0;"/><polygon fill="none" points="1048.4098,438.2756,1067.826,429.7897,1057.9395,448.5316,1048.4098,438.2756" style="stroke: #A80036; stroke-width: 1.0;"/><!--link org.apache.wiki.api.plugin.WikiPlugin to org.apache.wiki.forms.FormSet--><path d="M982.3502,121.1713 C950.0811,169.7754 900.9713,243.7452 873.4789,285.1545 " fill="none" id="org.apache.wiki.api.plugin.WikiPlugin-org.apache.wiki.forms.FormSet" style="stroke: #A80036; stroke-width: 1.0; stroke-dasharray: 7.0,7.0;"/><polygon fill="none" points="976.7152,117.0031,993.6092,104.2128,988.3787,124.7467,976.7152,117.0031" style="stroke: #A80036; stroke-width: 1.0;"/><!--link org.apache.wiki.forms.FormElement to org.apache.wiki.forms.FormInput--><path d="M1192.3308,449.4532 C1195.7663,477.5278 1199.1815,505.4363 1201.9424,527.998 " fill="none" id="org.apache.wiki.forms.FormElement-org.apache.wiki.forms.FormInput" style="stroke: #A80036; stroke-width: 1.0;"/><polygon fill="none" points="1185.3773,450.259,1189.8961,429.5568,1199.2736,448.5585,1185.3773,450.259" style="stroke: #A80036; stroke-width: 1.0;"/><!--link org.apache.wiki.forms.FormElement to org.apache.wiki.forms.FormSelect--><path d="M1326.0765,420.375 C1391.4171,465.818 1463.1344,515.6959 1507.8578,546.8 " fill="none" id="org.apache.wiki.forms.FormElement-org.apache.wiki.forms.FormSelect" style="stroke: #A80036; stroke-width: 1.0;"/><polygon fill="none" points="1322.0449,426.0976,1309.6222,408.9314,1330.0385,414.604,1322.0449,426.0976" style="stroke: #A80036; stroke-width: 1.0;"/><!--link org.apache.wiki.forms.FormElement to org.apache.wiki.forms.FormTextarea--><path d="M1328.6646,371.4469 C1462.698,420.1271 1654.9065,489.9362 1777.5942,534.4957 " fill="none" id="org.apache.wiki.forms.FormElement-org.apache.wiki.forms.FormTextarea" style="stroke: #A80036; stroke-width: 1.0;"/><polygon fill="none" points="1326.148,377.9804,1309.7391,364.5733,1330.9273,364.8214,1326.148,377.9804" style="stroke: #A80036; stroke-width: 1.0;"/><text fill="#888888" font-family="sans-serif" font-size="10" lengthAdjust="spacingAndGlyphs" textLength="186" x="949" y="662.2822">UMLDoclet 1.1.4, PlantUML 1.2019.05</text><!--
@startuml

    namespace org.apache.wiki.forms {

        class FormInfo [[FormInfo.html]] {
            {static} +EXECUTED: int
            {static} +OK: int
            {static} +ERROR: int
            +setStatus(int): void
            +getStatus(): int
            +setHide(boolean): void
            +hide(): boolean
            +setAction(String): void
            +getAction(): String
            +setName(String): void
            +getName(): String
            +setHandler(String): void
            +getHandler(): String
            +setResult(String): void
            +getResult(): String
            +setError(String): void
            +getError(): String
            +setSubmission(Map<String, String>): void
            +addSubmission(Map<String, String>): void
            +getSubmission(): Map<String, String>
        }

        class FormClose [[FormClose.html]] {
            +execute(WikiContext, Map<String, String>): String
        }

        class FormOpen [[FormOpen.html]] {
            {static} +PARAM_METHOD: String
            +execute(WikiContext, Map<String, String>): String
        }

        abstract class FormElement [[FormElement.html]] {
            {static} +HANDLERPARAM_PREFIX: String
            {static} +FORM_VALUES_CARRIER: String
            {static} +HIDE_SUCCESS: String
            {static} +PARAM_SUBMITHANDLER: String
            {static} +PARAM_ELEMENT: String
            {static} +PARAM_HANDLER: String
            {static} +PARAM_FORM: String
            {static} +PARAM_INPUTNAME: String
            {static} +PARAM_VALUE: String
            {static} +PARAM_HIDEFORM: String
            {static} +PARAM_POPULATE: String
            {static} +PARAM_FORMNAMEHIDDEN: String
            #storeFormInfo(WikiContext, FormInfo): void
            #getFormInfo(WikiContext): FormInfo
        }

        class FormOutput [[FormOutput.html]] {
            +execute(WikiContext, Map<String, String>): String
        }

        class FormSet [[FormSet.html]] {
            +execute(WikiContext, Map<String, String>): String
        }

        class FormInput [[FormInput.html]] {
            {static} +PARAM_TYPE: String
            {static} +PARAM_SIZE: String
            {static} +PARAM_CHECKED: String
            +execute(WikiContext, Map<String, String>): String
        }

        interface FormHandler [[FormHandler.html]] {
        }

        class FormSelect [[FormSelect.html]] {
            +execute(WikiContext, Map<String, String>): String
        }

        class FormTextarea [[FormTextarea.html]] {
            {static} +PARAM_ROWS: String
            {static} +PARAM_COLS: String
            +execute(WikiContext, Map<String, String>): String
        }

        interface java.io.Serializable
        java.io.Serializable <|.. FormInfo

        FormElement <|- - FormClose

        FormElement <|- - FormOpen

        interface org.apache.wiki.api.plugin.WikiPlugin {
            {abstract} +execute(WikiContext, Map<String, String>): String
        }
        org.apache.wiki.api.plugin.WikiPlugin <|.. FormElement

        FormElement <|- - FormOutput

        org.apache.wiki.api.plugin.WikiPlugin <|.. FormSet

        FormElement <|- - FormInput

        FormElement <|- - FormSelect

        FormElement <|- - FormTextarea

    }


    center footer UMLDoclet 1.1.4, PlantUML 1.2019.05
@enduml

PlantUML version 1.2019.05(Sat Apr 20 16:45:36 UTC 2019)
(APACHE source distribution)
Java Runtime: Java(TM) SE Runtime Environment
JVM: Java HotSpot(TM) 64-Bit Server VM
Java Version: 1.8.0_191-b12
Operating System: Linux
OS Version: 4.15.0-74-generic
Default Encoding: ISO-8859-1
Language: en
Country: US
--></g></svg>