<?xml version="1.0" encoding="UTF-8" standalone="no"?><svg xmlns="http://www.w3.org/2000/svg" xmlns:xlink="http://www.w3.org/1999/xlink" contentScriptType="application/ecmascript" contentStyleType="text/css" height="675px" preserveAspectRatio="none" style="width:2080px;height:675px;" version="1.1" viewBox="0 0 2080 675" width="2080px" zoomAndPan="magnify"><defs><filter height="300%" id="frhv9imonpcl5" width="300%" x="-1" y="-1"><feGaussianBlur result="blurOut" stdDeviation="2.0"/><feColorMatrix in="blurOut" result="blurOut2" type="matrix" values="0 0 0 0 0 0 0 0 0 0 0 0 0 0 0 0 0 0 .4 0"/><feOffset dx="4.0" dy="4.0" in="blurOut2" result="blurOut3"/><feBlend in="SourceGraphic" in2="blurOut3" mode="normal"/></filter></defs><g><!--cluster org.apache.wiki.forms--><polygon fill="#FFFFFF" filter="url(#frhv9imonpcl5)" points="14,137,196,137,203,159.2969,2058,159.2969,2058,635,14,635,14,137" style="stroke: #000000; stroke-width: 1.5;"/><line style="stroke: #000000; stroke-width: 1.5;" x1="14" x2="203" y1="159.2969" y2="159.2969"/><text fill="#000000" font-family="sans-serif" font-size="14" font-weight="bold" lengthAdjust="spacingAndGlyphs" textLength="176" x="18" y="151.9951">org.apache.wiki.forms</text><!--cluster org.apache.wiki.api.plugin--><polygon fill="#FFFFFF" filter="url(#frhv9imonpcl5)" points="894,16,1106,16,1113,38.2969,1220,38.2969,1220,112,894,112,894,16" style="stroke: #000000; stroke-width: 1.5;"/><line style="stroke: #000000; stroke-width: 1.5;" x1="894" x2="1113" y1="38.2969" y2="38.2969"/><text fill="#000000" font-family="sans-serif" font-size="14" font-weight="bold" lengthAdjust="spacingAndGlyphs" textLength="206" x="898" y="30.9951">org.apache.wiki.api.plugin</text><!--cluster java.io--><polygon fill="#FFFFFF" filter="url(#frhv9imonpcl5)" points="1822,22.5,1878,22.5,1885,44.7969,1942,44.7969,1942,105.5,1822,105.5,1822,22.5" style="stroke: #000000; stroke-width: 1.5;"/><line style="stroke: #000000; stroke-width: 1.5;" x1="1822" x2="1885" y1="44.7969" y2="44.7969"/><text fill="#000000" font-family="sans-serif" font-size="14" font-weight="bold" lengthAdjust="spacingAndGlyphs" textLength="50" x="1826" y="37.4951">java.io</text><!--class org.apache.wiki.forms.FormTextarea--><a href="FormTextarea.html" target="_top" xlink:actuate="onRequest" xlink:show="new" xlink:title="FormTextarea.html" xlink:type="simple"><rect fill="#FEFECE" filter="url(#frhv9imonpcl5)" height="86.4141" id="org.apache.wiki.forms.FormTextarea" style="stroke: #A80036; stroke-width: 1.5;" width="309" x="21.5" y="534.5"/><ellipse cx="128.75" cy="550.5" fill="#ADD1B2" rx="11" ry="11" style="stroke: #A80036; stroke-width: 1.0;"/><path d="M131.7188,556.1406 Q131.1406,556.4375 130.5,556.5859 Q129.8594,556.7344 129.1563,556.7344 Q126.6563,556.7344 125.3359,555.0859 Q124.0156,553.4375 124.0156,550.3125 Q124.0156,547.1875 125.3359,545.5313 Q126.6563,543.875 129.1563,543.875 Q129.8594,543.875 130.5078,544.0313 Q131.1563,544.1875 131.7188,544.4844 L131.7188,547.2031 Q131.0938,546.625 130.5,546.3516 Q129.9063,546.0781 129.2813,546.0781 Q127.9375,546.0781 127.25,547.1484 Q126.5625,548.2188 126.5625,550.3125 Q126.5625,552.4063 127.25,553.4766 Q127.9375,554.5469 129.2813,554.5469 Q129.9063,554.5469 130.5,554.2734 Q131.0938,554 131.7188,553.4219 L131.7188,556.1406 Z "/><text fill="#000000" font-family="sans-serif" font-size="12" lengthAdjust="spacingAndGlyphs" textLength="86" x="149.25" y="554.6543">FormTextarea</text><line style="stroke: #A80036; stroke-width: 1.5;" x1="22.5" x2="329.5" y1="566.5" y2="566.5"/><ellipse cx="32.5" cy="578.4023" fill="none" rx="3" ry="3" style="stroke: #038048; stroke-width: 1.0;"/><text fill="#000000" font-family="sans-serif" font-size="11" lengthAdjust="spacingAndGlyphs" text-decoration="underline" textLength="118" x="41.5" y="580.7104">PARAM_ROWS: String</text><ellipse cx="32.5" cy="591.207" fill="none" rx="3" ry="3" style="stroke: #038048; stroke-width: 1.0;"/><text fill="#000000" font-family="sans-serif" font-size="11" lengthAdjust="spacingAndGlyphs" text-decoration="underline" textLength="116" x="41.5" y="593.5151">PARAM_COLS: String</text><line style="stroke: #A80036; stroke-width: 1.5;" x1="22.5" x2="329.5" y1="600.1094" y2="600.1094"/><ellipse cx="32.5" cy="612.0117" fill="#84BE84" rx="3" ry="3" style="stroke: #038048; stroke-width: 1.0;"/><text fill="#000000" font-family="sans-serif" font-size="11" lengthAdjust="spacingAndGlyphs" textLength="283" x="41.5" y="614.3198">execute(WikiContext, Map&lt;String, String&gt;): String</text></a><!--class org.apache.wiki.forms.FormElement--><a href="FormElement.html" target="_top" xlink:actuate="onRequest" xlink:show="new" xlink:title="FormElement.html" xlink:type="simple"><rect fill="#FEFECE" filter="url(#frhv9imonpcl5)" height="227.2656" id="org.apache.wiki.forms.FormElement" style="stroke: #A80036; stroke-width: 1.5;" width="267" x="762.5" y="202.5"/><ellipse cx="850.75" cy="218.5" fill="#A9DCDF" rx="11" ry="11" style="stroke: #A80036; stroke-width: 1.0;"/><path d="M850.8594,213.8438 L849.7031,218.9219 L852.0313,218.9219 L850.8594,213.8438 Z M849.375,211.6094 L852.3594,211.6094 L855.7188,224 L853.2656,224 L852.5,220.9375 L849.2188,220.9375 L848.4688,224 L846.0313,224 L849.375,211.6094 Z "/><text fill="#000000" font-family="sans-serif" font-size="12" font-style="italic" lengthAdjust="spacingAndGlyphs" textLength="82" x="871.25" y="222.6543">FormElement</text><line style="stroke: #A80036; stroke-width: 1.5;" x1="763.5" x2="1028.5" y1="234.5" y2="234.5"/><ellipse cx="773.5" cy="246.4023" fill="none" rx="3" ry="3" style="stroke: #038048; stroke-width: 1.0;"/><text fill="#000000" font-family="sans-serif" font-size="11" lengthAdjust="spacingAndGlyphs" text-decoration="underline" textLength="173" x="782.5" y="248.7104">HANDLERPARAM_PREFIX: String</text><ellipse cx="773.5" cy="259.207" fill="none" rx="3" ry="3" style="stroke: #038048; stroke-width: 1.0;"/><text fill="#000000" font-family="sans-serif" font-size="11" lengthAdjust="spacingAndGlyphs" text-decoration="underline" textLength="174" x="782.5" y="261.5151">FORM_VALUES_CARRIER: String</text><ellipse cx="773.5" cy="272.0117" fill="none" rx="3" ry="3" style="stroke: #038048; stroke-width: 1.0;"/><text fill="#000000" font-family="sans-serif" font-size="11" lengthAdjust="spacingAndGlyphs" text-decoration="underline" textLength="129" x="782.5" y="274.3198">HIDE_SUCCESS: String</text><ellipse cx="773.5" cy="284.8164" fill="none" rx="3" ry="3" style="stroke: #038048; stroke-width: 1.0;"/><text fill="#000000" font-family="sans-serif" font-size="11" lengthAdjust="spacingAndGlyphs" text-decoration="underline" textLength="179" x="782.5" y="287.1245">PARAM_SUBMITHANDLER: String</text><ellipse cx="773.5" cy="297.6211" fill="none" rx="3" ry="3" style="stroke: #038048; stroke-width: 1.0;"/><text fill="#000000" font-family="sans-serif" font-size="11" lengthAdjust="spacingAndGlyphs" text-decoration="underline" textLength="136" x="782.5" y="299.9292">PARAM_ELEMENT: String</text><ellipse cx="773.5" cy="310.4258" fill="none" rx="3" ry="3" style="stroke: #038048; stroke-width: 1.0;"/><text fill="#000000" font-family="sans-serif" font-size="11" lengthAdjust="spacingAndGlyphs" text-decoration="underline" textLength="136" x="782.5" y="312.7339">PARAM_HANDLER: String</text><ellipse cx="773.5" cy="323.2305" fill="none" rx="3" ry="3" style="stroke: #038048; stroke-width: 1.0;"/><text fill="#000000" font-family="sans-serif" font-size="11" lengthAdjust="spacingAndGlyphs" text-decoration="underline" textLength="116" x="782.5" y="325.5386">PARAM_FORM: String</text><ellipse cx="773.5" cy="336.0352" fill="none" rx="3" ry="3" style="stroke: #038048; stroke-width: 1.0;"/><text fill="#000000" font-family="sans-serif" font-size="11" lengthAdjust="spacingAndGlyphs" text-decoration="underline" textLength="149" x="782.5" y="338.3433">PARAM_INPUTNAME: String</text><ellipse cx="773.5" cy="348.8398" fill="none" rx="3" ry="3" style="stroke: #038048; stroke-width: 1.0;"/><text fill="#000000" font-family="sans-serif" font-size="11" lengthAdjust="spacingAndGlyphs" text-decoration="underline" textLength="120" x="782.5" y="351.1479">PARAM_VALUE: String</text><ellipse cx="773.5" cy="361.6445" fill="none" rx="3" ry="3" style="stroke: #038048; stroke-width: 1.0;"/><text fill="#000000" font-family="sans-serif" font-size="11" lengthAdjust="spacingAndGlyphs" text-decoration="underline" textLength="142" x="782.5" y="363.9526">PARAM_HIDEFORM: String</text><ellipse cx="773.5" cy="374.4492" fill="none" rx="3" ry="3" style="stroke: #038048; stroke-width: 1.0;"/><text fill="#000000" font-family="sans-serif" font-size="11" lengthAdjust="spacingAndGlyphs" text-decoration="underline" textLength="143" x="782.5" y="376.7573">PARAM_POPULATE: String</text><ellipse cx="773.5" cy="387.2539" fill="none" rx="3" ry="3" style="stroke: #038048; stroke-width: 1.0;"/><text fill="#000000" font-family="sans-serif" font-size="11" lengthAdjust="spacingAndGlyphs" text-decoration="underline" textLength="189" x="782.5" y="389.562">PARAM_FORMNAMEHIDDEN: String</text><line style="stroke: #A80036; stroke-width: 1.5;" x1="763.5" x2="1028.5" y1="396.1563" y2="396.1563"/><polygon fill="#FFFF44" points="773.5,403.0586,777.5,407.0586,773.5,411.0586,769.5,407.0586" style="stroke: #B38D22; stroke-width: 1.0;"/><text fill="#000000" font-family="sans-serif" font-size="11" lengthAdjust="spacingAndGlyphs" textLength="241" x="782.5" y="410.3667">storeFormInfo(WikiContext, FormInfo): void</text><polygon fill="#FFFF44" points="773.5,415.8633,777.5,419.8633,773.5,423.8633,769.5,419.8633" style="stroke: #B38D22; stroke-width: 1.0;"/><text fill="#000000" font-family="sans-serif" font-size="11" lengthAdjust="spacingAndGlyphs" textLength="198" x="782.5" y="423.1714">getFormInfo(WikiContext): FormInfo</text></a><!--class org.apache.wiki.forms.FormInput--><a href="FormInput.html" target="_top" xlink:actuate="onRequest" xlink:show="new" xlink:title="FormInput.html" xlink:type="simple"><rect fill="#FEFECE" filter="url(#frhv9imonpcl5)" height="99.2188" id="org.apache.wiki.forms.FormInput" style="stroke: #A80036; stroke-width: 1.5;" width="309" x="365.5" y="528"/><ellipse cx="484.25" cy="544" fill="#ADD1B2" rx="11" ry="11" style="stroke: #A80036; stroke-width: 1.0;"/><path d="M487.2188,549.6406 Q486.6406,549.9375 486,550.0859 Q485.3594,550.2344 484.6563,550.2344 Q482.1563,550.2344 480.8359,548.5859 Q479.5156,546.9375 479.5156,543.8125 Q479.5156,540.6875 480.8359,539.0313 Q482.1563,537.375 484.6563,537.375 Q485.3594,537.375 486.0078,537.5313 Q486.6563,537.6875 487.2188,537.9844 L487.2188,540.7031 Q486.5938,540.125 486,539.8516 Q485.4063,539.5781 484.7813,539.5781 Q483.4375,539.5781 482.75,540.6484 Q482.0625,541.7188 482.0625,543.8125 Q482.0625,545.9063 482.75,546.9766 Q483.4375,548.0469 484.7813,548.0469 Q485.4063,548.0469 486,547.7734 Q486.5938,547.5 487.2188,546.9219 L487.2188,549.6406 Z "/><text fill="#000000" font-family="sans-serif" font-size="12" lengthAdjust="spacingAndGlyphs" textLength="63" x="504.75" y="548.1543">FormInput</text><line style="stroke: #A80036; stroke-width: 1.5;" x1="366.5" x2="673.5" y1="560" y2="560"/><ellipse cx="376.5" cy="571.9023" fill="none" rx="3" ry="3" style="stroke: #038048; stroke-width: 1.0;"/><text fill="#000000" font-family="sans-serif" font-size="11" lengthAdjust="spacingAndGlyphs" text-decoration="underline" textLength="113" x="385.5" y="574.2104">PARAM_TYPE: String</text><ellipse cx="376.5" cy="584.707" fill="none" rx="3" ry="3" style="stroke: #038048; stroke-width: 1.0;"/><text fill="#000000" font-family="sans-serif" font-size="11" lengthAdjust="spacingAndGlyphs" text-decoration="underline" textLength="112" x="385.5" y="587.0151">PARAM_SIZE: String</text><ellipse cx="376.5" cy="597.5117" fill="none" rx="3" ry="3" style="stroke: #038048; stroke-width: 1.0;"/><text fill="#000000" font-family="sans-serif" font-size="11" lengthAdjust="spacingAndGlyphs" text-decoration="underline" textLength="138" x="385.5" y="599.8198">PARAM_CHECKED: String</text><line style="stroke: #A80036; stroke-width: 1.5;" x1="366.5" x2="673.5" y1="606.4141" y2="606.4141"/><ellipse cx="376.5" cy="618.3164" fill="#84BE84" rx="3" ry="3" style="stroke: #038048; stroke-width: 1.0;"/><text fill="#000000" font-family="sans-serif" font-size="11" lengthAdjust="spacingAndGlyphs" textLength="283" x="385.5" y="620.6245">execute(WikiContext, Map&lt;String, String&gt;): String</text></a><!--class org.apache.wiki.forms.FormSelect--><a href="FormSelect.html" target="_top" xlink:actuate="onRequest" xlink:show="new" xlink:title="FormSelect.html" xlink:type="simple"><rect fill="#FEFECE" filter="url(#frhv9imonpcl5)" height="60.8047" id="org.apache.wiki.forms.FormSelect" style="stroke: #A80036; stroke-width: 1.5;" width="309" x="709.5" y="547"/><ellipse cx="824.75" cy="563" fill="#ADD1B2" rx="11" ry="11" style="stroke: #A80036; stroke-width: 1.0;"/><path d="M827.7188,568.6406 Q827.1406,568.9375 826.5,569.0859 Q825.8594,569.2344 825.1563,569.2344 Q822.6563,569.2344 821.3359,567.5859 Q820.0156,565.9375 820.0156,562.8125 Q820.0156,559.6875 821.3359,558.0313 Q822.6563,556.375 825.1563,556.375 Q825.8594,556.375 826.5078,556.5313 Q827.1563,556.6875 827.7188,556.9844 L827.7188,559.7031 Q827.0938,559.125 826.5,558.8516 Q825.9063,558.5781 825.2813,558.5781 Q823.9375,558.5781 823.25,559.6484 Q822.5625,560.7188 822.5625,562.8125 Q822.5625,564.9063 823.25,565.9766 Q823.9375,567.0469 825.2813,567.0469 Q825.9063,567.0469 826.5,566.7734 Q827.0938,566.5 827.7188,565.9219 L827.7188,568.6406 Z "/><text fill="#000000" font-family="sans-serif" font-size="12" lengthAdjust="spacingAndGlyphs" textLength="70" x="845.25" y="567.1543">FormSelect</text><line style="stroke: #A80036; stroke-width: 1.5;" x1="710.5" x2="1017.5" y1="579" y2="579"/><line style="stroke: #A80036; stroke-width: 1.5;" x1="710.5" x2="1017.5" y1="587" y2="587"/><ellipse cx="720.5" cy="598.9023" fill="#84BE84" rx="3" ry="3" style="stroke: #038048; stroke-width: 1.0;"/><text fill="#000000" font-family="sans-serif" font-size="11" lengthAdjust="spacingAndGlyphs" textLength="283" x="729.5" y="601.2104">execute(WikiContext, Map&lt;String, String&gt;): String</text></a><!--class org.apache.wiki.forms.FormClose--><a href="FormClose.html" target="_top" xlink:actuate="onRequest" xlink:show="new" xlink:title="FormClose.html" xlink:type="simple"><rect fill="#FEFECE" filter="url(#frhv9imonpcl5)" height="60.8047" id="org.apache.wiki.forms.FormClose" style="stroke: #A80036; stroke-width: 1.5;" width="309" x="1053.5" y="547"/><ellipse cx="1171.25" cy="563" fill="#ADD1B2" rx="11" ry="11" style="stroke: #A80036; stroke-width: 1.0;"/><path d="M1174.2188,568.6406 Q1173.6406,568.9375 1173,569.0859 Q1172.3594,569.2344 1171.6563,569.2344 Q1169.1563,569.2344 1167.8359,567.5859 Q1166.5156,565.9375 1166.5156,562.8125 Q1166.5156,559.6875 1167.8359,558.0313 Q1169.1563,556.375 1171.6563,556.375 Q1172.3594,556.375 1173.0078,556.5313 Q1173.6563,556.6875 1174.2188,556.9844 L1174.2188,559.7031 Q1173.5938,559.125 1173,558.8516 Q1172.4063,558.5781 1171.7813,558.5781 Q1170.4375,558.5781 1169.75,559.6484 Q1169.0625,560.7188 1169.0625,562.8125 Q1169.0625,564.9063 1169.75,565.9766 Q1170.4375,567.0469 1171.7813,567.0469 Q1172.4063,567.0469 1173,566.7734 Q1173.5938,566.5 1174.2188,565.9219 L1174.2188,568.6406 Z "/><text fill="#000000" font-family="sans-serif" font-size="12" lengthAdjust="spacingAndGlyphs" textLength="65" x="1191.75" y="567.1543">FormClose</text><line style="stroke: #A80036; stroke-width: 1.5;" x1="1054.5" x2="1361.5" y1="579" y2="579"/><line style="stroke: #A80036; stroke-width: 1.5;" x1="1054.5" x2="1361.5" y1="587" y2="587"/><ellipse cx="1064.5" cy="598.9023" fill="#84BE84" rx="3" ry="3" style="stroke: #038048; stroke-width: 1.0;"/><text fill="#000000" font-family="sans-serif" font-size="11" lengthAdjust="spacingAndGlyphs" textLength="283" x="1073.5" y="601.2104">execute(WikiContext, Map&lt;String, String&gt;): String</text></a><!--class org.apache.wiki.forms.FormOutput--><a href="FormOutput.html" target="_top" xlink:actuate="onRequest" xlink:show="new" xlink:title="FormOutput.html" xlink:type="simple"><rect fill="#FEFECE" filter="url(#frhv9imonpcl5)" height="60.8047" id="org.apache.wiki.forms.FormOutput" style="stroke: #A80036; stroke-width: 1.5;" width="309" x="1397.5" y="547"/><ellipse cx="1510.75" cy="563" fill="#ADD1B2" rx="11" ry="11" style="stroke: #A80036; stroke-width: 1.0;"/><path d="M1513.7188,568.6406 Q1513.1406,568.9375 1512.5,569.0859 Q1511.8594,569.2344 1511.1563,569.2344 Q1508.6563,569.2344 1507.3359,567.5859 Q1506.0156,565.9375 1506.0156,562.8125 Q1506.0156,559.6875 1507.3359,558.0313 Q1508.6563,556.375 1511.1563,556.375 Q1511.8594,556.375 1512.5078,556.5313 Q1513.1563,556.6875 1513.7188,556.9844 L1513.7188,559.7031 Q1513.0938,559.125 1512.5,558.8516 Q1511.9063,558.5781 1511.2813,558.5781 Q1509.9375,558.5781 1509.25,559.6484 Q1508.5625,560.7188 1508.5625,562.8125 Q1508.5625,564.9063 1509.25,565.9766 Q1509.9375,567.0469 1511.2813,567.0469 Q1511.9063,567.0469 1512.5,566.7734 Q1513.0938,566.5 1513.7188,565.9219 L1513.7188,568.6406 Z "/><text fill="#000000" font-family="sans-serif" font-size="12" lengthAdjust="spacingAndGlyphs" textLength="74" x="1531.25" y="567.1543">FormOutput</text><line style="stroke: #A80036; stroke-width: 1.5;" x1="1398.5" x2="1705.5" y1="579" y2="579"/><line style="stroke: #A80036; stroke-width: 1.5;" x1="1398.5" x2="1705.5" y1="587" y2="587"/><ellipse cx="1408.5" cy="598.9023" fill="#84BE84" rx="3" ry="3" style="stroke: #038048; stroke-width: 1.0;"/><text fill="#000000" font-family="sans-serif" font-size="11" lengthAdjust="spacingAndGlyphs" textLength="283" x="1417.5" y="601.2104">execute(WikiContext, Map&lt;String, String&gt;): String</text></a><!--class org.apache.wiki.forms.FormHandler--><a href="FormHandler.html" target="_top" xlink:actuate="onRequest" xlink:show="new" xlink:title="FormHandler.html" xlink:type="simple"><rect fill="#FEFECE" filter="url(#frhv9imonpcl5)" height="48" id="org.apache.wiki.forms.FormHandler" style="stroke: #A80036; stroke-width: 1.5;" width="112" x="1536" y="292"/><ellipse cx="1551" cy="308" fill="#B4A7E5" rx="11" ry="11" style="stroke: #A80036; stroke-width: 1.0;"/><path d="M1546.9219,303.7656 L1546.9219,301.6094 L1554.3125,301.6094 L1554.3125,303.7656 L1551.8438,303.7656 L1551.8438,311.8438 L1554.3125,311.8438 L1554.3125,314 L1546.9219,314 L1546.9219,311.8438 L1549.3906,311.8438 L1549.3906,303.7656 L1546.9219,303.7656 Z "/><text fill="#000000" font-family="sans-serif" font-size="12" font-style="italic" lengthAdjust="spacingAndGlyphs" textLength="80" x="1565" y="312.1543">FormHandler</text><line style="stroke: #A80036; stroke-width: 1.5;" x1="1537" x2="1647" y1="324" y2="324"/><line style="stroke: #A80036; stroke-width: 1.5;" x1="1537" x2="1647" y1="332" y2="332"/></a><!--class org.apache.wiki.forms.FormInfo--><a href="FormInfo.html" target="_top" xlink:actuate="onRequest" xlink:show="new" xlink:title="FormInfo.html" xlink:type="simple"><rect fill="#FEFECE" filter="url(#frhv9imonpcl5)" height="304.0938" id="org.apache.wiki.forms.FormInfo" style="stroke: #A80036; stroke-width: 1.5;" width="270" x="1747" y="164"/><ellipse cx="1850.75" cy="180" fill="#ADD1B2" rx="11" ry="11" style="stroke: #A80036; stroke-width: 1.0;"/><path d="M1853.7188,185.6406 Q1853.1406,185.9375 1852.5,186.0859 Q1851.8594,186.2344 1851.1563,186.2344 Q1848.6563,186.2344 1847.3359,184.5859 Q1846.0156,182.9375 1846.0156,179.8125 Q1846.0156,176.6875 1847.3359,175.0313 Q1848.6563,173.375 1851.1563,173.375 Q1851.8594,173.375 1852.5078,173.5313 Q1853.1563,173.6875 1853.7188,173.9844 L1853.7188,176.7031 Q1853.0938,176.125 1852.5,175.8516 Q1851.9063,175.5781 1851.2813,175.5781 Q1849.9375,175.5781 1849.25,176.6484 Q1848.5625,177.7188 1848.5625,179.8125 Q1848.5625,181.9063 1849.25,182.9766 Q1849.9375,184.0469 1851.2813,184.0469 Q1851.9063,184.0469 1852.5,183.7734 Q1853.0938,183.5 1853.7188,182.9219 L1853.7188,185.6406 Z "/><text fill="#000000" font-family="sans-serif" font-size="12" lengthAdjust="spacingAndGlyphs" textLength="54" x="1871.25" y="184.1543">FormInfo</text><line style="stroke: #A80036; stroke-width: 1.5;" x1="1748" x2="2016" y1="196" y2="196"/><ellipse cx="1758" cy="207.9023" fill="none" rx="3" ry="3" style="stroke: #038048; stroke-width: 1.0;"/><text fill="#000000" font-family="sans-serif" font-size="11" lengthAdjust="spacingAndGlyphs" text-decoration="underline" textLength="81" x="1767" y="210.2104">EXECUTED: int</text><ellipse cx="1758" cy="220.707" fill="none" rx="3" ry="3" style="stroke: #038048; stroke-width: 1.0;"/><text fill="#000000" font-family="sans-serif" font-size="11" lengthAdjust="spacingAndGlyphs" text-decoration="underline" textLength="38" x="1767" y="223.0151">OK: int</text><ellipse cx="1758" cy="233.5117" fill="none" rx="3" ry="3" style="stroke: #038048; stroke-width: 1.0;"/><text fill="#000000" font-family="sans-serif" font-size="11" lengthAdjust="spacingAndGlyphs" text-decoration="underline" textLength="59" x="1767" y="235.8198">ERROR: int</text><line style="stroke: #A80036; stroke-width: 1.5;" x1="1748" x2="2016" y1="242.4141" y2="242.4141"/><ellipse cx="1758" cy="254.3164" fill="#84BE84" rx="3" ry="3" style="stroke: #038048; stroke-width: 1.0;"/><text fill="#000000" font-family="sans-serif" font-size="11" lengthAdjust="spacingAndGlyphs" textLength="108" x="1767" y="256.6245">setStatus(int): void</text><ellipse cx="1758" cy="267.1211" fill="#84BE84" rx="3" ry="3" style="stroke: #038048; stroke-width: 1.0;"/><text fill="#000000" font-family="sans-serif" font-size="11" lengthAdjust="spacingAndGlyphs" textLength="85" x="1767" y="269.4292">getStatus(): int</text><ellipse cx="1758" cy="279.9258" fill="#84BE84" rx="3" ry="3" style="stroke: #038048; stroke-width: 1.0;"/><text fill="#000000" font-family="sans-serif" font-size="11" lengthAdjust="spacingAndGlyphs" textLength="127" x="1767" y="282.2339">setHide(boolean): void</text><ellipse cx="1758" cy="292.7305" fill="#84BE84" rx="3" ry="3" style="stroke: #038048; stroke-width: 1.0;"/><text fill="#000000" font-family="sans-serif" font-size="11" lengthAdjust="spacingAndGlyphs" textLength="85" x="1767" y="295.0386">hide(): boolean</text><ellipse cx="1758" cy="305.5352" fill="#84BE84" rx="3" ry="3" style="stroke: #038048; stroke-width: 1.0;"/><text fill="#000000" font-family="sans-serif" font-size="11" lengthAdjust="spacingAndGlyphs" textLength="125" x="1767" y="307.8433">setAction(String): void</text><ellipse cx="1758" cy="318.3398" fill="#84BE84" rx="3" ry="3" style="stroke: #038048; stroke-width: 1.0;"/><text fill="#000000" font-family="sans-serif" font-size="11" lengthAdjust="spacingAndGlyphs" textLength="102" x="1767" y="320.6479">getAction(): String</text><ellipse cx="1758" cy="331.1445" fill="#84BE84" rx="3" ry="3" style="stroke: #038048; stroke-width: 1.0;"/><text fill="#000000" font-family="sans-serif" font-size="11" lengthAdjust="spacingAndGlyphs" textLength="124" x="1767" y="333.4526">setName(String): void</text><ellipse cx="1758" cy="343.9492" fill="#84BE84" rx="3" ry="3" style="stroke: #038048; stroke-width: 1.0;"/><text fill="#000000" font-family="sans-serif" font-size="11" lengthAdjust="spacingAndGlyphs" textLength="101" x="1767" y="346.2573">getName(): String</text><ellipse cx="1758" cy="356.7539" fill="#84BE84" rx="3" ry="3" style="stroke: #038048; stroke-width: 1.0;"/><text fill="#000000" font-family="sans-serif" font-size="11" lengthAdjust="spacingAndGlyphs" textLength="135" x="1767" y="359.062">setHandler(String): void</text><ellipse cx="1758" cy="369.5586" fill="#84BE84" rx="3" ry="3" style="stroke: #038048; stroke-width: 1.0;"/><text fill="#000000" font-family="sans-serif" font-size="11" lengthAdjust="spacingAndGlyphs" textLength="112" x="1767" y="371.8667">getHandler(): String</text><ellipse cx="1758" cy="382.3633" fill="#84BE84" rx="3" ry="3" style="stroke: #038048; stroke-width: 1.0;"/><text fill="#000000" font-family="sans-serif" font-size="11" lengthAdjust="spacingAndGlyphs" textLength="126" x="1767" y="384.6714">setResult(String): void</text><ellipse cx="1758" cy="395.168" fill="#84BE84" rx="3" ry="3" style="stroke: #038048; stroke-width: 1.0;"/><text fill="#000000" font-family="sans-serif" font-size="11" lengthAdjust="spacingAndGlyphs" textLength="103" x="1767" y="397.4761">getResult(): String</text><ellipse cx="1758" cy="407.9727" fill="#84BE84" rx="3" ry="3" style="stroke: #038048; stroke-width: 1.0;"/><text fill="#000000" font-family="sans-serif" font-size="11" lengthAdjust="spacingAndGlyphs" textLength="120" x="1767" y="410.2808">setError(String): void</text><ellipse cx="1758" cy="420.7773" fill="#84BE84" rx="3" ry="3" style="stroke: #038048; stroke-width: 1.0;"/><text fill="#000000" font-family="sans-serif" font-size="11" lengthAdjust="spacingAndGlyphs" textLength="97" x="1767" y="423.0854">getError(): String</text><ellipse cx="1758" cy="433.582" fill="#84BE84" rx="3" ry="3" style="stroke: #038048; stroke-width: 1.0;"/><text fill="#000000" font-family="sans-serif" font-size="11" lengthAdjust="spacingAndGlyphs" textLength="241" x="1767" y="435.8901">setSubmission(Map&lt;String, String&gt;): void</text><ellipse cx="1758" cy="446.3867" fill="#84BE84" rx="3" ry="3" style="stroke: #038048; stroke-width: 1.0;"/><text fill="#000000" font-family="sans-serif" font-size="11" lengthAdjust="spacingAndGlyphs" textLength="244" x="1767" y="448.6948">addSubmission(Map&lt;String, String&gt;): void</text><ellipse cx="1758" cy="459.1914" fill="#84BE84" rx="3" ry="3" style="stroke: #038048; stroke-width: 1.0;"/><text fill="#000000" font-family="sans-serif" font-size="11" lengthAdjust="spacingAndGlyphs" textLength="218" x="1767" y="461.4995">getSubmission(): Map&lt;String, String&gt;</text></a><!--class org.apache.wiki.forms.FormSet--><a href="FormSet.html" target="_top" xlink:actuate="onRequest" xlink:show="new" xlink:title="FormSet.html" xlink:type="simple"><rect fill="#FEFECE" filter="url(#frhv9imonpcl5)" height="60.8047" id="org.apache.wiki.forms.FormSet" style="stroke: #A80036; stroke-width: 1.5;" width="309" x="1064.5" y="285.5"/><ellipse cx="1188.75" cy="301.5" fill="#ADD1B2" rx="11" ry="11" style="stroke: #A80036; stroke-width: 1.0;"/><path d="M1191.7188,307.1406 Q1191.1406,307.4375 1190.5,307.5859 Q1189.8594,307.7344 1189.1563,307.7344 Q1186.6563,307.7344 1185.3359,306.0859 Q1184.0156,304.4375 1184.0156,301.3125 Q1184.0156,298.1875 1185.3359,296.5313 Q1186.6563,294.875 1189.1563,294.875 Q1189.8594,294.875 1190.5078,295.0313 Q1191.1563,295.1875 1191.7188,295.4844 L1191.7188,298.2031 Q1191.0938,297.625 1190.5,297.3516 Q1189.9063,297.0781 1189.2813,297.0781 Q1187.9375,297.0781 1187.25,298.1484 Q1186.5625,299.2188 1186.5625,301.3125 Q1186.5625,303.4063 1187.25,304.4766 Q1187.9375,305.5469 1189.2813,305.5469 Q1189.9063,305.5469 1190.5,305.2734 Q1191.0938,305 1191.7188,304.4219 L1191.7188,307.1406 Z "/><text fill="#000000" font-family="sans-serif" font-size="12" lengthAdjust="spacingAndGlyphs" textLength="52" x="1209.25" y="305.6543">FormSet</text><line style="stroke: #A80036; stroke-width: 1.5;" x1="1065.5" x2="1372.5" y1="317.5" y2="317.5"/><line style="stroke: #A80036; stroke-width: 1.5;" x1="1065.5" x2="1372.5" y1="325.5" y2="325.5"/><ellipse cx="1075.5" cy="337.4023" fill="#84BE84" rx="3" ry="3" style="stroke: #038048; stroke-width: 1.0;"/><text fill="#000000" font-family="sans-serif" font-size="11" lengthAdjust="spacingAndGlyphs" textLength="283" x="1084.5" y="339.7104">execute(WikiContext, Map&lt;String, String&gt;): String</text></a><!--class org.apache.wiki.forms.FormOpen--><a href="FormOpen.html" target="_top" xlink:actuate="onRequest" xlink:show="new" xlink:title="FormOpen.html" xlink:type="simple"><rect fill="#FEFECE" filter="url(#frhv9imonpcl5)" height="73.6094" id="org.apache.wiki.forms.FormOpen" style="stroke: #A80036; stroke-width: 1.5;" width="309" x="1741.5" y="540.5"/><ellipse cx="1859.75" cy="556.5" fill="#ADD1B2" rx="11" ry="11" style="stroke: #A80036; stroke-width: 1.0;"/><path d="M1862.7188,562.1406 Q1862.1406,562.4375 1861.5,562.5859 Q1860.8594,562.7344 1860.1563,562.7344 Q1857.6563,562.7344 1856.3359,561.0859 Q1855.0156,559.4375 1855.0156,556.3125 Q1855.0156,553.1875 1856.3359,551.5313 Q1857.6563,549.875 1860.1563,549.875 Q1860.8594,549.875 1861.5078,550.0313 Q1862.1563,550.1875 1862.7188,550.4844 L1862.7188,553.2031 Q1862.0938,552.625 1861.5,552.3516 Q1860.9063,552.0781 1860.2813,552.0781 Q1858.9375,552.0781 1858.25,553.1484 Q1857.5625,554.2188 1857.5625,556.3125 Q1857.5625,558.4063 1858.25,559.4766 Q1858.9375,560.5469 1860.2813,560.5469 Q1860.9063,560.5469 1861.5,560.2734 Q1862.0938,560 1862.7188,559.4219 L1862.7188,562.1406 Z "/><text fill="#000000" font-family="sans-serif" font-size="12" lengthAdjust="spacingAndGlyphs" textLength="64" x="1880.25" y="560.6543">FormOpen</text><line style="stroke: #A80036; stroke-width: 1.5;" x1="1742.5" x2="2049.5" y1="572.5" y2="572.5"/><ellipse cx="1752.5" cy="584.4023" fill="none" rx="3" ry="3" style="stroke: #038048; stroke-width: 1.0;"/><text fill="#000000" font-family="sans-serif" font-size="11" lengthAdjust="spacingAndGlyphs" text-decoration="underline" textLength="133" x="1761.5" y="586.7104">PARAM_METHOD: String</text><line style="stroke: #A80036; stroke-width: 1.5;" x1="1742.5" x2="2049.5" y1="593.3047" y2="593.3047"/><ellipse cx="1752.5" cy="605.207" fill="#84BE84" rx="3" ry="3" style="stroke: #038048; stroke-width: 1.0;"/><text fill="#000000" font-family="sans-serif" font-size="11" lengthAdjust="spacingAndGlyphs" textLength="283" x="1761.5" y="607.5151">execute(WikiContext, Map&lt;String, String&gt;): String</text></a><!--class org.apache.wiki.api.plugin.WikiPlugin--><rect fill="#FEFECE" filter="url(#frhv9imonpcl5)" height="60.8047" id="org.apache.wiki.api.plugin.WikiPlugin" style="stroke: #A80036; stroke-width: 1.5;" width="310" x="902" y="43"/><ellipse cx="1021.75" cy="59" fill="#B4A7E5" rx="11" ry="11" style="stroke: #A80036; stroke-width: 1.0;"/><path d="M1017.6719,54.7656 L1017.6719,52.6094 L1025.0625,52.6094 L1025.0625,54.7656 L1022.5938,54.7656 L1022.5938,62.8438 L1025.0625,62.8438 L1025.0625,65 L1017.6719,65 L1017.6719,62.8438 L1020.1406,62.8438 L1020.1406,54.7656 L1017.6719,54.7656 Z "/><text fill="#000000" font-family="sans-serif" font-size="12" font-style="italic" lengthAdjust="spacingAndGlyphs" textLength="62" x="1042.25" y="63.1543">WikiPlugin</text><line style="stroke: #A80036; stroke-width: 1.5;" x1="903" x2="1211" y1="75" y2="75"/><line style="stroke: #A80036; stroke-width: 1.5;" x1="903" x2="1211" y1="83" y2="83"/><ellipse cx="913" cy="94.9023" fill="#84BE84" rx="3" ry="3" style="stroke: #038048; stroke-width: 1.0;"/><text fill="#000000" font-family="sans-serif" font-size="11" font-style="italic" lengthAdjust="spacingAndGlyphs" textLength="284" x="922" y="97.2104">execute(WikiContext, Map&lt;String, String&gt;): String</text><!--class java.io.Serializable--><rect fill="#FEFECE" filter="url(#frhv9imonpcl5)" height="48" id="java.io.Serializable" style="stroke: #A80036; stroke-width: 1.5;" width="103" x="1830.5" y="49.5"/><ellipse cx="1845.5" cy="65.5" fill="#B4A7E5" rx="11" ry="11" style="stroke: #A80036; stroke-width: 1.0;"/><path d="M1841.4219,61.2656 L1841.4219,59.1094 L1848.8125,59.1094 L1848.8125,61.2656 L1846.3438,61.2656 L1846.3438,69.3438 L1848.8125,69.3438 L1848.8125,71.5 L1841.4219,71.5 L1841.4219,69.3438 L1843.8906,69.3438 L1843.8906,61.2656 L1841.4219,61.2656 Z "/><text fill="#000000" font-family="sans-serif" font-size="12" font-style="italic" lengthAdjust="spacingAndGlyphs" textLength="71" x="1859.5" y="69.6543">Serializable</text><line style="stroke: #A80036; stroke-width: 1.5;" x1="1831.5" x2="1932.5" y1="81.5" y2="81.5"/><line style="stroke: #A80036; stroke-width: 1.5;" x1="1831.5" x2="1932.5" y1="89.5" y2="89.5"/><!--link org.apache.wiki.forms.FormElement to org.apache.wiki.forms.FormTextarea--><path d="M743.3354,371.4469 C609.302,420.1271 417.0935,489.9362 294.4058,534.4957 " fill="none" id="org.apache.wiki.forms.FormElement-org.apache.wiki.forms.FormTextarea" style="stroke: #A80036; stroke-width: 1.0;"/><polygon fill="none" points="741.0727,364.8214,762.2609,364.5733,745.852,377.9804,741.0727,364.8214" style="stroke: #A80036; stroke-width: 1.0;"/><!--link org.apache.wiki.api.plugin.WikiPlugin to org.apache.wiki.forms.FormElement--><path d="M1025.3362,121.1923 C1009.8325,144.5443 990.4438,173.7478 971.4333,202.3815 " fill="none" id="org.apache.wiki.api.plugin.WikiPlugin-org.apache.wiki.forms.FormElement" style="stroke: #A80036; stroke-width: 1.0; stroke-dasharray: 7.0,7.0;"/><polygon fill="none" points="1019.7152,117.0031,1036.6092,104.2128,1031.3787,124.7467,1019.7152,117.0031" style="stroke: #A80036; stroke-width: 1.0;"/><!--link org.apache.wiki.forms.FormElement to org.apache.wiki.forms.FormInput--><path d="M745.6186,420.5871 C692.3202,457.655 634.8159,497.648 591.2011,527.9812 " fill="none" id="org.apache.wiki.forms.FormElement-org.apache.wiki.forms.FormInput" style="stroke: #A80036; stroke-width: 1.0;"/><polygon fill="none" points="741.9615,414.604,762.3778,408.9314,749.9551,426.0976,741.9615,414.604" style="stroke: #A80036; stroke-width: 1.0;"/><!--link org.apache.wiki.forms.FormElement to org.apache.wiki.forms.FormSelect--><path d="M879.6623,449.5093 C875.1924,486.0368 870.7577,522.2769 867.7544,546.8197 " fill="none" id="org.apache.wiki.forms.FormElement-org.apache.wiki.forms.FormSelect" style="stroke: #A80036; stroke-width: 1.0;"/><polygon fill="none" points="872.7264,448.5585,882.1039,429.5568,886.6227,450.259,872.7264,448.5585" style="stroke: #A80036; stroke-width: 1.0;"/><!--link org.apache.wiki.forms.FormElement to org.apache.wiki.forms.FormClose--><path d="M1019.1167,443.6742 C1028.3716,452.1048 1037.7217,460.2957 1047,468 C1082.1089,497.1529 1124.9616,526.0097 1157.6273,546.7754 " fill="none" id="org.apache.wiki.forms.FormElement-org.apache.wiki.forms.FormClose" style="stroke: #A80036; stroke-width: 1.0;"/><polygon fill="none" points="1014.0605,448.5316,1004.174,429.7897,1023.5902,438.2756,1014.0605,448.5316" style="stroke: #A80036; stroke-width: 1.0;"/><!--link org.apache.wiki.forms.FormElement to org.apache.wiki.forms.FormOutput--><path d="M1008.3434,442.7794 C1020.6529,452.3307 1033.604,460.9665 1047,468 C1180.1465,537.908 1233.551,493.8269 1380,528 C1403.603,533.5076 1428.7904,540.2544 1452.4056,546.9738 " fill="none" id="org.apache.wiki.forms.FormElement-org.apache.wiki.forms.FormOutput" style="stroke: #A80036; stroke-width: 1.0;"/><polygon fill="none" points="1003.5243,447.8785,992.5475,429.7535,1012.4313,437.0773,1003.5243,447.8785" style="stroke: #A80036; stroke-width: 1.0;"/><!--link java.io.Serializable to org.apache.wiki.forms.FormInfo--><path d="M1882,117.6761 C1882,131.3418 1882,147.2387 1882,163.9731 " fill="none" id="java.io.Serializable-org.apache.wiki.forms.FormInfo" style="stroke: #A80036; stroke-width: 1.0; stroke-dasharray: 7.0,7.0;"/><polygon fill="none" points="1875.0001,117.6384,1882,97.6384,1889.0001,117.6384,1875.0001,117.6384" style="stroke: #A80036; stroke-width: 1.0;"/><!--link org.apache.wiki.api.plugin.WikiPlugin to org.apache.wiki.forms.FormSet--><path d="M1088.6325,120.8512 C1121.0986,169.4501 1170.67,243.6541 1198.394,285.1545 " fill="none" id="org.apache.wiki.api.plugin.WikiPlugin-org.apache.wiki.forms.FormSet" style="stroke: #A80036; stroke-width: 1.0; stroke-dasharray: 7.0,7.0;"/><polygon fill="none" points="1082.8066,124.7317,1077.5174,104.2128,1094.4479,116.9548,1082.8066,124.7317" style="stroke: #A80036; stroke-width: 1.0;"/><!--link org.apache.wiki.forms.FormElement to org.apache.wiki.forms.FormOpen--><path d="M1005.565,442.4619 C1018.6347,452.4049 1032.5149,461.2064 1047,468 C1183.7417,532.1328 1575.5239,500.3207 1724,528 C1741.7172,531.3029 1760.2351,535.65 1778.2815,540.3987 " fill="none" id="org.apache.wiki.forms.FormElement-org.apache.wiki.forms.FormOpen" style="stroke: #A80036; stroke-width: 1.0;"/><polygon fill="none" points="1001.1321,447.8795,990.0386,429.8258,1009.9692,437.021,1001.1321,447.8795" style="stroke: #A80036; stroke-width: 1.0;"/><text fill="#888888" font-family="sans-serif" font-size="10" lengthAdjust="spacingAndGlyphs" textLength="186" x="949" y="662.2822">UMLDoclet 1.1.4, PlantUML 1.2019.05</text><!--
@startuml

    namespace org.apache.wiki.forms {

        class FormTextarea [[FormTextarea.html]] {
            {static} +PARAM_ROWS: String
            {static} +PARAM_COLS: String
            +execute(WikiContext, Map<String, String>): String
        }

        abstract class FormElement [[FormElement.html]] {
            {static} +HANDLERPARAM_PREFIX: String
            {static} +FORM_VALUES_CARRIER: String
            {static} +HIDE_SUCCESS: String
            {static} +PARAM_SUBMITHANDLER: String
            {static} +PARAM_ELEMENT: String
            {static} +PARAM_HANDLER: String
            {static} +PARAM_FORM: String
            {static} +PARAM_INPUTNAME: String
            {static} +PARAM_VALUE: String
            {static} +PARAM_HIDEFORM: String
            {static} +PARAM_POPULATE: String
            {static} +PARAM_FORMNAMEHIDDEN: String
            #storeFormInfo(WikiContext, FormInfo): void
            #getFormInfo(WikiContext): FormInfo
        }

        class FormInput [[FormInput.html]] {
            {static} +PARAM_TYPE: String
            {static} +PARAM_SIZE: String
            {static} +PARAM_CHECKED: String
            +execute(WikiContext, Map<String, String>): String
        }

        class FormSelect [[FormSelect.html]] {
            +execute(WikiContext, Map<String, String>): String
        }

        class FormClose [[FormClose.html]] {
            +execute(WikiContext, Map<String, String>): String
        }

        class FormOutput [[FormOutput.html]] {
            +execute(WikiContext, Map<String, String>): String
        }

        interface FormHandler [[FormHandler.html]] {
        }

        class FormInfo [[FormInfo.html]] {
            {static} +EXECUTED: int
            {static} +OK: int
            {static} +ERROR: int
            +setStatus(int): void
            +getStatus(): int
            +setHide(boolean): void
            +hide(): boolean
            +setAction(String): void
            +getAction(): String
            +setName(String): void
            +getName(): String
            +setHandler(String): void
            +getHandler(): String
            +setResult(String): void
            +getResult(): String
            +setError(String): void
            +getError(): String
            +setSubmission(Map<String, String>): void
            +addSubmission(Map<String, String>): void
            +getSubmission(): Map<String, String>
        }

        class FormSet [[FormSet.html]] {
            +execute(WikiContext, Map<String, String>): String
        }

        class FormOpen [[FormOpen.html]] {
            {static} +PARAM_METHOD: String
            +execute(WikiContext, Map<String, String>): String
        }

        FormElement <|- - FormTextarea

        interface org.apache.wiki.api.plugin.WikiPlugin {
            {abstract} +execute(WikiContext, Map<String, String>): String
        }
        org.apache.wiki.api.plugin.WikiPlugin <|.. FormElement

        FormElement <|- - FormInput

        FormElement <|- - FormSelect

        FormElement <|- - FormClose

        FormElement <|- - FormOutput

        interface java.io.Serializable
        java.io.Serializable <|.. FormInfo

        org.apache.wiki.api.plugin.WikiPlugin <|.. FormSet

        FormElement <|- - FormOpen

    }


    center footer UMLDoclet 1.1.4, PlantUML 1.2019.05
@enduml

PlantUML version 1.2019.05(Sat Apr 20 16:45:36 UTC 2019)
(APACHE source distribution)
Java Runtime: Java(TM) SE Runtime Environment
JVM: Java HotSpot(TM) 64-Bit Server VM
Java Version: 1.8.0_191-b12
Operating System: Linux
OS Version: 4.15.0-76-generic
Default Encoding: ISO-8859-1
Language: en
Country: US
--></g></svg>