<?xml version="1.0" encoding="UTF-8" standalone="no"?><svg xmlns="http://www.w3.org/2000/svg" xmlns:xlink="http://www.w3.org/1999/xlink" contentScriptType="application/ecmascript" contentStyleType="text/css" height="310px" preserveAspectRatio="none" style="width:267px;height:310px;" version="1.1" viewBox="0 0 267 310" width="267px" zoomAndPan="magnify"><defs><filter height="300%" id="flsdw9n5bugav" width="300%" x="-1" y="-1"><feGaussianBlur result="blurOut" stdDeviation="2.0"/><feColorMatrix in="blurOut" result="blurOut2" type="matrix" values="0 0 0 0 0 0 0 0 0 0 0 0 0 0 0 0 0 0 .4 0"/><feOffset dx="4.0" dy="4.0" in="blurOut2" result="blurOut3"/><feBlend in="SourceGraphic" in2="blurOut3" mode="normal"/></filter></defs><g><!--class PersistentMapDecorator--><a href="PersistentMapDecorator.html" target="_top" xlink:actuate="onRequest" xlink:show="new" xlink:title="PersistentMapDecorator.html" xlink:type="simple"><rect fill="#FEFECE" filter="url(#flsdw9n5bugav)" height="269.375" id="PersistentMapDecorator" style="stroke: #A80036; stroke-width: 1.5;" width="250" x="6" y="8"/><ellipse cx="60.25" cy="24" fill="#ADD1B2" rx="11" ry="11" style="stroke: #A80036; stroke-width: 1.0;"/><path d="M63.0156,19.875 Q63.1719,19.6563 63.3594,19.5469 Q63.5469,19.4375 63.7656,19.4375 Q64.1406,19.4375 64.375,19.6953 Q64.6094,19.9531 64.6094,20.5625 L64.6094,22.0156 Q64.6094,22.625 64.375,22.8906 Q64.1406,23.1563 63.7656,23.1563 Q63.4219,23.1563 63.2188,22.9531 Q63.0156,22.7656 62.9063,22.25 Q62.8594,21.8906 62.6719,21.7031 Q62.3438,21.3281 61.7344,21.1094 Q61.125,20.8906 60.5,20.8906 Q59.7344,20.8906 59.1016,21.2188 Q58.4688,21.5469 57.9766,22.2969 Q57.4844,23.0469 57.4844,24.0781 L57.4844,25.1719 Q57.4844,26.4063 58.375,27.2266 Q59.2656,28.0469 60.8594,28.0469 Q61.7969,28.0469 62.4531,27.7969 Q62.8438,27.6406 63.2656,27.2031 Q63.5313,26.9375 63.6797,26.8594 Q63.8281,26.7813 64.0313,26.7813 Q64.3594,26.7813 64.6172,27.0391 Q64.875,27.2969 64.875,27.6406 Q64.875,27.9844 64.5313,28.3906 Q64.0313,28.9688 63.2344,29.2969 Q62.1563,29.75 60.8594,29.75 Q59.3438,29.75 58.1406,29.125 Q57.1563,28.625 56.4688,27.5547 Q55.7813,26.4844 55.7813,25.2031 L55.7813,24.0469 Q55.7813,22.7188 56.3984,21.5703 Q57.0156,20.4219 58.1094,19.8047 Q59.2031,19.1875 60.4375,19.1875 Q61.1719,19.1875 61.8203,19.3516 Q62.4688,19.5156 63.0156,19.875 Z "/><text fill="#000000" font-family="sans-serif" font-size="12" lengthAdjust="spacingAndGlyphs" textLength="133" x="80.75" y="28.9102">PersistentMapDecorator</text><line style="stroke: #A80036; stroke-width: 1.5;" x1="7" x2="255" y1="40" y2="40"/><line style="stroke: #A80036; stroke-width: 1.5;" x1="7" x2="255" y1="48" y2="48"/><ellipse cx="17" cy="60.418" fill="#84BE84" rx="3" ry="3" style="stroke: #038048; stroke-width: 1.0;"/><text fill="#000000" font-family="sans-serif" font-size="11" lengthAdjust="spacingAndGlyphs" textLength="224" x="26" y="63.4189">PersistentMapDecorator(Map&lt;Object, Object&gt;)</text><ellipse cx="17" cy="74.2539" fill="#84BE84" rx="3" ry="3" style="stroke: #038048; stroke-width: 1.0;"/><text fill="#000000" font-family="sans-serif" font-size="11" lengthAdjust="spacingAndGlyphs" textLength="58" x="26" y="77.2549">clear(): void</text><ellipse cx="17" cy="88.0898" fill="#84BE84" rx="3" ry="3" style="stroke: #038048; stroke-width: 1.0;"/><text fill="#000000" font-family="sans-serif" font-size="11" lengthAdjust="spacingAndGlyphs" textLength="143" x="26" y="91.0908">containsKey(Object): boolean</text><ellipse cx="17" cy="101.9258" fill="#84BE84" rx="3" ry="3" style="stroke: #038048; stroke-width: 1.0;"/><text fill="#000000" font-family="sans-serif" font-size="11" lengthAdjust="spacingAndGlyphs" textLength="152" x="26" y="104.9268">containsValue(Object): boolean</text><ellipse cx="17" cy="115.7617" fill="#84BE84" rx="3" ry="3" style="stroke: #038048; stroke-width: 1.0;"/><text fill="#000000" font-family="sans-serif" font-size="11" lengthAdjust="spacingAndGlyphs" textLength="211" x="26" y="118.7627">entrySet(): Set&lt;Map.Entry&lt;Object, Object&gt;&gt;</text><ellipse cx="17" cy="129.5977" fill="#84BE84" rx="3" ry="3" style="stroke: #038048; stroke-width: 1.0;"/><text fill="#000000" font-family="sans-serif" font-size="11" lengthAdjust="spacingAndGlyphs" textLength="115" x="26" y="132.5986">equals(Object): boolean</text><ellipse cx="17" cy="143.4336" fill="#84BE84" rx="3" ry="3" style="stroke: #038048; stroke-width: 1.0;"/><text fill="#000000" font-family="sans-serif" font-size="11" lengthAdjust="spacingAndGlyphs" textLength="91" x="26" y="146.4346">get(Object): Object</text><ellipse cx="17" cy="157.2695" fill="#84BE84" rx="3" ry="3" style="stroke: #038048; stroke-width: 1.0;"/><text fill="#000000" font-family="sans-serif" font-size="11" lengthAdjust="spacingAndGlyphs" textLength="74" x="26" y="160.2705">hashCode(): int</text><ellipse cx="17" cy="171.1055" fill="#84BE84" rx="3" ry="3" style="stroke: #038048; stroke-width: 1.0;"/><text fill="#000000" font-family="sans-serif" font-size="11" lengthAdjust="spacingAndGlyphs" textLength="89" x="26" y="174.1064">isEmpty(): boolean</text><ellipse cx="17" cy="184.9414" fill="#84BE84" rx="3" ry="3" style="stroke: #038048; stroke-width: 1.0;"/><text fill="#000000" font-family="sans-serif" font-size="11" lengthAdjust="spacingAndGlyphs" textLength="106" x="26" y="187.9424">keySet(): Set&lt;Object&gt;</text><ellipse cx="17" cy="198.7773" fill="#84BE84" rx="3" ry="3" style="stroke: #038048; stroke-width: 1.0;"/><text fill="#000000" font-family="sans-serif" font-size="11" lengthAdjust="spacingAndGlyphs" textLength="128" x="26" y="201.7783">put(Object, Object): Object</text><ellipse cx="17" cy="212.6133" fill="#84BE84" rx="3" ry="3" style="stroke: #038048; stroke-width: 1.0;"/><text fill="#000000" font-family="sans-serif" font-size="11" lengthAdjust="spacingAndGlyphs" textLength="111" x="26" y="215.6143">putAll(Map&lt;?, ?&gt;): void</text><ellipse cx="17" cy="226.4492" fill="#84BE84" rx="3" ry="3" style="stroke: #038048; stroke-width: 1.0;"/><text fill="#000000" font-family="sans-serif" font-size="11" lengthAdjust="spacingAndGlyphs" textLength="112" x="26" y="229.4502">remove(Object): Object</text><ellipse cx="17" cy="240.2852" fill="#84BE84" rx="3" ry="3" style="stroke: #038048; stroke-width: 1.0;"/><text fill="#000000" font-family="sans-serif" font-size="11" lengthAdjust="spacingAndGlyphs" textLength="45" x="26" y="243.2861">size(): int</text><ellipse cx="17" cy="254.1211" fill="#84BE84" rx="3" ry="3" style="stroke: #038048; stroke-width: 1.0;"/><text fill="#000000" font-family="sans-serif" font-size="11" lengthAdjust="spacingAndGlyphs" textLength="79" x="26" y="257.1221">toString(): String</text><ellipse cx="17" cy="267.957" fill="#84BE84" rx="3" ry="3" style="stroke: #038048; stroke-width: 1.0;"/><text fill="#000000" font-family="sans-serif" font-size="11" lengthAdjust="spacingAndGlyphs" textLength="135" x="26" y="270.958">values(): Collection&lt;Object&gt;</text></a><text fill="#888888" font-family="sans-serif" font-size="10" lengthAdjust="spacingAndGlyphs" textLength="184" x="45" y="297.3809">UMLDoclet 1.1.4, PlantUML 1.2019.05</text><!--
@startuml

    class PersistentMapDecorator [[PersistentMapDecorator.html]] {
        +PersistentMapDecorator(Map<Object, Object>)
        +clear(): void
        +containsKey(Object): boolean
        +containsValue(Object): boolean
        +entrySet(): Set<Map.Entry<Object, Object>>
        +equals(Object): boolean
        +get(Object): Object
        +hashCode(): int
        +isEmpty(): boolean
        +keySet(): Set<Object>
        +put(Object, Object): Object
        +putAll(Map<?, ?>): void
        +remove(Object): Object
        +size(): int
        +toString(): String
        +values(): Collection<Object>
    }


    center footer UMLDoclet 1.1.4, PlantUML 1.2019.05
@enduml

PlantUML version 1.2019.05(Sat Apr 20 18:45:36 CEST 2019)
(APACHE source distribution)
Java Runtime: OpenJDK Runtime Environment
JVM: OpenJDK 64-Bit Server VM
Java Version: 1.8.0_212-b03
Operating System: Windows 10
OS Version: 10.0
Default Encoding: Cp1252
Language: es
Country: ES
--></g></svg>