<?xml version="1.0" encoding="UTF-8" standalone="no"?><svg xmlns="http://www.w3.org/2000/svg" xmlns:xlink="http://www.w3.org/1999/xlink" contentScriptType="application/ecmascript" contentStyleType="text/css" height="692px" preserveAspectRatio="none" style="width:677px;height:692px;" version="1.1" viewBox="0 0 677 692" width="677px" zoomAndPan="magnify"><defs><filter height="300%" id="fdgyy9g3lfnkd" width="300%" x="-1" y="-1"><feGaussianBlur result="blurOut" stdDeviation="2.0"/><feColorMatrix in="blurOut" result="blurOut2" type="matrix" values="0 0 0 0 0 0 0 0 0 0 0 0 0 0 0 0 0 0 .4 0"/><feOffset dx="4.0" dy="4.0" in="blurOut2" result="blurOut3"/><feBlend in="SourceGraphic" in2="blurOut3" mode="normal"/></filter></defs><g><!--cluster org.apache.wiki.modules--><polygon fill="#FFFFFF" filter="url(#fdgyy9g3lfnkd)" points="14,138,194,138,201,161.6094,655,161.6094,655,651,14,651,14,138" style="stroke: #000000; stroke-width: 1.5;"/><line style="stroke: #000000; stroke-width: 1.5;" x1="14" x2="201" y1="161.6094" y2="161.6094"/><text fill="#000000" font-family="sans-serif" font-size="14" font-weight="bold" lengthAdjust="spacingAndGlyphs" textLength="174" x="18" y="154.5332">org.apache.wiki.modules</text><!--cluster java.lang--><polygon fill="#FFFFFF" filter="url(#fdgyy9g3lfnkd)" points="491,16,560,16,567,39.6094,623,39.6094,623,114,491,114,491,16" style="stroke: #000000; stroke-width: 1.5;"/><line style="stroke: #000000; stroke-width: 1.5;" x1="491" x2="567" y1="39.6094" y2="39.6094"/><text fill="#000000" font-family="sans-serif" font-size="14" font-weight="bold" lengthAdjust="spacingAndGlyphs" textLength="63" x="495" y="32.5332">java.lang</text><!--class org.apache.wiki.modules.WikiModuleInfo--><a href="WikiModuleInfo.html" target="_top" xlink:actuate="onRequest" xlink:show="new" xlink:title="WikiModuleInfo.html" xlink:type="simple"><rect fill="#FEFECE" filter="url(#fdgyy9g3lfnkd)" height="476.9141" id="org.apache.wiki.modules.WikiModuleInfo" style="stroke: #A80036; stroke-width: 1.5;" width="179" x="467.5" y="166"/><ellipse cx="511.3" cy="182" fill="#ADD1B2" rx="11" ry="11" style="stroke: #A80036; stroke-width: 1.0;"/><path d="M514.0656,177.875 Q514.2219,177.6563 514.4094,177.5469 Q514.5969,177.4375 514.8156,177.4375 Q515.1906,177.4375 515.425,177.6953 Q515.6594,177.9531 515.6594,178.5625 L515.6594,180.0156 Q515.6594,180.625 515.425,180.8906 Q515.1906,181.1563 514.8156,181.1563 Q514.4719,181.1563 514.2688,180.9531 Q514.0656,180.7656 513.9563,180.25 Q513.9094,179.8906 513.7219,179.7031 Q513.3938,179.3281 512.7844,179.1094 Q512.175,178.8906 511.55,178.8906 Q510.7844,178.8906 510.1516,179.2188 Q509.5188,179.5469 509.0266,180.2969 Q508.5344,181.0469 508.5344,182.0781 L508.5344,183.1719 Q508.5344,184.4063 509.425,185.2266 Q510.3156,186.0469 511.9094,186.0469 Q512.8469,186.0469 513.5031,185.7969 Q513.8938,185.6406 514.3156,185.2031 Q514.5813,184.9375 514.7297,184.8594 Q514.8781,184.7813 515.0813,184.7813 Q515.4094,184.7813 515.6672,185.0391 Q515.925,185.2969 515.925,185.6406 Q515.925,185.9844 515.5813,186.3906 Q515.0813,186.9688 514.2844,187.2969 Q513.2063,187.75 511.9094,187.75 Q510.3938,187.75 509.1906,187.125 Q508.2063,186.625 507.5188,185.5547 Q506.8313,184.4844 506.8313,183.2031 L506.8313,182.0469 Q506.8313,180.7188 507.4484,179.5703 Q508.0656,178.4219 509.1594,177.8047 Q510.2531,177.1875 511.4875,177.1875 Q512.2219,177.1875 512.8703,177.3516 Q513.5188,177.5156 514.0656,177.875 Z "/><text fill="#000000" font-family="sans-serif" font-size="12" lengthAdjust="spacingAndGlyphs" textLength="83" x="531.7" y="186.9102">WikiModuleInfo</text><line style="stroke: #A80036; stroke-width: 1.5;" x1="468.5" x2="645.5" y1="198" y2="198"/><polygon fill="none" points="478.5,205.418,482.5,209.418,478.5,213.418,474.5,209.418" style="stroke: #B38D22; stroke-width: 1.0;"/><text fill="#000000" font-family="sans-serif" font-size="11" lengthAdjust="spacingAndGlyphs" textLength="74" x="487.5" y="213.4189">m_name: String</text><polygon fill="none" points="478.5,219.2539,482.5,223.2539,478.5,227.2539,474.5,223.2539" style="stroke: #B38D22; stroke-width: 1.0;"/><text fill="#000000" font-family="sans-serif" font-size="11" lengthAdjust="spacingAndGlyphs" textLength="101" x="487.5" y="227.2549">m_description: String</text><polygon fill="none" points="478.5,233.0898,482.5,237.0898,478.5,241.0898,474.5,237.0898" style="stroke: #B38D22; stroke-width: 1.0;"/><text fill="#000000" font-family="sans-serif" font-size="11" lengthAdjust="spacingAndGlyphs" textLength="95" x="487.5" y="241.0908">m_moduleUrl: String</text><polygon fill="none" points="478.5,246.9258,482.5,250.9258,478.5,254.9258,474.5,250.9258" style="stroke: #B38D22; stroke-width: 1.0;"/><text fill="#000000" font-family="sans-serif" font-size="11" lengthAdjust="spacingAndGlyphs" textLength="120" x="487.5" y="254.9268">m_moduleVersion: String</text><polygon fill="none" points="478.5,260.7617,482.5,264.7617,478.5,268.7617,474.5,264.7617" style="stroke: #B38D22; stroke-width: 1.0;"/><text fill="#000000" font-family="sans-serif" font-size="11" lengthAdjust="spacingAndGlyphs" textLength="110" x="487.5" y="268.7627">m_htmlTemplate: String</text><polygon fill="none" points="478.5,274.5977,482.5,278.5977,478.5,282.5977,474.5,278.5977" style="stroke: #B38D22; stroke-width: 1.0;"/><text fill="#000000" font-family="sans-serif" font-size="11" lengthAdjust="spacingAndGlyphs" textLength="116" x="487.5" y="282.5986">m_scriptLocation: String</text><polygon fill="none" points="478.5,288.4336,482.5,292.4336,478.5,296.4336,474.5,292.4336" style="stroke: #B38D22; stroke-width: 1.0;"/><text fill="#000000" font-family="sans-serif" font-size="11" lengthAdjust="spacingAndGlyphs" textLength="96" x="487.5" y="296.4346">m_scriptText: String</text><polygon fill="none" points="478.5,302.2695,482.5,306.2695,478.5,310.2695,474.5,306.2695" style="stroke: #B38D22; stroke-width: 1.0;"/><text fill="#000000" font-family="sans-serif" font-size="11" lengthAdjust="spacingAndGlyphs" textLength="139" x="487.5" y="310.2705">m_stylesheetLocation: String</text><polygon fill="none" points="478.5,316.1055,482.5,320.1055,478.5,324.1055,474.5,320.1055" style="stroke: #B38D22; stroke-width: 1.0;"/><text fill="#000000" font-family="sans-serif" font-size="11" lengthAdjust="spacingAndGlyphs" textLength="119" x="487.5" y="324.1064">m_stylesheetText: String</text><polygon fill="none" points="478.5,329.9414,482.5,333.9414,478.5,337.9414,474.5,333.9414" style="stroke: #B38D22; stroke-width: 1.0;"/><text fill="#000000" font-family="sans-serif" font-size="11" lengthAdjust="spacingAndGlyphs" textLength="79" x="487.5" y="337.9424">m_author: String</text><polygon fill="none" points="478.5,343.7773,482.5,347.7773,478.5,351.7773,474.5,347.7773" style="stroke: #B38D22; stroke-width: 1.0;"/><text fill="#000000" font-family="sans-serif" font-size="11" lengthAdjust="spacingAndGlyphs" textLength="92" x="487.5" y="351.7783">m_authorUrl: String</text><polygon fill="none" points="478.5,357.6133,482.5,361.6133,478.5,365.6133,474.5,361.6133" style="stroke: #B38D22; stroke-width: 1.0;"/><text fill="#000000" font-family="sans-serif" font-size="11" lengthAdjust="spacingAndGlyphs" textLength="84" x="487.5" y="365.6143">m_resource: URL</text><polygon fill="none" points="478.5,371.4492,482.5,375.4492,478.5,379.4492,474.5,375.4492" style="stroke: #B38D22; stroke-width: 1.0;"/><text fill="#000000" font-family="sans-serif" font-size="11" lengthAdjust="spacingAndGlyphs" textLength="102" x="487.5" y="379.4502">m_minVersion: String</text><polygon fill="none" points="478.5,385.2852,482.5,389.2852,478.5,393.2852,474.5,389.2852" style="stroke: #B38D22; stroke-width: 1.0;"/><text fill="#000000" font-family="sans-serif" font-size="11" lengthAdjust="spacingAndGlyphs" textLength="106" x="487.5" y="393.2861">m_maxVersion: String</text><polygon fill="none" points="478.5,399.1211,482.5,403.1211,478.5,407.1211,474.5,403.1211" style="stroke: #B38D22; stroke-width: 1.0;"/><text fill="#000000" font-family="sans-serif" font-size="11" lengthAdjust="spacingAndGlyphs" textLength="128" x="487.5" y="407.1221">m_adminBeanClass: String</text><line style="stroke: #A80036; stroke-width: 1.5;" x1="468.5" x2="645.5" y1="413.5391" y2="413.5391"/><ellipse cx="478.5" cy="425.957" fill="#84BE84" rx="3" ry="3" style="stroke: #038048; stroke-width: 1.0;"/><text fill="#000000" font-family="sans-serif" font-size="11" lengthAdjust="spacingAndGlyphs" textLength="107" x="487.5" y="428.958">WikiModuleInfo(String)</text><polygon fill="#FFFF44" points="478.5,434.793,482.5,438.793,478.5,442.793,474.5,438.793" style="stroke: #B38D22; stroke-width: 1.0;"/><text fill="#000000" font-family="sans-serif" font-size="11" lengthAdjust="spacingAndGlyphs" textLength="153" x="487.5" y="442.7939">initializeFromXML(Element): void</text><ellipse cx="478.5" cy="453.6289" fill="#84BE84" rx="3" ry="3" style="stroke: #038048; stroke-width: 1.0;"/><text fill="#000000" font-family="sans-serif" font-size="11" lengthAdjust="spacingAndGlyphs" textLength="139" x="487.5" y="456.6299">getAdminBeanClass(): String</text><ellipse cx="478.5" cy="467.4648" fill="#84BE84" rx="3" ry="3" style="stroke: #038048; stroke-width: 1.0;"/><text fill="#000000" font-family="sans-serif" font-size="11" lengthAdjust="spacingAndGlyphs" textLength="84" x="487.5" y="470.4658">getName(): String</text><ellipse cx="478.5" cy="481.3008" fill="#84BE84" rx="3" ry="3" style="stroke: #038048; stroke-width: 1.0;"/><text fill="#000000" font-family="sans-serif" font-size="11" lengthAdjust="spacingAndGlyphs" textLength="111" x="487.5" y="484.3018">getDescription(): String</text><ellipse cx="478.5" cy="495.1367" fill="#84BE84" rx="3" ry="3" style="stroke: #038048; stroke-width: 1.0;"/><text fill="#000000" font-family="sans-serif" font-size="11" lengthAdjust="spacingAndGlyphs" textLength="104" x="487.5" y="498.1377">getModuleUrl(): String</text><ellipse cx="478.5" cy="508.9727" fill="#84BE84" rx="3" ry="3" style="stroke: #038048; stroke-width: 1.0;"/><text fill="#000000" font-family="sans-serif" font-size="11" lengthAdjust="spacingAndGlyphs" textLength="129" x="487.5" y="511.9736">getModuleVersion(): String</text><ellipse cx="478.5" cy="522.8086" fill="#84BE84" rx="3" ry="3" style="stroke: #038048; stroke-width: 1.0;"/><text fill="#000000" font-family="sans-serif" font-size="11" lengthAdjust="spacingAndGlyphs" textLength="120" x="487.5" y="525.8096">getHtmlTemplate(): String</text><ellipse cx="478.5" cy="536.6445" fill="#84BE84" rx="3" ry="3" style="stroke: #038048; stroke-width: 1.0;"/><text fill="#000000" font-family="sans-serif" font-size="11" lengthAdjust="spacingAndGlyphs" textLength="149" x="487.5" y="539.6455">getStylesheetLocation(): String</text><ellipse cx="478.5" cy="550.4805" fill="#84BE84" rx="3" ry="3" style="stroke: #038048; stroke-width: 1.0;"/><text fill="#000000" font-family="sans-serif" font-size="11" lengthAdjust="spacingAndGlyphs" textLength="126" x="487.5" y="553.4814">getScriptLocation(): String</text><ellipse cx="478.5" cy="564.3164" fill="#84BE84" rx="3" ry="3" style="stroke: #038048; stroke-width: 1.0;"/><text fill="#000000" font-family="sans-serif" font-size="11" lengthAdjust="spacingAndGlyphs" textLength="90" x="487.5" y="567.3174">getAuthor(): String</text><ellipse cx="478.5" cy="578.1523" fill="#84BE84" rx="3" ry="3" style="stroke: #038048; stroke-width: 1.0;"/><text fill="#000000" font-family="sans-serif" font-size="11" lengthAdjust="spacingAndGlyphs" textLength="103" x="487.5" y="581.1533">getAuthorUrl(): String</text><ellipse cx="478.5" cy="591.9883" fill="#84BE84" rx="3" ry="3" style="stroke: #038048; stroke-width: 1.0;"/><text fill="#000000" font-family="sans-serif" font-size="11" lengthAdjust="spacingAndGlyphs" textLength="111" x="487.5" y="594.9893">getMinVersion(): String</text><ellipse cx="478.5" cy="605.8242" fill="#84BE84" rx="3" ry="3" style="stroke: #038048; stroke-width: 1.0;"/><text fill="#000000" font-family="sans-serif" font-size="11" lengthAdjust="spacingAndGlyphs" textLength="115" x="487.5" y="608.8252">getMaxVersion(): String</text><polygon fill="#FFFF44" points="478.5,614.6602,482.5,618.6602,478.5,622.6602,474.5,618.6602" style="stroke: #B38D22; stroke-width: 1.0;"/><text fill="#000000" font-family="sans-serif" font-size="11" lengthAdjust="spacingAndGlyphs" textLength="153" x="487.5" y="622.6611">getTextResource(String): String</text><ellipse cx="478.5" cy="633.4961" fill="#84BE84" rx="3" ry="3" style="stroke: #038048; stroke-width: 1.0;"/><text fill="#000000" font-family="sans-serif" font-size="11" lengthAdjust="spacingAndGlyphs" textLength="150" x="487.5" y="636.4971">compareTo(WikiModuleInfo): int</text></a><!--class org.apache.wiki.modules.ModuleManager--><a href="ModuleManager.html" target="_top" xlink:actuate="onRequest" xlink:show="new" xlink:title="ModuleManager.html" xlink:type="simple"><rect fill="#FEFECE" filter="url(#fdgyy9g3lfnkd)" height="144.8516" id="org.apache.wiki.modules.ModuleManager" style="stroke: #A80036; stroke-width: 1.5;" width="261" x="171.5" y="332"/><ellipse cx="253.75" cy="348" fill="#A9DCDF" rx="11" ry="11" style="stroke: #A80036; stroke-width: 1.0;"/><path d="M255.9375,349.7656 L251.7969,349.7656 L251.375,350.7969 L251.7969,350.7969 Q252.4063,350.7969 252.6719,351.0313 Q252.9375,351.2656 252.9375,351.6563 Q252.9375,352.0313 252.6719,352.2656 Q252.4063,352.5 251.7969,352.5 L249.5,352.5 Q248.8906,352.5 248.6328,352.2656 Q248.375,352.0313 248.375,351.6406 Q248.375,351.2656 248.6484,351.0234 Q248.9219,350.7813 249.5469,350.7969 L252.2188,344.1406 L251.1094,344.1406 Q250.5,344.1406 250.2344,343.9063 Q249.9688,343.6719 249.9688,343.2813 Q249.9688,342.9063 250.2344,342.6719 Q250.5,342.4375 251.1094,342.4375 L254.7813,342.4375 L258.1719,350.7969 Q258.7656,350.7969 258.9531,350.9375 Q259.3438,351.2031 259.3438,351.6563 Q259.3438,352.0313 259.0859,352.2656 Q258.8281,352.5 258.2188,352.5 L255.9219,352.5 Q255.3125,352.5 255.0469,352.2656 Q254.7813,352.0313 254.7813,351.6406 Q254.7813,351.2656 255.0469,351.0313 Q255.3125,350.7969 255.9219,350.7969 L256.3438,350.7969 L255.9375,349.7656 Z M255.2188,348.0625 L253.8594,344.6875 L252.4844,348.0625 L255.2188,348.0625 Z "/><text fill="#000000" font-family="sans-serif" font-size="12" font-style="italic" lengthAdjust="spacingAndGlyphs" textLength="88" x="274.25" y="352.9102">ModuleManager</text><line style="stroke: #A80036; stroke-width: 1.5;" x1="172.5" x2="431.5" y1="364" y2="364"/><ellipse cx="182.5" cy="376.418" fill="none" rx="3" ry="3" style="stroke: #038048; stroke-width: 1.0;"/><text fill="#000000" font-family="sans-serif" font-size="11" lengthAdjust="spacingAndGlyphs" text-decoration="underline" textLength="189" x="191.5" y="379.4189">PLUGIN_RESOURCE_LOCATION: String</text><polygon fill="none" points="182.5,385.2539,186.5,389.2539,182.5,393.2539,178.5,389.2539" style="stroke: #B38D22; stroke-width: 1.0;"/><text fill="#000000" font-family="sans-serif" font-size="11" lengthAdjust="spacingAndGlyphs" textLength="103" x="191.5" y="393.2549">m_engine: WikiEngine</text><line style="stroke: #A80036; stroke-width: 1.5;" x1="172.5" x2="431.5" y1="399.6719" y2="399.6719"/><ellipse cx="182.5" cy="412.0898" fill="#84BE84" rx="3" ry="3" style="stroke: #038048; stroke-width: 1.0;"/><text fill="#000000" font-family="sans-serif" font-size="11" lengthAdjust="spacingAndGlyphs" textLength="135" x="191.5" y="415.0908">ModuleManager(WikiEngine)</text><ellipse cx="182.5" cy="425.9258" fill="#84BE84" rx="3" ry="3" style="stroke: #038048; stroke-width: 1.0;"/><text fill="#000000" font-family="sans-serif" font-size="11" lengthAdjust="spacingAndGlyphs" textLength="211" x="191.5" y="428.9268">checkCompatibility(WikiModuleInfo): boolean</text><polygon fill="#FFFF44" points="182.5,434.7617,186.5,438.7617,182.5,442.7617,178.5,438.7617" style="stroke: #B38D22; stroke-width: 1.0;"/><text fill="#000000" font-family="sans-serif" font-size="11" lengthAdjust="spacingAndGlyphs" textLength="235" x="191.5" y="442.7627">modules(Iterator&lt;T&gt;): Collection&lt;WikiModuleInfo&gt;</text><ellipse cx="182.5" cy="453.5977" fill="#84BE84" rx="3" ry="3" style="stroke: #038048; stroke-width: 1.0;"/><text fill="#000000" font-family="sans-serif" font-size="11" font-style="italic" lengthAdjust="spacingAndGlyphs" textLength="195" x="191.5" y="456.5986">modules(): Collection&lt;WikiModuleInfo&gt;</text><ellipse cx="182.5" cy="467.4336" fill="#84BE84" rx="3" ry="3" style="stroke: #038048; stroke-width: 1.0;"/><text fill="#000000" font-family="sans-serif" font-size="11" font-style="italic" lengthAdjust="spacingAndGlyphs" textLength="189" x="191.5" y="470.4346">getModuleInfo(String): WikiModuleInfo</text></a><!--class org.apache.wiki.modules.InternalModule--><a href="InternalModule.html" target="_top" xlink:actuate="onRequest" xlink:show="new" xlink:title="InternalModule.html" xlink:type="simple"><rect fill="#FEFECE" filter="url(#fdgyy9g3lfnkd)" height="48" id="org.apache.wiki.modules.InternalModule" style="stroke: #A80036; stroke-width: 1.5;" width="114" x="22" y="380.5"/><ellipse cx="37" cy="396.5" fill="#B4A7E5" rx="11" ry="11" style="stroke: #A80036; stroke-width: 1.0;"/><path d="M37.9531,393.1406 L37.9531,399.7969 L39.6719,399.7969 Q40.2813,399.7969 40.5469,400.0313 Q40.8125,400.2656 40.8125,400.6563 Q40.8125,401.0313 40.5469,401.2656 Q40.2813,401.5 39.6719,401.5 L34.5313,401.5 Q33.9219,401.5 33.6563,401.2656 Q33.3906,401.0313 33.3906,400.6406 Q33.3906,400.2656 33.6563,400.0313 Q33.9219,399.7969 34.5313,399.7969 L36.25,399.7969 L36.25,393.1406 L34.5313,393.1406 Q33.9219,393.1406 33.6563,392.9063 Q33.3906,392.6719 33.3906,392.2813 Q33.3906,391.9063 33.6563,391.6719 Q33.9219,391.4375 34.5313,391.4375 L39.6719,391.4375 Q40.2813,391.4375 40.5469,391.6719 Q40.8125,391.9063 40.8125,392.2813 Q40.8125,392.6719 40.5469,392.9063 Q40.2813,393.1406 39.6719,393.1406 L37.9531,393.1406 Z "/><text fill="#000000" font-family="sans-serif" font-size="12" font-style="italic" lengthAdjust="spacingAndGlyphs" textLength="82" x="51" y="401.4102">InternalModule</text><line style="stroke: #A80036; stroke-width: 1.5;" x1="23" x2="135" y1="412.5" y2="412.5"/><line style="stroke: #A80036; stroke-width: 1.5;" x1="23" x2="135" y1="420.5" y2="420.5"/></a><!--class java.lang.Comparable--><rect fill="#FEFECE" filter="url(#fdgyy9g3lfnkd)" height="61.8359" id="java.lang.Comparable" style="stroke: #A80036; stroke-width: 1.5;" width="115" x="499.5" y="44"/><ellipse cx="515.4" cy="60" fill="#B4A7E5" rx="11" ry="11" style="stroke: #A80036; stroke-width: 1.0;"/><path d="M516.3531,56.6406 L516.3531,63.2969 L518.0719,63.2969 Q518.6813,63.2969 518.9469,63.5313 Q519.2125,63.7656 519.2125,64.1563 Q519.2125,64.5313 518.9469,64.7656 Q518.6813,65 518.0719,65 L512.9313,65 Q512.3219,65 512.0563,64.7656 Q511.7906,64.5313 511.7906,64.1406 Q511.7906,63.7656 512.0563,63.5313 Q512.3219,63.2969 512.9313,63.2969 L514.65,63.2969 L514.65,56.6406 L512.9313,56.6406 Q512.3219,56.6406 512.0563,56.4063 Q511.7906,56.1719 511.7906,55.7813 Q511.7906,55.4063 512.0563,55.1719 Q512.3219,54.9375 512.9313,54.9375 L518.0719,54.9375 Q518.6813,54.9375 518.9469,55.1719 Q519.2125,55.4063 519.2125,55.7813 Q519.2125,56.1719 518.9469,56.4063 Q518.6813,56.6406 518.0719,56.6406 L516.3531,56.6406 Z "/><text fill="#000000" font-family="sans-serif" font-size="12" font-style="italic" lengthAdjust="spacingAndGlyphs" textLength="70" x="529.6" y="64.9102">Comparable</text><rect fill="#FFFFFF" height="17.0938" style="stroke: #000000; stroke-width: 1.0; stroke-dasharray: 2.0,2.0;" width="9" x="608.5" y="41"/><text fill="#000000" font-family="sans-serif" font-size="12" font-style="italic" lengthAdjust="spacingAndGlyphs" textLength="7" x="609.5" y="54.457">T</text><line style="stroke: #A80036; stroke-width: 1.5;" x1="500.5" x2="613.5" y1="76" y2="76"/><line style="stroke: #A80036; stroke-width: 1.5;" x1="500.5" x2="613.5" y1="84" y2="84"/><ellipse cx="510.5" cy="96.418" fill="#84BE84" rx="3" ry="3" style="stroke: #038048; stroke-width: 1.0;"/><text fill="#000000" font-family="sans-serif" font-size="11" font-style="italic" lengthAdjust="spacingAndGlyphs" textLength="89" x="519.5" y="99.4189">compareTo(T): int</text><!--link java.lang.Comparable to org.apache.wiki.modules.WikiModuleInfo--><path d="M557,126.3914 C557,138.2007 557,151.5184 557,165.768 " fill="none" id="java.lang.Comparable-org.apache.wiki.modules.WikiModuleInfo" style="stroke: #A80036; stroke-width: 1.0; stroke-dasharray: 7.0,7.0;"/><polygon fill="none" points="550.0001,126.2957,557,106.2956,564.0001,126.2956,550.0001,126.2957" style="stroke: #A80036; stroke-width: 1.0;"/><text fill="#888888" font-family="sans-serif" font-size="10" lengthAdjust="spacingAndGlyphs" textLength="184" x="248.5" y="679.3809">UMLDoclet 1.1.4, PlantUML 1.2019.05</text><!--
@startuml

    namespace org.apache.wiki.modules {

        class WikiModuleInfo [[WikiModuleInfo.html]] {
            #m_name: String
            #m_description: String
            #m_moduleUrl: String
            #m_moduleVersion: String
            #m_htmlTemplate: String
            #m_scriptLocation: String
            #m_scriptText: String
            #m_stylesheetLocation: String
            #m_stylesheetText: String
            #m_author: String
            #m_authorUrl: String
            #m_resource: URL
            #m_minVersion: String
            #m_maxVersion: String
            #m_adminBeanClass: String
            +WikiModuleInfo(String)
            #initializeFromXML(Element): void
            +getAdminBeanClass(): String
            +getName(): String
            +getDescription(): String
            +getModuleUrl(): String
            +getModuleVersion(): String
            +getHtmlTemplate(): String
            +getStylesheetLocation(): String
            +getScriptLocation(): String
            +getAuthor(): String
            +getAuthorUrl(): String
            +getMinVersion(): String
            +getMaxVersion(): String
            #getTextResource(String): String
            +compareTo(WikiModuleInfo): int
        }

        abstract class ModuleManager [[ModuleManager.html]] {
            {static} +PLUGIN_RESOURCE_LOCATION: String
            #m_engine: WikiEngine
            +ModuleManager(WikiEngine)
            +checkCompatibility(WikiModuleInfo): boolean
            #modules(Iterator<T>): Collection<WikiModuleInfo>
            {abstract} +modules(): Collection<WikiModuleInfo>
            {abstract} +getModuleInfo(String): WikiModuleInfo
        }

        interface InternalModule [[InternalModule.html]] {
        }

        interface java.lang.Comparable<T> {
            {abstract} +compareTo(T): int
        }
        java.lang.Comparable <|.. WikiModuleInfo

    }


    center footer UMLDoclet 1.1.4, PlantUML 1.2019.05
@enduml

PlantUML version 1.2019.05(Sat Apr 20 18:45:36 CEST 2019)
(APACHE source distribution)
Java Runtime: OpenJDK Runtime Environment
JVM: OpenJDK 64-Bit Server VM
Java Version: 1.8.0_212-b03
Operating System: Windows 10
OS Version: 10.0
Default Encoding: Cp1252
Language: es
Country: ES
--></g></svg>