<?xml version="1.0" encoding="UTF-8" standalone="no"?><svg xmlns="http://www.w3.org/2000/svg" xmlns:xlink="http://www.w3.org/1999/xlink" contentScriptType="application/ecmascript" contentStyleType="text/css" height="518px" preserveAspectRatio="none" style="width:205px;height:518px;" version="1.1" viewBox="0 0 205 518" width="205px" zoomAndPan="magnify"><defs><filter height="300%" id="fqjcmzjuw8o2f" width="300%" x="-1" y="-1"><feGaussianBlur result="blurOut" stdDeviation="2.0"/><feColorMatrix in="blurOut" result="blurOut2" type="matrix" values="0 0 0 0 0 0 0 0 0 0 0 0 0 0 0 0 0 0 .4 0"/><feOffset dx="4.0" dy="4.0" in="blurOut2" result="blurOut3"/><feBlend in="SourceGraphic" in2="blurOut3" mode="normal"/></filter></defs><g><!--class WikiModuleInfo--><a href="WikiModuleInfo.html" target="_top" xlink:actuate="onRequest" xlink:show="new" xlink:title="WikiModuleInfo.html" xlink:type="simple"><rect fill="#FEFECE" filter="url(#fqjcmzjuw8o2f)" height="476.9141" id="WikiModuleInfo" style="stroke: #A80036; stroke-width: 1.5;" width="179" x="6" y="8"/><ellipse cx="49.8" cy="24" fill="#ADD1B2" rx="11" ry="11" style="stroke: #A80036; stroke-width: 1.0;"/><path d="M52.5656,19.875 Q52.7219,19.6563 52.9094,19.5469 Q53.0969,19.4375 53.3156,19.4375 Q53.6906,19.4375 53.925,19.6953 Q54.1594,19.9531 54.1594,20.5625 L54.1594,22.0156 Q54.1594,22.625 53.925,22.8906 Q53.6906,23.1563 53.3156,23.1563 Q52.9719,23.1563 52.7688,22.9531 Q52.5656,22.7656 52.4563,22.25 Q52.4094,21.8906 52.2219,21.7031 Q51.8938,21.3281 51.2844,21.1094 Q50.675,20.8906 50.05,20.8906 Q49.2844,20.8906 48.6516,21.2188 Q48.0188,21.5469 47.5266,22.2969 Q47.0344,23.0469 47.0344,24.0781 L47.0344,25.1719 Q47.0344,26.4063 47.925,27.2266 Q48.8156,28.0469 50.4094,28.0469 Q51.3469,28.0469 52.0031,27.7969 Q52.3938,27.6406 52.8156,27.2031 Q53.0813,26.9375 53.2297,26.8594 Q53.3781,26.7813 53.5813,26.7813 Q53.9094,26.7813 54.1672,27.0391 Q54.425,27.2969 54.425,27.6406 Q54.425,27.9844 54.0813,28.3906 Q53.5813,28.9688 52.7844,29.2969 Q51.7063,29.75 50.4094,29.75 Q48.8938,29.75 47.6906,29.125 Q46.7063,28.625 46.0188,27.5547 Q45.3313,26.4844 45.3313,25.2031 L45.3313,24.0469 Q45.3313,22.7188 45.9484,21.5703 Q46.5656,20.4219 47.6594,19.8047 Q48.7531,19.1875 49.9875,19.1875 Q50.7219,19.1875 51.3703,19.3516 Q52.0188,19.5156 52.5656,19.875 Z "/><text fill="#000000" font-family="sans-serif" font-size="12" lengthAdjust="spacingAndGlyphs" textLength="83" x="70.2" y="28.9102">WikiModuleInfo</text><line style="stroke: #A80036; stroke-width: 1.5;" x1="7" x2="184" y1="40" y2="40"/><polygon fill="none" points="17,47.418,21,51.418,17,55.418,13,51.418" style="stroke: #B38D22; stroke-width: 1.0;"/><text fill="#000000" font-family="sans-serif" font-size="11" lengthAdjust="spacingAndGlyphs" textLength="74" x="26" y="55.4189">m_name: String</text><polygon fill="none" points="17,61.2539,21,65.2539,17,69.2539,13,65.2539" style="stroke: #B38D22; stroke-width: 1.0;"/><text fill="#000000" font-family="sans-serif" font-size="11" lengthAdjust="spacingAndGlyphs" textLength="101" x="26" y="69.2549">m_description: String</text><polygon fill="none" points="17,75.0898,21,79.0898,17,83.0898,13,79.0898" style="stroke: #B38D22; stroke-width: 1.0;"/><text fill="#000000" font-family="sans-serif" font-size="11" lengthAdjust="spacingAndGlyphs" textLength="95" x="26" y="83.0908">m_moduleUrl: String</text><polygon fill="none" points="17,88.9258,21,92.9258,17,96.9258,13,92.9258" style="stroke: #B38D22; stroke-width: 1.0;"/><text fill="#000000" font-family="sans-serif" font-size="11" lengthAdjust="spacingAndGlyphs" textLength="120" x="26" y="96.9268">m_moduleVersion: String</text><polygon fill="none" points="17,102.7617,21,106.7617,17,110.7617,13,106.7617" style="stroke: #B38D22; stroke-width: 1.0;"/><text fill="#000000" font-family="sans-serif" font-size="11" lengthAdjust="spacingAndGlyphs" textLength="110" x="26" y="110.7627">m_htmlTemplate: String</text><polygon fill="none" points="17,116.5977,21,120.5977,17,124.5977,13,120.5977" style="stroke: #B38D22; stroke-width: 1.0;"/><text fill="#000000" font-family="sans-serif" font-size="11" lengthAdjust="spacingAndGlyphs" textLength="116" x="26" y="124.5986">m_scriptLocation: String</text><polygon fill="none" points="17,130.4336,21,134.4336,17,138.4336,13,134.4336" style="stroke: #B38D22; stroke-width: 1.0;"/><text fill="#000000" font-family="sans-serif" font-size="11" lengthAdjust="spacingAndGlyphs" textLength="96" x="26" y="138.4346">m_scriptText: String</text><polygon fill="none" points="17,144.2695,21,148.2695,17,152.2695,13,148.2695" style="stroke: #B38D22; stroke-width: 1.0;"/><text fill="#000000" font-family="sans-serif" font-size="11" lengthAdjust="spacingAndGlyphs" textLength="139" x="26" y="152.2705">m_stylesheetLocation: String</text><polygon fill="none" points="17,158.1055,21,162.1055,17,166.1055,13,162.1055" style="stroke: #B38D22; stroke-width: 1.0;"/><text fill="#000000" font-family="sans-serif" font-size="11" lengthAdjust="spacingAndGlyphs" textLength="119" x="26" y="166.1064">m_stylesheetText: String</text><polygon fill="none" points="17,171.9414,21,175.9414,17,179.9414,13,175.9414" style="stroke: #B38D22; stroke-width: 1.0;"/><text fill="#000000" font-family="sans-serif" font-size="11" lengthAdjust="spacingAndGlyphs" textLength="79" x="26" y="179.9424">m_author: String</text><polygon fill="none" points="17,185.7773,21,189.7773,17,193.7773,13,189.7773" style="stroke: #B38D22; stroke-width: 1.0;"/><text fill="#000000" font-family="sans-serif" font-size="11" lengthAdjust="spacingAndGlyphs" textLength="92" x="26" y="193.7783">m_authorUrl: String</text><polygon fill="none" points="17,199.6133,21,203.6133,17,207.6133,13,203.6133" style="stroke: #B38D22; stroke-width: 1.0;"/><text fill="#000000" font-family="sans-serif" font-size="11" lengthAdjust="spacingAndGlyphs" textLength="84" x="26" y="207.6143">m_resource: URL</text><polygon fill="none" points="17,213.4492,21,217.4492,17,221.4492,13,217.4492" style="stroke: #B38D22; stroke-width: 1.0;"/><text fill="#000000" font-family="sans-serif" font-size="11" lengthAdjust="spacingAndGlyphs" textLength="102" x="26" y="221.4502">m_minVersion: String</text><polygon fill="none" points="17,227.2852,21,231.2852,17,235.2852,13,231.2852" style="stroke: #B38D22; stroke-width: 1.0;"/><text fill="#000000" font-family="sans-serif" font-size="11" lengthAdjust="spacingAndGlyphs" textLength="106" x="26" y="235.2861">m_maxVersion: String</text><polygon fill="none" points="17,241.1211,21,245.1211,17,249.1211,13,245.1211" style="stroke: #B38D22; stroke-width: 1.0;"/><text fill="#000000" font-family="sans-serif" font-size="11" lengthAdjust="spacingAndGlyphs" textLength="128" x="26" y="249.1221">m_adminBeanClass: String</text><line style="stroke: #A80036; stroke-width: 1.5;" x1="7" x2="184" y1="255.5391" y2="255.5391"/><ellipse cx="17" cy="267.957" fill="#84BE84" rx="3" ry="3" style="stroke: #038048; stroke-width: 1.0;"/><text fill="#000000" font-family="sans-serif" font-size="11" lengthAdjust="spacingAndGlyphs" textLength="107" x="26" y="270.958">WikiModuleInfo(String)</text><polygon fill="#FFFF44" points="17,276.793,21,280.793,17,284.793,13,280.793" style="stroke: #B38D22; stroke-width: 1.0;"/><text fill="#000000" font-family="sans-serif" font-size="11" lengthAdjust="spacingAndGlyphs" textLength="153" x="26" y="284.7939">initializeFromXML(Element): void</text><ellipse cx="17" cy="295.6289" fill="#84BE84" rx="3" ry="3" style="stroke: #038048; stroke-width: 1.0;"/><text fill="#000000" font-family="sans-serif" font-size="11" lengthAdjust="spacingAndGlyphs" textLength="139" x="26" y="298.6299">getAdminBeanClass(): String</text><ellipse cx="17" cy="309.4648" fill="#84BE84" rx="3" ry="3" style="stroke: #038048; stroke-width: 1.0;"/><text fill="#000000" font-family="sans-serif" font-size="11" lengthAdjust="spacingAndGlyphs" textLength="84" x="26" y="312.4658">getName(): String</text><ellipse cx="17" cy="323.3008" fill="#84BE84" rx="3" ry="3" style="stroke: #038048; stroke-width: 1.0;"/><text fill="#000000" font-family="sans-serif" font-size="11" lengthAdjust="spacingAndGlyphs" textLength="111" x="26" y="326.3018">getDescription(): String</text><ellipse cx="17" cy="337.1367" fill="#84BE84" rx="3" ry="3" style="stroke: #038048; stroke-width: 1.0;"/><text fill="#000000" font-family="sans-serif" font-size="11" lengthAdjust="spacingAndGlyphs" textLength="104" x="26" y="340.1377">getModuleUrl(): String</text><ellipse cx="17" cy="350.9727" fill="#84BE84" rx="3" ry="3" style="stroke: #038048; stroke-width: 1.0;"/><text fill="#000000" font-family="sans-serif" font-size="11" lengthAdjust="spacingAndGlyphs" textLength="129" x="26" y="353.9736">getModuleVersion(): String</text><ellipse cx="17" cy="364.8086" fill="#84BE84" rx="3" ry="3" style="stroke: #038048; stroke-width: 1.0;"/><text fill="#000000" font-family="sans-serif" font-size="11" lengthAdjust="spacingAndGlyphs" textLength="120" x="26" y="367.8096">getHtmlTemplate(): String</text><ellipse cx="17" cy="378.6445" fill="#84BE84" rx="3" ry="3" style="stroke: #038048; stroke-width: 1.0;"/><text fill="#000000" font-family="sans-serif" font-size="11" lengthAdjust="spacingAndGlyphs" textLength="149" x="26" y="381.6455">getStylesheetLocation(): String</text><ellipse cx="17" cy="392.4805" fill="#84BE84" rx="3" ry="3" style="stroke: #038048; stroke-width: 1.0;"/><text fill="#000000" font-family="sans-serif" font-size="11" lengthAdjust="spacingAndGlyphs" textLength="126" x="26" y="395.4814">getScriptLocation(): String</text><ellipse cx="17" cy="406.3164" fill="#84BE84" rx="3" ry="3" style="stroke: #038048; stroke-width: 1.0;"/><text fill="#000000" font-family="sans-serif" font-size="11" lengthAdjust="spacingAndGlyphs" textLength="90" x="26" y="409.3174">getAuthor(): String</text><ellipse cx="17" cy="420.1523" fill="#84BE84" rx="3" ry="3" style="stroke: #038048; stroke-width: 1.0;"/><text fill="#000000" font-family="sans-serif" font-size="11" lengthAdjust="spacingAndGlyphs" textLength="103" x="26" y="423.1533">getAuthorUrl(): String</text><ellipse cx="17" cy="433.9883" fill="#84BE84" rx="3" ry="3" style="stroke: #038048; stroke-width: 1.0;"/><text fill="#000000" font-family="sans-serif" font-size="11" lengthAdjust="spacingAndGlyphs" textLength="111" x="26" y="436.9893">getMinVersion(): String</text><ellipse cx="17" cy="447.8242" fill="#84BE84" rx="3" ry="3" style="stroke: #038048; stroke-width: 1.0;"/><text fill="#000000" font-family="sans-serif" font-size="11" lengthAdjust="spacingAndGlyphs" textLength="115" x="26" y="450.8252">getMaxVersion(): String</text><polygon fill="#FFFF44" points="17,456.6602,21,460.6602,17,464.6602,13,460.6602" style="stroke: #B38D22; stroke-width: 1.0;"/><text fill="#000000" font-family="sans-serif" font-size="11" lengthAdjust="spacingAndGlyphs" textLength="153" x="26" y="464.6611">getTextResource(String): String</text><ellipse cx="17" cy="475.4961" fill="#84BE84" rx="3" ry="3" style="stroke: #038048; stroke-width: 1.0;"/><text fill="#000000" font-family="sans-serif" font-size="11" lengthAdjust="spacingAndGlyphs" textLength="150" x="26" y="478.4971">compareTo(WikiModuleInfo): int</text></a><text fill="#888888" font-family="sans-serif" font-size="10" lengthAdjust="spacingAndGlyphs" textLength="184" x="9.5" y="505.3809">UMLDoclet 1.1.4, PlantUML 1.2019.05</text><!--
@startuml

    class WikiModuleInfo [[WikiModuleInfo.html]] {
        #m_name: String
        #m_description: String
        #m_moduleUrl: String
        #m_moduleVersion: String
        #m_htmlTemplate: String
        #m_scriptLocation: String
        #m_scriptText: String
        #m_stylesheetLocation: String
        #m_stylesheetText: String
        #m_author: String
        #m_authorUrl: String
        #m_resource: URL
        #m_minVersion: String
        #m_maxVersion: String
        #m_adminBeanClass: String
        +WikiModuleInfo(String)
        #initializeFromXML(Element): void
        +getAdminBeanClass(): String
        +getName(): String
        +getDescription(): String
        +getModuleUrl(): String
        +getModuleVersion(): String
        +getHtmlTemplate(): String
        +getStylesheetLocation(): String
        +getScriptLocation(): String
        +getAuthor(): String
        +getAuthorUrl(): String
        +getMinVersion(): String
        +getMaxVersion(): String
        #getTextResource(String): String
        +compareTo(WikiModuleInfo): int
    }


    center footer UMLDoclet 1.1.4, PlantUML 1.2019.05
@enduml

PlantUML version 1.2019.05(Sat Apr 20 18:45:36 CEST 2019)
(APACHE source distribution)
Java Runtime: OpenJDK Runtime Environment
JVM: OpenJDK 64-Bit Server VM
Java Version: 1.8.0_212-b03
Operating System: Windows 10
OS Version: 10.0
Default Encoding: Cp1252
Language: es
Country: ES
--></g></svg>