<?xml version="1.0" encoding="UTF-8" standalone="no"?><svg xmlns="http://www.w3.org/2000/svg" xmlns:xlink="http://www.w3.org/1999/xlink" contentScriptType="application/ecmascript" contentStyleType="text/css" height="499px" preserveAspectRatio="none" style="width:1163px;height:499px;" version="1.1" viewBox="0 0 1163 499" width="1163px" zoomAndPan="magnify"><defs><filter height="300%" id="f12h7t9bxqm561" width="300%" x="-1" y="-1"><feGaussianBlur result="blurOut" stdDeviation="2.0"/><feColorMatrix in="blurOut" result="blurOut2" type="matrix" values="0 0 0 0 0 0 0 0 0 0 0 0 0 0 0 0 0 0 .4 0"/><feOffset dx="4.0" dy="4.0" in="blurOut2" result="blurOut3"/><feBlend in="SourceGraphic" in2="blurOut3" mode="normal"/></filter></defs><g><!--MD5=[77af465126129a8e6058c3260ac3e597]
cluster org.apache.wiki.api.spi--><polygon fill="#FFFFFF" filter="url(#f12h7t9bxqm561)" points="16,6,203,6,210,28.2969,1141,28.2969,1141,471,16,471,16,6" style="stroke: #000000; stroke-width: 1.5;"/><line style="stroke: #000000; stroke-width: 1.5;" x1="16" x2="210" y1="28.2969" y2="28.2969"/><text fill="#000000" font-family="sans-serif" font-size="14" font-weight="bold" lengthAdjust="spacingAndGlyphs" textLength="181" x="20" y="20.9951">org.apache.wiki.api.spi</text><!--MD5=[62605e8db9c854b836cd96edfb3a0a61]
class org.apache.wiki.api.spi.EngineDSL--><a href="EngineDSL.html" target="_top" title="EngineDSL.html" xlink:actuate="onRequest" xlink:href="EngineDSL.html" xlink:show="new" xlink:title="EngineDSL.html" xlink:type="simple"><rect codeLine="3" fill="#FEFECE" filter="url(#f12h7t9bxqm561)" height="86.4141" id="org.apache.wiki.api.spi.EngineDSL" style="stroke: #A80036; stroke-width: 1.5;" width="251" x="24.5" y="39.5"/><ellipse cx="112.75" cy="55.5" fill="#ADD1B2" rx="11" ry="11" style="stroke: #A80036; stroke-width: 1.0;"/><path d="M115.7188,61.1406 Q115.1406,61.4375 114.5,61.5781 Q113.8594,61.7344 113.1563,61.7344 Q110.6563,61.7344 109.3281,60.0938 Q108.0156,58.4375 108.0156,55.3125 Q108.0156,52.1875 109.3281,50.5313 Q110.6563,48.875 113.1563,48.875 Q113.8594,48.875 114.5,49.0313 Q115.1563,49.1875 115.7188,49.4844 L115.7188,52.2031 Q115.0938,51.625 114.5,51.3594 Q113.9063,51.0781 113.2813,51.0781 Q111.9375,51.0781 111.25,52.1563 Q110.5625,53.2188 110.5625,55.3125 Q110.5625,57.4063 111.25,58.4844 Q111.9375,59.5469 113.2813,59.5469 Q113.9063,59.5469 114.5,59.2813 Q115.0938,59 115.7188,58.4219 L115.7188,61.1406 Z "/><text fill="#000000" font-family="sans-serif" font-size="12" lengthAdjust="spacingAndGlyphs" textLength="66" x="133.25" y="59.6543">EngineDSL</text><line style="stroke: #A80036; stroke-width: 1.5;" x1="25.5" x2="274.5" y1="71.5" y2="71.5"/><line style="stroke: #A80036; stroke-width: 1.5;" x1="25.5" x2="274.5" y1="79.5" y2="79.5"/><ellipse cx="35.5" cy="90.5" fill="#84BE84" rx="3" ry="3" style="stroke: #038048; stroke-width: 1.0;"/><text fill="#000000" font-family="sans-serif" font-size="11" lengthAdjust="spacingAndGlyphs" textLength="151" x="44.5" y="93.7104">find(ServletConfig): Engine</text><ellipse cx="35.5" cy="103.3047" fill="#84BE84" rx="3" ry="3" style="stroke: #038048; stroke-width: 1.0;"/><text fill="#000000" font-family="sans-serif" font-size="11" lengthAdjust="spacingAndGlyphs" textLength="218" x="44.5" y="106.5151">find(ServletConfig, Properties): Engine</text><ellipse cx="35.5" cy="116.1094" fill="#84BE84" rx="3" ry="3" style="stroke: #038048; stroke-width: 1.0;"/><text fill="#000000" font-family="sans-serif" font-size="11" lengthAdjust="spacingAndGlyphs" textLength="225" x="44.5" y="119.3198">find(ServletContext, Properties): Engine</text></a><!--MD5=[8f2da63379beffa948bd49efaa6b9718]
class org.apache.wiki.api.spi.ContentsSPI--><a href="ContentsSPI.html" target="_top" title="ContentsSPI.html" xlink:actuate="onRequest" xlink:href="ContentsSPI.html" xlink:show="new" xlink:title="ContentsSPI.html" xlink:type="simple"><rect codeLine="9" fill="#FEFECE" filter="url(#f12h7t9bxqm561)" height="73.6094" id="org.apache.wiki.api.spi.ContentsSPI" style="stroke: #A80036; stroke-width: 1.5;" width="291" x="310.5" y="45.5"/><ellipse cx="414.25" cy="61.5" fill="#B4A7E5" rx="11" ry="11" style="stroke: #A80036; stroke-width: 1.0;"/><path d="M410.1719,57.2656 L410.1719,55.1094 L417.5625,55.1094 L417.5625,57.2656 L415.0938,57.2656 L415.0938,65.3438 L417.5625,65.3438 L417.5625,67.5 L410.1719,67.5 L410.1719,65.3438 L412.6406,65.3438 L412.6406,57.2656 L410.1719,57.2656 Z "/><text fill="#000000" font-family="sans-serif" font-size="12" font-style="italic" lengthAdjust="spacingAndGlyphs" textLength="75" x="434.75" y="65.6543">ContentsSPI</text><line style="stroke: #A80036; stroke-width: 1.5;" x1="311.5" x2="600.5" y1="77.5" y2="77.5"/><line style="stroke: #A80036; stroke-width: 1.5;" x1="311.5" x2="600.5" y1="85.5" y2="85.5"/><ellipse cx="321.5" cy="96.5" fill="#84BE84" rx="3" ry="3" style="stroke: #038048; stroke-width: 1.0;"/><text fill="#000000" font-family="sans-serif" font-size="11" font-style="italic" lengthAdjust="spacingAndGlyphs" textLength="265" x="330.5" y="99.7104">attachment(Engine, String, String): Attachment</text><ellipse cx="321.5" cy="109.3047" fill="#84BE84" rx="3" ry="3" style="stroke: #038048; stroke-width: 1.0;"/><text fill="#000000" font-family="sans-serif" font-size="11" font-style="italic" lengthAdjust="spacingAndGlyphs" textLength="151" x="330.5" y="112.5151">page(Engine, String): Page</text></a><!--MD5=[3cc7a177362693a4101c4797076d4341]
class org.apache.wiki.api.spi.AclsSPI--><a href="AclsSPI.html" target="_top" title="AclsSPI.html" xlink:actuate="onRequest" xlink:href="AclsSPI.html" xlink:show="new" xlink:title="AclsSPI.html" xlink:type="simple"><rect codeLine="14" fill="#FEFECE" filter="url(#f12h7t9bxqm561)" height="73.6094" id="org.apache.wiki.api.spi.AclsSPI" style="stroke: #A80036; stroke-width: 1.5;" width="119" x="636.5" y="45.5"/><ellipse cx="671.3" cy="61.5" fill="#B4A7E5" rx="11" ry="11" style="stroke: #A80036; stroke-width: 1.0;"/><path d="M667.2219,57.2656 L667.2219,55.1094 L674.6125,55.1094 L674.6125,57.2656 L672.1438,57.2656 L672.1438,65.3438 L674.6125,65.3438 L674.6125,67.5 L667.2219,67.5 L667.2219,65.3438 L669.6906,65.3438 L669.6906,57.2656 L667.2219,57.2656 Z "/><text fill="#000000" font-family="sans-serif" font-size="12" font-style="italic" lengthAdjust="spacingAndGlyphs" textLength="43" x="689.7" y="65.6543">AclsSPI</text><line style="stroke: #A80036; stroke-width: 1.5;" x1="637.5" x2="754.5" y1="77.5" y2="77.5"/><line style="stroke: #A80036; stroke-width: 1.5;" x1="637.5" x2="754.5" y1="85.5" y2="85.5"/><ellipse cx="647.5" cy="96.5" fill="#84BE84" rx="3" ry="3" style="stroke: #038048; stroke-width: 1.0;"/><text fill="#000000" font-family="sans-serif" font-size="11" font-style="italic" lengthAdjust="spacingAndGlyphs" textLength="49" x="656.5" y="99.7104">acl(): Acl</text><ellipse cx="647.5" cy="109.3047" fill="#84BE84" rx="3" ry="3" style="stroke: #038048; stroke-width: 1.0;"/><text fill="#000000" font-family="sans-serif" font-size="11" font-style="italic" lengthAdjust="spacingAndGlyphs" textLength="93" x="656.5" y="112.5151">entry(): AclEntry</text></a><!--MD5=[f94607c025d7165374977c722d2704ab]
class org.apache.wiki.api.spi.ContextSPI--><a href="ContextSPI.html" target="_top" title="ContextSPI.html" xlink:actuate="onRequest" xlink:href="ContextSPI.html" xlink:show="new" xlink:title="ContextSPI.html" xlink:type="simple"><rect codeLine="19" fill="#FEFECE" filter="url(#f12h7t9bxqm561)" height="99.2188" id="org.apache.wiki.api.spi.ContextSPI" style="stroke: #A80036; stroke-width: 1.5;" width="343" x="790.5" y="33"/><ellipse cx="923.75" cy="49" fill="#B4A7E5" rx="11" ry="11" style="stroke: #A80036; stroke-width: 1.0;"/><path d="M919.6719,44.7656 L919.6719,42.6094 L927.0625,42.6094 L927.0625,44.7656 L924.5938,44.7656 L924.5938,52.8438 L927.0625,52.8438 L927.0625,55 L919.6719,55 L919.6719,52.8438 L922.1406,52.8438 L922.1406,44.7656 L919.6719,44.7656 Z "/><text fill="#000000" font-family="sans-serif" font-size="12" font-style="italic" lengthAdjust="spacingAndGlyphs" textLength="68" x="944.25" y="53.1543">ContextSPI</text><line style="stroke: #A80036; stroke-width: 1.5;" x1="791.5" x2="1132.5" y1="65" y2="65"/><line style="stroke: #A80036; stroke-width: 1.5;" x1="791.5" x2="1132.5" y1="73" y2="73"/><ellipse cx="801.5" cy="84" fill="#84BE84" rx="3" ry="3" style="stroke: #038048; stroke-width: 1.0;"/><text fill="#000000" font-family="sans-serif" font-size="11" font-style="italic" lengthAdjust="spacingAndGlyphs" textLength="170" x="810.5" y="87.2104">create(Engine, Page): Context</text><ellipse cx="801.5" cy="96.8047" fill="#84BE84" rx="3" ry="3" style="stroke: #038048; stroke-width: 1.0;"/><text fill="#000000" font-family="sans-serif" font-size="11" font-style="italic" lengthAdjust="spacingAndGlyphs" textLength="317" x="810.5" y="100.0151">create(Engine, HttpServletRequest, Command): Context</text><ellipse cx="801.5" cy="109.6094" fill="#84BE84" rx="3" ry="3" style="stroke: #038048; stroke-width: 1.0;"/><text fill="#000000" font-family="sans-serif" font-size="11" font-style="italic" lengthAdjust="spacingAndGlyphs" textLength="287" x="810.5" y="112.8198">create(Engine, HttpServletRequest, Page): Context</text><ellipse cx="801.5" cy="122.4141" fill="#84BE84" rx="3" ry="3" style="stroke: #038048; stroke-width: 1.0;"/><text fill="#000000" font-family="sans-serif" font-size="11" font-style="italic" lengthAdjust="spacingAndGlyphs" textLength="292" x="810.5" y="125.6245">create(Engine, HttpServletRequest, String): Context</text></a><!--MD5=[72cef5af7c1e5c0a14454e3c188183b9]
class org.apache.wiki.api.spi.EngineSPI--><a href="EngineSPI.html" target="_top" title="EngineSPI.html" xlink:actuate="onRequest" xlink:href="EngineSPI.html" xlink:show="new" xlink:title="EngineSPI.html" xlink:type="simple"><rect codeLine="26" fill="#FEFECE" filter="url(#f12h7t9bxqm561)" height="60.8047" id="org.apache.wiki.api.spi.EngineSPI" style="stroke: #A80036; stroke-width: 1.5;" width="251" x="34.5" y="204.5"/><ellipse cx="124.75" cy="220.5" fill="#B4A7E5" rx="11" ry="11" style="stroke: #A80036; stroke-width: 1.0;"/><path d="M120.6719,216.2656 L120.6719,214.1094 L128.0625,214.1094 L128.0625,216.2656 L125.5938,216.2656 L125.5938,224.3438 L128.0625,224.3438 L128.0625,226.5 L120.6719,226.5 L120.6719,224.3438 L123.1406,224.3438 L123.1406,216.2656 L120.6719,216.2656 Z "/><text fill="#000000" font-family="sans-serif" font-size="12" font-style="italic" lengthAdjust="spacingAndGlyphs" textLength="62" x="145.25" y="224.6543">EngineSPI</text><line style="stroke: #A80036; stroke-width: 1.5;" x1="35.5" x2="284.5" y1="236.5" y2="236.5"/><line style="stroke: #A80036; stroke-width: 1.5;" x1="35.5" x2="284.5" y1="244.5" y2="244.5"/><ellipse cx="45.5" cy="255.5" fill="#84BE84" rx="3" ry="3" style="stroke: #038048; stroke-width: 1.0;"/><text fill="#000000" font-family="sans-serif" font-size="11" font-style="italic" lengthAdjust="spacingAndGlyphs" textLength="225" x="54.5" y="258.7104">find(ServletContext, Properties): Engine</text></a><!--MD5=[916de04e4ea74ab47624c6d7ee6ceead]
class org.apache.wiki.api.spi.SessionDSL--><a href="SessionDSL.html" target="_top" title="SessionDSL.html" xlink:actuate="onRequest" xlink:href="SessionDSL.html" xlink:show="new" xlink:title="SessionDSL.html" xlink:type="simple"><rect codeLine="30" fill="#FEFECE" filter="url(#f12h7t9bxqm561)" height="86.4141" id="org.apache.wiki.api.spi.SessionDSL" style="stroke: #A80036; stroke-width: 1.5;" width="264" x="321" y="192"/><ellipse cx="412.75" cy="208" fill="#ADD1B2" rx="11" ry="11" style="stroke: #A80036; stroke-width: 1.0;"/><path d="M415.7188,213.6406 Q415.1406,213.9375 414.5,214.0781 Q413.8594,214.2344 413.1563,214.2344 Q410.6563,214.2344 409.3281,212.5938 Q408.0156,210.9375 408.0156,207.8125 Q408.0156,204.6875 409.3281,203.0313 Q410.6563,201.375 413.1563,201.375 Q413.8594,201.375 414.5,201.5313 Q415.1563,201.6875 415.7188,201.9844 L415.7188,204.7031 Q415.0938,204.125 414.5,203.8594 Q413.9063,203.5781 413.2813,203.5781 Q411.9375,203.5781 411.25,204.6563 Q410.5625,205.7188 410.5625,207.8125 Q410.5625,209.9063 411.25,210.9844 Q411.9375,212.0469 413.2813,212.0469 Q413.9063,212.0469 414.5,211.7813 Q415.0938,211.5 415.7188,210.9219 L415.7188,213.6406 Z "/><text fill="#000000" font-family="sans-serif" font-size="12" lengthAdjust="spacingAndGlyphs" textLength="72" x="433.25" y="212.1543">SessionDSL</text><line style="stroke: #A80036; stroke-width: 1.5;" x1="322" x2="584" y1="224" y2="224"/><line style="stroke: #A80036; stroke-width: 1.5;" x1="322" x2="584" y1="232" y2="232"/><ellipse cx="332" cy="243" fill="#84BE84" rx="3" ry="3" style="stroke: #038048; stroke-width: 1.0;"/><text fill="#000000" font-family="sans-serif" font-size="11" lengthAdjust="spacingAndGlyphs" textLength="237" x="341" y="246.2104">remove(Engine, HttpServletRequest): void</text><ellipse cx="332" cy="255.8047" fill="#84BE84" rx="3" ry="3" style="stroke: #038048; stroke-width: 1.0;"/><text fill="#000000" font-family="sans-serif" font-size="11" lengthAdjust="spacingAndGlyphs" textLength="238" x="341" y="259.0151">find(Engine, HttpServletRequest): Session</text><ellipse cx="332" cy="268.6094" fill="#84BE84" rx="3" ry="3" style="stroke: #038048; stroke-width: 1.0;"/><text fill="#000000" font-family="sans-serif" font-size="11" lengthAdjust="spacingAndGlyphs" textLength="132" x="341" y="271.8198">guest(Engine): Session</text></a><!--MD5=[13154259000ca19ba8a300a9ef212a04]
class org.apache.wiki.api.spi.AclsDSL--><a href="AclsDSL.html" target="_top" title="AclsDSL.html" xlink:actuate="onRequest" xlink:href="AclsDSL.html" xlink:show="new" xlink:title="AclsDSL.html" xlink:type="simple"><rect codeLine="36" fill="#FEFECE" filter="url(#f12h7t9bxqm561)" height="73.6094" id="org.apache.wiki.api.spi.AclsDSL" style="stroke: #A80036; stroke-width: 1.5;" width="116" x="620" y="198"/><ellipse cx="651.2" cy="214" fill="#ADD1B2" rx="11" ry="11" style="stroke: #A80036; stroke-width: 1.0;"/><path d="M654.1688,219.6406 Q653.5906,219.9375 652.95,220.0781 Q652.3094,220.2344 651.6063,220.2344 Q649.1063,220.2344 647.7781,218.5938 Q646.4656,216.9375 646.4656,213.8125 Q646.4656,210.6875 647.7781,209.0313 Q649.1063,207.375 651.6063,207.375 Q652.3094,207.375 652.95,207.5313 Q653.6063,207.6875 654.1688,207.9844 L654.1688,210.7031 Q653.5438,210.125 652.95,209.8594 Q652.3563,209.5781 651.7313,209.5781 Q650.3875,209.5781 649.7,210.6563 Q649.0125,211.7188 649.0125,213.8125 Q649.0125,215.9063 649.7,216.9844 Q650.3875,218.0469 651.7313,218.0469 Q652.3563,218.0469 652.95,217.7813 Q653.5438,217.5 654.1688,216.9219 L654.1688,219.6406 Z "/><text fill="#000000" font-family="sans-serif" font-size="12" lengthAdjust="spacingAndGlyphs" textLength="48" x="668.8" y="218.1543">AclsDSL</text><line style="stroke: #A80036; stroke-width: 1.5;" x1="621" x2="735" y1="230" y2="230"/><line style="stroke: #A80036; stroke-width: 1.5;" x1="621" x2="735" y1="238" y2="238"/><ellipse cx="631" cy="249" fill="#84BE84" rx="3" ry="3" style="stroke: #038048; stroke-width: 1.0;"/><text fill="#000000" font-family="sans-serif" font-size="11" lengthAdjust="spacingAndGlyphs" textLength="48" x="640" y="252.2104">acl(): Acl</text><ellipse cx="631" cy="261.8047" fill="#84BE84" rx="3" ry="3" style="stroke: #038048; stroke-width: 1.0;"/><text fill="#000000" font-family="sans-serif" font-size="11" lengthAdjust="spacingAndGlyphs" textLength="90" x="640" y="265.0151">entry(): AclEntry</text></a><!--MD5=[52c031eca9d14e414123c0f3a82f168a]
class org.apache.wiki.api.spi.SessionSPI--><a href="SessionSPI.html" target="_top" title="SessionSPI.html" xlink:actuate="onRequest" xlink:href="SessionSPI.html" xlink:show="new" xlink:title="SessionSPI.html" xlink:type="simple"><rect codeLine="41" fill="#FEFECE" filter="url(#f12h7t9bxqm561)" height="86.4141" id="org.apache.wiki.api.spi.SessionSPI" style="stroke: #A80036; stroke-width: 1.5;" width="265" x="771.5" y="192"/><ellipse cx="866.75" cy="208" fill="#B4A7E5" rx="11" ry="11" style="stroke: #A80036; stroke-width: 1.0;"/><path d="M862.6719,203.7656 L862.6719,201.6094 L870.0625,201.6094 L870.0625,203.7656 L867.5938,203.7656 L867.5938,211.8438 L870.0625,211.8438 L870.0625,214 L862.6719,214 L862.6719,211.8438 L865.1406,211.8438 L865.1406,203.7656 L862.6719,203.7656 Z "/><text fill="#000000" font-family="sans-serif" font-size="12" font-style="italic" lengthAdjust="spacingAndGlyphs" textLength="66" x="887.25" y="212.1543">SessionSPI</text><line style="stroke: #A80036; stroke-width: 1.5;" x1="772.5" x2="1035.5" y1="224" y2="224"/><line style="stroke: #A80036; stroke-width: 1.5;" x1="772.5" x2="1035.5" y1="232" y2="232"/><ellipse cx="782.5" cy="243" fill="#84BE84" rx="3" ry="3" style="stroke: #038048; stroke-width: 1.0;"/><text fill="#000000" font-family="sans-serif" font-size="11" font-style="italic" lengthAdjust="spacingAndGlyphs" textLength="239" x="791.5" y="246.2104">remove(Engine, HttpServletRequest): void</text><ellipse cx="782.5" cy="255.8047" fill="#84BE84" rx="3" ry="3" style="stroke: #038048; stroke-width: 1.0;"/><text fill="#000000" font-family="sans-serif" font-size="11" font-style="italic" lengthAdjust="spacingAndGlyphs" textLength="235" x="791.5" y="259.0151">find(Engine, HttpServletRequest): Session</text><ellipse cx="782.5" cy="268.6094" fill="#84BE84" rx="3" ry="3" style="stroke: #038048; stroke-width: 1.0;"/><text fill="#000000" font-family="sans-serif" font-size="11" font-style="italic" lengthAdjust="spacingAndGlyphs" textLength="128" x="791.5" y="271.8198">guest(Engine): Session</text></a><!--MD5=[1a63e549a6f9e10ef624e76ecedcdbec]
class org.apache.wiki.api.spi.ContentsDSL--><a href="ContentsDSL.html" target="_top" title="ContentsDSL.html" xlink:actuate="onRequest" xlink:href="ContentsDSL.html" xlink:show="new" xlink:title="ContentsDSL.html" xlink:type="simple"><rect codeLine="47" fill="#FEFECE" filter="url(#f12h7t9bxqm561)" height="73.6094" id="org.apache.wiki.api.spi.ContentsDSL" style="stroke: #A80036; stroke-width: 1.5;" width="292" x="24" y="363.5"/><ellipse cx="125.75" cy="379.5" fill="#ADD1B2" rx="11" ry="11" style="stroke: #A80036; stroke-width: 1.0;"/><path d="M128.7188,385.1406 Q128.1406,385.4375 127.5,385.5781 Q126.8594,385.7344 126.1563,385.7344 Q123.6563,385.7344 122.3281,384.0938 Q121.0156,382.4375 121.0156,379.3125 Q121.0156,376.1875 122.3281,374.5313 Q123.6563,372.875 126.1563,372.875 Q126.8594,372.875 127.5,373.0313 Q128.1563,373.1875 128.7188,373.4844 L128.7188,376.2031 Q128.0938,375.625 127.5,375.3594 Q126.9063,375.0781 126.2813,375.0781 Q124.9375,375.0781 124.25,376.1563 Q123.5625,377.2188 123.5625,379.3125 Q123.5625,381.4063 124.25,382.4844 Q124.9375,383.5469 126.2813,383.5469 Q126.9063,383.5469 127.5,383.2813 Q128.0938,383 128.7188,382.4219 L128.7188,385.1406 Z "/><text fill="#000000" font-family="sans-serif" font-size="12" lengthAdjust="spacingAndGlyphs" textLength="80" x="146.25" y="383.6543">ContentsDSL</text><line style="stroke: #A80036; stroke-width: 1.5;" x1="25" x2="315" y1="395.5" y2="395.5"/><line style="stroke: #A80036; stroke-width: 1.5;" x1="25" x2="315" y1="403.5" y2="403.5"/><ellipse cx="35" cy="414.5" fill="#84BE84" rx="3" ry="3" style="stroke: #038048; stroke-width: 1.0;"/><text fill="#000000" font-family="sans-serif" font-size="11" lengthAdjust="spacingAndGlyphs" textLength="266" x="44" y="417.7104">attachment(Engine, String, String): Attachment</text><ellipse cx="35" cy="427.3047" fill="#84BE84" rx="3" ry="3" style="stroke: #038048; stroke-width: 1.0;"/><text fill="#000000" font-family="sans-serif" font-size="11" lengthAdjust="spacingAndGlyphs" textLength="152" x="44" y="430.5151">page(Engine, String): Page</text></a><!--MD5=[de3d530920b5106156f3f4352c6d4935]
class org.apache.wiki.api.spi.Wiki--><a href="Wiki.html" target="_top" title="Wiki.html" xlink:actuate="onRequest" xlink:href="Wiki.html" xlink:show="new" xlink:title="Wiki.html" xlink:type="simple"><rect codeLine="52" fill="#FEFECE" filter="url(#f12h7t9bxqm561)" height="124.8281" id="org.apache.wiki.api.spi.Wiki" style="stroke: #A80036; stroke-width: 1.5;" width="201" x="351.5" y="338"/><ellipse cx="435.75" cy="354" fill="#ADD1B2" rx="11" ry="11" style="stroke: #A80036; stroke-width: 1.0;"/><path d="M438.7188,359.6406 Q438.1406,359.9375 437.5,360.0781 Q436.8594,360.2344 436.1563,360.2344 Q433.6563,360.2344 432.3281,358.5938 Q431.0156,356.9375 431.0156,353.8125 Q431.0156,350.6875 432.3281,349.0313 Q433.6563,347.375 436.1563,347.375 Q436.8594,347.375 437.5,347.5313 Q438.1563,347.6875 438.7188,347.9844 L438.7188,350.7031 Q438.0938,350.125 437.5,349.8594 Q436.9063,349.5781 436.2813,349.5781 Q434.9375,349.5781 434.25,350.6563 Q433.5625,351.7188 433.5625,353.8125 Q433.5625,355.9063 434.25,356.9844 Q434.9375,358.0469 436.2813,358.0469 Q436.9063,358.0469 437.5,357.7813 Q438.0938,357.5 438.7188,356.9219 L438.7188,359.6406 Z "/><text fill="#000000" font-family="sans-serif" font-size="12" lengthAdjust="spacingAndGlyphs" textLength="24" x="456.25" y="358.1543">Wiki</text><line style="stroke: #A80036; stroke-width: 1.5;" x1="352.5" x2="551.5" y1="370" y2="370"/><line style="stroke: #A80036; stroke-width: 1.5;" x1="352.5" x2="551.5" y1="378" y2="378"/><ellipse cx="362.5" cy="389" fill="#84BE84" rx="3" ry="3" style="stroke: #038048; stroke-width: 1.0;"/><text fill="#000000" font-family="sans-serif" font-size="11" lengthAdjust="spacingAndGlyphs" text-decoration="underline" textLength="175" x="371.5" y="392.2104">init(ServletContext): Properties</text><ellipse cx="362.5" cy="401.8047" fill="#84BE84" rx="3" ry="3" style="stroke: #038048; stroke-width: 1.0;"/><text fill="#000000" font-family="sans-serif" font-size="11" lengthAdjust="spacingAndGlyphs" text-decoration="underline" textLength="84" x="371.5" y="405.0151">acls(): AclsDSL</text><ellipse cx="362.5" cy="414.6094" fill="#84BE84" rx="3" ry="3" style="stroke: #038048; stroke-width: 1.0;"/><text fill="#000000" font-family="sans-serif" font-size="11" lengthAdjust="spacingAndGlyphs" text-decoration="underline" textLength="138" x="371.5" y="417.8198">contents(): ContentsDSL</text><ellipse cx="362.5" cy="427.4141" fill="#84BE84" rx="3" ry="3" style="stroke: #038048; stroke-width: 1.0;"/><text fill="#000000" font-family="sans-serif" font-size="11" lengthAdjust="spacingAndGlyphs" text-decoration="underline" textLength="122" x="371.5" y="430.6245">context(): ContextDSL</text><ellipse cx="362.5" cy="440.2188" fill="#84BE84" rx="3" ry="3" style="stroke: #038048; stroke-width: 1.0;"/><text fill="#000000" font-family="sans-serif" font-size="11" lengthAdjust="spacingAndGlyphs" text-decoration="underline" textLength="114" x="371.5" y="443.4292">engine(): EngineDSL</text><ellipse cx="362.5" cy="453.0234" fill="#84BE84" rx="3" ry="3" style="stroke: #038048; stroke-width: 1.0;"/><text fill="#000000" font-family="sans-serif" font-size="11" lengthAdjust="spacingAndGlyphs" text-decoration="underline" textLength="129" x="371.5" y="456.2339">session(): SessionDSL</text></a><!--MD5=[2ecf9bf15dd5696f1e4971959ac07095]
class org.apache.wiki.api.spi.ContextDSL--><a href="ContextDSL.html" target="_top" title="ContextDSL.html" xlink:actuate="onRequest" xlink:href="ContextDSL.html" xlink:show="new" xlink:title="ContextDSL.html" xlink:type="simple"><rect codeLine="61" fill="#FEFECE" filter="url(#f12h7t9bxqm561)" height="99.2188" id="org.apache.wiki.api.spi.ContextDSL" style="stroke: #A80036; stroke-width: 1.5;" width="342" x="588" y="351"/><ellipse cx="719.25" cy="367" fill="#ADD1B2" rx="11" ry="11" style="stroke: #A80036; stroke-width: 1.0;"/><path d="M722.2188,372.6406 Q721.6406,372.9375 721,373.0781 Q720.3594,373.2344 719.6563,373.2344 Q717.1563,373.2344 715.8281,371.5938 Q714.5156,369.9375 714.5156,366.8125 Q714.5156,363.6875 715.8281,362.0313 Q717.1563,360.375 719.6563,360.375 Q720.3594,360.375 721,360.5313 Q721.6563,360.6875 722.2188,360.9844 L722.2188,363.7031 Q721.5938,363.125 721,362.8594 Q720.4063,362.5781 719.7813,362.5781 Q718.4375,362.5781 717.75,363.6563 Q717.0625,364.7188 717.0625,366.8125 Q717.0625,368.9063 717.75,369.9844 Q718.4375,371.0469 719.7813,371.0469 Q720.4063,371.0469 721,370.7813 Q721.5938,370.5 722.2188,369.9219 L722.2188,372.6406 Z "/><text fill="#000000" font-family="sans-serif" font-size="12" lengthAdjust="spacingAndGlyphs" textLength="71" x="739.75" y="371.1543">ContextDSL</text><line style="stroke: #A80036; stroke-width: 1.5;" x1="589" x2="929" y1="383" y2="383"/><line style="stroke: #A80036; stroke-width: 1.5;" x1="589" x2="929" y1="391" y2="391"/><ellipse cx="599" cy="402" fill="#84BE84" rx="3" ry="3" style="stroke: #038048; stroke-width: 1.0;"/><text fill="#000000" font-family="sans-serif" font-size="11" lengthAdjust="spacingAndGlyphs" textLength="169" x="608" y="405.2104">create(Engine, Page): Context</text><ellipse cx="599" cy="414.8047" fill="#84BE84" rx="3" ry="3" style="stroke: #038048; stroke-width: 1.0;"/><text fill="#000000" font-family="sans-serif" font-size="11" lengthAdjust="spacingAndGlyphs" textLength="316" x="608" y="418.0151">create(Engine, HttpServletRequest, Command): Context</text><ellipse cx="599" cy="427.6094" fill="#84BE84" rx="3" ry="3" style="stroke: #038048; stroke-width: 1.0;"/><text fill="#000000" font-family="sans-serif" font-size="11" lengthAdjust="spacingAndGlyphs" textLength="286" x="608" y="430.8198">create(Engine, HttpServletRequest, Page): Context</text><ellipse cx="599" cy="440.4141" fill="#84BE84" rx="3" ry="3" style="stroke: #038048; stroke-width: 1.0;"/><text fill="#000000" font-family="sans-serif" font-size="11" lengthAdjust="spacingAndGlyphs" textLength="292" x="608" y="443.6245">create(Engine, HttpServletRequest, String): Context</text></a><!--MD5=[a324a0eebf17f209ac8bdaaf7cf56305]
link org.apache.wiki.api.spi.EngineDSL to org.apache.wiki.api.spi.ContentsSPI--><!--MD5=[7fd9c36ad66f10aa2e1aec7cc751d562]
link org.apache.wiki.api.spi.ContentsSPI to org.apache.wiki.api.spi.AclsSPI--><!--MD5=[c494891f6c33db641fcfc9f0d818f571]
link org.apache.wiki.api.spi.AclsSPI to org.apache.wiki.api.spi.ContextSPI--><!--MD5=[f35e145dc40f8bb2740e8b4b1a1bf183]
link org.apache.wiki.api.spi.EngineDSL to org.apache.wiki.api.spi.EngineSPI--><!--MD5=[3540fb1e9ec2837cbf462b6ebea78880]
link org.apache.wiki.api.spi.EngineSPI to org.apache.wiki.api.spi.SessionDSL--><!--MD5=[0bb745787ccaa94cbf00d1772cf4207b]
link org.apache.wiki.api.spi.SessionDSL to org.apache.wiki.api.spi.AclsDSL--><!--MD5=[be2c292093e8216a45f3066cb92828b5]
link org.apache.wiki.api.spi.AclsDSL to org.apache.wiki.api.spi.SessionSPI--><!--MD5=[ad39b83739db4dd5b041a6ab23c75a83]
link org.apache.wiki.api.spi.EngineSPI to org.apache.wiki.api.spi.ContentsDSL--><!--MD5=[fa25c59837d1aba6ce651a9bae4ff63a]
link org.apache.wiki.api.spi.ContentsDSL to org.apache.wiki.api.spi.Wiki--><!--MD5=[20e25a0aacfdc89605a3a0f605cb6505]
link org.apache.wiki.api.spi.Wiki to org.apache.wiki.api.spi.ContextDSL--><text fill="#888888" font-family="sans-serif" font-size="10" lengthAdjust="spacingAndGlyphs" textLength="192" x="476.5" y="486.2822">UMLDoclet 2.0.12, PlantUML 1.2020.16</text><!--MD5=[318dcbf8e134c64bae5e485a482bf9f4]
@startuml
    namespace org.apache.wiki.api.spi {

        class EngineDSL [[EngineDSL.html]] {
            +find(ServletConfig): Engine
            +find(ServletConfig, Properties): Engine
            +find(ServletContext, Properties): Engine
        }

        interface ContentsSPI [[ContentsSPI.html]] {
            {abstract} +attachment(Engine, String, String): Attachment
            {abstract} +page(Engine, String): Page
        }

        interface AclsSPI [[AclsSPI.html]] {
            {abstract} +acl(): Acl
            {abstract} +entry(): AclEntry
        }

        interface ContextSPI [[ContextSPI.html]] {
            {abstract} +create(Engine, Page): Context
            {abstract} +create(Engine, HttpServletRequest, Command): Context
            {abstract} +create(Engine, HttpServletRequest, Page): Context
            {abstract} +create(Engine, HttpServletRequest, String): Context
        }

        interface EngineSPI [[EngineSPI.html]] {
            {abstract} +find(ServletContext, Properties): Engine
        }

        class SessionDSL [[SessionDSL.html]] {
            +remove(Engine, HttpServletRequest): void
            +find(Engine, HttpServletRequest): Session
            +guest(Engine): Session
        }

        class AclsDSL [[AclsDSL.html]] {
            +acl(): Acl
            +entry(): AclEntry
        }

        interface SessionSPI [[SessionSPI.html]] {
            {abstract} +remove(Engine, HttpServletRequest): void
            {abstract} +find(Engine, HttpServletRequest): Session
            {abstract} +guest(Engine): Session
        }

        class ContentsDSL [[ContentsDSL.html]] {
            +attachment(Engine, String, String): Attachment
            +page(Engine, String): Page
        }

        class Wiki [[Wiki.html]] {
            {static} +init(ServletContext): Properties
            {static} +acls(): AclsDSL
            {static} +contents(): ContentsDSL
            {static} +context(): ContextDSL
            {static} +engine(): EngineDSL
            {static} +session(): SessionDSL
        }

        class ContextDSL [[ContextDSL.html]] {
            +create(Engine, Page): Context
            +create(Engine, HttpServletRequest, Command): Context
            +create(Engine, HttpServletRequest, Page): Context
            +create(Engine, HttpServletRequest, String): Context
        }

    }

    center footer UMLDoclet 2.0.12, PlantUML 1.2020.16
@enduml

PlantUML version 1.2020.16(Sun Aug 23 20:20:43 UTC 2020)
(APACHE source distribution)
Java Runtime: Java(TM) SE Runtime Environment
JVM: Java HotSpot(TM) 64-Bit Server VM
Default Encoding: ISO-8859-1
Language: en
Country: US
--></g></svg>