<?xml version="1.0" encoding="UTF-8" standalone="no"?><svg xmlns="http://www.w3.org/2000/svg" xmlns:xlink="http://www.w3.org/1999/xlink" contentScriptType="application/ecmascript" contentStyleType="text/css" height="512px" preserveAspectRatio="none" style="width:1133px;height:512px;" version="1.1" viewBox="0 0 1133 512" width="1133px" zoomAndPan="magnify"><defs><filter height="300%" id="f1cf5efxg4np4j" width="300%" x="-1" y="-1"><feGaussianBlur result="blurOut" stdDeviation="2.0"/><feColorMatrix in="blurOut" result="blurOut2" type="matrix" values="0 0 0 0 0 0 0 0 0 0 0 0 0 0 0 0 0 0 .4 0"/><feOffset dx="4.0" dy="4.0" in="blurOut2" result="blurOut3"/><feBlend in="SourceGraphic" in2="blurOut3" mode="normal"/></filter></defs><g><!--MD5=[77af465126129a8e6058c3260ac3e597]
cluster org.apache.wiki.api.spi--><polygon fill="#FFFFFF" filter="url(#f1cf5efxg4np4j)" points="16,6,203,6,210,28.2969,1111,28.2969,1111,484,16,484,16,6" style="stroke: #000000; stroke-width: 1.5;"/><line style="stroke: #000000; stroke-width: 1.5;" x1="16" x2="210" y1="28.2969" y2="28.2969"/><text fill="#000000" font-family="sans-serif" font-size="14" font-weight="bold" lengthAdjust="spacingAndGlyphs" textLength="181" x="20" y="20.9951">org.apache.wiki.api.spi</text><!--MD5=[de3d530920b5106156f3f4352c6d4935]
class org.apache.wiki.api.spi.Wiki--><a href="Wiki.html" target="_top" title="Wiki.html" xlink:actuate="onRequest" xlink:href="Wiki.html" xlink:show="new" xlink:title="Wiki.html" xlink:type="simple"><rect codeLine="3" fill="#FEFECE" filter="url(#f1cf5efxg4np4j)" height="124.8281" id="org.apache.wiki.api.spi.Wiki" style="stroke: #A80036; stroke-width: 1.5;" width="201" x="55.5" y="33"/><ellipse cx="139.75" cy="49" fill="#ADD1B2" rx="11" ry="11" style="stroke: #A80036; stroke-width: 1.0;"/><path d="M142.7188,54.6406 Q142.1406,54.9375 141.5,55.0781 Q140.8594,55.2344 140.1563,55.2344 Q137.6563,55.2344 136.3281,53.5938 Q135.0156,51.9375 135.0156,48.8125 Q135.0156,45.6875 136.3281,44.0313 Q137.6563,42.375 140.1563,42.375 Q140.8594,42.375 141.5,42.5313 Q142.1563,42.6875 142.7188,42.9844 L142.7188,45.7031 Q142.0938,45.125 141.5,44.8594 Q140.9063,44.5781 140.2813,44.5781 Q138.9375,44.5781 138.25,45.6563 Q137.5625,46.7188 137.5625,48.8125 Q137.5625,50.9063 138.25,51.9844 Q138.9375,53.0469 140.2813,53.0469 Q140.9063,53.0469 141.5,52.7813 Q142.0938,52.5 142.7188,51.9219 L142.7188,54.6406 Z "/><text fill="#000000" font-family="sans-serif" font-size="12" lengthAdjust="spacingAndGlyphs" textLength="24" x="160.25" y="53.1543">Wiki</text><line style="stroke: #A80036; stroke-width: 1.5;" x1="56.5" x2="255.5" y1="65" y2="65"/><line style="stroke: #A80036; stroke-width: 1.5;" x1="56.5" x2="255.5" y1="73" y2="73"/><ellipse cx="66.5" cy="84" fill="#84BE84" rx="3" ry="3" style="stroke: #038048; stroke-width: 1.0;"/><text fill="#000000" font-family="sans-serif" font-size="11" lengthAdjust="spacingAndGlyphs" text-decoration="underline" textLength="175" x="75.5" y="87.2104">init(ServletContext): Properties</text><ellipse cx="66.5" cy="96.8047" fill="#84BE84" rx="3" ry="3" style="stroke: #038048; stroke-width: 1.0;"/><text fill="#000000" font-family="sans-serif" font-size="11" lengthAdjust="spacingAndGlyphs" text-decoration="underline" textLength="84" x="75.5" y="100.0151">acls(): AclsDSL</text><ellipse cx="66.5" cy="109.6094" fill="#84BE84" rx="3" ry="3" style="stroke: #038048; stroke-width: 1.0;"/><text fill="#000000" font-family="sans-serif" font-size="11" lengthAdjust="spacingAndGlyphs" text-decoration="underline" textLength="138" x="75.5" y="112.8198">contents(): ContentsDSL</text><ellipse cx="66.5" cy="122.4141" fill="#84BE84" rx="3" ry="3" style="stroke: #038048; stroke-width: 1.0;"/><text fill="#000000" font-family="sans-serif" font-size="11" lengthAdjust="spacingAndGlyphs" text-decoration="underline" textLength="122" x="75.5" y="125.6245">context(): ContextDSL</text><ellipse cx="66.5" cy="135.2188" fill="#84BE84" rx="3" ry="3" style="stroke: #038048; stroke-width: 1.0;"/><text fill="#000000" font-family="sans-serif" font-size="11" lengthAdjust="spacingAndGlyphs" text-decoration="underline" textLength="114" x="75.5" y="138.4292">engine(): EngineDSL</text><ellipse cx="66.5" cy="148.0234" fill="#84BE84" rx="3" ry="3" style="stroke: #038048; stroke-width: 1.0;"/><text fill="#000000" font-family="sans-serif" font-size="11" lengthAdjust="spacingAndGlyphs" text-decoration="underline" textLength="129" x="75.5" y="151.2339">session(): SessionDSL</text></a><!--MD5=[8f2da63379beffa948bd49efaa6b9718]
class org.apache.wiki.api.spi.ContentsSPI--><a href="ContentsSPI.html" target="_top" title="ContentsSPI.html" xlink:actuate="onRequest" xlink:href="ContentsSPI.html" xlink:show="new" xlink:title="ContentsSPI.html" xlink:type="simple"><rect codeLine="12" fill="#FEFECE" filter="url(#f1cf5efxg4np4j)" height="73.6094" id="org.apache.wiki.api.spi.ContentsSPI" style="stroke: #A80036; stroke-width: 1.5;" width="291" x="291.5" y="58.5"/><ellipse cx="395.25" cy="74.5" fill="#B4A7E5" rx="11" ry="11" style="stroke: #A80036; stroke-width: 1.0;"/><path d="M391.1719,70.2656 L391.1719,68.1094 L398.5625,68.1094 L398.5625,70.2656 L396.0938,70.2656 L396.0938,78.3438 L398.5625,78.3438 L398.5625,80.5 L391.1719,80.5 L391.1719,78.3438 L393.6406,78.3438 L393.6406,70.2656 L391.1719,70.2656 Z "/><text fill="#000000" font-family="sans-serif" font-size="12" font-style="italic" lengthAdjust="spacingAndGlyphs" textLength="75" x="415.75" y="78.6543">ContentsSPI</text><line style="stroke: #A80036; stroke-width: 1.5;" x1="292.5" x2="581.5" y1="90.5" y2="90.5"/><line style="stroke: #A80036; stroke-width: 1.5;" x1="292.5" x2="581.5" y1="98.5" y2="98.5"/><ellipse cx="302.5" cy="109.5" fill="#84BE84" rx="3" ry="3" style="stroke: #038048; stroke-width: 1.0;"/><text fill="#000000" font-family="sans-serif" font-size="11" font-style="italic" lengthAdjust="spacingAndGlyphs" textLength="265" x="311.5" y="112.7104">attachment(Engine, String, String): Attachment</text><ellipse cx="302.5" cy="122.3047" fill="#84BE84" rx="3" ry="3" style="stroke: #038048; stroke-width: 1.0;"/><text fill="#000000" font-family="sans-serif" font-size="11" font-style="italic" lengthAdjust="spacingAndGlyphs" textLength="151" x="311.5" y="125.5151">page(Engine, String): Page</text></a><!--MD5=[62605e8db9c854b836cd96edfb3a0a61]
class org.apache.wiki.api.spi.EngineDSL--><a href="EngineDSL.html" target="_top" title="EngineDSL.html" xlink:actuate="onRequest" xlink:href="EngineDSL.html" xlink:show="new" xlink:title="EngineDSL.html" xlink:type="simple"><rect codeLine="17" fill="#FEFECE" filter="url(#f1cf5efxg4np4j)" height="86.4141" id="org.apache.wiki.api.spi.EngineDSL" style="stroke: #A80036; stroke-width: 1.5;" width="251" x="617.5" y="52.5"/><ellipse cx="705.75" cy="68.5" fill="#ADD1B2" rx="11" ry="11" style="stroke: #A80036; stroke-width: 1.0;"/><path d="M708.7188,74.1406 Q708.1406,74.4375 707.5,74.5781 Q706.8594,74.7344 706.1563,74.7344 Q703.6563,74.7344 702.3281,73.0938 Q701.0156,71.4375 701.0156,68.3125 Q701.0156,65.1875 702.3281,63.5313 Q703.6563,61.875 706.1563,61.875 Q706.8594,61.875 707.5,62.0313 Q708.1563,62.1875 708.7188,62.4844 L708.7188,65.2031 Q708.0938,64.625 707.5,64.3594 Q706.9063,64.0781 706.2813,64.0781 Q704.9375,64.0781 704.25,65.1563 Q703.5625,66.2188 703.5625,68.3125 Q703.5625,70.4063 704.25,71.4844 Q704.9375,72.5469 706.2813,72.5469 Q706.9063,72.5469 707.5,72.2813 Q708.0938,72 708.7188,71.4219 L708.7188,74.1406 Z "/><text fill="#000000" font-family="sans-serif" font-size="12" lengthAdjust="spacingAndGlyphs" textLength="66" x="726.25" y="72.6543">EngineDSL</text><line style="stroke: #A80036; stroke-width: 1.5;" x1="618.5" x2="867.5" y1="84.5" y2="84.5"/><line style="stroke: #A80036; stroke-width: 1.5;" x1="618.5" x2="867.5" y1="92.5" y2="92.5"/><ellipse cx="628.5" cy="103.5" fill="#84BE84" rx="3" ry="3" style="stroke: #038048; stroke-width: 1.0;"/><text fill="#000000" font-family="sans-serif" font-size="11" lengthAdjust="spacingAndGlyphs" textLength="151" x="637.5" y="106.7104">find(ServletConfig): Engine</text><ellipse cx="628.5" cy="116.3047" fill="#84BE84" rx="3" ry="3" style="stroke: #038048; stroke-width: 1.0;"/><text fill="#000000" font-family="sans-serif" font-size="11" lengthAdjust="spacingAndGlyphs" textLength="218" x="637.5" y="119.5151">find(ServletConfig, Properties): Engine</text><ellipse cx="628.5" cy="129.1094" fill="#84BE84" rx="3" ry="3" style="stroke: #038048; stroke-width: 1.0;"/><text fill="#000000" font-family="sans-serif" font-size="11" lengthAdjust="spacingAndGlyphs" textLength="225" x="637.5" y="132.3198">find(ServletContext, Properties): Engine</text></a><!--MD5=[3cc7a177362693a4101c4797076d4341]
class org.apache.wiki.api.spi.AclsSPI--><a href="AclsSPI.html" target="_top" title="AclsSPI.html" xlink:actuate="onRequest" xlink:href="AclsSPI.html" xlink:show="new" xlink:title="AclsSPI.html" xlink:type="simple"><rect codeLine="23" fill="#FEFECE" filter="url(#f1cf5efxg4np4j)" height="73.6094" id="org.apache.wiki.api.spi.AclsSPI" style="stroke: #A80036; stroke-width: 1.5;" width="119" x="903.5" y="58.5"/><ellipse cx="938.3" cy="74.5" fill="#B4A7E5" rx="11" ry="11" style="stroke: #A80036; stroke-width: 1.0;"/><path d="M934.2219,70.2656 L934.2219,68.1094 L941.6125,68.1094 L941.6125,70.2656 L939.1438,70.2656 L939.1438,78.3438 L941.6125,78.3438 L941.6125,80.5 L934.2219,80.5 L934.2219,78.3438 L936.6906,78.3438 L936.6906,70.2656 L934.2219,70.2656 Z "/><text fill="#000000" font-family="sans-serif" font-size="12" font-style="italic" lengthAdjust="spacingAndGlyphs" textLength="43" x="956.7" y="78.6543">AclsSPI</text><line style="stroke: #A80036; stroke-width: 1.5;" x1="904.5" x2="1021.5" y1="90.5" y2="90.5"/><line style="stroke: #A80036; stroke-width: 1.5;" x1="904.5" x2="1021.5" y1="98.5" y2="98.5"/><ellipse cx="914.5" cy="109.5" fill="#84BE84" rx="3" ry="3" style="stroke: #038048; stroke-width: 1.0;"/><text fill="#000000" font-family="sans-serif" font-size="11" font-style="italic" lengthAdjust="spacingAndGlyphs" textLength="49" x="923.5" y="112.7104">acl(): Acl</text><ellipse cx="914.5" cy="122.3047" fill="#84BE84" rx="3" ry="3" style="stroke: #038048; stroke-width: 1.0;"/><text fill="#000000" font-family="sans-serif" font-size="11" font-style="italic" lengthAdjust="spacingAndGlyphs" textLength="93" x="923.5" y="125.5151">entry(): AclEntry</text></a><!--MD5=[916de04e4ea74ab47624c6d7ee6ceead]
class org.apache.wiki.api.spi.SessionDSL--><a href="SessionDSL.html" target="_top" title="SessionDSL.html" xlink:actuate="onRequest" xlink:href="SessionDSL.html" xlink:show="new" xlink:title="SessionDSL.html" xlink:type="simple"><rect codeLine="28" fill="#FEFECE" filter="url(#f1cf5efxg4np4j)" height="86.4141" id="org.apache.wiki.api.spi.SessionDSL" style="stroke: #A80036; stroke-width: 1.5;" width="264" x="24" y="224.5"/><ellipse cx="115.75" cy="240.5" fill="#ADD1B2" rx="11" ry="11" style="stroke: #A80036; stroke-width: 1.0;"/><path d="M118.7188,246.1406 Q118.1406,246.4375 117.5,246.5781 Q116.8594,246.7344 116.1563,246.7344 Q113.6563,246.7344 112.3281,245.0938 Q111.0156,243.4375 111.0156,240.3125 Q111.0156,237.1875 112.3281,235.5313 Q113.6563,233.875 116.1563,233.875 Q116.8594,233.875 117.5,234.0313 Q118.1563,234.1875 118.7188,234.4844 L118.7188,237.2031 Q118.0938,236.625 117.5,236.3594 Q116.9063,236.0781 116.2813,236.0781 Q114.9375,236.0781 114.25,237.1563 Q113.5625,238.2188 113.5625,240.3125 Q113.5625,242.4063 114.25,243.4844 Q114.9375,244.5469 116.2813,244.5469 Q116.9063,244.5469 117.5,244.2813 Q118.0938,244 118.7188,243.4219 L118.7188,246.1406 Z "/><text fill="#000000" font-family="sans-serif" font-size="12" lengthAdjust="spacingAndGlyphs" textLength="72" x="136.25" y="244.6543">SessionDSL</text><line style="stroke: #A80036; stroke-width: 1.5;" x1="25" x2="287" y1="256.5" y2="256.5"/><line style="stroke: #A80036; stroke-width: 1.5;" x1="25" x2="287" y1="264.5" y2="264.5"/><ellipse cx="35" cy="275.5" fill="#84BE84" rx="3" ry="3" style="stroke: #038048; stroke-width: 1.0;"/><text fill="#000000" font-family="sans-serif" font-size="11" lengthAdjust="spacingAndGlyphs" textLength="237" x="44" y="278.7104">remove(Engine, HttpServletRequest): void</text><ellipse cx="35" cy="288.3047" fill="#84BE84" rx="3" ry="3" style="stroke: #038048; stroke-width: 1.0;"/><text fill="#000000" font-family="sans-serif" font-size="11" lengthAdjust="spacingAndGlyphs" textLength="238" x="44" y="291.5151">find(Engine, HttpServletRequest): Session</text><ellipse cx="35" cy="301.1094" fill="#84BE84" rx="3" ry="3" style="stroke: #038048; stroke-width: 1.0;"/><text fill="#000000" font-family="sans-serif" font-size="11" lengthAdjust="spacingAndGlyphs" textLength="132" x="44" y="304.3198">guest(Engine): Session</text></a><!--MD5=[72cef5af7c1e5c0a14454e3c188183b9]
class org.apache.wiki.api.spi.EngineSPI--><a href="EngineSPI.html" target="_top" title="EngineSPI.html" xlink:actuate="onRequest" xlink:href="EngineSPI.html" xlink:show="new" xlink:title="EngineSPI.html" xlink:type="simple"><rect codeLine="34" fill="#FEFECE" filter="url(#f1cf5efxg4np4j)" height="60.8047" id="org.apache.wiki.api.spi.EngineSPI" style="stroke: #A80036; stroke-width: 1.5;" width="251" x="323.5" y="237"/><ellipse cx="413.75" cy="253" fill="#B4A7E5" rx="11" ry="11" style="stroke: #A80036; stroke-width: 1.0;"/><path d="M409.6719,248.7656 L409.6719,246.6094 L417.0625,246.6094 L417.0625,248.7656 L414.5938,248.7656 L414.5938,256.8438 L417.0625,256.8438 L417.0625,259 L409.6719,259 L409.6719,256.8438 L412.1406,256.8438 L412.1406,248.7656 L409.6719,248.7656 Z "/><text fill="#000000" font-family="sans-serif" font-size="12" font-style="italic" lengthAdjust="spacingAndGlyphs" textLength="62" x="434.25" y="257.1543">EngineSPI</text><line style="stroke: #A80036; stroke-width: 1.5;" x1="324.5" x2="573.5" y1="269" y2="269"/><line style="stroke: #A80036; stroke-width: 1.5;" x1="324.5" x2="573.5" y1="277" y2="277"/><ellipse cx="334.5" cy="288" fill="#84BE84" rx="3" ry="3" style="stroke: #038048; stroke-width: 1.0;"/><text fill="#000000" font-family="sans-serif" font-size="11" font-style="italic" lengthAdjust="spacingAndGlyphs" textLength="225" x="343.5" y="291.2104">find(ServletContext, Properties): Engine</text></a><!--MD5=[2ecf9bf15dd5696f1e4971959ac07095]
class org.apache.wiki.api.spi.ContextDSL--><a href="ContextDSL.html" target="_top" title="ContextDSL.html" xlink:actuate="onRequest" xlink:href="ContextDSL.html" xlink:show="new" xlink:title="ContextDSL.html" xlink:type="simple"><rect codeLine="38" fill="#FEFECE" filter="url(#f1cf5efxg4np4j)" height="99.2188" id="org.apache.wiki.api.spi.ContextDSL" style="stroke: #A80036; stroke-width: 1.5;" width="342" x="610" y="218"/><ellipse cx="741.25" cy="234" fill="#ADD1B2" rx="11" ry="11" style="stroke: #A80036; stroke-width: 1.0;"/><path d="M744.2188,239.6406 Q743.6406,239.9375 743,240.0781 Q742.3594,240.2344 741.6563,240.2344 Q739.1563,240.2344 737.8281,238.5938 Q736.5156,236.9375 736.5156,233.8125 Q736.5156,230.6875 737.8281,229.0313 Q739.1563,227.375 741.6563,227.375 Q742.3594,227.375 743,227.5313 Q743.6563,227.6875 744.2188,227.9844 L744.2188,230.7031 Q743.5938,230.125 743,229.8594 Q742.4063,229.5781 741.7813,229.5781 Q740.4375,229.5781 739.75,230.6563 Q739.0625,231.7188 739.0625,233.8125 Q739.0625,235.9063 739.75,236.9844 Q740.4375,238.0469 741.7813,238.0469 Q742.4063,238.0469 743,237.7813 Q743.5938,237.5 744.2188,236.9219 L744.2188,239.6406 Z "/><text fill="#000000" font-family="sans-serif" font-size="12" lengthAdjust="spacingAndGlyphs" textLength="71" x="761.75" y="238.1543">ContextDSL</text><line style="stroke: #A80036; stroke-width: 1.5;" x1="611" x2="951" y1="250" y2="250"/><line style="stroke: #A80036; stroke-width: 1.5;" x1="611" x2="951" y1="258" y2="258"/><ellipse cx="621" cy="269" fill="#84BE84" rx="3" ry="3" style="stroke: #038048; stroke-width: 1.0;"/><text fill="#000000" font-family="sans-serif" font-size="11" lengthAdjust="spacingAndGlyphs" textLength="169" x="630" y="272.2104">create(Engine, Page): Context</text><ellipse cx="621" cy="281.8047" fill="#84BE84" rx="3" ry="3" style="stroke: #038048; stroke-width: 1.0;"/><text fill="#000000" font-family="sans-serif" font-size="11" lengthAdjust="spacingAndGlyphs" textLength="316" x="630" y="285.0151">create(Engine, HttpServletRequest, Command): Context</text><ellipse cx="621" cy="294.6094" fill="#84BE84" rx="3" ry="3" style="stroke: #038048; stroke-width: 1.0;"/><text fill="#000000" font-family="sans-serif" font-size="11" lengthAdjust="spacingAndGlyphs" textLength="286" x="630" y="297.8198">create(Engine, HttpServletRequest, Page): Context</text><ellipse cx="621" cy="307.4141" fill="#84BE84" rx="3" ry="3" style="stroke: #038048; stroke-width: 1.0;"/><text fill="#000000" font-family="sans-serif" font-size="11" lengthAdjust="spacingAndGlyphs" textLength="292" x="630" y="310.6245">create(Engine, HttpServletRequest, String): Context</text></a><!--MD5=[13154259000ca19ba8a300a9ef212a04]
class org.apache.wiki.api.spi.AclsDSL--><a href="AclsDSL.html" target="_top" title="AclsDSL.html" xlink:actuate="onRequest" xlink:href="AclsDSL.html" xlink:show="new" xlink:title="AclsDSL.html" xlink:type="simple"><rect codeLine="45" fill="#FEFECE" filter="url(#f1cf5efxg4np4j)" height="73.6094" id="org.apache.wiki.api.spi.AclsDSL" style="stroke: #A80036; stroke-width: 1.5;" width="116" x="987" y="230.5"/><ellipse cx="1018.2" cy="246.5" fill="#ADD1B2" rx="11" ry="11" style="stroke: #A80036; stroke-width: 1.0;"/><path d="M1021.1688,252.1406 Q1020.5906,252.4375 1019.95,252.5781 Q1019.3094,252.7344 1018.6063,252.7344 Q1016.1063,252.7344 1014.7781,251.0938 Q1013.4656,249.4375 1013.4656,246.3125 Q1013.4656,243.1875 1014.7781,241.5313 Q1016.1063,239.875 1018.6063,239.875 Q1019.3094,239.875 1019.95,240.0313 Q1020.6063,240.1875 1021.1688,240.4844 L1021.1688,243.2031 Q1020.5438,242.625 1019.95,242.3594 Q1019.3563,242.0781 1018.7313,242.0781 Q1017.3875,242.0781 1016.7,243.1563 Q1016.0125,244.2188 1016.0125,246.3125 Q1016.0125,248.4063 1016.7,249.4844 Q1017.3875,250.5469 1018.7313,250.5469 Q1019.3563,250.5469 1019.95,250.2813 Q1020.5438,250 1021.1688,249.4219 L1021.1688,252.1406 Z "/><text fill="#000000" font-family="sans-serif" font-size="12" lengthAdjust="spacingAndGlyphs" textLength="48" x="1035.8" y="250.6543">AclsDSL</text><line style="stroke: #A80036; stroke-width: 1.5;" x1="988" x2="1102" y1="262.5" y2="262.5"/><line style="stroke: #A80036; stroke-width: 1.5;" x1="988" x2="1102" y1="270.5" y2="270.5"/><ellipse cx="998" cy="281.5" fill="#84BE84" rx="3" ry="3" style="stroke: #038048; stroke-width: 1.0;"/><text fill="#000000" font-family="sans-serif" font-size="11" lengthAdjust="spacingAndGlyphs" textLength="48" x="1007" y="284.7104">acl(): Acl</text><ellipse cx="998" cy="294.3047" fill="#84BE84" rx="3" ry="3" style="stroke: #038048; stroke-width: 1.0;"/><text fill="#000000" font-family="sans-serif" font-size="11" lengthAdjust="spacingAndGlyphs" textLength="90" x="1007" y="297.5151">entry(): AclEntry</text></a><!--MD5=[f94607c025d7165374977c722d2704ab]
class org.apache.wiki.api.spi.ContextSPI--><a href="ContextSPI.html" target="_top" title="ContextSPI.html" xlink:actuate="onRequest" xlink:href="ContextSPI.html" xlink:show="new" xlink:title="ContextSPI.html" xlink:type="simple"><rect codeLine="50" fill="#FEFECE" filter="url(#f1cf5efxg4np4j)" height="99.2188" id="org.apache.wiki.api.spi.ContextSPI" style="stroke: #A80036; stroke-width: 1.5;" width="343" x="23.5" y="377"/><ellipse cx="156.75" cy="393" fill="#B4A7E5" rx="11" ry="11" style="stroke: #A80036; stroke-width: 1.0;"/><path d="M152.6719,388.7656 L152.6719,386.6094 L160.0625,386.6094 L160.0625,388.7656 L157.5938,388.7656 L157.5938,396.8438 L160.0625,396.8438 L160.0625,399 L152.6719,399 L152.6719,396.8438 L155.1406,396.8438 L155.1406,388.7656 L152.6719,388.7656 Z "/><text fill="#000000" font-family="sans-serif" font-size="12" font-style="italic" lengthAdjust="spacingAndGlyphs" textLength="68" x="177.25" y="397.1543">ContextSPI</text><line style="stroke: #A80036; stroke-width: 1.5;" x1="24.5" x2="365.5" y1="409" y2="409"/><line style="stroke: #A80036; stroke-width: 1.5;" x1="24.5" x2="365.5" y1="417" y2="417"/><ellipse cx="34.5" cy="428" fill="#84BE84" rx="3" ry="3" style="stroke: #038048; stroke-width: 1.0;"/><text fill="#000000" font-family="sans-serif" font-size="11" font-style="italic" lengthAdjust="spacingAndGlyphs" textLength="170" x="43.5" y="431.2104">create(Engine, Page): Context</text><ellipse cx="34.5" cy="440.8047" fill="#84BE84" rx="3" ry="3" style="stroke: #038048; stroke-width: 1.0;"/><text fill="#000000" font-family="sans-serif" font-size="11" font-style="italic" lengthAdjust="spacingAndGlyphs" textLength="317" x="43.5" y="444.0151">create(Engine, HttpServletRequest, Command): Context</text><ellipse cx="34.5" cy="453.6094" fill="#84BE84" rx="3" ry="3" style="stroke: #038048; stroke-width: 1.0;"/><text fill="#000000" font-family="sans-serif" font-size="11" font-style="italic" lengthAdjust="spacingAndGlyphs" textLength="287" x="43.5" y="456.8198">create(Engine, HttpServletRequest, Page): Context</text><ellipse cx="34.5" cy="466.4141" fill="#84BE84" rx="3" ry="3" style="stroke: #038048; stroke-width: 1.0;"/><text fill="#000000" font-family="sans-serif" font-size="11" font-style="italic" lengthAdjust="spacingAndGlyphs" textLength="292" x="43.5" y="469.6245">create(Engine, HttpServletRequest, String): Context</text></a><!--MD5=[52c031eca9d14e414123c0f3a82f168a]
class org.apache.wiki.api.spi.SessionSPI--><a href="SessionSPI.html" target="_top" title="SessionSPI.html" xlink:actuate="onRequest" xlink:href="SessionSPI.html" xlink:show="new" xlink:title="SessionSPI.html" xlink:type="simple"><rect codeLine="57" fill="#FEFECE" filter="url(#f1cf5efxg4np4j)" height="86.4141" id="org.apache.wiki.api.spi.SessionSPI" style="stroke: #A80036; stroke-width: 1.5;" width="265" x="401.5" y="383.5"/><ellipse cx="496.75" cy="399.5" fill="#B4A7E5" rx="11" ry="11" style="stroke: #A80036; stroke-width: 1.0;"/><path d="M492.6719,395.2656 L492.6719,393.1094 L500.0625,393.1094 L500.0625,395.2656 L497.5938,395.2656 L497.5938,403.3438 L500.0625,403.3438 L500.0625,405.5 L492.6719,405.5 L492.6719,403.3438 L495.1406,403.3438 L495.1406,395.2656 L492.6719,395.2656 Z "/><text fill="#000000" font-family="sans-serif" font-size="12" font-style="italic" lengthAdjust="spacingAndGlyphs" textLength="66" x="517.25" y="403.6543">SessionSPI</text><line style="stroke: #A80036; stroke-width: 1.5;" x1="402.5" x2="665.5" y1="415.5" y2="415.5"/><line style="stroke: #A80036; stroke-width: 1.5;" x1="402.5" x2="665.5" y1="423.5" y2="423.5"/><ellipse cx="412.5" cy="434.5" fill="#84BE84" rx="3" ry="3" style="stroke: #038048; stroke-width: 1.0;"/><text fill="#000000" font-family="sans-serif" font-size="11" font-style="italic" lengthAdjust="spacingAndGlyphs" textLength="239" x="421.5" y="437.7104">remove(Engine, HttpServletRequest): void</text><ellipse cx="412.5" cy="447.3047" fill="#84BE84" rx="3" ry="3" style="stroke: #038048; stroke-width: 1.0;"/><text fill="#000000" font-family="sans-serif" font-size="11" font-style="italic" lengthAdjust="spacingAndGlyphs" textLength="235" x="421.5" y="450.5151">find(Engine, HttpServletRequest): Session</text><ellipse cx="412.5" cy="460.1094" fill="#84BE84" rx="3" ry="3" style="stroke: #038048; stroke-width: 1.0;"/><text fill="#000000" font-family="sans-serif" font-size="11" font-style="italic" lengthAdjust="spacingAndGlyphs" textLength="128" x="421.5" y="463.3198">guest(Engine): Session</text></a><!--MD5=[1a63e549a6f9e10ef624e76ecedcdbec]
class org.apache.wiki.api.spi.ContentsDSL--><a href="ContentsDSL.html" target="_top" title="ContentsDSL.html" xlink:actuate="onRequest" xlink:href="ContentsDSL.html" xlink:show="new" xlink:title="ContentsDSL.html" xlink:type="simple"><rect codeLine="63" fill="#FEFECE" filter="url(#f1cf5efxg4np4j)" height="73.6094" id="org.apache.wiki.api.spi.ContentsDSL" style="stroke: #A80036; stroke-width: 1.5;" width="292" x="702" y="389.5"/><ellipse cx="803.75" cy="405.5" fill="#ADD1B2" rx="11" ry="11" style="stroke: #A80036; stroke-width: 1.0;"/><path d="M806.7188,411.1406 Q806.1406,411.4375 805.5,411.5781 Q804.8594,411.7344 804.1563,411.7344 Q801.6563,411.7344 800.3281,410.0938 Q799.0156,408.4375 799.0156,405.3125 Q799.0156,402.1875 800.3281,400.5313 Q801.6563,398.875 804.1563,398.875 Q804.8594,398.875 805.5,399.0313 Q806.1563,399.1875 806.7188,399.4844 L806.7188,402.2031 Q806.0938,401.625 805.5,401.3594 Q804.9063,401.0781 804.2813,401.0781 Q802.9375,401.0781 802.25,402.1563 Q801.5625,403.2188 801.5625,405.3125 Q801.5625,407.4063 802.25,408.4844 Q802.9375,409.5469 804.2813,409.5469 Q804.9063,409.5469 805.5,409.2813 Q806.0938,409 806.7188,408.4219 L806.7188,411.1406 Z "/><text fill="#000000" font-family="sans-serif" font-size="12" lengthAdjust="spacingAndGlyphs" textLength="80" x="824.25" y="409.6543">ContentsDSL</text><line style="stroke: #A80036; stroke-width: 1.5;" x1="703" x2="993" y1="421.5" y2="421.5"/><line style="stroke: #A80036; stroke-width: 1.5;" x1="703" x2="993" y1="429.5" y2="429.5"/><ellipse cx="713" cy="440.5" fill="#84BE84" rx="3" ry="3" style="stroke: #038048; stroke-width: 1.0;"/><text fill="#000000" font-family="sans-serif" font-size="11" lengthAdjust="spacingAndGlyphs" textLength="266" x="722" y="443.7104">attachment(Engine, String, String): Attachment</text><ellipse cx="713" cy="453.3047" fill="#84BE84" rx="3" ry="3" style="stroke: #038048; stroke-width: 1.0;"/><text fill="#000000" font-family="sans-serif" font-size="11" lengthAdjust="spacingAndGlyphs" textLength="152" x="722" y="456.5151">page(Engine, String): Page</text></a><!--MD5=[f0b6a952842ff97a58823c3cec45a924]
link org.apache.wiki.api.spi.Wiki to org.apache.wiki.api.spi.ContentsSPI--><!--MD5=[2634b5f17be1412d9c99f21cb07f8281]
link org.apache.wiki.api.spi.ContentsSPI to org.apache.wiki.api.spi.EngineDSL--><!--MD5=[0bdf7ffc88c0c2e0c9701eb70cc91e77]
link org.apache.wiki.api.spi.EngineDSL to org.apache.wiki.api.spi.AclsSPI--><!--MD5=[4051c763b044103c92722ec94d1e8e94]
link org.apache.wiki.api.spi.Wiki to org.apache.wiki.api.spi.SessionDSL--><!--MD5=[94c485e86e10fd2f6e708c85a66b57ba]
link org.apache.wiki.api.spi.SessionDSL to org.apache.wiki.api.spi.EngineSPI--><!--MD5=[48890f75d47615ed112f3b0cc99ef621]
link org.apache.wiki.api.spi.EngineSPI to org.apache.wiki.api.spi.ContextDSL--><!--MD5=[f08f53d6a994d28c8af6005d6df579df]
link org.apache.wiki.api.spi.ContextDSL to org.apache.wiki.api.spi.AclsDSL--><!--MD5=[b7209516878ad8f11e7f433f6f0e5e6d]
link org.apache.wiki.api.spi.SessionDSL to org.apache.wiki.api.spi.ContextSPI--><!--MD5=[d57a641e9e4643629549c46e109a8eec]
link org.apache.wiki.api.spi.ContextSPI to org.apache.wiki.api.spi.SessionSPI--><!--MD5=[c5588d9fe0594c3af8b03fc08313ffb9]
link org.apache.wiki.api.spi.SessionSPI to org.apache.wiki.api.spi.ContentsDSL--><text fill="#888888" font-family="sans-serif" font-size="10" lengthAdjust="spacingAndGlyphs" textLength="192" x="461.5" y="499.2822">UMLDoclet 2.0.12, PlantUML 1.2020.16</text><!--MD5=[7743aa05bbfe42bfd10856da8356d5e1]
@startuml
    namespace org.apache.wiki.api.spi {

        class Wiki [[Wiki.html]] {
            {static} +init(ServletContext): Properties
            {static} +acls(): AclsDSL
            {static} +contents(): ContentsDSL
            {static} +context(): ContextDSL
            {static} +engine(): EngineDSL
            {static} +session(): SessionDSL
        }

        interface ContentsSPI [[ContentsSPI.html]] {
            {abstract} +attachment(Engine, String, String): Attachment
            {abstract} +page(Engine, String): Page
        }

        class EngineDSL [[EngineDSL.html]] {
            +find(ServletConfig): Engine
            +find(ServletConfig, Properties): Engine
            +find(ServletContext, Properties): Engine
        }

        interface AclsSPI [[AclsSPI.html]] {
            {abstract} +acl(): Acl
            {abstract} +entry(): AclEntry
        }

        class SessionDSL [[SessionDSL.html]] {
            +remove(Engine, HttpServletRequest): void
            +find(Engine, HttpServletRequest): Session
            +guest(Engine): Session
        }

        interface EngineSPI [[EngineSPI.html]] {
            {abstract} +find(ServletContext, Properties): Engine
        }

        class ContextDSL [[ContextDSL.html]] {
            +create(Engine, Page): Context
            +create(Engine, HttpServletRequest, Command): Context
            +create(Engine, HttpServletRequest, Page): Context
            +create(Engine, HttpServletRequest, String): Context
        }

        class AclsDSL [[AclsDSL.html]] {
            +acl(): Acl
            +entry(): AclEntry
        }

        interface ContextSPI [[ContextSPI.html]] {
            {abstract} +create(Engine, Page): Context
            {abstract} +create(Engine, HttpServletRequest, Command): Context
            {abstract} +create(Engine, HttpServletRequest, Page): Context
            {abstract} +create(Engine, HttpServletRequest, String): Context
        }

        interface SessionSPI [[SessionSPI.html]] {
            {abstract} +remove(Engine, HttpServletRequest): void
            {abstract} +find(Engine, HttpServletRequest): Session
            {abstract} +guest(Engine): Session
        }

        class ContentsDSL [[ContentsDSL.html]] {
            +attachment(Engine, String, String): Attachment
            +page(Engine, String): Page
        }

    }

    center footer UMLDoclet 2.0.12, PlantUML 1.2020.16
@enduml

PlantUML version 1.2020.16(Sun Aug 23 20:20:43 UTC 2020)
(APACHE source distribution)
Java Runtime: Java(TM) SE Runtime Environment
JVM: Java HotSpot(TM) 64-Bit Server VM
Default Encoding: ISO-8859-1
Language: en
Country: US
--></g></svg>