<?xml version="1.0" encoding="UTF-8" standalone="no"?><svg xmlns="http://www.w3.org/2000/svg" xmlns:xlink="http://www.w3.org/1999/xlink" contentScriptType="application/ecmascript" contentStyleType="text/css" height="443px" preserveAspectRatio="none" style="width:2327px;height:443px;background:#FFFFFF;" version="1.1" viewBox="0 0 2327 443" width="2327px" zoomAndPan="magnify"><defs><filter height="300%" id="f1g7e0hmjkfzfa" width="300%" x="-1" y="-1"><feGaussianBlur result="blurOut" stdDeviation="2.0"/><feColorMatrix in="blurOut" result="blurOut2" type="matrix" values="0 0 0 0 0 0 0 0 0 0 0 0 0 0 0 0 0 0 .4 0"/><feOffset dx="4.0" dy="4.0" in="blurOut2" result="blurOut3"/><feBlend in="SourceGraphic" in2="blurOut3" mode="normal"/></filter></defs><g><!--MD5=[c418d6b7a5dbbec883ff2338cca840ff]
cluster org.apache.wiki.auth.permissions--><polygon fill="#FFFFFF" filter="url(#f1g7e0hmjkfzfa)" points="16,158,288,158,295,180.2969,2310,180.2969,2310,420,16,420,16,158" style="stroke:#000000;stroke-width:1.5;"/><line style="stroke:#000000;stroke-width:1.5;" x1="16" x2="295" y1="180.2969" y2="180.2969"/><text fill="#000000" font-family="sans-serif" font-size="14" font-weight="bold" lengthAdjust="spacing" textLength="266" x="20" y="172.9951">org.apache.wiki.auth.permissions</text><!--MD5=[67892945c51b45dfa1cd11fc454571f7]
cluster java.security--><polygon fill="#FFFFFF" filter="url(#f1g7e0hmjkfzfa)" points="1007,6,1113,6,1120,28.2969,1494,28.2969,1494,127,1007,127,1007,6" style="stroke:#000000;stroke-width:1.5;"/><line style="stroke:#000000;stroke-width:1.5;" x1="1007" x2="1120" y1="28.2969" y2="28.2969"/><text fill="#000000" font-family="sans-serif" font-size="14" font-weight="bold" lengthAdjust="spacing" textLength="100" x="1011" y="20.9951">java.security</text><!--MD5=[0d852700fdad35b7061d461d6907a324]
cluster java.io--><polygon fill="#FFFFFF" filter="url(#f1g7e0hmjkfzfa)" points="1584,25,1640,25,1647,47.2969,1704,47.2969,1704,108,1584,108,1584,25" style="stroke:#000000;stroke-width:1.5;"/><line style="stroke:#000000;stroke-width:1.5;" x1="1584" x2="1647" y1="47.2969" y2="47.2969"/><text fill="#000000" font-family="sans-serif" font-size="14" font-weight="bold" lengthAdjust="spacing" textLength="50" x="1588" y="39.9951">java.io</text><!--MD5=[7a2e4b7cb3381e6eec1962ce1fdc6335]
class org.apache.wiki.auth.permissions.WikiPermission--><a href="WikiPermission.html" target="_top" title="WikiPermission.html" xlink:actuate="onRequest" xlink:href="WikiPermission.html" xlink:show="new" xlink:title="WikiPermission.html" xlink:type="simple"><rect codeLine="3" fill="#FEFECE" filter="url(#f1g7e0hmjkfzfa)" height="188.8516" id="org.apache.wiki.auth.permissions.WikiPermission" style="stroke:#A80036;stroke-width:1.5;" width="303" x="346.5" y="204"/><ellipse cx="447.75" cy="220" fill="#ADD1B2" rx="11" ry="11" style="stroke:#A80036;stroke-width:1.0;"/><path d="M450.7188,225.6406 Q450.1406,225.9375 449.5,226.0781 Q448.8594,226.2344 448.1563,226.2344 Q445.6563,226.2344 444.3281,224.5938 Q443.0156,222.9375 443.0156,219.8125 Q443.0156,216.6875 444.3281,215.0313 Q445.6563,213.375 448.1563,213.375 Q448.8594,213.375 449.5,213.5313 Q450.1563,213.6875 450.7188,213.9844 L450.7188,216.7031 Q450.0938,216.125 449.5,215.8594 Q448.9063,215.5781 448.2813,215.5781 Q446.9375,215.5781 446.25,216.6563 Q445.5625,217.7188 445.5625,219.8125 Q445.5625,221.9063 446.25,222.9844 Q446.9375,224.0469 448.2813,224.0469 Q448.9063,224.0469 449.5,223.7813 Q450.0938,223.5 450.7188,222.9219 L450.7188,225.6406 Z " fill="#000000"/><text fill="#000000" font-family="sans-serif" font-size="12" lengthAdjust="spacing" textLength="92" x="468.25" y="224.1543">WikiPermission</text><line style="stroke:#A80036;stroke-width:1.5;" x1="347.5" x2="648.5" y1="236" y2="236"/><ellipse cx="357.5" cy="247" rx="3" ry="3" style="stroke:#038048;stroke-width:1.0;fill:none;"/><text fill="#000000" font-family="sans-serif" font-size="11" lengthAdjust="spacing" text-decoration="underline" textLength="187" x="366.5" y="250.2104">CREATE_GROUPS_ACTION: String</text><ellipse cx="357.5" cy="259.8047" rx="3" ry="3" style="stroke:#038048;stroke-width:1.0;fill:none;"/><text fill="#000000" font-family="sans-serif" font-size="11" lengthAdjust="spacing" text-decoration="underline" textLength="177" x="366.5" y="263.0151">CREATE_PAGES_ACTION: String</text><ellipse cx="357.5" cy="272.6094" rx="3" ry="3" style="stroke:#038048;stroke-width:1.0;fill:none;"/><text fill="#000000" font-family="sans-serif" font-size="11" lengthAdjust="spacing" text-decoration="underline" textLength="125" x="366.5" y="275.8198">LOGIN_ACTION: String</text><ellipse cx="357.5" cy="285.4141" rx="3" ry="3" style="stroke:#038048;stroke-width:1.0;fill:none;"/><text fill="#000000" font-family="sans-serif" font-size="11" lengthAdjust="spacing" text-decoration="underline" textLength="200" x="366.5" y="288.6245">EDIT_PREFERENCES_ACTION: String</text><ellipse cx="357.5" cy="298.2188" rx="3" ry="3" style="stroke:#038048;stroke-width:1.0;fill:none;"/><text fill="#000000" font-family="sans-serif" font-size="11" lengthAdjust="spacing" text-decoration="underline" textLength="166" x="366.5" y="301.4292">EDIT_PROFILE_ACTION: String</text><ellipse cx="357.5" cy="311.0234" rx="3" ry="3" style="stroke:#038048;stroke-width:1.0;fill:none;"/><text fill="#000000" font-family="sans-serif" font-size="11" lengthAdjust="spacing" text-decoration="underline" textLength="98" x="366.5" y="314.2339">WILDCARD: String</text><line style="stroke:#A80036;stroke-width:1.5;" x1="347.5" x2="648.5" y1="320.8281" y2="320.8281"/><ellipse cx="357.5" cy="331.8281" fill="#84BE84" rx="3" ry="3" style="stroke:#038048;stroke-width:1.0;"/><text fill="#000000" font-family="sans-serif" font-size="11" lengthAdjust="spacing" textLength="169" x="366.5" y="335.0386">WikiPermission(String, String)</text><ellipse cx="357.5" cy="344.6328" fill="#84BE84" rx="3" ry="3" style="stroke:#038048;stroke-width:1.0;"/><text fill="#000000" font-family="sans-serif" font-size="11" lengthAdjust="spacing" textLength="109" x="366.5" y="347.8433">getActions(): String</text><ellipse cx="357.5" cy="357.4375" fill="#84BE84" rx="3" ry="3" style="stroke:#038048;stroke-width:1.0;"/><text fill="#000000" font-family="sans-serif" font-size="11" lengthAdjust="spacing" textLength="89" x="366.5" y="360.6479">getWiki(): String</text><ellipse cx="357.5" cy="370.2422" fill="#84BE84" rx="3" ry="3" style="stroke:#038048;stroke-width:1.0;"/><text fill="#000000" font-family="sans-serif" font-size="11" lengthAdjust="spacing" textLength="166" x="366.5" y="373.4526">implies(Permission): boolean</text><ellipse cx="357.5" cy="383.0469" fill="#84BE84" rx="3" ry="3" style="stroke:#038048;stroke-width:1.0;"/><text fill="#000000" font-family="sans-serif" font-size="11" lengthAdjust="spacing" textLength="277" x="366.5" y="386.2573">newPermissionCollection(): PermissionCollection</text></a><!--MD5=[e0f477eb916859a8de6f36b1caf1ed96]
class org.apache.wiki.auth.permissions.GroupPermission--><a href="GroupPermission.html" target="_top" title="GroupPermission.html" xlink:actuate="onRequest" xlink:href="GroupPermission.html" xlink:show="new" xlink:title="GroupPermission.html" xlink:type="simple"><rect codeLine="17" fill="#FEFECE" filter="url(#f1g7e0hmjkfzfa)" height="163.2422" id="org.apache.wiki.auth.permissions.GroupPermission" style="stroke:#A80036;stroke-width:1.5;" width="209" x="24.5" y="217"/><ellipse cx="71.75" cy="233" fill="#ADD1B2" rx="11" ry="11" style="stroke:#A80036;stroke-width:1.0;"/><path d="M74.7188,238.6406 Q74.1406,238.9375 73.5,239.0781 Q72.8594,239.2344 72.1563,239.2344 Q69.6563,239.2344 68.3281,237.5938 Q67.0156,235.9375 67.0156,232.8125 Q67.0156,229.6875 68.3281,228.0313 Q69.6563,226.375 72.1563,226.375 Q72.8594,226.375 73.5,226.5313 Q74.1563,226.6875 74.7188,226.9844 L74.7188,229.7031 Q74.0938,229.125 73.5,228.8594 Q72.9063,228.5781 72.2813,228.5781 Q70.9375,228.5781 70.25,229.6563 Q69.5625,230.7188 69.5625,232.8125 Q69.5625,234.9063 70.25,235.9844 Q70.9375,237.0469 72.2813,237.0469 Q72.9063,237.0469 73.5,236.7813 Q74.0938,236.5 74.7188,235.9219 L74.7188,238.6406 Z " fill="#000000"/><text fill="#000000" font-family="sans-serif" font-size="12" lengthAdjust="spacing" textLength="106" x="92.25" y="237.1543">GroupPermission</text><line style="stroke:#A80036;stroke-width:1.5;" x1="25.5" x2="232.5" y1="249" y2="249"/><ellipse cx="35.5" cy="260" rx="3" ry="3" style="stroke:#038048;stroke-width:1.0;fill:none;"/><text fill="#000000" font-family="sans-serif" font-size="11" lengthAdjust="spacing" text-decoration="underline" textLength="133" x="44.5" y="263.2104">MEMBER_TOKEN: String</text><ellipse cx="35.5" cy="272.8047" rx="3" ry="3" style="stroke:#038048;stroke-width:1.0;fill:none;"/><text fill="#000000" font-family="sans-serif" font-size="11" lengthAdjust="spacing" text-decoration="underline" textLength="132" x="44.5" y="276.0151">DELETE_ACTION: String</text><ellipse cx="35.5" cy="285.6094" rx="3" ry="3" style="stroke:#038048;stroke-width:1.0;fill:none;"/><text fill="#000000" font-family="sans-serif" font-size="11" lengthAdjust="spacing" text-decoration="underline" textLength="115" x="44.5" y="288.8198">EDIT_ACTION: String</text><ellipse cx="35.5" cy="298.4141" rx="3" ry="3" style="stroke:#038048;stroke-width:1.0;fill:none;"/><text fill="#000000" font-family="sans-serif" font-size="11" lengthAdjust="spacing" text-decoration="underline" textLength="116" x="44.5" y="301.6245">VIEW_ACTION: String</text><line style="stroke:#A80036;stroke-width:1.5;" x1="25.5" x2="232.5" y1="308.2188" y2="308.2188"/><ellipse cx="35.5" cy="319.2188" fill="#84BE84" rx="3" ry="3" style="stroke:#038048;stroke-width:1.0;"/><text fill="#000000" font-family="sans-serif" font-size="11" lengthAdjust="spacing" textLength="183" x="44.5" y="322.4292">GroupPermission(String, String)</text><ellipse cx="35.5" cy="332.0234" fill="#84BE84" rx="3" ry="3" style="stroke:#038048;stroke-width:1.0;"/><text fill="#000000" font-family="sans-serif" font-size="11" lengthAdjust="spacing" textLength="109" x="44.5" y="335.2339">getActions(): String</text><ellipse cx="35.5" cy="344.8281" fill="#84BE84" rx="3" ry="3" style="stroke:#038048;stroke-width:1.0;"/><text fill="#000000" font-family="sans-serif" font-size="11" lengthAdjust="spacing" textLength="103" x="44.5" y="348.0386">getGroup(): String</text><ellipse cx="35.5" cy="357.6328" fill="#84BE84" rx="3" ry="3" style="stroke:#038048;stroke-width:1.0;"/><text fill="#000000" font-family="sans-serif" font-size="11" lengthAdjust="spacing" textLength="89" x="44.5" y="360.8433">getWiki(): String</text><ellipse cx="35.5" cy="370.4375" fill="#84BE84" rx="3" ry="3" style="stroke:#038048;stroke-width:1.0;"/><text fill="#000000" font-family="sans-serif" font-size="11" lengthAdjust="spacing" textLength="166" x="44.5" y="373.6479">implies(Permission): boolean</text></a><!--MD5=[375413c78504bcf3d280c28699310a8b]
class org.apache.wiki.auth.permissions.AllPermissionCollection--><a href="AllPermissionCollection.html" target="_top" title="AllPermissionCollection.html" xlink:actuate="onRequest" xlink:href="AllPermissionCollection.html" xlink:show="new" xlink:title="AllPermissionCollection.html" xlink:type="simple"><rect codeLine="29" fill="#FEFECE" filter="url(#f1g7e0hmjkfzfa)" height="124.8281" id="org.apache.wiki.auth.permissions.AllPermissionCollection" style="stroke:#A80036;stroke-width:1.5;" width="333" x="1196.5" y="236"/><ellipse cx="1287.25" cy="252" fill="#ADD1B2" rx="11" ry="11" style="stroke:#A80036;stroke-width:1.0;"/><path d="M1290.2188,257.6406 Q1289.6406,257.9375 1289,258.0781 Q1288.3594,258.2344 1287.6563,258.2344 Q1285.1563,258.2344 1283.8281,256.5938 Q1282.5156,254.9375 1282.5156,251.8125 Q1282.5156,248.6875 1283.8281,247.0313 Q1285.1563,245.375 1287.6563,245.375 Q1288.3594,245.375 1289,245.5313 Q1289.6563,245.6875 1290.2188,245.9844 L1290.2188,248.7031 Q1289.5938,248.125 1289,247.8594 Q1288.4063,247.5781 1287.7813,247.5781 Q1286.4375,247.5781 1285.75,248.6563 Q1285.0625,249.7188 1285.0625,251.8125 Q1285.0625,253.9063 1285.75,254.9844 Q1286.4375,256.0469 1287.7813,256.0469 Q1288.4063,256.0469 1289,255.7813 Q1289.5938,255.5 1290.2188,254.9219 L1290.2188,257.6406 Z " fill="#000000"/><text fill="#000000" font-family="sans-serif" font-size="12" lengthAdjust="spacing" textLength="143" x="1307.75" y="256.1543">AllPermissionCollection</text><line style="stroke:#A80036;stroke-width:1.5;" x1="1197.5" x2="1528.5" y1="268" y2="268"/><polygon fill="none" points="1207.5,274,1211.5,278,1207.5,282,1203.5,278" style="stroke:#B38D22;stroke-width:1.0;"/><text fill="#000000" font-family="sans-serif" font-size="11" lengthAdjust="spacing" textLength="307" x="1216.5" y="282.2104">m_permissions: Hashtable&lt;Permission, Permission&gt;</text><line style="stroke:#A80036;stroke-width:1.5;" x1="1197.5" x2="1528.5" y1="288.8047" y2="288.8047"/><ellipse cx="1207.5" cy="299.8047" fill="#84BE84" rx="3" ry="3" style="stroke:#038048;stroke-width:1.0;"/><text fill="#000000" font-family="sans-serif" font-size="11" lengthAdjust="spacing" textLength="124" x="1216.5" y="303.0151">add(Permission): void</text><ellipse cx="1207.5" cy="312.6094" fill="#84BE84" rx="3" ry="3" style="stroke:#038048;stroke-width:1.0;"/><text fill="#000000" font-family="sans-serif" font-size="11" lengthAdjust="spacing" textLength="223" x="1216.5" y="315.8198">elements(): Enumeration&lt;Permission&gt;</text><ellipse cx="1207.5" cy="325.4141" fill="#84BE84" rx="3" ry="3" style="stroke:#038048;stroke-width:1.0;"/><text fill="#000000" font-family="sans-serif" font-size="11" lengthAdjust="spacing" textLength="166" x="1216.5" y="328.6245">implies(Permission): boolean</text><ellipse cx="1207.5" cy="338.2188" fill="#84BE84" rx="3" ry="3" style="stroke:#038048;stroke-width:1.0;"/><text fill="#000000" font-family="sans-serif" font-size="11" lengthAdjust="spacing" textLength="124" x="1216.5" y="341.4292">isReadOnly(): boolean</text><ellipse cx="1207.5" cy="351.0234" fill="#84BE84" rx="3" ry="3" style="stroke:#038048;stroke-width:1.0;"/><text fill="#000000" font-family="sans-serif" font-size="11" lengthAdjust="spacing" textLength="110" x="1216.5" y="354.2339">setReadOnly(): void</text></a><!--MD5=[dd4319673e9e0932655c6ee819ddd95a]
class org.apache.wiki.auth.permissions.PermissionFactory--><a href="PermissionFactory.html" target="_top" title="PermissionFactory.html" xlink:actuate="onRequest" xlink:href="PermissionFactory.html" xlink:show="new" xlink:title="PermissionFactory.html" xlink:type="simple"><rect codeLine="38" fill="#FEFECE" filter="url(#f1g7e0hmjkfzfa)" height="73.6094" id="org.apache.wiki.auth.permissions.PermissionFactory" style="stroke:#A80036;stroke-width:1.5;" width="320" x="841" y="261.5"/><ellipse cx="939.75" cy="277.5" fill="#ADD1B2" rx="11" ry="11" style="stroke:#A80036;stroke-width:1.0;"/><path d="M942.7188,283.1406 Q942.1406,283.4375 941.5,283.5781 Q940.8594,283.7344 940.1563,283.7344 Q937.6563,283.7344 936.3281,282.0938 Q935.0156,280.4375 935.0156,277.3125 Q935.0156,274.1875 936.3281,272.5313 Q937.6563,270.875 940.1563,270.875 Q940.8594,270.875 941.5,271.0313 Q942.1563,271.1875 942.7188,271.4844 L942.7188,274.2031 Q942.0938,273.625 941.5,273.3594 Q940.9063,273.0781 940.2813,273.0781 Q938.9375,273.0781 938.25,274.1563 Q937.5625,275.2188 937.5625,277.3125 Q937.5625,279.4063 938.25,280.4844 Q938.9375,281.5469 940.2813,281.5469 Q940.9063,281.5469 941.5,281.2813 Q942.0938,281 942.7188,280.4219 L942.7188,283.1406 Z " fill="#000000"/><text fill="#000000" font-family="sans-serif" font-size="12" lengthAdjust="spacing" textLength="114" x="960.25" y="281.6543">PermissionFactory</text><line style="stroke:#A80036;stroke-width:1.5;" x1="842" x2="1160" y1="293.5" y2="293.5"/><line style="stroke:#A80036;stroke-width:1.5;" x1="842" x2="1160" y1="301.5" y2="301.5"/><ellipse cx="852" cy="312.5" fill="#84BE84" rx="3" ry="3" style="stroke:#038048;stroke-width:1.0;"/><text fill="#000000" font-family="sans-serif" font-size="11" lengthAdjust="spacing" text-decoration="underline" textLength="288" x="861" y="315.7104">getPagePermission(Page, String): PagePermission</text><ellipse cx="852" cy="325.3047" fill="#84BE84" rx="3" ry="3" style="stroke:#038048;stroke-width:1.0;"/><text fill="#000000" font-family="sans-serif" font-size="11" lengthAdjust="spacing" text-decoration="underline" textLength="294" x="861" y="328.5151">getPagePermission(String, String): PagePermission</text></a><!--MD5=[c4d86b2e3fdc87414ad724421a6fcc9a]
class org.apache.wiki.auth.permissions.PagePermission--><a href="PagePermission.html" target="_top" title="PagePermission.html" xlink:actuate="onRequest" xlink:href="PagePermission.html" xlink:show="new" xlink:title="PagePermission.html" xlink:type="simple"><rect codeLine="43" fill="#FEFECE" filter="url(#f1g7e0hmjkfzfa)" height="227.2656" id="org.apache.wiki.auth.permissions.PagePermission" style="stroke:#A80036;stroke-width:1.5;" width="303" x="1564.5" y="185"/><ellipse cx="1661.75" cy="201" fill="#ADD1B2" rx="11" ry="11" style="stroke:#A80036;stroke-width:1.0;"/><path d="M1664.7188,206.6406 Q1664.1406,206.9375 1663.5,207.0781 Q1662.8594,207.2344 1662.1563,207.2344 Q1659.6563,207.2344 1658.3281,205.5938 Q1657.0156,203.9375 1657.0156,200.8125 Q1657.0156,197.6875 1658.3281,196.0313 Q1659.6563,194.375 1662.1563,194.375 Q1662.8594,194.375 1663.5,194.5313 Q1664.1563,194.6875 1664.7188,194.9844 L1664.7188,197.7031 Q1664.0938,197.125 1663.5,196.8594 Q1662.9063,196.5781 1662.2813,196.5781 Q1660.9375,196.5781 1660.25,197.6563 Q1659.5625,198.7188 1659.5625,200.8125 Q1659.5625,202.9063 1660.25,203.9844 Q1660.9375,205.0469 1662.2813,205.0469 Q1662.9063,205.0469 1663.5,204.7813 Q1664.0938,204.5 1664.7188,203.9219 L1664.7188,206.6406 Z " fill="#000000"/><text fill="#000000" font-family="sans-serif" font-size="12" lengthAdjust="spacing" textLength="100" x="1682.25" y="205.1543">PagePermission</text><line style="stroke:#A80036;stroke-width:1.5;" x1="1565.5" x2="1866.5" y1="217" y2="217"/><ellipse cx="1575.5" cy="228" rx="3" ry="3" style="stroke:#038048;stroke-width:1.0;fill:none;"/><text fill="#000000" font-family="sans-serif" font-size="11" lengthAdjust="spacing" text-decoration="underline" textLength="147" x="1584.5" y="231.2104">COMMENT_ACTION: String</text><ellipse cx="1575.5" cy="240.8047" rx="3" ry="3" style="stroke:#038048;stroke-width:1.0;fill:none;"/><text fill="#000000" font-family="sans-serif" font-size="11" lengthAdjust="spacing" text-decoration="underline" textLength="132" x="1584.5" y="244.0151">DELETE_ACTION: String</text><ellipse cx="1575.5" cy="253.6094" rx="3" ry="3" style="stroke:#038048;stroke-width:1.0;fill:none;"/><text fill="#000000" font-family="sans-serif" font-size="11" lengthAdjust="spacing" text-decoration="underline" textLength="115" x="1584.5" y="256.8198">EDIT_ACTION: String</text><ellipse cx="1575.5" cy="266.4141" rx="3" ry="3" style="stroke:#038048;stroke-width:1.0;fill:none;"/><text fill="#000000" font-family="sans-serif" font-size="11" lengthAdjust="spacing" text-decoration="underline" textLength="132" x="1584.5" y="269.6245">MODIFY_ACTION: String</text><ellipse cx="1575.5" cy="279.2188" rx="3" ry="3" style="stroke:#038048;stroke-width:1.0;fill:none;"/><text fill="#000000" font-family="sans-serif" font-size="11" lengthAdjust="spacing" text-decoration="underline" textLength="135" x="1584.5" y="282.4292">RENAME_ACTION: String</text><ellipse cx="1575.5" cy="292.0234" rx="3" ry="3" style="stroke:#038048;stroke-width:1.0;fill:none;"/><text fill="#000000" font-family="sans-serif" font-size="11" lengthAdjust="spacing" text-decoration="underline" textLength="135" x="1584.5" y="295.2339">UPLOAD_ACTION: String</text><ellipse cx="1575.5" cy="304.8281" rx="3" ry="3" style="stroke:#038048;stroke-width:1.0;fill:none;"/><text fill="#000000" font-family="sans-serif" font-size="11" lengthAdjust="spacing" text-decoration="underline" textLength="116" x="1584.5" y="308.0386">VIEW_ACTION: String</text><line style="stroke:#A80036;stroke-width:1.5;" x1="1565.5" x2="1866.5" y1="314.6328" y2="314.6328"/><ellipse cx="1575.5" cy="325.6328" fill="#84BE84" rx="3" ry="3" style="stroke:#038048;stroke-width:1.0;"/><text fill="#000000" font-family="sans-serif" font-size="11" lengthAdjust="spacing" textLength="176" x="1584.5" y="328.8433">PagePermission(String, String)</text><ellipse cx="1575.5" cy="338.4375" fill="#84BE84" rx="3" ry="3" style="stroke:#038048;stroke-width:1.0;"/><text fill="#000000" font-family="sans-serif" font-size="11" lengthAdjust="spacing" textLength="170" x="1584.5" y="341.6479">PagePermission(Page, String)</text><ellipse cx="1575.5" cy="351.2422" fill="#84BE84" rx="3" ry="3" style="stroke:#038048;stroke-width:1.0;"/><text fill="#000000" font-family="sans-serif" font-size="11" lengthAdjust="spacing" textLength="109" x="1584.5" y="354.4526">getActions(): String</text><ellipse cx="1575.5" cy="364.0469" fill="#84BE84" rx="3" ry="3" style="stroke:#038048;stroke-width:1.0;"/><text fill="#000000" font-family="sans-serif" font-size="11" lengthAdjust="spacing" textLength="96" x="1584.5" y="367.2573">getPage(): String</text><ellipse cx="1575.5" cy="376.8516" fill="#84BE84" rx="3" ry="3" style="stroke:#038048;stroke-width:1.0;"/><text fill="#000000" font-family="sans-serif" font-size="11" lengthAdjust="spacing" textLength="89" x="1584.5" y="380.062">getWiki(): String</text><ellipse cx="1575.5" cy="389.6563" fill="#84BE84" rx="3" ry="3" style="stroke:#038048;stroke-width:1.0;"/><text fill="#000000" font-family="sans-serif" font-size="11" lengthAdjust="spacing" textLength="166" x="1584.5" y="392.8667">implies(Permission): boolean</text><ellipse cx="1575.5" cy="402.4609" fill="#84BE84" rx="3" ry="3" style="stroke:#038048;stroke-width:1.0;"/><text fill="#000000" font-family="sans-serif" font-size="11" lengthAdjust="spacing" textLength="277" x="1584.5" y="405.6714">newPermissionCollection(): PermissionCollection</text></a><!--MD5=[ecec1072b1fec46c11893203695e8936]
class org.apache.wiki.auth.permissions.AllPermission--><a href="AllPermission.html" target="_top" title="AllPermission.html" xlink:actuate="onRequest" xlink:href="AllPermission.html" xlink:show="new" xlink:title="AllPermission.html" xlink:type="simple"><rect codeLine="60" fill="#FEFECE" filter="url(#f1g7e0hmjkfzfa)" height="112.0234" id="org.apache.wiki.auth.permissions.AllPermission" style="stroke:#A80036;stroke-width:1.5;" width="303" x="1998.5" y="242.5"/><ellipse cx="2104.75" cy="258.5" fill="#ADD1B2" rx="11" ry="11" style="stroke:#A80036;stroke-width:1.0;"/><path d="M2107.7188,264.1406 Q2107.1406,264.4375 2106.5,264.5781 Q2105.8594,264.7344 2105.1563,264.7344 Q2102.6563,264.7344 2101.3281,263.0938 Q2100.0156,261.4375 2100.0156,258.3125 Q2100.0156,255.1875 2101.3281,253.5313 Q2102.6563,251.875 2105.1563,251.875 Q2105.8594,251.875 2106.5,252.0313 Q2107.1563,252.1875 2107.7188,252.4844 L2107.7188,255.2031 Q2107.0938,254.625 2106.5,254.3594 Q2105.9063,254.0781 2105.2813,254.0781 Q2103.9375,254.0781 2103.25,255.1563 Q2102.5625,256.2188 2102.5625,258.3125 Q2102.5625,260.4063 2103.25,261.4844 Q2103.9375,262.5469 2105.2813,262.5469 Q2105.9063,262.5469 2106.5,262.2813 Q2107.0938,262 2107.7188,261.4219 L2107.7188,264.1406 Z " fill="#000000"/><text fill="#000000" font-family="sans-serif" font-size="12" lengthAdjust="spacing" textLength="82" x="2125.25" y="262.6543">AllPermission</text><line style="stroke:#A80036;stroke-width:1.5;" x1="1999.5" x2="2300.5" y1="274.5" y2="274.5"/><line style="stroke:#A80036;stroke-width:1.5;" x1="1999.5" x2="2300.5" y1="282.5" y2="282.5"/><ellipse cx="2009.5" cy="293.5" fill="#84BE84" rx="3" ry="3" style="stroke:#038048;stroke-width:1.0;"/><text fill="#000000" font-family="sans-serif" font-size="11" lengthAdjust="spacing" textLength="119" x="2018.5" y="296.7104">AllPermission(String)</text><ellipse cx="2009.5" cy="306.3047" fill="#84BE84" rx="3" ry="3" style="stroke:#038048;stroke-width:1.0;"/><text fill="#000000" font-family="sans-serif" font-size="11" lengthAdjust="spacing" textLength="109" x="2018.5" y="309.5151">getActions(): String</text><ellipse cx="2009.5" cy="319.1094" fill="#84BE84" rx="3" ry="3" style="stroke:#038048;stroke-width:1.0;"/><text fill="#000000" font-family="sans-serif" font-size="11" lengthAdjust="spacing" textLength="89" x="2018.5" y="322.3198">getWiki(): String</text><ellipse cx="2009.5" cy="331.9141" fill="#84BE84" rx="3" ry="3" style="stroke:#038048;stroke-width:1.0;"/><text fill="#000000" font-family="sans-serif" font-size="11" lengthAdjust="spacing" textLength="166" x="2018.5" y="335.1245">implies(Permission): boolean</text><ellipse cx="2009.5" cy="344.7188" fill="#84BE84" rx="3" ry="3" style="stroke:#038048;stroke-width:1.0;"/><text fill="#000000" font-family="sans-serif" font-size="11" lengthAdjust="spacing" textLength="277" x="2018.5" y="347.9292">newPermissionCollection(): PermissionCollection</text></a><!--MD5=[8ecc5ab52b5db3e6aee192eba9449f2a]
class java.security.Permission--><rect codeLine="83" fill="#FEFECE" filter="url(#f1g7e0hmjkfzfa)" height="73.6094" id="java.security.Permission" style="stroke:#A80036;stroke-width:1.5;" width="189" x="1015.5" y="39"/><ellipse cx="1073.25" cy="55" fill="#A9DCDF" rx="11" ry="11" style="stroke:#A80036;stroke-width:1.0;"/><path d="M1073.3594,50.3438 L1072.2031,55.4219 L1074.5313,55.4219 L1073.3594,50.3438 Z M1071.875,48.1094 L1074.8594,48.1094 L1078.2188,60.5 L1075.7656,60.5 L1075,57.4375 L1071.7188,57.4375 L1070.9688,60.5 L1068.5313,60.5 L1071.875,48.1094 Z " fill="#000000"/><text fill="#000000" font-family="sans-serif" font-size="12" font-style="italic" lengthAdjust="spacing" textLength="65" x="1093.75" y="59.1543">Permission</text><line style="stroke:#A80036;stroke-width:1.5;" x1="1016.5" x2="1203.5" y1="71" y2="71"/><line style="stroke:#A80036;stroke-width:1.5;" x1="1016.5" x2="1203.5" y1="79" y2="79"/><ellipse cx="1026.5" cy="90" fill="#84BE84" rx="3" ry="3" style="stroke:#038048;stroke-width:1.0;"/><text fill="#000000" font-family="sans-serif" font-size="11" font-style="italic" lengthAdjust="spacing" textLength="163" x="1035.5" y="93.2104">implies(Permission): boolean</text><ellipse cx="1026.5" cy="102.8047" fill="#84BE84" rx="3" ry="3" style="stroke:#038048;stroke-width:1.0;"/><text fill="#000000" font-family="sans-serif" font-size="11" font-style="italic" lengthAdjust="spacing" textLength="108" x="1035.5" y="106.0151">getActions(): String</text><!--MD5=[e3b24967b2c1e13ae3f91d48b704dcd1]
class java.security.PermissionCollection--><rect codeLine="87" fill="#FEFECE" filter="url(#f1g7e0hmjkfzfa)" height="86.4141" id="java.security.PermissionCollection" style="stroke:#A80036;stroke-width:1.5;" width="246" x="1240" y="33"/><ellipse cx="1295.75" cy="49" fill="#A9DCDF" rx="11" ry="11" style="stroke:#A80036;stroke-width:1.0;"/><path d="M1295.8594,44.3438 L1294.7031,49.4219 L1297.0313,49.4219 L1295.8594,44.3438 Z M1294.375,42.1094 L1297.3594,42.1094 L1300.7188,54.5 L1298.2656,54.5 L1297.5,51.4375 L1294.2188,51.4375 L1293.4688,54.5 L1291.0313,54.5 L1294.375,42.1094 Z " fill="#000000"/><text fill="#000000" font-family="sans-serif" font-size="12" font-style="italic" lengthAdjust="spacing" textLength="126" x="1316.25" y="53.1543">PermissionCollection</text><line style="stroke:#A80036;stroke-width:1.5;" x1="1241" x2="1485" y1="65" y2="65"/><line style="stroke:#A80036;stroke-width:1.5;" x1="1241" x2="1485" y1="73" y2="73"/><ellipse cx="1251" cy="84" fill="#84BE84" rx="3" ry="3" style="stroke:#038048;stroke-width:1.0;"/><text fill="#000000" font-family="sans-serif" font-size="11" font-style="italic" lengthAdjust="spacing" textLength="123" x="1260" y="87.2104">add(Permission): void</text><ellipse cx="1251" cy="96.8047" fill="#84BE84" rx="3" ry="3" style="stroke:#038048;stroke-width:1.0;"/><text fill="#000000" font-family="sans-serif" font-size="11" font-style="italic" lengthAdjust="spacing" textLength="163" x="1260" y="100.0151">implies(Permission): boolean</text><ellipse cx="1251" cy="109.6094" fill="#84BE84" rx="3" ry="3" style="stroke:#038048;stroke-width:1.0;"/><text fill="#000000" font-family="sans-serif" font-size="11" font-style="italic" lengthAdjust="spacing" textLength="220" x="1260" y="112.8198">elements(): Enumeration&lt;Permission&gt;</text><!--MD5=[5a5af9b0547913863cbe0ddf55a9ab5e]
class java.io.Serializable--><rect codeLine="95" fill="#FEFECE" filter="url(#f1g7e0hmjkfzfa)" height="48" id="java.io.Serializable" style="stroke:#A80036;stroke-width:1.5;" width="103" x="1592.5" y="52"/><ellipse cx="1607.5" cy="68" fill="#B4A7E5" rx="11" ry="11" style="stroke:#A80036;stroke-width:1.0;"/><path d="M1603.4219,63.7656 L1603.4219,61.6094 L1610.8125,61.6094 L1610.8125,63.7656 L1608.3438,63.7656 L1608.3438,71.8438 L1610.8125,71.8438 L1610.8125,74 L1603.4219,74 L1603.4219,71.8438 L1605.8906,71.8438 L1605.8906,63.7656 L1603.4219,63.7656 Z " fill="#000000"/><text fill="#000000" font-family="sans-serif" font-size="12" font-style="italic" lengthAdjust="spacing" textLength="71" x="1621.5" y="72.1543">Serializable</text><line style="stroke:#A80036;stroke-width:1.5;" x1="1593.5" x2="1694.5" y1="84" y2="84"/><line style="stroke:#A80036;stroke-width:1.5;" x1="1593.5" x2="1694.5" y1="92" y2="92"/><!--MD5=[9880e14305dda66d0b4d1b4fa5240d44]
reverse link java.security.Permission to org.apache.wiki.auth.permissions.WikiPermission--><path codeLine="68" d="M996.0074,105.092 C943.1817,119.4865 879.872,138.0425 824,158 C766.2519,178.6276 704.1464,204.4452 649.7946,228.3023 " fill="none" id="java.security.Permission-backto-org.apache.wiki.auth.permissions.WikiPermission" style="stroke:#A80036;stroke-width:1.0;"/><polygon fill="none" points="994.1991,98.3297,1015.3317,99.8836,997.8425,111.8473,994.1991,98.3297" style="stroke:#A80036;stroke-width:1.0;"/><!--MD5=[d6e9238b66a22e0c2f11ca76f4865634]
reverse link java.io.Serializable to org.apache.wiki.auth.permissions.WikiPermission--><path codeLine="69" d="M1573.5342,106.0003 C1551.071,114.2831 1525.8499,122.2832 1502,127 C1428.0208,141.6308 897.4891,141.0789 824,158 C764.9927,171.5866 703.2602,195.4392 649.5858,219.6767 " fill="none" id="java.io.Serializable-backto-org.apache.wiki.auth.permissions.WikiPermission" style="stroke:#A80036;stroke-width:1.0;stroke-dasharray:7.0,7.0;"/><polygon fill="none" points="1571.2809,99.3671,1592.4608,98.7241,1576.3047,112.4347,1571.2809,99.3671" style="stroke:#A80036;stroke-width:1.0;"/><!--MD5=[687ab14b5498d0a6710e90ba9c8c07e2]
link org.apache.wiki.auth.permissions.WikiPermission to org.apache.wiki.auth.permissions.WikiPermission--><path codeLine="70" d="M649.8415,273.8093 C670.6312,277.9123 684.5,286.1426 684.5,298.5 C684.5,309.7955 672.9124,317.6426 655.0436,322.0414 " fill="none" id="org.apache.wiki.auth.permissions.WikiPermission-to-org.apache.wiki.auth.permissions.WikiPermission" style="stroke:#A80036;stroke-width:1.0;"/><polygon fill="#A80036" points="649.8415,323.1907,659.4925,325.1548,654.7238,322.112,657.7666,317.3432,649.8415,323.1907" style="stroke:#A80036;stroke-width:1.0;"/><text fill="#000000" font-family="sans-serif" font-size="13" lengthAdjust="spacing" textLength="111" x="698" y="273.0669">CREATE_GROUPS</text><text fill="#000000" font-family="sans-serif" font-size="13" lengthAdjust="spacing" textLength="100" x="703.5" y="288.1997">CREATE_PAGES</text><text fill="#000000" font-family="sans-serif" font-size="13" lengthAdjust="spacing" textLength="40" x="733.5" y="303.3325">LOGIN</text><text fill="#000000" font-family="sans-serif" font-size="13" lengthAdjust="spacing" textLength="126" x="690.5" y="318.4653">EDIT_PREFERENCES</text><text fill="#000000" font-family="sans-serif" font-size="13" lengthAdjust="spacing" textLength="86" x="710.5" y="333.5981">EDIT_PROFILE</text><!--MD5=[bf6e566d7f114f5d843fad5c31725739]
reverse link java.security.Permission to org.apache.wiki.auth.permissions.GroupPermission--><path codeLine="71" d="M994.915,80.985 C808.1766,90.257 448.0554,113.3902 329,158 C292.0456,171.8467 255.5463,194.1752 224.0483,216.9955 " fill="none" id="java.security.Permission-backto-org.apache.wiki.auth.permissions.GroupPermission" style="stroke:#A80036;stroke-width:1.0;"/><polygon fill="none" points="994.8468,73.9802,1015.1632,80.0003,995.5269,87.9637,994.8468,73.9802" style="stroke:#A80036;stroke-width:1.0;"/><!--MD5=[2edc9f879d22b51b179c57c49d24f2ad]
reverse link java.io.Serializable to org.apache.wiki.auth.permissions.GroupPermission--><path codeLine="72" d="M1573.3073,106.3843 C1550.9173,114.6424 1525.7947,122.5319 1502,127 C1437.9303,139.0307 390.8922,137.53 329,158 C290.6262,170.6916 253.1207,193.3892 221.1496,216.8899 " fill="none" id="java.io.Serializable-backto-org.apache.wiki.auth.permissions.GroupPermission" style="stroke:#A80036;stroke-width:1.0;stroke-dasharray:7.0,7.0;"/><polygon fill="none" points="1570.9987,99.7722,1592.178,99.1091,1576.0349,112.835,1570.9987,99.7722" style="stroke:#A80036;stroke-width:1.0;"/><!--MD5=[2bbb7088effe8946c96df1eafa680302]
link org.apache.wiki.auth.permissions.GroupPermission to org.apache.wiki.auth.permissions.GroupPermission--><path codeLine="73" d="M233.6391,271.9847 C254.0241,275.0639 268.5,283.9023 268.5,298.5 C268.5,311.8432 256.4052,320.3744 238.7582,324.0938 " fill="none" id="org.apache.wiki.auth.permissions.GroupPermission-to-org.apache.wiki.auth.permissions.GroupPermission" style="stroke:#A80036;stroke-width:1.0;"/><polygon fill="#A80036" points="233.6391,325.0153,243.2054,327.3575,238.56,324.1294,241.788,319.484,233.6391,325.0153" style="stroke:#A80036;stroke-width:1.0;"/><text fill="#000000" font-family="sans-serif" font-size="13" lengthAdjust="spacing" textLength="48" x="274.5" y="288.0669">DELETE</text><text fill="#000000" font-family="sans-serif" font-size="13" lengthAdjust="spacing" textLength="28" x="284.5" y="303.1997">EDIT</text><text fill="#000000" font-family="sans-serif" font-size="13" lengthAdjust="spacing" textLength="31" x="283" y="318.3325">VIEW</text><!--MD5=[40f3661111a77d2f33c5195f7fe8e664]
reverse link java.security.PermissionCollection to org.apache.wiki.auth.permissions.AllPermissionCollection--><path codeLine="74" d="M1363,139.459 C1363,169.6254 1363,205.5804 1363,235.6662 " fill="none" id="java.security.PermissionCollection-backto-org.apache.wiki.auth.permissions.AllPermissionCollection" style="stroke:#A80036;stroke-width:1.0;"/><polygon fill="none" points="1356.0001,139.1641,1363,119.1641,1370.0001,139.164,1356.0001,139.1641" style="stroke:#A80036;stroke-width:1.0;"/><!--MD5=[e84aa8e47ffc5f9add0d6fc4be93e24a]
reverse link java.security.Permission to org.apache.wiki.auth.permissions.PagePermission--><path codeLine="75" d="M1201.5935,120.301 C1208.7401,122.8415 1215.9273,125.121 1223,127 C1257.952,136.2857 1513.6132,144.101 1547,158 C1563.908,165.0388 1580.4169,174.3776 1596.0819,184.9063 " fill="none" id="java.security.Permission-backto-org.apache.wiki.auth.permissions.PagePermission" style="stroke:#A80036;stroke-width:1.0;"/><polygon fill="none" points="1199.0061,126.8057,1182.8776,113.0626,1204.0562,113.7482,1199.0061,126.8057" style="stroke:#A80036;stroke-width:1.0;"/><!--MD5=[d619c41edea7e5ef02391fcb45630f57]
reverse link java.io.Serializable to org.apache.wiki.auth.permissions.PagePermission--><path codeLine="76" d="M1658.0095,119.2933 C1664.1527,138.2774 1671.6808,161.5412 1679.2529,184.9413 " fill="none" id="java.io.Serializable-backto-org.apache.wiki.auth.permissions.PagePermission" style="stroke:#A80036;stroke-width:1.0;stroke-dasharray:7.0,7.0;"/><polygon fill="none" points="1651.34,121.4186,1651.8423,100.235,1664.6599,117.1083,1651.34,121.4186" style="stroke:#A80036;stroke-width:1.0;"/><!--MD5=[a2c1dedeafa088403f99ca3243e32584]
link org.apache.wiki.auth.permissions.PagePermission to org.apache.wiki.auth.permissions.PagePermission--><path codeLine="77" d="M1867.8415,273.8093 C1888.6312,277.9123 1902.5,286.1426 1902.5,298.5 C1902.5,309.7955 1890.9124,317.6426 1873.0436,322.0414 " fill="none" id="org.apache.wiki.auth.permissions.PagePermission-to-org.apache.wiki.auth.permissions.PagePermission" style="stroke:#A80036;stroke-width:1.0;"/><polygon fill="#A80036" points="1867.8415,323.1907,1877.4925,325.1548,1872.7238,322.112,1875.7666,317.3432,1867.8415,323.1907" style="stroke:#A80036;stroke-width:1.0;"/><text fill="#000000" font-family="sans-serif" font-size="13" lengthAdjust="spacing" textLength="66" x="1908.5" y="258.0669">COMMENT</text><text fill="#000000" font-family="sans-serif" font-size="13" lengthAdjust="spacing" textLength="48" x="1917.5" y="273.1997">DELETE</text><text fill="#000000" font-family="sans-serif" font-size="13" lengthAdjust="spacing" textLength="28" x="1927.5" y="288.3325">EDIT</text><text fill="#000000" font-family="sans-serif" font-size="13" lengthAdjust="spacing" textLength="54" x="1914.5" y="303.4653">RENAME</text><text fill="#000000" font-family="sans-serif" font-size="13" lengthAdjust="spacing" textLength="48" x="1917.5" y="318.5981">MODIFY</text><text fill="#000000" font-family="sans-serif" font-size="13" lengthAdjust="spacing" textLength="54" x="1914.5" y="333.731">UPLOAD</text><text fill="#000000" font-family="sans-serif" font-size="13" lengthAdjust="spacing" textLength="31" x="1926" y="348.8638">VIEW</text><!--MD5=[58899357b03cf5c4e181cfbd38aeef2d]
reverse link java.security.Permission to org.apache.wiki.auth.permissions.AllPermission--><path codeLine="78" d="M1199.9867,120.2236 C1207.6496,122.8772 1215.3829,125.1971 1223,127 C1387.0525,165.8301 1823.6547,97.4736 1981,158 C2027.117,175.7399 2069.8226,211.4851 2100.7671,242.4797 " fill="none" id="java.security.Permission-backto-org.apache.wiki.auth.permissions.AllPermission" style="stroke:#A80036;stroke-width:1.0;"/><polygon fill="none" points="1197.3763,126.7198,1181.1904,113.0444,1202.3716,113.6413,1197.3763,126.7198" style="stroke:#A80036;stroke-width:1.0;"/><!--MD5=[18576e9016d19de10edb469d9959344c]
reverse link java.io.Serializable to org.apache.wiki.auth.permissions.AllPermission--><path codeLine="79" d="M1715.7327,83.8758 C1786.2755,93.7774 1895.5084,114.9887 1981,158 C2023.4356,179.3496 2064.567,213.1637 2095.6261,242.2692 " fill="none" id="java.io.Serializable-backto-org.apache.wiki.auth.permissions.AllPermission" style="stroke:#A80036;stroke-width:1.0;stroke-dasharray:7.0,7.0;"/><polygon fill="none" points="1714.5008,90.7739,1695.5926,81.2092,1716.3384,76.895,1714.5008,90.7739" style="stroke:#A80036;stroke-width:1.0;"/><text fill="#888888" font-family="sans-serif" font-size="10" lengthAdjust="spacing" textLength="192" x="1061" y="435.2822">UMLDoclet 2.0.15, PlantUML 1.2021.13</text><!--MD5=[cf43a1ca70a5169ca0f38dce4c47fee0]
@startuml
    namespace org.apache.wiki.auth.permissions {

        class WikiPermission [[WikiPermission.html]] {
            {static} +CREATE_GROUPS_ACTION: String
            {static} +CREATE_PAGES_ACTION: String
            {static} +LOGIN_ACTION: String
            {static} +EDIT_PREFERENCES_ACTION: String
            {static} +EDIT_PROFILE_ACTION: String
            {static} +WILDCARD: String
            +WikiPermission(String, String)
            +getActions(): String
            +getWiki(): String
            +implies(Permission): boolean
            +newPermissionCollection(): PermissionCollection
        }

        class GroupPermission [[GroupPermission.html]] {
            {static} +MEMBER_TOKEN: String
            {static} +DELETE_ACTION: String
            {static} +EDIT_ACTION: String
            {static} +VIEW_ACTION: String
            +GroupPermission(String, String)
            +getActions(): String
            +getGroup(): String
            +getWiki(): String
            +implies(Permission): boolean
        }

        class AllPermissionCollection [[AllPermissionCollection.html]] {
            #m_permissions: Hashtable<Permission, Permission>
            +add(Permission): void
            +elements(): Enumeration<Permission>
            +implies(Permission): boolean
            +isReadOnly(): boolean
            +setReadOnly(): void
        }

        class PermissionFactory [[PermissionFactory.html]] {
            {static} +getPagePermission(Page, String): PagePermission
            {static} +getPagePermission(String, String): PagePermission
        }

        class PagePermission [[PagePermission.html]] {
            {static} +COMMENT_ACTION: String
            {static} +DELETE_ACTION: String
            {static} +EDIT_ACTION: String
            {static} +MODIFY_ACTION: String
            {static} +RENAME_ACTION: String
            {static} +UPLOAD_ACTION: String
            {static} +VIEW_ACTION: String
            +PagePermission(String, String)
            +PagePermission(Page, String)
            +getActions(): String
            +getPage(): String
            +getWiki(): String
            +implies(Permission): boolean
            +newPermissionCollection(): PermissionCollection
        }

        class AllPermission [[AllPermission.html]] {
            +AllPermission(String)
            +getActions(): String
            +getWiki(): String
            +implies(Permission): boolean
            +newPermissionCollection(): PermissionCollection
        }

        java.security.Permission <|- - WikiPermission
        java.io.Serializable <|.. WikiPermission
        WikiPermission - -> WikiPermission: CREATE_GROUPS\nCREATE_PAGES\nLOGIN\nEDIT_PREFERENCES\nEDIT_PROFILE
        java.security.Permission <|- - GroupPermission
        java.io.Serializable <|.. GroupPermission
        GroupPermission - -> GroupPermission: DELETE\nEDIT\nVIEW
        java.security.PermissionCollection <|- - AllPermissionCollection
        java.security.Permission <|- - PagePermission
        java.io.Serializable <|.. PagePermission
        PagePermission - -> PagePermission: COMMENT\nDELETE\nEDIT\nRENAME\nMODIFY\nUPLOAD\nVIEW
        java.security.Permission <|- - AllPermission
        java.io.Serializable <|.. AllPermission
    }

    namespace java.security {
        abstract class Permission {
            {abstract} +implies(Permission): boolean
            {abstract} +getActions(): String
        }
        abstract class PermissionCollection {
            {abstract} +add(Permission): void
            {abstract} +implies(Permission): boolean
            {abstract} +elements(): Enumeration<Permission>
        }
    }

    namespace java.io {
        interface Serializable
    }

    center footer UMLDoclet 2.0.15, PlantUML 1.2021.13
@enduml

PlantUML version 1.2021.13(Mon Nov 01 11:38:45 UTC 2021)
(APACHE source distribution)
Java Runtime: Java(TM) SE Runtime Environment
JVM: Java HotSpot(TM) 64-Bit Server VM
Default Encoding: ISO-8859-1
Language: en
Country: US
--></g></svg>