<?xml version="1.0" encoding="UTF-8" standalone="no"?><svg xmlns="http://www.w3.org/2000/svg" xmlns:xlink="http://www.w3.org/1999/xlink" contentScriptType="application/ecmascript" contentStyleType="text/css" height="421px" preserveAspectRatio="none" style="width:348px;height:421px;" version="1.1" viewBox="0 0 348 421" width="348px" zoomAndPan="magnify"><defs><filter height="300%" id="f1prufqkknn4c8" width="300%" x="-1" y="-1"><feGaussianBlur result="blurOut" stdDeviation="2.0"/><feColorMatrix in="blurOut" result="blurOut2" type="matrix" values="0 0 0 0 0 0 0 0 0 0 0 0 0 0 0 0 0 0 .4 0"/><feOffset dx="4.0" dy="4.0" in="blurOut2" result="blurOut3"/><feBlend in="SourceGraphic" in2="blurOut3" mode="normal"/></filter></defs><g><!--class JSPWikiMarkupParser--><a href="JSPWikiMarkupParser.html" target="_top" xlink:actuate="onRequest" xlink:show="new" xlink:title="JSPWikiMarkupParser.html" xlink:type="simple"><rect fill="#FEFECE" filter="url(#f1prufqkknn4c8)" height="380.0625" id="JSPWikiMarkupParser" style="stroke: #A80036; stroke-width: 1.5;" width="331" x="6" y="8"/><ellipse cx="106.25" cy="24" fill="#ADD1B2" rx="11" ry="11" style="stroke: #A80036; stroke-width: 1.0;"/><path d="M109.0156,19.875 Q109.1719,19.6563 109.3594,19.5469 Q109.5469,19.4375 109.7656,19.4375 Q110.1406,19.4375 110.375,19.6953 Q110.6094,19.9531 110.6094,20.5625 L110.6094,22.0156 Q110.6094,22.625 110.375,22.8906 Q110.1406,23.1563 109.7656,23.1563 Q109.4219,23.1563 109.2188,22.9531 Q109.0156,22.7656 108.9063,22.25 Q108.8594,21.8906 108.6719,21.7031 Q108.3438,21.3281 107.7344,21.1094 Q107.125,20.8906 106.5,20.8906 Q105.7344,20.8906 105.1016,21.2188 Q104.4688,21.5469 103.9766,22.2969 Q103.4844,23.0469 103.4844,24.0781 L103.4844,25.1719 Q103.4844,26.4063 104.375,27.2266 Q105.2656,28.0469 106.8594,28.0469 Q107.7969,28.0469 108.4531,27.7969 Q108.8438,27.6406 109.2656,27.2031 Q109.5313,26.9375 109.6797,26.8594 Q109.8281,26.7813 110.0313,26.7813 Q110.3594,26.7813 110.6172,27.0391 Q110.875,27.2969 110.875,27.6406 Q110.875,27.9844 110.5313,28.3906 Q110.0313,28.9688 109.2344,29.2969 Q108.1563,29.75 106.8594,29.75 Q105.3438,29.75 104.1406,29.125 Q103.1563,28.625 102.4688,27.5547 Q101.7813,26.4844 101.7813,25.2031 L101.7813,24.0469 Q101.7813,22.7188 102.3984,21.5703 Q103.0156,20.4219 104.1094,19.8047 Q105.2031,19.1875 106.4375,19.1875 Q107.1719,19.1875 107.8203,19.3516 Q108.4688,19.5156 109.0156,19.875 Z "/><text fill="#000000" font-family="sans-serif" font-size="12" lengthAdjust="spacingAndGlyphs" textLength="122" x="126.75" y="28.9102">JSPWikiMarkupParser</text><line style="stroke: #A80036; stroke-width: 1.5;" x1="7" x2="336" y1="40" y2="40"/><polygon fill="none" points="17,47.418,21,51.418,17,55.418,13,51.418" style="stroke: #B38D22; stroke-width: 1.0;"/><text fill="#000000" font-family="sans-serif" font-size="11" lengthAdjust="spacingAndGlyphs" text-decoration="underline" textLength="45" x="26" y="55.4189">READ: int</text><polygon fill="none" points="17,61.2539,21,65.2539,17,69.2539,13,65.2539" style="stroke: #B38D22; stroke-width: 1.0;"/><text fill="#000000" font-family="sans-serif" font-size="11" lengthAdjust="spacingAndGlyphs" text-decoration="underline" textLength="38" x="26" y="69.2549">EDIT: int</text><polygon fill="none" points="17,75.0898,21,79.0898,17,83.0898,13,79.0898" style="stroke: #B38D22; stroke-width: 1.0;"/><text fill="#000000" font-family="sans-serif" font-size="11" lengthAdjust="spacingAndGlyphs" text-decoration="underline" textLength="51" x="26" y="83.0908">EMPTY: int</text><polygon fill="none" points="17,88.9258,21,92.9258,17,96.9258,13,92.9258" style="stroke: #B38D22; stroke-width: 1.0;"/><text fill="#000000" font-family="sans-serif" font-size="11" lengthAdjust="spacingAndGlyphs" text-decoration="underline" textLength="52" x="26" y="96.9268">LOCAL: int</text><polygon fill="none" points="17,102.7617,21,106.7617,17,110.7617,13,106.7617" style="stroke: #B38D22; stroke-width: 1.0;"/><text fill="#000000" font-family="sans-serif" font-size="11" lengthAdjust="spacingAndGlyphs" text-decoration="underline" textLength="71" x="26" y="110.7627">LOCALREF: int</text><polygon fill="none" points="17,116.5977,21,120.5977,17,124.5977,13,120.5977" style="stroke: #B38D22; stroke-width: 1.0;"/><text fill="#000000" font-family="sans-serif" font-size="11" lengthAdjust="spacingAndGlyphs" text-decoration="underline" textLength="49" x="26" y="124.5986">IMAGE: int</text><polygon fill="none" points="17,130.4336,21,134.4336,17,138.4336,13,134.4336" style="stroke: #B38D22; stroke-width: 1.0;"/><text fill="#000000" font-family="sans-serif" font-size="11" lengthAdjust="spacingAndGlyphs" text-decoration="underline" textLength="70" x="26" y="138.4346">EXTERNAL: int</text><polygon fill="none" points="17,144.2695,21,148.2695,17,152.2695,13,148.2695" style="stroke: #B38D22; stroke-width: 1.0;"/><text fill="#000000" font-family="sans-serif" font-size="11" lengthAdjust="spacingAndGlyphs" text-decoration="underline" textLength="66" x="26" y="152.2705">INTERWIKI: int</text><polygon fill="none" points="17,158.1055,21,162.1055,17,166.1055,13,162.1055" style="stroke: #B38D22; stroke-width: 1.0;"/><text fill="#000000" font-family="sans-serif" font-size="11" lengthAdjust="spacingAndGlyphs" text-decoration="underline" textLength="71" x="26" y="166.1064">IMAGELINK: int</text><polygon fill="none" points="17,171.9414,21,175.9414,17,179.9414,13,175.9414" style="stroke: #B38D22; stroke-width: 1.0;"/><text fill="#000000" font-family="sans-serif" font-size="11" lengthAdjust="spacingAndGlyphs" text-decoration="underline" textLength="92" x="26" y="179.9424">IMAGEWIKILINK: int</text><polygon fill="none" points="17,185.7773,21,189.7773,17,193.7773,13,189.7773" style="stroke: #B38D22; stroke-width: 1.0;"/><text fill="#000000" font-family="sans-serif" font-size="11" lengthAdjust="spacingAndGlyphs" text-decoration="underline" textLength="86" x="26" y="193.7783">ATTACHMENT: int</text><ellipse cx="17" cy="204.6133" fill="none" rx="3" ry="3" style="stroke: #038048; stroke-width: 1.0;"/><text fill="#000000" font-family="sans-serif" font-size="11" lengthAdjust="spacingAndGlyphs" text-decoration="underline" textLength="159" x="26" y="207.6143">PROP_CAMELCASELINKS: String</text><ellipse cx="17" cy="218.4492" fill="none" rx="3" ry="3" style="stroke: #038048; stroke-width: 1.0;"/><text fill="#000000" font-family="sans-serif" font-size="11" lengthAdjust="spacingAndGlyphs" text-decoration="underline" textLength="119" x="26" y="221.4502">PROP_PLAINURIS: String</text><ellipse cx="17" cy="232.2852" fill="none" rx="3" ry="3" style="stroke: #038048; stroke-width: 1.0;"/><text fill="#000000" font-family="sans-serif" font-size="11" lengthAdjust="spacingAndGlyphs" text-decoration="underline" textLength="188" x="26" y="235.2861">PROP_USEATTACHMENTIMAGE: String</text><polygon fill="none" points="17,241.1211,21,245.1211,17,249.1211,13,245.1211" style="stroke: #B38D22; stroke-width: 1.0;"/><text fill="#000000" font-family="sans-serif" font-size="11" lengthAdjust="spacingAndGlyphs" text-decoration="underline" textLength="80" x="26" y="249.1221">CHARACTER: int</text><polygon fill="none" points="17,254.957,21,258.957,17,262.957,13,258.957" style="stroke: #B38D22; stroke-width: 1.0;"/><text fill="#000000" font-family="sans-serif" font-size="11" lengthAdjust="spacingAndGlyphs" text-decoration="underline" textLength="62" x="26" y="262.958">ELEMENT: int</text><polygon fill="none" points="17,268.793,21,272.793,17,276.793,13,272.793" style="stroke: #B38D22; stroke-width: 1.0;"/><text fill="#000000" font-family="sans-serif" font-size="11" lengthAdjust="spacingAndGlyphs" text-decoration="underline" textLength="55" x="26" y="276.7939">IGNORE: int</text><line style="stroke: #A80036; stroke-width: 1.5;" x1="7" x2="336" y1="283.2109" y2="283.2109"/><ellipse cx="17" cy="295.6289" fill="#84BE84" rx="3" ry="3" style="stroke: #038048; stroke-width: 1.0;"/><text fill="#000000" font-family="sans-serif" font-size="11" lengthAdjust="spacingAndGlyphs" textLength="209" x="26" y="298.6299">JSPWikiMarkupParser(WikiContext, Reader)</text><polygon fill="#FFFF44" points="17,304.4648,21,308.4648,17,312.4648,13,308.4648" style="stroke: #B38D22; stroke-width: 1.0;"/><text fill="#000000" font-family="sans-serif" font-size="11" lengthAdjust="spacingAndGlyphs" textLength="305" x="26" y="312.4658">callMutatorChain(Collection&lt;StringTransmutator&gt;, String): String</text><polygon fill="#FFFF44" points="17,318.3008,21,322.3008,17,326.3008,13,322.3008" style="stroke: #B38D22; stroke-width: 1.0;"/><text fill="#000000" font-family="sans-serif" font-size="11" lengthAdjust="spacingAndGlyphs" textLength="194" x="26" y="326.3018">callHeadingListenerChain(Heading): void</text><polygon fill="#FFFF44" points="17,332.1367,21,336.1367,17,340.1367,13,336.1367" style="stroke: #B38D22; stroke-width: 1.0;"/><text fill="#000000" font-family="sans-serif" font-size="11" lengthAdjust="spacingAndGlyphs" textLength="231" x="26" y="340.1377">createAnchor(int, String, String, String): Element</text><ellipse cx="17" cy="350.9727" fill="#84BE84" rx="3" ry="3" style="stroke: #038048; stroke-width: 1.0;"/><text fill="#000000" font-family="sans-serif" font-size="11" lengthAdjust="spacingAndGlyphs" textLength="205" x="26" y="353.9736">makeHeading(int, String, Heading): Element</text><polygon fill="#FFFF44" points="17,359.8086,21,363.8086,17,367.8086,13,363.8086" style="stroke: #B38D22; stroke-width: 1.0;"/><text fill="#000000" font-family="sans-serif" font-size="11" lengthAdjust="spacingAndGlyphs" textLength="93" x="26" y="367.8096">parseToken(int): int</text><ellipse cx="17" cy="378.6445" fill="#84BE84" rx="3" ry="3" style="stroke: #038048; stroke-width: 1.0;"/><text fill="#000000" font-family="sans-serif" font-size="11" lengthAdjust="spacingAndGlyphs" textLength="109" x="26" y="381.6455">parse(): WikiDocument</text></a><text fill="#888888" font-family="sans-serif" font-size="10" lengthAdjust="spacingAndGlyphs" textLength="184" x="85.5" y="408.3809">UMLDoclet 1.1.4, PlantUML 1.2019.05</text><!--
@startuml

    class JSPWikiMarkupParser [[JSPWikiMarkupParser.html]] {
        {static} #READ: int
        {static} #EDIT: int
        {static} #EMPTY: int
        {static} #LOCAL: int
        {static} #LOCALREF: int
        {static} #IMAGE: int
        {static} #EXTERNAL: int
        {static} #INTERWIKI: int
        {static} #IMAGELINK: int
        {static} #IMAGEWIKILINK: int
        {static} #ATTACHMENT: int
        {static} +PROP_CAMELCASELINKS: String
        {static} +PROP_PLAINURIS: String
        {static} +PROP_USEATTACHMENTIMAGE: String
        {static} #CHARACTER: int
        {static} #ELEMENT: int
        {static} #IGNORE: int
        +JSPWikiMarkupParser(WikiContext, Reader)
        #callMutatorChain(Collection<StringTransmutator>, String): String
        #callHeadingListenerChain(Heading): void
        #createAnchor(int, String, String, String): Element
        +makeHeading(int, String, Heading): Element
        #parseToken(int): int
        +parse(): WikiDocument
    }


    center footer UMLDoclet 1.1.4, PlantUML 1.2019.05
@enduml

PlantUML version 1.2019.05(Sat Apr 20 18:45:36 CEST 2019)
(APACHE source distribution)
Java Runtime: OpenJDK Runtime Environment
JVM: OpenJDK 64-Bit Server VM
Java Version: 1.8.0_212-b03
Operating System: Windows 10
OS Version: 10.0
Default Encoding: Cp1252
Language: es
Country: ES
--></g></svg>