<?xml version="1.0" encoding="UTF-8" standalone="no"?><svg xmlns="http://www.w3.org/2000/svg" xmlns:xlink="http://www.w3.org/1999/xlink" contentScriptType="application/ecmascript" contentStyleType="text/css" height="1064px" preserveAspectRatio="none" style="width:857px;height:1064px;" version="1.1" viewBox="0 0 857 1064" width="857px" zoomAndPan="magnify"><defs><filter height="300%" id="f183bnom4cqve7" width="300%" x="-1" y="-1"><feGaussianBlur result="blurOut" stdDeviation="2.0"/><feColorMatrix in="blurOut" result="blurOut2" type="matrix" values="0 0 0 0 0 0 0 0 0 0 0 0 0 0 0 0 0 0 .4 0"/><feOffset dx="4.0" dy="4.0" in="blurOut2" result="blurOut3"/><feBlend in="SourceGraphic" in2="blurOut3" mode="normal"/></filter></defs><g><!--cluster org.apache.wiki.ui.admin--><polygon fill="#FFFFFF" filter="url(#f183bnom4cqve7)" points="14,200,193,200,200,223.6094,607,223.6094,607,1023,14,1023,14,200" style="stroke: #000000; stroke-width: 1.5;"/><line style="stroke: #000000; stroke-width: 1.5;" x1="14" x2="200" y1="223.6094" y2="223.6094"/><text fill="#000000" font-family="sans-serif" font-size="14" font-weight="bold" lengthAdjust="spacingAndGlyphs" textLength="173" x="18" y="216.5332">org.apache.wiki.ui.admin</text><!--cluster org.apache.wiki.management--><polygon fill="#FFFFFF" filter="url(#f183bnom4cqve7)" points="615,733,825,733,832,756.6094,835,756.6094,835,845,615,845,615,733" style="stroke: #000000; stroke-width: 1.5;"/><line style="stroke: #000000; stroke-width: 1.5;" x1="615" x2="832" y1="756.6094" y2="756.6094"/><text fill="#000000" font-family="sans-serif" font-size="14" font-weight="bold" lengthAdjust="spacingAndGlyphs" textLength="204" x="619" y="749.5332">org.apache.wiki.management</text><!--cluster org.apache.wiki.event--><polygon fill="#FFFFFF" filter="url(#f183bnom4cqve7)" points="251,43.5,412,43.5,419,67.1094,459,67.1094,459,141.5,251,141.5,251,43.5" style="stroke: #000000; stroke-width: 1.5;"/><line style="stroke: #000000; stroke-width: 1.5;" x1="251" x2="419" y1="67.1094" y2="67.1094"/><text fill="#000000" font-family="sans-serif" font-size="14" font-weight="bold" lengthAdjust="spacingAndGlyphs" textLength="155" x="255" y="60.0332">org.apache.wiki.event</text><!--cluster org.apache.wiki.api.engine--><polygon fill="#FFFFFF" filter="url(#f183bnom4cqve7)" points="477,16,671,16,678,39.6094,685,39.6094,685,169,477,169,477,16" style="stroke: #000000; stroke-width: 1.5;"/><line style="stroke: #000000; stroke-width: 1.5;" x1="477" x2="678" y1="39.6094" y2="39.6094"/><text fill="#000000" font-family="sans-serif" font-size="14" font-weight="bold" lengthAdjust="spacingAndGlyphs" textLength="188" x="481" y="32.5332">org.apache.wiki.api.engine</text><!--cluster org.apache.wiki.ui--><polygon fill="#FFFFFF" filter="url(#f183bnom4cqve7)" points="615,384,748,384,755,407.6094,795,407.6094,795,510,615,510,615,384" style="stroke: #000000; stroke-width: 1.5;"/><line style="stroke: #000000; stroke-width: 1.5;" x1="615" x2="755" y1="407.6094" y2="407.6094"/><text fill="#000000" font-family="sans-serif" font-size="14" font-weight="bold" lengthAdjust="spacingAndGlyphs" textLength="127" x="619" y="400.5332">org.apache.wiki.ui</text><!--class org.apache.wiki.ui.admin.WikiFormAdminBean--><a href="WikiFormAdminBean.html" target="_top" xlink:actuate="onRequest" xlink:show="new" xlink:title="WikiFormAdminBean.html" xlink:type="simple"><rect fill="#FEFECE" filter="url(#f183bnom4cqve7)" height="103.3438" id="org.apache.wiki.ui.admin.WikiFormAdminBean" style="stroke: #A80036; stroke-width: 1.5;" width="384" x="22" y="905"/><ellipse cx="150.75" cy="921" fill="#A9DCDF" rx="11" ry="11" style="stroke: #A80036; stroke-width: 1.0;"/><path d="M152.9375,922.7656 L148.7969,922.7656 L148.375,923.7969 L148.7969,923.7969 Q149.4063,923.7969 149.6719,924.0313 Q149.9375,924.2656 149.9375,924.6563 Q149.9375,925.0313 149.6719,925.2656 Q149.4063,925.5 148.7969,925.5 L146.5,925.5 Q145.8906,925.5 145.6328,925.2656 Q145.375,925.0313 145.375,924.6406 Q145.375,924.2656 145.6484,924.0234 Q145.9219,923.7813 146.5469,923.7969 L149.2188,917.1406 L148.1094,917.1406 Q147.5,917.1406 147.2344,916.9063 Q146.9688,916.6719 146.9688,916.2813 Q146.9688,915.9063 147.2344,915.6719 Q147.5,915.4375 148.1094,915.4375 L151.7813,915.4375 L155.1719,923.7969 Q155.7656,923.7969 155.9531,923.9375 Q156.3438,924.2031 156.3438,924.6563 Q156.3438,925.0313 156.0859,925.2656 Q155.8281,925.5 155.2188,925.5 L152.9219,925.5 Q152.3125,925.5 152.0469,925.2656 Q151.7813,925.0313 151.7813,924.6406 Q151.7813,924.2656 152.0469,924.0313 Q152.3125,923.7969 152.9219,923.7969 L153.3438,923.7969 L152.9375,922.7656 Z M152.2188,921.0625 L150.8594,917.6875 L149.4844,921.0625 L152.2188,921.0625 Z "/><text fill="#000000" font-family="sans-serif" font-size="12" font-style="italic" lengthAdjust="spacingAndGlyphs" textLength="118" x="171.25" y="925.9102">WikiFormAdminBean</text><line style="stroke: #A80036; stroke-width: 1.5;" x1="23" x2="405" y1="937" y2="937"/><line style="stroke: #A80036; stroke-width: 1.5;" x1="23" x2="405" y1="945" y2="945"/><ellipse cx="33" cy="957.418" fill="#84BE84" rx="3" ry="3" style="stroke: #038048; stroke-width: 1.0;"/><text fill="#000000" font-family="sans-serif" font-size="11" lengthAdjust="spacingAndGlyphs" textLength="127" x="42" y="960.4189">doGet(WikiContext): String</text><ellipse cx="33" cy="971.2539" fill="#84BE84" rx="3" ry="3" style="stroke: #038048; stroke-width: 1.0;"/><text fill="#000000" font-family="sans-serif" font-size="11" lengthAdjust="spacingAndGlyphs" textLength="358" x="42" y="974.2549">handlePost(WikiContext, HttpServletRequest, HttpServletResponse): String</text><ellipse cx="33" cy="985.0898" fill="#84BE84" rx="3" ry="3" style="stroke: #038048; stroke-width: 1.0;"/><text fill="#000000" font-family="sans-serif" font-size="11" font-style="italic" lengthAdjust="spacingAndGlyphs" textLength="145" x="42" y="988.0908">getForm(WikiContext): String</text><ellipse cx="33" cy="998.9258" fill="#84BE84" rx="3" ry="3" style="stroke: #038048; stroke-width: 1.0;"/><text fill="#000000" font-family="sans-serif" font-size="11" font-style="italic" lengthAdjust="spacingAndGlyphs" textLength="235" x="42" y="1001.9268">handleResponse(WikiContext, Map&lt;?, ?&gt;): void</text></a><!--class org.apache.wiki.ui.admin.SimpleAdminBean--><a href="SimpleAdminBean.html" target="_top" xlink:actuate="onRequest" xlink:show="new" xlink:title="SimpleAdminBean.html" xlink:type="simple"><rect fill="#FEFECE" filter="url(#f183bnom4cqve7)" height="117.1797" id="org.apache.wiki.ui.admin.SimpleAdminBean" style="stroke: #A80036; stroke-width: 1.5;" width="157" x="441.5" y="898"/><ellipse cx="465.95" cy="914" fill="#A9DCDF" rx="11" ry="11" style="stroke: #A80036; stroke-width: 1.0;"/><path d="M468.1375,915.7656 L463.9969,915.7656 L463.575,916.7969 L463.9969,916.7969 Q464.6063,916.7969 464.8719,917.0313 Q465.1375,917.2656 465.1375,917.6563 Q465.1375,918.0313 464.8719,918.2656 Q464.6063,918.5 463.9969,918.5 L461.7,918.5 Q461.0906,918.5 460.8328,918.2656 Q460.575,918.0313 460.575,917.6406 Q460.575,917.2656 460.8484,917.0234 Q461.1219,916.7813 461.7469,916.7969 L464.4188,910.1406 L463.3094,910.1406 Q462.7,910.1406 462.4344,909.9063 Q462.1688,909.6719 462.1688,909.2813 Q462.1688,908.9063 462.4344,908.6719 Q462.7,908.4375 463.3094,908.4375 L466.9813,908.4375 L470.3719,916.7969 Q470.9656,916.7969 471.1531,916.9375 Q471.5438,917.2031 471.5438,917.6563 Q471.5438,918.0313 471.2859,918.2656 Q471.0281,918.5 470.4188,918.5 L468.1219,918.5 Q467.5125,918.5 467.2469,918.2656 Q466.9813,918.0313 466.9813,917.6406 Q466.9813,917.2656 467.2469,917.0313 Q467.5125,916.7969 468.1219,916.7969 L468.5438,916.7969 L468.1375,915.7656 Z M467.4188,914.0625 L466.0594,910.6875 L464.6844,914.0625 L467.4188,914.0625 Z "/><text fill="#000000" font-family="sans-serif" font-size="12" font-style="italic" lengthAdjust="spacingAndGlyphs" textLength="104" x="482.05" y="918.9102">SimpleAdminBean</text><line style="stroke: #A80036; stroke-width: 1.5;" x1="442.5" x2="597.5" y1="930" y2="930"/><polygon fill="none" points="452.5,937.418,456.5,941.418,452.5,945.418,448.5,941.418" style="stroke: #B38D22; stroke-width: 1.0;"/><text fill="#000000" font-family="sans-serif" font-size="11" lengthAdjust="spacingAndGlyphs" textLength="103" x="461.5" y="945.4189">m_engine: WikiEngine</text><line style="stroke: #A80036; stroke-width: 1.5;" x1="442.5" x2="597.5" y1="951.8359" y2="951.8359"/><ellipse cx="452.5" cy="964.2539" fill="#84BE84" rx="3" ry="3" style="stroke: #038048; stroke-width: 1.0;"/><text fill="#000000" font-family="sans-serif" font-size="11" lengthAdjust="spacingAndGlyphs" textLength="122" x="461.5" y="967.2549">initialize(WikiEngine): void</text><ellipse cx="452.5" cy="978.0898" fill="#84BE84" rx="3" ry="3" style="stroke: #038048; stroke-width: 1.0;"/><text fill="#000000" font-family="sans-serif" font-size="11" lengthAdjust="spacingAndGlyphs" textLength="127" x="461.5" y="981.0908">doGet(WikiContext): String</text><ellipse cx="452.5" cy="991.9258" fill="#84BE84" rx="3" ry="3" style="stroke: #038048; stroke-width: 1.0;"/><text fill="#000000" font-family="sans-serif" font-size="11" lengthAdjust="spacingAndGlyphs" textLength="131" x="461.5" y="994.9268">doPost(WikiContext): String</text><ellipse cx="452.5" cy="1005.7617" fill="#84BE84" rx="3" ry="3" style="stroke: #038048; stroke-width: 1.0;"/><text fill="#000000" font-family="sans-serif" font-size="11" lengthAdjust="spacingAndGlyphs" textLength="65" x="461.5" y="1008.7627">getId(): String</text></a><!--class org.apache.wiki.ui.admin.DefaultAdminBeanManager--><a href="DefaultAdminBeanManager.html" target="_top" xlink:actuate="onRequest" xlink:show="new" xlink:title="DefaultAdminBeanManager.html" xlink:type="simple"><rect fill="#FEFECE" filter="url(#f183bnom4cqve7)" height="117.1797" id="org.apache.wiki.ui.admin.DefaultAdminBeanManager" style="stroke: #A80036; stroke-width: 1.5;" width="216" x="383" y="228"/><ellipse cx="412.85" cy="244" fill="#ADD1B2" rx="11" ry="11" style="stroke: #A80036; stroke-width: 1.0;"/><path d="M415.6156,239.875 Q415.7719,239.6563 415.9594,239.5469 Q416.1469,239.4375 416.3656,239.4375 Q416.7406,239.4375 416.975,239.6953 Q417.2094,239.9531 417.2094,240.5625 L417.2094,242.0156 Q417.2094,242.625 416.975,242.8906 Q416.7406,243.1563 416.3656,243.1563 Q416.0219,243.1563 415.8188,242.9531 Q415.6156,242.7656 415.5063,242.25 Q415.4594,241.8906 415.2719,241.7031 Q414.9438,241.3281 414.3344,241.1094 Q413.725,240.8906 413.1,240.8906 Q412.3344,240.8906 411.7016,241.2188 Q411.0688,241.5469 410.5766,242.2969 Q410.0844,243.0469 410.0844,244.0781 L410.0844,245.1719 Q410.0844,246.4063 410.975,247.2266 Q411.8656,248.0469 413.4594,248.0469 Q414.3969,248.0469 415.0531,247.7969 Q415.4438,247.6406 415.8656,247.2031 Q416.1313,246.9375 416.2797,246.8594 Q416.4281,246.7813 416.6313,246.7813 Q416.9594,246.7813 417.2172,247.0391 Q417.475,247.2969 417.475,247.6406 Q417.475,247.9844 417.1313,248.3906 Q416.6313,248.9688 415.8344,249.2969 Q414.7563,249.75 413.4594,249.75 Q411.9438,249.75 410.7406,249.125 Q409.7563,248.625 409.0688,247.5547 Q408.3813,246.4844 408.3813,245.2031 L408.3813,244.0469 Q408.3813,242.7188 408.9984,241.5703 Q409.6156,240.4219 410.7094,239.8047 Q411.8031,239.1875 413.0375,239.1875 Q413.7719,239.1875 414.4203,239.3516 Q415.0688,239.5156 415.6156,239.875 Z "/><text fill="#000000" font-family="sans-serif" font-size="12" lengthAdjust="spacingAndGlyphs" textLength="151" x="430.15" y="248.9102">DefaultAdminBeanManager</text><line style="stroke: #A80036; stroke-width: 1.5;" x1="384" x2="598" y1="260" y2="260"/><line style="stroke: #A80036; stroke-width: 1.5;" x1="384" x2="598" y1="268" y2="268"/><ellipse cx="394" cy="280.418" fill="#84BE84" rx="3" ry="3" style="stroke: #038048; stroke-width: 1.0;"/><text fill="#000000" font-family="sans-serif" font-size="11" lengthAdjust="spacingAndGlyphs" textLength="190" x="403" y="283.4189">DefaultAdminBeanManager(WikiEngine)</text><ellipse cx="394" cy="294.2539" fill="#84BE84" rx="3" ry="3" style="stroke: #038048; stroke-width: 1.0;"/><text fill="#000000" font-family="sans-serif" font-size="11" lengthAdjust="spacingAndGlyphs" textLength="71" x="403" y="297.2549">initialize(): void</text><ellipse cx="394" cy="308.0898" fill="#84BE84" rx="3" ry="3" style="stroke: #038048; stroke-width: 1.0;"/><text fill="#000000" font-family="sans-serif" font-size="11" lengthAdjust="spacingAndGlyphs" textLength="140" x="403" y="311.0908">findBean(String): AdminBean</text><ellipse cx="394" cy="321.9258" fill="#84BE84" rx="3" ry="3" style="stroke: #038048; stroke-width: 1.0;"/><text fill="#000000" font-family="sans-serif" font-size="11" lengthAdjust="spacingAndGlyphs" textLength="144" x="403" y="324.9268">getTypeFromString(String): int</text><ellipse cx="394" cy="335.7617" fill="#84BE84" rx="3" ry="3" style="stroke: #038048; stroke-width: 1.0;"/><text fill="#000000" font-family="sans-serif" font-size="11" lengthAdjust="spacingAndGlyphs" textLength="159" x="403" y="338.7627">actionPerformed(WikiEvent): void</text></a><!--class org.apache.wiki.ui.admin.AdminBean--><a href="AdminBean.html" target="_top" xlink:actuate="onRequest" xlink:show="new" xlink:title="AdminBean.html" xlink:type="simple"><rect fill="#FEFECE" filter="url(#f183bnom4cqve7)" height="131.0156" id="org.apache.wiki.ui.admin.AdminBean" style="stroke: #A80036; stroke-width: 1.5;" width="159" x="426.5" y="563"/><ellipse cx="469.4" cy="579" fill="#B4A7E5" rx="11" ry="11" style="stroke: #A80036; stroke-width: 1.0;"/><path d="M470.3531,575.6406 L470.3531,582.2969 L472.0719,582.2969 Q472.6813,582.2969 472.9469,582.5313 Q473.2125,582.7656 473.2125,583.1563 Q473.2125,583.5313 472.9469,583.7656 Q472.6813,584 472.0719,584 L466.9313,584 Q466.3219,584 466.0563,583.7656 Q465.7906,583.5313 465.7906,583.1406 Q465.7906,582.7656 466.0563,582.5313 Q466.3219,582.2969 466.9313,582.2969 L468.65,582.2969 L468.65,575.6406 L466.9313,575.6406 Q466.3219,575.6406 466.0563,575.4063 Q465.7906,575.1719 465.7906,574.7813 Q465.7906,574.4063 466.0563,574.1719 Q466.3219,573.9375 466.9313,573.9375 L472.0719,573.9375 Q472.6813,573.9375 472.9469,574.1719 Q473.2125,574.4063 473.2125,574.7813 Q473.2125,575.1719 472.9469,575.4063 Q472.6813,575.6406 472.0719,575.6406 L470.3531,575.6406 Z "/><text fill="#000000" font-family="sans-serif" font-size="12" font-style="italic" lengthAdjust="spacingAndGlyphs" textLength="65" x="489.6" y="583.9102">AdminBean</text><line style="stroke: #A80036; stroke-width: 1.5;" x1="427.5" x2="584.5" y1="595" y2="595"/><ellipse cx="437.5" cy="607.418" fill="none" rx="3" ry="3" style="stroke: #038048; stroke-width: 1.0;"/><text fill="#000000" font-family="sans-serif" font-size="11" lengthAdjust="spacingAndGlyphs" text-decoration="underline" textLength="70" x="446.5" y="610.4189">UNKNOWN: int</text><ellipse cx="437.5" cy="621.2539" fill="none" rx="3" ry="3" style="stroke: #038048; stroke-width: 1.0;"/><text fill="#000000" font-family="sans-serif" font-size="11" lengthAdjust="spacingAndGlyphs" text-decoration="underline" textLength="45" x="446.5" y="624.2549">CORE: int</text><ellipse cx="437.5" cy="635.0898" fill="none" rx="3" ry="3" style="stroke: #038048; stroke-width: 1.0;"/><text fill="#000000" font-family="sans-serif" font-size="11" lengthAdjust="spacingAndGlyphs" text-decoration="underline" textLength="53" x="446.5" y="638.0908">EDITOR: int</text><line style="stroke: #A80036; stroke-width: 1.5;" x1="427.5" x2="584.5" y1="644.5078" y2="644.5078"/><ellipse cx="437.5" cy="656.9258" fill="#84BE84" rx="3" ry="3" style="stroke: #038048; stroke-width: 1.0;"/><text fill="#000000" font-family="sans-serif" font-size="11" font-style="italic" lengthAdjust="spacingAndGlyphs" textLength="133" x="446.5" y="659.9268">initialize(WikiEngine): void</text><ellipse cx="437.5" cy="670.7617" fill="#84BE84" rx="3" ry="3" style="stroke: #038048; stroke-width: 1.0;"/><text fill="#000000" font-family="sans-serif" font-size="11" font-style="italic" lengthAdjust="spacingAndGlyphs" textLength="80" x="446.5" y="673.7627">getTitle(): String</text><ellipse cx="437.5" cy="684.5977" fill="#84BE84" rx="3" ry="3" style="stroke: #038048; stroke-width: 1.0;"/><text fill="#000000" font-family="sans-serif" font-size="11" font-style="italic" lengthAdjust="spacingAndGlyphs" textLength="65" x="446.5" y="687.5986">getType(): int</text></a><!--class org.apache.wiki.management.SimpleMBean--><rect fill="#FEFECE" filter="url(#f183bnom4cqve7)" height="75.6719" id="org.apache.wiki.management.SimpleMBean" style="stroke: #A80036; stroke-width: 1.5;" width="167" x="622.5" y="761"/><ellipse cx="663.6" cy="777" fill="#A9DCDF" rx="11" ry="11" style="stroke: #A80036; stroke-width: 1.0;"/><path d="M665.7875,778.7656 L661.6469,778.7656 L661.225,779.7969 L661.6469,779.7969 Q662.2563,779.7969 662.5219,780.0313 Q662.7875,780.2656 662.7875,780.6563 Q662.7875,781.0313 662.5219,781.2656 Q662.2563,781.5 661.6469,781.5 L659.35,781.5 Q658.7406,781.5 658.4828,781.2656 Q658.225,781.0313 658.225,780.6406 Q658.225,780.2656 658.4984,780.0234 Q658.7719,779.7813 659.3969,779.7969 L662.0688,773.1406 L660.9594,773.1406 Q660.35,773.1406 660.0844,772.9063 Q659.8188,772.6719 659.8188,772.2813 Q659.8188,771.9063 660.0844,771.6719 Q660.35,771.4375 660.9594,771.4375 L664.6313,771.4375 L668.0219,779.7969 Q668.6156,779.7969 668.8031,779.9375 Q669.1938,780.2031 669.1938,780.6563 Q669.1938,781.0313 668.9359,781.2656 Q668.6781,781.5 668.0688,781.5 L665.7719,781.5 Q665.1625,781.5 664.8969,781.2656 Q664.6313,781.0313 664.6313,780.6406 Q664.6313,780.2656 664.8969,780.0313 Q665.1625,779.7969 665.7719,779.7969 L666.1938,779.7969 L665.7875,778.7656 Z M665.0688,777.0625 L663.7094,773.6875 L662.3344,777.0625 L665.0688,777.0625 Z "/><text fill="#000000" font-family="sans-serif" font-size="12" font-style="italic" lengthAdjust="spacingAndGlyphs" textLength="77" x="683.4" y="781.9102">SimpleMBean</text><line style="stroke: #A80036; stroke-width: 1.5;" x1="623.5" x2="788.5" y1="793" y2="793"/><line style="stroke: #A80036; stroke-width: 1.5;" x1="623.5" x2="788.5" y1="801" y2="801"/><ellipse cx="633.5" cy="813.418" fill="#84BE84" rx="3" ry="3" style="stroke: #038048; stroke-width: 1.0;"/><text fill="#000000" font-family="sans-serif" font-size="11" font-style="italic" lengthAdjust="spacingAndGlyphs" textLength="141" x="642.5" y="816.4189">getAttributeNames(): String[]</text><ellipse cx="633.5" cy="827.2539" fill="#84BE84" rx="3" ry="3" style="stroke: #038048; stroke-width: 1.0;"/><text fill="#000000" font-family="sans-serif" font-size="11" font-style="italic" lengthAdjust="spacingAndGlyphs" textLength="135" x="642.5" y="830.2549">getMethodNames(): String[]</text><!--class org.apache.wiki.event.WikiEventListener--><rect fill="#FEFECE" filter="url(#f183bnom4cqve7)" height="61.8359" id="org.apache.wiki.event.WikiEventListener" style="stroke: #A80036; stroke-width: 1.5;" width="191" x="259.5" y="71.5"/><ellipse cx="301.5" cy="87.5" fill="#B4A7E5" rx="11" ry="11" style="stroke: #A80036; stroke-width: 1.0;"/><path d="M302.4531,84.1406 L302.4531,90.7969 L304.1719,90.7969 Q304.7813,90.7969 305.0469,91.0313 Q305.3125,91.2656 305.3125,91.6563 Q305.3125,92.0313 305.0469,92.2656 Q304.7813,92.5 304.1719,92.5 L299.0313,92.5 Q298.4219,92.5 298.1563,92.2656 Q297.8906,92.0313 297.8906,91.6406 Q297.8906,91.2656 298.1563,91.0313 Q298.4219,90.7969 299.0313,90.7969 L300.75,90.7969 L300.75,84.1406 L299.0313,84.1406 Q298.4219,84.1406 298.1563,83.9063 Q297.8906,83.6719 297.8906,83.2813 Q297.8906,82.9063 298.1563,82.6719 Q298.4219,82.4375 299.0313,82.4375 L304.1719,82.4375 Q304.7813,82.4375 305.0469,82.6719 Q305.3125,82.9063 305.3125,83.2813 Q305.3125,83.6719 305.0469,83.9063 Q304.7813,84.1406 304.1719,84.1406 L302.4531,84.1406 Z "/><text fill="#000000" font-family="sans-serif" font-size="12" font-style="italic" lengthAdjust="spacingAndGlyphs" textLength="99" x="321.5" y="92.4102">WikiEventListener</text><line style="stroke: #A80036; stroke-width: 1.5;" x1="260.5" x2="449.5" y1="103.5" y2="103.5"/><line style="stroke: #A80036; stroke-width: 1.5;" x1="260.5" x2="449.5" y1="111.5" y2="111.5"/><ellipse cx="270.5" cy="123.918" fill="#84BE84" rx="3" ry="3" style="stroke: #038048; stroke-width: 1.0;"/><text fill="#000000" font-family="sans-serif" font-size="11" font-style="italic" lengthAdjust="spacingAndGlyphs" textLength="165" x="279.5" y="126.9189">actionPerformed(WikiEvent): void</text><!--class org.apache.wiki.api.engine.AdminBeanManager--><rect fill="#FEFECE" filter="url(#f183bnom4cqve7)" height="117.1797" id="org.apache.wiki.api.engine.AdminBeanManager" style="stroke: #A80036; stroke-width: 1.5;" width="191" x="485.5" y="44"/><ellipse cx="521.2" cy="60" fill="#B4A7E5" rx="11" ry="11" style="stroke: #A80036; stroke-width: 1.0;"/><path d="M522.1531,56.6406 L522.1531,63.2969 L523.8719,63.2969 Q524.4813,63.2969 524.7469,63.5313 Q525.0125,63.7656 525.0125,64.1563 Q525.0125,64.5313 524.7469,64.7656 Q524.4813,65 523.8719,65 L518.7313,65 Q518.1219,65 517.8563,64.7656 Q517.5906,64.5313 517.5906,64.1406 Q517.5906,63.7656 517.8563,63.5313 Q518.1219,63.2969 518.7313,63.2969 L520.45,63.2969 L520.45,56.6406 L518.7313,56.6406 Q518.1219,56.6406 517.8563,56.4063 Q517.5906,56.1719 517.5906,55.7813 Q517.5906,55.4063 517.8563,55.1719 Q518.1219,54.9375 518.7313,54.9375 L523.8719,54.9375 Q524.4813,54.9375 524.7469,55.1719 Q525.0125,55.4063 525.0125,55.7813 Q525.0125,56.1719 524.7469,56.4063 Q524.4813,56.6406 523.8719,56.6406 L522.1531,56.6406 Z "/><text fill="#000000" font-family="sans-serif" font-size="12" font-style="italic" lengthAdjust="spacingAndGlyphs" textLength="113" x="539.8" y="64.9102">AdminBeanManager</text><line style="stroke: #A80036; stroke-width: 1.5;" x1="486.5" x2="675.5" y1="76" y2="76"/><line style="stroke: #A80036; stroke-width: 1.5;" x1="486.5" x2="675.5" y1="84" y2="84"/><ellipse cx="496.5" cy="96.418" fill="#84BE84" rx="3" ry="3" style="stroke: #038048; stroke-width: 1.0;"/><text fill="#000000" font-family="sans-serif" font-size="11" font-style="italic" lengthAdjust="spacingAndGlyphs" textLength="76" x="505.5" y="99.4189">initialize(): void</text><ellipse cx="496.5" cy="110.2539" fill="#84BE84" rx="3" ry="3" style="stroke: #038048; stroke-width: 1.0;"/><text fill="#000000" font-family="sans-serif" font-size="11" font-style="italic" lengthAdjust="spacingAndGlyphs" textLength="159" x="505.5" y="113.2549">getAllBeans(): List&lt;AdminBean&gt;</text><ellipse cx="496.5" cy="124.0898" fill="#84BE84" rx="3" ry="3" style="stroke: #038048; stroke-width: 1.0;"/><text fill="#000000" font-family="sans-serif" font-size="11" font-style="italic" lengthAdjust="spacingAndGlyphs" textLength="142" x="505.5" y="127.0908">findBean(String): AdminBean</text><ellipse cx="496.5" cy="137.9258" fill="#84BE84" rx="3" ry="3" style="stroke: #038048; stroke-width: 1.0;"/><text fill="#000000" font-family="sans-serif" font-size="11" font-style="italic" lengthAdjust="spacingAndGlyphs" textLength="165" x="505.5" y="140.9268">actionPerformed(WikiEvent): void</text><ellipse cx="496.5" cy="151.7617" fill="#84BE84" rx="3" ry="3" style="stroke: #038048; stroke-width: 1.0;"/><text fill="#000000" font-family="sans-serif" font-size="11" font-style="italic" lengthAdjust="spacingAndGlyphs" textLength="149" x="505.5" y="154.7627">getTypeFromString(String): int</text><!--class org.apache.wiki.ui.GenericHTTPHandler--><rect fill="#FEFECE" filter="url(#f183bnom4cqve7)" height="89.5078" id="org.apache.wiki.ui.GenericHTTPHandler" style="stroke: #A80036; stroke-width: 1.5;" width="164" x="623" y="412"/><ellipse cx="644.3" cy="428" fill="#B4A7E5" rx="11" ry="11" style="stroke: #A80036; stroke-width: 1.0;"/><path d="M645.2531,424.6406 L645.2531,431.2969 L646.9719,431.2969 Q647.5813,431.2969 647.8469,431.5313 Q648.1125,431.7656 648.1125,432.1563 Q648.1125,432.5313 647.8469,432.7656 Q647.5813,433 646.9719,433 L641.8313,433 Q641.2219,433 640.9563,432.7656 Q640.6906,432.5313 640.6906,432.1406 Q640.6906,431.7656 640.9563,431.5313 Q641.2219,431.2969 641.8313,431.2969 L643.55,431.2969 L643.55,424.6406 L641.8313,424.6406 Q641.2219,424.6406 640.9563,424.4063 Q640.6906,424.1719 640.6906,423.7813 Q640.6906,423.4063 640.9563,423.1719 Q641.2219,422.9375 641.8313,422.9375 L646.9719,422.9375 Q647.5813,422.9375 647.8469,423.1719 Q648.1125,423.4063 648.1125,423.7813 Q648.1125,424.1719 647.8469,424.4063 Q647.5813,424.6406 646.9719,424.6406 L645.2531,424.6406 Z "/><text fill="#000000" font-family="sans-serif" font-size="12" font-style="italic" lengthAdjust="spacingAndGlyphs" textLength="118" x="659.7" y="432.9102">GenericHTTPHandler</text><line style="stroke: #A80036; stroke-width: 1.5;" x1="624" x2="786" y1="444" y2="444"/><line style="stroke: #A80036; stroke-width: 1.5;" x1="624" x2="786" y1="452" y2="452"/><ellipse cx="634" cy="464.418" fill="#84BE84" rx="3" ry="3" style="stroke: #038048; stroke-width: 1.0;"/><text fill="#000000" font-family="sans-serif" font-size="11" font-style="italic" lengthAdjust="spacingAndGlyphs" textLength="67" x="643" y="467.4189">getId(): String</text><ellipse cx="634" cy="478.2539" fill="#84BE84" rx="3" ry="3" style="stroke: #038048; stroke-width: 1.0;"/><text fill="#000000" font-family="sans-serif" font-size="11" font-style="italic" lengthAdjust="spacingAndGlyphs" textLength="134" x="643" y="481.2549">doGet(WikiContext): String</text><ellipse cx="634" cy="492.0898" fill="#84BE84" rx="3" ry="3" style="stroke: #038048; stroke-width: 1.0;"/><text fill="#000000" font-family="sans-serif" font-size="11" font-style="italic" lengthAdjust="spacingAndGlyphs" textLength="138" x="643" y="495.0908">doPost(WikiContext): String</text><!--link org.apache.wiki.ui.admin.AdminBean to org.apache.wiki.ui.admin.WikiFormAdminBean--><path d="M434.2227,709.1266 C379.8686,770.1818 306.817,852.2398 260.06,904.7614 " fill="none" id="org.apache.wiki.ui.admin.AdminBean-org.apache.wiki.ui.admin.WikiFormAdminBean" style="stroke: #A80036; stroke-width: 1.0; stroke-dasharray: 7.0,7.0;"/><polygon fill="none" points="429.0843,704.371,447.6112,694.0874,439.541,713.68,429.0843,704.371" style="stroke: #A80036; stroke-width: 1.0;"/><!--link org.apache.wiki.management.SimpleMBean to org.apache.wiki.ui.admin.SimpleAdminBean--><path d="M645.4418,850.2791 C627.5079,865.4651 607.734,882.2091 589.2926,897.8248 " fill="none" id="org.apache.wiki.management.SimpleMBean-org.apache.wiki.ui.admin.SimpleAdminBean" style="stroke: #A80036; stroke-width: 1.0;"/><polygon fill="none" points="641.188,844.7087,660.9746,837.1264,650.235,855.3928,641.188,844.7087" style="stroke: #A80036; stroke-width: 1.0;"/><!--link org.apache.wiki.ui.admin.AdminBean to org.apache.wiki.ui.admin.SimpleAdminBean--><path d="M509.6561,714.1562 C512.1242,771.9813 515.3173,846.7915 517.4989,897.9023 " fill="none" id="org.apache.wiki.ui.admin.AdminBean-org.apache.wiki.ui.admin.SimpleAdminBean" style="stroke: #A80036; stroke-width: 1.0; stroke-dasharray: 7.0,7.0;"/><polygon fill="none" points="502.6588,714.3677,508.7995,694.0874,516.6461,713.7706,502.6588,714.3677" style="stroke: #A80036; stroke-width: 1.0;"/><!--link org.apache.wiki.event.WikiEventListener to org.apache.wiki.ui.admin.DefaultAdminBeanManager--><path d="M390.0916,149.9769 C407.6711,173.7609 429.1171,202.776 447.7103,227.9316 " fill="none" id="org.apache.wiki.event.WikiEventListener-org.apache.wiki.ui.admin.DefaultAdminBeanManager" style="stroke: #A80036; stroke-width: 1.0; stroke-dasharray: 7.0,7.0;"/><polygon fill="none" points="384.3292,153.9574,378.0705,133.7131,395.5876,145.6359,384.3292,153.9574" style="stroke: #A80036; stroke-width: 1.0;"/><!--link org.apache.wiki.api.engine.AdminBeanManager to org.apache.wiki.ui.admin.DefaultAdminBeanManager--><path d="M543.3781,179.416 C535.4807,195.5618 527.2716,212.3447 519.7598,227.7022 " fill="none" id="org.apache.wiki.api.engine.AdminBeanManager-org.apache.wiki.ui.admin.DefaultAdminBeanManager" style="stroke: #A80036; stroke-width: 1.0; stroke-dasharray: 7.0,7.0;"/><polygon fill="none" points="537.2001,176.1149,552.276,161.2246,549.7763,182.2663,537.2001,176.1149" style="stroke: #A80036; stroke-width: 1.0;"/><!--link org.apache.wiki.ui.GenericHTTPHandler to org.apache.wiki.ui.admin.AdminBean--><path d="M637.553,515.1264 C619.7769,530.4461 600.4725,547.0827 582.2673,562.7722 " fill="none" id="org.apache.wiki.ui.GenericHTTPHandler-org.apache.wiki.ui.admin.AdminBean" style="stroke: #A80036; stroke-width: 1.0; stroke-dasharray: 7.0,7.0;"/><polygon fill="none" points="632.9951,509.8136,652.7151,502.0596,642.1347,520.4187,632.9951,509.8136" style="stroke: #A80036; stroke-width: 1.0;"/><!--link org.apache.wiki.ui.admin.DefaultAdminBeanManager to org.apache.wiki.ui.admin.AdminBean--><path d="M493.5786,345.2919 C496.1613,404.1778 500.1381,494.8479 502.8932,557.6652 " fill="none" id="org.apache.wiki.ui.admin.DefaultAdminBeanManager-org.apache.wiki.ui.admin.AdminBean" style="stroke: #A80036; stroke-width: 1.0;"/><polygon fill="#A80036" points="503.1226,562.8957,506.7243,553.729,502.9035,557.9005,498.732,554.0797,503.1226,562.8957" style="stroke: #A80036; stroke-width: 1.0;"/><text fill="#000000" font-family="sans-serif" font-size="13" lengthAdjust="spacingAndGlyphs" textLength="50" x="501" y="462.4951">allBeans</text><text fill="#000000" font-family="sans-serif" font-size="13" lengthAdjust="spacingAndGlyphs" textLength="5" x="497.5344" y="552.3587">*</text><text fill="#888888" font-family="sans-serif" font-size="10" lengthAdjust="spacingAndGlyphs" textLength="184" x="338.5" y="1051.3809">UMLDoclet 1.1.4, PlantUML 1.2019.05</text><!--
@startuml

    namespace org.apache.wiki.ui.admin {

        abstract class WikiFormAdminBean [[WikiFormAdminBean.html]] {
            +doGet(WikiContext): String
            +handlePost(WikiContext, HttpServletRequest, HttpServletResponse): String
            {abstract} +getForm(WikiContext): String
            {abstract} +handleResponse(WikiContext, Map<?, ?>): void
        }

        abstract class SimpleAdminBean [[SimpleAdminBean.html]] {
            #m_engine: WikiEngine
            +initialize(WikiEngine): void
            +doGet(WikiContext): String
            +doPost(WikiContext): String
            +getId(): String
        }

        class DefaultAdminBeanManager [[DefaultAdminBeanManager.html]] {
            +DefaultAdminBeanManager(WikiEngine)
            +initialize(): void
            +findBean(String): AdminBean
            +getTypeFromString(String): int
            +actionPerformed(WikiEvent): void
        }

        interface AdminBean [[AdminBean.html]] {
            {static} +UNKNOWN: int
            {static} +CORE: int
            {static} +EDITOR: int
            {abstract} +initialize(WikiEngine): void
            {abstract} +getTitle(): String
            {abstract} +getType(): int
        }

        AdminBean <|.. WikiFormAdminBean

        abstract class org.apache.wiki.management.SimpleMBean {
            {abstract} +getAttributeNames(): String[]
            {abstract} +getMethodNames(): String[]
        }
        org.apache.wiki.management.SimpleMBean <|- - SimpleAdminBean

        AdminBean <|.. SimpleAdminBean

        interface org.apache.wiki.event.WikiEventListener {
            {abstract} +actionPerformed(WikiEvent): void
        }
        org.apache.wiki.event.WikiEventListener <|.. DefaultAdminBeanManager

        interface org.apache.wiki.api.engine.AdminBeanManager {
            {abstract} +initialize(): void
            {abstract} +getAllBeans(): List<AdminBean>
            {abstract} +findBean(String): AdminBean
            {abstract} +actionPerformed(WikiEvent): void
            {abstract} +getTypeFromString(String): int
        }
        org.apache.wiki.api.engine.AdminBeanManager <|.. DefaultAdminBeanManager

        interface org.apache.wiki.ui.GenericHTTPHandler {
            {abstract} +getId(): String
            {abstract} +doGet(WikiContext): String
            {abstract} +doPost(WikiContext): String
        }
        org.apache.wiki.ui.GenericHTTPHandler <|.. AdminBean

        DefaultAdminBeanManager - -> "*" AdminBean: allBeans

    }


    center footer UMLDoclet 1.1.4, PlantUML 1.2019.05
@enduml

PlantUML version 1.2019.05(Sat Apr 20 18:45:36 CEST 2019)
(APACHE source distribution)
Java Runtime: OpenJDK Runtime Environment
JVM: OpenJDK 64-Bit Server VM
Java Version: 1.8.0_212-b03
Operating System: Windows 10
OS Version: 10.0
Default Encoding: Cp1252
Language: es
Country: ES
--></g></svg>