<?xml version="1.0" encoding="UTF-8" standalone="no"?><svg xmlns="http://www.w3.org/2000/svg" xmlns:xlink="http://www.w3.org/1999/xlink" contentScriptType="application/ecmascript" contentStyleType="text/css" height="101px" preserveAspectRatio="none" style="width:266px;height:101px;" version="1.1" viewBox="0 0 266 101" width="266px" zoomAndPan="magnify"><defs><filter height="300%" id="fo623bzwrglho" width="300%" x="-1" y="-1"><feGaussianBlur result="blurOut" stdDeviation="2.0"/><feColorMatrix in="blurOut" result="blurOut2" type="matrix" values="0 0 0 0 0 0 0 0 0 0 0 0 0 0 0 0 0 0 .4 0"/><feOffset dx="4.0" dy="4.0" in="blurOut2" result="blurOut3"/><feBlend in="SourceGraphic" in2="blurOut3" mode="normal"/></filter></defs><g><!--class AdminBeanIteratorInfo--><a href="AdminBeanIteratorInfo.html" target="_top" xlink:actuate="onRequest" xlink:show="new" xlink:title="AdminBeanIteratorInfo.html" xlink:type="simple"><rect fill="#FEFECE" filter="url(#fo623bzwrglho)" height="60.8047" id="AdminBeanIteratorInfo" style="stroke: #A80036; stroke-width: 1.5;" width="249" x="6" y="8"/><ellipse cx="56.25" cy="24" fill="#ADD1B2" rx="11" ry="11" style="stroke: #A80036; stroke-width: 1.0;"/><path d="M59.2188,29.6406 Q58.6406,29.9375 58,30.0859 Q57.3594,30.2344 56.6563,30.2344 Q54.1563,30.2344 52.8359,28.5859 Q51.5156,26.9375 51.5156,23.8125 Q51.5156,20.6875 52.8359,19.0313 Q54.1563,17.375 56.6563,17.375 Q57.3594,17.375 58.0078,17.5313 Q58.6563,17.6875 59.2188,17.9844 L59.2188,20.7031 Q58.5938,20.125 58,19.8516 Q57.4063,19.5781 56.7813,19.5781 Q55.4375,19.5781 54.75,20.6484 Q54.0625,21.7188 54.0625,23.8125 Q54.0625,25.9063 54.75,26.9766 Q55.4375,28.0469 56.7813,28.0469 Q57.4063,28.0469 58,27.7734 Q58.5938,27.5 59.2188,26.9219 L59.2188,29.6406 Z "/><text fill="#000000" font-family="sans-serif" font-size="12" lengthAdjust="spacingAndGlyphs" textLength="140" x="76.75" y="28.1543">AdminBeanIteratorInfo</text><line style="stroke: #A80036; stroke-width: 1.5;" x1="7" x2="254" y1="40" y2="40"/><line style="stroke: #A80036; stroke-width: 1.5;" x1="7" x2="254" y1="48" y2="48"/><ellipse cx="17" cy="59.9023" fill="#84BE84" rx="3" ry="3" style="stroke: #038048; stroke-width: 1.0;"/><text fill="#000000" font-family="sans-serif" font-size="11" lengthAdjust="spacingAndGlyphs" textLength="223" x="26" y="62.2104">getVariableInfo(TagData): VariableInfo[]</text></a><text fill="#888888" font-family="sans-serif" font-size="10" lengthAdjust="spacingAndGlyphs" textLength="186" x="43.5" y="88.2822">UMLDoclet 1.1.4, PlantUML 1.2019.05</text><!--
@startuml

    class AdminBeanIteratorInfo [[AdminBeanIteratorInfo.html]] {
        +getVariableInfo(TagData): VariableInfo[]
    }


    center footer UMLDoclet 1.1.4, PlantUML 1.2019.05
@enduml

PlantUML version 1.2019.05(Sat Apr 20 16:45:36 UTC 2019)
(APACHE source distribution)
Java Runtime: Java(TM) SE Runtime Environment
JVM: Java HotSpot(TM) 64-Bit Server VM
Java Version: 1.8.0_241-b07
Operating System: Linux
OS Version: 4.15.0-76-generic
Default Encoding: ISO-8859-1
Language: en
Country: US
--></g></svg>