<?xml version="1.0" encoding="UTF-8" standalone="no"?><svg xmlns="http://www.w3.org/2000/svg" xmlns:xlink="http://www.w3.org/1999/xlink" contentScriptType="application/ecmascript" contentStyleType="text/css" height="362px" preserveAspectRatio="none" style="width:378px;height:362px;" version="1.1" viewBox="0 0 378 362" width="378px" zoomAndPan="magnify"><defs><filter height="300%" id="f1fijavie160h" width="300%" x="-1" y="-1"><feGaussianBlur result="blurOut" stdDeviation="2.0"/><feColorMatrix in="blurOut" result="blurOut2" type="matrix" values="0 0 0 0 0 0 0 0 0 0 0 0 0 0 0 0 0 0 .4 0"/><feOffset dx="4.0" dy="4.0" in="blurOut2" result="blurOut3"/><feBlend in="SourceGraphic" in2="blurOut3" mode="normal"/></filter></defs><g><!--cluster org.apache.wiki.tasks--><polygon fill="#FFFFFF" filter="url(#f1fijavie160h)" points="14,16,192,16,199,38.2969,356,38.2969,356,322,14,322,14,16" style="stroke: #000000; stroke-width: 1.5;"/><line style="stroke: #000000; stroke-width: 1.5;" x1="14" x2="199" y1="38.2969" y2="38.2969"/><text fill="#000000" font-family="sans-serif" font-size="14" font-weight="bold" lengthAdjust="spacingAndGlyphs" textLength="172" x="18" y="30.9951">org.apache.wiki.tasks</text><!--class org.apache.wiki.tasks.DefaultTasksManager--><a href="DefaultTasksManager.html" target="_top" xlink:actuate="onRequest" xlink:show="new" xlink:title="DefaultTasksManager.html" xlink:type="simple"><rect fill="#FEFECE" filter="url(#f1fijavie160h)" height="86.4141" id="org.apache.wiki.tasks.DefaultTasksManager" style="stroke: #A80036; stroke-width: 1.5;" width="324" x="23" y="228"/><ellipse cx="112.75" cy="244" fill="#ADD1B2" rx="11" ry="11" style="stroke: #A80036; stroke-width: 1.0;"/><path d="M115.7188,249.6406 Q115.1406,249.9375 114.5,250.0859 Q113.8594,250.2344 113.1563,250.2344 Q110.6563,250.2344 109.3359,248.5859 Q108.0156,246.9375 108.0156,243.8125 Q108.0156,240.6875 109.3359,239.0313 Q110.6563,237.375 113.1563,237.375 Q113.8594,237.375 114.5078,237.5313 Q115.1563,237.6875 115.7188,237.9844 L115.7188,240.7031 Q115.0938,240.125 114.5,239.8516 Q113.9063,239.5781 113.2813,239.5781 Q111.9375,239.5781 111.25,240.6484 Q110.5625,241.7188 110.5625,243.8125 Q110.5625,245.9063 111.25,246.9766 Q111.9375,248.0469 113.2813,248.0469 Q113.9063,248.0469 114.5,247.7734 Q115.0938,247.5 115.7188,246.9219 L115.7188,249.6406 Z "/><text fill="#000000" font-family="sans-serif" font-size="12" lengthAdjust="spacingAndGlyphs" textLength="136" x="133.25" y="248.1543">DefaultTasksManager</text><line style="stroke: #A80036; stroke-width: 1.5;" x1="24" x2="346" y1="260" y2="260"/><line style="stroke: #A80036; stroke-width: 1.5;" x1="24" x2="346" y1="268" y2="268"/><ellipse cx="34" cy="279.9023" fill="#84BE84" rx="3" ry="3" style="stroke: #038048; stroke-width: 1.0;"/><text fill="#000000" font-family="sans-serif" font-size="11" lengthAdjust="spacingAndGlyphs" textLength="298" x="43" y="282.2104">buildPreSaveWikiPageTask(WikiContext, String): Step</text><ellipse cx="34" cy="292.707" fill="#84BE84" rx="3" ry="3" style="stroke: #038048; stroke-width: 1.0;"/><text fill="#000000" font-family="sans-serif" font-size="11" lengthAdjust="spacingAndGlyphs" textLength="173" x="43" y="295.0151">buildSaveWikiPageTask(): Step</text><ellipse cx="34" cy="305.5117" fill="#84BE84" rx="3" ry="3" style="stroke: #038048; stroke-width: 1.0;"/><text fill="#000000" font-family="sans-serif" font-size="11" lengthAdjust="spacingAndGlyphs" textLength="290" x="43" y="307.8198">buildSaveUserProfileTask(WikiEngine, Locale): Step</text></a><!--class org.apache.wiki.tasks.TasksManager--><a href="TasksManager.html" target="_top" xlink:actuate="onRequest" xlink:show="new" xlink:title="TasksManager.html" xlink:type="simple"><rect fill="#FEFECE" filter="url(#f1fijavie160h)" height="124.8281" id="org.apache.wiki.tasks.TasksManager" style="stroke: #A80036; stroke-width: 1.5;" width="326" x="22" y="43"/><ellipse cx="136.25" cy="59" fill="#B4A7E5" rx="11" ry="11" style="stroke: #A80036; stroke-width: 1.0;"/><path d="M132.1719,54.7656 L132.1719,52.6094 L139.5625,52.6094 L139.5625,54.7656 L137.0938,54.7656 L137.0938,62.8438 L139.5625,62.8438 L139.5625,65 L132.1719,65 L132.1719,62.8438 L134.6406,62.8438 L134.6406,54.7656 L132.1719,54.7656 Z "/><text fill="#000000" font-family="sans-serif" font-size="12" font-style="italic" lengthAdjust="spacingAndGlyphs" textLength="89" x="156.75" y="63.1543">TasksManager</text><line style="stroke: #A80036; stroke-width: 1.5;" x1="23" x2="347" y1="75" y2="75"/><ellipse cx="33" cy="86.9023" fill="none" rx="3" ry="3" style="stroke: #038048; stroke-width: 1.0;"/><text fill="#000000" font-family="sans-serif" font-size="11" lengthAdjust="spacingAndGlyphs" text-decoration="underline" textLength="273" x="42" y="89.2104">WIKIPAGE_PRESAVE_TASK_MESSAGE_KEY: String</text><ellipse cx="33" cy="99.707" fill="none" rx="3" ry="3" style="stroke: #038048; stroke-width: 1.0;"/><text fill="#000000" font-family="sans-serif" font-size="11" lengthAdjust="spacingAndGlyphs" text-decoration="underline" textLength="252" x="42" y="102.0151">WIKIPAGE_SAVE_TASK_MESSAGE_KEY: String</text><ellipse cx="33" cy="112.5117" fill="none" rx="3" ry="3" style="stroke: #038048; stroke-width: 1.0;"/><text fill="#000000" font-family="sans-serif" font-size="11" lengthAdjust="spacingAndGlyphs" text-decoration="underline" textLength="281" x="42" y="114.8198">USER_PROFILE_SAVE_TASK_MESSAGE_KEY: String</text><line style="stroke: #A80036; stroke-width: 1.5;" x1="23" x2="347" y1="121.4141" y2="121.4141"/><ellipse cx="33" cy="133.3164" fill="#84BE84" rx="3" ry="3" style="stroke: #038048; stroke-width: 1.0;"/><text fill="#000000" font-family="sans-serif" font-size="11" font-style="italic" lengthAdjust="spacingAndGlyphs" textLength="300" x="42" y="135.6245">buildPreSaveWikiPageTask(WikiContext, String): Step</text><ellipse cx="33" cy="146.1211" fill="#84BE84" rx="3" ry="3" style="stroke: #038048; stroke-width: 1.0;"/><text fill="#000000" font-family="sans-serif" font-size="11" font-style="italic" lengthAdjust="spacingAndGlyphs" textLength="173" x="42" y="148.4292">buildSaveWikiPageTask(): Step</text><ellipse cx="33" cy="158.9258" fill="#84BE84" rx="3" ry="3" style="stroke: #038048; stroke-width: 1.0;"/><text fill="#000000" font-family="sans-serif" font-size="11" font-style="italic" lengthAdjust="spacingAndGlyphs" textLength="289" x="42" y="161.2339">buildSaveUserProfileTask(WikiEngine, Locale): Step</text></a><!--link org.apache.wiki.tasks.TasksManager to org.apache.wiki.tasks.DefaultTasksManager--><path d="M185,188.0723 C185,201.8503 185,215.635 185,227.8983 " fill="none" id="org.apache.wiki.tasks.TasksManager-org.apache.wiki.tasks.DefaultTasksManager" style="stroke: #A80036; stroke-width: 1.0; stroke-dasharray: 7.0,7.0;"/><polygon fill="none" points="178.0001,188.0685,185,168.0685,192.0001,188.0684,178.0001,188.0685" style="stroke: #A80036; stroke-width: 1.0;"/><text fill="#888888" font-family="sans-serif" font-size="10" lengthAdjust="spacingAndGlyphs" textLength="186" x="98" y="349.2822">UMLDoclet 1.1.4, PlantUML 1.2019.05</text><!--
@startuml

    namespace org.apache.wiki.tasks {

        class DefaultTasksManager [[DefaultTasksManager.html]] {
            +buildPreSaveWikiPageTask(WikiContext, String): Step
            +buildSaveWikiPageTask(): Step
            +buildSaveUserProfileTask(WikiEngine, Locale): Step
        }

        interface TasksManager [[TasksManager.html]] {
            {static} +WIKIPAGE_PRESAVE_TASK_MESSAGE_KEY: String
            {static} +WIKIPAGE_SAVE_TASK_MESSAGE_KEY: String
            {static} +USER_PROFILE_SAVE_TASK_MESSAGE_KEY: String
            {abstract} +buildPreSaveWikiPageTask(WikiContext, String): Step
            {abstract} +buildSaveWikiPageTask(): Step
            {abstract} +buildSaveUserProfileTask(WikiEngine, Locale): Step
        }

        TasksManager <|.. DefaultTasksManager

    }


    center footer UMLDoclet 1.1.4, PlantUML 1.2019.05
@enduml

PlantUML version 1.2019.05(Sat Apr 20 16:45:36 UTC 2019)
(APACHE source distribution)
Java Runtime: Java(TM) SE Runtime Environment
JVM: Java HotSpot(TM) 64-Bit Server VM
Java Version: 1.8.0_191-b12
Operating System: Linux
OS Version: 4.15.0-60-generic
Default Encoding: ISO-8859-1
Language: en
Country: US
--></g></svg>