<?xml version="1.0" encoding="UTF-8" standalone="no"?><svg xmlns="http://www.w3.org/2000/svg" xmlns:xlink="http://www.w3.org/1999/xlink" contentScriptType="application/ecmascript" contentStyleType="text/css" height="556px" preserveAspectRatio="none" style="width:998px;height:556px;background:#FFFFFF;" version="1.1" viewBox="0 0 998 556" width="998px" zoomAndPan="magnify"><defs><filter height="300%" id="fgqw85euttsj0" width="300%" x="-1" y="-1"><feGaussianBlur result="blurOut" stdDeviation="2.0"/><feColorMatrix in="blurOut" result="blurOut2" type="matrix" values="0 0 0 0 0 0 0 0 0 0 0 0 0 0 0 0 0 0 .4 0"/><feOffset dx="4.0" dy="4.0" in="blurOut2" result="blurOut3"/><feBlend in="SourceGraphic" in2="blurOut3" mode="normal"/></filter></defs><g><!--MD5=[cf20ada5cc6025b15a12d1d79d6dc947]
cluster org.apache.wiki.cache--><polygon fill="#FFFFFF" filter="url(#fgqw85euttsj0)" points="16,6,199,6,206,28.2969,709,28.2969,709,533,16,533,16,6" style="stroke:#000000;stroke-width:1.5;"/><line style="stroke:#000000;stroke-width:1.5;" x1="16" x2="206" y1="28.2969" y2="28.2969"/><text fill="#000000" font-family="sans-serif" font-size="14" font-weight="bold" lengthAdjust="spacing" textLength="177" x="20" y="20.9951">org.apache.wiki.cache</text><!--MD5=[06e4b2620a8b168056b961578cd367b2]
cluster org.apache.wiki.api.engine--><polygon fill="#FFFFFF" filter="url(#fgqw85euttsj0)" points="733,108.5,951,108.5,958,130.7969,981,130.7969,981,220.5,733,220.5,733,108.5" style="stroke:#000000;stroke-width:1.5;"/><line style="stroke:#000000;stroke-width:1.5;" x1="733" x2="958" y1="130.7969" y2="130.7969"/><text fill="#000000" font-family="sans-serif" font-size="14" font-weight="bold" lengthAdjust="spacing" textLength="212" x="737" y="123.4951">org.apache.wiki.api.engine</text><!--MD5=[3a6c2a3d7bc82cc568ce964c85437692]
class org.apache.wiki.cache.CachingManager--><a href="CachingManager.html" target="_top" title="CachingManager.html" xlink:actuate="onRequest" xlink:href="CachingManager.html" xlink:show="new" xlink:title="CachingManager.html" xlink:type="simple"><rect codeLine="3" fill="#FEFECE" filter="url(#fgqw85euttsj0)" height="265.6797" id="org.apache.wiki.cache.CachingManager" style="stroke:#A80036;stroke-width:1.5;" width="423" x="269.5" y="41"/><ellipse cx="424.25" cy="57" fill="#B4A7E5" rx="11" ry="11" style="stroke:#A80036;stroke-width:1.0;"/><path d="M420.1719,52.7656 L420.1719,50.6094 L427.5625,50.6094 L427.5625,52.7656 L425.0938,52.7656 L425.0938,60.8438 L427.5625,60.8438 L427.5625,63 L420.1719,63 L420.1719,60.8438 L422.6406,60.8438 L422.6406,52.7656 L420.1719,52.7656 Z " fill="#000000"/><text fill="#000000" font-family="sans-serif" font-size="12" font-style="italic" lengthAdjust="spacing" textLength="105" x="444.75" y="61.1543">CachingManager</text><line style="stroke:#A80036;stroke-width:1.5;" x1="270.5" x2="691.5" y1="73" y2="73"/><ellipse cx="280.5" cy="84" rx="3" ry="3" style="stroke:#038048;stroke-width:1.0;fill:none;"/><text fill="#000000" font-family="sans-serif" font-size="11" lengthAdjust="spacing" text-decoration="underline" textLength="176" x="289.5" y="87.2104">PROP_USECACHE_DEPRECATED</text><text fill="#000000" font-family="sans-serif" font-size="11" lengthAdjust="spacing" text-decoration="underline" textLength="42" x="465.5" y="87.2104">: String</text><ellipse cx="280.5" cy="96.8047" rx="3" ry="3" style="stroke:#038048;stroke-width:1.0;fill:none;"/><text fill="#000000" font-family="sans-serif" font-size="11" lengthAdjust="spacing" text-decoration="underline" textLength="165" x="289.5" y="100.0151">PROP_CACHE_ENABLE: String</text><ellipse cx="280.5" cy="109.6094" rx="3" ry="3" style="stroke:#038048;stroke-width:1.0;fill:none;"/><text fill="#000000" font-family="sans-serif" font-size="11" lengthAdjust="spacing" text-decoration="underline" textLength="181" x="289.5" y="112.8198">PROP_CACHE_CONF_FILE: String</text><ellipse cx="280.5" cy="122.4141" rx="3" ry="3" style="stroke:#038048;stroke-width:1.0;fill:none;"/><text fill="#000000" font-family="sans-serif" font-size="11" lengthAdjust="spacing" text-decoration="underline" textLength="169" x="289.5" y="125.6245">CACHE_ATTACHMENTS: String</text><ellipse cx="280.5" cy="135.2188" rx="3" ry="3" style="stroke:#038048;stroke-width:1.0;fill:none;"/><text fill="#000000" font-family="sans-serif" font-size="11" lengthAdjust="spacing" text-decoration="underline" textLength="246" x="289.5" y="138.4292">CACHE_ATTACHMENTS_COLLECTION: String</text><ellipse cx="280.5" cy="148.0234" rx="3" ry="3" style="stroke:#038048;stroke-width:1.0;fill:none;"/><text fill="#000000" font-family="sans-serif" font-size="11" lengthAdjust="spacing" text-decoration="underline" textLength="225" x="289.5" y="151.2339">CACHE_ATTACHMENTS_DYNAMIC: String</text><ellipse cx="280.5" cy="160.8281" rx="3" ry="3" style="stroke:#038048;stroke-width:1.0;fill:none;"/><text fill="#000000" font-family="sans-serif" font-size="11" lengthAdjust="spacing" text-decoration="underline" textLength="124" x="289.5" y="164.0386">CACHE_PAGES: String</text><ellipse cx="280.5" cy="173.6328" rx="3" ry="3" style="stroke:#038048;stroke-width:1.0;fill:none;"/><text fill="#000000" font-family="sans-serif" font-size="11" lengthAdjust="spacing" text-decoration="underline" textLength="158" x="289.5" y="176.8433">CACHE_PAGES_TEXT: String</text><ellipse cx="280.5" cy="186.4375" rx="3" ry="3" style="stroke:#038048;stroke-width:1.0;fill:none;"/><text fill="#000000" font-family="sans-serif" font-size="11" lengthAdjust="spacing" text-decoration="underline" textLength="179" x="289.5" y="189.6479">CACHE_PAGES_HISTORY: String</text><ellipse cx="280.5" cy="199.2422" rx="3" ry="3" style="stroke:#038048;stroke-width:1.0;fill:none;"/><text fill="#000000" font-family="sans-serif" font-size="11" lengthAdjust="spacing" text-decoration="underline" textLength="158" x="289.5" y="202.4526">CACHE_DOCUMENTS: String</text><line style="stroke:#A80036;stroke-width:1.5;" x1="270.5" x2="691.5" y1="209.0469" y2="209.0469"/><ellipse cx="280.5" cy="220.0469" fill="#84BE84" rx="3" ry="3" style="stroke:#038048;stroke-width:1.0;"/><text fill="#000000" font-family="sans-serif" font-size="11" font-style="italic" lengthAdjust="spacing" textLength="94" x="289.5" y="223.2573">shutdown(): void</text><ellipse cx="280.5" cy="232.8516" fill="#84BE84" rx="3" ry="3" style="stroke:#038048;stroke-width:1.0;"/><text fill="#000000" font-family="sans-serif" font-size="11" font-style="italic" lengthAdjust="spacing" textLength="139" x="289.5" y="236.062">enabled(String): boolean</text><ellipse cx="280.5" cy="245.6563" fill="#84BE84" rx="3" ry="3" style="stroke:#038048;stroke-width:1.0;"/><text fill="#000000" font-family="sans-serif" font-size="11" font-style="italic" lengthAdjust="spacing" textLength="126" x="289.5" y="248.8667">info(String): CacheInfo</text><ellipse cx="280.5" cy="258.4609" fill="#84BE84" rx="3" ry="3" style="stroke:#038048;stroke-width:1.0;"/><text fill="#000000" font-family="sans-serif" font-size="11" font-style="italic" lengthAdjust="spacing" textLength="237" x="289.5" y="261.6714">keys(String): List&lt;T extends Serializable&gt;</text><ellipse cx="280.5" cy="271.2656" fill="#84BE84" rx="3" ry="3" style="stroke:#038048;stroke-width:1.0;"/><text fill="#000000" font-family="sans-serif" font-size="11" font-style="italic" lengthAdjust="spacing" textLength="397" x="289.5" y="274.4761">get(String, Serializable, CheckedSupplier&lt;T, E extends Exception&gt;): T</text><ellipse cx="280.5" cy="284.0703" fill="#84BE84" rx="3" ry="3" style="stroke:#038048;stroke-width:1.0;"/><text fill="#000000" font-family="sans-serif" font-size="11" font-style="italic" lengthAdjust="spacing" textLength="208" x="289.5" y="287.2808">put(String, Serializable, Object): void</text><ellipse cx="280.5" cy="296.875" fill="#84BE84" rx="3" ry="3" style="stroke:#038048;stroke-width:1.0;"/><text fill="#000000" font-family="sans-serif" font-size="11" font-style="italic" lengthAdjust="spacing" textLength="190" x="289.5" y="300.0854">remove(String, Serializable): void</text></a><!--MD5=[4bfdfaca1e8c29230d5e9763d3dd41bf]
class org.apache.wiki.cache.EhcacheCachingManager--><a href="EhcacheCachingManager.html" target="_top" title="EhcacheCachingManager.html" xlink:actuate="onRequest" xlink:href="EhcacheCachingManager.html" xlink:show="new" xlink:title="EhcacheCachingManager.html" xlink:type="simple"><rect codeLine="23" fill="#FEFECE" filter="url(#fgqw85euttsj0)" height="150.4375" id="org.apache.wiki.cache.EhcacheCachingManager" style="stroke:#A80036;stroke-width:1.5;" width="424" x="269" y="367"/><ellipse cx="397.25" cy="383" fill="#ADD1B2" rx="11" ry="11" style="stroke:#A80036;stroke-width:1.0;"/><path d="M400.2188,388.6406 Q399.6406,388.9375 399,389.0781 Q398.3594,389.2344 397.6563,389.2344 Q395.1563,389.2344 393.8281,387.5938 Q392.5156,385.9375 392.5156,382.8125 Q392.5156,379.6875 393.8281,378.0313 Q395.1563,376.375 397.6563,376.375 Q398.3594,376.375 399,376.5313 Q399.6563,376.6875 400.2188,376.9844 L400.2188,379.7031 Q399.5938,379.125 399,378.8594 Q398.4063,378.5781 397.7813,378.5781 Q396.4375,378.5781 395.75,379.6563 Q395.0625,380.7188 395.0625,382.8125 Q395.0625,384.9063 395.75,385.9844 Q396.4375,387.0469 397.7813,387.0469 Q398.4063,387.0469 399,386.7813 Q399.5938,386.5 400.2188,385.9219 L400.2188,388.6406 Z " fill="#000000"/><text fill="#000000" font-family="sans-serif" font-size="12" lengthAdjust="spacing" textLength="159" x="417.75" y="387.1543">EhcacheCachingManager</text><line style="stroke:#A80036;stroke-width:1.5;" x1="270" x2="692" y1="399" y2="399"/><line style="stroke:#A80036;stroke-width:1.5;" x1="270" x2="692" y1="407" y2="407"/><ellipse cx="280" cy="418" fill="#84BE84" rx="3" ry="3" style="stroke:#038048;stroke-width:1.0;"/><text fill="#000000" font-family="sans-serif" font-size="11" lengthAdjust="spacing" textLength="94" x="289" y="421.2104">shutdown(): void</text><ellipse cx="280" cy="430.8047" fill="#84BE84" rx="3" ry="3" style="stroke:#038048;stroke-width:1.0;"/><text fill="#000000" font-family="sans-serif" font-size="11" lengthAdjust="spacing" textLength="189" x="289" y="434.0151">initialize(Engine, Properties): void</text><ellipse cx="280" cy="443.6094" fill="#84BE84" rx="3" ry="3" style="stroke:#038048;stroke-width:1.0;"/><text fill="#000000" font-family="sans-serif" font-size="11" lengthAdjust="spacing" textLength="140" x="289" y="446.8198">enabled(String): boolean</text><ellipse cx="280" cy="456.4141" fill="#84BE84" rx="3" ry="3" style="stroke:#038048;stroke-width:1.0;"/><text fill="#000000" font-family="sans-serif" font-size="11" lengthAdjust="spacing" textLength="127" x="289" y="459.6245">info(String): CacheInfo</text><ellipse cx="280" cy="469.2188" fill="#84BE84" rx="3" ry="3" style="stroke:#038048;stroke-width:1.0;"/><text fill="#000000" font-family="sans-serif" font-size="11" lengthAdjust="spacing" textLength="148" x="289" y="472.4292">keys(String): List&lt;String&gt;</text><ellipse cx="280" cy="482.0234" fill="#84BE84" rx="3" ry="3" style="stroke:#038048;stroke-width:1.0;"/><text fill="#000000" font-family="sans-serif" font-size="11" lengthAdjust="spacing" textLength="398" x="289" y="485.2339">get(String, Serializable, CheckedSupplier&lt;T, E extends Exception&gt;): T</text><ellipse cx="280" cy="494.8281" fill="#84BE84" rx="3" ry="3" style="stroke:#038048;stroke-width:1.0;"/><text fill="#000000" font-family="sans-serif" font-size="11" lengthAdjust="spacing" textLength="208" x="289" y="498.0386">put(String, Serializable, Object): void</text><ellipse cx="280" cy="507.6328" fill="#84BE84" rx="3" ry="3" style="stroke:#038048;stroke-width:1.0;"/><text fill="#000000" font-family="sans-serif" font-size="11" lengthAdjust="spacing" textLength="189" x="289" y="510.8433">remove(String, Serializable): void</text></a><!--MD5=[cb353372bce5e7783b72905abe8f50ba]
class org.apache.wiki.cache.CacheInfo--><a href="CacheInfo.html" target="_top" title="CacheInfo.html" xlink:actuate="onRequest" xlink:href="CacheInfo.html" xlink:show="new" xlink:title="CacheInfo.html" xlink:type="simple"><rect codeLine="34" fill="#FEFECE" filter="url(#fgqw85euttsj0)" height="137.6328" id="org.apache.wiki.cache.CacheInfo" style="stroke:#A80036;stroke-width:1.5;" width="202" x="32" y="105"/><ellipse cx="97.75" cy="121" fill="#ADD1B2" rx="11" ry="11" style="stroke:#A80036;stroke-width:1.0;"/><path d="M100.7188,126.6406 Q100.1406,126.9375 99.5,127.0781 Q98.8594,127.2344 98.1563,127.2344 Q95.6563,127.2344 94.3281,125.5938 Q93.0156,123.9375 93.0156,120.8125 Q93.0156,117.6875 94.3281,116.0313 Q95.6563,114.375 98.1563,114.375 Q98.8594,114.375 99.5,114.5313 Q100.1563,114.6875 100.7188,114.9844 L100.7188,117.7031 Q100.0938,117.125 99.5,116.8594 Q98.9063,116.5781 98.2813,116.5781 Q96.9375,116.5781 96.25,117.6563 Q95.5625,118.7188 95.5625,120.8125 Q95.5625,122.9063 96.25,123.9844 Q96.9375,125.0469 98.2813,125.0469 Q98.9063,125.0469 99.5,124.7813 Q100.0938,124.5 100.7188,123.9219 L100.7188,126.6406 Z " fill="#000000"/><text fill="#000000" font-family="sans-serif" font-size="12" lengthAdjust="spacing" textLength="62" x="118.25" y="125.1543">CacheInfo</text><line style="stroke:#A80036;stroke-width:1.5;" x1="33" x2="233" y1="137" y2="137"/><line style="stroke:#A80036;stroke-width:1.5;" x1="33" x2="233" y1="145" y2="145"/><ellipse cx="43" cy="156" fill="#84BE84" rx="3" ry="3" style="stroke:#038048;stroke-width:1.0;"/><text fill="#000000" font-family="sans-serif" font-size="11" lengthAdjust="spacing" textLength="130" x="52" y="159.2104">CacheInfo(String, long)</text><ellipse cx="43" cy="168.8047" fill="#84BE84" rx="3" ry="3" style="stroke:#038048;stroke-width:1.0;"/><text fill="#000000" font-family="sans-serif" font-size="11" lengthAdjust="spacing" textLength="53" x="52" y="172.0151">hit(): void</text><ellipse cx="43" cy="181.6094" fill="#84BE84" rx="3" ry="3" style="stroke:#038048;stroke-width:1.0;"/><text fill="#000000" font-family="sans-serif" font-size="11" lengthAdjust="spacing" textLength="67" x="52" y="184.8198">miss(): void</text><ellipse cx="43" cy="194.4141" fill="#84BE84" rx="3" ry="3" style="stroke:#038048;stroke-width:1.0;"/><text fill="#000000" font-family="sans-serif" font-size="11" lengthAdjust="spacing" textLength="101" x="52" y="197.6245">getName(): String</text><ellipse cx="43" cy="207.2188" fill="#84BE84" rx="3" ry="3" style="stroke:#038048;stroke-width:1.0;"/><text fill="#000000" font-family="sans-serif" font-size="11" lengthAdjust="spacing" textLength="98" x="52" y="210.4292">getMisses(): long</text><ellipse cx="43" cy="220.0234" fill="#84BE84" rx="3" ry="3" style="stroke:#038048;stroke-width:1.0;"/><text fill="#000000" font-family="sans-serif" font-size="11" lengthAdjust="spacing" textLength="80" x="52" y="223.2339">getHits(): long</text><ellipse cx="43" cy="232.8281" fill="#84BE84" rx="3" ry="3" style="stroke:#038048;stroke-width:1.0;"/><text fill="#000000" font-family="sans-serif" font-size="11" lengthAdjust="spacing" textLength="176" x="52" y="236.0386">getMaxElementsAllowed(): long</text></a><!--MD5=[b42cfcd16e39a0fd6a37261d508d7333]
class org.apache.wiki.api.engine.Initializable--><a href="../api/engine/Initializable.html" target="_top" title="../api/engine/Initializable.html" xlink:actuate="onRequest" xlink:href="../api/engine/Initializable.html" xlink:show="new" xlink:title="../api/engine/Initializable.html" xlink:type="simple"><rect codeLine="49" fill="#FEFECE" filter="url(#fgqw85euttsj0)" height="60.8047" id="org.apache.wiki.api.engine.Initializable" style="stroke:#A80036;stroke-width:1.5;" width="216" x="749" y="143.5"/><ellipse cx="817.75" cy="159.5" fill="#B4A7E5" rx="11" ry="11" style="stroke:#A80036;stroke-width:1.0;"/><path d="M813.6719,155.2656 L813.6719,153.1094 L821.0625,153.1094 L821.0625,155.2656 L818.5938,155.2656 L818.5938,163.3438 L821.0625,163.3438 L821.0625,165.5 L813.6719,165.5 L813.6719,163.3438 L816.1406,163.3438 L816.1406,155.2656 L813.6719,155.2656 Z " fill="#000000"/><text fill="#000000" font-family="sans-serif" font-size="12" font-style="italic" lengthAdjust="spacing" textLength="70" x="838.25" y="163.6543">Initializable</text><line style="stroke:#A80036;stroke-width:1.5;" x1="750" x2="964" y1="175.5" y2="175.5"/><line style="stroke:#A80036;stroke-width:1.5;" x1="750" x2="964" y1="183.5" y2="183.5"/><ellipse cx="760" cy="194.5" fill="#84BE84" rx="3" ry="3" style="stroke:#038048;stroke-width:1.0;"/><text fill="#000000" font-family="sans-serif" font-size="11" font-style="italic" lengthAdjust="spacing" textLength="190" x="769" y="197.7104">initialize(Engine, Properties): void</text></a><!--MD5=[9f6213186dc836752574e19aad9b8672]
reverse link org.apache.wiki.cache.CachingManager to org.apache.wiki.cache.EhcacheCachingManager--><path codeLine="44" d="M481,327.31 C481,340.94 481,354.28 481,366.77 " fill="none" id="org.apache.wiki.cache.CachingManager-backto-org.apache.wiki.cache.EhcacheCachingManager" style="stroke:#A80036;stroke-width:1.0;stroke-dasharray:7.0,7.0;"/><polygon fill="none" points="474,327.22,481,307.22,488,327.22,474,327.22" style="stroke:#A80036;stroke-width:1.0;"/><!--MD5=[7b830e65a579f148cb4264e357ce6df7]
reverse link org.apache.wiki.api.engine.Initializable to org.apache.wiki.cache.EhcacheCachingManager--><path codeLine="45" d="M812.62,218.78 C784.2,245.73 745.86,280.14 709,307 C680.24,327.96 648,348.51 617.02,366.98 " fill="none" id="org.apache.wiki.api.engine.Initializable-backto-org.apache.wiki.cache.EhcacheCachingManager" style="stroke:#A80036;stroke-width:1.0;stroke-dasharray:7.0,7.0;"/><polygon fill="none" points="808.04,213.47,827.32,204.67,817.74,223.57,808.04,213.47" style="stroke:#A80036;stroke-width:1.0;"/><text fill="#888888" font-family="sans-serif" font-size="10" lengthAdjust="spacing" textLength="192" x="396.5" y="548.2822">UMLDoclet 2.0.15, PlantUML 1.2021.13</text><!--MD5=[d6053e3c70d2d99dd0dd00686240f92f]
@startuml
    namespace org.apache.wiki.cache {

        interface CachingManager [[CachingManager.html]] {
            {static} +- -PROP_USECACHE_DEPRECATED- -: String
            {static} +PROP_CACHE_ENABLE: String
            {static} +PROP_CACHE_CONF_FILE: String
            {static} +CACHE_ATTACHMENTS: String
            {static} +CACHE_ATTACHMENTS_COLLECTION: String
            {static} +CACHE_ATTACHMENTS_DYNAMIC: String
            {static} +CACHE_PAGES: String
            {static} +CACHE_PAGES_TEXT: String
            {static} +CACHE_PAGES_HISTORY: String
            {static} +CACHE_DOCUMENTS: String
            {abstract} +shutdown(): void
            {abstract} +enabled(String): boolean
            {abstract} +info(String): CacheInfo
            {abstract} +keys(String): List<T extends Serializable>
            {abstract} +get(String, Serializable, CheckedSupplier<T, E extends Exception>): T
            {abstract} +put(String, Serializable, Object): void
            {abstract} +remove(String, Serializable): void
        }

        class EhcacheCachingManager [[EhcacheCachingManager.html]] {
            +shutdown(): void
            +initialize(Engine, Properties): void
            +enabled(String): boolean
            +info(String): CacheInfo
            +keys(String): List<String>
            +get(String, Serializable, CheckedSupplier<T, E extends Exception>): T
            +put(String, Serializable, Object): void
            +remove(String, Serializable): void
        }

        class CacheInfo [[CacheInfo.html]] {
            +CacheInfo(String, long)
            +hit(): void
            +miss(): void
            +getName(): String
            +getMisses(): long
            +getHits(): long
            +getMaxElementsAllowed(): long
        }

        CachingManager <|.. EhcacheCachingManager
        org.apache.wiki.api.engine.Initializable <|.. EhcacheCachingManager
    }

    namespace org.apache.wiki.api.engine {
        interface Initializable [[../api/engine/Initializable.html]] {
            {abstract} +initialize(Engine, Properties): void
        }
    }

    center footer UMLDoclet 2.0.15, PlantUML 1.2021.13
@enduml

PlantUML version 1.2021.13(Mon Nov 01 11:38:45 UTC 2021)
(APACHE source distribution)
Java Runtime: OpenJDK Runtime Environment
JVM: OpenJDK 64-Bit Server VM
Default Encoding: UTF-8
Language: en
Country: null
--></g></svg>