<?xml version="1.0" encoding="UTF-8" standalone="no"?><svg xmlns="http://www.w3.org/2000/svg" xmlns:xlink="http://www.w3.org/1999/xlink" contentScriptType="application/ecmascript" contentStyleType="text/css" height="219px" preserveAspectRatio="none" style="width:202px;height:219px;" version="1.1" viewBox="0 0 202 219" width="202px" zoomAndPan="magnify"><defs><filter height="300%" id="f1kfw0g6f95m58" width="300%" x="-1" y="-1"><feGaussianBlur result="blurOut" stdDeviation="2.0"/><feColorMatrix in="blurOut" result="blurOut2" type="matrix" values="0 0 0 0 0 0 0 0 0 0 0 0 0 0 0 0 0 0 .4 0"/><feOffset dx="4.0" dy="4.0" in="blurOut2" result="blurOut3"/><feBlend in="SourceGraphic" in2="blurOut3" mode="normal"/></filter></defs><g><!--MD5=[94a91db8ae6c91e03d3bc685ac2939b9]
class org.apache.wiki.tasks.auth.SaveUserProfileTask--><a href="SaveUserProfileTask.html" target="_top" title="SaveUserProfileTask.html" xlink:actuate="onRequest" xlink:href="SaveUserProfileTask.html" xlink:show="new" xlink:title="SaveUserProfileTask.html" xlink:type="simple"><rect codeLine="5" fill="#FEFECE" filter="url(#f1kfw0g6f95m58)" height="75.8594" id="org.apache.wiki.tasks.auth.SaveUserProfileTask" style="stroke: #A80036; stroke-width: 1.5;" width="167" x="14.5" y="107"/><ellipse cx="30.85" cy="127.0938" fill="#ADD1B2" rx="11" ry="11" style="stroke: #A80036; stroke-width: 1.0;"/><path d="M33.6156,122.9688 Q33.7719,122.75 33.9594,122.6406 Q34.1469,122.5313 34.3656,122.5313 Q34.7406,122.5313 34.975,122.7969 Q35.2094,123.0469 35.2094,123.6563 L35.2094,125.1094 Q35.2094,125.7188 34.975,125.9844 Q34.7406,126.25 34.3656,126.25 Q34.0219,126.25 33.8188,126.0469 Q33.6156,125.8594 33.5063,125.3438 Q33.4594,124.9844 33.2719,124.7969 Q32.9438,124.4219 32.3344,124.2031 Q31.725,123.9844 31.1,123.9844 Q30.3344,123.9844 29.6938,124.3125 Q29.0688,124.6406 28.5688,125.3906 Q28.0844,126.1406 28.0844,127.1719 L28.0844,128.2656 Q28.0844,129.5 28.975,130.3281 Q29.8656,131.1406 31.4594,131.1406 Q32.3969,131.1406 33.0531,130.8906 Q33.4438,130.7344 33.8656,130.2969 Q34.1313,130.0313 34.2719,129.9531 Q34.4281,129.875 34.6313,129.875 Q34.9594,129.875 35.2094,130.1406 Q35.475,130.3906 35.475,130.7344 Q35.475,131.0781 35.1313,131.4844 Q34.6313,132.0625 33.8344,132.3906 Q32.7563,132.8438 31.4594,132.8438 Q29.9438,132.8438 28.7406,132.2188 Q27.7563,131.7188 27.0688,130.6563 Q26.3813,129.5781 26.3813,128.2969 L26.3813,127.1406 Q26.3813,125.8125 26.9906,124.6719 Q27.6156,123.5156 28.7094,122.9063 Q29.8031,122.2813 31.0375,122.2813 Q31.7719,122.2813 32.4125,122.4531 Q33.0688,122.6094 33.6156,122.9688 Z "/><text fill="#000000" font-family="sans-serif" font-size="14" lengthAdjust="spacingAndGlyphs" textLength="132" x="45.15" y="126.5332">SaveUserProfileTask</text><text fill="#000000" font-family="sans-serif" font-size="10" lengthAdjust="spacingAndGlyphs" textLength="122" x="50.15" y="139.9902">org.apache.wiki.tasks.auth</text><line style="stroke: #A80036; stroke-width: 1.5;" x1="15.5" x2="180.5" y1="147.1875" y2="147.1875"/><ellipse cx="25.5" cy="158.1875" fill="#84BE84" rx="3" ry="3" style="stroke: #038048; stroke-width: 1.0;"/><text fill="#000000" font-family="sans-serif" font-size="11" lengthAdjust="spacingAndGlyphs" textLength="141" x="34.5" y="162.6064">SaveUserProfileTask(Locale)</text><ellipse cx="25.5" cy="172.0234" fill="#84BE84" rx="3" ry="3" style="stroke: #038048; stroke-width: 1.0;"/><text fill="#000000" font-family="sans-serif" font-size="11" lengthAdjust="spacingAndGlyphs" textLength="133" x="34.5" y="176.4424">execute(Context): Outcome</text></a><!--MD5=[ddd9fe3ac7221505577f2a4ed232731a]
class org.apache.wiki.workflow.Task--><a href="..\..\workflow\Task.html" target="_top" title="..\..\workflow\Task.html" xlink:actuate="onRequest" xlink:href="..\..\workflow\Task.html" xlink:show="new" xlink:title="..\..\workflow\Task.html" xlink:type="simple"><rect codeLine="10" fill="#FEFECE" filter="url(#f1kfw0g6f95m58)" height="40.1875" id="org.apache.wiki.workflow.Task" style="stroke: #A80036; stroke-width: 1.5;" width="152" x="22" y="7"/><ellipse cx="37" cy="27.0938" fill="#A9DCDF" rx="11" ry="11" style="stroke: #A80036; stroke-width: 1.0;"/><path d="M39.1875,28.8594 L35.0469,28.8594 L34.625,29.8906 L35.0469,29.8906 Q35.6563,29.8906 35.9219,30.125 Q36.1875,30.3594 36.1875,30.75 Q36.1875,31.125 35.9219,31.3594 Q35.6563,31.5938 35.0469,31.5938 L32.75,31.5938 Q32.1406,31.5938 31.8906,31.3594 Q31.625,31.125 31.625,30.7344 Q31.625,30.3594 31.9063,30.125 Q32.1719,29.875 32.7969,29.8906 L35.4688,23.2344 L34.3594,23.2344 Q33.75,23.2344 33.4844,23 Q33.2188,22.7656 33.2188,22.375 Q33.2188,22 33.4844,21.7656 Q33.75,21.5313 34.3594,21.5313 L38.0313,21.5313 L41.4219,29.8906 Q42.0156,29.8906 42.2031,30.0313 Q42.5938,30.2969 42.5938,30.75 Q42.5938,31.125 42.3281,31.3594 Q42.0781,31.5938 41.4688,31.5938 L39.1719,31.5938 Q38.5625,31.5938 38.2969,31.3594 Q38.0313,31.125 38.0313,30.7344 Q38.0313,30.3594 38.2969,30.125 Q38.5625,29.8906 39.1719,29.8906 L39.5938,29.8906 L39.1875,28.8594 Z M38.4688,27.1563 L37.1094,23.7813 L35.7344,27.1563 L38.4688,27.1563 Z "/><text fill="#000000" font-family="sans-serif" font-size="14" font-style="italic" lengthAdjust="spacingAndGlyphs" textLength="32" x="95" y="26.5332">Task</text><text fill="#000000" font-family="sans-serif" font-size="10" font-style="italic" lengthAdjust="spacingAndGlyphs" textLength="120" x="51" y="39.9902">org.apache.wiki.workflow</text></a><!--MD5=[1db5d3aca25752ea4feac62bf5652a1b]
reverse link org.apache.wiki.workflow.Task to org.apache.wiki.tasks.auth.SaveUserProfileTask--><path codeLine="12" d="M98,67.3546 C98,80.095 98,94.1282 98,106.7193 " fill="none" id="org.apache.wiki.workflow.Task-backto-org.apache.wiki.tasks.auth.SaveUserProfileTask" style="stroke: #A80036; stroke-width: 1.0;"/><polygon fill="none" points="91.0001,67.0171,98,47.0171,105.0001,67.0171,91.0001,67.0171" style="stroke: #A80036; stroke-width: 1.0;"/><text fill="#888888" font-family="sans-serif" font-size="10" lengthAdjust="spacingAndGlyphs" textLength="190" x="0" y="206.2402">UMLDoclet 2.0.12, PlantUML 1.2020.16</text><!--MD5=[9873ed16536d005405ea3f3971520f28]
@startuml
    set namespaceSeparator none
    hide empty fields
    hide empty methods

    class "<size:14>SaveUserProfileTask\n<size:10>org.apache.wiki.tasks.auth" as org.apache.wiki.tasks.auth.SaveUserProfileTask [[SaveUserProfileTask.html]] {
        +SaveUserProfileTask(Locale)
        +execute(Context): Outcome
    }

    abstract class "<size:14>Task\n<size:10>org.apache.wiki.workflow" as org.apache.wiki.workflow.Task [[..\..\workflow\Task.html]]

    org.apache.wiki.workflow.Task <|- - org.apache.wiki.tasks.auth.SaveUserProfileTask

    center footer UMLDoclet 2.0.12, PlantUML 1.2020.16
@enduml

PlantUML version 1.2020.16(Sun Aug 23 22:20:43 CEST 2020)
(APACHE source distribution)
Java Runtime: OpenJDK Runtime Environment
JVM: OpenJDK 64-Bit Server VM
Default Encoding: Cp1252
Language: es
Country: ES
--></g></svg>