<?xml version="1.0" encoding="UTF-8" standalone="no"?><svg xmlns="http://www.w3.org/2000/svg" xmlns:xlink="http://www.w3.org/1999/xlink" contentScriptType="application/ecmascript" contentStyleType="text/css" height="114px" preserveAspectRatio="none" style="width:288px;height:114px;" version="1.1" viewBox="0 0 288 114" width="288px" zoomAndPan="magnify"><defs><filter height="300%" id="f1459qc9ppkct6" width="300%" x="-1" y="-1"><feGaussianBlur result="blurOut" stdDeviation="2.0"/><feColorMatrix in="blurOut" result="blurOut2" type="matrix" values="0 0 0 0 0 0 0 0 0 0 0 0 0 0 0 0 0 0 .4 0"/><feOffset dx="4.0" dy="4.0" in="blurOut2" result="blurOut3"/><feBlend in="SourceGraphic" in2="blurOut3" mode="normal"/></filter></defs><g><!--class XmlUtil--><a href="XmlUtil.html" target="_top" xlink:actuate="onRequest" xlink:show="new" xlink:title="XmlUtil.html" xlink:type="simple"><rect fill="#FEFECE" filter="url(#f1459qc9ppkct6)" height="73.6094" id="XmlUtil" style="stroke: #A80036; stroke-width: 1.5;" width="271" x="6" y="8"/><ellipse cx="116.75" cy="24" fill="#ADD1B2" rx="11" ry="11" style="stroke: #A80036; stroke-width: 1.0;"/><path d="M119.7188,29.6406 Q119.1406,29.9375 118.5,30.0859 Q117.8594,30.2344 117.1563,30.2344 Q114.6563,30.2344 113.3359,28.5859 Q112.0156,26.9375 112.0156,23.8125 Q112.0156,20.6875 113.3359,19.0313 Q114.6563,17.375 117.1563,17.375 Q117.8594,17.375 118.5078,17.5313 Q119.1563,17.6875 119.7188,17.9844 L119.7188,20.7031 Q119.0938,20.125 118.5,19.8516 Q117.9063,19.5781 117.2813,19.5781 Q115.9375,19.5781 115.25,20.6484 Q114.5625,21.7188 114.5625,23.8125 Q114.5625,25.9063 115.25,26.9766 Q115.9375,28.0469 117.2813,28.0469 Q117.9063,28.0469 118.5,27.7734 Q119.0938,27.5 119.7188,26.9219 L119.7188,29.6406 Z "/><text fill="#000000" font-family="sans-serif" font-size="12" lengthAdjust="spacingAndGlyphs" textLength="41" x="137.25" y="28.1543">XmlUtil</text><line style="stroke: #A80036; stroke-width: 1.5;" x1="7" x2="276" y1="40" y2="40"/><line style="stroke: #A80036; stroke-width: 1.5;" x1="7" x2="276" y1="48" y2="48"/><ellipse cx="17" cy="59.9023" fill="#84BE84" rx="3" ry="3" style="stroke: #038048; stroke-width: 1.0;"/><text fill="#000000" font-family="sans-serif" font-size="11" lengthAdjust="spacingAndGlyphs" text-decoration="underline" textLength="209" x="26" y="62.2104">parse(String, String): List&lt;Element&gt;</text><ellipse cx="17" cy="72.707" fill="#84BE84" rx="3" ry="3" style="stroke: #038048; stroke-width: 1.0;"/><text fill="#000000" font-family="sans-serif" font-size="11" lengthAdjust="spacingAndGlyphs" text-decoration="underline" textLength="245" x="26" y="75.0151">parse(InputStream, String): List&lt;Element&gt;</text></a><text fill="#888888" font-family="sans-serif" font-size="10" lengthAdjust="spacingAndGlyphs" textLength="186" x="54.5" y="101.2822">UMLDoclet 1.1.4, PlantUML 1.2019.05</text><!--
@startuml

    class XmlUtil [[XmlUtil.html]] {
        {static} +parse(String, String): List<Element>
        {static} +parse(InputStream, String): List<Element>
    }


    center footer UMLDoclet 1.1.4, PlantUML 1.2019.05
@enduml

PlantUML version 1.2019.05(Sat Apr 20 16:45:36 UTC 2019)
(APACHE source distribution)
Java Runtime: Java(TM) SE Runtime Environment
JVM: Java HotSpot(TM) 64-Bit Server VM
Java Version: 1.8.0_191-b12
Operating System: Linux
OS Version: 4.15.0-58-generic
Default Encoding: ISO-8859-1
Language: en
Country: US
--></g></svg>