<?xml version="1.0" encoding="UTF-8" standalone="no"?><svg xmlns="http://www.w3.org/2000/svg" xmlns:xlink="http://www.w3.org/1999/xlink" contentScriptType="application/ecmascript" contentStyleType="text/css" height="299px" preserveAspectRatio="none" style="width:334px;height:299px;" version="1.1" viewBox="0 0 334 299" width="334px" zoomAndPan="magnify"><defs><filter height="300%" id="fo6x7n41jwfbd" width="300%" x="-1" y="-1"><feGaussianBlur result="blurOut" stdDeviation="2.0"/><feColorMatrix in="blurOut" result="blurOut2" type="matrix" values="0 0 0 0 0 0 0 0 0 0 0 0 0 0 0 0 0 0 .4 0"/><feOffset dx="4.0" dy="4.0" in="blurOut2" result="blurOut3"/><feBlend in="SourceGraphic" in2="blurOut3" mode="normal"/></filter></defs><g><!--cluster org.apache.wiki.bootstrap--><polygon fill="#FFFFFF" filter="url(#fo6x7n41jwfbd)" points="16,150,229,150,236,172.2969,310,172.2969,310,259,16,259,16,150" style="stroke: #000000; stroke-width: 1.5;"/><line style="stroke: #000000; stroke-width: 1.5;" x1="16" x2="236" y1="172.2969" y2="172.2969"/><text fill="#000000" font-family="sans-serif" font-size="14" font-weight="bold" lengthAdjust="spacingAndGlyphs" textLength="207" x="20" y="164.9951">org.apache.wiki.bootstrap</text><!--cluster javax.servlet--><polygon fill="#FFFFFF" filter="url(#fo6x7n41jwfbd)" points="14,16,120,16,127,38.2969,312,38.2969,312,125,14,125,14,16" style="stroke: #000000; stroke-width: 1.5;"/><line style="stroke: #000000; stroke-width: 1.5;" x1="14" x2="127" y1="38.2969" y2="38.2969"/><text fill="#000000" font-family="sans-serif" font-size="14" font-weight="bold" lengthAdjust="spacingAndGlyphs" textLength="100" x="18" y="30.9951">javax.servlet</text><!--class org.apache.wiki.bootstrap.WikiBootstrapServletContextListener--><a href="WikiBootstrapServletContextListener.html" target="_top" xlink:actuate="onRequest" xlink:show="new" xlink:title="WikiBootstrapServletContextListener.html" xlink:type="simple"><rect fill="#FEFECE" filter="url(#fo6x7n41jwfbd)" height="73.6094" id="org.apache.wiki.bootstrap.WikiBootstrapServletContextListener" style="stroke: #A80036; stroke-width: 1.5;" width="278" x="24" y="177"/><ellipse cx="47.55" cy="193" fill="#ADD1B2" rx="11" ry="11" style="stroke: #A80036; stroke-width: 1.0;"/><path d="M50.5188,198.6406 Q49.9406,198.9375 49.3,199.0859 Q48.6594,199.2344 47.9563,199.2344 Q45.4563,199.2344 44.1359,197.5859 Q42.8156,195.9375 42.8156,192.8125 Q42.8156,189.6875 44.1359,188.0313 Q45.4563,186.375 47.9563,186.375 Q48.6594,186.375 49.3078,186.5313 Q49.9563,186.6875 50.5188,186.9844 L50.5188,189.7031 Q49.8938,189.125 49.3,188.8516 Q48.7063,188.5781 48.0813,188.5781 Q46.7375,188.5781 46.05,189.6484 Q45.3625,190.7188 45.3625,192.8125 Q45.3625,194.9063 46.05,195.9766 Q46.7375,197.0469 48.0813,197.0469 Q48.7063,197.0469 49.3,196.7734 Q49.8938,196.5 50.5188,195.9219 L50.5188,198.6406 Z "/><text fill="#000000" font-family="sans-serif" font-size="12" lengthAdjust="spacingAndGlyphs" textLength="227" x="63.45" y="197.1543">WikiBootstrapServletContextListener</text><line style="stroke: #A80036; stroke-width: 1.5;" x1="25" x2="301" y1="209" y2="209"/><line style="stroke: #A80036; stroke-width: 1.5;" x1="25" x2="301" y1="217" y2="217"/><ellipse cx="35" cy="228.9023" fill="#84BE84" rx="3" ry="3" style="stroke: #038048; stroke-width: 1.0;"/><text fill="#000000" font-family="sans-serif" font-size="11" lengthAdjust="spacingAndGlyphs" textLength="246" x="44" y="231.2104">contextInitialized(ServletContextEvent): void</text><ellipse cx="35" cy="241.707" fill="#84BE84" rx="3" ry="3" style="stroke: #038048; stroke-width: 1.0;"/><text fill="#000000" font-family="sans-serif" font-size="11" lengthAdjust="spacingAndGlyphs" textLength="252" x="44" y="244.0151">contextDestroyed(ServletContextEvent): void</text></a><!--class javax.servlet.ServletContextListener--><rect fill="#FEFECE" filter="url(#fo6x7n41jwfbd)" height="73.6094" id="javax.servlet.ServletContextListener" style="stroke: #A80036; stroke-width: 1.5;" width="282" x="22" y="43"/><ellipse cx="87.75" cy="59" fill="#B4A7E5" rx="11" ry="11" style="stroke: #A80036; stroke-width: 1.0;"/><path d="M83.6719,54.7656 L83.6719,52.6094 L91.0625,52.6094 L91.0625,54.7656 L88.5938,54.7656 L88.5938,62.8438 L91.0625,62.8438 L91.0625,65 L83.6719,65 L83.6719,62.8438 L86.1406,62.8438 L86.1406,54.7656 L83.6719,54.7656 Z "/><text fill="#000000" font-family="sans-serif" font-size="12" font-style="italic" lengthAdjust="spacingAndGlyphs" textLength="142" x="108.25" y="63.1543">ServletContextListener</text><line style="stroke: #A80036; stroke-width: 1.5;" x1="23" x2="303" y1="75" y2="75"/><line style="stroke: #A80036; stroke-width: 1.5;" x1="23" x2="303" y1="83" y2="83"/><ellipse cx="33" cy="94.9023" fill="#84BE84" rx="3" ry="3" style="stroke: #038048; stroke-width: 1.0;"/><text fill="#000000" font-family="sans-serif" font-size="11" font-style="italic" lengthAdjust="spacingAndGlyphs" textLength="251" x="42" y="97.2104">contextInitialized(ServletContextEvent): void</text><ellipse cx="33" cy="107.707" fill="#84BE84" rx="3" ry="3" style="stroke: #038048; stroke-width: 1.0;"/><text fill="#000000" font-family="sans-serif" font-size="11" font-style="italic" lengthAdjust="spacingAndGlyphs" textLength="256" x="42" y="110.0151">contextDestroyed(ServletContextEvent): void</text><!--link javax.servlet.ServletContextListener to org.apache.wiki.bootstrap.WikiBootstrapServletContextListener--><path d="M163,137.5351 C163,150.8601 163,164.6949 163,176.8737 " fill="none" id="javax.servlet.ServletContextListener-org.apache.wiki.bootstrap.WikiBootstrapServletContextListener" style="stroke: #A80036; stroke-width: 1.0; stroke-dasharray: 7.0,7.0;"/><polygon fill="none" points="156.0001,137.3265,163,117.3265,170.0001,137.3264,156.0001,137.3265" style="stroke: #A80036; stroke-width: 1.0;"/><text fill="#888888" font-family="sans-serif" font-size="10" lengthAdjust="spacingAndGlyphs" textLength="186" x="76" y="286.2822">UMLDoclet 1.1.4, PlantUML 1.2019.05</text><!--
@startuml

    namespace org.apache.wiki.bootstrap {

        class WikiBootstrapServletContextListener [[WikiBootstrapServletContextListener.html]] {
            +contextInitialized(ServletContextEvent): void
            +contextDestroyed(ServletContextEvent): void
        }

        interface javax.servlet.ServletContextListener {
            {abstract} +contextInitialized(ServletContextEvent): void
            {abstract} +contextDestroyed(ServletContextEvent): void
        }
        javax.servlet.ServletContextListener <|.. WikiBootstrapServletContextListener

    }


    center footer UMLDoclet 1.1.4, PlantUML 1.2019.05
@enduml

PlantUML version 1.2019.05(Sat Apr 20 16:45:36 UTC 2019)
(APACHE source distribution)
Java Runtime: Java(TM) SE Runtime Environment
JVM: Java HotSpot(TM) 64-Bit Server VM
Java Version: 1.8.0_241-b07
Operating System: Linux
OS Version: 4.15.0-74-generic
Default Encoding: ISO-8859-1
Language: en
Country: US
--></g></svg>