<?xml version="1.0" encoding="UTF-8" standalone="no"?><svg xmlns="http://www.w3.org/2000/svg" xmlns:xlink="http://www.w3.org/1999/xlink" contentScriptType="application/ecmascript" contentStyleType="text/css" height="568px" preserveAspectRatio="none" style="width:1351px;height:568px;" version="1.1" viewBox="0 0 1351 568" width="1351px" zoomAndPan="magnify"><defs><filter height="300%" id="ffpeoxt1mbajp" width="300%" x="-1" y="-1"><feGaussianBlur result="blurOut" stdDeviation="2.0"/><feColorMatrix in="blurOut" result="blurOut2" type="matrix" values="0 0 0 0 0 0 0 0 0 0 0 0 0 0 0 0 0 0 .4 0"/><feOffset dx="4.0" dy="4.0" in="blurOut2" result="blurOut3"/><feBlend in="SourceGraphic" in2="blurOut3" mode="normal"/></filter></defs><g><!--cluster org.apache.wiki.util.comparators--><polygon fill="#FFFFFF" filter="url(#ffpeoxt1mbajp)" points="14,143,279,143,286,165.2969,1329,165.2969,1329,528,14,528,14,143" style="stroke: #000000; stroke-width: 1.5;"/><line style="stroke: #000000; stroke-width: 1.5;" x1="14" x2="286" y1="165.2969" y2="165.2969"/><text fill="#000000" font-family="sans-serif" font-size="14" font-weight="bold" lengthAdjust="spacingAndGlyphs" textLength="259" x="18" y="157.9951">org.apache.wiki.util.comparators</text><!--cluster java.util--><polygon fill="#FFFFFF" filter="url(#ffpeoxt1mbajp)" points="629,16,695,16,702,38.2969,773,38.2969,773,112,629,112,629,16" style="stroke: #000000; stroke-width: 1.5;"/><line style="stroke: #000000; stroke-width: 1.5;" x1="629" x2="702" y1="38.2969" y2="38.2969"/><text fill="#000000" font-family="sans-serif" font-size="14" font-weight="bold" lengthAdjust="spacingAndGlyphs" textLength="60" x="633" y="30.9951">java.util</text><!--cluster java.io--><polygon fill="#FFFFFF" filter="url(#ffpeoxt1mbajp)" points="1156,22.5,1212,22.5,1219,44.7969,1276,44.7969,1276,105.5,1156,105.5,1156,22.5" style="stroke: #000000; stroke-width: 1.5;"/><line style="stroke: #000000; stroke-width: 1.5;" x1="1156" x2="1219" y1="44.7969" y2="44.7969"/><text fill="#000000" font-family="sans-serif" font-size="14" font-weight="bold" lengthAdjust="spacingAndGlyphs" textLength="50" x="1160" y="37.4951">java.io</text><!--class org.apache.wiki.util.comparators.JavaNaturalComparator--><a href="JavaNaturalComparator.html" target="_top" xlink:actuate="onRequest" xlink:show="new" xlink:title="JavaNaturalComparator.html" xlink:type="simple"><rect fill="#FEFECE" filter="url(#ffpeoxt1mbajp)" height="73.6094" id="org.apache.wiki.util.comparators.JavaNaturalComparator" style="stroke: #A80036; stroke-width: 1.5;" width="316" x="393" y="195.5"/><ellipse cx="474.25" cy="211.5" fill="#ADD1B2" rx="11" ry="11" style="stroke: #A80036; stroke-width: 1.0;"/><path d="M477.2188,217.1406 Q476.6406,217.4375 476,217.5859 Q475.3594,217.7344 474.6563,217.7344 Q472.1563,217.7344 470.8359,216.0859 Q469.5156,214.4375 469.5156,211.3125 Q469.5156,208.1875 470.8359,206.5313 Q472.1563,204.875 474.6563,204.875 Q475.3594,204.875 476.0078,205.0313 Q476.6563,205.1875 477.2188,205.4844 L477.2188,208.2031 Q476.5938,207.625 476,207.3516 Q475.4063,207.0781 474.7813,207.0781 Q473.4375,207.0781 472.75,208.1484 Q472.0625,209.2188 472.0625,211.3125 Q472.0625,213.4063 472.75,214.4766 Q473.4375,215.5469 474.7813,215.5469 Q475.4063,215.5469 476,215.2734 Q476.5938,215 477.2188,214.4219 L477.2188,217.1406 Z "/><text fill="#000000" font-family="sans-serif" font-size="12" lengthAdjust="spacingAndGlyphs" textLength="145" x="494.75" y="215.6543">JavaNaturalComparator</text><line style="stroke: #A80036; stroke-width: 1.5;" x1="394" x2="708" y1="227.5" y2="227.5"/><ellipse cx="404" cy="239.4023" fill="none" rx="3" ry="3" style="stroke: #038048; stroke-width: 1.0;"/><text fill="#000000" font-family="sans-serif" font-size="11" lengthAdjust="spacingAndGlyphs" text-decoration="underline" textLength="290" x="413" y="241.7104">DEFAULT_JAVA_COMPARATOR: Comparator&lt;String&gt;</text><line style="stroke: #A80036; stroke-width: 1.5;" x1="394" x2="708" y1="248.3047" y2="248.3047"/><ellipse cx="404" cy="260.207" fill="#84BE84" rx="3" ry="3" style="stroke: #038048; stroke-width: 1.0;"/><text fill="#000000" font-family="sans-serif" font-size="11" lengthAdjust="spacingAndGlyphs" textLength="156" x="413" y="262.5151">compare(String, String): int</text></a><!--class org.apache.wiki.util.comparators.HumanComparator--><a href="HumanComparator.html" target="_top" xlink:actuate="onRequest" xlink:show="new" xlink:title="HumanComparator.html" xlink:type="simple"><rect fill="#FEFECE" filter="url(#ffpeoxt1mbajp)" height="112.0234" id="org.apache.wiki.util.comparators.HumanComparator" style="stroke: #A80036; stroke-width: 1.5;" width="332" x="744" y="176.5"/><ellipse cx="846.75" cy="192.5" fill="#ADD1B2" rx="11" ry="11" style="stroke: #A80036; stroke-width: 1.0;"/><path d="M849.7188,198.1406 Q849.1406,198.4375 848.5,198.5859 Q847.8594,198.7344 847.1563,198.7344 Q844.6563,198.7344 843.3359,197.0859 Q842.0156,195.4375 842.0156,192.3125 Q842.0156,189.1875 843.3359,187.5313 Q844.6563,185.875 847.1563,185.875 Q847.8594,185.875 848.5078,186.0313 Q849.1563,186.1875 849.7188,186.4844 L849.7188,189.2031 Q849.0938,188.625 848.5,188.3516 Q847.9063,188.0781 847.2813,188.0781 Q845.9375,188.0781 845.25,189.1484 Q844.5625,190.2188 844.5625,192.3125 Q844.5625,194.4063 845.25,195.4766 Q845.9375,196.5469 847.2813,196.5469 Q847.9063,196.5469 848.5,196.2734 Q849.0938,196 849.7188,195.4219 L849.7188,198.1406 Z "/><text fill="#000000" font-family="sans-serif" font-size="12" lengthAdjust="spacingAndGlyphs" textLength="118" x="867.25" y="196.6543">HumanComparator</text><line style="stroke: #A80036; stroke-width: 1.5;" x1="745" x2="1075" y1="208.5" y2="208.5"/><ellipse cx="755" cy="220.4023" fill="none" rx="3" ry="3" style="stroke: #038048; stroke-width: 1.0;"/><text fill="#000000" font-family="sans-serif" font-size="11" lengthAdjust="spacingAndGlyphs" text-decoration="underline" textLength="306" x="764" y="222.7104">DEFAULT_HUMAN_COMPARATOR: Comparator&lt;String&gt;</text><line style="stroke: #A80036; stroke-width: 1.5;" x1="745" x2="1075" y1="229.3047" y2="229.3047"/><ellipse cx="755" cy="241.207" fill="#84BE84" rx="3" ry="3" style="stroke: #038048; stroke-width: 1.0;"/><text fill="#000000" font-family="sans-serif" font-size="11" lengthAdjust="spacingAndGlyphs" textLength="116" x="764" y="243.5151">HumanComparator()</text><ellipse cx="755" cy="254.0117" fill="#84BE84" rx="3" ry="3" style="stroke: #038048; stroke-width: 1.0;"/><text fill="#000000" font-family="sans-serif" font-size="11" lengthAdjust="spacingAndGlyphs" textLength="290" x="764" y="256.3198">HumanComparator(HumanComparator.CharType[])</text><ellipse cx="755" cy="266.8164" fill="#84BE84" rx="3" ry="3" style="stroke: #038048; stroke-width: 1.0;"/><text fill="#000000" font-family="sans-serif" font-size="11" lengthAdjust="spacingAndGlyphs" text-decoration="underline" textLength="202" x="764" y="269.1245">getInstance(): Comparator&lt;String&gt;</text><ellipse cx="755" cy="279.6211" fill="#84BE84" rx="3" ry="3" style="stroke: #038048; stroke-width: 1.0;"/><text fill="#000000" font-family="sans-serif" font-size="11" lengthAdjust="spacingAndGlyphs" textLength="156" x="764" y="281.9292">compare(String, String): int</text></a><!--class org.apache.wiki.util.comparators.HumanComparator.CharType--><a href="HumanComparator.CharType.html" target="_top" xlink:actuate="onRequest" xlink:show="new" xlink:title="HumanComparator.CharType.html" xlink:type="simple"><rect fill="#FEFECE" filter="url(#ffpeoxt1mbajp)" height="86.4141" id="org.apache.wiki.util.comparators.HumanComparator.CharType" style="stroke: #A80036; stroke-width: 1.5;" width="212" x="804" y="434"/><ellipse cx="819" cy="450" fill="#EB937F" rx="11" ry="11" style="stroke: #A80036; stroke-width: 1.0;"/><path d="M823.1094,456 L815.3906,456 L815.3906,443.6094 L823.1094,443.6094 L823.1094,445.7656 L817.8438,445.7656 L817.8438,448.4375 L822.6094,448.4375 L822.6094,450.5938 L817.8438,450.5938 L817.8438,453.8438 L823.1094,453.8438 L823.1094,456 Z "/><text fill="#000000" font-family="sans-serif" font-size="12" lengthAdjust="spacingAndGlyphs" textLength="180" x="833" y="454.1543">HumanComparator.CharType</text><line style="stroke: #A80036; stroke-width: 1.5;" x1="805" x2="1015" y1="466" y2="466"/><ellipse cx="815" cy="477.9023" fill="none" rx="3" ry="3" style="stroke: #038048; stroke-width: 1.0;"/><text fill="#000000" font-family="sans-serif" font-size="11" lengthAdjust="spacingAndGlyphs" text-decoration="underline" textLength="72" x="824" y="480.2104">TYPE_OTHER</text><ellipse cx="815" cy="490.707" fill="none" rx="3" ry="3" style="stroke: #038048; stroke-width: 1.0;"/><text fill="#000000" font-family="sans-serif" font-size="11" lengthAdjust="spacingAndGlyphs" text-decoration="underline" textLength="64" x="824" y="493.0151">TYPE_DIGIT</text><ellipse cx="815" cy="503.5117" fill="none" rx="3" ry="3" style="stroke: #038048; stroke-width: 1.0;"/><text fill="#000000" font-family="sans-serif" font-size="11" lengthAdjust="spacingAndGlyphs" text-decoration="underline" textLength="75" x="824" y="505.8198">TYPE_LETTER</text><line style="stroke: #A80036; stroke-width: 1.5;" x1="805" x2="1015" y1="512.4141" y2="512.4141"/></a><!--class org.apache.wiki.util.comparators.PrincipalComparator--><a href="PrincipalComparator.html" target="_top" xlink:actuate="onRequest" xlink:show="new" xlink:title="PrincipalComparator.html" xlink:type="simple"><rect fill="#FEFECE" filter="url(#ffpeoxt1mbajp)" height="60.8047" id="org.apache.wiki.util.comparators.PrincipalComparator" style="stroke: #A80036; stroke-width: 1.5;" width="210" x="1111" y="202"/><ellipse cx="1148.95" cy="218" fill="#ADD1B2" rx="11" ry="11" style="stroke: #A80036; stroke-width: 1.0;"/><path d="M1151.9188,223.6406 Q1151.3406,223.9375 1150.7,224.0859 Q1150.0594,224.2344 1149.3563,224.2344 Q1146.8563,224.2344 1145.5359,222.5859 Q1144.2156,220.9375 1144.2156,217.8125 Q1144.2156,214.6875 1145.5359,213.0313 Q1146.8563,211.375 1149.3563,211.375 Q1150.0594,211.375 1150.7078,211.5313 Q1151.3563,211.6875 1151.9188,211.9844 L1151.9188,214.7031 Q1151.2938,214.125 1150.7,213.8516 Q1150.1063,213.5781 1149.4813,213.5781 Q1148.1375,213.5781 1147.45,214.6484 Q1146.7625,215.7188 1146.7625,217.8125 Q1146.7625,219.9063 1147.45,220.9766 Q1148.1375,222.0469 1149.4813,222.0469 Q1150.1063,222.0469 1150.7,221.7734 Q1151.2938,221.5 1151.9188,220.9219 L1151.9188,223.6406 Z "/><text fill="#000000" font-family="sans-serif" font-size="12" lengthAdjust="spacingAndGlyphs" textLength="127" x="1168.05" y="222.1543">PrincipalComparator</text><line style="stroke: #A80036; stroke-width: 1.5;" x1="1112" x2="1320" y1="234" y2="234"/><line style="stroke: #A80036; stroke-width: 1.5;" x1="1112" x2="1320" y1="242" y2="242"/><ellipse cx="1122" cy="253.9023" fill="#84BE84" rx="3" ry="3" style="stroke: #038048; stroke-width: 1.0;"/><text fill="#000000" font-family="sans-serif" font-size="11" lengthAdjust="spacingAndGlyphs" textLength="184" x="1131" y="256.2104">compare(Principal, Principal): int</text></a><!--class org.apache.wiki.util.comparators.LocaleComparator--><a href="LocaleComparator.html" target="_top" xlink:actuate="onRequest" xlink:show="new" xlink:title="LocaleComparator.html" xlink:type="simple"><rect fill="#FEFECE" filter="url(#ffpeoxt1mbajp)" height="86.4141" id="org.apache.wiki.util.comparators.LocaleComparator" style="stroke: #A80036; stroke-width: 1.5;" width="174" x="103" y="434"/><ellipse cx="130.6" cy="450" fill="#ADD1B2" rx="11" ry="11" style="stroke: #A80036; stroke-width: 1.0;"/><path d="M133.5688,455.6406 Q132.9906,455.9375 132.35,456.0859 Q131.7094,456.2344 131.0063,456.2344 Q128.5063,456.2344 127.1859,454.5859 Q125.8656,452.9375 125.8656,449.8125 Q125.8656,446.6875 127.1859,445.0313 Q128.5063,443.375 131.0063,443.375 Q131.7094,443.375 132.3578,443.5313 Q133.0063,443.6875 133.5688,443.9844 L133.5688,446.7031 Q132.9438,446.125 132.35,445.8516 Q131.7563,445.5781 131.1313,445.5781 Q129.7875,445.5781 129.1,446.6484 Q128.4125,447.7188 128.4125,449.8125 Q128.4125,451.9063 129.1,452.9766 Q129.7875,454.0469 131.1313,454.0469 Q131.7563,454.0469 132.35,453.7734 Q132.9438,453.5 133.5688,452.9219 L133.5688,455.6406 Z "/><text fill="#000000" font-family="sans-serif" font-size="12" lengthAdjust="spacingAndGlyphs" textLength="114" x="147.4" y="454.1543">LocaleComparator</text><line style="stroke: #A80036; stroke-width: 1.5;" x1="104" x2="276" y1="466" y2="466"/><line style="stroke: #A80036; stroke-width: 1.5;" x1="104" x2="276" y1="474" y2="474"/><ellipse cx="114" cy="485.9023" fill="#84BE84" rx="3" ry="3" style="stroke: #038048; stroke-width: 1.0;"/><text fill="#000000" font-family="sans-serif" font-size="11" lengthAdjust="spacingAndGlyphs" textLength="112" x="123" y="488.2104">LocaleComparator()</text><ellipse cx="114" cy="498.707" fill="#84BE84" rx="3" ry="3" style="stroke: #038048; stroke-width: 1.0;"/><text fill="#000000" font-family="sans-serif" font-size="11" lengthAdjust="spacingAndGlyphs" textLength="148" x="123" y="501.0151">LocaleComparator(Locale)</text><ellipse cx="114" cy="511.5117" fill="#84BE84" rx="3" ry="3" style="stroke: #038048; stroke-width: 1.0;"/><text fill="#000000" font-family="sans-serif" font-size="11" lengthAdjust="spacingAndGlyphs" textLength="129" x="123" y="513.8198">setLocale(Locale): void</text></a><!--class org.apache.wiki.util.comparators.CollatorComparator--><a href="CollatorComparator.html" target="_top" xlink:actuate="onRequest" xlink:show="new" xlink:title="CollatorComparator.html" xlink:type="simple"><rect fill="#FEFECE" filter="url(#ffpeoxt1mbajp)" height="124.8281" id="org.apache.wiki.util.comparators.CollatorComparator" style="stroke: #A80036; stroke-width: 1.5;" width="335" x="22.5" y="170"/><ellipse cx="124.75" cy="186" fill="#ADD1B2" rx="11" ry="11" style="stroke: #A80036; stroke-width: 1.0;"/><path d="M127.7188,191.6406 Q127.1406,191.9375 126.5,192.0859 Q125.8594,192.2344 125.1563,192.2344 Q122.6563,192.2344 121.3359,190.5859 Q120.0156,188.9375 120.0156,185.8125 Q120.0156,182.6875 121.3359,181.0313 Q122.6563,179.375 125.1563,179.375 Q125.8594,179.375 126.5078,179.5313 Q127.1563,179.6875 127.7188,179.9844 L127.7188,182.7031 Q127.0938,182.125 126.5,181.8516 Q125.9063,181.5781 125.2813,181.5781 Q123.9375,181.5781 123.25,182.6484 Q122.5625,183.7188 122.5625,185.8125 Q122.5625,187.9063 123.25,188.9766 Q123.9375,190.0469 125.2813,190.0469 Q125.9063,190.0469 126.5,189.7734 Q127.0938,189.5 127.7188,188.9219 L127.7188,191.6406 Z "/><text fill="#000000" font-family="sans-serif" font-size="12" lengthAdjust="spacingAndGlyphs" textLength="122" x="145.25" y="190.1543">CollatorComparator</text><line style="stroke: #A80036; stroke-width: 1.5;" x1="23.5" x2="356.5" y1="202" y2="202"/><ellipse cx="33.5" cy="213.9023" fill="none" rx="3" ry="3" style="stroke: #038048; stroke-width: 1.0;"/><text fill="#000000" font-family="sans-serif" font-size="11" lengthAdjust="spacingAndGlyphs" text-decoration="underline" textLength="309" x="42.5" y="216.2104">DEFAULT_LOCALE_COMPARATOR: Comparator&lt;String&gt;</text><polygon fill="none" points="33.5,221.707,37.5,225.707,33.5,229.707,29.5,225.707" style="stroke: #B38D22; stroke-width: 1.0;"/><text fill="#000000" font-family="sans-serif" font-size="11" lengthAdjust="spacingAndGlyphs" textLength="111" x="42.5" y="229.0151">m_collator: Collator</text><line style="stroke: #A80036; stroke-width: 1.5;" x1="23.5" x2="356.5" y1="235.6094" y2="235.6094"/><ellipse cx="33.5" cy="247.5117" fill="#84BE84" rx="3" ry="3" style="stroke: #038048; stroke-width: 1.0;"/><text fill="#000000" font-family="sans-serif" font-size="11" lengthAdjust="spacingAndGlyphs" textLength="120" x="42.5" y="249.8198">CollatorComparator()</text><ellipse cx="33.5" cy="260.3164" fill="#84BE84" rx="3" ry="3" style="stroke: #038048; stroke-width: 1.0;"/><text fill="#000000" font-family="sans-serif" font-size="11" lengthAdjust="spacingAndGlyphs" textLength="164" x="42.5" y="262.6245">CollatorComparator(Collator)</text><ellipse cx="33.5" cy="273.1211" fill="#84BE84" rx="3" ry="3" style="stroke: #038048; stroke-width: 1.0;"/><text fill="#000000" font-family="sans-serif" font-size="11" lengthAdjust="spacingAndGlyphs" textLength="156" x="42.5" y="275.4292">compare(String, String): int</text><ellipse cx="33.5" cy="285.9258" fill="#84BE84" rx="3" ry="3" style="stroke: #038048; stroke-width: 1.0;"/><text fill="#000000" font-family="sans-serif" font-size="11" lengthAdjust="spacingAndGlyphs" textLength="145" x="42.5" y="288.2339">setCollator(Collator): void</text></a><!--class java.util.Comparator--><rect fill="#FEFECE" filter="url(#ffpeoxt1mbajp)" height="60.8047" id="java.util.Comparator" style="stroke: #A80036; stroke-width: 1.5;" width="128" x="637" y="43"/><ellipse cx="656.95" cy="59" fill="#B4A7E5" rx="11" ry="11" style="stroke: #A80036; stroke-width: 1.0;"/><path d="M652.8719,54.7656 L652.8719,52.6094 L660.2625,52.6094 L660.2625,54.7656 L657.7938,54.7656 L657.7938,62.8438 L660.2625,62.8438 L660.2625,65 L652.8719,65 L652.8719,62.8438 L655.3406,62.8438 L655.3406,54.7656 L652.8719,54.7656 Z "/><text fill="#000000" font-family="sans-serif" font-size="12" font-style="italic" lengthAdjust="spacingAndGlyphs" textLength="74" x="672.05" y="63.1543">Comparator</text><rect fill="#FFFFFF" height="15.9688" style="stroke: #000000; stroke-width: 1.0; stroke-dasharray: 2.0,2.0;" width="9" x="759" y="40"/><text fill="#000000" font-family="sans-serif" font-size="12" font-style="italic" lengthAdjust="spacingAndGlyphs" textLength="7" x="760" y="52.1387">T</text><line style="stroke: #A80036; stroke-width: 1.5;" x1="638" x2="764" y1="75" y2="75"/><line style="stroke: #A80036; stroke-width: 1.5;" x1="638" x2="764" y1="83" y2="83"/><ellipse cx="648" cy="94.9023" fill="#84BE84" rx="3" ry="3" style="stroke: #038048; stroke-width: 1.0;"/><text fill="#000000" font-family="sans-serif" font-size="11" font-style="italic" lengthAdjust="spacingAndGlyphs" textLength="102" x="657" y="97.2104">compare(T, T): int</text><!--class java.io.Serializable--><rect fill="#FEFECE" filter="url(#ffpeoxt1mbajp)" height="48" id="java.io.Serializable" style="stroke: #A80036; stroke-width: 1.5;" width="103" x="1164.5" y="49.5"/><ellipse cx="1179.5" cy="65.5" fill="#B4A7E5" rx="11" ry="11" style="stroke: #A80036; stroke-width: 1.0;"/><path d="M1175.4219,61.2656 L1175.4219,59.1094 L1182.8125,59.1094 L1182.8125,61.2656 L1180.3438,61.2656 L1180.3438,69.3438 L1182.8125,69.3438 L1182.8125,71.5 L1175.4219,71.5 L1175.4219,69.3438 L1177.8906,69.3438 L1177.8906,61.2656 L1175.4219,61.2656 Z "/><text fill="#000000" font-family="sans-serif" font-size="12" font-style="italic" lengthAdjust="spacingAndGlyphs" textLength="71" x="1193.5" y="69.6543">Serializable</text><line style="stroke: #A80036; stroke-width: 1.5;" x1="1165.5" x2="1266.5" y1="81.5" y2="81.5"/><line style="stroke: #A80036; stroke-width: 1.5;" x1="1165.5" x2="1266.5" y1="89.5" y2="89.5"/><!--link java.util.Comparator to org.apache.wiki.util.comparators.JavaNaturalComparator--><path d="M658.2622,118.8021 C635.4503,142.9826 607.7188,172.378 586.1683,195.2216 " fill="none" id="java.util.Comparator-org.apache.wiki.util.comparators.JavaNaturalComparator" style="stroke: #A80036; stroke-width: 1.0; stroke-dasharray: 7.0,7.0;"/><polygon fill="none" points="653.2623,113.9011,672.0785,104.1568,663.4458,123.5083,653.2623,113.9011" style="stroke: #A80036; stroke-width: 1.0;"/><!--link java.util.Comparator to org.apache.wiki.util.comparators.HumanComparator--><path d="M757.2595,116.3003 C781.4638,134.7141 810.0917,156.4932 835.9835,176.1908 " fill="none" id="java.util.Comparator-org.apache.wiki.util.comparators.HumanComparator" style="stroke: #A80036; stroke-width: 1.0; stroke-dasharray: 7.0,7.0;"/><polygon fill="none" points="752.9764,121.8373,741.2973,104.1568,761.453,110.6951,752.9764,121.8373" style="stroke: #A80036; stroke-width: 1.0;"/><!--link org.apache.wiki.util.comparators.HumanComparator to org.apache.wiki.util.comparators.HumanComparator.CharType--><path d="M903.303,303.822 C901.9311,325.981 901.1357,350.4954 902,373 C902.7679,392.9956 904.3634,415.106 905.929,433.78 " fill="none" id="org.apache.wiki.util.comparators.HumanComparator-org.apache.wiki.util.comparators.HumanComparator.CharType" style="stroke: #A80036; stroke-width: 1.0;"/><ellipse cx="903.8079" cy="296.5206" fill="#FFFFFF" rx="8" ry="8" style="stroke: #A80036; stroke-width: 1.0;"/><line style="stroke: #A80036; stroke-width: 1.0;" x1="903.256" x2="904.3598" y1="304.5016" y2="288.5397"/><line style="stroke: #A80036; stroke-width: 1.0;" x1="895.8269" x2="911.7888" y1="295.9687" y2="297.0726"/><!--link org.apache.wiki.util.comparators.HumanComparator to org.apache.wiki.util.comparators.HumanComparator.CharType--><path d="M911.3767,288.8876 C912.0141,322.3447 912.526,365.5921 912,404 C911.8907,411.9787 911.7143,420.4465 911.5103,428.6808 " fill="none" id="org.apache.wiki.util.comparators.HumanComparator-org.apache.wiki.util.comparators.HumanComparator.CharType-1" style="stroke: #A80036; stroke-width: 1.0;"/><polygon fill="#A80036" points="911.3801,433.7711,915.6089,424.8763,911.508,428.7727,907.6116,424.6718,911.3801,433.7711" style="stroke: #A80036; stroke-width: 1.0;"/><text fill="#000000" font-family="sans-serif" font-size="13" lengthAdjust="spacingAndGlyphs" textLength="61" x="913" y="369.0669">sortOrder</text><text fill="#000000" font-family="sans-serif" font-size="13" lengthAdjust="spacingAndGlyphs" textLength="7" x="904.0555" y="423.0486">*</text><!--link java.util.Comparator to org.apache.wiki.util.comparators.PrincipalComparator--><path d="M785.2613,83.8361 C883.6132,96.6945 1039.7248,119.7977 1094,143 C1127.2121,157.198 1159.9425,181.9638 1183.1274,201.8493 " fill="none" id="java.util.Comparator-org.apache.wiki.util.comparators.PrincipalComparator" style="stroke: #A80036; stroke-width: 1.0; stroke-dasharray: 7.0,7.0;"/><polygon fill="none" points="784.1492,90.7507,765.2082,81.2514,785.9389,76.8656,784.1492,90.7507" style="stroke: #A80036; stroke-width: 1.0;"/><!--link java.io.Serializable to org.apache.wiki.util.comparators.PrincipalComparator--><path d="M1216,117.7874 C1216,144.5516 1216,177.9886 1216,201.8447 " fill="none" id="java.io.Serializable-org.apache.wiki.util.comparators.PrincipalComparator" style="stroke: #A80036; stroke-width: 1.0; stroke-dasharray: 7.0,7.0;"/><polygon fill="none" points="1209.0001,117.6487,1216,97.6487,1223.0001,117.6486,1209.0001,117.6487" style="stroke: #A80036; stroke-width: 1.0;"/><!--link org.apache.wiki.util.comparators.CollatorComparator to org.apache.wiki.util.comparators.LocaleComparator--><path d="M190,315.2657 C190,355.0229 190,401.0219 190,433.776 " fill="none" id="org.apache.wiki.util.comparators.CollatorComparator-org.apache.wiki.util.comparators.LocaleComparator" style="stroke: #A80036; stroke-width: 1.0;"/><polygon fill="none" points="183.0001,315.1474,190,295.1473,197.0001,315.1473,183.0001,315.1474" style="stroke: #A80036; stroke-width: 1.0;"/><!--link java.util.Comparator to org.apache.wiki.util.comparators.CollatorComparator--><path d="M616.7607,85.8569 C550.2635,96.9534 455.7311,115.7278 376,143 C353.9605,150.5386 331.1219,160.019 309.3107,169.969 " fill="none" id="java.util.Comparator-org.apache.wiki.util.comparators.CollatorComparator" style="stroke: #A80036; stroke-width: 1.0; stroke-dasharray: 7.0,7.0;"/><polygon fill="none" points="616.0172,78.886,636.8804,82.5908,618.2605,92.7051,616.0172,78.886" style="stroke: #A80036; stroke-width: 1.0;"/><text fill="#888888" font-family="sans-serif" font-size="10" lengthAdjust="spacingAndGlyphs" textLength="186" x="584.5" y="555.2822">UMLDoclet 1.1.4, PlantUML 1.2019.05</text><!--
@startuml

    namespace org.apache.wiki.util.comparators {

        class JavaNaturalComparator [[JavaNaturalComparator.html]] {
            {static} +DEFAULT_JAVA_COMPARATOR: Comparator<String>
            +compare(String, String): int
        }

        class HumanComparator [[HumanComparator.html]] {
            {static} +DEFAULT_HUMAN_COMPARATOR: Comparator<String>
            +HumanComparator()
            +HumanComparator(HumanComparator.CharType[])
            {static} +getInstance(): Comparator<String>
            +compare(String, String): int
        }

        enum org.apache.wiki.util.comparators.HumanComparator.CharType [[HumanComparator.CharType.html]] {
            {static} +TYPE_OTHER
            {static} +TYPE_DIGIT
            {static} +TYPE_LETTER
        }

        class PrincipalComparator [[PrincipalComparator.html]] {
            +compare(Principal, Principal): int
        }

        class LocaleComparator [[LocaleComparator.html]] {
            +LocaleComparator()
            +LocaleComparator(Locale)
            +setLocale(Locale): void
        }

        class CollatorComparator [[CollatorComparator.html]] {
            {static} +DEFAULT_LOCALE_COMPARATOR: Comparator<String>
            #m_collator: Collator
            +CollatorComparator()
            +CollatorComparator(Collator)
            +compare(String, String): int
            +setCollator(Collator): void
        }

        interface java.util.Comparator<T> {
            {abstract} +compare(T, T): int
        }
        java.util.Comparator <|.. JavaNaturalComparator

        java.util.Comparator <|.. HumanComparator

        HumanComparator +- - org.apache.wiki.util.comparators.HumanComparator.CharType

        java.util.Comparator <|.. PrincipalComparator

        interface java.io.Serializable
        java.io.Serializable <|.. PrincipalComparator

        CollatorComparator <|- - LocaleComparator

        java.util.Comparator <|.. CollatorComparator

        HumanComparator - -> "*" org.apache.wiki.util.comparators.HumanComparator.CharType: sortOrder

    }


    center footer UMLDoclet 1.1.4, PlantUML 1.2019.05
@enduml

PlantUML version 1.2019.05(Sat Apr 20 16:45:36 UTC 2019)
(APACHE source distribution)
Java Runtime: Java(TM) SE Runtime Environment
JVM: Java HotSpot(TM) 64-Bit Server VM
Java Version: 1.8.0_241-b07
Operating System: Linux
OS Version: 4.15.0-76-generic
Default Encoding: ISO-8859-1
Language: en
Country: US
--></g></svg>