<?xml version="1.0" encoding="UTF-8" standalone="no"?><svg xmlns="http://www.w3.org/2000/svg" xmlns:xlink="http://www.w3.org/1999/xlink" contentScriptType="application/ecmascript" contentStyleType="text/css" height="241px" preserveAspectRatio="none" style="width:313px;height:241px;background:#FFFFFF;" version="1.1" viewBox="0 0 313 241" width="313px" zoomAndPan="magnify"><defs><filter height="300%" id="f1hz1ymr5cyada" width="300%" x="-1" y="-1"><feGaussianBlur result="blurOut" stdDeviation="2.0"/><feColorMatrix in="blurOut" result="blurOut2" type="matrix" values="0 0 0 0 0 0 0 0 0 0 0 0 0 0 0 0 0 0 .4 0"/><feOffset dx="4.0" dy="4.0" in="blurOut2" result="blurOut3"/><feBlend in="SourceGraphic" in2="blurOut3" mode="normal"/></filter></defs><g><!--MD5=[6861a3ba990e090d402f6fb44333b95e]
class org.apache.wiki.spi.ContentsSPIDefaultImpl--><a href="ContentsSPIDefaultImpl.html" target="_top" title="ContentsSPIDefaultImpl.html" xlink:actuate="onRequest" xlink:href="ContentsSPIDefaultImpl.html" xlink:show="new" xlink:title="ContentsSPIDefaultImpl.html" xlink:type="simple"><rect codeLine="5" fill="#FEFECE" filter="url(#f1hz1ymr5cyada)" height="71.5469" id="org.apache.wiki.spi.ContentsSPIDefaultImpl" style="stroke:#A80036;stroke-width:1.5;" width="292" x="7" y="139"/><ellipse cx="67.75" cy="157.9688" fill="#ADD1B2" rx="11" ry="11" style="stroke:#A80036;stroke-width:1.0;"/><path d="M70.7188,163.6094 Q70.1406,163.9063 69.5,164.0469 Q68.8594,164.2031 68.1563,164.2031 Q65.6563,164.2031 64.3281,162.5625 Q63.0156,160.9063 63.0156,157.7813 Q63.0156,154.6563 64.3281,153 Q65.6563,151.3438 68.1563,151.3438 Q68.8594,151.3438 69.5,151.5 Q70.1563,151.6563 70.7188,151.9531 L70.7188,154.6719 Q70.0938,154.0938 69.5,153.8281 Q68.9063,153.5469 68.2813,153.5469 Q66.9375,153.5469 66.25,154.625 Q65.5625,155.6875 65.5625,157.7813 Q65.5625,159.875 66.25,160.9531 Q66.9375,162.0156 68.2813,162.0156 Q68.9063,162.0156 69.5,161.75 Q70.0938,161.4688 70.7188,160.8906 L70.7188,163.6094 Z " fill="#000000"/><text fill="#000000" font-family="sans-serif" font-size="14" lengthAdjust="spacing" textLength="162" x="88.25" y="156.9951">ContentsSPIDefaultImpl</text><text fill="#000000" font-family="sans-serif" font-size="10" lengthAdjust="spacing" textLength="90" x="124.25" y="169.5791">org.apache.wiki.spi</text><line style="stroke:#A80036;stroke-width:1.5;" x1="8" x2="298" y1="176.9375" y2="176.9375"/><ellipse cx="18" cy="187.9375" fill="#84BE84" rx="3" ry="3" style="stroke:#038048;stroke-width:1.0;"/><text fill="#000000" font-family="sans-serif" font-size="11" lengthAdjust="spacing" textLength="266" x="27" y="191.1479">attachment(Engine, String, String): Attachment</text><ellipse cx="18" cy="200.7422" fill="#84BE84" rx="3" ry="3" style="stroke:#038048;stroke-width:1.0;"/><text fill="#000000" font-family="sans-serif" font-size="11" lengthAdjust="spacing" textLength="152" x="27" y="203.9526">page(Engine, String): Page</text></a><!--MD5=[8f2da63379beffa948bd49efaa6b9718]
class org.apache.wiki.api.spi.ContentsSPI--><a href="../api/spi/ContentsSPI.html" target="_top" title="../api/spi/ContentsSPI.html" xlink:actuate="onRequest" xlink:href="../api/spi/ContentsSPI.html" xlink:show="new" xlink:title="../api/spi/ContentsSPI.html" xlink:type="simple"><rect codeLine="10" fill="#FEFECE" filter="url(#f1hz1ymr5cyada)" height="71.5469" id="org.apache.wiki.api.spi.ContentsSPI" style="stroke:#A80036;stroke-width:1.5;" width="291" x="7.5" y="7"/><ellipse cx="92.25" cy="25.9688" fill="#B4A7E5" rx="11" ry="11" style="stroke:#A80036;stroke-width:1.0;"/><path d="M88.1719,21.7344 L88.1719,19.5781 L95.5625,19.5781 L95.5625,21.7344 L93.0938,21.7344 L93.0938,29.8125 L95.5625,29.8125 L95.5625,31.9688 L88.1719,31.9688 L88.1719,29.8125 L90.6406,29.8125 L90.6406,21.7344 L88.1719,21.7344 Z " fill="#000000"/><text fill="#000000" font-family="sans-serif" font-size="14" font-style="italic" lengthAdjust="spacing" textLength="84" x="127.25" y="24.9951">ContentsSPI</text><text fill="#000000" font-family="sans-serif" font-size="10" font-style="italic" lengthAdjust="spacing" textLength="113" x="112.75" y="37.5791">org.apache.wiki.api.spi</text><line style="stroke:#A80036;stroke-width:1.5;" x1="8.5" x2="297.5" y1="44.9375" y2="44.9375"/><ellipse cx="18.5" cy="55.9375" fill="#84BE84" rx="3" ry="3" style="stroke:#038048;stroke-width:1.0;"/><text fill="#000000" font-family="sans-serif" font-size="11" font-style="italic" lengthAdjust="spacing" textLength="265" x="27.5" y="59.1479">attachment(Engine, String, String): Attachment</text><ellipse cx="18.5" cy="68.7422" fill="#84BE84" rx="3" ry="3" style="stroke:#038048;stroke-width:1.0;"/><text fill="#000000" font-family="sans-serif" font-size="11" font-style="italic" lengthAdjust="spacing" textLength="151" x="27.5" y="71.9526">page(Engine, String): Page</text></a><!--MD5=[76506b523babbddcba7740e56960da8f]
reverse link org.apache.wiki.api.spi.ContentsSPI to org.apache.wiki.spi.ContentsSPIDefaultImpl--><path codeLine="15" d="M153,99.38 C153,112.74 153,126.65 153,138.79 " fill="none" id="org.apache.wiki.api.spi.ContentsSPI-backto-org.apache.wiki.spi.ContentsSPIDefaultImpl" style="stroke:#A80036;stroke-width:1.0;stroke-dasharray:7.0,7.0;"/><polygon fill="none" points="146,99.18,153,79.18,160,99.18,146,99.18" style="stroke:#A80036;stroke-width:1.0;"/><text fill="#888888" font-family="sans-serif" font-size="10" lengthAdjust="spacing" textLength="192" x="54" y="232.8291">UMLDoclet 2.0.15, PlantUML 1.2021.13</text><!--MD5=[a63fbe7585bc53a4a801f4035e0d7baf]
@startuml
    set namespaceSeparator none
    hide empty fields
    hide empty methods

    class "<size:14>ContentsSPIDefaultImpl\n<size:10>org.apache.wiki.spi" as org.apache.wiki.spi.ContentsSPIDefaultImpl [[ContentsSPIDefaultImpl.html]] {
        +attachment(Engine, String, String): Attachment
        +page(Engine, String): Page
    }

    interface "<size:14>ContentsSPI\n<size:10>org.apache.wiki.api.spi" as org.apache.wiki.api.spi.ContentsSPI [[../api/spi/ContentsSPI.html]] {
        {abstract} +attachment(Engine, String, String): Attachment
        {abstract} +page(Engine, String): Page
    }

    org.apache.wiki.api.spi.ContentsSPI <|.. org.apache.wiki.spi.ContentsSPIDefaultImpl

    center footer UMLDoclet 2.0.15, PlantUML 1.2021.13
@enduml

PlantUML version 1.2021.13(Mon Nov 01 11:38:45 UTC 2021)
(APACHE source distribution)
Java Runtime: OpenJDK Runtime Environment
JVM: OpenJDK 64-Bit Server VM
Default Encoding: UTF-8
Language: en
Country: US
--></g></svg>