<?xml version="1.0" encoding="UTF-8" standalone="no"?><svg xmlns="http://www.w3.org/2000/svg" xmlns:xlink="http://www.w3.org/1999/xlink" contentScriptType="application/ecmascript" contentStyleType="text/css" height="232px" preserveAspectRatio="none" style="width:324px;height:232px;background:#FFFFFF;" version="1.1" viewBox="0 0 324 232" width="324px" zoomAndPan="magnify"><defs><filter height="300%" id="f2fwr4fsy30e4" width="300%" x="-1" y="-1"><feGaussianBlur result="blurOut" stdDeviation="2.0"/><feColorMatrix in="blurOut" result="blurOut2" type="matrix" values="0 0 0 0 0 0 0 0 0 0 0 0 0 0 0 0 0 0 .4 0"/><feOffset dx="4.0" dy="4.0" in="blurOut2" result="blurOut3"/><feBlend in="SourceGraphic" in2="blurOut3" mode="normal"/></filter></defs><g><!--MD5=[92593d5583939ffb6c5e00669d0e1bfc]
class org.apache.wiki.ui.WikiRequestWrapper--><a href="WikiRequestWrapper.html" target="_top" title="WikiRequestWrapper.html" xlink:actuate="onRequest" xlink:href="WikiRequestWrapper.html" xlink:show="new" xlink:title="WikiRequestWrapper.html" xlink:type="simple"><rect codeLine="5" fill="#FEFECE" filter="url(#f2fwr4fsy30e4)" height="97.1563" id="org.apache.wiki.ui.WikiRequestWrapper" style="stroke:#A80036;stroke-width:1.5;" width="303" x="7" y="105"/><ellipse cx="82.25" cy="123.9688" fill="#ADD1B2" rx="11" ry="11" style="stroke:#A80036;stroke-width:1.0;"/><path d="M85.2188,129.6094 Q84.6406,129.9063 84,130.0469 Q83.3594,130.2031 82.6563,130.2031 Q80.1563,130.2031 78.8281,128.5625 Q77.5156,126.9063 77.5156,123.7813 Q77.5156,120.6563 78.8281,119 Q80.1563,117.3438 82.6563,117.3438 Q83.3594,117.3438 84,117.5 Q84.6563,117.6563 85.2188,117.9531 L85.2188,120.6719 Q84.5938,120.0938 84,119.8281 Q83.4063,119.5469 82.7813,119.5469 Q81.4375,119.5469 80.75,120.625 Q80.0625,121.6875 80.0625,123.7813 Q80.0625,125.875 80.75,126.9531 Q81.4375,128.0156 82.7813,128.0156 Q83.4063,128.0156 84,127.75 Q84.5938,127.4688 85.2188,126.8906 L85.2188,129.6094 Z " fill="#000000"/><text fill="#000000" font-family="sans-serif" font-size="14" lengthAdjust="spacing" textLength="144" x="102.75" y="122.9951">WikiRequestWrapper</text><text fill="#000000" font-family="sans-serif" font-size="10" lengthAdjust="spacing" textLength="85" x="132.25" y="135.5791">org.apache.wiki.ui</text><line style="stroke:#A80036;stroke-width:1.5;" x1="8" x2="309" y1="142.9375" y2="142.9375"/><ellipse cx="18" cy="153.9375" fill="#84BE84" rx="3" ry="3" style="stroke:#038048;stroke-width:1.0;"/><text fill="#000000" font-family="sans-serif" font-size="11" lengthAdjust="spacing" textLength="277" x="27" y="157.1479">WikiRequestWrapper(Engine, HttpServletRequest)</text><ellipse cx="18" cy="166.7422" fill="#84BE84" rx="3" ry="3" style="stroke:#038048;stroke-width:1.0;"/><text fill="#000000" font-family="sans-serif" font-size="11" lengthAdjust="spacing" textLength="138" x="27" y="169.9526">getRemoteUser(): String</text><ellipse cx="18" cy="179.5469" fill="#84BE84" rx="3" ry="3" style="stroke:#038048;stroke-width:1.0;"/><text fill="#000000" font-family="sans-serif" font-size="11" lengthAdjust="spacing" textLength="157" x="27" y="182.7573">getUserPrincipal(): Principal</text><ellipse cx="18" cy="192.3516" fill="#84BE84" rx="3" ry="3" style="stroke:#038048;stroke-width:1.0;"/><text fill="#000000" font-family="sans-serif" font-size="11" lengthAdjust="spacing" textLength="166" x="27" y="195.562">isUserInRole(String): boolean</text></a><!--MD5=[580c64216bd27b5e77aa2770e0ea4afb]
class javax.servlet.http.HttpServletRequestWrapper--><rect codeLine="12" fill="#FEFECE" filter="url(#f2fwr4fsy30e4)" height="37.9375" id="javax.servlet.http.HttpServletRequestWrapper" style="stroke:#A80036;stroke-width:1.5;" width="225" x="46" y="7"/><ellipse cx="61" cy="25.9688" fill="#ADD1B2" rx="11" ry="11" style="stroke:#A80036;stroke-width:1.0;"/><path d="M63.9688,31.6094 Q63.3906,31.9063 62.75,32.0469 Q62.1094,32.2031 61.4063,32.2031 Q58.9063,32.2031 57.5781,30.5625 Q56.2656,28.9063 56.2656,25.7813 Q56.2656,22.6563 57.5781,21 Q58.9063,19.3438 61.4063,19.3438 Q62.1094,19.3438 62.75,19.5 Q63.4063,19.6563 63.9688,19.9531 L63.9688,22.6719 Q63.3438,22.0938 62.75,21.8281 Q62.1563,21.5469 61.5313,21.5469 Q60.1875,21.5469 59.5,22.625 Q58.8125,23.6875 58.8125,25.7813 Q58.8125,27.875 59.5,28.9531 Q60.1875,30.0156 61.5313,30.0156 Q62.1563,30.0156 62.75,29.75 Q63.3438,29.4688 63.9688,28.8906 L63.9688,31.6094 Z " fill="#000000"/><text fill="#000000" font-family="sans-serif" font-size="14" lengthAdjust="spacing" textLength="193" x="75" y="24.9951">HttpServletRequestWrapper</text><text fill="#000000" font-family="sans-serif" font-size="10" lengthAdjust="spacing" textLength="85" x="129" y="37.5791">javax.servlet.http</text><!--MD5=[d0797cc52bbf818b76a6752a4f2c389f]
reverse link javax.servlet.http.HttpServletRequestWrapper to org.apache.wiki.ui.WikiRequestWrapper--><path codeLine="14" d="M158.5,65.4138 C158.5,77.8609 158.5,91.7643 158.5,104.7811 " fill="none" id="javax.servlet.http.HttpServletRequestWrapper-backto-org.apache.wiki.ui.WikiRequestWrapper" style="stroke:#A80036;stroke-width:1.0;"/><polygon fill="none" points="151.5001,65.0881,158.5,45.088,165.5001,65.088,151.5001,65.0881" style="stroke:#A80036;stroke-width:1.0;"/><text fill="#888888" font-family="sans-serif" font-size="10" lengthAdjust="spacing" textLength="186" x="62.5" y="224.4385">UMLDoclet 2.0.14, PlantUML 1.2021.9</text><!--MD5=[a7ac9340f7c748dc391fa8018a7b6323]
@startuml
    set namespaceSeparator none
    hide empty fields
    hide empty methods

    class "<size:14>WikiRequestWrapper\n<size:10>org.apache.wiki.ui" as org.apache.wiki.ui.WikiRequestWrapper [[WikiRequestWrapper.html]] {
        +WikiRequestWrapper(Engine, HttpServletRequest)
        +getRemoteUser(): String
        +getUserPrincipal(): Principal
        +isUserInRole(String): boolean
    }

    class "<size:14>HttpServletRequestWrapper\n<size:10>javax.servlet.http" as javax.servlet.http.HttpServletRequestWrapper

    javax.servlet.http.HttpServletRequestWrapper <|- - org.apache.wiki.ui.WikiRequestWrapper

    center footer UMLDoclet 2.0.14, PlantUML 1.2021.9
@enduml

PlantUML version 1.2021.9(Sun Jul 25 10:13:56 UTC 2021)
(APACHE source distribution)
Java Runtime: Java(TM) SE Runtime Environment
JVM: Java HotSpot(TM) 64-Bit Server VM
Default Encoding: ISO-8859-1
Language: en
Country: US
--></g></svg>