<?xml version="1.0" encoding="UTF-8" standalone="no"?><svg xmlns="http://www.w3.org/2000/svg" xmlns:xlink="http://www.w3.org/1999/xlink" contentScriptType="application/ecmascript" contentStyleType="text/css" height="139px" preserveAspectRatio="none" style="width:216px;height:139px;" version="1.1" viewBox="0 0 216 139" width="216px" zoomAndPan="magnify"><defs><filter height="300%" id="fill7lcvbomby" width="300%" x="-1" y="-1"><feGaussianBlur result="blurOut" stdDeviation="2.0"/><feColorMatrix in="blurOut" result="blurOut2" type="matrix" values="0 0 0 0 0 0 0 0 0 0 0 0 0 0 0 0 0 0 .4 0"/><feOffset dx="4.0" dy="4.0" in="blurOut2" result="blurOut3"/><feBlend in="SourceGraphic" in2="blurOut3" mode="normal"/></filter></defs><g><!--class ByteUtils--><a href="ByteUtils.html" target="_top" xlink:actuate="onRequest" xlink:show="new" xlink:title="ByteUtils.html" xlink:type="simple"><rect fill="#FEFECE" filter="url(#fill7lcvbomby)" height="99.2188" id="ByteUtils" style="stroke: #A80036; stroke-width: 1.5;" width="198" x="6" y="8"/><ellipse cx="73.75" cy="24" fill="#ADD1B2" rx="11" ry="11" style="stroke: #A80036; stroke-width: 1.0;"/><path d="M76.7188,29.6406 Q76.1406,29.9375 75.5,30.0859 Q74.8594,30.2344 74.1563,30.2344 Q71.6563,30.2344 70.3359,28.5859 Q69.0156,26.9375 69.0156,23.8125 Q69.0156,20.6875 70.3359,19.0313 Q71.6563,17.375 74.1563,17.375 Q74.8594,17.375 75.5078,17.5313 Q76.1563,17.6875 76.7188,17.9844 L76.7188,20.7031 Q76.0938,20.125 75.5,19.8516 Q74.9063,19.5781 74.2813,19.5781 Q72.9375,19.5781 72.25,20.6484 Q71.5625,21.7188 71.5625,23.8125 Q71.5625,25.9063 72.25,26.9766 Q72.9375,28.0469 74.2813,28.0469 Q74.9063,28.0469 75.5,27.7734 Q76.0938,27.5 76.7188,26.9219 L76.7188,29.6406 Z "/><text fill="#000000" font-family="sans-serif" font-size="12" lengthAdjust="spacingAndGlyphs" textLength="54" x="94.25" y="28.1543">ByteUtils</text><line style="stroke: #A80036; stroke-width: 1.5;" x1="7" x2="203" y1="40" y2="40"/><line style="stroke: #A80036; stroke-width: 1.5;" x1="7" x2="203" y1="48" y2="48"/><ellipse cx="17" cy="59.9023" fill="#84BE84" rx="3" ry="3" style="stroke: #038048; stroke-width: 1.0;"/><text fill="#000000" font-family="sans-serif" font-size="11" lengthAdjust="spacingAndGlyphs" text-decoration="underline" textLength="140" x="26" y="62.2104">bytes2hex(byte[]): String</text><ellipse cx="17" cy="72.707" fill="#84BE84" rx="3" ry="3" style="stroke: #038048; stroke-width: 1.0;"/><text fill="#000000" font-family="sans-serif" font-size="11" lengthAdjust="spacingAndGlyphs" text-decoration="underline" textLength="125" x="26" y="75.0151">byte2hex(byte): String</text><ellipse cx="17" cy="85.5117" fill="#84BE84" rx="3" ry="3" style="stroke: #038048; stroke-width: 1.0;"/><text fill="#000000" font-family="sans-serif" font-size="11" lengthAdjust="spacingAndGlyphs" text-decoration="underline" textLength="172" x="26" y="87.8198">parseHexBinary(String): byte[]</text><ellipse cx="17" cy="98.3164" fill="#84BE84" rx="3" ry="3" style="stroke: #038048; stroke-width: 1.0;"/><text fill="#000000" font-family="sans-serif" font-size="11" lengthAdjust="spacingAndGlyphs" text-decoration="underline" textLength="107" x="26" y="100.6245">hexToBin(char): int</text></a><text fill="#888888" font-family="sans-serif" font-size="10" lengthAdjust="spacingAndGlyphs" textLength="186" x="18" y="126.2822">UMLDoclet 1.1.4, PlantUML 1.2019.05</text><!--
@startuml

    class ByteUtils [[ByteUtils.html]] {
        {static} +bytes2hex(byte[]): String
        {static} +byte2hex(byte): String
        {static} +parseHexBinary(String): byte[]
        {static} +hexToBin(char): int
    }


    center footer UMLDoclet 1.1.4, PlantUML 1.2019.05
@enduml

PlantUML version 1.2019.05(Sat Apr 20 16:45:36 UTC 2019)
(APACHE source distribution)
Java Runtime: Java(TM) SE Runtime Environment
JVM: Java HotSpot(TM) 64-Bit Server VM
Java Version: 1.8.0_191-b12
Operating System: Linux
OS Version: 4.15.0-76-generic
Default Encoding: ISO-8859-1
Language: en
Country: US
--></g></svg>