<?xml version="1.0" encoding="UTF-8" standalone="no"?><svg xmlns="http://www.w3.org/2000/svg" xmlns:xlink="http://www.w3.org/1999/xlink" contentScriptType="application/ecmascript" contentStyleType="text/css" height="216px" preserveAspectRatio="none" style="width:238px;height:216px;" version="1.1" viewBox="0 0 238 216" width="238px" zoomAndPan="magnify"><defs><filter height="300%" id="f1k9e8mo55pwe3" width="300%" x="-1" y="-1"><feGaussianBlur result="blurOut" stdDeviation="2.0"/><feColorMatrix in="blurOut" result="blurOut2" type="matrix" values="0 0 0 0 0 0 0 0 0 0 0 0 0 0 0 0 0 0 .4 0"/><feOffset dx="4.0" dy="4.0" in="blurOut2" result="blurOut3"/><feBlend in="SourceGraphic" in2="blurOut3" mode="normal"/></filter></defs><g><!--class CommentedProperties--><a href="CommentedProperties.html" target="_top" xlink:actuate="onRequest" xlink:show="new" xlink:title="CommentedProperties.html" xlink:type="simple"><rect fill="#FEFECE" filter="url(#f1k9e8mo55pwe3)" height="176.0469" id="CommentedProperties" style="stroke: #A80036; stroke-width: 1.5;" width="221" x="6" y="8"/><ellipse cx="43.05" cy="24" fill="#ADD1B2" rx="11" ry="11" style="stroke: #A80036; stroke-width: 1.0;"/><path d="M46.0188,29.6406 Q45.4406,29.9375 44.8,30.0859 Q44.1594,30.2344 43.4563,30.2344 Q40.9563,30.2344 39.6359,28.5859 Q38.3156,26.9375 38.3156,23.8125 Q38.3156,20.6875 39.6359,19.0313 Q40.9563,17.375 43.4563,17.375 Q44.1594,17.375 44.8078,17.5313 Q45.4563,17.6875 46.0188,17.9844 L46.0188,20.7031 Q45.3938,20.125 44.8,19.8516 Q44.2063,19.5781 43.5813,19.5781 Q42.2375,19.5781 41.55,20.6484 Q40.8625,21.7188 40.8625,23.8125 Q40.8625,25.9063 41.55,26.9766 Q42.2375,28.0469 43.5813,28.0469 Q44.2063,28.0469 44.8,27.7734 Q45.3938,27.5 46.0188,26.9219 L46.0188,29.6406 Z "/><text fill="#000000" font-family="sans-serif" font-size="12" lengthAdjust="spacingAndGlyphs" textLength="140" x="61.95" y="28.1543">CommentedProperties</text><line style="stroke: #A80036; stroke-width: 1.5;" x1="7" x2="226" y1="40" y2="40"/><line style="stroke: #A80036; stroke-width: 1.5;" x1="7" x2="226" y1="48" y2="48"/><ellipse cx="17" cy="59.9023" fill="#84BE84" rx="3" ry="3" style="stroke: #038048; stroke-width: 1.0;"/><text fill="#000000" font-family="sans-serif" font-size="11" lengthAdjust="spacingAndGlyphs" textLength="136" x="26" y="62.2104">CommentedProperties()</text><ellipse cx="17" cy="72.707" fill="#84BE84" rx="3" ry="3" style="stroke: #038048; stroke-width: 1.0;"/><text fill="#000000" font-family="sans-serif" font-size="11" lengthAdjust="spacingAndGlyphs" textLength="195" x="26" y="75.0151">CommentedProperties(Properties)</text><ellipse cx="17" cy="85.5117" fill="#84BE84" rx="3" ry="3" style="stroke: #038048; stroke-width: 1.0;"/><text fill="#000000" font-family="sans-serif" font-size="11" lengthAdjust="spacingAndGlyphs" textLength="133" x="26" y="87.8198">load(InputStream): void</text><ellipse cx="17" cy="98.3164" fill="#84BE84" rx="3" ry="3" style="stroke: #038048; stroke-width: 1.0;"/><text fill="#000000" font-family="sans-serif" font-size="11" lengthAdjust="spacingAndGlyphs" textLength="103" x="26" y="100.6245">load(Reader): void</text><ellipse cx="17" cy="111.1211" fill="#84BE84" rx="3" ry="3" style="stroke: #038048; stroke-width: 1.0;"/><text fill="#000000" font-family="sans-serif" font-size="11" lengthAdjust="spacingAndGlyphs" textLength="194" x="26" y="113.4292">setProperty(String, String): Object</text><ellipse cx="17" cy="123.9258" fill="#84BE84" rx="3" ry="3" style="stroke: #038048; stroke-width: 1.0;"/><text fill="#000000" font-family="sans-serif" font-size="11" lengthAdjust="spacingAndGlyphs" textLength="191" x="26" y="126.2339">store(OutputStream, String): void</text><ellipse cx="17" cy="136.7305" fill="#84BE84" rx="3" ry="3" style="stroke: #038048; stroke-width: 1.0;"/><text fill="#000000" font-family="sans-serif" font-size="11" lengthAdjust="spacingAndGlyphs" textLength="150" x="26" y="139.0386">put(Object, Object): Object</text><ellipse cx="17" cy="149.5352" fill="#84BE84" rx="3" ry="3" style="stroke: #038048; stroke-width: 1.0;"/><text fill="#000000" font-family="sans-serif" font-size="11" lengthAdjust="spacingAndGlyphs" textLength="131" x="26" y="151.8433">putAll(Map&lt;?, ?&gt;): void</text><ellipse cx="17" cy="162.3398" fill="#84BE84" rx="3" ry="3" style="stroke: #038048; stroke-width: 1.0;"/><text fill="#000000" font-family="sans-serif" font-size="11" lengthAdjust="spacingAndGlyphs" textLength="131" x="26" y="164.6479">remove(Object): Object</text><ellipse cx="17" cy="175.1445" fill="#84BE84" rx="3" ry="3" style="stroke: #038048; stroke-width: 1.0;"/><text fill="#000000" font-family="sans-serif" font-size="11" lengthAdjust="spacingAndGlyphs" textLength="95" x="26" y="177.4526">toString(): String</text></a><text fill="#888888" font-family="sans-serif" font-size="10" lengthAdjust="spacingAndGlyphs" textLength="186" x="29.5" y="203.2822">UMLDoclet 1.1.4, PlantUML 1.2019.05</text><!--
@startuml

    class CommentedProperties [[CommentedProperties.html]] {
        +CommentedProperties()
        +CommentedProperties(Properties)
        +load(InputStream): void
        +load(Reader): void
        +setProperty(String, String): Object
        +store(OutputStream, String): void
        +put(Object, Object): Object
        +putAll(Map<?, ?>): void
        +remove(Object): Object
        +toString(): String
    }


    center footer UMLDoclet 1.1.4, PlantUML 1.2019.05
@enduml

PlantUML version 1.2019.05(Sat Apr 20 16:45:36 UTC 2019)
(APACHE source distribution)
Java Runtime: Java(TM) SE Runtime Environment
JVM: Java HotSpot(TM) 64-Bit Server VM
Java Version: 1.8.0_241-b07
Operating System: Linux
OS Version: 4.15.0-76-generic
Default Encoding: ISO-8859-1
Language: en
Country: US
--></g></svg>