<?xml version="1.0" encoding="UTF-8" standalone="no"?><svg xmlns="http://www.w3.org/2000/svg" xmlns:xlink="http://www.w3.org/1999/xlink" contentScriptType="application/ecmascript" contentStyleType="text/css" height="190px" preserveAspectRatio="none" style="width:317px;height:190px;" version="1.1" viewBox="0 0 317 190" width="317px" zoomAndPan="magnify"><defs><filter height="300%" id="f1rew5glm976vp" width="300%" x="-1" y="-1"><feGaussianBlur result="blurOut" stdDeviation="2.0"/><feColorMatrix in="blurOut" result="blurOut2" type="matrix" values="0 0 0 0 0 0 0 0 0 0 0 0 0 0 0 0 0 0 .4 0"/><feOffset dx="4.0" dy="4.0" in="blurOut2" result="blurOut3"/><feBlend in="SourceGraphic" in2="blurOut3" mode="normal"/></filter></defs><g><!--class FileUtil--><a href="FileUtil.html" target="_top" xlink:actuate="onRequest" xlink:show="new" xlink:title="FileUtil.html" xlink:type="simple"><rect fill="#FEFECE" filter="url(#f1rew5glm976vp)" height="150.4375" id="FileUtil" style="stroke: #A80036; stroke-width: 1.5;" width="300" x="6" y="8"/><ellipse cx="131.25" cy="24" fill="#ADD1B2" rx="11" ry="11" style="stroke: #A80036; stroke-width: 1.0;"/><path d="M134.2188,29.6406 Q133.6406,29.9375 133,30.0859 Q132.3594,30.2344 131.6563,30.2344 Q129.1563,30.2344 127.8359,28.5859 Q126.5156,26.9375 126.5156,23.8125 Q126.5156,20.6875 127.8359,19.0313 Q129.1563,17.375 131.6563,17.375 Q132.3594,17.375 133.0078,17.5313 Q133.6563,17.6875 134.2188,17.9844 L134.2188,20.7031 Q133.5938,20.125 133,19.8516 Q132.4063,19.5781 131.7813,19.5781 Q130.4375,19.5781 129.75,20.6484 Q129.0625,21.7188 129.0625,23.8125 Q129.0625,25.9063 129.75,26.9766 Q130.4375,28.0469 131.7813,28.0469 Q132.4063,28.0469 133,27.7734 Q133.5938,27.5 134.2188,26.9219 L134.2188,29.6406 Z "/><text fill="#000000" font-family="sans-serif" font-size="12" lengthAdjust="spacingAndGlyphs" textLength="41" x="151.75" y="28.1543">FileUtil</text><line style="stroke: #A80036; stroke-width: 1.5;" x1="7" x2="305" y1="40" y2="40"/><line style="stroke: #A80036; stroke-width: 1.5;" x1="7" x2="305" y1="48" y2="48"/><ellipse cx="17" cy="59.9023" fill="#84BE84" rx="3" ry="3" style="stroke: #038048; stroke-width: 1.0;"/><text fill="#000000" font-family="sans-serif" font-size="11" lengthAdjust="spacingAndGlyphs" text-decoration="underline" textLength="189" x="26" y="62.2104">newTmpFile(String, Charset): File</text><ellipse cx="17" cy="72.707" fill="#84BE84" rx="3" ry="3" style="stroke: #038048; stroke-width: 1.0;"/><text fill="#000000" font-family="sans-serif" font-size="11" lengthAdjust="spacingAndGlyphs" text-decoration="underline" textLength="136" x="26" y="75.0151">newTmpFile(String): File</text><ellipse cx="17" cy="85.5117" fill="#84BE84" rx="3" ry="3" style="stroke: #038048; stroke-width: 1.0;"/><text fill="#000000" font-family="sans-serif" font-size="11" lengthAdjust="spacingAndGlyphs" text-decoration="underline" textLength="242" x="26" y="87.8198">runSimpleCommand(String, String): String</text><ellipse cx="17" cy="98.3164" fill="#84BE84" rx="3" ry="3" style="stroke: #038048; stroke-width: 1.0;"/><text fill="#000000" font-family="sans-serif" font-size="11" lengthAdjust="spacingAndGlyphs" text-decoration="underline" textLength="197" x="26" y="100.6245">copyContents(Reader, Writer): void</text><ellipse cx="17" cy="111.1211" fill="#84BE84" rx="3" ry="3" style="stroke: #038048; stroke-width: 1.0;"/><text fill="#000000" font-family="sans-serif" font-size="11" lengthAdjust="spacingAndGlyphs" text-decoration="underline" textLength="274" x="26" y="113.4292">copyContents(InputStream, OutputStream): void</text><ellipse cx="17" cy="123.9258" fill="#84BE84" rx="3" ry="3" style="stroke: #038048; stroke-width: 1.0;"/><text fill="#000000" font-family="sans-serif" font-size="11" lengthAdjust="spacingAndGlyphs" text-decoration="underline" textLength="239" x="26" y="126.2339">readContents(InputStream, String): String</text><ellipse cx="17" cy="136.7305" fill="#84BE84" rx="3" ry="3" style="stroke: #038048; stroke-width: 1.0;"/><text fill="#000000" font-family="sans-serif" font-size="11" lengthAdjust="spacingAndGlyphs" text-decoration="underline" textLength="167" x="26" y="139.0386">readContents(Reader): String</text><ellipse cx="17" cy="149.5352" fill="#84BE84" rx="3" ry="3" style="stroke: #038048; stroke-width: 1.0;"/><text fill="#000000" font-family="sans-serif" font-size="11" lengthAdjust="spacingAndGlyphs" text-decoration="underline" textLength="220" x="26" y="151.8433">getThrowingMethod(Throwable): String</text></a><text fill="#888888" font-family="sans-serif" font-size="10" lengthAdjust="spacingAndGlyphs" textLength="186" x="69" y="177.2822">UMLDoclet 1.1.4, PlantUML 1.2019.05</text><!--
@startuml

    class FileUtil [[FileUtil.html]] {
        {static} +newTmpFile(String, Charset): File
        {static} +newTmpFile(String): File
        {static} +runSimpleCommand(String, String): String
        {static} +copyContents(Reader, Writer): void
        {static} +copyContents(InputStream, OutputStream): void
        {static} +readContents(InputStream, String): String
        {static} +readContents(Reader): String
        {static} +getThrowingMethod(Throwable): String
    }


    center footer UMLDoclet 1.1.4, PlantUML 1.2019.05
@enduml

PlantUML version 1.2019.05(Sat Apr 20 16:45:36 UTC 2019)
(APACHE source distribution)
Java Runtime: Java(TM) SE Runtime Environment
JVM: Java HotSpot(TM) 64-Bit Server VM
Java Version: 1.8.0_191-b12
Operating System: Linux
OS Version: 4.15.0-60-generic
Default Encoding: ISO-8859-1
Language: en
Country: US
--></g></svg>