<?xml version="1.0" encoding="UTF-8" standalone="no"?><svg xmlns="http://www.w3.org/2000/svg" xmlns:xlink="http://www.w3.org/1999/xlink" contentScriptType="application/ecmascript" contentStyleType="text/css" height="152px" preserveAspectRatio="none" style="width:198px;height:152px;" version="1.1" viewBox="0 0 198 152" width="198px" zoomAndPan="magnify"><defs><filter height="300%" id="f1m3tih625e9e0" width="300%" x="-1" y="-1"><feGaussianBlur result="blurOut" stdDeviation="2.0"/><feColorMatrix in="blurOut" result="blurOut2" type="matrix" values="0 0 0 0 0 0 0 0 0 0 0 0 0 0 0 0 0 0 .4 0"/><feOffset dx="4.0" dy="4.0" in="blurOut2" result="blurOut3"/><feBlend in="SourceGraphic" in2="blurOut3" mode="normal"/></filter></defs><g><!--class PriorityList--><a href="PriorityList.html" target="_top" xlink:actuate="onRequest" xlink:show="new" xlink:title="PriorityList.html" xlink:type="simple"><rect fill="#FEFECE" filter="url(#f1m3tih625e9e0)" height="112.0234" id="PriorityList" style="stroke: #A80036; stroke-width: 1.5;" width="153" x="10.5" y="8"/><ellipse cx="45.75" cy="24" fill="#ADD1B2" rx="11" ry="11" style="stroke: #A80036; stroke-width: 1.0;"/><path d="M48.7188,29.6406 Q48.1406,29.9375 47.5,30.0859 Q46.8594,30.2344 46.1563,30.2344 Q43.6563,30.2344 42.3359,28.5859 Q41.0156,26.9375 41.0156,23.8125 Q41.0156,20.6875 42.3359,19.0313 Q43.6563,17.375 46.1563,17.375 Q46.8594,17.375 47.5078,17.5313 Q48.1563,17.6875 48.7188,17.9844 L48.7188,20.7031 Q48.0938,20.125 47.5,19.8516 Q46.9063,19.5781 46.2813,19.5781 Q44.9375,19.5781 44.25,20.6484 Q43.5625,21.7188 43.5625,23.8125 Q43.5625,25.9063 44.25,26.9766 Q44.9375,28.0469 46.2813,28.0469 Q46.9063,28.0469 47.5,27.7734 Q48.0938,27.5 48.7188,26.9219 L48.7188,29.6406 Z "/><text fill="#000000" font-family="sans-serif" font-size="12" lengthAdjust="spacingAndGlyphs" textLength="64" x="64.25" y="28.1543">PriorityList</text><rect fill="#FFFFFF" height="15.9688" style="stroke: #000000; stroke-width: 1.0; stroke-dasharray: 2.0,2.0;" width="10" x="156.5" y="5"/><text fill="#000000" font-family="sans-serif" font-size="12" font-style="italic" lengthAdjust="spacingAndGlyphs" textLength="8" x="157.5" y="17.1387">E</text><line style="stroke: #A80036; stroke-width: 1.5;" x1="11.5" x2="162.5" y1="40" y2="40"/><ellipse cx="21.5" cy="51.9023" fill="none" rx="3" ry="3" style="stroke: #038048; stroke-width: 1.0;"/><text fill="#000000" font-family="sans-serif" font-size="11" lengthAdjust="spacingAndGlyphs" text-decoration="underline" textLength="127" x="30.5" y="54.2104">DEFAULT_PRIORITY: int</text><line style="stroke: #A80036; stroke-width: 1.5;" x1="11.5" x2="162.5" y1="60.8047" y2="60.8047"/><ellipse cx="21.5" cy="72.707" fill="#84BE84" rx="3" ry="3" style="stroke: #038048; stroke-width: 1.0;"/><text fill="#000000" font-family="sans-serif" font-size="11" lengthAdjust="spacingAndGlyphs" textLength="89" x="30.5" y="75.0151">add(E, int): void</text><ellipse cx="21.5" cy="85.5117" fill="#84BE84" rx="3" ry="3" style="stroke: #038048; stroke-width: 1.0;"/><text fill="#000000" font-family="sans-serif" font-size="11" lengthAdjust="spacingAndGlyphs" textLength="89" x="30.5" y="87.8198">add(E): boolean</text><ellipse cx="21.5" cy="98.3164" fill="#84BE84" rx="3" ry="3" style="stroke: #038048; stroke-width: 1.0;"/><text fill="#000000" font-family="sans-serif" font-size="11" lengthAdjust="spacingAndGlyphs" textLength="55" x="30.5" y="100.6245">get(int): E</text><ellipse cx="21.5" cy="111.1211" fill="#84BE84" rx="3" ry="3" style="stroke: #038048; stroke-width: 1.0;"/><text fill="#000000" font-family="sans-serif" font-size="11" lengthAdjust="spacingAndGlyphs" textLength="52" x="30.5" y="113.4292">size(): int</text></a><text fill="#888888" font-family="sans-serif" font-size="10" lengthAdjust="spacingAndGlyphs" textLength="186" x="0" y="139.2822">UMLDoclet 1.1.4, PlantUML 1.2019.05</text><!--
@startuml

    class PriorityList<E> [[PriorityList.html]] {
        {static} +DEFAULT_PRIORITY: int
        +add(E, int): void
        +add(E): boolean
        +get(int): E
        +size(): int
    }


    center footer UMLDoclet 1.1.4, PlantUML 1.2019.05
@enduml

PlantUML version 1.2019.05(Sat Apr 20 16:45:36 UTC 2019)
(APACHE source distribution)
Java Runtime: Java(TM) SE Runtime Environment
JVM: Java HotSpot(TM) 64-Bit Server VM
Java Version: 1.8.0_241-b07
Operating System: Linux
OS Version: 4.15.0-74-generic
Default Encoding: ISO-8859-1
Language: en
Country: US
--></g></svg>