<?xml version="1.0" encoding="UTF-8" standalone="no"?><svg xmlns="http://www.w3.org/2000/svg" xmlns:xlink="http://www.w3.org/1999/xlink" contentScriptType="application/ecmascript" contentStyleType="text/css" height="126px" preserveAspectRatio="none" style="width:299px;height:126px;" version="1.1" viewBox="0 0 299 126" width="299px" zoomAndPan="magnify"><defs><filter height="300%" id="fq3moo042xlfi" width="300%" x="-1" y="-1"><feGaussianBlur result="blurOut" stdDeviation="2.0"/><feColorMatrix in="blurOut" result="blurOut2" type="matrix" values="0 0 0 0 0 0 0 0 0 0 0 0 0 0 0 0 0 0 .4 0"/><feOffset dx="4.0" dy="4.0" in="blurOut2" result="blurOut3"/><feBlend in="SourceGraphic" in2="blurOut3" mode="normal"/></filter></defs><g><!--class XmlUtil--><a href="XmlUtil.html" target="_top" xlink:actuate="onRequest" xlink:show="new" xlink:title="XmlUtil.html" xlink:type="simple"><rect fill="#FEFECE" filter="url(#fq3moo042xlfi)" height="86.4141" id="XmlUtil" style="stroke: #A80036; stroke-width: 1.5;" width="282" x="6" y="8"/><ellipse cx="122.25" cy="24" fill="#ADD1B2" rx="11" ry="11" style="stroke: #A80036; stroke-width: 1.0;"/><path d="M125.2188,29.6406 Q124.6406,29.9375 124,30.0859 Q123.3594,30.2344 122.6563,30.2344 Q120.1563,30.2344 118.8359,28.5859 Q117.5156,26.9375 117.5156,23.8125 Q117.5156,20.6875 118.8359,19.0313 Q120.1563,17.375 122.6563,17.375 Q123.3594,17.375 124.0078,17.5313 Q124.6563,17.6875 125.2188,17.9844 L125.2188,20.7031 Q124.5938,20.125 124,19.8516 Q123.4063,19.5781 122.7813,19.5781 Q121.4375,19.5781 120.75,20.6484 Q120.0625,21.7188 120.0625,23.8125 Q120.0625,25.9063 120.75,26.9766 Q121.4375,28.0469 122.7813,28.0469 Q123.4063,28.0469 124,27.7734 Q124.5938,27.5 125.2188,26.9219 L125.2188,29.6406 Z "/><text fill="#000000" font-family="sans-serif" font-size="12" lengthAdjust="spacingAndGlyphs" textLength="41" x="142.75" y="28.1543">XmlUtil</text><line style="stroke: #A80036; stroke-width: 1.5;" x1="7" x2="287" y1="40" y2="40"/><line style="stroke: #A80036; stroke-width: 1.5;" x1="7" x2="287" y1="48" y2="48"/><ellipse cx="17" cy="59.9023" fill="#84BE84" rx="3" ry="3" style="stroke: #038048; stroke-width: 1.0;"/><text fill="#000000" font-family="sans-serif" font-size="11" lengthAdjust="spacingAndGlyphs" text-decoration="underline" textLength="209" x="26" y="62.2104">parse(String, String): List&lt;Element&gt;</text><ellipse cx="17" cy="72.707" fill="#84BE84" rx="3" ry="3" style="stroke: #038048; stroke-width: 1.0;"/><text fill="#000000" font-family="sans-serif" font-size="11" lengthAdjust="spacingAndGlyphs" text-decoration="underline" textLength="245" x="26" y="75.0151">parse(InputStream, String): List&lt;Element&gt;</text><ellipse cx="17" cy="85.5117" fill="#84BE84" rx="3" ry="3" style="stroke: #038048; stroke-width: 1.0;"/><text fill="#000000" font-family="sans-serif" font-size="11" lengthAdjust="spacingAndGlyphs" text-decoration="underline" textLength="256" x="26" y="87.8198">extractTextFromDocument(Document): String</text></a><text fill="#888888" font-family="sans-serif" font-size="10" lengthAdjust="spacingAndGlyphs" textLength="186" x="60" y="113.2822">UMLDoclet 1.1.4, PlantUML 1.2019.05</text><!--
@startuml

    class XmlUtil [[XmlUtil.html]] {
        {static} +parse(String, String): List<Element>
        {static} +parse(InputStream, String): List<Element>
        {static} +extractTextFromDocument(Document): String
    }


    center footer UMLDoclet 1.1.4, PlantUML 1.2019.05
@enduml

PlantUML version 1.2019.05(Sat Apr 20 16:45:36 UTC 2019)
(APACHE source distribution)
Java Runtime: Java(TM) SE Runtime Environment
JVM: Java HotSpot(TM) 64-Bit Server VM
Java Version: 1.8.0_191-b12
Operating System: Linux
OS Version: 4.15.0-76-generic
Default Encoding: ISO-8859-1
Language: en
Country: US
--></g></svg>