<?xml version="1.0" encoding="UTF-8" standalone="no"?><svg xmlns="http://www.w3.org/2000/svg" xmlns:xlink="http://www.w3.org/1999/xlink" contentScriptType="application/ecmascript" contentStyleType="text/css" height="255px" preserveAspectRatio="none" style="width:304px;height:255px;" version="1.1" viewBox="0 0 304 255" width="304px" zoomAndPan="magnify"><defs><filter height="300%" id="f1r9miv18vfvbx" width="300%" x="-1" y="-1"><feGaussianBlur result="blurOut" stdDeviation="2.0"/><feColorMatrix in="blurOut" result="blurOut2" type="matrix" values="0 0 0 0 0 0 0 0 0 0 0 0 0 0 0 0 0 0 .4 0"/><feOffset dx="4.0" dy="4.0" in="blurOut2" result="blurOut3"/><feBlend in="SourceGraphic" in2="blurOut3" mode="normal"/></filter></defs><g><!--class RPCHandler--><a href="RPCHandler.html" target="_top" xlink:actuate="onRequest" xlink:show="new" xlink:title="RPCHandler.html" xlink:type="simple"><rect fill="#FEFECE" filter="url(#f1r9miv18vfvbx)" height="214.0313" id="RPCHandler" style="stroke: #A80036; stroke-width: 1.5;" width="287" x="6" y="8"/><ellipse cx="110.25" cy="24" fill="#ADD1B2" rx="11" ry="11" style="stroke: #A80036; stroke-width: 1.0;"/><path d="M113.0156,19.875 Q113.1719,19.6563 113.3594,19.5469 Q113.5469,19.4375 113.7656,19.4375 Q114.1406,19.4375 114.375,19.6953 Q114.6094,19.9531 114.6094,20.5625 L114.6094,22.0156 Q114.6094,22.625 114.375,22.8906 Q114.1406,23.1563 113.7656,23.1563 Q113.4219,23.1563 113.2188,22.9531 Q113.0156,22.7656 112.9063,22.25 Q112.8594,21.8906 112.6719,21.7031 Q112.3438,21.3281 111.7344,21.1094 Q111.125,20.8906 110.5,20.8906 Q109.7344,20.8906 109.1016,21.2188 Q108.4688,21.5469 107.9766,22.2969 Q107.4844,23.0469 107.4844,24.0781 L107.4844,25.1719 Q107.4844,26.4063 108.375,27.2266 Q109.2656,28.0469 110.8594,28.0469 Q111.7969,28.0469 112.4531,27.7969 Q112.8438,27.6406 113.2656,27.2031 Q113.5313,26.9375 113.6797,26.8594 Q113.8281,26.7813 114.0313,26.7813 Q114.3594,26.7813 114.6172,27.0391 Q114.875,27.2969 114.875,27.6406 Q114.875,27.9844 114.5313,28.3906 Q114.0313,28.9688 113.2344,29.2969 Q112.1563,29.75 110.8594,29.75 Q109.3438,29.75 108.1406,29.125 Q107.1563,28.625 106.4688,27.5547 Q105.7813,26.4844 105.7813,25.2031 L105.7813,24.0469 Q105.7813,22.7188 106.3984,21.5703 Q107.0156,20.4219 108.1094,19.8047 Q109.2031,19.1875 110.4375,19.1875 Q111.1719,19.1875 111.8203,19.3516 Q112.4688,19.5156 113.0156,19.875 Z "/><text fill="#000000" font-family="sans-serif" font-size="12" lengthAdjust="spacingAndGlyphs" textLength="70" x="130.75" y="28.9102">RPCHandler</text><line style="stroke: #A80036; stroke-width: 1.5;" x1="7" x2="292" y1="40" y2="40"/><line style="stroke: #A80036; stroke-width: 1.5;" x1="7" x2="292" y1="48" y2="48"/><ellipse cx="17" cy="60.418" fill="#84BE84" rx="3" ry="3" style="stroke: #038048; stroke-width: 1.0;"/><text fill="#000000" font-family="sans-serif" font-size="11" lengthAdjust="spacingAndGlyphs" textLength="127" x="26" y="63.4189">initialize(WikiContext): void</text><ellipse cx="17" cy="74.2539" fill="#84BE84" rx="3" ry="3" style="stroke: #038048; stroke-width: 1.0;"/><text fill="#000000" font-family="sans-serif" font-size="11" lengthAdjust="spacingAndGlyphs" textLength="137" x="26" y="77.2549">getApplicationName(): String</text><ellipse cx="17" cy="88.0898" fill="#84BE84" rx="3" ry="3" style="stroke: #038048; stroke-width: 1.0;"/><text fill="#000000" font-family="sans-serif" font-size="11" lengthAdjust="spacingAndGlyphs" textLength="104" x="26" y="91.0908">getAllPages(): Vector</text><polygon fill="#FFFF44" points="17,96.9258,21,100.9258,17,104.9258,13,100.9258" style="stroke: #B38D22; stroke-width: 1.0;"/><text fill="#000000" font-family="sans-serif" font-size="11" lengthAdjust="spacingAndGlyphs" textLength="261" x="26" y="104.9268">encodeWikiPage(WikiPage): Hashtable&lt;String, Object&gt;</text><ellipse cx="17" cy="115.7617" fill="#84BE84" rx="3" ry="3" style="stroke: #038048; stroke-width: 1.0;"/><text fill="#000000" font-family="sans-serif" font-size="11" lengthAdjust="spacingAndGlyphs" textLength="161" x="26" y="118.7627">getRecentChanges(Date): Vector</text><ellipse cx="17" cy="129.5977" fill="#84BE84" rx="3" ry="3" style="stroke: #038048; stroke-width: 1.0;"/><text fill="#000000" font-family="sans-serif" font-size="11" lengthAdjust="spacingAndGlyphs" textLength="147" x="26" y="132.5986">getPageInfo(String): Hashtable</text><ellipse cx="17" cy="143.4336" fill="#84BE84" rx="3" ry="3" style="stroke: #038048; stroke-width: 1.0;"/><text fill="#000000" font-family="sans-serif" font-size="11" lengthAdjust="spacingAndGlyphs" textLength="202" x="26" y="146.4346">getPageInfoVersion(String, int): Hashtable</text><ellipse cx="17" cy="157.2695" fill="#84BE84" rx="3" ry="3" style="stroke: #038048; stroke-width: 1.0;"/><text fill="#000000" font-family="sans-serif" font-size="11" lengthAdjust="spacingAndGlyphs" textLength="108" x="26" y="160.2705">getPage(String): byte[]</text><ellipse cx="17" cy="171.1055" fill="#84BE84" rx="3" ry="3" style="stroke: #038048; stroke-width: 1.0;"/><text fill="#000000" font-family="sans-serif" font-size="11" lengthAdjust="spacingAndGlyphs" textLength="163" x="26" y="174.1064">getPageVersion(String, int): byte[]</text><ellipse cx="17" cy="184.9414" fill="#84BE84" rx="3" ry="3" style="stroke: #038048; stroke-width: 1.0;"/><text fill="#000000" font-family="sans-serif" font-size="11" lengthAdjust="spacingAndGlyphs" textLength="135" x="26" y="187.9424">getPageHTML(String): byte[]</text><ellipse cx="17" cy="198.7773" fill="#84BE84" rx="3" ry="3" style="stroke: #038048; stroke-width: 1.0;"/><text fill="#000000" font-family="sans-serif" font-size="11" lengthAdjust="spacingAndGlyphs" textLength="190" x="26" y="201.7783">getPageHTMLVersion(String, int): byte[]</text><ellipse cx="17" cy="212.6133" fill="#84BE84" rx="3" ry="3" style="stroke: #038048; stroke-width: 1.0;"/><text fill="#000000" font-family="sans-serif" font-size="11" lengthAdjust="spacingAndGlyphs" textLength="113" x="26" y="215.6143">listLinks(String): Vector</text></a><text fill="#888888" font-family="sans-serif" font-size="10" lengthAdjust="spacingAndGlyphs" textLength="184" x="63.5" y="242.3809">UMLDoclet 1.1.4, PlantUML 1.2019.05</text><!--
@startuml

    class RPCHandler [[RPCHandler.html]] {
        +initialize(WikiContext): void
        +getApplicationName(): String
        +getAllPages(): Vector
        #encodeWikiPage(WikiPage): Hashtable<String, Object>
        +getRecentChanges(Date): Vector
        +getPageInfo(String): Hashtable
        +getPageInfoVersion(String, int): Hashtable
        +getPage(String): byte[]
        +getPageVersion(String, int): byte[]
        +getPageHTML(String): byte[]
        +getPageHTMLVersion(String, int): byte[]
        +listLinks(String): Vector
    }


    center footer UMLDoclet 1.1.4, PlantUML 1.2019.05
@enduml

PlantUML version 1.2019.05(Sat Apr 20 18:45:36 CEST 2019)
(APACHE source distribution)
Java Runtime: OpenJDK Runtime Environment
JVM: OpenJDK 64-Bit Server VM
Java Version: 1.8.0_212-b03
Operating System: Windows 10
OS Version: 10.0
Default Encoding: Cp1252
Language: es
Country: ES
--></g></svg>