<?xml version="1.0" encoding="UTF-8" standalone="no"?><svg xmlns="http://www.w3.org/2000/svg" xmlns:xlink="http://www.w3.org/1999/xlink" contentScriptType="application/ecmascript" contentStyleType="text/css" height="184px" preserveAspectRatio="none" style="width:260px;height:184px;" version="1.1" viewBox="0 0 260 184" width="260px" zoomAndPan="magnify"><defs><filter height="300%" id="f14v401g0if2rl" width="300%" x="-1" y="-1"><feGaussianBlur result="blurOut" stdDeviation="2.0"/><feColorMatrix in="blurOut" result="blurOut2" type="matrix" values="0 0 0 0 0 0 0 0 0 0 0 0 0 0 0 0 0 0 .4 0"/><feOffset dx="4.0" dy="4.0" in="blurOut2" result="blurOut3"/><feBlend in="SourceGraphic" in2="blurOut3" mode="normal"/></filter></defs><g><!--cluster BasicAttachmentProvider--><polygon fill="#FFFFFF" filter="url(#f14v401g0if2rl)" points="22,24,227,24,234,46.2969,238,46.2969,238,136,22,136,22,24" style="stroke: #000000; stroke-width: 1.5;"/><line style="stroke: #000000; stroke-width: 1.5;" x1="22" x2="234" y1="46.2969" y2="46.2969"/><text fill="#000000" font-family="sans-serif" font-size="14" font-weight="bold" lengthAdjust="spacingAndGlyphs" textLength="199" x="26" y="38.9951">BasicAttachmentProvider</text><!--class BasicAttachmentProvider.AttachmentVersionFilter--><a href="BasicAttachmentProvider.AttachmentVersionFilter.html" target="_top" xlink:actuate="onRequest" xlink:show="new" xlink:title="BasicAttachmentProvider.AttachmentVersionFilter.html" xlink:type="simple"><rect fill="#FEFECE" filter="url(#f14v401g0if2rl)" height="60.8047" id="BasicAttachmentProvider.AttachmentVersionFilter" style="stroke: #A80036; stroke-width: 1.5;" width="185" x="37.5" y="59"/><ellipse cx="53.4" cy="75" fill="#ADD1B2" rx="11" ry="11" style="stroke: #A80036; stroke-width: 1.0;"/><path d="M56.3688,80.6406 Q55.7906,80.9375 55.15,81.0859 Q54.5094,81.2344 53.8063,81.2344 Q51.3063,81.2344 49.9859,79.5859 Q48.6656,77.9375 48.6656,74.8125 Q48.6656,71.6875 49.9859,70.0313 Q51.3063,68.375 53.8063,68.375 Q54.5094,68.375 55.1578,68.5313 Q55.8063,68.6875 56.3688,68.9844 L56.3688,71.7031 Q55.7438,71.125 55.15,70.8516 Q54.5563,70.5781 53.9313,70.5781 Q52.5875,70.5781 51.9,71.6484 Q51.2125,72.7188 51.2125,74.8125 Q51.2125,76.9063 51.9,77.9766 Q52.5875,79.0469 53.9313,79.0469 Q54.5563,79.0469 55.15,78.7734 Q55.7438,78.5 56.3688,77.9219 L56.3688,80.6406 Z "/><text fill="#000000" font-family="sans-serif" font-size="12" lengthAdjust="spacingAndGlyphs" textLength="151" x="67.6" y="79.1543">AttachmentVersionFilter</text><line style="stroke: #A80036; stroke-width: 1.5;" x1="38.5" x2="221.5" y1="91" y2="91"/><line style="stroke: #A80036; stroke-width: 1.5;" x1="38.5" x2="221.5" y1="99" y2="99"/><ellipse cx="48.5" cy="110.9023" fill="#84BE84" rx="3" ry="3" style="stroke: #038048; stroke-width: 1.0;"/><text fill="#000000" font-family="sans-serif" font-size="11" lengthAdjust="spacingAndGlyphs" textLength="159" x="57.5" y="113.2104">accept(File, String): boolean</text></a><text fill="#888888" font-family="sans-serif" font-size="10" lengthAdjust="spacingAndGlyphs" textLength="186" x="43" y="171.2822">UMLDoclet 1.1.4, PlantUML 1.2019.05</text><!--
@startuml

    class BasicAttachmentProvider.AttachmentVersionFilter [[BasicAttachmentProvider.AttachmentVersionFilter.html]] {
        +accept(File, String): boolean
    }


    center footer UMLDoclet 1.1.4, PlantUML 1.2019.05
@enduml

PlantUML version 1.2019.05(Sat Apr 20 16:45:36 UTC 2019)
(APACHE source distribution)
Java Runtime: Java(TM) SE Runtime Environment
JVM: Java HotSpot(TM) 64-Bit Server VM
Java Version: 1.8.0_191-b12
Operating System: Linux
OS Version: 4.4.0-137-generic
Default Encoding: ISO-8859-1
Language: en
Country: US
--></g></svg>