<?xml version="1.0" encoding="UTF-8" standalone="no"?><svg xmlns="http://www.w3.org/2000/svg" xmlns:xlink="http://www.w3.org/1999/xlink" contentScriptType="application/ecmascript" contentStyleType="text/css" height="457px" preserveAspectRatio="none" style="width:236px;height:457px;" version="1.1" viewBox="0 0 236 457" width="236px" zoomAndPan="magnify"><defs><filter height="300%" id="f1o8o2iit0qb8p" width="300%" x="-1" y="-1"><feGaussianBlur result="blurOut" stdDeviation="2.0"/><feColorMatrix in="blurOut" result="blurOut2" type="matrix" values="0 0 0 0 0 0 0 0 0 0 0 0 0 0 0 0 0 0 .4 0"/><feOffset dx="4.0" dy="4.0" in="blurOut2" result="blurOut3"/><feBlend in="SourceGraphic" in2="blurOut3" mode="normal"/></filter></defs><g><!--MD5=[a357dbd140d4e641fefb4c099d4e54be]
class org.apache.wiki.auth.user.XMLUserDatabase--><a href="XMLUserDatabase.html" target="_top" title="XMLUserDatabase.html" xlink:actuate="onRequest" xlink:href="XMLUserDatabase.html" xlink:show="new" xlink:title="XMLUserDatabase.html" xlink:type="simple"><rect codeLine="5" fill="#FEFECE" filter="url(#f1o8o2iit0qb8p)" height="222.2188" id="org.apache.wiki.auth.user.XMLUserDatabase" style="stroke: #A80036; stroke-width: 1.5;" width="205" x="9.5" y="198"/><ellipse cx="48.35" cy="218.0938" fill="#ADD1B2" rx="11" ry="11" style="stroke: #A80036; stroke-width: 1.0;"/><path d="M51.1156,213.9688 Q51.2719,213.75 51.4594,213.6406 Q51.6469,213.5313 51.8656,213.5313 Q52.2406,213.5313 52.475,213.7969 Q52.7094,214.0469 52.7094,214.6563 L52.7094,216.1094 Q52.7094,216.7188 52.475,216.9844 Q52.2406,217.25 51.8656,217.25 Q51.5219,217.25 51.3188,217.0469 Q51.1156,216.8594 51.0063,216.3438 Q50.9594,215.9844 50.7719,215.7969 Q50.4438,215.4219 49.8344,215.2031 Q49.225,214.9844 48.6,214.9844 Q47.8344,214.9844 47.1938,215.3125 Q46.5688,215.6406 46.0688,216.3906 Q45.5844,217.1406 45.5844,218.1719 L45.5844,219.2656 Q45.5844,220.5 46.475,221.3281 Q47.3656,222.1406 48.9594,222.1406 Q49.8969,222.1406 50.5531,221.8906 Q50.9438,221.7344 51.3656,221.2969 Q51.6313,221.0313 51.7719,220.9531 Q51.9281,220.875 52.1313,220.875 Q52.4594,220.875 52.7094,221.1406 Q52.975,221.3906 52.975,221.7344 Q52.975,222.0781 52.6313,222.4844 Q52.1313,223.0625 51.3344,223.3906 Q50.2563,223.8438 48.9594,223.8438 Q47.4438,223.8438 46.2406,223.2188 Q45.2563,222.7188 44.5688,221.6563 Q43.8813,220.5781 43.8813,219.2969 L43.8813,218.1406 Q43.8813,216.8125 44.4906,215.6719 Q45.1156,214.5156 46.2094,213.9063 Q47.3031,213.2813 48.5375,213.2813 Q49.2719,213.2813 49.9125,213.4531 Q50.5688,213.6094 51.1156,213.9688 Z "/><text fill="#000000" font-family="sans-serif" font-size="14" lengthAdjust="spacingAndGlyphs" textLength="117" x="69.15" y="217.5332">XMLUserDatabase</text><text fill="#000000" font-family="sans-serif" font-size="10" lengthAdjust="spacingAndGlyphs" textLength="120" x="67.65" y="230.9902">org.apache.wiki.auth.user</text><line style="stroke: #A80036; stroke-width: 1.5;" x1="10.5" x2="213.5" y1="238.1875" y2="238.1875"/><ellipse cx="20.5" cy="249.1875" fill="none" rx="3" ry="3" style="stroke: #038048; stroke-width: 1.0;"/><text fill="#000000" font-family="sans-serif" font-size="11" lengthAdjust="spacingAndGlyphs" text-decoration="underline" textLength="151" x="29.5" y="253.6064">PROP_USERDATABASE: String</text><line style="stroke: #A80036; stroke-width: 1.5;" x1="10.5" x2="213.5" y1="260.0234" y2="260.0234"/><ellipse cx="20.5" cy="271.0234" fill="#84BE84" rx="3" ry="3" style="stroke: #038048; stroke-width: 1.0;"/><text fill="#000000" font-family="sans-serif" font-size="11" lengthAdjust="spacingAndGlyphs" textLength="157" x="29.5" y="275.4424">deleteByLoginName(String): void</text><ellipse cx="20.5" cy="284.8594" fill="#84BE84" rx="3" ry="3" style="stroke: #038048; stroke-width: 1.0;"/><text fill="#000000" font-family="sans-serif" font-size="11" lengthAdjust="spacingAndGlyphs" textLength="150" x="29.5" y="289.2783">findByEmail(String): UserProfile</text><ellipse cx="20.5" cy="298.6953" fill="#84BE84" rx="3" ry="3" style="stroke: #038048; stroke-width: 1.0;"/><text fill="#000000" font-family="sans-serif" font-size="11" lengthAdjust="spacingAndGlyphs" textLength="169" x="29.5" y="303.1143">findByFullName(String): UserProfile</text><ellipse cx="20.5" cy="312.5313" fill="#84BE84" rx="3" ry="3" style="stroke: #038048; stroke-width: 1.0;"/><text fill="#000000" font-family="sans-serif" font-size="11" lengthAdjust="spacingAndGlyphs" textLength="179" x="29.5" y="316.9502">findByLoginName(String): UserProfile</text><ellipse cx="20.5" cy="326.3672" fill="#84BE84" rx="3" ry="3" style="stroke: #038048; stroke-width: 1.0;"/><text fill="#000000" font-family="sans-serif" font-size="11" lengthAdjust="spacingAndGlyphs" textLength="141" x="29.5" y="330.7861">findByUid(String): UserProfile</text><ellipse cx="20.5" cy="340.2031" fill="#84BE84" rx="3" ry="3" style="stroke: #038048; stroke-width: 1.0;"/><text fill="#000000" font-family="sans-serif" font-size="11" lengthAdjust="spacingAndGlyphs" textLength="172" x="29.5" y="344.6221">findByWikiName(String): UserProfile</text><ellipse cx="20.5" cy="354.0391" fill="#84BE84" rx="3" ry="3" style="stroke: #038048; stroke-width: 1.0;"/><text fill="#000000" font-family="sans-serif" font-size="11" lengthAdjust="spacingAndGlyphs" textLength="160" x="29.5" y="358.458">findBy(String, String): UserProfile</text><ellipse cx="20.5" cy="367.875" fill="#84BE84" rx="3" ry="3" style="stroke: #038048; stroke-width: 1.0;"/><text fill="#000000" font-family="sans-serif" font-size="11" lengthAdjust="spacingAndGlyphs" textLength="127" x="29.5" y="372.2939">getWikiNames(): Principal[]</text><ellipse cx="20.5" cy="381.7109" fill="#84BE84" rx="3" ry="3" style="stroke: #038048; stroke-width: 1.0;"/><text fill="#000000" font-family="sans-serif" font-size="11" lengthAdjust="spacingAndGlyphs" textLength="158" x="29.5" y="386.1299">initialize(Engine, Properties): void</text><ellipse cx="20.5" cy="395.5469" fill="#84BE84" rx="3" ry="3" style="stroke: #038048; stroke-width: 1.0;"/><text fill="#000000" font-family="sans-serif" font-size="11" lengthAdjust="spacingAndGlyphs" textLength="132" x="29.5" y="399.9658">rename(String, String): void</text><ellipse cx="20.5" cy="409.3828" fill="#84BE84" rx="3" ry="3" style="stroke: #038048; stroke-width: 1.0;"/><text fill="#000000" font-family="sans-serif" font-size="11" lengthAdjust="spacingAndGlyphs" textLength="111" x="29.5" y="413.8018">save(UserProfile): void</text></a><!--MD5=[dcba8ed3e35e0414749c86cacb7bd742]
class org.apache.wiki.auth.user.AbstractUserDatabase--><a href="AbstractUserDatabase.html" target="_top" title="AbstractUserDatabase.html" xlink:actuate="onRequest" xlink:href="AbstractUserDatabase.html" xlink:show="new" xlink:title="AbstractUserDatabase.html" xlink:type="simple"><rect codeLine="20" fill="#FEFECE" filter="url(#f1o8o2iit0qb8p)" height="131.2031" id="org.apache.wiki.auth.user.AbstractUserDatabase" style="stroke: #A80036; stroke-width: 1.5;" width="210" x="7" y="7"/><ellipse cx="37.75" cy="27.0938" fill="#A9DCDF" rx="11" ry="11" style="stroke: #A80036; stroke-width: 1.0;"/><path d="M39.9375,28.8594 L35.7969,28.8594 L35.375,29.8906 L35.7969,29.8906 Q36.4063,29.8906 36.6719,30.125 Q36.9375,30.3594 36.9375,30.75 Q36.9375,31.125 36.6719,31.3594 Q36.4063,31.5938 35.7969,31.5938 L33.5,31.5938 Q32.8906,31.5938 32.6406,31.3594 Q32.375,31.125 32.375,30.7344 Q32.375,30.3594 32.6563,30.125 Q32.9219,29.875 33.5469,29.8906 L36.2188,23.2344 L35.1094,23.2344 Q34.5,23.2344 34.2344,23 Q33.9688,22.7656 33.9688,22.375 Q33.9688,22 34.2344,21.7656 Q34.5,21.5313 35.1094,21.5313 L38.7813,21.5313 L42.1719,29.8906 Q42.7656,29.8906 42.9531,30.0313 Q43.3438,30.2969 43.3438,30.75 Q43.3438,31.125 43.0781,31.3594 Q42.8281,31.5938 42.2188,31.5938 L39.9219,31.5938 Q39.3125,31.5938 39.0469,31.3594 Q38.7813,31.125 38.7813,30.7344 Q38.7813,30.3594 39.0469,30.125 Q39.3125,29.8906 39.9219,29.8906 L40.3438,29.8906 L39.9375,28.8594 Z M39.2188,27.1563 L37.8594,23.7813 L36.4844,27.1563 L39.2188,27.1563 Z "/><text fill="#000000" font-family="sans-serif" font-size="14" font-style="italic" lengthAdjust="spacingAndGlyphs" textLength="143" x="55.25" y="26.5332">AbstractUserDatabase</text><text fill="#000000" font-family="sans-serif" font-size="10" font-style="italic" lengthAdjust="spacingAndGlyphs" textLength="122" x="65.75" y="39.9902">org.apache.wiki.auth.user</text><line style="stroke: #A80036; stroke-width: 1.5;" x1="8" x2="216" y1="47.1875" y2="47.1875"/><ellipse cx="18" cy="58.1875" fill="#84BE84" rx="3" ry="3" style="stroke: #038048; stroke-width: 1.0;"/><text fill="#000000" font-family="sans-serif" font-size="11" font-style="italic" lengthAdjust="spacingAndGlyphs" textLength="156" x="27" y="62.6064">findByEmail(String): UserProfile</text><ellipse cx="18" cy="72.0234" fill="#84BE84" rx="3" ry="3" style="stroke: #038048; stroke-width: 1.0;"/><text fill="#000000" font-family="sans-serif" font-size="11" font-style="italic" lengthAdjust="spacingAndGlyphs" textLength="176" x="27" y="76.4424">findByFullName(String): UserProfile</text><ellipse cx="18" cy="85.8594" fill="#84BE84" rx="3" ry="3" style="stroke: #038048; stroke-width: 1.0;"/><text fill="#000000" font-family="sans-serif" font-size="11" font-style="italic" lengthAdjust="spacingAndGlyphs" textLength="184" x="27" y="90.2783">findByLoginName(String): UserProfile</text><ellipse cx="18" cy="99.6953" fill="#84BE84" rx="3" ry="3" style="stroke: #038048; stroke-width: 1.0;"/><text fill="#000000" font-family="sans-serif" font-size="11" font-style="italic" lengthAdjust="spacingAndGlyphs" textLength="180" x="27" y="104.1143">findByWikiName(String): UserProfile</text><ellipse cx="18" cy="113.5313" fill="#84BE84" rx="3" ry="3" style="stroke: #038048; stroke-width: 1.0;"/><text fill="#000000" font-family="sans-serif" font-size="11" font-style="italic" lengthAdjust="spacingAndGlyphs" textLength="167" x="27" y="117.9502">initialize(Engine, Properties): void</text><ellipse cx="18" cy="127.3672" fill="#84BE84" rx="3" ry="3" style="stroke: #038048; stroke-width: 1.0;"/><text fill="#000000" font-family="sans-serif" font-size="11" font-style="italic" lengthAdjust="spacingAndGlyphs" textLength="112" x="27" y="131.7861">save(UserProfile): void</text></a><!--MD5=[0773df24cc01485acca1bbee998935c1]
reverse link org.apache.wiki.auth.user.AbstractUserDatabase to org.apache.wiki.auth.user.XMLUserDatabase--><path codeLine="29" d="M112,158.3748 C112,171.2278 112,184.6336 112,197.9184 " fill="none" id="org.apache.wiki.auth.user.AbstractUserDatabase-backto-org.apache.wiki.auth.user.XMLUserDatabase" style="stroke: #A80036; stroke-width: 1.0;"/><polygon fill="none" points="105.0001,158.0644,112,138.0644,119.0001,158.0643,105.0001,158.0644" style="stroke: #A80036; stroke-width: 1.0;"/><text fill="#888888" font-family="sans-serif" font-size="10" lengthAdjust="spacingAndGlyphs" textLength="190" x="14" y="443.5996">UMLDoclet 2.0.12, PlantUML 1.2020.16</text><!--MD5=[8f7b7f664adbc8214c18a8eb95687866]
@startuml
    set namespaceSeparator none
    hide empty fields
    hide empty methods

    class "<size:14>XMLUserDatabase\n<size:10>org.apache.wiki.auth.user" as org.apache.wiki.auth.user.XMLUserDatabase [[XMLUserDatabase.html]] {
        {static} +PROP_USERDATABASE: String
        +deleteByLoginName(String): void
        +findByEmail(String): UserProfile
        +findByFullName(String): UserProfile
        +findByLoginName(String): UserProfile
        +findByUid(String): UserProfile
        +findByWikiName(String): UserProfile
        +findBy(String, String): UserProfile
        +getWikiNames(): Principal[]
        +initialize(Engine, Properties): void
        +rename(String, String): void
        +save(UserProfile): void
    }

    abstract class "<size:14>AbstractUserDatabase\n<size:10>org.apache.wiki.auth.user" as org.apache.wiki.auth.user.AbstractUserDatabase [[AbstractUserDatabase.html]] {
        {abstract} +findByEmail(String): UserProfile
        {abstract} +findByFullName(String): UserProfile
        {abstract} +findByLoginName(String): UserProfile
        {abstract} +findByWikiName(String): UserProfile
        {abstract} +initialize(Engine, Properties): void
        {abstract} +save(UserProfile): void
    }

    org.apache.wiki.auth.user.AbstractUserDatabase <|- - org.apache.wiki.auth.user.XMLUserDatabase

    center footer UMLDoclet 2.0.12, PlantUML 1.2020.16
@enduml

PlantUML version 1.2020.16(Sun Aug 23 22:20:43 CEST 2020)
(APACHE source distribution)
Java Runtime: OpenJDK Runtime Environment
JVM: OpenJDK 64-Bit Server VM
Default Encoding: Cp1252
Language: es
Country: ES
--></g></svg>