<?xml version="1.0" encoding="UTF-8" standalone="no"?><svg xmlns="http://www.w3.org/2000/svg" xmlns:xlink="http://www.w3.org/1999/xlink" contentScriptType="application/ecmascript" contentStyleType="text/css" height="526px" preserveAspectRatio="none" style="width:1477px;height:526px;background:#FFFFFF;" version="1.1" viewBox="0 0 1477 526" width="1477px" zoomAndPan="magnify"><defs><filter height="300%" id="f5lfw3d4s27zh" width="300%" x="-1" y="-1"><feGaussianBlur result="blurOut" stdDeviation="2.0"/><feColorMatrix in="blurOut" result="blurOut2" type="matrix" values="0 0 0 0 0 0 0 0 0 0 0 0 0 0 0 0 0 0 .4 0"/><feOffset dx="4.0" dy="4.0" in="blurOut2" result="blurOut3"/><feBlend in="SourceGraphic" in2="blurOut3" mode="normal"/></filter></defs><g><!--MD5=[033be043fb277336b8890b347fde2a9a]
cluster org.apache.wiki.api.exceptions--><polygon fill="#FFFFFF" filter="url(#f5lfw3d4s27zh)" points="16,114,267,114,274,136.2969,1460,136.2969,1460,503,16,503,16,114" style="stroke:#000000;stroke-width:1.5;"/><line style="stroke:#000000;stroke-width:1.5;" x1="16" x2="274" y1="136.2969" y2="136.2969"/><text fill="#000000" font-family="sans-serif" font-size="14" font-weight="bold" lengthAdjust="spacing" textLength="245" x="20" y="128.9951">org.apache.wiki.api.exceptions</text><!--MD5=[aa8f7b917213fcc1c2766e2d59b49067]
cluster java.lang--><polygon fill="#FFFFFF" filter="url(#f5lfw3d4s27zh)" points="751,6,826,6,833,28.2969,859,28.2969,859,89,751,89,751,6" style="stroke:#000000;stroke-width:1.5;"/><line style="stroke:#000000;stroke-width:1.5;" x1="751" x2="833" y1="28.2969" y2="28.2969"/><text fill="#000000" font-family="sans-serif" font-size="14" font-weight="bold" lengthAdjust="spacing" textLength="69" x="755" y="20.9951">java.lang</text><!--MD5=[fe642f6a06a6f958bbc14bfb47242453]
class org.apache.wiki.api.exceptions.NoSuchVariableException--><a href="NoSuchVariableException.html" target="_top" title="NoSuchVariableException.html" xlink:actuate="onRequest" xlink:href="NoSuchVariableException.html" xlink:show="new" xlink:title="NoSuchVariableException.html" xlink:type="simple"><rect codeLine="3" fill="#FEFECE" filter="url(#f5lfw3d4s27zh)" height="60.8047" id="org.apache.wiki.api.exceptions.NoSuchVariableException" style="stroke:#A80036;stroke-width:1.5;" width="211" x="24.5" y="287.5"/><ellipse cx="48.05" cy="303.5" fill="#ADD1B2" rx="11" ry="11" style="stroke:#A80036;stroke-width:1.0;"/><path d="M51.0188,309.1406 Q50.4406,309.4375 49.8,309.5781 Q49.1594,309.7344 48.4563,309.7344 Q45.9563,309.7344 44.6281,308.0938 Q43.3156,306.4375 43.3156,303.3125 Q43.3156,300.1875 44.6281,298.5313 Q45.9563,296.875 48.4563,296.875 Q49.1594,296.875 49.8,297.0313 Q50.4563,297.1875 51.0188,297.4844 L51.0188,300.2031 Q50.3938,299.625 49.8,299.3594 Q49.2063,299.0781 48.5813,299.0781 Q47.2375,299.0781 46.55,300.1563 Q45.8625,301.2188 45.8625,303.3125 Q45.8625,305.4063 46.55,306.4844 Q47.2375,307.5469 48.5813,307.5469 Q49.2063,307.5469 49.8,307.2813 Q50.3938,307 51.0188,306.4219 L51.0188,309.1406 Z " fill="#000000"/><text fill="#000000" font-family="sans-serif" font-size="12" lengthAdjust="spacing" textLength="160" x="63.95" y="307.6543">NoSuchVariableException</text><line style="stroke:#A80036;stroke-width:1.5;" x1="25.5" x2="234.5" y1="319.5" y2="319.5"/><line style="stroke:#A80036;stroke-width:1.5;" x1="25.5" x2="234.5" y1="327.5" y2="327.5"/><ellipse cx="35.5" cy="338.5" fill="#84BE84" rx="3" ry="3" style="stroke:#038048;stroke-width:1.0;"/><text fill="#000000" font-family="sans-serif" font-size="11" lengthAdjust="spacing" textLength="185" x="44.5" y="341.7104">NoSuchVariableException(String)</text></a><!--MD5=[86cdede55c62ee6e2c64f60e4ecc29af]
class org.apache.wiki.api.exceptions.NoRequiredPropertyException--><a href="NoRequiredPropertyException.html" target="_top" title="NoRequiredPropertyException.html" xlink:actuate="onRequest" xlink:href="NoRequiredPropertyException.html" xlink:show="new" xlink:title="NoRequiredPropertyException.html" xlink:type="simple"><rect codeLine="7" fill="#FEFECE" filter="url(#f5lfw3d4s27zh)" height="60.8047" id="org.apache.wiki.api.exceptions.NoRequiredPropertyException" style="stroke:#A80036;stroke-width:1.5;" width="277" x="270.5" y="287.5"/><ellipse cx="311.6" cy="303.5" fill="#ADD1B2" rx="11" ry="11" style="stroke:#A80036;stroke-width:1.0;"/><path d="M314.5688,309.1406 Q313.9906,309.4375 313.35,309.5781 Q312.7094,309.7344 312.0063,309.7344 Q309.5063,309.7344 308.1781,308.0938 Q306.8656,306.4375 306.8656,303.3125 Q306.8656,300.1875 308.1781,298.5313 Q309.5063,296.875 312.0063,296.875 Q312.7094,296.875 313.35,297.0313 Q314.0063,297.1875 314.5688,297.4844 L314.5688,300.2031 Q313.9438,299.625 313.35,299.3594 Q312.7563,299.0781 312.1313,299.0781 Q310.7875,299.0781 310.1,300.1563 Q309.4125,301.2188 309.4125,303.3125 Q309.4125,305.4063 310.1,306.4844 Q310.7875,307.5469 312.1313,307.5469 Q312.7563,307.5469 313.35,307.2813 Q313.9438,307 314.5688,306.4219 L314.5688,309.1406 Z " fill="#000000"/><text fill="#000000" font-family="sans-serif" font-size="12" lengthAdjust="spacing" textLength="187" x="331.4" y="307.6543">NoRequiredPropertyException</text><line style="stroke:#A80036;stroke-width:1.5;" x1="271.5" x2="546.5" y1="319.5" y2="319.5"/><line style="stroke:#A80036;stroke-width:1.5;" x1="271.5" x2="546.5" y1="327.5" y2="327.5"/><ellipse cx="281.5" cy="338.5" fill="#84BE84" rx="3" ry="3" style="stroke:#038048;stroke-width:1.0;"/><text fill="#000000" font-family="sans-serif" font-size="11" lengthAdjust="spacing" textLength="251" x="290.5" y="341.7104">NoRequiredPropertyException(String, String)</text></a><!--MD5=[676e832b30a9eebd8a3177baabd07280]
class org.apache.wiki.api.exceptions.WikiI18nException--><a href="WikiI18nException.html" target="_top" title="WikiI18nException.html" xlink:actuate="onRequest" xlink:href="WikiI18nException.html" xlink:show="new" xlink:title="WikiI18nException.html" xlink:type="simple"><rect codeLine="11" fill="#FEFECE" filter="url(#f5lfw3d4s27zh)" height="86.4141" id="org.apache.wiki.api.exceptions.WikiI18nException" style="stroke:#A80036;stroke-width:1.5;" width="223" x="582.5" y="275"/><ellipse cx="633.75" cy="291" fill="#ADD1B2" rx="11" ry="11" style="stroke:#A80036;stroke-width:1.0;"/><path d="M636.7188,296.6406 Q636.1406,296.9375 635.5,297.0781 Q634.8594,297.2344 634.1563,297.2344 Q631.6563,297.2344 630.3281,295.5938 Q629.0156,293.9375 629.0156,290.8125 Q629.0156,287.6875 630.3281,286.0313 Q631.6563,284.375 634.1563,284.375 Q634.8594,284.375 635.5,284.5313 Q636.1563,284.6875 636.7188,284.9844 L636.7188,287.7031 Q636.0938,287.125 635.5,286.8594 Q634.9063,286.5781 634.2813,286.5781 Q632.9375,286.5781 632.25,287.6563 Q631.5625,288.7188 631.5625,290.8125 Q631.5625,292.9063 632.25,293.9844 Q632.9375,295.0469 634.2813,295.0469 Q634.9063,295.0469 635.5,294.7813 Q636.0938,294.5 636.7188,293.9219 L636.7188,296.6406 Z " fill="#000000"/><text fill="#000000" font-family="sans-serif" font-size="12" lengthAdjust="spacing" textLength="112" x="654.25" y="295.1543">WikiI18nException</text><line style="stroke:#A80036;stroke-width:1.5;" x1="583.5" x2="804.5" y1="307" y2="307"/><polygon fill="none" points="593.5,313,597.5,317,593.5,321,589.5,317" style="stroke:#B38D22;stroke-width:1.0;"/><text fill="#000000" font-family="sans-serif" font-size="11" lengthAdjust="spacing" textLength="78" x="602.5" y="321.2104">args: Object[]</text><line style="stroke:#A80036;stroke-width:1.5;" x1="583.5" x2="804.5" y1="327.8047" y2="327.8047"/><ellipse cx="593.5" cy="338.8047" fill="#84BE84" rx="3" ry="3" style="stroke:#038048;stroke-width:1.0;"/><text fill="#000000" font-family="sans-serif" font-size="11" lengthAdjust="spacing" textLength="197" x="602.5" y="342.0151">WikiI18nException(String, Object...)</text><ellipse cx="593.5" cy="351.6094" fill="#84BE84" rx="3" ry="3" style="stroke:#038048;stroke-width:1.0;"/><text fill="#000000" font-family="sans-serif" font-size="11" lengthAdjust="spacing" textLength="104" x="602.5" y="354.8198">getArgs(): Object[]</text></a><!--MD5=[7b3401d984463d04818fd1f6037aaa8a]
class org.apache.wiki.api.exceptions.FilterException--><a href="FilterException.html" target="_top" title="FilterException.html" xlink:actuate="onRequest" xlink:href="FilterException.html" xlink:show="new" xlink:title="FilterException.html" xlink:type="simple"><rect codeLine="17" fill="#FEFECE" filter="url(#f5lfw3d4s27zh)" height="60.8047" id="org.apache.wiki.api.exceptions.FilterException" style="stroke:#A80036;stroke-width:1.5;" width="150" x="841" y="287.5"/><ellipse cx="867.7" cy="303.5" fill="#ADD1B2" rx="11" ry="11" style="stroke:#A80036;stroke-width:1.0;"/><path d="M870.6688,309.1406 Q870.0906,309.4375 869.45,309.5781 Q868.8094,309.7344 868.1063,309.7344 Q865.6063,309.7344 864.2781,308.0938 Q862.9656,306.4375 862.9656,303.3125 Q862.9656,300.1875 864.2781,298.5313 Q865.6063,296.875 868.1063,296.875 Q868.8094,296.875 869.45,297.0313 Q870.1063,297.1875 870.6688,297.4844 L870.6688,300.2031 Q870.0438,299.625 869.45,299.3594 Q868.8563,299.0781 868.2313,299.0781 Q866.8875,299.0781 866.2,300.1563 Q865.5125,301.2188 865.5125,303.3125 Q865.5125,305.4063 866.2,306.4844 Q866.8875,307.5469 868.2313,307.5469 Q868.8563,307.5469 869.45,307.2813 Q870.0438,307 870.6688,306.4219 L870.6688,309.1406 Z " fill="#000000"/><text fill="#000000" font-family="sans-serif" font-size="12" lengthAdjust="spacing" textLength="92" x="884.3" y="307.6543">FilterException</text><line style="stroke:#A80036;stroke-width:1.5;" x1="842" x2="990" y1="319.5" y2="319.5"/><line style="stroke:#A80036;stroke-width:1.5;" x1="842" x2="990" y1="327.5" y2="327.5"/><ellipse cx="852" cy="338.5" fill="#84BE84" rx="3" ry="3" style="stroke:#038048;stroke-width:1.0;"/><text fill="#000000" font-family="sans-serif" font-size="11" lengthAdjust="spacing" textLength="124" x="861" y="341.7104">FilterException(String)</text></a><!--MD5=[537623f78fe54ea63d01296e26bbd90b]
class org.apache.wiki.api.exceptions.PluginException--><a href="PluginException.html" target="_top" title="PluginException.html" xlink:actuate="onRequest" xlink:href="PluginException.html" xlink:show="new" xlink:title="PluginException.html" xlink:type="simple"><rect codeLine="21" fill="#FEFECE" filter="url(#f5lfw3d4s27zh)" height="86.4141" id="org.apache.wiki.api.exceptions.PluginException" style="stroke:#A80036;stroke-width:1.5;" width="223" x="1025.5" y="275"/><ellipse cx="1083.25" cy="291" fill="#ADD1B2" rx="11" ry="11" style="stroke:#A80036;stroke-width:1.0;"/><path d="M1086.2188,296.6406 Q1085.6406,296.9375 1085,297.0781 Q1084.3594,297.2344 1083.6563,297.2344 Q1081.1563,297.2344 1079.8281,295.5938 Q1078.5156,293.9375 1078.5156,290.8125 Q1078.5156,287.6875 1079.8281,286.0313 Q1081.1563,284.375 1083.6563,284.375 Q1084.3594,284.375 1085,284.5313 Q1085.6563,284.6875 1086.2188,284.9844 L1086.2188,287.7031 Q1085.5938,287.125 1085,286.8594 Q1084.4063,286.5781 1083.7813,286.5781 Q1082.4375,286.5781 1081.75,287.6563 Q1081.0625,288.7188 1081.0625,290.8125 Q1081.0625,292.9063 1081.75,293.9844 Q1082.4375,295.0469 1083.7813,295.0469 Q1084.4063,295.0469 1085,294.7813 Q1085.5938,294.5 1086.2188,293.9219 L1086.2188,296.6406 Z " fill="#000000"/><text fill="#000000" font-family="sans-serif" font-size="12" lengthAdjust="spacing" textLength="99" x="1103.75" y="295.1543">PluginException</text><line style="stroke:#A80036;stroke-width:1.5;" x1="1026.5" x2="1247.5" y1="307" y2="307"/><line style="stroke:#A80036;stroke-width:1.5;" x1="1026.5" x2="1247.5" y1="315" y2="315"/><ellipse cx="1036.5" cy="326" fill="#84BE84" rx="3" ry="3" style="stroke:#038048;stroke-width:1.0;"/><text fill="#000000" font-family="sans-serif" font-size="11" lengthAdjust="spacing" textLength="130" x="1045.5" y="329.2104">PluginException(String)</text><ellipse cx="1036.5" cy="338.8047" fill="#84BE84" rx="3" ry="3" style="stroke:#038048;stroke-width:1.0;"/><text fill="#000000" font-family="sans-serif" font-size="11" lengthAdjust="spacing" textLength="197" x="1045.5" y="342.0151">PluginException(String, Throwable)</text><ellipse cx="1036.5" cy="351.6094" fill="#84BE84" rx="3" ry="3" style="stroke:#038048;stroke-width:1.0;"/><text fill="#000000" font-family="sans-serif" font-size="11" lengthAdjust="spacing" textLength="177" x="1045.5" y="354.8198">getRootThrowable(): Throwable</text></a><!--MD5=[51e0bd45a8d20f3becd765be19a9d68b]
class org.apache.wiki.api.exceptions.WikiException--><a href="WikiException.html" target="_top" title="WikiException.html" xlink:actuate="onRequest" xlink:href="WikiException.html" xlink:show="new" xlink:title="WikiException.html" xlink:type="simple"><rect codeLine="27" fill="#FEFECE" filter="url(#f5lfw3d4s27zh)" height="73.6094" id="org.apache.wiki.api.exceptions.WikiException" style="stroke:#A80036;stroke-width:1.5;" width="210" x="700" y="141"/><ellipse cx="758.25" cy="157" fill="#ADD1B2" rx="11" ry="11" style="stroke:#A80036;stroke-width:1.0;"/><path d="M761.2188,162.6406 Q760.6406,162.9375 760,163.0781 Q759.3594,163.2344 758.6563,163.2344 Q756.1563,163.2344 754.8281,161.5938 Q753.5156,159.9375 753.5156,156.8125 Q753.5156,153.6875 754.8281,152.0313 Q756.1563,150.375 758.6563,150.375 Q759.3594,150.375 760,150.5313 Q760.6563,150.6875 761.2188,150.9844 L761.2188,153.7031 Q760.5938,153.125 760,152.8594 Q759.4063,152.5781 758.7813,152.5781 Q757.4375,152.5781 756.75,153.6563 Q756.0625,154.7188 756.0625,156.8125 Q756.0625,158.9063 756.75,159.9844 Q757.4375,161.0469 758.7813,161.0469 Q759.4063,161.0469 760,160.7813 Q760.5938,160.5 761.2188,159.9219 L761.2188,162.6406 Z " fill="#000000"/><text fill="#000000" font-family="sans-serif" font-size="12" lengthAdjust="spacing" textLength="85" x="778.75" y="161.1543">WikiException</text><line style="stroke:#A80036;stroke-width:1.5;" x1="701" x2="909" y1="173" y2="173"/><line style="stroke:#A80036;stroke-width:1.5;" x1="701" x2="909" y1="181" y2="181"/><ellipse cx="711" cy="192" fill="#84BE84" rx="3" ry="3" style="stroke:#038048;stroke-width:1.0;"/><text fill="#000000" font-family="sans-serif" font-size="11" lengthAdjust="spacing" textLength="117" x="720" y="195.2104">WikiException(String)</text><ellipse cx="711" cy="204.8047" fill="#84BE84" rx="3" ry="3" style="stroke:#038048;stroke-width:1.0;"/><text fill="#000000" font-family="sans-serif" font-size="11" lengthAdjust="spacing" textLength="184" x="720" y="208.0151">WikiException(String, Throwable)</text></a><!--MD5=[24a53e4790a197f300953d98b1392050]
class org.apache.wiki.api.exceptions.RedirectException--><a href="RedirectException.html" target="_top" title="RedirectException.html" xlink:actuate="onRequest" xlink:href="RedirectException.html" xlink:show="new" xlink:title="RedirectException.html" xlink:type="simple"><rect codeLine="32" fill="#FEFECE" filter="url(#f5lfw3d4s27zh)" height="73.6094" id="org.apache.wiki.api.exceptions.RedirectException" style="stroke:#A80036;stroke-width:1.5;" width="210" x="811" y="421"/><ellipse cx="855.25" cy="437" fill="#ADD1B2" rx="11" ry="11" style="stroke:#A80036;stroke-width:1.0;"/><path d="M858.2188,442.6406 Q857.6406,442.9375 857,443.0781 Q856.3594,443.2344 855.6563,443.2344 Q853.1563,443.2344 851.8281,441.5938 Q850.5156,439.9375 850.5156,436.8125 Q850.5156,433.6875 851.8281,432.0313 Q853.1563,430.375 855.6563,430.375 Q856.3594,430.375 857,430.5313 Q857.6563,430.6875 858.2188,430.9844 L858.2188,433.7031 Q857.5938,433.125 857,432.8594 Q856.4063,432.5781 855.7813,432.5781 Q854.4375,432.5781 853.75,433.6563 Q853.0625,434.7188 853.0625,436.8125 Q853.0625,438.9063 853.75,439.9844 Q854.4375,441.0469 855.7813,441.0469 Q856.4063,441.0469 857,440.7813 Q857.5938,440.5 858.2188,439.9219 L858.2188,442.6406 Z " fill="#000000"/><text fill="#000000" font-family="sans-serif" font-size="12" lengthAdjust="spacing" textLength="113" x="875.75" y="441.1543">RedirectException</text><line style="stroke:#A80036;stroke-width:1.5;" x1="812" x2="1020" y1="453" y2="453"/><line style="stroke:#A80036;stroke-width:1.5;" x1="812" x2="1020" y1="461" y2="461"/><ellipse cx="822" cy="472" fill="#84BE84" rx="3" ry="3" style="stroke:#038048;stroke-width:1.0;"/><text fill="#000000" font-family="sans-serif" font-size="11" lengthAdjust="spacing" textLength="184" x="831" y="475.2104">RedirectException(String, String)</text><ellipse cx="822" cy="484.8047" fill="#84BE84" rx="3" ry="3" style="stroke:#038048;stroke-width:1.0;"/><text fill="#000000" font-family="sans-serif" font-size="11" lengthAdjust="spacing" textLength="114" x="831" y="488.0151">getRedirect(): String</text></a><!--MD5=[6346ac6320f1e597efc440bdcfb72a27]
class org.apache.wiki.api.exceptions.ProviderException--><a href="ProviderException.html" target="_top" title="ProviderException.html" xlink:actuate="onRequest" xlink:href="ProviderException.html" xlink:show="new" xlink:title="ProviderException.html" xlink:type="simple"><rect codeLine="37" fill="#FEFECE" filter="url(#f5lfw3d4s27zh)" height="60.8047" id="org.apache.wiki.api.exceptions.ProviderException" style="stroke:#A80036;stroke-width:1.5;" width="169" x="1283.5" y="287.5"/><ellipse cx="1309.75" cy="303.5" fill="#ADD1B2" rx="11" ry="11" style="stroke:#A80036;stroke-width:1.0;"/><path d="M1312.7188,309.1406 Q1312.1406,309.4375 1311.5,309.5781 Q1310.8594,309.7344 1310.1563,309.7344 Q1307.6563,309.7344 1306.3281,308.0938 Q1305.0156,306.4375 1305.0156,303.3125 Q1305.0156,300.1875 1306.3281,298.5313 Q1307.6563,296.875 1310.1563,296.875 Q1310.8594,296.875 1311.5,297.0313 Q1312.1563,297.1875 1312.7188,297.4844 L1312.7188,300.2031 Q1312.0938,299.625 1311.5,299.3594 Q1310.9063,299.0781 1310.2813,299.0781 Q1308.9375,299.0781 1308.25,300.1563 Q1307.5625,301.2188 1307.5625,303.3125 Q1307.5625,305.4063 1308.25,306.4844 Q1308.9375,307.5469 1310.2813,307.5469 Q1310.9063,307.5469 1311.5,307.2813 Q1312.0938,307 1312.7188,306.4219 L1312.7188,309.1406 Z " fill="#000000"/><text fill="#000000" font-family="sans-serif" font-size="12" lengthAdjust="spacing" textLength="112" x="1326.25" y="307.6543">ProviderException</text><line style="stroke:#A80036;stroke-width:1.5;" x1="1284.5" x2="1451.5" y1="319.5" y2="319.5"/><line style="stroke:#A80036;stroke-width:1.5;" x1="1284.5" x2="1451.5" y1="327.5" y2="327.5"/><ellipse cx="1294.5" cy="338.5" fill="#84BE84" rx="3" ry="3" style="stroke:#038048;stroke-width:1.0;"/><text fill="#000000" font-family="sans-serif" font-size="11" lengthAdjust="spacing" textLength="143" x="1303.5" y="341.7104">ProviderException(String)</text></a><!--MD5=[46c05dfe24a0851e179497c4631d3ff2]
class java.lang.Exception--><rect codeLine="52" fill="#FEFECE" filter="url(#f5lfw3d4s27zh)" height="48" id="java.lang.Exception" style="stroke:#A80036;stroke-width:1.5;" width="93" x="758.5" y="33"/><ellipse cx="773.5" cy="49" fill="#ADD1B2" rx="11" ry="11" style="stroke:#A80036;stroke-width:1.0;"/><path d="M776.4688,54.6406 Q775.8906,54.9375 775.25,55.0781 Q774.6094,55.2344 773.9063,55.2344 Q771.4063,55.2344 770.0781,53.5938 Q768.7656,51.9375 768.7656,48.8125 Q768.7656,45.6875 770.0781,44.0313 Q771.4063,42.375 773.9063,42.375 Q774.6094,42.375 775.25,42.5313 Q775.9063,42.6875 776.4688,42.9844 L776.4688,45.7031 Q775.8438,45.125 775.25,44.8594 Q774.6563,44.5781 774.0313,44.5781 Q772.6875,44.5781 772,45.6563 Q771.3125,46.7188 771.3125,48.8125 Q771.3125,50.9063 772,51.9844 Q772.6875,53.0469 774.0313,53.0469 Q774.6563,53.0469 775.25,52.7813 Q775.8438,52.5 776.4688,51.9219 L776.4688,54.6406 Z " fill="#000000"/><text fill="#000000" font-family="sans-serif" font-size="12" lengthAdjust="spacing" textLength="61" x="787.5" y="53.1543">Exception</text><line style="stroke:#A80036;stroke-width:1.5;" x1="759.5" x2="850.5" y1="65" y2="65"/><line style="stroke:#A80036;stroke-width:1.5;" x1="759.5" x2="850.5" y1="73" y2="73"/><!--MD5=[993e9671c3b593f7bdd3df7b08783192]
reverse link org.apache.wiki.api.exceptions.WikiException to org.apache.wiki.api.exceptions.NoSuchVariableException--><path codeLine="41" d="M679.8716,194.0731 C567.1722,209.9443 397.5146,237.3085 253,275 C239.4287,278.5396 225.2164,282.8869 211.4697,287.4429 " fill="none" id="org.apache.wiki.api.exceptions.WikiException-backto-org.apache.wiki.api.exceptions.NoSuchVariableException" style="stroke:#A80036;stroke-width:1.0;"/><polygon fill="none" points="679.112,187.1115,699.8853,191.2912,681.0396,200.9782,679.112,187.1115" style="stroke:#A80036;stroke-width:1.0;"/><!--MD5=[39264478238c0831a0f9e5371d7d9738]
reverse link org.apache.wiki.api.exceptions.WikiException to org.apache.wiki.api.exceptions.NoRequiredPropertyException--><path codeLine="42" d="M681.0032,221.8373 C620.6781,243.1643 549.6478,268.276 495.3024,287.4891 " fill="none" id="org.apache.wiki.api.exceptions.WikiException-backto-org.apache.wiki.api.exceptions.NoRequiredPropertyException" style="stroke:#A80036;stroke-width:1.0;"/><polygon fill="none" points="678.9888,215.1249,700.1784,215.0581,683.6553,228.3243,678.9888,215.1249" style="stroke:#A80036;stroke-width:1.0;"/><!--MD5=[7154bccf71731a0642a8c6a4edb907b3]
reverse link org.apache.wiki.api.exceptions.WikiException to org.apache.wiki.api.exceptions.WikiI18nException--><path codeLine="43" d="M763.0049,230.9668 C751.4847,245.4967 739.1381,261.0691 728.1189,274.9672 " fill="none" id="org.apache.wiki.api.exceptions.WikiException-backto-org.apache.wiki.api.exceptions.WikiI18nException" style="stroke:#A80036;stroke-width:1.0;"/><polygon fill="none" points="757.6347,226.4728,775.5455,215.1499,768.605,235.1707,757.6347,226.4728" style="stroke:#A80036;stroke-width:1.0;"/><!--MD5=[0bc9dd1b575c567de88e8c17c18850f6]
reverse link org.apache.wiki.api.exceptions.WikiException to org.apache.wiki.api.exceptions.FilterException--><path codeLine="44" d="M846.9591,230.9214 C862.0513,249.9566 878.5662,270.7862 891.6588,287.2994 " fill="none" id="org.apache.wiki.api.exceptions.WikiException-backto-org.apache.wiki.api.exceptions.FilterException" style="stroke:#A80036;stroke-width:1.0;"/><polygon fill="none" points="841.395,235.1707,834.4545,215.1499,852.3653,226.4728,841.395,235.1707" style="stroke:#A80036;stroke-width:1.0;"/><!--MD5=[6a69a9de40e333362dc32b7eb51cedcc]
reverse link org.apache.wiki.api.exceptions.WikiException to org.apache.wiki.api.exceptions.PluginException--><path codeLine="45" d="M911.7299,223.0066 C951.2278,239.6623 995.8791,258.4912 1034.9507,274.9672 " fill="none" id="org.apache.wiki.api.exceptions.WikiException-backto-org.apache.wiki.api.exceptions.PluginException" style="stroke:#A80036;stroke-width:1.0;"/><polygon fill="none" points="908.8069,229.371,893.0983,215.1499,914.2467,216.471,908.8069,229.371" style="stroke:#A80036;stroke-width:1.0;"/><!--MD5=[eed413f56936acbb0f540fee28899af8]
reverse link java.lang.Exception to org.apache.wiki.api.exceptions.WikiException--><path codeLine="46" d="M805,101.5529 C805,114.5142 805,128.5269 805,140.9716 " fill="none" id="java.lang.Exception-backto-org.apache.wiki.api.exceptions.WikiException" style="stroke:#A80036;stroke-width:1.0;"/><polygon fill="none" points="798.0001,101.1954,805,81.1953,812.0001,101.1953,798.0001,101.1954" style="stroke:#A80036;stroke-width:1.0;"/><!--MD5=[da79e2284644c267c82b4b2852046e57]
reverse link org.apache.wiki.api.exceptions.FilterException to org.apache.wiki.api.exceptions.RedirectException--><path codeLine="47" d="M916,368.9112 C916,386.1034 916,404.959 916,420.8788 " fill="none" id="org.apache.wiki.api.exceptions.FilterException-backto-org.apache.wiki.api.exceptions.RedirectException" style="stroke:#A80036;stroke-width:1.0;"/><polygon fill="none" points="909.0001,368.7236,916,348.7236,923.0001,368.7236,909.0001,368.7236" style="stroke:#A80036;stroke-width:1.0;"/><!--MD5=[a656e25f6046074046b2742b96157540]
reverse link org.apache.wiki.api.exceptions.WikiException to org.apache.wiki.api.exceptions.ProviderException--><path codeLine="48" d="M930.3675,197.6813 C1024.0278,213.9908 1154.5546,240.138 1266,275 C1277.3715,278.5572 1289.2177,282.9135 1300.6417,287.4733 " fill="none" id="org.apache.wiki.api.exceptions.WikiException-backto-org.apache.wiki.api.exceptions.ProviderException" style="stroke:#A80036;stroke-width:1.0;"/><polygon fill="none" points="928.8965,204.5313,910.368,194.2505,931.2636,190.7328,928.8965,204.5313" style="stroke:#A80036;stroke-width:1.0;"/><text fill="#888888" font-family="sans-serif" font-size="10" lengthAdjust="spacing" textLength="192" x="636" y="518.2822">UMLDoclet 2.0.15, PlantUML 1.2021.13</text><!--MD5=[90955447b432795fe7ab3eeae0321c21]
@startuml
    namespace org.apache.wiki.api.exceptions {

        class NoSuchVariableException [[NoSuchVariableException.html]] {
            +NoSuchVariableException(String)
        }

        class NoRequiredPropertyException [[NoRequiredPropertyException.html]] {
            +NoRequiredPropertyException(String, String)
        }

        class WikiI18nException [[WikiI18nException.html]] {
            #args: Object[]
            +WikiI18nException(String, Object...)
            +getArgs(): Object[]
        }

        class FilterException [[FilterException.html]] {
            +FilterException(String)
        }

        class PluginException [[PluginException.html]] {
            +PluginException(String)
            +PluginException(String, Throwable)
            +getRootThrowable(): Throwable
        }

        class WikiException [[WikiException.html]] {
            +WikiException(String)
            +WikiException(String, Throwable)
        }

        class RedirectException [[RedirectException.html]] {
            +RedirectException(String, String)
            +getRedirect(): String
        }

        class ProviderException [[ProviderException.html]] {
            +ProviderException(String)
        }

        WikiException <|- - NoSuchVariableException
        WikiException <|- - NoRequiredPropertyException
        WikiException <|- - WikiI18nException
        WikiException <|- - FilterException
        WikiException <|- - PluginException
        java.lang.Exception <|- - WikiException
        FilterException <|- - RedirectException
        WikiException <|- - ProviderException
    }

    namespace java.lang {
        class Exception {
        }
    }

    center footer UMLDoclet 2.0.15, PlantUML 1.2021.13
@enduml

PlantUML version 1.2021.13(Mon Nov 01 11:38:45 UTC 2021)
(APACHE source distribution)
Java Runtime: OpenJDK Runtime Environment
JVM: OpenJDK 64-Bit Server VM
Default Encoding: ISO-8859-1
Language: en
Country: US
--></g></svg>