<?xml version="1.0" encoding="UTF-8" standalone="no"?><svg xmlns="http://www.w3.org/2000/svg" xmlns:xlink="http://www.w3.org/1999/xlink" contentScriptType="application/ecmascript" contentStyleType="text/css" height="103px" preserveAspectRatio="none" style="width:280px;height:103px;" version="1.1" viewBox="0 0 280 103" width="280px" zoomAndPan="magnify"><defs><filter height="300%" id="fb0inva2wonup" width="300%" x="-1" y="-1"><feGaussianBlur result="blurOut" stdDeviation="2.0"/><feColorMatrix in="blurOut" result="blurOut2" type="matrix" values="0 0 0 0 0 0 0 0 0 0 0 0 0 0 0 0 0 0 .4 0"/><feOffset dx="4.0" dy="4.0" in="blurOut2" result="blurOut3"/><feBlend in="SourceGraphic" in2="blurOut3" mode="normal"/></filter></defs><g><!--class Groups--><a href="Groups.html" target="_top" xlink:actuate="onRequest" xlink:show="new" xlink:title="Groups.html" xlink:type="simple"><rect fill="#FEFECE" filter="url(#fb0inva2wonup)" height="61.8359" id="Groups" style="stroke: #A80036; stroke-width: 1.5;" width="263" x="6" y="8"/><ellipse cx="112.75" cy="24" fill="#ADD1B2" rx="11" ry="11" style="stroke: #A80036; stroke-width: 1.0;"/><path d="M115.5156,19.875 Q115.6719,19.6563 115.8594,19.5469 Q116.0469,19.4375 116.2656,19.4375 Q116.6406,19.4375 116.875,19.6953 Q117.1094,19.9531 117.1094,20.5625 L117.1094,22.0156 Q117.1094,22.625 116.875,22.8906 Q116.6406,23.1563 116.2656,23.1563 Q115.9219,23.1563 115.7188,22.9531 Q115.5156,22.7656 115.4063,22.25 Q115.3594,21.8906 115.1719,21.7031 Q114.8438,21.3281 114.2344,21.1094 Q113.625,20.8906 113,20.8906 Q112.2344,20.8906 111.6016,21.2188 Q110.9688,21.5469 110.4766,22.2969 Q109.9844,23.0469 109.9844,24.0781 L109.9844,25.1719 Q109.9844,26.4063 110.875,27.2266 Q111.7656,28.0469 113.3594,28.0469 Q114.2969,28.0469 114.9531,27.7969 Q115.3438,27.6406 115.7656,27.2031 Q116.0313,26.9375 116.1797,26.8594 Q116.3281,26.7813 116.5313,26.7813 Q116.8594,26.7813 117.1172,27.0391 Q117.375,27.2969 117.375,27.6406 Q117.375,27.9844 117.0313,28.3906 Q116.5313,28.9688 115.7344,29.2969 Q114.6563,29.75 113.3594,29.75 Q111.8438,29.75 110.6406,29.125 Q109.6563,28.625 108.9688,27.5547 Q108.2813,26.4844 108.2813,25.2031 L108.2813,24.0469 Q108.2813,22.7188 108.8984,21.5703 Q109.5156,20.4219 110.6094,19.8047 Q111.7031,19.1875 112.9375,19.1875 Q113.6719,19.1875 114.3203,19.3516 Q114.9688,19.5156 115.5156,19.875 Z "/><text fill="#000000" font-family="sans-serif" font-size="12" lengthAdjust="spacingAndGlyphs" textLength="41" x="133.25" y="28.9102">Groups</text><line style="stroke: #A80036; stroke-width: 1.5;" x1="7" x2="268" y1="40" y2="40"/><line style="stroke: #A80036; stroke-width: 1.5;" x1="7" x2="268" y1="48" y2="48"/><ellipse cx="17" cy="60.418" fill="#84BE84" rx="3" ry="3" style="stroke: #038048; stroke-width: 1.0;"/><text fill="#000000" font-family="sans-serif" font-size="11" lengthAdjust="spacingAndGlyphs" textLength="237" x="26" y="63.4189">execute(WikiContext, Map&lt;String, String&gt;): String</text></a><text fill="#888888" font-family="sans-serif" font-size="10" lengthAdjust="spacingAndGlyphs" textLength="184" x="51.5" y="90.3809">UMLDoclet 1.1.4, PlantUML 1.2019.05</text><!--
@startuml

    class Groups [[Groups.html]] {
        +execute(WikiContext, Map<String, String>): String
    }


    center footer UMLDoclet 1.1.4, PlantUML 1.2019.05
@enduml

PlantUML version 1.2019.05(Sat Apr 20 18:45:36 CEST 2019)
(APACHE source distribution)
Java Runtime: OpenJDK Runtime Environment
JVM: OpenJDK 64-Bit Server VM
Java Version: 1.8.0_212-b03
Operating System: Windows 10
OS Version: 10.0
Default Encoding: Cp1252
Language: es
Country: ES
--></g></svg>