<?xml version="1.0" encoding="UTF-8" standalone="no"?><svg xmlns="http://www.w3.org/2000/svg" xmlns:xlink="http://www.w3.org/1999/xlink" contentScriptType="application/ecmascript" contentStyleType="text/css" height="210px" preserveAspectRatio="none" style="width:316px;height:210px;" version="1.1" viewBox="0 0 316 210" width="316px" zoomAndPan="magnify"><defs><filter height="300%" id="faccapfl32gdo" width="300%" x="-1" y="-1"><feGaussianBlur result="blurOut" stdDeviation="2.0"/><feColorMatrix in="blurOut" result="blurOut2" type="matrix" values="0 0 0 0 0 0 0 0 0 0 0 0 0 0 0 0 0 0 .4 0"/><feOffset dx="4.0" dy="4.0" in="blurOut2" result="blurOut3"/><feBlend in="SourceGraphic" in2="blurOut3" mode="normal"/></filter></defs><g><!--cluster PageViewPlugin--><polygon fill="#FFFFFF" filter="url(#faccapfl32gdo)" points="14,16,132,16,139,39.6094,294,39.6094,294,169,14,169,14,16" style="stroke: #000000; stroke-width: 1.5;"/><line style="stroke: #000000; stroke-width: 1.5;" x1="14" x2="139" y1="39.6094" y2="39.6094"/><text fill="#000000" font-family="sans-serif" font-size="14" font-weight="bold" lengthAdjust="spacingAndGlyphs" textLength="112" x="18" y="32.5332">PageViewPlugin</text><!--class PageViewPlugin.PageViewManager--><a href="PageViewPlugin.PageViewManager.html" target="_top" xlink:actuate="onRequest" xlink:show="new" xlink:title="PageViewPlugin.PageViewManager.html" xlink:type="simple"><rect fill="#FEFECE" filter="url(#faccapfl32gdo)" height="117.1797" id="PageViewPlugin.PageViewManager" style="stroke: #A80036; stroke-width: 1.5;" width="263" x="22.5" y="44"/><ellipse cx="98.25" cy="60" fill="#ADD1B2" rx="11" ry="11" style="stroke: #A80036; stroke-width: 1.0;"/><path d="M101.0156,55.875 Q101.1719,55.6563 101.3594,55.5469 Q101.5469,55.4375 101.7656,55.4375 Q102.1406,55.4375 102.375,55.6953 Q102.6094,55.9531 102.6094,56.5625 L102.6094,58.0156 Q102.6094,58.625 102.375,58.8906 Q102.1406,59.1563 101.7656,59.1563 Q101.4219,59.1563 101.2188,58.9531 Q101.0156,58.7656 100.9063,58.25 Q100.8594,57.8906 100.6719,57.7031 Q100.3438,57.3281 99.7344,57.1094 Q99.125,56.8906 98.5,56.8906 Q97.7344,56.8906 97.1016,57.2188 Q96.4688,57.5469 95.9766,58.2969 Q95.4844,59.0469 95.4844,60.0781 L95.4844,61.1719 Q95.4844,62.4063 96.375,63.2266 Q97.2656,64.0469 98.8594,64.0469 Q99.7969,64.0469 100.4531,63.7969 Q100.8438,63.6406 101.2656,63.2031 Q101.5313,62.9375 101.6797,62.8594 Q101.8281,62.7813 102.0313,62.7813 Q102.3594,62.7813 102.6172,63.0391 Q102.875,63.2969 102.875,63.6406 Q102.875,63.9844 102.5313,64.3906 Q102.0313,64.9688 101.2344,65.2969 Q100.1563,65.75 98.8594,65.75 Q97.3438,65.75 96.1406,65.125 Q95.1563,64.625 94.4688,63.5547 Q93.7813,62.4844 93.7813,61.2031 L93.7813,60.0469 Q93.7813,58.7188 94.3984,57.5703 Q95.0156,56.4219 96.1094,55.8047 Q97.2031,55.1875 98.4375,55.1875 Q99.1719,55.1875 99.8203,55.3516 Q100.4688,55.5156 101.0156,55.875 Z "/><text fill="#000000" font-family="sans-serif" font-size="12" lengthAdjust="spacingAndGlyphs" textLength="103" x="118.75" y="64.9102">PageViewManager</text><line style="stroke: #A80036; stroke-width: 1.5;" x1="23.5" x2="284.5" y1="76" y2="76"/><line style="stroke: #A80036; stroke-width: 1.5;" x1="23.5" x2="284.5" y1="84" y2="84"/><ellipse cx="33.5" cy="96.418" fill="#84BE84" rx="3" ry="3" style="stroke: #038048; stroke-width: 1.0;"/><text fill="#000000" font-family="sans-serif" font-size="11" lengthAdjust="spacingAndGlyphs" textLength="122" x="42.5" y="99.4189">initialize(WikiEngine): void</text><ellipse cx="33.5" cy="110.2539" fill="#84BE84" rx="3" ry="3" style="stroke: #038048; stroke-width: 1.0;"/><text fill="#000000" font-family="sans-serif" font-size="11" lengthAdjust="spacingAndGlyphs" textLength="159" x="42.5" y="113.2549">actionPerformed(WikiEvent): void</text><ellipse cx="33.5" cy="124.0898" fill="#84BE84" rx="3" ry="3" style="stroke: #038048; stroke-width: 1.0;"/><text fill="#000000" font-family="sans-serif" font-size="11" lengthAdjust="spacingAndGlyphs" textLength="237" x="42.5" y="127.0908">execute(WikiContext, Map&lt;String, String&gt;): String</text><polygon fill="#FFFF44" points="33.5,132.9258,37.5,136.9258,33.5,140.9258,29.5,136.9258" style="stroke: #B38D22; stroke-width: 1.0;"/><text fill="#000000" font-family="sans-serif" font-size="11" lengthAdjust="spacingAndGlyphs" textLength="99" x="42.5" y="140.9268">getCount(Object): int</text><polygon fill="#FFFF44" points="33.5,146.7617,37.5,150.7617,33.5,154.7617,29.5,150.7617" style="stroke: #B38D22; stroke-width: 1.0;"/><text fill="#000000" font-family="sans-serif" font-size="11" lengthAdjust="spacingAndGlyphs" textLength="103" x="42.5" y="154.7627">storeCounters(): void</text></a><text fill="#888888" font-family="sans-serif" font-size="10" lengthAdjust="spacingAndGlyphs" textLength="184" x="68" y="197.3809">UMLDoclet 1.1.4, PlantUML 1.2019.05</text><!--
@startuml

    class PageViewPlugin.PageViewManager [[PageViewPlugin.PageViewManager.html]] {
        +initialize(WikiEngine): void
        +actionPerformed(WikiEvent): void
        +execute(WikiContext, Map<String, String>): String
        #getCount(Object): int
        #storeCounters(): void
    }


    center footer UMLDoclet 1.1.4, PlantUML 1.2019.05
@enduml

PlantUML version 1.2019.05(Sat Apr 20 18:45:36 CEST 2019)
(APACHE source distribution)
Java Runtime: OpenJDK Runtime Environment
JVM: OpenJDK 64-Bit Server VM
Java Version: 1.8.0_212-b03
Operating System: Windows 10
OS Version: 10.0
Default Encoding: Cp1252
Language: es
Country: ES
--></g></svg>