<?xml version="1.0" encoding="UTF-8" standalone="no"?><svg xmlns="http://www.w3.org/2000/svg" xmlns:xlink="http://www.w3.org/1999/xlink" contentScriptType="application/ecmascript" contentStyleType="text/css" height="131px" preserveAspectRatio="none" style="width:280px;height:131px;" version="1.1" viewBox="0 0 280 131" width="280px" zoomAndPan="magnify"><defs><filter height="300%" id="fowyob2065072" width="300%" x="-1" y="-1"><feGaussianBlur result="blurOut" stdDeviation="2.0"/><feColorMatrix in="blurOut" result="blurOut2" type="matrix" values="0 0 0 0 0 0 0 0 0 0 0 0 0 0 0 0 0 0 .4 0"/><feOffset dx="4.0" dy="4.0" in="blurOut2" result="blurOut3"/><feBlend in="SourceGraphic" in2="blurOut3" mode="normal"/></filter></defs><g><!--class ReferringUndefinedPagesPlugin--><a href="ReferringUndefinedPagesPlugin.html" target="_top" xlink:actuate="onRequest" xlink:show="new" xlink:title="ReferringUndefinedPagesPlugin.html" xlink:type="simple"><rect fill="#FEFECE" filter="url(#fowyob2065072)" height="89.5078" id="ReferringUndefinedPagesPlugin" style="stroke: #A80036; stroke-width: 1.5;" width="263" x="6" y="8"/><ellipse cx="44.4" cy="24" fill="#ADD1B2" rx="11" ry="11" style="stroke: #A80036; stroke-width: 1.0;"/><path d="M47.1656,19.875 Q47.3219,19.6563 47.5094,19.5469 Q47.6969,19.4375 47.9156,19.4375 Q48.2906,19.4375 48.525,19.6953 Q48.7594,19.9531 48.7594,20.5625 L48.7594,22.0156 Q48.7594,22.625 48.525,22.8906 Q48.2906,23.1563 47.9156,23.1563 Q47.5719,23.1563 47.3688,22.9531 Q47.1656,22.7656 47.0563,22.25 Q47.0094,21.8906 46.8219,21.7031 Q46.4938,21.3281 45.8844,21.1094 Q45.275,20.8906 44.65,20.8906 Q43.8844,20.8906 43.2516,21.2188 Q42.6188,21.5469 42.1266,22.2969 Q41.6344,23.0469 41.6344,24.0781 L41.6344,25.1719 Q41.6344,26.4063 42.525,27.2266 Q43.4156,28.0469 45.0094,28.0469 Q45.9469,28.0469 46.6031,27.7969 Q46.9938,27.6406 47.4156,27.2031 Q47.6813,26.9375 47.8297,26.8594 Q47.9781,26.7813 48.1813,26.7813 Q48.5094,26.7813 48.7672,27.0391 Q49.025,27.2969 49.025,27.6406 Q49.025,27.9844 48.6813,28.3906 Q48.1813,28.9688 47.3844,29.2969 Q46.3063,29.75 45.0094,29.75 Q43.4938,29.75 42.2906,29.125 Q41.3063,28.625 40.6188,27.5547 Q39.9313,26.4844 39.9313,25.2031 L39.9313,24.0469 Q39.9313,22.7188 40.5484,21.5703 Q41.1656,20.4219 42.2594,19.8047 Q43.3531,19.1875 44.5875,19.1875 Q45.3219,19.1875 45.9703,19.3516 Q46.6188,19.5156 47.1656,19.875 Z "/><text fill="#000000" font-family="sans-serif" font-size="12" lengthAdjust="spacingAndGlyphs" textLength="179" x="63.6" y="28.9102">ReferringUndefinedPagesPlugin</text><line style="stroke: #A80036; stroke-width: 1.5;" x1="7" x2="268" y1="40" y2="40"/><ellipse cx="17" cy="52.418" fill="none" rx="3" ry="3" style="stroke: #038048; stroke-width: 1.0;"/><text fill="#000000" font-family="sans-serif" font-size="11" lengthAdjust="spacingAndGlyphs" text-decoration="underline" textLength="100" x="26" y="55.4189">PARAM_MAX: String</text><ellipse cx="17" cy="66.2539" fill="none" rx="3" ry="3" style="stroke: #038048; stroke-width: 1.0;"/><text fill="#000000" font-family="sans-serif" font-size="11" lengthAdjust="spacingAndGlyphs" text-decoration="underline" textLength="118" x="26" y="69.2549">PARAM_EXTRAS: String</text><line style="stroke: #A80036; stroke-width: 1.5;" x1="7" x2="268" y1="75.6719" y2="75.6719"/><ellipse cx="17" cy="88.0898" fill="#84BE84" rx="3" ry="3" style="stroke: #038048; stroke-width: 1.0;"/><text fill="#000000" font-family="sans-serif" font-size="11" lengthAdjust="spacingAndGlyphs" textLength="237" x="26" y="91.0908">execute(WikiContext, Map&lt;String, String&gt;): String</text></a><text fill="#888888" font-family="sans-serif" font-size="10" lengthAdjust="spacingAndGlyphs" textLength="184" x="51.5" y="118.3809">UMLDoclet 1.1.4, PlantUML 1.2019.05</text><!--
@startuml

    class ReferringUndefinedPagesPlugin [[ReferringUndefinedPagesPlugin.html]] {
        {static} +PARAM_MAX: String
        {static} +PARAM_EXTRAS: String
        +execute(WikiContext, Map<String, String>): String
    }


    center footer UMLDoclet 1.1.4, PlantUML 1.2019.05
@enduml

PlantUML version 1.2019.05(Sat Apr 20 18:45:36 CEST 2019)
(APACHE source distribution)
Java Runtime: OpenJDK Runtime Environment
JVM: OpenJDK 64-Bit Server VM
Java Version: 1.8.0_212-b03
Operating System: Windows 10
OS Version: 10.0
Default Encoding: Cp1252
Language: es
Country: ES
--></g></svg>