<?xml version="1.0" encoding="UTF-8" standalone="no"?><svg xmlns="http://www.w3.org/2000/svg" xmlns:xlink="http://www.w3.org/1999/xlink" contentScriptType="application/ecmascript" contentStyleType="text/css" height="158px" preserveAspectRatio="none" style="width:280px;height:158px;" version="1.1" viewBox="0 0 280 158" width="280px" zoomAndPan="magnify"><defs><filter height="300%" id="fnc9xdjt6x99e" width="300%" x="-1" y="-1"><feGaussianBlur result="blurOut" stdDeviation="2.0"/><feColorMatrix in="blurOut" result="blurOut2" type="matrix" values="0 0 0 0 0 0 0 0 0 0 0 0 0 0 0 0 0 0 .4 0"/><feOffset dx="4.0" dy="4.0" in="blurOut2" result="blurOut3"/><feBlend in="SourceGraphic" in2="blurOut3" mode="normal"/></filter></defs><g><!--class Search--><a href="Search.html" target="_top" xlink:actuate="onRequest" xlink:show="new" xlink:title="Search.html" xlink:type="simple"><rect fill="#FEFECE" filter="url(#fnc9xdjt6x99e)" height="117.1797" id="Search" style="stroke: #A80036; stroke-width: 1.5;" width="263" x="6" y="8"/><ellipse cx="113.75" cy="24" fill="#ADD1B2" rx="11" ry="11" style="stroke: #A80036; stroke-width: 1.0;"/><path d="M116.5156,19.875 Q116.6719,19.6563 116.8594,19.5469 Q117.0469,19.4375 117.2656,19.4375 Q117.6406,19.4375 117.875,19.6953 Q118.1094,19.9531 118.1094,20.5625 L118.1094,22.0156 Q118.1094,22.625 117.875,22.8906 Q117.6406,23.1563 117.2656,23.1563 Q116.9219,23.1563 116.7188,22.9531 Q116.5156,22.7656 116.4063,22.25 Q116.3594,21.8906 116.1719,21.7031 Q115.8438,21.3281 115.2344,21.1094 Q114.625,20.8906 114,20.8906 Q113.2344,20.8906 112.6016,21.2188 Q111.9688,21.5469 111.4766,22.2969 Q110.9844,23.0469 110.9844,24.0781 L110.9844,25.1719 Q110.9844,26.4063 111.875,27.2266 Q112.7656,28.0469 114.3594,28.0469 Q115.2969,28.0469 115.9531,27.7969 Q116.3438,27.6406 116.7656,27.2031 Q117.0313,26.9375 117.1797,26.8594 Q117.3281,26.7813 117.5313,26.7813 Q117.8594,26.7813 118.1172,27.0391 Q118.375,27.2969 118.375,27.6406 Q118.375,27.9844 118.0313,28.3906 Q117.5313,28.9688 116.7344,29.2969 Q115.6563,29.75 114.3594,29.75 Q112.8438,29.75 111.6406,29.125 Q110.6563,28.625 109.9688,27.5547 Q109.2813,26.4844 109.2813,25.2031 L109.2813,24.0469 Q109.2813,22.7188 109.8984,21.5703 Q110.5156,20.4219 111.6094,19.8047 Q112.7031,19.1875 113.9375,19.1875 Q114.6719,19.1875 115.3203,19.3516 Q115.9688,19.5156 116.5156,19.875 Z "/><text fill="#000000" font-family="sans-serif" font-size="12" lengthAdjust="spacingAndGlyphs" textLength="39" x="134.25" y="28.9102">Search</text><line style="stroke: #A80036; stroke-width: 1.5;" x1="7" x2="268" y1="40" y2="40"/><ellipse cx="17" cy="52.418" fill="none" rx="3" ry="3" style="stroke: #038048; stroke-width: 1.0;"/><text fill="#000000" font-family="sans-serif" font-size="11" lengthAdjust="spacingAndGlyphs" text-decoration="underline" textLength="113" x="26" y="55.4189">PARAM_QUERY: String</text><ellipse cx="17" cy="66.2539" fill="none" rx="3" ry="3" style="stroke: #038048; stroke-width: 1.0;"/><text fill="#000000" font-family="sans-serif" font-size="11" lengthAdjust="spacingAndGlyphs" text-decoration="underline" textLength="96" x="26" y="69.2549">PARAM_SET: String</text><ellipse cx="17" cy="80.0898" fill="none" rx="3" ry="3" style="stroke: #038048; stroke-width: 1.0;"/><text fill="#000000" font-family="sans-serif" font-size="11" lengthAdjust="spacingAndGlyphs" text-decoration="underline" textLength="134" x="26" y="83.0908">DEFAULT_SETNAME: String</text><ellipse cx="17" cy="93.9258" fill="none" rx="3" ry="3" style="stroke: #038048; stroke-width: 1.0;"/><text fill="#000000" font-family="sans-serif" font-size="11" lengthAdjust="spacingAndGlyphs" text-decoration="underline" textLength="100" x="26" y="96.9268">PARAM_MAX: String</text><line style="stroke: #A80036; stroke-width: 1.5;" x1="7" x2="268" y1="103.3438" y2="103.3438"/><ellipse cx="17" cy="115.7617" fill="#84BE84" rx="3" ry="3" style="stroke: #038048; stroke-width: 1.0;"/><text fill="#000000" font-family="sans-serif" font-size="11" lengthAdjust="spacingAndGlyphs" textLength="237" x="26" y="118.7627">execute(WikiContext, Map&lt;String, String&gt;): String</text></a><text fill="#888888" font-family="sans-serif" font-size="10" lengthAdjust="spacingAndGlyphs" textLength="184" x="51.5" y="145.3809">UMLDoclet 1.1.4, PlantUML 1.2019.05</text><!--
@startuml

    class Search [[Search.html]] {
        {static} +PARAM_QUERY: String
        {static} +PARAM_SET: String
        {static} +DEFAULT_SETNAME: String
        {static} +PARAM_MAX: String
        +execute(WikiContext, Map<String, String>): String
    }


    center footer UMLDoclet 1.1.4, PlantUML 1.2019.05
@enduml

PlantUML version 1.2019.05(Sat Apr 20 18:45:36 CEST 2019)
(APACHE source distribution)
Java Runtime: OpenJDK Runtime Environment
JVM: OpenJDK 64-Bit Server VM
Java Version: 1.8.0_212-b03
Operating System: Windows 10
OS Version: 10.0
Default Encoding: Cp1252
Language: es
Country: ES
--></g></svg>