<?xml version="1.0" encoding="UTF-8" standalone="no"?><svg xmlns="http://www.w3.org/2000/svg" xmlns:xlink="http://www.w3.org/1999/xlink" contentScriptType="application/ecmascript" contentStyleType="text/css" height="311px" preserveAspectRatio="none" style="width:326px;height:311px;" version="1.1" viewBox="0 0 326 311" width="326px" zoomAndPan="magnify"><defs><filter height="300%" id="fytug5jun4kqy" width="300%" x="-1" y="-1"><feGaussianBlur result="blurOut" stdDeviation="2.0"/><feColorMatrix in="blurOut" result="blurOut2" type="matrix" values="0 0 0 0 0 0 0 0 0 0 0 0 0 0 0 0 0 0 .4 0"/><feOffset dx="4.0" dy="4.0" in="blurOut2" result="blurOut3"/><feBlend in="SourceGraphic" in2="blurOut3" mode="normal"/></filter></defs><g><!--MD5=[eb966b2a1cdf5ea93a7ce4f7b42b1565]
class org.apache.wiki.spi.ContextSPIDefaultImpl--><a href="ContextSPIDefaultImpl.html" target="_top" title="ContextSPIDefaultImpl.html" xlink:actuate="onRequest" xlink:href="ContextSPIDefaultImpl.html" xlink:show="new" xlink:title="ContextSPIDefaultImpl.html" xlink:type="simple"><rect codeLine="5" fill="#FEFECE" filter="url(#fytug5jun4kqy)" height="103.5313" id="org.apache.wiki.spi.ContextSPIDefaultImpl" style="stroke: #A80036; stroke-width: 1.5;" width="292" x="11" y="171"/><ellipse cx="83.25" cy="191.0938" fill="#ADD1B2" rx="11" ry="11" style="stroke: #A80036; stroke-width: 1.0;"/><path d="M86.0156,186.9688 Q86.1719,186.75 86.3594,186.6406 Q86.5469,186.5313 86.7656,186.5313 Q87.1406,186.5313 87.375,186.7969 Q87.6094,187.0469 87.6094,187.6563 L87.6094,189.1094 Q87.6094,189.7188 87.375,189.9844 Q87.1406,190.25 86.7656,190.25 Q86.4219,190.25 86.2188,190.0469 Q86.0156,189.8594 85.9063,189.3438 Q85.8594,188.9844 85.6719,188.7969 Q85.3438,188.4219 84.7344,188.2031 Q84.125,187.9844 83.5,187.9844 Q82.7344,187.9844 82.0938,188.3125 Q81.4688,188.6406 80.9688,189.3906 Q80.4844,190.1406 80.4844,191.1719 L80.4844,192.2656 Q80.4844,193.5 81.375,194.3281 Q82.2656,195.1406 83.8594,195.1406 Q84.7969,195.1406 85.4531,194.8906 Q85.8438,194.7344 86.2656,194.2969 Q86.5313,194.0313 86.6719,193.9531 Q86.8281,193.875 87.0313,193.875 Q87.3594,193.875 87.6094,194.1406 Q87.875,194.3906 87.875,194.7344 Q87.875,195.0781 87.5313,195.4844 Q87.0313,196.0625 86.2344,196.3906 Q85.1563,196.8438 83.8594,196.8438 Q82.3438,196.8438 81.1406,196.2188 Q80.1563,195.7188 79.4688,194.6563 Q78.7813,193.5781 78.7813,192.2969 L78.7813,191.1406 Q78.7813,189.8125 79.3906,188.6719 Q80.0156,187.5156 81.1094,186.9063 Q82.2031,186.2813 83.4375,186.2813 Q84.1719,186.2813 84.8125,186.4531 Q85.4688,186.6094 86.0156,186.9688 Z "/><text fill="#000000" font-family="sans-serif" font-size="14" lengthAdjust="spacingAndGlyphs" textLength="139" x="103.75" y="190.5332">ContextSPIDefaultImpl</text><text fill="#000000" font-family="sans-serif" font-size="10" lengthAdjust="spacingAndGlyphs" textLength="90" x="128.25" y="203.9902">org.apache.wiki.spi</text><line style="stroke: #A80036; stroke-width: 1.5;" x1="12" x2="302" y1="211.1875" y2="211.1875"/><ellipse cx="22" cy="222.1875" fill="#84BE84" rx="3" ry="3" style="stroke: #038048; stroke-width: 1.0;"/><text fill="#000000" font-family="sans-serif" font-size="11" lengthAdjust="spacingAndGlyphs" textLength="144" x="31" y="226.6064">create(Engine, Page): Context</text><ellipse cx="22" cy="236.0234" fill="#84BE84" rx="3" ry="3" style="stroke: #038048; stroke-width: 1.0;"/><text fill="#000000" font-family="sans-serif" font-size="11" lengthAdjust="spacingAndGlyphs" textLength="266" x="31" y="240.4424">create(Engine, HttpServletRequest, Command): Context</text><ellipse cx="22" cy="249.8594" fill="#84BE84" rx="3" ry="3" style="stroke: #038048; stroke-width: 1.0;"/><text fill="#000000" font-family="sans-serif" font-size="11" lengthAdjust="spacingAndGlyphs" textLength="243" x="31" y="254.2783">create(Engine, HttpServletRequest, Page): Context</text><ellipse cx="22" cy="263.6953" fill="#84BE84" rx="3" ry="3" style="stroke: #038048; stroke-width: 1.0;"/><text fill="#000000" font-family="sans-serif" font-size="11" lengthAdjust="spacingAndGlyphs" textLength="247" x="31" y="268.1143">create(Engine, HttpServletRequest, String): Context</text></a><!--MD5=[f94607c025d7165374977c722d2704ab]
class org.apache.wiki.api.spi.ContextSPI--><a href="..\api\spi\ContextSPI.html" target="_top" title="..\api\spi\ContextSPI.html" xlink:actuate="onRequest" xlink:href="..\api\spi\ContextSPI.html" xlink:show="new" xlink:title="..\api\spi\ContextSPI.html" xlink:type="simple"><rect codeLine="12" fill="#FEFECE" filter="url(#fytug5jun4kqy)" height="103.5313" id="org.apache.wiki.api.spi.ContextSPI" style="stroke: #A80036; stroke-width: 1.5;" width="300" x="7" y="7"/><ellipse cx="97.75" cy="27.0938" fill="#B4A7E5" rx="11" ry="11" style="stroke: #A80036; stroke-width: 1.0;"/><path d="M98.7031,23.7344 L98.7031,30.3906 L100.4219,30.3906 Q101.0313,30.3906 101.2969,30.625 Q101.5625,30.8594 101.5625,31.25 Q101.5625,31.625 101.2969,31.8594 Q101.0313,32.0938 100.4219,32.0938 L95.2813,32.0938 Q94.6719,32.0938 94.4063,31.8594 Q94.1406,31.625 94.1406,31.2344 Q94.1406,30.8594 94.4063,30.625 Q94.6719,30.3906 95.2813,30.3906 L97,30.3906 L97,23.7344 L95.2813,23.7344 Q94.6719,23.7344 94.4063,23.5 Q94.1406,23.2656 94.1406,22.875 Q94.1406,22.5 94.4063,22.2656 Q94.6719,22.0313 95.2813,22.0313 L100.4219,22.0313 Q101.0313,22.0313 101.2969,22.2656 Q101.5625,22.5 101.5625,22.875 Q101.5625,23.2656 101.2969,23.5 Q101.0313,23.7344 100.4219,23.7344 L98.7031,23.7344 Z "/><text fill="#000000" font-family="sans-serif" font-size="14" font-style="italic" lengthAdjust="spacingAndGlyphs" textLength="70" x="138.25" y="26.5332">ContextSPI</text><text fill="#000000" font-family="sans-serif" font-size="10" font-style="italic" lengthAdjust="spacingAndGlyphs" textLength="110" x="118.25" y="39.9902">org.apache.wiki.api.spi</text><line style="stroke: #A80036; stroke-width: 1.5;" x1="8" x2="306" y1="47.1875" y2="47.1875"/><ellipse cx="18" cy="58.1875" fill="#84BE84" rx="3" ry="3" style="stroke: #038048; stroke-width: 1.0;"/><text fill="#000000" font-family="sans-serif" font-size="11" font-style="italic" lengthAdjust="spacingAndGlyphs" textLength="148" x="27" y="62.6064">create(Engine, Page): Context</text><ellipse cx="18" cy="72.0234" fill="#84BE84" rx="3" ry="3" style="stroke: #038048; stroke-width: 1.0;"/><text fill="#000000" font-family="sans-serif" font-size="11" font-style="italic" lengthAdjust="spacingAndGlyphs" textLength="274" x="27" y="76.4424">create(Engine, HttpServletRequest, Command): Context</text><ellipse cx="18" cy="85.8594" fill="#84BE84" rx="3" ry="3" style="stroke: #038048; stroke-width: 1.0;"/><text fill="#000000" font-family="sans-serif" font-size="11" font-style="italic" lengthAdjust="spacingAndGlyphs" textLength="249" x="27" y="90.2783">create(Engine, HttpServletRequest, Page): Context</text><ellipse cx="18" cy="99.6953" fill="#84BE84" rx="3" ry="3" style="stroke: #038048; stroke-width: 1.0;"/><text fill="#000000" font-family="sans-serif" font-size="11" font-style="italic" lengthAdjust="spacingAndGlyphs" textLength="253" x="27" y="104.1143">create(Engine, HttpServletRequest, String): Context</text></a><!--MD5=[1360acf7fc0cafca9b9fe5d9309b1c6a]
reverse link org.apache.wiki.api.spi.ContextSPI to org.apache.wiki.spi.ContextSPIDefaultImpl--><path codeLine="19" d="M157,131.638 C157,144.8539 157,158.3985 157,170.8744 " fill="none" id="org.apache.wiki.api.spi.ContextSPI-backto-org.apache.wiki.spi.ContextSPIDefaultImpl" style="stroke: #A80036; stroke-width: 1.0; stroke-dasharray: 7.0,7.0;"/><polygon fill="none" points="150.0001,131.3416,157,111.3415,164.0001,131.3415,150.0001,131.3416" style="stroke: #A80036; stroke-width: 1.0;"/><text fill="#888888" font-family="sans-serif" font-size="10" lengthAdjust="spacingAndGlyphs" textLength="190" x="59" y="297.9121">UMLDoclet 2.0.12, PlantUML 1.2020.16</text><!--MD5=[55ba2edd10059e51703bb6f71a161455]
@startuml
    set namespaceSeparator none
    hide empty fields
    hide empty methods

    class "<size:14>ContextSPIDefaultImpl\n<size:10>org.apache.wiki.spi" as org.apache.wiki.spi.ContextSPIDefaultImpl [[ContextSPIDefaultImpl.html]] {
        +create(Engine, Page): Context
        +create(Engine, HttpServletRequest, Command): Context
        +create(Engine, HttpServletRequest, Page): Context
        +create(Engine, HttpServletRequest, String): Context
    }

    interface "<size:14>ContextSPI\n<size:10>org.apache.wiki.api.spi" as org.apache.wiki.api.spi.ContextSPI [[..\api\spi\ContextSPI.html]] {
        {abstract} +create(Engine, Page): Context
        {abstract} +create(Engine, HttpServletRequest, Command): Context
        {abstract} +create(Engine, HttpServletRequest, Page): Context
        {abstract} +create(Engine, HttpServletRequest, String): Context
    }

    org.apache.wiki.api.spi.ContextSPI <|.. org.apache.wiki.spi.ContextSPIDefaultImpl

    center footer UMLDoclet 2.0.12, PlantUML 1.2020.16
@enduml

PlantUML version 1.2020.16(Sun Aug 23 22:20:43 CEST 2020)
(APACHE source distribution)
Java Runtime: OpenJDK Runtime Environment
JVM: OpenJDK 64-Bit Server VM
Default Encoding: Cp1252
Language: es
Country: ES
--></g></svg>