<?xml version="1.0" encoding="UTF-8" standalone="no"?><svg xmlns="http://www.w3.org/2000/svg" xmlns:xlink="http://www.w3.org/1999/xlink" contentScriptType="application/ecmascript" contentStyleType="text/css" height="144px" preserveAspectRatio="none" style="width:271px;height:144px;" version="1.1" viewBox="0 0 271 144" width="271px" zoomAndPan="magnify"><defs><filter height="300%" id="f1tjduy29krdmw" width="300%" x="-1" y="-1"><feGaussianBlur result="blurOut" stdDeviation="2.0"/><feColorMatrix in="blurOut" result="blurOut2" type="matrix" values="0 0 0 0 0 0 0 0 0 0 0 0 0 0 0 0 0 0 .4 0"/><feOffset dx="4.0" dy="4.0" in="blurOut2" result="blurOut3"/><feBlend in="SourceGraphic" in2="blurOut3" mode="normal"/></filter></defs><g><!--class ExternalDiffProvider--><a href="ExternalDiffProvider.html" target="_top" xlink:actuate="onRequest" xlink:show="new" xlink:title="ExternalDiffProvider.html" xlink:type="simple"><rect fill="#FEFECE" filter="url(#f1tjduy29krdmw)" height="103.3438" id="ExternalDiffProvider" style="stroke: #A80036; stroke-width: 1.5;" width="254" x="6" y="8"/><ellipse cx="75.25" cy="24" fill="#ADD1B2" rx="11" ry="11" style="stroke: #A80036; stroke-width: 1.0;"/><path d="M78.0156,19.875 Q78.1719,19.6563 78.3594,19.5469 Q78.5469,19.4375 78.7656,19.4375 Q79.1406,19.4375 79.375,19.6953 Q79.6094,19.9531 79.6094,20.5625 L79.6094,22.0156 Q79.6094,22.625 79.375,22.8906 Q79.1406,23.1563 78.7656,23.1563 Q78.4219,23.1563 78.2188,22.9531 Q78.0156,22.7656 77.9063,22.25 Q77.8594,21.8906 77.6719,21.7031 Q77.3438,21.3281 76.7344,21.1094 Q76.125,20.8906 75.5,20.8906 Q74.7344,20.8906 74.1016,21.2188 Q73.4688,21.5469 72.9766,22.2969 Q72.4844,23.0469 72.4844,24.0781 L72.4844,25.1719 Q72.4844,26.4063 73.375,27.2266 Q74.2656,28.0469 75.8594,28.0469 Q76.7969,28.0469 77.4531,27.7969 Q77.8438,27.6406 78.2656,27.2031 Q78.5313,26.9375 78.6797,26.8594 Q78.8281,26.7813 79.0313,26.7813 Q79.3594,26.7813 79.6172,27.0391 Q79.875,27.2969 79.875,27.6406 Q79.875,27.9844 79.5313,28.3906 Q79.0313,28.9688 78.2344,29.2969 Q77.1563,29.75 75.8594,29.75 Q74.3438,29.75 73.1406,29.125 Q72.1563,28.625 71.4688,27.5547 Q70.7813,26.4844 70.7813,25.2031 L70.7813,24.0469 Q70.7813,22.7188 71.3984,21.5703 Q72.0156,20.4219 73.1094,19.8047 Q74.2031,19.1875 75.4375,19.1875 Q76.1719,19.1875 76.8203,19.3516 Q77.4688,19.5156 78.0156,19.875 Z "/><text fill="#000000" font-family="sans-serif" font-size="12" lengthAdjust="spacingAndGlyphs" textLength="107" x="95.75" y="28.9102">ExternalDiffProvider</text><line style="stroke: #A80036; stroke-width: 1.5;" x1="7" x2="259" y1="40" y2="40"/><ellipse cx="17" cy="52.418" fill="none" rx="3" ry="3" style="stroke: #038048; stroke-width: 1.0;"/><text fill="#000000" font-family="sans-serif" font-size="11" lengthAdjust="spacingAndGlyphs" text-decoration="underline" textLength="141" x="26" y="55.4189">PROP_DIFFCOMMAND: String</text><line style="stroke: #A80036; stroke-width: 1.5;" x1="7" x2="259" y1="61.8359" y2="61.8359"/><ellipse cx="17" cy="74.2539" fill="#84BE84" rx="3" ry="3" style="stroke: #038048; stroke-width: 1.0;"/><text fill="#000000" font-family="sans-serif" font-size="11" lengthAdjust="spacingAndGlyphs" textLength="115" x="26" y="77.2549">getProviderInfo(): String</text><ellipse cx="17" cy="88.0898" fill="#84BE84" rx="3" ry="3" style="stroke: #038048; stroke-width: 1.0;"/><text fill="#000000" font-family="sans-serif" font-size="11" lengthAdjust="spacingAndGlyphs" textLength="177" x="26" y="91.0908">initialize(WikiEngine, Properties): void</text><ellipse cx="17" cy="101.9258" fill="#84BE84" rx="3" ry="3" style="stroke: #038048; stroke-width: 1.0;"/><text fill="#000000" font-family="sans-serif" font-size="11" lengthAdjust="spacingAndGlyphs" textLength="228" x="26" y="104.9268">makeDiffHtml(WikiContext, String, String): String</text></a><text fill="#888888" font-family="sans-serif" font-size="10" lengthAdjust="spacingAndGlyphs" textLength="184" x="47" y="131.3809">UMLDoclet 1.1.4, PlantUML 1.2019.05</text><!--
@startuml

    class ExternalDiffProvider [[ExternalDiffProvider.html]] {
        {static} +PROP_DIFFCOMMAND: String
        +getProviderInfo(): String
        +initialize(WikiEngine, Properties): void
        +makeDiffHtml(WikiContext, String, String): String
    }


    center footer UMLDoclet 1.1.4, PlantUML 1.2019.05
@enduml

PlantUML version 1.2019.05(Sat Apr 20 18:45:36 CEST 2019)
(APACHE source distribution)
Java Runtime: OpenJDK Runtime Environment
JVM: OpenJDK 64-Bit Server VM
Java Version: 1.8.0_212-b03
Operating System: Windows 10
OS Version: 10.0
Default Encoding: Cp1252
Language: es
Country: ES
--></g></svg>