<?xml version="1.0" encoding="UTF-8" standalone="no"?><svg xmlns="http://www.w3.org/2000/svg" xmlns:xlink="http://www.w3.org/1999/xlink" contentScriptType="application/ecmascript" contentStyleType="text/css" height="103px" preserveAspectRatio="none" style="width:211px;height:103px;" version="1.1" viewBox="0 0 211 103" width="211px" zoomAndPan="magnify"><defs><filter height="300%" id="fj10ynq5rficn" width="300%" x="-1" y="-1"><feGaussianBlur result="blurOut" stdDeviation="2.0"/><feColorMatrix in="blurOut" result="blurOut2" type="matrix" values="0 0 0 0 0 0 0 0 0 0 0 0 0 0 0 0 0 0 .4 0"/><feOffset dx="4.0" dy="4.0" in="blurOut2" result="blurOut3"/><feBlend in="SourceGraphic" in2="blurOut3" mode="normal"/></filter></defs><g><!--class WikiEventListener--><a href="WikiEventListener.html" target="_top" xlink:actuate="onRequest" xlink:show="new" xlink:title="WikiEventListener.html" xlink:type="simple"><rect fill="#FEFECE" filter="url(#fj10ynq5rficn)" height="61.8359" id="WikiEventListener" style="stroke: #A80036; stroke-width: 1.5;" width="191" x="6" y="8"/><ellipse cx="48" cy="24" fill="#B4A7E5" rx="11" ry="11" style="stroke: #A80036; stroke-width: 1.0;"/><path d="M48.9531,20.6406 L48.9531,27.2969 L50.6719,27.2969 Q51.2813,27.2969 51.5469,27.5313 Q51.8125,27.7656 51.8125,28.1563 Q51.8125,28.5313 51.5469,28.7656 Q51.2813,29 50.6719,29 L45.5313,29 Q44.9219,29 44.6563,28.7656 Q44.3906,28.5313 44.3906,28.1406 Q44.3906,27.7656 44.6563,27.5313 Q44.9219,27.2969 45.5313,27.2969 L47.25,27.2969 L47.25,20.6406 L45.5313,20.6406 Q44.9219,20.6406 44.6563,20.4063 Q44.3906,20.1719 44.3906,19.7813 Q44.3906,19.4063 44.6563,19.1719 Q44.9219,18.9375 45.5313,18.9375 L50.6719,18.9375 Q51.2813,18.9375 51.5469,19.1719 Q51.8125,19.4063 51.8125,19.7813 Q51.8125,20.1719 51.5469,20.4063 Q51.2813,20.6406 50.6719,20.6406 L48.9531,20.6406 Z "/><text fill="#000000" font-family="sans-serif" font-size="12" font-style="italic" lengthAdjust="spacingAndGlyphs" textLength="99" x="68" y="28.9102">WikiEventListener</text><line style="stroke: #A80036; stroke-width: 1.5;" x1="7" x2="196" y1="40" y2="40"/><line style="stroke: #A80036; stroke-width: 1.5;" x1="7" x2="196" y1="48" y2="48"/><ellipse cx="17" cy="60.418" fill="#84BE84" rx="3" ry="3" style="stroke: #038048; stroke-width: 1.0;"/><text fill="#000000" font-family="sans-serif" font-size="11" font-style="italic" lengthAdjust="spacingAndGlyphs" textLength="165" x="26" y="63.4189">actionPerformed(WikiEvent): void</text></a><text fill="#888888" font-family="sans-serif" font-size="10" lengthAdjust="spacingAndGlyphs" textLength="184" x="15.5" y="90.3809">UMLDoclet 1.1.4, PlantUML 1.2019.05</text><!--
@startuml

    interface WikiEventListener [[WikiEventListener.html]] {
        {abstract} +actionPerformed(WikiEvent): void
    }


    center footer UMLDoclet 1.1.4, PlantUML 1.2019.05
@enduml

PlantUML version 1.2019.05(Sat Apr 20 18:45:36 CEST 2019)
(APACHE source distribution)
Java Runtime: OpenJDK Runtime Environment
JVM: OpenJDK 64-Bit Server VM
Java Version: 1.8.0_212-b03
Operating System: Windows 10
OS Version: 10.0
Default Encoding: Cp1252
Language: es
Country: ES
--></g></svg>