<?xml version="1.0" encoding="UTF-8" standalone="no"?><svg xmlns="http://www.w3.org/2000/svg" xmlns:xlink="http://www.w3.org/1999/xlink" contentScriptType="application/ecmascript" contentStyleType="text/css" height="152px" preserveAspectRatio="none" style="width:280px;height:152px;" version="1.1" viewBox="0 0 280 152" width="280px" zoomAndPan="magnify"><defs><filter height="300%" id="f1dmlb2f01yxj0" width="300%" x="-1" y="-1"><feGaussianBlur result="blurOut" stdDeviation="2.0"/><feColorMatrix in="blurOut" result="blurOut2" type="matrix" values="0 0 0 0 0 0 0 0 0 0 0 0 0 0 0 0 0 0 .4 0"/><feOffset dx="4.0" dy="4.0" in="blurOut2" result="blurOut3"/><feBlend in="SourceGraphic" in2="blurOut3" mode="normal"/></filter></defs><g><!--class ProgressManager--><a href="ProgressManager.html" target="_top" xlink:actuate="onRequest" xlink:show="new" xlink:title="ProgressManager.html" xlink:type="simple"><rect fill="#FEFECE" filter="url(#f1dmlb2f01yxj0)" height="112.0234" id="ProgressManager" style="stroke: #A80036; stroke-width: 1.5;" width="263" x="6" y="8"/><ellipse cx="77.75" cy="24" fill="#ADD1B2" rx="11" ry="11" style="stroke: #A80036; stroke-width: 1.0;"/><path d="M80.7188,29.6406 Q80.1406,29.9375 79.5,30.0859 Q78.8594,30.2344 78.1563,30.2344 Q75.6563,30.2344 74.3359,28.5859 Q73.0156,26.9375 73.0156,23.8125 Q73.0156,20.6875 74.3359,19.0313 Q75.6563,17.375 78.1563,17.375 Q78.8594,17.375 79.5078,17.5313 Q80.1563,17.6875 80.7188,17.9844 L80.7188,20.7031 Q80.0938,20.125 79.5,19.8516 Q78.9063,19.5781 78.2813,19.5781 Q76.9375,19.5781 76.25,20.6484 Q75.5625,21.7188 75.5625,23.8125 Q75.5625,25.9063 76.25,26.9766 Q76.9375,28.0469 78.2813,28.0469 Q78.9063,28.0469 79.5,27.7734 Q80.0938,27.5 80.7188,26.9219 L80.7188,29.6406 Z "/><text fill="#000000" font-family="sans-serif" font-size="12" lengthAdjust="spacingAndGlyphs" textLength="111" x="98.25" y="28.1543">ProgressManager</text><line style="stroke: #A80036; stroke-width: 1.5;" x1="7" x2="268" y1="40" y2="40"/><ellipse cx="17" cy="51.9023" fill="none" rx="3" ry="3" style="stroke: #038048; stroke-width: 1.0;"/><text fill="#000000" font-family="sans-serif" font-size="11" lengthAdjust="spacingAndGlyphs" text-decoration="underline" textLength="188" x="26" y="54.2104">JSON_PROGRESSTRACKER: String</text><line style="stroke: #A80036; stroke-width: 1.5;" x1="7" x2="268" y1="60.8047" y2="60.8047"/><ellipse cx="17" cy="72.707" fill="#84BE84" rx="3" ry="3" style="stroke: #038048; stroke-width: 1.0;"/><text fill="#000000" font-family="sans-serif" font-size="11" lengthAdjust="spacingAndGlyphs" textLength="194" x="26" y="75.0151">getNewProgressIdentifier(): String</text><ellipse cx="17" cy="85.5117" fill="#84BE84" rx="3" ry="3" style="stroke: #038048; stroke-width: 1.0;"/><text fill="#000000" font-family="sans-serif" font-size="11" lengthAdjust="spacingAndGlyphs" textLength="237" x="26" y="87.8198">startProgress(ProgressItem, String): void</text><ellipse cx="17" cy="98.3164" fill="#84BE84" rx="3" ry="3" style="stroke: #038048; stroke-width: 1.0;"/><text fill="#000000" font-family="sans-serif" font-size="11" lengthAdjust="spacingAndGlyphs" textLength="150" x="26" y="100.6245">stopProgress(String): void</text><ellipse cx="17" cy="111.1211" fill="#84BE84" rx="3" ry="3" style="stroke: #038048; stroke-width: 1.0;"/><text fill="#000000" font-family="sans-serif" font-size="11" lengthAdjust="spacingAndGlyphs" textLength="134" x="26" y="113.4292">getProgress(String): int</text></a><text fill="#888888" font-family="sans-serif" font-size="10" lengthAdjust="spacingAndGlyphs" textLength="186" x="50.5" y="139.2822">UMLDoclet 1.1.4, PlantUML 1.2019.05</text><!--
@startuml

    class ProgressManager [[ProgressManager.html]] {
        {static} +JSON_PROGRESSTRACKER: String
        +getNewProgressIdentifier(): String
        +startProgress(ProgressItem, String): void
        +stopProgress(String): void
        +getProgress(String): int
    }


    center footer UMLDoclet 1.1.4, PlantUML 1.2019.05
@enduml

PlantUML version 1.2019.05(Sat Apr 20 16:45:36 UTC 2019)
(APACHE source distribution)
Java Runtime: Java(TM) SE Runtime Environment
JVM: Java HotSpot(TM) 64-Bit Server VM
Java Version: 1.8.0_191-b12
Operating System: Linux
OS Version: 4.4.0-137-generic
Default Encoding: ISO-8859-1
Language: en
Country: US
--></g></svg>