<?xml version="1.0" encoding="UTF-8" standalone="no"?><svg xmlns="http://www.w3.org/2000/svg" xmlns:xlink="http://www.w3.org/1999/xlink" contentScriptType="application/ecmascript" contentStyleType="text/css" height="158px" preserveAspectRatio="none" style="width:211px;height:158px;" version="1.1" viewBox="0 0 211 158" width="211px" zoomAndPan="magnify"><defs><filter height="300%" id="fool448ie7wca" width="300%" x="-1" y="-1"><feGaussianBlur result="blurOut" stdDeviation="2.0"/><feColorMatrix in="blurOut" result="blurOut2" type="matrix" values="0 0 0 0 0 0 0 0 0 0 0 0 0 0 0 0 0 0 .4 0"/><feOffset dx="4.0" dy="4.0" in="blurOut2" result="blurOut3"/><feBlend in="SourceGraphic" in2="blurOut3" mode="normal"/></filter></defs><g><!--class AdminBeanManager--><a href="AdminBeanManager.html" target="_top" xlink:actuate="onRequest" xlink:show="new" xlink:title="AdminBeanManager.html" xlink:type="simple"><rect fill="#FEFECE" filter="url(#fool448ie7wca)" height="117.1797" id="AdminBeanManager" style="stroke: #A80036; stroke-width: 1.5;" width="191" x="6" y="8"/><ellipse cx="41.7" cy="24" fill="#B4A7E5" rx="11" ry="11" style="stroke: #A80036; stroke-width: 1.0;"/><path d="M42.6531,20.6406 L42.6531,27.2969 L44.3719,27.2969 Q44.9813,27.2969 45.2469,27.5313 Q45.5125,27.7656 45.5125,28.1563 Q45.5125,28.5313 45.2469,28.7656 Q44.9813,29 44.3719,29 L39.2313,29 Q38.6219,29 38.3563,28.7656 Q38.0906,28.5313 38.0906,28.1406 Q38.0906,27.7656 38.3563,27.5313 Q38.6219,27.2969 39.2313,27.2969 L40.95,27.2969 L40.95,20.6406 L39.2313,20.6406 Q38.6219,20.6406 38.3563,20.4063 Q38.0906,20.1719 38.0906,19.7813 Q38.0906,19.4063 38.3563,19.1719 Q38.6219,18.9375 39.2313,18.9375 L44.3719,18.9375 Q44.9813,18.9375 45.2469,19.1719 Q45.5125,19.4063 45.5125,19.7813 Q45.5125,20.1719 45.2469,20.4063 Q44.9813,20.6406 44.3719,20.6406 L42.6531,20.6406 Z "/><text fill="#000000" font-family="sans-serif" font-size="12" font-style="italic" lengthAdjust="spacingAndGlyphs" textLength="113" x="60.3" y="28.9102">AdminBeanManager</text><line style="stroke: #A80036; stroke-width: 1.5;" x1="7" x2="196" y1="40" y2="40"/><line style="stroke: #A80036; stroke-width: 1.5;" x1="7" x2="196" y1="48" y2="48"/><ellipse cx="17" cy="60.418" fill="#84BE84" rx="3" ry="3" style="stroke: #038048; stroke-width: 1.0;"/><text fill="#000000" font-family="sans-serif" font-size="11" font-style="italic" lengthAdjust="spacingAndGlyphs" textLength="76" x="26" y="63.4189">initialize(): void</text><ellipse cx="17" cy="74.2539" fill="#84BE84" rx="3" ry="3" style="stroke: #038048; stroke-width: 1.0;"/><text fill="#000000" font-family="sans-serif" font-size="11" font-style="italic" lengthAdjust="spacingAndGlyphs" textLength="159" x="26" y="77.2549">getAllBeans(): List&lt;AdminBean&gt;</text><ellipse cx="17" cy="88.0898" fill="#84BE84" rx="3" ry="3" style="stroke: #038048; stroke-width: 1.0;"/><text fill="#000000" font-family="sans-serif" font-size="11" font-style="italic" lengthAdjust="spacingAndGlyphs" textLength="142" x="26" y="91.0908">findBean(String): AdminBean</text><ellipse cx="17" cy="101.9258" fill="#84BE84" rx="3" ry="3" style="stroke: #038048; stroke-width: 1.0;"/><text fill="#000000" font-family="sans-serif" font-size="11" font-style="italic" lengthAdjust="spacingAndGlyphs" textLength="165" x="26" y="104.9268">actionPerformed(WikiEvent): void</text><ellipse cx="17" cy="115.7617" fill="#84BE84" rx="3" ry="3" style="stroke: #038048; stroke-width: 1.0;"/><text fill="#000000" font-family="sans-serif" font-size="11" font-style="italic" lengthAdjust="spacingAndGlyphs" textLength="149" x="26" y="118.7627">getTypeFromString(String): int</text></a><text fill="#888888" font-family="sans-serif" font-size="10" lengthAdjust="spacingAndGlyphs" textLength="184" x="15.5" y="145.3809">UMLDoclet 1.1.4, PlantUML 1.2019.05</text><!--
@startuml

    interface AdminBeanManager [[AdminBeanManager.html]] {
        {abstract} +initialize(): void
        {abstract} +getAllBeans(): List<AdminBean>
        {abstract} +findBean(String): AdminBean
        {abstract} +actionPerformed(WikiEvent): void
        {abstract} +getTypeFromString(String): int
    }


    center footer UMLDoclet 1.1.4, PlantUML 1.2019.05
@enduml

PlantUML version 1.2019.05(Sat Apr 20 18:45:36 CEST 2019)
(APACHE source distribution)
Java Runtime: OpenJDK Runtime Environment
JVM: OpenJDK 64-Bit Server VM
Java Version: 1.8.0_212-b03
Operating System: Windows 10
OS Version: 10.0
Default Encoding: Cp1252
Language: es
Country: ES
--></g></svg>