<?xml version="1.0" encoding="UTF-8" standalone="no"?><svg xmlns="http://www.w3.org/2000/svg" xmlns:xlink="http://www.w3.org/1999/xlink" contentScriptType="application/ecmascript" contentStyleType="text/css" height="861px" preserveAspectRatio="none" style="width:1151px;height:861px;background:#FFFFFF;" version="1.1" viewBox="0 0 1151 861" width="1151px" zoomAndPan="magnify"><defs><filter height="300%" id="f1aoz9dp0sz3rr" width="300%" x="-1" y="-1"><feGaussianBlur result="blurOut" stdDeviation="2.0"/><feColorMatrix in="blurOut" result="blurOut2" type="matrix" values="0 0 0 0 0 0 0 0 0 0 0 0 0 0 0 0 0 0 .4 0"/><feOffset dx="4.0" dy="4.0" in="blurOut2" result="blurOut3"/><feBlend in="SourceGraphic" in2="blurOut3" mode="normal"/></filter></defs><g><!--MD5=[cefb3735973571d833b3829747bdbe52]
cluster org.apache.wiki.rss--><polygon fill="#FFFFFF" filter="url(#f1aoz9dp0sz3rr)" points="16,133,177,133,184,155.2969,1134,155.2969,1134,838,16,838,16,133" style="stroke:#000000;stroke-width:1.5;"/><line style="stroke:#000000;stroke-width:1.5;" x1="16" x2="184" y1="155.2969" y2="155.2969"/><text fill="#000000" font-family="sans-serif" font-size="14" font-weight="bold" lengthAdjust="spacing" textLength="155" x="20" y="147.9951">org.apache.wiki.rss</text><!--MD5=[06e4b2620a8b168056b961578cd367b2]
cluster org.apache.wiki.api.engine--><polygon fill="#FFFFFF" filter="url(#f1aoz9dp0sz3rr)" points="86,6,304,6,311,28.2969,318,28.2969,318,102,86,102,86,6" style="stroke:#000000;stroke-width:1.5;"/><line style="stroke:#000000;stroke-width:1.5;" x1="86" x2="311" y1="28.2969" y2="28.2969"/><text fill="#000000" font-family="sans-serif" font-size="14" font-weight="bold" lengthAdjust="spacing" textLength="212" x="90" y="20.9951">org.apache.wiki.api.engine</text><!--MD5=[0efc58285ba131b623584699d07d72ab]
cluster org.apache.wiki--><polygon fill="#FFFFFF" filter="url(#f1aoz9dp0sz3rr)" points="463,6,594,6,601,28.2969,655,28.2969,655,102,463,102,463,6" style="stroke:#000000;stroke-width:1.5;"/><line style="stroke:#000000;stroke-width:1.5;" x1="463" x2="601" y1="28.2969" y2="28.2969"/><text fill="#000000" font-family="sans-serif" font-size="14" font-weight="bold" lengthAdjust="spacing" textLength="125" x="467" y="20.9951">org.apache.wiki</text><!--MD5=[d45d98c0f0db0aef2e9fd1bec61bf95e]
class org.apache.wiki.rss.RSS20Feed--><a href="RSS20Feed.html" target="_top" title="RSS20Feed.html" xlink:actuate="onRequest" xlink:href="RSS20Feed.html" xlink:show="new" xlink:title="RSS20Feed.html" xlink:type="simple"><rect codeLine="3" fill="#FEFECE" filter="url(#f1aoz9dp0sz3rr)" height="73.6094" id="org.apache.wiki.rss.RSS20Feed" style="stroke:#A80036;stroke-width:1.5;" width="141" x="984.5" y="705"/><ellipse cx="1016.6" cy="721" fill="#ADD1B2" rx="11" ry="11" style="stroke:#A80036;stroke-width:1.0;"/><path d="M1019.5688,726.6406 Q1018.9906,726.9375 1018.35,727.0781 Q1017.7094,727.2344 1017.0063,727.2344 Q1014.5063,727.2344 1013.1781,725.5938 Q1011.8656,723.9375 1011.8656,720.8125 Q1011.8656,717.6875 1013.1781,716.0313 Q1014.5063,714.375 1017.0063,714.375 Q1017.7094,714.375 1018.35,714.5313 Q1019.0063,714.6875 1019.5688,714.9844 L1019.5688,717.7031 Q1018.9438,717.125 1018.35,716.8594 Q1017.7563,716.5781 1017.1313,716.5781 Q1015.7875,716.5781 1015.1,717.6563 Q1014.4125,718.7188 1014.4125,720.8125 Q1014.4125,722.9063 1015.1,723.9844 Q1015.7875,725.0469 1017.1313,725.0469 Q1017.7563,725.0469 1018.35,724.7813 Q1018.9438,724.5 1019.5688,723.9219 L1019.5688,726.6406 Z " fill="#000000"/><text fill="#000000" font-family="sans-serif" font-size="12" lengthAdjust="spacing" textLength="71" x="1034.4" y="725.1543">RSS20Feed</text><line style="stroke:#A80036;stroke-width:1.5;" x1="985.5" x2="1124.5" y1="737" y2="737"/><line style="stroke:#A80036;stroke-width:1.5;" x1="985.5" x2="1124.5" y1="745" y2="745"/><ellipse cx="995.5" cy="756" fill="#84BE84" rx="3" ry="3" style="stroke:#038048;stroke-width:1.0;"/><text fill="#000000" font-family="sans-serif" font-size="11" lengthAdjust="spacing" textLength="115" x="1004.5" y="759.2104">RSS20Feed(Context)</text><ellipse cx="995.5" cy="768.8047" fill="#84BE84" rx="3" ry="3" style="stroke:#038048;stroke-width:1.0;"/><text fill="#000000" font-family="sans-serif" font-size="11" lengthAdjust="spacing" textLength="102" x="1004.5" y="772.0151">getString(): String</text></a><!--MD5=[162b5f235675b57ed54f918f5239af89]
class org.apache.wiki.rss.Feed--><a href="Feed.html" target="_top" title="Feed.html" xlink:actuate="onRequest" xlink:href="Feed.html" xlink:show="new" xlink:title="Feed.html" xlink:type="simple"><rect codeLine="8" fill="#FEFECE" filter="url(#f1aoz9dp0sz3rr)" height="329.7031" id="org.apache.wiki.rss.Feed" style="stroke:#A80036;stroke-width:1.5;" width="276" x="713" y="172.5"/><ellipse cx="831.25" cy="188.5" fill="#A9DCDF" rx="11" ry="11" style="stroke:#A80036;stroke-width:1.0;"/><path d="M831.3594,183.8438 L830.2031,188.9219 L832.5313,188.9219 L831.3594,183.8438 Z M829.875,181.6094 L832.8594,181.6094 L836.2188,194 L833.7656,194 L833,190.9375 L829.7188,190.9375 L828.9688,194 L826.5313,194 L829.875,181.6094 Z " fill="#000000"/><text fill="#000000" font-family="sans-serif" font-size="12" font-style="italic" lengthAdjust="spacing" textLength="31" x="851.75" y="192.6543">Feed</text><line style="stroke:#A80036;stroke-width:1.5;" x1="714" x2="988" y1="204.5" y2="204.5"/><polygon fill="none" points="724,210.5,728,214.5,724,218.5,720,214.5" style="stroke:#B38D22;stroke-width:1.0;"/><text fill="#000000" font-family="sans-serif" font-size="11" lengthAdjust="spacing" textLength="105" x="733" y="218.7104">m_feedURL: String</text><polygon fill="none" points="724,223.3047,728,227.3047,724,231.3047,720,227.3047" style="stroke:#B38D22;stroke-width:1.0;"/><text fill="#000000" font-family="sans-serif" font-size="11" lengthAdjust="spacing" textLength="127" x="733" y="231.5151">m_channelTitle: String</text><polygon fill="none" points="724,236.1094,728,240.1094,724,244.1094,720,240.1094" style="stroke:#B38D22;stroke-width:1.0;"/><text fill="#000000" font-family="sans-serif" font-size="11" lengthAdjust="spacing" textLength="167" x="733" y="244.3198">m_channelDescription: String</text><polygon fill="none" points="724,248.9141,728,252.9141,724,256.9141,720,252.9141" style="stroke:#B38D22;stroke-width:1.0;"/><text fill="#000000" font-family="sans-serif" font-size="11" lengthAdjust="spacing" textLength="158" x="733" y="257.1245">m_channelLanguage: String</text><polygon fill="none" points="724,261.7188,728,265.7188,724,269.7188,720,265.7188" style="stroke:#B38D22;stroke-width:1.0;"/><text fill="#000000" font-family="sans-serif" font-size="11" lengthAdjust="spacing" textLength="132" x="733" y="269.9292">m_wikiContext: Context</text><polygon fill="none" points="724,274.5234,728,278.5234,724,282.5234,720,278.5234" style="stroke:#B38D22;stroke-width:1.0;"/><text fill="#000000" font-family="sans-serif" font-size="11" lengthAdjust="spacing" textLength="91" x="733" y="282.7339">m_mode: String</text><ellipse cx="724" cy="292.3281" rx="3" ry="3" style="stroke:#038048;stroke-width:1.0;fill:none;"/><text fill="#000000" font-family="sans-serif" font-size="11" lengthAdjust="spacing" text-decoration="underline" textLength="132" x="733" y="295.5386">VAR_BLOGNAME: String</text><line style="stroke:#A80036;stroke-width:1.5;" x1="714" x2="988" y1="302.1328" y2="302.1328"/><ellipse cx="724" cy="313.1328" fill="#84BE84" rx="3" ry="3" style="stroke:#038048;stroke-width:1.0;"/><text fill="#000000" font-family="sans-serif" font-size="11" lengthAdjust="spacing" textLength="78" x="733" y="316.3433">Feed(Context)</text><ellipse cx="724" cy="325.9375" fill="#84BE84" rx="3" ry="3" style="stroke:#038048;stroke-width:1.0;"/><text fill="#000000" font-family="sans-serif" font-size="11" lengthAdjust="spacing" text-decoration="underline" textLength="166" x="733" y="329.1479">getSiteName(Context): String</text><ellipse cx="724" cy="338.7422" fill="#84BE84" rx="3" ry="3" style="stroke:#038048;stroke-width:1.0;"/><text fill="#000000" font-family="sans-serif" font-size="11" lengthAdjust="spacing" textLength="121" x="733" y="341.9526">setMode(String): void</text><ellipse cx="724" cy="351.5469" fill="#84BE84" rx="3" ry="3" style="stroke:#038048;stroke-width:1.0;"/><text fill="#000000" font-family="sans-serif" font-size="11" lengthAdjust="spacing" textLength="118" x="733" y="354.7573">addEntry(Entry): void</text><ellipse cx="724" cy="364.3516" fill="#84BE84" rx="3" ry="3" style="stroke:#038048;stroke-width:1.0;"/><text fill="#000000" font-family="sans-serif" font-size="11" font-style="italic" lengthAdjust="spacing" textLength="100" x="733" y="367.562">getString(): String</text><ellipse cx="724" cy="377.1563" fill="#84BE84" rx="3" ry="3" style="stroke:#038048;stroke-width:1.0;"/><text fill="#000000" font-family="sans-serif" font-size="11" lengthAdjust="spacing" textLength="178" x="733" y="380.3667">getChannelDescription(): String</text><ellipse cx="724" cy="389.9609" fill="#84BE84" rx="3" ry="3" style="stroke:#038048;stroke-width:1.0;"/><text fill="#000000" font-family="sans-serif" font-size="11" lengthAdjust="spacing" textLength="201" x="733" y="393.1714">setChannelDescription(String): void</text><ellipse cx="724" cy="402.7656" fill="#84BE84" rx="3" ry="3" style="stroke:#038048;stroke-width:1.0;"/><text fill="#000000" font-family="sans-serif" font-size="11" lengthAdjust="spacing" textLength="169" x="733" y="405.9761">getChannelLanguage(): String</text><ellipse cx="724" cy="415.5703" fill="#84BE84" rx="3" ry="3" style="stroke:#038048;stroke-width:1.0;"/><text fill="#000000" font-family="sans-serif" font-size="11" lengthAdjust="spacing" textLength="192" x="733" y="418.7808">setChannelLanguage(String): void</text><ellipse cx="724" cy="428.375" fill="#84BE84" rx="3" ry="3" style="stroke:#038048;stroke-width:1.0;"/><text fill="#000000" font-family="sans-serif" font-size="11" lengthAdjust="spacing" textLength="138" x="733" y="431.5854">getChannelTitle(): String</text><ellipse cx="724" cy="441.1797" fill="#84BE84" rx="3" ry="3" style="stroke:#038048;stroke-width:1.0;"/><text fill="#000000" font-family="sans-serif" font-size="11" lengthAdjust="spacing" textLength="161" x="733" y="444.3901">setChannelTitle(String): void</text><ellipse cx="724" cy="453.9844" fill="#84BE84" rx="3" ry="3" style="stroke:#038048;stroke-width:1.0;"/><text fill="#000000" font-family="sans-serif" font-size="11" lengthAdjust="spacing" textLength="116" x="733" y="457.1948">getFeedURL(): String</text><ellipse cx="724" cy="466.7891" fill="#84BE84" rx="3" ry="3" style="stroke:#038048;stroke-width:1.0;"/><text fill="#000000" font-family="sans-serif" font-size="11" lengthAdjust="spacing" textLength="139" x="733" y="469.9995">setFeedURL(String): void</text><polygon fill="#FFFF44" points="724,474.5938,728,478.5938,724,482.5938,720,478.5938" style="stroke:#B38D22;stroke-width:1.0;"/><text fill="#000000" font-family="sans-serif" font-size="11" lengthAdjust="spacing" textLength="250" x="733" y="482.8042">getMimeType(ServletContext, String): String</text><ellipse cx="724" cy="492.3984" fill="#84BE84" rx="3" ry="3" style="stroke:#038048;stroke-width:1.0;"/><text fill="#000000" font-family="sans-serif" font-size="11" lengthAdjust="spacing" text-decoration="underline" textLength="122" x="733" y="495.6089">format(String): String</text></a><!--MD5=[7d5fbccfcb062bdf576b52c940899d16]
class org.apache.wiki.rss.Entry--><a href="Entry.html" target="_top" title="Entry.html" xlink:actuate="onRequest" xlink:href="Entry.html" xlink:show="new" xlink:title="Entry.html" xlink:type="simple"><rect codeLine="33" fill="#FEFECE" filter="url(#f1aoz9dp0sz3rr)" height="176.0469" id="org.apache.wiki.rss.Entry" style="stroke:#A80036;stroke-width:1.5;" width="161" x="414.5" y="654"/><ellipse cx="474.75" cy="670" fill="#ADD1B2" rx="11" ry="11" style="stroke:#A80036;stroke-width:1.0;"/><path d="M477.7188,675.6406 Q477.1406,675.9375 476.5,676.0781 Q475.8594,676.2344 475.1563,676.2344 Q472.6563,676.2344 471.3281,674.5938 Q470.0156,672.9375 470.0156,669.8125 Q470.0156,666.6875 471.3281,665.0313 Q472.6563,663.375 475.1563,663.375 Q475.8594,663.375 476.5,663.5313 Q477.1563,663.6875 477.7188,663.9844 L477.7188,666.7031 Q477.0938,666.125 476.5,665.8594 Q475.9063,665.5781 475.2813,665.5781 Q473.9375,665.5781 473.25,666.6563 Q472.5625,667.7188 472.5625,669.8125 Q472.5625,671.9063 473.25,672.9844 Q473.9375,674.0469 475.2813,674.0469 Q475.9063,674.0469 476.5,673.7813 Q477.0938,673.5 477.7188,672.9219 L477.7188,675.6406 Z " fill="#000000"/><text fill="#000000" font-family="sans-serif" font-size="12" lengthAdjust="spacing" textLength="32" x="495.25" y="674.1543">Entry</text><line style="stroke:#A80036;stroke-width:1.5;" x1="415.5" x2="574.5" y1="686" y2="686"/><line style="stroke:#A80036;stroke-width:1.5;" x1="415.5" x2="574.5" y1="694" y2="694"/><ellipse cx="425.5" cy="705" fill="#84BE84" rx="3" ry="3" style="stroke:#038048;stroke-width:1.0;"/><text fill="#000000" font-family="sans-serif" font-size="11" lengthAdjust="spacing" textLength="128" x="434.5" y="708.2104">setAuthor(String): void</text><ellipse cx="425.5" cy="717.8047" fill="#84BE84" rx="3" ry="3" style="stroke:#038048;stroke-width:1.0;"/><text fill="#000000" font-family="sans-serif" font-size="11" lengthAdjust="spacing" textLength="105" x="434.5" y="721.0151">getAuthor(): String</text><ellipse cx="425.5" cy="730.6094" fill="#84BE84" rx="3" ry="3" style="stroke:#038048;stroke-width:1.0;"/><text fill="#000000" font-family="sans-serif" font-size="11" lengthAdjust="spacing" textLength="90" x="434.5" y="733.8198">getPage(): Page</text><ellipse cx="425.5" cy="743.4141" fill="#84BE84" rx="3" ry="3" style="stroke:#038048;stroke-width:1.0;"/><text fill="#000000" font-family="sans-serif" font-size="11" lengthAdjust="spacing" textLength="113" x="434.5" y="746.6245">setPage(Page): void</text><ellipse cx="425.5" cy="756.2188" fill="#84BE84" rx="3" ry="3" style="stroke:#038048;stroke-width:1.0;"/><text fill="#000000" font-family="sans-serif" font-size="11" lengthAdjust="spacing" textLength="115" x="434.5" y="759.4292">setTitle(String): void</text><ellipse cx="425.5" cy="769.0234" fill="#84BE84" rx="3" ry="3" style="stroke:#038048;stroke-width:1.0;"/><text fill="#000000" font-family="sans-serif" font-size="11" lengthAdjust="spacing" textLength="92" x="434.5" y="772.2339">getTitle(): String</text><ellipse cx="425.5" cy="781.8281" fill="#84BE84" rx="3" ry="3" style="stroke:#038048;stroke-width:1.0;"/><text fill="#000000" font-family="sans-serif" font-size="11" lengthAdjust="spacing" textLength="112" x="434.5" y="785.0386">setURL(String): void</text><ellipse cx="425.5" cy="794.6328" fill="#84BE84" rx="3" ry="3" style="stroke:#038048;stroke-width:1.0;"/><text fill="#000000" font-family="sans-serif" font-size="11" lengthAdjust="spacing" textLength="89" x="434.5" y="797.8433">getURL(): String</text><ellipse cx="425.5" cy="807.4375" fill="#84BE84" rx="3" ry="3" style="stroke:#038048;stroke-width:1.0;"/><text fill="#000000" font-family="sans-serif" font-size="11" lengthAdjust="spacing" textLength="135" x="434.5" y="810.6479">setContent(String): void</text><ellipse cx="425.5" cy="820.2422" fill="#84BE84" rx="3" ry="3" style="stroke:#038048;stroke-width:1.0;"/><text fill="#000000" font-family="sans-serif" font-size="11" lengthAdjust="spacing" textLength="112" x="434.5" y="823.4526">getContent(): String</text></a><!--MD5=[af565d3f47da3ede56dab86a7c170b4d]
class org.apache.wiki.rss.RSSGenerator--><a href="RSSGenerator.html" target="_top" title="RSSGenerator.html" xlink:actuate="onRequest" xlink:href="RSSGenerator.html" xlink:show="new" xlink:title="RSSGenerator.html" xlink:type="simple"><rect codeLine="46" fill="#FEFECE" filter="url(#f1aoz9dp0sz3rr)" height="355.3125" id="org.apache.wiki.rss.RSSGenerator" style="stroke:#A80036;stroke-width:1.5;" width="352" x="26" y="160"/><ellipse cx="153.75" cy="176" fill="#B4A7E5" rx="11" ry="11" style="stroke:#A80036;stroke-width:1.0;"/><path d="M149.6719,171.7656 L149.6719,169.6094 L157.0625,169.6094 L157.0625,171.7656 L154.5938,171.7656 L154.5938,179.8438 L157.0625,179.8438 L157.0625,182 L149.6719,182 L149.6719,179.8438 L152.1406,179.8438 L152.1406,171.7656 L149.6719,171.7656 Z " fill="#000000"/><text fill="#000000" font-family="sans-serif" font-size="12" font-style="italic" lengthAdjust="spacing" textLength="88" x="174.25" y="180.1543">RSSGenerator</text><line style="stroke:#A80036;stroke-width:1.5;" x1="27" x2="377" y1="192" y2="192"/><ellipse cx="37" cy="203" rx="3" ry="3" style="stroke:#038048;stroke-width:1.0;fill:none;"/><text fill="#000000" font-family="sans-serif" font-size="11" lengthAdjust="spacing" text-decoration="underline" textLength="79" x="46" y="206.2104">RSS10: String</text><ellipse cx="37" cy="215.8047" rx="3" ry="3" style="stroke:#038048;stroke-width:1.0;fill:none;"/><text fill="#000000" font-family="sans-serif" font-size="11" lengthAdjust="spacing" text-decoration="underline" textLength="79" x="46" y="219.0151">RSS20: String</text><ellipse cx="37" cy="228.6094" rx="3" ry="3" style="stroke:#038048;stroke-width:1.0;fill:none;"/><text fill="#000000" font-family="sans-serif" font-size="11" lengthAdjust="spacing" text-decoration="underline" textLength="74" x="46" y="231.8198">ATOM: String</text><ellipse cx="37" cy="241.4141" rx="3" ry="3" style="stroke:#038048;stroke-width:1.0;fill:none;"/><text fill="#000000" font-family="sans-serif" font-size="11" lengthAdjust="spacing" text-decoration="underline" textLength="113" x="46" y="244.6245">MODE_BLOG: String</text><ellipse cx="37" cy="254.2188" rx="3" ry="3" style="stroke:#038048;stroke-width:1.0;fill:none;"/><text fill="#000000" font-family="sans-serif" font-size="11" lengthAdjust="spacing" text-decoration="underline" textLength="103" x="46" y="257.4292">MODE_WIKI: String</text><ellipse cx="37" cy="267.0234" rx="3" ry="3" style="stroke:#038048;stroke-width:1.0;fill:none;"/><text fill="#000000" font-family="sans-serif" font-size="11" lengthAdjust="spacing" text-decoration="underline" textLength="107" x="46" y="270.2339">MODE_FULL: String</text><ellipse cx="37" cy="279.8281" rx="3" ry="3" style="stroke:#038048;stroke-width:1.0;fill:none;"/><text fill="#000000" font-family="sans-serif" font-size="11" lengthAdjust="spacing" text-decoration="underline" textLength="211" x="46" y="283.0386">PROP_CHANNEL_DESCRIPTION: String</text><ellipse cx="37" cy="292.6328" rx="3" ry="3" style="stroke:#038048;stroke-width:1.0;fill:none;"/><text fill="#000000" font-family="sans-serif" font-size="11" lengthAdjust="spacing" text-decoration="underline" textLength="197" x="46" y="295.8433">PROP_CHANNEL_LANGUAGE: String</text><ellipse cx="37" cy="305.4375" rx="3" ry="3" style="stroke:#038048;stroke-width:1.0;fill:none;"/><text fill="#000000" font-family="sans-serif" font-size="11" lengthAdjust="spacing" text-decoration="underline" textLength="166" x="46" y="308.6479">PROP_CHANNEL_TITLE: String</text><ellipse cx="37" cy="318.2422" rx="3" ry="3" style="stroke:#038048;stroke-width:1.0;fill:none;"/><text fill="#000000" font-family="sans-serif" font-size="11" lengthAdjust="spacing" text-decoration="underline" textLength="166" x="46" y="321.4526">PROP_GENERATE_RSS: String</text><ellipse cx="37" cy="331.0469" rx="3" ry="3" style="stroke:#038048;stroke-width:1.0;fill:none;"/><text fill="#000000" font-family="sans-serif" font-size="11" lengthAdjust="spacing" text-decoration="underline" textLength="123" x="46" y="334.2573">PROP_RSSFILE: String</text><ellipse cx="37" cy="343.8516" rx="3" ry="3" style="stroke:#038048;stroke-width:1.0;fill:none;"/><text fill="#000000" font-family="sans-serif" font-size="11" lengthAdjust="spacing" text-decoration="underline" textLength="130" x="46" y="347.062">PROP_INTERVAL: String</text><ellipse cx="37" cy="356.6563" rx="3" ry="3" style="stroke:#038048;stroke-width:1.0;fill:none;"/><text fill="#000000" font-family="sans-serif" font-size="11" lengthAdjust="spacing" text-decoration="underline" textLength="153" x="46" y="359.8667">PROP_RSS_AUTHOR: String</text><ellipse cx="37" cy="369.4609" rx="3" ry="3" style="stroke:#038048;stroke-width:1.0;fill:none;"/><text fill="#000000" font-family="sans-serif" font-size="11" lengthAdjust="spacing" text-decoration="underline" textLength="185" x="46" y="372.6714">PROP_RSS_AUTHOREMAIL: String</text><line style="stroke:#A80036;stroke-width:1.5;" x1="27" x2="377" y1="379.2656" y2="379.2656"/><ellipse cx="37" cy="390.2656" fill="#84BE84" rx="3" ry="3" style="stroke:#038048;stroke-width:1.0;"/><text fill="#000000" font-family="sans-serif" font-size="11" font-style="italic" lengthAdjust="spacing" textLength="100" x="46" y="393.4761">generate(): String</text><ellipse cx="37" cy="403.0703" fill="#84BE84" rx="3" ry="3" style="stroke:#038048;stroke-width:1.0;"/><text fill="#000000" font-family="sans-serif" font-size="11" font-style="italic" lengthAdjust="spacing" textLength="326" x="46" y="406.2808">generateFeed(Context, List&lt;Page&gt;, String, String): String</text><ellipse cx="37" cy="415.875" fill="#84BE84" rx="3" ry="3" style="stroke:#038048;stroke-width:1.0;"/><text fill="#000000" font-family="sans-serif" font-size="11" font-style="italic" lengthAdjust="spacing" textLength="115" x="46" y="419.0854">isEnabled(): boolean</text><ellipse cx="37" cy="428.6797" fill="#84BE84" rx="3" ry="3" style="stroke:#038048;stroke-width:1.0;"/><text fill="#000000" font-family="sans-serif" font-size="11" font-style="italic" lengthAdjust="spacing" textLength="147" x="46" y="431.8901">setEnabled(boolean): void</text><ellipse cx="37" cy="441.4844" fill="#84BE84" rx="3" ry="3" style="stroke:#038048;stroke-width:1.0;"/><text fill="#000000" font-family="sans-serif" font-size="11" font-style="italic" lengthAdjust="spacing" textLength="106" x="46" y="444.6948">getRssFile(): String</text><ellipse cx="37" cy="454.2891" fill="#84BE84" rx="3" ry="3" style="stroke:#038048;stroke-width:1.0;"/><text fill="#000000" font-family="sans-serif" font-size="11" font-style="italic" lengthAdjust="spacing" textLength="243" x="46" y="457.4995">generateFullWikiRSS(Context, Feed): String</text><ellipse cx="37" cy="467.0938" fill="#84BE84" rx="3" ry="3" style="stroke:#038048;stroke-width:1.0;"/><text fill="#000000" font-family="sans-serif" font-size="11" font-style="italic" lengthAdjust="spacing" textLength="325" x="46" y="470.3042">generateWikiPageRSS(Context, List&lt;Page&gt;, Feed): String</text><ellipse cx="37" cy="479.8984" fill="#84BE84" rx="3" ry="3" style="stroke:#038048;stroke-width:1.0;"/><text fill="#000000" font-family="sans-serif" font-size="11" font-style="italic" lengthAdjust="spacing" textLength="299" x="46" y="483.1089">generateBlogRSS(Context, List&lt;Page&gt;, Feed): String</text><ellipse cx="37" cy="492.7031" fill="#84BE84" rx="3" ry="3" style="stroke:#038048;stroke-width:1.0;"/><text fill="#000000" font-family="sans-serif" font-size="11" lengthAdjust="spacing" text-decoration="underline" textLength="122" x="46" y="495.9136">format(String): String</text><ellipse cx="37" cy="505.5078" fill="#84BE84" rx="3" ry="3" style="stroke:#038048;stroke-width:1.0;"/><text fill="#000000" font-family="sans-serif" font-size="11" lengthAdjust="spacing" text-decoration="underline" textLength="173" x="46" y="508.7183">getContentType(String): String</text></a><!--MD5=[d36d8d6ffe1c01a82a34749470ee719f]
class org.apache.wiki.rss.RSSThread--><a href="RSSThread.html" target="_top" title="RSSThread.html" xlink:actuate="onRequest" xlink:href="RSSThread.html" xlink:show="new" xlink:title="RSSThread.html" xlink:type="simple"><rect codeLine="73" fill="#FEFECE" filter="url(#f1aoz9dp0sz3rr)" height="86.4141" id="org.apache.wiki.rss.RSSThread" style="stroke:#A80036;stroke-width:1.5;" width="184" x="467" y="294.5"/><ellipse cx="520.75" cy="310.5" fill="#ADD1B2" rx="11" ry="11" style="stroke:#A80036;stroke-width:1.0;"/><path d="M523.7188,316.1406 Q523.1406,316.4375 522.5,316.5781 Q521.8594,316.7344 521.1563,316.7344 Q518.6563,316.7344 517.3281,315.0938 Q516.0156,313.4375 516.0156,310.3125 Q516.0156,307.1875 517.3281,305.5313 Q518.6563,303.875 521.1563,303.875 Q521.8594,303.875 522.5,304.0313 Q523.1563,304.1875 523.7188,304.4844 L523.7188,307.2031 Q523.0938,306.625 522.5,306.3594 Q521.9063,306.0781 521.2813,306.0781 Q519.9375,306.0781 519.25,307.1563 Q518.5625,308.2188 518.5625,310.3125 Q518.5625,312.4063 519.25,313.4844 Q519.9375,314.5469 521.2813,314.5469 Q521.9063,314.5469 522.5,314.2813 Q523.0938,314 523.7188,313.4219 L523.7188,316.1406 Z " fill="#000000"/><text fill="#000000" font-family="sans-serif" font-size="12" lengthAdjust="spacing" textLength="68" x="541.25" y="314.6543">RSSThread</text><line style="stroke:#A80036;stroke-width:1.5;" x1="468" x2="650" y1="326.5" y2="326.5"/><line style="stroke:#A80036;stroke-width:1.5;" x1="468" x2="650" y1="334.5" y2="334.5"/><ellipse cx="478" cy="345.5" fill="#84BE84" rx="3" ry="3" style="stroke:#038048;stroke-width:1.0;"/><text fill="#000000" font-family="sans-serif" font-size="11" lengthAdjust="spacing" textLength="158" x="487" y="348.7104">RSSThread(Engine, File, int)</text><ellipse cx="478" cy="358.3047" fill="#84BE84" rx="3" ry="3" style="stroke:#038048;stroke-width:1.0;"/><text fill="#000000" font-family="sans-serif" font-size="11" lengthAdjust="spacing" textLength="107" x="487" y="361.5151">startupTask(): void</text><ellipse cx="478" cy="371.1094" fill="#84BE84" rx="3" ry="3" style="stroke:#038048;stroke-width:1.0;"/><text fill="#000000" font-family="sans-serif" font-size="11" lengthAdjust="spacing" textLength="132" x="487" y="374.3198">backgroundTask(): void</text></a><!--MD5=[dabbab17409e2d3abae6376238320a84]
class org.apache.wiki.rss.AtomFeed--><a href="AtomFeed.html" target="_top" title="AtomFeed.html" xlink:actuate="onRequest" xlink:href="AtomFeed.html" xlink:show="new" xlink:title="AtomFeed.html" xlink:type="simple"><rect codeLine="79" fill="#FEFECE" filter="url(#f1aoz9dp0sz3rr)" height="86.4141" id="org.apache.wiki.rss.AtomFeed" style="stroke:#A80036;stroke-width:1.5;" width="162" x="611" y="699"/><ellipse cx="656.25" cy="715" fill="#ADD1B2" rx="11" ry="11" style="stroke:#A80036;stroke-width:1.0;"/><path d="M659.2188,720.6406 Q658.6406,720.9375 658,721.0781 Q657.3594,721.2344 656.6563,721.2344 Q654.1563,721.2344 652.8281,719.5938 Q651.5156,717.9375 651.5156,714.8125 Q651.5156,711.6875 652.8281,710.0313 Q654.1563,708.375 656.6563,708.375 Q657.3594,708.375 658,708.5313 Q658.6563,708.6875 659.2188,708.9844 L659.2188,711.7031 Q658.5938,711.125 658,710.8594 Q657.4063,710.5781 656.7813,710.5781 Q655.4375,710.5781 654.75,711.6563 Q654.0625,712.7188 654.0625,714.8125 Q654.0625,716.9063 654.75,717.9844 Q655.4375,719.0469 656.7813,719.0469 Q657.4063,719.0469 658,718.7813 Q658.5938,718.5 659.2188,717.9219 L659.2188,720.6406 Z " fill="#000000"/><text fill="#000000" font-family="sans-serif" font-size="12" lengthAdjust="spacing" textLength="63" x="676.75" y="719.1543">AtomFeed</text><line style="stroke:#A80036;stroke-width:1.5;" x1="612" x2="772" y1="731" y2="731"/><ellipse cx="622" cy="742" rx="3" ry="3" style="stroke:#038048;stroke-width:1.0;fill:none;"/><text fill="#000000" font-family="sans-serif" font-size="11" lengthAdjust="spacing" text-decoration="underline" textLength="136" x="631" y="745.2104">RFC3339FORMAT: String</text><line style="stroke:#A80036;stroke-width:1.5;" x1="612" x2="772" y1="751.8047" y2="751.8047"/><ellipse cx="622" cy="762.8047" fill="#84BE84" rx="3" ry="3" style="stroke:#038048;stroke-width:1.0;"/><text fill="#000000" font-family="sans-serif" font-size="11" lengthAdjust="spacing" textLength="107" x="631" y="766.0151">AtomFeed(Context)</text><ellipse cx="622" cy="775.6094" fill="#84BE84" rx="3" ry="3" style="stroke:#038048;stroke-width:1.0;"/><text fill="#000000" font-family="sans-serif" font-size="11" lengthAdjust="spacing" textLength="102" x="631" y="778.8198">getString(): String</text></a><!--MD5=[84cc67b1895f981e035e94563bf6fa31]
class org.apache.wiki.rss.DefaultRSSGenerator--><a href="DefaultRSSGenerator.html" target="_top" title="DefaultRSSGenerator.html" xlink:actuate="onRequest" xlink:href="DefaultRSSGenerator.html" xlink:show="new" xlink:title="DefaultRSSGenerator.html" xlink:type="simple"><rect codeLine="85" fill="#FEFECE" filter="url(#f1aoz9dp0sz3rr)" height="176.0469" id="org.apache.wiki.rss.DefaultRSSGenerator" style="stroke:#A80036;stroke-width:1.5;" width="355" x="24.5" y="654"/><ellipse cx="131.25" cy="670" fill="#ADD1B2" rx="11" ry="11" style="stroke:#A80036;stroke-width:1.0;"/><path d="M134.2188,675.6406 Q133.6406,675.9375 133,676.0781 Q132.3594,676.2344 131.6563,676.2344 Q129.1563,676.2344 127.8281,674.5938 Q126.5156,672.9375 126.5156,669.8125 Q126.5156,666.6875 127.8281,665.0313 Q129.1563,663.375 131.6563,663.375 Q132.3594,663.375 133,663.5313 Q133.6563,663.6875 134.2188,663.9844 L134.2188,666.7031 Q133.5938,666.125 133,665.8594 Q132.4063,665.5781 131.7813,665.5781 Q130.4375,665.5781 129.75,666.6563 Q129.0625,667.7188 129.0625,669.8125 Q129.0625,671.9063 129.75,672.9844 Q130.4375,674.0469 131.7813,674.0469 Q132.4063,674.0469 133,673.7813 Q133.5938,673.5 134.2188,672.9219 L134.2188,675.6406 Z " fill="#000000"/><text fill="#000000" font-family="sans-serif" font-size="12" lengthAdjust="spacing" textLength="133" x="151.75" y="674.1543">DefaultRSSGenerator</text><line style="stroke:#A80036;stroke-width:1.5;" x1="25.5" x2="378.5" y1="686" y2="686"/><line style="stroke:#A80036;stroke-width:1.5;" x1="25.5" x2="378.5" y1="694" y2="694"/><ellipse cx="35.5" cy="705" fill="#84BE84" rx="3" ry="3" style="stroke:#038048;stroke-width:1.0;"/><text fill="#000000" font-family="sans-serif" font-size="11" lengthAdjust="spacing" textLength="234" x="44.5" y="708.2104">DefaultRSSGenerator(Engine, Properties)</text><ellipse cx="35.5" cy="717.8047" fill="#84BE84" rx="3" ry="3" style="stroke:#038048;stroke-width:1.0;"/><text fill="#000000" font-family="sans-serif" font-size="11" lengthAdjust="spacing" textLength="189" x="44.5" y="721.0151">initialize(Engine, Properties): void</text><ellipse cx="35.5" cy="730.6094" fill="#84BE84" rx="3" ry="3" style="stroke:#038048;stroke-width:1.0;"/><text fill="#000000" font-family="sans-serif" font-size="11" lengthAdjust="spacing" textLength="101" x="44.5" y="733.8198">generate(): String</text><ellipse cx="35.5" cy="743.4141" fill="#84BE84" rx="3" ry="3" style="stroke:#038048;stroke-width:1.0;"/><text fill="#000000" font-family="sans-serif" font-size="11" lengthAdjust="spacing" textLength="329" x="44.5" y="746.6245">generateFeed(Context, List&lt;Page&gt;, String, String): String</text><ellipse cx="35.5" cy="756.2188" fill="#84BE84" rx="3" ry="3" style="stroke:#038048;stroke-width:1.0;"/><text fill="#000000" font-family="sans-serif" font-size="11" lengthAdjust="spacing" textLength="116" x="44.5" y="759.4292">isEnabled(): boolean</text><ellipse cx="35.5" cy="769.0234" fill="#84BE84" rx="3" ry="3" style="stroke:#038048;stroke-width:1.0;"/><text fill="#000000" font-family="sans-serif" font-size="11" lengthAdjust="spacing" textLength="147" x="44.5" y="772.2339">setEnabled(boolean): void</text><ellipse cx="35.5" cy="781.8281" fill="#84BE84" rx="3" ry="3" style="stroke:#038048;stroke-width:1.0;"/><text fill="#000000" font-family="sans-serif" font-size="11" lengthAdjust="spacing" textLength="108" x="44.5" y="785.0386">getRssFile(): String</text><ellipse cx="35.5" cy="794.6328" fill="#84BE84" rx="3" ry="3" style="stroke:#038048;stroke-width:1.0;"/><text fill="#000000" font-family="sans-serif" font-size="11" lengthAdjust="spacing" textLength="242" x="44.5" y="797.8433">generateFullWikiRSS(Context, Feed): String</text><ellipse cx="35.5" cy="807.4375" fill="#84BE84" rx="3" ry="3" style="stroke:#038048;stroke-width:1.0;"/><text fill="#000000" font-family="sans-serif" font-size="11" lengthAdjust="spacing" textLength="325" x="44.5" y="810.6479">generateWikiPageRSS(Context, List&lt;Page&gt;, Feed): String</text><ellipse cx="35.5" cy="820.2422" fill="#84BE84" rx="3" ry="3" style="stroke:#038048;stroke-width:1.0;"/><text fill="#000000" font-family="sans-serif" font-size="11" lengthAdjust="spacing" textLength="301" x="44.5" y="823.4526">generateBlogRSS(Context, List&lt;Page&gt;, Feed): String</text></a><!--MD5=[31504a94879cf9d7139415fdc0fbf03c]
class org.apache.wiki.rss.RSS10Feed--><a href="RSS10Feed.html" target="_top" title="RSS10Feed.html" xlink:actuate="onRequest" xlink:href="RSS10Feed.html" xlink:show="new" xlink:title="RSS10Feed.html" xlink:type="simple"><rect codeLine="98" fill="#FEFECE" filter="url(#f1aoz9dp0sz3rr)" height="73.6094" id="org.apache.wiki.rss.RSS10Feed" style="stroke:#A80036;stroke-width:1.5;" width="141" x="808.5" y="705"/><ellipse cx="840.6" cy="721" fill="#ADD1B2" rx="11" ry="11" style="stroke:#A80036;stroke-width:1.0;"/><path d="M843.5688,726.6406 Q842.9906,726.9375 842.35,727.0781 Q841.7094,727.2344 841.0063,727.2344 Q838.5063,727.2344 837.1781,725.5938 Q835.8656,723.9375 835.8656,720.8125 Q835.8656,717.6875 837.1781,716.0313 Q838.5063,714.375 841.0063,714.375 Q841.7094,714.375 842.35,714.5313 Q843.0063,714.6875 843.5688,714.9844 L843.5688,717.7031 Q842.9438,717.125 842.35,716.8594 Q841.7563,716.5781 841.1313,716.5781 Q839.7875,716.5781 839.1,717.6563 Q838.4125,718.7188 838.4125,720.8125 Q838.4125,722.9063 839.1,723.9844 Q839.7875,725.0469 841.1313,725.0469 Q841.7563,725.0469 842.35,724.7813 Q842.9438,724.5 843.5688,723.9219 L843.5688,726.6406 Z " fill="#000000"/><text fill="#000000" font-family="sans-serif" font-size="12" lengthAdjust="spacing" textLength="71" x="858.4" y="725.1543">RSS10Feed</text><line style="stroke:#A80036;stroke-width:1.5;" x1="809.5" x2="948.5" y1="737" y2="737"/><line style="stroke:#A80036;stroke-width:1.5;" x1="809.5" x2="948.5" y1="745" y2="745"/><ellipse cx="819.5" cy="756" fill="#84BE84" rx="3" ry="3" style="stroke:#038048;stroke-width:1.0;"/><text fill="#000000" font-family="sans-serif" font-size="11" lengthAdjust="spacing" textLength="115" x="828.5" y="759.2104">RSS10Feed(Context)</text><ellipse cx="819.5" cy="768.8047" fill="#84BE84" rx="3" ry="3" style="stroke:#038048;stroke-width:1.0;"/><text fill="#000000" font-family="sans-serif" font-size="11" lengthAdjust="spacing" textLength="102" x="828.5" y="772.0151">getString(): String</text></a><!--MD5=[b42cfcd16e39a0fd6a37261d508d7333]
class org.apache.wiki.api.engine.Initializable--><a href="../api/engine/Initializable.html" target="_top" title="../api/engine/Initializable.html" xlink:actuate="onRequest" xlink:href="../api/engine/Initializable.html" xlink:show="new" xlink:title="../api/engine/Initializable.html" xlink:type="simple"><rect codeLine="113" fill="#FEFECE" filter="url(#f1aoz9dp0sz3rr)" height="60.8047" id="org.apache.wiki.api.engine.Initializable" style="stroke:#A80036;stroke-width:1.5;" width="216" x="94" y="33"/><ellipse cx="162.75" cy="49" fill="#B4A7E5" rx="11" ry="11" style="stroke:#A80036;stroke-width:1.0;"/><path d="M158.6719,44.7656 L158.6719,42.6094 L166.0625,42.6094 L166.0625,44.7656 L163.5938,44.7656 L163.5938,52.8438 L166.0625,52.8438 L166.0625,55 L158.6719,55 L158.6719,52.8438 L161.1406,52.8438 L161.1406,44.7656 L158.6719,44.7656 Z " fill="#000000"/><text fill="#000000" font-family="sans-serif" font-size="12" font-style="italic" lengthAdjust="spacing" textLength="70" x="183.25" y="53.1543">Initializable</text><line style="stroke:#A80036;stroke-width:1.5;" x1="95" x2="309" y1="65" y2="65"/><line style="stroke:#A80036;stroke-width:1.5;" x1="95" x2="309" y1="73" y2="73"/><ellipse cx="105" cy="84" fill="#84BE84" rx="3" ry="3" style="stroke:#038048;stroke-width:1.0;"/><text fill="#000000" font-family="sans-serif" font-size="11" font-style="italic" lengthAdjust="spacing" textLength="190" x="114" y="87.2104">initialize(Engine, Properties): void</text></a><!--MD5=[66b4360082e1a13d0f52b45667453058]
class org.apache.wiki.WikiBackgroundThread--><a href="../WikiBackgroundThread.html" target="_top" title="../WikiBackgroundThread.html" xlink:actuate="onRequest" xlink:href="../WikiBackgroundThread.html" xlink:show="new" xlink:title="../WikiBackgroundThread.html" xlink:type="simple"><rect codeLine="119" fill="#FEFECE" filter="url(#f1aoz9dp0sz3rr)" height="60.8047" id="org.apache.wiki.WikiBackgroundThread" style="stroke:#A80036;stroke-width:1.5;" width="176" x="471" y="33"/><ellipse cx="486" cy="49" fill="#A9DCDF" rx="11" ry="11" style="stroke:#A80036;stroke-width:1.0;"/><path d="M486.1094,44.3438 L484.9531,49.4219 L487.2813,49.4219 L486.1094,44.3438 Z M484.625,42.1094 L487.6094,42.1094 L490.9688,54.5 L488.5156,54.5 L487.75,51.4375 L484.4688,51.4375 L483.7188,54.5 L481.2813,54.5 L484.625,42.1094 Z " fill="#000000"/><text fill="#000000" font-family="sans-serif" font-size="12" font-style="italic" lengthAdjust="spacing" textLength="144" x="500" y="53.1543">WikiBackgroundThread</text><line style="stroke:#A80036;stroke-width:1.5;" x1="472" x2="646" y1="65" y2="65"/><line style="stroke:#A80036;stroke-width:1.5;" x1="472" x2="646" y1="73" y2="73"/><ellipse cx="482" cy="84" fill="#84BE84" rx="3" ry="3" style="stroke:#038048;stroke-width:1.0;"/><text fill="#000000" font-family="sans-serif" font-size="11" font-style="italic" lengthAdjust="spacing" textLength="132" x="491" y="87.2104">backgroundTask(): void</text></a><!--MD5=[229092be556e41e68a1aac50860c7609]
reverse link org.apache.wiki.rss.Feed to org.apache.wiki.rss.RSS20Feed--><path codeLine="103" d="M943.3507,520.617 C978.3024,589.9207 1014.7789,662.2478 1036.1664,704.6558 " fill="none" id="org.apache.wiki.rss.Feed-backto-org.apache.wiki.rss.RSS20Feed" style="stroke:#A80036;stroke-width:1.0;"/><polygon fill="none" points="937.0248,523.6187,934.2688,502.609,949.5251,517.3145,937.0248,523.6187" style="stroke:#A80036;stroke-width:1.0;"/><!--MD5=[def8e3fceccf0eb80a6a0f6ddec64389]
link org.apache.wiki.rss.Feed to org.apache.wiki.rss.Entry--><path codeLine="104" d="M712.8516,494.4692 C666.5614,547.0657 616.481,603.9689 576.0221,649.9398 " fill="none" id="org.apache.wiki.rss.Feed-to-org.apache.wiki.rss.Entry" style="stroke:#A80036;stroke-width:1.0;"/><polygon fill="#A80036" points="572.633,653.7906,581.5818,649.6772,575.9364,650.0372,575.5764,644.3918,572.633,653.7906" style="stroke:#A80036;stroke-width:1.0;"/><text fill="#000000" font-family="sans-serif" font-size="13" lengthAdjust="spacing" textLength="64" x="641" y="589.0669">m_entries</text><text fill="#000000" font-family="sans-serif" font-size="13" lengthAdjust="spacing" textLength="7" x="571.7721" y="642.9351">*</text><!--MD5=[f6d09d6ea70772e41ecae64152889d60]
reverse link org.apache.wiki.api.engine.Initializable to org.apache.wiki.rss.RSSGenerator--><path codeLine="105" d="M202,114.4118 C202,128.0144 202,143.5208 202,159.8764 " fill="none" id="org.apache.wiki.api.engine.Initializable-backto-org.apache.wiki.rss.RSSGenerator" style="stroke:#A80036;stroke-width:1.0;"/><polygon fill="none" points="195.0001,114.1338,202,94.1337,209.0001,114.1337,195.0001,114.1338" style="stroke:#A80036;stroke-width:1.0;"/><!--MD5=[2d208e75d3fa8aca4970939eb76dad7e]
reverse link org.apache.wiki.WikiBackgroundThread to org.apache.wiki.rss.RSSThread--><path codeLine="106" d="M559,114.4276 C559,166.0948 559,245.2147 559,294.0265 " fill="none" id="org.apache.wiki.WikiBackgroundThread-backto-org.apache.wiki.rss.RSSThread" style="stroke:#A80036;stroke-width:1.0;"/><polygon fill="none" points="552.0001,114.1338,559,94.1337,566.0001,114.1337,552.0001,114.1338" style="stroke:#A80036;stroke-width:1.0;"/><!--MD5=[c14a4846d51cfe4f13d1494e906e6372]
reverse link org.apache.wiki.rss.Feed to org.apache.wiki.rss.AtomFeed--><path codeLine="107" d="M778.6472,521.5674 C752.7357,587.4869 725.8032,656.0037 708.9802,698.802 " fill="none" id="org.apache.wiki.rss.Feed-backto-org.apache.wiki.rss.AtomFeed" style="stroke:#A80036;stroke-width:1.0;"/><polygon fill="none" points="772.2678,518.6619,786.0993,502.609,785.2974,523.7835,772.2678,518.6619" style="stroke:#A80036;stroke-width:1.0;"/><!--MD5=[222abc3ffba691eeb446dfd28b102717]
reverse link org.apache.wiki.rss.RSSGenerator to org.apache.wiki.rss.DefaultRSSGenerator--><path codeLine="108" d="M202,535.2797 C202,576.9262 202,618.8256 202,653.9098 " fill="none" id="org.apache.wiki.rss.RSSGenerator-backto-org.apache.wiki.rss.DefaultRSSGenerator" style="stroke:#A80036;stroke-width:1.0;stroke-dasharray:7.0,7.0;"/><polygon fill="none" points="195.0001,535.2139,202,515.2139,209.0001,535.2139,195.0001,535.2139" style="stroke:#A80036;stroke-width:1.0;"/><!--MD5=[85c9beffd3609efaeb74103baaac4be8]
reverse link org.apache.wiki.rss.Feed to org.apache.wiki.rss.RSS10Feed--><path codeLine="109" d="M863.8284,522.8251 C868.5789,591.4529 873.5106,662.698 876.415,704.6558 " fill="none" id="org.apache.wiki.rss.Feed-backto-org.apache.wiki.rss.RSS10Feed" style="stroke:#A80036;stroke-width:1.0;"/><polygon fill="none" points="856.827,523.0447,862.4291,502.609,870.7936,522.0779,856.827,523.0447" style="stroke:#A80036;stroke-width:1.0;"/><text fill="#888888" font-family="sans-serif" font-size="10" lengthAdjust="spacing" textLength="192" x="473" y="853.2822">UMLDoclet 2.0.15, PlantUML 1.2021.13</text><!--MD5=[80309b53a61aa881d00bb31bb9591088]
@startuml
    namespace org.apache.wiki.rss {

        class RSS20Feed [[RSS20Feed.html]] {
            +RSS20Feed(Context)
            +getString(): String
        }

        abstract class Feed [[Feed.html]] {
            #m_feedURL: String
            #m_channelTitle: String
            #m_channelDescription: String
            #m_channelLanguage: String
            #m_wikiContext: Context
            #m_mode: String
            {static} +VAR_BLOGNAME: String
            +Feed(Context)
            {static} +getSiteName(Context): String
            +setMode(String): void
            +addEntry(Entry): void
            {abstract} +getString(): String
            +getChannelDescription(): String
            +setChannelDescription(String): void
            +getChannelLanguage(): String
            +setChannelLanguage(String): void
            +getChannelTitle(): String
            +setChannelTitle(String): void
            +getFeedURL(): String
            +setFeedURL(String): void
            #getMimeType(ServletContext, String): String
            {static} +format(String): String
        }

        class Entry [[Entry.html]] {
            +setAuthor(String): void
            +getAuthor(): String
            +getPage(): Page
            +setPage(Page): void
            +setTitle(String): void
            +getTitle(): String
            +setURL(String): void
            +getURL(): String
            +setContent(String): void
            +getContent(): String
        }

        interface RSSGenerator [[RSSGenerator.html]] {
            {static} +RSS10: String
            {static} +RSS20: String
            {static} +ATOM: String
            {static} +MODE_BLOG: String
            {static} +MODE_WIKI: String
            {static} +MODE_FULL: String
            {static} +PROP_CHANNEL_DESCRIPTION: String
            {static} +PROP_CHANNEL_LANGUAGE: String
            {static} +PROP_CHANNEL_TITLE: String
            {static} +PROP_GENERATE_RSS: String
            {static} +PROP_RSSFILE: String
            {static} +PROP_INTERVAL: String
            {static} +PROP_RSS_AUTHOR: String
            {static} +PROP_RSS_AUTHOREMAIL: String
            {abstract} +generate(): String
            {abstract} +generateFeed(Context, List<Page>, String, String): String
            {abstract} +isEnabled(): boolean
            {abstract} +setEnabled(boolean): void
            {abstract} +getRssFile(): String
            {abstract} +generateFullWikiRSS(Context, Feed): String
            {abstract} +generateWikiPageRSS(Context, List<Page>, Feed): String
            {abstract} +generateBlogRSS(Context, List<Page>, Feed): String
            {static} +format(String): String
            {static} +getContentType(String): String
        }

        class RSSThread [[RSSThread.html]] {
            +RSSThread(Engine, File, int)
            +startupTask(): void
            +backgroundTask(): void
        }

        class AtomFeed [[AtomFeed.html]] {
            {static} +RFC3339FORMAT: String
            +AtomFeed(Context)
            +getString(): String
        }

        class DefaultRSSGenerator [[DefaultRSSGenerator.html]] {
            +DefaultRSSGenerator(Engine, Properties)
            +initialize(Engine, Properties): void
            +generate(): String
            +generateFeed(Context, List<Page>, String, String): String
            +isEnabled(): boolean
            +setEnabled(boolean): void
            +getRssFile(): String
            +generateFullWikiRSS(Context, Feed): String
            +generateWikiPageRSS(Context, List<Page>, Feed): String
            +generateBlogRSS(Context, List<Page>, Feed): String
        }

        class RSS10Feed [[RSS10Feed.html]] {
            +RSS10Feed(Context)
            +getString(): String
        }

        Feed <|- - RSS20Feed
        Feed - -> "*" Entry: m_entries
        org.apache.wiki.api.engine.Initializable <|- - RSSGenerator
        org.apache.wiki.WikiBackgroundThread <|- - RSSThread
        Feed <|- - AtomFeed
        RSSGenerator <|.. DefaultRSSGenerator
        Feed <|- - RSS10Feed
    }

    namespace org.apache.wiki.api.engine {
        interface Initializable [[../api/engine/Initializable.html]] {
            {abstract} +initialize(Engine, Properties): void
        }
    }

    namespace org.apache.wiki {
        abstract class WikiBackgroundThread [[../WikiBackgroundThread.html]] {
            {abstract} +backgroundTask(): void
        }
    }

    center footer UMLDoclet 2.0.15, PlantUML 1.2021.13
@enduml

PlantUML version 1.2021.13(Mon Nov 01 11:38:45 UTC 2021)
(APACHE source distribution)
Java Runtime: OpenJDK Runtime Environment
JVM: OpenJDK 64-Bit Server VM
Default Encoding: ISO-8859-1
Language: en
Country: US
--></g></svg>