<?xml version="1.0" encoding="UTF-8" standalone="no"?><svg xmlns="http://www.w3.org/2000/svg" xmlns:xlink="http://www.w3.org/1999/xlink" contentScriptType="application/ecmascript" contentStyleType="text/css" height="507px" preserveAspectRatio="none" style="width:1292px;height:507px;background:#FFFFFF;" version="1.1" viewBox="0 0 1292 507" width="1292px" zoomAndPan="magnify"><defs><filter height="300%" id="f1efip5qz22fvi" width="300%" x="-1" y="-1"><feGaussianBlur result="blurOut" stdDeviation="2.0"/><feColorMatrix in="blurOut" result="blurOut2" type="matrix" values="0 0 0 0 0 0 0 0 0 0 0 0 0 0 0 0 0 0 .4 0"/><feOffset dx="4.0" dy="4.0" in="blurOut2" result="blurOut3"/><feBlend in="SourceGraphic" in2="blurOut3" mode="normal"/></filter></defs><g><!--MD5=[77af465126129a8e6058c3260ac3e597]
cluster org.apache.wiki.api.spi--><polygon fill="#FFFFFF" filter="url(#f1efip5qz22fvi)" points="16,6,203,6,210,28.2969,1275,28.2969,1275,484,16,484,16,6" style="stroke:#000000;stroke-width:1.5;"/><line style="stroke:#000000;stroke-width:1.5;" x1="16" x2="210" y1="28.2969" y2="28.2969"/><text fill="#000000" font-family="sans-serif" font-size="14" font-weight="bold" lengthAdjust="spacing" textLength="181" x="20" y="20.9951">org.apache.wiki.api.spi</text><!--MD5=[de3d530920b5106156f3f4352c6d4935]
class org.apache.wiki.api.spi.Wiki--><a href="Wiki.html" target="_top" title="Wiki.html" xlink:actuate="onRequest" xlink:href="Wiki.html" xlink:show="new" xlink:title="Wiki.html" xlink:type="simple"><rect codeLine="3" fill="#FEFECE" filter="url(#f1efip5qz22fvi)" height="124.8281" id="org.apache.wiki.api.spi.Wiki" style="stroke:#A80036;stroke-width:1.5;" width="201" x="49.5" y="33"/><ellipse cx="133.75" cy="49" fill="#ADD1B2" rx="11" ry="11" style="stroke:#A80036;stroke-width:1.0;"/><path d="M136.7188,54.6406 Q136.1406,54.9375 135.5,55.0781 Q134.8594,55.2344 134.1563,55.2344 Q131.6563,55.2344 130.3281,53.5938 Q129.0156,51.9375 129.0156,48.8125 Q129.0156,45.6875 130.3281,44.0313 Q131.6563,42.375 134.1563,42.375 Q134.8594,42.375 135.5,42.5313 Q136.1563,42.6875 136.7188,42.9844 L136.7188,45.7031 Q136.0938,45.125 135.5,44.8594 Q134.9063,44.5781 134.2813,44.5781 Q132.9375,44.5781 132.25,45.6563 Q131.5625,46.7188 131.5625,48.8125 Q131.5625,50.9063 132.25,51.9844 Q132.9375,53.0469 134.2813,53.0469 Q134.9063,53.0469 135.5,52.7813 Q136.0938,52.5 136.7188,51.9219 L136.7188,54.6406 Z " fill="#000000"/><text fill="#000000" font-family="sans-serif" font-size="12" lengthAdjust="spacing" textLength="24" x="154.25" y="53.1543">Wiki</text><line style="stroke:#A80036;stroke-width:1.5;" x1="50.5" x2="249.5" y1="65" y2="65"/><line style="stroke:#A80036;stroke-width:1.5;" x1="50.5" x2="249.5" y1="73" y2="73"/><ellipse cx="60.5" cy="84" fill="#84BE84" rx="3" ry="3" style="stroke:#038048;stroke-width:1.0;"/><text fill="#000000" font-family="sans-serif" font-size="11" lengthAdjust="spacing" text-decoration="underline" textLength="175" x="69.5" y="87.2104">init(ServletContext): Properties</text><ellipse cx="60.5" cy="96.8047" fill="#84BE84" rx="3" ry="3" style="stroke:#038048;stroke-width:1.0;"/><text fill="#000000" font-family="sans-serif" font-size="11" lengthAdjust="spacing" text-decoration="underline" textLength="84" x="69.5" y="100.0151">acls(): AclsDSL</text><ellipse cx="60.5" cy="109.6094" fill="#84BE84" rx="3" ry="3" style="stroke:#038048;stroke-width:1.0;"/><text fill="#000000" font-family="sans-serif" font-size="11" lengthAdjust="spacing" text-decoration="underline" textLength="138" x="69.5" y="112.8198">contents(): ContentsDSL</text><ellipse cx="60.5" cy="122.4141" fill="#84BE84" rx="3" ry="3" style="stroke:#038048;stroke-width:1.0;"/><text fill="#000000" font-family="sans-serif" font-size="11" lengthAdjust="spacing" text-decoration="underline" textLength="122" x="69.5" y="125.6245">context(): ContextDSL</text><ellipse cx="60.5" cy="135.2188" fill="#84BE84" rx="3" ry="3" style="stroke:#038048;stroke-width:1.0;"/><text fill="#000000" font-family="sans-serif" font-size="11" lengthAdjust="spacing" text-decoration="underline" textLength="114" x="69.5" y="138.4292">engine(): EngineDSL</text><ellipse cx="60.5" cy="148.0234" fill="#84BE84" rx="3" ry="3" style="stroke:#038048;stroke-width:1.0;"/><text fill="#000000" font-family="sans-serif" font-size="11" lengthAdjust="spacing" text-decoration="underline" textLength="129" x="69.5" y="151.2339">session(): SessionDSL</text></a><!--MD5=[3cc7a177362693a4101c4797076d4341]
class org.apache.wiki.api.spi.AclsSPI--><a href="AclsSPI.html" target="_top" title="AclsSPI.html" xlink:actuate="onRequest" xlink:href="AclsSPI.html" xlink:show="new" xlink:title="AclsSPI.html" xlink:type="simple"><rect codeLine="12" fill="#FEFECE" filter="url(#f1efip5qz22fvi)" height="73.6094" id="org.apache.wiki.api.spi.AclsSPI" style="stroke:#A80036;stroke-width:1.5;" width="119" x="285.5" y="58.5"/><ellipse cx="320.3" cy="74.5" fill="#B4A7E5" rx="11" ry="11" style="stroke:#A80036;stroke-width:1.0;"/><path d="M316.2219,70.2656 L316.2219,68.1094 L323.6125,68.1094 L323.6125,70.2656 L321.1438,70.2656 L321.1438,78.3438 L323.6125,78.3438 L323.6125,80.5 L316.2219,80.5 L316.2219,78.3438 L318.6906,78.3438 L318.6906,70.2656 L316.2219,70.2656 Z " fill="#000000"/><text fill="#000000" font-family="sans-serif" font-size="12" font-style="italic" lengthAdjust="spacing" textLength="43" x="338.7" y="78.6543">AclsSPI</text><line style="stroke:#A80036;stroke-width:1.5;" x1="286.5" x2="403.5" y1="90.5" y2="90.5"/><line style="stroke:#A80036;stroke-width:1.5;" x1="286.5" x2="403.5" y1="98.5" y2="98.5"/><ellipse cx="296.5" cy="109.5" fill="#84BE84" rx="3" ry="3" style="stroke:#038048;stroke-width:1.0;"/><text fill="#000000" font-family="sans-serif" font-size="11" font-style="italic" lengthAdjust="spacing" textLength="49" x="305.5" y="112.7104">acl(): Acl</text><ellipse cx="296.5" cy="122.3047" fill="#84BE84" rx="3" ry="3" style="stroke:#038048;stroke-width:1.0;"/><text fill="#000000" font-family="sans-serif" font-size="11" font-style="italic" lengthAdjust="spacing" textLength="93" x="305.5" y="125.5151">entry(): AclEntry</text></a><!--MD5=[916de04e4ea74ab47624c6d7ee6ceead]
class org.apache.wiki.api.spi.SessionDSL--><a href="SessionDSL.html" target="_top" title="SessionDSL.html" xlink:actuate="onRequest" xlink:href="SessionDSL.html" xlink:show="new" xlink:title="SessionDSL.html" xlink:type="simple"><rect codeLine="17" fill="#FEFECE" filter="url(#f1efip5qz22fvi)" height="86.4141" id="org.apache.wiki.api.spi.SessionDSL" style="stroke:#A80036;stroke-width:1.5;" width="264" x="440" y="52.5"/><ellipse cx="531.75" cy="68.5" fill="#ADD1B2" rx="11" ry="11" style="stroke:#A80036;stroke-width:1.0;"/><path d="M534.7188,74.1406 Q534.1406,74.4375 533.5,74.5781 Q532.8594,74.7344 532.1563,74.7344 Q529.6563,74.7344 528.3281,73.0938 Q527.0156,71.4375 527.0156,68.3125 Q527.0156,65.1875 528.3281,63.5313 Q529.6563,61.875 532.1563,61.875 Q532.8594,61.875 533.5,62.0313 Q534.1563,62.1875 534.7188,62.4844 L534.7188,65.2031 Q534.0938,64.625 533.5,64.3594 Q532.9063,64.0781 532.2813,64.0781 Q530.9375,64.0781 530.25,65.1563 Q529.5625,66.2188 529.5625,68.3125 Q529.5625,70.4063 530.25,71.4844 Q530.9375,72.5469 532.2813,72.5469 Q532.9063,72.5469 533.5,72.2813 Q534.0938,72 534.7188,71.4219 L534.7188,74.1406 Z " fill="#000000"/><text fill="#000000" font-family="sans-serif" font-size="12" lengthAdjust="spacing" textLength="72" x="552.25" y="72.6543">SessionDSL</text><line style="stroke:#A80036;stroke-width:1.5;" x1="441" x2="703" y1="84.5" y2="84.5"/><line style="stroke:#A80036;stroke-width:1.5;" x1="441" x2="703" y1="92.5" y2="92.5"/><ellipse cx="451" cy="103.5" fill="#84BE84" rx="3" ry="3" style="stroke:#038048;stroke-width:1.0;"/><text fill="#000000" font-family="sans-serif" font-size="11" lengthAdjust="spacing" textLength="237" x="460" y="106.7104">remove(Engine, HttpServletRequest): void</text><ellipse cx="451" cy="116.3047" fill="#84BE84" rx="3" ry="3" style="stroke:#038048;stroke-width:1.0;"/><text fill="#000000" font-family="sans-serif" font-size="11" lengthAdjust="spacing" textLength="238" x="460" y="119.5151">find(Engine, HttpServletRequest): Session</text><ellipse cx="451" cy="129.1094" fill="#84BE84" rx="3" ry="3" style="stroke:#038048;stroke-width:1.0;"/><text fill="#000000" font-family="sans-serif" font-size="11" lengthAdjust="spacing" textLength="132" x="460" y="132.3198">guest(Engine): Session</text></a><!--MD5=[52c031eca9d14e414123c0f3a82f168a]
class org.apache.wiki.api.spi.SessionSPI--><a href="SessionSPI.html" target="_top" title="SessionSPI.html" xlink:actuate="onRequest" xlink:href="SessionSPI.html" xlink:show="new" xlink:title="SessionSPI.html" xlink:type="simple"><rect codeLine="23" fill="#FEFECE" filter="url(#f1efip5qz22fvi)" height="86.4141" id="org.apache.wiki.api.spi.SessionSPI" style="stroke:#A80036;stroke-width:1.5;" width="265" x="739.5" y="52.5"/><ellipse cx="834.75" cy="68.5" fill="#B4A7E5" rx="11" ry="11" style="stroke:#A80036;stroke-width:1.0;"/><path d="M830.6719,64.2656 L830.6719,62.1094 L838.0625,62.1094 L838.0625,64.2656 L835.5938,64.2656 L835.5938,72.3438 L838.0625,72.3438 L838.0625,74.5 L830.6719,74.5 L830.6719,72.3438 L833.1406,72.3438 L833.1406,64.2656 L830.6719,64.2656 Z " fill="#000000"/><text fill="#000000" font-family="sans-serif" font-size="12" font-style="italic" lengthAdjust="spacing" textLength="66" x="855.25" y="72.6543">SessionSPI</text><line style="stroke:#A80036;stroke-width:1.5;" x1="740.5" x2="1003.5" y1="84.5" y2="84.5"/><line style="stroke:#A80036;stroke-width:1.5;" x1="740.5" x2="1003.5" y1="92.5" y2="92.5"/><ellipse cx="750.5" cy="103.5" fill="#84BE84" rx="3" ry="3" style="stroke:#038048;stroke-width:1.0;"/><text fill="#000000" font-family="sans-serif" font-size="11" font-style="italic" lengthAdjust="spacing" textLength="239" x="759.5" y="106.7104">remove(Engine, HttpServletRequest): void</text><ellipse cx="750.5" cy="116.3047" fill="#84BE84" rx="3" ry="3" style="stroke:#038048;stroke-width:1.0;"/><text fill="#000000" font-family="sans-serif" font-size="11" font-style="italic" lengthAdjust="spacing" textLength="235" x="759.5" y="119.5151">find(Engine, HttpServletRequest): Session</text><ellipse cx="750.5" cy="129.1094" fill="#84BE84" rx="3" ry="3" style="stroke:#038048;stroke-width:1.0;"/><text fill="#000000" font-family="sans-serif" font-size="11" font-style="italic" lengthAdjust="spacing" textLength="128" x="759.5" y="132.3198">guest(Engine): Session</text></a><!--MD5=[72cef5af7c1e5c0a14454e3c188183b9]
class org.apache.wiki.api.spi.EngineSPI--><a href="EngineSPI.html" target="_top" title="EngineSPI.html" xlink:actuate="onRequest" xlink:href="EngineSPI.html" xlink:show="new" xlink:title="EngineSPI.html" xlink:type="simple"><rect codeLine="29" fill="#FEFECE" filter="url(#f1efip5qz22fvi)" height="60.8047" id="org.apache.wiki.api.spi.EngineSPI" style="stroke:#A80036;stroke-width:1.5;" width="251" x="24.5" y="237"/><ellipse cx="114.75" cy="253" fill="#B4A7E5" rx="11" ry="11" style="stroke:#A80036;stroke-width:1.0;"/><path d="M110.6719,248.7656 L110.6719,246.6094 L118.0625,246.6094 L118.0625,248.7656 L115.5938,248.7656 L115.5938,256.8438 L118.0625,256.8438 L118.0625,259 L110.6719,259 L110.6719,256.8438 L113.1406,256.8438 L113.1406,248.7656 L110.6719,248.7656 Z " fill="#000000"/><text fill="#000000" font-family="sans-serif" font-size="12" font-style="italic" lengthAdjust="spacing" textLength="62" x="135.25" y="257.1543">EngineSPI</text><line style="stroke:#A80036;stroke-width:1.5;" x1="25.5" x2="274.5" y1="269" y2="269"/><line style="stroke:#A80036;stroke-width:1.5;" x1="25.5" x2="274.5" y1="277" y2="277"/><ellipse cx="35.5" cy="288" fill="#84BE84" rx="3" ry="3" style="stroke:#038048;stroke-width:1.0;"/><text fill="#000000" font-family="sans-serif" font-size="11" font-style="italic" lengthAdjust="spacing" textLength="225" x="44.5" y="291.2104">find(ServletContext, Properties): Engine</text></a><!--MD5=[1a63e549a6f9e10ef624e76ecedcdbec]
class org.apache.wiki.api.spi.ContentsDSL--><a href="ContentsDSL.html" target="_top" title="ContentsDSL.html" xlink:actuate="onRequest" xlink:href="ContentsDSL.html" xlink:show="new" xlink:title="ContentsDSL.html" xlink:type="simple"><rect codeLine="33" fill="#FEFECE" filter="url(#f1efip5qz22fvi)" height="73.6094" id="org.apache.wiki.api.spi.ContentsDSL" style="stroke:#A80036;stroke-width:1.5;" width="292" x="311" y="230.5"/><ellipse cx="412.75" cy="246.5" fill="#ADD1B2" rx="11" ry="11" style="stroke:#A80036;stroke-width:1.0;"/><path d="M415.7188,252.1406 Q415.1406,252.4375 414.5,252.5781 Q413.8594,252.7344 413.1563,252.7344 Q410.6563,252.7344 409.3281,251.0938 Q408.0156,249.4375 408.0156,246.3125 Q408.0156,243.1875 409.3281,241.5313 Q410.6563,239.875 413.1563,239.875 Q413.8594,239.875 414.5,240.0313 Q415.1563,240.1875 415.7188,240.4844 L415.7188,243.2031 Q415.0938,242.625 414.5,242.3594 Q413.9063,242.0781 413.2813,242.0781 Q411.9375,242.0781 411.25,243.1563 Q410.5625,244.2188 410.5625,246.3125 Q410.5625,248.4063 411.25,249.4844 Q411.9375,250.5469 413.2813,250.5469 Q413.9063,250.5469 414.5,250.2813 Q415.0938,250 415.7188,249.4219 L415.7188,252.1406 Z " fill="#000000"/><text fill="#000000" font-family="sans-serif" font-size="12" lengthAdjust="spacing" textLength="80" x="433.25" y="250.6543">ContentsDSL</text><line style="stroke:#A80036;stroke-width:1.5;" x1="312" x2="602" y1="262.5" y2="262.5"/><line style="stroke:#A80036;stroke-width:1.5;" x1="312" x2="602" y1="270.5" y2="270.5"/><ellipse cx="322" cy="281.5" fill="#84BE84" rx="3" ry="3" style="stroke:#038048;stroke-width:1.0;"/><text fill="#000000" font-family="sans-serif" font-size="11" lengthAdjust="spacing" textLength="266" x="331" y="284.7104">attachment(Engine, String, String): Attachment</text><ellipse cx="322" cy="294.3047" fill="#84BE84" rx="3" ry="3" style="stroke:#038048;stroke-width:1.0;"/><text fill="#000000" font-family="sans-serif" font-size="11" lengthAdjust="spacing" textLength="152" x="331" y="297.5151">page(Engine, String): Page</text></a><!--MD5=[62605e8db9c854b836cd96edfb3a0a61]
class org.apache.wiki.api.spi.EngineDSL--><a href="EngineDSL.html" target="_top" title="EngineDSL.html" xlink:actuate="onRequest" xlink:href="EngineDSL.html" xlink:show="new" xlink:title="EngineDSL.html" xlink:type="simple"><rect codeLine="38" fill="#FEFECE" filter="url(#f1efip5qz22fvi)" height="86.4141" id="org.apache.wiki.api.spi.EngineDSL" style="stroke:#A80036;stroke-width:1.5;" width="251" x="638.5" y="224.5"/><ellipse cx="726.75" cy="240.5" fill="#ADD1B2" rx="11" ry="11" style="stroke:#A80036;stroke-width:1.0;"/><path d="M729.7188,246.1406 Q729.1406,246.4375 728.5,246.5781 Q727.8594,246.7344 727.1563,246.7344 Q724.6563,246.7344 723.3281,245.0938 Q722.0156,243.4375 722.0156,240.3125 Q722.0156,237.1875 723.3281,235.5313 Q724.6563,233.875 727.1563,233.875 Q727.8594,233.875 728.5,234.0313 Q729.1563,234.1875 729.7188,234.4844 L729.7188,237.2031 Q729.0938,236.625 728.5,236.3594 Q727.9063,236.0781 727.2813,236.0781 Q725.9375,236.0781 725.25,237.1563 Q724.5625,238.2188 724.5625,240.3125 Q724.5625,242.4063 725.25,243.4844 Q725.9375,244.5469 727.2813,244.5469 Q727.9063,244.5469 728.5,244.2813 Q729.0938,244 729.7188,243.4219 L729.7188,246.1406 Z " fill="#000000"/><text fill="#000000" font-family="sans-serif" font-size="12" lengthAdjust="spacing" textLength="66" x="747.25" y="244.6543">EngineDSL</text><line style="stroke:#A80036;stroke-width:1.5;" x1="639.5" x2="888.5" y1="256.5" y2="256.5"/><line style="stroke:#A80036;stroke-width:1.5;" x1="639.5" x2="888.5" y1="264.5" y2="264.5"/><ellipse cx="649.5" cy="275.5" fill="#84BE84" rx="3" ry="3" style="stroke:#038048;stroke-width:1.0;"/><text fill="#000000" font-family="sans-serif" font-size="11" lengthAdjust="spacing" textLength="151" x="658.5" y="278.7104">find(ServletConfig): Engine</text><ellipse cx="649.5" cy="288.3047" fill="#84BE84" rx="3" ry="3" style="stroke:#038048;stroke-width:1.0;"/><text fill="#000000" font-family="sans-serif" font-size="11" lengthAdjust="spacing" textLength="218" x="658.5" y="291.5151">find(ServletConfig, Properties): Engine</text><ellipse cx="649.5" cy="301.1094" fill="#84BE84" rx="3" ry="3" style="stroke:#038048;stroke-width:1.0;"/><text fill="#000000" font-family="sans-serif" font-size="11" lengthAdjust="spacing" textLength="225" x="658.5" y="304.3198">find(ServletContext, Properties): Engine</text></a><!--MD5=[2ecf9bf15dd5696f1e4971959ac07095]
class org.apache.wiki.api.spi.ContextDSL--><a href="ContextDSL.html" target="_top" title="ContextDSL.html" xlink:actuate="onRequest" xlink:href="ContextDSL.html" xlink:show="new" xlink:title="ContextDSL.html" xlink:type="simple"><rect codeLine="44" fill="#FEFECE" filter="url(#f1efip5qz22fvi)" height="99.2188" id="org.apache.wiki.api.spi.ContextDSL" style="stroke:#A80036;stroke-width:1.5;" width="342" x="925" y="218"/><ellipse cx="1056.25" cy="234" fill="#ADD1B2" rx="11" ry="11" style="stroke:#A80036;stroke-width:1.0;"/><path d="M1059.2188,239.6406 Q1058.6406,239.9375 1058,240.0781 Q1057.3594,240.2344 1056.6563,240.2344 Q1054.1563,240.2344 1052.8281,238.5938 Q1051.5156,236.9375 1051.5156,233.8125 Q1051.5156,230.6875 1052.8281,229.0313 Q1054.1563,227.375 1056.6563,227.375 Q1057.3594,227.375 1058,227.5313 Q1058.6563,227.6875 1059.2188,227.9844 L1059.2188,230.7031 Q1058.5938,230.125 1058,229.8594 Q1057.4063,229.5781 1056.7813,229.5781 Q1055.4375,229.5781 1054.75,230.6563 Q1054.0625,231.7188 1054.0625,233.8125 Q1054.0625,235.9063 1054.75,236.9844 Q1055.4375,238.0469 1056.7813,238.0469 Q1057.4063,238.0469 1058,237.7813 Q1058.5938,237.5 1059.2188,236.9219 L1059.2188,239.6406 Z " fill="#000000"/><text fill="#000000" font-family="sans-serif" font-size="12" lengthAdjust="spacing" textLength="71" x="1076.75" y="238.1543">ContextDSL</text><line style="stroke:#A80036;stroke-width:1.5;" x1="926" x2="1266" y1="250" y2="250"/><line style="stroke:#A80036;stroke-width:1.5;" x1="926" x2="1266" y1="258" y2="258"/><ellipse cx="936" cy="269" fill="#84BE84" rx="3" ry="3" style="stroke:#038048;stroke-width:1.0;"/><text fill="#000000" font-family="sans-serif" font-size="11" lengthAdjust="spacing" textLength="169" x="945" y="272.2104">create(Engine, Page): Context</text><ellipse cx="936" cy="281.8047" fill="#84BE84" rx="3" ry="3" style="stroke:#038048;stroke-width:1.0;"/><text fill="#000000" font-family="sans-serif" font-size="11" lengthAdjust="spacing" textLength="316" x="945" y="285.0151">create(Engine, HttpServletRequest, Command): Context</text><ellipse cx="936" cy="294.6094" fill="#84BE84" rx="3" ry="3" style="stroke:#038048;stroke-width:1.0;"/><text fill="#000000" font-family="sans-serif" font-size="11" lengthAdjust="spacing" textLength="286" x="945" y="297.8198">create(Engine, HttpServletRequest, Page): Context</text><ellipse cx="936" cy="307.4141" fill="#84BE84" rx="3" ry="3" style="stroke:#038048;stroke-width:1.0;"/><text fill="#000000" font-family="sans-serif" font-size="11" lengthAdjust="spacing" textLength="292" x="945" y="310.6245">create(Engine, HttpServletRequest, String): Context</text></a><!--MD5=[8f2da63379beffa948bd49efaa6b9718]
class org.apache.wiki.api.spi.ContentsSPI--><a href="ContentsSPI.html" target="_top" title="ContentsSPI.html" xlink:actuate="onRequest" xlink:href="ContentsSPI.html" xlink:show="new" xlink:title="ContentsSPI.html" xlink:type="simple"><rect codeLine="51" fill="#FEFECE" filter="url(#f1efip5qz22fvi)" height="73.6094" id="org.apache.wiki.api.spi.ContentsSPI" style="stroke:#A80036;stroke-width:1.5;" width="291" x="23.5" y="389.5"/><ellipse cx="127.25" cy="405.5" fill="#B4A7E5" rx="11" ry="11" style="stroke:#A80036;stroke-width:1.0;"/><path d="M123.1719,401.2656 L123.1719,399.1094 L130.5625,399.1094 L130.5625,401.2656 L128.0938,401.2656 L128.0938,409.3438 L130.5625,409.3438 L130.5625,411.5 L123.1719,411.5 L123.1719,409.3438 L125.6406,409.3438 L125.6406,401.2656 L123.1719,401.2656 Z " fill="#000000"/><text fill="#000000" font-family="sans-serif" font-size="12" font-style="italic" lengthAdjust="spacing" textLength="75" x="147.75" y="409.6543">ContentsSPI</text><line style="stroke:#A80036;stroke-width:1.5;" x1="24.5" x2="313.5" y1="421.5" y2="421.5"/><line style="stroke:#A80036;stroke-width:1.5;" x1="24.5" x2="313.5" y1="429.5" y2="429.5"/><ellipse cx="34.5" cy="440.5" fill="#84BE84" rx="3" ry="3" style="stroke:#038048;stroke-width:1.0;"/><text fill="#000000" font-family="sans-serif" font-size="11" font-style="italic" lengthAdjust="spacing" textLength="265" x="43.5" y="443.7104">attachment(Engine, String, String): Attachment</text><ellipse cx="34.5" cy="453.3047" fill="#84BE84" rx="3" ry="3" style="stroke:#038048;stroke-width:1.0;"/><text fill="#000000" font-family="sans-serif" font-size="11" font-style="italic" lengthAdjust="spacing" textLength="151" x="43.5" y="456.5151">page(Engine, String): Page</text></a><!--MD5=[13154259000ca19ba8a300a9ef212a04]
class org.apache.wiki.api.spi.AclsDSL--><a href="AclsDSL.html" target="_top" title="AclsDSL.html" xlink:actuate="onRequest" xlink:href="AclsDSL.html" xlink:show="new" xlink:title="AclsDSL.html" xlink:type="simple"><rect codeLine="56" fill="#FEFECE" filter="url(#f1efip5qz22fvi)" height="73.6094" id="org.apache.wiki.api.spi.AclsDSL" style="stroke:#A80036;stroke-width:1.5;" width="116" x="349" y="389.5"/><ellipse cx="380.2" cy="405.5" fill="#ADD1B2" rx="11" ry="11" style="stroke:#A80036;stroke-width:1.0;"/><path d="M383.1688,411.1406 Q382.5906,411.4375 381.95,411.5781 Q381.3094,411.7344 380.6063,411.7344 Q378.1063,411.7344 376.7781,410.0938 Q375.4656,408.4375 375.4656,405.3125 Q375.4656,402.1875 376.7781,400.5313 Q378.1063,398.875 380.6063,398.875 Q381.3094,398.875 381.95,399.0313 Q382.6063,399.1875 383.1688,399.4844 L383.1688,402.2031 Q382.5438,401.625 381.95,401.3594 Q381.3563,401.0781 380.7313,401.0781 Q379.3875,401.0781 378.7,402.1563 Q378.0125,403.2188 378.0125,405.3125 Q378.0125,407.4063 378.7,408.4844 Q379.3875,409.5469 380.7313,409.5469 Q381.3563,409.5469 381.95,409.2813 Q382.5438,409 383.1688,408.4219 L383.1688,411.1406 Z " fill="#000000"/><text fill="#000000" font-family="sans-serif" font-size="12" lengthAdjust="spacing" textLength="48" x="397.8" y="409.6543">AclsDSL</text><line style="stroke:#A80036;stroke-width:1.5;" x1="350" x2="464" y1="421.5" y2="421.5"/><line style="stroke:#A80036;stroke-width:1.5;" x1="350" x2="464" y1="429.5" y2="429.5"/><ellipse cx="360" cy="440.5" fill="#84BE84" rx="3" ry="3" style="stroke:#038048;stroke-width:1.0;"/><text fill="#000000" font-family="sans-serif" font-size="11" lengthAdjust="spacing" textLength="48" x="369" y="443.7104">acl(): Acl</text><ellipse cx="360" cy="453.3047" fill="#84BE84" rx="3" ry="3" style="stroke:#038048;stroke-width:1.0;"/><text fill="#000000" font-family="sans-serif" font-size="11" lengthAdjust="spacing" textLength="90" x="369" y="456.5151">entry(): AclEntry</text></a><!--MD5=[f94607c025d7165374977c722d2704ab]
class org.apache.wiki.api.spi.ContextSPI--><a href="ContextSPI.html" target="_top" title="ContextSPI.html" xlink:actuate="onRequest" xlink:href="ContextSPI.html" xlink:show="new" xlink:title="ContextSPI.html" xlink:type="simple"><rect codeLine="61" fill="#FEFECE" filter="url(#f1efip5qz22fvi)" height="99.2188" id="org.apache.wiki.api.spi.ContextSPI" style="stroke:#A80036;stroke-width:1.5;" width="343" x="500.5" y="377"/><ellipse cx="633.75" cy="393" fill="#B4A7E5" rx="11" ry="11" style="stroke:#A80036;stroke-width:1.0;"/><path d="M629.6719,388.7656 L629.6719,386.6094 L637.0625,386.6094 L637.0625,388.7656 L634.5938,388.7656 L634.5938,396.8438 L637.0625,396.8438 L637.0625,399 L629.6719,399 L629.6719,396.8438 L632.1406,396.8438 L632.1406,388.7656 L629.6719,388.7656 Z " fill="#000000"/><text fill="#000000" font-family="sans-serif" font-size="12" font-style="italic" lengthAdjust="spacing" textLength="68" x="654.25" y="397.1543">ContextSPI</text><line style="stroke:#A80036;stroke-width:1.5;" x1="501.5" x2="842.5" y1="409" y2="409"/><line style="stroke:#A80036;stroke-width:1.5;" x1="501.5" x2="842.5" y1="417" y2="417"/><ellipse cx="511.5" cy="428" fill="#84BE84" rx="3" ry="3" style="stroke:#038048;stroke-width:1.0;"/><text fill="#000000" font-family="sans-serif" font-size="11" font-style="italic" lengthAdjust="spacing" textLength="170" x="520.5" y="431.2104">create(Engine, Page): Context</text><ellipse cx="511.5" cy="440.8047" fill="#84BE84" rx="3" ry="3" style="stroke:#038048;stroke-width:1.0;"/><text fill="#000000" font-family="sans-serif" font-size="11" font-style="italic" lengthAdjust="spacing" textLength="317" x="520.5" y="444.0151">create(Engine, HttpServletRequest, Command): Context</text><ellipse cx="511.5" cy="453.6094" fill="#84BE84" rx="3" ry="3" style="stroke:#038048;stroke-width:1.0;"/><text fill="#000000" font-family="sans-serif" font-size="11" font-style="italic" lengthAdjust="spacing" textLength="287" x="520.5" y="456.8198">create(Engine, HttpServletRequest, Page): Context</text><ellipse cx="511.5" cy="466.4141" fill="#84BE84" rx="3" ry="3" style="stroke:#038048;stroke-width:1.0;"/><text fill="#000000" font-family="sans-serif" font-size="11" font-style="italic" lengthAdjust="spacing" textLength="292" x="520.5" y="469.6245">create(Engine, HttpServletRequest, String): Context</text></a><!--MD5=[280f82fa6233036a24cfbc60bfdd66cf]
link org.apache.wiki.api.spi.Wiki to org.apache.wiki.api.spi.AclsSPI--><!--MD5=[7564e471a905b8c41c71561fba2dfac0]
link org.apache.wiki.api.spi.AclsSPI to org.apache.wiki.api.spi.SessionDSL--><!--MD5=[9f4a44e03166af25ab197f708a3466d9]
link org.apache.wiki.api.spi.SessionDSL to org.apache.wiki.api.spi.SessionSPI--><!--MD5=[32cd4a0ecd9e18ca4396b0ff49d14d6d]
link org.apache.wiki.api.spi.Wiki to org.apache.wiki.api.spi.EngineSPI--><!--MD5=[ad39b83739db4dd5b041a6ab23c75a83]
link org.apache.wiki.api.spi.EngineSPI to org.apache.wiki.api.spi.ContentsDSL--><!--MD5=[e0fe2738cf9bc2b003b4b2b6152ac9f2]
link org.apache.wiki.api.spi.ContentsDSL to org.apache.wiki.api.spi.EngineDSL--><!--MD5=[ee4b51f1dc45c3cc4b6866894a9242b3]
link org.apache.wiki.api.spi.EngineDSL to org.apache.wiki.api.spi.ContextDSL--><!--MD5=[5696f466a4517bb6167b99f92f7e837f]
link org.apache.wiki.api.spi.EngineSPI to org.apache.wiki.api.spi.ContentsSPI--><!--MD5=[a8359bd6b855c6f59cc567dbeefe77e7]
link org.apache.wiki.api.spi.ContentsSPI to org.apache.wiki.api.spi.AclsDSL--><!--MD5=[02b461fd32e5d48323347415e0ff2995]
link org.apache.wiki.api.spi.AclsDSL to org.apache.wiki.api.spi.ContextSPI--><text fill="#888888" font-family="sans-serif" font-size="10" lengthAdjust="spacing" textLength="192" x="543.5" y="499.2822">UMLDoclet 2.0.15, PlantUML 1.2021.13</text><!--MD5=[b3c62fad7edd76e26c25485b97c63caf]
@startuml
    namespace org.apache.wiki.api.spi {

        class Wiki [[Wiki.html]] {
            {static} +init(ServletContext): Properties
            {static} +acls(): AclsDSL
            {static} +contents(): ContentsDSL
            {static} +context(): ContextDSL
            {static} +engine(): EngineDSL
            {static} +session(): SessionDSL
        }

        interface AclsSPI [[AclsSPI.html]] {
            {abstract} +acl(): Acl
            {abstract} +entry(): AclEntry
        }

        class SessionDSL [[SessionDSL.html]] {
            +remove(Engine, HttpServletRequest): void
            +find(Engine, HttpServletRequest): Session
            +guest(Engine): Session
        }

        interface SessionSPI [[SessionSPI.html]] {
            {abstract} +remove(Engine, HttpServletRequest): void
            {abstract} +find(Engine, HttpServletRequest): Session
            {abstract} +guest(Engine): Session
        }

        interface EngineSPI [[EngineSPI.html]] {
            {abstract} +find(ServletContext, Properties): Engine
        }

        class ContentsDSL [[ContentsDSL.html]] {
            +attachment(Engine, String, String): Attachment
            +page(Engine, String): Page
        }

        class EngineDSL [[EngineDSL.html]] {
            +find(ServletConfig): Engine
            +find(ServletConfig, Properties): Engine
            +find(ServletContext, Properties): Engine
        }

        class ContextDSL [[ContextDSL.html]] {
            +create(Engine, Page): Context
            +create(Engine, HttpServletRequest, Command): Context
            +create(Engine, HttpServletRequest, Page): Context
            +create(Engine, HttpServletRequest, String): Context
        }

        interface ContentsSPI [[ContentsSPI.html]] {
            {abstract} +attachment(Engine, String, String): Attachment
            {abstract} +page(Engine, String): Page
        }

        class AclsDSL [[AclsDSL.html]] {
            +acl(): Acl
            +entry(): AclEntry
        }

        interface ContextSPI [[ContextSPI.html]] {
            {abstract} +create(Engine, Page): Context
            {abstract} +create(Engine, HttpServletRequest, Command): Context
            {abstract} +create(Engine, HttpServletRequest, Page): Context
            {abstract} +create(Engine, HttpServletRequest, String): Context
        }

    }

    center footer UMLDoclet 2.0.15, PlantUML 1.2021.13
@enduml

PlantUML version 1.2021.13(Mon Nov 01 11:38:45 UTC 2021)
(APACHE source distribution)
Java Runtime: Java(TM) SE Runtime Environment
JVM: Java HotSpot(TM) 64-Bit Server VM
Default Encoding: ISO-8859-1
Language: en
Country: US
--></g></svg>