<?xml version="1.0" encoding="UTF-8" standalone="no"?><svg xmlns="http://www.w3.org/2000/svg" xmlns:xlink="http://www.w3.org/1999/xlink" contentScriptType="application/ecmascript" contentStyleType="text/css" height="491px" preserveAspectRatio="none" style="width:307px;height:491px;" version="1.1" viewBox="0 0 307 491" width="307px" zoomAndPan="magnify"><defs><filter height="300%" id="fr4q7ckykap2w" width="300%" x="-1" y="-1"><feGaussianBlur result="blurOut" stdDeviation="2.0"/><feColorMatrix in="blurOut" result="blurOut2" type="matrix" values="0 0 0 0 0 0 0 0 0 0 0 0 0 0 0 0 0 0 .4 0"/><feOffset dx="4.0" dy="4.0" in="blurOut2" result="blurOut3"/><feBlend in="SourceGraphic" in2="blurOut3" mode="normal"/></filter></defs><g><!--MD5=[3680f44a8f41df586cd342184c9d1e1a]
class org.apache.wiki.util.MailUtil--><a href="MailUtil.html" target="_top" title="MailUtil.html" xlink:actuate="onRequest" xlink:href="MailUtil.html" xlink:show="new" xlink:title="MailUtil.html" xlink:type="simple"><rect codeLine="5" fill="#FEFECE" filter="url(#fr4q7ckykap2w)" height="346.7422" id="org.apache.wiki.util.MailUtil" style="stroke: #A80036; stroke-width: 1.5;" width="279" x="9" y="7"/><ellipse cx="98.25" cy="27.0938" fill="#ADD1B2" rx="11" ry="11" style="stroke: #A80036; stroke-width: 1.0;"/><path d="M101.0156,22.9688 Q101.1719,22.75 101.3594,22.6406 Q101.5469,22.5313 101.7656,22.5313 Q102.1406,22.5313 102.375,22.7969 Q102.6094,23.0469 102.6094,23.6563 L102.6094,25.1094 Q102.6094,25.7188 102.375,25.9844 Q102.1406,26.25 101.7656,26.25 Q101.4219,26.25 101.2188,26.0469 Q101.0156,25.8594 100.9063,25.3438 Q100.8594,24.9844 100.6719,24.7969 Q100.3438,24.4219 99.7344,24.2031 Q99.125,23.9844 98.5,23.9844 Q97.7344,23.9844 97.0938,24.3125 Q96.4688,24.6406 95.9688,25.3906 Q95.4844,26.1406 95.4844,27.1719 L95.4844,28.2656 Q95.4844,29.5 96.375,30.3281 Q97.2656,31.1406 98.8594,31.1406 Q99.7969,31.1406 100.4531,30.8906 Q100.8438,30.7344 101.2656,30.2969 Q101.5313,30.0313 101.6719,29.9531 Q101.8281,29.875 102.0313,29.875 Q102.3594,29.875 102.6094,30.1406 Q102.875,30.3906 102.875,30.7344 Q102.875,31.0781 102.5313,31.4844 Q102.0313,32.0625 101.2344,32.3906 Q100.1563,32.8438 98.8594,32.8438 Q97.3438,32.8438 96.1406,32.2188 Q95.1563,31.7188 94.4688,30.6563 Q93.7813,29.5781 93.7813,28.2969 L93.7813,27.1406 Q93.7813,25.8125 94.3906,24.6719 Q95.0156,23.5156 96.1094,22.9063 Q97.2031,22.2813 98.4375,22.2813 Q99.1719,22.2813 99.8125,22.4531 Q100.4688,22.6094 101.0156,22.9688 Z "/><text fill="#000000" font-family="sans-serif" font-size="14" lengthAdjust="spacingAndGlyphs" textLength="44" x="142.75" y="26.5332">MailUtil</text><text fill="#000000" font-family="sans-serif" font-size="10" lengthAdjust="spacingAndGlyphs" textLength="92" x="118.75" y="39.9902">org.apache.wiki.util</text><line style="stroke: #A80036; stroke-width: 1.5;" x1="10" x2="287" y1="47.1875" y2="47.1875"/><polygon fill="none" points="20,53.1875,24,57.1875,20,61.1875,16,57.1875" style="stroke: #B38D22; stroke-width: 1.0;"/><text fill="#000000" font-family="sans-serif" font-size="11" lengthAdjust="spacingAndGlyphs" text-decoration="underline" textLength="54" x="29" y="62.6064">log: Logger</text><polygon fill="none" points="20,67.0234,24,71.0234,20,75.0234,16,71.0234" style="stroke: #B38D22; stroke-width: 1.0;"/><text fill="#000000" font-family="sans-serif" font-size="11" lengthAdjust="spacingAndGlyphs" text-decoration="underline" textLength="172" x="29" y="76.4424">DEFAULT_MAIL_JNDI_NAME: String</text><polygon fill="none" points="20,80.8594,24,84.8594,20,88.8594,16,84.8594" style="stroke: #B38D22; stroke-width: 1.0;"/><text fill="#000000" font-family="sans-serif" font-size="11" lengthAdjust="spacingAndGlyphs" text-decoration="underline" textLength="144" x="29" y="90.2783">DEFAULT_MAIL_HOST: String</text><polygon fill="none" points="20,94.6953,24,98.6953,20,102.6953,16,98.6953" style="stroke: #B38D22; stroke-width: 1.0;"/><text fill="#000000" font-family="sans-serif" font-size="11" lengthAdjust="spacingAndGlyphs" text-decoration="underline" textLength="143" x="29" y="104.1143">DEFAULT_MAIL_PORT: String</text><polygon fill="none" points="20,108.5313,24,112.5313,20,116.5313,16,112.5313" style="stroke: #B38D22; stroke-width: 1.0;"/><text fill="#000000" font-family="sans-serif" font-size="11" lengthAdjust="spacingAndGlyphs" text-decoration="underline" textLength="159" x="29" y="117.9502">DEFAULT_MAIL_TIMEOUT: String</text><polygon fill="none" points="20,122.3672,24,126.3672,20,130.3672,16,126.3672" style="stroke: #B38D22; stroke-width: 1.0;"/><text fill="#000000" font-family="sans-serif" font-size="11" lengthAdjust="spacingAndGlyphs" text-decoration="underline" textLength="194" x="29" y="131.7861">DEFAULT_MAIL_CONN_TIMEOUT: String</text><polygon fill="none" points="20,136.2031,24,140.2031,20,144.2031,16,140.2031" style="stroke: #B38D22; stroke-width: 1.0;"/><text fill="#000000" font-family="sans-serif" font-size="11" lengthAdjust="spacingAndGlyphs" text-decoration="underline" textLength="126" x="29" y="145.6221">DEFAULT_SENDER: String</text><polygon fill="none" points="20,150.0391,24,154.0391,20,158.0391,16,154.0391" style="stroke: #B38D22; stroke-width: 1.0;"/><text fill="#000000" font-family="sans-serif" font-size="11" lengthAdjust="spacingAndGlyphs" text-decoration="underline" textLength="153" x="29" y="159.458">PROP_MAIL_JNDI_NAME: String</text><polygon fill="none" points="20,163.875,24,167.875,20,171.875,16,167.875" style="stroke: #B38D22; stroke-width: 1.0;"/><text fill="#000000" font-family="sans-serif" font-size="11" lengthAdjust="spacingAndGlyphs" text-decoration="underline" textLength="125" x="29" y="173.2939">PROP_MAIL_HOST: String</text><polygon fill="none" points="20,177.7109,24,181.7109,20,185.7109,16,181.7109" style="stroke: #B38D22; stroke-width: 1.0;"/><text fill="#000000" font-family="sans-serif" font-size="11" lengthAdjust="spacingAndGlyphs" text-decoration="underline" textLength="124" x="29" y="187.1299">PROP_MAIL_PORT: String</text><polygon fill="none" points="20,191.5469,24,195.5469,20,199.5469,16,195.5469" style="stroke: #B38D22; stroke-width: 1.0;"/><text fill="#000000" font-family="sans-serif" font-size="11" lengthAdjust="spacingAndGlyphs" text-decoration="underline" textLength="147" x="29" y="200.9658">PROP_MAIL_ACCOUNT: String</text><polygon fill="none" points="20,205.3828,24,209.3828,20,213.3828,16,209.3828" style="stroke: #B38D22; stroke-width: 1.0;"/><text fill="#000000" font-family="sans-serif" font-size="11" lengthAdjust="spacingAndGlyphs" text-decoration="underline" textLength="157" x="29" y="214.8018">PROP_MAIL_PASSWORD: String</text><polygon fill="none" points="20,219.2188,24,223.2188,20,227.2188,16,223.2188" style="stroke: #B38D22; stroke-width: 1.0;"/><text fill="#000000" font-family="sans-serif" font-size="11" lengthAdjust="spacingAndGlyphs" text-decoration="underline" textLength="140" x="29" y="228.6377">PROP_MAIL_TIMEOUT: String</text><polygon fill="none" points="20,233.0547,24,237.0547,20,241.0547,16,237.0547" style="stroke: #B38D22; stroke-width: 1.0;"/><text fill="#000000" font-family="sans-serif" font-size="11" lengthAdjust="spacingAndGlyphs" text-decoration="underline" textLength="211" x="29" y="242.4736">PROP_MAIL_CONNECTION_TIMEOUT: String</text><polygon fill="none" points="20,246.8906,24,250.8906,20,254.8906,16,250.8906" style="stroke: #B38D22; stroke-width: 1.0;"/><text fill="#000000" font-family="sans-serif" font-size="11" lengthAdjust="spacingAndGlyphs" text-decoration="underline" textLength="159" x="29" y="256.3096">PROP_MAIL_TRANSPORT: String</text><polygon fill="none" points="20,260.7266,24,264.7266,20,268.7266,16,264.7266" style="stroke: #B38D22; stroke-width: 1.0;"/><text fill="#000000" font-family="sans-serif" font-size="11" lengthAdjust="spacingAndGlyphs" text-decoration="underline" textLength="137" x="29" y="270.1455">PROP_MAIL_SENDER: String</text><polygon fill="none" points="20,274.5625,24,278.5625,20,282.5625,16,278.5625" style="stroke: #B38D22; stroke-width: 1.0;"/><text fill="#000000" font-family="sans-serif" font-size="11" lengthAdjust="spacingAndGlyphs" text-decoration="underline" textLength="150" x="29" y="283.9814">PROP_MAIL_STARTTLS: String</text><line style="stroke: #A80036; stroke-width: 1.5;" x1="10" x2="287" y1="290.3984" y2="290.3984"/><ellipse cx="20" cy="301.3984" fill="#84BE84" rx="3" ry="3" style="stroke: #038048; stroke-width: 1.0;"/><text fill="#000000" font-family="sans-serif" font-size="11" lengthAdjust="spacingAndGlyphs" text-decoration="underline" textLength="253" x="29" y="305.8174">sendMessage(Properties, String, String, String): void</text><polygon fill="#FFFF44" points="20,310.2344,24,314.2344,20,318.2344,16,314.2344" style="stroke: #B38D22; stroke-width: 1.0;"/><text fill="#000000" font-family="sans-serif" font-size="11" lengthAdjust="spacingAndGlyphs" text-decoration="underline" textLength="252" x="29" y="319.6533">getSenderEmailAddress(Session, Properties): String</text><polygon fill="#FFFF44" points="20,324.0703,24,328.0703,20,332.0703,16,328.0703" style="stroke: #B38D22; stroke-width: 1.0;"/><text fill="#000000" font-family="sans-serif" font-size="11" lengthAdjust="spacingAndGlyphs" text-decoration="underline" textLength="228" x="29" y="333.4893">getStandaloneMailSession(Properties): Session</text><polygon fill="#FFFF44" points="20,337.9063,24,341.9063,20,345.9063,16,341.9063" style="stroke: #B38D22; stroke-width: 1.0;"/><text fill="#000000" font-family="sans-serif" font-size="11" lengthAdjust="spacingAndGlyphs" text-decoration="underline" textLength="174" x="29" y="347.3252">getJNDIMailSession(String): Session</text></a><!--MD5=[c2d152cd2ddaa79a2f5d82b94c3729b4]
class org.apache.wiki.util.MailUtil.SmtpAuthenticator--><a href="MailUtil.SmtpAuthenticator.html" target="_top" title="MailUtil.SmtpAuthenticator.html" xlink:actuate="onRequest" xlink:href="MailUtil.SmtpAuthenticator.html" xlink:show="new" xlink:title="MailUtil.SmtpAuthenticator.html" xlink:type="simple"><rect codeLine="28" fill="#FEFECE" filter="url(#fr4q7ckykap2w)" height="40.1875" id="org.apache.wiki.util.MailUtil.SmtpAuthenticator" style="stroke: #A80036; stroke-width: 1.5;" width="196" x="50.5" y="414"/><ellipse cx="65.5" cy="434.0938" fill="#ADD1B2" rx="11" ry="11" style="stroke: #A80036; stroke-width: 1.0;"/><path d="M68.2656,429.9688 Q68.4219,429.75 68.6094,429.6406 Q68.7969,429.5313 69.0156,429.5313 Q69.3906,429.5313 69.625,429.7969 Q69.8594,430.0469 69.8594,430.6563 L69.8594,432.1094 Q69.8594,432.7188 69.625,432.9844 Q69.3906,433.25 69.0156,433.25 Q68.6719,433.25 68.4688,433.0469 Q68.2656,432.8594 68.1563,432.3438 Q68.1094,431.9844 67.9219,431.7969 Q67.5938,431.4219 66.9844,431.2031 Q66.375,430.9844 65.75,430.9844 Q64.9844,430.9844 64.3438,431.3125 Q63.7188,431.6406 63.2188,432.3906 Q62.7344,433.1406 62.7344,434.1719 L62.7344,435.2656 Q62.7344,436.5 63.625,437.3281 Q64.5156,438.1406 66.1094,438.1406 Q67.0469,438.1406 67.7031,437.8906 Q68.0938,437.7344 68.5156,437.2969 Q68.7813,437.0313 68.9219,436.9531 Q69.0781,436.875 69.2813,436.875 Q69.6094,436.875 69.8594,437.1406 Q70.125,437.3906 70.125,437.7344 Q70.125,438.0781 69.7813,438.4844 Q69.2813,439.0625 68.4844,439.3906 Q67.4063,439.8438 66.1094,439.8438 Q64.5938,439.8438 63.3906,439.2188 Q62.4063,438.7188 61.7188,437.6563 Q61.0313,436.5781 61.0313,435.2969 L61.0313,434.1406 Q61.0313,432.8125 61.6406,431.6719 Q62.2656,430.5156 63.3594,429.9063 Q64.4531,429.2813 65.6875,429.2813 Q66.4219,429.2813 67.0625,429.4531 Q67.7188,429.6094 68.2656,429.9688 Z "/><text fill="#000000" font-family="sans-serif" font-size="14" lengthAdjust="spacingAndGlyphs" textLength="164" x="79.5" y="433.5332">MailUtil.SmtpAuthenticator</text><text fill="#000000" font-family="sans-serif" font-size="10" lengthAdjust="spacingAndGlyphs" textLength="92" x="115.5" y="446.9902">org.apache.wiki.util</text></a><!--MD5=[bab1a94b5bcc432b517cb176a6041276]
reverse link org.apache.wiki.util.MailUtil to org.apache.wiki.util.MailUtil.SmtpAuthenticator--><path codeLine="30" d="M148.5,369.164 C148.5,386.9288 148.5,402.5427 148.5,413.9942 " fill="none" id="org.apache.wiki.util.MailUtil-backto-org.apache.wiki.util.MailUtil.SmtpAuthenticator" style="stroke: #A80036; stroke-width: 1.0;"/><ellipse cx="148.5001" cy="362.139" fill="#FFFFFF" rx="8" ry="8" style="stroke: #A80036; stroke-width: 1.0;"/><line style="stroke: #A80036; stroke-width: 1.0;" x1="148.5002" x2="148.5" y1="370.139" y2="354.139"/><line style="stroke: #A80036; stroke-width: 1.0;" x1="140.5001" x2="156.5001" y1="362.1391" y2="362.1389"/><text fill="#888888" font-family="sans-serif" font-size="10" lengthAdjust="spacingAndGlyphs" textLength="190" x="49.5" y="477.5684">UMLDoclet 2.0.12, PlantUML 1.2020.16</text><!--MD5=[a0e5766174c8369b81e99199072ee6c3]
@startuml
    set namespaceSeparator none
    hide empty fields
    hide empty methods

    class "<size:14>MailUtil\n<size:10>org.apache.wiki.util" as org.apache.wiki.util.MailUtil [[MailUtil.html]] {
        {static} #log: Logger
        {static} #DEFAULT_MAIL_JNDI_NAME: String
        {static} #DEFAULT_MAIL_HOST: String
        {static} #DEFAULT_MAIL_PORT: String
        {static} #DEFAULT_MAIL_TIMEOUT: String
        {static} #DEFAULT_MAIL_CONN_TIMEOUT: String
        {static} #DEFAULT_SENDER: String
        {static} #PROP_MAIL_JNDI_NAME: String
        {static} #PROP_MAIL_HOST: String
        {static} #PROP_MAIL_PORT: String
        {static} #PROP_MAIL_ACCOUNT: String
        {static} #PROP_MAIL_PASSWORD: String
        {static} #PROP_MAIL_TIMEOUT: String
        {static} #PROP_MAIL_CONNECTION_TIMEOUT: String
        {static} #PROP_MAIL_TRANSPORT: String
        {static} #PROP_MAIL_SENDER: String
        {static} #PROP_MAIL_STARTTLS: String
        {static} +sendMessage(Properties, String, String, String): void
        {static} #getSenderEmailAddress(Session, Properties): String
        {static} #getStandaloneMailSession(Properties): Session
        {static} #getJNDIMailSession(String): Session
    }
    class "<size:14>MailUtil.SmtpAuthenticator\n<size:10>org.apache.wiki.util" as org.apache.wiki.util.MailUtil.SmtpAuthenticator [[MailUtil.SmtpAuthenticator.html]]

    org.apache.wiki.util.MailUtil +- - org.apache.wiki.util.MailUtil.SmtpAuthenticator

    center footer UMLDoclet 2.0.12, PlantUML 1.2020.16
@enduml

PlantUML version 1.2020.16(Sun Aug 23 22:20:43 CEST 2020)
(APACHE source distribution)
Java Runtime: OpenJDK Runtime Environment
JVM: OpenJDK 64-Bit Server VM
Default Encoding: Cp1252
Language: es
Country: ES
--></g></svg>