<?xml version="1.0" encoding="UTF-8" standalone="no"?><svg xmlns="http://www.w3.org/2000/svg" xmlns:xlink="http://www.w3.org/1999/xlink" contentScriptType="application/ecmascript" contentStyleType="text/css" height="294px" preserveAspectRatio="none" style="width:202px;height:294px;" version="1.1" viewBox="0 0 202 294" width="202px" zoomAndPan="magnify"><defs><filter height="300%" id="f1oy3rdfnt4we1" width="300%" x="-1" y="-1"><feGaussianBlur result="blurOut" stdDeviation="2.0"/><feColorMatrix in="blurOut" result="blurOut2" type="matrix" values="0 0 0 0 0 0 0 0 0 0 0 0 0 0 0 0 0 0 .4 0"/><feOffset dx="4.0" dy="4.0" in="blurOut2" result="blurOut3"/><feBlend in="SourceGraphic" in2="blurOut3" mode="normal"/></filter></defs><g><!--MD5=[2d3f7f0ab69bc003d1d6c70e3737f2ed]
class org.apache.wiki.util.PriorityList--><a href="PriorityList.html" target="_top" title="PriorityList.html" xlink:actuate="onRequest" xlink:href="PriorityList.html" xlink:show="new" xlink:title="PriorityList.html" xlink:type="simple"><rect codeLine="5" fill="#FEFECE" filter="url(#f1oy3rdfnt4we1)" height="125.3672" id="org.apache.wiki.util.PriorityList" style="stroke: #A80036; stroke-width: 1.5;" width="141" x="27.5" y="132"/><ellipse cx="44.75" cy="152.0938" fill="#ADD1B2" rx="11" ry="11" style="stroke: #A80036; stroke-width: 1.0;"/><path d="M47.5156,147.9688 Q47.6719,147.75 47.8594,147.6406 Q48.0469,147.5313 48.2656,147.5313 Q48.6406,147.5313 48.875,147.7969 Q49.1094,148.0469 49.1094,148.6563 L49.1094,150.1094 Q49.1094,150.7188 48.875,150.9844 Q48.6406,151.25 48.2656,151.25 Q47.9219,151.25 47.7188,151.0469 Q47.5156,150.8594 47.4063,150.3438 Q47.3594,149.9844 47.1719,149.7969 Q46.8438,149.4219 46.2344,149.2031 Q45.625,148.9844 45,148.9844 Q44.2344,148.9844 43.5938,149.3125 Q42.9688,149.6406 42.4688,150.3906 Q41.9844,151.1406 41.9844,152.1719 L41.9844,153.2656 Q41.9844,154.5 42.875,155.3281 Q43.7656,156.1406 45.3594,156.1406 Q46.2969,156.1406 46.9531,155.8906 Q47.3438,155.7344 47.7656,155.2969 Q48.0313,155.0313 48.1719,154.9531 Q48.3281,154.875 48.5313,154.875 Q48.8594,154.875 49.1094,155.1406 Q49.375,155.3906 49.375,155.7344 Q49.375,156.0781 49.0313,156.4844 Q48.5313,157.0625 47.7344,157.3906 Q46.6563,157.8438 45.3594,157.8438 Q43.8438,157.8438 42.6406,157.2188 Q41.6563,156.7188 40.9688,155.6563 Q40.2813,154.5781 40.2813,153.2969 L40.2813,152.1406 Q40.2813,150.8125 40.8906,149.6719 Q41.5156,148.5156 42.6094,147.9063 Q43.7031,147.2813 44.9375,147.2813 Q45.6719,147.2813 46.3125,147.4531 Q46.9688,147.6094 47.5156,147.9688 Z "/><text fill="#000000" font-family="sans-serif" font-size="14" lengthAdjust="spacingAndGlyphs" textLength="66" x="72.25" y="151.5332">PriorityList</text><text fill="#000000" font-family="sans-serif" font-size="10" lengthAdjust="spacingAndGlyphs" textLength="92" x="59.25" y="164.9902">org.apache.wiki.util</text><rect fill="#FFFFFF" height="17.0938" style="stroke: #000000; stroke-width: 1.0; stroke-dasharray: 2.0,2.0;" width="10" x="161.5" y="129"/><text fill="#000000" font-family="sans-serif" font-size="12" font-style="italic" lengthAdjust="spacingAndGlyphs" textLength="8" x="162.5" y="142.457">E</text><line style="stroke: #A80036; stroke-width: 1.5;" x1="28.5" x2="167.5" y1="172.1875" y2="172.1875"/><ellipse cx="38.5" cy="183.1875" fill="none" rx="3" ry="3" style="stroke: #038048; stroke-width: 1.0;"/><text fill="#000000" font-family="sans-serif" font-size="11" lengthAdjust="spacingAndGlyphs" text-decoration="underline" textLength="115" x="47.5" y="187.6064">DEFAULT_PRIORITY: int</text><line style="stroke: #A80036; stroke-width: 1.5;" x1="28.5" x2="167.5" y1="194.0234" y2="194.0234"/><ellipse cx="38.5" cy="205.0234" fill="#84BE84" rx="3" ry="3" style="stroke: #038048; stroke-width: 1.0;"/><text fill="#000000" font-family="sans-serif" font-size="11" lengthAdjust="spacingAndGlyphs" textLength="75" x="47.5" y="209.4424">add(E, int): void</text><ellipse cx="38.5" cy="218.8594" fill="#84BE84" rx="3" ry="3" style="stroke: #038048; stroke-width: 1.0;"/><text fill="#000000" font-family="sans-serif" font-size="11" lengthAdjust="spacingAndGlyphs" textLength="76" x="47.5" y="223.2783">add(E): boolean</text><ellipse cx="38.5" cy="232.6953" fill="#84BE84" rx="3" ry="3" style="stroke: #038048; stroke-width: 1.0;"/><text fill="#000000" font-family="sans-serif" font-size="11" lengthAdjust="spacingAndGlyphs" textLength="46" x="47.5" y="237.1143">get(int): E</text><ellipse cx="38.5" cy="246.5313" fill="#84BE84" rx="3" ry="3" style="stroke: #038048; stroke-width: 1.0;"/><text fill="#000000" font-family="sans-serif" font-size="11" lengthAdjust="spacingAndGlyphs" textLength="45" x="47.5" y="250.9502">size(): int</text></a><!--MD5=[b47ccf88e6f6b1506854cd54eba8da6a]
class java.util.AbstractList--><rect codeLine="13" fill="#FEFECE" filter="url(#f1oy3rdfnt4we1)" height="62.0234" id="java.util.AbstractList" style="stroke: #A80036; stroke-width: 1.5;" width="118" x="39" y="10"/><ellipse cx="54" cy="30.0938" fill="#A9DCDF" rx="11" ry="11" style="stroke: #A80036; stroke-width: 1.0;"/><path d="M56.1875,31.8594 L52.0469,31.8594 L51.625,32.8906 L52.0469,32.8906 Q52.6563,32.8906 52.9219,33.125 Q53.1875,33.3594 53.1875,33.75 Q53.1875,34.125 52.9219,34.3594 Q52.6563,34.5938 52.0469,34.5938 L49.75,34.5938 Q49.1406,34.5938 48.8906,34.3594 Q48.625,34.125 48.625,33.7344 Q48.625,33.3594 48.9063,33.125 Q49.1719,32.875 49.7969,32.8906 L52.4688,26.2344 L51.3594,26.2344 Q50.75,26.2344 50.4844,26 Q50.2188,25.7656 50.2188,25.375 Q50.2188,25 50.4844,24.7656 Q50.75,24.5313 51.3594,24.5313 L55.0313,24.5313 L58.4219,32.8906 Q59.0156,32.8906 59.2031,33.0313 Q59.5938,33.2969 59.5938,33.75 Q59.5938,34.125 59.3281,34.3594 Q59.0781,34.5938 58.4688,34.5938 L56.1719,34.5938 Q55.5625,34.5938 55.2969,34.3594 Q55.0313,34.125 55.0313,33.7344 Q55.0313,33.3594 55.2969,33.125 Q55.5625,32.8906 56.1719,32.8906 L56.5938,32.8906 L56.1875,31.8594 Z M55.4688,30.1563 L54.1094,26.7813 L52.7344,30.1563 L55.4688,30.1563 Z "/><text fill="#000000" font-family="sans-serif" font-size="14" font-style="italic" lengthAdjust="spacingAndGlyphs" textLength="74" x="68" y="29.5332">AbstractList</text><text fill="#000000" font-family="sans-serif" font-size="10" font-style="italic" lengthAdjust="spacingAndGlyphs" textLength="37" x="86.5" y="42.9902">java.util</text><rect fill="#FFFFFF" height="17.0938" style="stroke: #000000; stroke-width: 1.0; stroke-dasharray: 2.0,2.0;" width="10" x="150" y="7"/><text fill="#000000" font-family="sans-serif" font-size="12" font-style="italic" lengthAdjust="spacingAndGlyphs" textLength="8" x="151" y="20.457">E</text><line style="stroke: #A80036; stroke-width: 1.5;" x1="40" x2="156" y1="50.1875" y2="50.1875"/><ellipse cx="50" cy="61.1875" fill="#84BE84" rx="3" ry="3" style="stroke: #038048; stroke-width: 1.0;"/><text fill="#000000" font-family="sans-serif" font-size="11" font-style="italic" lengthAdjust="spacingAndGlyphs" textLength="48" x="59" y="65.6064">get(int): E</text><!--MD5=[d21d46d37842f72b62f4ca10d383f3b0]
reverse link java.util.AbstractList to org.apache.wiki.util.PriorityList--><path codeLine="17" d="M98,92.146 C98,104.8423 98,118.5943 98,131.7751 " fill="none" id="java.util.AbstractList-backto-org.apache.wiki.util.PriorityList" style="stroke: #A80036; stroke-width: 1.0;"/><polygon fill="none" points="91.0001,92.0631,98,72.063,105.0001,92.063,91.0001,92.0631" style="stroke: #A80036; stroke-width: 1.0;"/><text fill="#888888" font-family="sans-serif" font-size="10" lengthAdjust="spacingAndGlyphs" textLength="190" x="0" y="280.748">UMLDoclet 2.0.12, PlantUML 1.2020.16</text><!--MD5=[633edca987714c73b37d8a63c4dde817]
@startuml
    set namespaceSeparator none
    hide empty fields
    hide empty methods

    class "<size:14>PriorityList\n<size:10>org.apache.wiki.util" as org.apache.wiki.util.PriorityList<E> [[PriorityList.html]] {
        {static} +DEFAULT_PRIORITY: int
        +add(E, int): void
        +add(E): boolean
        +get(int): E
        +size(): int
    }

    abstract class "<size:14>AbstractList\n<size:10>java.util" as java.util.AbstractList<E> {
        {abstract} +get(int): E
    }

    java.util.AbstractList <|- - org.apache.wiki.util.PriorityList

    center footer UMLDoclet 2.0.12, PlantUML 1.2020.16
@enduml

PlantUML version 1.2020.16(Sun Aug 23 22:20:43 CEST 2020)
(APACHE source distribution)
Java Runtime: OpenJDK Runtime Environment
JVM: OpenJDK 64-Bit Server VM
Default Encoding: Cp1252
Language: es
Country: ES
--></g></svg>