<?xml version="1.0" encoding="UTF-8" standalone="no"?><svg xmlns="http://www.w3.org/2000/svg" xmlns:xlink="http://www.w3.org/1999/xlink" contentScriptType="application/ecmascript" contentStyleType="text/css" height="768px" preserveAspectRatio="none" style="width:2069px;height:768px;" version="1.1" viewBox="0 0 2069 768" width="2069px" zoomAndPan="magnify"><defs><filter height="300%" id="f1w7mvvmk20kt8" width="300%" x="-1" y="-1"><feGaussianBlur result="blurOut" stdDeviation="2.0"/><feColorMatrix in="blurOut" result="blurOut2" type="matrix" values="0 0 0 0 0 0 0 0 0 0 0 0 0 0 0 0 0 0 .4 0"/><feOffset dx="4.0" dy="4.0" in="blurOut2" result="blurOut3"/><feBlend in="SourceGraphic" in2="blurOut3" mode="normal"/></filter></defs><g><!--MD5=[3b373063fa179093f31377309d463d45]
cluster org.apache.wiki.render--><polygon fill="#FFFFFF" filter="url(#f1w7mvvmk20kt8)" points="123,140,313,140,320,162.2969,2047,162.2969,2047,740,123,740,123,140" style="stroke: #000000; stroke-width: 1.5;"/><line style="stroke: #000000; stroke-width: 1.5;" x1="123" x2="320" y1="162.2969" y2="162.2969"/><text fill="#000000" font-family="sans-serif" font-size="14" font-weight="bold" lengthAdjust="spacingAndGlyphs" textLength="184" x="127" y="154.9951">org.apache.wiki.render</text><!--MD5=[06e4b2620a8b168056b961578cd367b2]
cluster org.apache.wiki.api.engine--><polygon fill="#FFFFFF" filter="url(#f1w7mvvmk20kt8)" points="16,12.5,234,12.5,241,34.7969,509,34.7969,509,108.5,16,108.5,16,12.5" style="stroke: #000000; stroke-width: 1.5;"/><line style="stroke: #000000; stroke-width: 1.5;" x1="16" x2="241" y1="34.7969" y2="34.7969"/><text fill="#000000" font-family="sans-serif" font-size="14" font-weight="bold" lengthAdjust="spacingAndGlyphs" textLength="212" x="20" y="27.4951">org.apache.wiki.api.engine</text><!--MD5=[73faa91e05492c377d111539776da6fd]
cluster org.apache.wiki.event--><polygon fill="#FFFFFF" filter="url(#f1w7mvvmk20kt8)" points="528,12.5,709,12.5,716,34.7969,760,34.7969,760,108.5,528,108.5,528,12.5" style="stroke: #000000; stroke-width: 1.5;"/><line style="stroke: #000000; stroke-width: 1.5;" x1="528" x2="716" y1="34.7969" y2="34.7969"/><text fill="#000000" font-family="sans-serif" font-size="14" font-weight="bold" lengthAdjust="spacingAndGlyphs" textLength="175" x="532" y="27.4951">org.apache.wiki.event</text><!--MD5=[ba14b7e446e59558acdd58a8e641054c]
cluster org.apache.wiki.modules--><polygon fill="#FFFFFF" filter="url(#f1w7mvvmk20kt8)" points="773,19,976,19,983,41.2969,986,41.2969,986,102,773,102,773,19" style="stroke: #000000; stroke-width: 1.5;"/><line style="stroke: #000000; stroke-width: 1.5;" x1="773" x2="983" y1="41.2969" y2="41.2969"/><text fill="#000000" font-family="sans-serif" font-size="14" font-weight="bold" lengthAdjust="spacingAndGlyphs" textLength="197" x="777" y="33.9951">org.apache.wiki.modules</text><!--MD5=[56305472176d3236625db78282a0c4e4]
cluster org.jdom2.output.support--><polygon fill="#FFFFFF" filter="url(#f1w7mvvmk20kt8)" points="1023,6,1233,6,1240,28.2969,1251,28.2969,1251,115,1023,115,1023,6" style="stroke: #000000; stroke-width: 1.5;"/><line style="stroke: #000000; stroke-width: 1.5;" x1="1023" x2="1240" y1="28.2969" y2="28.2969"/><text fill="#000000" font-family="sans-serif" font-size="14" font-weight="bold" lengthAdjust="spacingAndGlyphs" textLength="204" x="1027" y="20.9951">org.jdom2.output.support</text><!--MD5=[2960548a459148fa97fc999510a22891]
class org.apache.wiki.render.DefaultRenderingManager--><a href="DefaultRenderingManager.html" target="_top" title="DefaultRenderingManager.html" xlink:actuate="onRequest" xlink:href="DefaultRenderingManager.html" xlink:show="new" xlink:title="DefaultRenderingManager.html" xlink:type="simple"><rect codeLine="3" fill="#FEFECE" filter="url(#f1w7mvvmk20kt8)" height="214.4609" id="org.apache.wiki.render.DefaultRenderingManager" style="stroke: #A80036; stroke-width: 1.5;" width="692" x="131" y="518"/><ellipse cx="390.75" cy="534" fill="#ADD1B2" rx="11" ry="11" style="stroke: #A80036; stroke-width: 1.0;"/><path d="M393.7188,539.6406 Q393.1406,539.9375 392.5,540.0781 Q391.8594,540.2344 391.1563,540.2344 Q388.6563,540.2344 387.3281,538.5938 Q386.0156,536.9375 386.0156,533.8125 Q386.0156,530.6875 387.3281,529.0313 Q388.6563,527.375 391.1563,527.375 Q391.8594,527.375 392.5,527.5313 Q393.1563,527.6875 393.7188,527.9844 L393.7188,530.7031 Q393.0938,530.125 392.5,529.8594 Q391.9063,529.5781 391.2813,529.5781 Q389.9375,529.5781 389.25,530.6563 Q388.5625,531.7188 388.5625,533.8125 Q388.5625,535.9063 389.25,536.9844 Q389.9375,538.0469 391.2813,538.0469 Q391.9063,538.0469 392.5,537.7813 Q393.0938,537.5 393.7188,536.9219 L393.7188,539.6406 Z "/><text fill="#000000" font-family="sans-serif" font-size="12" lengthAdjust="spacingAndGlyphs" textLength="164" x="411.25" y="538.1543">DefaultRenderingManager</text><line style="stroke: #A80036; stroke-width: 1.5;" x1="132" x2="822" y1="550" y2="550"/><line style="stroke: #A80036; stroke-width: 1.5;" x1="132" x2="822" y1="558" y2="558"/><ellipse cx="142" cy="569" fill="#84BE84" rx="3" ry="3" style="stroke: #038048; stroke-width: 1.0;"/><text fill="#000000" font-family="sans-serif" font-size="11" lengthAdjust="spacingAndGlyphs" textLength="189" x="151" y="572.2104">initialize(Engine, Properties): void</text><ellipse cx="142" cy="581.8047" fill="#84BE84" rx="3" ry="3" style="stroke: #038048; stroke-width: 1.0;"/><text fill="#000000" font-family="sans-serif" font-size="11" lengthAdjust="spacingAndGlyphs" textLength="153" x="151" y="585.0151">beautifyTitle(String): String</text><ellipse cx="142" cy="594.6094" fill="#84BE84" rx="3" ry="3" style="stroke: #038048; stroke-width: 1.0;"/><text fill="#000000" font-family="sans-serif" font-size="11" lengthAdjust="spacingAndGlyphs" textLength="201" x="151" y="597.8198">beautifyTitleNoBreak(String): String</text><ellipse cx="142" cy="607.4141" fill="#84BE84" rx="3" ry="3" style="stroke: #038048; stroke-width: 1.0;"/><text fill="#000000" font-family="sans-serif" font-size="11" lengthAdjust="spacingAndGlyphs" textLength="236" x="151" y="610.6245">getParser(Context, String): MarkupParser</text><ellipse cx="142" cy="620.2188" fill="#84BE84" rx="3" ry="3" style="stroke: #038048; stroke-width: 1.0;"/><text fill="#000000" font-family="sans-serif" font-size="11" lengthAdjust="spacingAndGlyphs" textLength="308" x="151" y="623.4292">getRenderedDocument(Context, String): WikiDocument</text><ellipse cx="142" cy="633.0234" fill="#84BE84" rx="3" ry="3" style="stroke: #038048; stroke-width: 1.0;"/><text fill="#000000" font-family="sans-serif" font-size="11" lengthAdjust="spacingAndGlyphs" textLength="227" x="151" y="636.2339">getHTML(Context, WikiDocument): String</text><ellipse cx="142" cy="645.8281" fill="#84BE84" rx="3" ry="3" style="stroke: #038048; stroke-width: 1.0;"/><text fill="#000000" font-family="sans-serif" font-size="11" lengthAdjust="spacingAndGlyphs" textLength="177" x="151" y="649.0386">getHTML(Context, Page): String</text><ellipse cx="142" cy="658.6328" fill="#84BE84" rx="3" ry="3" style="stroke: #038048; stroke-width: 1.0;"/><text fill="#000000" font-family="sans-serif" font-size="11" lengthAdjust="spacingAndGlyphs" textLength="154" x="151" y="661.8433">getHTML(String, int): String</text><ellipse cx="142" cy="671.4375" fill="#84BE84" rx="3" ry="3" style="stroke: #038048; stroke-width: 1.0;"/><text fill="#000000" font-family="sans-serif" font-size="11" lengthAdjust="spacingAndGlyphs" textLength="200" x="151" y="674.6479">textToHTML(Context, String): String</text><ellipse cx="142" cy="684.2422" fill="#84BE84" rx="3" ry="3" style="stroke: #038048; stroke-width: 1.0;"/><text fill="#000000" font-family="sans-serif" font-size="11" lengthAdjust="spacingAndGlyphs" textLength="666" x="151" y="687.4526">textToHTML(Context, String, StringTransmutator, StringTransmutator, StringTransmutator, boolean, boolean): String</text><ellipse cx="142" cy="697.0469" fill="#84BE84" rx="3" ry="3" style="stroke: #038048; stroke-width: 1.0;"/><text fill="#000000" font-family="sans-serif" font-size="11" lengthAdjust="spacingAndGlyphs" textLength="288" x="151" y="700.2573">getRenderer(Context, WikiDocument): WikiRenderer</text><ellipse cx="142" cy="709.8516" fill="#84BE84" rx="3" ry="3" style="stroke: #038048; stroke-width: 1.0;"/><text fill="#000000" font-family="sans-serif" font-size="11" lengthAdjust="spacingAndGlyphs" textLength="335" x="151" y="713.062">getWysiwygRenderer(Context, WikiDocument): WikiRenderer</text><ellipse cx="142" cy="722.6563" fill="#84BE84" rx="3" ry="3" style="stroke: #038048; stroke-width: 1.0;"/><text fill="#000000" font-family="sans-serif" font-size="11" lengthAdjust="spacingAndGlyphs" textLength="185" x="151" y="725.8667">actionPerformed(WikiEvent): void</text></a><!--MD5=[7babe8c7ef4daa3618c3d415a67c592e]
class org.apache.wiki.render.CreoleRenderer--><a href="CreoleRenderer.html" target="_top" title="CreoleRenderer.html" xlink:actuate="onRequest" xlink:href="CreoleRenderer.html" xlink:show="new" xlink:title="CreoleRenderer.html" xlink:type="simple"><rect codeLine="19" fill="#FEFECE" filter="url(#f1w7mvvmk20kt8)" height="73.6094" id="org.apache.wiki.render.CreoleRenderer" style="stroke: #A80036; stroke-width: 1.5;" width="252" x="1787" y="588"/><ellipse cx="1859.75" cy="604" fill="#ADD1B2" rx="11" ry="11" style="stroke: #A80036; stroke-width: 1.0;"/><path d="M1862.7188,609.6406 Q1862.1406,609.9375 1861.5,610.0781 Q1860.8594,610.2344 1860.1563,610.2344 Q1857.6563,610.2344 1856.3281,608.5938 Q1855.0156,606.9375 1855.0156,603.8125 Q1855.0156,600.6875 1856.3281,599.0313 Q1857.6563,597.375 1860.1563,597.375 Q1860.8594,597.375 1861.5,597.5313 Q1862.1563,597.6875 1862.7188,597.9844 L1862.7188,600.7031 Q1862.0938,600.125 1861.5,599.8594 Q1860.9063,599.5781 1860.2813,599.5781 Q1858.9375,599.5781 1858.25,600.6563 Q1857.5625,601.7188 1857.5625,603.8125 Q1857.5625,605.9063 1858.25,606.9844 Q1858.9375,608.0469 1860.2813,608.0469 Q1860.9063,608.0469 1861.5,607.7813 Q1862.0938,607.5 1862.7188,606.9219 L1862.7188,609.6406 Z "/><text fill="#000000" font-family="sans-serif" font-size="12" lengthAdjust="spacingAndGlyphs" textLength="98" x="1880.25" y="608.1543">CreoleRenderer</text><line style="stroke: #A80036; stroke-width: 1.5;" x1="1788" x2="2038" y1="620" y2="620"/><line style="stroke: #A80036; stroke-width: 1.5;" x1="1788" x2="2038" y1="628" y2="628"/><ellipse cx="1798" cy="639" fill="#84BE84" rx="3" ry="3" style="stroke: #038048; stroke-width: 1.0;"/><text fill="#000000" font-family="sans-serif" font-size="11" lengthAdjust="spacingAndGlyphs" textLength="226" x="1807" y="642.2104">CreoleRenderer(Context, WikiDocument)</text><ellipse cx="1798" cy="651.8047" fill="#84BE84" rx="3" ry="3" style="stroke: #038048; stroke-width: 1.0;"/><text fill="#000000" font-family="sans-serif" font-size="11" lengthAdjust="spacingAndGlyphs" textLength="102" x="1807" y="655.0151">getString(): String</text></a><!--MD5=[943f3551c3cbba80d8936af72abf630e]
class org.apache.wiki.render.CleanTextRenderer--><a href="CleanTextRenderer.html" target="_top" title="CleanTextRenderer.html" xlink:actuate="onRequest" xlink:href="CleanTextRenderer.html" xlink:show="new" xlink:title="CleanTextRenderer.html" xlink:type="simple"><rect codeLine="24" fill="#FEFECE" filter="url(#f1w7mvvmk20kt8)" height="73.6094" id="org.apache.wiki.render.CleanTextRenderer" style="stroke: #A80036; stroke-width: 1.5;" width="271" x="858.5" y="588"/><ellipse cx="930.25" cy="604" fill="#ADD1B2" rx="11" ry="11" style="stroke: #A80036; stroke-width: 1.0;"/><path d="M933.2188,609.6406 Q932.6406,609.9375 932,610.0781 Q931.3594,610.2344 930.6563,610.2344 Q928.1563,610.2344 926.8281,608.5938 Q925.5156,606.9375 925.5156,603.8125 Q925.5156,600.6875 926.8281,599.0313 Q928.1563,597.375 930.6563,597.375 Q931.3594,597.375 932,597.5313 Q932.6563,597.6875 933.2188,597.9844 L933.2188,600.7031 Q932.5938,600.125 932,599.8594 Q931.4063,599.5781 930.7813,599.5781 Q929.4375,599.5781 928.75,600.6563 Q928.0625,601.7188 928.0625,603.8125 Q928.0625,605.9063 928.75,606.9844 Q929.4375,608.0469 930.7813,608.0469 Q931.4063,608.0469 932,607.7813 Q932.5938,607.5 933.2188,606.9219 L933.2188,609.6406 Z "/><text fill="#000000" font-family="sans-serif" font-size="12" lengthAdjust="spacingAndGlyphs" textLength="119" x="950.75" y="608.1543">CleanTextRenderer</text><line style="stroke: #A80036; stroke-width: 1.5;" x1="859.5" x2="1128.5" y1="620" y2="620"/><line style="stroke: #A80036; stroke-width: 1.5;" x1="859.5" x2="1128.5" y1="628" y2="628"/><ellipse cx="869.5" cy="639" fill="#84BE84" rx="3" ry="3" style="stroke: #038048; stroke-width: 1.0;"/><text fill="#000000" font-family="sans-serif" font-size="11" lengthAdjust="spacingAndGlyphs" textLength="245" x="878.5" y="642.2104">CleanTextRenderer(Context, WikiDocument)</text><ellipse cx="869.5" cy="651.8047" fill="#84BE84" rx="3" ry="3" style="stroke: #038048; stroke-width: 1.0;"/><text fill="#000000" font-family="sans-serif" font-size="11" lengthAdjust="spacingAndGlyphs" textLength="102" x="878.5" y="655.0151">getString(): String</text></a><!--MD5=[6ce2b85b05609a3a2488a5ad64e6f1da]
class org.apache.wiki.render.XHTMLRenderer--><a href="XHTMLRenderer.html" target="_top" title="XHTMLRenderer.html" xlink:actuate="onRequest" xlink:href="XHTMLRenderer.html" xlink:show="new" xlink:title="XHTMLRenderer.html" xlink:type="simple"><rect codeLine="29" fill="#FEFECE" filter="url(#f1w7mvvmk20kt8)" height="73.6094" id="org.apache.wiki.render.XHTMLRenderer" style="stroke: #A80036; stroke-width: 1.5;" width="252" x="1165" y="588"/><ellipse cx="1238.25" cy="604" fill="#ADD1B2" rx="11" ry="11" style="stroke: #A80036; stroke-width: 1.0;"/><path d="M1241.2188,609.6406 Q1240.6406,609.9375 1240,610.0781 Q1239.3594,610.2344 1238.6563,610.2344 Q1236.1563,610.2344 1234.8281,608.5938 Q1233.5156,606.9375 1233.5156,603.8125 Q1233.5156,600.6875 1234.8281,599.0313 Q1236.1563,597.375 1238.6563,597.375 Q1239.3594,597.375 1240,597.5313 Q1240.6563,597.6875 1241.2188,597.9844 L1241.2188,600.7031 Q1240.5938,600.125 1240,599.8594 Q1239.4063,599.5781 1238.7813,599.5781 Q1237.4375,599.5781 1236.75,600.6563 Q1236.0625,601.7188 1236.0625,603.8125 Q1236.0625,605.9063 1236.75,606.9844 Q1237.4375,608.0469 1238.7813,608.0469 Q1239.4063,608.0469 1240,607.7813 Q1240.5938,607.5 1241.2188,606.9219 L1241.2188,609.6406 Z "/><text fill="#000000" font-family="sans-serif" font-size="12" lengthAdjust="spacingAndGlyphs" textLength="97" x="1258.75" y="608.1543">XHTMLRenderer</text><line style="stroke: #A80036; stroke-width: 1.5;" x1="1166" x2="1416" y1="620" y2="620"/><line style="stroke: #A80036; stroke-width: 1.5;" x1="1166" x2="1416" y1="628" y2="628"/><ellipse cx="1176" cy="639" fill="#84BE84" rx="3" ry="3" style="stroke: #038048; stroke-width: 1.0;"/><text fill="#000000" font-family="sans-serif" font-size="11" lengthAdjust="spacingAndGlyphs" textLength="226" x="1185" y="642.2104">XHTMLRenderer(Context, WikiDocument)</text><ellipse cx="1176" cy="651.8047" fill="#84BE84" rx="3" ry="3" style="stroke: #038048; stroke-width: 1.0;"/><text fill="#000000" font-family="sans-serif" font-size="11" lengthAdjust="spacingAndGlyphs" textLength="102" x="1185" y="655.0151">getString(): String</text></a><!--MD5=[9c181a8998c980c40d8613e944bc5e5b]
class org.apache.wiki.render.WikiRenderer--><a href="WikiRenderer.html" target="_top" title="WikiRenderer.html" xlink:actuate="onRequest" xlink:href="WikiRenderer.html" xlink:show="new" xlink:title="WikiRenderer.html" xlink:type="simple"><rect codeLine="34" fill="#FEFECE" filter="url(#f1w7mvvmk20kt8)" height="124.8281" id="org.apache.wiki.render.WikiRenderer" style="stroke: #A80036; stroke-width: 1.5;" width="236" x="1380" y="250"/><ellipse cx="1452.25" cy="266" fill="#A9DCDF" rx="11" ry="11" style="stroke: #A80036; stroke-width: 1.0;"/><path d="M1452.3594,261.3438 L1451.2031,266.4219 L1453.5313,266.4219 L1452.3594,261.3438 Z M1450.875,259.1094 L1453.8594,259.1094 L1457.2188,271.5 L1454.7656,271.5 L1454,268.4375 L1450.7188,268.4375 L1449.9688,271.5 L1447.5313,271.5 L1450.875,259.1094 Z "/><text fill="#000000" font-family="sans-serif" font-size="12" font-style="italic" lengthAdjust="spacingAndGlyphs" textLength="83" x="1472.75" y="270.1543">WikiRenderer</text><line style="stroke: #A80036; stroke-width: 1.5;" x1="1381" x2="1615" y1="282" y2="282"/><polygon fill="none" points="1391,288,1395,292,1391,296,1387,292" style="stroke: #B38D22; stroke-width: 1.0;"/><text fill="#000000" font-family="sans-serif" font-size="11" lengthAdjust="spacingAndGlyphs" textLength="109" x="1400" y="296.2104">m_context: Context</text><polygon fill="none" points="1391,300.8047,1395,304.8047,1391,308.8047,1387,304.8047" style="stroke: #B38D22; stroke-width: 1.0;"/><text fill="#000000" font-family="sans-serif" font-size="11" lengthAdjust="spacingAndGlyphs" textLength="159" x="1400" y="309.0151">m_document: WikiDocument</text><ellipse cx="1391" cy="318.6094" fill="none" rx="3" ry="3" style="stroke: #038048; stroke-width: 1.0;"/><text fill="#000000" font-family="sans-serif" font-size="11" lengthAdjust="spacingAndGlyphs" text-decoration="underline" textLength="157" x="1400" y="321.8198">LINKS_TRANSLATION: String</text><ellipse cx="1391" cy="331.4141" fill="none" rx="3" ry="3" style="stroke: #038048; stroke-width: 1.0;"/><text fill="#000000" font-family="sans-serif" font-size="11" lengthAdjust="spacingAndGlyphs" text-decoration="underline" textLength="127" x="1400" y="334.6245">LINKS_SOURCE: String</text><line style="stroke: #A80036; stroke-width: 1.5;" x1="1381" x2="1615" y1="341.2188" y2="341.2188"/><polygon fill="#FFFF44" points="1391,347.2188,1395,351.2188,1391,355.2188,1387,351.2188" style="stroke: #B38D22; stroke-width: 1.0;"/><text fill="#000000" font-family="sans-serif" font-size="11" lengthAdjust="spacingAndGlyphs" textLength="210" x="1400" y="355.4292">WikiRenderer(Context, WikiDocument)</text><ellipse cx="1391" cy="365.0234" fill="#84BE84" rx="3" ry="3" style="stroke: #038048; stroke-width: 1.0;"/><text fill="#000000" font-family="sans-serif" font-size="11" font-style="italic" lengthAdjust="spacingAndGlyphs" textLength="100" x="1400" y="368.2339">getString(): String</text></a><!--MD5=[6e594fdbb075d8f8a18805139be3e305]
class org.apache.wiki.render.RenderingManager--><a href="RenderingManager.html" target="_top" title="RenderingManager.html" xlink:actuate="onRequest" xlink:href="RenderingManager.html" xlink:show="new" xlink:title="RenderingManager.html" xlink:type="simple"><rect codeLine="43" fill="#FEFECE" filter="url(#f1w7mvvmk20kt8)" height="291.2891" id="org.apache.wiki.render.RenderingManager" style="stroke: #A80036; stroke-width: 1.5;" width="686" x="134" y="167"/><ellipse cx="413.25" cy="183" fill="#B4A7E5" rx="11" ry="11" style="stroke: #A80036; stroke-width: 1.0;"/><path d="M409.1719,178.7656 L409.1719,176.6094 L416.5625,176.6094 L416.5625,178.7656 L414.0938,178.7656 L414.0938,186.8438 L416.5625,186.8438 L416.5625,189 L409.1719,189 L409.1719,186.8438 L411.6406,186.8438 L411.6406,178.7656 L409.1719,178.7656 Z "/><text fill="#000000" font-family="sans-serif" font-size="12" font-style="italic" lengthAdjust="spacingAndGlyphs" textLength="119" x="433.75" y="187.1543">RenderingManager</text><line style="stroke: #A80036; stroke-width: 1.5;" x1="135" x2="819" y1="199" y2="199"/><ellipse cx="145" cy="210" fill="none" rx="3" ry="3" style="stroke: #038048; stroke-width: 1.0;"/><text fill="#000000" font-family="sans-serif" font-size="11" lengthAdjust="spacingAndGlyphs" text-decoration="underline" textLength="121" x="154" y="213.2104">PROP_PARSER: String</text><ellipse cx="145" cy="222.8047" fill="none" rx="3" ry="3" style="stroke: #038048; stroke-width: 1.0;"/><text fill="#000000" font-family="sans-serif" font-size="11" lengthAdjust="spacingAndGlyphs" text-decoration="underline" textLength="136" x="154" y="226.0151">PROP_RENDERER: String</text><ellipse cx="145" cy="235.6094" fill="none" rx="3" ry="3" style="stroke: #038048; stroke-width: 1.0;"/><text fill="#000000" font-family="sans-serif" font-size="11" lengthAdjust="spacingAndGlyphs" text-decoration="underline" textLength="194" x="154" y="238.8198">PROP_WYSIWYG_RENDERER: String</text><ellipse cx="145" cy="248.4141" fill="none" rx="3" ry="3" style="stroke: #038048; stroke-width: 1.0;"/><text fill="#000000" font-family="sans-serif" font-size="11" lengthAdjust="spacingAndGlyphs" text-decoration="underline" textLength="161" x="154" y="251.6245">PROP_BEAUTIFYTITLE: String</text><ellipse cx="145" cy="261.2188" fill="none" rx="3" ry="3" style="stroke: #038048; stroke-width: 1.0;"/><text fill="#000000" font-family="sans-serif" font-size="11" lengthAdjust="spacingAndGlyphs" text-decoration="underline" textLength="181" x="154" y="264.4292">DOCUMENTCACHE_NAME: String</text><line style="stroke: #A80036; stroke-width: 1.5;" x1="135" x2="819" y1="271.0234" y2="271.0234"/><ellipse cx="145" cy="282.0234" fill="#84BE84" rx="3" ry="3" style="stroke: #038048; stroke-width: 1.0;"/><text fill="#000000" font-family="sans-serif" font-size="11" font-style="italic" lengthAdjust="spacingAndGlyphs" textLength="152" x="154" y="285.2339">beautifyTitle(String): String</text><ellipse cx="145" cy="294.8281" fill="#84BE84" rx="3" ry="3" style="stroke: #038048; stroke-width: 1.0;"/><text fill="#000000" font-family="sans-serif" font-size="11" font-style="italic" lengthAdjust="spacingAndGlyphs" textLength="200" x="154" y="298.0386">beautifyTitleNoBreak(String): String</text><ellipse cx="145" cy="307.6328" fill="#84BE84" rx="3" ry="3" style="stroke: #038048; stroke-width: 1.0;"/><text fill="#000000" font-family="sans-serif" font-size="11" font-style="italic" lengthAdjust="spacingAndGlyphs" textLength="234" x="154" y="310.8433">getParser(Context, String): MarkupParser</text><ellipse cx="145" cy="320.4375" fill="#84BE84" rx="3" ry="3" style="stroke: #038048; stroke-width: 1.0;"/><text fill="#000000" font-family="sans-serif" font-size="11" font-style="italic" lengthAdjust="spacingAndGlyphs" textLength="311" x="154" y="323.6479">getRenderedDocument(Context, String): WikiDocument</text><ellipse cx="145" cy="333.2422" fill="#84BE84" rx="3" ry="3" style="stroke: #038048; stroke-width: 1.0;"/><text fill="#000000" font-family="sans-serif" font-size="11" font-style="italic" lengthAdjust="spacingAndGlyphs" textLength="295" x="154" y="336.4526">getRenderer(Context, WikiDocument): WikiRenderer</text><ellipse cx="145" cy="346.0469" fill="#84BE84" rx="3" ry="3" style="stroke: #038048; stroke-width: 1.0;"/><text fill="#000000" font-family="sans-serif" font-size="11" font-style="italic" lengthAdjust="spacingAndGlyphs" textLength="345" x="154" y="349.2573">getWysiwygRenderer(Context, WikiDocument): WikiRenderer</text><ellipse cx="145" cy="358.8516" fill="#84BE84" rx="3" ry="3" style="stroke: #038048; stroke-width: 1.0;"/><text fill="#000000" font-family="sans-serif" font-size="11" font-style="italic" lengthAdjust="spacingAndGlyphs" textLength="229" x="154" y="362.062">getHTML(Context, WikiDocument): String</text><ellipse cx="145" cy="371.6563" fill="#84BE84" rx="3" ry="3" style="stroke: #038048; stroke-width: 1.0;"/><text fill="#000000" font-family="sans-serif" font-size="11" font-style="italic" lengthAdjust="spacingAndGlyphs" textLength="177" x="154" y="374.8667">getHTML(Context, Page): String</text><ellipse cx="145" cy="384.4609" fill="#84BE84" rx="3" ry="3" style="stroke: #038048; stroke-width: 1.0;"/><text fill="#000000" font-family="sans-serif" font-size="11" font-style="italic" lengthAdjust="spacingAndGlyphs" textLength="152" x="154" y="387.6714">getHTML(String, int): String</text><ellipse cx="145" cy="397.2656" fill="#84BE84" rx="3" ry="3" style="stroke: #038048; stroke-width: 1.0;"/><text fill="#000000" font-family="sans-serif" font-size="11" lengthAdjust="spacingAndGlyphs" textLength="183" x="154" y="400.4761">getHTML(Context, String): String</text><ellipse cx="145" cy="410.0703" fill="#84BE84" rx="3" ry="3" style="stroke: #038048; stroke-width: 1.0;"/><text fill="#000000" font-family="sans-serif" font-size="11" lengthAdjust="spacingAndGlyphs" textLength="132" x="154" y="413.2808">getHTML(String): String</text><ellipse cx="145" cy="422.875" fill="#84BE84" rx="3" ry="3" style="stroke: #038048; stroke-width: 1.0;"/><text fill="#000000" font-family="sans-serif" font-size="11" font-style="italic" lengthAdjust="spacingAndGlyphs" textLength="660" x="154" y="426.0854">textToHTML(Context, String, StringTransmutator, StringTransmutator, StringTransmutator, boolean, boolean): String</text><ellipse cx="145" cy="435.6797" fill="#84BE84" rx="3" ry="3" style="stroke: #038048; stroke-width: 1.0;"/><text fill="#000000" font-family="sans-serif" font-size="11" lengthAdjust="spacingAndGlyphs" textLength="440" x="154" y="438.8901">textToHTML(Context, String, StringTransmutator, StringTransmutator): String</text><ellipse cx="145" cy="448.4844" fill="#84BE84" rx="3" ry="3" style="stroke: #038048; stroke-width: 1.0;"/><text fill="#000000" font-family="sans-serif" font-size="11" lengthAdjust="spacingAndGlyphs" textLength="560" x="154" y="451.6948">textToHTML(Context, String, StringTransmutator, StringTransmutator, StringTransmutator): String</text></a><!--MD5=[ea910bea1f99ca20ba9c07452042f4d9]
class org.apache.wiki.render.CustomXMLOutputProcessor--><a href="CustomXMLOutputProcessor.html" target="_top" title="CustomXMLOutputProcessor.html" xlink:actuate="onRequest" xlink:href="CustomXMLOutputProcessor.html" xlink:show="new" xlink:title="CustomXMLOutputProcessor.html" xlink:type="simple"><rect codeLine="65" fill="#FEFECE" filter="url(#f1w7mvvmk20kt8)" height="60.8047" id="org.apache.wiki.render.CustomXMLOutputProcessor" style="stroke: #A80036; stroke-width: 1.5;" width="385" x="944.5" y="282"/><ellipse cx="1044.75" cy="298" fill="#ADD1B2" rx="11" ry="11" style="stroke: #A80036; stroke-width: 1.0;"/><path d="M1047.7188,303.6406 Q1047.1406,303.9375 1046.5,304.0781 Q1045.8594,304.2344 1045.1563,304.2344 Q1042.6563,304.2344 1041.3281,302.5938 Q1040.0156,300.9375 1040.0156,297.8125 Q1040.0156,294.6875 1041.3281,293.0313 Q1042.6563,291.375 1045.1563,291.375 Q1045.8594,291.375 1046.5,291.5313 Q1047.1563,291.6875 1047.7188,291.9844 L1047.7188,294.7031 Q1047.0938,294.125 1046.5,293.8594 Q1045.9063,293.5781 1045.2813,293.5781 Q1043.9375,293.5781 1043.25,294.6563 Q1042.5625,295.7188 1042.5625,297.8125 Q1042.5625,299.9063 1043.25,300.9844 Q1043.9375,302.0469 1045.2813,302.0469 Q1045.9063,302.0469 1046.5,301.7813 Q1047.0938,301.5 1047.7188,300.9219 L1047.7188,303.6406 Z "/><text fill="#000000" font-family="sans-serif" font-size="12" lengthAdjust="spacingAndGlyphs" textLength="176" x="1065.25" y="302.1543">CustomXMLOutputProcessor</text><line style="stroke: #A80036; stroke-width: 1.5;" x1="945.5" x2="1328.5" y1="314" y2="314"/><line style="stroke: #A80036; stroke-width: 1.5;" x1="945.5" x2="1328.5" y1="322" y2="322"/><polygon fill="#FFFF44" points="955.5,328,959.5,332,955.5,336,951.5,332" style="stroke: #B38D22; stroke-width: 1.0;"/><text fill="#000000" font-family="sans-serif" font-size="11" lengthAdjust="spacingAndGlyphs" textLength="359" x="964.5" y="336.2104">attributeEscapedEntitiesFilter(Writer, FormatStack, String): void</text></a><!--MD5=[badd4c12b723bbecfef86826085280fc]
class org.apache.wiki.render.WysiwygEditingRenderer--><a href="WysiwygEditingRenderer.html" target="_top" title="WysiwygEditingRenderer.html" xlink:actuate="onRequest" xlink:href="WysiwygEditingRenderer.html" xlink:show="new" xlink:title="WysiwygEditingRenderer.html" xlink:type="simple"><rect codeLine="69" fill="#FEFECE" filter="url(#f1w7mvvmk20kt8)" height="73.6094" id="org.apache.wiki.render.WysiwygEditingRenderer" style="stroke: #A80036; stroke-width: 1.5;" width="300" x="1452" y="588"/><ellipse cx="1522.25" cy="604" fill="#ADD1B2" rx="11" ry="11" style="stroke: #A80036; stroke-width: 1.0;"/><path d="M1525.2188,609.6406 Q1524.6406,609.9375 1524,610.0781 Q1523.3594,610.2344 1522.6563,610.2344 Q1520.1563,610.2344 1518.8281,608.5938 Q1517.5156,606.9375 1517.5156,603.8125 Q1517.5156,600.6875 1518.8281,599.0313 Q1520.1563,597.375 1522.6563,597.375 Q1523.3594,597.375 1524,597.5313 Q1524.6563,597.6875 1525.2188,597.9844 L1525.2188,600.7031 Q1524.5938,600.125 1524,599.8594 Q1523.4063,599.5781 1522.7813,599.5781 Q1521.4375,599.5781 1520.75,600.6563 Q1520.0625,601.7188 1520.0625,603.8125 Q1520.0625,605.9063 1520.75,606.9844 Q1521.4375,608.0469 1522.7813,608.0469 Q1523.4063,608.0469 1524,607.7813 Q1524.5938,607.5 1525.2188,606.9219 L1525.2188,609.6406 Z "/><text fill="#000000" font-family="sans-serif" font-size="12" lengthAdjust="spacingAndGlyphs" textLength="151" x="1542.75" y="608.1543">WysiwygEditingRenderer</text><line style="stroke: #A80036; stroke-width: 1.5;" x1="1453" x2="1751" y1="620" y2="620"/><line style="stroke: #A80036; stroke-width: 1.5;" x1="1453" x2="1751" y1="628" y2="628"/><ellipse cx="1463" cy="639" fill="#84BE84" rx="3" ry="3" style="stroke: #038048; stroke-width: 1.0;"/><text fill="#000000" font-family="sans-serif" font-size="11" lengthAdjust="spacingAndGlyphs" textLength="274" x="1472" y="642.2104">WysiwygEditingRenderer(Context, WikiDocument)</text><ellipse cx="1463" cy="651.8047" fill="#84BE84" rx="3" ry="3" style="stroke: #038048; stroke-width: 1.0;"/><text fill="#000000" font-family="sans-serif" font-size="11" lengthAdjust="spacingAndGlyphs" textLength="102" x="1472" y="655.0151">getString(): String</text></a><!--MD5=[58109a6d9b4ddee4f79158fbe9ae1694]
class org.apache.wiki.api.engine.RenderApi--><a href="../api/engine/RenderApi.html" target="_top" title="../api/engine/RenderApi.html" xlink:actuate="onRequest" xlink:href="../api/engine/RenderApi.html" xlink:show="new" xlink:title="../api/engine/RenderApi.html" xlink:type="simple"><rect codeLine="87" fill="#FEFECE" filter="url(#f1w7mvvmk20kt8)" height="60.8047" id="org.apache.wiki.api.engine.RenderApi" style="stroke: #A80036; stroke-width: 1.5;" width="226" x="275" y="39.5"/><ellipse cx="351.75" cy="55.5" fill="#B4A7E5" rx="11" ry="11" style="stroke: #A80036; stroke-width: 1.0;"/><path d="M347.6719,51.2656 L347.6719,49.1094 L355.0625,49.1094 L355.0625,51.2656 L352.5938,51.2656 L352.5938,59.3438 L355.0625,59.3438 L355.0625,61.5 L347.6719,61.5 L347.6719,59.3438 L350.1406,59.3438 L350.1406,51.2656 L347.6719,51.2656 Z "/><text fill="#000000" font-family="sans-serif" font-size="12" font-style="italic" lengthAdjust="spacingAndGlyphs" textLength="64" x="372.25" y="59.6543">RenderApi</text><line style="stroke: #A80036; stroke-width: 1.5;" x1="276" x2="500" y1="71.5" y2="71.5"/><line style="stroke: #A80036; stroke-width: 1.5;" x1="276" x2="500" y1="79.5" y2="79.5"/><ellipse cx="286" cy="90.5" fill="#84BE84" rx="3" ry="3" style="stroke: #038048; stroke-width: 1.0;"/><text fill="#000000" font-family="sans-serif" font-size="11" font-style="italic" lengthAdjust="spacingAndGlyphs" textLength="200" x="295" y="93.7104">textToHTML(Context, String): String</text></a><!--MD5=[b42cfcd16e39a0fd6a37261d508d7333]
class org.apache.wiki.api.engine.Initializable--><a href="../api/engine/Initializable.html" target="_top" title="../api/engine/Initializable.html" xlink:actuate="onRequest" xlink:href="../api/engine/Initializable.html" xlink:show="new" xlink:title="../api/engine/Initializable.html" xlink:type="simple"><rect codeLine="90" fill="#FEFECE" filter="url(#f1w7mvvmk20kt8)" height="60.8047" id="org.apache.wiki.api.engine.Initializable" style="stroke: #A80036; stroke-width: 1.5;" width="216" x="24" y="39.5"/><ellipse cx="92.75" cy="55.5" fill="#B4A7E5" rx="11" ry="11" style="stroke: #A80036; stroke-width: 1.0;"/><path d="M88.6719,51.2656 L88.6719,49.1094 L96.0625,49.1094 L96.0625,51.2656 L93.5938,51.2656 L93.5938,59.3438 L96.0625,59.3438 L96.0625,61.5 L88.6719,61.5 L88.6719,59.3438 L91.1406,59.3438 L91.1406,51.2656 L88.6719,51.2656 Z "/><text fill="#000000" font-family="sans-serif" font-size="12" font-style="italic" lengthAdjust="spacingAndGlyphs" textLength="70" x="113.25" y="59.6543">Initializable</text><line style="stroke: #A80036; stroke-width: 1.5;" x1="25" x2="239" y1="71.5" y2="71.5"/><line style="stroke: #A80036; stroke-width: 1.5;" x1="25" x2="239" y1="79.5" y2="79.5"/><ellipse cx="35" cy="90.5" fill="#84BE84" rx="3" ry="3" style="stroke: #038048; stroke-width: 1.0;"/><text fill="#000000" font-family="sans-serif" font-size="11" font-style="italic" lengthAdjust="spacingAndGlyphs" textLength="190" x="44" y="93.7104">initialize(Engine, Properties): void</text></a><!--MD5=[8c616ba9df2429bf0adc99a32a005079]
class org.apache.wiki.event.WikiEventListener--><a href="../event/WikiEventListener.html" target="_top" title="../event/WikiEventListener.html" xlink:actuate="onRequest" xlink:href="../event/WikiEventListener.html" xlink:show="new" xlink:title="../event/WikiEventListener.html" xlink:type="simple"><rect codeLine="96" fill="#FEFECE" filter="url(#f1w7mvvmk20kt8)" height="60.8047" id="org.apache.wiki.event.WikiEventListener" style="stroke: #A80036; stroke-width: 1.5;" width="215" x="536.5" y="39.5"/><ellipse cx="584.75" cy="55.5" fill="#B4A7E5" rx="11" ry="11" style="stroke: #A80036; stroke-width: 1.0;"/><path d="M580.6719,51.2656 L580.6719,49.1094 L588.0625,49.1094 L588.0625,51.2656 L585.5938,51.2656 L585.5938,59.3438 L588.0625,59.3438 L588.0625,61.5 L580.6719,61.5 L580.6719,59.3438 L583.1406,59.3438 L583.1406,51.2656 L580.6719,51.2656 Z "/><text fill="#000000" font-family="sans-serif" font-size="12" font-style="italic" lengthAdjust="spacingAndGlyphs" textLength="110" x="605.25" y="59.6543">WikiEventListener</text><line style="stroke: #A80036; stroke-width: 1.5;" x1="537.5" x2="750.5" y1="71.5" y2="71.5"/><line style="stroke: #A80036; stroke-width: 1.5;" x1="537.5" x2="750.5" y1="79.5" y2="79.5"/><ellipse cx="547.5" cy="90.5" fill="#84BE84" rx="3" ry="3" style="stroke: #038048; stroke-width: 1.0;"/><text fill="#000000" font-family="sans-serif" font-size="11" font-style="italic" lengthAdjust="spacingAndGlyphs" textLength="189" x="556.5" y="93.7104">actionPerformed(WikiEvent): void</text></a><!--MD5=[b7bc5679f73a21bab50bb2c40ae49e22]
class org.apache.wiki.modules.InternalModule--><a href="../modules/InternalModule.html" target="_top" title="../modules/InternalModule.html" xlink:actuate="onRequest" xlink:href="../modules/InternalModule.html" xlink:show="new" xlink:title="../modules/InternalModule.html" xlink:type="simple"><rect codeLine="102" fill="#FEFECE" filter="url(#f1w7mvvmk20kt8)" height="48" id="org.apache.wiki.modules.InternalModule" style="stroke: #A80036; stroke-width: 1.5;" width="126" x="787" y="46"/><ellipse cx="802" cy="62" fill="#B4A7E5" rx="11" ry="11" style="stroke: #A80036; stroke-width: 1.0;"/><path d="M797.9219,57.7656 L797.9219,55.6094 L805.3125,55.6094 L805.3125,57.7656 L802.8438,57.7656 L802.8438,65.8438 L805.3125,65.8438 L805.3125,68 L797.9219,68 L797.9219,65.8438 L800.3906,65.8438 L800.3906,57.7656 L797.9219,57.7656 Z "/><text fill="#000000" font-family="sans-serif" font-size="12" font-style="italic" lengthAdjust="spacingAndGlyphs" textLength="94" x="816" y="66.1543">InternalModule</text><line style="stroke: #A80036; stroke-width: 1.5;" x1="788" x2="912" y1="78" y2="78"/><line style="stroke: #A80036; stroke-width: 1.5;" x1="788" x2="912" y1="86" y2="86"/></a><!--MD5=[c7a462810be9eaa6a4d9c2efa9eeb67e]
class org.jdom2.output.support.AbstractXMLOutputProcessor--><rect codeLine="106" fill="#FEFECE" filter="url(#f1w7mvvmk20kt8)" height="73.6094" id="org.jdom2.output.support.AbstractXMLOutputProcessor" style="stroke: #A80036; stroke-width: 1.5;" width="211" x="1031.5" y="33"/><ellipse cx="1046.5" cy="49" fill="#A9DCDF" rx="11" ry="11" style="stroke: #A80036; stroke-width: 1.0;"/><path d="M1046.6094,44.3438 L1045.4531,49.4219 L1047.7813,49.4219 L1046.6094,44.3438 Z M1045.125,42.1094 L1048.1094,42.1094 L1051.4688,54.5 L1049.0156,54.5 L1048.25,51.4375 L1044.9688,51.4375 L1044.2188,54.5 L1041.7813,54.5 L1045.125,42.1094 Z "/><text fill="#000000" font-family="sans-serif" font-size="12" font-style="italic" lengthAdjust="spacingAndGlyphs" textLength="179" x="1060.5" y="53.1543">AbstractXMLOutputProcessor</text><line style="stroke: #A80036; stroke-width: 1.5;" x1="1032.5" x2="1241.5" y1="65" y2="65"/><polygon fill="none" points="1042.5,71,1046.5,75,1042.5,79,1038.5,75" style="stroke: #B38D22; stroke-width: 1.0;"/><text fill="#000000" font-family="sans-serif" font-size="11" lengthAdjust="spacingAndGlyphs" text-decoration="underline" textLength="100" x="1051.5" y="79.2104">CDATAPRE: String</text><polygon fill="none" points="1042.5,83.8047,1046.5,87.8047,1042.5,91.8047,1038.5,87.8047" style="stroke: #B38D22; stroke-width: 1.0;"/><text fill="#000000" font-family="sans-serif" font-size="11" lengthAdjust="spacingAndGlyphs" text-decoration="underline" textLength="110" x="1051.5" y="92.0151">CDATAPOST: String</text><line style="stroke: #A80036; stroke-width: 1.5;" x1="1032.5" x2="1241.5" y1="98.6094" y2="98.6094"/><!--MD5=[8703b756c5f037ca6eed5bcf73c552ff]
reverse link org.apache.wiki.render.RenderingManager to org.apache.wiki.render.DefaultRenderingManager--><path codeLine="74" d="M477,478.4626 C477,491.7805 477,505.0039 477,517.7439 " fill="none" id="org.apache.wiki.render.RenderingManager-backto-org.apache.wiki.render.DefaultRenderingManager" style="stroke: #A80036; stroke-width: 1.0; stroke-dasharray: 7.0,7.0;"/><polygon fill="none" points="470.0001,478.2286,477,458.2285,484.0001,478.2285,470.0001,478.2286" style="stroke: #A80036; stroke-width: 1.0;"/><!--MD5=[7a2dc4263685589dc58d490160cb31a9]
reverse link org.apache.wiki.render.WikiRenderer to org.apache.wiki.render.CreoleRenderer--><path codeLine="75" d="M1597.5699,387.4774 C1681.6383,450.7819 1798.4608,538.7506 1863.772,587.9307 " fill="none" id="org.apache.wiki.render.WikiRenderer-backto-org.apache.wiki.render.CreoleRenderer" style="stroke: #A80036; stroke-width: 1.0;"/><polygon fill="none" points="1593.2483,392.9859,1581.4822,375.3631,1601.6699,381.802,1593.2483,392.9859" style="stroke: #A80036; stroke-width: 1.0;"/><!--MD5=[ffd759f7df7f5b16464532516311a2a5]
reverse link org.apache.wiki.render.WikiRenderer to org.apache.wiki.render.CleanTextRenderer--><path codeLine="76" d="M1431.4458,389.9311 C1406.9872,414.5436 1377.7109,440.0124 1347,458 C1267.2891,504.6873 1231.1793,477.8162 1148,518 C1108.865,536.906 1068.6669,565.1919 1039.1571,587.9333 " fill="none" id="org.apache.wiki.render.WikiRenderer-backto-org.apache.wiki.render.CleanTextRenderer" style="stroke: #A80036; stroke-width: 1.0;"/><polygon fill="none" points="1426.7238,384.7432,1445.6419,375.1981,1436.8053,394.4573,1426.7238,384.7432" style="stroke: #A80036; stroke-width: 1.0;"/><!--MD5=[e3fa91ae3e1045b531959a42ff5ede38]
reverse link org.apache.wiki.render.WikiRenderer to org.apache.wiki.render.XHTMLRenderer--><path codeLine="77" d="M1445.3127,392.04 C1403.7056,454.8526 1347.5278,539.6621 1315.7005,587.7106 " fill="none" id="org.apache.wiki.render.WikiRenderer-backto-org.apache.wiki.render.XHTMLRenderer" style="stroke: #A80036; stroke-width: 1.0;"/><polygon fill="none" points="1439.4789,388.1712,1456.3595,375.3631,1451.1505,395.9026,1439.4789,388.1712" style="stroke: #A80036; stroke-width: 1.0;"/><!--MD5=[085e4af89f663d9a0b0c1da35c841511]
reverse link org.apache.wiki.api.engine.RenderApi to org.apache.wiki.render.RenderingManager--><path codeLine="78" d="M406.2681,119.7754 C411.4421,133.8731 417.3519,149.9756 423.5009,166.7299 " fill="none" id="org.apache.wiki.api.engine.RenderApi-backto-org.apache.wiki.render.RenderingManager" style="stroke: #A80036; stroke-width: 1.0;"/><polygon fill="none" points="399.5913,121.9,399.2719,100.7128,412.7342,117.0764,399.5913,121.9" style="stroke: #A80036; stroke-width: 1.0;"/><!--MD5=[d6ad290e80184e99fcf30b6a763a97ee]
reverse link org.apache.wiki.event.WikiEventListener to org.apache.wiki.render.RenderingManager--><path codeLine="79" d="M611.4008,117.3371 C601.3011,132.0029 589.5949,149.0015 577.386,166.7299 " fill="none" id="org.apache.wiki.event.WikiEventListener-backto-org.apache.wiki.render.RenderingManager" style="stroke: #A80036; stroke-width: 1.0;"/><polygon fill="none" points="605.7406,113.2145,622.8493,100.7128,617.2709,121.155,605.7406,113.2145" style="stroke: #A80036; stroke-width: 1.0;"/><!--MD5=[d578fae8ddea6a72ef0738eaac51ee32]
reverse link org.apache.wiki.modules.InternalModule to org.apache.wiki.render.RenderingManager--><path codeLine="80" d="M795.9358,105.1489 C769.7126,122.1975 736.2726,143.938 700.9641,166.8933 " fill="none" id="org.apache.wiki.modules.InternalModule-backto-org.apache.wiki.render.RenderingManager" style="stroke: #A80036; stroke-width: 1.0;"/><polygon fill="none" points="792.2883,99.171,812.8717,94.1384,799.9193,110.9085,792.2883,99.171" style="stroke: #A80036; stroke-width: 1.0;"/><!--MD5=[f11cea714489a1ce21dcbf3449e9ef8d]
reverse link org.apache.wiki.api.engine.Initializable to org.apache.wiki.render.RenderingManager--><path codeLine="81" d="M192.2593,112.3562 C214.6434,128.0899 241.4836,146.9559 269.6157,166.7299 " fill="none" id="org.apache.wiki.api.engine.Initializable-backto-org.apache.wiki.render.RenderingManager" style="stroke: #A80036; stroke-width: 1.0;"/><polygon fill="none" points="188.0314,117.9407,175.6945,100.7128,196.0822,106.4871,188.0314,117.9407" style="stroke: #A80036; stroke-width: 1.0;"/><!--MD5=[cec529fa02df071c52a396e2d6ba8c14]
reverse link org.jdom2.output.support.AbstractXMLOutputProcessor to org.apache.wiki.render.CustomXMLOutputProcessor--><path codeLine="82" d="M1137,127.1852 C1137,175.6218 1137,243.194 1137,281.9384 " fill="none" id="org.jdom2.output.support.AbstractXMLOutputProcessor-backto-org.apache.wiki.render.CustomXMLOutputProcessor" style="stroke: #A80036; stroke-width: 1.0;"/><polygon fill="none" points="1130.0001,127.0945,1137,107.0945,1144.0001,127.0945,1130.0001,127.0945" style="stroke: #A80036; stroke-width: 1.0;"/><!--MD5=[cfbd5c131391b00adc089a0c287cb00a]
reverse link org.apache.wiki.render.WikiRenderer to org.apache.wiki.render.WysiwygEditingRenderer--><path codeLine="83" d="M1525.2767,394.4613 C1546.0951,457.0166 1573.8041,540.2768 1589.5901,587.7106 " fill="none" id="org.apache.wiki.render.WikiRenderer-backto-org.apache.wiki.render.WysiwygEditingRenderer" style="stroke: #A80036; stroke-width: 1.0;"/><polygon fill="none" points="1518.5945,396.5503,1518.9208,375.3631,1531.8782,392.1294,1518.5945,396.5503" style="stroke: #A80036; stroke-width: 1.0;"/><text fill="#888888" font-family="sans-serif" font-size="10" lengthAdjust="spacingAndGlyphs" textLength="192" x="929.5" y="755.2822">UMLDoclet 2.0.12, PlantUML 1.2020.16</text><!--MD5=[b42d7d9aecec21a8c2967d363899ebc4]
@startuml
    namespace org.apache.wiki.render {

        class DefaultRenderingManager [[DefaultRenderingManager.html]] {
            +initialize(Engine, Properties): void
            +beautifyTitle(String): String
            +beautifyTitleNoBreak(String): String
            +getParser(Context, String): MarkupParser
            +getRenderedDocument(Context, String): WikiDocument
            +getHTML(Context, WikiDocument): String
            +getHTML(Context, Page): String
            +getHTML(String, int): String
            +textToHTML(Context, String): String
            +textToHTML(Context, String, StringTransmutator, StringTransmutator, StringTransmutator, boolean, boolean): String
            +getRenderer(Context, WikiDocument): WikiRenderer
            +getWysiwygRenderer(Context, WikiDocument): WikiRenderer
            +actionPerformed(WikiEvent): void
        }

        class CreoleRenderer [[CreoleRenderer.html]] {
            +CreoleRenderer(Context, WikiDocument)
            +getString(): String
        }

        class CleanTextRenderer [[CleanTextRenderer.html]] {
            +CleanTextRenderer(Context, WikiDocument)
            +getString(): String
        }

        class XHTMLRenderer [[XHTMLRenderer.html]] {
            +XHTMLRenderer(Context, WikiDocument)
            +getString(): String
        }

        abstract class WikiRenderer [[WikiRenderer.html]] {
            #m_context: Context
            #m_document: WikiDocument
            {static} +LINKS_TRANSLATION: String
            {static} +LINKS_SOURCE: String
            #WikiRenderer(Context, WikiDocument)
            {abstract} +getString(): String
        }

        interface RenderingManager [[RenderingManager.html]] {
            {static} +PROP_PARSER: String
            {static} +PROP_RENDERER: String
            {static} +PROP_WYSIWYG_RENDERER: String
            {static} +PROP_BEAUTIFYTITLE: String
            {static} +DOCUMENTCACHE_NAME: String
            {abstract} +beautifyTitle(String): String
            {abstract} +beautifyTitleNoBreak(String): String
            {abstract} +getParser(Context, String): MarkupParser
            {abstract} +getRenderedDocument(Context, String): WikiDocument
            {abstract} +getRenderer(Context, WikiDocument): WikiRenderer
            {abstract} +getWysiwygRenderer(Context, WikiDocument): WikiRenderer
            {abstract} +getHTML(Context, WikiDocument): String
            {abstract} +getHTML(Context, Page): String
            {abstract} +getHTML(String, int): String
            +getHTML(Context, String): String
            +getHTML(String): String
            {abstract} +textToHTML(Context, String, StringTransmutator, StringTransmutator, StringTransmutator, boolean, boolean): String
            +textToHTML(Context, String, StringTransmutator, StringTransmutator): String
            +textToHTML(Context, String, StringTransmutator, StringTransmutator, StringTransmutator): String
        }

        class CustomXMLOutputProcessor [[CustomXMLOutputProcessor.html]] {
            #attributeEscapedEntitiesFilter(Writer, FormatStack, String): void
        }

        class WysiwygEditingRenderer [[WysiwygEditingRenderer.html]] {
            +WysiwygEditingRenderer(Context, WikiDocument)
            +getString(): String
        }

        RenderingManager <|.. DefaultRenderingManager
        WikiRenderer <|- - CreoleRenderer
        WikiRenderer <|- - CleanTextRenderer
        WikiRenderer <|- - XHTMLRenderer
        org.apache.wiki.api.engine.RenderApi <|- - RenderingManager
        org.apache.wiki.event.WikiEventListener <|- - RenderingManager
        org.apache.wiki.modules.InternalModule <|- - RenderingManager
        org.apache.wiki.api.engine.Initializable <|- - RenderingManager
        org.jdom2.output.support.AbstractXMLOutputProcessor <|- - CustomXMLOutputProcessor
        WikiRenderer <|- - WysiwygEditingRenderer
    }

    namespace org.apache.wiki.api.engine {
        interface RenderApi [[../api/engine/RenderApi.html]] {
            {abstract} +textToHTML(Context, String): String
        }
        interface Initializable [[../api/engine/Initializable.html]] {
            {abstract} +initialize(Engine, Properties): void
        }
    }

    namespace org.apache.wiki.event {
        interface WikiEventListener [[../event/WikiEventListener.html]] {
            {abstract} +actionPerformed(WikiEvent): void
        }
    }

    namespace org.apache.wiki.modules {
        interface InternalModule [[../modules/InternalModule.html]]
    }

    namespace org.jdom2.output.support {
        abstract class AbstractXMLOutputProcessor {
            {static} #CDATAPRE: String
            {static} #CDATAPOST: String
        }
    }

    center footer UMLDoclet 2.0.12, PlantUML 1.2020.16
@enduml

PlantUML version 1.2020.16(Sun Aug 23 20:20:43 UTC 2020)
(APACHE source distribution)
Java Runtime: Java(TM) SE Runtime Environment
JVM: Java HotSpot(TM) 64-Bit Server VM
Default Encoding: ISO-8859-1
Language: en
Country: US
--></g></svg>