<?xml version="1.0" encoding="UTF-8" standalone="no"?><svg xmlns="http://www.w3.org/2000/svg" xmlns:xlink="http://www.w3.org/1999/xlink" contentScriptType="application/ecmascript" contentStyleType="text/css" height="485px" preserveAspectRatio="none" style="width:224px;height:485px;" version="1.1" viewBox="0 0 224 485" width="224px" zoomAndPan="magnify"><defs><filter height="300%" id="fqjcmzjuw8o2f" width="300%" x="-1" y="-1"><feGaussianBlur result="blurOut" stdDeviation="2.0"/><feColorMatrix in="blurOut" result="blurOut2" type="matrix" values="0 0 0 0 0 0 0 0 0 0 0 0 0 0 0 0 0 0 .4 0"/><feOffset dx="4.0" dy="4.0" in="blurOut2" result="blurOut3"/><feBlend in="SourceGraphic" in2="blurOut3" mode="normal"/></filter></defs><g><!--class WikiModuleInfo--><a href="WikiModuleInfo.html" target="_top" xlink:actuate="onRequest" xlink:show="new" xlink:title="WikiModuleInfo.html" xlink:type="simple"><rect fill="#FEFECE" filter="url(#fqjcmzjuw8o2f)" height="444.9453" id="WikiModuleInfo" style="stroke: #A80036; stroke-width: 1.5;" width="207" x="6" y="8"/><ellipse cx="59.25" cy="24" fill="#ADD1B2" rx="11" ry="11" style="stroke: #A80036; stroke-width: 1.0;"/><path d="M62.2188,29.6406 Q61.6406,29.9375 61,30.0859 Q60.3594,30.2344 59.6563,30.2344 Q57.1563,30.2344 55.8359,28.5859 Q54.5156,26.9375 54.5156,23.8125 Q54.5156,20.6875 55.8359,19.0313 Q57.1563,17.375 59.6563,17.375 Q60.3594,17.375 61.0078,17.5313 Q61.6563,17.6875 62.2188,17.9844 L62.2188,20.7031 Q61.5938,20.125 61,19.8516 Q60.4063,19.5781 59.7813,19.5781 Q58.4375,19.5781 57.75,20.6484 Q57.0625,21.7188 57.0625,23.8125 Q57.0625,25.9063 57.75,26.9766 Q58.4375,28.0469 59.7813,28.0469 Q60.4063,28.0469 61,27.7734 Q61.5938,27.5 62.2188,26.9219 L62.2188,29.6406 Z "/><text fill="#000000" font-family="sans-serif" font-size="12" lengthAdjust="spacingAndGlyphs" textLength="92" x="79.75" y="28.1543">WikiModuleInfo</text><line style="stroke: #A80036; stroke-width: 1.5;" x1="7" x2="212" y1="40" y2="40"/><polygon fill="none" points="17,46.9023,21,50.9023,17,54.9023,13,50.9023" style="stroke: #B38D22; stroke-width: 1.0;"/><text fill="#000000" font-family="sans-serif" font-size="11" lengthAdjust="spacingAndGlyphs" textLength="91" x="26" y="54.2104">m_name: String</text><polygon fill="none" points="17,59.707,21,63.707,17,67.707,13,63.707" style="stroke: #B38D22; stroke-width: 1.0;"/><text fill="#000000" font-family="sans-serif" font-size="11" lengthAdjust="spacingAndGlyphs" textLength="122" x="26" y="67.0151">m_description: String</text><polygon fill="none" points="17,72.5117,21,76.5117,17,80.5117,13,76.5117" style="stroke: #B38D22; stroke-width: 1.0;"/><text fill="#000000" font-family="sans-serif" font-size="11" lengthAdjust="spacingAndGlyphs" textLength="117" x="26" y="79.8198">m_moduleUrl: String</text><polygon fill="none" points="17,85.3164,21,89.3164,17,93.3164,13,89.3164" style="stroke: #B38D22; stroke-width: 1.0;"/><text fill="#000000" font-family="sans-serif" font-size="11" lengthAdjust="spacingAndGlyphs" textLength="144" x="26" y="92.6245">m_moduleVersion: String</text><polygon fill="none" points="17,98.1211,21,102.1211,17,106.1211,13,102.1211" style="stroke: #B38D22; stroke-width: 1.0;"/><text fill="#000000" font-family="sans-serif" font-size="11" lengthAdjust="spacingAndGlyphs" textLength="137" x="26" y="105.4292">m_htmlTemplate: String</text><polygon fill="none" points="17,110.9258,21,114.9258,17,118.9258,13,114.9258" style="stroke: #B38D22; stroke-width: 1.0;"/><text fill="#000000" font-family="sans-serif" font-size="11" lengthAdjust="spacingAndGlyphs" textLength="138" x="26" y="118.2339">m_scriptLocation: String</text><polygon fill="none" points="17,123.7305,21,127.7305,17,131.7305,13,127.7305" style="stroke: #B38D22; stroke-width: 1.0;"/><text fill="#000000" font-family="sans-serif" font-size="11" lengthAdjust="spacingAndGlyphs" textLength="115" x="26" y="131.0386">m_scriptText: String</text><polygon fill="none" points="17,136.5352,21,140.5352,17,144.5352,13,140.5352" style="stroke: #B38D22; stroke-width: 1.0;"/><text fill="#000000" font-family="sans-serif" font-size="11" lengthAdjust="spacingAndGlyphs" textLength="165" x="26" y="143.8433">m_stylesheetLocation: String</text><polygon fill="none" points="17,149.3398,21,153.3398,17,157.3398,13,153.3398" style="stroke: #B38D22; stroke-width: 1.0;"/><text fill="#000000" font-family="sans-serif" font-size="11" lengthAdjust="spacingAndGlyphs" textLength="142" x="26" y="156.6479">m_stylesheetText: String</text><polygon fill="none" points="17,162.1445,21,166.1445,17,170.1445,13,166.1445" style="stroke: #B38D22; stroke-width: 1.0;"/><text fill="#000000" font-family="sans-serif" font-size="11" lengthAdjust="spacingAndGlyphs" textLength="96" x="26" y="169.4526">m_author: String</text><polygon fill="none" points="17,174.9492,21,178.9492,17,182.9492,13,178.9492" style="stroke: #B38D22; stroke-width: 1.0;"/><text fill="#000000" font-family="sans-serif" font-size="11" lengthAdjust="spacingAndGlyphs" textLength="112" x="26" y="182.2573">m_authorUrl: String</text><polygon fill="none" points="17,187.7539,21,191.7539,17,195.7539,13,191.7539" style="stroke: #B38D22; stroke-width: 1.0;"/><text fill="#000000" font-family="sans-serif" font-size="11" lengthAdjust="spacingAndGlyphs" textLength="97" x="26" y="195.062">m_resource: URL</text><polygon fill="none" points="17,200.5586,21,204.5586,17,208.5586,13,204.5586" style="stroke: #B38D22; stroke-width: 1.0;"/><text fill="#000000" font-family="sans-serif" font-size="11" lengthAdjust="spacingAndGlyphs" textLength="123" x="26" y="207.8667">m_minVersion: String</text><polygon fill="none" points="17,213.3633,21,217.3633,17,221.3633,13,217.3633" style="stroke: #B38D22; stroke-width: 1.0;"/><text fill="#000000" font-family="sans-serif" font-size="11" lengthAdjust="spacingAndGlyphs" textLength="126" x="26" y="220.6714">m_maxVersion: String</text><polygon fill="none" points="17,226.168,21,230.168,17,234.168,13,230.168" style="stroke: #B38D22; stroke-width: 1.0;"/><text fill="#000000" font-family="sans-serif" font-size="11" lengthAdjust="spacingAndGlyphs" textLength="155" x="26" y="233.4761">m_adminBeanClass: String</text><line style="stroke: #A80036; stroke-width: 1.5;" x1="7" x2="212" y1="240.0703" y2="240.0703"/><ellipse cx="17" cy="251.9727" fill="#84BE84" rx="3" ry="3" style="stroke: #038048; stroke-width: 1.0;"/><text fill="#000000" font-family="sans-serif" font-size="11" lengthAdjust="spacingAndGlyphs" textLength="124" x="26" y="254.2808">WikiModuleInfo(String)</text><polygon fill="#FFFF44" points="17,259.7773,21,263.7773,17,267.7773,13,263.7773" style="stroke: #B38D22; stroke-width: 1.0;"/><text fill="#000000" font-family="sans-serif" font-size="11" lengthAdjust="spacingAndGlyphs" textLength="181" x="26" y="267.0854">initializeFromXML(Element): void</text><ellipse cx="17" cy="277.582" fill="#84BE84" rx="3" ry="3" style="stroke: #038048; stroke-width: 1.0;"/><text fill="#000000" font-family="sans-serif" font-size="11" lengthAdjust="spacingAndGlyphs" textLength="164" x="26" y="279.8901">getAdminBeanClass(): String</text><ellipse cx="17" cy="290.3867" fill="#84BE84" rx="3" ry="3" style="stroke: #038048; stroke-width: 1.0;"/><text fill="#000000" font-family="sans-serif" font-size="11" lengthAdjust="spacingAndGlyphs" textLength="101" x="26" y="292.6948">getName(): String</text><ellipse cx="17" cy="303.1914" fill="#84BE84" rx="3" ry="3" style="stroke: #038048; stroke-width: 1.0;"/><text fill="#000000" font-family="sans-serif" font-size="11" lengthAdjust="spacingAndGlyphs" textLength="132" x="26" y="305.4995">getDescription(): String</text><ellipse cx="17" cy="315.9961" fill="#84BE84" rx="3" ry="3" style="stroke: #038048; stroke-width: 1.0;"/><text fill="#000000" font-family="sans-serif" font-size="11" lengthAdjust="spacingAndGlyphs" textLength="124" x="26" y="318.3042">getModuleUrl(): String</text><ellipse cx="17" cy="328.8008" fill="#84BE84" rx="3" ry="3" style="stroke: #038048; stroke-width: 1.0;"/><text fill="#000000" font-family="sans-serif" font-size="11" lengthAdjust="spacingAndGlyphs" textLength="151" x="26" y="331.1089">getModuleVersion(): String</text><ellipse cx="17" cy="341.6055" fill="#84BE84" rx="3" ry="3" style="stroke: #038048; stroke-width: 1.0;"/><text fill="#000000" font-family="sans-serif" font-size="11" lengthAdjust="spacingAndGlyphs" textLength="147" x="26" y="343.9136">getHtmlTemplate(): String</text><ellipse cx="17" cy="354.4102" fill="#84BE84" rx="3" ry="3" style="stroke: #038048; stroke-width: 1.0;"/><text fill="#000000" font-family="sans-serif" font-size="11" lengthAdjust="spacingAndGlyphs" textLength="175" x="26" y="356.7183">getStylesheetLocation(): String</text><ellipse cx="17" cy="367.2148" fill="#84BE84" rx="3" ry="3" style="stroke: #038048; stroke-width: 1.0;"/><text fill="#000000" font-family="sans-serif" font-size="11" lengthAdjust="spacingAndGlyphs" textLength="148" x="26" y="369.5229">getScriptLocation(): String</text><ellipse cx="17" cy="380.0195" fill="#84BE84" rx="3" ry="3" style="stroke: #038048; stroke-width: 1.0;"/><text fill="#000000" font-family="sans-serif" font-size="11" lengthAdjust="spacingAndGlyphs" textLength="105" x="26" y="382.3276">getAuthor(): String</text><ellipse cx="17" cy="392.8242" fill="#84BE84" rx="3" ry="3" style="stroke: #038048; stroke-width: 1.0;"/><text fill="#000000" font-family="sans-serif" font-size="11" lengthAdjust="spacingAndGlyphs" textLength="121" x="26" y="395.1323">getAuthorUrl(): String</text><ellipse cx="17" cy="405.6289" fill="#84BE84" rx="3" ry="3" style="stroke: #038048; stroke-width: 1.0;"/><text fill="#000000" font-family="sans-serif" font-size="11" lengthAdjust="spacingAndGlyphs" textLength="130" x="26" y="407.937">getMinVersion(): String</text><ellipse cx="17" cy="418.4336" fill="#84BE84" rx="3" ry="3" style="stroke: #038048; stroke-width: 1.0;"/><text fill="#000000" font-family="sans-serif" font-size="11" lengthAdjust="spacingAndGlyphs" textLength="133" x="26" y="420.7417">getMaxVersion(): String</text><polygon fill="#FFFF44" points="17,426.2383,21,430.2383,17,434.2383,13,430.2383" style="stroke: #B38D22; stroke-width: 1.0;"/><text fill="#000000" font-family="sans-serif" font-size="11" lengthAdjust="spacingAndGlyphs" textLength="179" x="26" y="433.5464">getTextResource(String): String</text><ellipse cx="17" cy="444.043" fill="#84BE84" rx="3" ry="3" style="stroke: #038048; stroke-width: 1.0;"/><text fill="#000000" font-family="sans-serif" font-size="11" lengthAdjust="spacingAndGlyphs" textLength="176" x="26" y="446.3511">compareTo(WikiModuleInfo): int</text></a><text fill="#888888" font-family="sans-serif" font-size="10" lengthAdjust="spacingAndGlyphs" textLength="186" x="22.5" y="472.2822">UMLDoclet 1.1.4, PlantUML 1.2019.05</text><!--
@startuml

    class WikiModuleInfo [[WikiModuleInfo.html]] {
        #m_name: String
        #m_description: String
        #m_moduleUrl: String
        #m_moduleVersion: String
        #m_htmlTemplate: String
        #m_scriptLocation: String
        #m_scriptText: String
        #m_stylesheetLocation: String
        #m_stylesheetText: String
        #m_author: String
        #m_authorUrl: String
        #m_resource: URL
        #m_minVersion: String
        #m_maxVersion: String
        #m_adminBeanClass: String
        +WikiModuleInfo(String)
        #initializeFromXML(Element): void
        +getAdminBeanClass(): String
        +getName(): String
        +getDescription(): String
        +getModuleUrl(): String
        +getModuleVersion(): String
        +getHtmlTemplate(): String
        +getStylesheetLocation(): String
        +getScriptLocation(): String
        +getAuthor(): String
        +getAuthorUrl(): String
        +getMinVersion(): String
        +getMaxVersion(): String
        #getTextResource(String): String
        +compareTo(WikiModuleInfo): int
    }


    center footer UMLDoclet 1.1.4, PlantUML 1.2019.05
@enduml

PlantUML version 1.2019.05(Sat Apr 20 16:45:36 UTC 2019)
(APACHE source distribution)
Java Runtime: Java(TM) SE Runtime Environment
JVM: Java HotSpot(TM) 64-Bit Server VM
Java Version: 1.8.0_191-b12
Operating System: Linux
OS Version: 4.15.0-76-generic
Default Encoding: ISO-8859-1
Language: en
Country: US
--></g></svg>