<?xml version="1.0" encoding="UTF-8" standalone="no"?><svg xmlns="http://www.w3.org/2000/svg" xmlns:xlink="http://www.w3.org/1999/xlink" contentScriptType="application/ecmascript" contentStyleType="text/css" height="844px" preserveAspectRatio="none" style="width:762px;height:844px;" version="1.1" viewBox="0 0 762 844" width="762px" zoomAndPan="magnify"><defs><filter height="300%" id="fevw8it9spkj3" width="300%" x="-1" y="-1"><feGaussianBlur result="blurOut" stdDeviation="2.0"/><feColorMatrix in="blurOut" result="blurOut2" type="matrix" values="0 0 0 0 0 0 0 0 0 0 0 0 0 0 0 0 0 0 .4 0"/><feOffset dx="4.0" dy="4.0" in="blurOut2" result="blurOut3"/><feBlend in="SourceGraphic" in2="blurOut3" mode="normal"/></filter></defs><g><!--MD5=[4614dff1e4f4b4dfd6c534ad3b15c1c6]
cluster org.apache.wiki.xmlrpc--><polygon fill="#FFFFFF" filter="url(#fevw8it9spkj3)" points="16,114,183,114,190,137.6094,740,137.6094,740,815,16,815,16,114" style="stroke: #000000; stroke-width: 1.5;"/><line style="stroke: #000000; stroke-width: 1.5;" x1="16" x2="190" y1="137.6094" y2="137.6094"/><text fill="#000000" font-family="sans-serif" font-size="14" font-weight="bold" lengthAdjust="spacingAndGlyphs" textLength="161" x="20" y="130.5332">org.apache.wiki.xmlrpc</text><!--MD5=[737c6b32201ecf86b9d7c6a8bb692317]
cluster javax.servlet.http--><polygon fill="#FFFFFF" filter="url(#fevw8it9spkj3)" points="463,6,592,6,599,29.6094,602,29.6094,602,90,463,90,463,6" style="stroke: #000000; stroke-width: 1.5;"/><line style="stroke: #000000; stroke-width: 1.5;" x1="463" x2="599" y1="29.6094" y2="29.6094"/><text fill="#000000" font-family="sans-serif" font-size="14" font-weight="bold" lengthAdjust="spacingAndGlyphs" textLength="123" x="467" y="22.5332">javax.servlet.http</text><!--MD5=[be336d43599d60bf28e1a06d558b5147]
class org.apache.wiki.xmlrpc.AbstractRPCHandler--><a href="AbstractRPCHandler.html" target="_top" title="AbstractRPCHandler.html" xlink:actuate="onRequest" xlink:href="AbstractRPCHandler.html" xlink:show="new" xlink:title="AbstractRPCHandler.html" xlink:type="simple"><rect codeLine="3" fill="#FEFECE" filter="url(#fevw8it9spkj3)" height="227.8672" id="org.apache.wiki.xmlrpc.AbstractRPCHandler" style="stroke: #A80036; stroke-width: 1.5;" width="200" x="24" y="319"/><ellipse cx="62.85" cy="335" fill="#A9DCDF" rx="11" ry="11" style="stroke: #A80036; stroke-width: 1.0;"/><path d="M65.0375,336.7656 L60.8969,336.7656 L60.475,337.7969 L60.8969,337.7969 Q61.5063,337.7969 61.7719,338.0313 Q62.0375,338.2656 62.0375,338.6563 Q62.0375,339.0313 61.7719,339.2656 Q61.5063,339.5 60.8969,339.5 L58.6,339.5 Q57.9906,339.5 57.7406,339.2656 Q57.475,339.0313 57.475,338.6406 Q57.475,338.2656 57.7563,338.0313 Q58.0219,337.7813 58.6469,337.7969 L61.3188,331.1406 L60.2094,331.1406 Q59.6,331.1406 59.3344,330.9063 Q59.0688,330.6719 59.0688,330.2813 Q59.0688,329.9063 59.3344,329.6719 Q59.6,329.4375 60.2094,329.4375 L63.8813,329.4375 L67.2719,337.7969 Q67.8656,337.7969 68.0531,337.9375 Q68.4438,338.2031 68.4438,338.6563 Q68.4438,339.0313 68.1781,339.2656 Q67.9281,339.5 67.3188,339.5 L65.0219,339.5 Q64.4125,339.5 64.1469,339.2656 Q63.8813,339.0313 63.8813,338.6406 Q63.8813,338.2656 64.1469,338.0313 Q64.4125,337.7969 65.0219,337.7969 L65.4438,337.7969 L65.0375,336.7656 Z M64.3188,335.0625 L62.9594,331.6875 L61.5844,335.0625 L64.3188,335.0625 Z "/><text fill="#000000" font-family="sans-serif" font-size="12" font-style="italic" lengthAdjust="spacingAndGlyphs" textLength="115" x="82.15" y="339.9102">AbstractRPCHandler</text><line style="stroke: #A80036; stroke-width: 1.5;" x1="25" x2="223" y1="351" y2="351"/><ellipse cx="35" cy="362" fill="none" rx="3" ry="3" style="stroke: #038048; stroke-width: 1.0;"/><text fill="#000000" font-family="sans-serif" font-size="11" lengthAdjust="spacingAndGlyphs" text-decoration="underline" textLength="86" x="44" y="366.4189">ERR_NOPAGE: int</text><ellipse cx="35" cy="375.8359" fill="none" rx="3" ry="3" style="stroke: #038048; stroke-width: 1.0;"/><text fill="#000000" font-family="sans-serif" font-size="11" lengthAdjust="spacingAndGlyphs" text-decoration="underline" textLength="118" x="44" y="380.2549">ERR_NOPERMISSION: int</text><ellipse cx="35" cy="389.6719" fill="none" rx="3" ry="3" style="stroke: #038048; stroke-width: 1.0;"/><text fill="#000000" font-family="sans-serif" font-size="11" lengthAdjust="spacingAndGlyphs" text-decoration="underline" textLength="97" x="44" y="394.0908">LINK_LOCAL: String</text><ellipse cx="35" cy="403.5078" fill="none" rx="3" ry="3" style="stroke: #038048; stroke-width: 1.0;"/><text fill="#000000" font-family="sans-serif" font-size="11" lengthAdjust="spacingAndGlyphs" text-decoration="underline" textLength="115" x="44" y="407.9268">LINK_EXTERNAL: String</text><ellipse cx="35" cy="417.3438" fill="none" rx="3" ry="3" style="stroke: #038048; stroke-width: 1.0;"/><text fill="#000000" font-family="sans-serif" font-size="11" lengthAdjust="spacingAndGlyphs" text-decoration="underline" textLength="92" x="44" y="421.7627">LINK_INLINE: String</text><polygon fill="none" points="35,426.1797,39,430.1797,35,434.1797,31,430.1797" style="stroke: #B38D22; stroke-width: 1.0;"/><text fill="#000000" font-family="sans-serif" font-size="11" lengthAdjust="spacingAndGlyphs" textLength="84" x="44" y="435.5986">m_engine: Engine</text><polygon fill="none" points="35,440.0156,39,444.0156,35,448.0156,31,444.0156" style="stroke: #B38D22; stroke-width: 1.0;"/><text fill="#000000" font-family="sans-serif" font-size="11" lengthAdjust="spacingAndGlyphs" textLength="93" x="44" y="449.4346">m_context: Context</text><ellipse cx="35" cy="458.8516" fill="none" rx="3" ry="3" style="stroke: #038048; stroke-width: 1.0;"/><text fill="#000000" font-family="sans-serif" font-size="11" lengthAdjust="spacingAndGlyphs" text-decoration="underline" textLength="88" x="44" y="463.2705">RPC_VERSION: int</text><line style="stroke: #A80036; stroke-width: 1.5;" x1="25" x2="223" y1="469.6875" y2="469.6875"/><ellipse cx="35" cy="480.6875" fill="#84BE84" rx="3" ry="3" style="stroke: #038048; stroke-width: 1.0;"/><text fill="#000000" font-family="sans-serif" font-size="11" lengthAdjust="spacingAndGlyphs" textLength="108" x="44" y="485.1064">initialize(Context): void</text><polygon fill="#FFFF44" points="35,489.5234,39,493.5234,35,497.5234,31,493.5234" style="stroke: #B38D22; stroke-width: 1.0;"/><text fill="#000000" font-family="sans-serif" font-size="11" font-style="italic" lengthAdjust="spacingAndGlyphs" textLength="174" x="44" y="498.9424">encodeWikiPage(Page): Hashtable</text><ellipse cx="35" cy="508.3594" fill="#84BE84" rx="3" ry="3" style="stroke: #038048; stroke-width: 1.0;"/><text fill="#000000" font-family="sans-serif" font-size="11" lengthAdjust="spacingAndGlyphs" textLength="161" x="44" y="512.7783">getRecentChanges(Date): Vector</text><polygon fill="#FFFF44" points="35,517.1953,39,521.1953,35,525.1953,31,521.1953" style="stroke: #B38D22; stroke-width: 1.0;"/><text fill="#000000" font-family="sans-serif" font-size="11" lengthAdjust="spacingAndGlyphs" textLength="167" x="44" y="526.6143">checkPermission(Permission): void</text><ellipse cx="35" cy="536.0313" fill="#84BE84" rx="3" ry="3" style="stroke: #038048; stroke-width: 1.0;"/><text fill="#000000" font-family="sans-serif" font-size="11" lengthAdjust="spacingAndGlyphs" textLength="148" x="44" y="540.4502">getRPCVersionSupported(): int</text></a><!--MD5=[735868dfc688089cfa93cbe1a7ce0e43]
class org.apache.wiki.xmlrpc.MetaWeblogHandler--><a href="MetaWeblogHandler.html" target="_top" title="MetaWeblogHandler.html" xlink:actuate="onRequest" xlink:href="MetaWeblogHandler.html" xlink:show="new" xlink:title="MetaWeblogHandler.html" xlink:type="simple"><rect codeLine="19" fill="#FEFECE" filter="url(#fevw8it9spkj3)" height="117.1797" id="org.apache.wiki.xmlrpc.MetaWeblogHandler" style="stroke: #A80036; stroke-width: 1.5;" width="473" x="259.5" y="374.5"/><ellipse cx="435.75" cy="390.5" fill="#ADD1B2" rx="11" ry="11" style="stroke: #A80036; stroke-width: 1.0;"/><path d="M438.5156,386.375 Q438.6719,386.1563 438.8594,386.0469 Q439.0469,385.9375 439.2656,385.9375 Q439.6406,385.9375 439.875,386.2031 Q440.1094,386.4531 440.1094,387.0625 L440.1094,388.5156 Q440.1094,389.125 439.875,389.3906 Q439.6406,389.6563 439.2656,389.6563 Q438.9219,389.6563 438.7188,389.4531 Q438.5156,389.2656 438.4063,388.75 Q438.3594,388.3906 438.1719,388.2031 Q437.8438,387.8281 437.2344,387.6094 Q436.625,387.3906 436,387.3906 Q435.2344,387.3906 434.5938,387.7188 Q433.9688,388.0469 433.4688,388.7969 Q432.9844,389.5469 432.9844,390.5781 L432.9844,391.6719 Q432.9844,392.9063 433.875,393.7344 Q434.7656,394.5469 436.3594,394.5469 Q437.2969,394.5469 437.9531,394.2969 Q438.3438,394.1406 438.7656,393.7031 Q439.0313,393.4375 439.1719,393.3594 Q439.3281,393.2813 439.5313,393.2813 Q439.8594,393.2813 440.1094,393.5469 Q440.375,393.7969 440.375,394.1406 Q440.375,394.4844 440.0313,394.8906 Q439.5313,395.4688 438.7344,395.7969 Q437.6563,396.25 436.3594,396.25 Q434.8438,396.25 433.6406,395.625 Q432.6563,395.125 431.9688,394.0625 Q431.2813,392.9844 431.2813,391.7031 L431.2813,390.5469 Q431.2813,389.2188 431.8906,388.0781 Q432.5156,386.9219 433.6094,386.3125 Q434.7031,385.6875 435.9375,385.6875 Q436.6719,385.6875 437.3125,385.8594 Q437.9688,386.0156 438.5156,386.375 Z "/><text fill="#000000" font-family="sans-serif" font-size="12" lengthAdjust="spacingAndGlyphs" textLength="112" x="456.25" y="395.4102">MetaWeblogHandler</text><line style="stroke: #A80036; stroke-width: 1.5;" x1="260.5" x2="731.5" y1="406.5" y2="406.5"/><line style="stroke: #A80036; stroke-width: 1.5;" x1="260.5" x2="731.5" y1="414.5" y2="414.5"/><ellipse cx="270.5" cy="425.5" fill="#84BE84" rx="3" ry="3" style="stroke: #038048; stroke-width: 1.0;"/><text fill="#000000" font-family="sans-serif" font-size="11" lengthAdjust="spacingAndGlyphs" textLength="108" x="279.5" y="429.9189">initialize(Context): void</text><ellipse cx="270.5" cy="439.3359" fill="#84BE84" rx="3" ry="3" style="stroke: #038048; stroke-width: 1.0;"/><text fill="#000000" font-family="sans-serif" font-size="11" lengthAdjust="spacingAndGlyphs" textLength="305" x="279.5" y="443.7549">getCategories(String, String, String): Hashtable&lt;Object, Object&gt;</text><ellipse cx="270.5" cy="453.1719" fill="#84BE84" rx="3" ry="3" style="stroke: #038048; stroke-width: 1.0;"/><text fill="#000000" font-family="sans-serif" font-size="11" lengthAdjust="spacingAndGlyphs" textLength="251" x="279.5" y="457.5908">getRecentPosts(String, String, String, int): Hashtable</text><ellipse cx="270.5" cy="467.0078" fill="#84BE84" rx="3" ry="3" style="stroke: #038048; stroke-width: 1.0;"/><text fill="#000000" font-family="sans-serif" font-size="11" lengthAdjust="spacingAndGlyphs" textLength="356" x="279.5" y="471.4268">newPost(String, String, String, Hashtable&lt;String, Object&gt;, boolean): String</text><ellipse cx="270.5" cy="480.8438" fill="#84BE84" rx="3" ry="3" style="stroke: #038048; stroke-width: 1.0;"/><text fill="#000000" font-family="sans-serif" font-size="11" lengthAdjust="spacingAndGlyphs" textLength="447" x="279.5" y="485.2627">newMediaObject(String, String, String, Hashtable&lt;String, Object&gt;): Hashtable&lt;String, Object&gt;</text></a><!--MD5=[f602c17365d4897dbaeea06cc6e42166]
class org.apache.wiki.xmlrpc.RPCHandler--><a href="RPCHandler.html" target="_top" title="RPCHandler.html" xlink:actuate="onRequest" xlink:href="RPCHandler.html" xlink:show="new" xlink:title="RPCHandler.html" xlink:type="simple"><rect codeLine="27" fill="#FEFECE" filter="url(#fevw8it9spkj3)" height="200.1953" id="org.apache.wiki.xmlrpc.RPCHandler" style="stroke: #A80036; stroke-width: 1.5;" width="324" x="24" y="607"/><ellipse cx="146.75" cy="623" fill="#ADD1B2" rx="11" ry="11" style="stroke: #A80036; stroke-width: 1.0;"/><path d="M149.5156,618.875 Q149.6719,618.6563 149.8594,618.5469 Q150.0469,618.4375 150.2656,618.4375 Q150.6406,618.4375 150.875,618.7031 Q151.1094,618.9531 151.1094,619.5625 L151.1094,621.0156 Q151.1094,621.625 150.875,621.8906 Q150.6406,622.1563 150.2656,622.1563 Q149.9219,622.1563 149.7188,621.9531 Q149.5156,621.7656 149.4063,621.25 Q149.3594,620.8906 149.1719,620.7031 Q148.8438,620.3281 148.2344,620.1094 Q147.625,619.8906 147,619.8906 Q146.2344,619.8906 145.5938,620.2188 Q144.9688,620.5469 144.4688,621.2969 Q143.9844,622.0469 143.9844,623.0781 L143.9844,624.1719 Q143.9844,625.4063 144.875,626.2344 Q145.7656,627.0469 147.3594,627.0469 Q148.2969,627.0469 148.9531,626.7969 Q149.3438,626.6406 149.7656,626.2031 Q150.0313,625.9375 150.1719,625.8594 Q150.3281,625.7813 150.5313,625.7813 Q150.8594,625.7813 151.1094,626.0469 Q151.375,626.2969 151.375,626.6406 Q151.375,626.9844 151.0313,627.3906 Q150.5313,627.9688 149.7344,628.2969 Q148.6563,628.75 147.3594,628.75 Q145.8438,628.75 144.6406,628.125 Q143.6563,627.625 142.9688,626.5625 Q142.2813,625.4844 142.2813,624.2031 L142.2813,623.0469 Q142.2813,621.7188 142.8906,620.5781 Q143.5156,619.4219 144.6094,618.8125 Q145.7031,618.1875 146.9375,618.1875 Q147.6719,618.1875 148.3125,618.3594 Q148.9688,618.5156 149.5156,618.875 Z "/><text fill="#000000" font-family="sans-serif" font-size="12" lengthAdjust="spacingAndGlyphs" textLength="70" x="167.25" y="627.9102">RPCHandler</text><line style="stroke: #A80036; stroke-width: 1.5;" x1="25" x2="347" y1="639" y2="639"/><line style="stroke: #A80036; stroke-width: 1.5;" x1="25" x2="347" y1="647" y2="647"/><ellipse cx="35" cy="658" fill="#84BE84" rx="3" ry="3" style="stroke: #038048; stroke-width: 1.0;"/><text fill="#000000" font-family="sans-serif" font-size="11" lengthAdjust="spacingAndGlyphs" textLength="137" x="44" y="662.4189">getApplicationName(): String</text><ellipse cx="35" cy="671.8359" fill="#84BE84" rx="3" ry="3" style="stroke: #038048; stroke-width: 1.0;"/><text fill="#000000" font-family="sans-serif" font-size="11" lengthAdjust="spacingAndGlyphs" textLength="144" x="44" y="676.2549">getAllPages(): Vector&lt;String&gt;</text><polygon fill="#FFFF44" points="35,680.6719,39,684.6719,35,688.6719,31,684.6719" style="stroke: #B38D22; stroke-width: 1.0;"/><text fill="#000000" font-family="sans-serif" font-size="11" lengthAdjust="spacingAndGlyphs" textLength="242" x="44" y="690.0908">encodeWikiPage(Page): Hashtable&lt;String, Object&gt;</text><ellipse cx="35" cy="699.5078" fill="#84BE84" rx="3" ry="3" style="stroke: #038048; stroke-width: 1.0;"/><text fill="#000000" font-family="sans-serif" font-size="11" lengthAdjust="spacingAndGlyphs" textLength="298" x="44" y="703.9268">getRecentChanges(Date): Vector&lt;Hashtable&lt;String, Object&gt;&gt;</text><ellipse cx="35" cy="713.3438" fill="#84BE84" rx="3" ry="3" style="stroke: #038048; stroke-width: 1.0;"/><text fill="#000000" font-family="sans-serif" font-size="11" lengthAdjust="spacingAndGlyphs" textLength="147" x="44" y="717.7627">getPageInfo(String): Hashtable</text><ellipse cx="35" cy="727.1797" fill="#84BE84" rx="3" ry="3" style="stroke: #038048; stroke-width: 1.0;"/><text fill="#000000" font-family="sans-serif" font-size="11" lengthAdjust="spacingAndGlyphs" textLength="202" x="44" y="731.5986">getPageInfoVersion(String, int): Hashtable</text><ellipse cx="35" cy="741.0156" fill="#84BE84" rx="3" ry="3" style="stroke: #038048; stroke-width: 1.0;"/><text fill="#000000" font-family="sans-serif" font-size="11" lengthAdjust="spacingAndGlyphs" textLength="108" x="44" y="745.4346">getPage(String): byte[]</text><ellipse cx="35" cy="754.8516" fill="#84BE84" rx="3" ry="3" style="stroke: #038048; stroke-width: 1.0;"/><text fill="#000000" font-family="sans-serif" font-size="11" lengthAdjust="spacingAndGlyphs" textLength="163" x="44" y="759.2705">getPageVersion(String, int): byte[]</text><ellipse cx="35" cy="768.6875" fill="#84BE84" rx="3" ry="3" style="stroke: #038048; stroke-width: 1.0;"/><text fill="#000000" font-family="sans-serif" font-size="11" lengthAdjust="spacingAndGlyphs" textLength="135" x="44" y="773.1064">getPageHTML(String): byte[]</text><ellipse cx="35" cy="782.5234" fill="#84BE84" rx="3" ry="3" style="stroke: #038048; stroke-width: 1.0;"/><text fill="#000000" font-family="sans-serif" font-size="11" lengthAdjust="spacingAndGlyphs" textLength="190" x="44" y="786.9424">getPageHTMLVersion(String, int): byte[]</text><ellipse cx="35" cy="796.3594" fill="#84BE84" rx="3" ry="3" style="stroke: #038048; stroke-width: 1.0;"/><text fill="#000000" font-family="sans-serif" font-size="11" lengthAdjust="spacingAndGlyphs" textLength="247" x="44" y="800.7783">listLinks(String): Vector&lt;Hashtable&lt;String, String&gt;&gt;</text></a><!--MD5=[09eef79e6deadbae15e7067be74e222e]
class org.apache.wiki.xmlrpc.RPCHandlerUTF8--><a href="RPCHandlerUTF8.html" target="_top" title="RPCHandlerUTF8.html" xlink:actuate="onRequest" xlink:href="RPCHandlerUTF8.html" xlink:show="new" xlink:title="RPCHandlerUTF8.html" xlink:type="simple"><rect codeLine="41" fill="#FEFECE" filter="url(#fevw8it9spkj3)" height="200.1953" id="org.apache.wiki.xmlrpc.RPCHandlerUTF8" style="stroke: #A80036; stroke-width: 1.5;" width="324" x="383" y="607"/><ellipse cx="490.75" cy="623" fill="#ADD1B2" rx="11" ry="11" style="stroke: #A80036; stroke-width: 1.0;"/><path d="M493.5156,618.875 Q493.6719,618.6563 493.8594,618.5469 Q494.0469,618.4375 494.2656,618.4375 Q494.6406,618.4375 494.875,618.7031 Q495.1094,618.9531 495.1094,619.5625 L495.1094,621.0156 Q495.1094,621.625 494.875,621.8906 Q494.6406,622.1563 494.2656,622.1563 Q493.9219,622.1563 493.7188,621.9531 Q493.5156,621.7656 493.4063,621.25 Q493.3594,620.8906 493.1719,620.7031 Q492.8438,620.3281 492.2344,620.1094 Q491.625,619.8906 491,619.8906 Q490.2344,619.8906 489.5938,620.2188 Q488.9688,620.5469 488.4688,621.2969 Q487.9844,622.0469 487.9844,623.0781 L487.9844,624.1719 Q487.9844,625.4063 488.875,626.2344 Q489.7656,627.0469 491.3594,627.0469 Q492.2969,627.0469 492.9531,626.7969 Q493.3438,626.6406 493.7656,626.2031 Q494.0313,625.9375 494.1719,625.8594 Q494.3281,625.7813 494.5313,625.7813 Q494.8594,625.7813 495.1094,626.0469 Q495.375,626.2969 495.375,626.6406 Q495.375,626.9844 495.0313,627.3906 Q494.5313,627.9688 493.7344,628.2969 Q492.6563,628.75 491.3594,628.75 Q489.8438,628.75 488.6406,628.125 Q487.6563,627.625 486.9688,626.5625 Q486.2813,625.4844 486.2813,624.2031 L486.2813,623.0469 Q486.2813,621.7188 486.8906,620.5781 Q487.5156,619.4219 488.6094,618.8125 Q489.7031,618.1875 490.9375,618.1875 Q491.6719,618.1875 492.3125,618.3594 Q492.9688,618.5156 493.5156,618.875 Z "/><text fill="#000000" font-family="sans-serif" font-size="12" lengthAdjust="spacingAndGlyphs" textLength="100" x="511.25" y="627.9102">RPCHandlerUTF8</text><line style="stroke: #A80036; stroke-width: 1.5;" x1="384" x2="706" y1="639" y2="639"/><line style="stroke: #A80036; stroke-width: 1.5;" x1="384" x2="706" y1="647" y2="647"/><ellipse cx="394" cy="658" fill="#84BE84" rx="3" ry="3" style="stroke: #038048; stroke-width: 1.0;"/><text fill="#000000" font-family="sans-serif" font-size="11" lengthAdjust="spacingAndGlyphs" textLength="137" x="403" y="662.4189">getApplicationName(): String</text><ellipse cx="394" cy="671.8359" fill="#84BE84" rx="3" ry="3" style="stroke: #038048; stroke-width: 1.0;"/><text fill="#000000" font-family="sans-serif" font-size="11" lengthAdjust="spacingAndGlyphs" textLength="144" x="403" y="676.2549">getAllPages(): Vector&lt;String&gt;</text><polygon fill="#FFFF44" points="394,680.6719,398,684.6719,394,688.6719,390,684.6719" style="stroke: #B38D22; stroke-width: 1.0;"/><text fill="#000000" font-family="sans-serif" font-size="11" lengthAdjust="spacingAndGlyphs" textLength="242" x="403" y="690.0908">encodeWikiPage(Page): Hashtable&lt;String, Object&gt;</text><ellipse cx="394" cy="699.5078" fill="#84BE84" rx="3" ry="3" style="stroke: #038048; stroke-width: 1.0;"/><text fill="#000000" font-family="sans-serif" font-size="11" lengthAdjust="spacingAndGlyphs" textLength="298" x="403" y="703.9268">getRecentChanges(Date): Vector&lt;Hashtable&lt;String, Object&gt;&gt;</text><ellipse cx="394" cy="713.3438" fill="#84BE84" rx="3" ry="3" style="stroke: #038048; stroke-width: 1.0;"/><text fill="#000000" font-family="sans-serif" font-size="11" lengthAdjust="spacingAndGlyphs" textLength="224" x="403" y="717.7627">getPageInfo(String): Hashtable&lt;String, Object&gt;</text><ellipse cx="394" cy="727.1797" fill="#84BE84" rx="3" ry="3" style="stroke: #038048; stroke-width: 1.0;"/><text fill="#000000" font-family="sans-serif" font-size="11" lengthAdjust="spacingAndGlyphs" textLength="279" x="403" y="731.5986">getPageInfoVersion(String, int): Hashtable&lt;String, Object&gt;</text><ellipse cx="394" cy="741.0156" fill="#84BE84" rx="3" ry="3" style="stroke: #038048; stroke-width: 1.0;"/><text fill="#000000" font-family="sans-serif" font-size="11" lengthAdjust="spacingAndGlyphs" textLength="109" x="403" y="745.4346">getPage(String): String</text><ellipse cx="394" cy="754.8516" fill="#84BE84" rx="3" ry="3" style="stroke: #038048; stroke-width: 1.0;"/><text fill="#000000" font-family="sans-serif" font-size="11" lengthAdjust="spacingAndGlyphs" textLength="164" x="403" y="759.2705">getPageVersion(String, int): String</text><ellipse cx="394" cy="768.6875" fill="#84BE84" rx="3" ry="3" style="stroke: #038048; stroke-width: 1.0;"/><text fill="#000000" font-family="sans-serif" font-size="11" lengthAdjust="spacingAndGlyphs" textLength="136" x="403" y="773.1064">getPageHTML(String): String</text><ellipse cx="394" cy="782.5234" fill="#84BE84" rx="3" ry="3" style="stroke: #038048; stroke-width: 1.0;"/><text fill="#000000" font-family="sans-serif" font-size="11" lengthAdjust="spacingAndGlyphs" textLength="191" x="403" y="786.9424">getPageHTMLVersion(String, int): String</text><ellipse cx="394" cy="796.3594" fill="#84BE84" rx="3" ry="3" style="stroke: #038048; stroke-width: 1.0;"/><text fill="#000000" font-family="sans-serif" font-size="11" lengthAdjust="spacingAndGlyphs" textLength="247" x="403" y="800.7783">listLinks(String): Vector&lt;Hashtable&lt;String, String&gt;&gt;</text></a><!--MD5=[5d9f0da3d510941b79f67349759f568f]
class org.apache.wiki.xmlrpc.RPCServlet--><a href="RPCServlet.html" target="_top" title="RPCServlet.html" xlink:actuate="onRequest" xlink:href="RPCServlet.html" xlink:show="new" xlink:title="RPCServlet.html" xlink:type="simple"><rect codeLine="55" fill="#FEFECE" filter="url(#fevw8it9spkj3)" height="117.1797" id="org.apache.wiki.xmlrpc.RPCServlet" style="stroke: #A80036; stroke-width: 1.5;" width="294" x="385" y="142"/><ellipse cx="496.25" cy="158" fill="#ADD1B2" rx="11" ry="11" style="stroke: #A80036; stroke-width: 1.0;"/><path d="M499.0156,153.875 Q499.1719,153.6563 499.3594,153.5469 Q499.5469,153.4375 499.7656,153.4375 Q500.1406,153.4375 500.375,153.7031 Q500.6094,153.9531 500.6094,154.5625 L500.6094,156.0156 Q500.6094,156.625 500.375,156.8906 Q500.1406,157.1563 499.7656,157.1563 Q499.4219,157.1563 499.2188,156.9531 Q499.0156,156.7656 498.9063,156.25 Q498.8594,155.8906 498.6719,155.7031 Q498.3438,155.3281 497.7344,155.1094 Q497.125,154.8906 496.5,154.8906 Q495.7344,154.8906 495.0938,155.2188 Q494.4688,155.5469 493.9688,156.2969 Q493.4844,157.0469 493.4844,158.0781 L493.4844,159.1719 Q493.4844,160.4063 494.375,161.2344 Q495.2656,162.0469 496.8594,162.0469 Q497.7969,162.0469 498.4531,161.7969 Q498.8438,161.6406 499.2656,161.2031 Q499.5313,160.9375 499.6719,160.8594 Q499.8281,160.7813 500.0313,160.7813 Q500.3594,160.7813 500.6094,161.0469 Q500.875,161.2969 500.875,161.6406 Q500.875,161.9844 500.5313,162.3906 Q500.0313,162.9688 499.2344,163.2969 Q498.1563,163.75 496.8594,163.75 Q495.3438,163.75 494.1406,163.125 Q493.1563,162.625 492.4688,161.5625 Q491.7813,160.4844 491.7813,159.2031 L491.7813,158.0469 Q491.7813,156.7188 492.3906,155.5781 Q493.0156,154.4219 494.1094,153.8125 Q495.2031,153.1875 496.4375,153.1875 Q497.1719,153.1875 497.8125,153.3594 Q498.4688,153.5156 499.0156,153.875 Z "/><text fill="#000000" font-family="sans-serif" font-size="12" lengthAdjust="spacingAndGlyphs" textLength="63" x="516.75" y="162.9102">RPCServlet</text><line style="stroke: #A80036; stroke-width: 1.5;" x1="386" x2="678" y1="174" y2="174"/><ellipse cx="396" cy="185" fill="none" rx="3" ry="3" style="stroke: #038048; stroke-width: 1.0;"/><text fill="#000000" font-family="sans-serif" font-size="11" lengthAdjust="spacingAndGlyphs" text-decoration="underline" textLength="115" x="405" y="189.4189">XMLRPC_PREFIX: String</text><line style="stroke: #A80036; stroke-width: 1.5;" x1="386" x2="678" y1="195.8359" y2="195.8359"/><ellipse cx="396" cy="206.8359" fill="#84BE84" rx="3" ry="3" style="stroke: #038048; stroke-width: 1.0;"/><text fill="#000000" font-family="sans-serif" font-size="11" lengthAdjust="spacingAndGlyphs" textLength="146" x="405" y="211.2549">initHandler(String, String): void</text><ellipse cx="396" cy="220.6719" fill="#84BE84" rx="3" ry="3" style="stroke: #038048; stroke-width: 1.0;"/><text fill="#000000" font-family="sans-serif" font-size="11" lengthAdjust="spacingAndGlyphs" textLength="112" x="405" y="225.0908">init(ServletConfig): void</text><ellipse cx="396" cy="234.5078" fill="#84BE84" rx="3" ry="3" style="stroke: #038048; stroke-width: 1.0;"/><text fill="#000000" font-family="sans-serif" font-size="11" lengthAdjust="spacingAndGlyphs" textLength="268" x="405" y="238.9268">doPost(HttpServletRequest, HttpServletResponse): void</text><ellipse cx="396" cy="248.3438" fill="#84BE84" rx="3" ry="3" style="stroke: #038048; stroke-width: 1.0;"/><text fill="#000000" font-family="sans-serif" font-size="11" lengthAdjust="spacingAndGlyphs" textLength="264" x="405" y="252.7627">doGet(HttpServletRequest, HttpServletResponse): void</text></a><!--MD5=[8483cdb6557c85c4e71bb46d40d147dd]
class org.apache.wiki.xmlrpc.WikiRPCHandler--><a href="WikiRPCHandler.html" target="_top" title="WikiRPCHandler.html" xlink:actuate="onRequest" xlink:href="WikiRPCHandler.html" xlink:show="new" xlink:title="WikiRPCHandler.html" xlink:type="simple"><rect codeLine="63" fill="#FEFECE" filter="url(#fevw8it9spkj3)" height="61.8359" id="org.apache.wiki.xmlrpc.WikiRPCHandler" style="stroke: #A80036; stroke-width: 1.5;" width="140" x="106" y="169.5"/><ellipse cx="127.3" cy="185.5" fill="#B4A7E5" rx="11" ry="11" style="stroke: #A80036; stroke-width: 1.0;"/><path d="M128.2531,182.1406 L128.2531,188.7969 L129.9719,188.7969 Q130.5813,188.7969 130.8469,189.0313 Q131.1125,189.2656 131.1125,189.6563 Q131.1125,190.0313 130.8469,190.2656 Q130.5813,190.5 129.9719,190.5 L124.8313,190.5 Q124.2219,190.5 123.9563,190.2656 Q123.6906,190.0313 123.6906,189.6406 Q123.6906,189.2656 123.9563,189.0313 Q124.2219,188.7969 124.8313,188.7969 L126.55,188.7969 L126.55,182.1406 L124.8313,182.1406 Q124.2219,182.1406 123.9563,181.9063 Q123.6906,181.6719 123.6906,181.2813 Q123.6906,180.9063 123.9563,180.6719 Q124.2219,180.4375 124.8313,180.4375 L129.9719,180.4375 Q130.5813,180.4375 130.8469,180.6719 Q131.1125,180.9063 131.1125,181.2813 Q131.1125,181.6719 130.8469,181.9063 Q130.5813,182.1406 129.9719,182.1406 L128.2531,182.1406 Z "/><text fill="#000000" font-family="sans-serif" font-size="12" font-style="italic" lengthAdjust="spacingAndGlyphs" textLength="94" x="142.7" y="190.4102">WikiRPCHandler</text><line style="stroke: #A80036; stroke-width: 1.5;" x1="107" x2="245" y1="201.5" y2="201.5"/><line style="stroke: #A80036; stroke-width: 1.5;" x1="107" x2="245" y1="209.5" y2="209.5"/><ellipse cx="117" cy="220.5" fill="#84BE84" rx="3" ry="3" style="stroke: #038048; stroke-width: 1.0;"/><text fill="#000000" font-family="sans-serif" font-size="11" font-style="italic" lengthAdjust="spacingAndGlyphs" textLength="114" x="126" y="224.9189">initialize(Context): void</text></a><!--MD5=[f416d4ad4711b5ddf00f6f9e1e57970b]
class javax.servlet.http.HttpServlet--><rect codeLine="75" fill="#FEFECE" filter="url(#fevw8it9spkj3)" height="48" id="javax.servlet.http.HttpServlet" style="stroke: #A80036; stroke-width: 1.5;" width="92" x="486" y="34"/><ellipse cx="501" cy="50" fill="#A9DCDF" rx="11" ry="11" style="stroke: #A80036; stroke-width: 1.0;"/><path d="M503.1875,51.7656 L499.0469,51.7656 L498.625,52.7969 L499.0469,52.7969 Q499.6563,52.7969 499.9219,53.0313 Q500.1875,53.2656 500.1875,53.6563 Q500.1875,54.0313 499.9219,54.2656 Q499.6563,54.5 499.0469,54.5 L496.75,54.5 Q496.1406,54.5 495.8906,54.2656 Q495.625,54.0313 495.625,53.6406 Q495.625,53.2656 495.9063,53.0313 Q496.1719,52.7813 496.7969,52.7969 L499.4688,46.1406 L498.3594,46.1406 Q497.75,46.1406 497.4844,45.9063 Q497.2188,45.6719 497.2188,45.2813 Q497.2188,44.9063 497.4844,44.6719 Q497.75,44.4375 498.3594,44.4375 L502.0313,44.4375 L505.4219,52.7969 Q506.0156,52.7969 506.2031,52.9375 Q506.5938,53.2031 506.5938,53.6563 Q506.5938,54.0313 506.3281,54.2656 Q506.0781,54.5 505.4688,54.5 L503.1719,54.5 Q502.5625,54.5 502.2969,54.2656 Q502.0313,54.0313 502.0313,53.6406 Q502.0313,53.2656 502.2969,53.0313 Q502.5625,52.7969 503.1719,52.7969 L503.5938,52.7969 L503.1875,51.7656 Z M502.4688,50.0625 L501.1094,46.6875 L499.7344,50.0625 L502.4688,50.0625 Z "/><text fill="#000000" font-family="sans-serif" font-size="12" font-style="italic" lengthAdjust="spacingAndGlyphs" textLength="60" x="515" y="54.9102">HttpServlet</text><line style="stroke: #A80036; stroke-width: 1.5;" x1="487" x2="577" y1="66" y2="66"/><line style="stroke: #A80036; stroke-width: 1.5;" x1="487" x2="577" y1="74" y2="74"/><!--MD5=[b36d3daa24fba8274812f72a8266ab2f]
reverse link org.apache.wiki.xmlrpc.WikiRPCHandler to org.apache.wiki.xmlrpc.AbstractRPCHandler--><path codeLine="67" d="M164.5939,251.4984 C160.1246,271.4813 154.8044,295.2689 149.5112,318.9357 " fill="none" id="org.apache.wiki.xmlrpc.WikiRPCHandler-backto-org.apache.wiki.xmlrpc.AbstractRPCHandler" style="stroke: #A80036; stroke-width: 1.0; stroke-dasharray: 7.0,7.0;"/><polygon fill="none" points="157.7905,249.8459,168.987,231.856,171.4529,252.9017,157.7905,249.8459" style="stroke: #A80036; stroke-width: 1.0;"/><!--MD5=[af9ca9dde8add6c952741abb9e89cfd0]
reverse link org.apache.wiki.xmlrpc.WikiRPCHandler to org.apache.wiki.xmlrpc.MetaWeblogHandler--><path codeLine="68" d="M235.071,243.4188 C285.727,280.2235 359.1943,333.6021 415.2747,374.348 " fill="none" id="org.apache.wiki.xmlrpc.WikiRPCHandler-backto-org.apache.wiki.xmlrpc.MetaWeblogHandler" style="stroke: #A80036; stroke-width: 1.0; stroke-dasharray: 7.0,7.0;"/><polygon fill="none" points="230.8902,249.0338,218.8246,231.6147,239.1194,237.7076,230.8902,249.0338" style="stroke: #A80036; stroke-width: 1.0;"/><!--MD5=[1a0e0b568de5065bace6d5e4f4db5df1]
reverse link org.apache.wiki.xmlrpc.AbstractRPCHandler to org.apache.wiki.xmlrpc.RPCHandler--><path codeLine="69" d="M154.2942,566.881 C157.3451,580.3639 160.4051,593.8872 163.356,606.928 " fill="none" id="org.apache.wiki.xmlrpc.AbstractRPCHandler-backto-org.apache.wiki.xmlrpc.RPCHandler" style="stroke: #A80036; stroke-width: 1.0;"/><polygon fill="none" points="147.4313,568.2683,149.8446,547.2166,161.0861,565.1785,147.4313,568.2683" style="stroke: #A80036; stroke-width: 1.0;"/><!--MD5=[b324e02ec6675c1033fc7ebbd9b0ee4f]
reverse link org.apache.wiki.xmlrpc.AbstractRPCHandler to org.apache.wiki.xmlrpc.RPCHandlerUTF8--><path codeLine="70" d="M240.3253,545.8228 C240.8834,546.2178 241.4416,546.6102 242,547 C292.2026,582.0435 311.6967,578.7247 366,607 C371.5253,609.877 377.1317,612.828 382.7823,615.8293 " fill="none" id="org.apache.wiki.xmlrpc.AbstractRPCHandler-backto-org.apache.wiki.xmlrpc.RPCHandlerUTF8" style="stroke: #A80036; stroke-width: 1.0;"/><polygon fill="none" points="236.0107,551.3366,224.235,533.7203,244.4261,540.1482,236.0107,551.3366" style="stroke: #A80036; stroke-width: 1.0;"/><!--MD5=[007a222e11438a251d83523cc3827b39]
reverse link javax.servlet.http.HttpServlet to org.apache.wiki.xmlrpc.RPCServlet--><path codeLine="71" d="M532,102.246 C532,114.7446 532,128.5444 532,141.7525 " fill="none" id="javax.servlet.http.HttpServlet-backto-org.apache.wiki.xmlrpc.RPCServlet" style="stroke: #A80036; stroke-width: 1.0;"/><polygon fill="none" points="525.0001,102.1732,532,82.1732,539.0001,102.1731,525.0001,102.1732" style="stroke: #A80036; stroke-width: 1.0;"/><text fill="#888888" font-family="sans-serif" font-size="10" lengthAdjust="spacingAndGlyphs" textLength="190" x="277" y="831.3809">UMLDoclet 2.0.12, PlantUML 1.2020.16</text><!--MD5=[09f2e9323a715488b0123abeb1257cbb]
@startuml
    namespace org.apache.wiki.xmlrpc {

        abstract class AbstractRPCHandler [[AbstractRPCHandler.html]] {
            {static} +ERR_NOPAGE: int
            {static} +ERR_NOPERMISSION: int
            {static} +LINK_LOCAL: String
            {static} +LINK_EXTERNAL: String
            {static} +LINK_INLINE: String
            #m_engine: Engine
            #m_context: Context
            {static} +RPC_VERSION: int
            +initialize(Context): void
            {abstract} #encodeWikiPage(Page): Hashtable
            +getRecentChanges(Date): Vector
            #checkPermission(Permission): void
            +getRPCVersionSupported(): int
        }

        class MetaWeblogHandler [[MetaWeblogHandler.html]] {
            +initialize(Context): void
            +getCategories(String, String, String): Hashtable<Object, Object>
            +getRecentPosts(String, String, String, int): Hashtable
            +newPost(String, String, String, Hashtable<String, Object>, boolean): String
            +newMediaObject(String, String, String, Hashtable<String, Object>): Hashtable<String, Object>
        }

        class RPCHandler [[RPCHandler.html]] {
            +getApplicationName(): String
            +getAllPages(): Vector<String>
            #encodeWikiPage(Page): Hashtable<String, Object>
            +getRecentChanges(Date): Vector<Hashtable<String, Object>>
            +getPageInfo(String): Hashtable
            +getPageInfoVersion(String, int): Hashtable
            +getPage(String): byte[]
            +getPageVersion(String, int): byte[]
            +getPageHTML(String): byte[]
            +getPageHTMLVersion(String, int): byte[]
            +listLinks(String): Vector<Hashtable<String, String>>
        }

        class RPCHandlerUTF8 [[RPCHandlerUTF8.html]] {
            +getApplicationName(): String
            +getAllPages(): Vector<String>
            #encodeWikiPage(Page): Hashtable<String, Object>
            +getRecentChanges(Date): Vector<Hashtable<String, Object>>
            +getPageInfo(String): Hashtable<String, Object>
            +getPageInfoVersion(String, int): Hashtable<String, Object>
            +getPage(String): String
            +getPageVersion(String, int): String
            +getPageHTML(String): String
            +getPageHTMLVersion(String, int): String
            +listLinks(String): Vector<Hashtable<String, String>>
        }

        class RPCServlet [[RPCServlet.html]] {
            {static} +XMLRPC_PREFIX: String
            +initHandler(String, String): void
            +init(ServletConfig): void
            +doPost(HttpServletRequest, HttpServletResponse): void
            +doGet(HttpServletRequest, HttpServletResponse): void
        }

        interface WikiRPCHandler [[WikiRPCHandler.html]] {
            {abstract} +initialize(Context): void
        }

        WikiRPCHandler <|.. AbstractRPCHandler
        WikiRPCHandler <|.. MetaWeblogHandler
        AbstractRPCHandler <|- - RPCHandler
        AbstractRPCHandler <|- - RPCHandlerUTF8
        javax.servlet.http.HttpServlet <|- - RPCServlet
    }

    namespace javax.servlet.http {
        abstract class HttpServlet {
        }
    }

    center footer UMLDoclet 2.0.12, PlantUML 1.2020.16
@enduml

PlantUML version 1.2020.16(Sun Aug 23 22:20:43 CEST 2020)
(APACHE source distribution)
Java Runtime: OpenJDK Runtime Environment
JVM: OpenJDK 64-Bit Server VM
Default Encoding: Cp1252
Language: es
Country: ES
--></g></svg>