<?xml version="1.0" encoding="UTF-8" standalone="no"?><svg xmlns="http://www.w3.org/2000/svg" xmlns:xlink="http://www.w3.org/1999/xlink" contentScriptType="application/ecmascript" contentStyleType="text/css" height="99px" preserveAspectRatio="none" style="width:202px;height:99px;" version="1.1" viewBox="0 0 202 99" width="202px" zoomAndPan="magnify"><defs><filter height="300%" id="f12oqcbzpm5wsj" width="300%" x="-1" y="-1"><feGaussianBlur result="blurOut" stdDeviation="2.0"/><feColorMatrix in="blurOut" result="blurOut2" type="matrix" values="0 0 0 0 0 0 0 0 0 0 0 0 0 0 0 0 0 0 .4 0"/><feOffset dx="4.0" dy="4.0" in="blurOut2" result="blurOut3"/><feBlend in="SourceGraphic" in2="blurOut3" mode="normal"/></filter></defs><g><!--MD5=[8483cdb6557c85c4e71bb46d40d147dd]
class org.apache.wiki.xmlrpc.WikiRPCHandler--><a href="WikiRPCHandler.html" target="_top" title="WikiRPCHandler.html" xlink:actuate="onRequest" xlink:href="WikiRPCHandler.html" xlink:show="new" xlink:title="WikiRPCHandler.html" xlink:type="simple"><rect codeLine="5" fill="#FEFECE" filter="url(#f12oqcbzpm5wsj)" height="62.0234" id="org.apache.wiki.xmlrpc.WikiRPCHandler" style="stroke: #A80036; stroke-width: 1.5;" width="140" x="25" y="7"/><ellipse cx="40.45" cy="27.0938" fill="#B4A7E5" rx="11" ry="11" style="stroke: #A80036; stroke-width: 1.0;"/><path d="M41.4031,23.7344 L41.4031,30.3906 L43.1219,30.3906 Q43.7313,30.3906 43.9969,30.625 Q44.2625,30.8594 44.2625,31.25 Q44.2625,31.625 43.9969,31.8594 Q43.7313,32.0938 43.1219,32.0938 L37.9813,32.0938 Q37.3719,32.0938 37.1063,31.8594 Q36.8406,31.625 36.8406,31.2344 Q36.8406,30.8594 37.1063,30.625 Q37.3719,30.3906 37.9813,30.3906 L39.7,30.3906 L39.7,23.7344 L37.9813,23.7344 Q37.3719,23.7344 37.1063,23.5 Q36.8406,23.2656 36.8406,22.875 Q36.8406,22.5 37.1063,22.2656 Q37.3719,22.0313 37.9813,22.0313 L43.1219,22.0313 Q43.7313,22.0313 43.9969,22.2656 Q44.2625,22.5 44.2625,22.875 Q44.2625,23.2656 43.9969,23.5 Q43.7313,23.7344 43.1219,23.7344 L41.4031,23.7344 Z "/><text fill="#000000" font-family="sans-serif" font-size="14" font-style="italic" lengthAdjust="spacingAndGlyphs" textLength="107" x="54.55" y="26.5332">WikiRPCHandler</text><text fill="#000000" font-family="sans-serif" font-size="10" font-style="italic" lengthAdjust="spacingAndGlyphs" textLength="107" x="54.55" y="39.9902">org.apache.wiki.xmlrpc</text><line style="stroke: #A80036; stroke-width: 1.5;" x1="26" x2="164" y1="47.1875" y2="47.1875"/><ellipse cx="36" cy="58.1875" fill="#84BE84" rx="3" ry="3" style="stroke: #038048; stroke-width: 1.0;"/><text fill="#000000" font-family="sans-serif" font-size="11" font-style="italic" lengthAdjust="spacingAndGlyphs" textLength="114" x="45" y="62.6064">initialize(Context): void</text></a><text fill="#888888" font-family="sans-serif" font-size="10" lengthAdjust="spacingAndGlyphs" textLength="190" x="0" y="86.4043">UMLDoclet 2.0.12, PlantUML 1.2020.16</text><!--MD5=[3f2c41d5931c19096cc4e6bf2a865170]
@startuml
    set namespaceSeparator none
    hide empty fields
    hide empty methods

    interface "<size:14>WikiRPCHandler\n<size:10>org.apache.wiki.xmlrpc" as org.apache.wiki.xmlrpc.WikiRPCHandler [[WikiRPCHandler.html]] {
        {abstract} +initialize(Context): void
    }

    center footer UMLDoclet 2.0.12, PlantUML 1.2020.16
@enduml

PlantUML version 1.2020.16(Sun Aug 23 22:20:43 CEST 2020)
(APACHE source distribution)
Java Runtime: OpenJDK Runtime Environment
JVM: OpenJDK 64-Bit Server VM
Default Encoding: Cp1252
Language: es
Country: ES
--></g></svg>