<?xml version="1.0" encoding="UTF-8" standalone="no"?><svg xmlns="http://www.w3.org/2000/svg" xmlns:xlink="http://www.w3.org/1999/xlink" contentScriptType="application/ecmascript" contentStyleType="text/css" height="299px" preserveAspectRatio="none" style="width:380px;height:299px;" version="1.1" viewBox="0 0 380 299" width="380px" zoomAndPan="magnify"><defs><filter height="300%" id="f5fq15d9o7don" width="300%" x="-1" y="-1"><feGaussianBlur result="blurOut" stdDeviation="2.0"/><feColorMatrix in="blurOut" result="blurOut2" type="matrix" values="0 0 0 0 0 0 0 0 0 0 0 0 0 0 0 0 0 0 .4 0"/><feOffset dx="4.0" dy="4.0" in="blurOut2" result="blurOut3"/><feBlend in="SourceGraphic" in2="blurOut3" mode="normal"/></filter></defs><g><!--cluster org.apache.wiki.content--><polygon fill="#FFFFFF" filter="url(#f5fq15d9o7don)" points="14,16,211,16,218,38.2969,358,38.2969,358,259,14,259,14,16" style="stroke: #000000; stroke-width: 1.5;"/><line style="stroke: #000000; stroke-width: 1.5;" x1="14" x2="218" y1="38.2969" y2="38.2969"/><text fill="#000000" font-family="sans-serif" font-size="14" font-weight="bold" lengthAdjust="spacingAndGlyphs" textLength="191" x="18" y="30.9951">org.apache.wiki.content</text><!--class org.apache.wiki.content.DefaultPageRenamer--><a href="DefaultPageRenamer.html" target="_top" xlink:actuate="onRequest" xlink:show="new" xlink:title="DefaultPageRenamer.html" xlink:type="simple"><rect fill="#FEFECE" filter="url(#f5fq15d9o7don)" height="73.6094" id="org.apache.wiki.content.DefaultPageRenamer" style="stroke: #A80036; stroke-width: 1.5;" width="328" x="22" y="177"/><ellipse cx="115.25" cy="193" fill="#ADD1B2" rx="11" ry="11" style="stroke: #A80036; stroke-width: 1.0;"/><path d="M118.2188,198.6406 Q117.6406,198.9375 117,199.0859 Q116.3594,199.2344 115.6563,199.2344 Q113.1563,199.2344 111.8359,197.5859 Q110.5156,195.9375 110.5156,192.8125 Q110.5156,189.6875 111.8359,188.0313 Q113.1563,186.375 115.6563,186.375 Q116.3594,186.375 117.0078,186.5313 Q117.6563,186.6875 118.2188,186.9844 L118.2188,189.7031 Q117.5938,189.125 117,188.8516 Q116.4063,188.5781 115.7813,188.5781 Q114.4375,188.5781 113.75,189.6484 Q113.0625,190.7188 113.0625,192.8125 Q113.0625,194.9063 113.75,195.9766 Q114.4375,197.0469 115.7813,197.0469 Q116.4063,197.0469 117,196.7734 Q117.5938,196.5 118.2188,195.9219 L118.2188,198.6406 Z "/><text fill="#000000" font-family="sans-serif" font-size="12" lengthAdjust="spacingAndGlyphs" textLength="133" x="135.75" y="197.1543">DefaultPageRenamer</text><line style="stroke: #A80036; stroke-width: 1.5;" x1="23" x2="349" y1="209" y2="209"/><line style="stroke: #A80036; stroke-width: 1.5;" x1="23" x2="349" y1="217" y2="217"/><ellipse cx="33" cy="228.9023" fill="#84BE84" rx="3" ry="3" style="stroke: #038048; stroke-width: 1.0;"/><text fill="#000000" font-family="sans-serif" font-size="11" lengthAdjust="spacingAndGlyphs" textLength="302" x="42" y="231.2104">renamePage(Context, String, String, boolean): String</text><ellipse cx="33" cy="241.707" fill="#84BE84" rx="3" ry="3" style="stroke: #038048; stroke-width: 1.0;"/><text fill="#000000" font-family="sans-serif" font-size="11" lengthAdjust="spacingAndGlyphs" textLength="239" x="42" y="244.0151">firePageRenameEvent(String, String): void</text></a><!--class org.apache.wiki.content.PageRenamer--><a href="PageRenamer.html" target="_top" xlink:actuate="onRequest" xlink:show="new" xlink:title="PageRenamer.html" xlink:type="simple"><rect fill="#FEFECE" filter="url(#f5fq15d9o7don)" height="73.6094" id="org.apache.wiki.content.PageRenamer" style="stroke: #A80036; stroke-width: 1.5;" width="326" x="23" y="43"/><ellipse cx="138.25" cy="59" fill="#B4A7E5" rx="11" ry="11" style="stroke: #A80036; stroke-width: 1.0;"/><path d="M134.1719,54.7656 L134.1719,52.6094 L141.5625,52.6094 L141.5625,54.7656 L139.0938,54.7656 L139.0938,62.8438 L141.5625,62.8438 L141.5625,65 L134.1719,65 L134.1719,62.8438 L136.6406,62.8438 L136.6406,54.7656 L134.1719,54.7656 Z "/><text fill="#000000" font-family="sans-serif" font-size="12" font-style="italic" lengthAdjust="spacingAndGlyphs" textLength="87" x="158.75" y="63.1543">PageRenamer</text><line style="stroke: #A80036; stroke-width: 1.5;" x1="24" x2="348" y1="75" y2="75"/><line style="stroke: #A80036; stroke-width: 1.5;" x1="24" x2="348" y1="83" y2="83"/><ellipse cx="34" cy="94.9023" fill="#84BE84" rx="3" ry="3" style="stroke: #038048; stroke-width: 1.0;"/><text fill="#000000" font-family="sans-serif" font-size="11" font-style="italic" lengthAdjust="spacingAndGlyphs" textLength="300" x="43" y="97.2104">renamePage(Context, String, String, boolean): String</text><ellipse cx="34" cy="107.707" fill="#84BE84" rx="3" ry="3" style="stroke: #038048; stroke-width: 1.0;"/><text fill="#000000" font-family="sans-serif" font-size="11" font-style="italic" lengthAdjust="spacingAndGlyphs" textLength="240" x="43" y="110.0151">firePageRenameEvent(String, String): void</text></a><!--link org.apache.wiki.content.PageRenamer to org.apache.wiki.content.DefaultPageRenamer--><path d="M186,137.5351 C186,150.8601 186,164.6949 186,176.8737 " fill="none" id="org.apache.wiki.content.PageRenamer-org.apache.wiki.content.DefaultPageRenamer" style="stroke: #A80036; stroke-width: 1.0; stroke-dasharray: 7.0,7.0;"/><polygon fill="none" points="179.0001,137.3265,186,117.3265,193.0001,137.3264,179.0001,137.3265" style="stroke: #A80036; stroke-width: 1.0;"/><text fill="#888888" font-family="sans-serif" font-size="10" lengthAdjust="spacingAndGlyphs" textLength="186" x="99" y="286.2822">UMLDoclet 1.1.4, PlantUML 1.2019.05</text><!--
@startuml

    namespace org.apache.wiki.content {

        class DefaultPageRenamer [[DefaultPageRenamer.html]] {
            +renamePage(Context, String, String, boolean): String
            +firePageRenameEvent(String, String): void
        }

        interface PageRenamer [[PageRenamer.html]] {
            {abstract} +renamePage(Context, String, String, boolean): String
            {abstract} +firePageRenameEvent(String, String): void
        }

        PageRenamer <|.. DefaultPageRenamer

    }


    center footer UMLDoclet 1.1.4, PlantUML 1.2019.05
@enduml

PlantUML version 1.2019.05(Sat Apr 20 16:45:36 UTC 2019)
(APACHE source distribution)
Java Runtime: Java(TM) SE Runtime Environment
JVM: Java HotSpot(TM) 64-Bit Server VM
Java Version: 1.8.0_241-b07
Operating System: Linux
OS Version: 4.15.0-74-generic
Default Encoding: ISO-8859-1
Language: en
Country: US
--></g></svg>