<?xml version="1.0" encoding="UTF-8" standalone="no"?><svg xmlns="http://www.w3.org/2000/svg" xmlns:xlink="http://www.w3.org/1999/xlink" contentScriptType="application/ecmascript" contentStyleType="text/css" height="169px" preserveAspectRatio="none" style="width:240px;height:169px;" version="1.1" viewBox="0 0 240 169" width="240px" zoomAndPan="magnify"><defs><filter height="300%" id="f1q1nmre3f4226" width="300%" x="-1" y="-1"><feGaussianBlur result="blurOut" stdDeviation="2.0"/><feColorMatrix in="blurOut" result="blurOut2" type="matrix" values="0 0 0 0 0 0 0 0 0 0 0 0 0 0 0 0 0 0 .4 0"/><feOffset dx="4.0" dy="4.0" in="blurOut2" result="blurOut3"/><feBlend in="SourceGraphic" in2="blurOut3" mode="normal"/></filter></defs><g><!--MD5=[07c66f7fa7c432145e668262fdfa9f38]
class org.apache.wiki.api.core.Acl--><a href="Acl.html" target="_top" title="Acl.html" xlink:actuate="onRequest" xlink:href="Acl.html" xlink:show="new" xlink:title="Acl.html" xlink:type="simple"><rect codeLine="5" fill="#FEFECE" filter="url(#f1q1nmre3f4226)" height="131.2031" id="org.apache.wiki.api.core.Acl" style="stroke: #A80036; stroke-width: 1.5;" width="214" x="7" y="7"/><ellipse cx="51.75" cy="27.0938" fill="#B4A7E5" rx="11" ry="11" style="stroke: #A80036; stroke-width: 1.0;"/><path d="M52.7031,23.7344 L52.7031,30.3906 L54.4219,30.3906 Q55.0313,30.3906 55.2969,30.625 Q55.5625,30.8594 55.5625,31.25 Q55.5625,31.625 55.2969,31.8594 Q55.0313,32.0938 54.4219,32.0938 L49.2813,32.0938 Q48.6719,32.0938 48.4063,31.8594 Q48.1406,31.625 48.1406,31.2344 Q48.1406,30.8594 48.4063,30.625 Q48.6719,30.3906 49.2813,30.3906 L51,30.3906 L51,23.7344 L49.2813,23.7344 Q48.6719,23.7344 48.4063,23.5 Q48.1406,23.2656 48.1406,22.875 Q48.1406,22.5 48.4063,22.2656 Q48.6719,22.0313 49.2813,22.0313 L54.4219,22.0313 Q55.0313,22.0313 55.2969,22.2656 Q55.5625,22.5 55.5625,22.875 Q55.5625,23.2656 55.2969,23.5 Q55.0313,23.7344 54.4219,23.7344 L52.7031,23.7344 Z "/><text fill="#000000" font-family="sans-serif" font-size="14" font-style="italic" lengthAdjust="spacingAndGlyphs" textLength="19" x="120.75" y="26.5332">Acl</text><text fill="#000000" font-family="sans-serif" font-size="10" font-style="italic" lengthAdjust="spacingAndGlyphs" textLength="116" x="72.25" y="39.9902">org.apache.wiki.api.core</text><line style="stroke: #A80036; stroke-width: 1.5;" x1="8" x2="220" y1="47.1875" y2="47.1875"/><ellipse cx="18" cy="58.1875" fill="#84BE84" rx="3" ry="3" style="stroke: #038048; stroke-width: 1.0;"/><text fill="#000000" font-family="sans-serif" font-size="11" font-style="italic" lengthAdjust="spacingAndGlyphs" textLength="138" x="27" y="62.6064">addEntry(AclEntry): boolean</text><ellipse cx="18" cy="72.0234" fill="#84BE84" rx="3" ry="3" style="stroke: #038048; stroke-width: 1.0;"/><text fill="#000000" font-family="sans-serif" font-size="11" font-style="italic" lengthAdjust="spacingAndGlyphs" textLength="179" x="27" y="76.4424">aclEntries(): Enumeration&lt;AclEntry&gt;</text><ellipse cx="18" cy="85.8594" fill="#84BE84" rx="3" ry="3" style="stroke: #038048; stroke-width: 1.0;"/><text fill="#000000" font-family="sans-serif" font-size="11" font-style="italic" lengthAdjust="spacingAndGlyphs" textLength="93" x="27" y="90.2783">isEmpty(): boolean</text><ellipse cx="18" cy="99.6953" fill="#84BE84" rx="3" ry="3" style="stroke: #038048; stroke-width: 1.0;"/><text fill="#000000" font-family="sans-serif" font-size="11" font-style="italic" lengthAdjust="spacingAndGlyphs" textLength="188" x="27" y="104.1143">findPrincipals(Permission): Principal[]</text><ellipse cx="18" cy="113.5313" fill="#84BE84" rx="3" ry="3" style="stroke: #038048; stroke-width: 1.0;"/><text fill="#000000" font-family="sans-serif" font-size="11" font-style="italic" lengthAdjust="spacingAndGlyphs" textLength="155" x="27" y="117.9502">getAclEntry(Principal): AclEntry</text><ellipse cx="18" cy="127.3672" fill="#84BE84" rx="3" ry="3" style="stroke: #038048; stroke-width: 1.0;"/><text fill="#000000" font-family="sans-serif" font-size="11" font-style="italic" lengthAdjust="spacingAndGlyphs" textLength="156" x="27" y="131.7861">removeEntry(AclEntry): boolean</text></a><text fill="#888888" font-family="sans-serif" font-size="10" lengthAdjust="spacingAndGlyphs" textLength="190" x="19" y="155.584">UMLDoclet 2.0.12, PlantUML 1.2020.16</text><!--MD5=[b8d34dcce1bdf1c3f28455cbf12c4c5f]
@startuml
    set namespaceSeparator none
    hide empty fields
    hide empty methods

    interface "<size:14>Acl\n<size:10>org.apache.wiki.api.core" as org.apache.wiki.api.core.Acl [[Acl.html]] {
        {abstract} +addEntry(AclEntry): boolean
        {abstract} +aclEntries(): Enumeration<AclEntry>
        {abstract} +isEmpty(): boolean
        {abstract} +findPrincipals(Permission): Principal[]
        {abstract} +getAclEntry(Principal): AclEntry
        {abstract} +removeEntry(AclEntry): boolean
    }

    center footer UMLDoclet 2.0.12, PlantUML 1.2020.16
@enduml

PlantUML version 1.2020.16(Sun Aug 23 22:20:43 CEST 2020)
(APACHE source distribution)
Java Runtime: OpenJDK Runtime Environment
JVM: OpenJDK 64-Bit Server VM
Default Encoding: Cp1252
Language: es
Country: ES
--></g></svg>