<?xml version="1.0" encoding="UTF-8" standalone="no"?><svg xmlns="http://www.w3.org/2000/svg" xmlns:xlink="http://www.w3.org/1999/xlink" contentScriptType="application/ecmascript" contentStyleType="text/css" height="585px" preserveAspectRatio="none" style="width:1202px;height:585px;background:#FFFFFF;" version="1.1" viewBox="0 0 1202 585" width="1202px" zoomAndPan="magnify"><defs><filter height="300%" id="fsj7r79g4asls" width="300%" x="-1" y="-1"><feGaussianBlur result="blurOut" stdDeviation="2.0"/><feColorMatrix in="blurOut" result="blurOut2" type="matrix" values="0 0 0 0 0 0 0 0 0 0 0 0 0 0 0 0 0 0 .4 0"/><feOffset dx="4.0" dy="4.0" in="blurOut2" result="blurOut3"/><feBlend in="SourceGraphic" in2="blurOut3" mode="normal"/></filter></defs><g><!--MD5=[ab4e46ae90e42f945278af21c606574a]
cluster org.apache.wiki.pages.haddock--><polygon fill="#FFFFFF" filter="url(#fsj7r79g4asls)" points="16,204,272,204,279,226.2969,1185,226.2969,1185,562,16,562,16,204" style="stroke:#000000;stroke-width:1.5;"/><line style="stroke:#000000;stroke-width:1.5;" x1="16" x2="279" y1="226.2969" y2="226.2969"/><text fill="#000000" font-family="sans-serif" font-size="14" font-weight="bold" lengthAdjust="spacing" textLength="250" x="20" y="218.9951">org.apache.wiki.pages.haddock</text><!--MD5=[954f6ac704b42248268a3b144aae5ef0]
cluster org.apache.wiki.pages--><polygon fill="#FFFFFF" filter="url(#fsj7r79g4asls)" points="494,6,678,6,685,28.2969,694,28.2969,694,179,494,179,494,6" style="stroke:#000000;stroke-width:1.5;"/><line style="stroke:#000000;stroke-width:1.5;" x1="494" x2="685" y1="28.2969" y2="28.2969"/><text fill="#000000" font-family="sans-serif" font-size="14" font-weight="bold" lengthAdjust="spacing" textLength="178" x="498" y="20.9951">org.apache.wiki.pages</text><!--MD5=[6918ca30fdf956c5b090e8366d1b7f58]
class org.apache.wiki.pages.haddock.ViewWikiPage--><a href="ViewWikiPage.html" target="_top" title="ViewWikiPage.html" xlink:actuate="onRequest" xlink:href="ViewWikiPage.html" xlink:show="new" xlink:title="ViewWikiPage.html" xlink:type="simple"><rect codeLine="3" fill="#FEFECE" filter="url(#fsj7r79g4asls)" height="188.8516" id="org.apache.wiki.pages.haddock.ViewWikiPage" style="stroke:#A80036;stroke-width:1.5;" width="254" x="24" y="365"/><ellipse cx="104.75" cy="381" fill="#ADD1B2" rx="11" ry="11" style="stroke:#A80036;stroke-width:1.0;"/><path d="M107.7188,386.6406 Q107.1406,386.9375 106.5,387.0781 Q105.8594,387.2344 105.1563,387.2344 Q102.6563,387.2344 101.3281,385.5938 Q100.0156,383.9375 100.0156,380.8125 Q100.0156,377.6875 101.3281,376.0313 Q102.6563,374.375 105.1563,374.375 Q105.8594,374.375 106.5,374.5313 Q107.1563,374.6875 107.7188,374.9844 L107.7188,377.7031 Q107.0938,377.125 106.5,376.8594 Q105.9063,376.5781 105.2813,376.5781 Q103.9375,376.5781 103.25,377.6563 Q102.5625,378.7188 102.5625,380.8125 Q102.5625,382.9063 103.25,383.9844 Q103.9375,385.0469 105.2813,385.0469 Q105.9063,385.0469 106.5,384.7813 Q107.0938,384.5 107.7188,383.9219 L107.7188,386.6406 Z " fill="#000000"/><text fill="#000000" font-family="sans-serif" font-size="12" lengthAdjust="spacing" textLength="84" x="125.25" y="385.1543">ViewWikiPage</text><line style="stroke:#A80036;stroke-width:1.5;" x1="25" x2="277" y1="397" y2="397"/><line style="stroke:#A80036;stroke-width:1.5;" x1="25" x2="277" y1="405" y2="405"/><ellipse cx="35" cy="416" fill="#84BE84" rx="3" ry="3" style="stroke:#038048;stroke-width:1.0;"/><text fill="#000000" font-family="sans-serif" font-size="11" lengthAdjust="spacing" text-decoration="underline" textLength="153" x="44" y="419.2104">open(String): ViewWikiPage</text><ellipse cx="35" cy="428.8047" fill="#84BE84" rx="3" ry="3" style="stroke:#038048;stroke-width:1.0;"/><text fill="#000000" font-family="sans-serif" font-size="11" lengthAdjust="spacing" textLength="151" x="44" y="432.0151">authenticatedText(): String</text><ellipse cx="35" cy="441.6094" fill="#84BE84" rx="3" ry="3" style="stroke:#038048;stroke-width:1.0;"/><text fill="#000000" font-family="sans-serif" font-size="11" lengthAdjust="spacing" textLength="144" x="44" y="444.8198">clickOnLogin(): LoginPage</text><ellipse cx="35" cy="454.4141" fill="#84BE84" rx="3" ry="3" style="stroke:#038048;stroke-width:1.0;"/><text fill="#000000" font-family="sans-serif" font-size="11" lengthAdjust="spacing" textLength="228" x="44" y="457.6245">clickOnShowReaderView(): ViewWikiPage</text><ellipse cx="35" cy="467.2188" fill="#84BE84" rx="3" ry="3" style="stroke:#038048;stroke-width:1.0;"/><text fill="#000000" font-family="sans-serif" font-size="11" lengthAdjust="spacing" textLength="179" x="44" y="470.4292">hoverLoginArea(): ViewWikiPage</text><ellipse cx="35" cy="480.0234" fill="#84BE84" rx="3" ry="3" style="stroke:#038048;stroke-width:1.0;"/><text fill="#000000" font-family="sans-serif" font-size="11" lengthAdjust="spacing" textLength="177" x="44" y="483.2339">hoverMoreArea(): ViewWikiPage</text><ellipse cx="35" cy="492.8281" fill="#84BE84" rx="3" ry="3" style="stroke:#038048;stroke-width:1.0;"/><text fill="#000000" font-family="sans-serif" font-size="11" lengthAdjust="spacing" textLength="135" x="44" y="496.0386">editPage(): EditWikiPage</text><ellipse cx="35" cy="505.6328" fill="#84BE84" rx="3" ry="3" style="stroke:#038048;stroke-width:1.0;"/><text fill="#000000" font-family="sans-serif" font-size="11" lengthAdjust="spacing" textLength="217" x="44" y="508.8433">searchFor(String): SearchResultsPage</text><ellipse cx="35" cy="518.4375" fill="#84BE84" rx="3" ry="3" style="stroke:#038048;stroke-width:1.0;"/><text fill="#000000" font-family="sans-serif" font-size="11" lengthAdjust="spacing" textLength="169" x="44" y="521.6479">clickOnLogout(): ViewWikiPage</text><ellipse cx="35" cy="531.2422" fill="#84BE84" rx="3" ry="3" style="stroke:#038048;stroke-width:1.0;"/><text fill="#000000" font-family="sans-serif" font-size="11" lengthAdjust="spacing" textLength="187" x="44" y="534.4526">navigateTo(String): ViewWikiPage</text><ellipse cx="35" cy="544.0469" fill="#84BE84" rx="3" ry="3" style="stroke:#038048;stroke-width:1.0;"/><text fill="#000000" font-family="sans-serif" font-size="11" lengthAdjust="spacing" textLength="154" x="44" y="547.2573">sidebar(): SelenideElement</text></a><!--MD5=[c6257123337d91e7e698d8b5305329e8]
class org.apache.wiki.pages.haddock.LoginPage--><a href="LoginPage.html" target="_top" title="LoginPage.html" xlink:actuate="onRequest" xlink:href="LoginPage.html" xlink:show="new" xlink:title="LoginPage.html" xlink:type="simple"><rect codeLine="17" fill="#FEFECE" filter="url(#fsj7r79g4asls)" height="73.6094" id="org.apache.wiki.pages.haddock.LoginPage" style="stroke:#A80036;stroke-width:1.5;" width="269" x="313.5" y="422.5"/><ellipse cx="411.25" cy="438.5" fill="#ADD1B2" rx="11" ry="11" style="stroke:#A80036;stroke-width:1.0;"/><path d="M414.2188,444.1406 Q413.6406,444.4375 413,444.5781 Q412.3594,444.7344 411.6563,444.7344 Q409.1563,444.7344 407.8281,443.0938 Q406.5156,441.4375 406.5156,438.3125 Q406.5156,435.1875 407.8281,433.5313 Q409.1563,431.875 411.6563,431.875 Q412.3594,431.875 413,432.0313 Q413.6563,432.1875 414.2188,432.4844 L414.2188,435.2031 Q413.5938,434.625 413,434.3594 Q412.4063,434.0781 411.7813,434.0781 Q410.4375,434.0781 409.75,435.1563 Q409.0625,436.2188 409.0625,438.3125 Q409.0625,440.4063 409.75,441.4844 Q410.4375,442.5469 411.7813,442.5469 Q412.4063,442.5469 413,442.2813 Q413.5938,442 414.2188,441.4219 L414.2188,444.1406 Z " fill="#000000"/><text fill="#000000" font-family="sans-serif" font-size="12" lengthAdjust="spacing" textLength="65" x="431.75" y="442.6543">LoginPage</text><line style="stroke:#A80036;stroke-width:1.5;" x1="314.5" x2="581.5" y1="454.5" y2="454.5"/><line style="stroke:#A80036;stroke-width:1.5;" x1="314.5" x2="581.5" y1="462.5" y2="462.5"/><ellipse cx="324.5" cy="473.5" fill="#84BE84" rx="3" ry="3" style="stroke:#038048;stroke-width:1.0;"/><text fill="#000000" font-family="sans-serif" font-size="11" lengthAdjust="spacing" textLength="167" x="333.5" y="476.7104">performLogin(): ViewWikiPage</text><ellipse cx="324.5" cy="486.3047" fill="#84BE84" rx="3" ry="3" style="stroke:#038048;stroke-width:1.0;"/><text fill="#000000" font-family="sans-serif" font-size="11" lengthAdjust="spacing" textLength="243" x="333.5" y="489.5151">performLogin(String, String): ViewWikiPage</text></a><!--MD5=[51fa92a3ff110d57e5424501b00811c5]
class org.apache.wiki.pages.haddock.HaddockPage--><a href="HaddockPage.html" target="_top" title="HaddockPage.html" xlink:actuate="onRequest" xlink:href="HaddockPage.html" xlink:show="new" xlink:title="HaddockPage.html" xlink:type="simple"><rect codeLine="22" fill="#FEFECE" filter="url(#fsj7r79g4asls)" height="73.6094" id="org.apache.wiki.pages.haddock.HaddockPage" style="stroke:#A80036;stroke-width:1.5;" width="169" x="509.5" y="231"/><ellipse cx="547.45" cy="247" fill="#B4A7E5" rx="11" ry="11" style="stroke:#A80036;stroke-width:1.0;"/><path d="M543.3719,242.7656 L543.3719,240.6094 L550.7625,240.6094 L550.7625,242.7656 L548.2938,242.7656 L548.2938,250.8438 L550.7625,250.8438 L550.7625,253 L543.3719,253 L543.3719,250.8438 L545.8406,250.8438 L545.8406,242.7656 L543.3719,242.7656 Z " fill="#000000"/><text fill="#000000" font-family="sans-serif" font-size="12" font-style="italic" lengthAdjust="spacing" textLength="86" x="566.55" y="251.1543">HaddockPage</text><line style="stroke:#A80036;stroke-width:1.5;" x1="510.5" x2="677.5" y1="263" y2="263"/><line style="stroke:#A80036;stroke-width:1.5;" x1="510.5" x2="677.5" y1="271" y2="271"/><ellipse cx="520.5" cy="282" fill="#84BE84" rx="3" ry="3" style="stroke:#038048;stroke-width:1.0;"/><text fill="#000000" font-family="sans-serif" font-size="11" lengthAdjust="spacing" textLength="95" x="529.5" y="285.2104">wikiTitle(): String</text><ellipse cx="520.5" cy="294.8047" fill="#84BE84" rx="3" ry="3" style="stroke:#038048;stroke-width:1.0;"/><text fill="#000000" font-family="sans-serif" font-size="11" lengthAdjust="spacing" textLength="143" x="529.5" y="298.0151">wikiPageContent(): String</text></a><!--MD5=[41e30840bbd613a8eda7650bb8abf4d5]
class org.apache.wiki.pages.haddock.EditWikiPage--><a href="EditWikiPage.html" target="_top" title="EditWikiPage.html" xlink:actuate="onRequest" xlink:href="EditWikiPage.html" xlink:show="new" xlink:title="EditWikiPage.html" xlink:type="simple"><rect codeLine="27" fill="#FEFECE" filter="url(#fsj7r79g4asls)" height="99.2188" id="org.apache.wiki.pages.haddock.EditWikiPage" style="stroke:#A80036;stroke-width:1.5;" width="244" x="618" y="410"/><ellipse cx="695.75" cy="426" fill="#ADD1B2" rx="11" ry="11" style="stroke:#A80036;stroke-width:1.0;"/><path d="M698.7188,431.6406 Q698.1406,431.9375 697.5,432.0781 Q696.8594,432.2344 696.1563,432.2344 Q693.6563,432.2344 692.3281,430.5938 Q691.0156,428.9375 691.0156,425.8125 Q691.0156,422.6875 692.3281,421.0313 Q693.6563,419.375 696.1563,419.375 Q696.8594,419.375 697.5,419.5313 Q698.1563,419.6875 698.7188,419.9844 L698.7188,422.7031 Q698.0938,422.125 697.5,421.8594 Q696.9063,421.5781 696.2813,421.5781 Q694.9375,421.5781 694.25,422.6563 Q693.5625,423.7188 693.5625,425.8125 Q693.5625,427.9063 694.25,428.9844 Q694.9375,430.0469 696.2813,430.0469 Q696.9063,430.0469 697.5,429.7813 Q698.0938,429.5 698.7188,428.9219 L698.7188,431.6406 Z " fill="#000000"/><text fill="#000000" font-family="sans-serif" font-size="12" lengthAdjust="spacing" textLength="80" x="716.25" y="430.1543">EditWikiPage</text><line style="stroke:#A80036;stroke-width:1.5;" x1="619" x2="861" y1="442" y2="442"/><line style="stroke:#A80036;stroke-width:1.5;" x1="619" x2="861" y1="450" y2="450"/><ellipse cx="629" cy="461" fill="#84BE84" rx="3" ry="3" style="stroke:#038048;stroke-width:1.0;"/><text fill="#000000" font-family="sans-serif" font-size="11" lengthAdjust="spacing" text-decoration="underline" textLength="148" x="638" y="464.2104">open(String): EditWikiPage</text><ellipse cx="629" cy="473.8047" fill="#84BE84" rx="3" ry="3" style="stroke:#038048;stroke-width:1.0;"/><text fill="#000000" font-family="sans-serif" font-size="11" lengthAdjust="spacing" textLength="127" x="638" y="477.0151">cancel(): ViewWikiPage</text><ellipse cx="629" cy="486.6094" fill="#84BE84" rx="3" ry="3" style="stroke:#038048;stroke-width:1.0;"/><text fill="#000000" font-family="sans-serif" font-size="11" lengthAdjust="spacing" textLength="176" x="638" y="489.8198">saveText(String): ViewWikiPage</text><ellipse cx="629" cy="499.4141" fill="#84BE84" rx="3" ry="3" style="stroke:#038048;stroke-width:1.0;"/><text fill="#000000" font-family="sans-serif" font-size="11" lengthAdjust="spacing" textLength="218" x="638" y="502.6245">saveText(String, String): ViewWikiPage</text></a><!--MD5=[794d9b721f214d610582c64d7ce310de]
class org.apache.wiki.pages.haddock.SearchResultsPage--><a href="SearchResultsPage.html" target="_top" title="SearchResultsPage.html" xlink:actuate="onRequest" xlink:href="SearchResultsPage.html" xlink:show="new" xlink:title="SearchResultsPage.html" xlink:type="simple"><rect codeLine="34" fill="#FEFECE" filter="url(#fsj7r79g4asls)" height="99.2188" id="org.apache.wiki.pages.haddock.SearchResultsPage" style="stroke:#A80036;stroke-width:1.5;" width="279" x="897.5" y="410"/><ellipse cx="971.75" cy="426" fill="#ADD1B2" rx="11" ry="11" style="stroke:#A80036;stroke-width:1.0;"/><path d="M974.7188,431.6406 Q974.1406,431.9375 973.5,432.0781 Q972.8594,432.2344 972.1563,432.2344 Q969.6563,432.2344 968.3281,430.5938 Q967.0156,428.9375 967.0156,425.8125 Q967.0156,422.6875 968.3281,421.0313 Q969.6563,419.375 972.1563,419.375 Q972.8594,419.375 973.5,419.5313 Q974.1563,419.6875 974.7188,419.9844 L974.7188,422.7031 Q974.0938,422.125 973.5,421.8594 Q972.9063,421.5781 972.2813,421.5781 Q970.9375,421.5781 970.25,422.6563 Q969.5625,423.7188 969.5625,425.8125 Q969.5625,427.9063 970.25,428.9844 Q970.9375,430.0469 972.2813,430.0469 Q972.9063,430.0469 973.5,429.7813 Q974.0938,429.5 974.7188,428.9219 L974.7188,431.6406 Z " fill="#000000"/><text fill="#000000" font-family="sans-serif" font-size="12" lengthAdjust="spacing" textLength="122" x="992.25" y="430.1543">SearchResultsPage</text><line style="stroke:#A80036;stroke-width:1.5;" x1="898.5" x2="1175.5" y1="442" y2="442"/><line style="stroke:#A80036;stroke-width:1.5;" x1="898.5" x2="1175.5" y1="450" y2="450"/><ellipse cx="908.5" cy="461" fill="#84BE84" rx="3" ry="3" style="stroke:#038048;stroke-width:1.0;"/><text fill="#000000" font-family="sans-serif" font-size="11" lengthAdjust="spacing" text-decoration="underline" textLength="188" x="917.5" y="464.2104">open(String): SearchResultsPage</text><ellipse cx="908.5" cy="473.8047" fill="#84BE84" rx="3" ry="3" style="stroke:#038048;stroke-width:1.0;"/><text fill="#000000" font-family="sans-serif" font-size="11" lengthAdjust="spacing" textLength="157" x="917.5" y="477.0151">pagesFound(): List&lt;String&gt;</text><ellipse cx="908.5" cy="486.6094" fill="#84BE84" rx="3" ry="3" style="stroke:#038048;stroke-width:1.0;"/><text fill="#000000" font-family="sans-serif" font-size="11" lengthAdjust="spacing" textLength="253" x="917.5" y="489.8198">shouldContain(String...): SearchResultsPage</text><ellipse cx="908.5" cy="499.4141" fill="#84BE84" rx="3" ry="3" style="stroke:#038048;stroke-width:1.0;"/><text fill="#000000" font-family="sans-serif" font-size="11" lengthAdjust="spacing" textLength="187" x="917.5" y="502.6245">navigateTo(String): ViewWikiPage</text></a><!--MD5=[e6b9d11e12a2386dcaf6b730b8ea57a3]
class org.apache.wiki.pages.Page--><a href="../Page.html" target="_top" title="../Page.html" xlink:actuate="onRequest" xlink:href="../Page.html" xlink:show="new" xlink:title="../Page.html" xlink:type="simple"><rect codeLine="49" fill="#FEFECE" filter="url(#fsj7r79g4asls)" height="137.6328" id="org.apache.wiki.pages.Page" style="stroke:#A80036;stroke-width:1.5;" width="183" x="502.5" y="33"/><ellipse cx="574.25" cy="49" fill="#B4A7E5" rx="11" ry="11" style="stroke:#A80036;stroke-width:1.0;"/><path d="M570.1719,44.7656 L570.1719,42.6094 L577.5625,42.6094 L577.5625,44.7656 L575.0938,44.7656 L575.0938,52.8438 L577.5625,52.8438 L577.5625,55 L570.1719,55 L570.1719,52.8438 L572.6406,52.8438 L572.6406,44.7656 L570.1719,44.7656 Z " fill="#000000"/><text fill="#000000" font-family="sans-serif" font-size="12" font-style="italic" lengthAdjust="spacing" textLength="31" x="594.75" y="53.1543">Page</text><line style="stroke:#A80036;stroke-width:1.5;" x1="503.5" x2="684.5" y1="65" y2="65"/><line style="stroke:#A80036;stroke-width:1.5;" x1="503.5" x2="684.5" y1="73" y2="73"/><ellipse cx="513.5" cy="84" fill="#84BE84" rx="3" ry="3" style="stroke:#038048;stroke-width:1.0;"/><text fill="#000000" font-family="sans-serif" font-size="11" lengthAdjust="spacing" text-decoration="underline" textLength="157" x="522.5" y="87.2104">withUrl(String): PageBuilder</text><ellipse cx="513.5" cy="96.8047" fill="#84BE84" rx="3" ry="3" style="stroke:#038048;stroke-width:1.0;"/><text fill="#000000" font-family="sans-serif" font-size="11" lengthAdjust="spacing" text-decoration="underline" textLength="94" x="522.5" y="100.0151">baseUrl(): String</text><ellipse cx="513.5" cy="109.6094" fill="#84BE84" rx="3" ry="3" style="stroke:#038048;stroke-width:1.0;"/><text fill="#000000" font-family="sans-serif" font-size="11" lengthAdjust="spacing" text-decoration="underline" textLength="123" x="522.5" y="112.8198">download(String): File</text><ellipse cx="513.5" cy="122.4141" fill="#84BE84" rx="3" ry="3" style="stroke:#038048;stroke-width:1.0;"/><text fill="#000000" font-family="sans-serif" font-size="11" lengthAdjust="spacing" textLength="71" x="522.5" y="125.6245">title(): String</text><ellipse cx="513.5" cy="135.2188" fill="#84BE84" rx="3" ry="3" style="stroke:#038048;stroke-width:1.0;"/><text fill="#000000" font-family="sans-serif" font-size="11" lengthAdjust="spacing" textLength="65" x="522.5" y="138.4292">url(): String</text><ellipse cx="513.5" cy="148.0234" fill="#84BE84" rx="3" ry="3" style="stroke:#038048;stroke-width:1.0;"/><text fill="#000000" font-family="sans-serif" font-size="11" font-style="italic" lengthAdjust="spacing" textLength="94" x="522.5" y="151.2339">wikiTitle(): String</text><ellipse cx="513.5" cy="160.8281" fill="#84BE84" rx="3" ry="3" style="stroke:#038048;stroke-width:1.0;"/><text fill="#000000" font-family="sans-serif" font-size="11" font-style="italic" lengthAdjust="spacing" textLength="142" x="522.5" y="164.0386">wikiPageContent(): String</text></a><!--MD5=[86d7adb97df1cbde6ac9109c3333d74c]
reverse link org.apache.wiki.pages.haddock.HaddockPage to org.apache.wiki.pages.haddock.ViewWikiPage--><path codeLine="41" d="M489.6021,294.6814 C431.2096,311.3913 357.9324,335.3778 296,365 C290.0365,367.8523 284.0271,370.9123 278.0238,374.1232 " fill="none" id="org.apache.wiki.pages.haddock.HaddockPage-backto-org.apache.wiki.pages.haddock.ViewWikiPage" style="stroke:#A80036;stroke-width:1.0;stroke-dasharray:7.0,7.0;"/><polygon fill="none" points="488.0465,287.8476,509.1938,289.1866,491.8272,301.3275,488.0465,287.8476" style="stroke:#A80036;stroke-width:1.0;"/><!--MD5=[69fa6963d335ab919d5e415dcd915065]
reverse link org.apache.wiki.pages.haddock.HaddockPage to org.apache.wiki.pages.haddock.LoginPage--><path codeLine="42" d="M553.3371,321.3352 C528.8637,353.4357 498.313,393.5073 476.425,422.2165 " fill="none" id="org.apache.wiki.pages.haddock.HaddockPage-backto-org.apache.wiki.pages.haddock.LoginPage" style="stroke:#A80036;stroke-width:1.0;stroke-dasharray:7.0,7.0;"/><polygon fill="none" points="547.8105,317.0385,565.5031,305.3777,558.9439,325.5266,547.8105,317.0385" style="stroke:#A80036;stroke-width:1.0;"/><!--MD5=[eadd6c3753b07f47c2f03fa9acd64816]
reverse link org.apache.wiki.pages.Page to org.apache.wiki.pages.haddock.HaddockPage--><path codeLine="43" d="M594,191.7347 C594,205.5894 594,219.1922 594,230.9852 " fill="none" id="org.apache.wiki.pages.Page-backto-org.apache.wiki.pages.haddock.HaddockPage" style="stroke:#A80036;stroke-width:1.0;"/><polygon fill="none" points="587.0001,191.4371,594,171.4371,601.0001,191.4371,587.0001,191.4371" style="stroke:#A80036;stroke-width:1.0;"/><!--MD5=[3cfe57979b4f3097f41fca5880da929f]
reverse link org.apache.wiki.pages.haddock.HaddockPage to org.apache.wiki.pages.haddock.EditWikiPage--><path codeLine="44" d="M634.665,321.3381 C655.8006,349.0604 681.4683,382.7272 702.1744,409.8863 " fill="none" id="org.apache.wiki.pages.haddock.HaddockPage-backto-org.apache.wiki.pages.haddock.EditWikiPage" style="stroke:#A80036;stroke-width:1.0;stroke-dasharray:7.0,7.0;"/><polygon fill="none" points="629.0561,325.5266,622.4969,305.3777,640.1895,317.0385,629.0561,325.5266" style="stroke:#A80036;stroke-width:1.0;"/><!--MD5=[49fc634f611741c6cc98691ff604cb84]
reverse link org.apache.wiki.pages.haddock.HaddockPage to org.apache.wiki.pages.haddock.SearchResultsPage--><path codeLine="45" d="M698.0686,297.3822 C753.2441,314.4234 821.5224,337.8685 880,365 C907.7044,377.8538 936.7087,394.3564 962.1419,409.9635 " fill="none" id="org.apache.wiki.pages.haddock.HaddockPage-backto-org.apache.wiki.pages.haddock.SearchResultsPage" style="stroke:#A80036;stroke-width:1.0;stroke-dasharray:7.0,7.0;"/><polygon fill="none" points="695.8567,304.0262,678.7567,291.5125,699.928,290.6312,695.8567,304.0262" style="stroke:#A80036;stroke-width:1.0;"/><text fill="#888888" font-family="sans-serif" font-size="10" lengthAdjust="spacing" textLength="192" x="498.5" y="577.2822">UMLDoclet 2.0.15, PlantUML 1.2021.13</text><!--MD5=[92124ce7cf680d54809df9f42ef94f41]
@startuml
    namespace org.apache.wiki.pages.haddock {

        class ViewWikiPage [[ViewWikiPage.html]] {
            {static} +open(String): ViewWikiPage
            +authenticatedText(): String
            +clickOnLogin(): LoginPage
            +clickOnShowReaderView(): ViewWikiPage
            +hoverLoginArea(): ViewWikiPage
            +hoverMoreArea(): ViewWikiPage
            +editPage(): EditWikiPage
            +searchFor(String): SearchResultsPage
            +clickOnLogout(): ViewWikiPage
            +navigateTo(String): ViewWikiPage
            +sidebar(): SelenideElement
        }

        class LoginPage [[LoginPage.html]] {
            +performLogin(): ViewWikiPage
            +performLogin(String, String): ViewWikiPage
        }

        interface HaddockPage [[HaddockPage.html]] {
            +wikiTitle(): String
            +wikiPageContent(): String
        }

        class EditWikiPage [[EditWikiPage.html]] {
            {static} +open(String): EditWikiPage
            +cancel(): ViewWikiPage
            +saveText(String): ViewWikiPage
            +saveText(String, String): ViewWikiPage
        }

        class SearchResultsPage [[SearchResultsPage.html]] {
            {static} +open(String): SearchResultsPage
            +pagesFound(): List<String>
            +shouldContain(String...): SearchResultsPage
            +navigateTo(String): ViewWikiPage
        }

        HaddockPage <|.. ViewWikiPage
        HaddockPage <|.. LoginPage
        org.apache.wiki.pages.Page <|- - HaddockPage
        HaddockPage <|.. EditWikiPage
        HaddockPage <|.. SearchResultsPage
    }

    namespace org.apache.wiki.pages {
        interface Page [[../Page.html]] {
            {static} +withUrl(String): PageBuilder
            {static} +baseUrl(): String
            {static} +download(String): File
            +title(): String
            +url(): String
            {abstract} +wikiTitle(): String
            {abstract} +wikiPageContent(): String
        }
    }

    center footer UMLDoclet 2.0.15, PlantUML 1.2021.13
@enduml

PlantUML version 1.2021.13(Mon Nov 01 11:38:45 UTC 2021)
(APACHE source distribution)
Java Runtime: Java(TM) SE Runtime Environment
JVM: Java HotSpot(TM) 64-Bit Server VM
Default Encoding: ISO-8859-1
Language: en
Country: US
--></g></svg>