<?xml version="1.0" encoding="UTF-8" standalone="no"?><svg xmlns="http://www.w3.org/2000/svg" xmlns:xlink="http://www.w3.org/1999/xlink" contentScriptType="application/ecmascript" contentStyleType="text/css" height="241px" preserveAspectRatio="none" style="width:412px;height:241px;background:#FFFFFF;" version="1.1" viewBox="0 0 412 241" width="412px" zoomAndPan="magnify"><defs><filter height="300%" id="fngi1w77pr9gn" width="300%" x="-1" y="-1"><feGaussianBlur result="blurOut" stdDeviation="2.0"/><feColorMatrix in="blurOut" result="blurOut2" type="matrix" values="0 0 0 0 0 0 0 0 0 0 0 0 0 0 0 0 0 0 .4 0"/><feOffset dx="4.0" dy="4.0" in="blurOut2" result="blurOut3"/><feBlend in="SourceGraphic" in2="blurOut3" mode="normal"/></filter></defs><g><!--MD5=[758d757ef8f5be4da367b8c706b47c71]
class org.apache.wiki.plugin.PageViewPlugin.PageViewManager--><a href="PageViewPlugin.PageViewManager.html" target="_top" title="PageViewPlugin.PageViewManager.html" xlink:actuate="onRequest" xlink:href="PageViewPlugin.PageViewManager.html" xlink:show="new" xlink:title="PageViewPlugin.PageViewManager.html" xlink:type="simple"><rect codeLine="5" fill="#FEFECE" filter="url(#fngi1w77pr9gn)" height="84.3516" id="org.apache.wiki.plugin.PageViewPlugin.PageViewManager" style="stroke:#A80036;stroke-width:1.5;" width="288" x="76.5" y="126"/><ellipse cx="98.7" cy="144.9688" fill="#ADD1B2" rx="11" ry="11" style="stroke:#A80036;stroke-width:1.0;"/><path d="M101.6688,150.6094 Q101.0906,150.9063 100.45,151.0469 Q99.8094,151.2031 99.1063,151.2031 Q96.6063,151.2031 95.2781,149.5625 Q93.9656,147.9063 93.9656,144.7813 Q93.9656,141.6563 95.2781,140 Q96.6063,138.3438 99.1063,138.3438 Q99.8094,138.3438 100.45,138.5 Q101.1063,138.6563 101.6688,138.9531 L101.6688,141.6719 Q101.0438,141.0938 100.45,140.8281 Q99.8563,140.5469 99.2313,140.5469 Q97.8875,140.5469 97.2,141.625 Q96.5125,142.6875 96.5125,144.7813 Q96.5125,146.875 97.2,147.9531 Q97.8875,149.0156 99.2313,149.0156 Q99.8563,149.0156 100.45,148.75 Q101.0438,148.4688 101.6688,147.8906 L101.6688,150.6094 Z " fill="#000000"/><text fill="#000000" font-family="sans-serif" font-size="14" lengthAdjust="spacing" textLength="240" x="114.3" y="143.9951">PageViewPlugin.PageViewManager</text><text fill="#000000" font-family="sans-serif" font-size="10" lengthAdjust="spacing" textLength="105" x="181.8" y="156.5791">org.apache.wiki.plugin</text><line style="stroke:#A80036;stroke-width:1.5;" x1="77.5" x2="363.5" y1="163.9375" y2="163.9375"/><ellipse cx="87.5" cy="174.9375" fill="#84BE84" rx="3" ry="3" style="stroke:#038048;stroke-width:1.0;"/><text fill="#000000" font-family="sans-serif" font-size="11" lengthAdjust="spacing" textLength="122" x="96.5" y="178.1479">initialize(Engine): void</text><ellipse cx="87.5" cy="187.7422" fill="#84BE84" rx="3" ry="3" style="stroke:#038048;stroke-width:1.0;"/><text fill="#000000" font-family="sans-serif" font-size="11" lengthAdjust="spacing" textLength="185" x="96.5" y="190.9526">actionPerformed(WikiEvent): void</text><ellipse cx="87.5" cy="200.5469" fill="#84BE84" rx="3" ry="3" style="stroke:#038048;stroke-width:1.0;"/><text fill="#000000" font-family="sans-serif" font-size="11" lengthAdjust="spacing" textLength="262" x="96.5" y="203.7573">execute(Context, Map&lt;String, String&gt;): String</text></a><!--MD5=[8c616ba9df2429bf0adc99a32a005079]
class org.apache.wiki.event.WikiEventListener--><a href="../event/WikiEventListener.html" target="_top" title="../event/WikiEventListener.html" xlink:actuate="onRequest" xlink:href="../event/WikiEventListener.html" xlink:show="new" xlink:title="../event/WikiEventListener.html" xlink:type="simple"><rect codeLine="11" fill="#FEFECE" filter="url(#fngi1w77pr9gn)" height="58.7422" id="org.apache.wiki.event.WikiEventListener" style="stroke:#A80036;stroke-width:1.5;" width="215" x="7" y="7"/><ellipse cx="49" cy="25.9688" fill="#B4A7E5" rx="11" ry="11" style="stroke:#A80036;stroke-width:1.0;"/><path d="M44.9219,21.7344 L44.9219,19.5781 L52.3125,19.5781 L52.3125,21.7344 L49.8438,21.7344 L49.8438,29.8125 L52.3125,29.8125 L52.3125,31.9688 L44.9219,31.9688 L44.9219,29.8125 L47.3906,29.8125 L47.3906,21.7344 L44.9219,21.7344 Z " fill="#000000"/><text fill="#000000" font-family="sans-serif" font-size="14" font-style="italic" lengthAdjust="spacing" textLength="123" x="69" y="24.9951">WikiEventListener</text><text fill="#000000" font-family="sans-serif" font-size="10" font-style="italic" lengthAdjust="spacing" textLength="109" x="76" y="37.5791">org.apache.wiki.event</text><line style="stroke:#A80036;stroke-width:1.5;" x1="8" x2="221" y1="44.9375" y2="44.9375"/><ellipse cx="18" cy="55.9375" fill="#84BE84" rx="3" ry="3" style="stroke:#038048;stroke-width:1.0;"/><text fill="#000000" font-family="sans-serif" font-size="11" font-style="italic" lengthAdjust="spacing" textLength="189" x="27" y="59.1479">actionPerformed(WikiEvent): void</text></a><!--MD5=[e97cb92b6f6e5d3594c7e08476685902]
class org.apache.wiki.plugin.PageViewPlugin--><a href="PageViewPlugin.html" target="_top" title="PageViewPlugin.html" xlink:actuate="onRequest" xlink:href="PageViewPlugin.html" xlink:show="new" xlink:title="PageViewPlugin.html" xlink:type="simple"><rect codeLine="14" fill="#FEFECE" filter="url(#fngi1w77pr9gn)" height="37.9375" id="org.apache.wiki.plugin.PageViewPlugin" style="stroke:#A80036;stroke-width:1.5;" width="141" x="257" y="17.5"/><ellipse cx="272" cy="36.4688" fill="#ADD1B2" rx="11" ry="11" style="stroke:#A80036;stroke-width:1.0;"/><path d="M274.9688,42.1094 Q274.3906,42.4063 273.75,42.5469 Q273.1094,42.7031 272.4063,42.7031 Q269.9063,42.7031 268.5781,41.0625 Q267.2656,39.4063 267.2656,36.2813 Q267.2656,33.1563 268.5781,31.5 Q269.9063,29.8438 272.4063,29.8438 Q273.1094,29.8438 273.75,30 Q274.4063,30.1563 274.9688,30.4531 L274.9688,33.1719 Q274.3438,32.5938 273.75,32.3281 Q273.1563,32.0469 272.5313,32.0469 Q271.1875,32.0469 270.5,33.125 Q269.8125,34.1875 269.8125,36.2813 Q269.8125,38.375 270.5,39.4531 Q271.1875,40.5156 272.5313,40.5156 Q273.1563,40.5156 273.75,40.25 Q274.3438,39.9688 274.9688,39.3906 L274.9688,42.1094 Z " fill="#000000"/><text fill="#000000" font-family="sans-serif" font-size="14" lengthAdjust="spacing" textLength="109" x="286" y="35.4951">PageViewPlugin</text><text fill="#000000" font-family="sans-serif" font-size="10" lengthAdjust="spacing" textLength="105" x="288" y="48.0791">org.apache.wiki.plugin</text></a><!--MD5=[2e635ea8468d66b8bc7d01531c277740]
reverse link org.apache.wiki.event.WikiEventListener to org.apache.wiki.plugin.PageViewPlugin.PageViewManager--><path codeLine="16" d="M151.1088,81.9157 C162.6024,96.1743 175.2368,111.848 186.539,125.8691 " fill="none" id="org.apache.wiki.event.WikiEventListener-backto-org.apache.wiki.plugin.PageViewPlugin.PageViewManager" style="stroke:#A80036;stroke-width:1.0;stroke-dasharray:7.0,7.0;"/><polygon fill="none" points="145.3902,85.9753,138.2885,66.0112,156.29,77.1892,145.3902,85.9753" style="stroke:#A80036;stroke-width:1.0;"/><!--MD5=[4fa6a2e75af5b83f1de253cd8f44f832]
reverse link org.apache.wiki.plugin.PageViewPlugin to org.apache.wiki.plugin.PageViewPlugin.PageViewManager--><path codeLine="17" d="M302.3763,67.3763 C288.2126,84.7831 270.3149,106.7789 254.8678,125.7629 " fill="none" id="org.apache.wiki.plugin.PageViewPlugin-backto-org.apache.wiki.plugin.PageViewPlugin.PageViewManager" style="stroke:#A80036;stroke-width:1.0;"/><ellipse cx="306.8922" cy="61.8265" fill="#FFFFFF" rx="8" ry="8" style="stroke:#A80036;stroke-width:1.0;"/><line style="stroke:#A80036;stroke-width:1.0;" x1="301.843" x2="311.9413" y1="68.0319" y2="55.6212"/><line style="stroke:#A80036;stroke-width:1.0;" x1="300.6868" x2="313.0975" y1="56.7774" y2="66.8757"/><text fill="#888888" font-family="sans-serif" font-size="10" lengthAdjust="spacing" textLength="186" x="106.5" y="232.6338">UMLDoclet 2.0.14, PlantUML 1.2021.9</text><!--MD5=[d2b25583afeeeb48f15df082b98ca688]
@startuml
    set namespaceSeparator none
    hide empty fields
    hide empty methods

    class "<size:14>PageViewPlugin.PageViewManager\n<size:10>org.apache.wiki.plugin" as org.apache.wiki.plugin.PageViewPlugin.PageViewManager [[PageViewPlugin.PageViewManager.html]] {
        +initialize(Engine): void
        +actionPerformed(WikiEvent): void
        +execute(Context, Map<String, String>): String
    }

    interface "<size:14>WikiEventListener\n<size:10>org.apache.wiki.event" as org.apache.wiki.event.WikiEventListener [[../event/WikiEventListener.html]] {
        {abstract} +actionPerformed(WikiEvent): void
    }
    class "<size:14>PageViewPlugin\n<size:10>org.apache.wiki.plugin" as org.apache.wiki.plugin.PageViewPlugin [[PageViewPlugin.html]]

    org.apache.wiki.event.WikiEventListener <|.. org.apache.wiki.plugin.PageViewPlugin.PageViewManager
    org.apache.wiki.plugin.PageViewPlugin +- - org.apache.wiki.plugin.PageViewPlugin.PageViewManager

    center footer UMLDoclet 2.0.14, PlantUML 1.2021.9
@enduml

PlantUML version 1.2021.9(Sun Jul 25 10:13:56 UTC 2021)
(APACHE source distribution)
Java Runtime: Java(TM) SE Runtime Environment
JVM: Java HotSpot(TM) 64-Bit Server VM
Default Encoding: ISO-8859-1
Language: en
Country: US
--></g></svg>