<?xml version="1.0" encoding="UTF-8" standalone="no"?><svg xmlns="http://www.w3.org/2000/svg" xmlns:xlink="http://www.w3.org/1999/xlink" contentScriptType="application/ecmascript" contentStyleType="text/css" height="573px" preserveAspectRatio="none" style="width:1317px;height:573px;" version="1.1" viewBox="0 0 1317 573" width="1317px" zoomAndPan="magnify"><defs><filter height="300%" id="f8rauznndkbxn" width="300%" x="-1" y="-1"><feGaussianBlur result="blurOut" stdDeviation="2.0"/><feColorMatrix in="blurOut" result="blurOut2" type="matrix" values="0 0 0 0 0 0 0 0 0 0 0 0 0 0 0 0 0 0 .4 0"/><feOffset dx="4.0" dy="4.0" in="blurOut2" result="blurOut3"/><feBlend in="SourceGraphic" in2="blurOut3" mode="normal"/></filter></defs><g><!--cluster org.apache.wiki.render--><polygon fill="#FFFFFF" filter="url(#f8rauznndkbxn)" points="14,137,204,137,211,159.2969,1295,159.2969,1295,533,14,533,14,137" style="stroke: #000000; stroke-width: 1.5;"/><line style="stroke: #000000; stroke-width: 1.5;" x1="14" x2="211" y1="159.2969" y2="159.2969"/><text fill="#000000" font-family="sans-serif" font-size="14" font-weight="bold" lengthAdjust="spacingAndGlyphs" textLength="184" x="18" y="151.9951">org.apache.wiki.render</text><!--cluster org.jdom2.output.support--><polygon fill="#FFFFFF" filter="url(#f8rauznndkbxn)" points="186,22.5,396,22.5,403,44.7969,414,44.7969,414,105.5,186,105.5,186,22.5" style="stroke: #000000; stroke-width: 1.5;"/><line style="stroke: #000000; stroke-width: 1.5;" x1="186" x2="403" y1="44.7969" y2="44.7969"/><text fill="#000000" font-family="sans-serif" font-size="14" font-weight="bold" lengthAdjust="spacingAndGlyphs" textLength="204" x="190" y="37.4951">org.jdom2.output.support</text><!--cluster org.apache.wiki.event--><polygon fill="#FFFFFF" filter="url(#f8rauznndkbxn)" points="794,16,975,16,982,38.2969,1026,38.2969,1026,112,794,112,794,16" style="stroke: #000000; stroke-width: 1.5;"/><line style="stroke: #000000; stroke-width: 1.5;" x1="794" x2="982" y1="38.2969" y2="38.2969"/><text fill="#000000" font-family="sans-serif" font-size="14" font-weight="bold" lengthAdjust="spacingAndGlyphs" textLength="175" x="798" y="30.9951">org.apache.wiki.event</text><!--cluster org.apache.wiki.modules--><polygon fill="#FFFFFF" filter="url(#f8rauznndkbxn)" points="1039,22.5,1242,22.5,1249,44.7969,1252,44.7969,1252,105.5,1039,105.5,1039,22.5" style="stroke: #000000; stroke-width: 1.5;"/><line style="stroke: #000000; stroke-width: 1.5;" x1="1039" x2="1249" y1="44.7969" y2="44.7969"/><text fill="#000000" font-family="sans-serif" font-size="14" font-weight="bold" lengthAdjust="spacingAndGlyphs" textLength="197" x="1043" y="37.4951">org.apache.wiki.modules</text><!--class org.apache.wiki.render.CustomXMLOutputProcessor--><a href="CustomXMLOutputProcessor.html" target="_top" xlink:actuate="onRequest" xlink:show="new" xlink:title="CustomXMLOutputProcessor.html" xlink:type="simple"><rect fill="#FEFECE" filter="url(#f8rauznndkbxn)" height="60.8047" id="org.apache.wiki.render.CustomXMLOutputProcessor" style="stroke: #A80036; stroke-width: 1.5;" width="385" x="107.5" y="247"/><ellipse cx="207.75" cy="263" fill="#ADD1B2" rx="11" ry="11" style="stroke: #A80036; stroke-width: 1.0;"/><path d="M210.7188,268.6406 Q210.1406,268.9375 209.5,269.0859 Q208.8594,269.2344 208.1563,269.2344 Q205.6563,269.2344 204.3359,267.5859 Q203.0156,265.9375 203.0156,262.8125 Q203.0156,259.6875 204.3359,258.0313 Q205.6563,256.375 208.1563,256.375 Q208.8594,256.375 209.5078,256.5313 Q210.1563,256.6875 210.7188,256.9844 L210.7188,259.7031 Q210.0938,259.125 209.5,258.8516 Q208.9063,258.5781 208.2813,258.5781 Q206.9375,258.5781 206.25,259.6484 Q205.5625,260.7188 205.5625,262.8125 Q205.5625,264.9063 206.25,265.9766 Q206.9375,267.0469 208.2813,267.0469 Q208.9063,267.0469 209.5,266.7734 Q210.0938,266.5 210.7188,265.9219 L210.7188,268.6406 Z "/><text fill="#000000" font-family="sans-serif" font-size="12" lengthAdjust="spacingAndGlyphs" textLength="176" x="228.25" y="267.1543">CustomXMLOutputProcessor</text><line style="stroke: #A80036; stroke-width: 1.5;" x1="108.5" x2="491.5" y1="279" y2="279"/><line style="stroke: #A80036; stroke-width: 1.5;" x1="108.5" x2="491.5" y1="287" y2="287"/><polygon fill="#FFFF44" points="118.5,293.9023,122.5,297.9023,118.5,301.9023,114.5,297.9023" style="stroke: #B38D22; stroke-width: 1.0;"/><text fill="#000000" font-family="sans-serif" font-size="11" lengthAdjust="spacingAndGlyphs" textLength="359" x="127.5" y="301.2104">attributeEscapedEntitiesFilter(Writer, FormatStack, String): void</text></a><!--class org.apache.wiki.render.CleanTextRenderer--><a href="CleanTextRenderer.html" target="_top" xlink:actuate="onRequest" xlink:show="new" xlink:title="CleanTextRenderer.html" xlink:type="simple"><rect fill="#FEFECE" filter="url(#f8rauznndkbxn)" height="73.6094" id="org.apache.wiki.render.CleanTextRenderer" style="stroke: #A80036; stroke-width: 1.5;" width="292" x="22" y="451"/><ellipse cx="104.25" cy="467" fill="#ADD1B2" rx="11" ry="11" style="stroke: #A80036; stroke-width: 1.0;"/><path d="M107.2188,472.6406 Q106.6406,472.9375 106,473.0859 Q105.3594,473.2344 104.6563,473.2344 Q102.1563,473.2344 100.8359,471.5859 Q99.5156,469.9375 99.5156,466.8125 Q99.5156,463.6875 100.8359,462.0313 Q102.1563,460.375 104.6563,460.375 Q105.3594,460.375 106.0078,460.5313 Q106.6563,460.6875 107.2188,460.9844 L107.2188,463.7031 Q106.5938,463.125 106,462.8516 Q105.4063,462.5781 104.7813,462.5781 Q103.4375,462.5781 102.75,463.6484 Q102.0625,464.7188 102.0625,466.8125 Q102.0625,468.9063 102.75,469.9766 Q103.4375,471.0469 104.7813,471.0469 Q105.4063,471.0469 106,470.7734 Q106.5938,470.5 107.2188,469.9219 L107.2188,472.6406 Z "/><text fill="#000000" font-family="sans-serif" font-size="12" lengthAdjust="spacingAndGlyphs" textLength="119" x="124.75" y="471.1543">CleanTextRenderer</text><line style="stroke: #A80036; stroke-width: 1.5;" x1="23" x2="313" y1="483" y2="483"/><line style="stroke: #A80036; stroke-width: 1.5;" x1="23" x2="313" y1="491" y2="491"/><ellipse cx="33" cy="502.9023" fill="#84BE84" rx="3" ry="3" style="stroke: #038048; stroke-width: 1.0;"/><text fill="#000000" font-family="sans-serif" font-size="11" lengthAdjust="spacingAndGlyphs" textLength="266" x="42" y="505.2104">CleanTextRenderer(WikiContext, WikiDocument)</text><ellipse cx="33" cy="515.707" fill="#84BE84" rx="3" ry="3" style="stroke: #038048; stroke-width: 1.0;"/><text fill="#000000" font-family="sans-serif" font-size="11" lengthAdjust="spacingAndGlyphs" textLength="102" x="42" y="518.0151">getString(): String</text></a><!--class org.apache.wiki.render.XHTMLRenderer--><a href="XHTMLRenderer.html" target="_top" xlink:actuate="onRequest" xlink:show="new" xlink:title="XHTMLRenderer.html" xlink:type="simple"><rect fill="#FEFECE" filter="url(#f8rauznndkbxn)" height="73.6094" id="org.apache.wiki.render.XHTMLRenderer" style="stroke: #A80036; stroke-width: 1.5;" width="273" x="349.5" y="451"/><ellipse cx="433.25" cy="467" fill="#ADD1B2" rx="11" ry="11" style="stroke: #A80036; stroke-width: 1.0;"/><path d="M436.2188,472.6406 Q435.6406,472.9375 435,473.0859 Q434.3594,473.2344 433.6563,473.2344 Q431.1563,473.2344 429.8359,471.5859 Q428.5156,469.9375 428.5156,466.8125 Q428.5156,463.6875 429.8359,462.0313 Q431.1563,460.375 433.6563,460.375 Q434.3594,460.375 435.0078,460.5313 Q435.6563,460.6875 436.2188,460.9844 L436.2188,463.7031 Q435.5938,463.125 435,462.8516 Q434.4063,462.5781 433.7813,462.5781 Q432.4375,462.5781 431.75,463.6484 Q431.0625,464.7188 431.0625,466.8125 Q431.0625,468.9063 431.75,469.9766 Q432.4375,471.0469 433.7813,471.0469 Q434.4063,471.0469 435,470.7734 Q435.5938,470.5 436.2188,469.9219 L436.2188,472.6406 Z "/><text fill="#000000" font-family="sans-serif" font-size="12" lengthAdjust="spacingAndGlyphs" textLength="97" x="453.75" y="471.1543">XHTMLRenderer</text><line style="stroke: #A80036; stroke-width: 1.5;" x1="350.5" x2="621.5" y1="483" y2="483"/><line style="stroke: #A80036; stroke-width: 1.5;" x1="350.5" x2="621.5" y1="491" y2="491"/><ellipse cx="360.5" cy="502.9023" fill="#84BE84" rx="3" ry="3" style="stroke: #038048; stroke-width: 1.0;"/><text fill="#000000" font-family="sans-serif" font-size="11" lengthAdjust="spacingAndGlyphs" textLength="247" x="369.5" y="505.2104">XHTMLRenderer(WikiContext, WikiDocument)</text><ellipse cx="360.5" cy="515.707" fill="#84BE84" rx="3" ry="3" style="stroke: #038048; stroke-width: 1.0;"/><text fill="#000000" font-family="sans-serif" font-size="11" lengthAdjust="spacingAndGlyphs" textLength="102" x="369.5" y="518.0151">getString(): String</text></a><!--class org.apache.wiki.render.WikiRenderer--><a href="WikiRenderer.html" target="_top" xlink:actuate="onRequest" xlink:show="new" xlink:title="WikiRenderer.html" xlink:type="simple"><rect fill="#FEFECE" filter="url(#f8rauznndkbxn)" height="124.8281" id="org.apache.wiki.render.WikiRenderer" style="stroke: #A80036; stroke-width: 1.5;" width="257" x="569.5" y="215"/><ellipse cx="652.25" cy="231" fill="#A9DCDF" rx="11" ry="11" style="stroke: #A80036; stroke-width: 1.0;"/><path d="M652.3594,226.3438 L651.2031,231.4219 L653.5313,231.4219 L652.3594,226.3438 Z M650.875,224.1094 L653.8594,224.1094 L657.2188,236.5 L654.7656,236.5 L654,233.4375 L650.7188,233.4375 L649.9688,236.5 L647.5313,236.5 L650.875,224.1094 Z "/><text fill="#000000" font-family="sans-serif" font-size="12" font-style="italic" lengthAdjust="spacingAndGlyphs" textLength="83" x="672.75" y="235.1543">WikiRenderer</text><line style="stroke: #A80036; stroke-width: 1.5;" x1="570.5" x2="825.5" y1="247" y2="247"/><ellipse cx="580.5" cy="258.9023" fill="none" rx="3" ry="3" style="stroke: #038048; stroke-width: 1.0;"/><text fill="#000000" font-family="sans-serif" font-size="11" lengthAdjust="spacingAndGlyphs" text-decoration="underline" textLength="157" x="589.5" y="261.2104">LINKS_TRANSLATION: String</text><ellipse cx="580.5" cy="271.707" fill="none" rx="3" ry="3" style="stroke: #038048; stroke-width: 1.0;"/><text fill="#000000" font-family="sans-serif" font-size="11" lengthAdjust="spacingAndGlyphs" text-decoration="underline" textLength="127" x="589.5" y="274.0151">LINKS_SOURCE: String</text><polygon fill="none" points="580.5,279.5117,584.5,283.5117,580.5,287.5117,576.5,283.5117" style="stroke: #B38D22; stroke-width: 1.0;"/><text fill="#000000" font-family="sans-serif" font-size="11" lengthAdjust="spacingAndGlyphs" textLength="130" x="589.5" y="286.8198">m_context: WikiContext</text><polygon fill="none" points="580.5,292.3164,584.5,296.3164,580.5,300.3164,576.5,296.3164" style="stroke: #B38D22; stroke-width: 1.0;"/><text fill="#000000" font-family="sans-serif" font-size="11" lengthAdjust="spacingAndGlyphs" textLength="159" x="589.5" y="299.6245">m_document: WikiDocument</text><line style="stroke: #A80036; stroke-width: 1.5;" x1="570.5" x2="825.5" y1="306.2188" y2="306.2188"/><polygon fill="#FFFF44" points="580.5,313.1211,584.5,317.1211,580.5,321.1211,576.5,317.1211" style="stroke: #B38D22; stroke-width: 1.0;"/><text fill="#000000" font-family="sans-serif" font-size="11" lengthAdjust="spacingAndGlyphs" textLength="231" x="589.5" y="320.4292">WikiRenderer(WikiContext, WikiDocument)</text><ellipse cx="580.5" cy="330.9258" fill="#84BE84" rx="3" ry="3" style="stroke: #038048; stroke-width: 1.0;"/><text fill="#000000" font-family="sans-serif" font-size="11" font-style="italic" lengthAdjust="spacingAndGlyphs" textLength="100" x="589.5" y="333.2339">getString(): String</text></a><!--class org.apache.wiki.render.RenderingManager--><a href="RenderingManager.html" target="_top" xlink:actuate="onRequest" xlink:show="new" xlink:title="RenderingManager.html" xlink:type="simple"><rect fill="#FEFECE" filter="url(#f8rauznndkbxn)" height="227.2656" id="org.apache.wiki.render.RenderingManager" style="stroke: #A80036; stroke-width: 1.5;" width="382" x="883" y="164"/><ellipse cx="1010.25" cy="180" fill="#ADD1B2" rx="11" ry="11" style="stroke: #A80036; stroke-width: 1.0;"/><path d="M1013.2188,185.6406 Q1012.6406,185.9375 1012,186.0859 Q1011.3594,186.2344 1010.6563,186.2344 Q1008.1563,186.2344 1006.8359,184.5859 Q1005.5156,182.9375 1005.5156,179.8125 Q1005.5156,176.6875 1006.8359,175.0313 Q1008.1563,173.375 1010.6563,173.375 Q1011.3594,173.375 1012.0078,173.5313 Q1012.6563,173.6875 1013.2188,173.9844 L1013.2188,176.7031 Q1012.5938,176.125 1012,175.8516 Q1011.4063,175.5781 1010.7813,175.5781 Q1009.4375,175.5781 1008.75,176.6484 Q1008.0625,177.7188 1008.0625,179.8125 Q1008.0625,181.9063 1008.75,182.9766 Q1009.4375,184.0469 1010.7813,184.0469 Q1011.4063,184.0469 1012,183.7734 Q1012.5938,183.5 1013.2188,182.9219 L1013.2188,185.6406 Z "/><text fill="#000000" font-family="sans-serif" font-size="12" lengthAdjust="spacingAndGlyphs" textLength="119" x="1030.75" y="184.1543">RenderingManager</text><line style="stroke: #A80036; stroke-width: 1.5;" x1="884" x2="1264" y1="196" y2="196"/><ellipse cx="894" cy="207.9023" fill="none" rx="3" ry="3" style="stroke: #038048; stroke-width: 1.0;"/><text fill="#000000" font-family="sans-serif" font-size="11" lengthAdjust="spacingAndGlyphs" text-decoration="underline" textLength="140" x="903" y="210.2104">DEFAULT_PARSER: String</text><ellipse cx="894" cy="220.707" fill="none" rx="3" ry="3" style="stroke: #038048; stroke-width: 1.0;"/><text fill="#000000" font-family="sans-serif" font-size="11" lengthAdjust="spacingAndGlyphs" text-decoration="underline" textLength="155" x="903" y="223.0151">DEFAULT_RENDERER: String</text><ellipse cx="894" cy="233.5117" fill="none" rx="3" ry="3" style="stroke: #038048; stroke-width: 1.0;"/><text fill="#000000" font-family="sans-serif" font-size="11" lengthAdjust="spacingAndGlyphs" text-decoration="underline" textLength="213" x="903" y="235.8198">DEFAULT_WYSIWYG_RENDERER: String</text><ellipse cx="894" cy="246.3164" fill="none" rx="3" ry="3" style="stroke: #038048; stroke-width: 1.0;"/><text fill="#000000" font-family="sans-serif" font-size="11" lengthAdjust="spacingAndGlyphs" text-decoration="underline" textLength="181" x="903" y="248.6245">DOCUMENTCACHE_NAME: String</text><ellipse cx="894" cy="259.1211" fill="none" rx="3" ry="3" style="stroke: #038048; stroke-width: 1.0;"/><text fill="#000000" font-family="sans-serif" font-size="11" lengthAdjust="spacingAndGlyphs" text-decoration="underline" textLength="180" x="903" y="261.4292">WYSIWYG_EDITOR_MODE: String</text><ellipse cx="894" cy="271.9258" fill="none" rx="3" ry="3" style="stroke: #038048; stroke-width: 1.0;"/><text fill="#000000" font-family="sans-serif" font-size="11" lengthAdjust="spacingAndGlyphs" text-decoration="underline" textLength="175" x="903" y="274.2339">VAR_EXECUTE_PLUGINS: String</text><line style="stroke: #A80036; stroke-width: 1.5;" x1="884" x2="1264" y1="280.8281" y2="280.8281"/><ellipse cx="894" cy="292.7305" fill="#84BE84" rx="3" ry="3" style="stroke: #038048; stroke-width: 1.0;"/><text fill="#000000" font-family="sans-serif" font-size="11" lengthAdjust="spacingAndGlyphs" textLength="210" x="903" y="295.0386">initialize(WikiEngine, Properties): void</text><ellipse cx="894" cy="305.5352" fill="#84BE84" rx="3" ry="3" style="stroke: #038048; stroke-width: 1.0;"/><text fill="#000000" font-family="sans-serif" font-size="11" lengthAdjust="spacingAndGlyphs" textLength="257" x="903" y="307.8433">getParser(WikiContext, String): MarkupParser</text><polygon fill="#FFFF44" points="894,313.3398,898,317.3398,894,321.3398,890,317.3398" style="stroke: #B38D22; stroke-width: 1.0;"/><text fill="#000000" font-family="sans-serif" font-size="11" lengthAdjust="spacingAndGlyphs" textLength="329" x="903" y="320.6479">getRenderedDocument(WikiContext, String): WikiDocument</text><ellipse cx="894" cy="331.1445" fill="#84BE84" rx="3" ry="3" style="stroke: #038048; stroke-width: 1.0;"/><text fill="#000000" font-family="sans-serif" font-size="11" lengthAdjust="spacingAndGlyphs" textLength="248" x="903" y="333.4526">getHTML(WikiContext, WikiDocument): String</text><ellipse cx="894" cy="343.9492" fill="#84BE84" rx="3" ry="3" style="stroke: #038048; stroke-width: 1.0;"/><text fill="#000000" font-family="sans-serif" font-size="11" lengthAdjust="spacingAndGlyphs" textLength="309" x="903" y="346.2573">getRenderer(WikiContext, WikiDocument): WikiRenderer</text><ellipse cx="894" cy="356.7539" fill="#84BE84" rx="3" ry="3" style="stroke: #038048; stroke-width: 1.0;"/><text fill="#000000" font-family="sans-serif" font-size="11" lengthAdjust="spacingAndGlyphs" textLength="356" x="903" y="359.062">getWysiwygRenderer(WikiContext, WikiDocument): WikiRenderer</text><ellipse cx="894" cy="369.5586" fill="#84BE84" rx="3" ry="3" style="stroke: #038048; stroke-width: 1.0;"/><text fill="#000000" font-family="sans-serif" font-size="11" lengthAdjust="spacingAndGlyphs" textLength="204" x="903" y="371.8667">getHTML(WikiContext, String): String</text><ellipse cx="894" cy="382.3633" fill="#84BE84" rx="3" ry="3" style="stroke: #038048; stroke-width: 1.0;"/><text fill="#000000" font-family="sans-serif" font-size="11" lengthAdjust="spacingAndGlyphs" textLength="185" x="903" y="384.6714">actionPerformed(WikiEvent): void</text></a><!--class org.apache.wiki.render.CreoleRenderer--><a href="CreoleRenderer.html" target="_top" xlink:actuate="onRequest" xlink:show="new" xlink:title="CreoleRenderer.html" xlink:type="simple"><rect fill="#FEFECE" filter="url(#f8rauznndkbxn)" height="73.6094" id="org.apache.wiki.render.CreoleRenderer" style="stroke: #A80036; stroke-width: 1.5;" width="273" x="657.5" y="451"/><ellipse cx="740.75" cy="467" fill="#ADD1B2" rx="11" ry="11" style="stroke: #A80036; stroke-width: 1.0;"/><path d="M743.7188,472.6406 Q743.1406,472.9375 742.5,473.0859 Q741.8594,473.2344 741.1563,473.2344 Q738.6563,473.2344 737.3359,471.5859 Q736.0156,469.9375 736.0156,466.8125 Q736.0156,463.6875 737.3359,462.0313 Q738.6563,460.375 741.1563,460.375 Q741.8594,460.375 742.5078,460.5313 Q743.1563,460.6875 743.7188,460.9844 L743.7188,463.7031 Q743.0938,463.125 742.5,462.8516 Q741.9063,462.5781 741.2813,462.5781 Q739.9375,462.5781 739.25,463.6484 Q738.5625,464.7188 738.5625,466.8125 Q738.5625,468.9063 739.25,469.9766 Q739.9375,471.0469 741.2813,471.0469 Q741.9063,471.0469 742.5,470.7734 Q743.0938,470.5 743.7188,469.9219 L743.7188,472.6406 Z "/><text fill="#000000" font-family="sans-serif" font-size="12" lengthAdjust="spacingAndGlyphs" textLength="98" x="761.25" y="471.1543">CreoleRenderer</text><line style="stroke: #A80036; stroke-width: 1.5;" x1="658.5" x2="929.5" y1="483" y2="483"/><line style="stroke: #A80036; stroke-width: 1.5;" x1="658.5" x2="929.5" y1="491" y2="491"/><ellipse cx="668.5" cy="502.9023" fill="#84BE84" rx="3" ry="3" style="stroke: #038048; stroke-width: 1.0;"/><text fill="#000000" font-family="sans-serif" font-size="11" lengthAdjust="spacingAndGlyphs" textLength="247" x="677.5" y="505.2104">CreoleRenderer(WikiContext, WikiDocument)</text><ellipse cx="668.5" cy="515.707" fill="#84BE84" rx="3" ry="3" style="stroke: #038048; stroke-width: 1.0;"/><text fill="#000000" font-family="sans-serif" font-size="11" lengthAdjust="spacingAndGlyphs" textLength="102" x="677.5" y="518.0151">getString(): String</text></a><!--class org.apache.wiki.render.WysiwygEditingRenderer--><a href="WysiwygEditingRenderer.html" target="_top" xlink:actuate="onRequest" xlink:show="new" xlink:title="WysiwygEditingRenderer.html" xlink:type="simple"><rect fill="#FEFECE" filter="url(#f8rauznndkbxn)" height="73.6094" id="org.apache.wiki.render.WysiwygEditingRenderer" style="stroke: #A80036; stroke-width: 1.5;" width="321" x="965.5" y="451"/><ellipse cx="1046.25" cy="467" fill="#ADD1B2" rx="11" ry="11" style="stroke: #A80036; stroke-width: 1.0;"/><path d="M1049.2188,472.6406 Q1048.6406,472.9375 1048,473.0859 Q1047.3594,473.2344 1046.6563,473.2344 Q1044.1563,473.2344 1042.8359,471.5859 Q1041.5156,469.9375 1041.5156,466.8125 Q1041.5156,463.6875 1042.8359,462.0313 Q1044.1563,460.375 1046.6563,460.375 Q1047.3594,460.375 1048.0078,460.5313 Q1048.6563,460.6875 1049.2188,460.9844 L1049.2188,463.7031 Q1048.5938,463.125 1048,462.8516 Q1047.4063,462.5781 1046.7813,462.5781 Q1045.4375,462.5781 1044.75,463.6484 Q1044.0625,464.7188 1044.0625,466.8125 Q1044.0625,468.9063 1044.75,469.9766 Q1045.4375,471.0469 1046.7813,471.0469 Q1047.4063,471.0469 1048,470.7734 Q1048.5938,470.5 1049.2188,469.9219 L1049.2188,472.6406 Z "/><text fill="#000000" font-family="sans-serif" font-size="12" lengthAdjust="spacingAndGlyphs" textLength="151" x="1066.75" y="471.1543">WysiwygEditingRenderer</text><line style="stroke: #A80036; stroke-width: 1.5;" x1="966.5" x2="1285.5" y1="483" y2="483"/><line style="stroke: #A80036; stroke-width: 1.5;" x1="966.5" x2="1285.5" y1="491" y2="491"/><ellipse cx="976.5" cy="502.9023" fill="#84BE84" rx="3" ry="3" style="stroke: #038048; stroke-width: 1.0;"/><text fill="#000000" font-family="sans-serif" font-size="11" lengthAdjust="spacingAndGlyphs" textLength="295" x="985.5" y="505.2104">WysiwygEditingRenderer(WikiContext, WikiDocument)</text><ellipse cx="976.5" cy="515.707" fill="#84BE84" rx="3" ry="3" style="stroke: #038048; stroke-width: 1.0;"/><text fill="#000000" font-family="sans-serif" font-size="11" lengthAdjust="spacingAndGlyphs" textLength="102" x="985.5" y="518.0151">getString(): String</text></a><!--class org.jdom2.output.support.AbstractXMLOutputProcessor--><rect fill="#FEFECE" filter="url(#f8rauznndkbxn)" height="48" id="org.jdom2.output.support.AbstractXMLOutputProcessor" style="stroke: #A80036; stroke-width: 1.5;" width="211" x="194.5" y="49.5"/><ellipse cx="209.5" cy="65.5" fill="#A9DCDF" rx="11" ry="11" style="stroke: #A80036; stroke-width: 1.0;"/><path d="M209.6094,60.8438 L208.4531,65.9219 L210.7813,65.9219 L209.6094,60.8438 Z M208.125,58.6094 L211.1094,58.6094 L214.4688,71 L212.0156,71 L211.25,67.9375 L207.9688,67.9375 L207.2188,71 L204.7813,71 L208.125,58.6094 Z "/><text fill="#000000" font-family="sans-serif" font-size="12" font-style="italic" lengthAdjust="spacingAndGlyphs" textLength="179" x="223.5" y="69.6543">AbstractXMLOutputProcessor</text><line style="stroke: #A80036; stroke-width: 1.5;" x1="195.5" x2="404.5" y1="81.5" y2="81.5"/><line style="stroke: #A80036; stroke-width: 1.5;" x1="195.5" x2="404.5" y1="89.5" y2="89.5"/><!--class org.apache.wiki.event.WikiEventListener--><rect fill="#FEFECE" filter="url(#f8rauznndkbxn)" height="60.8047" id="org.apache.wiki.event.WikiEventListener" style="stroke: #A80036; stroke-width: 1.5;" width="215" x="802.5" y="43"/><ellipse cx="850.75" cy="59" fill="#B4A7E5" rx="11" ry="11" style="stroke: #A80036; stroke-width: 1.0;"/><path d="M846.6719,54.7656 L846.6719,52.6094 L854.0625,52.6094 L854.0625,54.7656 L851.5938,54.7656 L851.5938,62.8438 L854.0625,62.8438 L854.0625,65 L846.6719,65 L846.6719,62.8438 L849.1406,62.8438 L849.1406,54.7656 L846.6719,54.7656 Z "/><text fill="#000000" font-family="sans-serif" font-size="12" font-style="italic" lengthAdjust="spacingAndGlyphs" textLength="110" x="871.25" y="63.1543">WikiEventListener</text><line style="stroke: #A80036; stroke-width: 1.5;" x1="803.5" x2="1016.5" y1="75" y2="75"/><line style="stroke: #A80036; stroke-width: 1.5;" x1="803.5" x2="1016.5" y1="83" y2="83"/><ellipse cx="813.5" cy="94.9023" fill="#84BE84" rx="3" ry="3" style="stroke: #038048; stroke-width: 1.0;"/><text fill="#000000" font-family="sans-serif" font-size="11" font-style="italic" lengthAdjust="spacingAndGlyphs" textLength="189" x="822.5" y="97.2104">actionPerformed(WikiEvent): void</text><!--class org.apache.wiki.modules.InternalModule--><rect fill="#FEFECE" filter="url(#f8rauznndkbxn)" height="48" id="org.apache.wiki.modules.InternalModule" style="stroke: #A80036; stroke-width: 1.5;" width="126" x="1053" y="49.5"/><ellipse cx="1068" cy="65.5" fill="#B4A7E5" rx="11" ry="11" style="stroke: #A80036; stroke-width: 1.0;"/><path d="M1063.9219,61.2656 L1063.9219,59.1094 L1071.3125,59.1094 L1071.3125,61.2656 L1068.8438,61.2656 L1068.8438,69.3438 L1071.3125,69.3438 L1071.3125,71.5 L1063.9219,71.5 L1063.9219,69.3438 L1066.3906,69.3438 L1066.3906,61.2656 L1063.9219,61.2656 Z "/><text fill="#000000" font-family="sans-serif" font-size="12" font-style="italic" lengthAdjust="spacingAndGlyphs" textLength="94" x="1082" y="69.6543">InternalModule</text><line style="stroke: #A80036; stroke-width: 1.5;" x1="1054" x2="1178" y1="81.5" y2="81.5"/><line style="stroke: #A80036; stroke-width: 1.5;" x1="1054" x2="1178" y1="89.5" y2="89.5"/><!--link org.jdom2.output.support.AbstractXMLOutputProcessor to org.apache.wiki.render.CustomXMLOutputProcessor--><path d="M300,117.8973 C300,156.8353 300,212.4352 300,246.683 " fill="none" id="org.jdom2.output.support.AbstractXMLOutputProcessor-org.apache.wiki.render.CustomXMLOutputProcessor" style="stroke: #A80036; stroke-width: 1.0;"/><polygon fill="none" points="293.0001,117.7026,300,97.7026,307.0001,117.7025,293.0001,117.7026" style="stroke: #A80036; stroke-width: 1.0;"/><!--link org.apache.wiki.render.WikiRenderer to org.apache.wiki.render.CleanTextRenderer--><path d="M588.0805,350.5198 C563.0755,365.2287 536.1555,379.6395 510,391 C447.7314,418.0461 375.8309,439.7587 314.0728,455.7277 " fill="none" id="org.apache.wiki.render.WikiRenderer-org.apache.wiki.render.CleanTextRenderer" style="stroke: #A80036; stroke-width: 1.0;"/><polygon fill="none" points="584.7324,344.3651,605.4803,340.0608,591.9451,356.3642,584.7324,344.3651" style="stroke: #A80036; stroke-width: 1.0;"/><!--link org.apache.wiki.render.WikiRenderer to org.apache.wiki.render.XHTMLRenderer--><path d="M620.5923,354.36 C587.5147,387.2036 550.4224,424.0335 523.5666,450.6992 " fill="none" id="org.apache.wiki.render.WikiRenderer-org.apache.wiki.render.XHTMLRenderer" style="stroke: #A80036; stroke-width: 1.0;"/><polygon fill="none" points="615.8426,349.2116,634.967,340.087,625.7069,359.1462,615.8426,349.2116" style="stroke: #A80036; stroke-width: 1.0;"/><!--link org.apache.wiki.event.WikiEventListener to org.apache.wiki.render.RenderingManager--><path d="M947.2085,119.7837 C957.8866,133.0662 970.0266,148.1673 982.4633,163.6373 " fill="none" id="org.apache.wiki.event.WikiEventListener-org.apache.wiki.render.RenderingManager" style="stroke: #A80036; stroke-width: 1.0; stroke-dasharray: 7.0,7.0;"/><polygon fill="none" points="941.628,124.0143,934.5525,104.0409,952.5393,115.2425,941.628,124.0143" style="stroke: #A80036; stroke-width: 1.0;"/><!--link org.apache.wiki.modules.InternalModule to org.apache.wiki.render.RenderingManager--><path d="M1106.9431,117.4905 C1104.0866,131.3652 1100.7884,147.3851 1097.4058,163.8149 " fill="none" id="org.apache.wiki.modules.InternalModule-org.apache.wiki.render.RenderingManager" style="stroke: #A80036; stroke-width: 1.0; stroke-dasharray: 7.0,7.0;"/><polygon fill="none" points="1100.1278,115.8801,1111.0171,97.7026,1113.8402,118.7033,1100.1278,115.8801" style="stroke: #A80036; stroke-width: 1.0;"/><!--link org.apache.wiki.render.WikiRenderer to org.apache.wiki.render.CreoleRenderer--><path d="M734.8746,358.3552 C749.3793,390.1598 765.3184,425.1096 776.9887,450.6992 " fill="none" id="org.apache.wiki.render.WikiRenderer-org.apache.wiki.render.CreoleRenderer" style="stroke: #A80036; stroke-width: 1.0;"/><polygon fill="none" points="728.4732,361.1886,726.5432,340.087,741.2111,355.3794,728.4732,361.1886" style="stroke: #A80036; stroke-width: 1.0;"/><!--link org.apache.wiki.render.WikiRenderer to org.apache.wiki.render.WysiwygEditingRenderer--><path d="M799.2221,351.4806 C820.7026,365.5707 843.6541,379.4906 866,391 C911.1863,414.2735 963.2861,434.8385 1008.9269,450.9747 " fill="none" id="org.apache.wiki.render.WikiRenderer-org.apache.wiki.render.WysiwygEditingRenderer" style="stroke: #A80036; stroke-width: 1.0;"/><polygon fill="none" points="795.0766,357.1292,782.3502,340.1869,802.8642,345.495,795.0766,357.1292" style="stroke: #A80036; stroke-width: 1.0;"/><text fill="#888888" font-family="sans-serif" font-size="10" lengthAdjust="spacingAndGlyphs" textLength="186" x="567.5" y="560.2822">UMLDoclet 1.1.4, PlantUML 1.2019.05</text><!--
@startuml

    namespace org.apache.wiki.render {

        class CustomXMLOutputProcessor [[CustomXMLOutputProcessor.html]] {
            #attributeEscapedEntitiesFilter(Writer, FormatStack, String): void
        }

        class CleanTextRenderer [[CleanTextRenderer.html]] {
            +CleanTextRenderer(WikiContext, WikiDocument)
            +getString(): String
        }

        class XHTMLRenderer [[XHTMLRenderer.html]] {
            +XHTMLRenderer(WikiContext, WikiDocument)
            +getString(): String
        }

        abstract class WikiRenderer [[WikiRenderer.html]] {
            {static} +LINKS_TRANSLATION: String
            {static} +LINKS_SOURCE: String
            #m_context: WikiContext
            #m_document: WikiDocument
            #WikiRenderer(WikiContext, WikiDocument)
            {abstract} +getString(): String
        }

        class RenderingManager [[RenderingManager.html]] {
            {static} +DEFAULT_PARSER: String
            {static} +DEFAULT_RENDERER: String
            {static} +DEFAULT_WYSIWYG_RENDERER: String
            {static} +DOCUMENTCACHE_NAME: String
            {static} +WYSIWYG_EDITOR_MODE: String
            {static} +VAR_EXECUTE_PLUGINS: String
            +initialize(WikiEngine, Properties): void
            +getParser(WikiContext, String): MarkupParser
            #getRenderedDocument(WikiContext, String): WikiDocument
            +getHTML(WikiContext, WikiDocument): String
            +getRenderer(WikiContext, WikiDocument): WikiRenderer
            +getWysiwygRenderer(WikiContext, WikiDocument): WikiRenderer
            +getHTML(WikiContext, String): String
            +actionPerformed(WikiEvent): void
        }

        class CreoleRenderer [[CreoleRenderer.html]] {
            +CreoleRenderer(WikiContext, WikiDocument)
            +getString(): String
        }

        class WysiwygEditingRenderer [[WysiwygEditingRenderer.html]] {
            +WysiwygEditingRenderer(WikiContext, WikiDocument)
            +getString(): String
        }

        abstract class org.jdom2.output.support.AbstractXMLOutputProcessor
        org.jdom2.output.support.AbstractXMLOutputProcessor <|- - CustomXMLOutputProcessor

        WikiRenderer <|- - CleanTextRenderer

        WikiRenderer <|- - XHTMLRenderer

        interface org.apache.wiki.event.WikiEventListener {
            {abstract} +actionPerformed(WikiEvent): void
        }
        org.apache.wiki.event.WikiEventListener <|.. RenderingManager

        interface org.apache.wiki.modules.InternalModule
        org.apache.wiki.modules.InternalModule <|.. RenderingManager

        WikiRenderer <|- - CreoleRenderer

        WikiRenderer <|- - WysiwygEditingRenderer

    }


    center footer UMLDoclet 1.1.4, PlantUML 1.2019.05
@enduml

PlantUML version 1.2019.05(Sat Apr 20 16:45:36 UTC 2019)
(APACHE source distribution)
Java Runtime: Java(TM) SE Runtime Environment
JVM: Java HotSpot(TM) 64-Bit Server VM
Java Version: 1.8.0_191-b12
Operating System: Linux
OS Version: 4.15.0-58-generic
Default Encoding: ISO-8859-1
Language: en
Country: US
--></g></svg>