<?xml version="1.0" encoding="UTF-8" standalone="no"?><svg xmlns="http://www.w3.org/2000/svg" xmlns:xlink="http://www.w3.org/1999/xlink" contentScriptType="application/ecmascript" contentStyleType="text/css" height="563px" preserveAspectRatio="none" style="width:1322px;height:563px;" version="1.1" viewBox="0 0 1322 563" width="1322px" zoomAndPan="magnify"><defs><filter height="300%" id="f1va0ql5ddxyok" width="300%" x="-1" y="-1"><feGaussianBlur result="blurOut" stdDeviation="2.0"/><feColorMatrix in="blurOut" result="blurOut2" type="matrix" values="0 0 0 0 0 0 0 0 0 0 0 0 0 0 0 0 0 0 .4 0"/><feOffset dx="4.0" dy="4.0" in="blurOut2" result="blurOut3"/><feBlend in="SourceGraphic" in2="blurOut3" mode="normal"/></filter></defs><g><!--cluster org.apache.wiki.api.exceptions--><polygon fill="#FFFFFF" filter="url(#f1va0ql5ddxyok)" points="14,124,237,124,244,147.6094,1300,147.6094,1300,522,14,522,14,124" style="stroke: #000000; stroke-width: 1.5;"/><line style="stroke: #000000; stroke-width: 1.5;" x1="14" x2="244" y1="147.6094" y2="147.6094"/><text fill="#000000" font-family="sans-serif" font-size="14" font-weight="bold" lengthAdjust="spacingAndGlyphs" textLength="217" x="18" y="140.5332">org.apache.wiki.api.exceptions</text><!--cluster java.lang--><polygon fill="#FFFFFF" filter="url(#f1va0ql5ddxyok)" points="592,16,661,16,668,39.6094,694,39.6094,694,100,592,100,592,16" style="stroke: #000000; stroke-width: 1.5;"/><line style="stroke: #000000; stroke-width: 1.5;" x1="592" x2="668" y1="39.6094" y2="39.6094"/><text fill="#000000" font-family="sans-serif" font-size="14" font-weight="bold" lengthAdjust="spacingAndGlyphs" textLength="63" x="596" y="32.5332">java.lang</text><!--class org.apache.wiki.api.exceptions.WikiI18nException--><a href="WikiI18nException.html" target="_top" xlink:actuate="onRequest" xlink:show="new" xlink:title="WikiI18nException.html" xlink:type="simple"><rect fill="#FEFECE" filter="url(#f1va0ql5ddxyok)" height="89.5078" id="org.apache.wiki.api.exceptions.WikiI18nException" style="stroke: #A80036; stroke-width: 1.5;" width="191" x="22.5" y="288"/><ellipse cx="64.05" cy="304" fill="#ADD1B2" rx="11" ry="11" style="stroke: #A80036; stroke-width: 1.0;"/><path d="M66.8156,299.875 Q66.9719,299.6563 67.1594,299.5469 Q67.3469,299.4375 67.5656,299.4375 Q67.9406,299.4375 68.175,299.6953 Q68.4094,299.9531 68.4094,300.5625 L68.4094,302.0156 Q68.4094,302.625 68.175,302.8906 Q67.9406,303.1563 67.5656,303.1563 Q67.2219,303.1563 67.0188,302.9531 Q66.8156,302.7656 66.7063,302.25 Q66.6594,301.8906 66.4719,301.7031 Q66.1438,301.3281 65.5344,301.1094 Q64.925,300.8906 64.3,300.8906 Q63.5344,300.8906 62.9016,301.2188 Q62.2688,301.5469 61.7766,302.2969 Q61.2844,303.0469 61.2844,304.0781 L61.2844,305.1719 Q61.2844,306.4063 62.175,307.2266 Q63.0656,308.0469 64.6594,308.0469 Q65.5969,308.0469 66.2531,307.7969 Q66.6438,307.6406 67.0656,307.2031 Q67.3313,306.9375 67.4797,306.8594 Q67.6281,306.7813 67.8313,306.7813 Q68.1594,306.7813 68.4172,307.0391 Q68.675,307.2969 68.675,307.6406 Q68.675,307.9844 68.3313,308.3906 Q67.8313,308.9688 67.0344,309.2969 Q65.9563,309.75 64.6594,309.75 Q63.1438,309.75 61.9406,309.125 Q60.9563,308.625 60.2688,307.5547 Q59.5813,306.4844 59.5813,305.2031 L59.5813,304.0469 Q59.5813,302.7188 60.1984,301.5703 Q60.8156,300.4219 61.9094,299.8047 Q63.0031,299.1875 64.2375,299.1875 Q64.9719,299.1875 65.6203,299.3516 Q66.2688,299.5156 66.8156,299.875 Z "/><text fill="#000000" font-family="sans-serif" font-size="12" lengthAdjust="spacingAndGlyphs" textLength="100" x="83.95" y="308.9102">WikiI18nException</text><line style="stroke: #A80036; stroke-width: 1.5;" x1="23.5" x2="212.5" y1="320" y2="320"/><polygon fill="none" points="33.5,327.418,37.5,331.418,33.5,335.418,29.5,331.418" style="stroke: #B38D22; stroke-width: 1.0;"/><text fill="#000000" font-family="sans-serif" font-size="11" lengthAdjust="spacingAndGlyphs" textLength="65" x="42.5" y="335.4189">args: Object[]</text><line style="stroke: #A80036; stroke-width: 1.5;" x1="23.5" x2="212.5" y1="341.8359" y2="341.8359"/><ellipse cx="33.5" cy="354.2539" fill="#84BE84" rx="3" ry="3" style="stroke: #038048; stroke-width: 1.0;"/><text fill="#000000" font-family="sans-serif" font-size="11" lengthAdjust="spacingAndGlyphs" textLength="165" x="42.5" y="357.2549">WikiI18nException(String, Object[])</text><ellipse cx="33.5" cy="368.0898" fill="#84BE84" rx="3" ry="3" style="stroke: #038048; stroke-width: 1.0;"/><text fill="#000000" font-family="sans-serif" font-size="11" lengthAdjust="spacingAndGlyphs" textLength="90" x="42.5" y="371.0908">getArgs(): Object[]</text></a><!--class org.apache.wiki.api.exceptions.WikiException--><a href="WikiException.html" target="_top" xlink:actuate="onRequest" xlink:show="new" xlink:title="WikiException.html" xlink:type="simple"><rect fill="#FEFECE" filter="url(#f1va0ql5ddxyok)" height="75.6719" id="org.apache.wiki.api.exceptions.WikiException" style="stroke: #A80036; stroke-width: 1.5;" width="186" x="550" y="152"/><ellipse cx="600.75" cy="168" fill="#ADD1B2" rx="11" ry="11" style="stroke: #A80036; stroke-width: 1.0;"/><path d="M603.5156,163.875 Q603.6719,163.6563 603.8594,163.5469 Q604.0469,163.4375 604.2656,163.4375 Q604.6406,163.4375 604.875,163.6953 Q605.1094,163.9531 605.1094,164.5625 L605.1094,166.0156 Q605.1094,166.625 604.875,166.8906 Q604.6406,167.1563 604.2656,167.1563 Q603.9219,167.1563 603.7188,166.9531 Q603.5156,166.7656 603.4063,166.25 Q603.3594,165.8906 603.1719,165.7031 Q602.8438,165.3281 602.2344,165.1094 Q601.625,164.8906 601,164.8906 Q600.2344,164.8906 599.6016,165.2188 Q598.9688,165.5469 598.4766,166.2969 Q597.9844,167.0469 597.9844,168.0781 L597.9844,169.1719 Q597.9844,170.4063 598.875,171.2266 Q599.7656,172.0469 601.3594,172.0469 Q602.2969,172.0469 602.9531,171.7969 Q603.3438,171.6406 603.7656,171.2031 Q604.0313,170.9375 604.1797,170.8594 Q604.3281,170.7813 604.5313,170.7813 Q604.8594,170.7813 605.1172,171.0391 Q605.375,171.2969 605.375,171.6406 Q605.375,171.9844 605.0313,172.3906 Q604.5313,172.9688 603.7344,173.2969 Q602.6563,173.75 601.3594,173.75 Q599.8438,173.75 598.6406,173.125 Q597.6563,172.625 596.9688,171.5547 Q596.2813,170.4844 596.2813,169.2031 L596.2813,168.0469 Q596.2813,166.7188 596.8984,165.5703 Q597.5156,164.4219 598.6094,163.8047 Q599.7031,163.1875 600.9375,163.1875 Q601.6719,163.1875 602.3203,163.3516 Q602.9688,163.5156 603.5156,163.875 Z "/><text fill="#000000" font-family="sans-serif" font-size="12" lengthAdjust="spacingAndGlyphs" textLength="76" x="621.25" y="172.9102">WikiException</text><line style="stroke: #A80036; stroke-width: 1.5;" x1="551" x2="735" y1="184" y2="184"/><line style="stroke: #A80036; stroke-width: 1.5;" x1="551" x2="735" y1="192" y2="192"/><ellipse cx="561" cy="204.418" fill="#84BE84" rx="3" ry="3" style="stroke: #038048; stroke-width: 1.0;"/><text fill="#000000" font-family="sans-serif" font-size="11" lengthAdjust="spacingAndGlyphs" textLength="102" x="570" y="207.4189">WikiException(String)</text><ellipse cx="561" cy="218.2539" fill="#84BE84" rx="3" ry="3" style="stroke: #038048; stroke-width: 1.0;"/><text fill="#000000" font-family="sans-serif" font-size="11" lengthAdjust="spacingAndGlyphs" textLength="160" x="570" y="221.2549">WikiException(String, Throwable)</text></a><!--class org.apache.wiki.api.exceptions.RedirectException--><a href="RedirectException.html" target="_top" xlink:actuate="onRequest" xlink:show="new" xlink:title="RedirectException.html" xlink:type="simple"><rect fill="#FEFECE" filter="url(#f1va0ql5ddxyok)" height="75.6719" id="org.apache.wiki.api.exceptions.RedirectException" style="stroke: #A80036; stroke-width: 1.5;" width="183" x="1108.5" y="438"/><ellipse cx="1146.9" cy="454" fill="#ADD1B2" rx="11" ry="11" style="stroke: #A80036; stroke-width: 1.0;"/><path d="M1149.6656,449.875 Q1149.8219,449.6563 1150.0094,449.5469 Q1150.1969,449.4375 1150.4156,449.4375 Q1150.7906,449.4375 1151.025,449.6953 Q1151.2594,449.9531 1151.2594,450.5625 L1151.2594,452.0156 Q1151.2594,452.625 1151.025,452.8906 Q1150.7906,453.1563 1150.4156,453.1563 Q1150.0719,453.1563 1149.8688,452.9531 Q1149.6656,452.7656 1149.5563,452.25 Q1149.5094,451.8906 1149.3219,451.7031 Q1148.9938,451.3281 1148.3844,451.1094 Q1147.775,450.8906 1147.15,450.8906 Q1146.3844,450.8906 1145.7516,451.2188 Q1145.1188,451.5469 1144.6266,452.2969 Q1144.1344,453.0469 1144.1344,454.0781 L1144.1344,455.1719 Q1144.1344,456.4063 1145.025,457.2266 Q1145.9156,458.0469 1147.5094,458.0469 Q1148.4469,458.0469 1149.1031,457.7969 Q1149.4938,457.6406 1149.9156,457.2031 Q1150.1813,456.9375 1150.3297,456.8594 Q1150.4781,456.7813 1150.6813,456.7813 Q1151.0094,456.7813 1151.2672,457.0391 Q1151.525,457.2969 1151.525,457.6406 Q1151.525,457.9844 1151.1813,458.3906 Q1150.6813,458.9688 1149.8844,459.2969 Q1148.8063,459.75 1147.5094,459.75 Q1145.9938,459.75 1144.7906,459.125 Q1143.8063,458.625 1143.1188,457.5547 Q1142.4313,456.4844 1142.4313,455.2031 L1142.4313,454.0469 Q1142.4313,452.7188 1143.0484,451.5703 Q1143.6656,450.4219 1144.7594,449.8047 Q1145.8531,449.1875 1147.0875,449.1875 Q1147.8219,449.1875 1148.4703,449.3516 Q1149.1188,449.5156 1149.6656,449.875 Z "/><text fill="#000000" font-family="sans-serif" font-size="12" lengthAdjust="spacingAndGlyphs" textLength="99" x="1166.1" y="458.9102">RedirectException</text><line style="stroke: #A80036; stroke-width: 1.5;" x1="1109.5" x2="1290.5" y1="470" y2="470"/><line style="stroke: #A80036; stroke-width: 1.5;" x1="1109.5" x2="1290.5" y1="478" y2="478"/><ellipse cx="1119.5" cy="490.418" fill="#84BE84" rx="3" ry="3" style="stroke: #038048; stroke-width: 1.0;"/><text fill="#000000" font-family="sans-serif" font-size="11" lengthAdjust="spacingAndGlyphs" textLength="157" x="1128.5" y="493.4189">RedirectException(String, String)</text><ellipse cx="1119.5" cy="504.2539" fill="#84BE84" rx="3" ry="3" style="stroke: #038048; stroke-width: 1.0;"/><text fill="#000000" font-family="sans-serif" font-size="11" lengthAdjust="spacingAndGlyphs" textLength="97" x="1128.5" y="507.2549">getRedirect(): String</text></a><!--class org.apache.wiki.api.exceptions.ProviderException--><a href="ProviderException.html" target="_top" xlink:actuate="onRequest" xlink:show="new" xlink:title="ProviderException.html" xlink:type="simple"><rect fill="#FEFECE" filter="url(#f1va0ql5ddxyok)" height="61.8359" id="org.apache.wiki.api.exceptions.ProviderException" style="stroke: #A80036; stroke-width: 1.5;" width="149" x="248.5" y="302"/><ellipse cx="272.05" cy="318" fill="#ADD1B2" rx="11" ry="11" style="stroke: #A80036; stroke-width: 1.0;"/><path d="M274.8156,313.875 Q274.9719,313.6563 275.1594,313.5469 Q275.3469,313.4375 275.5656,313.4375 Q275.9406,313.4375 276.175,313.6953 Q276.4094,313.9531 276.4094,314.5625 L276.4094,316.0156 Q276.4094,316.625 276.175,316.8906 Q275.9406,317.1563 275.5656,317.1563 Q275.2219,317.1563 275.0188,316.9531 Q274.8156,316.7656 274.7063,316.25 Q274.6594,315.8906 274.4719,315.7031 Q274.1438,315.3281 273.5344,315.1094 Q272.925,314.8906 272.3,314.8906 Q271.5344,314.8906 270.9016,315.2188 Q270.2688,315.5469 269.7766,316.2969 Q269.2844,317.0469 269.2844,318.0781 L269.2844,319.1719 Q269.2844,320.4063 270.175,321.2266 Q271.0656,322.0469 272.6594,322.0469 Q273.5969,322.0469 274.2531,321.7969 Q274.6438,321.6406 275.0656,321.2031 Q275.3313,320.9375 275.4797,320.8594 Q275.6281,320.7813 275.8313,320.7813 Q276.1594,320.7813 276.4172,321.0391 Q276.675,321.2969 276.675,321.6406 Q276.675,321.9844 276.3313,322.3906 Q275.8313,322.9688 275.0344,323.2969 Q273.9563,323.75 272.6594,323.75 Q271.1438,323.75 269.9406,323.125 Q268.9563,322.625 268.2688,321.5547 Q267.5813,320.4844 267.5813,319.2031 L267.5813,318.0469 Q267.5813,316.7188 268.1984,315.5703 Q268.8156,314.4219 269.9094,313.8047 Q271.0031,313.1875 272.2375,313.1875 Q272.9719,313.1875 273.6203,313.3516 Q274.2688,313.5156 274.8156,313.875 Z "/><text fill="#000000" font-family="sans-serif" font-size="12" lengthAdjust="spacingAndGlyphs" textLength="98" x="287.95" y="322.9102">ProviderException</text><line style="stroke: #A80036; stroke-width: 1.5;" x1="249.5" x2="396.5" y1="334" y2="334"/><line style="stroke: #A80036; stroke-width: 1.5;" x1="249.5" x2="396.5" y1="342" y2="342"/><ellipse cx="259.5" cy="354.418" fill="#84BE84" rx="3" ry="3" style="stroke: #038048; stroke-width: 1.0;"/><text fill="#000000" font-family="sans-serif" font-size="11" lengthAdjust="spacingAndGlyphs" textLength="123" x="268.5" y="357.4189">ProviderException(String)</text></a><!--class org.apache.wiki.api.exceptions.PluginException--><a href="PluginException.html" target="_top" xlink:actuate="onRequest" xlink:show="new" xlink:title="PluginException.html" xlink:type="simple"><rect fill="#FEFECE" filter="url(#f1va0ql5ddxyok)" height="89.5078" id="org.apache.wiki.api.exceptions.PluginException" style="stroke: #A80036; stroke-width: 1.5;" width="195" x="432.5" y="288"/><ellipse cx="481.75" cy="304" fill="#ADD1B2" rx="11" ry="11" style="stroke: #A80036; stroke-width: 1.0;"/><path d="M484.5156,299.875 Q484.6719,299.6563 484.8594,299.5469 Q485.0469,299.4375 485.2656,299.4375 Q485.6406,299.4375 485.875,299.6953 Q486.1094,299.9531 486.1094,300.5625 L486.1094,302.0156 Q486.1094,302.625 485.875,302.8906 Q485.6406,303.1563 485.2656,303.1563 Q484.9219,303.1563 484.7188,302.9531 Q484.5156,302.7656 484.4063,302.25 Q484.3594,301.8906 484.1719,301.7031 Q483.8438,301.3281 483.2344,301.1094 Q482.625,300.8906 482,300.8906 Q481.2344,300.8906 480.6016,301.2188 Q479.9688,301.5469 479.4766,302.2969 Q478.9844,303.0469 478.9844,304.0781 L478.9844,305.1719 Q478.9844,306.4063 479.875,307.2266 Q480.7656,308.0469 482.3594,308.0469 Q483.2969,308.0469 483.9531,307.7969 Q484.3438,307.6406 484.7656,307.2031 Q485.0313,306.9375 485.1797,306.8594 Q485.3281,306.7813 485.5313,306.7813 Q485.8594,306.7813 486.1172,307.0391 Q486.375,307.2969 486.375,307.6406 Q486.375,307.9844 486.0313,308.3906 Q485.5313,308.9688 484.7344,309.2969 Q483.6563,309.75 482.3594,309.75 Q480.8438,309.75 479.6406,309.125 Q478.6563,308.625 477.9688,307.5547 Q477.2813,306.4844 477.2813,305.2031 L477.2813,304.0469 Q477.2813,302.7188 477.8984,301.5703 Q478.5156,300.4219 479.6094,299.8047 Q480.7031,299.1875 481.9375,299.1875 Q482.6719,299.1875 483.3203,299.3516 Q483.9688,299.5156 484.5156,299.875 Z "/><text fill="#000000" font-family="sans-serif" font-size="12" lengthAdjust="spacingAndGlyphs" textLength="88" x="502.25" y="308.9102">PluginException</text><line style="stroke: #A80036; stroke-width: 1.5;" x1="433.5" x2="626.5" y1="320" y2="320"/><line style="stroke: #A80036; stroke-width: 1.5;" x1="433.5" x2="626.5" y1="328" y2="328"/><ellipse cx="443.5" cy="340.418" fill="#84BE84" rx="3" ry="3" style="stroke: #038048; stroke-width: 1.0;"/><text fill="#000000" font-family="sans-serif" font-size="11" lengthAdjust="spacingAndGlyphs" textLength="111" x="452.5" y="343.4189">PluginException(String)</text><ellipse cx="443.5" cy="354.2539" fill="#84BE84" rx="3" ry="3" style="stroke: #038048; stroke-width: 1.0;"/><text fill="#000000" font-family="sans-serif" font-size="11" lengthAdjust="spacingAndGlyphs" textLength="169" x="452.5" y="357.2549">PluginException(String, Throwable)</text><ellipse cx="443.5" cy="368.0898" fill="#84BE84" rx="3" ry="3" style="stroke: #038048; stroke-width: 1.0;"/><text fill="#000000" font-family="sans-serif" font-size="11" lengthAdjust="spacingAndGlyphs" textLength="155" x="452.5" y="371.0908">getRootThrowable(): Throwable</text></a><!--class org.apache.wiki.api.exceptions.NoSuchVariableException--><a href="NoSuchVariableException.html" target="_top" xlink:actuate="onRequest" xlink:show="new" xlink:title="NoSuchVariableException.html" xlink:type="simple"><rect fill="#FEFECE" filter="url(#f1va0ql5ddxyok)" height="61.8359" id="org.apache.wiki.api.exceptions.NoSuchVariableException" style="stroke: #A80036; stroke-width: 1.5;" width="187" x="662.5" y="302"/><ellipse cx="683.35" cy="318" fill="#ADD1B2" rx="11" ry="11" style="stroke: #A80036; stroke-width: 1.0;"/><path d="M686.1156,313.875 Q686.2719,313.6563 686.4594,313.5469 Q686.6469,313.4375 686.8656,313.4375 Q687.2406,313.4375 687.475,313.6953 Q687.7094,313.9531 687.7094,314.5625 L687.7094,316.0156 Q687.7094,316.625 687.475,316.8906 Q687.2406,317.1563 686.8656,317.1563 Q686.5219,317.1563 686.3188,316.9531 Q686.1156,316.7656 686.0063,316.25 Q685.9594,315.8906 685.7719,315.7031 Q685.4438,315.3281 684.8344,315.1094 Q684.225,314.8906 683.6,314.8906 Q682.8344,314.8906 682.2016,315.2188 Q681.5688,315.5469 681.0766,316.2969 Q680.5844,317.0469 680.5844,318.0781 L680.5844,319.1719 Q680.5844,320.4063 681.475,321.2266 Q682.3656,322.0469 683.9594,322.0469 Q684.8969,322.0469 685.5531,321.7969 Q685.9438,321.6406 686.3656,321.2031 Q686.6313,320.9375 686.7797,320.8594 Q686.9281,320.7813 687.1313,320.7813 Q687.4594,320.7813 687.7172,321.0391 Q687.975,321.2969 687.975,321.6406 Q687.975,321.9844 687.6313,322.3906 Q687.1313,322.9688 686.3344,323.2969 Q685.2563,323.75 683.9594,323.75 Q682.4438,323.75 681.2406,323.125 Q680.2563,322.625 679.5688,321.5547 Q678.8813,320.4844 678.8813,319.2031 L678.8813,318.0469 Q678.8813,316.7188 679.4984,315.5703 Q680.1156,314.4219 681.2094,313.8047 Q682.3031,313.1875 683.5375,313.1875 Q684.2719,313.1875 684.9203,313.3516 Q685.5688,313.5156 686.1156,313.875 Z "/><text fill="#000000" font-family="sans-serif" font-size="12" lengthAdjust="spacingAndGlyphs" textLength="142" x="698.65" y="322.9102">NoSuchVariableException</text><line style="stroke: #A80036; stroke-width: 1.5;" x1="663.5" x2="848.5" y1="334" y2="334"/><line style="stroke: #A80036; stroke-width: 1.5;" x1="663.5" x2="848.5" y1="342" y2="342"/><ellipse cx="673.5" cy="354.418" fill="#84BE84" rx="3" ry="3" style="stroke: #038048; stroke-width: 1.0;"/><text fill="#000000" font-family="sans-serif" font-size="11" lengthAdjust="spacingAndGlyphs" textLength="161" x="682.5" y="357.4189">NoSuchVariableException(String)</text></a><!--class org.apache.wiki.api.exceptions.NoRequiredPropertyException--><a href="NoRequiredPropertyException.html" target="_top" xlink:actuate="onRequest" xlink:show="new" xlink:title="NoRequiredPropertyException.html" xlink:type="simple"><rect fill="#FEFECE" filter="url(#f1va0ql5ddxyok)" height="61.8359" id="org.apache.wiki.api.exceptions.NoRequiredPropertyException" style="stroke: #A80036; stroke-width: 1.5;" width="240" x="885" y="302"/><ellipse cx="919.35" cy="318" fill="#ADD1B2" rx="11" ry="11" style="stroke: #A80036; stroke-width: 1.0;"/><path d="M922.1156,313.875 Q922.2719,313.6563 922.4594,313.5469 Q922.6469,313.4375 922.8656,313.4375 Q923.2406,313.4375 923.475,313.6953 Q923.7094,313.9531 923.7094,314.5625 L923.7094,316.0156 Q923.7094,316.625 923.475,316.8906 Q923.2406,317.1563 922.8656,317.1563 Q922.5219,317.1563 922.3188,316.9531 Q922.1156,316.7656 922.0063,316.25 Q921.9594,315.8906 921.7719,315.7031 Q921.4438,315.3281 920.8344,315.1094 Q920.225,314.8906 919.6,314.8906 Q918.8344,314.8906 918.2016,315.2188 Q917.5688,315.5469 917.0766,316.2969 Q916.5844,317.0469 916.5844,318.0781 L916.5844,319.1719 Q916.5844,320.4063 917.475,321.2266 Q918.3656,322.0469 919.9594,322.0469 Q920.8969,322.0469 921.5531,321.7969 Q921.9438,321.6406 922.3656,321.2031 Q922.6313,320.9375 922.7797,320.8594 Q922.9281,320.7813 923.1313,320.7813 Q923.4594,320.7813 923.7172,321.0391 Q923.975,321.2969 923.975,321.6406 Q923.975,321.9844 923.6313,322.3906 Q923.1313,322.9688 922.3344,323.2969 Q921.2563,323.75 919.9594,323.75 Q918.4438,323.75 917.2406,323.125 Q916.2563,322.625 915.5688,321.5547 Q914.8813,320.4844 914.8813,319.2031 L914.8813,318.0469 Q914.8813,316.7188 915.4984,315.5703 Q916.1156,314.4219 917.2094,313.8047 Q918.3031,313.1875 919.5375,313.1875 Q920.2719,313.1875 920.9203,313.3516 Q921.5688,313.5156 922.1156,313.875 Z "/><text fill="#000000" font-family="sans-serif" font-size="12" lengthAdjust="spacingAndGlyphs" textLength="165" x="937.65" y="322.9102">NoRequiredPropertyException</text><line style="stroke: #A80036; stroke-width: 1.5;" x1="886" x2="1124" y1="334" y2="334"/><line style="stroke: #A80036; stroke-width: 1.5;" x1="886" x2="1124" y1="342" y2="342"/><ellipse cx="896" cy="354.418" fill="#84BE84" rx="3" ry="3" style="stroke: #038048; stroke-width: 1.0;"/><text fill="#000000" font-family="sans-serif" font-size="11" lengthAdjust="spacingAndGlyphs" textLength="214" x="905" y="357.4189">NoRequiredPropertyException(String, String)</text></a><!--class org.apache.wiki.api.exceptions.FilterException--><a href="FilterException.html" target="_top" xlink:actuate="onRequest" xlink:show="new" xlink:title="FilterException.html" xlink:type="simple"><rect fill="#FEFECE" filter="url(#f1va0ql5ddxyok)" height="61.8359" id="org.apache.wiki.api.exceptions.FilterException" style="stroke: #A80036; stroke-width: 1.5;" width="132" x="1160" y="302"/><ellipse cx="1184" cy="318" fill="#ADD1B2" rx="11" ry="11" style="stroke: #A80036; stroke-width: 1.0;"/><path d="M1186.7656,313.875 Q1186.9219,313.6563 1187.1094,313.5469 Q1187.2969,313.4375 1187.5156,313.4375 Q1187.8906,313.4375 1188.125,313.6953 Q1188.3594,313.9531 1188.3594,314.5625 L1188.3594,316.0156 Q1188.3594,316.625 1188.125,316.8906 Q1187.8906,317.1563 1187.5156,317.1563 Q1187.1719,317.1563 1186.9688,316.9531 Q1186.7656,316.7656 1186.6563,316.25 Q1186.6094,315.8906 1186.4219,315.7031 Q1186.0938,315.3281 1185.4844,315.1094 Q1184.875,314.8906 1184.25,314.8906 Q1183.4844,314.8906 1182.8516,315.2188 Q1182.2188,315.5469 1181.7266,316.2969 Q1181.2344,317.0469 1181.2344,318.0781 L1181.2344,319.1719 Q1181.2344,320.4063 1182.125,321.2266 Q1183.0156,322.0469 1184.6094,322.0469 Q1185.5469,322.0469 1186.2031,321.7969 Q1186.5938,321.6406 1187.0156,321.2031 Q1187.2813,320.9375 1187.4297,320.8594 Q1187.5781,320.7813 1187.7813,320.7813 Q1188.1094,320.7813 1188.3672,321.0391 Q1188.625,321.2969 1188.625,321.6406 Q1188.625,321.9844 1188.2813,322.3906 Q1187.7813,322.9688 1186.9844,323.2969 Q1185.9063,323.75 1184.6094,323.75 Q1183.0938,323.75 1181.8906,323.125 Q1180.9063,322.625 1180.2188,321.5547 Q1179.5313,320.4844 1179.5313,319.2031 L1179.5313,318.0469 Q1179.5313,316.7188 1180.1484,315.5703 Q1180.7656,314.4219 1181.8594,313.8047 Q1182.9531,313.1875 1184.1875,313.1875 Q1184.9219,313.1875 1185.5703,313.3516 Q1186.2188,313.5156 1186.7656,313.875 Z "/><text fill="#000000" font-family="sans-serif" font-size="12" lengthAdjust="spacingAndGlyphs" textLength="80" x="1200" y="322.9102">FilterException</text><line style="stroke: #A80036; stroke-width: 1.5;" x1="1161" x2="1291" y1="334" y2="334"/><line style="stroke: #A80036; stroke-width: 1.5;" x1="1161" x2="1291" y1="342" y2="342"/><ellipse cx="1171" cy="354.418" fill="#84BE84" rx="3" ry="3" style="stroke: #038048; stroke-width: 1.0;"/><text fill="#000000" font-family="sans-serif" font-size="11" lengthAdjust="spacingAndGlyphs" textLength="106" x="1180" y="357.4189">FilterException(String)</text></a><!--class java.lang.Exception--><rect fill="#FEFECE" filter="url(#f1va0ql5ddxyok)" height="48" id="java.lang.Exception" style="stroke: #A80036; stroke-width: 1.5;" width="85" x="600.5" y="44"/><ellipse cx="615.5" cy="60" fill="#ADD1B2" rx="11" ry="11" style="stroke: #A80036; stroke-width: 1.0;"/><path d="M618.2656,55.875 Q618.4219,55.6563 618.6094,55.5469 Q618.7969,55.4375 619.0156,55.4375 Q619.3906,55.4375 619.625,55.6953 Q619.8594,55.9531 619.8594,56.5625 L619.8594,58.0156 Q619.8594,58.625 619.625,58.8906 Q619.3906,59.1563 619.0156,59.1563 Q618.6719,59.1563 618.4688,58.9531 Q618.2656,58.7656 618.1563,58.25 Q618.1094,57.8906 617.9219,57.7031 Q617.5938,57.3281 616.9844,57.1094 Q616.375,56.8906 615.75,56.8906 Q614.9844,56.8906 614.3516,57.2188 Q613.7188,57.5469 613.2266,58.2969 Q612.7344,59.0469 612.7344,60.0781 L612.7344,61.1719 Q612.7344,62.4063 613.625,63.2266 Q614.5156,64.0469 616.1094,64.0469 Q617.0469,64.0469 617.7031,63.7969 Q618.0938,63.6406 618.5156,63.2031 Q618.7813,62.9375 618.9297,62.8594 Q619.0781,62.7813 619.2813,62.7813 Q619.6094,62.7813 619.8672,63.0391 Q620.125,63.2969 620.125,63.6406 Q620.125,63.9844 619.7813,64.3906 Q619.2813,64.9688 618.4844,65.2969 Q617.4063,65.75 616.1094,65.75 Q614.5938,65.75 613.3906,65.125 Q612.4063,64.625 611.7188,63.5547 Q611.0313,62.4844 611.0313,61.2031 L611.0313,60.0469 Q611.0313,58.7188 611.6484,57.5703 Q612.2656,56.4219 613.3594,55.8047 Q614.4531,55.1875 615.6875,55.1875 Q616.4219,55.1875 617.0703,55.3516 Q617.7188,55.5156 618.2656,55.875 Z "/><text fill="#000000" font-family="sans-serif" font-size="12" lengthAdjust="spacingAndGlyphs" textLength="53" x="629.5" y="64.9102">Exception</text><line style="stroke: #A80036; stroke-width: 1.5;" x1="601.5" x2="684.5" y1="76" y2="76"/><line style="stroke: #A80036; stroke-width: 1.5;" x1="601.5" x2="684.5" y1="84" y2="84"/><!--link org.apache.wiki.api.exceptions.WikiException to org.apache.wiki.api.exceptions.WikiI18nException--><path d="M530.2152,212.1976 C446.7291,229.743 330.6777,256.4819 231,288 C225.2618,289.8144 219.4008,291.7825 213.5154,293.8477 " fill="none" id="org.apache.wiki.api.exceptions.WikiException-org.apache.wiki.api.exceptions.WikiI18nException" style="stroke: #A80036; stroke-width: 1.0;"/><polygon fill="none" points="528.9013,205.3211,549.9077,208.1024,531.7518,219.0279,528.9013,205.3211" style="stroke: #A80036; stroke-width: 1.0;"/><!--link java.lang.Exception to org.apache.wiki.api.exceptions.WikiException--><path d="M643,112.2804 C643,125.1383 643,139.0701 643,151.5397 " fill="none" id="java.lang.Exception-org.apache.wiki.api.exceptions.WikiException" style="stroke: #A80036; stroke-width: 1.0;"/><polygon fill="none" points="636.0001,112.1033,643,92.1033,650.0001,112.1032,636.0001,112.1033" style="stroke: #A80036; stroke-width: 1.0;"/><!--link org.apache.wiki.api.exceptions.FilterException to org.apache.wiki.api.exceptions.RedirectException--><path d="M1216.7662,383.7856 C1213.5264,401.6046 1209.9451,421.3022 1206.927,437.9017 " fill="none" id="org.apache.wiki.api.exceptions.FilterException-org.apache.wiki.api.exceptions.RedirectException" style="stroke: #A80036; stroke-width: 1.0;"/><polygon fill="none" points="1209.8935,382.454,1220.3584,364.0289,1223.6677,384.9585,1209.8935,382.454" style="stroke: #A80036; stroke-width: 1.0;"/><!--link org.apache.wiki.api.exceptions.WikiException to org.apache.wiki.api.exceptions.ProviderException--><path d="M532.9549,236.013 C495.3653,252.0709 453.1853,270.4675 415,288 C405.4664,292.3773 395.4405,297.1272 385.6557,301.8453 " fill="none" id="org.apache.wiki.api.exceptions.WikiException-org.apache.wiki.api.exceptions.ProviderException" style="stroke: #A80036; stroke-width: 1.0;"/><polygon fill="none" points="530.4287,229.4806,551.5727,228.0897,535.911,242.3625,530.4287,229.4806" style="stroke: #A80036; stroke-width: 1.0;"/><!--link org.apache.wiki.api.exceptions.WikiException to org.apache.wiki.api.exceptions.PluginException--><path d="M600.2559,244.0922 C588.8207,258.5632 576.585,274.0473 565.5819,287.9716 " fill="none" id="org.apache.wiki.api.exceptions.WikiException-org.apache.wiki.api.exceptions.PluginException" style="stroke: #A80036; stroke-width: 1.0;"/><polygon fill="none" points="594.8258,239.6734,612.7181,228.3214,605.8103,248.3534,594.8258,239.6734" style="stroke: #A80036; stroke-width: 1.0;"/><!--link org.apache.wiki.api.exceptions.WikiException to org.apache.wiki.api.exceptions.NoSuchVariableException--><path d="M685.7674,244.1216 C701.1664,263.6089 718.0142,284.9295 731.3478,301.803 " fill="none" id="org.apache.wiki.api.exceptions.WikiException-org.apache.wiki.api.exceptions.NoSuchVariableException" style="stroke: #A80036; stroke-width: 1.0;"/><polygon fill="none" points="680.1897,248.3534,673.2819,228.3214,691.1742,239.6734,680.1897,248.3534" style="stroke: #A80036; stroke-width: 1.0;"/><!--link org.apache.wiki.api.exceptions.WikiException to org.apache.wiki.api.exceptions.NoRequiredPropertyException--><path d="M755.0247,234.2529 C810.591,256.2031 876.3558,282.182 926.481,301.9828 " fill="none" id="org.apache.wiki.api.exceptions.WikiException-org.apache.wiki.api.exceptions.NoRequiredPropertyException" style="stroke: #A80036; stroke-width: 1.0;"/><polygon fill="none" points="752.2534,240.6846,736.224,226.8261,757.3971,227.6637,752.2534,240.6846" style="stroke: #A80036; stroke-width: 1.0;"/><!--link org.apache.wiki.api.exceptions.WikiException to org.apache.wiki.api.exceptions.FilterException--><path d="M755.9162,202.2046 C858.999,215.6519 1014.4339,241.7709 1143,288 C1153.4886,291.7714 1164.2614,296.7144 1174.4273,301.9403 " fill="none" id="org.apache.wiki.api.exceptions.WikiException-org.apache.wiki.api.exceptions.FilterException" style="stroke: #A80036; stroke-width: 1.0;"/><polygon fill="none" points="754.9817,209.1423,736.0212,199.6819,756.7429,195.2535,754.9817,209.1423" style="stroke: #A80036; stroke-width: 1.0;"/><text fill="#888888" font-family="sans-serif" font-size="10" lengthAdjust="spacingAndGlyphs" textLength="184" x="571" y="550.3809">UMLDoclet 1.1.4, PlantUML 1.2019.05</text><!--
@startuml

    namespace org.apache.wiki.api.exceptions {

        class WikiI18nException [[WikiI18nException.html]] {
            #args: Object[]
            +WikiI18nException(String, Object[])
            +getArgs(): Object[]
        }

        class WikiException [[WikiException.html]] {
            +WikiException(String)
            +WikiException(String, Throwable)
        }

        class RedirectException [[RedirectException.html]] {
            +RedirectException(String, String)
            +getRedirect(): String
        }

        class ProviderException [[ProviderException.html]] {
            +ProviderException(String)
        }

        class PluginException [[PluginException.html]] {
            +PluginException(String)
            +PluginException(String, Throwable)
            +getRootThrowable(): Throwable
        }

        class NoSuchVariableException [[NoSuchVariableException.html]] {
            +NoSuchVariableException(String)
        }

        class NoRequiredPropertyException [[NoRequiredPropertyException.html]] {
            +NoRequiredPropertyException(String, String)
        }

        class FilterException [[FilterException.html]] {
            +FilterException(String)
        }

        WikiException <|- - WikiI18nException

        class java.lang.Exception
        java.lang.Exception <|- - WikiException

        FilterException <|- - RedirectException

        WikiException <|- - ProviderException

        WikiException <|- - PluginException

        WikiException <|- - NoSuchVariableException

        WikiException <|- - NoRequiredPropertyException

        WikiException <|- - FilterException

    }


    center footer UMLDoclet 1.1.4, PlantUML 1.2019.05
@enduml

PlantUML version 1.2019.05(Sat Apr 20 18:45:36 CEST 2019)
(APACHE source distribution)
Java Runtime: OpenJDK Runtime Environment
JVM: OpenJDK 64-Bit Server VM
Java Version: 1.8.0_212-b03
Operating System: Windows 10
OS Version: 10.0
Default Encoding: Cp1252
Language: es
Country: ES
--></g></svg>