<?xml version="1.0" encoding="UTF-8" standalone="no"?><svg xmlns="http://www.w3.org/2000/svg" xmlns:xlink="http://www.w3.org/1999/xlink" contentScriptType="application/ecmascript" contentStyleType="text/css" height="1141px" preserveAspectRatio="none" style="width:970px;height:1141px;" version="1.1" viewBox="0 0 970 1141" width="970px" zoomAndPan="magnify"><defs><filter height="300%" id="f15iftjvqnr32k" width="300%" x="-1" y="-1"><feGaussianBlur result="blurOut" stdDeviation="2.0"/><feColorMatrix in="blurOut" result="blurOut2" type="matrix" values="0 0 0 0 0 0 0 0 0 0 0 0 0 0 0 0 0 0 .4 0"/><feOffset dx="4.0" dy="4.0" in="blurOut2" result="blurOut3"/><feBlend in="SourceGraphic" in2="blurOut3" mode="normal"/></filter></defs><g><!--cluster org.apache.wiki.ui.admin--><polygon fill="#FFFFFF" filter="url(#f15iftjvqnr32k)" points="14,16,216,16,223,38.2969,692,38.2969,692,1101,14,1101,14,16" style="stroke: #000000; stroke-width: 1.5;"/><line style="stroke: #000000; stroke-width: 1.5;" x1="14" x2="223" y1="38.2969" y2="38.2969"/><text fill="#000000" font-family="sans-serif" font-size="14" font-weight="bold" lengthAdjust="spacingAndGlyphs" textLength="196" x="18" y="30.9951">org.apache.wiki.ui.admin</text><!--cluster org.apache.wiki.management--><polygon fill="#FFFFFF" filter="url(#f15iftjvqnr32k)" points="700,819,938,819,945,841.2969,948,841.2969,948,928,700,928,700,819" style="stroke: #000000; stroke-width: 1.5;"/><line style="stroke: #000000; stroke-width: 1.5;" x1="700" x2="945" y1="841.2969" y2="841.2969"/><text fill="#000000" font-family="sans-serif" font-size="14" font-weight="bold" lengthAdjust="spacingAndGlyphs" textLength="232" x="704" y="833.9951">org.apache.wiki.management</text><!--cluster org.apache.wiki.ui--><polygon fill="#FFFFFF" filter="url(#f15iftjvqnr32k)" points="700,481,850,481,857,503.2969,896,503.2969,896,602,700,602,700,481" style="stroke: #000000; stroke-width: 1.5;"/><line style="stroke: #000000; stroke-width: 1.5;" x1="700" x2="857" y1="503.2969" y2="503.2969"/><text fill="#000000" font-family="sans-serif" font-size="14" font-weight="bold" lengthAdjust="spacingAndGlyphs" textLength="144" x="704" y="495.9951">org.apache.wiki.ui</text><!--cluster org.apache.wiki.event--><polygon fill="#FFFFFF" filter="url(#f15iftjvqnr32k)" points="700,181,881,181,888,203.2969,932,203.2969,932,277,700,277,700,181" style="stroke: #000000; stroke-width: 1.5;"/><line style="stroke: #000000; stroke-width: 1.5;" x1="700" x2="888" y1="203.2969" y2="203.2969"/><text fill="#000000" font-family="sans-serif" font-size="14" font-weight="bold" lengthAdjust="spacingAndGlyphs" textLength="175" x="704" y="195.9951">org.apache.wiki.event</text><!--class org.apache.wiki.ui.admin.WikiFormAdminBean--><a href="WikiFormAdminBean.html" target="_top" xlink:actuate="onRequest" xlink:show="new" xlink:title="WikiFormAdminBean.html" xlink:type="simple"><rect fill="#FEFECE" filter="url(#f15iftjvqnr32k)" height="99.2188" id="org.apache.wiki.ui.admin.WikiFormAdminBean" style="stroke: #A80036; stroke-width: 1.5;" width="447" x="22.5" y="987.5"/><ellipse cx="178.75" cy="1003.5" fill="#A9DCDF" rx="11" ry="11" style="stroke: #A80036; stroke-width: 1.0;"/><path d="M178.8594,998.8438 L177.7031,1003.9219 L180.0313,1003.9219 L178.8594,998.8438 Z M177.375,996.6094 L180.3594,996.6094 L183.7188,1009 L181.2656,1009 L180.5,1005.9375 L177.2188,1005.9375 L176.4688,1009 L174.0313,1009 L177.375,996.6094 Z "/><text fill="#000000" font-family="sans-serif" font-size="12" font-style="italic" lengthAdjust="spacingAndGlyphs" textLength="126" x="199.25" y="1007.6543">WikiFormAdminBean</text><line style="stroke: #A80036; stroke-width: 1.5;" x1="23.5" x2="468.5" y1="1019.5" y2="1019.5"/><line style="stroke: #A80036; stroke-width: 1.5;" x1="23.5" x2="468.5" y1="1027.5" y2="1027.5"/><ellipse cx="33.5" cy="1039.4023" fill="#84BE84" rx="3" ry="3" style="stroke: #038048; stroke-width: 1.0;"/><text fill="#000000" font-family="sans-serif" font-size="11" lengthAdjust="spacingAndGlyphs" textLength="148" x="42.5" y="1041.7104">doGet(WikiContext): String</text><ellipse cx="33.5" cy="1052.207" fill="#84BE84" rx="3" ry="3" style="stroke: #038048; stroke-width: 1.0;"/><text fill="#000000" font-family="sans-serif" font-size="11" lengthAdjust="spacingAndGlyphs" textLength="421" x="42.5" y="1054.5151">handlePost(WikiContext, HttpServletRequest, HttpServletResponse): String</text><ellipse cx="33.5" cy="1065.0117" fill="#84BE84" rx="3" ry="3" style="stroke: #038048; stroke-width: 1.0;"/><text fill="#000000" font-family="sans-serif" font-size="11" font-style="italic" lengthAdjust="spacingAndGlyphs" textLength="163" x="42.5" y="1067.3198">getForm(WikiContext): String</text><ellipse cx="33.5" cy="1077.8164" fill="#84BE84" rx="3" ry="3" style="stroke: #038048; stroke-width: 1.0;"/><text fill="#000000" font-family="sans-serif" font-size="11" font-style="italic" lengthAdjust="spacingAndGlyphs" textLength="269" x="42.5" y="1080.1245">handleResponse(WikiContext, Map&lt;?, ?&gt;): void</text></a><!--class org.apache.wiki.ui.admin.SimpleAdminBean--><a href="SimpleAdminBean.html" target="_top" xlink:actuate="onRequest" xlink:show="new" xlink:title="SimpleAdminBean.html" xlink:type="simple"><rect fill="#FEFECE" filter="url(#f15iftjvqnr32k)" height="112.0234" id="org.apache.wiki.ui.admin.SimpleAdminBean" style="stroke: #A80036; stroke-width: 1.5;" width="179" x="504.5" y="981"/><ellipse cx="535.7" cy="997" fill="#A9DCDF" rx="11" ry="11" style="stroke: #A80036; stroke-width: 1.0;"/><path d="M535.8094,992.3438 L534.6531,997.4219 L536.9813,997.4219 L535.8094,992.3438 Z M534.325,990.1094 L537.3094,990.1094 L540.6688,1002.5 L538.2156,1002.5 L537.45,999.4375 L534.1688,999.4375 L533.4188,1002.5 L530.9813,1002.5 L534.325,990.1094 Z "/><text fill="#000000" font-family="sans-serif" font-size="12" font-style="italic" lengthAdjust="spacingAndGlyphs" textLength="111" x="553.3" y="1001.1543">SimpleAdminBean</text><line style="stroke: #A80036; stroke-width: 1.5;" x1="505.5" x2="682.5" y1="1013" y2="1013"/><polygon fill="none" points="515.5,1019.9023,519.5,1023.9023,515.5,1027.9023,511.5,1023.9023" style="stroke: #B38D22; stroke-width: 1.0;"/><text fill="#000000" font-family="sans-serif" font-size="11" lengthAdjust="spacingAndGlyphs" textLength="101" x="524.5" y="1027.2104">m_engine: Engine</text><line style="stroke: #A80036; stroke-width: 1.5;" x1="505.5" x2="682.5" y1="1033.8047" y2="1033.8047"/><ellipse cx="515.5" cy="1045.707" fill="#84BE84" rx="3" ry="3" style="stroke: #038048; stroke-width: 1.0;"/><text fill="#000000" font-family="sans-serif" font-size="11" lengthAdjust="spacingAndGlyphs" textLength="122" x="524.5" y="1048.0151">initialize(Engine): void</text><ellipse cx="515.5" cy="1058.5117" fill="#84BE84" rx="3" ry="3" style="stroke: #038048; stroke-width: 1.0;"/><text fill="#000000" font-family="sans-serif" font-size="11" lengthAdjust="spacingAndGlyphs" textLength="148" x="524.5" y="1060.8198">doGet(WikiContext): String</text><ellipse cx="515.5" cy="1071.3164" fill="#84BE84" rx="3" ry="3" style="stroke: #038048; stroke-width: 1.0;"/><text fill="#000000" font-family="sans-serif" font-size="11" lengthAdjust="spacingAndGlyphs" textLength="153" x="524.5" y="1073.6245">doPost(WikiContext): String</text><ellipse cx="515.5" cy="1084.1211" fill="#84BE84" rx="3" ry="3" style="stroke: #038048; stroke-width: 1.0;"/><text fill="#000000" font-family="sans-serif" font-size="11" lengthAdjust="spacingAndGlyphs" textLength="78" x="524.5" y="1086.4292">getId(): String</text></a><!--class org.apache.wiki.ui.admin.AdminBeanManager--><a href="AdminBeanManager.html" target="_top" xlink:actuate="onRequest" xlink:show="new" xlink:title="AdminBeanManager.html" xlink:type="simple"><rect fill="#FEFECE" filter="url(#f15iftjvqnr32k)" height="99.2188" id="org.apache.wiki.ui.admin.AdminBeanManager" style="stroke: #A80036; stroke-width: 1.5;" width="215" x="361.5" y="43"/><ellipse cx="402.6" cy="59" fill="#B4A7E5" rx="11" ry="11" style="stroke: #A80036; stroke-width: 1.0;"/><path d="M398.5219,54.7656 L398.5219,52.6094 L405.9125,52.6094 L405.9125,54.7656 L403.4438,54.7656 L403.4438,62.8438 L405.9125,62.8438 L405.9125,65 L398.5219,65 L398.5219,62.8438 L400.9906,62.8438 L400.9906,54.7656 L398.5219,54.7656 Z "/><text fill="#000000" font-family="sans-serif" font-size="12" font-style="italic" lengthAdjust="spacingAndGlyphs" textLength="125" x="422.4" y="63.1543">AdminBeanManager</text><line style="stroke: #A80036; stroke-width: 1.5;" x1="362.5" x2="575.5" y1="75" y2="75"/><line style="stroke: #A80036; stroke-width: 1.5;" x1="362.5" x2="575.5" y1="83" y2="83"/><ellipse cx="372.5" cy="94.9023" fill="#84BE84" rx="3" ry="3" style="stroke: #038048; stroke-width: 1.0;"/><text fill="#000000" font-family="sans-serif" font-size="11" font-style="italic" lengthAdjust="spacingAndGlyphs" textLength="86" x="381.5" y="97.2104">initialize(): void</text><ellipse cx="372.5" cy="107.707" fill="#84BE84" rx="3" ry="3" style="stroke: #038048; stroke-width: 1.0;"/><text fill="#000000" font-family="sans-serif" font-size="11" font-style="italic" lengthAdjust="spacingAndGlyphs" textLength="164" x="381.5" y="110.0151">findBean(String): AdminBean</text><ellipse cx="372.5" cy="120.5117" fill="#84BE84" rx="3" ry="3" style="stroke: #038048; stroke-width: 1.0;"/><text fill="#000000" font-family="sans-serif" font-size="11" font-style="italic" lengthAdjust="spacingAndGlyphs" textLength="189" x="381.5" y="122.8198">actionPerformed(WikiEvent): void</text><ellipse cx="372.5" cy="133.3164" fill="#84BE84" rx="3" ry="3" style="stroke: #038048; stroke-width: 1.0;"/><text fill="#000000" font-family="sans-serif" font-size="11" font-style="italic" lengthAdjust="spacingAndGlyphs" textLength="171" x="381.5" y="135.6245">getTypeFromString(String): int</text></a><!--class org.apache.wiki.ui.admin.AdminBean--><a href="AdminBean.html" target="_top" xlink:actuate="onRequest" xlink:show="new" xlink:title="AdminBean.html" xlink:type="simple"><rect fill="#FEFECE" filter="url(#f15iftjvqnr32k)" height="124.8281" id="org.apache.wiki.ui.admin.AdminBean" style="stroke: #A80036; stroke-width: 1.5;" width="150" x="496" y="655"/><ellipse cx="532.6" cy="671" fill="#B4A7E5" rx="11" ry="11" style="stroke: #A80036; stroke-width: 1.0;"/><path d="M528.5219,666.7656 L528.5219,664.6094 L535.9125,664.6094 L535.9125,666.7656 L533.4438,666.7656 L533.4438,674.8438 L535.9125,674.8438 L535.9125,677 L528.5219,677 L528.5219,674.8438 L530.9906,674.8438 L530.9906,666.7656 L528.5219,666.7656 Z "/><text fill="#000000" font-family="sans-serif" font-size="12" font-style="italic" lengthAdjust="spacingAndGlyphs" textLength="70" x="551.4" y="675.1543">AdminBean</text><line style="stroke: #A80036; stroke-width: 1.5;" x1="497" x2="645" y1="687" y2="687"/><ellipse cx="507" cy="698.9023" fill="none" rx="3" ry="3" style="stroke: #038048; stroke-width: 1.0;"/><text fill="#000000" font-family="sans-serif" font-size="11" lengthAdjust="spacingAndGlyphs" text-decoration="underline" textLength="79" x="516" y="701.2104">UNKNOWN: int</text><ellipse cx="507" cy="711.707" fill="none" rx="3" ry="3" style="stroke: #038048; stroke-width: 1.0;"/><text fill="#000000" font-family="sans-serif" font-size="11" lengthAdjust="spacingAndGlyphs" text-decoration="underline" textLength="53" x="516" y="714.0151">CORE: int</text><ellipse cx="507" cy="724.5117" fill="none" rx="3" ry="3" style="stroke: #038048; stroke-width: 1.0;"/><text fill="#000000" font-family="sans-serif" font-size="11" lengthAdjust="spacingAndGlyphs" text-decoration="underline" textLength="63" x="516" y="726.8198">EDITOR: int</text><line style="stroke: #A80036; stroke-width: 1.5;" x1="497" x2="645" y1="733.4141" y2="733.4141"/><ellipse cx="507" cy="745.3164" fill="#84BE84" rx="3" ry="3" style="stroke: #038048; stroke-width: 1.0;"/><text fill="#000000" font-family="sans-serif" font-size="11" font-style="italic" lengthAdjust="spacingAndGlyphs" textLength="124" x="516" y="747.6245">initialize(Engine): void</text><ellipse cx="507" cy="758.1211" fill="#84BE84" rx="3" ry="3" style="stroke: #038048; stroke-width: 1.0;"/><text fill="#000000" font-family="sans-serif" font-size="11" font-style="italic" lengthAdjust="spacingAndGlyphs" textLength="91" x="516" y="760.4292">getTitle(): String</text><ellipse cx="507" cy="770.9258" fill="#84BE84" rx="3" ry="3" style="stroke: #038048; stroke-width: 1.0;"/><text fill="#000000" font-family="sans-serif" font-size="11" font-style="italic" lengthAdjust="spacingAndGlyphs" textLength="76" x="516" y="773.2339">getType(): int</text></a><!--class org.apache.wiki.ui.admin.DefaultAdminBeanManager--><a href="DefaultAdminBeanManager.html" target="_top" xlink:actuate="onRequest" xlink:show="new" xlink:title="DefaultAdminBeanManager.html" xlink:type="simple"><rect fill="#FEFECE" filter="url(#f15iftjvqnr32k)" height="112.0234" id="org.apache.wiki.ui.admin.DefaultAdminBeanManager" style="stroke: #A80036; stroke-width: 1.5;" width="225" x="458.5" y="330"/><ellipse cx="483.85" cy="346" fill="#ADD1B2" rx="11" ry="11" style="stroke: #A80036; stroke-width: 1.0;"/><path d="M486.8188,351.6406 Q486.2406,351.9375 485.6,352.0859 Q484.9594,352.2344 484.2563,352.2344 Q481.7563,352.2344 480.4359,350.5859 Q479.1156,348.9375 479.1156,345.8125 Q479.1156,342.6875 480.4359,341.0313 Q481.7563,339.375 484.2563,339.375 Q484.9594,339.375 485.6078,339.5313 Q486.2563,339.6875 486.8188,339.9844 L486.8188,342.7031 Q486.1938,342.125 485.6,341.8516 Q485.0063,341.5781 484.3813,341.5781 Q483.0375,341.5781 482.35,342.6484 Q481.6625,343.7188 481.6625,345.8125 Q481.6625,347.9063 482.35,348.9766 Q483.0375,350.0469 484.3813,350.0469 Q485.0063,350.0469 485.6,349.7734 Q486.1938,349.5 486.8188,348.9219 L486.8188,351.6406 Z "/><text fill="#000000" font-family="sans-serif" font-size="12" lengthAdjust="spacingAndGlyphs" textLength="170" x="500.15" y="350.1543">DefaultAdminBeanManager</text><line style="stroke: #A80036; stroke-width: 1.5;" x1="459.5" x2="682.5" y1="362" y2="362"/><line style="stroke: #A80036; stroke-width: 1.5;" x1="459.5" x2="682.5" y1="370" y2="370"/><ellipse cx="469.5" cy="381.9023" fill="#84BE84" rx="3" ry="3" style="stroke: #038048; stroke-width: 1.0;"/><text fill="#000000" font-family="sans-serif" font-size="11" lengthAdjust="spacingAndGlyphs" textLength="199" x="478.5" y="384.2104">DefaultAdminBeanManager(Engine)</text><ellipse cx="469.5" cy="394.707" fill="#84BE84" rx="3" ry="3" style="stroke: #038048; stroke-width: 1.0;"/><text fill="#000000" font-family="sans-serif" font-size="11" lengthAdjust="spacingAndGlyphs" textLength="84" x="478.5" y="397.0151">initialize(): void</text><ellipse cx="469.5" cy="407.5117" fill="#84BE84" rx="3" ry="3" style="stroke: #038048; stroke-width: 1.0;"/><text fill="#000000" font-family="sans-serif" font-size="11" lengthAdjust="spacingAndGlyphs" textLength="164" x="478.5" y="409.8198">findBean(String): AdminBean</text><ellipse cx="469.5" cy="420.3164" fill="#84BE84" rx="3" ry="3" style="stroke: #038048; stroke-width: 1.0;"/><text fill="#000000" font-family="sans-serif" font-size="11" lengthAdjust="spacingAndGlyphs" textLength="172" x="478.5" y="422.6245">getTypeFromString(String): int</text><ellipse cx="469.5" cy="433.1211" fill="#84BE84" rx="3" ry="3" style="stroke: #038048; stroke-width: 1.0;"/><text fill="#000000" font-family="sans-serif" font-size="11" lengthAdjust="spacingAndGlyphs" textLength="185" x="478.5" y="435.4292">actionPerformed(WikiEvent): void</text></a><!--class org.apache.wiki.management.SimpleMBean--><rect fill="#FEFECE" filter="url(#f15iftjvqnr32k)" height="73.6094" id="org.apache.wiki.management.SimpleMBean" style="stroke: #A80036; stroke-width: 1.5;" width="189" x="708.5" y="846"/><ellipse cx="757.25" cy="862" fill="#A9DCDF" rx="11" ry="11" style="stroke: #A80036; stroke-width: 1.0;"/><path d="M757.3594,857.3438 L756.2031,862.4219 L758.5313,862.4219 L757.3594,857.3438 Z M755.875,855.1094 L758.8594,855.1094 L762.2188,867.5 L759.7656,867.5 L759,864.4375 L755.7188,864.4375 L754.9688,867.5 L752.5313,867.5 L755.875,855.1094 Z "/><text fill="#000000" font-family="sans-serif" font-size="12" font-style="italic" lengthAdjust="spacingAndGlyphs" textLength="83" x="777.75" y="866.1543">SimpleMBean</text><line style="stroke: #A80036; stroke-width: 1.5;" x1="709.5" x2="896.5" y1="878" y2="878"/><line style="stroke: #A80036; stroke-width: 1.5;" x1="709.5" x2="896.5" y1="886" y2="886"/><ellipse cx="719.5" cy="897.9023" fill="#84BE84" rx="3" ry="3" style="stroke: #038048; stroke-width: 1.0;"/><text fill="#000000" font-family="sans-serif" font-size="11" font-style="italic" lengthAdjust="spacingAndGlyphs" textLength="163" x="728.5" y="900.2104">getAttributeNames(): String[]</text><ellipse cx="719.5" cy="910.707" fill="#84BE84" rx="3" ry="3" style="stroke: #038048; stroke-width: 1.0;"/><text fill="#000000" font-family="sans-serif" font-size="11" font-style="italic" lengthAdjust="spacingAndGlyphs" textLength="155" x="728.5" y="913.0151">getMethodNames(): String[]</text><!--class org.apache.wiki.ui.GenericHTTPHandler--><rect fill="#FEFECE" filter="url(#f15iftjvqnr32k)" height="86.4141" id="org.apache.wiki.ui.GenericHTTPHandler" style="stroke: #A80036; stroke-width: 1.5;" width="180" x="708" y="508"/><ellipse cx="732.45" cy="524" fill="#B4A7E5" rx="11" ry="11" style="stroke: #A80036; stroke-width: 1.0;"/><path d="M728.3719,519.7656 L728.3719,517.6094 L735.7625,517.6094 L735.7625,519.7656 L733.2938,519.7656 L733.2938,527.8438 L735.7625,527.8438 L735.7625,530 L728.3719,530 L728.3719,527.8438 L730.8406,527.8438 L730.8406,519.7656 L728.3719,519.7656 Z "/><text fill="#000000" font-family="sans-serif" font-size="12" font-style="italic" lengthAdjust="spacingAndGlyphs" textLength="127" x="748.55" y="528.1543">GenericHTTPHandler</text><line style="stroke: #A80036; stroke-width: 1.5;" x1="709" x2="887" y1="540" y2="540"/><line style="stroke: #A80036; stroke-width: 1.5;" x1="709" x2="887" y1="548" y2="548"/><ellipse cx="719" cy="559.9023" fill="#84BE84" rx="3" ry="3" style="stroke: #038048; stroke-width: 1.0;"/><text fill="#000000" font-family="sans-serif" font-size="11" font-style="italic" lengthAdjust="spacingAndGlyphs" textLength="77" x="728" y="562.2104">getId(): String</text><ellipse cx="719" cy="572.707" fill="#84BE84" rx="3" ry="3" style="stroke: #038048; stroke-width: 1.0;"/><text fill="#000000" font-family="sans-serif" font-size="11" font-style="italic" lengthAdjust="spacingAndGlyphs" textLength="150" x="728" y="575.0151">doGet(WikiContext): String</text><ellipse cx="719" cy="585.5117" fill="#84BE84" rx="3" ry="3" style="stroke: #038048; stroke-width: 1.0;"/><text fill="#000000" font-family="sans-serif" font-size="11" font-style="italic" lengthAdjust="spacingAndGlyphs" textLength="154" x="728" y="587.8198">doPost(WikiContext): String</text><!--class org.apache.wiki.event.WikiEventListener--><rect fill="#FEFECE" filter="url(#f15iftjvqnr32k)" height="60.8047" id="org.apache.wiki.event.WikiEventListener" style="stroke: #A80036; stroke-width: 1.5;" width="215" x="708.5" y="208"/><ellipse cx="756.75" cy="224" fill="#B4A7E5" rx="11" ry="11" style="stroke: #A80036; stroke-width: 1.0;"/><path d="M752.6719,219.7656 L752.6719,217.6094 L760.0625,217.6094 L760.0625,219.7656 L757.5938,219.7656 L757.5938,227.8438 L760.0625,227.8438 L760.0625,230 L752.6719,230 L752.6719,227.8438 L755.1406,227.8438 L755.1406,219.7656 L752.6719,219.7656 Z "/><text fill="#000000" font-family="sans-serif" font-size="12" font-style="italic" lengthAdjust="spacingAndGlyphs" textLength="110" x="777.25" y="228.1543">WikiEventListener</text><line style="stroke: #A80036; stroke-width: 1.5;" x1="709.5" x2="922.5" y1="240" y2="240"/><line style="stroke: #A80036; stroke-width: 1.5;" x1="709.5" x2="922.5" y1="248" y2="248"/><ellipse cx="719.5" cy="259.9023" fill="#84BE84" rx="3" ry="3" style="stroke: #038048; stroke-width: 1.0;"/><text fill="#000000" font-family="sans-serif" font-size="11" font-style="italic" lengthAdjust="spacingAndGlyphs" textLength="189" x="728.5" y="262.2104">actionPerformed(WikiEvent): void</text><!--link org.apache.wiki.ui.admin.AdminBean to org.apache.wiki.ui.admin.WikiFormAdminBean--><path d="M492.5657,794.607 C431.575,854.5655 348.7804,935.9589 296.3649,987.4875 " fill="none" id="org.apache.wiki.ui.admin.AdminBean-org.apache.wiki.ui.admin.WikiFormAdminBean" style="stroke: #A80036; stroke-width: 1.0; stroke-dasharray: 7.0,7.0;"/><polygon fill="none" points="488.0086,789.2709,507.1782,780.2417,497.8232,799.2545,488.0086,789.2709" style="stroke: #A80036; stroke-width: 1.0;"/><!--link org.apache.wiki.management.SimpleMBean to org.apache.wiki.ui.admin.SimpleAdminBean--><path d="M736.3348,932.1217 C715.2265,947.6752 691.7372,964.9831 670.0236,980.9826 " fill="none" id="org.apache.wiki.management.SimpleMBean-org.apache.wiki.ui.admin.SimpleAdminBean" style="stroke: #A80036; stroke-width: 1.0;"/><polygon fill="none" points="732.4198,926.3114,752.6733,920.0828,740.7246,937.5822,732.4198,926.3114" style="stroke: #A80036; stroke-width: 1.0;"/><!--link org.apache.wiki.ui.admin.AdminBean to org.apache.wiki.ui.admin.SimpleAdminBean--><path d="M576.9609,800.3045 C581.0463,857.0561 586.357,930.8291 589.9557,980.8194 " fill="none" id="org.apache.wiki.ui.admin.AdminBean-org.apache.wiki.ui.admin.SimpleAdminBean" style="stroke: #A80036; stroke-width: 1.0; stroke-dasharray: 7.0,7.0;"/><polygon fill="none" points="569.9708,800.6927,575.5166,780.2417,583.9347,799.6874,569.9708,800.6927" style="stroke: #A80036; stroke-width: 1.0;"/><!--link org.apache.wiki.ui.GenericHTTPHandler to org.apache.wiki.ui.admin.AdminBean--><path d="M723.0738,605.9569 C698.3871,624.0641 670.9372,644.198 646.2281,662.3217 " fill="none" id="org.apache.wiki.ui.GenericHTTPHandler-org.apache.wiki.ui.admin.AdminBean" style="stroke: #A80036; stroke-width: 1.0; stroke-dasharray: 7.0,7.0;"/><polygon fill="none" points="718.9796,600.2788,739.2466,594.0944,727.2598,611.5677,718.9796,600.2788" style="stroke: #A80036; stroke-width: 1.0;"/><!--link org.apache.wiki.event.WikiEventListener to org.apache.wiki.ui.admin.DefaultAdminBeanManager--><path d="M748.0309,279.4202 C722.1255,295.0163 692.1322,313.0735 664.2792,329.8421 " fill="none" id="org.apache.wiki.event.WikiEventListener-org.apache.wiki.ui.admin.DefaultAdminBeanManager" style="stroke: #A80036; stroke-width: 1.0; stroke-dasharray: 7.0,7.0;"/><polygon fill="none" points="744.4909,273.3807,765.2358,269.0621,751.7119,285.3748,744.4909,273.3807" style="stroke: #A80036; stroke-width: 1.0;"/><!--link org.apache.wiki.ui.admin.AdminBeanManager to org.apache.wiki.ui.admin.DefaultAdminBeanManager--><path d="M492.9284,161.3527 C510.7731,212.7 534.8444,281.964 551.52,329.9471 " fill="none" id="org.apache.wiki.ui.admin.AdminBeanManager-org.apache.wiki.ui.admin.DefaultAdminBeanManager" style="stroke: #A80036; stroke-width: 1.0; stroke-dasharray: 7.0,7.0;"/><polygon fill="none" points="486.2563,163.4779,486.3029,142.2883,499.4805,158.882,486.2563,163.4779" style="stroke: #A80036; stroke-width: 1.0;"/><!--link org.apache.wiki.ui.admin.AdminBeanManager to org.apache.wiki.ui.admin.AdminBean--><path d="M412.0356,142.2301 C388.6713,168.1439 367,202.014 367,238.5 C367,238.5 367,238.5 367,551 C367,618.0318 433.9243,662.8986 491.109,689.0007 " fill="none" id="org.apache.wiki.ui.admin.AdminBeanManager-org.apache.wiki.ui.admin.AdminBean" style="stroke: #A80036; stroke-width: 1.0;"/><polygon fill="#A80036" points="495.907,691.1576,489.3384,683.8191,491.3466,689.1075,486.0582,691.1157,495.907,691.1576" style="stroke: #A80036; stroke-width: 1.0;"/><text fill="#000000" font-family="sans-serif" font-size="13" lengthAdjust="spacingAndGlyphs" textLength="54" x="368" y="390.5669">allBeans</text><text fill="#000000" font-family="sans-serif" font-size="13" lengthAdjust="spacingAndGlyphs" textLength="7" x="480.8021" y="684.7502">*</text><!--link org.apache.wiki.ui.admin.DefaultAdminBeanManager to org.apache.wiki.ui.admin.AdminBean--><path d="M571,442.2345 C571,499.55 571,588.4888 571,649.6738 " fill="none" id="org.apache.wiki.ui.admin.DefaultAdminBeanManager-org.apache.wiki.ui.admin.AdminBean" style="stroke: #A80036; stroke-width: 1.0;"/><polygon fill="#A80036" points="571,654.7668,575,645.7668,571,649.7668,567,645.7668,571,654.7668" style="stroke: #A80036; stroke-width: 1.0;"/><text fill="#000000" font-family="sans-serif" font-size="13" lengthAdjust="spacingAndGlyphs" textLength="54" x="572" y="555.5669">allBeans</text><text fill="#000000" font-family="sans-serif" font-size="13" lengthAdjust="spacingAndGlyphs" textLength="7" x="563.5953" y="643.7306">*</text><text fill="#888888" font-family="sans-serif" font-size="10" lengthAdjust="spacingAndGlyphs" textLength="186" x="394" y="1128.2822">UMLDoclet 1.1.4, PlantUML 1.2019.05</text><!--
@startuml

    namespace org.apache.wiki.ui.admin {

        abstract class WikiFormAdminBean [[WikiFormAdminBean.html]] {
            +doGet(WikiContext): String
            +handlePost(WikiContext, HttpServletRequest, HttpServletResponse): String
            {abstract} +getForm(WikiContext): String
            {abstract} +handleResponse(WikiContext, Map<?, ?>): void
        }

        abstract class SimpleAdminBean [[SimpleAdminBean.html]] {
            #m_engine: Engine
            +initialize(Engine): void
            +doGet(WikiContext): String
            +doPost(WikiContext): String
            +getId(): String
        }

        interface AdminBeanManager [[AdminBeanManager.html]] {
            {abstract} +initialize(): void
            {abstract} +findBean(String): AdminBean
            {abstract} +actionPerformed(WikiEvent): void
            {abstract} +getTypeFromString(String): int
        }

        interface AdminBean [[AdminBean.html]] {
            {static} +UNKNOWN: int
            {static} +CORE: int
            {static} +EDITOR: int
            {abstract} +initialize(Engine): void
            {abstract} +getTitle(): String
            {abstract} +getType(): int
        }

        class DefaultAdminBeanManager [[DefaultAdminBeanManager.html]] {
            +DefaultAdminBeanManager(Engine)
            +initialize(): void
            +findBean(String): AdminBean
            +getTypeFromString(String): int
            +actionPerformed(WikiEvent): void
        }

        AdminBean <|.. WikiFormAdminBean

        abstract class org.apache.wiki.management.SimpleMBean {
            {abstract} +getAttributeNames(): String[]
            {abstract} +getMethodNames(): String[]
        }
        org.apache.wiki.management.SimpleMBean <|- - SimpleAdminBean

        AdminBean <|.. SimpleAdminBean

        interface org.apache.wiki.ui.GenericHTTPHandler {
            {abstract} +getId(): String
            {abstract} +doGet(WikiContext): String
            {abstract} +doPost(WikiContext): String
        }
        org.apache.wiki.ui.GenericHTTPHandler <|.. AdminBean

        interface org.apache.wiki.event.WikiEventListener {
            {abstract} +actionPerformed(WikiEvent): void
        }
        org.apache.wiki.event.WikiEventListener <|.. DefaultAdminBeanManager

        AdminBeanManager <|.. DefaultAdminBeanManager

        AdminBeanManager - -> "*" AdminBean: allBeans

        DefaultAdminBeanManager - -> "*" AdminBean: allBeans

    }


    center footer UMLDoclet 1.1.4, PlantUML 1.2019.05
@enduml

PlantUML version 1.2019.05(Sat Apr 20 16:45:36 UTC 2019)
(APACHE source distribution)
Java Runtime: Java(TM) SE Runtime Environment
JVM: Java HotSpot(TM) 64-Bit Server VM
Java Version: 1.8.0_241-b07
Operating System: Linux
OS Version: 4.15.0-74-generic
Default Encoding: ISO-8859-1
Language: en
Country: US
--></g></svg>