<?xml version="1.0" encoding="UTF-8" standalone="no"?><svg xmlns="http://www.w3.org/2000/svg" xmlns:xlink="http://www.w3.org/1999/xlink" contentScriptType="application/ecmascript" contentStyleType="text/css" height="254px" preserveAspectRatio="none" style="width:260px;height:254px;" version="1.1" viewBox="0 0 260 254" width="260px" zoomAndPan="magnify"><defs><filter height="300%" id="f1pfg13e5qzr45" width="300%" x="-1" y="-1"><feGaussianBlur result="blurOut" stdDeviation="2.0"/><feColorMatrix in="blurOut" result="blurOut2" type="matrix" values="0 0 0 0 0 0 0 0 0 0 0 0 0 0 0 0 0 0 .4 0"/><feOffset dx="4.0" dy="4.0" in="blurOut2" result="blurOut3"/><feBlend in="SourceGraphic" in2="blurOut3" mode="normal"/></filter></defs><g><!--class VersioningFileProvider--><a href="VersioningFileProvider.html" target="_top" xlink:actuate="onRequest" xlink:show="new" xlink:title="VersioningFileProvider.html" xlink:type="simple"><rect fill="#FEFECE" filter="url(#f1pfg13e5qzr45)" height="214.4609" id="VersioningFileProvider" style="stroke: #A80036; stroke-width: 1.5;" width="243" x="6" y="8"/><ellipse cx="54.25" cy="24" fill="#ADD1B2" rx="11" ry="11" style="stroke: #A80036; stroke-width: 1.0;"/><path d="M57.2188,29.6406 Q56.6406,29.9375 56,30.0781 Q55.3594,30.2344 54.6563,30.2344 Q52.1563,30.2344 50.8281,28.5938 Q49.5156,26.9375 49.5156,23.8125 Q49.5156,20.6875 50.8281,19.0313 Q52.1563,17.375 54.6563,17.375 Q55.3594,17.375 56,17.5313 Q56.6563,17.6875 57.2188,17.9844 L57.2188,20.7031 Q56.5938,20.125 56,19.8594 Q55.4063,19.5781 54.7813,19.5781 Q53.4375,19.5781 52.75,20.6563 Q52.0625,21.7188 52.0625,23.8125 Q52.0625,25.9063 52.75,26.9844 Q53.4375,28.0469 54.7813,28.0469 Q55.4063,28.0469 56,27.7813 Q56.5938,27.5 57.2188,26.9219 L57.2188,29.6406 Z "/><text fill="#000000" font-family="sans-serif" font-size="12" lengthAdjust="spacingAndGlyphs" textLength="138" x="74.75" y="28.1543">VersioningFileProvider</text><line style="stroke: #A80036; stroke-width: 1.5;" x1="7" x2="248" y1="40" y2="40"/><ellipse cx="17" cy="51.9023" fill="none" rx="3" ry="3" style="stroke: #038048; stroke-width: 1.0;"/><text fill="#000000" font-family="sans-serif" font-size="11" lengthAdjust="spacingAndGlyphs" text-decoration="underline" textLength="90" x="26" y="54.2104">PAGEDIR: String</text><ellipse cx="17" cy="64.707" fill="none" rx="3" ry="3" style="stroke: #038048; stroke-width: 1.0;"/><text fill="#000000" font-family="sans-serif" font-size="11" lengthAdjust="spacingAndGlyphs" text-decoration="underline" textLength="122" x="26" y="67.0151">PROPERTYFILE: String</text><line style="stroke: #A80036; stroke-width: 1.5;" x1="7" x2="248" y1="73.6094" y2="73.6094"/><ellipse cx="17" cy="85.5117" fill="#84BE84" rx="3" ry="3" style="stroke: #038048; stroke-width: 1.0;"/><text fill="#000000" font-family="sans-serif" font-size="11" lengthAdjust="spacingAndGlyphs" textLength="189" x="26" y="87.8198">initialize(Engine, Properties): void</text><ellipse cx="17" cy="98.3164" fill="#84BE84" rx="3" ry="3" style="stroke: #038048; stroke-width: 1.0;"/><text fill="#000000" font-family="sans-serif" font-size="11" lengthAdjust="spacingAndGlyphs" textLength="176" x="26" y="100.6245">getPageText(String, int): String</text><ellipse cx="17" cy="111.1211" fill="#84BE84" rx="3" ry="3" style="stroke: #038048; stroke-width: 1.0;"/><text fill="#000000" font-family="sans-serif" font-size="11" lengthAdjust="spacingAndGlyphs" textLength="179" x="26" y="113.4292">putPageText(Page, String): void</text><ellipse cx="17" cy="123.9258" fill="#84BE84" rx="3" ry="3" style="stroke: #038048; stroke-width: 1.0;"/><text fill="#000000" font-family="sans-serif" font-size="11" lengthAdjust="spacingAndGlyphs" textLength="167" x="26" y="126.2339">getPageInfo(String, int): Page</text><ellipse cx="17" cy="136.7305" fill="#84BE84" rx="3" ry="3" style="stroke: #038048; stroke-width: 1.0;"/><text fill="#000000" font-family="sans-serif" font-size="11" lengthAdjust="spacingAndGlyphs" textLength="179" x="26" y="139.0386">pageExists(String, int): boolean</text><ellipse cx="17" cy="149.5352" fill="#84BE84" rx="3" ry="3" style="stroke: #038048; stroke-width: 1.0;"/><text fill="#000000" font-family="sans-serif" font-size="11" lengthAdjust="spacingAndGlyphs" textLength="217" x="26" y="151.8433">getVersionHistory(String): List&lt;Page&gt;</text><ellipse cx="17" cy="162.3398" fill="#84BE84" rx="3" ry="3" style="stroke: #038048; stroke-width: 1.0;"/><text fill="#000000" font-family="sans-serif" font-size="11" lengthAdjust="spacingAndGlyphs" textLength="136" x="26" y="164.6479">deletePage(String): void</text><ellipse cx="17" cy="175.1445" fill="#84BE84" rx="3" ry="3" style="stroke: #038048; stroke-width: 1.0;"/><text fill="#000000" font-family="sans-serif" font-size="11" lengthAdjust="spacingAndGlyphs" textLength="173" x="26" y="177.4526">deleteVersion(String, int): void</text><ellipse cx="17" cy="187.9492" fill="#84BE84" rx="3" ry="3" style="stroke: #038048; stroke-width: 1.0;"/><text fill="#000000" font-family="sans-serif" font-size="11" lengthAdjust="spacingAndGlyphs" textLength="183" x="26" y="190.2573">getAllPages(): Collection&lt;Page&gt;</text><ellipse cx="17" cy="200.7539" fill="#84BE84" rx="3" ry="3" style="stroke: #038048; stroke-width: 1.0;"/><text fill="#000000" font-family="sans-serif" font-size="11" lengthAdjust="spacingAndGlyphs" textLength="136" x="26" y="203.062">getProviderInfo(): String</text><ellipse cx="17" cy="213.5586" fill="#84BE84" rx="3" ry="3" style="stroke: #038048; stroke-width: 1.0;"/><text fill="#000000" font-family="sans-serif" font-size="11" lengthAdjust="spacingAndGlyphs" textLength="174" x="26" y="215.8667">movePage(String, String): void</text></a><text fill="#888888" font-family="sans-serif" font-size="10" lengthAdjust="spacingAndGlyphs" textLength="186" x="40.5" y="241.2822">UMLDoclet 1.1.4, PlantUML 1.2019.05</text><!--
@startuml

    class VersioningFileProvider [[VersioningFileProvider.html]] {
        {static} +PAGEDIR: String
        {static} +PROPERTYFILE: String
        +initialize(Engine, Properties): void
        +getPageText(String, int): String
        +putPageText(Page, String): void
        +getPageInfo(String, int): Page
        +pageExists(String, int): boolean
        +getVersionHistory(String): List<Page>
        +deletePage(String): void
        +deleteVersion(String, int): void
        +getAllPages(): Collection<Page>
        +getProviderInfo(): String
        +movePage(String, String): void
    }


    center footer UMLDoclet 1.1.4, PlantUML 1.2019.05
@enduml

PlantUML version 1.2019.05(Sat Apr 20 16:45:36 UTC 2019)
(APACHE source distribution)
Java Runtime: OpenJDK Runtime Environment
JVM: OpenJDK 64-Bit Server VM
Java Version: 1.8.0_252-b09
Operating System: Linux
OS Version: 4.15.0-66-generic
Default Encoding: ISO-8859-1
Language: en
Country: US
--></g></svg>