<?xml version="1.0" encoding="UTF-8" standalone="no"?><svg xmlns="http://www.w3.org/2000/svg" xmlns:xlink="http://www.w3.org/1999/xlink" contentScriptType="application/ecmascript" contentStyleType="text/css" height="233px" preserveAspectRatio="none" style="width:524px;height:233px;background:#FFFFFF;" version="1.1" viewBox="0 0 524 233" width="524px" zoomAndPan="magnify"><defs><filter height="300%" id="f1o9dq6js5y5dx" width="300%" x="-1" y="-1"><feGaussianBlur result="blurOut" stdDeviation="2.0"/><feColorMatrix in="blurOut" result="blurOut2" type="matrix" values="0 0 0 0 0 0 0 0 0 0 0 0 0 0 0 0 0 0 .4 0"/><feOffset dx="4.0" dy="4.0" in="blurOut2" result="blurOut3"/><feBlend in="SourceGraphic" in2="blurOut3" mode="normal"/></filter></defs><g><!--MD5=[e385c4ac64efaf1cd7bd4f4c5abfc1c7]
cluster org.apache.wiki.its--><polygon fill="#FFFFFF" filter="url(#f1o9dq6js5y5dx)" points="16,6,171,6,178,28.2969,507,28.2969,507,210,16,210,16,6" style="stroke:#000000;stroke-width:1.5;"/><line style="stroke:#000000;stroke-width:1.5;" x1="16" x2="178" y1="28.2969" y2="28.2969"/><text fill="#000000" font-family="sans-serif" font-size="14" font-weight="bold" lengthAdjust="spacing" textLength="149" x="20" y="20.9951">org.apache.wiki.its</text><!--MD5=[3c7ab5035344b639fe78cd557d803009]
class org.apache.wiki.its.WithIntegrationTestSetup--><a href="WithIntegrationTestSetup.html" target="_top" title="WithIntegrationTestSetup.html" xlink:actuate="onRequest" xlink:href="WithIntegrationTestSetup.html" xlink:show="new" xlink:title="WithIntegrationTestSetup.html" xlink:type="simple"><rect codeLine="3" fill="#FEFECE" filter="url(#f1o9dq6js5y5dx)" height="60.8047" id="org.apache.wiki.its.WithIntegrationTestSetup" style="stroke:#A80036;stroke-width:1.5;" width="192" x="135" y="33"/><ellipse cx="150" cy="49" fill="#ADD1B2" rx="11" ry="11" style="stroke:#A80036;stroke-width:1.0;"/><path d="M152.9688,54.6406 Q152.3906,54.9375 151.75,55.0781 Q151.1094,55.2344 150.4063,55.2344 Q147.9063,55.2344 146.5781,53.5938 Q145.2656,51.9375 145.2656,48.8125 Q145.2656,45.6875 146.5781,44.0313 Q147.9063,42.375 150.4063,42.375 Q151.1094,42.375 151.75,42.5313 Q152.4063,42.6875 152.9688,42.9844 L152.9688,45.7031 Q152.3438,45.125 151.75,44.8594 Q151.1563,44.5781 150.5313,44.5781 Q149.1875,44.5781 148.5,45.6563 Q147.8125,46.7188 147.8125,48.8125 Q147.8125,50.9063 148.5,51.9844 Q149.1875,53.0469 150.5313,53.0469 Q151.1563,53.0469 151.75,52.7813 Q152.3438,52.5 152.9688,51.9219 L152.9688,54.6406 Z " fill="#000000"/><text fill="#000000" font-family="sans-serif" font-size="12" lengthAdjust="spacing" textLength="160" x="164" y="53.1543">WithIntegrationTestSetup</text><line style="stroke:#A80036;stroke-width:1.5;" x1="136" x2="326" y1="65" y2="65"/><line style="stroke:#A80036;stroke-width:1.5;" x1="136" x2="326" y1="73" y2="73"/><ellipse cx="146" cy="84" fill="#84BE84" rx="3" ry="3" style="stroke:#038048;stroke-width:1.0;"/><text fill="#000000" font-family="sans-serif" font-size="11" lengthAdjust="spacing" text-decoration="underline" textLength="72" x="155" y="87.2104">setUp(): void</text></a><!--MD5=[96a12772fc3ff570f24627a504b1bc64]
class org.apache.wiki.its.SearchIT--><a href="SearchIT.html" target="_top" title="SearchIT.html" xlink:actuate="onRequest" xlink:href="SearchIT.html" xlink:show="new" xlink:title="SearchIT.html" xlink:type="simple"><rect codeLine="7" fill="#FEFECE" filter="url(#f1o9dq6js5y5dx)" height="48" id="org.apache.wiki.its.SearchIT" style="stroke:#A80036;stroke-width:1.5;" width="86" x="24" y="154"/><ellipse cx="39" cy="170" fill="#ADD1B2" rx="11" ry="11" style="stroke:#A80036;stroke-width:1.0;"/><path d="M41.9688,175.6406 Q41.3906,175.9375 40.75,176.0781 Q40.1094,176.2344 39.4063,176.2344 Q36.9063,176.2344 35.5781,174.5938 Q34.2656,172.9375 34.2656,169.8125 Q34.2656,166.6875 35.5781,165.0313 Q36.9063,163.375 39.4063,163.375 Q40.1094,163.375 40.75,163.5313 Q41.4063,163.6875 41.9688,163.9844 L41.9688,166.7031 Q41.3438,166.125 40.75,165.8594 Q40.1563,165.5781 39.5313,165.5781 Q38.1875,165.5781 37.5,166.6563 Q36.8125,167.7188 36.8125,169.8125 Q36.8125,171.9063 37.5,172.9844 Q38.1875,174.0469 39.5313,174.0469 Q40.1563,174.0469 40.75,173.7813 Q41.3438,173.5 41.9688,172.9219 L41.9688,175.6406 Z " fill="#000000"/><text fill="#000000" font-family="sans-serif" font-size="12" lengthAdjust="spacing" textLength="54" x="53" y="174.1543">SearchIT</text><line style="stroke:#A80036;stroke-width:1.5;" x1="25" x2="109" y1="186" y2="186"/><line style="stroke:#A80036;stroke-width:1.5;" x1="25" x2="109" y1="194" y2="194"/></a><!--MD5=[d4d664769afa60747f9155074c89c8b6]
class org.apache.wiki.its.EditIT--><a href="EditIT.html" target="_top" title="EditIT.html" xlink:actuate="onRequest" xlink:href="EditIT.html" xlink:show="new" xlink:title="EditIT.html" xlink:type="simple"><rect codeLine="10" fill="#FEFECE" filter="url(#f1o9dq6js5y5dx)" height="48" id="org.apache.wiki.its.EditIT" style="stroke:#A80036;stroke-width:1.5;" width="66" x="145" y="154"/><ellipse cx="160" cy="170" fill="#ADD1B2" rx="11" ry="11" style="stroke:#A80036;stroke-width:1.0;"/><path d="M162.9688,175.6406 Q162.3906,175.9375 161.75,176.0781 Q161.1094,176.2344 160.4063,176.2344 Q157.9063,176.2344 156.5781,174.5938 Q155.2656,172.9375 155.2656,169.8125 Q155.2656,166.6875 156.5781,165.0313 Q157.9063,163.375 160.4063,163.375 Q161.1094,163.375 161.75,163.5313 Q162.4063,163.6875 162.9688,163.9844 L162.9688,166.7031 Q162.3438,166.125 161.75,165.8594 Q161.1563,165.5781 160.5313,165.5781 Q159.1875,165.5781 158.5,166.6563 Q157.8125,167.7188 157.8125,169.8125 Q157.8125,171.9063 158.5,172.9844 Q159.1875,174.0469 160.5313,174.0469 Q161.1563,174.0469 161.75,173.7813 Q162.3438,173.5 162.9688,172.9219 L162.9688,175.6406 Z " fill="#000000"/><text fill="#000000" font-family="sans-serif" font-size="12" lengthAdjust="spacing" textLength="34" x="174" y="174.1543">EditIT</text><line style="stroke:#A80036;stroke-width:1.5;" x1="146" x2="210" y1="186" y2="186"/><line style="stroke:#A80036;stroke-width:1.5;" x1="146" x2="210" y1="194" y2="194"/></a><!--MD5=[bad4b48a349e97ba1aee7cd87cab0492]
class org.apache.wiki.its.LoginIT--><a href="LoginIT.html" target="_top" title="LoginIT.html" xlink:actuate="onRequest" xlink:href="LoginIT.html" xlink:show="new" xlink:title="LoginIT.html" xlink:type="simple"><rect codeLine="13" fill="#FEFECE" filter="url(#f1o9dq6js5y5dx)" height="48" id="org.apache.wiki.its.LoginIT" style="stroke:#A80036;stroke-width:1.5;" width="75" x="246.5" y="154"/><ellipse cx="261.5" cy="170" fill="#ADD1B2" rx="11" ry="11" style="stroke:#A80036;stroke-width:1.0;"/><path d="M264.4688,175.6406 Q263.8906,175.9375 263.25,176.0781 Q262.6094,176.2344 261.9063,176.2344 Q259.4063,176.2344 258.0781,174.5938 Q256.7656,172.9375 256.7656,169.8125 Q256.7656,166.6875 258.0781,165.0313 Q259.4063,163.375 261.9063,163.375 Q262.6094,163.375 263.25,163.5313 Q263.9063,163.6875 264.4688,163.9844 L264.4688,166.7031 Q263.8438,166.125 263.25,165.8594 Q262.6563,165.5781 262.0313,165.5781 Q260.6875,165.5781 260,166.6563 Q259.3125,167.7188 259.3125,169.8125 Q259.3125,171.9063 260,172.9844 Q260.6875,174.0469 262.0313,174.0469 Q262.6563,174.0469 263.25,173.7813 Q263.8438,173.5 264.4688,172.9219 L264.4688,175.6406 Z " fill="#000000"/><text fill="#000000" font-family="sans-serif" font-size="12" lengthAdjust="spacing" textLength="43" x="275.5" y="174.1543">LoginIT</text><line style="stroke:#A80036;stroke-width:1.5;" x1="247.5" x2="320.5" y1="186" y2="186"/><line style="stroke:#A80036;stroke-width:1.5;" x1="247.5" x2="320.5" y1="194" y2="194"/></a><!--MD5=[c019967ff6c5a47948359e0516e6c2a9]
class org.apache.wiki.its.AnonymousViewIT--><a href="AnonymousViewIT.html" target="_top" title="AnonymousViewIT.html" xlink:actuate="onRequest" xlink:href="AnonymousViewIT.html" xlink:show="new" xlink:title="AnonymousViewIT.html" xlink:type="simple"><rect codeLine="16" fill="#FEFECE" filter="url(#f1o9dq6js5y5dx)" height="48" id="org.apache.wiki.its.AnonymousViewIT" style="stroke:#A80036;stroke-width:1.5;" width="142" x="357" y="154"/><ellipse cx="372" cy="170" fill="#ADD1B2" rx="11" ry="11" style="stroke:#A80036;stroke-width:1.0;"/><path d="M374.9688,175.6406 Q374.3906,175.9375 373.75,176.0781 Q373.1094,176.2344 372.4063,176.2344 Q369.9063,176.2344 368.5781,174.5938 Q367.2656,172.9375 367.2656,169.8125 Q367.2656,166.6875 368.5781,165.0313 Q369.9063,163.375 372.4063,163.375 Q373.1094,163.375 373.75,163.5313 Q374.4063,163.6875 374.9688,163.9844 L374.9688,166.7031 Q374.3438,166.125 373.75,165.8594 Q373.1563,165.5781 372.5313,165.5781 Q371.1875,165.5781 370.5,166.6563 Q369.8125,167.7188 369.8125,169.8125 Q369.8125,171.9063 370.5,172.9844 Q371.1875,174.0469 372.5313,174.0469 Q373.1563,174.0469 373.75,173.7813 Q374.3438,173.5 374.9688,172.9219 L374.9688,175.6406 Z " fill="#000000"/><text fill="#000000" font-family="sans-serif" font-size="12" lengthAdjust="spacing" textLength="110" x="386" y="174.1543">AnonymousViewIT</text><line style="stroke:#A80036;stroke-width:1.5;" x1="358" x2="498" y1="186" y2="186"/><line style="stroke:#A80036;stroke-width:1.5;" x1="358" x2="498" y1="194" y2="194"/></a><!--MD5=[618a8b14e39c6f2a22fd04a3305247ae]
reverse link org.apache.wiki.its.WithIntegrationTestSetup to org.apache.wiki.its.SearchIT--><path codeLine="19" d="M170.6362,105.6442 C147.32,121.9229 121.4903,139.9565 101.45,153.948 " fill="none" id="org.apache.wiki.its.WithIntegrationTestSetup-backto-org.apache.wiki.its.SearchIT" style="stroke:#A80036;stroke-width:1.0;"/><polygon fill="none" points="166.6451,99.8935,187.051,94.1839,174.6595,111.3726,166.6451,99.8935" style="stroke:#A80036;stroke-width:1.0;"/><!--MD5=[1dd3bbcdc508febf7fd1c0b68565ec6c]
reverse link org.apache.wiki.its.WithIntegrationTestSetup to org.apache.wiki.its.EditIT--><path codeLine="20" d="M208.1885,112.7814 C201.6215,126.9686 194.7463,141.8217 189.2187,153.7634 " fill="none" id="org.apache.wiki.its.WithIntegrationTestSetup-backto-org.apache.wiki.its.EditIT" style="stroke:#A80036;stroke-width:1.0;"/><polygon fill="none" points="202.0432,109.3933,216.797,94.1839,214.7481,115.2743,202.0432,109.3933" style="stroke:#A80036;stroke-width:1.0;"/><!--MD5=[3b34439046f78d85f2803f7036786dec]
reverse link org.apache.wiki.its.WithIntegrationTestSetup to org.apache.wiki.its.LoginIT--><path codeLine="21" d="M253.8115,112.7814 C260.3785,126.9686 267.2537,141.8217 272.7813,153.7634 " fill="none" id="org.apache.wiki.its.WithIntegrationTestSetup-backto-org.apache.wiki.its.LoginIT" style="stroke:#A80036;stroke-width:1.0;"/><polygon fill="none" points="247.2519,115.2743,245.203,94.1839,259.9568,109.3933,247.2519,115.2743" style="stroke:#A80036;stroke-width:1.0;"/><!--MD5=[6d6b5089fdce13fc42e1d63163e08421]
reverse link org.apache.wiki.its.WithIntegrationTestSetup to org.apache.wiki.its.AnonymousViewIT--><path codeLine="22" d="M301.2254,104.3163 C329.7789,120.9121 361.7958,139.5209 386.5105,153.8855 " fill="none" id="org.apache.wiki.its.WithIntegrationTestSetup-backto-org.apache.wiki.its.AnonymousViewIT" style="stroke:#A80036;stroke-width:1.0;"/><polygon fill="none" points="297.3075,110.1357,283.5336,94.0335,304.3426,98.0316,297.3075,110.1357" style="stroke:#A80036;stroke-width:1.0;"/><text fill="#888888" font-family="sans-serif" font-size="10" lengthAdjust="spacing" textLength="192" x="159.5" y="225.2822">UMLDoclet 2.0.15, PlantUML 1.2021.13</text><!--MD5=[62ec2e1f9a6b30630cf2d066ba436e62]
@startuml
    namespace org.apache.wiki.its {

        class WithIntegrationTestSetup [[WithIntegrationTestSetup.html]] {
            {static} +setUp(): void
        }

        class SearchIT [[SearchIT.html]] {
        }

        class EditIT [[EditIT.html]] {
        }

        class LoginIT [[LoginIT.html]] {
        }

        class AnonymousViewIT [[AnonymousViewIT.html]] {
        }

        WithIntegrationTestSetup <|- - SearchIT
        WithIntegrationTestSetup <|- - EditIT
        WithIntegrationTestSetup <|- - LoginIT
        WithIntegrationTestSetup <|- - AnonymousViewIT
    }

    center footer UMLDoclet 2.0.15, PlantUML 1.2021.13
@enduml

PlantUML version 1.2021.13(Mon Nov 01 11:38:45 UTC 2021)
(APACHE source distribution)
Java Runtime: Java(TM) SE Runtime Environment
JVM: Java HotSpot(TM) 64-Bit Server VM
Default Encoding: ISO-8859-1
Language: en
Country: US
--></g></svg>