<?xml version="1.0" encoding="UTF-8" standalone="no"?><svg xmlns="http://www.w3.org/2000/svg" xmlns:xlink="http://www.w3.org/1999/xlink" contentScriptType="application/ecmascript" contentStyleType="text/css" height="834px" preserveAspectRatio="none" style="width:848px;height:834px;" version="1.1" viewBox="0 0 848 834" width="848px" zoomAndPan="magnify"><defs><filter height="300%" id="f3y4p5630kq4g" width="300%" x="-1" y="-1"><feGaussianBlur result="blurOut" stdDeviation="2.0"/><feColorMatrix in="blurOut" result="blurOut2" type="matrix" values="0 0 0 0 0 0 0 0 0 0 0 0 0 0 0 0 0 0 .4 0"/><feOffset dx="4.0" dy="4.0" in="blurOut2" result="blurOut3"/><feBlend in="SourceGraphic" in2="blurOut3" mode="normal"/></filter></defs><g><!--cluster org.apache.wiki.xmlrpc--><polygon fill="#FFFFFF" filter="url(#f3y4p5630kq4g)" points="14,124,203,124,210,146.2969,826,146.2969,826,794,14,794,14,124" style="stroke: #000000; stroke-width: 1.5;"/><line style="stroke: #000000; stroke-width: 1.5;" x1="14" x2="210" y1="146.2969" y2="146.2969"/><text fill="#000000" font-family="sans-serif" font-size="14" font-weight="bold" lengthAdjust="spacingAndGlyphs" textLength="183" x="18" y="138.9951">org.apache.wiki.xmlrpc</text><!--cluster javax.servlet.http--><polygon fill="#FFFFFF" filter="url(#f3y4p5630kq4g)" points="148,16,291,16,298,38.2969,301,38.2969,301,99,148,99,148,16" style="stroke: #000000; stroke-width: 1.5;"/><line style="stroke: #000000; stroke-width: 1.5;" x1="148" x2="298" y1="38.2969" y2="38.2969"/><text fill="#000000" font-family="sans-serif" font-size="14" font-weight="bold" lengthAdjust="spacingAndGlyphs" textLength="137" x="152" y="30.9951">javax.servlet.http</text><!--class org.apache.wiki.xmlrpc.RPCHandler--><a href="RPCHandler.html" target="_top" xlink:actuate="onRequest" xlink:show="new" xlink:title="RPCHandler.html" xlink:type="simple"><rect fill="#FEFECE" filter="url(#f3y4p5630kq4g)" height="188.8516" id="org.apache.wiki.xmlrpc.RPCHandler" style="stroke: #A80036; stroke-width: 1.5;" width="381" x="21.5" y="597"/><ellipse cx="171.25" cy="613" fill="#ADD1B2" rx="11" ry="11" style="stroke: #A80036; stroke-width: 1.0;"/><path d="M174.2188,618.6406 Q173.6406,618.9375 173,619.0859 Q172.3594,619.2344 171.6563,619.2344 Q169.1563,619.2344 167.8359,617.5859 Q166.5156,615.9375 166.5156,612.8125 Q166.5156,609.6875 167.8359,608.0313 Q169.1563,606.375 171.6563,606.375 Q172.3594,606.375 173.0078,606.5313 Q173.6563,606.6875 174.2188,606.9844 L174.2188,609.7031 Q173.5938,609.125 173,608.8516 Q172.4063,608.5781 171.7813,608.5781 Q170.4375,608.5781 169.75,609.6484 Q169.0625,610.7188 169.0625,612.8125 Q169.0625,614.9063 169.75,615.9766 Q170.4375,617.0469 171.7813,617.0469 Q172.4063,617.0469 173,616.7734 Q173.5938,616.5 174.2188,615.9219 L174.2188,618.6406 Z "/><text fill="#000000" font-family="sans-serif" font-size="12" lengthAdjust="spacingAndGlyphs" textLength="73" x="191.75" y="617.1543">RPCHandler</text><line style="stroke: #A80036; stroke-width: 1.5;" x1="22.5" x2="401.5" y1="629" y2="629"/><line style="stroke: #A80036; stroke-width: 1.5;" x1="22.5" x2="401.5" y1="637" y2="637"/><ellipse cx="32.5" cy="648.9023" fill="#84BE84" rx="3" ry="3" style="stroke: #038048; stroke-width: 1.0;"/><text fill="#000000" font-family="sans-serif" font-size="11" lengthAdjust="spacingAndGlyphs" textLength="162" x="41.5" y="651.2104">getApplicationName(): String</text><ellipse cx="32.5" cy="661.707" fill="#84BE84" rx="3" ry="3" style="stroke: #038048; stroke-width: 1.0;"/><text fill="#000000" font-family="sans-serif" font-size="11" lengthAdjust="spacingAndGlyphs" textLength="170" x="41.5" y="664.0151">getAllPages(): Vector&lt;String&gt;</text><polygon fill="#FFFF44" points="32.5,669.5117,36.5,673.5117,32.5,677.5117,28.5,673.5117" style="stroke: #B38D22; stroke-width: 1.0;"/><text fill="#000000" font-family="sans-serif" font-size="11" lengthAdjust="spacingAndGlyphs" textLength="308" x="41.5" y="676.8198">encodeWikiPage(WikiPage): Hashtable&lt;String, Object&gt;</text><ellipse cx="32.5" cy="687.3164" fill="#84BE84" rx="3" ry="3" style="stroke: #038048; stroke-width: 1.0;"/><text fill="#000000" font-family="sans-serif" font-size="11" lengthAdjust="spacingAndGlyphs" textLength="355" x="41.5" y="689.6245">getRecentChanges(Date): Vector&lt;Hashtable&lt;String, Object&gt;&gt;</text><ellipse cx="32.5" cy="700.1211" fill="#84BE84" rx="3" ry="3" style="stroke: #038048; stroke-width: 1.0;"/><text fill="#000000" font-family="sans-serif" font-size="11" lengthAdjust="spacingAndGlyphs" textLength="174" x="41.5" y="702.4292">getPageInfo(String): Hashtable</text><ellipse cx="32.5" cy="712.9258" fill="#84BE84" rx="3" ry="3" style="stroke: #038048; stroke-width: 1.0;"/><text fill="#000000" font-family="sans-serif" font-size="11" lengthAdjust="spacingAndGlyphs" textLength="239" x="41.5" y="715.2339">getPageInfoVersion(String, int): Hashtable</text><ellipse cx="32.5" cy="725.7305" fill="#84BE84" rx="3" ry="3" style="stroke: #038048; stroke-width: 1.0;"/><text fill="#000000" font-family="sans-serif" font-size="11" lengthAdjust="spacingAndGlyphs" textLength="128" x="41.5" y="728.0386">getPage(String): byte[]</text><ellipse cx="32.5" cy="738.5352" fill="#84BE84" rx="3" ry="3" style="stroke: #038048; stroke-width: 1.0;"/><text fill="#000000" font-family="sans-serif" font-size="11" lengthAdjust="spacingAndGlyphs" textLength="193" x="41.5" y="740.8433">getPageVersion(String, int): byte[]</text><ellipse cx="32.5" cy="751.3398" fill="#84BE84" rx="3" ry="3" style="stroke: #038048; stroke-width: 1.0;"/><text fill="#000000" font-family="sans-serif" font-size="11" lengthAdjust="spacingAndGlyphs" textLength="158" x="41.5" y="753.6479">getPageHTML(String): byte[]</text><ellipse cx="32.5" cy="764.1445" fill="#84BE84" rx="3" ry="3" style="stroke: #038048; stroke-width: 1.0;"/><text fill="#000000" font-family="sans-serif" font-size="11" lengthAdjust="spacingAndGlyphs" textLength="223" x="41.5" y="766.4526">getPageHTMLVersion(String, int): byte[]</text><ellipse cx="32.5" cy="776.9492" fill="#84BE84" rx="3" ry="3" style="stroke: #038048; stroke-width: 1.0;"/><text fill="#000000" font-family="sans-serif" font-size="11" lengthAdjust="spacingAndGlyphs" textLength="301" x="41.5" y="779.2573">listLinks(String): Vector&lt;Hashtable&lt;String, String&gt;&gt;</text></a><!--class org.apache.wiki.xmlrpc.RPCHandlerUTF8--><a href="RPCHandlerUTF8.html" target="_top" xlink:actuate="onRequest" xlink:show="new" xlink:title="RPCHandlerUTF8.html" xlink:type="simple"><rect fill="#FEFECE" filter="url(#f3y4p5630kq4g)" height="188.8516" id="org.apache.wiki.xmlrpc.RPCHandlerUTF8" style="stroke: #A80036; stroke-width: 1.5;" width="381" x="437.5" y="597"/><ellipse cx="571.75" cy="613" fill="#ADD1B2" rx="11" ry="11" style="stroke: #A80036; stroke-width: 1.0;"/><path d="M574.7188,618.6406 Q574.1406,618.9375 573.5,619.0859 Q572.8594,619.2344 572.1563,619.2344 Q569.6563,619.2344 568.3359,617.5859 Q567.0156,615.9375 567.0156,612.8125 Q567.0156,609.6875 568.3359,608.0313 Q569.6563,606.375 572.1563,606.375 Q572.8594,606.375 573.5078,606.5313 Q574.1563,606.6875 574.7188,606.9844 L574.7188,609.7031 Q574.0938,609.125 573.5,608.8516 Q572.9063,608.5781 572.2813,608.5781 Q570.9375,608.5781 570.25,609.6484 Q569.5625,610.7188 569.5625,612.8125 Q569.5625,614.9063 570.25,615.9766 Q570.9375,617.0469 572.2813,617.0469 Q572.9063,617.0469 573.5,616.7734 Q574.0938,616.5 574.7188,615.9219 L574.7188,618.6406 Z "/><text fill="#000000" font-family="sans-serif" font-size="12" lengthAdjust="spacingAndGlyphs" textLength="104" x="592.25" y="617.1543">RPCHandlerUTF8</text><line style="stroke: #A80036; stroke-width: 1.5;" x1="438.5" x2="817.5" y1="629" y2="629"/><line style="stroke: #A80036; stroke-width: 1.5;" x1="438.5" x2="817.5" y1="637" y2="637"/><ellipse cx="448.5" cy="648.9023" fill="#84BE84" rx="3" ry="3" style="stroke: #038048; stroke-width: 1.0;"/><text fill="#000000" font-family="sans-serif" font-size="11" lengthAdjust="spacingAndGlyphs" textLength="162" x="457.5" y="651.2104">getApplicationName(): String</text><ellipse cx="448.5" cy="661.707" fill="#84BE84" rx="3" ry="3" style="stroke: #038048; stroke-width: 1.0;"/><text fill="#000000" font-family="sans-serif" font-size="11" lengthAdjust="spacingAndGlyphs" textLength="170" x="457.5" y="664.0151">getAllPages(): Vector&lt;String&gt;</text><polygon fill="#FFFF44" points="448.5,669.5117,452.5,673.5117,448.5,677.5117,444.5,673.5117" style="stroke: #B38D22; stroke-width: 1.0;"/><text fill="#000000" font-family="sans-serif" font-size="11" lengthAdjust="spacingAndGlyphs" textLength="308" x="457.5" y="676.8198">encodeWikiPage(WikiPage): Hashtable&lt;String, Object&gt;</text><ellipse cx="448.5" cy="687.3164" fill="#84BE84" rx="3" ry="3" style="stroke: #038048; stroke-width: 1.0;"/><text fill="#000000" font-family="sans-serif" font-size="11" lengthAdjust="spacingAndGlyphs" textLength="355" x="457.5" y="689.6245">getRecentChanges(Date): Vector&lt;Hashtable&lt;String, Object&gt;&gt;</text><ellipse cx="448.5" cy="700.1211" fill="#84BE84" rx="3" ry="3" style="stroke: #038048; stroke-width: 1.0;"/><text fill="#000000" font-family="sans-serif" font-size="11" lengthAdjust="spacingAndGlyphs" textLength="270" x="457.5" y="702.4292">getPageInfo(String): Hashtable&lt;String, Object&gt;</text><ellipse cx="448.5" cy="712.9258" fill="#84BE84" rx="3" ry="3" style="stroke: #038048; stroke-width: 1.0;"/><text fill="#000000" font-family="sans-serif" font-size="11" lengthAdjust="spacingAndGlyphs" textLength="335" x="457.5" y="715.2339">getPageInfoVersion(String, int): Hashtable&lt;String, Object&gt;</text><ellipse cx="448.5" cy="725.7305" fill="#84BE84" rx="3" ry="3" style="stroke: #038048; stroke-width: 1.0;"/><text fill="#000000" font-family="sans-serif" font-size="11" lengthAdjust="spacingAndGlyphs" textLength="130" x="457.5" y="728.0386">getPage(String): String</text><ellipse cx="448.5" cy="738.5352" fill="#84BE84" rx="3" ry="3" style="stroke: #038048; stroke-width: 1.0;"/><text fill="#000000" font-family="sans-serif" font-size="11" lengthAdjust="spacingAndGlyphs" textLength="195" x="457.5" y="740.8433">getPageVersion(String, int): String</text><ellipse cx="448.5" cy="751.3398" fill="#84BE84" rx="3" ry="3" style="stroke: #038048; stroke-width: 1.0;"/><text fill="#000000" font-family="sans-serif" font-size="11" lengthAdjust="spacingAndGlyphs" textLength="160" x="457.5" y="753.6479">getPageHTML(String): String</text><ellipse cx="448.5" cy="764.1445" fill="#84BE84" rx="3" ry="3" style="stroke: #038048; stroke-width: 1.0;"/><text fill="#000000" font-family="sans-serif" font-size="11" lengthAdjust="spacingAndGlyphs" textLength="225" x="457.5" y="766.4526">getPageHTMLVersion(String, int): String</text><ellipse cx="448.5" cy="776.9492" fill="#84BE84" rx="3" ry="3" style="stroke: #038048; stroke-width: 1.0;"/><text fill="#000000" font-family="sans-serif" font-size="11" lengthAdjust="spacingAndGlyphs" textLength="301" x="457.5" y="779.2573">listLinks(String): Vector&lt;Hashtable&lt;String, String&gt;&gt;</text></a><!--class org.apache.wiki.xmlrpc.WikiRPCHandler--><a href="WikiRPCHandler.html" target="_top" xlink:actuate="onRequest" xlink:show="new" xlink:title="WikiRPCHandler.html" xlink:type="simple"><rect fill="#FEFECE" filter="url(#f3y4p5630kq4g)" height="60.8047" id="org.apache.wiki.xmlrpc.WikiRPCHandler" style="stroke: #A80036; stroke-width: 1.5;" width="179" x="445.5" y="176.5"/><ellipse cx="483" cy="192.5" fill="#B4A7E5" rx="11" ry="11" style="stroke: #A80036; stroke-width: 1.0;"/><path d="M478.9219,188.2656 L478.9219,186.1094 L486.3125,186.1094 L486.3125,188.2656 L483.8438,188.2656 L483.8438,196.3438 L486.3125,196.3438 L486.3125,198.5 L478.9219,198.5 L478.9219,196.3438 L481.3906,196.3438 L481.3906,188.2656 L478.9219,188.2656 Z "/><text fill="#000000" font-family="sans-serif" font-size="12" font-style="italic" lengthAdjust="spacingAndGlyphs" textLength="97" x="502" y="196.6543">WikiRPCHandler</text><line style="stroke: #A80036; stroke-width: 1.5;" x1="446.5" x2="623.5" y1="208.5" y2="208.5"/><line style="stroke: #A80036; stroke-width: 1.5;" x1="446.5" x2="623.5" y1="216.5" y2="216.5"/><ellipse cx="456.5" cy="228.4023" fill="#84BE84" rx="3" ry="3" style="stroke: #038048; stroke-width: 1.0;"/><text fill="#000000" font-family="sans-serif" font-size="11" font-style="italic" lengthAdjust="spacingAndGlyphs" textLength="153" x="465.5" y="230.7104">initialize(WikiContext): void</text></a><!--class org.apache.wiki.xmlrpc.MetaWeblogHandler--><a href="MetaWeblogHandler.html" target="_top" xlink:actuate="onRequest" xlink:show="new" xlink:title="MetaWeblogHandler.html" xlink:type="simple"><rect fill="#FEFECE" filter="url(#f3y4p5630kq4g)" height="112.0234" id="org.apache.wiki.xmlrpc.MetaWeblogHandler" style="stroke: #A80036; stroke-width: 1.5;" width="374" x="60" y="374"/><ellipse cx="179.75" cy="390" fill="#ADD1B2" rx="11" ry="11" style="stroke: #A80036; stroke-width: 1.0;"/><path d="M182.7188,395.6406 Q182.1406,395.9375 181.5,396.0859 Q180.8594,396.2344 180.1563,396.2344 Q177.6563,396.2344 176.3359,394.5859 Q175.0156,392.9375 175.0156,389.8125 Q175.0156,386.6875 176.3359,385.0313 Q177.6563,383.375 180.1563,383.375 Q180.8594,383.375 181.5078,383.5313 Q182.1563,383.6875 182.7188,383.9844 L182.7188,386.7031 Q182.0938,386.125 181.5,385.8516 Q180.9063,385.5781 180.2813,385.5781 Q178.9375,385.5781 178.25,386.6484 Q177.5625,387.7188 177.5625,389.8125 Q177.5625,391.9063 178.25,392.9766 Q178.9375,394.0469 180.2813,394.0469 Q180.9063,394.0469 181.5,393.7734 Q182.0938,393.5 182.7188,392.9219 L182.7188,395.6406 Z "/><text fill="#000000" font-family="sans-serif" font-size="12" lengthAdjust="spacingAndGlyphs" textLength="126" x="200.25" y="394.1543">MetaWeblogHandler</text><line style="stroke: #A80036; stroke-width: 1.5;" x1="61" x2="433" y1="406" y2="406"/><line style="stroke: #A80036; stroke-width: 1.5;" x1="61" x2="433" y1="414" y2="414"/><ellipse cx="71" cy="425.9023" fill="#84BE84" rx="3" ry="3" style="stroke: #038048; stroke-width: 1.0;"/><text fill="#000000" font-family="sans-serif" font-size="11" lengthAdjust="spacingAndGlyphs" textLength="148" x="80" y="428.2104">initialize(WikiContext): void</text><ellipse cx="71" cy="438.707" fill="#84BE84" rx="3" ry="3" style="stroke: #038048; stroke-width: 1.0;"/><text fill="#000000" font-family="sans-serif" font-size="11" lengthAdjust="spacingAndGlyphs" textLength="271" x="80" y="441.0151">getCategories(String, String, String): Hashtable</text><ellipse cx="71" cy="451.5117" fill="#84BE84" rx="3" ry="3" style="stroke: #038048; stroke-width: 1.0;"/><text fill="#000000" font-family="sans-serif" font-size="11" lengthAdjust="spacingAndGlyphs" textLength="301" x="80" y="453.8198">getRecentPosts(String, String, String, int): Hashtable</text><ellipse cx="71" cy="464.3164" fill="#84BE84" rx="3" ry="3" style="stroke: #038048; stroke-width: 1.0;"/><text fill="#000000" font-family="sans-serif" font-size="11" lengthAdjust="spacingAndGlyphs" textLength="334" x="80" y="466.6245">newPost(String, String, String, Hashtable, boolean): String</text><ellipse cx="71" cy="477.1211" fill="#84BE84" rx="3" ry="3" style="stroke: #038048; stroke-width: 1.0;"/><text fill="#000000" font-family="sans-serif" font-size="11" lengthAdjust="spacingAndGlyphs" textLength="348" x="80" y="479.4292">newMediaObject(String, String, String, Hashtable): Hashtable</text></a><!--class org.apache.wiki.xmlrpc.RPCServlet--><a href="RPCServlet.html" target="_top" xlink:actuate="onRequest" xlink:show="new" xlink:title="RPCServlet.html" xlink:type="simple"><rect fill="#FEFECE" filter="url(#f3y4p5630kq4g)" height="112.0234" id="org.apache.wiki.xmlrpc.RPCServlet" style="stroke: #A80036; stroke-width: 1.5;" width="340" x="54" y="151"/><ellipse cx="186.25" cy="167" fill="#ADD1B2" rx="11" ry="11" style="stroke: #A80036; stroke-width: 1.0;"/><path d="M189.2188,172.6406 Q188.6406,172.9375 188,173.0859 Q187.3594,173.2344 186.6563,173.2344 Q184.1563,173.2344 182.8359,171.5859 Q181.5156,169.9375 181.5156,166.8125 Q181.5156,163.6875 182.8359,162.0313 Q184.1563,160.375 186.6563,160.375 Q187.3594,160.375 188.0078,160.5313 Q188.6563,160.6875 189.2188,160.9844 L189.2188,163.7031 Q188.5938,163.125 188,162.8516 Q187.4063,162.5781 186.7813,162.5781 Q185.4375,162.5781 184.75,163.6484 Q184.0625,164.7188 184.0625,166.8125 Q184.0625,168.9063 184.75,169.9766 Q185.4375,171.0469 186.7813,171.0469 Q187.4063,171.0469 188,170.7734 Q188.5938,170.5 189.2188,169.9219 L189.2188,172.6406 Z "/><text fill="#000000" font-family="sans-serif" font-size="12" lengthAdjust="spacingAndGlyphs" textLength="67" x="206.75" y="171.1543">RPCServlet</text><line style="stroke: #A80036; stroke-width: 1.5;" x1="55" x2="393" y1="183" y2="183"/><ellipse cx="65" cy="194.9023" fill="none" rx="3" ry="3" style="stroke: #038048; stroke-width: 1.0;"/><text fill="#000000" font-family="sans-serif" font-size="11" lengthAdjust="spacingAndGlyphs" text-decoration="underline" textLength="129" x="74" y="197.2104">XMLRPC_PREFIX: String</text><line style="stroke: #A80036; stroke-width: 1.5;" x1="55" x2="393" y1="203.8047" y2="203.8047"/><ellipse cx="65" cy="215.707" fill="#84BE84" rx="3" ry="3" style="stroke: #038048; stroke-width: 1.0;"/><text fill="#000000" font-family="sans-serif" font-size="11" lengthAdjust="spacingAndGlyphs" textLength="176" x="74" y="218.0151">initHandler(String, String): void</text><ellipse cx="65" cy="228.5117" fill="#84BE84" rx="3" ry="3" style="stroke: #038048; stroke-width: 1.0;"/><text fill="#000000" font-family="sans-serif" font-size="11" lengthAdjust="spacingAndGlyphs" textLength="132" x="74" y="230.8198">init(ServletConfig): void</text><ellipse cx="65" cy="241.3164" fill="#84BE84" rx="3" ry="3" style="stroke: #038048; stroke-width: 1.0;"/><text fill="#000000" font-family="sans-serif" font-size="11" lengthAdjust="spacingAndGlyphs" textLength="314" x="74" y="243.6245">doPost(HttpServletRequest, HttpServletResponse): void</text><ellipse cx="65" cy="254.1211" fill="#84BE84" rx="3" ry="3" style="stroke: #038048; stroke-width: 1.0;"/><text fill="#000000" font-family="sans-serif" font-size="11" lengthAdjust="spacingAndGlyphs" textLength="309" x="74" y="256.4292">doGet(HttpServletRequest, HttpServletResponse): void</text></a><!--class org.apache.wiki.xmlrpc.AbstractRPCHandler--><a href="AbstractRPCHandler.html" target="_top" xlink:actuate="onRequest" xlink:show="new" xlink:title="AbstractRPCHandler.html" xlink:type="simple"><rect fill="#FEFECE" filter="url(#f3y4p5630kq4g)" height="214.4609" id="org.apache.wiki.xmlrpc.AbstractRPCHandler" style="stroke: #A80036; stroke-width: 1.5;" width="241" x="468.5" y="323"/><ellipse cx="522.75" cy="339" fill="#A9DCDF" rx="11" ry="11" style="stroke: #A80036; stroke-width: 1.0;"/><path d="M522.8594,334.3438 L521.7031,339.4219 L524.0313,339.4219 L522.8594,334.3438 Z M521.375,332.1094 L524.3594,332.1094 L527.7188,344.5 L525.2656,344.5 L524.5,341.4375 L521.2188,341.4375 L520.4688,344.5 L518.0313,344.5 L521.375,332.1094 Z "/><text fill="#000000" font-family="sans-serif" font-size="12" font-style="italic" lengthAdjust="spacingAndGlyphs" textLength="124" x="543.25" y="343.1543">AbstractRPCHandler</text><line style="stroke: #A80036; stroke-width: 1.5;" x1="469.5" x2="708.5" y1="355" y2="355"/><ellipse cx="479.5" cy="366.9023" fill="none" rx="3" ry="3" style="stroke: #038048; stroke-width: 1.0;"/><text fill="#000000" font-family="sans-serif" font-size="11" lengthAdjust="spacingAndGlyphs" text-decoration="underline" textLength="96" x="488.5" y="369.2104">ERR_NOPAGE: int</text><ellipse cx="479.5" cy="379.707" fill="none" rx="3" ry="3" style="stroke: #038048; stroke-width: 1.0;"/><text fill="#000000" font-family="sans-serif" font-size="11" lengthAdjust="spacingAndGlyphs" text-decoration="underline" textLength="135" x="488.5" y="382.0151">ERR_NOPERMISSION: int</text><ellipse cx="479.5" cy="392.5117" fill="none" rx="3" ry="3" style="stroke: #038048; stroke-width: 1.0;"/><text fill="#000000" font-family="sans-serif" font-size="11" lengthAdjust="spacingAndGlyphs" text-decoration="underline" textLength="108" x="488.5" y="394.8198">LINK_LOCAL: String</text><ellipse cx="479.5" cy="405.3164" fill="none" rx="3" ry="3" style="stroke: #038048; stroke-width: 1.0;"/><text fill="#000000" font-family="sans-serif" font-size="11" lengthAdjust="spacingAndGlyphs" text-decoration="underline" textLength="128" x="488.5" y="407.6245">LINK_EXTERNAL: String</text><ellipse cx="479.5" cy="418.1211" fill="none" rx="3" ry="3" style="stroke: #038048; stroke-width: 1.0;"/><text fill="#000000" font-family="sans-serif" font-size="11" lengthAdjust="spacingAndGlyphs" text-decoration="underline" textLength="107" x="488.5" y="420.4292">LINK_INLINE: String</text><ellipse cx="479.5" cy="430.9258" fill="none" rx="3" ry="3" style="stroke: #038048; stroke-width: 1.0;"/><text fill="#000000" font-family="sans-serif" font-size="11" lengthAdjust="spacingAndGlyphs" text-decoration="underline" textLength="99" x="488.5" y="433.2339">RPC_VERSION: int</text><polygon fill="none" points="479.5,438.7305,483.5,442.7305,479.5,446.7305,475.5,442.7305" style="stroke: #B38D22; stroke-width: 1.0;"/><text fill="#000000" font-family="sans-serif" font-size="11" lengthAdjust="spacingAndGlyphs" textLength="122" x="488.5" y="446.0386">m_engine: WikiEngine</text><polygon fill="none" points="479.5,451.5352,483.5,455.5352,479.5,459.5352,475.5,455.5352" style="stroke: #B38D22; stroke-width: 1.0;"/><text fill="#000000" font-family="sans-serif" font-size="11" lengthAdjust="spacingAndGlyphs" textLength="130" x="488.5" y="458.8433">m_context: WikiContext</text><line style="stroke: #A80036; stroke-width: 1.5;" x1="469.5" x2="708.5" y1="465.4375" y2="465.4375"/><ellipse cx="479.5" cy="477.3398" fill="#84BE84" rx="3" ry="3" style="stroke: #038048; stroke-width: 1.0;"/><text fill="#000000" font-family="sans-serif" font-size="11" lengthAdjust="spacingAndGlyphs" textLength="148" x="488.5" y="479.6479">initialize(WikiContext): void</text><ellipse cx="479.5" cy="490.1445" fill="#84BE84" rx="3" ry="3" style="stroke: #038048; stroke-width: 1.0;"/><text fill="#000000" font-family="sans-serif" font-size="11" lengthAdjust="spacingAndGlyphs" textLength="184" x="488.5" y="492.4526">getRecentChanges(Date): Vector</text><polygon fill="#FFFF44" points="479.5,497.9492,483.5,501.9492,479.5,505.9492,475.5,501.9492" style="stroke: #B38D22; stroke-width: 1.0;"/><text fill="#000000" font-family="sans-serif" font-size="11" lengthAdjust="spacingAndGlyphs" textLength="199" x="488.5" y="505.2573">checkPermission(Permission): void</text><ellipse cx="479.5" cy="515.7539" fill="#84BE84" rx="3" ry="3" style="stroke: #038048; stroke-width: 1.0;"/><text fill="#000000" font-family="sans-serif" font-size="11" lengthAdjust="spacingAndGlyphs" textLength="172" x="488.5" y="518.062">getRPCVersionSupported(): int</text><polygon fill="#FFFF44" points="479.5,523.5586,483.5,527.5586,479.5,531.5586,475.5,527.5586" style="stroke: #B38D22; stroke-width: 1.0;"/><text fill="#000000" font-family="sans-serif" font-size="11" font-style="italic" lengthAdjust="spacingAndGlyphs" textLength="215" x="488.5" y="530.8667">encodeWikiPage(WikiPage): Hashtable</text></a><!--class javax.servlet.http.HttpServlet--><rect fill="#FEFECE" filter="url(#f3y4p5630kq4g)" height="48" id="javax.servlet.http.HttpServlet" style="stroke: #A80036; stroke-width: 1.5;" width="102" x="173" y="43"/><ellipse cx="188" cy="59" fill="#A9DCDF" rx="11" ry="11" style="stroke: #A80036; stroke-width: 1.0;"/><path d="M188.1094,54.3438 L186.9531,59.4219 L189.2813,59.4219 L188.1094,54.3438 Z M186.625,52.1094 L189.6094,52.1094 L192.9688,64.5 L190.5156,64.5 L189.75,61.4375 L186.4688,61.4375 L185.7188,64.5 L183.2813,64.5 L186.625,52.1094 Z "/><text fill="#000000" font-family="sans-serif" font-size="12" font-style="italic" lengthAdjust="spacingAndGlyphs" textLength="70" x="202" y="63.1543">HttpServlet</text><line style="stroke: #A80036; stroke-width: 1.5;" x1="174" x2="274" y1="75" y2="75"/><line style="stroke: #A80036; stroke-width: 1.5;" x1="174" x2="274" y1="83" y2="83"/><!--link org.apache.wiki.xmlrpc.AbstractRPCHandler to org.apache.wiki.xmlrpc.RPCHandler--><path d="M451.8005,536.432 C451.5335,536.6216 451.2666,536.811 451,537 C422.8862,556.9311 392.3501,577.4706 362.7987,596.8074 " fill="none" id="org.apache.wiki.xmlrpc.AbstractRPCHandler-org.apache.wiki.xmlrpc.RPCHandler" style="stroke: #A80036; stroke-width: 1.0;"/><polygon fill="none" points="447.9633,530.5687,468.2779,524.5422,456.1554,541.9217,447.9633,530.5687" style="stroke: #A80036; stroke-width: 1.0;"/><!--link org.apache.wiki.xmlrpc.AbstractRPCHandler to org.apache.wiki.xmlrpc.RPCHandlerUTF8--><path d="M607.9703,557.1981 C609.9544,570.502 611.9459,583.8549 613.8624,596.7054 " fill="none" id="org.apache.wiki.xmlrpc.AbstractRPCHandler-org.apache.wiki.xmlrpc.RPCHandlerUTF8" style="stroke: #A80036; stroke-width: 1.0;"/><polygon fill="none" points="601.0021,557.9304,604.9753,537.1166,614.849,555.8652,601.0021,557.9304" style="stroke: #A80036; stroke-width: 1.0;"/><!--link org.apache.wiki.xmlrpc.WikiRPCHandler to org.apache.wiki.xmlrpc.MetaWeblogHandler--><path d="M479.7158,249.8069 C434.1555,285.0845 369.183,335.393 319.4632,373.8913 " fill="none" id="org.apache.wiki.xmlrpc.WikiRPCHandler-org.apache.wiki.xmlrpc.MetaWeblogHandler" style="stroke: #A80036; stroke-width: 1.0; stroke-dasharray: 7.0,7.0;"/><polygon fill="none" points="475.4594,244.2495,495.5587,237.5396,484.0307,255.319,475.4594,244.2495" style="stroke: #A80036; stroke-width: 1.0;"/><!--link javax.servlet.http.HttpServlet to org.apache.wiki.xmlrpc.RPCServlet--><path d="M224,111.2115 C224,123.7476 224,137.5665 224,150.7138 " fill="none" id="javax.servlet.http.HttpServlet-org.apache.wiki.xmlrpc.RPCServlet" style="stroke: #A80036; stroke-width: 1.0;"/><polygon fill="none" points="217.0001,111.0669,224,91.0669,231.0001,111.0668,217.0001,111.0669" style="stroke: #A80036; stroke-width: 1.0;"/><!--link org.apache.wiki.xmlrpc.WikiRPCHandler to org.apache.wiki.xmlrpc.AbstractRPCHandler--><path d="M547.1358,257.1162 C551.8653,276.6474 557.4789,299.8294 563.034,322.7699 " fill="none" id="org.apache.wiki.xmlrpc.WikiRPCHandler-org.apache.wiki.xmlrpc.AbstractRPCHandler" style="stroke: #A80036; stroke-width: 1.0; stroke-dasharray: 7.0,7.0;"/><polygon fill="none" points="540.299,258.6253,542.3952,237.5396,553.9057,255.3304,540.299,258.6253" style="stroke: #A80036; stroke-width: 1.0;"/><text fill="#888888" font-family="sans-serif" font-size="10" lengthAdjust="spacingAndGlyphs" textLength="186" x="333" y="821.2822">UMLDoclet 1.1.4, PlantUML 1.2019.05</text><!--
@startuml

    namespace org.apache.wiki.xmlrpc {

        class RPCHandler [[RPCHandler.html]] {
            +getApplicationName(): String
            +getAllPages(): Vector<String>
            #encodeWikiPage(WikiPage): Hashtable<String, Object>
            +getRecentChanges(Date): Vector<Hashtable<String, Object>>
            +getPageInfo(String): Hashtable
            +getPageInfoVersion(String, int): Hashtable
            +getPage(String): byte[]
            +getPageVersion(String, int): byte[]
            +getPageHTML(String): byte[]
            +getPageHTMLVersion(String, int): byte[]
            +listLinks(String): Vector<Hashtable<String, String>>
        }

        class RPCHandlerUTF8 [[RPCHandlerUTF8.html]] {
            +getApplicationName(): String
            +getAllPages(): Vector<String>
            #encodeWikiPage(WikiPage): Hashtable<String, Object>
            +getRecentChanges(Date): Vector<Hashtable<String, Object>>
            +getPageInfo(String): Hashtable<String, Object>
            +getPageInfoVersion(String, int): Hashtable<String, Object>
            +getPage(String): String
            +getPageVersion(String, int): String
            +getPageHTML(String): String
            +getPageHTMLVersion(String, int): String
            +listLinks(String): Vector<Hashtable<String, String>>
        }

        interface WikiRPCHandler [[WikiRPCHandler.html]] {
            {abstract} +initialize(WikiContext): void
        }

        class MetaWeblogHandler [[MetaWeblogHandler.html]] {
            +initialize(WikiContext): void
            +getCategories(String, String, String): Hashtable
            +getRecentPosts(String, String, String, int): Hashtable
            +newPost(String, String, String, Hashtable, boolean): String
            +newMediaObject(String, String, String, Hashtable): Hashtable
        }

        class RPCServlet [[RPCServlet.html]] {
            {static} +XMLRPC_PREFIX: String
            +initHandler(String, String): void
            +init(ServletConfig): void
            +doPost(HttpServletRequest, HttpServletResponse): void
            +doGet(HttpServletRequest, HttpServletResponse): void
        }

        abstract class AbstractRPCHandler [[AbstractRPCHandler.html]] {
            {static} +ERR_NOPAGE: int
            {static} +ERR_NOPERMISSION: int
            {static} +LINK_LOCAL: String
            {static} +LINK_EXTERNAL: String
            {static} +LINK_INLINE: String
            {static} +RPC_VERSION: int
            #m_engine: WikiEngine
            #m_context: WikiContext
            +initialize(WikiContext): void
            +getRecentChanges(Date): Vector
            #checkPermission(Permission): void
            +getRPCVersionSupported(): int
            {abstract} #encodeWikiPage(WikiPage): Hashtable
        }

        AbstractRPCHandler <|- - RPCHandler

        AbstractRPCHandler <|- - RPCHandlerUTF8

        WikiRPCHandler <|.. MetaWeblogHandler

        abstract class javax.servlet.http.HttpServlet
        javax.servlet.http.HttpServlet <|- - RPCServlet

        WikiRPCHandler <|.. AbstractRPCHandler

    }


    center footer UMLDoclet 1.1.4, PlantUML 1.2019.05
@enduml

PlantUML version 1.2019.05(Sat Apr 20 16:45:36 UTC 2019)
(APACHE source distribution)
Java Runtime: Java(TM) SE Runtime Environment
JVM: Java HotSpot(TM) 64-Bit Server VM
Java Version: 1.8.0_191-b12
Operating System: Linux
OS Version: 4.15.0-58-generic
Default Encoding: ISO-8859-1
Language: en
Country: US
--></g></svg>