<?xml version="1.0" encoding="UTF-8" standalone="no"?><svg xmlns="http://www.w3.org/2000/svg" xmlns:xlink="http://www.w3.org/1999/xlink" contentScriptType="application/ecmascript" contentStyleType="text/css" height="131px" preserveAspectRatio="none" style="width:347px;height:131px;" version="1.1" viewBox="0 0 347 131" width="347px" zoomAndPan="magnify"><defs><filter height="300%" id="fzbrz7bhl7kgd" width="300%" x="-1" y="-1"><feGaussianBlur result="blurOut" stdDeviation="2.0"/><feColorMatrix in="blurOut" result="blurOut2" type="matrix" values="0 0 0 0 0 0 0 0 0 0 0 0 0 0 0 0 0 0 .4 0"/><feOffset dx="4.0" dy="4.0" in="blurOut2" result="blurOut3"/><feBlend in="SourceGraphic" in2="blurOut3" mode="normal"/></filter></defs><g><!--class FormUtil--><a href="FormUtil.html" target="_top" xlink:actuate="onRequest" xlink:show="new" xlink:title="FormUtil.html" xlink:type="simple"><rect fill="#FEFECE" filter="url(#fzbrz7bhl7kgd)" height="89.5078" id="FormUtil" style="stroke: #A80036; stroke-width: 1.5;" width="330" x="6" y="8"/><ellipse cx="143.25" cy="24" fill="#ADD1B2" rx="11" ry="11" style="stroke: #A80036; stroke-width: 1.0;"/><path d="M146.0156,19.875 Q146.1719,19.6563 146.3594,19.5469 Q146.5469,19.4375 146.7656,19.4375 Q147.1406,19.4375 147.375,19.6953 Q147.6094,19.9531 147.6094,20.5625 L147.6094,22.0156 Q147.6094,22.625 147.375,22.8906 Q147.1406,23.1563 146.7656,23.1563 Q146.4219,23.1563 146.2188,22.9531 Q146.0156,22.7656 145.9063,22.25 Q145.8594,21.8906 145.6719,21.7031 Q145.3438,21.3281 144.7344,21.1094 Q144.125,20.8906 143.5,20.8906 Q142.7344,20.8906 142.1016,21.2188 Q141.4688,21.5469 140.9766,22.2969 Q140.4844,23.0469 140.4844,24.0781 L140.4844,25.1719 Q140.4844,26.4063 141.375,27.2266 Q142.2656,28.0469 143.8594,28.0469 Q144.7969,28.0469 145.4531,27.7969 Q145.8438,27.6406 146.2656,27.2031 Q146.5313,26.9375 146.6797,26.8594 Q146.8281,26.7813 147.0313,26.7813 Q147.3594,26.7813 147.6172,27.0391 Q147.875,27.2969 147.875,27.6406 Q147.875,27.9844 147.5313,28.3906 Q147.0313,28.9688 146.2344,29.2969 Q145.1563,29.75 143.8594,29.75 Q142.3438,29.75 141.1406,29.125 Q140.1563,28.625 139.4688,27.5547 Q138.7813,26.4844 138.7813,25.2031 L138.7813,24.0469 Q138.7813,22.7188 139.3984,21.5703 Q140.0156,20.4219 141.1094,19.8047 Q142.2031,19.1875 143.4375,19.1875 Q144.1719,19.1875 144.8203,19.3516 Q145.4688,19.5156 146.0156,19.875 Z "/><text fill="#000000" font-family="sans-serif" font-size="12" lengthAdjust="spacingAndGlyphs" textLength="47" x="163.75" y="28.9102">FormUtil</text><line style="stroke: #A80036; stroke-width: 1.5;" x1="7" x2="335" y1="40" y2="40"/><line style="stroke: #A80036; stroke-width: 1.5;" x1="7" x2="335" y1="48" y2="48"/><ellipse cx="17" cy="60.418" fill="#84BE84" rx="3" ry="3" style="stroke: #038048; stroke-width: 1.0;"/><text fill="#000000" font-family="sans-serif" font-size="11" lengthAdjust="spacingAndGlyphs" text-decoration="underline" textLength="182" x="26" y="63.4189">getValues(Map&lt;?, ?&gt;, String): List&lt;?&gt;</text><ellipse cx="17" cy="74.2539" fill="#84BE84" rx="3" ry="3" style="stroke: #038048; stroke-width: 1.0;"/><text fill="#000000" font-family="sans-serif" font-size="11" lengthAdjust="spacingAndGlyphs" text-decoration="underline" textLength="231" x="26" y="77.2549">getNumberedValues(Map&lt;?, ?&gt;, String): List&lt;?&gt;</text><ellipse cx="17" cy="88.0898" fill="#84BE84" rx="3" ry="3" style="stroke: #038048; stroke-width: 1.0;"/><text fill="#000000" font-family="sans-serif" font-size="11" lengthAdjust="spacingAndGlyphs" text-decoration="underline" textLength="304" x="26" y="91.0908">requestToMap(HttpServletRequest, String): Map&lt;String, String&gt;</text></a><text fill="#888888" font-family="sans-serif" font-size="10" lengthAdjust="spacingAndGlyphs" textLength="184" x="85" y="118.3809">UMLDoclet 1.1.4, PlantUML 1.2019.05</text><!--
@startuml

    class FormUtil [[FormUtil.html]] {
        {static} +getValues(Map<?, ?>, String): List<?>
        {static} +getNumberedValues(Map<?, ?>, String): List<?>
        {static} +requestToMap(HttpServletRequest, String): Map<String, String>
    }


    center footer UMLDoclet 1.1.4, PlantUML 1.2019.05
@enduml

PlantUML version 1.2019.05(Sat Apr 20 18:45:36 CEST 2019)
(APACHE source distribution)
Java Runtime: OpenJDK Runtime Environment
JVM: OpenJDK 64-Bit Server VM
Java Version: 1.8.0_212-b03
Operating System: Windows 10
OS Version: 10.0
Default Encoding: Cp1252
Language: es
Country: ES
--></g></svg>