<?xml version="1.0" encoding="UTF-8" standalone="no"?><svg xmlns="http://www.w3.org/2000/svg" xmlns:xlink="http://www.w3.org/1999/xlink" contentScriptType="application/ecmascript" contentStyleType="text/css" height="220px" preserveAspectRatio="none" style="width:223px;height:220px;background:#FFFFFF;" version="1.1" viewBox="0 0 223 220" width="223px" zoomAndPan="magnify"><defs><filter height="300%" id="fct8tqe5sqizb" width="300%" x="-1" y="-1"><feGaussianBlur result="blurOut" stdDeviation="2.0"/><feColorMatrix in="blurOut" result="blurOut2" type="matrix" values="0 0 0 0 0 0 0 0 0 0 0 0 0 0 0 0 0 0 .4 0"/><feOffset dx="4.0" dy="4.0" in="blurOut2" result="blurOut3"/><feBlend in="SourceGraphic" in2="blurOut3" mode="normal"/></filter></defs><g><!--MD5=[8cf805aa77df0e54e72dff8e52746d7c]
class org.apache.wiki.preferences.Preferences.TimeFormat--><a href="Preferences.TimeFormat.html" target="_top" title="Preferences.TimeFormat.html" xlink:actuate="onRequest" xlink:href="Preferences.TimeFormat.html" xlink:show="new" xlink:title="Preferences.TimeFormat.html" xlink:type="simple"><rect codeLine="5" fill="#FEFECE" filter="url(#fct8tqe5sqizb)" height="84.3516" id="org.apache.wiki.preferences.Preferences.TimeFormat" style="stroke:#A80036;stroke-width:1.5;" width="202" x="7" y="105"/><ellipse cx="22" cy="123.9688" fill="#EB937F" rx="11" ry="11" style="stroke:#A80036;stroke-width:1.0;"/><path d="M26.1094,129.9688 L18.3906,129.9688 L18.3906,117.5781 L26.1094,117.5781 L26.1094,119.7344 L20.8438,119.7344 L20.8438,122.4063 L25.6094,122.4063 L25.6094,124.5625 L20.8438,124.5625 L20.8438,127.8125 L26.1094,127.8125 L26.1094,129.9688 Z " fill="#000000"/><text fill="#000000" font-family="sans-serif" font-size="14" lengthAdjust="spacing" textLength="170" x="36" y="122.9951">Preferences.TimeFormat</text><text fill="#000000" font-family="sans-serif" font-size="10" lengthAdjust="spacing" textLength="135" x="53.5" y="135.5791">org.apache.wiki.preferences</text><line style="stroke:#A80036;stroke-width:1.5;" x1="8" x2="208" y1="142.9375" y2="142.9375"/><ellipse cx="18" cy="153.9375" rx="3" ry="3" style="stroke:#038048;stroke-width:1.0;fill:none;"/><text fill="#000000" font-family="sans-serif" font-size="11" lengthAdjust="spacing" text-decoration="underline" textLength="26" x="27" y="157.1479">TIME</text><ellipse cx="18" cy="166.7422" rx="3" ry="3" style="stroke:#038048;stroke-width:1.0;fill:none;"/><text fill="#000000" font-family="sans-serif" font-size="11" lengthAdjust="spacing" text-decoration="underline" textLength="29" x="27" y="169.9526">DATE</text><ellipse cx="18" cy="179.5469" rx="3" ry="3" style="stroke:#038048;stroke-width:1.0;fill:none;"/><text fill="#000000" font-family="sans-serif" font-size="11" lengthAdjust="spacing" text-decoration="underline" textLength="55" x="27" y="182.7573">DATETIME</text></a><!--MD5=[4fadc603b652e05cc03c13f59a563f6d]
class org.apache.wiki.preferences.Preferences--><a href="Preferences.html" target="_top" title="Preferences.html" xlink:actuate="onRequest" xlink:href="Preferences.html" xlink:show="new" xlink:title="Preferences.html" xlink:type="simple"><rect codeLine="11" fill="#FEFECE" filter="url(#fct8tqe5sqizb)" height="37.9375" id="org.apache.wiki.preferences.Preferences" style="stroke:#A80036;stroke-width:1.5;" width="167" x="24.5" y="7"/><ellipse cx="39.5" cy="25.9688" fill="#ADD1B2" rx="11" ry="11" style="stroke:#A80036;stroke-width:1.0;"/><path d="M42.4688,31.6094 Q41.8906,31.9063 41.25,32.0469 Q40.6094,32.2031 39.9063,32.2031 Q37.4063,32.2031 36.0781,30.5625 Q34.7656,28.9063 34.7656,25.7813 Q34.7656,22.6563 36.0781,21 Q37.4063,19.3438 39.9063,19.3438 Q40.6094,19.3438 41.25,19.5 Q41.9063,19.6563 42.4688,19.9531 L42.4688,22.6719 Q41.8438,22.0938 41.25,21.8281 Q40.6563,21.5469 40.0313,21.5469 Q38.6875,21.5469 38,22.625 Q37.3125,23.6875 37.3125,25.7813 Q37.3125,27.875 38,28.9531 Q38.6875,30.0156 40.0313,30.0156 Q40.6563,30.0156 41.25,29.75 Q41.8438,29.4688 42.4688,28.8906 L42.4688,31.6094 Z " fill="#000000"/><text fill="#000000" font-family="sans-serif" font-size="14" lengthAdjust="spacing" textLength="84" x="79" y="24.9951">Preferences</text><text fill="#000000" font-family="sans-serif" font-size="10" lengthAdjust="spacing" textLength="135" x="53.5" y="37.5791">org.apache.wiki.preferences</text></a><!--MD5=[17181dec56d70f2700f6a770750727ab]
reverse link org.apache.wiki.preferences.Preferences to org.apache.wiki.preferences.Preferences.TimeFormat--><path codeLine="13" d="M108,60.45 C108,74.22 108,90.3 108,104.78 " fill="none" id="org.apache.wiki.preferences.Preferences-backto-org.apache.wiki.preferences.Preferences.TimeFormat" style="stroke:#A80036;stroke-width:1.0;"/><ellipse cx="108" cy="53.07" fill="#FFFFFF" rx="8" ry="8" style="stroke:#A80036;stroke-width:1.0;"/><line style="stroke:#A80036;stroke-width:1.0;" x1="108" x2="108" y1="61.07" y2="45.07"/><line style="stroke:#A80036;stroke-width:1.0;" x1="100" x2="116" y1="53.07" y2="53.07"/><text fill="#888888" font-family="sans-serif" font-size="10" lengthAdjust="spacing" textLength="192" x="9" y="211.6338">UMLDoclet 2.0.15, PlantUML 1.2021.13</text><!--MD5=[1a1cd924c9a0470bd215a593bf93f344]
@startuml
    set namespaceSeparator none
    hide empty fields
    hide empty methods

    enum "<size:14>Preferences.TimeFormat\n<size:10>org.apache.wiki.preferences" as org.apache.wiki.preferences.Preferences.TimeFormat [[Preferences.TimeFormat.html]] {
        {static} +TIME
        {static} +DATE
        {static} +DATETIME
    }

    class "<size:14>Preferences\n<size:10>org.apache.wiki.preferences" as org.apache.wiki.preferences.Preferences [[Preferences.html]]

    org.apache.wiki.preferences.Preferences +- - org.apache.wiki.preferences.Preferences.TimeFormat

    center footer UMLDoclet 2.0.15, PlantUML 1.2021.13
@enduml

PlantUML version 1.2021.13(Mon Nov 01 11:38:45 UTC 2021)
(APACHE source distribution)
Java Runtime: OpenJDK Runtime Environment
JVM: OpenJDK 64-Bit Server VM
Default Encoding: UTF-8
Language: en
Country: US
--></g></svg>