<?xml version="1.0" encoding="UTF-8" standalone="no"?><svg xmlns="http://www.w3.org/2000/svg" xmlns:xlink="http://www.w3.org/1999/xlink" contentScriptType="application/ecmascript" contentStyleType="text/css" height="241px" preserveAspectRatio="none" style="width:300px;height:241px;background:#FFFFFF;" version="1.1" viewBox="0 0 300 241" width="300px" zoomAndPan="magnify"><defs><filter height="300%" id="f1e9d5lfrergua" width="300%" x="-1" y="-1"><feGaussianBlur result="blurOut" stdDeviation="2.0"/><feColorMatrix in="blurOut" result="blurOut2" type="matrix" values="0 0 0 0 0 0 0 0 0 0 0 0 0 0 0 0 0 0 .4 0"/><feOffset dx="4.0" dy="4.0" in="blurOut2" result="blurOut3"/><feBlend in="SourceGraphic" in2="blurOut3" mode="normal"/></filter></defs><g><!--MD5=[137a59db26e3269bff49ae5ceb70570a]
class org.apache.wiki.diff.TraditionalDiffProvider--><a href="TraditionalDiffProvider.html" target="_top" title="TraditionalDiffProvider.html" xlink:actuate="onRequest" xlink:href="TraditionalDiffProvider.html" xlink:show="new" xlink:title="TraditionalDiffProvider.html" xlink:type="simple"><rect codeLine="5" fill="#FEFECE" filter="url(#f1e9d5lfrergua)" height="84.3516" id="org.apache.wiki.diff.TraditionalDiffProvider" style="stroke:#A80036;stroke-width:1.5;" width="279" x="7" y="126"/><ellipse cx="67.75" cy="144.9688" fill="#ADD1B2" rx="11" ry="11" style="stroke:#A80036;stroke-width:1.0;"/><path d="M70.7188,150.6094 Q70.1406,150.9063 69.5,151.0469 Q68.8594,151.2031 68.1563,151.2031 Q65.6563,151.2031 64.3281,149.5625 Q63.0156,147.9063 63.0156,144.7813 Q63.0156,141.6563 64.3281,140 Q65.6563,138.3438 68.1563,138.3438 Q68.8594,138.3438 69.5,138.5 Q70.1563,138.6563 70.7188,138.9531 L70.7188,141.6719 Q70.0938,141.0938 69.5,140.8281 Q68.9063,140.5469 68.2813,140.5469 Q66.9375,140.5469 66.25,141.625 Q65.5625,142.6875 65.5625,144.7813 Q65.5625,146.875 66.25,147.9531 Q66.9375,149.0156 68.2813,149.0156 Q68.9063,149.0156 69.5,148.75 Q70.0938,148.4688 70.7188,147.8906 L70.7188,150.6094 Z " fill="#000000"/><text fill="#000000" font-family="sans-serif" font-size="14" lengthAdjust="spacing" textLength="149" x="88.25" y="143.9951">TraditionalDiffProvider</text><text fill="#000000" font-family="sans-serif" font-size="10" lengthAdjust="spacing" textLength="93" x="116.25" y="156.5791">org.apache.wiki.diff</text><line style="stroke:#A80036;stroke-width:1.5;" x1="8" x2="285" y1="163.9375" y2="163.9375"/><ellipse cx="18" cy="174.9375" fill="#84BE84" rx="3" ry="3" style="stroke:#038048;stroke-width:1.0;"/><text fill="#000000" font-family="sans-serif" font-size="11" lengthAdjust="spacing" textLength="136" x="27" y="178.1479">getProviderInfo(): String</text><ellipse cx="18" cy="187.7422" fill="#84BE84" rx="3" ry="3" style="stroke:#038048;stroke-width:1.0;"/><text fill="#000000" font-family="sans-serif" font-size="11" lengthAdjust="spacing" textLength="189" x="27" y="190.9526">initialize(Engine, Properties): void</text><ellipse cx="18" cy="200.5469" fill="#84BE84" rx="3" ry="3" style="stroke:#038048;stroke-width:1.0;"/><text fill="#000000" font-family="sans-serif" font-size="11" lengthAdjust="spacing" textLength="253" x="27" y="203.7573">makeDiffHtml(Context, String, String): String</text></a><!--MD5=[2fbc833a06f80c01937c2c222d4f23da]
class org.apache.wiki.diff.DiffProvider--><a href="DiffProvider.html" target="_top" title="DiffProvider.html" xlink:actuate="onRequest" xlink:href="DiffProvider.html" xlink:show="new" xlink:title="DiffProvider.html" xlink:type="simple"><rect codeLine="11" fill="#FEFECE" filter="url(#f1e9d5lfrergua)" height="58.7422" id="org.apache.wiki.diff.DiffProvider" style="stroke:#A80036;stroke-width:1.5;" width="277" x="8" y="7"/><ellipse cx="93.25" cy="25.9688" fill="#B4A7E5" rx="11" ry="11" style="stroke:#A80036;stroke-width:1.0;"/><path d="M89.1719,21.7344 L89.1719,19.5781 L96.5625,19.5781 L96.5625,21.7344 L94.0938,21.7344 L94.0938,29.8125 L96.5625,29.8125 L96.5625,31.9688 L89.1719,31.9688 L89.1719,29.8125 L91.6406,29.8125 L91.6406,21.7344 L89.1719,21.7344 Z " fill="#000000"/><text fill="#000000" font-family="sans-serif" font-size="14" font-style="italic" lengthAdjust="spacing" textLength="78" x="123.75" y="24.9951">DiffProvider</text><text fill="#000000" font-family="sans-serif" font-size="10" font-style="italic" lengthAdjust="spacing" textLength="98" x="113.75" y="37.5791">org.apache.wiki.diff</text><line style="stroke:#A80036;stroke-width:1.5;" x1="9" x2="284" y1="44.9375" y2="44.9375"/><ellipse cx="19" cy="55.9375" fill="#84BE84" rx="3" ry="3" style="stroke:#038048;stroke-width:1.0;"/><text fill="#000000" font-family="sans-serif" font-size="11" font-style="italic" lengthAdjust="spacing" textLength="251" x="28" y="59.1479">makeDiffHtml(Context, String, String): String</text></a><!--MD5=[c5a1856f02175d4fd3ce607ef737f96f]
reverse link org.apache.wiki.diff.DiffProvider to org.apache.wiki.diff.TraditionalDiffProvider--><path codeLine="15" d="M146.5,86.63 C146.5,99.47 146.5,113.17 146.5,125.56 " fill="none" id="org.apache.wiki.diff.DiffProvider-backto-org.apache.wiki.diff.TraditionalDiffProvider" style="stroke:#A80036;stroke-width:1.0;stroke-dasharray:7.0,7.0;"/><polygon fill="none" points="139.5,86.24,146.5,66.24,153.5,86.24,139.5,86.24" style="stroke:#A80036;stroke-width:1.0;"/><text fill="#888888" font-family="sans-serif" font-size="10" lengthAdjust="spacing" textLength="192" x="47.5" y="232.6338">UMLDoclet 2.0.15, PlantUML 1.2021.13</text><!--MD5=[b182ff190bb6e053fd419d6804b1a0da]
@startuml
    set namespaceSeparator none
    hide empty fields
    hide empty methods

    class "<size:14>TraditionalDiffProvider\n<size:10>org.apache.wiki.diff" as org.apache.wiki.diff.TraditionalDiffProvider [[TraditionalDiffProvider.html]] {
        +getProviderInfo(): String
        +initialize(Engine, Properties): void
        +makeDiffHtml(Context, String, String): String
    }

    interface "<size:14>DiffProvider\n<size:10>org.apache.wiki.diff" as org.apache.wiki.diff.DiffProvider [[DiffProvider.html]] {
        {abstract} +makeDiffHtml(Context, String, String): String
    }

    org.apache.wiki.diff.DiffProvider <|.. org.apache.wiki.diff.TraditionalDiffProvider

    center footer UMLDoclet 2.0.15, PlantUML 1.2021.13
@enduml

PlantUML version 1.2021.13(Mon Nov 01 11:38:45 UTC 2021)
(APACHE source distribution)
Java Runtime: OpenJDK Runtime Environment
JVM: OpenJDK 64-Bit Server VM
Default Encoding: UTF-8
Language: en
Country: null
--></g></svg>