<?xml version="1.0" encoding="UTF-8" standalone="no"?><svg xmlns="http://www.w3.org/2000/svg" xmlns:xlink="http://www.w3.org/1999/xlink" contentScriptType="application/ecmascript" contentStyleType="text/css" height="888px" preserveAspectRatio="none" style="width:979px;height:888px;" version="1.1" viewBox="0 0 979 888" width="979px" zoomAndPan="magnify"><defs><filter height="300%" id="f3ushb5m9jg4u" width="300%" x="-1" y="-1"><feGaussianBlur result="blurOut" stdDeviation="2.0"/><feColorMatrix in="blurOut" result="blurOut2" type="matrix" values="0 0 0 0 0 0 0 0 0 0 0 0 0 0 0 0 0 0 .4 0"/><feOffset dx="4.0" dy="4.0" in="blurOut2" result="blurOut3"/><feBlend in="SourceGraphic" in2="blurOut3" mode="normal"/></filter></defs><g><!--cluster org.apache.wiki.rss--><polygon fill="#FFFFFF" filter="url(#f3ushb5m9jg4u)" points="14,143,175,143,182,165.2969,957,165.2969,957,848,14,848,14,143" style="stroke: #000000; stroke-width: 1.5;"/><line style="stroke: #000000; stroke-width: 1.5;" x1="14" x2="182" y1="165.2969" y2="165.2969"/><text fill="#000000" font-family="sans-serif" font-size="14" font-weight="bold" lengthAdjust="spacingAndGlyphs" textLength="155" x="18" y="157.9951">org.apache.wiki.rss</text><!--cluster org.apache.wiki--><polygon fill="#FFFFFF" filter="url(#f3ushb5m9jg4u)" points="761,16,892,16,899,38.2969,953,38.2969,953,112,761,112,761,16" style="stroke: #000000; stroke-width: 1.5;"/><line style="stroke: #000000; stroke-width: 1.5;" x1="761" x2="899" y1="38.2969" y2="38.2969"/><text fill="#000000" font-family="sans-serif" font-size="14" font-weight="bold" lengthAdjust="spacingAndGlyphs" textLength="125" x="765" y="30.9951">org.apache.wiki</text><!--class org.apache.wiki.rss.AtomFeed--><a href="AtomFeed.html" target="_top" xlink:actuate="onRequest" xlink:show="new" xlink:title="AtomFeed.html" xlink:type="simple"><rect fill="#FEFECE" filter="url(#f3ushb5m9jg4u)" height="86.4141" id="org.apache.wiki.rss.AtomFeed" style="stroke: #A80036; stroke-width: 1.5;" width="162" x="176" y="709"/><ellipse cx="221.25" cy="725" fill="#ADD1B2" rx="11" ry="11" style="stroke: #A80036; stroke-width: 1.0;"/><path d="M224.2188,730.6406 Q223.6406,730.9375 223,731.0859 Q222.3594,731.2344 221.6563,731.2344 Q219.1563,731.2344 217.8359,729.5859 Q216.5156,727.9375 216.5156,724.8125 Q216.5156,721.6875 217.8359,720.0313 Q219.1563,718.375 221.6563,718.375 Q222.3594,718.375 223.0078,718.5313 Q223.6563,718.6875 224.2188,718.9844 L224.2188,721.7031 Q223.5938,721.125 223,720.8516 Q222.4063,720.5781 221.7813,720.5781 Q220.4375,720.5781 219.75,721.6484 Q219.0625,722.7188 219.0625,724.8125 Q219.0625,726.9063 219.75,727.9766 Q220.4375,729.0469 221.7813,729.0469 Q222.4063,729.0469 223,728.7734 Q223.5938,728.5 224.2188,727.9219 L224.2188,730.6406 Z "/><text fill="#000000" font-family="sans-serif" font-size="12" lengthAdjust="spacingAndGlyphs" textLength="63" x="241.75" y="729.1543">AtomFeed</text><line style="stroke: #A80036; stroke-width: 1.5;" x1="177" x2="337" y1="741" y2="741"/><ellipse cx="187" cy="752.9023" fill="none" rx="3" ry="3" style="stroke: #038048; stroke-width: 1.0;"/><text fill="#000000" font-family="sans-serif" font-size="11" lengthAdjust="spacingAndGlyphs" text-decoration="underline" textLength="136" x="196" y="755.2104">RFC3339FORMAT: String</text><line style="stroke: #A80036; stroke-width: 1.5;" x1="177" x2="337" y1="761.8047" y2="761.8047"/><ellipse cx="187" cy="773.707" fill="#84BE84" rx="3" ry="3" style="stroke: #038048; stroke-width: 1.0;"/><text fill="#000000" font-family="sans-serif" font-size="11" lengthAdjust="spacingAndGlyphs" textLength="128" x="196" y="776.0151">AtomFeed(WikiContext)</text><ellipse cx="187" cy="786.5117" fill="#84BE84" rx="3" ry="3" style="stroke: #038048; stroke-width: 1.0;"/><text fill="#000000" font-family="sans-serif" font-size="11" lengthAdjust="spacingAndGlyphs" textLength="102" x="196" y="788.8198">getString(): String</text></a><!--class org.apache.wiki.rss.Entry--><a href="Entry.html" target="_top" xlink:actuate="onRequest" xlink:show="new" xlink:title="Entry.html" xlink:type="simple"><rect fill="#FEFECE" filter="url(#f3ushb5m9jg4u)" height="176.0469" id="org.apache.wiki.rss.Entry" style="stroke: #A80036; stroke-width: 1.5;" width="161" x="373.5" y="664"/><ellipse cx="433.75" cy="680" fill="#ADD1B2" rx="11" ry="11" style="stroke: #A80036; stroke-width: 1.0;"/><path d="M436.7188,685.6406 Q436.1406,685.9375 435.5,686.0859 Q434.8594,686.2344 434.1563,686.2344 Q431.6563,686.2344 430.3359,684.5859 Q429.0156,682.9375 429.0156,679.8125 Q429.0156,676.6875 430.3359,675.0313 Q431.6563,673.375 434.1563,673.375 Q434.8594,673.375 435.5078,673.5313 Q436.1563,673.6875 436.7188,673.9844 L436.7188,676.7031 Q436.0938,676.125 435.5,675.8516 Q434.9063,675.5781 434.2813,675.5781 Q432.9375,675.5781 432.25,676.6484 Q431.5625,677.7188 431.5625,679.8125 Q431.5625,681.9063 432.25,682.9766 Q432.9375,684.0469 434.2813,684.0469 Q434.9063,684.0469 435.5,683.7734 Q436.0938,683.5 436.7188,682.9219 L436.7188,685.6406 Z "/><text fill="#000000" font-family="sans-serif" font-size="12" lengthAdjust="spacingAndGlyphs" textLength="32" x="454.25" y="684.1543">Entry</text><line style="stroke: #A80036; stroke-width: 1.5;" x1="374.5" x2="533.5" y1="696" y2="696"/><line style="stroke: #A80036; stroke-width: 1.5;" x1="374.5" x2="533.5" y1="704" y2="704"/><ellipse cx="384.5" cy="715.9023" fill="#84BE84" rx="3" ry="3" style="stroke: #038048; stroke-width: 1.0;"/><text fill="#000000" font-family="sans-serif" font-size="11" lengthAdjust="spacingAndGlyphs" textLength="128" x="393.5" y="718.2104">setAuthor(String): void</text><ellipse cx="384.5" cy="728.707" fill="#84BE84" rx="3" ry="3" style="stroke: #038048; stroke-width: 1.0;"/><text fill="#000000" font-family="sans-serif" font-size="11" lengthAdjust="spacingAndGlyphs" textLength="105" x="393.5" y="731.0151">getAuthor(): String</text><ellipse cx="384.5" cy="741.5117" fill="#84BE84" rx="3" ry="3" style="stroke: #038048; stroke-width: 1.0;"/><text fill="#000000" font-family="sans-serif" font-size="11" lengthAdjust="spacingAndGlyphs" textLength="111" x="393.5" y="743.8198">getPage(): WikiPage</text><ellipse cx="384.5" cy="754.3164" fill="#84BE84" rx="3" ry="3" style="stroke: #038048; stroke-width: 1.0;"/><text fill="#000000" font-family="sans-serif" font-size="11" lengthAdjust="spacingAndGlyphs" textLength="134" x="393.5" y="756.6245">setPage(WikiPage): void</text><ellipse cx="384.5" cy="767.1211" fill="#84BE84" rx="3" ry="3" style="stroke: #038048; stroke-width: 1.0;"/><text fill="#000000" font-family="sans-serif" font-size="11" lengthAdjust="spacingAndGlyphs" textLength="115" x="393.5" y="769.4292">setTitle(String): void</text><ellipse cx="384.5" cy="779.9258" fill="#84BE84" rx="3" ry="3" style="stroke: #038048; stroke-width: 1.0;"/><text fill="#000000" font-family="sans-serif" font-size="11" lengthAdjust="spacingAndGlyphs" textLength="92" x="393.5" y="782.2339">getTitle(): String</text><ellipse cx="384.5" cy="792.7305" fill="#84BE84" rx="3" ry="3" style="stroke: #038048; stroke-width: 1.0;"/><text fill="#000000" font-family="sans-serif" font-size="11" lengthAdjust="spacingAndGlyphs" textLength="112" x="393.5" y="795.0386">setURL(String): void</text><ellipse cx="384.5" cy="805.5352" fill="#84BE84" rx="3" ry="3" style="stroke: #038048; stroke-width: 1.0;"/><text fill="#000000" font-family="sans-serif" font-size="11" lengthAdjust="spacingAndGlyphs" textLength="89" x="393.5" y="807.8433">getURL(): String</text><ellipse cx="384.5" cy="818.3398" fill="#84BE84" rx="3" ry="3" style="stroke: #038048; stroke-width: 1.0;"/><text fill="#000000" font-family="sans-serif" font-size="11" lengthAdjust="spacingAndGlyphs" textLength="135" x="393.5" y="820.6479">setContent(String): void</text><ellipse cx="384.5" cy="831.1445" fill="#84BE84" rx="3" ry="3" style="stroke: #038048; stroke-width: 1.0;"/><text fill="#000000" font-family="sans-serif" font-size="11" lengthAdjust="spacingAndGlyphs" textLength="112" x="393.5" y="833.4526">getContent(): String</text></a><!--class org.apache.wiki.rss.RSS20Feed--><a href="RSS20Feed.html" target="_top" xlink:actuate="onRequest" xlink:show="new" xlink:title="RSS20Feed.html" xlink:type="simple"><rect fill="#FEFECE" filter="url(#f3ushb5m9jg4u)" height="73.6094" id="org.apache.wiki.rss.RSS20Feed" style="stroke: #A80036; stroke-width: 1.5;" width="162" x="570" y="715"/><ellipse cx="611.55" cy="731" fill="#ADD1B2" rx="11" ry="11" style="stroke: #A80036; stroke-width: 1.0;"/><path d="M614.5188,736.6406 Q613.9406,736.9375 613.3,737.0859 Q612.6594,737.2344 611.9563,737.2344 Q609.4563,737.2344 608.1359,735.5859 Q606.8156,733.9375 606.8156,730.8125 Q606.8156,727.6875 608.1359,726.0313 Q609.4563,724.375 611.9563,724.375 Q612.6594,724.375 613.3078,724.5313 Q613.9563,724.6875 614.5188,724.9844 L614.5188,727.7031 Q613.8938,727.125 613.3,726.8516 Q612.7063,726.5781 612.0813,726.5781 Q610.7375,726.5781 610.05,727.6484 Q609.3625,728.7188 609.3625,730.8125 Q609.3625,732.9063 610.05,733.9766 Q610.7375,735.0469 612.0813,735.0469 Q612.7063,735.0469 613.3,734.7734 Q613.8938,734.5 614.5188,733.9219 L614.5188,736.6406 Z "/><text fill="#000000" font-family="sans-serif" font-size="12" lengthAdjust="spacingAndGlyphs" textLength="71" x="631.45" y="735.1543">RSS20Feed</text><line style="stroke: #A80036; stroke-width: 1.5;" x1="571" x2="731" y1="747" y2="747"/><line style="stroke: #A80036; stroke-width: 1.5;" x1="571" x2="731" y1="755" y2="755"/><ellipse cx="581" cy="766.9023" fill="#84BE84" rx="3" ry="3" style="stroke: #038048; stroke-width: 1.0;"/><text fill="#000000" font-family="sans-serif" font-size="11" lengthAdjust="spacingAndGlyphs" textLength="136" x="590" y="769.2104">RSS20Feed(WikiContext)</text><ellipse cx="581" cy="779.707" fill="#84BE84" rx="3" ry="3" style="stroke: #038048; stroke-width: 1.0;"/><text fill="#000000" font-family="sans-serif" font-size="11" lengthAdjust="spacingAndGlyphs" textLength="102" x="590" y="782.0151">getString(): String</text></a><!--class org.apache.wiki.rss.RSSThread--><a href="RSSThread.html" target="_top" xlink:actuate="onRequest" xlink:show="new" xlink:title="RSSThread.html" xlink:type="simple"><rect fill="#FEFECE" filter="url(#f3ushb5m9jg4u)" height="86.4141" id="org.apache.wiki.rss.RSSThread" style="stroke: #A80036; stroke-width: 1.5;" width="184" x="765" y="304.5"/><ellipse cx="818.75" cy="320.5" fill="#ADD1B2" rx="11" ry="11" style="stroke: #A80036; stroke-width: 1.0;"/><path d="M821.7188,326.1406 Q821.1406,326.4375 820.5,326.5859 Q819.8594,326.7344 819.1563,326.7344 Q816.6563,326.7344 815.3359,325.0859 Q814.0156,323.4375 814.0156,320.3125 Q814.0156,317.1875 815.3359,315.5313 Q816.6563,313.875 819.1563,313.875 Q819.8594,313.875 820.5078,314.0313 Q821.1563,314.1875 821.7188,314.4844 L821.7188,317.2031 Q821.0938,316.625 820.5,316.3516 Q819.9063,316.0781 819.2813,316.0781 Q817.9375,316.0781 817.25,317.1484 Q816.5625,318.2188 816.5625,320.3125 Q816.5625,322.4063 817.25,323.4766 Q817.9375,324.5469 819.2813,324.5469 Q819.9063,324.5469 820.5,324.2734 Q821.0938,324 821.7188,323.4219 L821.7188,326.1406 Z "/><text fill="#000000" font-family="sans-serif" font-size="12" lengthAdjust="spacingAndGlyphs" textLength="68" x="839.25" y="324.6543">RSSThread</text><line style="stroke: #A80036; stroke-width: 1.5;" x1="766" x2="948" y1="336.5" y2="336.5"/><line style="stroke: #A80036; stroke-width: 1.5;" x1="766" x2="948" y1="344.5" y2="344.5"/><ellipse cx="776" cy="356.4023" fill="#84BE84" rx="3" ry="3" style="stroke: #038048; stroke-width: 1.0;"/><text fill="#000000" font-family="sans-serif" font-size="11" lengthAdjust="spacingAndGlyphs" textLength="158" x="785" y="358.7104">RSSThread(Engine, File, int)</text><ellipse cx="776" cy="369.207" fill="#84BE84" rx="3" ry="3" style="stroke: #038048; stroke-width: 1.0;"/><text fill="#000000" font-family="sans-serif" font-size="11" lengthAdjust="spacingAndGlyphs" textLength="107" x="785" y="371.5151">startupTask(): void</text><ellipse cx="776" cy="382.0117" fill="#84BE84" rx="3" ry="3" style="stroke: #038048; stroke-width: 1.0;"/><text fill="#000000" font-family="sans-serif" font-size="11" lengthAdjust="spacingAndGlyphs" textLength="132" x="785" y="384.3198">backgroundTask(): void</text></a><!--class org.apache.wiki.rss.RSS10Feed--><a href="RSS10Feed.html" target="_top" xlink:actuate="onRequest" xlink:show="new" xlink:title="RSS10Feed.html" xlink:type="simple"><rect fill="#FEFECE" filter="url(#f3ushb5m9jg4u)" height="73.6094" id="org.apache.wiki.rss.RSS10Feed" style="stroke: #A80036; stroke-width: 1.5;" width="162" x="767" y="715"/><ellipse cx="808.55" cy="731" fill="#ADD1B2" rx="11" ry="11" style="stroke: #A80036; stroke-width: 1.0;"/><path d="M811.5188,736.6406 Q810.9406,736.9375 810.3,737.0859 Q809.6594,737.2344 808.9563,737.2344 Q806.4563,737.2344 805.1359,735.5859 Q803.8156,733.9375 803.8156,730.8125 Q803.8156,727.6875 805.1359,726.0313 Q806.4563,724.375 808.9563,724.375 Q809.6594,724.375 810.3078,724.5313 Q810.9563,724.6875 811.5188,724.9844 L811.5188,727.7031 Q810.8938,727.125 810.3,726.8516 Q809.7063,726.5781 809.0813,726.5781 Q807.7375,726.5781 807.05,727.6484 Q806.3625,728.7188 806.3625,730.8125 Q806.3625,732.9063 807.05,733.9766 Q807.7375,735.0469 809.0813,735.0469 Q809.7063,735.0469 810.3,734.7734 Q810.8938,734.5 811.5188,733.9219 L811.5188,736.6406 Z "/><text fill="#000000" font-family="sans-serif" font-size="12" lengthAdjust="spacingAndGlyphs" textLength="71" x="828.45" y="735.1543">RSS10Feed</text><line style="stroke: #A80036; stroke-width: 1.5;" x1="768" x2="928" y1="747" y2="747"/><line style="stroke: #A80036; stroke-width: 1.5;" x1="768" x2="928" y1="755" y2="755"/><ellipse cx="778" cy="766.9023" fill="#84BE84" rx="3" ry="3" style="stroke: #038048; stroke-width: 1.0;"/><text fill="#000000" font-family="sans-serif" font-size="11" lengthAdjust="spacingAndGlyphs" textLength="136" x="787" y="769.2104">RSS10Feed(WikiContext)</text><ellipse cx="778" cy="779.707" fill="#84BE84" rx="3" ry="3" style="stroke: #038048; stroke-width: 1.0;"/><text fill="#000000" font-family="sans-serif" font-size="11" lengthAdjust="spacingAndGlyphs" textLength="102" x="787" y="782.0151">getString(): String</text></a><!--class org.apache.wiki.rss.Feed--><a href="Feed.html" target="_top" xlink:actuate="onRequest" xlink:show="new" xlink:title="Feed.html" xlink:type="simple"><rect fill="#FEFECE" filter="url(#f3ushb5m9jg4u)" height="329.7031" id="org.apache.wiki.rss.Feed" style="stroke: #A80036; stroke-width: 1.5;" width="276" x="454" y="182.5"/><ellipse cx="572.25" cy="198.5" fill="#A9DCDF" rx="11" ry="11" style="stroke: #A80036; stroke-width: 1.0;"/><path d="M572.3594,193.8438 L571.2031,198.9219 L573.5313,198.9219 L572.3594,193.8438 Z M570.875,191.6094 L573.8594,191.6094 L577.2188,204 L574.7656,204 L574,200.9375 L570.7188,200.9375 L569.9688,204 L567.5313,204 L570.875,191.6094 Z "/><text fill="#000000" font-family="sans-serif" font-size="12" font-style="italic" lengthAdjust="spacingAndGlyphs" textLength="31" x="592.75" y="202.6543">Feed</text><line style="stroke: #A80036; stroke-width: 1.5;" x1="455" x2="729" y1="214.5" y2="214.5"/><ellipse cx="465" cy="226.4023" fill="none" rx="3" ry="3" style="stroke: #038048; stroke-width: 1.0;"/><text fill="#000000" font-family="sans-serif" font-size="11" lengthAdjust="spacingAndGlyphs" text-decoration="underline" textLength="132" x="474" y="228.7104">VAR_BLOGNAME: String</text><polygon fill="none" points="465,234.207,469,238.207,465,242.207,461,238.207" style="stroke: #B38D22; stroke-width: 1.0;"/><text fill="#000000" font-family="sans-serif" font-size="11" lengthAdjust="spacingAndGlyphs" textLength="105" x="474" y="241.5151">m_feedURL: String</text><polygon fill="none" points="465,247.0117,469,251.0117,465,255.0117,461,251.0117" style="stroke: #B38D22; stroke-width: 1.0;"/><text fill="#000000" font-family="sans-serif" font-size="11" lengthAdjust="spacingAndGlyphs" textLength="127" x="474" y="254.3198">m_channelTitle: String</text><polygon fill="none" points="465,259.8164,469,263.8164,465,267.8164,461,263.8164" style="stroke: #B38D22; stroke-width: 1.0;"/><text fill="#000000" font-family="sans-serif" font-size="11" lengthAdjust="spacingAndGlyphs" textLength="167" x="474" y="267.1245">m_channelDescription: String</text><polygon fill="none" points="465,272.6211,469,276.6211,465,280.6211,461,276.6211" style="stroke: #B38D22; stroke-width: 1.0;"/><text fill="#000000" font-family="sans-serif" font-size="11" lengthAdjust="spacingAndGlyphs" textLength="158" x="474" y="279.9292">m_channelLanguage: String</text><polygon fill="none" points="465,285.4258,469,289.4258,465,293.4258,461,289.4258" style="stroke: #B38D22; stroke-width: 1.0;"/><text fill="#000000" font-family="sans-serif" font-size="11" lengthAdjust="spacingAndGlyphs" textLength="153" x="474" y="292.7339">m_wikiContext: WikiContext</text><polygon fill="none" points="465,298.2305,469,302.2305,465,306.2305,461,302.2305" style="stroke: #B38D22; stroke-width: 1.0;"/><text fill="#000000" font-family="sans-serif" font-size="11" lengthAdjust="spacingAndGlyphs" textLength="91" x="474" y="305.5386">m_mode: String</text><line style="stroke: #A80036; stroke-width: 1.5;" x1="455" x2="729" y1="312.1328" y2="312.1328"/><ellipse cx="465" cy="324.0352" fill="#84BE84" rx="3" ry="3" style="stroke: #038048; stroke-width: 1.0;"/><text fill="#000000" font-family="sans-serif" font-size="11" lengthAdjust="spacingAndGlyphs" textLength="99" x="474" y="326.3433">Feed(WikiContext)</text><ellipse cx="465" cy="336.8398" fill="#84BE84" rx="3" ry="3" style="stroke: #038048; stroke-width: 1.0;"/><text fill="#000000" font-family="sans-serif" font-size="11" lengthAdjust="spacingAndGlyphs" text-decoration="underline" textLength="187" x="474" y="339.1479">getSiteName(WikiContext): String</text><ellipse cx="465" cy="349.6445" fill="#84BE84" rx="3" ry="3" style="stroke: #038048; stroke-width: 1.0;"/><text fill="#000000" font-family="sans-serif" font-size="11" lengthAdjust="spacingAndGlyphs" textLength="121" x="474" y="351.9526">setMode(String): void</text><ellipse cx="465" cy="362.4492" fill="#84BE84" rx="3" ry="3" style="stroke: #038048; stroke-width: 1.0;"/><text fill="#000000" font-family="sans-serif" font-size="11" lengthAdjust="spacingAndGlyphs" textLength="118" x="474" y="364.7573">addEntry(Entry): void</text><ellipse cx="465" cy="375.2539" fill="#84BE84" rx="3" ry="3" style="stroke: #038048; stroke-width: 1.0;"/><text fill="#000000" font-family="sans-serif" font-size="11" lengthAdjust="spacingAndGlyphs" textLength="178" x="474" y="377.562">getChannelDescription(): String</text><ellipse cx="465" cy="388.0586" fill="#84BE84" rx="3" ry="3" style="stroke: #038048; stroke-width: 1.0;"/><text fill="#000000" font-family="sans-serif" font-size="11" lengthAdjust="spacingAndGlyphs" textLength="201" x="474" y="390.3667">setChannelDescription(String): void</text><ellipse cx="465" cy="400.8633" fill="#84BE84" rx="3" ry="3" style="stroke: #038048; stroke-width: 1.0;"/><text fill="#000000" font-family="sans-serif" font-size="11" lengthAdjust="spacingAndGlyphs" textLength="169" x="474" y="403.1714">getChannelLanguage(): String</text><ellipse cx="465" cy="413.668" fill="#84BE84" rx="3" ry="3" style="stroke: #038048; stroke-width: 1.0;"/><text fill="#000000" font-family="sans-serif" font-size="11" lengthAdjust="spacingAndGlyphs" textLength="192" x="474" y="415.9761">setChannelLanguage(String): void</text><ellipse cx="465" cy="426.4727" fill="#84BE84" rx="3" ry="3" style="stroke: #038048; stroke-width: 1.0;"/><text fill="#000000" font-family="sans-serif" font-size="11" lengthAdjust="spacingAndGlyphs" textLength="138" x="474" y="428.7808">getChannelTitle(): String</text><ellipse cx="465" cy="439.2773" fill="#84BE84" rx="3" ry="3" style="stroke: #038048; stroke-width: 1.0;"/><text fill="#000000" font-family="sans-serif" font-size="11" lengthAdjust="spacingAndGlyphs" textLength="161" x="474" y="441.5854">setChannelTitle(String): void</text><ellipse cx="465" cy="452.082" fill="#84BE84" rx="3" ry="3" style="stroke: #038048; stroke-width: 1.0;"/><text fill="#000000" font-family="sans-serif" font-size="11" lengthAdjust="spacingAndGlyphs" textLength="116" x="474" y="454.3901">getFeedURL(): String</text><ellipse cx="465" cy="464.8867" fill="#84BE84" rx="3" ry="3" style="stroke: #038048; stroke-width: 1.0;"/><text fill="#000000" font-family="sans-serif" font-size="11" lengthAdjust="spacingAndGlyphs" textLength="139" x="474" y="467.1948">setFeedURL(String): void</text><polygon fill="#FFFF44" points="465,472.6914,469,476.6914,465,480.6914,461,476.6914" style="stroke: #B38D22; stroke-width: 1.0;"/><text fill="#000000" font-family="sans-serif" font-size="11" lengthAdjust="spacingAndGlyphs" textLength="250" x="474" y="479.9995">getMimeType(ServletContext, String): String</text><ellipse cx="465" cy="490.4961" fill="#84BE84" rx="3" ry="3" style="stroke: #038048; stroke-width: 1.0;"/><text fill="#000000" font-family="sans-serif" font-size="11" lengthAdjust="spacingAndGlyphs" text-decoration="underline" textLength="122" x="474" y="492.8042">format(String): String</text><ellipse cx="465" cy="503.3008" fill="#84BE84" rx="3" ry="3" style="stroke: #038048; stroke-width: 1.0;"/><text fill="#000000" font-family="sans-serif" font-size="11" font-style="italic" lengthAdjust="spacingAndGlyphs" textLength="100" x="474" y="505.6089">getString(): String</text></a><!--class org.apache.wiki.rss.RSSGenerator--><a href="RSSGenerator.html" target="_top" xlink:actuate="onRequest" xlink:show="new" xlink:title="RSSGenerator.html" xlink:type="simple"><rect fill="#FEFECE" filter="url(#f3ushb5m9jg4u)" height="355.3125" id="org.apache.wiki.rss.RSSGenerator" style="stroke: #A80036; stroke-width: 1.5;" width="397" x="21.5" y="170"/><ellipse cx="171.75" cy="186" fill="#ADD1B2" rx="11" ry="11" style="stroke: #A80036; stroke-width: 1.0;"/><path d="M174.7188,191.6406 Q174.1406,191.9375 173.5,192.0859 Q172.8594,192.2344 172.1563,192.2344 Q169.6563,192.2344 168.3359,190.5859 Q167.0156,188.9375 167.0156,185.8125 Q167.0156,182.6875 168.3359,181.0313 Q169.6563,179.375 172.1563,179.375 Q172.8594,179.375 173.5078,179.5313 Q174.1563,179.6875 174.7188,179.9844 L174.7188,182.7031 Q174.0938,182.125 173.5,181.8516 Q172.9063,181.5781 172.2813,181.5781 Q170.9375,181.5781 170.25,182.6484 Q169.5625,183.7188 169.5625,185.8125 Q169.5625,187.9063 170.25,188.9766 Q170.9375,190.0469 172.2813,190.0469 Q172.9063,190.0469 173.5,189.7734 Q174.0938,189.5 174.7188,188.9219 L174.7188,191.6406 Z "/><text fill="#000000" font-family="sans-serif" font-size="12" lengthAdjust="spacingAndGlyphs" textLength="88" x="192.25" y="190.1543">RSSGenerator</text><line style="stroke: #A80036; stroke-width: 1.5;" x1="22.5" x2="417.5" y1="202" y2="202"/><ellipse cx="32.5" cy="213.9023" fill="none" rx="3" ry="3" style="stroke: #038048; stroke-width: 1.0;"/><text fill="#000000" font-family="sans-serif" font-size="11" lengthAdjust="spacingAndGlyphs" text-decoration="underline" textLength="79" x="41.5" y="216.2104">RSS10: String</text><ellipse cx="32.5" cy="226.707" fill="none" rx="3" ry="3" style="stroke: #038048; stroke-width: 1.0;"/><text fill="#000000" font-family="sans-serif" font-size="11" lengthAdjust="spacingAndGlyphs" text-decoration="underline" textLength="79" x="41.5" y="229.0151">RSS20: String</text><ellipse cx="32.5" cy="239.5117" fill="none" rx="3" ry="3" style="stroke: #038048; stroke-width: 1.0;"/><text fill="#000000" font-family="sans-serif" font-size="11" lengthAdjust="spacingAndGlyphs" text-decoration="underline" textLength="74" x="41.5" y="241.8198">ATOM: String</text><ellipse cx="32.5" cy="252.3164" fill="none" rx="3" ry="3" style="stroke: #038048; stroke-width: 1.0;"/><text fill="#000000" font-family="sans-serif" font-size="11" lengthAdjust="spacingAndGlyphs" text-decoration="underline" textLength="113" x="41.5" y="254.6245">MODE_BLOG: String</text><ellipse cx="32.5" cy="265.1211" fill="none" rx="3" ry="3" style="stroke: #038048; stroke-width: 1.0;"/><text fill="#000000" font-family="sans-serif" font-size="11" lengthAdjust="spacingAndGlyphs" text-decoration="underline" textLength="103" x="41.5" y="267.4292">MODE_WIKI: String</text><ellipse cx="32.5" cy="277.9258" fill="none" rx="3" ry="3" style="stroke: #038048; stroke-width: 1.0;"/><text fill="#000000" font-family="sans-serif" font-size="11" lengthAdjust="spacingAndGlyphs" text-decoration="underline" textLength="107" x="41.5" y="280.2339">MODE_FULL: String</text><ellipse cx="32.5" cy="290.7305" fill="none" rx="3" ry="3" style="stroke: #038048; stroke-width: 1.0;"/><text fill="#000000" font-family="sans-serif" font-size="11" lengthAdjust="spacingAndGlyphs" text-decoration="underline" textLength="211" x="41.5" y="293.0386">PROP_CHANNEL_DESCRIPTION: String</text><ellipse cx="32.5" cy="303.5352" fill="none" rx="3" ry="3" style="stroke: #038048; stroke-width: 1.0;"/><text fill="#000000" font-family="sans-serif" font-size="11" lengthAdjust="spacingAndGlyphs" text-decoration="underline" textLength="197" x="41.5" y="305.8433">PROP_CHANNEL_LANGUAGE: String</text><ellipse cx="32.5" cy="316.3398" fill="none" rx="3" ry="3" style="stroke: #038048; stroke-width: 1.0;"/><text fill="#000000" font-family="sans-serif" font-size="11" lengthAdjust="spacingAndGlyphs" text-decoration="underline" textLength="166" x="41.5" y="318.6479">PROP_CHANNEL_TITLE: String</text><ellipse cx="32.5" cy="329.1445" fill="none" rx="3" ry="3" style="stroke: #038048; stroke-width: 1.0;"/><text fill="#000000" font-family="sans-serif" font-size="11" lengthAdjust="spacingAndGlyphs" text-decoration="underline" textLength="166" x="41.5" y="331.4526">PROP_GENERATE_RSS: String</text><ellipse cx="32.5" cy="341.9492" fill="none" rx="3" ry="3" style="stroke: #038048; stroke-width: 1.0;"/><text fill="#000000" font-family="sans-serif" font-size="11" lengthAdjust="spacingAndGlyphs" text-decoration="underline" textLength="123" x="41.5" y="344.2573">PROP_RSSFILE: String</text><ellipse cx="32.5" cy="354.7539" fill="none" rx="3" ry="3" style="stroke: #038048; stroke-width: 1.0;"/><text fill="#000000" font-family="sans-serif" font-size="11" lengthAdjust="spacingAndGlyphs" text-decoration="underline" textLength="130" x="41.5" y="357.062">PROP_INTERVAL: String</text><ellipse cx="32.5" cy="367.5586" fill="none" rx="3" ry="3" style="stroke: #038048; stroke-width: 1.0;"/><text fill="#000000" font-family="sans-serif" font-size="11" lengthAdjust="spacingAndGlyphs" text-decoration="underline" textLength="153" x="41.5" y="369.8667">PROP_RSS_AUTHOR: String</text><ellipse cx="32.5" cy="380.3633" fill="none" rx="3" ry="3" style="stroke: #038048; stroke-width: 1.0;"/><text fill="#000000" font-family="sans-serif" font-size="11" lengthAdjust="spacingAndGlyphs" text-decoration="underline" textLength="185" x="41.5" y="382.6714">PROP_RSS_AUTHOREMAIL: String</text><line style="stroke: #A80036; stroke-width: 1.5;" x1="22.5" x2="417.5" y1="389.2656" y2="389.2656"/><ellipse cx="32.5" cy="401.168" fill="#84BE84" rx="3" ry="3" style="stroke: #038048; stroke-width: 1.0;"/><text fill="#000000" font-family="sans-serif" font-size="11" lengthAdjust="spacingAndGlyphs" textLength="194" x="41.5" y="403.4761">RSSGenerator(Engine, Properties)</text><ellipse cx="32.5" cy="413.9727" fill="#84BE84" rx="3" ry="3" style="stroke: #038048; stroke-width: 1.0;"/><text fill="#000000" font-family="sans-serif" font-size="11" lengthAdjust="spacingAndGlyphs" text-decoration="underline" textLength="122" x="41.5" y="416.2808">format(String): String</text><ellipse cx="32.5" cy="426.7773" fill="#84BE84" rx="3" ry="3" style="stroke: #038048; stroke-width: 1.0;"/><text fill="#000000" font-family="sans-serif" font-size="11" lengthAdjust="spacingAndGlyphs" textLength="101" x="41.5" y="429.0854">generate(): String</text><ellipse cx="32.5" cy="439.582" fill="#84BE84" rx="3" ry="3" style="stroke: #038048; stroke-width: 1.0;"/><text fill="#000000" font-family="sans-serif" font-size="11" lengthAdjust="spacingAndGlyphs" text-decoration="underline" textLength="173" x="41.5" y="441.8901">getContentType(String): String</text><ellipse cx="32.5" cy="452.3867" fill="#84BE84" rx="3" ry="3" style="stroke: #038048; stroke-width: 1.0;"/><text fill="#000000" font-family="sans-serif" font-size="11" lengthAdjust="spacingAndGlyphs" textLength="371" x="41.5" y="454.6948">generateFeed(WikiContext, List&lt;WikiPage&gt;, String, String): String</text><ellipse cx="32.5" cy="465.1914" fill="#84BE84" rx="3" ry="3" style="stroke: #038048; stroke-width: 1.0;"/><text fill="#000000" font-family="sans-serif" font-size="11" lengthAdjust="spacingAndGlyphs" textLength="116" x="41.5" y="467.4995">isEnabled(): boolean</text><ellipse cx="32.5" cy="477.9961" fill="#84BE84" rx="3" ry="3" style="stroke: #038048; stroke-width: 1.0;"/><text fill="#000000" font-family="sans-serif" font-size="11" lengthAdjust="spacingAndGlyphs" textLength="147" x="41.5" y="480.3042">setEnabled(boolean): void</text><polygon fill="#FFFF44" points="32.5,485.8008,36.5,489.8008,32.5,493.8008,28.5,489.8008" style="stroke: #B38D22; stroke-width: 1.0;"/><text fill="#000000" font-family="sans-serif" font-size="11" lengthAdjust="spacingAndGlyphs" textLength="263" x="41.5" y="493.1089">generateFullWikiRSS(WikiContext, Feed): String</text><polygon fill="#FFFF44" points="32.5,498.6055,36.5,502.6055,32.5,506.6055,28.5,502.6055" style="stroke: #B38D22; stroke-width: 1.0;"/><text fill="#000000" font-family="sans-serif" font-size="11" lengthAdjust="spacingAndGlyphs" textLength="367" x="41.5" y="505.9136">generateWikiPageRSS(WikiContext, List&lt;WikiPage&gt;, Feed): String</text><polygon fill="#FFFF44" points="32.5,511.4102,36.5,515.4102,32.5,519.4102,28.5,515.4102" style="stroke: #B38D22; stroke-width: 1.0;"/><text fill="#000000" font-family="sans-serif" font-size="11" lengthAdjust="spacingAndGlyphs" textLength="343" x="41.5" y="518.7183">generateBlogRSS(WikiContext, List&lt;WikiPage&gt;, Feed): String</text></a><!--class org.apache.wiki.WikiBackgroundThread--><rect fill="#FEFECE" filter="url(#f3ushb5m9jg4u)" height="60.8047" id="org.apache.wiki.WikiBackgroundThread" style="stroke: #A80036; stroke-width: 1.5;" width="176" x="769" y="43"/><ellipse cx="784" cy="59" fill="#A9DCDF" rx="11" ry="11" style="stroke: #A80036; stroke-width: 1.0;"/><path d="M784.1094,54.3438 L782.9531,59.4219 L785.2813,59.4219 L784.1094,54.3438 Z M782.625,52.1094 L785.6094,52.1094 L788.9688,64.5 L786.5156,64.5 L785.75,61.4375 L782.4688,61.4375 L781.7188,64.5 L779.2813,64.5 L782.625,52.1094 Z "/><text fill="#000000" font-family="sans-serif" font-size="12" font-style="italic" lengthAdjust="spacingAndGlyphs" textLength="144" x="798" y="63.1543">WikiBackgroundThread</text><line style="stroke: #A80036; stroke-width: 1.5;" x1="770" x2="944" y1="75" y2="75"/><line style="stroke: #A80036; stroke-width: 1.5;" x1="770" x2="944" y1="83" y2="83"/><ellipse cx="780" cy="94.9023" fill="#84BE84" rx="3" ry="3" style="stroke: #038048; stroke-width: 1.0;"/><text fill="#000000" font-family="sans-serif" font-size="11" font-style="italic" lengthAdjust="spacingAndGlyphs" textLength="132" x="789" y="97.2104">backgroundTask(): void</text><!--link org.apache.wiki.rss.Feed to org.apache.wiki.rss.AtomFeed--><path d="M442.3622,528.1821 C386.9155,595.1319 328.8278,665.2706 292.7758,708.802 " fill="none" id="org.apache.wiki.rss.Feed-org.apache.wiki.rss.AtomFeed" style="stroke: #A80036; stroke-width: 1.0;"/><polygon fill="none" points="437.1115,523.5475,455.2595,512.609,447.8938,532.4773,437.1115,523.5475" style="stroke: #A80036; stroke-width: 1.0;"/><!--link org.apache.wiki.rss.Feed to org.apache.wiki.rss.RSS20Feed--><path d="M619.0314,532.8251 C629.0413,601.4529 639.4331,672.698 645.553,714.6558 " fill="none" id="org.apache.wiki.rss.Feed-org.apache.wiki.rss.RSS20Feed" style="stroke: #A80036; stroke-width: 1.0;"/><polygon fill="none" points="612.0427,533.41,616.0827,512.609,625.8961,531.3893,612.0427,533.41" style="stroke: #A80036; stroke-width: 1.0;"/><!--link org.apache.wiki.WikiBackgroundThread to org.apache.wiki.rss.RSSThread--><path d="M857,124.4276 C857,176.0948 857,255.2147 857,304.0265 " fill="none" id="org.apache.wiki.WikiBackgroundThread-org.apache.wiki.rss.RSSThread" style="stroke: #A80036; stroke-width: 1.0;"/><polygon fill="none" points="850.0001,124.1338,857,104.1337,864.0001,124.1337,850.0001,124.1338" style="stroke: #A80036; stroke-width: 1.0;"/><!--link org.apache.wiki.rss.Feed to org.apache.wiki.rss.RSS10Feed--><path d="M707.3325,529.7343 C751.3629,599.3059 797.4125,672.0678 824.3656,714.6558 " fill="none" id="org.apache.wiki.rss.Feed-org.apache.wiki.rss.RSS10Feed" style="stroke: #A80036; stroke-width: 1.0;"/><polygon fill="none" points="701.2749,533.2524,696.4942,512.609,713.1048,525.7654,701.2749,533.2524" style="stroke: #A80036; stroke-width: 1.0;"/><!--link org.apache.wiki.rss.Feed to org.apache.wiki.rss.Entry--><path d="M535.6711,512.609 C518.6633,562.4614 500.592,615.4315 485.7838,658.8365 " fill="none" id="org.apache.wiki.rss.Feed-org.apache.wiki.rss.Entry" style="stroke: #A80036; stroke-width: 1.0;"/><polygon fill="#A80036" points="484.0865,663.8115,490.7782,656.5851,485.7009,659.0793,483.2067,654.002,484.0865,663.8115" style="stroke: #A80036; stroke-width: 1.0;"/><text fill="#000000" font-family="sans-serif" font-size="13" lengthAdjust="spacingAndGlyphs" textLength="64" x="511" y="599.0669">m_entries</text><text fill="#000000" font-family="sans-serif" font-size="13" lengthAdjust="spacingAndGlyphs" textLength="7" x="479.2882" y="652.9577">*</text><text fill="#888888" font-family="sans-serif" font-size="10" lengthAdjust="spacingAndGlyphs" textLength="186" x="398.5" y="875.2822">UMLDoclet 1.1.4, PlantUML 1.2019.05</text><!--
@startuml

    namespace org.apache.wiki.rss {

        class AtomFeed [[AtomFeed.html]] {
            {static} +RFC3339FORMAT: String
            +AtomFeed(WikiContext)
            +getString(): String
        }

        class Entry [[Entry.html]] {
            +setAuthor(String): void
            +getAuthor(): String
            +getPage(): WikiPage
            +setPage(WikiPage): void
            +setTitle(String): void
            +getTitle(): String
            +setURL(String): void
            +getURL(): String
            +setContent(String): void
            +getContent(): String
        }

        class RSS20Feed [[RSS20Feed.html]] {
            +RSS20Feed(WikiContext)
            +getString(): String
        }

        class RSSThread [[RSSThread.html]] {
            +RSSThread(Engine, File, int)
            +startupTask(): void
            +backgroundTask(): void
        }

        class RSS10Feed [[RSS10Feed.html]] {
            +RSS10Feed(WikiContext)
            +getString(): String
        }

        abstract class Feed [[Feed.html]] {
            {static} +VAR_BLOGNAME: String
            #m_feedURL: String
            #m_channelTitle: String
            #m_channelDescription: String
            #m_channelLanguage: String
            #m_wikiContext: WikiContext
            #m_mode: String
            +Feed(WikiContext)
            {static} +getSiteName(WikiContext): String
            +setMode(String): void
            +addEntry(Entry): void
            +getChannelDescription(): String
            +setChannelDescription(String): void
            +getChannelLanguage(): String
            +setChannelLanguage(String): void
            +getChannelTitle(): String
            +setChannelTitle(String): void
            +getFeedURL(): String
            +setFeedURL(String): void
            #getMimeType(ServletContext, String): String
            {static} +format(String): String
            {abstract} +getString(): String
        }

        class RSSGenerator [[RSSGenerator.html]] {
            {static} +RSS10: String
            {static} +RSS20: String
            {static} +ATOM: String
            {static} +MODE_BLOG: String
            {static} +MODE_WIKI: String
            {static} +MODE_FULL: String
            {static} +PROP_CHANNEL_DESCRIPTION: String
            {static} +PROP_CHANNEL_LANGUAGE: String
            {static} +PROP_CHANNEL_TITLE: String
            {static} +PROP_GENERATE_RSS: String
            {static} +PROP_RSSFILE: String
            {static} +PROP_INTERVAL: String
            {static} +PROP_RSS_AUTHOR: String
            {static} +PROP_RSS_AUTHOREMAIL: String
            +RSSGenerator(Engine, Properties)
            {static} +format(String): String
            +generate(): String
            {static} +getContentType(String): String
            +generateFeed(WikiContext, List<WikiPage>, String, String): String
            +isEnabled(): boolean
            +setEnabled(boolean): void
            #generateFullWikiRSS(WikiContext, Feed): String
            #generateWikiPageRSS(WikiContext, List<WikiPage>, Feed): String
            #generateBlogRSS(WikiContext, List<WikiPage>, Feed): String
        }

        Feed <|- - AtomFeed

        Feed <|- - RSS20Feed

        abstract class org.apache.wiki.WikiBackgroundThread {
            {abstract} +backgroundTask(): void
        }
        org.apache.wiki.WikiBackgroundThread <|- - RSSThread

        Feed <|- - RSS10Feed

        Feed - -> "*" Entry: m_entries

    }


    center footer UMLDoclet 1.1.4, PlantUML 1.2019.05
@enduml

PlantUML version 1.2019.05(Sat Apr 20 16:45:36 UTC 2019)
(APACHE source distribution)
Java Runtime: Java(TM) SE Runtime Environment
JVM: Java HotSpot(TM) 64-Bit Server VM
Java Version: 1.8.0_241-b07
Operating System: Linux
OS Version: 4.15.0-74-generic
Default Encoding: ISO-8859-1
Language: en
Country: US
--></g></svg>