<?xml version="1.0" encoding="UTF-8" standalone="no"?><svg xmlns="http://www.w3.org/2000/svg" xmlns:xlink="http://www.w3.org/1999/xlink" contentScriptType="application/ecmascript" contentStyleType="text/css" height="127px" preserveAspectRatio="none" style="width:202px;height:127px;" version="1.1" viewBox="0 0 202 127" width="202px" zoomAndPan="magnify"><defs><filter height="300%" id="f1im93u4ovnjg6" width="300%" x="-1" y="-1"><feGaussianBlur result="blurOut" stdDeviation="2.0"/><feColorMatrix in="blurOut" result="blurOut2" type="matrix" values="0 0 0 0 0 0 0 0 0 0 0 0 0 0 0 0 0 0 .4 0"/><feOffset dx="4.0" dy="4.0" in="blurOut2" result="blurOut3"/><feBlend in="SourceGraphic" in2="blurOut3" mode="normal"/></filter></defs><g><!--MD5=[48c1a0424b68d58c2410d32168730897]
class org.apache.wiki.api.search.SearchResult--><a href="SearchResult.html" target="_top" title="SearchResult.html" xlink:actuate="onRequest" xlink:href="SearchResult.html" xlink:show="new" xlink:title="SearchResult.html" xlink:type="simple"><rect codeLine="5" fill="#FEFECE" filter="url(#f1im93u4ovnjg6)" height="89.6953" id="org.apache.wiki.api.search.SearchResult" style="stroke: #A80036; stroke-width: 1.5;" width="159" x="15.5" y="7"/><ellipse cx="30.5" cy="27.0938" fill="#B4A7E5" rx="11" ry="11" style="stroke: #A80036; stroke-width: 1.0;"/><path d="M31.4531,23.7344 L31.4531,30.3906 L33.1719,30.3906 Q33.7813,30.3906 34.0469,30.625 Q34.3125,30.8594 34.3125,31.25 Q34.3125,31.625 34.0469,31.8594 Q33.7813,32.0938 33.1719,32.0938 L28.0313,32.0938 Q27.4219,32.0938 27.1563,31.8594 Q26.8906,31.625 26.8906,31.2344 Q26.8906,30.8594 27.1563,30.625 Q27.4219,30.3906 28.0313,30.3906 L29.75,30.3906 L29.75,23.7344 L28.0313,23.7344 Q27.4219,23.7344 27.1563,23.5 Q26.8906,23.2656 26.8906,22.875 Q26.8906,22.5 27.1563,22.2656 Q27.4219,22.0313 28.0313,22.0313 L33.1719,22.0313 Q33.7813,22.0313 34.0469,22.2656 Q34.3125,22.5 34.3125,22.875 Q34.3125,23.2656 34.0469,23.5 Q33.7813,23.7344 33.1719,23.7344 L31.4531,23.7344 Z "/><text fill="#000000" font-family="sans-serif" font-size="14" font-style="italic" lengthAdjust="spacingAndGlyphs" textLength="85" x="65.5" y="26.5332">SearchResult</text><text fill="#000000" font-family="sans-serif" font-size="10" font-style="italic" lengthAdjust="spacingAndGlyphs" textLength="127" x="44.5" y="39.9902">org.apache.wiki.api.search</text><line style="stroke: #A80036; stroke-width: 1.5;" x1="16.5" x2="173.5" y1="47.1875" y2="47.1875"/><ellipse cx="26.5" cy="58.1875" fill="#84BE84" rx="3" ry="3" style="stroke: #038048; stroke-width: 1.0;"/><text fill="#000000" font-family="sans-serif" font-size="11" font-style="italic" lengthAdjust="spacingAndGlyphs" textLength="79" x="35.5" y="62.6064">getPage(): Page</text><ellipse cx="26.5" cy="72.0234" fill="#84BE84" rx="3" ry="3" style="stroke: #038048; stroke-width: 1.0;"/><text fill="#000000" font-family="sans-serif" font-size="11" font-style="italic" lengthAdjust="spacingAndGlyphs" textLength="70" x="35.5" y="76.4424">getScore(): int</text><ellipse cx="26.5" cy="85.8594" fill="#84BE84" rx="3" ry="3" style="stroke: #038048; stroke-width: 1.0;"/><text fill="#000000" font-family="sans-serif" font-size="11" font-style="italic" lengthAdjust="spacingAndGlyphs" textLength="108" x="35.5" y="90.2783">getContexts(): String[]</text></a><text fill="#888888" font-family="sans-serif" font-size="10" lengthAdjust="spacingAndGlyphs" textLength="190" x="0" y="114.0762">UMLDoclet 2.0.12, PlantUML 1.2020.16</text><!--MD5=[9301df1a287327138bb855abc89a3e6f]
@startuml
    set namespaceSeparator none
    hide empty fields
    hide empty methods

    interface "<size:14>SearchResult\n<size:10>org.apache.wiki.api.search" as org.apache.wiki.api.search.SearchResult [[SearchResult.html]] {
        {abstract} +getPage(): Page
        {abstract} +getScore(): int
        {abstract} +getContexts(): String[]
    }

    center footer UMLDoclet 2.0.12, PlantUML 1.2020.16
@enduml

PlantUML version 1.2020.16(Sun Aug 23 22:20:43 CEST 2020)
(APACHE source distribution)
Java Runtime: OpenJDK Runtime Environment
JVM: OpenJDK 64-Bit Server VM
Default Encoding: Cp1252
Language: es
Country: ES
--></g></svg>