<?xml version="1.0" encoding="UTF-8" standalone="no"?><svg xmlns="http://www.w3.org/2000/svg" xmlns:xlink="http://www.w3.org/1999/xlink" contentScriptType="application/ecmascript" contentStyleType="text/css" height="165px" preserveAspectRatio="none" style="width:255px;height:165px;" version="1.1" viewBox="0 0 255 165" width="255px" zoomAndPan="magnify"><defs><filter height="300%" id="f289wbvloc3ah" width="300%" x="-1" y="-1"><feGaussianBlur result="blurOut" stdDeviation="2.0"/><feColorMatrix in="blurOut" result="blurOut2" type="matrix" values="0 0 0 0 0 0 0 0 0 0 0 0 0 0 0 0 0 0 .4 0"/><feOffset dx="4.0" dy="4.0" in="blurOut2" result="blurOut3"/><feBlend in="SourceGraphic" in2="blurOut3" mode="normal"/></filter></defs><g><!--class AclImpl--><a href="AclImpl.html" target="_top" xlink:actuate="onRequest" xlink:show="new" xlink:title="AclImpl.html" xlink:type="simple"><rect fill="#FEFECE" filter="url(#f289wbvloc3ah)" height="124.8281" id="AclImpl" style="stroke: #A80036; stroke-width: 1.5;" width="238" x="6" y="8"/><ellipse cx="99.25" cy="24" fill="#ADD1B2" rx="11" ry="11" style="stroke: #A80036; stroke-width: 1.0;"/><path d="M102.2188,29.6406 Q101.6406,29.9375 101,30.0859 Q100.3594,30.2344 99.6563,30.2344 Q97.1563,30.2344 95.8359,28.5859 Q94.5156,26.9375 94.5156,23.8125 Q94.5156,20.6875 95.8359,19.0313 Q97.1563,17.375 99.6563,17.375 Q100.3594,17.375 101.0078,17.5313 Q101.6563,17.6875 102.2188,17.9844 L102.2188,20.7031 Q101.5938,20.125 101,19.8516 Q100.4063,19.5781 99.7813,19.5781 Q98.4375,19.5781 97.75,20.6484 Q97.0625,21.7188 97.0625,23.8125 Q97.0625,25.9063 97.75,26.9766 Q98.4375,28.0469 99.7813,28.0469 Q100.4063,28.0469 101,27.7734 Q101.5938,27.5 102.2188,26.9219 L102.2188,29.6406 Z "/><text fill="#000000" font-family="sans-serif" font-size="12" lengthAdjust="spacingAndGlyphs" textLength="43" x="119.75" y="28.1543">AclImpl</text><line style="stroke: #A80036; stroke-width: 1.5;" x1="7" x2="243" y1="40" y2="40"/><line style="stroke: #A80036; stroke-width: 1.5;" x1="7" x2="243" y1="48" y2="48"/><ellipse cx="17" cy="59.9023" fill="#84BE84" rx="3" ry="3" style="stroke: #038048; stroke-width: 1.0;"/><text fill="#000000" font-family="sans-serif" font-size="11" lengthAdjust="spacingAndGlyphs" textLength="212" x="26" y="62.2104">findPrincipals(Permission): Principal[]</text><ellipse cx="17" cy="72.707" fill="#84BE84" rx="3" ry="3" style="stroke: #038048; stroke-width: 1.0;"/><text fill="#000000" font-family="sans-serif" font-size="11" lengthAdjust="spacingAndGlyphs" textLength="156" x="26" y="75.0151">addEntry(AclEntry): boolean</text><ellipse cx="17" cy="85.5117" fill="#84BE84" rx="3" ry="3" style="stroke: #038048; stroke-width: 1.0;"/><text fill="#000000" font-family="sans-serif" font-size="11" lengthAdjust="spacingAndGlyphs" textLength="178" x="26" y="87.8198">removeEntry(AclEntry): boolean</text><ellipse cx="17" cy="98.3164" fill="#84BE84" rx="3" ry="3" style="stroke: #038048; stroke-width: 1.0;"/><text fill="#000000" font-family="sans-serif" font-size="11" lengthAdjust="spacingAndGlyphs" textLength="207" x="26" y="100.6245">aclEntries(): Enumeration&lt;AclEntry&gt;</text><ellipse cx="17" cy="111.1211" fill="#84BE84" rx="3" ry="3" style="stroke: #038048; stroke-width: 1.0;"/><text fill="#000000" font-family="sans-serif" font-size="11" lengthAdjust="spacingAndGlyphs" textLength="172" x="26" y="113.4292">getAclEntry(Principal): AclEntry</text><ellipse cx="17" cy="123.9258" fill="#84BE84" rx="3" ry="3" style="stroke: #038048; stroke-width: 1.0;"/><text fill="#000000" font-family="sans-serif" font-size="11" lengthAdjust="spacingAndGlyphs" textLength="106" x="26" y="126.2339">isEmpty(): boolean</text></a><text fill="#888888" font-family="sans-serif" font-size="10" lengthAdjust="spacingAndGlyphs" textLength="186" x="38" y="152.2822">UMLDoclet 1.1.4, PlantUML 1.2019.05</text><!--
@startuml

    class AclImpl [[AclImpl.html]] {
        +findPrincipals(Permission): Principal[]
        +addEntry(AclEntry): boolean
        +removeEntry(AclEntry): boolean
        +aclEntries(): Enumeration<AclEntry>
        +getAclEntry(Principal): AclEntry
        +isEmpty(): boolean
    }


    center footer UMLDoclet 1.1.4, PlantUML 1.2019.05
@enduml

PlantUML version 1.2019.05(Sat Apr 20 16:45:36 UTC 2019)
(APACHE source distribution)
Java Runtime: Java(TM) SE Runtime Environment
JVM: Java HotSpot(TM) 64-Bit Server VM
Java Version: 1.8.0_241-b07
Operating System: Linux
OS Version: 4.15.0-76-generic
Default Encoding: ISO-8859-1
Language: en
Country: US
--></g></svg>