<?xml version="1.0" encoding="UTF-8" standalone="no"?><svg xmlns="http://www.w3.org/2000/svg" xmlns:xlink="http://www.w3.org/1999/xlink" contentScriptType="application/ecmascript" contentStyleType="text/css" height="675px" preserveAspectRatio="none" style="width:1356px;height:675px;" version="1.1" viewBox="0 0 1356 675" width="1356px" zoomAndPan="magnify"><defs><filter height="300%" id="f1agszqzhqtkv8" width="300%" x="-1" y="-1"><feGaussianBlur result="blurOut" stdDeviation="2.0"/><feColorMatrix in="blurOut" result="blurOut2" type="matrix" values="0 0 0 0 0 0 0 0 0 0 0 0 0 0 0 0 0 0 .4 0"/><feOffset dx="4.0" dy="4.0" in="blurOut2" result="blurOut3"/><feBlend in="SourceGraphic" in2="blurOut3" mode="normal"/></filter></defs><g><!--cluster org.apache.wiki.auth.acl--><polygon fill="#FFFFFF" filter="url(#f1agszqzhqtkv8)" points="164,130,362,130,369,152.2969,1190,152.2969,1190,635,164,635,164,130" style="stroke: #000000; stroke-width: 1.5;"/><line style="stroke: #000000; stroke-width: 1.5;" x1="164" x2="369" y1="152.2969" y2="152.2969"/><text fill="#000000" font-family="sans-serif" font-size="14" font-weight="bold" lengthAdjust="spacingAndGlyphs" textLength="192" x="168" y="144.9951">org.apache.wiki.auth.acl</text><!--cluster java.io--><polygon fill="#FFFFFF" filter="url(#f1agszqzhqtkv8)" points="1175,16,1231,16,1238,38.2969,1295,38.2969,1295,99,1175,99,1175,16" style="stroke: #000000; stroke-width: 1.5;"/><line style="stroke: #000000; stroke-width: 1.5;" x1="1175" x2="1238" y1="38.2969" y2="38.2969"/><text fill="#000000" font-family="sans-serif" font-size="14" font-weight="bold" lengthAdjust="spacingAndGlyphs" textLength="50" x="1179" y="30.9951">java.io</text><!--cluster java.security--><polygon fill="#FFFFFF" filter="url(#f1agszqzhqtkv8)" points="14,337,120,337,127,359.2969,156,359.2969,156,433,14,433,14,337" style="stroke: #000000; stroke-width: 1.5;"/><line style="stroke: #000000; stroke-width: 1.5;" x1="14" x2="127" y1="359.2969" y2="359.2969"/><text fill="#000000" font-family="sans-serif" font-size="14" font-weight="bold" lengthAdjust="spacingAndGlyphs" textLength="100" x="18" y="351.9951">java.security</text><!--class org.apache.wiki.auth.acl.AclEntryImpl--><a href="AclEntryImpl.html" target="_top" xlink:actuate="onRequest" xlink:show="new" xlink:title="AclEntryImpl.html" xlink:type="simple"><rect fill="#FEFECE" filter="url(#f1agszqzhqtkv8)" height="99.2188" id="org.apache.wiki.auth.acl.AclEntryImpl" style="stroke: #A80036; stroke-width: 1.5;" width="267" x="379.5" y="515"/><ellipse cx="471.25" cy="531" fill="#ADD1B2" rx="11" ry="11" style="stroke: #A80036; stroke-width: 1.0;"/><path d="M474.2188,536.6406 Q473.6406,536.9375 473,537.0859 Q472.3594,537.2344 471.6563,537.2344 Q469.1563,537.2344 467.8359,535.5859 Q466.5156,533.9375 466.5156,530.8125 Q466.5156,527.6875 467.8359,526.0313 Q469.1563,524.375 471.6563,524.375 Q472.3594,524.375 473.0078,524.5313 Q473.6563,524.6875 474.2188,524.9844 L474.2188,527.7031 Q473.5938,527.125 473,526.8516 Q472.4063,526.5781 471.7813,526.5781 Q470.4375,526.5781 469.75,527.6484 Q469.0625,528.7188 469.0625,530.8125 Q469.0625,532.9063 469.75,533.9766 Q470.4375,535.0469 471.7813,535.0469 Q472.4063,535.0469 473,534.7734 Q473.5938,534.5 474.2188,533.9219 L474.2188,536.6406 Z "/><text fill="#000000" font-family="sans-serif" font-size="12" lengthAdjust="spacingAndGlyphs" textLength="75" x="491.75" y="535.1543">AclEntryImpl</text><line style="stroke: #A80036; stroke-width: 1.5;" x1="380.5" x2="645.5" y1="547" y2="547"/><line style="stroke: #A80036; stroke-width: 1.5;" x1="380.5" x2="645.5" y1="555" y2="555"/><ellipse cx="390.5" cy="566.9023" fill="#84BE84" rx="3" ry="3" style="stroke: #038048; stroke-width: 1.0;"/><text fill="#000000" font-family="sans-serif" font-size="11" lengthAdjust="spacingAndGlyphs" textLength="210" x="399.5" y="569.2104">addPermission(Permission): boolean</text><ellipse cx="390.5" cy="579.707" fill="#84BE84" rx="3" ry="3" style="stroke: #038048; stroke-width: 1.0;"/><text fill="#000000" font-family="sans-serif" font-size="11" lengthAdjust="spacingAndGlyphs" textLength="221" x="399.5" y="582.0151">checkPermission(Permission): boolean</text><ellipse cx="390.5" cy="592.5117" fill="#84BE84" rx="3" ry="3" style="stroke: #038048; stroke-width: 1.0;"/><text fill="#000000" font-family="sans-serif" font-size="11" lengthAdjust="spacingAndGlyphs" textLength="241" x="399.5" y="594.8198">permissions(): Enumeration&lt;Permission&gt;</text><ellipse cx="390.5" cy="605.3164" fill="#84BE84" rx="3" ry="3" style="stroke: #038048; stroke-width: 1.0;"/><text fill="#000000" font-family="sans-serif" font-size="11" lengthAdjust="spacingAndGlyphs" textLength="232" x="399.5" y="607.6245">removePermission(Permission): boolean</text></a><!--class org.apache.wiki.auth.acl.UnresolvedPrincipal--><a href="UnresolvedPrincipal.html" target="_top" xlink:actuate="onRequest" xlink:show="new" xlink:title="UnresolvedPrincipal.html" xlink:type="simple"><rect fill="#FEFECE" filter="url(#f1agszqzhqtkv8)" height="73.6094" id="org.apache.wiki.auth.acl.UnresolvedPrincipal" style="stroke: #A80036; stroke-width: 1.5;" width="180" x="172" y="182.5"/><ellipse cx="198.25" cy="198.5" fill="#ADD1B2" rx="11" ry="11" style="stroke: #A80036; stroke-width: 1.0;"/><path d="M201.2188,204.1406 Q200.6406,204.4375 200,204.5859 Q199.3594,204.7344 198.6563,204.7344 Q196.1563,204.7344 194.8359,203.0859 Q193.5156,201.4375 193.5156,198.3125 Q193.5156,195.1875 194.8359,193.5313 Q196.1563,191.875 198.6563,191.875 Q199.3594,191.875 200.0078,192.0313 Q200.6563,192.1875 201.2188,192.4844 L201.2188,195.2031 Q200.5938,194.625 200,194.3516 Q199.4063,194.0781 198.7813,194.0781 Q197.4375,194.0781 196.75,195.1484 Q196.0625,196.2188 196.0625,198.3125 Q196.0625,200.4063 196.75,201.4766 Q197.4375,202.5469 198.7813,202.5469 Q199.4063,202.5469 200,202.2734 Q200.5938,202 201.2188,201.4219 L201.2188,204.1406 Z "/><text fill="#000000" font-family="sans-serif" font-size="12" lengthAdjust="spacingAndGlyphs" textLength="123" x="214.75" y="202.6543">UnresolvedPrincipal</text><line style="stroke: #A80036; stroke-width: 1.5;" x1="173" x2="351" y1="214.5" y2="214.5"/><line style="stroke: #A80036; stroke-width: 1.5;" x1="173" x2="351" y1="222.5" y2="222.5"/><ellipse cx="183" cy="234.4023" fill="#84BE84" rx="3" ry="3" style="stroke: #038048; stroke-width: 1.0;"/><text fill="#000000" font-family="sans-serif" font-size="11" lengthAdjust="spacingAndGlyphs" textLength="154" x="192" y="236.7104">UnresolvedPrincipal(String)</text><ellipse cx="183" cy="247.207" fill="#84BE84" rx="3" ry="3" style="stroke: #038048; stroke-width: 1.0;"/><text fill="#000000" font-family="sans-serif" font-size="11" lengthAdjust="spacingAndGlyphs" textLength="101" x="192" y="249.5151">getName(): String</text></a><!--class org.apache.wiki.auth.acl.AclImpl--><a href="AclImpl.html" target="_top" xlink:actuate="onRequest" xlink:show="new" xlink:title="AclImpl.html" xlink:type="simple"><rect fill="#FEFECE" filter="url(#f1agszqzhqtkv8)" height="124.8281" id="org.apache.wiki.auth.acl.AclImpl" style="stroke: #A80036; stroke-width: 1.5;" width="238" x="944" y="502"/><ellipse cx="1037.25" cy="518" fill="#ADD1B2" rx="11" ry="11" style="stroke: #A80036; stroke-width: 1.0;"/><path d="M1040.2188,523.6406 Q1039.6406,523.9375 1039,524.0859 Q1038.3594,524.2344 1037.6563,524.2344 Q1035.1563,524.2344 1033.8359,522.5859 Q1032.5156,520.9375 1032.5156,517.8125 Q1032.5156,514.6875 1033.8359,513.0313 Q1035.1563,511.375 1037.6563,511.375 Q1038.3594,511.375 1039.0078,511.5313 Q1039.6563,511.6875 1040.2188,511.9844 L1040.2188,514.7031 Q1039.5938,514.125 1039,513.8516 Q1038.4063,513.5781 1037.7813,513.5781 Q1036.4375,513.5781 1035.75,514.6484 Q1035.0625,515.7188 1035.0625,517.8125 Q1035.0625,519.9063 1035.75,520.9766 Q1036.4375,522.0469 1037.7813,522.0469 Q1038.4063,522.0469 1039,521.7734 Q1039.5938,521.5 1040.2188,520.9219 L1040.2188,523.6406 Z "/><text fill="#000000" font-family="sans-serif" font-size="12" lengthAdjust="spacingAndGlyphs" textLength="43" x="1057.75" y="522.1543">AclImpl</text><line style="stroke: #A80036; stroke-width: 1.5;" x1="945" x2="1181" y1="534" y2="534"/><line style="stroke: #A80036; stroke-width: 1.5;" x1="945" x2="1181" y1="542" y2="542"/><ellipse cx="955" cy="553.9023" fill="#84BE84" rx="3" ry="3" style="stroke: #038048; stroke-width: 1.0;"/><text fill="#000000" font-family="sans-serif" font-size="11" lengthAdjust="spacingAndGlyphs" textLength="212" x="964" y="556.2104">findPrincipals(Permission): Principal[]</text><ellipse cx="955" cy="566.707" fill="#84BE84" rx="3" ry="3" style="stroke: #038048; stroke-width: 1.0;"/><text fill="#000000" font-family="sans-serif" font-size="11" lengthAdjust="spacingAndGlyphs" textLength="156" x="964" y="569.0151">addEntry(AclEntry): boolean</text><ellipse cx="955" cy="579.5117" fill="#84BE84" rx="3" ry="3" style="stroke: #038048; stroke-width: 1.0;"/><text fill="#000000" font-family="sans-serif" font-size="11" lengthAdjust="spacingAndGlyphs" textLength="178" x="964" y="581.8198">removeEntry(AclEntry): boolean</text><ellipse cx="955" cy="592.3164" fill="#84BE84" rx="3" ry="3" style="stroke: #038048; stroke-width: 1.0;"/><text fill="#000000" font-family="sans-serif" font-size="11" lengthAdjust="spacingAndGlyphs" textLength="191" x="964" y="594.6245">entries(): Enumeration&lt;AclEntry&gt;</text><ellipse cx="955" cy="605.1211" fill="#84BE84" rx="3" ry="3" style="stroke: #038048; stroke-width: 1.0;"/><text fill="#000000" font-family="sans-serif" font-size="11" lengthAdjust="spacingAndGlyphs" textLength="156" x="964" y="607.4292">getEntry(Principal): AclEntry</text><ellipse cx="955" cy="617.9258" fill="#84BE84" rx="3" ry="3" style="stroke: #038048; stroke-width: 1.0;"/><text fill="#000000" font-family="sans-serif" font-size="11" lengthAdjust="spacingAndGlyphs" textLength="106" x="964" y="620.2339">isEmpty(): boolean</text></a><!--class org.apache.wiki.auth.acl.AclManager--><a href="AclManager.html" target="_top" xlink:actuate="onRequest" xlink:show="new" xlink:title="AclManager.html" xlink:type="simple"><rect fill="#FEFECE" filter="url(#f1agszqzhqtkv8)" height="99.2188" id="org.apache.wiki.auth.acl.AclManager" style="stroke: #A80036; stroke-width: 1.5;" width="227" x="684.5" y="170"/><ellipse cx="757.25" cy="186" fill="#B4A7E5" rx="11" ry="11" style="stroke: #A80036; stroke-width: 1.0;"/><path d="M753.1719,181.7656 L753.1719,179.6094 L760.5625,179.6094 L760.5625,181.7656 L758.0938,181.7656 L758.0938,189.8438 L760.5625,189.8438 L760.5625,192 L753.1719,192 L753.1719,189.8438 L755.6406,189.8438 L755.6406,181.7656 L753.1719,181.7656 Z "/><text fill="#000000" font-family="sans-serif" font-size="12" font-style="italic" lengthAdjust="spacingAndGlyphs" textLength="73" x="777.75" y="190.1543">AclManager</text><line style="stroke: #A80036; stroke-width: 1.5;" x1="685.5" x2="910.5" y1="202" y2="202"/><line style="stroke: #A80036; stroke-width: 1.5;" x1="685.5" x2="910.5" y1="210" y2="210"/><ellipse cx="695.5" cy="221.9023" fill="#84BE84" rx="3" ry="3" style="stroke: #038048; stroke-width: 1.0;"/><text fill="#000000" font-family="sans-serif" font-size="11" font-style="italic" lengthAdjust="spacingAndGlyphs" textLength="190" x="704.5" y="224.2104">initialize(Engine, Properties): void</text><ellipse cx="695.5" cy="234.707" fill="#84BE84" rx="3" ry="3" style="stroke: #038048; stroke-width: 1.0;"/><text fill="#000000" font-family="sans-serif" font-size="11" font-style="italic" lengthAdjust="spacingAndGlyphs" textLength="174" x="704.5" y="237.0151">parseAcl(WikiPage, String): Acl</text><ellipse cx="695.5" cy="247.5117" fill="#84BE84" rx="3" ry="3" style="stroke: #038048; stroke-width: 1.0;"/><text fill="#000000" font-family="sans-serif" font-size="11" font-style="italic" lengthAdjust="spacingAndGlyphs" textLength="170" x="704.5" y="249.8198">getPermissions(WikiPage): Acl</text><ellipse cx="695.5" cy="260.3164" fill="#84BE84" rx="3" ry="3" style="stroke: #038048; stroke-width: 1.0;"/><text fill="#000000" font-family="sans-serif" font-size="11" font-style="italic" lengthAdjust="spacingAndGlyphs" textLength="201" x="704.5" y="262.6245">setPermissions(WikiPage, Acl): void</text></a><!--class org.apache.wiki.auth.acl.AclEntry--><a href="AclEntry.html" target="_top" xlink:actuate="onRequest" xlink:show="new" xlink:title="AclEntry.html" xlink:type="simple"><rect fill="#FEFECE" filter="url(#f1agszqzhqtkv8)" height="99.2188" id="org.apache.wiki.auth.acl.AclEntry" style="stroke: #A80036; stroke-width: 1.5;" width="262" x="387" y="170"/><ellipse cx="488.25" cy="186" fill="#B4A7E5" rx="11" ry="11" style="stroke: #A80036; stroke-width: 1.0;"/><path d="M484.1719,181.7656 L484.1719,179.6094 L491.5625,179.6094 L491.5625,181.7656 L489.0938,181.7656 L489.0938,189.8438 L491.5625,189.8438 L491.5625,192 L484.1719,192 L484.1719,189.8438 L486.6406,189.8438 L486.6406,181.7656 L484.1719,181.7656 Z "/><text fill="#000000" font-family="sans-serif" font-size="12" font-style="italic" lengthAdjust="spacingAndGlyphs" textLength="51" x="508.75" y="190.1543">AclEntry</text><line style="stroke: #A80036; stroke-width: 1.5;" x1="388" x2="648" y1="202" y2="202"/><line style="stroke: #A80036; stroke-width: 1.5;" x1="388" x2="648" y1="210" y2="210"/><ellipse cx="398" cy="221.9023" fill="#84BE84" rx="3" ry="3" style="stroke: #038048; stroke-width: 1.0;"/><text fill="#000000" font-family="sans-serif" font-size="11" font-style="italic" lengthAdjust="spacingAndGlyphs" textLength="206" x="407" y="224.2104">addPermission(Permission): boolean</text><ellipse cx="398" cy="234.707" fill="#84BE84" rx="3" ry="3" style="stroke: #038048; stroke-width: 1.0;"/><text fill="#000000" font-family="sans-serif" font-size="11" font-style="italic" lengthAdjust="spacingAndGlyphs" textLength="217" x="407" y="237.0151">checkPermission(Permission): boolean</text><ellipse cx="398" cy="247.5117" fill="#84BE84" rx="3" ry="3" style="stroke: #038048; stroke-width: 1.0;"/><text fill="#000000" font-family="sans-serif" font-size="11" font-style="italic" lengthAdjust="spacingAndGlyphs" textLength="236" x="407" y="249.8198">permissions(): Enumeration&lt;Permission&gt;</text><ellipse cx="398" cy="260.3164" fill="#84BE84" rx="3" ry="3" style="stroke: #038048; stroke-width: 1.0;"/><text fill="#000000" font-family="sans-serif" font-size="11" font-style="italic" lengthAdjust="spacingAndGlyphs" textLength="229" x="407" y="262.6245">removePermission(Permission): boolean</text></a><!--class org.apache.wiki.auth.acl.Acl--><a href="Acl.html" target="_top" xlink:actuate="onRequest" xlink:show="new" xlink:title="Acl.html" xlink:type="simple"><rect fill="#FEFECE" filter="url(#f1agszqzhqtkv8)" height="124.8281" id="org.apache.wiki.auth.acl.Acl" style="stroke: #A80036; stroke-width: 1.5;" width="235" x="946.5" y="157"/><ellipse cx="1050.75" cy="173" fill="#B4A7E5" rx="11" ry="11" style="stroke: #A80036; stroke-width: 1.0;"/><path d="M1046.6719,168.7656 L1046.6719,166.6094 L1054.0625,166.6094 L1054.0625,168.7656 L1051.5938,168.7656 L1051.5938,176.8438 L1054.0625,176.8438 L1054.0625,179 L1046.6719,179 L1046.6719,176.8438 L1049.1406,176.8438 L1049.1406,168.7656 L1046.6719,168.7656 Z "/><text fill="#000000" font-family="sans-serif" font-size="12" font-style="italic" lengthAdjust="spacingAndGlyphs" textLength="18" x="1071.25" y="177.1543">Acl</text><line style="stroke: #A80036; stroke-width: 1.5;" x1="947.5" x2="1180.5" y1="189" y2="189"/><line style="stroke: #A80036; stroke-width: 1.5;" x1="947.5" x2="1180.5" y1="197" y2="197"/><ellipse cx="957.5" cy="208.9023" fill="#84BE84" rx="3" ry="3" style="stroke: #038048; stroke-width: 1.0;"/><text fill="#000000" font-family="sans-serif" font-size="11" font-style="italic" lengthAdjust="spacingAndGlyphs" textLength="159" x="966.5" y="211.2104">addEntry(AclEntry): boolean</text><ellipse cx="957.5" cy="221.707" fill="#84BE84" rx="3" ry="3" style="stroke: #038048; stroke-width: 1.0;"/><text fill="#000000" font-family="sans-serif" font-size="11" font-style="italic" lengthAdjust="spacingAndGlyphs" textLength="192" x="966.5" y="224.0151">entries(): Enumeration&lt;AclEntry&gt;</text><ellipse cx="957.5" cy="234.5117" fill="#84BE84" rx="3" ry="3" style="stroke: #038048; stroke-width: 1.0;"/><text fill="#000000" font-family="sans-serif" font-size="11" font-style="italic" lengthAdjust="spacingAndGlyphs" textLength="106" x="966.5" y="236.8198">isEmpty(): boolean</text><ellipse cx="957.5" cy="247.3164" fill="#84BE84" rx="3" ry="3" style="stroke: #038048; stroke-width: 1.0;"/><text fill="#000000" font-family="sans-serif" font-size="11" font-style="italic" lengthAdjust="spacingAndGlyphs" textLength="209" x="966.5" y="249.6245">findPrincipals(Permission): Principal[]</text><ellipse cx="957.5" cy="260.1211" fill="#84BE84" rx="3" ry="3" style="stroke: #038048; stroke-width: 1.0;"/><text fill="#000000" font-family="sans-serif" font-size="11" font-style="italic" lengthAdjust="spacingAndGlyphs" textLength="159" x="966.5" y="262.4292">getEntry(Principal): AclEntry</text><ellipse cx="957.5" cy="272.9258" fill="#84BE84" rx="3" ry="3" style="stroke: #038048; stroke-width: 1.0;"/><text fill="#000000" font-family="sans-serif" font-size="11" font-style="italic" lengthAdjust="spacingAndGlyphs" textLength="182" x="966.5" y="275.2339">removeEntry(AclEntry): boolean</text></a><!--class org.apache.wiki.auth.acl.DefaultAclManager--><a href="DefaultAclManager.html" target="_top" xlink:actuate="onRequest" xlink:show="new" xlink:title="DefaultAclManager.html" xlink:type="simple"><rect fill="#FEFECE" filter="url(#f1agszqzhqtkv8)" height="124.8281" id="org.apache.wiki.auth.acl.DefaultAclManager" style="stroke: #A80036; stroke-width: 1.5;" width="227" x="681.5" y="502"/><ellipse cx="731.75" cy="518" fill="#ADD1B2" rx="11" ry="11" style="stroke: #A80036; stroke-width: 1.0;"/><path d="M734.7188,523.6406 Q734.1406,523.9375 733.5,524.0859 Q732.8594,524.2344 732.1563,524.2344 Q729.6563,524.2344 728.3359,522.5859 Q727.0156,520.9375 727.0156,517.8125 Q727.0156,514.6875 728.3359,513.0313 Q729.6563,511.375 732.1563,511.375 Q732.8594,511.375 733.5078,511.5313 Q734.1563,511.6875 734.7188,511.9844 L734.7188,514.7031 Q734.0938,514.125 733.5,513.8516 Q732.9063,513.5781 732.2813,513.5781 Q730.9375,513.5781 730.25,514.6484 Q729.5625,515.7188 729.5625,517.8125 Q729.5625,519.9063 730.25,520.9766 Q730.9375,522.0469 732.2813,522.0469 Q732.9063,522.0469 733.5,521.7734 Q734.0938,521.5 734.7188,520.9219 L734.7188,523.6406 Z "/><text fill="#000000" font-family="sans-serif" font-size="12" lengthAdjust="spacingAndGlyphs" textLength="118" x="752.25" y="522.1543">DefaultAclManager</text><line style="stroke: #A80036; stroke-width: 1.5;" x1="682.5" x2="907.5" y1="534" y2="534"/><ellipse cx="692.5" cy="545.9023" fill="none" rx="3" ry="3" style="stroke: #038048; stroke-width: 1.0;"/><text fill="#000000" font-family="sans-serif" font-size="11" lengthAdjust="spacingAndGlyphs" text-decoration="underline" textLength="126" x="701.5" y="548.2104">ACL_PATTERN: Pattern</text><line style="stroke: #A80036; stroke-width: 1.5;" x1="682.5" x2="907.5" y1="554.8047" y2="554.8047"/><ellipse cx="692.5" cy="566.707" fill="#84BE84" rx="3" ry="3" style="stroke: #038048; stroke-width: 1.0;"/><text fill="#000000" font-family="sans-serif" font-size="11" lengthAdjust="spacingAndGlyphs" textLength="189" x="701.5" y="569.0151">initialize(Engine, Properties): void</text><ellipse cx="692.5" cy="579.5117" fill="#84BE84" rx="3" ry="3" style="stroke: #038048; stroke-width: 1.0;"/><text fill="#000000" font-family="sans-serif" font-size="11" lengthAdjust="spacingAndGlyphs" textLength="172" x="701.5" y="581.8198">parseAcl(WikiPage, String): Acl</text><ellipse cx="692.5" cy="592.3164" fill="#84BE84" rx="3" ry="3" style="stroke: #038048; stroke-width: 1.0;"/><text fill="#000000" font-family="sans-serif" font-size="11" lengthAdjust="spacingAndGlyphs" textLength="170" x="701.5" y="594.6245">getPermissions(WikiPage): Acl</text><ellipse cx="692.5" cy="605.1211" fill="#84BE84" rx="3" ry="3" style="stroke: #038048; stroke-width: 1.0;"/><text fill="#000000" font-family="sans-serif" font-size="11" lengthAdjust="spacingAndGlyphs" textLength="201" x="701.5" y="607.4292">setPermissions(WikiPage, Acl): void</text><polygon fill="#FFFF44" points="692.5,612.9258,696.5,616.9258,692.5,620.9258,688.5,616.9258" style="stroke: #B38D22; stroke-width: 1.0;"/><text fill="#000000" font-family="sans-serif" font-size="11" lengthAdjust="spacingAndGlyphs" text-decoration="underline" textLength="108" x="701.5" y="620.2339">printAcl(Acl): String</text></a><!--class java.io.Serializable--><rect fill="#FEFECE" filter="url(#f1agszqzhqtkv8)" height="48" id="java.io.Serializable" style="stroke: #A80036; stroke-width: 1.5;" width="103" x="1183.5" y="43"/><ellipse cx="1198.5" cy="59" fill="#B4A7E5" rx="11" ry="11" style="stroke: #A80036; stroke-width: 1.0;"/><path d="M1194.4219,54.7656 L1194.4219,52.6094 L1201.8125,52.6094 L1201.8125,54.7656 L1199.3438,54.7656 L1199.3438,62.8438 L1201.8125,62.8438 L1201.8125,65 L1194.4219,65 L1194.4219,62.8438 L1196.8906,62.8438 L1196.8906,54.7656 L1194.4219,54.7656 Z "/><text fill="#000000" font-family="sans-serif" font-size="12" font-style="italic" lengthAdjust="spacingAndGlyphs" textLength="71" x="1212.5" y="63.1543">Serializable</text><line style="stroke: #A80036; stroke-width: 1.5;" x1="1184.5" x2="1285.5" y1="75" y2="75"/><line style="stroke: #A80036; stroke-width: 1.5;" x1="1184.5" x2="1285.5" y1="83" y2="83"/><!--class java.security.Principal--><rect fill="#FEFECE" filter="url(#f1agszqzhqtkv8)" height="60.8047" id="java.security.Principal" style="stroke: #A80036; stroke-width: 1.5;" width="126" x="22" y="364"/><ellipse cx="55.9" cy="380" fill="#B4A7E5" rx="11" ry="11" style="stroke: #A80036; stroke-width: 1.0;"/><path d="M51.8219,375.7656 L51.8219,373.6094 L59.2125,373.6094 L59.2125,375.7656 L56.7438,375.7656 L56.7438,383.8438 L59.2125,383.8438 L59.2125,386 L51.8219,386 L51.8219,383.8438 L54.2906,383.8438 L54.2906,375.7656 L51.8219,375.7656 Z "/><text fill="#000000" font-family="sans-serif" font-size="12" font-style="italic" lengthAdjust="spacingAndGlyphs" textLength="52" x="74.1" y="384.1543">Principal</text><line style="stroke: #A80036; stroke-width: 1.5;" x1="23" x2="147" y1="396" y2="396"/><line style="stroke: #A80036; stroke-width: 1.5;" x1="23" x2="147" y1="404" y2="404"/><ellipse cx="33" cy="415.9023" fill="#84BE84" rx="3" ry="3" style="stroke: #038048; stroke-width: 1.0;"/><text fill="#000000" font-family="sans-serif" font-size="11" font-style="italic" lengthAdjust="spacingAndGlyphs" textLength="100" x="42" y="418.2104">getName(): String</text><!--link org.apache.wiki.auth.acl.AclEntry to org.apache.wiki.auth.acl.AclEntryImpl--><path d="M516.9871,289.3916 C516.0162,356.3854 514.5751,455.8165 513.7174,514.9972 " fill="none" id="org.apache.wiki.auth.acl.AclEntry-org.apache.wiki.auth.acl.AclEntryImpl" style="stroke: #A80036; stroke-width: 1.0; stroke-dasharray: 7.0,7.0;"/><polygon fill="none" points="509.9891,289.1939,517.2783,269.2975,523.9876,289.3969,509.9891,289.1939" style="stroke: #A80036; stroke-width: 1.0;"/><!--link java.io.Serializable to org.apache.wiki.auth.acl.AclEntryImpl--><path d="M1239.3879,111.5236 C1241.5929,158.8666 1237.708,233.47 1199,282 C1038.6861,482.9931 901.6651,403.9488 664,502 C653.9023,506.1659 643.4266,510.4924 632.915,514.8369 " fill="none" id="java.io.Serializable-org.apache.wiki.auth.acl.AclEntryImpl" style="stroke: #A80036; stroke-width: 1.0; stroke-dasharray: 7.0,7.0;"/><polygon fill="none" points="1232.3854,111.7266,1237.9962,91.2933,1246.3524,110.7657,1232.3854,111.7266" style="stroke: #A80036; stroke-width: 1.0;"/><!--link java.security.Principal to org.apache.wiki.auth.acl.UnresolvedPrincipal--><path d="M130.3961,349.6168 C159.5586,320.7839 196.9829,283.7824 224.4629,256.613 " fill="none" id="java.security.Principal-org.apache.wiki.auth.acl.UnresolvedPrincipal" style="stroke: #A80036; stroke-width: 1.0; stroke-dasharray: 7.0,7.0;"/><polygon fill="none" points="135.1394,354.7709,115.9956,363.8547,125.2963,344.8153,135.1394,354.7709" style="stroke: #A80036; stroke-width: 1.0;"/><!--link java.io.Serializable to org.apache.wiki.auth.acl.UnresolvedPrincipal--><path d="M1163.34,69.7129 C969.1877,77.4149 442.7062,100.7618 370,130 C341.7586,141.3571 315.3475,162.9617 295.7125,182.0988 " fill="none" id="java.io.Serializable-org.apache.wiki.auth.acl.UnresolvedPrincipal" style="stroke: #A80036; stroke-width: 1.0; stroke-dasharray: 7.0,7.0;"/><polygon fill="none" points="1163.208,62.7128,1183.467,68.9234,1163.7567,76.702,1163.208,62.7128" style="stroke: #A80036; stroke-width: 1.0;"/><!--link org.apache.wiki.auth.acl.Acl to org.apache.wiki.auth.acl.AclImpl--><path d="M1063.7589,302.6959 C1063.5813,363.9564 1063.3436,445.9655 1063.1818,501.7641 " fill="none" id="org.apache.wiki.auth.acl.Acl-org.apache.wiki.auth.acl.AclImpl" style="stroke: #A80036; stroke-width: 1.0; stroke-dasharray: 7.0,7.0;"/><polygon fill="none" points="1056.7597,302.3568,1063.8177,282.3772,1070.7596,302.3974,1056.7597,302.3568" style="stroke: #A80036; stroke-width: 1.0;"/><!--link java.io.Serializable to org.apache.wiki.auth.acl.AclImpl--><path d="M1257.7235,109.9153 C1259.0351,113.5944 1260.1597,117.3179 1261,121 C1295.7075,273.0901 1344.7721,340.4012 1261,472 C1242.7649,500.6458 1213.0792,520.5679 1182.1783,534.3648 " fill="none" id="java.io.Serializable-org.apache.wiki.auth.acl.AclImpl" style="stroke: #A80036; stroke-width: 1.0; stroke-dasharray: 7.0,7.0;"/><polygon fill="none" points="1251.1145,112.2748,1249.4809,91.1482,1263.9327,106.6449,1251.1145,112.2748" style="stroke: #A80036; stroke-width: 1.0;"/><!--link org.apache.wiki.auth.acl.AclManager to org.apache.wiki.auth.acl.DefaultAclManager--><path d="M797.39,289.6554 C796.8487,351.898 796.0653,441.987 795.5448,501.8504 " fill="none" id="org.apache.wiki.auth.acl.AclManager-org.apache.wiki.auth.acl.DefaultAclManager" style="stroke: #A80036; stroke-width: 1.0; stroke-dasharray: 7.0,7.0;"/><polygon fill="none" points="790.3932,289.2359,797.567,269.2975,804.3927,289.3577,790.3932,289.2359" style="stroke: #A80036; stroke-width: 1.0;"/><!--link org.apache.wiki.auth.acl.AclEntryImpl to java.security.Principal--><path d="M379.3514,520.4056 C311.5137,496.7385 228.3628,465.7415 156,433 C152.1435,431.2551 148.2093,429.3863 144.2692,427.4472 " fill="none" id="org.apache.wiki.auth.acl.AclEntryImpl-java.security.Principal" style="stroke: #A80036; stroke-width: 1.0;"/><polygon fill="#A80036" points="139.6456,425.1418,145.9147,432.7377,144.1201,427.3731,149.4848,425.5785,139.6456,425.1418" style="stroke: #A80036; stroke-width: 1.0;"/><text fill="#000000" font-family="sans-serif" font-size="13" lengthAdjust="spacingAndGlyphs" textLength="53" x="244" y="468.0669">principal</text><!--link org.apache.wiki.auth.acl.AclEntry to java.security.Principal--><path d="M405.5357,269.0199 C393.6303,273.6524 381.6276,278.0747 370,282 C369.6365,282.1227 156.3427,336.8276 156,337 C143.6328,343.2222 131.4454,351.8855 120.7529,360.6021 " fill="none" id="org.apache.wiki.auth.acl.AclEntry-java.security.Principal" style="stroke: #A80036; stroke-width: 1.0;"/><polygon fill="#A80036" points="116.8836,363.8114,126.3645,361.1445,120.7321,360.6193,121.2572,354.9869,116.8836,363.8114" style="stroke: #A80036; stroke-width: 1.0;"/><text fill="#000000" font-family="sans-serif" font-size="13" lengthAdjust="spacingAndGlyphs" textLength="53" x="252" y="325.0669">principal</text><text fill="#888888" font-family="sans-serif" font-size="10" lengthAdjust="spacingAndGlyphs" textLength="186" x="570" y="662.2822">UMLDoclet 1.1.4, PlantUML 1.2019.05</text><!--
@startuml

    namespace org.apache.wiki.auth.acl {

        class AclEntryImpl [[AclEntryImpl.html]] {
            +addPermission(Permission): boolean
            +checkPermission(Permission): boolean
            +permissions(): Enumeration<Permission>
            +removePermission(Permission): boolean
        }

        class UnresolvedPrincipal [[UnresolvedPrincipal.html]] {
            +UnresolvedPrincipal(String)
            +getName(): String
        }

        class AclImpl [[AclImpl.html]] {
            +findPrincipals(Permission): Principal[]
            +addEntry(AclEntry): boolean
            +removeEntry(AclEntry): boolean
            +entries(): Enumeration<AclEntry>
            +getEntry(Principal): AclEntry
            +isEmpty(): boolean
        }

        interface AclManager [[AclManager.html]] {
            {abstract} +initialize(Engine, Properties): void
            {abstract} +parseAcl(WikiPage, String): Acl
            {abstract} +getPermissions(WikiPage): Acl
            {abstract} +setPermissions(WikiPage, Acl): void
        }

        interface AclEntry [[AclEntry.html]] {
            {abstract} +addPermission(Permission): boolean
            {abstract} +checkPermission(Permission): boolean
            {abstract} +permissions(): Enumeration<Permission>
            {abstract} +removePermission(Permission): boolean
        }

        interface Acl [[Acl.html]] {
            {abstract} +addEntry(AclEntry): boolean
            {abstract} +entries(): Enumeration<AclEntry>
            {abstract} +isEmpty(): boolean
            {abstract} +findPrincipals(Permission): Principal[]
            {abstract} +getEntry(Principal): AclEntry
            {abstract} +removeEntry(AclEntry): boolean
        }

        class DefaultAclManager [[DefaultAclManager.html]] {
            {static} +ACL_PATTERN: Pattern
            +initialize(Engine, Properties): void
            +parseAcl(WikiPage, String): Acl
            +getPermissions(WikiPage): Acl
            +setPermissions(WikiPage, Acl): void
            {static} #printAcl(Acl): String
        }

        AclEntry <|.. AclEntryImpl

        interface java.io.Serializable
        java.io.Serializable <|.. AclEntryImpl

        interface java.security.Principal {
            {abstract} +getName(): String
        }
        java.security.Principal <|.. UnresolvedPrincipal

        java.io.Serializable <|.. UnresolvedPrincipal

        Acl <|.. AclImpl

        java.io.Serializable <|.. AclImpl

        AclManager <|.. DefaultAclManager

        AclEntryImpl - -> java.security.Principal: principal

        AclEntry - -> java.security.Principal: principal

    }


    center footer UMLDoclet 1.1.4, PlantUML 1.2019.05
@enduml

PlantUML version 1.2019.05(Sat Apr 20 16:45:36 UTC 2019)
(APACHE source distribution)
Java Runtime: Java(TM) SE Runtime Environment
JVM: Java HotSpot(TM) 64-Bit Server VM
Java Version: 1.8.0_241-b07
Operating System: Linux
OS Version: 4.15.0-74-generic
Default Encoding: ISO-8859-1
Language: en
Country: US
--></g></svg>