<?xml version="1.0" encoding="UTF-8" standalone="no"?><svg xmlns="http://www.w3.org/2000/svg" xmlns:xlink="http://www.w3.org/1999/xlink" contentScriptType="application/ecmascript" contentStyleType="text/css" height="349px" preserveAspectRatio="none" style="width:1488px;height:349px;" version="1.1" viewBox="0 0 1488 349" width="1488px" zoomAndPan="magnify"><defs><filter height="300%" id="fns6dx8z44dp6" width="300%" x="-1" y="-1"><feGaussianBlur result="blurOut" stdDeviation="2.0"/><feColorMatrix in="blurOut" result="blurOut2" type="matrix" values="0 0 0 0 0 0 0 0 0 0 0 0 0 0 0 0 0 0 .4 0"/><feOffset dx="4.0" dy="4.0" in="blurOut2" result="blurOut3"/><feBlend in="SourceGraphic" in2="blurOut3" mode="normal"/></filter></defs><g><!--cluster org.apache.wiki.spi--><polygon fill="#FFFFFF" filter="url(#fns6dx8z44dp6)" points="14,175,173,175,180,197.2969,1466,197.2969,1466,309,14,309,14,175" style="stroke: #000000; stroke-width: 1.5;"/><line style="stroke: #000000; stroke-width: 1.5;" x1="14" x2="180" y1="197.2969" y2="197.2969"/><text fill="#000000" font-family="sans-serif" font-size="14" font-weight="bold" lengthAdjust="spacingAndGlyphs" textLength="153" x="18" y="189.9951">org.apache.wiki.spi</text><!--cluster org.apache.wiki.api.spi--><polygon fill="#FFFFFF" filter="url(#fns6dx8z44dp6)" points="14,16,201,16,208,38.2969,1440,38.2969,1440,150,14,150,14,16" style="stroke: #000000; stroke-width: 1.5;"/><line style="stroke: #000000; stroke-width: 1.5;" x1="14" x2="208" y1="38.2969" y2="38.2969"/><text fill="#000000" font-family="sans-serif" font-size="14" font-weight="bold" lengthAdjust="spacingAndGlyphs" textLength="181" x="18" y="30.9951">org.apache.wiki.api.spi</text><!--class org.apache.wiki.spi.SessionSPIDefaultImpl--><a href="SessionSPIDefaultImpl.html" target="_top" xlink:actuate="onRequest" xlink:show="new" xlink:title="SessionSPIDefaultImpl.html" xlink:type="simple"><rect fill="#FEFECE" filter="url(#fns6dx8z44dp6)" height="86.4141" id="org.apache.wiki.spi.SessionSPIDefaultImpl" style="stroke: #A80036; stroke-width: 1.5;" width="264" x="1194" y="208.5"/><ellipse cx="1252.75" cy="224.5" fill="#ADD1B2" rx="11" ry="11" style="stroke: #A80036; stroke-width: 1.0;"/><path d="M1255.7188,230.1406 Q1255.1406,230.4375 1254.5,230.5859 Q1253.8594,230.7344 1253.1563,230.7344 Q1250.6563,230.7344 1249.3359,229.0859 Q1248.0156,227.4375 1248.0156,224.3125 Q1248.0156,221.1875 1249.3359,219.5313 Q1250.6563,217.875 1253.1563,217.875 Q1253.8594,217.875 1254.5078,218.0313 Q1255.1563,218.1875 1255.7188,218.4844 L1255.7188,221.2031 Q1255.0938,220.625 1254.5,220.3516 Q1253.9063,220.0781 1253.2813,220.0781 Q1251.9375,220.0781 1251.25,221.1484 Q1250.5625,222.2188 1250.5625,224.3125 Q1250.5625,226.4063 1251.25,227.4766 Q1251.9375,228.5469 1253.2813,228.5469 Q1253.9063,228.5469 1254.5,228.2734 Q1255.0938,228 1255.7188,227.4219 L1255.7188,230.1406 Z "/><text fill="#000000" font-family="sans-serif" font-size="12" lengthAdjust="spacingAndGlyphs" textLength="138" x="1273.25" y="228.6543">SessionSPIDefaultImpl</text><line style="stroke: #A80036; stroke-width: 1.5;" x1="1195" x2="1457" y1="240.5" y2="240.5"/><line style="stroke: #A80036; stroke-width: 1.5;" x1="1195" x2="1457" y1="248.5" y2="248.5"/><ellipse cx="1205" cy="260.4023" fill="#84BE84" rx="3" ry="3" style="stroke: #038048; stroke-width: 1.0;"/><text fill="#000000" font-family="sans-serif" font-size="11" lengthAdjust="spacingAndGlyphs" textLength="237" x="1214" y="262.7104">remove(Engine, HttpServletRequest): void</text><ellipse cx="1205" cy="273.207" fill="#84BE84" rx="3" ry="3" style="stroke: #038048; stroke-width: 1.0;"/><text fill="#000000" font-family="sans-serif" font-size="11" lengthAdjust="spacingAndGlyphs" textLength="238" x="1214" y="275.5151">find(Engine, HttpServletRequest): Session</text><ellipse cx="1205" cy="286.0117" fill="#84BE84" rx="3" ry="3" style="stroke: #038048; stroke-width: 1.0;"/><text fill="#000000" font-family="sans-serif" font-size="11" lengthAdjust="spacingAndGlyphs" textLength="132" x="1214" y="288.3198">guest(Engine): Session</text></a><!--class org.apache.wiki.spi.AclsSPIDefaultImpl--><a href="AclsSPIDefaultImpl.html" target="_top" xlink:actuate="onRequest" xlink:show="new" xlink:title="AclsSPIDefaultImpl.html" xlink:type="simple"><rect fill="#FEFECE" filter="url(#fns6dx8z44dp6)" height="73.6094" id="org.apache.wiki.spi.AclsSPIDefaultImpl" style="stroke: #A80036; stroke-width: 1.5;" width="146" x="1013" y="214.5"/><ellipse cx="1028" cy="230.5" fill="#ADD1B2" rx="11" ry="11" style="stroke: #A80036; stroke-width: 1.0;"/><path d="M1030.9688,236.1406 Q1030.3906,236.4375 1029.75,236.5859 Q1029.1094,236.7344 1028.4063,236.7344 Q1025.9063,236.7344 1024.5859,235.0859 Q1023.2656,233.4375 1023.2656,230.3125 Q1023.2656,227.1875 1024.5859,225.5313 Q1025.9063,223.875 1028.4063,223.875 Q1029.1094,223.875 1029.7578,224.0313 Q1030.4063,224.1875 1030.9688,224.4844 L1030.9688,227.2031 Q1030.3438,226.625 1029.75,226.3516 Q1029.1563,226.0781 1028.5313,226.0781 Q1027.1875,226.0781 1026.5,227.1484 Q1025.8125,228.2188 1025.8125,230.3125 Q1025.8125,232.4063 1026.5,233.4766 Q1027.1875,234.5469 1028.5313,234.5469 Q1029.1563,234.5469 1029.75,234.2734 Q1030.3438,234 1030.9688,233.4219 L1030.9688,236.1406 Z "/><text fill="#000000" font-family="sans-serif" font-size="12" lengthAdjust="spacingAndGlyphs" textLength="114" x="1042" y="234.6543">AclsSPIDefaultImpl</text><line style="stroke: #A80036; stroke-width: 1.5;" x1="1014" x2="1158" y1="246.5" y2="246.5"/><line style="stroke: #A80036; stroke-width: 1.5;" x1="1014" x2="1158" y1="254.5" y2="254.5"/><ellipse cx="1024" cy="266.4023" fill="#84BE84" rx="3" ry="3" style="stroke: #038048; stroke-width: 1.0;"/><text fill="#000000" font-family="sans-serif" font-size="11" lengthAdjust="spacingAndGlyphs" textLength="48" x="1033" y="268.7104">acl(): Acl</text><ellipse cx="1024" cy="279.207" fill="#84BE84" rx="3" ry="3" style="stroke: #038048; stroke-width: 1.0;"/><text fill="#000000" font-family="sans-serif" font-size="11" lengthAdjust="spacingAndGlyphs" textLength="90" x="1033" y="281.5151">entry(): AclEntry</text></a><!--class org.apache.wiki.spi.ContentsSPIDefaultImpl--><a href="ContentsSPIDefaultImpl.html" target="_top" xlink:actuate="onRequest" xlink:show="new" xlink:title="ContentsSPIDefaultImpl.html" xlink:type="simple"><rect fill="#FEFECE" filter="url(#fns6dx8z44dp6)" height="73.6094" id="org.apache.wiki.spi.ContentsSPIDefaultImpl" style="stroke: #A80036; stroke-width: 1.5;" width="292" x="686" y="214.5"/><ellipse cx="754.75" cy="230.5" fill="#ADD1B2" rx="11" ry="11" style="stroke: #A80036; stroke-width: 1.0;"/><path d="M757.7188,236.1406 Q757.1406,236.4375 756.5,236.5859 Q755.8594,236.7344 755.1563,236.7344 Q752.6563,236.7344 751.3359,235.0859 Q750.0156,233.4375 750.0156,230.3125 Q750.0156,227.1875 751.3359,225.5313 Q752.6563,223.875 755.1563,223.875 Q755.8594,223.875 756.5078,224.0313 Q757.1563,224.1875 757.7188,224.4844 L757.7188,227.2031 Q757.0938,226.625 756.5,226.3516 Q755.9063,226.0781 755.2813,226.0781 Q753.9375,226.0781 753.25,227.1484 Q752.5625,228.2188 752.5625,230.3125 Q752.5625,232.4063 753.25,233.4766 Q753.9375,234.5469 755.2813,234.5469 Q755.9063,234.5469 756.5,234.2734 Q757.0938,234 757.7188,233.4219 L757.7188,236.1406 Z "/><text fill="#000000" font-family="sans-serif" font-size="12" lengthAdjust="spacingAndGlyphs" textLength="146" x="775.25" y="234.6543">ContentsSPIDefaultImpl</text><line style="stroke: #A80036; stroke-width: 1.5;" x1="687" x2="977" y1="246.5" y2="246.5"/><line style="stroke: #A80036; stroke-width: 1.5;" x1="687" x2="977" y1="254.5" y2="254.5"/><ellipse cx="697" cy="266.4023" fill="#84BE84" rx="3" ry="3" style="stroke: #038048; stroke-width: 1.0;"/><text fill="#000000" font-family="sans-serif" font-size="11" lengthAdjust="spacingAndGlyphs" textLength="266" x="706" y="268.7104">attachment(Engine, String, String): Attachment</text><ellipse cx="697" cy="279.207" fill="#84BE84" rx="3" ry="3" style="stroke: #038048; stroke-width: 1.0;"/><text fill="#000000" font-family="sans-serif" font-size="11" lengthAdjust="spacingAndGlyphs" textLength="152" x="706" y="281.5151">page(Engine, String): Page</text></a><!--class org.apache.wiki.spi.ContextSPIDefaultImpl--><a href="ContextSPIDefaultImpl.html" target="_top" xlink:actuate="onRequest" xlink:show="new" xlink:title="ContextSPIDefaultImpl.html" xlink:type="simple"><rect fill="#FEFECE" filter="url(#fns6dx8z44dp6)" height="99.2188" id="org.apache.wiki.spi.ContextSPIDefaultImpl" style="stroke: #A80036; stroke-width: 1.5;" width="342" x="309" y="202"/><ellipse cx="407.25" cy="218" fill="#ADD1B2" rx="11" ry="11" style="stroke: #A80036; stroke-width: 1.0;"/><path d="M410.2188,223.6406 Q409.6406,223.9375 409,224.0859 Q408.3594,224.2344 407.6563,224.2344 Q405.1563,224.2344 403.8359,222.5859 Q402.5156,220.9375 402.5156,217.8125 Q402.5156,214.6875 403.8359,213.0313 Q405.1563,211.375 407.6563,211.375 Q408.3594,211.375 409.0078,211.5313 Q409.6563,211.6875 410.2188,211.9844 L410.2188,214.7031 Q409.5938,214.125 409,213.8516 Q408.4063,213.5781 407.7813,213.5781 Q406.4375,213.5781 405.75,214.6484 Q405.0625,215.7188 405.0625,217.8125 Q405.0625,219.9063 405.75,220.9766 Q406.4375,222.0469 407.7813,222.0469 Q408.4063,222.0469 409,221.7734 Q409.5938,221.5 410.2188,220.9219 L410.2188,223.6406 Z "/><text fill="#000000" font-family="sans-serif" font-size="12" lengthAdjust="spacingAndGlyphs" textLength="137" x="427.75" y="222.1543">ContextSPIDefaultImpl</text><line style="stroke: #A80036; stroke-width: 1.5;" x1="310" x2="650" y1="234" y2="234"/><line style="stroke: #A80036; stroke-width: 1.5;" x1="310" x2="650" y1="242" y2="242"/><ellipse cx="320" cy="253.9023" fill="#84BE84" rx="3" ry="3" style="stroke: #038048; stroke-width: 1.0;"/><text fill="#000000" font-family="sans-serif" font-size="11" lengthAdjust="spacingAndGlyphs" textLength="169" x="329" y="256.2104">create(Engine, Page): Context</text><ellipse cx="320" cy="266.707" fill="#84BE84" rx="3" ry="3" style="stroke: #038048; stroke-width: 1.0;"/><text fill="#000000" font-family="sans-serif" font-size="11" lengthAdjust="spacingAndGlyphs" textLength="316" x="329" y="269.0151">create(Engine, HttpServletRequest, Command): Context</text><ellipse cx="320" cy="279.5117" fill="#84BE84" rx="3" ry="3" style="stroke: #038048; stroke-width: 1.0;"/><text fill="#000000" font-family="sans-serif" font-size="11" lengthAdjust="spacingAndGlyphs" textLength="286" x="329" y="281.8198">create(Engine, HttpServletRequest, Page): Context</text><ellipse cx="320" cy="292.3164" fill="#84BE84" rx="3" ry="3" style="stroke: #038048; stroke-width: 1.0;"/><text fill="#000000" font-family="sans-serif" font-size="11" lengthAdjust="spacingAndGlyphs" textLength="292" x="329" y="294.6245">create(Engine, HttpServletRequest, String): Context</text></a><!--class org.apache.wiki.spi.EngineSPIDefaultImpl--><a href="EngineSPIDefaultImpl.html" target="_top" xlink:actuate="onRequest" xlink:show="new" xlink:title="EngineSPIDefaultImpl.html" xlink:type="simple"><rect fill="#FEFECE" filter="url(#fns6dx8z44dp6)" height="60.8047" id="org.apache.wiki.spi.EngineSPIDefaultImpl" style="stroke: #A80036; stroke-width: 1.5;" width="251" x="22.5" y="221"/><ellipse cx="77.75" cy="237" fill="#ADD1B2" rx="11" ry="11" style="stroke: #A80036; stroke-width: 1.0;"/><path d="M80.7188,242.6406 Q80.1406,242.9375 79.5,243.0859 Q78.8594,243.2344 78.1563,243.2344 Q75.6563,243.2344 74.3359,241.5859 Q73.0156,239.9375 73.0156,236.8125 Q73.0156,233.6875 74.3359,232.0313 Q75.6563,230.375 78.1563,230.375 Q78.8594,230.375 79.5078,230.5313 Q80.1563,230.6875 80.7188,230.9844 L80.7188,233.7031 Q80.0938,233.125 79.5,232.8516 Q78.9063,232.5781 78.2813,232.5781 Q76.9375,232.5781 76.25,233.6484 Q75.5625,234.7188 75.5625,236.8125 Q75.5625,238.9063 76.25,239.9766 Q76.9375,241.0469 78.2813,241.0469 Q78.9063,241.0469 79.5,240.7734 Q80.0938,240.5 80.7188,239.9219 L80.7188,242.6406 Z "/><text fill="#000000" font-family="sans-serif" font-size="12" lengthAdjust="spacingAndGlyphs" textLength="132" x="98.25" y="241.1543">EngineSPIDefaultImpl</text><line style="stroke: #A80036; stroke-width: 1.5;" x1="23.5" x2="272.5" y1="253" y2="253"/><line style="stroke: #A80036; stroke-width: 1.5;" x1="23.5" x2="272.5" y1="261" y2="261"/><ellipse cx="33.5" cy="272.9023" fill="#84BE84" rx="3" ry="3" style="stroke: #038048; stroke-width: 1.0;"/><text fill="#000000" font-family="sans-serif" font-size="11" lengthAdjust="spacingAndGlyphs" textLength="225" x="42.5" y="275.2104">find(ServletContext, Properties): Engine</text></a><!--class org.apache.wiki.api.spi.SessionSPI--><rect fill="#FEFECE" filter="url(#fns6dx8z44dp6)" height="86.4141" id="org.apache.wiki.api.spi.SessionSPI" style="stroke: #A80036; stroke-width: 1.5;" width="265" x="1166.5" y="49.5"/><ellipse cx="1261.75" cy="65.5" fill="#B4A7E5" rx="11" ry="11" style="stroke: #A80036; stroke-width: 1.0;"/><path d="M1257.6719,61.2656 L1257.6719,59.1094 L1265.0625,59.1094 L1265.0625,61.2656 L1262.5938,61.2656 L1262.5938,69.3438 L1265.0625,69.3438 L1265.0625,71.5 L1257.6719,71.5 L1257.6719,69.3438 L1260.1406,69.3438 L1260.1406,61.2656 L1257.6719,61.2656 Z "/><text fill="#000000" font-family="sans-serif" font-size="12" font-style="italic" lengthAdjust="spacingAndGlyphs" textLength="66" x="1282.25" y="69.6543">SessionSPI</text><line style="stroke: #A80036; stroke-width: 1.5;" x1="1167.5" x2="1430.5" y1="81.5" y2="81.5"/><line style="stroke: #A80036; stroke-width: 1.5;" x1="1167.5" x2="1430.5" y1="89.5" y2="89.5"/><ellipse cx="1177.5" cy="101.4023" fill="#84BE84" rx="3" ry="3" style="stroke: #038048; stroke-width: 1.0;"/><text fill="#000000" font-family="sans-serif" font-size="11" font-style="italic" lengthAdjust="spacingAndGlyphs" textLength="239" x="1186.5" y="103.7104">remove(Engine, HttpServletRequest): void</text><ellipse cx="1177.5" cy="114.207" fill="#84BE84" rx="3" ry="3" style="stroke: #038048; stroke-width: 1.0;"/><text fill="#000000" font-family="sans-serif" font-size="11" font-style="italic" lengthAdjust="spacingAndGlyphs" textLength="235" x="1186.5" y="116.5151">find(Engine, HttpServletRequest): Session</text><ellipse cx="1177.5" cy="127.0117" fill="#84BE84" rx="3" ry="3" style="stroke: #038048; stroke-width: 1.0;"/><text fill="#000000" font-family="sans-serif" font-size="11" font-style="italic" lengthAdjust="spacingAndGlyphs" textLength="128" x="1186.5" y="129.3198">guest(Engine): Session</text><!--class org.apache.wiki.api.spi.AclsSPI--><rect fill="#FEFECE" filter="url(#fns6dx8z44dp6)" height="73.6094" id="org.apache.wiki.api.spi.AclsSPI" style="stroke: #A80036; stroke-width: 1.5;" width="119" x="1012.5" y="55.5"/><ellipse cx="1047.3" cy="71.5" fill="#B4A7E5" rx="11" ry="11" style="stroke: #A80036; stroke-width: 1.0;"/><path d="M1043.2219,67.2656 L1043.2219,65.1094 L1050.6125,65.1094 L1050.6125,67.2656 L1048.1438,67.2656 L1048.1438,75.3438 L1050.6125,75.3438 L1050.6125,77.5 L1043.2219,77.5 L1043.2219,75.3438 L1045.6906,75.3438 L1045.6906,67.2656 L1043.2219,67.2656 Z "/><text fill="#000000" font-family="sans-serif" font-size="12" font-style="italic" lengthAdjust="spacingAndGlyphs" textLength="43" x="1065.7" y="75.6543">AclsSPI</text><line style="stroke: #A80036; stroke-width: 1.5;" x1="1013.5" x2="1130.5" y1="87.5" y2="87.5"/><line style="stroke: #A80036; stroke-width: 1.5;" x1="1013.5" x2="1130.5" y1="95.5" y2="95.5"/><ellipse cx="1023.5" cy="107.4023" fill="#84BE84" rx="3" ry="3" style="stroke: #038048; stroke-width: 1.0;"/><text fill="#000000" font-family="sans-serif" font-size="11" font-style="italic" lengthAdjust="spacingAndGlyphs" textLength="49" x="1032.5" y="109.7104">acl(): Acl</text><ellipse cx="1023.5" cy="120.207" fill="#84BE84" rx="3" ry="3" style="stroke: #038048; stroke-width: 1.0;"/><text fill="#000000" font-family="sans-serif" font-size="11" font-style="italic" lengthAdjust="spacingAndGlyphs" textLength="93" x="1032.5" y="122.5151">entry(): AclEntry</text><!--class org.apache.wiki.api.spi.ContentsSPI--><rect fill="#FEFECE" filter="url(#fns6dx8z44dp6)" height="73.6094" id="org.apache.wiki.api.spi.ContentsSPI" style="stroke: #A80036; stroke-width: 1.5;" width="291" x="686.5" y="55.5"/><ellipse cx="790.25" cy="71.5" fill="#B4A7E5" rx="11" ry="11" style="stroke: #A80036; stroke-width: 1.0;"/><path d="M786.1719,67.2656 L786.1719,65.1094 L793.5625,65.1094 L793.5625,67.2656 L791.0938,67.2656 L791.0938,75.3438 L793.5625,75.3438 L793.5625,77.5 L786.1719,77.5 L786.1719,75.3438 L788.6406,75.3438 L788.6406,67.2656 L786.1719,67.2656 Z "/><text fill="#000000" font-family="sans-serif" font-size="12" font-style="italic" lengthAdjust="spacingAndGlyphs" textLength="75" x="810.75" y="75.6543">ContentsSPI</text><line style="stroke: #A80036; stroke-width: 1.5;" x1="687.5" x2="976.5" y1="87.5" y2="87.5"/><line style="stroke: #A80036; stroke-width: 1.5;" x1="687.5" x2="976.5" y1="95.5" y2="95.5"/><ellipse cx="697.5" cy="107.4023" fill="#84BE84" rx="3" ry="3" style="stroke: #038048; stroke-width: 1.0;"/><text fill="#000000" font-family="sans-serif" font-size="11" font-style="italic" lengthAdjust="spacingAndGlyphs" textLength="265" x="706.5" y="109.7104">attachment(Engine, String, String): Attachment</text><ellipse cx="697.5" cy="120.207" fill="#84BE84" rx="3" ry="3" style="stroke: #038048; stroke-width: 1.0;"/><text fill="#000000" font-family="sans-serif" font-size="11" font-style="italic" lengthAdjust="spacingAndGlyphs" textLength="151" x="706.5" y="122.5151">page(Engine, String): Page</text><!--class org.apache.wiki.api.spi.ContextSPI--><rect fill="#FEFECE" filter="url(#fns6dx8z44dp6)" height="99.2188" id="org.apache.wiki.api.spi.ContextSPI" style="stroke: #A80036; stroke-width: 1.5;" width="343" x="308.5" y="43"/><ellipse cx="441.75" cy="59" fill="#B4A7E5" rx="11" ry="11" style="stroke: #A80036; stroke-width: 1.0;"/><path d="M437.6719,54.7656 L437.6719,52.6094 L445.0625,52.6094 L445.0625,54.7656 L442.5938,54.7656 L442.5938,62.8438 L445.0625,62.8438 L445.0625,65 L437.6719,65 L437.6719,62.8438 L440.1406,62.8438 L440.1406,54.7656 L437.6719,54.7656 Z "/><text fill="#000000" font-family="sans-serif" font-size="12" font-style="italic" lengthAdjust="spacingAndGlyphs" textLength="68" x="462.25" y="63.1543">ContextSPI</text><line style="stroke: #A80036; stroke-width: 1.5;" x1="309.5" x2="650.5" y1="75" y2="75"/><line style="stroke: #A80036; stroke-width: 1.5;" x1="309.5" x2="650.5" y1="83" y2="83"/><ellipse cx="319.5" cy="94.9023" fill="#84BE84" rx="3" ry="3" style="stroke: #038048; stroke-width: 1.0;"/><text fill="#000000" font-family="sans-serif" font-size="11" font-style="italic" lengthAdjust="spacingAndGlyphs" textLength="170" x="328.5" y="97.2104">create(Engine, Page): Context</text><ellipse cx="319.5" cy="107.707" fill="#84BE84" rx="3" ry="3" style="stroke: #038048; stroke-width: 1.0;"/><text fill="#000000" font-family="sans-serif" font-size="11" font-style="italic" lengthAdjust="spacingAndGlyphs" textLength="317" x="328.5" y="110.0151">create(Engine, HttpServletRequest, Command): Context</text><ellipse cx="319.5" cy="120.5117" fill="#84BE84" rx="3" ry="3" style="stroke: #038048; stroke-width: 1.0;"/><text fill="#000000" font-family="sans-serif" font-size="11" font-style="italic" lengthAdjust="spacingAndGlyphs" textLength="287" x="328.5" y="122.8198">create(Engine, HttpServletRequest, Page): Context</text><ellipse cx="319.5" cy="133.3164" fill="#84BE84" rx="3" ry="3" style="stroke: #038048; stroke-width: 1.0;"/><text fill="#000000" font-family="sans-serif" font-size="11" font-style="italic" lengthAdjust="spacingAndGlyphs" textLength="292" x="328.5" y="135.6245">create(Engine, HttpServletRequest, String): Context</text><!--class org.apache.wiki.api.spi.EngineSPI--><rect fill="#FEFECE" filter="url(#fns6dx8z44dp6)" height="60.8047" id="org.apache.wiki.api.spi.EngineSPI" style="stroke: #A80036; stroke-width: 1.5;" width="251" x="22.5" y="62"/><ellipse cx="112.75" cy="78" fill="#B4A7E5" rx="11" ry="11" style="stroke: #A80036; stroke-width: 1.0;"/><path d="M108.6719,73.7656 L108.6719,71.6094 L116.0625,71.6094 L116.0625,73.7656 L113.5938,73.7656 L113.5938,81.8438 L116.0625,81.8438 L116.0625,84 L108.6719,84 L108.6719,81.8438 L111.1406,81.8438 L111.1406,73.7656 L108.6719,73.7656 Z "/><text fill="#000000" font-family="sans-serif" font-size="12" font-style="italic" lengthAdjust="spacingAndGlyphs" textLength="62" x="133.25" y="82.1543">EngineSPI</text><line style="stroke: #A80036; stroke-width: 1.5;" x1="23.5" x2="272.5" y1="94" y2="94"/><line style="stroke: #A80036; stroke-width: 1.5;" x1="23.5" x2="272.5" y1="102" y2="102"/><ellipse cx="33.5" cy="113.9023" fill="#84BE84" rx="3" ry="3" style="stroke: #038048; stroke-width: 1.0;"/><text fill="#000000" font-family="sans-serif" font-size="11" font-style="italic" lengthAdjust="spacingAndGlyphs" textLength="225" x="42.5" y="116.2104">find(ServletContext, Properties): Engine</text><!--link org.apache.wiki.api.spi.SessionSPI to org.apache.wiki.spi.SessionSPIDefaultImpl--><path d="M1309.6639,155.2985 C1312.6878,173.1061 1315.9106,192.0845 1318.6876,208.4379 " fill="none" id="org.apache.wiki.api.spi.SessionSPI-org.apache.wiki.spi.SessionSPIDefaultImpl" style="stroke: #A80036; stroke-width: 1.0; stroke-dasharray: 7.0,7.0;"/><polygon fill="none" points="1302.7538,156.4174,1306.3066,135.5277,1316.5562,154.0735,1302.7538,156.4174" style="stroke: #A80036; stroke-width: 1.0;"/><!--link org.apache.wiki.api.spi.AclsSPI to org.apache.wiki.spi.AclsSPIDefaultImpl--><path d="M1077.0504,149.8582 C1078.9454,171.3805 1081.0476,195.2553 1082.7382,214.4551 " fill="none" id="org.apache.wiki.api.spi.AclsSPI-org.apache.wiki.spi.AclsSPIDefaultImpl" style="stroke: #A80036; stroke-width: 1.0; stroke-dasharray: 7.0,7.0;"/><polygon fill="none" points="1070.0637,150.3154,1075.2824,129.7784,1084.0097,149.0873,1070.0637,150.3154" style="stroke: #A80036; stroke-width: 1.0;"/><!--link org.apache.wiki.api.spi.ContentsSPI to org.apache.wiki.spi.ContentsSPIDefaultImpl--><path d="M832,149.8582 C832,171.3805 832,195.2553 832,214.4551 " fill="none" id="org.apache.wiki.api.spi.ContentsSPI-org.apache.wiki.spi.ContentsSPIDefaultImpl" style="stroke: #A80036; stroke-width: 1.0; stroke-dasharray: 7.0,7.0;"/><polygon fill="none" points="825.0001,149.7785,832,129.7784,839.0001,149.7784,825.0001,149.7785" style="stroke: #A80036; stroke-width: 1.0;"/><!--link org.apache.wiki.api.spi.ContextSPI to org.apache.wiki.spi.ContextSPIDefaultImpl--><path d="M480,162.6225 C480,175.8282 480,189.3839 480,201.8046 " fill="none" id="org.apache.wiki.api.spi.ContextSPI-org.apache.wiki.spi.ContextSPIDefaultImpl" style="stroke: #A80036; stroke-width: 1.0; stroke-dasharray: 7.0,7.0;"/><polygon fill="none" points="473.0001,162.3724,480,142.3723,487.0001,162.3723,473.0001,162.3724" style="stroke: #A80036; stroke-width: 1.0;"/><!--link org.apache.wiki.api.spi.EngineSPI to org.apache.wiki.spi.EngineSPIDefaultImpl--><path d="M148,143.2697 C148,168.8282 148,198.9643 148,220.9373 " fill="none" id="org.apache.wiki.api.spi.EngineSPI-org.apache.wiki.spi.EngineSPIDefaultImpl" style="stroke: #A80036; stroke-width: 1.0; stroke-dasharray: 7.0,7.0;"/><polygon fill="none" points="141.0001,143.1568,148,123.1568,155.0001,143.1568,141.0001,143.1568" style="stroke: #A80036; stroke-width: 1.0;"/><text fill="#888888" font-family="sans-serif" font-size="10" lengthAdjust="spacingAndGlyphs" textLength="186" x="653" y="336.2822">UMLDoclet 1.1.4, PlantUML 1.2019.05</text><!--
@startuml

    namespace org.apache.wiki.spi {

        class SessionSPIDefaultImpl [[SessionSPIDefaultImpl.html]] {
            +remove(Engine, HttpServletRequest): void
            +find(Engine, HttpServletRequest): Session
            +guest(Engine): Session
        }

        class AclsSPIDefaultImpl [[AclsSPIDefaultImpl.html]] {
            +acl(): Acl
            +entry(): AclEntry
        }

        class ContentsSPIDefaultImpl [[ContentsSPIDefaultImpl.html]] {
            +attachment(Engine, String, String): Attachment
            +page(Engine, String): Page
        }

        class ContextSPIDefaultImpl [[ContextSPIDefaultImpl.html]] {
            +create(Engine, Page): Context
            +create(Engine, HttpServletRequest, Command): Context
            +create(Engine, HttpServletRequest, Page): Context
            +create(Engine, HttpServletRequest, String): Context
        }

        class EngineSPIDefaultImpl [[EngineSPIDefaultImpl.html]] {
            +find(ServletContext, Properties): Engine
        }

        interface org.apache.wiki.api.spi.SessionSPI {
            {abstract} +remove(Engine, HttpServletRequest): void
            {abstract} +find(Engine, HttpServletRequest): Session
            {abstract} +guest(Engine): Session
        }
        org.apache.wiki.api.spi.SessionSPI <|.. SessionSPIDefaultImpl

        interface org.apache.wiki.api.spi.AclsSPI {
            {abstract} +acl(): Acl
            {abstract} +entry(): AclEntry
        }
        org.apache.wiki.api.spi.AclsSPI <|.. AclsSPIDefaultImpl

        interface org.apache.wiki.api.spi.ContentsSPI {
            {abstract} +attachment(Engine, String, String): Attachment
            {abstract} +page(Engine, String): Page
        }
        org.apache.wiki.api.spi.ContentsSPI <|.. ContentsSPIDefaultImpl

        interface org.apache.wiki.api.spi.ContextSPI {
            {abstract} +create(Engine, Page): Context
            {abstract} +create(Engine, HttpServletRequest, Command): Context
            {abstract} +create(Engine, HttpServletRequest, Page): Context
            {abstract} +create(Engine, HttpServletRequest, String): Context
        }
        org.apache.wiki.api.spi.ContextSPI <|.. ContextSPIDefaultImpl

        interface org.apache.wiki.api.spi.EngineSPI {
            {abstract} +find(ServletContext, Properties): Engine
        }
        org.apache.wiki.api.spi.EngineSPI <|.. EngineSPIDefaultImpl

    }


    center footer UMLDoclet 1.1.4, PlantUML 1.2019.05
@enduml

PlantUML version 1.2019.05(Sat Apr 20 16:45:36 UTC 2019)
(APACHE source distribution)
Java Runtime: Java(TM) SE Runtime Environment
JVM: Java HotSpot(TM) 64-Bit Server VM
Java Version: 1.8.0_241-b07
Operating System: Linux
OS Version: 4.15.0-76-generic
Default Encoding: ISO-8859-1
Language: en
Country: US
--></g></svg>