<?xml version="1.0" encoding="UTF-8" standalone="no"?><svg xmlns="http://www.w3.org/2000/svg" xmlns:xlink="http://www.w3.org/1999/xlink" contentScriptType="application/ecmascript" contentStyleType="text/css" height="200px" preserveAspectRatio="none" style="width:231px;height:200px;" version="1.1" viewBox="0 0 231 200" width="231px" zoomAndPan="magnify"><defs><filter height="300%" id="f16arx8lb4owrl" width="300%" x="-1" y="-1"><feGaussianBlur result="blurOut" stdDeviation="2.0"/><feColorMatrix in="blurOut" result="blurOut2" type="matrix" values="0 0 0 0 0 0 0 0 0 0 0 0 0 0 0 0 0 0 .4 0"/><feOffset dx="4.0" dy="4.0" in="blurOut2" result="blurOut3"/><feBlend in="SourceGraphic" in2="blurOut3" mode="normal"/></filter></defs><g><!--class Command--><a href="Command.html" target="_top" xlink:actuate="onRequest" xlink:show="new" xlink:title="Command.html" xlink:type="simple"><rect fill="#FEFECE" filter="url(#f16arx8lb4owrl)" height="158.6875" id="Command" style="stroke: #A80036; stroke-width: 1.5;" width="214" x="6" y="8"/><ellipse cx="79.25" cy="24" fill="#B4A7E5" rx="11" ry="11" style="stroke: #A80036; stroke-width: 1.0;"/><path d="M80.2031,20.6406 L80.2031,27.2969 L81.9219,27.2969 Q82.5313,27.2969 82.7969,27.5313 Q83.0625,27.7656 83.0625,28.1563 Q83.0625,28.5313 82.7969,28.7656 Q82.5313,29 81.9219,29 L76.7813,29 Q76.1719,29 75.9063,28.7656 Q75.6406,28.5313 75.6406,28.1406 Q75.6406,27.7656 75.9063,27.5313 Q76.1719,27.2969 76.7813,27.2969 L78.5,27.2969 L78.5,20.6406 L76.7813,20.6406 Q76.1719,20.6406 75.9063,20.4063 Q75.6406,20.1719 75.6406,19.7813 Q75.6406,19.4063 75.9063,19.1719 Q76.1719,18.9375 76.7813,18.9375 L81.9219,18.9375 Q82.5313,18.9375 82.7969,19.1719 Q83.0625,19.4063 83.0625,19.7813 Q83.0625,20.1719 82.7969,20.4063 Q82.5313,20.6406 81.9219,20.6406 L80.2031,20.6406 Z "/><text fill="#000000" font-family="sans-serif" font-size="12" font-style="italic" lengthAdjust="spacingAndGlyphs" textLength="59" x="99.75" y="28.9102">Command</text><line style="stroke: #A80036; stroke-width: 1.5;" x1="7" x2="219" y1="40" y2="40"/><line style="stroke: #A80036; stroke-width: 1.5;" x1="7" x2="219" y1="48" y2="48"/><ellipse cx="17" cy="60.418" fill="#84BE84" rx="3" ry="3" style="stroke: #038048; stroke-width: 1.0;"/><text fill="#000000" font-family="sans-serif" font-size="11" font-style="italic" lengthAdjust="spacingAndGlyphs" textLength="188" x="26" y="63.4189">targetedCommand(Object): Command</text><ellipse cx="17" cy="74.2539" fill="#84BE84" rx="3" ry="3" style="stroke: #038048; stroke-width: 1.0;"/><text fill="#000000" font-family="sans-serif" font-size="11" font-style="italic" lengthAdjust="spacingAndGlyphs" textLength="142" x="26" y="77.2549">getContentTemplate(): String</text><ellipse cx="17" cy="88.0898" fill="#84BE84" rx="3" ry="3" style="stroke: #038048; stroke-width: 1.0;"/><text fill="#000000" font-family="sans-serif" font-size="11" font-style="italic" lengthAdjust="spacingAndGlyphs" textLength="78" x="26" y="91.0908">getJSP(): String</text><ellipse cx="17" cy="101.9258" fill="#84BE84" rx="3" ry="3" style="stroke: #038048; stroke-width: 1.0;"/><text fill="#000000" font-family="sans-serif" font-size="11" font-style="italic" lengthAdjust="spacingAndGlyphs" textLength="87" x="26" y="104.9268">getName(): String</text><ellipse cx="17" cy="115.7617" fill="#84BE84" rx="3" ry="3" style="stroke: #038048; stroke-width: 1.0;"/><text fill="#000000" font-family="sans-serif" font-size="11" font-style="italic" lengthAdjust="spacingAndGlyphs" textLength="137" x="26" y="118.7627">getRequestContext(): String</text><ellipse cx="17" cy="129.5977" fill="#84BE84" rx="3" ry="3" style="stroke: #038048; stroke-width: 1.0;"/><text fill="#000000" font-family="sans-serif" font-size="11" font-style="italic" lengthAdjust="spacingAndGlyphs" textLength="167" x="26" y="132.5986">requiredPermission(): Permission</text><ellipse cx="17" cy="143.4336" fill="#84BE84" rx="3" ry="3" style="stroke: #038048; stroke-width: 1.0;"/><text fill="#000000" font-family="sans-serif" font-size="11" font-style="italic" lengthAdjust="spacingAndGlyphs" textLength="95" x="26" y="146.4346">getTarget(): Object</text><ellipse cx="17" cy="157.2695" fill="#84BE84" rx="3" ry="3" style="stroke: #038048; stroke-width: 1.0;"/><text fill="#000000" font-family="sans-serif" font-size="11" font-style="italic" lengthAdjust="spacingAndGlyphs" textLength="114" x="26" y="160.2705">getURLPattern(): String</text></a><text fill="#888888" font-family="sans-serif" font-size="10" lengthAdjust="spacingAndGlyphs" textLength="184" x="27" y="187.3809">UMLDoclet 1.1.4, PlantUML 1.2019.05</text><!--
@startuml

    interface Command [[Command.html]] {
        {abstract} +targetedCommand(Object): Command
        {abstract} +getContentTemplate(): String
        {abstract} +getJSP(): String
        {abstract} +getName(): String
        {abstract} +getRequestContext(): String
        {abstract} +requiredPermission(): Permission
        {abstract} +getTarget(): Object
        {abstract} +getURLPattern(): String
    }


    center footer UMLDoclet 1.1.4, PlantUML 1.2019.05
@enduml

PlantUML version 1.2019.05(Sat Apr 20 18:45:36 CEST 2019)
(APACHE source distribution)
Java Runtime: OpenJDK Runtime Environment
JVM: OpenJDK 64-Bit Server VM
Java Version: 1.8.0_212-b03
Operating System: Windows 10
OS Version: 10.0
Default Encoding: Cp1252
Language: es
Country: ES
--></g></svg>