<?xml version="1.0" encoding="UTF-8" standalone="no"?><svg xmlns="http://www.w3.org/2000/svg" xmlns:xlink="http://www.w3.org/1999/xlink" contentScriptType="application/ecmascript" contentStyleType="text/css" height="177px" preserveAspectRatio="none" style="width:516px;height:177px;" version="1.1" viewBox="0 0 516 177" width="516px" zoomAndPan="magnify"><defs><filter height="300%" id="f1mk2766hopmr6" width="300%" x="-1" y="-1"><feGaussianBlur result="blurOut" stdDeviation="2.0"/><feColorMatrix in="blurOut" result="blurOut2" type="matrix" values="0 0 0 0 0 0 0 0 0 0 0 0 0 0 0 0 0 0 .4 0"/><feOffset dx="4.0" dy="4.0" in="blurOut2" result="blurOut3"/><feBlend in="SourceGraphic" in2="blurOut3" mode="normal"/></filter></defs><g><!--cluster DefaultProgressManager--><polygon fill="#FFFFFF" filter="url(#f1mk2766hopmr6)" points="14,16,216,16,223,38.2969,494,38.2969,494,137,14,137,14,16" style="stroke: #000000; stroke-width: 1.5;"/><line style="stroke: #000000; stroke-width: 1.5;" x1="14" x2="223" y1="38.2969" y2="38.2969"/><text fill="#000000" font-family="sans-serif" font-size="14" font-weight="bold" lengthAdjust="spacingAndGlyphs" textLength="196" x="18" y="30.9951">DefaultProgressManager</text><!--class DefaultProgressManager.JSONTracker--><a href="DefaultProgressManager.JSONTracker.html" target="_top" xlink:actuate="onRequest" xlink:show="new" xlink:title="DefaultProgressManager.JSONTracker.html" xlink:type="simple"><rect fill="#FEFECE" filter="url(#f1mk2766hopmr6)" height="86.4141" id="DefaultProgressManager.JSONTracker" style="stroke: #A80036; stroke-width: 1.5;" width="464" x="22" y="43"/><ellipse cx="211.75" cy="59" fill="#ADD1B2" rx="11" ry="11" style="stroke: #A80036; stroke-width: 1.0;"/><path d="M214.7188,64.6406 Q214.1406,64.9375 213.5,65.0781 Q212.8594,65.2344 212.1563,65.2344 Q209.6563,65.2344 208.3281,63.5938 Q207.0156,61.9375 207.0156,58.8125 Q207.0156,55.6875 208.3281,54.0313 Q209.6563,52.375 212.1563,52.375 Q212.8594,52.375 213.5,52.5313 Q214.1563,52.6875 214.7188,52.9844 L214.7188,55.7031 Q214.0938,55.125 213.5,54.8594 Q212.9063,54.5781 212.2813,54.5781 Q210.9375,54.5781 210.25,55.6563 Q209.5625,56.7188 209.5625,58.8125 Q209.5625,60.9063 210.25,61.9844 Q210.9375,63.0469 212.2813,63.0469 Q212.9063,63.0469 213.5,62.7813 Q214.0938,62.5 214.7188,61.9219 L214.7188,64.6406 Z "/><text fill="#000000" font-family="sans-serif" font-size="12" lengthAdjust="spacingAndGlyphs" textLength="76" x="232.25" y="63.1543">JSONTracker</text><line style="stroke: #A80036; stroke-width: 1.5;" x1="23" x2="485" y1="75" y2="75"/><line style="stroke: #A80036; stroke-width: 1.5;" x1="23" x2="485" y1="83" y2="83"/><ellipse cx="33" cy="94.9023" fill="#84BE84" rx="3" ry="3" style="stroke: #038048; stroke-width: 1.0;"/><text fill="#000000" font-family="sans-serif" font-size="11" lengthAdjust="spacingAndGlyphs" textLength="134" x="42" y="97.2104">getProgress(String): int</text><ellipse cx="33" cy="107.707" fill="#84BE84" rx="3" ry="3" style="stroke: #038048; stroke-width: 1.0;"/><text fill="#000000" font-family="sans-serif" font-size="11" lengthAdjust="spacingAndGlyphs" textLength="155" x="42" y="110.0151">getServletMapping(): String</text><ellipse cx="33" cy="120.5117" fill="#84BE84" rx="3" ry="3" style="stroke: #038048; stroke-width: 1.0;"/><text fill="#000000" font-family="sans-serif" font-size="11" lengthAdjust="spacingAndGlyphs" textLength="438" x="42" y="122.8198">service(HttpServletRequest, HttpServletResponse, String, List&lt;String&gt;): void</text></a><text fill="#888888" font-family="sans-serif" font-size="10" lengthAdjust="spacingAndGlyphs" textLength="186" x="167" y="164.2822">UMLDoclet 1.1.4, PlantUML 1.2019.05</text><!--
@startuml

    class DefaultProgressManager.JSONTracker [[DefaultProgressManager.JSONTracker.html]] {
        +getProgress(String): int
        +getServletMapping(): String
        +service(HttpServletRequest, HttpServletResponse, String, List<String>): void
    }


    center footer UMLDoclet 1.1.4, PlantUML 1.2019.05
@enduml

PlantUML version 1.2019.05(Sat Apr 20 16:45:36 UTC 2019)
(APACHE source distribution)
Java Runtime: OpenJDK Runtime Environment
JVM: OpenJDK 64-Bit Server VM
Java Version: 1.8.0_252-b09
Operating System: Linux
OS Version: 4.15.0-66-generic
Default Encoding: ISO-8859-1
Language: en
Country: US
--></g></svg>