<?xml version="1.0" encoding="UTF-8" standalone="no"?><svg xmlns="http://www.w3.org/2000/svg" xmlns:xlink="http://www.w3.org/1999/xlink" contentScriptType="application/ecmascript" contentStyleType="text/css" height="249px" preserveAspectRatio="none" style="width:309px;height:249px;background:#FFFFFF;" version="1.1" viewBox="0 0 309 249" width="309px" zoomAndPan="magnify"><defs><filter height="300%" id="f1ekgqhezo7hgt" width="300%" x="-1" y="-1"><feGaussianBlur result="blurOut" stdDeviation="2.0"/><feColorMatrix in="blurOut" result="blurOut2" type="matrix" values="0 0 0 0 0 0 0 0 0 0 0 0 0 0 0 0 0 0 .4 0"/><feOffset dx="4.0" dy="4.0" in="blurOut2" result="blurOut3"/><feBlend in="SourceGraphic" in2="blurOut3" mode="normal"/></filter></defs><g><!--MD5=[7cd894799be514de630787aa6a4e24b9]
class org.apache.wiki.plugin.Note--><a href="Note.html" target="_top" title="Note.html" xlink:actuate="onRequest" xlink:href="Note.html" xlink:show="new" xlink:title="Note.html" xlink:type="simple"><rect codeLine="5" fill="#FEFECE" filter="url(#f1ekgqhezo7hgt)" height="92.3516" id="org.apache.wiki.plugin.Note" style="stroke:#A80036;stroke-width:1.5;" width="288" x="7" y="126"/><ellipse cx="94.25" cy="144.9688" fill="#ADD1B2" rx="11" ry="11" style="stroke:#A80036;stroke-width:1.0;"/><path d="M97.2188,150.6094 Q96.6406,150.9063 96,151.0469 Q95.3594,151.2031 94.6563,151.2031 Q92.1563,151.2031 90.8281,149.5625 Q89.5156,147.9063 89.5156,144.7813 Q89.5156,141.6563 90.8281,140 Q92.1563,138.3438 94.6563,138.3438 Q95.3594,138.3438 96,138.5 Q96.6563,138.6563 97.2188,138.9531 L97.2188,141.6719 Q96.5938,141.0938 96,140.8281 Q95.4063,140.5469 94.7813,140.5469 Q93.4375,140.5469 92.75,141.625 Q92.0625,142.6875 92.0625,144.7813 Q92.0625,146.875 92.75,147.9531 Q93.4375,149.0156 94.7813,149.0156 Q95.4063,149.0156 96,148.75 Q96.5938,148.4688 97.2188,147.8906 L97.2188,150.6094 Z " fill="#000000"/><text fill="#000000" font-family="sans-serif" font-size="14" lengthAdjust="spacing" textLength="33" x="150.75" y="143.9951">Note</text><text fill="#000000" font-family="sans-serif" font-size="10" lengthAdjust="spacing" textLength="105" x="114.75" y="156.5791">org.apache.wiki.plugin</text><line style="stroke:#A80036;stroke-width:1.5;" x1="8" x2="294" y1="163.9375" y2="163.9375"/><ellipse cx="18" cy="174.9375" rx="3" ry="3" style="stroke:#038048;stroke-width:1.0;fill:none;"/><text fill="#000000" font-family="sans-serif" font-size="11" lengthAdjust="spacing" text-decoration="underline" textLength="150" x="27" y="178.1479">PROP_NOTE_IMAGE: String</text><ellipse cx="18" cy="187.7422" rx="3" ry="3" style="stroke:#038048;stroke-width:1.0;fill:none;"/><text fill="#000000" font-family="sans-serif" font-size="11" lengthAdjust="spacing" text-decoration="underline" textLength="169" x="27" y="190.9526">DEFAULT_NOTE_IMAGE: String</text><line style="stroke:#A80036;stroke-width:1.5;" x1="8" x2="294" y1="197.5469" y2="197.5469"/><ellipse cx="18" cy="208.5469" fill="#84BE84" rx="3" ry="3" style="stroke:#038048;stroke-width:1.0;"/><text fill="#000000" font-family="sans-serif" font-size="11" lengthAdjust="spacing" textLength="262" x="27" y="211.7573">execute(Context, Map&lt;String, String&gt;): String</text></a><!--MD5=[5fde2029f8ce8ab8846f1aaf0f24b94e]
class org.apache.wiki.api.plugin.Plugin--><a href="../api/plugin/Plugin.html" target="_top" title="../api/plugin/Plugin.html" xlink:actuate="onRequest" xlink:href="../api/plugin/Plugin.html" xlink:show="new" xlink:title="../api/plugin/Plugin.html" xlink:type="simple"><rect codeLine="11" fill="#FEFECE" filter="url(#f1ekgqhezo7hgt)" height="58.7422" id="org.apache.wiki.api.plugin.Plugin" style="stroke:#A80036;stroke-width:1.5;" width="287" x="7.5" y="7"/><ellipse cx="82.25" cy="25.9688" fill="#B4A7E5" rx="11" ry="11" style="stroke:#A80036;stroke-width:1.0;"/><path d="M78.1719,21.7344 L78.1719,19.5781 L85.5625,19.5781 L85.5625,21.7344 L83.0938,21.7344 L83.0938,29.8125 L85.5625,29.8125 L85.5625,31.9688 L78.1719,31.9688 L78.1719,29.8125 L80.6406,29.8125 L80.6406,21.7344 L78.1719,21.7344 Z " fill="#000000"/><text fill="#000000" font-family="sans-serif" font-size="14" font-style="italic" lengthAdjust="spacing" textLength="41" x="146.75" y="24.9951">Plugin</text><text fill="#000000" font-family="sans-serif" font-size="10" font-style="italic" lengthAdjust="spacing" textLength="129" x="102.75" y="37.5791">org.apache.wiki.api.plugin</text><line style="stroke:#A80036;stroke-width:1.5;" x1="8.5" x2="293.5" y1="44.9375" y2="44.9375"/><ellipse cx="18.5" cy="55.9375" fill="#84BE84" rx="3" ry="3" style="stroke:#038048;stroke-width:1.0;"/><text fill="#000000" font-family="sans-serif" font-size="11" font-style="italic" lengthAdjust="spacing" textLength="261" x="27.5" y="59.1479">execute(Context, Map&lt;String, String&gt;): String</text></a><!--MD5=[e8106c13669a36b27a05aa2bd7d737ee]
reverse link org.apache.wiki.api.plugin.Plugin to org.apache.wiki.plugin.Note--><path codeLine="15" d="M151,86.53 C151,99.4 151,113.21 151,125.86 " fill="none" id="org.apache.wiki.api.plugin.Plugin-backto-org.apache.wiki.plugin.Note" style="stroke:#A80036;stroke-width:1.0;stroke-dasharray:7.0,7.0;"/><polygon fill="none" points="144,86.14,151,66.14,158,86.14,144,86.14" style="stroke:#A80036;stroke-width:1.0;"/><text fill="#888888" font-family="sans-serif" font-size="10" lengthAdjust="spacing" textLength="192" x="52" y="240.6338">UMLDoclet 2.0.15, PlantUML 1.2021.13</text><!--MD5=[50ba7dd284112549213ac3edd988cb1c]
@startuml
    set namespaceSeparator none
    hide empty fields
    hide empty methods

    class "<size:14>Note\n<size:10>org.apache.wiki.plugin" as org.apache.wiki.plugin.Note [[Note.html]] {
        {static} +PROP_NOTE_IMAGE: String
        {static} +DEFAULT_NOTE_IMAGE: String
        +execute(Context, Map<String, String>): String
    }

    interface "<size:14>Plugin\n<size:10>org.apache.wiki.api.plugin" as org.apache.wiki.api.plugin.Plugin [[../api/plugin/Plugin.html]] {
        {abstract} +execute(Context, Map<String, String>): String
    }

    org.apache.wiki.api.plugin.Plugin <|.. org.apache.wiki.plugin.Note

    center footer UMLDoclet 2.0.15, PlantUML 1.2021.13
@enduml

PlantUML version 1.2021.13(Mon Nov 01 11:38:45 UTC 2021)
(APACHE source distribution)
Java Runtime: OpenJDK Runtime Environment
JVM: OpenJDK 64-Bit Server VM
Default Encoding: UTF-8
Language: en
Country: null
--></g></svg>