<?xml version="1.0" encoding="UTF-8" standalone="no"?><svg xmlns="http://www.w3.org/2000/svg" xmlns:xlink="http://www.w3.org/1999/xlink" contentScriptType="application/ecmascript" contentStyleType="text/css" height="477px" preserveAspectRatio="none" style="width:2343px;height:477px;background:#FFFFFF;" version="1.1" viewBox="0 0 2343 477" width="2343px" zoomAndPan="magnify"><defs><filter height="300%" id="f7u3or4ua6fh2" width="300%" x="-1" y="-1"><feGaussianBlur result="blurOut" stdDeviation="2.0"/><feColorMatrix in="blurOut" result="blurOut2" type="matrix" values="0 0 0 0 0 0 0 0 0 0 0 0 0 0 0 0 0 0 .4 0"/><feOffset dx="4.0" dy="4.0" in="blurOut2" result="blurOut3"/><feBlend in="SourceGraphic" in2="blurOut3" mode="normal"/></filter></defs><g><!--MD5=[c418d6b7a5dbbec883ff2338cca840ff]
cluster org.apache.wiki.auth.permissions--><polygon fill="#FFFFFF" filter="url(#f7u3or4ua6fh2)" points="16,176,288,176,295,198.2969,2326,198.2969,2326,454,16,454,16,176" style="stroke:#000000;stroke-width:1.5;"/><line style="stroke:#000000;stroke-width:1.5;" x1="16" x2="295" y1="198.2969" y2="198.2969"/><text fill="#000000" font-family="sans-serif" font-size="14" font-weight="bold" lengthAdjust="spacing" textLength="266" x="20" y="190.9951">org.apache.wiki.auth.permissions</text><!--MD5=[67892945c51b45dfa1cd11fc454571f7]
cluster java.security--><polygon fill="#FFFFFF" filter="url(#f7u3or4ua6fh2)" points="1007,6,1113,6,1120,28.2969,1510,28.2969,1510,143,1007,143,1007,6" style="stroke:#000000;stroke-width:1.5;"/><line style="stroke:#000000;stroke-width:1.5;" x1="1007" x2="1120" y1="28.2969" y2="28.2969"/><text fill="#000000" font-family="sans-serif" font-size="14" font-weight="bold" lengthAdjust="spacing" textLength="100" x="1011" y="20.9951">java.security</text><!--MD5=[0d852700fdad35b7061d461d6907a324]
cluster java.io--><polygon fill="#FFFFFF" filter="url(#f7u3or4ua6fh2)" points="1595,25,1651,25,1658,47.2969,1731,47.2969,1731,124,1595,124,1595,25" style="stroke:#000000;stroke-width:1.5;"/><line style="stroke:#000000;stroke-width:1.5;" x1="1595" x2="1658" y1="47.2969" y2="47.2969"/><text fill="#000000" font-family="sans-serif" font-size="14" font-weight="bold" lengthAdjust="spacing" textLength="50" x="1599" y="39.9951">java.io</text><!--MD5=[7a2e4b7cb3381e6eec1962ce1fdc6335]
class org.apache.wiki.auth.permissions.WikiPermission--><a href="WikiPermission.html" target="_top" title="WikiPermission.html" xlink:actuate="onRequest" xlink:href="WikiPermission.html" xlink:show="new" xlink:title="WikiPermission.html" xlink:type="simple"><rect codeLine="3" fill="#FEFECE" filter="url(#f7u3or4ua6fh2)" height="188.8516" id="org.apache.wiki.auth.permissions.WikiPermission" style="stroke:#A80036;stroke-width:1.5;" width="303" x="354.5" y="230"/><ellipse cx="455.75" cy="246" fill="#ADD1B2" rx="11" ry="11" style="stroke:#A80036;stroke-width:1.0;"/><path d="M458.7188,251.6406 Q458.1406,251.9375 457.5,252.0781 Q456.8594,252.2344 456.1563,252.2344 Q453.6563,252.2344 452.3281,250.5938 Q451.0156,248.9375 451.0156,245.8125 Q451.0156,242.6875 452.3281,241.0313 Q453.6563,239.375 456.1563,239.375 Q456.8594,239.375 457.5,239.5313 Q458.1563,239.6875 458.7188,239.9844 L458.7188,242.7031 Q458.0938,242.125 457.5,241.8594 Q456.9063,241.5781 456.2813,241.5781 Q454.9375,241.5781 454.25,242.6563 Q453.5625,243.7188 453.5625,245.8125 Q453.5625,247.9063 454.25,248.9844 Q454.9375,250.0469 456.2813,250.0469 Q456.9063,250.0469 457.5,249.7813 Q458.0938,249.5 458.7188,248.9219 L458.7188,251.6406 Z " fill="#000000"/><text fill="#000000" font-family="sans-serif" font-size="12" lengthAdjust="spacing" textLength="92" x="476.25" y="250.1543">WikiPermission</text><line style="stroke:#A80036;stroke-width:1.5;" x1="355.5" x2="656.5" y1="262" y2="262"/><ellipse cx="365.5" cy="273" rx="3" ry="3" style="stroke:#038048;stroke-width:1.0;fill:none;"/><text fill="#000000" font-family="sans-serif" font-size="11" lengthAdjust="spacing" text-decoration="underline" textLength="187" x="374.5" y="276.2104">CREATE_GROUPS_ACTION: String</text><ellipse cx="365.5" cy="285.8047" rx="3" ry="3" style="stroke:#038048;stroke-width:1.0;fill:none;"/><text fill="#000000" font-family="sans-serif" font-size="11" lengthAdjust="spacing" text-decoration="underline" textLength="177" x="374.5" y="289.0151">CREATE_PAGES_ACTION: String</text><ellipse cx="365.5" cy="298.6094" rx="3" ry="3" style="stroke:#038048;stroke-width:1.0;fill:none;"/><text fill="#000000" font-family="sans-serif" font-size="11" lengthAdjust="spacing" text-decoration="underline" textLength="125" x="374.5" y="301.8198">LOGIN_ACTION: String</text><ellipse cx="365.5" cy="311.4141" rx="3" ry="3" style="stroke:#038048;stroke-width:1.0;fill:none;"/><text fill="#000000" font-family="sans-serif" font-size="11" lengthAdjust="spacing" text-decoration="underline" textLength="200" x="374.5" y="314.6245">EDIT_PREFERENCES_ACTION: String</text><ellipse cx="365.5" cy="324.2188" rx="3" ry="3" style="stroke:#038048;stroke-width:1.0;fill:none;"/><text fill="#000000" font-family="sans-serif" font-size="11" lengthAdjust="spacing" text-decoration="underline" textLength="166" x="374.5" y="327.4292">EDIT_PROFILE_ACTION: String</text><ellipse cx="365.5" cy="337.0234" rx="3" ry="3" style="stroke:#038048;stroke-width:1.0;fill:none;"/><text fill="#000000" font-family="sans-serif" font-size="11" lengthAdjust="spacing" text-decoration="underline" textLength="98" x="374.5" y="340.2339">WILDCARD: String</text><line style="stroke:#A80036;stroke-width:1.5;" x1="355.5" x2="656.5" y1="346.8281" y2="346.8281"/><ellipse cx="365.5" cy="357.8281" fill="#84BE84" rx="3" ry="3" style="stroke:#038048;stroke-width:1.0;"/><text fill="#000000" font-family="sans-serif" font-size="11" lengthAdjust="spacing" textLength="169" x="374.5" y="361.0386">WikiPermission(String, String)</text><ellipse cx="365.5" cy="370.6328" fill="#84BE84" rx="3" ry="3" style="stroke:#038048;stroke-width:1.0;"/><text fill="#000000" font-family="sans-serif" font-size="11" lengthAdjust="spacing" textLength="109" x="374.5" y="373.8433">getActions(): String</text><ellipse cx="365.5" cy="383.4375" fill="#84BE84" rx="3" ry="3" style="stroke:#038048;stroke-width:1.0;"/><text fill="#000000" font-family="sans-serif" font-size="11" lengthAdjust="spacing" textLength="89" x="374.5" y="386.6479">getWiki(): String</text><ellipse cx="365.5" cy="396.2422" fill="#84BE84" rx="3" ry="3" style="stroke:#038048;stroke-width:1.0;"/><text fill="#000000" font-family="sans-serif" font-size="11" lengthAdjust="spacing" textLength="166" x="374.5" y="399.4526">implies(Permission): boolean</text><ellipse cx="365.5" cy="409.0469" fill="#84BE84" rx="3" ry="3" style="stroke:#038048;stroke-width:1.0;"/><text fill="#000000" font-family="sans-serif" font-size="11" lengthAdjust="spacing" textLength="277" x="374.5" y="412.2573">newPermissionCollection(): PermissionCollection</text></a><!--MD5=[375413c78504bcf3d280c28699310a8b]
class org.apache.wiki.auth.permissions.AllPermissionCollection--><a href="AllPermissionCollection.html" target="_top" title="AllPermissionCollection.html" xlink:actuate="onRequest" xlink:href="AllPermissionCollection.html" xlink:show="new" xlink:title="AllPermissionCollection.html" xlink:type="simple"><rect codeLine="17" fill="#FEFECE" filter="url(#f7u3or4ua6fh2)" height="124.8281" id="org.apache.wiki.auth.permissions.AllPermissionCollection" style="stroke:#A80036;stroke-width:1.5;" width="333" x="1204.5" y="262"/><ellipse cx="1295.25" cy="278" fill="#ADD1B2" rx="11" ry="11" style="stroke:#A80036;stroke-width:1.0;"/><path d="M1298.2188,283.6406 Q1297.6406,283.9375 1297,284.0781 Q1296.3594,284.2344 1295.6563,284.2344 Q1293.1563,284.2344 1291.8281,282.5938 Q1290.5156,280.9375 1290.5156,277.8125 Q1290.5156,274.6875 1291.8281,273.0313 Q1293.1563,271.375 1295.6563,271.375 Q1296.3594,271.375 1297,271.5313 Q1297.6563,271.6875 1298.2188,271.9844 L1298.2188,274.7031 Q1297.5938,274.125 1297,273.8594 Q1296.4063,273.5781 1295.7813,273.5781 Q1294.4375,273.5781 1293.75,274.6563 Q1293.0625,275.7188 1293.0625,277.8125 Q1293.0625,279.9063 1293.75,280.9844 Q1294.4375,282.0469 1295.7813,282.0469 Q1296.4063,282.0469 1297,281.7813 Q1297.5938,281.5 1298.2188,280.9219 L1298.2188,283.6406 Z " fill="#000000"/><text fill="#000000" font-family="sans-serif" font-size="12" lengthAdjust="spacing" textLength="143" x="1315.75" y="282.1543">AllPermissionCollection</text><line style="stroke:#A80036;stroke-width:1.5;" x1="1205.5" x2="1536.5" y1="294" y2="294"/><polygon fill="none" points="1215.5,300,1219.5,304,1215.5,308,1211.5,304" style="stroke:#B38D22;stroke-width:1.0;"/><text fill="#000000" font-family="sans-serif" font-size="11" lengthAdjust="spacing" textLength="307" x="1224.5" y="308.2104">m_permissions: Hashtable&lt;Permission, Permission&gt;</text><line style="stroke:#A80036;stroke-width:1.5;" x1="1205.5" x2="1536.5" y1="314.8047" y2="314.8047"/><ellipse cx="1215.5" cy="325.8047" fill="#84BE84" rx="3" ry="3" style="stroke:#038048;stroke-width:1.0;"/><text fill="#000000" font-family="sans-serif" font-size="11" lengthAdjust="spacing" textLength="124" x="1224.5" y="329.0151">add(Permission): void</text><ellipse cx="1215.5" cy="338.6094" fill="#84BE84" rx="3" ry="3" style="stroke:#038048;stroke-width:1.0;"/><text fill="#000000" font-family="sans-serif" font-size="11" lengthAdjust="spacing" textLength="223" x="1224.5" y="341.8198">elements(): Enumeration&lt;Permission&gt;</text><ellipse cx="1215.5" cy="351.4141" fill="#84BE84" rx="3" ry="3" style="stroke:#038048;stroke-width:1.0;"/><text fill="#000000" font-family="sans-serif" font-size="11" lengthAdjust="spacing" textLength="166" x="1224.5" y="354.6245">implies(Permission): boolean</text><ellipse cx="1215.5" cy="364.2188" fill="#84BE84" rx="3" ry="3" style="stroke:#038048;stroke-width:1.0;"/><text fill="#000000" font-family="sans-serif" font-size="11" lengthAdjust="spacing" textLength="124" x="1224.5" y="367.4292">isReadOnly(): boolean</text><ellipse cx="1215.5" cy="377.0234" fill="#84BE84" rx="3" ry="3" style="stroke:#038048;stroke-width:1.0;"/><text fill="#000000" font-family="sans-serif" font-size="11" lengthAdjust="spacing" textLength="110" x="1224.5" y="380.2339">setReadOnly(): void</text></a><!--MD5=[e0f477eb916859a8de6f36b1caf1ed96]
class org.apache.wiki.auth.permissions.GroupPermission--><a href="GroupPermission.html" target="_top" title="GroupPermission.html" xlink:actuate="onRequest" xlink:href="GroupPermission.html" xlink:show="new" xlink:title="GroupPermission.html" xlink:type="simple"><rect codeLine="26" fill="#FEFECE" filter="url(#f7u3or4ua6fh2)" height="163.2422" id="org.apache.wiki.auth.permissions.GroupPermission" style="stroke:#A80036;stroke-width:1.5;" width="209" x="32.5" y="243"/><ellipse cx="79.75" cy="259" fill="#ADD1B2" rx="11" ry="11" style="stroke:#A80036;stroke-width:1.0;"/><path d="M82.7188,264.6406 Q82.1406,264.9375 81.5,265.0781 Q80.8594,265.2344 80.1563,265.2344 Q77.6563,265.2344 76.3281,263.5938 Q75.0156,261.9375 75.0156,258.8125 Q75.0156,255.6875 76.3281,254.0313 Q77.6563,252.375 80.1563,252.375 Q80.8594,252.375 81.5,252.5313 Q82.1563,252.6875 82.7188,252.9844 L82.7188,255.7031 Q82.0938,255.125 81.5,254.8594 Q80.9063,254.5781 80.2813,254.5781 Q78.9375,254.5781 78.25,255.6563 Q77.5625,256.7188 77.5625,258.8125 Q77.5625,260.9063 78.25,261.9844 Q78.9375,263.0469 80.2813,263.0469 Q80.9063,263.0469 81.5,262.7813 Q82.0938,262.5 82.7188,261.9219 L82.7188,264.6406 Z " fill="#000000"/><text fill="#000000" font-family="sans-serif" font-size="12" lengthAdjust="spacing" textLength="106" x="100.25" y="263.1543">GroupPermission</text><line style="stroke:#A80036;stroke-width:1.5;" x1="33.5" x2="240.5" y1="275" y2="275"/><ellipse cx="43.5" cy="286" rx="3" ry="3" style="stroke:#038048;stroke-width:1.0;fill:none;"/><text fill="#000000" font-family="sans-serif" font-size="11" lengthAdjust="spacing" text-decoration="underline" textLength="133" x="52.5" y="289.2104">MEMBER_TOKEN: String</text><ellipse cx="43.5" cy="298.8047" rx="3" ry="3" style="stroke:#038048;stroke-width:1.0;fill:none;"/><text fill="#000000" font-family="sans-serif" font-size="11" lengthAdjust="spacing" text-decoration="underline" textLength="132" x="52.5" y="302.0151">DELETE_ACTION: String</text><ellipse cx="43.5" cy="311.6094" rx="3" ry="3" style="stroke:#038048;stroke-width:1.0;fill:none;"/><text fill="#000000" font-family="sans-serif" font-size="11" lengthAdjust="spacing" text-decoration="underline" textLength="115" x="52.5" y="314.8198">EDIT_ACTION: String</text><ellipse cx="43.5" cy="324.4141" rx="3" ry="3" style="stroke:#038048;stroke-width:1.0;fill:none;"/><text fill="#000000" font-family="sans-serif" font-size="11" lengthAdjust="spacing" text-decoration="underline" textLength="116" x="52.5" y="327.6245">VIEW_ACTION: String</text><line style="stroke:#A80036;stroke-width:1.5;" x1="33.5" x2="240.5" y1="334.2188" y2="334.2188"/><ellipse cx="43.5" cy="345.2188" fill="#84BE84" rx="3" ry="3" style="stroke:#038048;stroke-width:1.0;"/><text fill="#000000" font-family="sans-serif" font-size="11" lengthAdjust="spacing" textLength="183" x="52.5" y="348.4292">GroupPermission(String, String)</text><ellipse cx="43.5" cy="358.0234" fill="#84BE84" rx="3" ry="3" style="stroke:#038048;stroke-width:1.0;"/><text fill="#000000" font-family="sans-serif" font-size="11" lengthAdjust="spacing" textLength="109" x="52.5" y="361.2339">getActions(): String</text><ellipse cx="43.5" cy="370.8281" fill="#84BE84" rx="3" ry="3" style="stroke:#038048;stroke-width:1.0;"/><text fill="#000000" font-family="sans-serif" font-size="11" lengthAdjust="spacing" textLength="103" x="52.5" y="374.0386">getGroup(): String</text><ellipse cx="43.5" cy="383.6328" fill="#84BE84" rx="3" ry="3" style="stroke:#038048;stroke-width:1.0;"/><text fill="#000000" font-family="sans-serif" font-size="11" lengthAdjust="spacing" textLength="89" x="52.5" y="386.8433">getWiki(): String</text><ellipse cx="43.5" cy="396.4375" fill="#84BE84" rx="3" ry="3" style="stroke:#038048;stroke-width:1.0;"/><text fill="#000000" font-family="sans-serif" font-size="11" lengthAdjust="spacing" textLength="166" x="52.5" y="399.6479">implies(Permission): boolean</text></a><!--MD5=[dd4319673e9e0932655c6ee819ddd95a]
class org.apache.wiki.auth.permissions.PermissionFactory--><a href="PermissionFactory.html" target="_top" title="PermissionFactory.html" xlink:actuate="onRequest" xlink:href="PermissionFactory.html" xlink:show="new" xlink:title="PermissionFactory.html" xlink:type="simple"><rect codeLine="38" fill="#FEFECE" filter="url(#f7u3or4ua6fh2)" height="73.6094" id="org.apache.wiki.auth.permissions.PermissionFactory" style="stroke:#A80036;stroke-width:1.5;" width="320" x="849" y="287.5"/><ellipse cx="947.75" cy="303.5" fill="#ADD1B2" rx="11" ry="11" style="stroke:#A80036;stroke-width:1.0;"/><path d="M950.7188,309.1406 Q950.1406,309.4375 949.5,309.5781 Q948.8594,309.7344 948.1563,309.7344 Q945.6563,309.7344 944.3281,308.0938 Q943.0156,306.4375 943.0156,303.3125 Q943.0156,300.1875 944.3281,298.5313 Q945.6563,296.875 948.1563,296.875 Q948.8594,296.875 949.5,297.0313 Q950.1563,297.1875 950.7188,297.4844 L950.7188,300.2031 Q950.0938,299.625 949.5,299.3594 Q948.9063,299.0781 948.2813,299.0781 Q946.9375,299.0781 946.25,300.1563 Q945.5625,301.2188 945.5625,303.3125 Q945.5625,305.4063 946.25,306.4844 Q946.9375,307.5469 948.2813,307.5469 Q948.9063,307.5469 949.5,307.2813 Q950.0938,307 950.7188,306.4219 L950.7188,309.1406 Z " fill="#000000"/><text fill="#000000" font-family="sans-serif" font-size="12" lengthAdjust="spacing" textLength="114" x="968.25" y="307.6543">PermissionFactory</text><line style="stroke:#A80036;stroke-width:1.5;" x1="850" x2="1168" y1="319.5" y2="319.5"/><line style="stroke:#A80036;stroke-width:1.5;" x1="850" x2="1168" y1="327.5" y2="327.5"/><ellipse cx="860" cy="338.5" fill="#84BE84" rx="3" ry="3" style="stroke:#038048;stroke-width:1.0;"/><text fill="#000000" font-family="sans-serif" font-size="11" lengthAdjust="spacing" text-decoration="underline" textLength="288" x="869" y="341.7104">getPagePermission(Page, String): PagePermission</text><ellipse cx="860" cy="351.3047" fill="#84BE84" rx="3" ry="3" style="stroke:#038048;stroke-width:1.0;"/><text fill="#000000" font-family="sans-serif" font-size="11" lengthAdjust="spacing" text-decoration="underline" textLength="294" x="869" y="354.5151">getPagePermission(String, String): PagePermission</text></a><!--MD5=[c4d86b2e3fdc87414ad724421a6fcc9a]
class org.apache.wiki.auth.permissions.PagePermission--><a href="PagePermission.html" target="_top" title="PagePermission.html" xlink:actuate="onRequest" xlink:href="PagePermission.html" xlink:show="new" xlink:title="PagePermission.html" xlink:type="simple"><rect codeLine="43" fill="#FEFECE" filter="url(#f7u3or4ua6fh2)" height="227.2656" id="org.apache.wiki.auth.permissions.PagePermission" style="stroke:#A80036;stroke-width:1.5;" width="303" x="1572.5" y="211"/><ellipse cx="1669.75" cy="227" fill="#ADD1B2" rx="11" ry="11" style="stroke:#A80036;stroke-width:1.0;"/><path d="M1672.7188,232.6406 Q1672.1406,232.9375 1671.5,233.0781 Q1670.8594,233.2344 1670.1563,233.2344 Q1667.6563,233.2344 1666.3281,231.5938 Q1665.0156,229.9375 1665.0156,226.8125 Q1665.0156,223.6875 1666.3281,222.0313 Q1667.6563,220.375 1670.1563,220.375 Q1670.8594,220.375 1671.5,220.5313 Q1672.1563,220.6875 1672.7188,220.9844 L1672.7188,223.7031 Q1672.0938,223.125 1671.5,222.8594 Q1670.9063,222.5781 1670.2813,222.5781 Q1668.9375,222.5781 1668.25,223.6563 Q1667.5625,224.7188 1667.5625,226.8125 Q1667.5625,228.9063 1668.25,229.9844 Q1668.9375,231.0469 1670.2813,231.0469 Q1670.9063,231.0469 1671.5,230.7813 Q1672.0938,230.5 1672.7188,229.9219 L1672.7188,232.6406 Z " fill="#000000"/><text fill="#000000" font-family="sans-serif" font-size="12" lengthAdjust="spacing" textLength="100" x="1690.25" y="231.1543">PagePermission</text><line style="stroke:#A80036;stroke-width:1.5;" x1="1573.5" x2="1874.5" y1="243" y2="243"/><ellipse cx="1583.5" cy="254" rx="3" ry="3" style="stroke:#038048;stroke-width:1.0;fill:none;"/><text fill="#000000" font-family="sans-serif" font-size="11" lengthAdjust="spacing" text-decoration="underline" textLength="147" x="1592.5" y="257.2104">COMMENT_ACTION: String</text><ellipse cx="1583.5" cy="266.8047" rx="3" ry="3" style="stroke:#038048;stroke-width:1.0;fill:none;"/><text fill="#000000" font-family="sans-serif" font-size="11" lengthAdjust="spacing" text-decoration="underline" textLength="132" x="1592.5" y="270.0151">DELETE_ACTION: String</text><ellipse cx="1583.5" cy="279.6094" rx="3" ry="3" style="stroke:#038048;stroke-width:1.0;fill:none;"/><text fill="#000000" font-family="sans-serif" font-size="11" lengthAdjust="spacing" text-decoration="underline" textLength="115" x="1592.5" y="282.8198">EDIT_ACTION: String</text><ellipse cx="1583.5" cy="292.4141" rx="3" ry="3" style="stroke:#038048;stroke-width:1.0;fill:none;"/><text fill="#000000" font-family="sans-serif" font-size="11" lengthAdjust="spacing" text-decoration="underline" textLength="132" x="1592.5" y="295.6245">MODIFY_ACTION: String</text><ellipse cx="1583.5" cy="305.2188" rx="3" ry="3" style="stroke:#038048;stroke-width:1.0;fill:none;"/><text fill="#000000" font-family="sans-serif" font-size="11" lengthAdjust="spacing" text-decoration="underline" textLength="135" x="1592.5" y="308.4292">RENAME_ACTION: String</text><ellipse cx="1583.5" cy="318.0234" rx="3" ry="3" style="stroke:#038048;stroke-width:1.0;fill:none;"/><text fill="#000000" font-family="sans-serif" font-size="11" lengthAdjust="spacing" text-decoration="underline" textLength="135" x="1592.5" y="321.2339">UPLOAD_ACTION: String</text><ellipse cx="1583.5" cy="330.8281" rx="3" ry="3" style="stroke:#038048;stroke-width:1.0;fill:none;"/><text fill="#000000" font-family="sans-serif" font-size="11" lengthAdjust="spacing" text-decoration="underline" textLength="116" x="1592.5" y="334.0386">VIEW_ACTION: String</text><line style="stroke:#A80036;stroke-width:1.5;" x1="1573.5" x2="1874.5" y1="340.6328" y2="340.6328"/><ellipse cx="1583.5" cy="351.6328" fill="#84BE84" rx="3" ry="3" style="stroke:#038048;stroke-width:1.0;"/><text fill="#000000" font-family="sans-serif" font-size="11" lengthAdjust="spacing" textLength="176" x="1592.5" y="354.8433">PagePermission(String, String)</text><ellipse cx="1583.5" cy="364.4375" fill="#84BE84" rx="3" ry="3" style="stroke:#038048;stroke-width:1.0;"/><text fill="#000000" font-family="sans-serif" font-size="11" lengthAdjust="spacing" textLength="170" x="1592.5" y="367.6479">PagePermission(Page, String)</text><ellipse cx="1583.5" cy="377.2422" fill="#84BE84" rx="3" ry="3" style="stroke:#038048;stroke-width:1.0;"/><text fill="#000000" font-family="sans-serif" font-size="11" lengthAdjust="spacing" textLength="109" x="1592.5" y="380.4526">getActions(): String</text><ellipse cx="1583.5" cy="390.0469" fill="#84BE84" rx="3" ry="3" style="stroke:#038048;stroke-width:1.0;"/><text fill="#000000" font-family="sans-serif" font-size="11" lengthAdjust="spacing" textLength="96" x="1592.5" y="393.2573">getPage(): String</text><ellipse cx="1583.5" cy="402.8516" fill="#84BE84" rx="3" ry="3" style="stroke:#038048;stroke-width:1.0;"/><text fill="#000000" font-family="sans-serif" font-size="11" lengthAdjust="spacing" textLength="89" x="1592.5" y="406.062">getWiki(): String</text><ellipse cx="1583.5" cy="415.6563" fill="#84BE84" rx="3" ry="3" style="stroke:#038048;stroke-width:1.0;"/><text fill="#000000" font-family="sans-serif" font-size="11" lengthAdjust="spacing" textLength="166" x="1592.5" y="418.8667">implies(Permission): boolean</text><ellipse cx="1583.5" cy="428.4609" fill="#84BE84" rx="3" ry="3" style="stroke:#038048;stroke-width:1.0;"/><text fill="#000000" font-family="sans-serif" font-size="11" lengthAdjust="spacing" textLength="277" x="1592.5" y="431.6714">newPermissionCollection(): PermissionCollection</text></a><!--MD5=[ecec1072b1fec46c11893203695e8936]
class org.apache.wiki.auth.permissions.AllPermission--><a href="AllPermission.html" target="_top" title="AllPermission.html" xlink:actuate="onRequest" xlink:href="AllPermission.html" xlink:show="new" xlink:title="AllPermission.html" xlink:type="simple"><rect codeLine="60" fill="#FEFECE" filter="url(#f7u3or4ua6fh2)" height="112.0234" id="org.apache.wiki.auth.permissions.AllPermission" style="stroke:#A80036;stroke-width:1.5;" width="303" x="2006.5" y="268.5"/><ellipse cx="2112.75" cy="284.5" fill="#ADD1B2" rx="11" ry="11" style="stroke:#A80036;stroke-width:1.0;"/><path d="M2115.7188,290.1406 Q2115.1406,290.4375 2114.5,290.5781 Q2113.8594,290.7344 2113.1563,290.7344 Q2110.6563,290.7344 2109.3281,289.0938 Q2108.0156,287.4375 2108.0156,284.3125 Q2108.0156,281.1875 2109.3281,279.5313 Q2110.6563,277.875 2113.1563,277.875 Q2113.8594,277.875 2114.5,278.0313 Q2115.1563,278.1875 2115.7188,278.4844 L2115.7188,281.2031 Q2115.0938,280.625 2114.5,280.3594 Q2113.9063,280.0781 2113.2813,280.0781 Q2111.9375,280.0781 2111.25,281.1563 Q2110.5625,282.2188 2110.5625,284.3125 Q2110.5625,286.4063 2111.25,287.4844 Q2111.9375,288.5469 2113.2813,288.5469 Q2113.9063,288.5469 2114.5,288.2813 Q2115.0938,288 2115.7188,287.4219 L2115.7188,290.1406 Z " fill="#000000"/><text fill="#000000" font-family="sans-serif" font-size="12" lengthAdjust="spacing" textLength="82" x="2133.25" y="288.6543">AllPermission</text><line style="stroke:#A80036;stroke-width:1.5;" x1="2007.5" x2="2308.5" y1="300.5" y2="300.5"/><line style="stroke:#A80036;stroke-width:1.5;" x1="2007.5" x2="2308.5" y1="308.5" y2="308.5"/><ellipse cx="2017.5" cy="319.5" fill="#84BE84" rx="3" ry="3" style="stroke:#038048;stroke-width:1.0;"/><text fill="#000000" font-family="sans-serif" font-size="11" lengthAdjust="spacing" textLength="119" x="2026.5" y="322.7104">AllPermission(String)</text><ellipse cx="2017.5" cy="332.3047" fill="#84BE84" rx="3" ry="3" style="stroke:#038048;stroke-width:1.0;"/><text fill="#000000" font-family="sans-serif" font-size="11" lengthAdjust="spacing" textLength="109" x="2026.5" y="335.5151">getActions(): String</text><ellipse cx="2017.5" cy="345.1094" fill="#84BE84" rx="3" ry="3" style="stroke:#038048;stroke-width:1.0;"/><text fill="#000000" font-family="sans-serif" font-size="11" lengthAdjust="spacing" textLength="89" x="2026.5" y="348.3198">getWiki(): String</text><ellipse cx="2017.5" cy="357.9141" fill="#84BE84" rx="3" ry="3" style="stroke:#038048;stroke-width:1.0;"/><text fill="#000000" font-family="sans-serif" font-size="11" lengthAdjust="spacing" textLength="166" x="2026.5" y="361.1245">implies(Permission): boolean</text><ellipse cx="2017.5" cy="370.7188" fill="#84BE84" rx="3" ry="3" style="stroke:#038048;stroke-width:1.0;"/><text fill="#000000" font-family="sans-serif" font-size="11" lengthAdjust="spacing" textLength="277" x="2026.5" y="373.9292">newPermissionCollection(): PermissionCollection</text></a><!--MD5=[8ecc5ab52b5db3e6aee192eba9449f2a]
class java.security.Permission--><rect codeLine="83" fill="#FEFECE" filter="url(#f7u3or4ua6fh2)" height="73.6094" id="java.security.Permission" style="stroke:#A80036;stroke-width:1.5;" width="189" x="1023.5" y="47"/><ellipse cx="1081.25" cy="63" fill="#A9DCDF" rx="11" ry="11" style="stroke:#A80036;stroke-width:1.0;"/><path d="M1081.3594,58.3438 L1080.2031,63.4219 L1082.5313,63.4219 L1081.3594,58.3438 Z M1079.875,56.1094 L1082.8594,56.1094 L1086.2188,68.5 L1083.7656,68.5 L1083,65.4375 L1079.7188,65.4375 L1078.9688,68.5 L1076.5313,68.5 L1079.875,56.1094 Z " fill="#000000"/><text fill="#000000" font-family="sans-serif" font-size="12" font-style="italic" lengthAdjust="spacing" textLength="65" x="1101.75" y="67.1543">Permission</text><line style="stroke:#A80036;stroke-width:1.5;" x1="1024.5" x2="1211.5" y1="79" y2="79"/><line style="stroke:#A80036;stroke-width:1.5;" x1="1024.5" x2="1211.5" y1="87" y2="87"/><ellipse cx="1034.5" cy="98" fill="#84BE84" rx="3" ry="3" style="stroke:#038048;stroke-width:1.0;"/><text fill="#000000" font-family="sans-serif" font-size="11" font-style="italic" lengthAdjust="spacing" textLength="163" x="1043.5" y="101.2104">implies(Permission): boolean</text><ellipse cx="1034.5" cy="110.8047" fill="#84BE84" rx="3" ry="3" style="stroke:#038048;stroke-width:1.0;"/><text fill="#000000" font-family="sans-serif" font-size="11" font-style="italic" lengthAdjust="spacing" textLength="108" x="1043.5" y="114.0151">getActions(): String</text><!--MD5=[e3b24967b2c1e13ae3f91d48b704dcd1]
class java.security.PermissionCollection--><rect codeLine="87" fill="#FEFECE" filter="url(#f7u3or4ua6fh2)" height="86.4141" id="java.security.PermissionCollection" style="stroke:#A80036;stroke-width:1.5;" width="246" x="1248" y="41"/><ellipse cx="1303.75" cy="57" fill="#A9DCDF" rx="11" ry="11" style="stroke:#A80036;stroke-width:1.0;"/><path d="M1303.8594,52.3438 L1302.7031,57.4219 L1305.0313,57.4219 L1303.8594,52.3438 Z M1302.375,50.1094 L1305.3594,50.1094 L1308.7188,62.5 L1306.2656,62.5 L1305.5,59.4375 L1302.2188,59.4375 L1301.4688,62.5 L1299.0313,62.5 L1302.375,50.1094 Z " fill="#000000"/><text fill="#000000" font-family="sans-serif" font-size="12" font-style="italic" lengthAdjust="spacing" textLength="126" x="1324.25" y="61.1543">PermissionCollection</text><line style="stroke:#A80036;stroke-width:1.5;" x1="1249" x2="1493" y1="73" y2="73"/><line style="stroke:#A80036;stroke-width:1.5;" x1="1249" x2="1493" y1="81" y2="81"/><ellipse cx="1259" cy="92" fill="#84BE84" rx="3" ry="3" style="stroke:#038048;stroke-width:1.0;"/><text fill="#000000" font-family="sans-serif" font-size="11" font-style="italic" lengthAdjust="spacing" textLength="123" x="1268" y="95.2104">add(Permission): void</text><ellipse cx="1259" cy="104.8047" fill="#84BE84" rx="3" ry="3" style="stroke:#038048;stroke-width:1.0;"/><text fill="#000000" font-family="sans-serif" font-size="11" font-style="italic" lengthAdjust="spacing" textLength="163" x="1268" y="108.0151">implies(Permission): boolean</text><ellipse cx="1259" cy="117.6094" fill="#84BE84" rx="3" ry="3" style="stroke:#038048;stroke-width:1.0;"/><text fill="#000000" font-family="sans-serif" font-size="11" font-style="italic" lengthAdjust="spacing" textLength="220" x="1268" y="120.8198">elements(): Enumeration&lt;Permission&gt;</text><!--MD5=[5a5af9b0547913863cbe0ddf55a9ab5e]
class java.io.Serializable--><rect codeLine="95" fill="#FEFECE" filter="url(#f7u3or4ua6fh2)" height="48" id="java.io.Serializable" style="stroke:#A80036;stroke-width:1.5;" width="103" x="1611.5" y="60"/><ellipse cx="1626.5" cy="76" fill="#B4A7E5" rx="11" ry="11" style="stroke:#A80036;stroke-width:1.0;"/><path d="M1622.4219,71.7656 L1622.4219,69.6094 L1629.8125,69.6094 L1629.8125,71.7656 L1627.3438,71.7656 L1627.3438,79.8438 L1629.8125,79.8438 L1629.8125,82 L1622.4219,82 L1622.4219,79.8438 L1624.8906,79.8438 L1624.8906,71.7656 L1622.4219,71.7656 Z " fill="#000000"/><text fill="#000000" font-family="sans-serif" font-size="12" font-style="italic" lengthAdjust="spacing" textLength="71" x="1640.5" y="80.1543">Serializable</text><line style="stroke:#A80036;stroke-width:1.5;" x1="1612.5" x2="1713.5" y1="92" y2="92"/><line style="stroke:#A80036;stroke-width:1.5;" x1="1612.5" x2="1713.5" y1="100" y2="100"/><!--MD5=[9880e14305dda66d0b4d1b4fa5240d44]
reverse link java.security.Permission to org.apache.wiki.auth.permissions.WikiPermission--><path codeLine="68" d="M1003.97,113.52 C951.02,127.92 887.61,146.83 832,168 C773.84,190.14 711.77,218.49 657.57,244.9 " fill="none" id="java.security.Permission-backto-org.apache.wiki.auth.permissions.WikiPermission" style="stroke:#A80036;stroke-width:1.0;"/><polygon fill="none" points="1002.22,106.74,1023.35,108.32,1005.85,120.26,1002.22,106.74" style="stroke:#A80036;stroke-width:1.0;"/><!--MD5=[d6e9238b66a22e0c2f11ca76f4865634]
reverse link java.io.Serializable to org.apache.wiki.auth.permissions.WikiPermission--><path codeLine="69" d="M1603.55,116.95 C1575.93,130.13 1542.14,143.94 1510,151 C1362.79,183.33 978.57,132.9 832,168 C772.54,182.24 711.09,208.19 657.78,234.86 " fill="none" id="java.io.Serializable-backto-org.apache.wiki.auth.permissions.WikiPermission" style="stroke:#A80036;stroke-width:1.0;stroke-dasharray:7.0,7.0;"/><polygon fill="none" points="1600.56,110.62,1621.59,108.02,1606.77,123.17,1600.56,110.62" style="stroke:#A80036;stroke-width:1.0;"/><!--MD5=[687ab14b5498d0a6710e90ba9c8c07e2]
link org.apache.wiki.auth.permissions.WikiPermission to org.apache.wiki.auth.permissions.WikiPermission--><path codeLine="70" d="M657.84,297.14 C678.63,301.69 692.5,310.81 692.5,324.5 C692.5,337.02 680.91,345.71 663.04,350.59 " fill="none" id="org.apache.wiki.auth.permissions.WikiPermission-to-org.apache.wiki.auth.permissions.WikiPermission" style="stroke:#A80036;stroke-width:1.0;"/><polygon fill="#A80036" points="657.84,351.86,667.5319,353.6115,662.6974,350.6742,665.6346,345.8397,657.84,351.86" style="stroke:#A80036;stroke-width:1.0;"/><text fill="#000000" font-family="sans-serif" font-size="13" lengthAdjust="spacing" textLength="111" x="706" y="299.0669">CREATE_GROUPS</text><text fill="#000000" font-family="sans-serif" font-size="13" lengthAdjust="spacing" textLength="100" x="711.5" y="314.1997">CREATE_PAGES</text><text fill="#000000" font-family="sans-serif" font-size="13" lengthAdjust="spacing" textLength="40" x="741.5" y="329.3325">LOGIN</text><text fill="#000000" font-family="sans-serif" font-size="13" lengthAdjust="spacing" textLength="126" x="698.5" y="344.4653">EDIT_PREFERENCES</text><text fill="#000000" font-family="sans-serif" font-size="13" lengthAdjust="spacing" textLength="86" x="718.5" y="359.5981">EDIT_PROFILE</text><!--MD5=[40f3661111a77d2f33c5195f7fe8e664]
reverse link java.security.PermissionCollection to org.apache.wiki.auth.permissions.AllPermissionCollection--><path codeLine="71" d="M1371,147.24 C1371,182.51 1371,226.48 1371,261.67 " fill="none" id="java.security.PermissionCollection-backto-org.apache.wiki.auth.permissions.AllPermissionCollection" style="stroke:#A80036;stroke-width:1.0;"/><polygon fill="none" points="1364,147.09,1371,127.09,1378,147.09,1364,147.09" style="stroke:#A80036;stroke-width:1.0;"/><!--MD5=[bf6e566d7f114f5d843fad5c31725739]
reverse link java.security.Permission to org.apache.wiki.auth.permissions.GroupPermission--><path codeLine="72" d="M1003.31,89.48 C816.39,98.07 455.06,120.38 337,168 C294.37,185.19 253.22,214.26 219.44,242.64 " fill="none" id="java.security.Permission-backto-org.apache.wiki.auth.permissions.GroupPermission" style="stroke:#A80036;stroke-width:1.0;"/><polygon fill="none" points="1003.01,82.49,1023.3,88.59,1003.64,96.48,1003.01,82.49" style="stroke:#A80036;stroke-width:1.0;"/><!--MD5=[2edc9f879d22b51b179c57c49d24f2ad]
reverse link java.io.Serializable to org.apache.wiki.auth.permissions.GroupPermission--><path codeLine="73" d="M1603.88,116.99 C1576.22,130.25 1542.3,144.12 1510,151 C1446.26,164.58 398.47,146.34 337,168 C292.61,183.64 250.39,213.37 216.28,242.68 " fill="none" id="java.io.Serializable-backto-org.apache.wiki.auth.permissions.GroupPermission" style="stroke:#A80036;stroke-width:1.0;stroke-dasharray:7.0,7.0;"/><polygon fill="none" points="1600.92,110.65,1621.95,108.01,1607.16,123.18,1600.92,110.65" style="stroke:#A80036;stroke-width:1.0;"/><!--MD5=[2bbb7088effe8946c96df1eafa680302]
link org.apache.wiki.auth.permissions.GroupPermission to org.apache.wiki.auth.permissions.GroupPermission--><path codeLine="74" d="M241.64,295.12 C262.02,298.53 276.5,308.32 276.5,324.5 C276.5,339.29 264.41,348.74 246.76,352.86 " fill="none" id="org.apache.wiki.auth.permissions.GroupPermission-to-org.apache.wiki.auth.permissions.GroupPermission" style="stroke:#A80036;stroke-width:1.0;"/><polygon fill="#A80036" points="241.64,353.88,251.246,356.0534,246.5445,352.9077,249.6903,348.2062,241.64,353.88" style="stroke:#A80036;stroke-width:1.0;"/><text fill="#000000" font-family="sans-serif" font-size="13" lengthAdjust="spacing" textLength="48" x="282.5" y="314.0669">DELETE</text><text fill="#000000" font-family="sans-serif" font-size="13" lengthAdjust="spacing" textLength="28" x="292.5" y="329.1997">EDIT</text><text fill="#000000" font-family="sans-serif" font-size="13" lengthAdjust="spacing" textLength="31" x="291" y="344.3325">VIEW</text><!--MD5=[e84aa8e47ffc5f9add0d6fc4be93e24a]
reverse link java.security.Permission to org.apache.wiki.auth.permissions.PagePermission--><path codeLine="75" d="M1185.52,131.34 C1199.96,139.24 1215.54,146.38 1231,151 C1265.54,161.33 1521.77,154.02 1555,168 C1579.44,178.28 1602.59,193.71 1623.46,210.92 " fill="none" id="java.security.Permission-backto-org.apache.wiki.auth.permissions.PagePermission" style="stroke:#A80036;stroke-width:1.0;"/><polygon fill="none" points="1181.67,137.2,1167.93,121.06,1188.73,125.11,1181.67,137.2" style="stroke:#A80036;stroke-width:1.0;"/><!--MD5=[d619c41edea7e5ef02391fcb45630f57]
reverse link java.io.Serializable to org.apache.wiki.auth.permissions.PagePermission--><path codeLine="76" d="M1674,128.02 C1679.97,151.37 1687.66,181.42 1695.21,210.93 " fill="none" id="java.io.Serializable-backto-org.apache.wiki.auth.permissions.PagePermission" style="stroke:#A80036;stroke-width:1.0;stroke-dasharray:7.0,7.0;"/><polygon fill="none" points="1667.13,129.41,1668.96,108.3,1680.7,125.94,1667.13,129.41" style="stroke:#A80036;stroke-width:1.0;"/><!--MD5=[a2c1dedeafa088403f99ca3243e32584]
link org.apache.wiki.auth.permissions.PagePermission to org.apache.wiki.auth.permissions.PagePermission--><path codeLine="77" d="M1875.84,297.14 C1896.63,301.69 1910.5,310.81 1910.5,324.5 C1910.5,337.02 1898.91,345.71 1881.04,350.59 " fill="none" id="org.apache.wiki.auth.permissions.PagePermission-to-org.apache.wiki.auth.permissions.PagePermission" style="stroke:#A80036;stroke-width:1.0;"/><polygon fill="#A80036" points="1875.84,351.86,1885.5319,353.6115,1880.6974,350.6742,1883.6346,345.8397,1875.84,351.86" style="stroke:#A80036;stroke-width:1.0;"/><text fill="#000000" font-family="sans-serif" font-size="13" lengthAdjust="spacing" textLength="66" x="1916.5" y="284.0669">COMMENT</text><text fill="#000000" font-family="sans-serif" font-size="13" lengthAdjust="spacing" textLength="48" x="1925.5" y="299.1997">DELETE</text><text fill="#000000" font-family="sans-serif" font-size="13" lengthAdjust="spacing" textLength="28" x="1935.5" y="314.3325">EDIT</text><text fill="#000000" font-family="sans-serif" font-size="13" lengthAdjust="spacing" textLength="54" x="1922.5" y="329.4653">RENAME</text><text fill="#000000" font-family="sans-serif" font-size="13" lengthAdjust="spacing" textLength="48" x="1925.5" y="344.5981">MODIFY</text><text fill="#000000" font-family="sans-serif" font-size="13" lengthAdjust="spacing" textLength="54" x="1922.5" y="359.731">UPLOAD</text><text fill="#000000" font-family="sans-serif" font-size="13" lengthAdjust="spacing" textLength="31" x="1934" y="374.8638">VIEW</text><!--MD5=[58899357b03cf5c4e181cfbd38aeef2d]
reverse link java.security.Permission to org.apache.wiki.auth.permissions.AllPermission--><path codeLine="78" d="M1184.99,131.47 C1199.56,139.44 1215.32,146.57 1231,151 C1312.07,173.92 1910.86,136.51 1989,168 C2040.22,188.64 2085.48,232.46 2116.24,268.34 " fill="none" id="java.security.Permission-backto-org.apache.wiki.auth.permissions.AllPermission" style="stroke:#A80036;stroke-width:1.0;"/><polygon fill="none" points="1180.97,137.23,1167.27,121.07,1188.06,125.16,1180.97,137.23" style="stroke:#A80036;stroke-width:1.0;"/><!--MD5=[18576e9016d19de10edb469d9959344c]
reverse link java.io.Serializable to org.apache.wiki.auth.permissions.AllPermission--><path codeLine="79" d="M1734.78,92.95 C1803.42,102.87 1908.15,124.19 1989,168 C2035.8,193.36 2079.75,234.56 2111.09,268.18 " fill="none" id="java.io.Serializable-backto-org.apache.wiki.auth.permissions.AllPermission" style="stroke:#A80036;stroke-width:1.0;stroke-dasharray:7.0,7.0;"/><polygon fill="none" points="1733.58,99.85,1714.7,90.23,1735.46,85.98,1733.58,99.85" style="stroke:#A80036;stroke-width:1.0;"/><text fill="#888888" font-family="sans-serif" font-size="10" lengthAdjust="spacing" textLength="192" x="1069" y="469.2822">UMLDoclet 2.0.15, PlantUML 1.2021.13</text><!--MD5=[ba6ab7d26542dfef2cfcbb74b67f3bda]
@startuml
    namespace org.apache.wiki.auth.permissions {

        class WikiPermission [[WikiPermission.html]] {
            {static} +CREATE_GROUPS_ACTION: String
            {static} +CREATE_PAGES_ACTION: String
            {static} +LOGIN_ACTION: String
            {static} +EDIT_PREFERENCES_ACTION: String
            {static} +EDIT_PROFILE_ACTION: String
            {static} +WILDCARD: String
            +WikiPermission(String, String)
            +getActions(): String
            +getWiki(): String
            +implies(Permission): boolean
            +newPermissionCollection(): PermissionCollection
        }

        class AllPermissionCollection [[AllPermissionCollection.html]] {
            #m_permissions: Hashtable<Permission, Permission>
            +add(Permission): void
            +elements(): Enumeration<Permission>
            +implies(Permission): boolean
            +isReadOnly(): boolean
            +setReadOnly(): void
        }

        class GroupPermission [[GroupPermission.html]] {
            {static} +MEMBER_TOKEN: String
            {static} +DELETE_ACTION: String
            {static} +EDIT_ACTION: String
            {static} +VIEW_ACTION: String
            +GroupPermission(String, String)
            +getActions(): String
            +getGroup(): String
            +getWiki(): String
            +implies(Permission): boolean
        }

        class PermissionFactory [[PermissionFactory.html]] {
            {static} +getPagePermission(Page, String): PagePermission
            {static} +getPagePermission(String, String): PagePermission
        }

        class PagePermission [[PagePermission.html]] {
            {static} +COMMENT_ACTION: String
            {static} +DELETE_ACTION: String
            {static} +EDIT_ACTION: String
            {static} +MODIFY_ACTION: String
            {static} +RENAME_ACTION: String
            {static} +UPLOAD_ACTION: String
            {static} +VIEW_ACTION: String
            +PagePermission(String, String)
            +PagePermission(Page, String)
            +getActions(): String
            +getPage(): String
            +getWiki(): String
            +implies(Permission): boolean
            +newPermissionCollection(): PermissionCollection
        }

        class AllPermission [[AllPermission.html]] {
            +AllPermission(String)
            +getActions(): String
            +getWiki(): String
            +implies(Permission): boolean
            +newPermissionCollection(): PermissionCollection
        }

        java.security.Permission <|- - WikiPermission
        java.io.Serializable <|.. WikiPermission
        WikiPermission - -> WikiPermission: CREATE_GROUPS\nCREATE_PAGES\nLOGIN\nEDIT_PREFERENCES\nEDIT_PROFILE
        java.security.PermissionCollection <|- - AllPermissionCollection
        java.security.Permission <|- - GroupPermission
        java.io.Serializable <|.. GroupPermission
        GroupPermission - -> GroupPermission: DELETE\nEDIT\nVIEW
        java.security.Permission <|- - PagePermission
        java.io.Serializable <|.. PagePermission
        PagePermission - -> PagePermission: COMMENT\nDELETE\nEDIT\nRENAME\nMODIFY\nUPLOAD\nVIEW
        java.security.Permission <|- - AllPermission
        java.io.Serializable <|.. AllPermission
    }

    namespace java.security {
        abstract class Permission {
            {abstract} +implies(Permission): boolean
            {abstract} +getActions(): String
        }
        abstract class PermissionCollection {
            {abstract} +add(Permission): void
            {abstract} +implies(Permission): boolean
            {abstract} +elements(): Enumeration<Permission>
        }
    }

    namespace java.io {
        interface Serializable
    }

    center footer UMLDoclet 2.0.15, PlantUML 1.2021.13
@enduml

PlantUML version 1.2021.13(Mon Nov 01 11:38:45 UTC 2021)
(APACHE source distribution)
Java Runtime: OpenJDK Runtime Environment
JVM: OpenJDK 64-Bit Server VM
Default Encoding: UTF-8
Language: en
Country: null
--></g></svg>