<?xml version="1.0" encoding="UTF-8" standalone="no"?><svg xmlns="http://www.w3.org/2000/svg" xmlns:xlink="http://www.w3.org/1999/xlink" contentScriptType="application/ecmascript" contentStyleType="text/css" height="244px" preserveAspectRatio="none" style="width:448px;height:244px;" version="1.1" viewBox="0 0 448 244" width="448px" zoomAndPan="magnify"><defs><filter height="300%" id="fff9sn1i706ab" width="300%" x="-1" y="-1"><feGaussianBlur result="blurOut" stdDeviation="2.0"/><feColorMatrix in="blurOut" result="blurOut2" type="matrix" values="0 0 0 0 0 0 0 0 0 0 0 0 0 0 0 0 0 0 .4 0"/><feOffset dx="4.0" dy="4.0" in="blurOut2" result="blurOut3"/><feBlend in="SourceGraphic" in2="blurOut3" mode="normal"/></filter></defs><g><!--MD5=[e743dbf342e63903ac27c16bbfd0534a]
class org.apache.wiki.markdown.extensions.jspwikilinks.attributeprovider.LocalEditLinkAttributeProviderState--><a href="LocalEditLinkAttributeProviderState.html" target="_top" title="LocalEditLinkAttributeProviderState.html" xlink:actuate="onRequest" xlink:href="LocalEditLinkAttributeProviderState.html" xlink:show="new" xlink:title="LocalEditLinkAttributeProviderState.html" xlink:type="simple"><rect codeLine="5" fill="#FEFECE" filter="url(#fff9sn1i706ab)" height="75.8594" id="org.apache.wiki.markdown.extensions.jspwikilinks.attributeprovider.LocalEditLinkAttributeProviderState" style="stroke: #A80036; stroke-width: 1.5;" width="341" x="47.5" y="132"/><ellipse cx="62.5" cy="152.0938" fill="#ADD1B2" rx="11" ry="11" style="stroke: #A80036; stroke-width: 1.0;"/><path d="M65.2656,147.9688 Q65.4219,147.75 65.6094,147.6406 Q65.7969,147.5313 66.0156,147.5313 Q66.3906,147.5313 66.625,147.7969 Q66.8594,148.0469 66.8594,148.6563 L66.8594,150.1094 Q66.8594,150.7188 66.625,150.9844 Q66.3906,151.25 66.0156,151.25 Q65.6719,151.25 65.4688,151.0469 Q65.2656,150.8594 65.1563,150.3438 Q65.1094,149.9844 64.9219,149.7969 Q64.5938,149.4219 63.9844,149.2031 Q63.375,148.9844 62.75,148.9844 Q61.9844,148.9844 61.3438,149.3125 Q60.7188,149.6406 60.2188,150.3906 Q59.7344,151.1406 59.7344,152.1719 L59.7344,153.2656 Q59.7344,154.5 60.625,155.3281 Q61.5156,156.1406 63.1094,156.1406 Q64.0469,156.1406 64.7031,155.8906 Q65.0938,155.7344 65.5156,155.2969 Q65.7813,155.0313 65.9219,154.9531 Q66.0781,154.875 66.2813,154.875 Q66.6094,154.875 66.8594,155.1406 Q67.125,155.3906 67.125,155.7344 Q67.125,156.0781 66.7813,156.4844 Q66.2813,157.0625 65.4844,157.3906 Q64.4063,157.8438 63.1094,157.8438 Q61.5938,157.8438 60.3906,157.2188 Q59.4063,156.7188 58.7188,155.6563 Q58.0313,154.5781 58.0313,153.2969 L58.0313,152.1406 Q58.0313,150.8125 58.6406,149.6719 Q59.2656,148.5156 60.3594,147.9063 Q61.4531,147.2813 62.6875,147.2813 Q63.4219,147.2813 64.0625,147.4531 Q64.7188,147.6094 65.2656,147.9688 Z "/><text fill="#000000" font-family="sans-serif" font-size="14" lengthAdjust="spacingAndGlyphs" textLength="223" x="119.5" y="151.5332">LocalEditLinkAttributeProviderState</text><text fill="#000000" font-family="sans-serif" font-size="10" lengthAdjust="spacingAndGlyphs" textLength="309" x="76.5" y="164.9902">org.apache.wiki.markdown.extensions.jspwikilinks.attributeprovider</text><line style="stroke: #A80036; stroke-width: 1.5;" x1="48.5" x2="387.5" y1="172.1875" y2="172.1875"/><ellipse cx="58.5" cy="183.1875" fill="#84BE84" rx="3" ry="3" style="stroke: #038048; stroke-width: 1.0;"/><text fill="#000000" font-family="sans-serif" font-size="11" lengthAdjust="spacingAndGlyphs" textLength="247" x="67.5" y="187.6064">LocalEditLinkAttributeProviderState(Context, String)</text><ellipse cx="58.5" cy="197.0234" fill="#84BE84" rx="3" ry="3" style="stroke: #038048; stroke-width: 1.0;"/><text fill="#000000" font-family="sans-serif" font-size="11" lengthAdjust="spacingAndGlyphs" textLength="242" x="67.5" y="201.4424">setAttributes(MutableAttributes, JSPWikiLink): void</text></a><!--MD5=[751b0be4d35478110504cf058ab088e7]
class org.apache.wiki.markdown.extensions.jspwikilinks.attributeprovider.NodeAttributeProviderState--><a href="NodeAttributeProviderState.html" target="_top" title="NodeAttributeProviderState.html" xlink:actuate="onRequest" xlink:href="NodeAttributeProviderState.html" xlink:show="new" xlink:title="NodeAttributeProviderState.html" xlink:type="simple"><rect codeLine="10" fill="#FEFECE" filter="url(#fff9sn1i706ab)" height="62.0234" id="org.apache.wiki.markdown.extensions.jspwikilinks.attributeprovider.NodeAttributeProviderState" style="stroke: #A80036; stroke-width: 1.5;" width="422" x="7" y="10"/><ellipse cx="22" cy="30.0938" fill="#B4A7E5" rx="11" ry="11" style="stroke: #A80036; stroke-width: 1.0;"/><path d="M22.9531,26.7344 L22.9531,33.3906 L24.6719,33.3906 Q25.2813,33.3906 25.5469,33.625 Q25.8125,33.8594 25.8125,34.25 Q25.8125,34.625 25.5469,34.8594 Q25.2813,35.0938 24.6719,35.0938 L19.5313,35.0938 Q18.9219,35.0938 18.6563,34.8594 Q18.3906,34.625 18.3906,34.2344 Q18.3906,33.8594 18.6563,33.625 Q18.9219,33.3906 19.5313,33.3906 L21.25,33.3906 L21.25,26.7344 L19.5313,26.7344 Q18.9219,26.7344 18.6563,26.5 Q18.3906,26.2656 18.3906,25.875 Q18.3906,25.5 18.6563,25.2656 Q18.9219,25.0313 19.5313,25.0313 L24.6719,25.0313 Q25.2813,25.0313 25.5469,25.2656 Q25.8125,25.5 25.8125,25.875 Q25.8125,26.2656 25.5469,26.5 Q25.2813,26.7344 24.6719,26.7344 L22.9531,26.7344 Z "/><text fill="#000000" font-family="sans-serif" font-size="14" font-style="italic" lengthAdjust="spacingAndGlyphs" textLength="172" x="108" y="29.5332">NodeAttributeProviderState</text><text fill="#000000" font-family="sans-serif" font-size="10" font-style="italic" lengthAdjust="spacingAndGlyphs" textLength="316" x="36" y="42.9902">org.apache.wiki.markdown.extensions.jspwikilinks.attributeprovider</text><rect fill="#FFFFFF" height="17.0938" style="stroke: #000000; stroke-width: 1.0; stroke-dasharray: 2.0,2.0;" width="72" x="360" y="7"/><text fill="#000000" font-family="sans-serif" font-size="12" font-style="italic" lengthAdjust="spacingAndGlyphs" textLength="70" x="361" y="20.457">JSPWikiLink</text><line style="stroke: #A80036; stroke-width: 1.5;" x1="8" x2="428" y1="50.1875" y2="50.1875"/><ellipse cx="18" cy="61.1875" fill="#84BE84" rx="3" ry="3" style="stroke: #038048; stroke-width: 1.0;"/><text fill="#000000" font-family="sans-serif" font-size="11" font-style="italic" lengthAdjust="spacingAndGlyphs" textLength="255" x="27" y="65.6064">setAttributes(MutableAttributes, JSPWikiLink): void</text></a><!--MD5=[908db2af469fd6038c5d5673b290e9aa]
reverse link org.apache.wiki.markdown.extensions.jspwikilinks.attributeprovider.NodeAttributeProviderState to org.apache.wiki.markdown.extensions.jspwikilinks.attributeprovider.LocalEditLinkAttributeProviderState--><path codeLine="14" d="M218,92.4842 C218,105.5654 218,119.3919 218,131.6886 " fill="none" id="org.apache.wiki.markdown.extensions.jspwikilinks.attributeprovider.NodeAttributeProviderState-backto-org.apache.wiki.markdown.extensions.jspwikilinks.attributeprovider.LocalEditLinkAttributeProviderState" style="stroke: #A80036; stroke-width: 1.0; stroke-dasharray: 7.0,7.0;"/><polygon fill="none" points="211.0001,92.2273,218,72.2273,225.0001,92.2273,211.0001,92.2273" style="stroke: #A80036; stroke-width: 1.0;"/><text fill="#888888" font-family="sans-serif" font-size="10" lengthAdjust="spacingAndGlyphs" textLength="190" x="120" y="231.2402">UMLDoclet 2.0.12, PlantUML 1.2020.16</text><!--MD5=[f36d6b7acb1884d6f57b641120b5054b]
@startuml
    set namespaceSeparator none
    hide empty fields
    hide empty methods

    class "<size:14>LocalEditLinkAttributeProviderState\n<size:10>org.apache.wiki.markdown.extensions.jspwikilinks.attributeprovider" as org.apache.wiki.markdown.extensions.jspwikilinks.attributeprovider.LocalEditLinkAttributeProviderState [[LocalEditLinkAttributeProviderState.html]] {
        +LocalEditLinkAttributeProviderState(Context, String)
        +setAttributes(MutableAttributes, JSPWikiLink): void
    }

    interface "<size:14>NodeAttributeProviderState\n<size:10>org.apache.wiki.markdown.extensions.jspwikilinks.attributeprovider" as org.apache.wiki.markdown.extensions.jspwikilinks.attributeprovider.NodeAttributeProviderState<JSPWikiLink> [[NodeAttributeProviderState.html]] {
        {abstract} +setAttributes(MutableAttributes, JSPWikiLink): void
    }

    org.apache.wiki.markdown.extensions.jspwikilinks.attributeprovider.NodeAttributeProviderState <|.. org.apache.wiki.markdown.extensions.jspwikilinks.attributeprovider.LocalEditLinkAttributeProviderState

    center footer UMLDoclet 2.0.12, PlantUML 1.2020.16
@enduml

PlantUML version 1.2020.16(Sun Aug 23 22:20:43 CEST 2020)
(APACHE source distribution)
Java Runtime: OpenJDK Runtime Environment
JVM: OpenJDK 64-Bit Server VM
Default Encoding: Cp1252
Language: es
Country: ES
--></g></svg>