<svg xmlns="http://www.w3.org/2000/svg" xmlns:xlink="http://www.w3.org/1999/xlink" contentStyleType="text/css" data-diagram-type="CLASS" height="287px" preserveAspectRatio="none" style="width:366px;height:287px;background:#FFFFFF;" version="1.1" viewBox="0 0 366 287" width="366px" zoomAndPan="magnify"><defs/><g><!--class org.apache.wiki.plugin.Counter--><g class="entity" data-entity="org.apache.wiki.plugin.Counter" data-source-line="13" data-uid="ent0002" id="entity_org.apache.wiki.plugin.Counter"><a href="Counter.html" target="_top" title="Counter.html" xlink:actuate="onRequest" xlink:href="Counter.html" xlink:show="new" xlink:title="Counter.html" xlink:type="simple"><rect fill="#F1F1F1" height="151.7188" rx="2.5" ry="2.5" style="stroke:#181818;stroke-width:0.5;" width="353.5166" x="6" y="110"/><ellipse cx="121.9287" cy="128.9688" fill="#ADD1B2" rx="11" ry="11" style="stroke:#181818;stroke-width:1;"/><path d="M124.8975,134.6094 Q124.3193,134.9063 123.6787,135.0469 Q123.0381,135.2031 122.335,135.2031 Q119.835,135.2031 118.5068,133.5625 Q117.1943,131.9063 117.1943,128.7813 Q117.1943,125.6563 118.5068,124 Q119.835,122.3438 122.335,122.3438 Q123.0381,122.3438 123.6787,122.5 Q124.335,122.6563 124.8975,122.9531 L124.8975,125.6719 Q124.2725,125.0938 123.6787,124.8281 Q123.085,124.5469 122.46,124.5469 Q121.1162,124.5469 120.4287,125.625 Q119.7412,126.6875 119.7412,128.7813 Q119.7412,130.875 120.4287,131.9531 Q121.1162,133.0156 122.46,133.0156 Q123.085,133.0156 123.6787,132.75 Q124.2725,132.4688 124.8975,131.8906 L124.8975,134.6094 Z " fill="#000000"/><text fill="#000000" font-family="sans-serif" font-size="14" lengthAdjust="spacing" textLength="55.9453" x="171.0356" y="127.9951">Counter</text><text fill="#000000" font-family="sans-serif" font-size="10" lengthAdjust="spacing" textLength="113.1592" x="142.4287" y="140.5791">org.apache.wiki.plugin</text><line style="stroke:#181818;stroke-width:0.5;" x1="7" x2="358.5166" y1="147.9375" y2="147.9375"/><ellipse cx="17" cy="161.5859" fill="none" rx="3" ry="3" style="stroke:#038048;stroke-width:1;"/><text fill="#000000" font-family="sans-serif" font-size="14" lengthAdjust="spacing" text-decoration="underline" textLength="148.3262" x="26" y="164.9326">PARAM_NAME: String</text><ellipse cx="17" cy="177.8828" fill="none" rx="3" ry="3" style="stroke:#038048;stroke-width:1;"/><text fill="#000000" font-family="sans-serif" font-size="14" lengthAdjust="spacing" text-decoration="underline" textLength="190.251" x="26" y="181.2295">PARAM_INCREMENT: String</text><ellipse cx="17" cy="194.1797" fill="none" rx="3" ry="3" style="stroke:#038048;stroke-width:1;"/><text fill="#000000" font-family="sans-serif" font-size="14" lengthAdjust="spacing" text-decoration="underline" textLength="212.6865" x="26" y="197.5264">PARAM_SHOW_RESULT: String</text><ellipse cx="17" cy="210.4766" fill="none" rx="3" ry="3" style="stroke:#038048;stroke-width:1;"/><text fill="#000000" font-family="sans-serif" font-size="14" lengthAdjust="spacing" text-decoration="underline" textLength="152.6465" x="26" y="213.8232">PARAM_START: String</text><ellipse cx="17" cy="226.7734" fill="none" rx="3" ry="3" style="stroke:#038048;stroke-width:1;"/><text fill="#000000" font-family="sans-serif" font-size="14" lengthAdjust="spacing" text-decoration="underline" textLength="162.7773" x="26" y="230.1201">DEFAULT_NAME: String</text><line style="stroke:#181818;stroke-width:0.5;" x1="7" x2="358.5166" y1="237.4219" y2="237.4219"/><ellipse cx="17" cy="251.0703" fill="#84BE84" rx="3" ry="3" style="stroke:#038048;stroke-width:1;"/><text fill="#000000" font-family="sans-serif" font-size="14" lengthAdjust="spacing" textLength="327.5166" x="26" y="254.417">execute(Context, Map&lt;String, String&gt;): String</text></a></g><!--class org.apache.wiki.api.plugin.Plugin--><g class="entity" data-entity="org.apache.wiki.api.plugin.Plugin" data-source-line="22" data-uid="ent0003" id="entity_org.apache.wiki.api.plugin.Plugin"><a href="../api/plugin/Plugin.html" target="_top" title="../api/plugin/Plugin.html" xlink:actuate="onRequest" xlink:href="../api/plugin/Plugin.html" xlink:show="new" xlink:title="../api/plugin/Plugin.html" xlink:type="simple"><rect fill="#F1F1F1" height="62.2344" rx="2.5" ry="2.5" style="stroke:#181818;stroke-width:0.5;" width="353.5166" x="6" y="12"/><ellipse cx="112.7124" cy="30.9688" fill="#B4A7E5" rx="11" ry="11" style="stroke:#181818;stroke-width:1;"/><path d="M108.6343,26.7344 L108.6343,24.5781 L116.0249,24.5781 L116.0249,26.7344 L113.5562,26.7344 L113.5562,34.8125 L116.0249,34.8125 L116.0249,36.9688 L108.6343,36.9688 L108.6343,34.8125 L111.103,34.8125 L111.103,26.7344 L108.6343,26.7344 Z " fill="#000000"/><text fill="#000000" font-family="sans-serif" font-size="14" font-style="italic" lengthAdjust="spacing" textLength="42.8545" x="177.5811" y="29.9951">Plugin</text><text fill="#000000" font-family="sans-serif" font-size="10" font-style="italic" lengthAdjust="spacing" textLength="131.5918" x="133.2124" y="42.5791">org.apache.wiki.api.plugin</text><line style="stroke:#181818;stroke-width:0.5;" x1="7" x2="358.5166" y1="49.9375" y2="49.9375"/><ellipse cx="17" cy="63.5859" fill="#84BE84" rx="3" ry="3" style="stroke:#038048;stroke-width:1;"/><text fill="#000000" font-family="sans-serif" font-size="14" font-style="italic" lengthAdjust="spacing" textLength="327.5166" x="26" y="66.9326">execute(Context, Map&lt;String, String&gt;): String</text></a></g><g class="link" data-entity-1="org.apache.wiki.api.plugin.Plugin" data-entity-2="org.apache.wiki.plugin.Counter" data-uid="lnk4" id="link_org.apache.wiki.api.plugin.Plugin_org.apache.wiki.plugin.Counter"><polygon fill="none" points="183,74.248,177,92.248,189,92.248,183,74.248" style="stroke:#181818;stroke-width:1;"/><path d="M183,92.248 C183,102.8484 183,97.2746 183,109.8985" fill="none" style="stroke:#181818;stroke-width:1;stroke-dasharray:7,7;"/></g><g class="footer" data-source-line="34"><text fill="#888888" font-family="sans-serif" font-size="10" lengthAdjust="spacing" textLength="3.1787" x="177.9106" y="265.2822">&#160;</text><a href="https://github.com/talsma-ict/umldoclet" target="_top" title="https://github.com/talsma-ict/umldoclet" xlink:actuate="onRequest" xlink:href="https://github.com/talsma-ict/umldoclet" xlink:show="new" xlink:title="https://github.com/talsma-ict/umldoclet" xlink:type="simple"><text fill="#888888" font-family="sans-serif" font-size="10" lengthAdjust="spacing" textLength="82.3096" x="138.3452" y="276.9229">UMLDoclet 2.2.2</text></a></g><!--SRC=[fLHjJzim4Fw-Nt5Z7mQYTTgiK5PLbQBG3QQMeRveqag5NEUQM2HsPZj0n_hVvxoi5DJ1f3aVajoTdtlkEVi00Dw3BzELuc5am4Wm4TSm7Gw0YW125AYemG1uGaFKiC1OYb2NWGWqCv5K89V57vDAeKwb2BW8uGkzfQ1bfXXgykOD5AacVz3lgDv2NwnouwbaCHhOzm-sABcDvd7TRRX7CA6nJYYS-nDIeJtkSObzm6B7dA7G5Z8J0Qg2bfTIPb-3qbE3MrIQIs7tD2gSl5GcXQ5SQ4YfCZelwJAcmkHScoJFJrgmxuq7JxarFXRSQk0fGRC0Hl97jYdtRQfeQ1d7T2Kp0pf1GmKjVTgI5ZInSb66OxH9gR5A2Ycmy4SyGC0aDIjOSem3_TngmI9fpOMTnLHhsEjg_XCxpLRFbvamgAv4PMdqf0e9BOGWT_o6apJEGYxsmBPXjujK632RLLyaCaaydyD3aJ9V3zfGmzaQ3Y-zaJUyll26_GwCZRBz_slG-OK_wW_x5vDN8yTdNxzTZ_hZwU0VOYVUwAMeq_udp-BifdY8zyWoW_k-FGHuRsemf6ct3AfLmRs39zlMfV0y5sPfMxWb_cMXtmlQq_H5_H_Tf8IoBI34iMQdD3kbUKS_w48RHPbP_qT9hzFf_YBabLDJGdMrMSNOs_1RIfcVg4V2-JfRfQW6NDpuChOtuDt9Rkyqlyyn5sX72BiHQCzxOnEvBjCvM_cgN5TYDekCINN7SK9kecn1c4mSKyoIEcV6oP8uA8V8it4odrVZuVDcJkLtlTvqwytMfDdkkCrEwuYqMyVjOxVzuUJxh6-OCvtuyzy0]--></g></svg>