<?xml version="1.0" encoding="UTF-8" standalone="no"?><svg xmlns="http://www.w3.org/2000/svg" xmlns:xlink="http://www.w3.org/1999/xlink" contentScriptType="application/ecmascript" contentStyleType="text/css" height="1111px" preserveAspectRatio="none" style="width:1180px;height:1111px;" version="1.1" viewBox="0 0 1180 1111" width="1180px" zoomAndPan="magnify"><defs><filter height="300%" id="f1oj3grr76ua8p" width="300%" x="-1" y="-1"><feGaussianBlur result="blurOut" stdDeviation="2.0"/><feColorMatrix in="blurOut" result="blurOut2" type="matrix" values="0 0 0 0 0 0 0 0 0 0 0 0 0 0 0 0 0 0 .4 0"/><feOffset dx="4.0" dy="4.0" in="blurOut2" result="blurOut3"/><feBlend in="SourceGraphic" in2="blurOut3" mode="normal"/></filter></defs><g><!--cluster org.apache.wiki.attachment--><polygon fill="#FFFFFF" filter="url(#f1oj3grr76ua8p)" points="22,156,247,156,254,178.2969,993,178.2969,993,1063,22,1063,22,156" style="stroke: #000000; stroke-width: 1.5;"/><line style="stroke: #000000; stroke-width: 1.5;" x1="22" x2="254" y1="178.2969" y2="178.2969"/><text fill="#000000" font-family="sans-serif" font-size="14" font-weight="bold" lengthAdjust="spacingAndGlyphs" textLength="219" x="26" y="170.9951">org.apache.wiki.attachment</text><!--cluster org.apache.wiki--><polygon fill="#FFFFFF" filter="url(#f1oj3grr76ua8p)" points="1017,329,1148,329,1155,351.2969,1158,351.2969,1158,428,1017,428,1017,329" style="stroke: #000000; stroke-width: 1.5;"/><line style="stroke: #000000; stroke-width: 1.5;" x1="1017" x2="1155" y1="351.2969" y2="351.2969"/><text fill="#000000" font-family="sans-serif" font-size="14" font-weight="bold" lengthAdjust="spacingAndGlyphs" textLength="125" x="1021" y="343.9951">org.apache.wiki</text><!--cluster javax.servlet.http--><polygon fill="#FFFFFF" filter="url(#f1oj3grr76ua8p)" points="645,24,788,24,795,46.2969,798,46.2969,798,123,645,123,645,24" style="stroke: #000000; stroke-width: 1.5;"/><line style="stroke: #000000; stroke-width: 1.5;" x1="645" x2="795" y1="46.2969" y2="46.2969"/><text fill="#000000" font-family="sans-serif" font-size="14" font-weight="bold" lengthAdjust="spacingAndGlyphs" textLength="137" x="649" y="38.9951">javax.servlet.http</text><!--class org.apache.wiki.attachment.Attachment--><a href="Attachment.html" target="_top" xlink:actuate="onRequest" xlink:show="new" xlink:title="Attachment.html" xlink:type="simple"><rect fill="#FEFECE" filter="url(#f1oj3grr76ua8p)" height="124.8281" id="org.apache.wiki.attachment.Attachment" style="stroke: #A80036; stroke-width: 1.5;" width="241" x="378.5" y="662"/><ellipse cx="458.25" cy="678" fill="#ADD1B2" rx="11" ry="11" style="stroke: #A80036; stroke-width: 1.0;"/><path d="M461.2188,683.6406 Q460.6406,683.9375 460,684.0859 Q459.3594,684.2344 458.6563,684.2344 Q456.1563,684.2344 454.8359,682.5859 Q453.5156,680.9375 453.5156,677.8125 Q453.5156,674.6875 454.8359,673.0313 Q456.1563,671.375 458.6563,671.375 Q459.3594,671.375 460.0078,671.5313 Q460.6563,671.6875 461.2188,671.9844 L461.2188,674.7031 Q460.5938,674.125 460,673.8516 Q459.4063,673.5781 458.7813,673.5781 Q457.4375,673.5781 456.75,674.6484 Q456.0625,675.7188 456.0625,677.8125 Q456.0625,679.9063 456.75,680.9766 Q457.4375,682.0469 458.7813,682.0469 Q459.4063,682.0469 460,681.7734 Q460.5938,681.5 461.2188,680.9219 L461.2188,683.6406 Z "/><text fill="#000000" font-family="sans-serif" font-size="12" lengthAdjust="spacingAndGlyphs" textLength="73" x="478.75" y="682.1543">Attachment</text><line style="stroke: #A80036; stroke-width: 1.5;" x1="379.5" x2="618.5" y1="694" y2="694"/><line style="stroke: #A80036; stroke-width: 1.5;" x1="379.5" x2="618.5" y1="702" y2="702"/><ellipse cx="389.5" cy="713.9023" fill="#84BE84" rx="3" ry="3" style="stroke: #038048; stroke-width: 1.0;"/><text fill="#000000" font-family="sans-serif" font-size="11" lengthAdjust="spacingAndGlyphs" textLength="215" x="398.5" y="716.2104">Attachment(WikiEngine, String, String)</text><ellipse cx="389.5" cy="726.707" fill="#84BE84" rx="3" ry="3" style="stroke: #038048; stroke-width: 1.0;"/><text fill="#000000" font-family="sans-serif" font-size="11" lengthAdjust="spacingAndGlyphs" textLength="120" x="398.5" y="729.0151">getFileName(): String</text><ellipse cx="389.5" cy="739.5117" fill="#84BE84" rx="3" ry="3" style="stroke: #038048; stroke-width: 1.0;"/><text fill="#000000" font-family="sans-serif" font-size="11" lengthAdjust="spacingAndGlyphs" textLength="143" x="398.5" y="741.8198">setFileName(String): void</text><ellipse cx="389.5" cy="752.3164" fill="#84BE84" rx="3" ry="3" style="stroke: #038048; stroke-width: 1.0;"/><text fill="#000000" font-family="sans-serif" font-size="11" lengthAdjust="spacingAndGlyphs" textLength="138" x="398.5" y="754.6245">getParentName(): String</text><ellipse cx="389.5" cy="765.1211" fill="#84BE84" rx="3" ry="3" style="stroke: #038048; stroke-width: 1.0;"/><text fill="#000000" font-family="sans-serif" font-size="11" lengthAdjust="spacingAndGlyphs" textLength="130" x="398.5" y="767.4292">isCacheable(): boolean</text><ellipse cx="389.5" cy="777.9258" fill="#84BE84" rx="3" ry="3" style="stroke: #038048; stroke-width: 1.0;"/><text fill="#000000" font-family="sans-serif" font-size="11" lengthAdjust="spacingAndGlyphs" textLength="161" x="398.5" y="780.2339">setCacheable(boolean): void</text></a><!--class org.apache.wiki.attachment.DynamicAttachment--><a href="DynamicAttachment.html" target="_top" xlink:actuate="onRequest" xlink:show="new" xlink:title="DynamicAttachment.html" xlink:type="simple"><rect fill="#FEFECE" filter="url(#f1oj3grr76ua8p)" height="60.8047" id="org.apache.wiki.attachment.DynamicAttachment" style="stroke: #A80036; stroke-width: 1.5;" width="456" x="271" y="848"/><ellipse cx="432.25" cy="864" fill="#ADD1B2" rx="11" ry="11" style="stroke: #A80036; stroke-width: 1.0;"/><path d="M435.2188,869.6406 Q434.6406,869.9375 434,870.0859 Q433.3594,870.2344 432.6563,870.2344 Q430.1563,870.2344 428.8359,868.5859 Q427.5156,866.9375 427.5156,863.8125 Q427.5156,860.6875 428.8359,859.0313 Q430.1563,857.375 432.6563,857.375 Q433.3594,857.375 434.0078,857.5313 Q434.6563,857.6875 435.2188,857.9844 L435.2188,860.7031 Q434.5938,860.125 434,859.8516 Q433.4063,859.5781 432.7813,859.5781 Q431.4375,859.5781 430.75,860.6484 Q430.0625,861.7188 430.0625,863.8125 Q430.0625,865.9063 430.75,866.9766 Q431.4375,868.0469 432.7813,868.0469 Q433.4063,868.0469 434,867.7734 Q434.5938,867.5 435.2188,866.9219 L435.2188,869.6406 Z "/><text fill="#000000" font-family="sans-serif" font-size="12" lengthAdjust="spacingAndGlyphs" textLength="125" x="452.75" y="868.1543">DynamicAttachment</text><line style="stroke: #A80036; stroke-width: 1.5;" x1="272" x2="726" y1="880" y2="880"/><line style="stroke: #A80036; stroke-width: 1.5;" x1="272" x2="726" y1="888" y2="888"/><ellipse cx="282" cy="899.9023" fill="#84BE84" rx="3" ry="3" style="stroke: #038048; stroke-width: 1.0;"/><text fill="#000000" font-family="sans-serif" font-size="11" lengthAdjust="spacingAndGlyphs" textLength="430" x="291" y="902.2104">DynamicAttachment(WikiEngine, String, String, DynamicAttachmentProvider)</text></a><!--class org.apache.wiki.attachment.DynamicAttachmentProvider--><a href="DynamicAttachmentProvider.html" target="_top" xlink:actuate="onRequest" xlink:show="new" xlink:title="DynamicAttachmentProvider.html" xlink:type="simple"><rect fill="#FEFECE" filter="url(#f1oj3grr76ua8p)" height="60.8047" id="org.apache.wiki.attachment.DynamicAttachmentProvider" style="stroke: #A80036; stroke-width: 1.5;" width="360" x="319" y="986"/><ellipse cx="406.75" cy="1002" fill="#B4A7E5" rx="11" ry="11" style="stroke: #A80036; stroke-width: 1.0;"/><path d="M402.6719,997.7656 L402.6719,995.6094 L410.0625,995.6094 L410.0625,997.7656 L407.5938,997.7656 L407.5938,1005.8438 L410.0625,1005.8438 L410.0625,1008 L402.6719,1008 L402.6719,1005.8438 L405.1406,1005.8438 L405.1406,997.7656 L402.6719,997.7656 Z "/><text fill="#000000" font-family="sans-serif" font-size="12" font-style="italic" lengthAdjust="spacingAndGlyphs" textLength="176" x="427.25" y="1006.1543">DynamicAttachmentProvider</text><line style="stroke: #A80036; stroke-width: 1.5;" x1="320" x2="678" y1="1018" y2="1018"/><line style="stroke: #A80036; stroke-width: 1.5;" x1="320" x2="678" y1="1026" y2="1026"/><ellipse cx="330" cy="1037.9023" fill="#84BE84" rx="3" ry="3" style="stroke: #038048; stroke-width: 1.0;"/><text fill="#000000" font-family="sans-serif" font-size="11" font-style="italic" lengthAdjust="spacingAndGlyphs" textLength="334" x="339" y="1040.2104">getAttachmentData(WikiContext, Attachment): InputStream</text></a><!--class org.apache.wiki.attachment.AttachmentServlet--><a href="AttachmentServlet.html" target="_top" xlink:actuate="onRequest" xlink:show="new" xlink:title="AttachmentServlet.html" xlink:type="simple"><rect fill="#FEFECE" filter="url(#f1oj3grr76ua8p)" height="137.6328" id="org.apache.wiki.attachment.AttachmentServlet" style="stroke: #A80036; stroke-width: 1.5;" width="512" x="465" y="319"/><ellipse cx="658.75" cy="335" fill="#ADD1B2" rx="11" ry="11" style="stroke: #A80036; stroke-width: 1.0;"/><path d="M661.7188,340.6406 Q661.1406,340.9375 660.5,341.0859 Q659.8594,341.2344 659.1563,341.2344 Q656.6563,341.2344 655.3359,339.5859 Q654.0156,337.9375 654.0156,334.8125 Q654.0156,331.6875 655.3359,330.0313 Q656.6563,328.375 659.1563,328.375 Q659.8594,328.375 660.5078,328.5313 Q661.1563,328.6875 661.7188,328.9844 L661.7188,331.7031 Q661.0938,331.125 660.5,330.8516 Q659.9063,330.5781 659.2813,330.5781 Q657.9375,330.5781 657.25,331.6484 Q656.5625,332.7188 656.5625,334.8125 Q656.5625,336.9063 657.25,337.9766 Q657.9375,339.0469 659.2813,339.0469 Q659.9063,339.0469 660.5,338.7734 Q661.0938,338.5 661.7188,337.9219 L661.7188,340.6406 Z "/><text fill="#000000" font-family="sans-serif" font-size="12" lengthAdjust="spacingAndGlyphs" textLength="116" x="679.25" y="339.1543">AttachmentServlet</text><line style="stroke: #A80036; stroke-width: 1.5;" x1="466" x2="976" y1="351" y2="351"/><polygon fill="none" points="476,357.9023,480,361.9023,476,365.9023,472,361.9023" style="stroke: #B38D22; stroke-width: 1.0;"/><text fill="#000000" font-family="sans-serif" font-size="11" lengthAdjust="spacingAndGlyphs" text-decoration="underline" textLength="125" x="485" y="365.2104">DEFAULT_EXPIRY: long</text><line style="stroke: #A80036; stroke-width: 1.5;" x1="466" x2="976" y1="371.8047" y2="371.8047"/><ellipse cx="476" cy="383.707" fill="#84BE84" rx="3" ry="3" style="stroke: #038048; stroke-width: 1.0;"/><text fill="#000000" font-family="sans-serif" font-size="11" lengthAdjust="spacingAndGlyphs" textLength="132" x="485" y="386.0151">init(ServletConfig): void</text><polygon fill="#FFFF44" points="476,391.5117,480,395.5117,476,399.5117,472,395.5117" style="stroke: #B38D22; stroke-width: 1.0;"/><text fill="#000000" font-family="sans-serif" font-size="11" lengthAdjust="spacingAndGlyphs" textLength="333" x="485" y="398.8198">doOptions(HttpServletRequest, HttpServletResponse): void</text><ellipse cx="476" cy="409.3164" fill="#84BE84" rx="3" ry="3" style="stroke: #038048; stroke-width: 1.0;"/><text fill="#000000" font-family="sans-serif" font-size="11" lengthAdjust="spacingAndGlyphs" textLength="309" x="485" y="411.6245">doGet(HttpServletRequest, HttpServletResponse): void</text><ellipse cx="476" cy="422.1211" fill="#84BE84" rx="3" ry="3" style="stroke: #038048; stroke-width: 1.0;"/><text fill="#000000" font-family="sans-serif" font-size="11" lengthAdjust="spacingAndGlyphs" textLength="314" x="485" y="424.4292">doPost(HttpServletRequest, HttpServletResponse): void</text><polygon fill="#FFFF44" points="476,429.9258,480,433.9258,476,437.9258,472,433.9258" style="stroke: #B38D22; stroke-width: 1.0;"/><text fill="#000000" font-family="sans-serif" font-size="11" lengthAdjust="spacingAndGlyphs" textLength="197" x="485" y="437.2339">upload(HttpServletRequest): String</text><polygon fill="#FFFF44" points="476,442.7305,480,446.7305,476,450.7305,472,446.7305" style="stroke: #B38D22; stroke-width: 1.0;"/><text fill="#000000" font-family="sans-serif" font-size="11" lengthAdjust="spacingAndGlyphs" textLength="486" x="485" y="450.0386">executeUpload(WikiContext, InputStream, String, String, String, String, long): boolean</text></a><!--class org.apache.wiki.attachment.AttachmentManager--><a href="AttachmentManager.html" target="_top" xlink:actuate="onRequest" xlink:show="new" xlink:title="AttachmentManager.html" xlink:type="simple"><rect fill="#FEFECE" filter="url(#f1oj3grr76ua8p)" height="393.7266" id="org.apache.wiki.attachment.AttachmentManager" style="stroke: #A80036; stroke-width: 1.5;" width="391" x="38.5" y="191"/><ellipse cx="165.75" cy="207" fill="#ADD1B2" rx="11" ry="11" style="stroke: #A80036; stroke-width: 1.0;"/><path d="M168.7188,212.6406 Q168.1406,212.9375 167.5,213.0859 Q166.8594,213.2344 166.1563,213.2344 Q163.6563,213.2344 162.3359,211.5859 Q161.0156,209.9375 161.0156,206.8125 Q161.0156,203.6875 162.3359,202.0313 Q163.6563,200.375 166.1563,200.375 Q166.8594,200.375 167.5078,200.5313 Q168.1563,200.6875 168.7188,200.9844 L168.7188,203.7031 Q168.0938,203.125 167.5,202.8516 Q166.9063,202.5781 166.2813,202.5781 Q164.9375,202.5781 164.25,203.6484 Q163.5625,204.7188 163.5625,206.8125 Q163.5625,208.9063 164.25,209.9766 Q164.9375,211.0469 166.2813,211.0469 Q166.9063,211.0469 167.5,210.7734 Q168.0938,210.5 168.7188,209.9219 L168.7188,212.6406 Z "/><text fill="#000000" font-family="sans-serif" font-size="12" lengthAdjust="spacingAndGlyphs" textLength="128" x="186.25" y="211.1543">AttachmentManager</text><line style="stroke: #A80036; stroke-width: 1.5;" x1="39.5" x2="428.5" y1="223" y2="223"/><ellipse cx="49.5" cy="234.9023" fill="none" rx="3" ry="3" style="stroke: #038048; stroke-width: 1.0;"/><text fill="#000000" font-family="sans-serif" font-size="11" lengthAdjust="spacingAndGlyphs" text-decoration="underline" textLength="133" x="58.5" y="237.2104">PROP_PROVIDER: String</text><ellipse cx="49.5" cy="247.707" fill="none" rx="3" ry="3" style="stroke: #038048; stroke-width: 1.0;"/><text fill="#000000" font-family="sans-serif" font-size="11" lengthAdjust="spacingAndGlyphs" text-decoration="underline" textLength="128" x="58.5" y="250.0151">PROP_MAXSIZE: String</text><ellipse cx="49.5" cy="260.5117" fill="none" rx="3" ry="3" style="stroke: #038048; stroke-width: 1.0;"/><text fill="#000000" font-family="sans-serif" font-size="11" lengthAdjust="spacingAndGlyphs" text-decoration="underline" textLength="202" x="58.5" y="262.8198">PROP_ALLOWEDEXTENSIONS: String</text><ellipse cx="49.5" cy="273.3164" fill="none" rx="3" ry="3" style="stroke: #038048; stroke-width: 1.0;"/><text fill="#000000" font-family="sans-serif" font-size="11" lengthAdjust="spacingAndGlyphs" text-decoration="underline" textLength="214" x="58.5" y="275.6245">PROP_FORBIDDENEXTENSIONS: String</text><ellipse cx="49.5" cy="286.1211" fill="none" rx="3" ry="3" style="stroke: #038048; stroke-width: 1.0;"/><text fill="#000000" font-family="sans-serif" font-size="11" lengthAdjust="spacingAndGlyphs" text-decoration="underline" textLength="179" x="58.5" y="288.4292">PROP_FORCEDOWNLOAD: String</text><ellipse cx="49.5" cy="298.9258" fill="none" rx="3" ry="3" style="stroke: #038048; stroke-width: 1.0;"/><text fill="#000000" font-family="sans-serif" font-size="11" lengthAdjust="spacingAndGlyphs" text-decoration="underline" textLength="117" x="58.5" y="301.2339">CACHE_NAME: String</text><ellipse cx="49.5" cy="311.7305" fill="none" rx="3" ry="3" style="stroke: #038048; stroke-width: 1.0;"/><text fill="#000000" font-family="sans-serif" font-size="11" lengthAdjust="spacingAndGlyphs" text-decoration="underline" textLength="169" x="58.5" y="314.0386">DEFAULT_CACHECAPACITY: int</text><line style="stroke: #A80036; stroke-width: 1.5;" x1="39.5" x2="428.5" y1="320.6328" y2="320.6328"/><ellipse cx="49.5" cy="332.5352" fill="#84BE84" rx="3" ry="3" style="stroke: #038048; stroke-width: 1.0;"/><text fill="#000000" font-family="sans-serif" font-size="11" lengthAdjust="spacingAndGlyphs" textLength="247" x="58.5" y="334.8433">AttachmentManager(WikiEngine, Properties)</text><ellipse cx="49.5" cy="345.3398" fill="#84BE84" rx="3" ry="3" style="stroke: #038048; stroke-width: 1.0;"/><text fill="#000000" font-family="sans-serif" font-size="11" lengthAdjust="spacingAndGlyphs" textLength="177" x="58.5" y="347.6479">attachmentsEnabled(): boolean</text><ellipse cx="49.5" cy="358.1445" fill="#84BE84" rx="3" ry="3" style="stroke: #038048; stroke-width: 1.0;"/><text fill="#000000" font-family="sans-serif" font-size="11" lengthAdjust="spacingAndGlyphs" textLength="217" x="58.5" y="360.4526">getAttachmentInfo(String): Attachment</text><ellipse cx="49.5" cy="370.9492" fill="#84BE84" rx="3" ry="3" style="stroke: #038048; stroke-width: 1.0;"/><text fill="#000000" font-family="sans-serif" font-size="11" lengthAdjust="spacingAndGlyphs" textLength="239" x="58.5" y="373.2573">getAttachmentInfo(String, int): Attachment</text><ellipse cx="49.5" cy="383.7539" fill="#84BE84" rx="3" ry="3" style="stroke: #038048; stroke-width: 1.0;"/><text fill="#000000" font-family="sans-serif" font-size="11" lengthAdjust="spacingAndGlyphs" textLength="289" x="58.5" y="386.062">getAttachmentInfo(WikiContext, String): Attachment</text><ellipse cx="49.5" cy="396.5586" fill="#84BE84" rx="3" ry="3" style="stroke: #038048; stroke-width: 1.0;"/><text fill="#000000" font-family="sans-serif" font-size="11" lengthAdjust="spacingAndGlyphs" textLength="292" x="58.5" y="398.8667">getAttachmentInfoName(WikiContext, String): String</text><ellipse cx="49.5" cy="409.3633" fill="#84BE84" rx="3" ry="3" style="stroke: #038048; stroke-width: 1.0;"/><text fill="#000000" font-family="sans-serif" font-size="11" lengthAdjust="spacingAndGlyphs" textLength="311" x="58.5" y="411.6714">getAttachmentInfo(WikiContext, String, int): Attachment</text><ellipse cx="49.5" cy="422.168" fill="#84BE84" rx="3" ry="3" style="stroke: #038048; stroke-width: 1.0;"/><text fill="#000000" font-family="sans-serif" font-size="11" lengthAdjust="spacingAndGlyphs" textLength="255" x="58.5" y="424.4761">listAttachments(WikiPage): List&lt;Attachment&gt;</text><ellipse cx="49.5" cy="434.9727" fill="#84BE84" rx="3" ry="3" style="stroke: #038048; stroke-width: 1.0;"/><text fill="#000000" font-family="sans-serif" font-size="11" lengthAdjust="spacingAndGlyphs" textLength="202" x="58.5" y="437.2808">hasAttachments(WikiPage): boolean</text><ellipse cx="49.5" cy="447.7773" fill="#84BE84" rx="3" ry="3" style="stroke: #038048; stroke-width: 1.0;"/><text fill="#000000" font-family="sans-serif" font-size="11" lengthAdjust="spacingAndGlyphs" textLength="179" x="58.5" y="450.0854">forceDownload(String): boolean</text><ellipse cx="49.5" cy="460.582" fill="#84BE84" rx="3" ry="3" style="stroke: #038048; stroke-width: 1.0;"/><text fill="#000000" font-family="sans-serif" font-size="11" lengthAdjust="spacingAndGlyphs" textLength="274" x="58.5" y="462.8901">getAttachmentStream(Attachment): InputStream</text><ellipse cx="49.5" cy="473.3867" fill="#84BE84" rx="3" ry="3" style="stroke: #038048; stroke-width: 1.0;"/><text fill="#000000" font-family="sans-serif" font-size="11" lengthAdjust="spacingAndGlyphs" textLength="346" x="58.5" y="475.6948">getAttachmentStream(WikiContext, Attachment): InputStream</text><ellipse cx="49.5" cy="486.1914" fill="#84BE84" rx="3" ry="3" style="stroke: #038048; stroke-width: 1.0;"/><text fill="#000000" font-family="sans-serif" font-size="11" lengthAdjust="spacingAndGlyphs" textLength="365" x="58.5" y="488.4995">storeDynamicAttachment(WikiContext, DynamicAttachment): void</text><ellipse cx="49.5" cy="498.9961" fill="#84BE84" rx="3" ry="3" style="stroke: #038048; stroke-width: 1.0;"/><text fill="#000000" font-family="sans-serif" font-size="11" lengthAdjust="spacingAndGlyphs" textLength="292" x="58.5" y="501.3042">getDynamicAttachment(String): DynamicAttachment</text><ellipse cx="49.5" cy="511.8008" fill="#84BE84" rx="3" ry="3" style="stroke: #038048; stroke-width: 1.0;"/><text fill="#000000" font-family="sans-serif" font-size="11" lengthAdjust="spacingAndGlyphs" textLength="224" x="58.5" y="514.1089">storeAttachment(Attachment, File): void</text><ellipse cx="49.5" cy="524.6055" fill="#84BE84" rx="3" ry="3" style="stroke: #038048; stroke-width: 1.0;"/><text fill="#000000" font-family="sans-serif" font-size="11" lengthAdjust="spacingAndGlyphs" textLength="275" x="58.5" y="526.9136">storeAttachment(Attachment, InputStream): void</text><ellipse cx="49.5" cy="537.4102" fill="#84BE84" rx="3" ry="3" style="stroke: #038048; stroke-width: 1.0;"/><text fill="#000000" font-family="sans-serif" font-size="11" lengthAdjust="spacingAndGlyphs" textLength="253" x="58.5" y="539.7183">getVersionHistory(String): List&lt;Attachment&gt;</text><ellipse cx="49.5" cy="550.2148" fill="#84BE84" rx="3" ry="3" style="stroke: #038048; stroke-width: 1.0;"/><text fill="#000000" font-family="sans-serif" font-size="11" lengthAdjust="spacingAndGlyphs" textLength="256" x="58.5" y="552.5229">getCurrentProvider(): WikiAttachmentProvider</text><ellipse cx="49.5" cy="563.0195" fill="#84BE84" rx="3" ry="3" style="stroke: #038048; stroke-width: 1.0;"/><text fill="#000000" font-family="sans-serif" font-size="11" lengthAdjust="spacingAndGlyphs" textLength="181" x="58.5" y="565.3276">deleteVersion(Attachment): void</text><ellipse cx="49.5" cy="575.8242" fill="#84BE84" rx="3" ry="3" style="stroke: #038048; stroke-width: 1.0;"/><text fill="#000000" font-family="sans-serif" font-size="11" lengthAdjust="spacingAndGlyphs" textLength="202" x="58.5" y="578.1323">deleteAttachment(Attachment): void</text></a><!--class org.apache.wiki.WikiPage--><rect fill="#FEFECE" filter="url(#f1oj3grr76ua8p)" height="48" id="org.apache.wiki.WikiPage" style="stroke: #A80036; stroke-width: 1.5;" width="88" x="1033" y="364"/><ellipse cx="1048" cy="380" fill="#ADD1B2" rx="11" ry="11" style="stroke: #A80036; stroke-width: 1.0;"/><path d="M1050.9688,385.6406 Q1050.3906,385.9375 1049.75,386.0859 Q1049.1094,386.2344 1048.4063,386.2344 Q1045.9063,386.2344 1044.5859,384.5859 Q1043.2656,382.9375 1043.2656,379.8125 Q1043.2656,376.6875 1044.5859,375.0313 Q1045.9063,373.375 1048.4063,373.375 Q1049.1094,373.375 1049.7578,373.5313 Q1050.4063,373.6875 1050.9688,373.9844 L1050.9688,376.7031 Q1050.3438,376.125 1049.75,375.8516 Q1049.1563,375.5781 1048.5313,375.5781 Q1047.1875,375.5781 1046.5,376.6484 Q1045.8125,377.7188 1045.8125,379.8125 Q1045.8125,381.9063 1046.5,382.9766 Q1047.1875,384.0469 1048.5313,384.0469 Q1049.1563,384.0469 1049.75,383.7734 Q1050.3438,383.5 1050.9688,382.9219 L1050.9688,385.6406 Z "/><text fill="#000000" font-family="sans-serif" font-size="12" lengthAdjust="spacingAndGlyphs" textLength="56" x="1062" y="384.1543">WikiPage</text><line style="stroke: #A80036; stroke-width: 1.5;" x1="1034" x2="1120" y1="396" y2="396"/><line style="stroke: #A80036; stroke-width: 1.5;" x1="1034" x2="1120" y1="404" y2="404"/><!--class javax.servlet.http.HttpServlet--><rect fill="#FEFECE" filter="url(#f1oj3grr76ua8p)" height="48" id="javax.servlet.http.HttpServlet" style="stroke: #A80036; stroke-width: 1.5;" width="102" x="670" y="59"/><ellipse cx="685" cy="75" fill="#A9DCDF" rx="11" ry="11" style="stroke: #A80036; stroke-width: 1.0;"/><path d="M685.1094,70.3438 L683.9531,75.4219 L686.2813,75.4219 L685.1094,70.3438 Z M683.625,68.1094 L686.6094,68.1094 L689.9688,80.5 L687.5156,80.5 L686.75,77.4375 L683.4688,77.4375 L682.7188,80.5 L680.2813,80.5 L683.625,68.1094 Z "/><text fill="#000000" font-family="sans-serif" font-size="12" font-style="italic" lengthAdjust="spacingAndGlyphs" textLength="70" x="699" y="79.1543">HttpServlet</text><line style="stroke: #A80036; stroke-width: 1.5;" x1="671" x2="771" y1="91" y2="91"/><line style="stroke: #A80036; stroke-width: 1.5;" x1="671" x2="771" y1="99" y2="99"/><!--link org.apache.wiki.WikiPage to org.apache.wiki.attachment.Attachment--><path d="M1069.82,431.829 C1060.1,476.405 1038.46,545.158 993,585 C888.921,676.216 729.206,707.727 619.729,718.406 " fill="none" id="org.apache.wiki.WikiPage-org.apache.wiki.attachment.Attachment" style="stroke: #A80036; stroke-width: 1.0;"/><polygon fill="none" points="1062.96,430.401,1073.68,412.121,1076.7,433.094,1062.96,430.401" style="stroke: #A80036; stroke-width: 1.0;"/><!--link org.apache.wiki.attachment.Attachment to org.apache.wiki.attachment.DynamicAttachment--><path d="M499,807.624 C499,821.997 499,836.076 499,847.787 " fill="none" id="org.apache.wiki.attachment.Attachment-org.apache.wiki.attachment.DynamicAttachment" style="stroke: #A80036; stroke-width: 1.0;"/><polygon fill="none" points="492,807.324,499,787.324,506,807.324,492,807.324" style="stroke: #A80036; stroke-width: 1.0;"/><!--link javax.servlet.http.HttpServlet to org.apache.wiki.attachment.AttachmentServlet--><path d="M721,127.433 C721,177.425 721,260.162 721,318.774 " fill="none" id="javax.servlet.http.HttpServlet-org.apache.wiki.attachment.AttachmentServlet" style="stroke: #A80036; stroke-width: 1.0;"/><polygon fill="none" points="714,127.273,721,107.273,728,127.273,714,127.273" style="stroke: #A80036; stroke-width: 1.0;"/><!--link org.apache.wiki.attachment.DynamicAttachment to org.apache.wiki.attachment.DynamicAttachmentProvider--><path d="M499,909.01 C499,929.984 499,958.243 499,980.379 " fill="none" id="org.apache.wiki.attachment.DynamicAttachment-org.apache.wiki.attachment.DynamicAttachmentProvider" style="stroke: #A80036; stroke-width: 1.0;"/><polygon fill="#A80036" points="499,985.578,503,976.578,499,980.578,495,976.578,499,985.578" style="stroke: #A80036; stroke-width: 1.0;"/><text fill="#000000" font-family="sans-serif" font-size="13" lengthAdjust="spacingAndGlyphs" textLength="52" x="500" y="952.0669">provider</text><!--link org.apache.wiki.attachment.AttachmentManager to org.apache.wiki.attachment.Attachment--><path d="M389.301,585.031 C410.039,611.207 430.008,636.413 447.093,657.98 " fill="none" id="org.apache.wiki.attachment.AttachmentManager-org.apache.wiki.attachment.Attachment" style="stroke: #A80036; stroke-width: 1.0;"/><polygon fill="#A80036" points="450.25,661.964,447.7946,652.4261,447.1443,658.0455,441.525,657.3952,450.25,661.964" style="stroke: #A80036; stroke-width: 1.0;"/><text fill="#000000" font-family="sans-serif" font-size="13" lengthAdjust="spacingAndGlyphs" textLength="97" x="421" y="628.0669">allAttachments</text><text fill="#000000" font-family="sans-serif" font-size="13" lengthAdjust="spacingAndGlyphs" textLength="7" x="437.2086" y="650.9506">*</text><text fill="#888888" font-family="sans-serif" font-size="10" lengthAdjust="spacingAndGlyphs" textLength="186" x="503" y="1098.2822">UMLDoclet 1.1.4, PlantUML 1.2019.05</text><!--
@startuml

    namespace org.apache.wiki.attachment {

        class Attachment [[Attachment.html]] {
            +Attachment(WikiEngine, String, String)
            +getFileName(): String
            +setFileName(String): void
            +getParentName(): String
            +isCacheable(): boolean
            +setCacheable(boolean): void
        }

        class DynamicAttachment [[DynamicAttachment.html]] {
            +DynamicAttachment(WikiEngine, String, String, DynamicAttachmentProvider)
        }

        interface DynamicAttachmentProvider [[DynamicAttachmentProvider.html]] {
            {abstract} +getAttachmentData(WikiContext, Attachment): InputStream
        }

        class AttachmentServlet [[AttachmentServlet.html]] {
            {static} #DEFAULT_EXPIRY: long
            +init(ServletConfig): void
            #doOptions(HttpServletRequest, HttpServletResponse): void
            +doGet(HttpServletRequest, HttpServletResponse): void
            +doPost(HttpServletRequest, HttpServletResponse): void
            #upload(HttpServletRequest): String
            #executeUpload(WikiContext, InputStream, String, String, String, String, long): boolean
        }

        class AttachmentManager [[AttachmentManager.html]] {
            {static} +PROP_PROVIDER: String
            {static} +PROP_MAXSIZE: String
            {static} +PROP_ALLOWEDEXTENSIONS: String
            {static} +PROP_FORBIDDENEXTENSIONS: String
            {static} +PROP_FORCEDOWNLOAD: String
            {static} +CACHE_NAME: String
            {static} +DEFAULT_CACHECAPACITY: int
            +AttachmentManager(WikiEngine, Properties)
            +attachmentsEnabled(): boolean
            +getAttachmentInfo(String): Attachment
            +getAttachmentInfo(String, int): Attachment
            +getAttachmentInfo(WikiContext, String): Attachment
            +getAttachmentInfoName(WikiContext, String): String
            +getAttachmentInfo(WikiContext, String, int): Attachment
            +listAttachments(WikiPage): List<Attachment>
            +hasAttachments(WikiPage): boolean
            +forceDownload(String): boolean
            +getAttachmentStream(Attachment): InputStream
            +getAttachmentStream(WikiContext, Attachment): InputStream
            +storeDynamicAttachment(WikiContext, DynamicAttachment): void
            +getDynamicAttachment(String): DynamicAttachment
            +storeAttachment(Attachment, File): void
            +storeAttachment(Attachment, InputStream): void
            +getVersionHistory(String): List<Attachment>
            +getCurrentProvider(): WikiAttachmentProvider
            +deleteVersion(Attachment): void
            +deleteAttachment(Attachment): void
        }

        class org.apache.wiki.WikiPage
        org.apache.wiki.WikiPage <|- - Attachment

        Attachment <|- - DynamicAttachment

        abstract class javax.servlet.http.HttpServlet
        javax.servlet.http.HttpServlet <|- - AttachmentServlet

        DynamicAttachment - -> DynamicAttachmentProvider: provider

        AttachmentManager - -> "*" Attachment: allAttachments

    }


    center footer UMLDoclet 1.1.4, PlantUML 1.2019.05
@enduml

PlantUML version 1.2019.05(Sat Apr 20 16:45:36 UTC 2019)
(APACHE source distribution)
Java Runtime: Java(TM) SE Runtime Environment
JVM: Java HotSpot(TM) 64-Bit Server VM
Java Version: 1.8.0_191-b12
Operating System: Linux
OS Version: 4.4.0-137-generic
Default Encoding: ISO-8859-1
Language: en
Country: US
--></g></svg>