<?xml version="1.0" encoding="UTF-8" standalone="no"?><svg xmlns="http://www.w3.org/2000/svg" xmlns:xlink="http://www.w3.org/1999/xlink" contentScriptType="application/ecmascript" contentStyleType="text/css" height="1297px" preserveAspectRatio="none" style="width:1427px;height:1297px;" version="1.1" viewBox="0 0 1427 1297" width="1427px" zoomAndPan="magnify"><defs><filter height="300%" id="fl1b8fq57tpsq" width="300%" x="-1" y="-1"><feGaussianBlur result="blurOut" stdDeviation="2.0"/><feColorMatrix in="blurOut" result="blurOut2" type="matrix" values="0 0 0 0 0 0 0 0 0 0 0 0 0 0 0 0 0 0 .4 0"/><feOffset dx="4.0" dy="4.0" in="blurOut2" result="blurOut3"/><feBlend in="SourceGraphic" in2="blurOut3" mode="normal"/></filter></defs><g><!--cluster org.apache.wiki.attachment--><polygon fill="#FFFFFF" filter="url(#fl1b8fq57tpsq)" points="14,130,239,130,246,152.2969,1187,152.2969,1187,1257,14,1257,14,130" style="stroke: #000000; stroke-width: 1.5;"/><line style="stroke: #000000; stroke-width: 1.5;" x1="14" x2="246" y1="152.2969" y2="152.2969"/><text fill="#000000" font-family="sans-serif" font-size="14" font-weight="bold" lengthAdjust="spacingAndGlyphs" textLength="219" x="18" y="144.9951">org.apache.wiki.attachment</text><!--cluster javax.servlet.http--><polygon fill="#FFFFFF" filter="url(#fl1b8fq57tpsq)" points="602,16,745,16,752,38.2969,755,38.2969,755,99,602,99,602,16" style="stroke: #000000; stroke-width: 1.5;"/><line style="stroke: #000000; stroke-width: 1.5;" x1="602" x2="752" y1="38.2969" y2="38.2969"/><text fill="#000000" font-family="sans-serif" font-size="14" font-weight="bold" lengthAdjust="spacingAndGlyphs" textLength="137" x="606" y="30.9951">javax.servlet.http</text><!--cluster org.apache.wiki--><polygon fill="#FFFFFF" filter="url(#fl1b8fq57tpsq)" points="999,16,1130,16,1137,38.2969,1140,38.2969,1140,99,999,99,999,16" style="stroke: #000000; stroke-width: 1.5;"/><line style="stroke: #000000; stroke-width: 1.5;" x1="999" x2="1137" y1="38.2969" y2="38.2969"/><text fill="#000000" font-family="sans-serif" font-size="14" font-weight="bold" lengthAdjust="spacingAndGlyphs" textLength="125" x="1003" y="30.9951">org.apache.wiki</text><!--cluster org.apache.wiki.api.core--><polygon fill="#FFFFFF" filter="url(#fl1b8fq57tpsq)" points="1195,606,1395,606,1402,628.2969,1405,628.2969,1405,753,1195,753,1195,606" style="stroke: #000000; stroke-width: 1.5;"/><line style="stroke: #000000; stroke-width: 1.5;" x1="1195" x2="1402" y1="628.2969" y2="628.2969"/><text fill="#000000" font-family="sans-serif" font-size="14" font-weight="bold" lengthAdjust="spacingAndGlyphs" textLength="194" x="1199" y="620.9951">org.apache.wiki.api.core</text><!--class org.apache.wiki.attachment.AttachmentServlet--><a href="AttachmentServlet.html" target="_top" xlink:actuate="onRequest" xlink:show="new" xlink:title="AttachmentServlet.html" xlink:type="simple"><rect fill="#FEFECE" filter="url(#fl1b8fq57tpsq)" height="137.6328" id="org.apache.wiki.attachment.AttachmentServlet" style="stroke: #A80036; stroke-width: 1.5;" width="491" x="432.5" y="285"/><ellipse cx="615.75" cy="301" fill="#ADD1B2" rx="11" ry="11" style="stroke: #A80036; stroke-width: 1.0;"/><path d="M618.7188,306.6406 Q618.1406,306.9375 617.5,307.0859 Q616.8594,307.2344 616.1563,307.2344 Q613.6563,307.2344 612.3359,305.5859 Q611.0156,303.9375 611.0156,300.8125 Q611.0156,297.6875 612.3359,296.0313 Q613.6563,294.375 616.1563,294.375 Q616.8594,294.375 617.5078,294.5313 Q618.1563,294.6875 618.7188,294.9844 L618.7188,297.7031 Q618.0938,297.125 617.5,296.8516 Q616.9063,296.5781 616.2813,296.5781 Q614.9375,296.5781 614.25,297.6484 Q613.5625,298.7188 613.5625,300.8125 Q613.5625,302.9063 614.25,303.9766 Q614.9375,305.0469 616.2813,305.0469 Q616.9063,305.0469 617.5,304.7734 Q618.0938,304.5 618.7188,303.9219 L618.7188,306.6406 Z "/><text fill="#000000" font-family="sans-serif" font-size="12" lengthAdjust="spacingAndGlyphs" textLength="116" x="636.25" y="305.1543">AttachmentServlet</text><line style="stroke: #A80036; stroke-width: 1.5;" x1="433.5" x2="922.5" y1="317" y2="317"/><polygon fill="none" points="443.5,323.9023,447.5,327.9023,443.5,331.9023,439.5,327.9023" style="stroke: #B38D22; stroke-width: 1.0;"/><text fill="#000000" font-family="sans-serif" font-size="11" lengthAdjust="spacingAndGlyphs" text-decoration="underline" textLength="125" x="452.5" y="331.2104">DEFAULT_EXPIRY: long</text><line style="stroke: #A80036; stroke-width: 1.5;" x1="433.5" x2="922.5" y1="337.8047" y2="337.8047"/><ellipse cx="443.5" cy="349.707" fill="#84BE84" rx="3" ry="3" style="stroke: #038048; stroke-width: 1.0;"/><text fill="#000000" font-family="sans-serif" font-size="11" lengthAdjust="spacingAndGlyphs" textLength="132" x="452.5" y="352.0151">init(ServletConfig): void</text><polygon fill="#FFFF44" points="443.5,357.5117,447.5,361.5117,443.5,365.5117,439.5,361.5117" style="stroke: #B38D22; stroke-width: 1.0;"/><text fill="#000000" font-family="sans-serif" font-size="11" lengthAdjust="spacingAndGlyphs" textLength="333" x="452.5" y="364.8198">doOptions(HttpServletRequest, HttpServletResponse): void</text><ellipse cx="443.5" cy="375.3164" fill="#84BE84" rx="3" ry="3" style="stroke: #038048; stroke-width: 1.0;"/><text fill="#000000" font-family="sans-serif" font-size="11" lengthAdjust="spacingAndGlyphs" textLength="309" x="452.5" y="377.6245">doGet(HttpServletRequest, HttpServletResponse): void</text><ellipse cx="443.5" cy="388.1211" fill="#84BE84" rx="3" ry="3" style="stroke: #038048; stroke-width: 1.0;"/><text fill="#000000" font-family="sans-serif" font-size="11" lengthAdjust="spacingAndGlyphs" textLength="314" x="452.5" y="390.4292">doPost(HttpServletRequest, HttpServletResponse): void</text><polygon fill="#FFFF44" points="443.5,395.9258,447.5,399.9258,443.5,403.9258,439.5,399.9258" style="stroke: #B38D22; stroke-width: 1.0;"/><text fill="#000000" font-family="sans-serif" font-size="11" lengthAdjust="spacingAndGlyphs" textLength="197" x="452.5" y="403.2339">upload(HttpServletRequest): String</text><polygon fill="#FFFF44" points="443.5,408.7305,447.5,412.7305,443.5,416.7305,439.5,412.7305" style="stroke: #B38D22; stroke-width: 1.0;"/><text fill="#000000" font-family="sans-serif" font-size="11" lengthAdjust="spacingAndGlyphs" textLength="465" x="452.5" y="416.0386">executeUpload(Context, InputStream, String, String, String, String, long): boolean</text></a><!--class org.apache.wiki.attachment.DynamicAttachment--><a href="DynamicAttachment.html" target="_top" xlink:actuate="onRequest" xlink:show="new" xlink:title="DynamicAttachment.html" xlink:type="simple"><rect fill="#FEFECE" filter="url(#fl1b8fq57tpsq)" height="60.8047" id="org.apache.wiki.attachment.DynamicAttachment" style="stroke: #A80036; stroke-width: 1.5;" width="435" x="744.5" y="905"/><ellipse cx="895.25" cy="921" fill="#ADD1B2" rx="11" ry="11" style="stroke: #A80036; stroke-width: 1.0;"/><path d="M898.2188,926.6406 Q897.6406,926.9375 897,927.0859 Q896.3594,927.2344 895.6563,927.2344 Q893.1563,927.2344 891.8359,925.5859 Q890.5156,923.9375 890.5156,920.8125 Q890.5156,917.6875 891.8359,916.0313 Q893.1563,914.375 895.6563,914.375 Q896.3594,914.375 897.0078,914.5313 Q897.6563,914.6875 898.2188,914.9844 L898.2188,917.7031 Q897.5938,917.125 897,916.8516 Q896.4063,916.5781 895.7813,916.5781 Q894.4375,916.5781 893.75,917.6484 Q893.0625,918.7188 893.0625,920.8125 Q893.0625,922.9063 893.75,923.9766 Q894.4375,925.0469 895.7813,925.0469 Q896.4063,925.0469 897,924.7734 Q897.5938,924.5 898.2188,923.9219 L898.2188,926.6406 Z "/><text fill="#000000" font-family="sans-serif" font-size="12" lengthAdjust="spacingAndGlyphs" textLength="125" x="915.75" y="925.1543">DynamicAttachment</text><line style="stroke: #A80036; stroke-width: 1.5;" x1="745.5" x2="1178.5" y1="937" y2="937"/><line style="stroke: #A80036; stroke-width: 1.5;" x1="745.5" x2="1178.5" y1="945" y2="945"/><ellipse cx="755.5" cy="956.9023" fill="#84BE84" rx="3" ry="3" style="stroke: #038048; stroke-width: 1.0;"/><text fill="#000000" font-family="sans-serif" font-size="11" lengthAdjust="spacingAndGlyphs" textLength="409" x="764.5" y="959.2104">DynamicAttachment(Engine, String, String, DynamicAttachmentProvider)</text></a><!--class org.apache.wiki.attachment.Attachment--><a href="Attachment.html" target="_top" xlink:actuate="onRequest" xlink:show="new" xlink:title="Attachment.html" xlink:type="simple"><rect fill="#FEFECE" filter="url(#fl1b8fq57tpsq)" height="124.8281" id="org.apache.wiki.attachment.Attachment" style="stroke: #A80036; stroke-width: 1.5;" width="220" x="959" y="291.5"/><ellipse cx="1028.25" cy="307.5" fill="#ADD1B2" rx="11" ry="11" style="stroke: #A80036; stroke-width: 1.0;"/><path d="M1031.2188,313.1406 Q1030.6406,313.4375 1030,313.5859 Q1029.3594,313.7344 1028.6563,313.7344 Q1026.1563,313.7344 1024.8359,312.0859 Q1023.5156,310.4375 1023.5156,307.3125 Q1023.5156,304.1875 1024.8359,302.5313 Q1026.1563,300.875 1028.6563,300.875 Q1029.3594,300.875 1030.0078,301.0313 Q1030.6563,301.1875 1031.2188,301.4844 L1031.2188,304.2031 Q1030.5938,303.625 1030,303.3516 Q1029.4063,303.0781 1028.7813,303.0781 Q1027.4375,303.0781 1026.75,304.1484 Q1026.0625,305.2188 1026.0625,307.3125 Q1026.0625,309.4063 1026.75,310.4766 Q1027.4375,311.5469 1028.7813,311.5469 Q1029.4063,311.5469 1030,311.2734 Q1030.5938,311 1031.2188,310.4219 L1031.2188,313.1406 Z "/><text fill="#000000" font-family="sans-serif" font-size="12" lengthAdjust="spacingAndGlyphs" textLength="73" x="1048.75" y="311.6543">Attachment</text><line style="stroke: #A80036; stroke-width: 1.5;" x1="960" x2="1178" y1="323.5" y2="323.5"/><line style="stroke: #A80036; stroke-width: 1.5;" x1="960" x2="1178" y1="331.5" y2="331.5"/><ellipse cx="970" cy="343.4023" fill="#84BE84" rx="3" ry="3" style="stroke: #038048; stroke-width: 1.0;"/><text fill="#000000" font-family="sans-serif" font-size="11" lengthAdjust="spacingAndGlyphs" textLength="194" x="979" y="345.7104">Attachment(Engine, String, String)</text><ellipse cx="970" cy="356.207" fill="#84BE84" rx="3" ry="3" style="stroke: #038048; stroke-width: 1.0;"/><text fill="#000000" font-family="sans-serif" font-size="11" lengthAdjust="spacingAndGlyphs" textLength="120" x="979" y="358.5151">getFileName(): String</text><ellipse cx="970" cy="369.0117" fill="#84BE84" rx="3" ry="3" style="stroke: #038048; stroke-width: 1.0;"/><text fill="#000000" font-family="sans-serif" font-size="11" lengthAdjust="spacingAndGlyphs" textLength="143" x="979" y="371.3198">setFileName(String): void</text><ellipse cx="970" cy="381.8164" fill="#84BE84" rx="3" ry="3" style="stroke: #038048; stroke-width: 1.0;"/><text fill="#000000" font-family="sans-serif" font-size="11" lengthAdjust="spacingAndGlyphs" textLength="138" x="979" y="384.1245">getParentName(): String</text><ellipse cx="970" cy="394.6211" fill="#84BE84" rx="3" ry="3" style="stroke: #038048; stroke-width: 1.0;"/><text fill="#000000" font-family="sans-serif" font-size="11" lengthAdjust="spacingAndGlyphs" textLength="130" x="979" y="396.9292">isCacheable(): boolean</text><ellipse cx="970" cy="407.4258" fill="#84BE84" rx="3" ry="3" style="stroke: #038048; stroke-width: 1.0;"/><text fill="#000000" font-family="sans-serif" font-size="11" lengthAdjust="spacingAndGlyphs" textLength="161" x="979" y="409.7339">setCacheable(boolean): void</text></a><!--class org.apache.wiki.attachment.DynamicAttachmentProvider--><a href="DynamicAttachmentProvider.html" target="_top" xlink:actuate="onRequest" xlink:show="new" xlink:title="DynamicAttachmentProvider.html" xlink:type="simple"><rect fill="#FEFECE" filter="url(#fl1b8fq57tpsq)" height="60.8047" id="org.apache.wiki.attachment.DynamicAttachmentProvider" style="stroke: #A80036; stroke-width: 1.5;" width="337" x="793.5" y="1188"/><ellipse cx="869.75" cy="1204" fill="#B4A7E5" rx="11" ry="11" style="stroke: #A80036; stroke-width: 1.0;"/><path d="M865.6719,1199.7656 L865.6719,1197.6094 L873.0625,1197.6094 L873.0625,1199.7656 L870.5938,1199.7656 L870.5938,1207.8438 L873.0625,1207.8438 L873.0625,1210 L865.6719,1210 L865.6719,1207.8438 L868.1406,1207.8438 L868.1406,1199.7656 L865.6719,1199.7656 Z "/><text fill="#000000" font-family="sans-serif" font-size="12" font-style="italic" lengthAdjust="spacingAndGlyphs" textLength="176" x="890.25" y="1208.1543">DynamicAttachmentProvider</text><line style="stroke: #A80036; stroke-width: 1.5;" x1="794.5" x2="1129.5" y1="1220" y2="1220"/><line style="stroke: #A80036; stroke-width: 1.5;" x1="794.5" x2="1129.5" y1="1228" y2="1228"/><ellipse cx="804.5" cy="1239.9023" fill="#84BE84" rx="3" ry="3" style="stroke: #038048; stroke-width: 1.0;"/><text fill="#000000" font-family="sans-serif" font-size="11" font-style="italic" lengthAdjust="spacingAndGlyphs" textLength="311" x="813.5" y="1242.2104">getAttachmentData(Context, Attachment): InputStream</text></a><!--class org.apache.wiki.attachment.DefaultAttachmentManager--><a href="DefaultAttachmentManager.html" target="_top" xlink:actuate="onRequest" xlink:show="new" xlink:title="DefaultAttachmentManager.html" xlink:type="simple"><rect fill="#FEFECE" filter="url(#fl1b8fq57tpsq)" height="227.2656" id="org.apache.wiki.attachment.DefaultAttachmentManager" style="stroke: #A80036; stroke-width: 1.5;" width="370" x="261" y="822"/><ellipse cx="355.25" cy="838" fill="#ADD1B2" rx="11" ry="11" style="stroke: #A80036; stroke-width: 1.0;"/><path d="M358.2188,843.6406 Q357.6406,843.9375 357,844.0859 Q356.3594,844.2344 355.6563,844.2344 Q353.1563,844.2344 351.8359,842.5859 Q350.5156,840.9375 350.5156,837.8125 Q350.5156,834.6875 351.8359,833.0313 Q353.1563,831.375 355.6563,831.375 Q356.3594,831.375 357.0078,831.5313 Q357.6563,831.6875 358.2188,831.9844 L358.2188,834.7031 Q357.5938,834.125 357,833.8516 Q356.4063,833.5781 355.7813,833.5781 Q354.4375,833.5781 353.75,834.6484 Q353.0625,835.7188 353.0625,837.8125 Q353.0625,839.9063 353.75,840.9766 Q354.4375,842.0469 355.7813,842.0469 Q356.4063,842.0469 357,841.7734 Q357.5938,841.5 358.2188,840.9219 L358.2188,843.6406 Z "/><text fill="#000000" font-family="sans-serif" font-size="12" lengthAdjust="spacingAndGlyphs" textLength="173" x="375.75" y="842.1543">DefaultAttachmentManager</text><line style="stroke: #A80036; stroke-width: 1.5;" x1="262" x2="630" y1="854" y2="854"/><line style="stroke: #A80036; stroke-width: 1.5;" x1="262" x2="630" y1="862" y2="862"/><ellipse cx="272" cy="873.9023" fill="#84BE84" rx="3" ry="3" style="stroke: #038048; stroke-width: 1.0;"/><text fill="#000000" font-family="sans-serif" font-size="11" lengthAdjust="spacingAndGlyphs" textLength="266" x="281" y="876.2104">DefaultAttachmentManager(Engine, Properties)</text><ellipse cx="272" cy="886.707" fill="#84BE84" rx="3" ry="3" style="stroke: #038048; stroke-width: 1.0;"/><text fill="#000000" font-family="sans-serif" font-size="11" lengthAdjust="spacingAndGlyphs" textLength="177" x="281" y="889.0151">attachmentsEnabled(): boolean</text><ellipse cx="272" cy="899.5117" fill="#84BE84" rx="3" ry="3" style="stroke: #038048; stroke-width: 1.0;"/><text fill="#000000" font-family="sans-serif" font-size="11" lengthAdjust="spacingAndGlyphs" textLength="271" x="281" y="901.8198">getAttachmentInfoName(Context, String): String</text><ellipse cx="272" cy="912.3164" fill="#84BE84" rx="3" ry="3" style="stroke: #038048; stroke-width: 1.0;"/><text fill="#000000" font-family="sans-serif" font-size="11" lengthAdjust="spacingAndGlyphs" textLength="290" x="281" y="914.6245">getAttachmentInfo(Context, String, int): Attachment</text><ellipse cx="272" cy="925.1211" fill="#84BE84" rx="3" ry="3" style="stroke: #038048; stroke-width: 1.0;"/><text fill="#000000" font-family="sans-serif" font-size="11" lengthAdjust="spacingAndGlyphs" textLength="234" x="281" y="927.4292">listAttachments(Page): List&lt;Attachment&gt;</text><ellipse cx="272" cy="937.9258" fill="#84BE84" rx="3" ry="3" style="stroke: #038048; stroke-width: 1.0;"/><text fill="#000000" font-family="sans-serif" font-size="11" lengthAdjust="spacingAndGlyphs" textLength="179" x="281" y="940.2339">forceDownload(String): boolean</text><ellipse cx="272" cy="950.7305" fill="#84BE84" rx="3" ry="3" style="stroke: #038048; stroke-width: 1.0;"/><text fill="#000000" font-family="sans-serif" font-size="11" lengthAdjust="spacingAndGlyphs" textLength="325" x="281" y="953.0386">getAttachmentStream(Context, Attachment): InputStream</text><ellipse cx="272" cy="963.5352" fill="#84BE84" rx="3" ry="3" style="stroke: #038048; stroke-width: 1.0;"/><text fill="#000000" font-family="sans-serif" font-size="11" lengthAdjust="spacingAndGlyphs" textLength="344" x="281" y="965.8433">storeDynamicAttachment(Context, DynamicAttachment): void</text><ellipse cx="272" cy="976.3398" fill="#84BE84" rx="3" ry="3" style="stroke: #038048; stroke-width: 1.0;"/><text fill="#000000" font-family="sans-serif" font-size="11" lengthAdjust="spacingAndGlyphs" textLength="292" x="281" y="978.6479">getDynamicAttachment(String): DynamicAttachment</text><ellipse cx="272" cy="989.1445" fill="#84BE84" rx="3" ry="3" style="stroke: #038048; stroke-width: 1.0;"/><text fill="#000000" font-family="sans-serif" font-size="11" lengthAdjust="spacingAndGlyphs" textLength="275" x="281" y="991.4526">storeAttachment(Attachment, InputStream): void</text><ellipse cx="272" cy="1001.9492" fill="#84BE84" rx="3" ry="3" style="stroke: #038048; stroke-width: 1.0;"/><text fill="#000000" font-family="sans-serif" font-size="11" lengthAdjust="spacingAndGlyphs" textLength="253" x="281" y="1004.2573">getVersionHistory(String): List&lt;Attachment&gt;</text><ellipse cx="272" cy="1014.7539" fill="#84BE84" rx="3" ry="3" style="stroke: #038048; stroke-width: 1.0;"/><text fill="#000000" font-family="sans-serif" font-size="11" lengthAdjust="spacingAndGlyphs" textLength="235" x="281" y="1017.062">getCurrentProvider(): AttachmentProvider</text><ellipse cx="272" cy="1027.5586" fill="#84BE84" rx="3" ry="3" style="stroke: #038048; stroke-width: 1.0;"/><text fill="#000000" font-family="sans-serif" font-size="11" lengthAdjust="spacingAndGlyphs" textLength="181" x="281" y="1029.8667">deleteVersion(Attachment): void</text><ellipse cx="272" cy="1040.3633" fill="#84BE84" rx="3" ry="3" style="stroke: #038048; stroke-width: 1.0;"/><text fill="#000000" font-family="sans-serif" font-size="11" lengthAdjust="spacingAndGlyphs" textLength="202" x="281" y="1042.6714">deleteAttachment(Attachment): void</text></a><!--class org.apache.wiki.attachment.AttachmentManager--><a href="AttachmentManager.html" target="_top" xlink:actuate="onRequest" xlink:show="new" xlink:title="AttachmentManager.html" xlink:type="simple"><rect fill="#FEFECE" filter="url(#fl1b8fq57tpsq)" height="393.7266" id="org.apache.wiki.attachment.AttachmentManager" style="stroke: #A80036; stroke-width: 1.5;" width="375" x="22.5" y="157"/><ellipse cx="141.75" cy="173" fill="#B4A7E5" rx="11" ry="11" style="stroke: #A80036; stroke-width: 1.0;"/><path d="M137.6719,168.7656 L137.6719,166.6094 L145.0625,166.6094 L145.0625,168.7656 L142.5938,168.7656 L142.5938,176.8438 L145.0625,176.8438 L145.0625,179 L137.6719,179 L137.6719,176.8438 L140.1406,176.8438 L140.1406,168.7656 L137.6719,168.7656 Z "/><text fill="#000000" font-family="sans-serif" font-size="12" font-style="italic" lengthAdjust="spacingAndGlyphs" textLength="128" x="162.25" y="177.1543">AttachmentManager</text><line style="stroke: #A80036; stroke-width: 1.5;" x1="23.5" x2="396.5" y1="189" y2="189"/><ellipse cx="33.5" cy="200.9023" fill="none" rx="3" ry="3" style="stroke: #038048; stroke-width: 1.0;"/><text fill="#000000" font-family="sans-serif" font-size="11" lengthAdjust="spacingAndGlyphs" text-decoration="underline" textLength="133" x="42.5" y="203.2104">PROP_PROVIDER: String</text><ellipse cx="33.5" cy="213.707" fill="none" rx="3" ry="3" style="stroke: #038048; stroke-width: 1.0;"/><text fill="#000000" font-family="sans-serif" font-size="11" lengthAdjust="spacingAndGlyphs" text-decoration="underline" textLength="128" x="42.5" y="216.0151">PROP_MAXSIZE: String</text><ellipse cx="33.5" cy="226.5117" fill="none" rx="3" ry="3" style="stroke: #038048; stroke-width: 1.0;"/><text fill="#000000" font-family="sans-serif" font-size="11" lengthAdjust="spacingAndGlyphs" text-decoration="underline" textLength="202" x="42.5" y="228.8198">PROP_ALLOWEDEXTENSIONS: String</text><ellipse cx="33.5" cy="239.3164" fill="none" rx="3" ry="3" style="stroke: #038048; stroke-width: 1.0;"/><text fill="#000000" font-family="sans-serif" font-size="11" lengthAdjust="spacingAndGlyphs" text-decoration="underline" textLength="214" x="42.5" y="241.6245">PROP_FORBIDDENEXTENSIONS: String</text><ellipse cx="33.5" cy="252.1211" fill="none" rx="3" ry="3" style="stroke: #038048; stroke-width: 1.0;"/><text fill="#000000" font-family="sans-serif" font-size="11" lengthAdjust="spacingAndGlyphs" text-decoration="underline" textLength="179" x="42.5" y="254.4292">PROP_FORCEDOWNLOAD: String</text><ellipse cx="33.5" cy="264.9258" fill="none" rx="3" ry="3" style="stroke: #038048; stroke-width: 1.0;"/><text fill="#000000" font-family="sans-serif" font-size="11" lengthAdjust="spacingAndGlyphs" text-decoration="underline" textLength="117" x="42.5" y="267.2339">CACHE_NAME: String</text><ellipse cx="33.5" cy="277.7305" fill="none" rx="3" ry="3" style="stroke: #038048; stroke-width: 1.0;"/><text fill="#000000" font-family="sans-serif" font-size="11" lengthAdjust="spacingAndGlyphs" text-decoration="underline" textLength="169" x="42.5" y="280.0386">DEFAULT_CACHECAPACITY: int</text><line style="stroke: #A80036; stroke-width: 1.5;" x1="23.5" x2="396.5" y1="286.6328" y2="286.6328"/><ellipse cx="33.5" cy="298.5352" fill="#84BE84" rx="3" ry="3" style="stroke: #038048; stroke-width: 1.0;"/><text fill="#000000" font-family="sans-serif" font-size="11" lengthAdjust="spacingAndGlyphs" textLength="217" x="42.5" y="300.8433">getAttachmentInfo(String): Attachment</text><ellipse cx="33.5" cy="311.3398" fill="#84BE84" rx="3" ry="3" style="stroke: #038048; stroke-width: 1.0;"/><text fill="#000000" font-family="sans-serif" font-size="11" lengthAdjust="spacingAndGlyphs" textLength="239" x="42.5" y="313.6479">getAttachmentInfo(String, int): Attachment</text><ellipse cx="33.5" cy="324.1445" fill="#84BE84" rx="3" ry="3" style="stroke: #038048; stroke-width: 1.0;"/><text fill="#000000" font-family="sans-serif" font-size="11" lengthAdjust="spacingAndGlyphs" textLength="268" x="42.5" y="326.4526">getAttachmentInfo(Context, String): Attachment</text><ellipse cx="33.5" cy="336.9492" fill="#84BE84" rx="3" ry="3" style="stroke: #038048; stroke-width: 1.0;"/><text fill="#000000" font-family="sans-serif" font-size="11" lengthAdjust="spacingAndGlyphs" textLength="181" x="42.5" y="339.2573">hasAttachments(Page): boolean</text><ellipse cx="33.5" cy="349.7539" fill="#84BE84" rx="3" ry="3" style="stroke: #038048; stroke-width: 1.0;"/><text fill="#000000" font-family="sans-serif" font-size="11" lengthAdjust="spacingAndGlyphs" textLength="274" x="42.5" y="352.062">getAttachmentStream(Attachment): InputStream</text><ellipse cx="33.5" cy="362.5586" fill="#84BE84" rx="3" ry="3" style="stroke: #038048; stroke-width: 1.0;"/><text fill="#000000" font-family="sans-serif" font-size="11" lengthAdjust="spacingAndGlyphs" textLength="224" x="42.5" y="364.8667">storeAttachment(Attachment, File): void</text><ellipse cx="33.5" cy="375.3633" fill="#84BE84" rx="3" ry="3" style="stroke: #038048; stroke-width: 1.0;"/><text fill="#000000" font-family="sans-serif" font-size="11" lengthAdjust="spacingAndGlyphs" text-decoration="underline" textLength="180" x="42.5" y="377.6714">validateFileName(String): String</text><ellipse cx="33.5" cy="388.168" fill="#84BE84" rx="3" ry="3" style="stroke: #038048; stroke-width: 1.0;"/><text fill="#000000" font-family="sans-serif" font-size="11" font-style="italic" lengthAdjust="spacingAndGlyphs" textLength="176" x="42.5" y="390.4761">attachmentsEnabled(): boolean</text><ellipse cx="33.5" cy="400.9727" fill="#84BE84" rx="3" ry="3" style="stroke: #038048; stroke-width: 1.0;"/><text fill="#000000" font-family="sans-serif" font-size="11" font-style="italic" lengthAdjust="spacingAndGlyphs" textLength="292" x="42.5" y="403.2808">getAttachmentInfo(Context, String, int): Attachment</text><ellipse cx="33.5" cy="413.7773" fill="#84BE84" rx="3" ry="3" style="stroke: #038048; stroke-width: 1.0;"/><text fill="#000000" font-family="sans-serif" font-size="11" font-style="italic" lengthAdjust="spacingAndGlyphs" textLength="271" x="42.5" y="416.0854">getAttachmentInfoName(Context, String): String</text><ellipse cx="33.5" cy="426.582" fill="#84BE84" rx="3" ry="3" style="stroke: #038048; stroke-width: 1.0;"/><text fill="#000000" font-family="sans-serif" font-size="11" font-style="italic" lengthAdjust="spacingAndGlyphs" textLength="233" x="42.5" y="428.8901">listAttachments(Page): List&lt;Attachment&gt;</text><ellipse cx="33.5" cy="439.3867" fill="#84BE84" rx="3" ry="3" style="stroke: #038048; stroke-width: 1.0;"/><text fill="#000000" font-family="sans-serif" font-size="11" font-style="italic" lengthAdjust="spacingAndGlyphs" textLength="178" x="42.5" y="441.6948">forceDownload(String): boolean</text><ellipse cx="33.5" cy="452.1914" fill="#84BE84" rx="3" ry="3" style="stroke: #038048; stroke-width: 1.0;"/><text fill="#000000" font-family="sans-serif" font-size="11" font-style="italic" lengthAdjust="spacingAndGlyphs" textLength="326" x="42.5" y="454.4995">getAttachmentStream(Context, Attachment): InputStream</text><ellipse cx="33.5" cy="464.9961" fill="#84BE84" rx="3" ry="3" style="stroke: #038048; stroke-width: 1.0;"/><text fill="#000000" font-family="sans-serif" font-size="11" font-style="italic" lengthAdjust="spacingAndGlyphs" textLength="349" x="42.5" y="467.3042">storeDynamicAttachment(Context, DynamicAttachment): void</text><ellipse cx="33.5" cy="477.8008" fill="#84BE84" rx="3" ry="3" style="stroke: #038048; stroke-width: 1.0;"/><text fill="#000000" font-family="sans-serif" font-size="11" font-style="italic" lengthAdjust="spacingAndGlyphs" textLength="295" x="42.5" y="480.1089">getDynamicAttachment(String): DynamicAttachment</text><ellipse cx="33.5" cy="490.6055" fill="#84BE84" rx="3" ry="3" style="stroke: #038048; stroke-width: 1.0;"/><text fill="#000000" font-family="sans-serif" font-size="11" font-style="italic" lengthAdjust="spacingAndGlyphs" textLength="276" x="42.5" y="492.9136">storeAttachment(Attachment, InputStream): void</text><ellipse cx="33.5" cy="503.4102" fill="#84BE84" rx="3" ry="3" style="stroke: #038048; stroke-width: 1.0;"/><text fill="#000000" font-family="sans-serif" font-size="11" font-style="italic" lengthAdjust="spacingAndGlyphs" textLength="252" x="42.5" y="505.7183">getVersionHistory(String): List&lt;Attachment&gt;</text><ellipse cx="33.5" cy="516.2148" fill="#84BE84" rx="3" ry="3" style="stroke: #038048; stroke-width: 1.0;"/><text fill="#000000" font-family="sans-serif" font-size="11" font-style="italic" lengthAdjust="spacingAndGlyphs" textLength="238" x="42.5" y="518.5229">getCurrentProvider(): AttachmentProvider</text><ellipse cx="33.5" cy="529.0195" fill="#84BE84" rx="3" ry="3" style="stroke: #038048; stroke-width: 1.0;"/><text fill="#000000" font-family="sans-serif" font-size="11" font-style="italic" lengthAdjust="spacingAndGlyphs" textLength="183" x="42.5" y="531.3276">deleteVersion(Attachment): void</text><ellipse cx="33.5" cy="541.8242" fill="#84BE84" rx="3" ry="3" style="stroke: #038048; stroke-width: 1.0;"/><text fill="#000000" font-family="sans-serif" font-size="11" font-style="italic" lengthAdjust="spacingAndGlyphs" textLength="205" x="42.5" y="544.1323">deleteAttachment(Attachment): void</text></a><!--class javax.servlet.http.HttpServlet--><rect fill="#FEFECE" filter="url(#fl1b8fq57tpsq)" height="48" id="javax.servlet.http.HttpServlet" style="stroke: #A80036; stroke-width: 1.5;" width="102" x="627" y="43"/><ellipse cx="642" cy="59" fill="#A9DCDF" rx="11" ry="11" style="stroke: #A80036; stroke-width: 1.0;"/><path d="M642.1094,54.3438 L640.9531,59.4219 L643.2813,59.4219 L642.1094,54.3438 Z M640.625,52.1094 L643.6094,52.1094 L646.9688,64.5 L644.5156,64.5 L643.75,61.4375 L640.4688,61.4375 L639.7188,64.5 L637.2813,64.5 L640.625,52.1094 Z "/><text fill="#000000" font-family="sans-serif" font-size="12" font-style="italic" lengthAdjust="spacingAndGlyphs" textLength="70" x="656" y="63.1543">HttpServlet</text><line style="stroke: #A80036; stroke-width: 1.5;" x1="628" x2="728" y1="75" y2="75"/><line style="stroke: #A80036; stroke-width: 1.5;" x1="628" x2="728" y1="83" y2="83"/><!--class org.apache.wiki.WikiPage--><rect fill="#FEFECE" filter="url(#fl1b8fq57tpsq)" height="48" id="org.apache.wiki.WikiPage" style="stroke: #A80036; stroke-width: 1.5;" width="88" x="1025" y="43"/><ellipse cx="1040" cy="59" fill="#ADD1B2" rx="11" ry="11" style="stroke: #A80036; stroke-width: 1.0;"/><path d="M1042.9688,64.6406 Q1042.3906,64.9375 1041.75,65.0859 Q1041.1094,65.2344 1040.4063,65.2344 Q1037.9063,65.2344 1036.5859,63.5859 Q1035.2656,61.9375 1035.2656,58.8125 Q1035.2656,55.6875 1036.5859,54.0313 Q1037.9063,52.375 1040.4063,52.375 Q1041.1094,52.375 1041.7578,52.5313 Q1042.4063,52.6875 1042.9688,52.9844 L1042.9688,55.7031 Q1042.3438,55.125 1041.75,54.8516 Q1041.1563,54.5781 1040.5313,54.5781 Q1039.1875,54.5781 1038.5,55.6484 Q1037.8125,56.7188 1037.8125,58.8125 Q1037.8125,60.9063 1038.5,61.9766 Q1039.1875,63.0469 1040.5313,63.0469 Q1041.1563,63.0469 1041.75,62.7734 Q1042.3438,62.5 1042.9688,61.9219 L1042.9688,64.6406 Z "/><text fill="#000000" font-family="sans-serif" font-size="12" lengthAdjust="spacingAndGlyphs" textLength="56" x="1054" y="63.1543">WikiPage</text><line style="stroke: #A80036; stroke-width: 1.5;" x1="1026" x2="1112" y1="75" y2="75"/><line style="stroke: #A80036; stroke-width: 1.5;" x1="1026" x2="1112" y1="83" y2="83"/><!--class org.apache.wiki.api.core.Attachment--><rect fill="#FEFECE" filter="url(#fl1b8fq57tpsq)" height="112.0234" id="org.apache.wiki.api.core.Attachment" style="stroke: #A80036; stroke-width: 1.5;" width="187" x="1202.5" y="633"/><ellipse cx="1255.25" cy="649" fill="#B4A7E5" rx="11" ry="11" style="stroke: #A80036; stroke-width: 1.0;"/><path d="M1251.1719,644.7656 L1251.1719,642.6094 L1258.5625,642.6094 L1258.5625,644.7656 L1256.0938,644.7656 L1256.0938,652.8438 L1258.5625,652.8438 L1258.5625,655 L1251.1719,655 L1251.1719,652.8438 L1253.6406,652.8438 L1253.6406,644.7656 L1251.1719,644.7656 Z "/><text fill="#000000" font-family="sans-serif" font-size="12" font-style="italic" lengthAdjust="spacingAndGlyphs" textLength="73" x="1275.75" y="653.1543">Attachment</text><line style="stroke: #A80036; stroke-width: 1.5;" x1="1203.5" x2="1388.5" y1="665" y2="665"/><line style="stroke: #A80036; stroke-width: 1.5;" x1="1203.5" x2="1388.5" y1="673" y2="673"/><ellipse cx="1213.5" cy="684.9023" fill="#84BE84" rx="3" ry="3" style="stroke: #038048; stroke-width: 1.0;"/><text fill="#000000" font-family="sans-serif" font-size="11" font-style="italic" lengthAdjust="spacingAndGlyphs" textLength="119" x="1222.5" y="687.2104">getFileName(): String</text><ellipse cx="1213.5" cy="697.707" fill="#84BE84" rx="3" ry="3" style="stroke: #038048; stroke-width: 1.0;"/><text fill="#000000" font-family="sans-serif" font-size="11" font-style="italic" lengthAdjust="spacingAndGlyphs" textLength="142" x="1222.5" y="700.0151">setFileName(String): void</text><ellipse cx="1213.5" cy="710.5117" fill="#84BE84" rx="3" ry="3" style="stroke: #038048; stroke-width: 1.0;"/><text fill="#000000" font-family="sans-serif" font-size="11" font-style="italic" lengthAdjust="spacingAndGlyphs" textLength="137" x="1222.5" y="712.8198">getParentName(): String</text><ellipse cx="1213.5" cy="723.3164" fill="#84BE84" rx="3" ry="3" style="stroke: #038048; stroke-width: 1.0;"/><text fill="#000000" font-family="sans-serif" font-size="11" font-style="italic" lengthAdjust="spacingAndGlyphs" textLength="129" x="1222.5" y="725.6245">isCacheable(): boolean</text><ellipse cx="1213.5" cy="736.1211" fill="#84BE84" rx="3" ry="3" style="stroke: #038048; stroke-width: 1.0;"/><text fill="#000000" font-family="sans-serif" font-size="11" font-style="italic" lengthAdjust="spacingAndGlyphs" textLength="161" x="1222.5" y="738.4292">setCacheable(boolean): void</text><!--link javax.servlet.http.HttpServlet to org.apache.wiki.attachment.AttachmentServlet--><path d="M678,111.5592 C678,157.8629 678,230.9484 678,284.7797 " fill="none" id="javax.servlet.http.HttpServlet-org.apache.wiki.attachment.AttachmentServlet" style="stroke: #A80036; stroke-width: 1.0;"/><polygon fill="none" points="671.0001,111.4695,678,91.4695,685.0001,111.4694,671.0001,111.4695" style="stroke: #A80036; stroke-width: 1.0;"/><!--link org.apache.wiki.attachment.Attachment to org.apache.wiki.attachment.DynamicAttachment--><path d="M1033.8914,435.5005 C1017.1133,478.0627 998.452,531.4716 988,581 C963.1529,698.7422 961.0732,842.7979 961.4929,904.7643 " fill="none" id="org.apache.wiki.attachment.Attachment-org.apache.wiki.attachment.DynamicAttachment" style="stroke: #A80036; stroke-width: 1.0;"/><polygon fill="none" points="1027.4718,432.7025,1041.4315,416.7611,1040.4599,437.9285,1027.4718,432.7025" style="stroke: #A80036; stroke-width: 1.0;"/><!--link org.apache.wiki.WikiPage to org.apache.wiki.attachment.Attachment--><path d="M1069,111.6943 C1069,159.8995 1069,237.0174 1069,291.2799 " fill="none" id="org.apache.wiki.WikiPage-org.apache.wiki.attachment.Attachment" style="stroke: #A80036; stroke-width: 1.0;"/><polygon fill="none" points="1062.0001,111.4695,1069,91.4695,1076.0001,111.4694,1062.0001,111.4695" style="stroke: #A80036; stroke-width: 1.0;"/><!--link org.apache.wiki.api.core.Attachment to org.apache.wiki.attachment.Attachment--><path d="M1246.4795,615.9191 C1206.1228,556.3619 1149.7395,473.153 1111.4307,416.618 " fill="none" id="org.apache.wiki.api.core.Attachment-org.apache.wiki.attachment.Attachment" style="stroke: #A80036; stroke-width: 1.0; stroke-dasharray: 7.0,7.0;"/><polygon fill="none" points="1252.5051,612.3328,1257.9293,632.8164,1240.9152,620.1862,1252.5051,612.3328" style="stroke: #A80036; stroke-width: 1.0;"/><!--link org.apache.wiki.attachment.AttachmentManager to org.apache.wiki.attachment.DefaultAttachmentManager--><path d="M297.6321,569.9241 C332.3146,655.3812 370.7526,750.0918 399.8133,821.6968 " fill="none" id="org.apache.wiki.attachment.AttachmentManager-org.apache.wiki.attachment.DefaultAttachmentManager" style="stroke: #A80036; stroke-width: 1.0; stroke-dasharray: 7.0,7.0;"/><polygon fill="none" points="291.0985,572.4393,290.0635,551.275,304.0708,567.1745,291.0985,572.4393" style="stroke: #A80036; stroke-width: 1.0;"/><!--link org.apache.wiki.attachment.DynamicAttachment to org.apache.wiki.attachment.DynamicAttachmentProvider--><path d="M962,966.0548 C962,1018.6691 962,1126.1268 962,1182.3647 " fill="none" id="org.apache.wiki.attachment.DynamicAttachment-org.apache.wiki.attachment.DynamicAttachmentProvider" style="stroke: #A80036; stroke-width: 1.0;"/><polygon fill="#A80036" points="962,1187.6436,966,1178.6436,962,1182.6436,958,1178.6436,962,1187.6436" style="stroke: #A80036; stroke-width: 1.0;"/><text fill="#000000" font-family="sans-serif" font-size="13" lengthAdjust="spacingAndGlyphs" textLength="52" x="963" y="1123.0669">provider</text><!--link org.apache.wiki.attachment.DefaultAttachmentManager to org.apache.wiki.api.core.Attachment--><path d="M631.301,853.4737 C662.8048,841.6124 695.5191,830.5477 727,822 C929.9022,766.9078 997.9046,826.1973 1195,753 C1199.5974,751.2926 1204.2065,749.3553 1208.7859,747.245 " fill="none" id="org.apache.wiki.attachment.DefaultAttachmentManager-org.apache.wiki.api.core.Attachment" style="stroke: #A80036; stroke-width: 1.0;"/><polygon fill="#A80036" points="1213.3538,745.0792,1203.5079,745.3205,1208.8359,747.2212,1206.9352,752.5492,1213.3538,745.0792" style="stroke: #A80036; stroke-width: 1.0;"/><text fill="#000000" font-family="sans-serif" font-size="13" lengthAdjust="spacingAndGlyphs" textLength="97" x="1120" y="788.0669">allAttachments</text><text fill="#000000" font-family="sans-serif" font-size="13" lengthAdjust="spacingAndGlyphs" textLength="7" x="1195.8547" y="764.9015">*</text><!--link org.apache.wiki.attachment.AttachmentManager to org.apache.wiki.api.core.Attachment--><path d="M397.6159,542.4875 C403.3381,545.5475 409.1355,548.3955 415,551 C434.8508,559.816 1174.822,597.9608 1195,606 C1209.3018,611.6981 1223.1156,620.2038 1235.6959,629.6293 " fill="none" id="org.apache.wiki.attachment.AttachmentManager-org.apache.wiki.api.core.Attachment" style="stroke: #A80036; stroke-width: 1.0;"/><polygon fill="#A80036" points="1239.9139,632.8583,1235.1992,624.2112,1235.9438,629.8189,1230.3361,630.5635,1239.9139,632.8583" style="stroke: #A80036; stroke-width: 1.0;"/><text fill="#000000" font-family="sans-serif" font-size="13" lengthAdjust="spacingAndGlyphs" textLength="97" x="1093" y="594.0669">allAttachments</text><text fill="#000000" font-family="sans-serif" font-size="13" lengthAdjust="spacingAndGlyphs" textLength="7" x="1225.2794" y="621.7781">*</text><text fill="#888888" font-family="sans-serif" font-size="10" lengthAdjust="spacingAndGlyphs" textLength="186" x="622.5" y="1284.2822">UMLDoclet 1.1.4, PlantUML 1.2019.05</text><!--
@startuml

    namespace org.apache.wiki.attachment {

        class AttachmentServlet [[AttachmentServlet.html]] {
            {static} #DEFAULT_EXPIRY: long
            +init(ServletConfig): void
            #doOptions(HttpServletRequest, HttpServletResponse): void
            +doGet(HttpServletRequest, HttpServletResponse): void
            +doPost(HttpServletRequest, HttpServletResponse): void
            #upload(HttpServletRequest): String
            #executeUpload(Context, InputStream, String, String, String, String, long): boolean
        }

        class DynamicAttachment [[DynamicAttachment.html]] {
            +DynamicAttachment(Engine, String, String, DynamicAttachmentProvider)
        }

        class Attachment [[Attachment.html]] {
            +Attachment(Engine, String, String)
            +getFileName(): String
            +setFileName(String): void
            +getParentName(): String
            +isCacheable(): boolean
            +setCacheable(boolean): void
        }

        interface DynamicAttachmentProvider [[DynamicAttachmentProvider.html]] {
            {abstract} +getAttachmentData(Context, Attachment): InputStream
        }

        class DefaultAttachmentManager [[DefaultAttachmentManager.html]] {
            +DefaultAttachmentManager(Engine, Properties)
            +attachmentsEnabled(): boolean
            +getAttachmentInfoName(Context, String): String
            +getAttachmentInfo(Context, String, int): Attachment
            +listAttachments(Page): List<Attachment>
            +forceDownload(String): boolean
            +getAttachmentStream(Context, Attachment): InputStream
            +storeDynamicAttachment(Context, DynamicAttachment): void
            +getDynamicAttachment(String): DynamicAttachment
            +storeAttachment(Attachment, InputStream): void
            +getVersionHistory(String): List<Attachment>
            +getCurrentProvider(): AttachmentProvider
            +deleteVersion(Attachment): void
            +deleteAttachment(Attachment): void
        }

        interface AttachmentManager [[AttachmentManager.html]] {
            {static} +PROP_PROVIDER: String
            {static} +PROP_MAXSIZE: String
            {static} +PROP_ALLOWEDEXTENSIONS: String
            {static} +PROP_FORBIDDENEXTENSIONS: String
            {static} +PROP_FORCEDOWNLOAD: String
            {static} +CACHE_NAME: String
            {static} +DEFAULT_CACHECAPACITY: int
            +getAttachmentInfo(String): Attachment
            +getAttachmentInfo(String, int): Attachment
            +getAttachmentInfo(Context, String): Attachment
            +hasAttachments(Page): boolean
            +getAttachmentStream(Attachment): InputStream
            +storeAttachment(Attachment, File): void
            {static} +validateFileName(String): String
            {abstract} +attachmentsEnabled(): boolean
            {abstract} +getAttachmentInfo(Context, String, int): Attachment
            {abstract} +getAttachmentInfoName(Context, String): String
            {abstract} +listAttachments(Page): List<Attachment>
            {abstract} +forceDownload(String): boolean
            {abstract} +getAttachmentStream(Context, Attachment): InputStream
            {abstract} +storeDynamicAttachment(Context, DynamicAttachment): void
            {abstract} +getDynamicAttachment(String): DynamicAttachment
            {abstract} +storeAttachment(Attachment, InputStream): void
            {abstract} +getVersionHistory(String): List<Attachment>
            {abstract} +getCurrentProvider(): AttachmentProvider
            {abstract} +deleteVersion(Attachment): void
            {abstract} +deleteAttachment(Attachment): void
        }

        abstract class javax.servlet.http.HttpServlet
        javax.servlet.http.HttpServlet <|- - AttachmentServlet

        Attachment <|- - DynamicAttachment

        class org.apache.wiki.WikiPage
        org.apache.wiki.WikiPage <|- - Attachment

        interface org.apache.wiki.api.core.Attachment {
            {abstract} +getFileName(): String
            {abstract} +setFileName(String): void
            {abstract} +getParentName(): String
            {abstract} +isCacheable(): boolean
            {abstract} +setCacheable(boolean): void
        }
        org.apache.wiki.api.core.Attachment <|.. Attachment

        AttachmentManager <|.. DefaultAttachmentManager

        DynamicAttachment - -> DynamicAttachmentProvider: provider

        DefaultAttachmentManager - -> "*" org.apache.wiki.api.core.Attachment: allAttachments

        AttachmentManager - -> "*" org.apache.wiki.api.core.Attachment: allAttachments

    }


    center footer UMLDoclet 1.1.4, PlantUML 1.2019.05
@enduml

PlantUML version 1.2019.05(Sat Apr 20 16:45:36 UTC 2019)
(APACHE source distribution)
Java Runtime: Java(TM) SE Runtime Environment
JVM: Java HotSpot(TM) 64-Bit Server VM
Java Version: 1.8.0_241-b07
Operating System: Linux
OS Version: 4.15.0-76-generic
Default Encoding: ISO-8859-1
Language: en
Country: US
--></g></svg>