<?xml version="1.0" encoding="UTF-8" standalone="no"?><svg xmlns="http://www.w3.org/2000/svg" xmlns:xlink="http://www.w3.org/1999/xlink" contentScriptType="application/ecmascript" contentStyleType="text/css" height="1283px" preserveAspectRatio="none" style="width:1140px;height:1283px;" version="1.1" viewBox="0 0 1140 1283" width="1140px" zoomAndPan="magnify"><defs><filter height="300%" id="folprbawbje0v" width="300%" x="-1" y="-1"><feGaussianBlur result="blurOut" stdDeviation="2.0"/><feColorMatrix in="blurOut" result="blurOut2" type="matrix" values="0 0 0 0 0 0 0 0 0 0 0 0 0 0 0 0 0 0 .4 0"/><feOffset dx="4.0" dy="4.0" in="blurOut2" result="blurOut3"/><feBlend in="SourceGraphic" in2="blurOut3" mode="normal"/></filter></defs><g><!--cluster org.apache.wiki.attachment--><polygon fill="#FFFFFF" filter="url(#folprbawbje0v)" points="14,130,239,130,246,152.2969,969,152.2969,969,1243,14,1243,14,130" style="stroke: #000000; stroke-width: 1.5;"/><line style="stroke: #000000; stroke-width: 1.5;" x1="14" x2="246" y1="152.2969" y2="152.2969"/><text fill="#000000" font-family="sans-serif" font-size="14" font-weight="bold" lengthAdjust="spacingAndGlyphs" textLength="219" x="18" y="144.9951">org.apache.wiki.attachment</text><!--cluster javax.servlet.http--><polygon fill="#FFFFFF" filter="url(#folprbawbje0v)" points="629,16,772,16,779,38.2969,782,38.2969,782,99,629,99,629,16" style="stroke: #000000; stroke-width: 1.5;"/><line style="stroke: #000000; stroke-width: 1.5;" x1="629" x2="779" y1="38.2969" y2="38.2969"/><text fill="#000000" font-family="sans-serif" font-size="14" font-weight="bold" lengthAdjust="spacingAndGlyphs" textLength="137" x="633" y="30.9951">javax.servlet.http</text><!--cluster org.apache.wiki--><polygon fill="#FFFFFF" filter="url(#folprbawbje0v)" points="977,590,1108,590,1115,612.2969,1118,612.2969,1118,673,977,673,977,590" style="stroke: #000000; stroke-width: 1.5;"/><line style="stroke: #000000; stroke-width: 1.5;" x1="977" x2="1115" y1="612.2969" y2="612.2969"/><text fill="#000000" font-family="sans-serif" font-size="14" font-weight="bold" lengthAdjust="spacingAndGlyphs" textLength="125" x="981" y="604.9951">org.apache.wiki</text><!--class org.apache.wiki.attachment.DynamicAttachmentProvider--><a href="DynamicAttachmentProvider.html" target="_top" xlink:actuate="onRequest" xlink:show="new" xlink:title="DynamicAttachmentProvider.html" xlink:type="simple"><rect fill="#FEFECE" filter="url(#folprbawbje0v)" height="60.8047" id="org.apache.wiki.attachment.DynamicAttachmentProvider" style="stroke: #A80036; stroke-width: 1.5;" width="360" x="311" y="1174"/><ellipse cx="398.75" cy="1190" fill="#B4A7E5" rx="11" ry="11" style="stroke: #A80036; stroke-width: 1.0;"/><path d="M394.6719,1185.7656 L394.6719,1183.6094 L402.0625,1183.6094 L402.0625,1185.7656 L399.5938,1185.7656 L399.5938,1193.8438 L402.0625,1193.8438 L402.0625,1196 L394.6719,1196 L394.6719,1193.8438 L397.1406,1193.8438 L397.1406,1185.7656 L394.6719,1185.7656 Z "/><text fill="#000000" font-family="sans-serif" font-size="12" font-style="italic" lengthAdjust="spacingAndGlyphs" textLength="176" x="419.25" y="1194.1543">DynamicAttachmentProvider</text><line style="stroke: #A80036; stroke-width: 1.5;" x1="312" x2="670" y1="1206" y2="1206"/><line style="stroke: #A80036; stroke-width: 1.5;" x1="312" x2="670" y1="1214" y2="1214"/><ellipse cx="322" cy="1225.9023" fill="#84BE84" rx="3" ry="3" style="stroke: #038048; stroke-width: 1.0;"/><text fill="#000000" font-family="sans-serif" font-size="11" font-style="italic" lengthAdjust="spacingAndGlyphs" textLength="334" x="331" y="1228.2104">getAttachmentData(WikiContext, Attachment): InputStream</text></a><!--class org.apache.wiki.attachment.AttachmentServlet--><a href="AttachmentServlet.html" target="_top" xlink:actuate="onRequest" xlink:show="new" xlink:title="AttachmentServlet.html" xlink:type="simple"><rect fill="#FEFECE" filter="url(#folprbawbje0v)" height="137.6328" id="org.apache.wiki.attachment.AttachmentServlet" style="stroke: #A80036; stroke-width: 1.5;" width="512" x="449" y="285"/><ellipse cx="642.75" cy="301" fill="#ADD1B2" rx="11" ry="11" style="stroke: #A80036; stroke-width: 1.0;"/><path d="M645.7188,306.6406 Q645.1406,306.9375 644.5,307.0859 Q643.8594,307.2344 643.1563,307.2344 Q640.6563,307.2344 639.3359,305.5859 Q638.0156,303.9375 638.0156,300.8125 Q638.0156,297.6875 639.3359,296.0313 Q640.6563,294.375 643.1563,294.375 Q643.8594,294.375 644.5078,294.5313 Q645.1563,294.6875 645.7188,294.9844 L645.7188,297.7031 Q645.0938,297.125 644.5,296.8516 Q643.9063,296.5781 643.2813,296.5781 Q641.9375,296.5781 641.25,297.6484 Q640.5625,298.7188 640.5625,300.8125 Q640.5625,302.9063 641.25,303.9766 Q641.9375,305.0469 643.2813,305.0469 Q643.9063,305.0469 644.5,304.7734 Q645.0938,304.5 645.7188,303.9219 L645.7188,306.6406 Z "/><text fill="#000000" font-family="sans-serif" font-size="12" lengthAdjust="spacingAndGlyphs" textLength="116" x="663.25" y="305.1543">AttachmentServlet</text><line style="stroke: #A80036; stroke-width: 1.5;" x1="450" x2="960" y1="317" y2="317"/><polygon fill="none" points="460,323.9023,464,327.9023,460,331.9023,456,327.9023" style="stroke: #B38D22; stroke-width: 1.0;"/><text fill="#000000" font-family="sans-serif" font-size="11" lengthAdjust="spacingAndGlyphs" text-decoration="underline" textLength="125" x="469" y="331.2104">DEFAULT_EXPIRY: long</text><line style="stroke: #A80036; stroke-width: 1.5;" x1="450" x2="960" y1="337.8047" y2="337.8047"/><ellipse cx="460" cy="349.707" fill="#84BE84" rx="3" ry="3" style="stroke: #038048; stroke-width: 1.0;"/><text fill="#000000" font-family="sans-serif" font-size="11" lengthAdjust="spacingAndGlyphs" textLength="132" x="469" y="352.0151">init(ServletConfig): void</text><polygon fill="#FFFF44" points="460,357.5117,464,361.5117,460,365.5117,456,361.5117" style="stroke: #B38D22; stroke-width: 1.0;"/><text fill="#000000" font-family="sans-serif" font-size="11" lengthAdjust="spacingAndGlyphs" textLength="333" x="469" y="364.8198">doOptions(HttpServletRequest, HttpServletResponse): void</text><ellipse cx="460" cy="375.3164" fill="#84BE84" rx="3" ry="3" style="stroke: #038048; stroke-width: 1.0;"/><text fill="#000000" font-family="sans-serif" font-size="11" lengthAdjust="spacingAndGlyphs" textLength="309" x="469" y="377.6245">doGet(HttpServletRequest, HttpServletResponse): void</text><ellipse cx="460" cy="388.1211" fill="#84BE84" rx="3" ry="3" style="stroke: #038048; stroke-width: 1.0;"/><text fill="#000000" font-family="sans-serif" font-size="11" lengthAdjust="spacingAndGlyphs" textLength="314" x="469" y="390.4292">doPost(HttpServletRequest, HttpServletResponse): void</text><polygon fill="#FFFF44" points="460,395.9258,464,399.9258,460,403.9258,456,399.9258" style="stroke: #B38D22; stroke-width: 1.0;"/><text fill="#000000" font-family="sans-serif" font-size="11" lengthAdjust="spacingAndGlyphs" textLength="197" x="469" y="403.2339">upload(HttpServletRequest): String</text><polygon fill="#FFFF44" points="460,408.7305,464,412.7305,460,416.7305,456,412.7305" style="stroke: #B38D22; stroke-width: 1.0;"/><text fill="#000000" font-family="sans-serif" font-size="11" lengthAdjust="spacingAndGlyphs" textLength="486" x="469" y="416.0386">executeUpload(WikiContext, InputStream, String, String, String, String, long): boolean</text></a><!--class org.apache.wiki.attachment.DynamicAttachment--><a href="DynamicAttachment.html" target="_top" xlink:actuate="onRequest" xlink:show="new" xlink:title="DynamicAttachment.html" xlink:type="simple"><rect fill="#FEFECE" filter="url(#folprbawbje0v)" height="60.8047" id="org.apache.wiki.attachment.DynamicAttachment" style="stroke: #A80036; stroke-width: 1.5;" width="456" x="263" y="974"/><ellipse cx="424.25" cy="990" fill="#ADD1B2" rx="11" ry="11" style="stroke: #A80036; stroke-width: 1.0;"/><path d="M427.2188,995.6406 Q426.6406,995.9375 426,996.0859 Q425.3594,996.2344 424.6563,996.2344 Q422.1563,996.2344 420.8359,994.5859 Q419.5156,992.9375 419.5156,989.8125 Q419.5156,986.6875 420.8359,985.0313 Q422.1563,983.375 424.6563,983.375 Q425.3594,983.375 426.0078,983.5313 Q426.6563,983.6875 427.2188,983.9844 L427.2188,986.7031 Q426.5938,986.125 426,985.8516 Q425.4063,985.5781 424.7813,985.5781 Q423.4375,985.5781 422.75,986.6484 Q422.0625,987.7188 422.0625,989.8125 Q422.0625,991.9063 422.75,992.9766 Q423.4375,994.0469 424.7813,994.0469 Q425.4063,994.0469 426,993.7734 Q426.5938,993.5 427.2188,992.9219 L427.2188,995.6406 Z "/><text fill="#000000" font-family="sans-serif" font-size="12" lengthAdjust="spacingAndGlyphs" textLength="125" x="444.75" y="994.1543">DynamicAttachment</text><line style="stroke: #A80036; stroke-width: 1.5;" x1="264" x2="718" y1="1006" y2="1006"/><line style="stroke: #A80036; stroke-width: 1.5;" x1="264" x2="718" y1="1014" y2="1014"/><ellipse cx="274" cy="1025.9023" fill="#84BE84" rx="3" ry="3" style="stroke: #038048; stroke-width: 1.0;"/><text fill="#000000" font-family="sans-serif" font-size="11" lengthAdjust="spacingAndGlyphs" textLength="430" x="283" y="1028.2104">DynamicAttachment(WikiEngine, String, String, DynamicAttachmentProvider)</text></a><!--class org.apache.wiki.attachment.Attachment--><a href="Attachment.html" target="_top" xlink:actuate="onRequest" xlink:show="new" xlink:title="Attachment.html" xlink:type="simple"><rect fill="#FEFECE" filter="url(#folprbawbje0v)" height="124.8281" id="org.apache.wiki.attachment.Attachment" style="stroke: #A80036; stroke-width: 1.5;" width="241" x="370.5" y="726"/><ellipse cx="450.25" cy="742" fill="#ADD1B2" rx="11" ry="11" style="stroke: #A80036; stroke-width: 1.0;"/><path d="M453.2188,747.6406 Q452.6406,747.9375 452,748.0859 Q451.3594,748.2344 450.6563,748.2344 Q448.1563,748.2344 446.8359,746.5859 Q445.5156,744.9375 445.5156,741.8125 Q445.5156,738.6875 446.8359,737.0313 Q448.1563,735.375 450.6563,735.375 Q451.3594,735.375 452.0078,735.5313 Q452.6563,735.6875 453.2188,735.9844 L453.2188,738.7031 Q452.5938,738.125 452,737.8516 Q451.4063,737.5781 450.7813,737.5781 Q449.4375,737.5781 448.75,738.6484 Q448.0625,739.7188 448.0625,741.8125 Q448.0625,743.9063 448.75,744.9766 Q449.4375,746.0469 450.7813,746.0469 Q451.4063,746.0469 452,745.7734 Q452.5938,745.5 453.2188,744.9219 L453.2188,747.6406 Z "/><text fill="#000000" font-family="sans-serif" font-size="12" lengthAdjust="spacingAndGlyphs" textLength="73" x="470.75" y="746.1543">Attachment</text><line style="stroke: #A80036; stroke-width: 1.5;" x1="371.5" x2="610.5" y1="758" y2="758"/><line style="stroke: #A80036; stroke-width: 1.5;" x1="371.5" x2="610.5" y1="766" y2="766"/><ellipse cx="381.5" cy="777.9023" fill="#84BE84" rx="3" ry="3" style="stroke: #038048; stroke-width: 1.0;"/><text fill="#000000" font-family="sans-serif" font-size="11" lengthAdjust="spacingAndGlyphs" textLength="215" x="390.5" y="780.2104">Attachment(WikiEngine, String, String)</text><ellipse cx="381.5" cy="790.707" fill="#84BE84" rx="3" ry="3" style="stroke: #038048; stroke-width: 1.0;"/><text fill="#000000" font-family="sans-serif" font-size="11" lengthAdjust="spacingAndGlyphs" textLength="120" x="390.5" y="793.0151">getFileName(): String</text><ellipse cx="381.5" cy="803.5117" fill="#84BE84" rx="3" ry="3" style="stroke: #038048; stroke-width: 1.0;"/><text fill="#000000" font-family="sans-serif" font-size="11" lengthAdjust="spacingAndGlyphs" textLength="143" x="390.5" y="805.8198">setFileName(String): void</text><ellipse cx="381.5" cy="816.3164" fill="#84BE84" rx="3" ry="3" style="stroke: #038048; stroke-width: 1.0;"/><text fill="#000000" font-family="sans-serif" font-size="11" lengthAdjust="spacingAndGlyphs" textLength="138" x="390.5" y="818.6245">getParentName(): String</text><ellipse cx="381.5" cy="829.1211" fill="#84BE84" rx="3" ry="3" style="stroke: #038048; stroke-width: 1.0;"/><text fill="#000000" font-family="sans-serif" font-size="11" lengthAdjust="spacingAndGlyphs" textLength="130" x="390.5" y="831.4292">isCacheable(): boolean</text><ellipse cx="381.5" cy="841.9258" fill="#84BE84" rx="3" ry="3" style="stroke: #038048; stroke-width: 1.0;"/><text fill="#000000" font-family="sans-serif" font-size="11" lengthAdjust="spacingAndGlyphs" textLength="161" x="390.5" y="844.2339">setCacheable(boolean): void</text></a><!--class org.apache.wiki.attachment.AttachmentManager--><a href="AttachmentManager.html" target="_top" xlink:actuate="onRequest" xlink:show="new" xlink:title="AttachmentManager.html" xlink:type="simple"><rect fill="#FEFECE" filter="url(#folprbawbje0v)" height="393.7266" id="org.apache.wiki.attachment.AttachmentManager" style="stroke: #A80036; stroke-width: 1.5;" width="391" x="22.5" y="157"/><ellipse cx="149.75" cy="173" fill="#ADD1B2" rx="11" ry="11" style="stroke: #A80036; stroke-width: 1.0;"/><path d="M152.7188,178.6406 Q152.1406,178.9375 151.5,179.0859 Q150.8594,179.2344 150.1563,179.2344 Q147.6563,179.2344 146.3359,177.5859 Q145.0156,175.9375 145.0156,172.8125 Q145.0156,169.6875 146.3359,168.0313 Q147.6563,166.375 150.1563,166.375 Q150.8594,166.375 151.5078,166.5313 Q152.1563,166.6875 152.7188,166.9844 L152.7188,169.7031 Q152.0938,169.125 151.5,168.8516 Q150.9063,168.5781 150.2813,168.5781 Q148.9375,168.5781 148.25,169.6484 Q147.5625,170.7188 147.5625,172.8125 Q147.5625,174.9063 148.25,175.9766 Q148.9375,177.0469 150.2813,177.0469 Q150.9063,177.0469 151.5,176.7734 Q152.0938,176.5 152.7188,175.9219 L152.7188,178.6406 Z "/><text fill="#000000" font-family="sans-serif" font-size="12" lengthAdjust="spacingAndGlyphs" textLength="128" x="170.25" y="177.1543">AttachmentManager</text><line style="stroke: #A80036; stroke-width: 1.5;" x1="23.5" x2="412.5" y1="189" y2="189"/><ellipse cx="33.5" cy="200.9023" fill="none" rx="3" ry="3" style="stroke: #038048; stroke-width: 1.0;"/><text fill="#000000" font-family="sans-serif" font-size="11" lengthAdjust="spacingAndGlyphs" text-decoration="underline" textLength="133" x="42.5" y="203.2104">PROP_PROVIDER: String</text><ellipse cx="33.5" cy="213.707" fill="none" rx="3" ry="3" style="stroke: #038048; stroke-width: 1.0;"/><text fill="#000000" font-family="sans-serif" font-size="11" lengthAdjust="spacingAndGlyphs" text-decoration="underline" textLength="128" x="42.5" y="216.0151">PROP_MAXSIZE: String</text><ellipse cx="33.5" cy="226.5117" fill="none" rx="3" ry="3" style="stroke: #038048; stroke-width: 1.0;"/><text fill="#000000" font-family="sans-serif" font-size="11" lengthAdjust="spacingAndGlyphs" text-decoration="underline" textLength="202" x="42.5" y="228.8198">PROP_ALLOWEDEXTENSIONS: String</text><ellipse cx="33.5" cy="239.3164" fill="none" rx="3" ry="3" style="stroke: #038048; stroke-width: 1.0;"/><text fill="#000000" font-family="sans-serif" font-size="11" lengthAdjust="spacingAndGlyphs" text-decoration="underline" textLength="214" x="42.5" y="241.6245">PROP_FORBIDDENEXTENSIONS: String</text><ellipse cx="33.5" cy="252.1211" fill="none" rx="3" ry="3" style="stroke: #038048; stroke-width: 1.0;"/><text fill="#000000" font-family="sans-serif" font-size="11" lengthAdjust="spacingAndGlyphs" text-decoration="underline" textLength="179" x="42.5" y="254.4292">PROP_FORCEDOWNLOAD: String</text><ellipse cx="33.5" cy="264.9258" fill="none" rx="3" ry="3" style="stroke: #038048; stroke-width: 1.0;"/><text fill="#000000" font-family="sans-serif" font-size="11" lengthAdjust="spacingAndGlyphs" text-decoration="underline" textLength="117" x="42.5" y="267.2339">CACHE_NAME: String</text><ellipse cx="33.5" cy="277.7305" fill="none" rx="3" ry="3" style="stroke: #038048; stroke-width: 1.0;"/><text fill="#000000" font-family="sans-serif" font-size="11" lengthAdjust="spacingAndGlyphs" text-decoration="underline" textLength="169" x="42.5" y="280.0386">DEFAULT_CACHECAPACITY: int</text><line style="stroke: #A80036; stroke-width: 1.5;" x1="23.5" x2="412.5" y1="286.6328" y2="286.6328"/><ellipse cx="33.5" cy="298.5352" fill="#84BE84" rx="3" ry="3" style="stroke: #038048; stroke-width: 1.0;"/><text fill="#000000" font-family="sans-serif" font-size="11" lengthAdjust="spacingAndGlyphs" textLength="247" x="42.5" y="300.8433">AttachmentManager(WikiEngine, Properties)</text><ellipse cx="33.5" cy="311.3398" fill="#84BE84" rx="3" ry="3" style="stroke: #038048; stroke-width: 1.0;"/><text fill="#000000" font-family="sans-serif" font-size="11" lengthAdjust="spacingAndGlyphs" textLength="177" x="42.5" y="313.6479">attachmentsEnabled(): boolean</text><ellipse cx="33.5" cy="324.1445" fill="#84BE84" rx="3" ry="3" style="stroke: #038048; stroke-width: 1.0;"/><text fill="#000000" font-family="sans-serif" font-size="11" lengthAdjust="spacingAndGlyphs" textLength="217" x="42.5" y="326.4526">getAttachmentInfo(String): Attachment</text><ellipse cx="33.5" cy="336.9492" fill="#84BE84" rx="3" ry="3" style="stroke: #038048; stroke-width: 1.0;"/><text fill="#000000" font-family="sans-serif" font-size="11" lengthAdjust="spacingAndGlyphs" textLength="239" x="42.5" y="339.2573">getAttachmentInfo(String, int): Attachment</text><ellipse cx="33.5" cy="349.7539" fill="#84BE84" rx="3" ry="3" style="stroke: #038048; stroke-width: 1.0;"/><text fill="#000000" font-family="sans-serif" font-size="11" lengthAdjust="spacingAndGlyphs" textLength="289" x="42.5" y="352.062">getAttachmentInfo(WikiContext, String): Attachment</text><ellipse cx="33.5" cy="362.5586" fill="#84BE84" rx="3" ry="3" style="stroke: #038048; stroke-width: 1.0;"/><text fill="#000000" font-family="sans-serif" font-size="11" lengthAdjust="spacingAndGlyphs" textLength="292" x="42.5" y="364.8667">getAttachmentInfoName(WikiContext, String): String</text><ellipse cx="33.5" cy="375.3633" fill="#84BE84" rx="3" ry="3" style="stroke: #038048; stroke-width: 1.0;"/><text fill="#000000" font-family="sans-serif" font-size="11" lengthAdjust="spacingAndGlyphs" textLength="311" x="42.5" y="377.6714">getAttachmentInfo(WikiContext, String, int): Attachment</text><ellipse cx="33.5" cy="388.168" fill="#84BE84" rx="3" ry="3" style="stroke: #038048; stroke-width: 1.0;"/><text fill="#000000" font-family="sans-serif" font-size="11" lengthAdjust="spacingAndGlyphs" textLength="255" x="42.5" y="390.4761">listAttachments(WikiPage): List&lt;Attachment&gt;</text><ellipse cx="33.5" cy="400.9727" fill="#84BE84" rx="3" ry="3" style="stroke: #038048; stroke-width: 1.0;"/><text fill="#000000" font-family="sans-serif" font-size="11" lengthAdjust="spacingAndGlyphs" textLength="202" x="42.5" y="403.2808">hasAttachments(WikiPage): boolean</text><ellipse cx="33.5" cy="413.7773" fill="#84BE84" rx="3" ry="3" style="stroke: #038048; stroke-width: 1.0;"/><text fill="#000000" font-family="sans-serif" font-size="11" lengthAdjust="spacingAndGlyphs" textLength="179" x="42.5" y="416.0854">forceDownload(String): boolean</text><ellipse cx="33.5" cy="426.582" fill="#84BE84" rx="3" ry="3" style="stroke: #038048; stroke-width: 1.0;"/><text fill="#000000" font-family="sans-serif" font-size="11" lengthAdjust="spacingAndGlyphs" textLength="274" x="42.5" y="428.8901">getAttachmentStream(Attachment): InputStream</text><ellipse cx="33.5" cy="439.3867" fill="#84BE84" rx="3" ry="3" style="stroke: #038048; stroke-width: 1.0;"/><text fill="#000000" font-family="sans-serif" font-size="11" lengthAdjust="spacingAndGlyphs" textLength="346" x="42.5" y="441.6948">getAttachmentStream(WikiContext, Attachment): InputStream</text><ellipse cx="33.5" cy="452.1914" fill="#84BE84" rx="3" ry="3" style="stroke: #038048; stroke-width: 1.0;"/><text fill="#000000" font-family="sans-serif" font-size="11" lengthAdjust="spacingAndGlyphs" textLength="365" x="42.5" y="454.4995">storeDynamicAttachment(WikiContext, DynamicAttachment): void</text><ellipse cx="33.5" cy="464.9961" fill="#84BE84" rx="3" ry="3" style="stroke: #038048; stroke-width: 1.0;"/><text fill="#000000" font-family="sans-serif" font-size="11" lengthAdjust="spacingAndGlyphs" textLength="292" x="42.5" y="467.3042">getDynamicAttachment(String): DynamicAttachment</text><ellipse cx="33.5" cy="477.8008" fill="#84BE84" rx="3" ry="3" style="stroke: #038048; stroke-width: 1.0;"/><text fill="#000000" font-family="sans-serif" font-size="11" lengthAdjust="spacingAndGlyphs" textLength="224" x="42.5" y="480.1089">storeAttachment(Attachment, File): void</text><ellipse cx="33.5" cy="490.6055" fill="#84BE84" rx="3" ry="3" style="stroke: #038048; stroke-width: 1.0;"/><text fill="#000000" font-family="sans-serif" font-size="11" lengthAdjust="spacingAndGlyphs" textLength="275" x="42.5" y="492.9136">storeAttachment(Attachment, InputStream): void</text><ellipse cx="33.5" cy="503.4102" fill="#84BE84" rx="3" ry="3" style="stroke: #038048; stroke-width: 1.0;"/><text fill="#000000" font-family="sans-serif" font-size="11" lengthAdjust="spacingAndGlyphs" textLength="253" x="42.5" y="505.7183">getVersionHistory(String): List&lt;Attachment&gt;</text><ellipse cx="33.5" cy="516.2148" fill="#84BE84" rx="3" ry="3" style="stroke: #038048; stroke-width: 1.0;"/><text fill="#000000" font-family="sans-serif" font-size="11" lengthAdjust="spacingAndGlyphs" textLength="256" x="42.5" y="518.5229">getCurrentProvider(): WikiAttachmentProvider</text><ellipse cx="33.5" cy="529.0195" fill="#84BE84" rx="3" ry="3" style="stroke: #038048; stroke-width: 1.0;"/><text fill="#000000" font-family="sans-serif" font-size="11" lengthAdjust="spacingAndGlyphs" textLength="181" x="42.5" y="531.3276">deleteVersion(Attachment): void</text><ellipse cx="33.5" cy="541.8242" fill="#84BE84" rx="3" ry="3" style="stroke: #038048; stroke-width: 1.0;"/><text fill="#000000" font-family="sans-serif" font-size="11" lengthAdjust="spacingAndGlyphs" textLength="202" x="42.5" y="544.1323">deleteAttachment(Attachment): void</text></a><!--class javax.servlet.http.HttpServlet--><rect fill="#FEFECE" filter="url(#folprbawbje0v)" height="48" id="javax.servlet.http.HttpServlet" style="stroke: #A80036; stroke-width: 1.5;" width="102" x="654" y="43"/><ellipse cx="669" cy="59" fill="#A9DCDF" rx="11" ry="11" style="stroke: #A80036; stroke-width: 1.0;"/><path d="M669.1094,54.3438 L667.9531,59.4219 L670.2813,59.4219 L669.1094,54.3438 Z M667.625,52.1094 L670.6094,52.1094 L673.9688,64.5 L671.5156,64.5 L670.75,61.4375 L667.4688,61.4375 L666.7188,64.5 L664.2813,64.5 L667.625,52.1094 Z "/><text fill="#000000" font-family="sans-serif" font-size="12" font-style="italic" lengthAdjust="spacingAndGlyphs" textLength="70" x="683" y="63.1543">HttpServlet</text><line style="stroke: #A80036; stroke-width: 1.5;" x1="655" x2="755" y1="75" y2="75"/><line style="stroke: #A80036; stroke-width: 1.5;" x1="655" x2="755" y1="83" y2="83"/><!--class org.apache.wiki.WikiPage--><rect fill="#FEFECE" filter="url(#folprbawbje0v)" height="48" id="org.apache.wiki.WikiPage" style="stroke: #A80036; stroke-width: 1.5;" width="88" x="985" y="617"/><ellipse cx="1000" cy="633" fill="#ADD1B2" rx="11" ry="11" style="stroke: #A80036; stroke-width: 1.0;"/><path d="M1002.9688,638.6406 Q1002.3906,638.9375 1001.75,639.0859 Q1001.1094,639.2344 1000.4063,639.2344 Q997.9063,639.2344 996.5859,637.5859 Q995.2656,635.9375 995.2656,632.8125 Q995.2656,629.6875 996.5859,628.0313 Q997.9063,626.375 1000.4063,626.375 Q1001.1094,626.375 1001.7578,626.5313 Q1002.4063,626.6875 1002.9688,626.9844 L1002.9688,629.7031 Q1002.3438,629.125 1001.75,628.8516 Q1001.1563,628.5781 1000.5313,628.5781 Q999.1875,628.5781 998.5,629.6484 Q997.8125,630.7188 997.8125,632.8125 Q997.8125,634.9063 998.5,635.9766 Q999.1875,637.0469 1000.5313,637.0469 Q1001.1563,637.0469 1001.75,636.7734 Q1002.3438,636.5 1002.9688,635.9219 L1002.9688,638.6406 Z "/><text fill="#000000" font-family="sans-serif" font-size="12" lengthAdjust="spacingAndGlyphs" textLength="56" x="1014" y="637.1543">WikiPage</text><line style="stroke: #A80036; stroke-width: 1.5;" x1="986" x2="1072" y1="649" y2="649"/><line style="stroke: #A80036; stroke-width: 1.5;" x1="986" x2="1072" y1="657" y2="657"/><!--link javax.servlet.http.HttpServlet to org.apache.wiki.attachment.AttachmentServlet--><path d="M705,111.5592 C705,157.8629 705,230.9484 705,284.7797 " fill="none" id="javax.servlet.http.HttpServlet-org.apache.wiki.attachment.AttachmentServlet" style="stroke: #A80036; stroke-width: 1.0;"/><polygon fill="none" points="698.0001,111.4695,705,91.4695,712.0001,111.4694,698.0001,111.4695" style="stroke: #A80036; stroke-width: 1.0;"/><!--link org.apache.wiki.attachment.Attachment to org.apache.wiki.attachment.DynamicAttachment--><path d="M491,871.5154 C491,907.3664 491,947.1037 491,973.7214 " fill="none" id="org.apache.wiki.attachment.Attachment-org.apache.wiki.attachment.DynamicAttachment" style="stroke: #A80036; stroke-width: 1.0;"/><polygon fill="none" points="484.0001,871.2663,491,851.2663,498.0001,871.2663,484.0001,871.2663" style="stroke: #A80036; stroke-width: 1.0;"/><!--link org.apache.wiki.WikiPage to org.apache.wiki.attachment.Attachment--><path d="M974.3874,672.8215 C844.1587,725.3288 707.4607,754.3405 611.657,770.825 " fill="none" id="org.apache.wiki.WikiPage-org.apache.wiki.attachment.Attachment" style="stroke: #A80036; stroke-width: 1.0;"/><polygon fill="none" points="971.9741,666.2447,993.1317,665.0794,977.3188,679.1844,971.9741,666.2447" style="stroke: #A80036; stroke-width: 1.0;"/><!--link org.apache.wiki.attachment.DynamicAttachment to org.apache.wiki.attachment.DynamicAttachmentProvider--><path d="M491,1035.3117 C491,1071.2381 491,1130.5334 491,1168.5346 " fill="none" id="org.apache.wiki.attachment.DynamicAttachment-org.apache.wiki.attachment.DynamicAttachmentProvider" style="stroke: #A80036; stroke-width: 1.0;"/><polygon fill="#A80036" points="491,1173.9815,495,1164.9815,491,1168.9815,487,1164.9815,491,1173.9815" style="stroke: #A80036; stroke-width: 1.0;"/><text fill="#000000" font-family="sans-serif" font-size="13" lengthAdjust="spacingAndGlyphs" textLength="52" x="492" y="1109.0669">provider</text><!--link org.apache.wiki.attachment.AttachmentManager to org.apache.wiki.attachment.Attachment--><path d="M341.919,551.2263 C380.2926,612.3009 420.0038,675.5043 448.7828,721.3081 " fill="none" id="org.apache.wiki.attachment.AttachmentManager-org.apache.wiki.attachment.Attachment" style="stroke: #A80036; stroke-width: 1.0;"/><polygon fill="#A80036" points="451.5333,725.6858,450.132,715.9371,448.8732,721.4521,443.3582,720.1933,451.5333,725.6858" style="stroke: #A80036; stroke-width: 1.0;"/><text fill="#000000" font-family="sans-serif" font-size="13" lengthAdjust="spacingAndGlyphs" textLength="97" x="419" y="645.5669">allAttachments</text><text fill="#000000" font-family="sans-serif" font-size="13" lengthAdjust="spacingAndGlyphs" textLength="7" x="439.8338" y="715.0787">*</text><text fill="#888888" font-family="sans-serif" font-size="10" lengthAdjust="spacingAndGlyphs" textLength="186" x="479" y="1270.2822">UMLDoclet 1.1.4, PlantUML 1.2019.05</text><!--
@startuml

    namespace org.apache.wiki.attachment {

        interface DynamicAttachmentProvider [[DynamicAttachmentProvider.html]] {
            {abstract} +getAttachmentData(WikiContext, Attachment): InputStream
        }

        class AttachmentServlet [[AttachmentServlet.html]] {
            {static} #DEFAULT_EXPIRY: long
            +init(ServletConfig): void
            #doOptions(HttpServletRequest, HttpServletResponse): void
            +doGet(HttpServletRequest, HttpServletResponse): void
            +doPost(HttpServletRequest, HttpServletResponse): void
            #upload(HttpServletRequest): String
            #executeUpload(WikiContext, InputStream, String, String, String, String, long): boolean
        }

        class DynamicAttachment [[DynamicAttachment.html]] {
            +DynamicAttachment(WikiEngine, String, String, DynamicAttachmentProvider)
        }

        class Attachment [[Attachment.html]] {
            +Attachment(WikiEngine, String, String)
            +getFileName(): String
            +setFileName(String): void
            +getParentName(): String
            +isCacheable(): boolean
            +setCacheable(boolean): void
        }

        class AttachmentManager [[AttachmentManager.html]] {
            {static} +PROP_PROVIDER: String
            {static} +PROP_MAXSIZE: String
            {static} +PROP_ALLOWEDEXTENSIONS: String
            {static} +PROP_FORBIDDENEXTENSIONS: String
            {static} +PROP_FORCEDOWNLOAD: String
            {static} +CACHE_NAME: String
            {static} +DEFAULT_CACHECAPACITY: int
            +AttachmentManager(WikiEngine, Properties)
            +attachmentsEnabled(): boolean
            +getAttachmentInfo(String): Attachment
            +getAttachmentInfo(String, int): Attachment
            +getAttachmentInfo(WikiContext, String): Attachment
            +getAttachmentInfoName(WikiContext, String): String
            +getAttachmentInfo(WikiContext, String, int): Attachment
            +listAttachments(WikiPage): List<Attachment>
            +hasAttachments(WikiPage): boolean
            +forceDownload(String): boolean
            +getAttachmentStream(Attachment): InputStream
            +getAttachmentStream(WikiContext, Attachment): InputStream
            +storeDynamicAttachment(WikiContext, DynamicAttachment): void
            +getDynamicAttachment(String): DynamicAttachment
            +storeAttachment(Attachment, File): void
            +storeAttachment(Attachment, InputStream): void
            +getVersionHistory(String): List<Attachment>
            +getCurrentProvider(): WikiAttachmentProvider
            +deleteVersion(Attachment): void
            +deleteAttachment(Attachment): void
        }

        abstract class javax.servlet.http.HttpServlet
        javax.servlet.http.HttpServlet <|- - AttachmentServlet

        Attachment <|- - DynamicAttachment

        class org.apache.wiki.WikiPage
        org.apache.wiki.WikiPage <|- - Attachment

        DynamicAttachment - -> DynamicAttachmentProvider: provider

        AttachmentManager - -> "*" Attachment: allAttachments

    }


    center footer UMLDoclet 1.1.4, PlantUML 1.2019.05
@enduml

PlantUML version 1.2019.05(Sat Apr 20 16:45:36 UTC 2019)
(APACHE source distribution)
Java Runtime: Java(TM) SE Runtime Environment
JVM: Java HotSpot(TM) 64-Bit Server VM
Java Version: 1.8.0_191-b12
Operating System: Linux
OS Version: 4.15.0-60-generic
Default Encoding: ISO-8859-1
Language: en
Country: US
--></g></svg>