<?xml version="1.0" encoding="UTF-8" standalone="no"?><svg xmlns="http://www.w3.org/2000/svg" xmlns:xlink="http://www.w3.org/1999/xlink" contentScriptType="application/ecmascript" contentStyleType="text/css" height="1633px" preserveAspectRatio="none" style="width:1146px;height:1633px;" version="1.1" viewBox="0 0 1146 1633" width="1146px" zoomAndPan="magnify"><defs><filter height="300%" id="fieldkkglikp9" width="300%" x="-1" y="-1"><feGaussianBlur result="blurOut" stdDeviation="2.0"/><feColorMatrix in="blurOut" result="blurOut2" type="matrix" values="0 0 0 0 0 0 0 0 0 0 0 0 0 0 0 0 0 0 .4 0"/><feOffset dx="4.0" dy="4.0" in="blurOut2" result="blurOut3"/><feBlend in="SourceGraphic" in2="blurOut3" mode="normal"/></filter></defs><g><!--cluster org.apache.wiki.attachment--><polygon fill="#FFFFFF" filter="url(#fieldkkglikp9)" points="14,130,239,130,246,152.2969,975,152.2969,975,1593,14,1593,14,130" style="stroke: #000000; stroke-width: 1.5;"/><line style="stroke: #000000; stroke-width: 1.5;" x1="14" x2="246" y1="152.2969" y2="152.2969"/><text fill="#000000" font-family="sans-serif" font-size="14" font-weight="bold" lengthAdjust="spacingAndGlyphs" textLength="219" x="18" y="144.9951">org.apache.wiki.attachment</text><!--cluster javax.servlet.http--><polygon fill="#FFFFFF" filter="url(#fieldkkglikp9)" points="202,16,345,16,352,38.2969,355,38.2969,355,99,202,99,202,16" style="stroke: #000000; stroke-width: 1.5;"/><line style="stroke: #000000; stroke-width: 1.5;" x1="202" x2="352" y1="38.2969" y2="38.2969"/><text fill="#000000" font-family="sans-serif" font-size="14" font-weight="bold" lengthAdjust="spacingAndGlyphs" textLength="137" x="206" y="30.9951">javax.servlet.http</text><!--cluster org.apache.wiki--><polygon fill="#FFFFFF" filter="url(#fieldkkglikp9)" points="983,940,1114,940,1121,962.2969,1124,962.2969,1124,1023,983,1023,983,940" style="stroke: #000000; stroke-width: 1.5;"/><line style="stroke: #000000; stroke-width: 1.5;" x1="983" x2="1121" y1="962.2969" y2="962.2969"/><text fill="#000000" font-family="sans-serif" font-size="14" font-weight="bold" lengthAdjust="spacingAndGlyphs" textLength="125" x="987" y="954.9951">org.apache.wiki</text><!--class org.apache.wiki.attachment.DynamicAttachmentProvider--><a href="DynamicAttachmentProvider.html" target="_top" xlink:actuate="onRequest" xlink:show="new" xlink:title="DynamicAttachmentProvider.html" xlink:type="simple"><rect fill="#FEFECE" filter="url(#fieldkkglikp9)" height="60.8047" id="org.apache.wiki.attachment.DynamicAttachmentProvider" style="stroke: #A80036; stroke-width: 1.5;" width="360" x="570" y="1524"/><ellipse cx="657.75" cy="1540" fill="#B4A7E5" rx="11" ry="11" style="stroke: #A80036; stroke-width: 1.0;"/><path d="M653.6719,1535.7656 L653.6719,1533.6094 L661.0625,1533.6094 L661.0625,1535.7656 L658.5938,1535.7656 L658.5938,1543.8438 L661.0625,1543.8438 L661.0625,1546 L653.6719,1546 L653.6719,1543.8438 L656.1406,1543.8438 L656.1406,1535.7656 L653.6719,1535.7656 Z "/><text fill="#000000" font-family="sans-serif" font-size="12" font-style="italic" lengthAdjust="spacingAndGlyphs" textLength="176" x="678.25" y="1544.1543">DynamicAttachmentProvider</text><line style="stroke: #A80036; stroke-width: 1.5;" x1="571" x2="929" y1="1556" y2="1556"/><line style="stroke: #A80036; stroke-width: 1.5;" x1="571" x2="929" y1="1564" y2="1564"/><ellipse cx="581" cy="1575.9023" fill="#84BE84" rx="3" ry="3" style="stroke: #038048; stroke-width: 1.0;"/><text fill="#000000" font-family="sans-serif" font-size="11" font-style="italic" lengthAdjust="spacingAndGlyphs" textLength="334" x="590" y="1578.2104">getAttachmentData(WikiContext, Attachment): InputStream</text></a><!--class org.apache.wiki.attachment.AttachmentManager--><a href="AttachmentManager.html" target="_top" xlink:actuate="onRequest" xlink:show="new" xlink:title="AttachmentManager.html" xlink:type="simple"><rect fill="#FEFECE" filter="url(#fieldkkglikp9)" height="393.7266" id="org.apache.wiki.attachment.AttachmentManager" style="stroke: #A80036; stroke-width: 1.5;" width="398" x="569" y="157"/><ellipse cx="699.75" cy="173" fill="#B4A7E5" rx="11" ry="11" style="stroke: #A80036; stroke-width: 1.0;"/><path d="M695.6719,168.7656 L695.6719,166.6094 L703.0625,166.6094 L703.0625,168.7656 L700.5938,168.7656 L700.5938,176.8438 L703.0625,176.8438 L703.0625,179 L695.6719,179 L695.6719,176.8438 L698.1406,176.8438 L698.1406,168.7656 L695.6719,168.7656 Z "/><text fill="#000000" font-family="sans-serif" font-size="12" font-style="italic" lengthAdjust="spacingAndGlyphs" textLength="128" x="720.25" y="177.1543">AttachmentManager</text><line style="stroke: #A80036; stroke-width: 1.5;" x1="570" x2="966" y1="189" y2="189"/><ellipse cx="580" cy="200.9023" fill="none" rx="3" ry="3" style="stroke: #038048; stroke-width: 1.0;"/><text fill="#000000" font-family="sans-serif" font-size="11" lengthAdjust="spacingAndGlyphs" text-decoration="underline" textLength="133" x="589" y="203.2104">PROP_PROVIDER: String</text><ellipse cx="580" cy="213.707" fill="none" rx="3" ry="3" style="stroke: #038048; stroke-width: 1.0;"/><text fill="#000000" font-family="sans-serif" font-size="11" lengthAdjust="spacingAndGlyphs" text-decoration="underline" textLength="128" x="589" y="216.0151">PROP_MAXSIZE: String</text><ellipse cx="580" cy="226.5117" fill="none" rx="3" ry="3" style="stroke: #038048; stroke-width: 1.0;"/><text fill="#000000" font-family="sans-serif" font-size="11" lengthAdjust="spacingAndGlyphs" text-decoration="underline" textLength="202" x="589" y="228.8198">PROP_ALLOWEDEXTENSIONS: String</text><ellipse cx="580" cy="239.3164" fill="none" rx="3" ry="3" style="stroke: #038048; stroke-width: 1.0;"/><text fill="#000000" font-family="sans-serif" font-size="11" lengthAdjust="spacingAndGlyphs" text-decoration="underline" textLength="214" x="589" y="241.6245">PROP_FORBIDDENEXTENSIONS: String</text><ellipse cx="580" cy="252.1211" fill="none" rx="3" ry="3" style="stroke: #038048; stroke-width: 1.0;"/><text fill="#000000" font-family="sans-serif" font-size="11" lengthAdjust="spacingAndGlyphs" text-decoration="underline" textLength="179" x="589" y="254.4292">PROP_FORCEDOWNLOAD: String</text><ellipse cx="580" cy="264.9258" fill="none" rx="3" ry="3" style="stroke: #038048; stroke-width: 1.0;"/><text fill="#000000" font-family="sans-serif" font-size="11" lengthAdjust="spacingAndGlyphs" text-decoration="underline" textLength="117" x="589" y="267.2339">CACHE_NAME: String</text><ellipse cx="580" cy="277.7305" fill="none" rx="3" ry="3" style="stroke: #038048; stroke-width: 1.0;"/><text fill="#000000" font-family="sans-serif" font-size="11" lengthAdjust="spacingAndGlyphs" text-decoration="underline" textLength="169" x="589" y="280.0386">DEFAULT_CACHECAPACITY: int</text><line style="stroke: #A80036; stroke-width: 1.5;" x1="570" x2="966" y1="286.6328" y2="286.6328"/><ellipse cx="580" cy="298.5352" fill="#84BE84" rx="3" ry="3" style="stroke: #038048; stroke-width: 1.0;"/><text fill="#000000" font-family="sans-serif" font-size="11" lengthAdjust="spacingAndGlyphs" textLength="217" x="589" y="300.8433">getAttachmentInfo(String): Attachment</text><ellipse cx="580" cy="311.3398" fill="#84BE84" rx="3" ry="3" style="stroke: #038048; stroke-width: 1.0;"/><text fill="#000000" font-family="sans-serif" font-size="11" lengthAdjust="spacingAndGlyphs" textLength="239" x="589" y="313.6479">getAttachmentInfo(String, int): Attachment</text><ellipse cx="580" cy="324.1445" fill="#84BE84" rx="3" ry="3" style="stroke: #038048; stroke-width: 1.0;"/><text fill="#000000" font-family="sans-serif" font-size="11" lengthAdjust="spacingAndGlyphs" textLength="289" x="589" y="326.4526">getAttachmentInfo(WikiContext, String): Attachment</text><ellipse cx="580" cy="336.9492" fill="#84BE84" rx="3" ry="3" style="stroke: #038048; stroke-width: 1.0;"/><text fill="#000000" font-family="sans-serif" font-size="11" lengthAdjust="spacingAndGlyphs" textLength="202" x="589" y="339.2573">hasAttachments(WikiPage): boolean</text><ellipse cx="580" cy="349.7539" fill="#84BE84" rx="3" ry="3" style="stroke: #038048; stroke-width: 1.0;"/><text fill="#000000" font-family="sans-serif" font-size="11" lengthAdjust="spacingAndGlyphs" textLength="274" x="589" y="352.062">getAttachmentStream(Attachment): InputStream</text><ellipse cx="580" cy="362.5586" fill="#84BE84" rx="3" ry="3" style="stroke: #038048; stroke-width: 1.0;"/><text fill="#000000" font-family="sans-serif" font-size="11" lengthAdjust="spacingAndGlyphs" textLength="224" x="589" y="364.8667">storeAttachment(Attachment, File): void</text><ellipse cx="580" cy="375.3633" fill="#84BE84" rx="3" ry="3" style="stroke: #038048; stroke-width: 1.0;"/><text fill="#000000" font-family="sans-serif" font-size="11" lengthAdjust="spacingAndGlyphs" text-decoration="underline" textLength="180" x="589" y="377.6714">validateFileName(String): String</text><ellipse cx="580" cy="388.168" fill="#84BE84" rx="3" ry="3" style="stroke: #038048; stroke-width: 1.0;"/><text fill="#000000" font-family="sans-serif" font-size="11" font-style="italic" lengthAdjust="spacingAndGlyphs" textLength="176" x="589" y="390.4761">attachmentsEnabled(): boolean</text><ellipse cx="580" cy="400.9727" fill="#84BE84" rx="3" ry="3" style="stroke: #038048; stroke-width: 1.0;"/><text fill="#000000" font-family="sans-serif" font-size="11" font-style="italic" lengthAdjust="spacingAndGlyphs" textLength="315" x="589" y="403.2808">getAttachmentInfo(WikiContext, String, int): Attachment</text><ellipse cx="580" cy="413.7773" fill="#84BE84" rx="3" ry="3" style="stroke: #038048; stroke-width: 1.0;"/><text fill="#000000" font-family="sans-serif" font-size="11" font-style="italic" lengthAdjust="spacingAndGlyphs" textLength="294" x="589" y="416.0854">getAttachmentInfoName(WikiContext, String): String</text><ellipse cx="580" cy="426.582" fill="#84BE84" rx="3" ry="3" style="stroke: #038048; stroke-width: 1.0;"/><text fill="#000000" font-family="sans-serif" font-size="11" font-style="italic" lengthAdjust="spacingAndGlyphs" textLength="256" x="589" y="428.8901">listAttachments(WikiPage): List&lt;Attachment&gt;</text><ellipse cx="580" cy="439.3867" fill="#84BE84" rx="3" ry="3" style="stroke: #038048; stroke-width: 1.0;"/><text fill="#000000" font-family="sans-serif" font-size="11" font-style="italic" lengthAdjust="spacingAndGlyphs" textLength="178" x="589" y="441.6948">forceDownload(String): boolean</text><ellipse cx="580" cy="452.1914" fill="#84BE84" rx="3" ry="3" style="stroke: #038048; stroke-width: 1.0;"/><text fill="#000000" font-family="sans-serif" font-size="11" font-style="italic" lengthAdjust="spacingAndGlyphs" textLength="349" x="589" y="454.4995">getAttachmentStream(WikiContext, Attachment): InputStream</text><ellipse cx="580" cy="464.9961" fill="#84BE84" rx="3" ry="3" style="stroke: #038048; stroke-width: 1.0;"/><text fill="#000000" font-family="sans-serif" font-size="11" font-style="italic" lengthAdjust="spacingAndGlyphs" textLength="372" x="589" y="467.3042">storeDynamicAttachment(WikiContext, DynamicAttachment): void</text><ellipse cx="580" cy="477.8008" fill="#84BE84" rx="3" ry="3" style="stroke: #038048; stroke-width: 1.0;"/><text fill="#000000" font-family="sans-serif" font-size="11" font-style="italic" lengthAdjust="spacingAndGlyphs" textLength="295" x="589" y="480.1089">getDynamicAttachment(String): DynamicAttachment</text><ellipse cx="580" cy="490.6055" fill="#84BE84" rx="3" ry="3" style="stroke: #038048; stroke-width: 1.0;"/><text fill="#000000" font-family="sans-serif" font-size="11" font-style="italic" lengthAdjust="spacingAndGlyphs" textLength="276" x="589" y="492.9136">storeAttachment(Attachment, InputStream): void</text><ellipse cx="580" cy="503.4102" fill="#84BE84" rx="3" ry="3" style="stroke: #038048; stroke-width: 1.0;"/><text fill="#000000" font-family="sans-serif" font-size="11" font-style="italic" lengthAdjust="spacingAndGlyphs" textLength="252" x="589" y="505.7183">getVersionHistory(String): List&lt;Attachment&gt;</text><ellipse cx="580" cy="516.2148" fill="#84BE84" rx="3" ry="3" style="stroke: #038048; stroke-width: 1.0;"/><text fill="#000000" font-family="sans-serif" font-size="11" font-style="italic" lengthAdjust="spacingAndGlyphs" textLength="261" x="589" y="518.5229">getCurrentProvider(): WikiAttachmentProvider</text><ellipse cx="580" cy="529.0195" fill="#84BE84" rx="3" ry="3" style="stroke: #038048; stroke-width: 1.0;"/><text fill="#000000" font-family="sans-serif" font-size="11" font-style="italic" lengthAdjust="spacingAndGlyphs" textLength="183" x="589" y="531.3276">deleteVersion(Attachment): void</text><ellipse cx="580" cy="541.8242" fill="#84BE84" rx="3" ry="3" style="stroke: #038048; stroke-width: 1.0;"/><text fill="#000000" font-family="sans-serif" font-size="11" font-style="italic" lengthAdjust="spacingAndGlyphs" textLength="205" x="589" y="544.1323">deleteAttachment(Attachment): void</text></a><!--class org.apache.wiki.attachment.AttachmentServlet--><a href="AttachmentServlet.html" target="_top" xlink:actuate="onRequest" xlink:show="new" xlink:title="AttachmentServlet.html" xlink:type="simple"><rect fill="#FEFECE" filter="url(#fieldkkglikp9)" height="137.6328" id="org.apache.wiki.attachment.AttachmentServlet" style="stroke: #A80036; stroke-width: 1.5;" width="512" x="22" y="285"/><ellipse cx="215.75" cy="301" fill="#ADD1B2" rx="11" ry="11" style="stroke: #A80036; stroke-width: 1.0;"/><path d="M218.7188,306.6406 Q218.1406,306.9375 217.5,307.0859 Q216.8594,307.2344 216.1563,307.2344 Q213.6563,307.2344 212.3359,305.5859 Q211.0156,303.9375 211.0156,300.8125 Q211.0156,297.6875 212.3359,296.0313 Q213.6563,294.375 216.1563,294.375 Q216.8594,294.375 217.5078,294.5313 Q218.1563,294.6875 218.7188,294.9844 L218.7188,297.7031 Q218.0938,297.125 217.5,296.8516 Q216.9063,296.5781 216.2813,296.5781 Q214.9375,296.5781 214.25,297.6484 Q213.5625,298.7188 213.5625,300.8125 Q213.5625,302.9063 214.25,303.9766 Q214.9375,305.0469 216.2813,305.0469 Q216.9063,305.0469 217.5,304.7734 Q218.0938,304.5 218.7188,303.9219 L218.7188,306.6406 Z "/><text fill="#000000" font-family="sans-serif" font-size="12" lengthAdjust="spacingAndGlyphs" textLength="116" x="236.25" y="305.1543">AttachmentServlet</text><line style="stroke: #A80036; stroke-width: 1.5;" x1="23" x2="533" y1="317" y2="317"/><polygon fill="none" points="33,323.9023,37,327.9023,33,331.9023,29,327.9023" style="stroke: #B38D22; stroke-width: 1.0;"/><text fill="#000000" font-family="sans-serif" font-size="11" lengthAdjust="spacingAndGlyphs" text-decoration="underline" textLength="125" x="42" y="331.2104">DEFAULT_EXPIRY: long</text><line style="stroke: #A80036; stroke-width: 1.5;" x1="23" x2="533" y1="337.8047" y2="337.8047"/><ellipse cx="33" cy="349.707" fill="#84BE84" rx="3" ry="3" style="stroke: #038048; stroke-width: 1.0;"/><text fill="#000000" font-family="sans-serif" font-size="11" lengthAdjust="spacingAndGlyphs" textLength="132" x="42" y="352.0151">init(ServletConfig): void</text><polygon fill="#FFFF44" points="33,357.5117,37,361.5117,33,365.5117,29,361.5117" style="stroke: #B38D22; stroke-width: 1.0;"/><text fill="#000000" font-family="sans-serif" font-size="11" lengthAdjust="spacingAndGlyphs" textLength="333" x="42" y="364.8198">doOptions(HttpServletRequest, HttpServletResponse): void</text><ellipse cx="33" cy="375.3164" fill="#84BE84" rx="3" ry="3" style="stroke: #038048; stroke-width: 1.0;"/><text fill="#000000" font-family="sans-serif" font-size="11" lengthAdjust="spacingAndGlyphs" textLength="309" x="42" y="377.6245">doGet(HttpServletRequest, HttpServletResponse): void</text><ellipse cx="33" cy="388.1211" fill="#84BE84" rx="3" ry="3" style="stroke: #038048; stroke-width: 1.0;"/><text fill="#000000" font-family="sans-serif" font-size="11" lengthAdjust="spacingAndGlyphs" textLength="314" x="42" y="390.4292">doPost(HttpServletRequest, HttpServletResponse): void</text><polygon fill="#FFFF44" points="33,395.9258,37,399.9258,33,403.9258,29,399.9258" style="stroke: #B38D22; stroke-width: 1.0;"/><text fill="#000000" font-family="sans-serif" font-size="11" lengthAdjust="spacingAndGlyphs" textLength="197" x="42" y="403.2339">upload(HttpServletRequest): String</text><polygon fill="#FFFF44" points="33,408.7305,37,412.7305,33,416.7305,29,412.7305" style="stroke: #B38D22; stroke-width: 1.0;"/><text fill="#000000" font-family="sans-serif" font-size="11" lengthAdjust="spacingAndGlyphs" textLength="486" x="42" y="416.0386">executeUpload(WikiContext, InputStream, String, String, String, String, long): boolean</text></a><!--class org.apache.wiki.attachment.DefaultAttachmentManager--><a href="DefaultAttachmentManager.html" target="_top" xlink:actuate="onRequest" xlink:show="new" xlink:title="DefaultAttachmentManager.html" xlink:type="simple"><rect fill="#FEFECE" filter="url(#fieldkkglikp9)" height="227.2656" id="org.apache.wiki.attachment.DefaultAttachmentManager" style="stroke: #A80036; stroke-width: 1.5;" width="391" x="352.5" y="674"/><ellipse cx="457.25" cy="690" fill="#ADD1B2" rx="11" ry="11" style="stroke: #A80036; stroke-width: 1.0;"/><path d="M460.2188,695.6406 Q459.6406,695.9375 459,696.0859 Q458.3594,696.2344 457.6563,696.2344 Q455.1563,696.2344 453.8359,694.5859 Q452.5156,692.9375 452.5156,689.8125 Q452.5156,686.6875 453.8359,685.0313 Q455.1563,683.375 457.6563,683.375 Q458.3594,683.375 459.0078,683.5313 Q459.6563,683.6875 460.2188,683.9844 L460.2188,686.7031 Q459.5938,686.125 459,685.8516 Q458.4063,685.5781 457.7813,685.5781 Q456.4375,685.5781 455.75,686.6484 Q455.0625,687.7188 455.0625,689.8125 Q455.0625,691.9063 455.75,692.9766 Q456.4375,694.0469 457.7813,694.0469 Q458.4063,694.0469 459,693.7734 Q459.5938,693.5 460.2188,692.9219 L460.2188,695.6406 Z "/><text fill="#000000" font-family="sans-serif" font-size="12" lengthAdjust="spacingAndGlyphs" textLength="173" x="477.75" y="694.1543">DefaultAttachmentManager</text><line style="stroke: #A80036; stroke-width: 1.5;" x1="353.5" x2="742.5" y1="706" y2="706"/><line style="stroke: #A80036; stroke-width: 1.5;" x1="353.5" x2="742.5" y1="714" y2="714"/><ellipse cx="363.5" cy="725.9023" fill="#84BE84" rx="3" ry="3" style="stroke: #038048; stroke-width: 1.0;"/><text fill="#000000" font-family="sans-serif" font-size="11" lengthAdjust="spacingAndGlyphs" textLength="266" x="372.5" y="728.2104">DefaultAttachmentManager(Engine, Properties)</text><ellipse cx="363.5" cy="738.707" fill="#84BE84" rx="3" ry="3" style="stroke: #038048; stroke-width: 1.0;"/><text fill="#000000" font-family="sans-serif" font-size="11" lengthAdjust="spacingAndGlyphs" textLength="177" x="372.5" y="741.0151">attachmentsEnabled(): boolean</text><ellipse cx="363.5" cy="751.5117" fill="#84BE84" rx="3" ry="3" style="stroke: #038048; stroke-width: 1.0;"/><text fill="#000000" font-family="sans-serif" font-size="11" lengthAdjust="spacingAndGlyphs" textLength="292" x="372.5" y="753.8198">getAttachmentInfoName(WikiContext, String): String</text><ellipse cx="363.5" cy="764.3164" fill="#84BE84" rx="3" ry="3" style="stroke: #038048; stroke-width: 1.0;"/><text fill="#000000" font-family="sans-serif" font-size="11" lengthAdjust="spacingAndGlyphs" textLength="311" x="372.5" y="766.6245">getAttachmentInfo(WikiContext, String, int): Attachment</text><ellipse cx="363.5" cy="777.1211" fill="#84BE84" rx="3" ry="3" style="stroke: #038048; stroke-width: 1.0;"/><text fill="#000000" font-family="sans-serif" font-size="11" lengthAdjust="spacingAndGlyphs" textLength="255" x="372.5" y="779.4292">listAttachments(WikiPage): List&lt;Attachment&gt;</text><ellipse cx="363.5" cy="789.9258" fill="#84BE84" rx="3" ry="3" style="stroke: #038048; stroke-width: 1.0;"/><text fill="#000000" font-family="sans-serif" font-size="11" lengthAdjust="spacingAndGlyphs" textLength="179" x="372.5" y="792.2339">forceDownload(String): boolean</text><ellipse cx="363.5" cy="802.7305" fill="#84BE84" rx="3" ry="3" style="stroke: #038048; stroke-width: 1.0;"/><text fill="#000000" font-family="sans-serif" font-size="11" lengthAdjust="spacingAndGlyphs" textLength="346" x="372.5" y="805.0386">getAttachmentStream(WikiContext, Attachment): InputStream</text><ellipse cx="363.5" cy="815.5352" fill="#84BE84" rx="3" ry="3" style="stroke: #038048; stroke-width: 1.0;"/><text fill="#000000" font-family="sans-serif" font-size="11" lengthAdjust="spacingAndGlyphs" textLength="365" x="372.5" y="817.8433">storeDynamicAttachment(WikiContext, DynamicAttachment): void</text><ellipse cx="363.5" cy="828.3398" fill="#84BE84" rx="3" ry="3" style="stroke: #038048; stroke-width: 1.0;"/><text fill="#000000" font-family="sans-serif" font-size="11" lengthAdjust="spacingAndGlyphs" textLength="292" x="372.5" y="830.6479">getDynamicAttachment(String): DynamicAttachment</text><ellipse cx="363.5" cy="841.1445" fill="#84BE84" rx="3" ry="3" style="stroke: #038048; stroke-width: 1.0;"/><text fill="#000000" font-family="sans-serif" font-size="11" lengthAdjust="spacingAndGlyphs" textLength="275" x="372.5" y="843.4526">storeAttachment(Attachment, InputStream): void</text><ellipse cx="363.5" cy="853.9492" fill="#84BE84" rx="3" ry="3" style="stroke: #038048; stroke-width: 1.0;"/><text fill="#000000" font-family="sans-serif" font-size="11" lengthAdjust="spacingAndGlyphs" textLength="253" x="372.5" y="856.2573">getVersionHistory(String): List&lt;Attachment&gt;</text><ellipse cx="363.5" cy="866.7539" fill="#84BE84" rx="3" ry="3" style="stroke: #038048; stroke-width: 1.0;"/><text fill="#000000" font-family="sans-serif" font-size="11" lengthAdjust="spacingAndGlyphs" textLength="256" x="372.5" y="869.062">getCurrentProvider(): WikiAttachmentProvider</text><ellipse cx="363.5" cy="879.5586" fill="#84BE84" rx="3" ry="3" style="stroke: #038048; stroke-width: 1.0;"/><text fill="#000000" font-family="sans-serif" font-size="11" lengthAdjust="spacingAndGlyphs" textLength="181" x="372.5" y="881.8667">deleteVersion(Attachment): void</text><ellipse cx="363.5" cy="892.3633" fill="#84BE84" rx="3" ry="3" style="stroke: #038048; stroke-width: 1.0;"/><text fill="#000000" font-family="sans-serif" font-size="11" lengthAdjust="spacingAndGlyphs" textLength="202" x="372.5" y="894.6714">deleteAttachment(Attachment): void</text></a><!--class org.apache.wiki.attachment.DynamicAttachment--><a href="DynamicAttachment.html" target="_top" xlink:actuate="onRequest" xlink:show="new" xlink:title="DynamicAttachment.html" xlink:type="simple"><rect fill="#FEFECE" filter="url(#fieldkkglikp9)" height="60.8047" id="org.apache.wiki.attachment.DynamicAttachment" style="stroke: #A80036; stroke-width: 1.5;" width="435" x="532.5" y="1324"/><ellipse cx="683.25" cy="1340" fill="#ADD1B2" rx="11" ry="11" style="stroke: #A80036; stroke-width: 1.0;"/><path d="M686.2188,1345.6406 Q685.6406,1345.9375 685,1346.0859 Q684.3594,1346.2344 683.6563,1346.2344 Q681.1563,1346.2344 679.8359,1344.5859 Q678.5156,1342.9375 678.5156,1339.8125 Q678.5156,1336.6875 679.8359,1335.0313 Q681.1563,1333.375 683.6563,1333.375 Q684.3594,1333.375 685.0078,1333.5313 Q685.6563,1333.6875 686.2188,1333.9844 L686.2188,1336.7031 Q685.5938,1336.125 685,1335.8516 Q684.4063,1335.5781 683.7813,1335.5781 Q682.4375,1335.5781 681.75,1336.6484 Q681.0625,1337.7188 681.0625,1339.8125 Q681.0625,1341.9063 681.75,1342.9766 Q682.4375,1344.0469 683.7813,1344.0469 Q684.4063,1344.0469 685,1343.7734 Q685.5938,1343.5 686.2188,1342.9219 L686.2188,1345.6406 Z "/><text fill="#000000" font-family="sans-serif" font-size="12" lengthAdjust="spacingAndGlyphs" textLength="125" x="703.75" y="1344.1543">DynamicAttachment</text><line style="stroke: #A80036; stroke-width: 1.5;" x1="533.5" x2="966.5" y1="1356" y2="1356"/><line style="stroke: #A80036; stroke-width: 1.5;" x1="533.5" x2="966.5" y1="1364" y2="1364"/><ellipse cx="543.5" cy="1375.9023" fill="#84BE84" rx="3" ry="3" style="stroke: #038048; stroke-width: 1.0;"/><text fill="#000000" font-family="sans-serif" font-size="11" lengthAdjust="spacingAndGlyphs" textLength="409" x="552.5" y="1378.2104">DynamicAttachment(Engine, String, String, DynamicAttachmentProvider)</text></a><!--class org.apache.wiki.attachment.Attachment--><a href="Attachment.html" target="_top" xlink:actuate="onRequest" xlink:show="new" xlink:title="Attachment.html" xlink:type="simple"><rect fill="#FEFECE" filter="url(#fieldkkglikp9)" height="124.8281" id="org.apache.wiki.attachment.Attachment" style="stroke: #A80036; stroke-width: 1.5;" width="220" x="700" y="1076"/><ellipse cx="769.25" cy="1092" fill="#ADD1B2" rx="11" ry="11" style="stroke: #A80036; stroke-width: 1.0;"/><path d="M772.2188,1097.6406 Q771.6406,1097.9375 771,1098.0859 Q770.3594,1098.2344 769.6563,1098.2344 Q767.1563,1098.2344 765.8359,1096.5859 Q764.5156,1094.9375 764.5156,1091.8125 Q764.5156,1088.6875 765.8359,1087.0313 Q767.1563,1085.375 769.6563,1085.375 Q770.3594,1085.375 771.0078,1085.5313 Q771.6563,1085.6875 772.2188,1085.9844 L772.2188,1088.7031 Q771.5938,1088.125 771,1087.8516 Q770.4063,1087.5781 769.7813,1087.5781 Q768.4375,1087.5781 767.75,1088.6484 Q767.0625,1089.7188 767.0625,1091.8125 Q767.0625,1093.9063 767.75,1094.9766 Q768.4375,1096.0469 769.7813,1096.0469 Q770.4063,1096.0469 771,1095.7734 Q771.5938,1095.5 772.2188,1094.9219 L772.2188,1097.6406 Z "/><text fill="#000000" font-family="sans-serif" font-size="12" lengthAdjust="spacingAndGlyphs" textLength="73" x="789.75" y="1096.1543">Attachment</text><line style="stroke: #A80036; stroke-width: 1.5;" x1="701" x2="919" y1="1108" y2="1108"/><line style="stroke: #A80036; stroke-width: 1.5;" x1="701" x2="919" y1="1116" y2="1116"/><ellipse cx="711" cy="1127.9023" fill="#84BE84" rx="3" ry="3" style="stroke: #038048; stroke-width: 1.0;"/><text fill="#000000" font-family="sans-serif" font-size="11" lengthAdjust="spacingAndGlyphs" textLength="194" x="720" y="1130.2104">Attachment(Engine, String, String)</text><ellipse cx="711" cy="1140.707" fill="#84BE84" rx="3" ry="3" style="stroke: #038048; stroke-width: 1.0;"/><text fill="#000000" font-family="sans-serif" font-size="11" lengthAdjust="spacingAndGlyphs" textLength="120" x="720" y="1143.0151">getFileName(): String</text><ellipse cx="711" cy="1153.5117" fill="#84BE84" rx="3" ry="3" style="stroke: #038048; stroke-width: 1.0;"/><text fill="#000000" font-family="sans-serif" font-size="11" lengthAdjust="spacingAndGlyphs" textLength="143" x="720" y="1155.8198">setFileName(String): void</text><ellipse cx="711" cy="1166.3164" fill="#84BE84" rx="3" ry="3" style="stroke: #038048; stroke-width: 1.0;"/><text fill="#000000" font-family="sans-serif" font-size="11" lengthAdjust="spacingAndGlyphs" textLength="138" x="720" y="1168.6245">getParentName(): String</text><ellipse cx="711" cy="1179.1211" fill="#84BE84" rx="3" ry="3" style="stroke: #038048; stroke-width: 1.0;"/><text fill="#000000" font-family="sans-serif" font-size="11" lengthAdjust="spacingAndGlyphs" textLength="130" x="720" y="1181.4292">isCacheable(): boolean</text><ellipse cx="711" cy="1191.9258" fill="#84BE84" rx="3" ry="3" style="stroke: #038048; stroke-width: 1.0;"/><text fill="#000000" font-family="sans-serif" font-size="11" lengthAdjust="spacingAndGlyphs" textLength="161" x="720" y="1194.2339">setCacheable(boolean): void</text></a><!--class javax.servlet.http.HttpServlet--><rect fill="#FEFECE" filter="url(#fieldkkglikp9)" height="48" id="javax.servlet.http.HttpServlet" style="stroke: #A80036; stroke-width: 1.5;" width="102" x="227" y="43"/><ellipse cx="242" cy="59" fill="#A9DCDF" rx="11" ry="11" style="stroke: #A80036; stroke-width: 1.0;"/><path d="M242.1094,54.3438 L240.9531,59.4219 L243.2813,59.4219 L242.1094,54.3438 Z M240.625,52.1094 L243.6094,52.1094 L246.9688,64.5 L244.5156,64.5 L243.75,61.4375 L240.4688,61.4375 L239.7188,64.5 L237.2813,64.5 L240.625,52.1094 Z "/><text fill="#000000" font-family="sans-serif" font-size="12" font-style="italic" lengthAdjust="spacingAndGlyphs" textLength="70" x="256" y="63.1543">HttpServlet</text><line style="stroke: #A80036; stroke-width: 1.5;" x1="228" x2="328" y1="75" y2="75"/><line style="stroke: #A80036; stroke-width: 1.5;" x1="228" x2="328" y1="83" y2="83"/><!--class org.apache.wiki.WikiPage--><rect fill="#FEFECE" filter="url(#fieldkkglikp9)" height="48" id="org.apache.wiki.WikiPage" style="stroke: #A80036; stroke-width: 1.5;" width="88" x="991" y="967"/><ellipse cx="1006" cy="983" fill="#ADD1B2" rx="11" ry="11" style="stroke: #A80036; stroke-width: 1.0;"/><path d="M1008.9688,988.6406 Q1008.3906,988.9375 1007.75,989.0859 Q1007.1094,989.2344 1006.4063,989.2344 Q1003.9063,989.2344 1002.5859,987.5859 Q1001.2656,985.9375 1001.2656,982.8125 Q1001.2656,979.6875 1002.5859,978.0313 Q1003.9063,976.375 1006.4063,976.375 Q1007.1094,976.375 1007.7578,976.5313 Q1008.4063,976.6875 1008.9688,976.9844 L1008.9688,979.7031 Q1008.3438,979.125 1007.75,978.8516 Q1007.1563,978.5781 1006.5313,978.5781 Q1005.1875,978.5781 1004.5,979.6484 Q1003.8125,980.7188 1003.8125,982.8125 Q1003.8125,984.9063 1004.5,985.9766 Q1005.1875,987.0469 1006.5313,987.0469 Q1007.1563,987.0469 1007.75,986.7734 Q1008.3438,986.5 1008.9688,985.9219 L1008.9688,988.6406 Z "/><text fill="#000000" font-family="sans-serif" font-size="12" lengthAdjust="spacingAndGlyphs" textLength="56" x="1020" y="987.1543">WikiPage</text><line style="stroke: #A80036; stroke-width: 1.5;" x1="992" x2="1078" y1="999" y2="999"/><line style="stroke: #A80036; stroke-width: 1.5;" x1="992" x2="1078" y1="1007" y2="1007"/><!--link javax.servlet.http.HttpServlet to org.apache.wiki.attachment.AttachmentServlet--><path d="M278,111.5592 C278,157.8629 278,230.9484 278,284.7797 " fill="none" id="javax.servlet.http.HttpServlet-org.apache.wiki.attachment.AttachmentServlet" style="stroke: #A80036; stroke-width: 1.0;"/><polygon fill="none" points="271.0001,111.4695,278,91.4695,285.0001,111.4694,271.0001,111.4695" style="stroke: #A80036; stroke-width: 1.0;"/><!--link org.apache.wiki.attachment.AttachmentManager to org.apache.wiki.attachment.DefaultAttachmentManager--><path d="M658.7035,569.3638 C640.3813,605.4668 622.0331,641.6211 605.6924,673.8198 " fill="none" id="org.apache.wiki.attachment.AttachmentManager-org.apache.wiki.attachment.DefaultAttachmentManager" style="stroke: #A80036; stroke-width: 1.0; stroke-dasharray: 7.0,7.0;"/><polygon fill="none" points="652.6847,565.7556,667.978,551.0888,665.1691,572.0914,652.6847,565.7556" style="stroke: #A80036; stroke-width: 1.0;"/><!--link org.apache.wiki.attachment.Attachment to org.apache.wiki.attachment.DynamicAttachment--><path d="M787.1489,1220.7638 C777.1361,1256.81 765.9951,1296.9176 758.5496,1323.7214 " fill="none" id="org.apache.wiki.attachment.Attachment-org.apache.wiki.attachment.DynamicAttachment" style="stroke: #A80036; stroke-width: 1.0;"/><polygon fill="none" points="780.4673,1218.6631,792.5649,1201.2663,793.9566,1222.4102,780.4673,1218.6631" style="stroke: #A80036; stroke-width: 1.0;"/><!--link org.apache.wiki.WikiPage to org.apache.wiki.attachment.Attachment--><path d="M981.5217,1026.058 C958.7294,1040.9996 931.4282,1058.897 905.3808,1075.9726 " fill="none" id="org.apache.wiki.WikiPage-org.apache.wiki.attachment.Attachment" style="stroke: #A80036; stroke-width: 1.0;"/><polygon fill="none" points="977.785,1020.1376,998.3491,1015.0267,985.4606,1031.846,977.785,1020.1376" style="stroke: #A80036; stroke-width: 1.0;"/><!--link org.apache.wiki.attachment.AttachmentManager to org.apache.wiki.attachment.Attachment--><path d="M810.4287,551.3045 C812.6565,571.881 814,592.5572 814,612.5 C814,612.5 814,612.5 814,991 C814,1016.9488 813.3737,1045.4559 812.6168,1070.4342 " fill="none" id="org.apache.wiki.attachment.AttachmentManager-org.apache.wiki.attachment.Attachment" style="stroke: #A80036; stroke-width: 1.0;"/><polygon fill="#A80036" points="812.4535,1075.7085,816.7303,1066.8367,812.6084,1070.7109,808.7342,1066.5889,812.4535,1075.7085" style="stroke: #A80036; stroke-width: 1.0;"/><text fill="#000000" font-family="sans-serif" font-size="13" lengthAdjust="spacingAndGlyphs" textLength="97" x="815" y="792.0669">allAttachments</text><text fill="#000000" font-family="sans-serif" font-size="13" lengthAdjust="spacingAndGlyphs" textLength="7" x="805.339" y="1065.1039">*</text><!--link org.apache.wiki.attachment.DefaultAttachmentManager to org.apache.wiki.attachment.Attachment--><path d="M619.5815,901.2013 C645.6212,940.6238 676.0385,984.5537 706,1023 C718.6911,1039.2851 733.0866,1056.1535 747.0338,1071.8017 " fill="none" id="org.apache.wiki.attachment.DefaultAttachmentManager-org.apache.wiki.attachment.Attachment" style="stroke: #A80036; stroke-width: 1.0;"/><polygon fill="#A80036" points="750.5687,1075.7527,747.5488,1066.3783,747.2348,1072.0264,741.5867,1071.7125,750.5687,1075.7527" style="stroke: #A80036; stroke-width: 1.0;"/><text fill="#000000" font-family="sans-serif" font-size="13" lengthAdjust="spacingAndGlyphs" textLength="97" x="707" y="995.5669">allAttachments</text><text fill="#000000" font-family="sans-serif" font-size="13" lengthAdjust="spacingAndGlyphs" textLength="7" x="736.6856" y="1065.153">*</text><!--link org.apache.wiki.attachment.DynamicAttachment to org.apache.wiki.attachment.DynamicAttachmentProvider--><path d="M750,1385.3117 C750,1421.2381 750,1480.5334 750,1518.5346 " fill="none" id="org.apache.wiki.attachment.DynamicAttachment-org.apache.wiki.attachment.DynamicAttachmentProvider" style="stroke: #A80036; stroke-width: 1.0;"/><polygon fill="#A80036" points="750,1523.9815,754,1514.9815,750,1518.9815,746,1514.9815,750,1523.9815" style="stroke: #A80036; stroke-width: 1.0;"/><text fill="#000000" font-family="sans-serif" font-size="13" lengthAdjust="spacingAndGlyphs" textLength="52" x="751" y="1459.0669">provider</text><text fill="#888888" font-family="sans-serif" font-size="10" lengthAdjust="spacingAndGlyphs" textLength="186" x="482" y="1620.2822">UMLDoclet 1.1.4, PlantUML 1.2019.05</text><!--
@startuml

    namespace org.apache.wiki.attachment {

        interface DynamicAttachmentProvider [[DynamicAttachmentProvider.html]] {
            {abstract} +getAttachmentData(WikiContext, Attachment): InputStream
        }

        interface AttachmentManager [[AttachmentManager.html]] {
            {static} +PROP_PROVIDER: String
            {static} +PROP_MAXSIZE: String
            {static} +PROP_ALLOWEDEXTENSIONS: String
            {static} +PROP_FORBIDDENEXTENSIONS: String
            {static} +PROP_FORCEDOWNLOAD: String
            {static} +CACHE_NAME: String
            {static} +DEFAULT_CACHECAPACITY: int
            +getAttachmentInfo(String): Attachment
            +getAttachmentInfo(String, int): Attachment
            +getAttachmentInfo(WikiContext, String): Attachment
            +hasAttachments(WikiPage): boolean
            +getAttachmentStream(Attachment): InputStream
            +storeAttachment(Attachment, File): void
            {static} +validateFileName(String): String
            {abstract} +attachmentsEnabled(): boolean
            {abstract} +getAttachmentInfo(WikiContext, String, int): Attachment
            {abstract} +getAttachmentInfoName(WikiContext, String): String
            {abstract} +listAttachments(WikiPage): List<Attachment>
            {abstract} +forceDownload(String): boolean
            {abstract} +getAttachmentStream(WikiContext, Attachment): InputStream
            {abstract} +storeDynamicAttachment(WikiContext, DynamicAttachment): void
            {abstract} +getDynamicAttachment(String): DynamicAttachment
            {abstract} +storeAttachment(Attachment, InputStream): void
            {abstract} +getVersionHistory(String): List<Attachment>
            {abstract} +getCurrentProvider(): WikiAttachmentProvider
            {abstract} +deleteVersion(Attachment): void
            {abstract} +deleteAttachment(Attachment): void
        }

        class AttachmentServlet [[AttachmentServlet.html]] {
            {static} #DEFAULT_EXPIRY: long
            +init(ServletConfig): void
            #doOptions(HttpServletRequest, HttpServletResponse): void
            +doGet(HttpServletRequest, HttpServletResponse): void
            +doPost(HttpServletRequest, HttpServletResponse): void
            #upload(HttpServletRequest): String
            #executeUpload(WikiContext, InputStream, String, String, String, String, long): boolean
        }

        class DefaultAttachmentManager [[DefaultAttachmentManager.html]] {
            +DefaultAttachmentManager(Engine, Properties)
            +attachmentsEnabled(): boolean
            +getAttachmentInfoName(WikiContext, String): String
            +getAttachmentInfo(WikiContext, String, int): Attachment
            +listAttachments(WikiPage): List<Attachment>
            +forceDownload(String): boolean
            +getAttachmentStream(WikiContext, Attachment): InputStream
            +storeDynamicAttachment(WikiContext, DynamicAttachment): void
            +getDynamicAttachment(String): DynamicAttachment
            +storeAttachment(Attachment, InputStream): void
            +getVersionHistory(String): List<Attachment>
            +getCurrentProvider(): WikiAttachmentProvider
            +deleteVersion(Attachment): void
            +deleteAttachment(Attachment): void
        }

        class DynamicAttachment [[DynamicAttachment.html]] {
            +DynamicAttachment(Engine, String, String, DynamicAttachmentProvider)
        }

        class Attachment [[Attachment.html]] {
            +Attachment(Engine, String, String)
            +getFileName(): String
            +setFileName(String): void
            +getParentName(): String
            +isCacheable(): boolean
            +setCacheable(boolean): void
        }

        abstract class javax.servlet.http.HttpServlet
        javax.servlet.http.HttpServlet <|- - AttachmentServlet

        AttachmentManager <|.. DefaultAttachmentManager

        Attachment <|- - DynamicAttachment

        class org.apache.wiki.WikiPage
        org.apache.wiki.WikiPage <|- - Attachment

        AttachmentManager - -> "*" Attachment: allAttachments

        DefaultAttachmentManager - -> "*" Attachment: allAttachments

        DynamicAttachment - -> DynamicAttachmentProvider: provider

    }


    center footer UMLDoclet 1.1.4, PlantUML 1.2019.05
@enduml

PlantUML version 1.2019.05(Sat Apr 20 16:45:36 UTC 2019)
(APACHE source distribution)
Java Runtime: Java(TM) SE Runtime Environment
JVM: Java HotSpot(TM) 64-Bit Server VM
Java Version: 1.8.0_241-b07
Operating System: Linux
OS Version: 4.15.0-74-generic
Default Encoding: ISO-8859-1
Language: en
Country: US
--></g></svg>