<?xml version="1.0" encoding="UTF-8" standalone="no"?><svg xmlns="http://www.w3.org/2000/svg" xmlns:xlink="http://www.w3.org/1999/xlink" contentScriptType="application/ecmascript" contentStyleType="text/css" height="1297px" preserveAspectRatio="none" style="width:1448px;height:1297px;" version="1.1" viewBox="0 0 1448 1297" width="1448px" zoomAndPan="magnify"><defs><filter height="300%" id="fi2hiev3rwpey" width="300%" x="-1" y="-1"><feGaussianBlur result="blurOut" stdDeviation="2.0"/><feColorMatrix in="blurOut" result="blurOut2" type="matrix" values="0 0 0 0 0 0 0 0 0 0 0 0 0 0 0 0 0 0 .4 0"/><feOffset dx="4.0" dy="4.0" in="blurOut2" result="blurOut3"/><feBlend in="SourceGraphic" in2="blurOut3" mode="normal"/></filter></defs><g><!--cluster org.apache.wiki.attachment--><polygon fill="#FFFFFF" filter="url(#fi2hiev3rwpey)" points="14,130,239,130,246,152.2969,1208,152.2969,1208,1257,14,1257,14,130" style="stroke: #000000; stroke-width: 1.5;"/><line style="stroke: #000000; stroke-width: 1.5;" x1="14" x2="246" y1="152.2969" y2="152.2969"/><text fill="#000000" font-family="sans-serif" font-size="14" font-weight="bold" lengthAdjust="spacingAndGlyphs" textLength="219" x="18" y="144.9951">org.apache.wiki.attachment</text><!--cluster javax.servlet.http--><polygon fill="#FFFFFF" filter="url(#fi2hiev3rwpey)" points="613,16,756,16,763,38.2969,766,38.2969,766,99,613,99,613,16" style="stroke: #000000; stroke-width: 1.5;"/><line style="stroke: #000000; stroke-width: 1.5;" x1="613" x2="763" y1="38.2969" y2="38.2969"/><text fill="#000000" font-family="sans-serif" font-size="14" font-weight="bold" lengthAdjust="spacingAndGlyphs" textLength="137" x="617" y="30.9951">javax.servlet.http</text><!--cluster org.apache.wiki--><polygon fill="#FFFFFF" filter="url(#fi2hiev3rwpey)" points="1020,16,1151,16,1158,38.2969,1161,38.2969,1161,99,1020,99,1020,16" style="stroke: #000000; stroke-width: 1.5;"/><line style="stroke: #000000; stroke-width: 1.5;" x1="1020" x2="1158" y1="38.2969" y2="38.2969"/><text fill="#000000" font-family="sans-serif" font-size="14" font-weight="bold" lengthAdjust="spacingAndGlyphs" textLength="125" x="1024" y="30.9951">org.apache.wiki</text><!--cluster org.apache.wiki.api.core--><polygon fill="#FFFFFF" filter="url(#fi2hiev3rwpey)" points="1216,606,1416,606,1423,628.2969,1426,628.2969,1426,753,1216,753,1216,606" style="stroke: #000000; stroke-width: 1.5;"/><line style="stroke: #000000; stroke-width: 1.5;" x1="1216" x2="1423" y1="628.2969" y2="628.2969"/><text fill="#000000" font-family="sans-serif" font-size="14" font-weight="bold" lengthAdjust="spacingAndGlyphs" textLength="194" x="1220" y="620.9951">org.apache.wiki.api.core</text><!--class org.apache.wiki.attachment.AttachmentServlet--><a href="AttachmentServlet.html" target="_top" xlink:actuate="onRequest" xlink:show="new" xlink:title="AttachmentServlet.html" xlink:type="simple"><rect fill="#FEFECE" filter="url(#fi2hiev3rwpey)" height="137.6328" id="org.apache.wiki.attachment.AttachmentServlet" style="stroke: #A80036; stroke-width: 1.5;" width="512" x="433" y="285"/><ellipse cx="626.75" cy="301" fill="#ADD1B2" rx="11" ry="11" style="stroke: #A80036; stroke-width: 1.0;"/><path d="M629.7188,306.6406 Q629.1406,306.9375 628.5,307.0859 Q627.8594,307.2344 627.1563,307.2344 Q624.6563,307.2344 623.3359,305.5859 Q622.0156,303.9375 622.0156,300.8125 Q622.0156,297.6875 623.3359,296.0313 Q624.6563,294.375 627.1563,294.375 Q627.8594,294.375 628.5078,294.5313 Q629.1563,294.6875 629.7188,294.9844 L629.7188,297.7031 Q629.0938,297.125 628.5,296.8516 Q627.9063,296.5781 627.2813,296.5781 Q625.9375,296.5781 625.25,297.6484 Q624.5625,298.7188 624.5625,300.8125 Q624.5625,302.9063 625.25,303.9766 Q625.9375,305.0469 627.2813,305.0469 Q627.9063,305.0469 628.5,304.7734 Q629.0938,304.5 629.7188,303.9219 L629.7188,306.6406 Z "/><text fill="#000000" font-family="sans-serif" font-size="12" lengthAdjust="spacingAndGlyphs" textLength="116" x="647.25" y="305.1543">AttachmentServlet</text><line style="stroke: #A80036; stroke-width: 1.5;" x1="434" x2="944" y1="317" y2="317"/><polygon fill="none" points="444,323.9023,448,327.9023,444,331.9023,440,327.9023" style="stroke: #B38D22; stroke-width: 1.0;"/><text fill="#000000" font-family="sans-serif" font-size="11" lengthAdjust="spacingAndGlyphs" text-decoration="underline" textLength="125" x="453" y="331.2104">DEFAULT_EXPIRY: long</text><line style="stroke: #A80036; stroke-width: 1.5;" x1="434" x2="944" y1="337.8047" y2="337.8047"/><ellipse cx="444" cy="349.707" fill="#84BE84" rx="3" ry="3" style="stroke: #038048; stroke-width: 1.0;"/><text fill="#000000" font-family="sans-serif" font-size="11" lengthAdjust="spacingAndGlyphs" textLength="132" x="453" y="352.0151">init(ServletConfig): void</text><polygon fill="#FFFF44" points="444,357.5117,448,361.5117,444,365.5117,440,361.5117" style="stroke: #B38D22; stroke-width: 1.0;"/><text fill="#000000" font-family="sans-serif" font-size="11" lengthAdjust="spacingAndGlyphs" textLength="333" x="453" y="364.8198">doOptions(HttpServletRequest, HttpServletResponse): void</text><ellipse cx="444" cy="375.3164" fill="#84BE84" rx="3" ry="3" style="stroke: #038048; stroke-width: 1.0;"/><text fill="#000000" font-family="sans-serif" font-size="11" lengthAdjust="spacingAndGlyphs" textLength="309" x="453" y="377.6245">doGet(HttpServletRequest, HttpServletResponse): void</text><ellipse cx="444" cy="388.1211" fill="#84BE84" rx="3" ry="3" style="stroke: #038048; stroke-width: 1.0;"/><text fill="#000000" font-family="sans-serif" font-size="11" lengthAdjust="spacingAndGlyphs" textLength="314" x="453" y="390.4292">doPost(HttpServletRequest, HttpServletResponse): void</text><polygon fill="#FFFF44" points="444,395.9258,448,399.9258,444,403.9258,440,399.9258" style="stroke: #B38D22; stroke-width: 1.0;"/><text fill="#000000" font-family="sans-serif" font-size="11" lengthAdjust="spacingAndGlyphs" textLength="197" x="453" y="403.2339">upload(HttpServletRequest): String</text><polygon fill="#FFFF44" points="444,408.7305,448,412.7305,444,416.7305,440,412.7305" style="stroke: #B38D22; stroke-width: 1.0;"/><text fill="#000000" font-family="sans-serif" font-size="11" lengthAdjust="spacingAndGlyphs" textLength="486" x="453" y="416.0386">executeUpload(WikiContext, InputStream, String, String, String, String, long): boolean</text></a><!--class org.apache.wiki.attachment.DynamicAttachment--><a href="DynamicAttachment.html" target="_top" xlink:actuate="onRequest" xlink:show="new" xlink:title="DynamicAttachment.html" xlink:type="simple"><rect fill="#FEFECE" filter="url(#fi2hiev3rwpey)" height="60.8047" id="org.apache.wiki.attachment.DynamicAttachment" style="stroke: #A80036; stroke-width: 1.5;" width="435" x="765.5" y="905"/><ellipse cx="916.25" cy="921" fill="#ADD1B2" rx="11" ry="11" style="stroke: #A80036; stroke-width: 1.0;"/><path d="M919.2188,926.6406 Q918.6406,926.9375 918,927.0859 Q917.3594,927.2344 916.6563,927.2344 Q914.1563,927.2344 912.8359,925.5859 Q911.5156,923.9375 911.5156,920.8125 Q911.5156,917.6875 912.8359,916.0313 Q914.1563,914.375 916.6563,914.375 Q917.3594,914.375 918.0078,914.5313 Q918.6563,914.6875 919.2188,914.9844 L919.2188,917.7031 Q918.5938,917.125 918,916.8516 Q917.4063,916.5781 916.7813,916.5781 Q915.4375,916.5781 914.75,917.6484 Q914.0625,918.7188 914.0625,920.8125 Q914.0625,922.9063 914.75,923.9766 Q915.4375,925.0469 916.7813,925.0469 Q917.4063,925.0469 918,924.7734 Q918.5938,924.5 919.2188,923.9219 L919.2188,926.6406 Z "/><text fill="#000000" font-family="sans-serif" font-size="12" lengthAdjust="spacingAndGlyphs" textLength="125" x="936.75" y="925.1543">DynamicAttachment</text><line style="stroke: #A80036; stroke-width: 1.5;" x1="766.5" x2="1199.5" y1="937" y2="937"/><line style="stroke: #A80036; stroke-width: 1.5;" x1="766.5" x2="1199.5" y1="945" y2="945"/><ellipse cx="776.5" cy="956.9023" fill="#84BE84" rx="3" ry="3" style="stroke: #038048; stroke-width: 1.0;"/><text fill="#000000" font-family="sans-serif" font-size="11" lengthAdjust="spacingAndGlyphs" textLength="409" x="785.5" y="959.2104">DynamicAttachment(Engine, String, String, DynamicAttachmentProvider)</text></a><!--class org.apache.wiki.attachment.Attachment--><a href="Attachment.html" target="_top" xlink:actuate="onRequest" xlink:show="new" xlink:title="Attachment.html" xlink:type="simple"><rect fill="#FEFECE" filter="url(#fi2hiev3rwpey)" height="124.8281" id="org.apache.wiki.attachment.Attachment" style="stroke: #A80036; stroke-width: 1.5;" width="220" x="980" y="291.5"/><ellipse cx="1049.25" cy="307.5" fill="#ADD1B2" rx="11" ry="11" style="stroke: #A80036; stroke-width: 1.0;"/><path d="M1052.2188,313.1406 Q1051.6406,313.4375 1051,313.5859 Q1050.3594,313.7344 1049.6563,313.7344 Q1047.1563,313.7344 1045.8359,312.0859 Q1044.5156,310.4375 1044.5156,307.3125 Q1044.5156,304.1875 1045.8359,302.5313 Q1047.1563,300.875 1049.6563,300.875 Q1050.3594,300.875 1051.0078,301.0313 Q1051.6563,301.1875 1052.2188,301.4844 L1052.2188,304.2031 Q1051.5938,303.625 1051,303.3516 Q1050.4063,303.0781 1049.7813,303.0781 Q1048.4375,303.0781 1047.75,304.1484 Q1047.0625,305.2188 1047.0625,307.3125 Q1047.0625,309.4063 1047.75,310.4766 Q1048.4375,311.5469 1049.7813,311.5469 Q1050.4063,311.5469 1051,311.2734 Q1051.5938,311 1052.2188,310.4219 L1052.2188,313.1406 Z "/><text fill="#000000" font-family="sans-serif" font-size="12" lengthAdjust="spacingAndGlyphs" textLength="73" x="1069.75" y="311.6543">Attachment</text><line style="stroke: #A80036; stroke-width: 1.5;" x1="981" x2="1199" y1="323.5" y2="323.5"/><line style="stroke: #A80036; stroke-width: 1.5;" x1="981" x2="1199" y1="331.5" y2="331.5"/><ellipse cx="991" cy="343.4023" fill="#84BE84" rx="3" ry="3" style="stroke: #038048; stroke-width: 1.0;"/><text fill="#000000" font-family="sans-serif" font-size="11" lengthAdjust="spacingAndGlyphs" textLength="194" x="1000" y="345.7104">Attachment(Engine, String, String)</text><ellipse cx="991" cy="356.207" fill="#84BE84" rx="3" ry="3" style="stroke: #038048; stroke-width: 1.0;"/><text fill="#000000" font-family="sans-serif" font-size="11" lengthAdjust="spacingAndGlyphs" textLength="120" x="1000" y="358.5151">getFileName(): String</text><ellipse cx="991" cy="369.0117" fill="#84BE84" rx="3" ry="3" style="stroke: #038048; stroke-width: 1.0;"/><text fill="#000000" font-family="sans-serif" font-size="11" lengthAdjust="spacingAndGlyphs" textLength="143" x="1000" y="371.3198">setFileName(String): void</text><ellipse cx="991" cy="381.8164" fill="#84BE84" rx="3" ry="3" style="stroke: #038048; stroke-width: 1.0;"/><text fill="#000000" font-family="sans-serif" font-size="11" lengthAdjust="spacingAndGlyphs" textLength="138" x="1000" y="384.1245">getParentName(): String</text><ellipse cx="991" cy="394.6211" fill="#84BE84" rx="3" ry="3" style="stroke: #038048; stroke-width: 1.0;"/><text fill="#000000" font-family="sans-serif" font-size="11" lengthAdjust="spacingAndGlyphs" textLength="130" x="1000" y="396.9292">isCacheable(): boolean</text><ellipse cx="991" cy="407.4258" fill="#84BE84" rx="3" ry="3" style="stroke: #038048; stroke-width: 1.0;"/><text fill="#000000" font-family="sans-serif" font-size="11" lengthAdjust="spacingAndGlyphs" textLength="161" x="1000" y="409.7339">setCacheable(boolean): void</text></a><!--class org.apache.wiki.attachment.DynamicAttachmentProvider--><a href="DynamicAttachmentProvider.html" target="_top" xlink:actuate="onRequest" xlink:show="new" xlink:title="DynamicAttachmentProvider.html" xlink:type="simple"><rect fill="#FEFECE" filter="url(#fi2hiev3rwpey)" height="60.8047" id="org.apache.wiki.attachment.DynamicAttachmentProvider" style="stroke: #A80036; stroke-width: 1.5;" width="337" x="814.5" y="1188"/><ellipse cx="890.75" cy="1204" fill="#B4A7E5" rx="11" ry="11" style="stroke: #A80036; stroke-width: 1.0;"/><path d="M886.6719,1199.7656 L886.6719,1197.6094 L894.0625,1197.6094 L894.0625,1199.7656 L891.5938,1199.7656 L891.5938,1207.8438 L894.0625,1207.8438 L894.0625,1210 L886.6719,1210 L886.6719,1207.8438 L889.1406,1207.8438 L889.1406,1199.7656 L886.6719,1199.7656 Z "/><text fill="#000000" font-family="sans-serif" font-size="12" font-style="italic" lengthAdjust="spacingAndGlyphs" textLength="176" x="911.25" y="1208.1543">DynamicAttachmentProvider</text><line style="stroke: #A80036; stroke-width: 1.5;" x1="815.5" x2="1150.5" y1="1220" y2="1220"/><line style="stroke: #A80036; stroke-width: 1.5;" x1="815.5" x2="1150.5" y1="1228" y2="1228"/><ellipse cx="825.5" cy="1239.9023" fill="#84BE84" rx="3" ry="3" style="stroke: #038048; stroke-width: 1.0;"/><text fill="#000000" font-family="sans-serif" font-size="11" font-style="italic" lengthAdjust="spacingAndGlyphs" textLength="311" x="834.5" y="1242.2104">getAttachmentData(Context, Attachment): InputStream</text></a><!--class org.apache.wiki.attachment.DefaultAttachmentManager--><a href="DefaultAttachmentManager.html" target="_top" xlink:actuate="onRequest" xlink:show="new" xlink:title="DefaultAttachmentManager.html" xlink:type="simple"><rect fill="#FEFECE" filter="url(#fi2hiev3rwpey)" height="227.2656" id="org.apache.wiki.attachment.DefaultAttachmentManager" style="stroke: #A80036; stroke-width: 1.5;" width="370" x="277" y="822"/><ellipse cx="371.25" cy="838" fill="#ADD1B2" rx="11" ry="11" style="stroke: #A80036; stroke-width: 1.0;"/><path d="M374.2188,843.6406 Q373.6406,843.9375 373,844.0859 Q372.3594,844.2344 371.6563,844.2344 Q369.1563,844.2344 367.8359,842.5859 Q366.5156,840.9375 366.5156,837.8125 Q366.5156,834.6875 367.8359,833.0313 Q369.1563,831.375 371.6563,831.375 Q372.3594,831.375 373.0078,831.5313 Q373.6563,831.6875 374.2188,831.9844 L374.2188,834.7031 Q373.5938,834.125 373,833.8516 Q372.4063,833.5781 371.7813,833.5781 Q370.4375,833.5781 369.75,834.6484 Q369.0625,835.7188 369.0625,837.8125 Q369.0625,839.9063 369.75,840.9766 Q370.4375,842.0469 371.7813,842.0469 Q372.4063,842.0469 373,841.7734 Q373.5938,841.5 374.2188,840.9219 L374.2188,843.6406 Z "/><text fill="#000000" font-family="sans-serif" font-size="12" lengthAdjust="spacingAndGlyphs" textLength="173" x="391.75" y="842.1543">DefaultAttachmentManager</text><line style="stroke: #A80036; stroke-width: 1.5;" x1="278" x2="646" y1="854" y2="854"/><line style="stroke: #A80036; stroke-width: 1.5;" x1="278" x2="646" y1="862" y2="862"/><ellipse cx="288" cy="873.9023" fill="#84BE84" rx="3" ry="3" style="stroke: #038048; stroke-width: 1.0;"/><text fill="#000000" font-family="sans-serif" font-size="11" lengthAdjust="spacingAndGlyphs" textLength="266" x="297" y="876.2104">DefaultAttachmentManager(Engine, Properties)</text><ellipse cx="288" cy="886.707" fill="#84BE84" rx="3" ry="3" style="stroke: #038048; stroke-width: 1.0;"/><text fill="#000000" font-family="sans-serif" font-size="11" lengthAdjust="spacingAndGlyphs" textLength="177" x="297" y="889.0151">attachmentsEnabled(): boolean</text><ellipse cx="288" cy="899.5117" fill="#84BE84" rx="3" ry="3" style="stroke: #038048; stroke-width: 1.0;"/><text fill="#000000" font-family="sans-serif" font-size="11" lengthAdjust="spacingAndGlyphs" textLength="271" x="297" y="901.8198">getAttachmentInfoName(Context, String): String</text><ellipse cx="288" cy="912.3164" fill="#84BE84" rx="3" ry="3" style="stroke: #038048; stroke-width: 1.0;"/><text fill="#000000" font-family="sans-serif" font-size="11" lengthAdjust="spacingAndGlyphs" textLength="290" x="297" y="914.6245">getAttachmentInfo(Context, String, int): Attachment</text><ellipse cx="288" cy="925.1211" fill="#84BE84" rx="3" ry="3" style="stroke: #038048; stroke-width: 1.0;"/><text fill="#000000" font-family="sans-serif" font-size="11" lengthAdjust="spacingAndGlyphs" textLength="234" x="297" y="927.4292">listAttachments(Page): List&lt;Attachment&gt;</text><ellipse cx="288" cy="937.9258" fill="#84BE84" rx="3" ry="3" style="stroke: #038048; stroke-width: 1.0;"/><text fill="#000000" font-family="sans-serif" font-size="11" lengthAdjust="spacingAndGlyphs" textLength="179" x="297" y="940.2339">forceDownload(String): boolean</text><ellipse cx="288" cy="950.7305" fill="#84BE84" rx="3" ry="3" style="stroke: #038048; stroke-width: 1.0;"/><text fill="#000000" font-family="sans-serif" font-size="11" lengthAdjust="spacingAndGlyphs" textLength="325" x="297" y="953.0386">getAttachmentStream(Context, Attachment): InputStream</text><ellipse cx="288" cy="963.5352" fill="#84BE84" rx="3" ry="3" style="stroke: #038048; stroke-width: 1.0;"/><text fill="#000000" font-family="sans-serif" font-size="11" lengthAdjust="spacingAndGlyphs" textLength="344" x="297" y="965.8433">storeDynamicAttachment(Context, DynamicAttachment): void</text><ellipse cx="288" cy="976.3398" fill="#84BE84" rx="3" ry="3" style="stroke: #038048; stroke-width: 1.0;"/><text fill="#000000" font-family="sans-serif" font-size="11" lengthAdjust="spacingAndGlyphs" textLength="292" x="297" y="978.6479">getDynamicAttachment(String): DynamicAttachment</text><ellipse cx="288" cy="989.1445" fill="#84BE84" rx="3" ry="3" style="stroke: #038048; stroke-width: 1.0;"/><text fill="#000000" font-family="sans-serif" font-size="11" lengthAdjust="spacingAndGlyphs" textLength="275" x="297" y="991.4526">storeAttachment(Attachment, InputStream): void</text><ellipse cx="288" cy="1001.9492" fill="#84BE84" rx="3" ry="3" style="stroke: #038048; stroke-width: 1.0;"/><text fill="#000000" font-family="sans-serif" font-size="11" lengthAdjust="spacingAndGlyphs" textLength="253" x="297" y="1004.2573">getVersionHistory(String): List&lt;Attachment&gt;</text><ellipse cx="288" cy="1014.7539" fill="#84BE84" rx="3" ry="3" style="stroke: #038048; stroke-width: 1.0;"/><text fill="#000000" font-family="sans-serif" font-size="11" lengthAdjust="spacingAndGlyphs" textLength="235" x="297" y="1017.062">getCurrentProvider(): AttachmentProvider</text><ellipse cx="288" cy="1027.5586" fill="#84BE84" rx="3" ry="3" style="stroke: #038048; stroke-width: 1.0;"/><text fill="#000000" font-family="sans-serif" font-size="11" lengthAdjust="spacingAndGlyphs" textLength="181" x="297" y="1029.8667">deleteVersion(Attachment): void</text><ellipse cx="288" cy="1040.3633" fill="#84BE84" rx="3" ry="3" style="stroke: #038048; stroke-width: 1.0;"/><text fill="#000000" font-family="sans-serif" font-size="11" lengthAdjust="spacingAndGlyphs" textLength="202" x="297" y="1042.6714">deleteAttachment(Attachment): void</text></a><!--class org.apache.wiki.attachment.AttachmentManager--><a href="AttachmentManager.html" target="_top" xlink:actuate="onRequest" xlink:show="new" xlink:title="AttachmentManager.html" xlink:type="simple"><rect fill="#FEFECE" filter="url(#fi2hiev3rwpey)" height="393.7266" id="org.apache.wiki.attachment.AttachmentManager" style="stroke: #A80036; stroke-width: 1.5;" width="375" x="22.5" y="157"/><ellipse cx="141.75" cy="173" fill="#B4A7E5" rx="11" ry="11" style="stroke: #A80036; stroke-width: 1.0;"/><path d="M137.6719,168.7656 L137.6719,166.6094 L145.0625,166.6094 L145.0625,168.7656 L142.5938,168.7656 L142.5938,176.8438 L145.0625,176.8438 L145.0625,179 L137.6719,179 L137.6719,176.8438 L140.1406,176.8438 L140.1406,168.7656 L137.6719,168.7656 Z "/><text fill="#000000" font-family="sans-serif" font-size="12" font-style="italic" lengthAdjust="spacingAndGlyphs" textLength="128" x="162.25" y="177.1543">AttachmentManager</text><line style="stroke: #A80036; stroke-width: 1.5;" x1="23.5" x2="396.5" y1="189" y2="189"/><ellipse cx="33.5" cy="200.9023" fill="none" rx="3" ry="3" style="stroke: #038048; stroke-width: 1.0;"/><text fill="#000000" font-family="sans-serif" font-size="11" lengthAdjust="spacingAndGlyphs" text-decoration="underline" textLength="133" x="42.5" y="203.2104">PROP_PROVIDER: String</text><ellipse cx="33.5" cy="213.707" fill="none" rx="3" ry="3" style="stroke: #038048; stroke-width: 1.0;"/><text fill="#000000" font-family="sans-serif" font-size="11" lengthAdjust="spacingAndGlyphs" text-decoration="underline" textLength="128" x="42.5" y="216.0151">PROP_MAXSIZE: String</text><ellipse cx="33.5" cy="226.5117" fill="none" rx="3" ry="3" style="stroke: #038048; stroke-width: 1.0;"/><text fill="#000000" font-family="sans-serif" font-size="11" lengthAdjust="spacingAndGlyphs" text-decoration="underline" textLength="202" x="42.5" y="228.8198">PROP_ALLOWEDEXTENSIONS: String</text><ellipse cx="33.5" cy="239.3164" fill="none" rx="3" ry="3" style="stroke: #038048; stroke-width: 1.0;"/><text fill="#000000" font-family="sans-serif" font-size="11" lengthAdjust="spacingAndGlyphs" text-decoration="underline" textLength="214" x="42.5" y="241.6245">PROP_FORBIDDENEXTENSIONS: String</text><ellipse cx="33.5" cy="252.1211" fill="none" rx="3" ry="3" style="stroke: #038048; stroke-width: 1.0;"/><text fill="#000000" font-family="sans-serif" font-size="11" lengthAdjust="spacingAndGlyphs" text-decoration="underline" textLength="179" x="42.5" y="254.4292">PROP_FORCEDOWNLOAD: String</text><ellipse cx="33.5" cy="264.9258" fill="none" rx="3" ry="3" style="stroke: #038048; stroke-width: 1.0;"/><text fill="#000000" font-family="sans-serif" font-size="11" lengthAdjust="spacingAndGlyphs" text-decoration="underline" textLength="117" x="42.5" y="267.2339">CACHE_NAME: String</text><ellipse cx="33.5" cy="277.7305" fill="none" rx="3" ry="3" style="stroke: #038048; stroke-width: 1.0;"/><text fill="#000000" font-family="sans-serif" font-size="11" lengthAdjust="spacingAndGlyphs" text-decoration="underline" textLength="169" x="42.5" y="280.0386">DEFAULT_CACHECAPACITY: int</text><line style="stroke: #A80036; stroke-width: 1.5;" x1="23.5" x2="396.5" y1="286.6328" y2="286.6328"/><ellipse cx="33.5" cy="298.5352" fill="#84BE84" rx="3" ry="3" style="stroke: #038048; stroke-width: 1.0;"/><text fill="#000000" font-family="sans-serif" font-size="11" lengthAdjust="spacingAndGlyphs" textLength="217" x="42.5" y="300.8433">getAttachmentInfo(String): Attachment</text><ellipse cx="33.5" cy="311.3398" fill="#84BE84" rx="3" ry="3" style="stroke: #038048; stroke-width: 1.0;"/><text fill="#000000" font-family="sans-serif" font-size="11" lengthAdjust="spacingAndGlyphs" textLength="239" x="42.5" y="313.6479">getAttachmentInfo(String, int): Attachment</text><ellipse cx="33.5" cy="324.1445" fill="#84BE84" rx="3" ry="3" style="stroke: #038048; stroke-width: 1.0;"/><text fill="#000000" font-family="sans-serif" font-size="11" lengthAdjust="spacingAndGlyphs" textLength="268" x="42.5" y="326.4526">getAttachmentInfo(Context, String): Attachment</text><ellipse cx="33.5" cy="336.9492" fill="#84BE84" rx="3" ry="3" style="stroke: #038048; stroke-width: 1.0;"/><text fill="#000000" font-family="sans-serif" font-size="11" lengthAdjust="spacingAndGlyphs" textLength="181" x="42.5" y="339.2573">hasAttachments(Page): boolean</text><ellipse cx="33.5" cy="349.7539" fill="#84BE84" rx="3" ry="3" style="stroke: #038048; stroke-width: 1.0;"/><text fill="#000000" font-family="sans-serif" font-size="11" lengthAdjust="spacingAndGlyphs" textLength="274" x="42.5" y="352.062">getAttachmentStream(Attachment): InputStream</text><ellipse cx="33.5" cy="362.5586" fill="#84BE84" rx="3" ry="3" style="stroke: #038048; stroke-width: 1.0;"/><text fill="#000000" font-family="sans-serif" font-size="11" lengthAdjust="spacingAndGlyphs" textLength="224" x="42.5" y="364.8667">storeAttachment(Attachment, File): void</text><ellipse cx="33.5" cy="375.3633" fill="#84BE84" rx="3" ry="3" style="stroke: #038048; stroke-width: 1.0;"/><text fill="#000000" font-family="sans-serif" font-size="11" lengthAdjust="spacingAndGlyphs" text-decoration="underline" textLength="180" x="42.5" y="377.6714">validateFileName(String): String</text><ellipse cx="33.5" cy="388.168" fill="#84BE84" rx="3" ry="3" style="stroke: #038048; stroke-width: 1.0;"/><text fill="#000000" font-family="sans-serif" font-size="11" font-style="italic" lengthAdjust="spacingAndGlyphs" textLength="176" x="42.5" y="390.4761">attachmentsEnabled(): boolean</text><ellipse cx="33.5" cy="400.9727" fill="#84BE84" rx="3" ry="3" style="stroke: #038048; stroke-width: 1.0;"/><text fill="#000000" font-family="sans-serif" font-size="11" font-style="italic" lengthAdjust="spacingAndGlyphs" textLength="292" x="42.5" y="403.2808">getAttachmentInfo(Context, String, int): Attachment</text><ellipse cx="33.5" cy="413.7773" fill="#84BE84" rx="3" ry="3" style="stroke: #038048; stroke-width: 1.0;"/><text fill="#000000" font-family="sans-serif" font-size="11" font-style="italic" lengthAdjust="spacingAndGlyphs" textLength="271" x="42.5" y="416.0854">getAttachmentInfoName(Context, String): String</text><ellipse cx="33.5" cy="426.582" fill="#84BE84" rx="3" ry="3" style="stroke: #038048; stroke-width: 1.0;"/><text fill="#000000" font-family="sans-serif" font-size="11" font-style="italic" lengthAdjust="spacingAndGlyphs" textLength="233" x="42.5" y="428.8901">listAttachments(Page): List&lt;Attachment&gt;</text><ellipse cx="33.5" cy="439.3867" fill="#84BE84" rx="3" ry="3" style="stroke: #038048; stroke-width: 1.0;"/><text fill="#000000" font-family="sans-serif" font-size="11" font-style="italic" lengthAdjust="spacingAndGlyphs" textLength="178" x="42.5" y="441.6948">forceDownload(String): boolean</text><ellipse cx="33.5" cy="452.1914" fill="#84BE84" rx="3" ry="3" style="stroke: #038048; stroke-width: 1.0;"/><text fill="#000000" font-family="sans-serif" font-size="11" font-style="italic" lengthAdjust="spacingAndGlyphs" textLength="326" x="42.5" y="454.4995">getAttachmentStream(Context, Attachment): InputStream</text><ellipse cx="33.5" cy="464.9961" fill="#84BE84" rx="3" ry="3" style="stroke: #038048; stroke-width: 1.0;"/><text fill="#000000" font-family="sans-serif" font-size="11" font-style="italic" lengthAdjust="spacingAndGlyphs" textLength="349" x="42.5" y="467.3042">storeDynamicAttachment(Context, DynamicAttachment): void</text><ellipse cx="33.5" cy="477.8008" fill="#84BE84" rx="3" ry="3" style="stroke: #038048; stroke-width: 1.0;"/><text fill="#000000" font-family="sans-serif" font-size="11" font-style="italic" lengthAdjust="spacingAndGlyphs" textLength="295" x="42.5" y="480.1089">getDynamicAttachment(String): DynamicAttachment</text><ellipse cx="33.5" cy="490.6055" fill="#84BE84" rx="3" ry="3" style="stroke: #038048; stroke-width: 1.0;"/><text fill="#000000" font-family="sans-serif" font-size="11" font-style="italic" lengthAdjust="spacingAndGlyphs" textLength="276" x="42.5" y="492.9136">storeAttachment(Attachment, InputStream): void</text><ellipse cx="33.5" cy="503.4102" fill="#84BE84" rx="3" ry="3" style="stroke: #038048; stroke-width: 1.0;"/><text fill="#000000" font-family="sans-serif" font-size="11" font-style="italic" lengthAdjust="spacingAndGlyphs" textLength="252" x="42.5" y="505.7183">getVersionHistory(String): List&lt;Attachment&gt;</text><ellipse cx="33.5" cy="516.2148" fill="#84BE84" rx="3" ry="3" style="stroke: #038048; stroke-width: 1.0;"/><text fill="#000000" font-family="sans-serif" font-size="11" font-style="italic" lengthAdjust="spacingAndGlyphs" textLength="238" x="42.5" y="518.5229">getCurrentProvider(): AttachmentProvider</text><ellipse cx="33.5" cy="529.0195" fill="#84BE84" rx="3" ry="3" style="stroke: #038048; stroke-width: 1.0;"/><text fill="#000000" font-family="sans-serif" font-size="11" font-style="italic" lengthAdjust="spacingAndGlyphs" textLength="183" x="42.5" y="531.3276">deleteVersion(Attachment): void</text><ellipse cx="33.5" cy="541.8242" fill="#84BE84" rx="3" ry="3" style="stroke: #038048; stroke-width: 1.0;"/><text fill="#000000" font-family="sans-serif" font-size="11" font-style="italic" lengthAdjust="spacingAndGlyphs" textLength="205" x="42.5" y="544.1323">deleteAttachment(Attachment): void</text></a><!--class javax.servlet.http.HttpServlet--><rect fill="#FEFECE" filter="url(#fi2hiev3rwpey)" height="48" id="javax.servlet.http.HttpServlet" style="stroke: #A80036; stroke-width: 1.5;" width="102" x="638" y="43"/><ellipse cx="653" cy="59" fill="#A9DCDF" rx="11" ry="11" style="stroke: #A80036; stroke-width: 1.0;"/><path d="M653.1094,54.3438 L651.9531,59.4219 L654.2813,59.4219 L653.1094,54.3438 Z M651.625,52.1094 L654.6094,52.1094 L657.9688,64.5 L655.5156,64.5 L654.75,61.4375 L651.4688,61.4375 L650.7188,64.5 L648.2813,64.5 L651.625,52.1094 Z "/><text fill="#000000" font-family="sans-serif" font-size="12" font-style="italic" lengthAdjust="spacingAndGlyphs" textLength="70" x="667" y="63.1543">HttpServlet</text><line style="stroke: #A80036; stroke-width: 1.5;" x1="639" x2="739" y1="75" y2="75"/><line style="stroke: #A80036; stroke-width: 1.5;" x1="639" x2="739" y1="83" y2="83"/><!--class org.apache.wiki.WikiPage--><rect fill="#FEFECE" filter="url(#fi2hiev3rwpey)" height="48" id="org.apache.wiki.WikiPage" style="stroke: #A80036; stroke-width: 1.5;" width="88" x="1046" y="43"/><ellipse cx="1061" cy="59" fill="#ADD1B2" rx="11" ry="11" style="stroke: #A80036; stroke-width: 1.0;"/><path d="M1063.9688,64.6406 Q1063.3906,64.9375 1062.75,65.0859 Q1062.1094,65.2344 1061.4063,65.2344 Q1058.9063,65.2344 1057.5859,63.5859 Q1056.2656,61.9375 1056.2656,58.8125 Q1056.2656,55.6875 1057.5859,54.0313 Q1058.9063,52.375 1061.4063,52.375 Q1062.1094,52.375 1062.7578,52.5313 Q1063.4063,52.6875 1063.9688,52.9844 L1063.9688,55.7031 Q1063.3438,55.125 1062.75,54.8516 Q1062.1563,54.5781 1061.5313,54.5781 Q1060.1875,54.5781 1059.5,55.6484 Q1058.8125,56.7188 1058.8125,58.8125 Q1058.8125,60.9063 1059.5,61.9766 Q1060.1875,63.0469 1061.5313,63.0469 Q1062.1563,63.0469 1062.75,62.7734 Q1063.3438,62.5 1063.9688,61.9219 L1063.9688,64.6406 Z "/><text fill="#000000" font-family="sans-serif" font-size="12" lengthAdjust="spacingAndGlyphs" textLength="56" x="1075" y="63.1543">WikiPage</text><line style="stroke: #A80036; stroke-width: 1.5;" x1="1047" x2="1133" y1="75" y2="75"/><line style="stroke: #A80036; stroke-width: 1.5;" x1="1047" x2="1133" y1="83" y2="83"/><!--class org.apache.wiki.api.core.Attachment--><rect fill="#FEFECE" filter="url(#fi2hiev3rwpey)" height="112.0234" id="org.apache.wiki.api.core.Attachment" style="stroke: #A80036; stroke-width: 1.5;" width="187" x="1223.5" y="633"/><ellipse cx="1276.25" cy="649" fill="#B4A7E5" rx="11" ry="11" style="stroke: #A80036; stroke-width: 1.0;"/><path d="M1272.1719,644.7656 L1272.1719,642.6094 L1279.5625,642.6094 L1279.5625,644.7656 L1277.0938,644.7656 L1277.0938,652.8438 L1279.5625,652.8438 L1279.5625,655 L1272.1719,655 L1272.1719,652.8438 L1274.6406,652.8438 L1274.6406,644.7656 L1272.1719,644.7656 Z "/><text fill="#000000" font-family="sans-serif" font-size="12" font-style="italic" lengthAdjust="spacingAndGlyphs" textLength="73" x="1296.75" y="653.1543">Attachment</text><line style="stroke: #A80036; stroke-width: 1.5;" x1="1224.5" x2="1409.5" y1="665" y2="665"/><line style="stroke: #A80036; stroke-width: 1.5;" x1="1224.5" x2="1409.5" y1="673" y2="673"/><ellipse cx="1234.5" cy="684.9023" fill="#84BE84" rx="3" ry="3" style="stroke: #038048; stroke-width: 1.0;"/><text fill="#000000" font-family="sans-serif" font-size="11" font-style="italic" lengthAdjust="spacingAndGlyphs" textLength="119" x="1243.5" y="687.2104">getFileName(): String</text><ellipse cx="1234.5" cy="697.707" fill="#84BE84" rx="3" ry="3" style="stroke: #038048; stroke-width: 1.0;"/><text fill="#000000" font-family="sans-serif" font-size="11" font-style="italic" lengthAdjust="spacingAndGlyphs" textLength="142" x="1243.5" y="700.0151">setFileName(String): void</text><ellipse cx="1234.5" cy="710.5117" fill="#84BE84" rx="3" ry="3" style="stroke: #038048; stroke-width: 1.0;"/><text fill="#000000" font-family="sans-serif" font-size="11" font-style="italic" lengthAdjust="spacingAndGlyphs" textLength="137" x="1243.5" y="712.8198">getParentName(): String</text><ellipse cx="1234.5" cy="723.3164" fill="#84BE84" rx="3" ry="3" style="stroke: #038048; stroke-width: 1.0;"/><text fill="#000000" font-family="sans-serif" font-size="11" font-style="italic" lengthAdjust="spacingAndGlyphs" textLength="129" x="1243.5" y="725.6245">isCacheable(): boolean</text><ellipse cx="1234.5" cy="736.1211" fill="#84BE84" rx="3" ry="3" style="stroke: #038048; stroke-width: 1.0;"/><text fill="#000000" font-family="sans-serif" font-size="11" font-style="italic" lengthAdjust="spacingAndGlyphs" textLength="161" x="1243.5" y="738.4292">setCacheable(boolean): void</text><!--link javax.servlet.http.HttpServlet to org.apache.wiki.attachment.AttachmentServlet--><path d="M689,111.5592 C689,157.8629 689,230.9484 689,284.7797 " fill="none" id="javax.servlet.http.HttpServlet-org.apache.wiki.attachment.AttachmentServlet" style="stroke: #A80036; stroke-width: 1.0;"/><polygon fill="none" points="682.0001,111.4695,689,91.4695,696.0001,111.4694,682.0001,111.4695" style="stroke: #A80036; stroke-width: 1.0;"/><!--link org.apache.wiki.attachment.Attachment to org.apache.wiki.attachment.DynamicAttachment--><path d="M1054.8914,435.5005 C1038.1133,478.0627 1019.452,531.4716 1009,581 C984.1529,698.7422 982.0732,842.7979 982.4929,904.7643 " fill="none" id="org.apache.wiki.attachment.Attachment-org.apache.wiki.attachment.DynamicAttachment" style="stroke: #A80036; stroke-width: 1.0;"/><polygon fill="none" points="1048.4718,432.7025,1062.4315,416.7611,1061.4599,437.9285,1048.4718,432.7025" style="stroke: #A80036; stroke-width: 1.0;"/><!--link org.apache.wiki.WikiPage to org.apache.wiki.attachment.Attachment--><path d="M1090,111.6943 C1090,159.8995 1090,237.0174 1090,291.2799 " fill="none" id="org.apache.wiki.WikiPage-org.apache.wiki.attachment.Attachment" style="stroke: #A80036; stroke-width: 1.0;"/><polygon fill="none" points="1083.0001,111.4695,1090,91.4695,1097.0001,111.4694,1083.0001,111.4695" style="stroke: #A80036; stroke-width: 1.0;"/><!--link org.apache.wiki.api.core.Attachment to org.apache.wiki.attachment.Attachment--><path d="M1267.4795,615.9191 C1227.1228,556.3619 1170.7395,473.153 1132.4307,416.618 " fill="none" id="org.apache.wiki.api.core.Attachment-org.apache.wiki.attachment.Attachment" style="stroke: #A80036; stroke-width: 1.0; stroke-dasharray: 7.0,7.0;"/><polygon fill="none" points="1273.5051,612.3328,1278.9293,632.8164,1261.9152,620.1862,1273.5051,612.3328" style="stroke: #A80036; stroke-width: 1.0;"/><!--link org.apache.wiki.attachment.AttachmentManager to org.apache.wiki.attachment.DefaultAttachmentManager--><path d="M303.4568,569.6554 C340.5211,655.1826 381.6186,750.0167 412.682,821.6968 " fill="none" id="org.apache.wiki.attachment.AttachmentManager-org.apache.wiki.attachment.DefaultAttachmentManager" style="stroke: #A80036; stroke-width: 1.0; stroke-dasharray: 7.0,7.0;"/><polygon fill="none" points="297.0213,572.4093,295.4915,551.275,309.867,566.8425,297.0213,572.4093" style="stroke: #A80036; stroke-width: 1.0;"/><!--link org.apache.wiki.attachment.DynamicAttachment to org.apache.wiki.attachment.DynamicAttachmentProvider--><path d="M983,966.0548 C983,1018.6691 983,1126.1268 983,1182.3647 " fill="none" id="org.apache.wiki.attachment.DynamicAttachment-org.apache.wiki.attachment.DynamicAttachmentProvider" style="stroke: #A80036; stroke-width: 1.0;"/><polygon fill="#A80036" points="983,1187.6436,987,1178.6436,983,1182.6436,979,1178.6436,983,1187.6436" style="stroke: #A80036; stroke-width: 1.0;"/><text fill="#000000" font-family="sans-serif" font-size="13" lengthAdjust="spacingAndGlyphs" textLength="52" x="984" y="1123.0669">provider</text><!--link org.apache.wiki.attachment.DefaultAttachmentManager to org.apache.wiki.api.core.Attachment--><path d="M647.2025,854.8267 C680.3245,842.471 714.8498,830.8928 748,822 C951.0689,767.5255 1018.9046,826.1973 1216,753 C1220.5974,751.2926 1225.2065,749.3553 1229.7859,747.245 " fill="none" id="org.apache.wiki.attachment.DefaultAttachmentManager-org.apache.wiki.api.core.Attachment" style="stroke: #A80036; stroke-width: 1.0;"/><polygon fill="#A80036" points="1234.3538,745.0792,1224.5079,745.3205,1229.8359,747.2212,1227.9352,752.5492,1234.3538,745.0792" style="stroke: #A80036; stroke-width: 1.0;"/><text fill="#000000" font-family="sans-serif" font-size="13" lengthAdjust="spacingAndGlyphs" textLength="97" x="1141" y="788.0669">allAttachments</text><text fill="#000000" font-family="sans-serif" font-size="13" lengthAdjust="spacingAndGlyphs" textLength="7" x="1216.8547" y="764.9015">*</text><!--link org.apache.wiki.attachment.AttachmentManager to org.apache.wiki.api.core.Attachment--><path d="M397.5601,541.972 C403.6257,545.2295 409.7757,548.2513 416,551 C436.3762,559.9984 1195.3,597.7738 1216,606 C1230.3068,611.6855 1244.123,620.1854 1256.704,629.609 " fill="none" id="org.apache.wiki.attachment.AttachmentManager-org.apache.wiki.api.core.Attachment" style="stroke: #A80036; stroke-width: 1.0;"/><polygon fill="#A80036" points="1260.9222,632.8375,1256.2065,624.191,1256.9517,629.7986,1251.3442,630.5438,1260.9222,632.8375" style="stroke: #A80036; stroke-width: 1.0;"/><text fill="#000000" font-family="sans-serif" font-size="13" lengthAdjust="spacingAndGlyphs" textLength="97" x="1127" y="594.0669">allAttachments</text><text fill="#000000" font-family="sans-serif" font-size="13" lengthAdjust="spacingAndGlyphs" textLength="7" x="1246.2888" y="621.7546">*</text><text fill="#888888" font-family="sans-serif" font-size="10" lengthAdjust="spacingAndGlyphs" textLength="186" x="633" y="1284.2822">UMLDoclet 1.1.4, PlantUML 1.2019.05</text><!--
@startuml

    namespace org.apache.wiki.attachment {

        class AttachmentServlet [[AttachmentServlet.html]] {
            {static} #DEFAULT_EXPIRY: long
            +init(ServletConfig): void
            #doOptions(HttpServletRequest, HttpServletResponse): void
            +doGet(HttpServletRequest, HttpServletResponse): void
            +doPost(HttpServletRequest, HttpServletResponse): void
            #upload(HttpServletRequest): String
            #executeUpload(WikiContext, InputStream, String, String, String, String, long): boolean
        }

        class DynamicAttachment [[DynamicAttachment.html]] {
            +DynamicAttachment(Engine, String, String, DynamicAttachmentProvider)
        }

        class Attachment [[Attachment.html]] {
            +Attachment(Engine, String, String)
            +getFileName(): String
            +setFileName(String): void
            +getParentName(): String
            +isCacheable(): boolean
            +setCacheable(boolean): void
        }

        interface DynamicAttachmentProvider [[DynamicAttachmentProvider.html]] {
            {abstract} +getAttachmentData(Context, Attachment): InputStream
        }

        class DefaultAttachmentManager [[DefaultAttachmentManager.html]] {
            +DefaultAttachmentManager(Engine, Properties)
            +attachmentsEnabled(): boolean
            +getAttachmentInfoName(Context, String): String
            +getAttachmentInfo(Context, String, int): Attachment
            +listAttachments(Page): List<Attachment>
            +forceDownload(String): boolean
            +getAttachmentStream(Context, Attachment): InputStream
            +storeDynamicAttachment(Context, DynamicAttachment): void
            +getDynamicAttachment(String): DynamicAttachment
            +storeAttachment(Attachment, InputStream): void
            +getVersionHistory(String): List<Attachment>
            +getCurrentProvider(): AttachmentProvider
            +deleteVersion(Attachment): void
            +deleteAttachment(Attachment): void
        }

        interface AttachmentManager [[AttachmentManager.html]] {
            {static} +PROP_PROVIDER: String
            {static} +PROP_MAXSIZE: String
            {static} +PROP_ALLOWEDEXTENSIONS: String
            {static} +PROP_FORBIDDENEXTENSIONS: String
            {static} +PROP_FORCEDOWNLOAD: String
            {static} +CACHE_NAME: String
            {static} +DEFAULT_CACHECAPACITY: int
            +getAttachmentInfo(String): Attachment
            +getAttachmentInfo(String, int): Attachment
            +getAttachmentInfo(Context, String): Attachment
            +hasAttachments(Page): boolean
            +getAttachmentStream(Attachment): InputStream
            +storeAttachment(Attachment, File): void
            {static} +validateFileName(String): String
            {abstract} +attachmentsEnabled(): boolean
            {abstract} +getAttachmentInfo(Context, String, int): Attachment
            {abstract} +getAttachmentInfoName(Context, String): String
            {abstract} +listAttachments(Page): List<Attachment>
            {abstract} +forceDownload(String): boolean
            {abstract} +getAttachmentStream(Context, Attachment): InputStream
            {abstract} +storeDynamicAttachment(Context, DynamicAttachment): void
            {abstract} +getDynamicAttachment(String): DynamicAttachment
            {abstract} +storeAttachment(Attachment, InputStream): void
            {abstract} +getVersionHistory(String): List<Attachment>
            {abstract} +getCurrentProvider(): AttachmentProvider
            {abstract} +deleteVersion(Attachment): void
            {abstract} +deleteAttachment(Attachment): void
        }

        abstract class javax.servlet.http.HttpServlet
        javax.servlet.http.HttpServlet <|- - AttachmentServlet

        Attachment <|- - DynamicAttachment

        class org.apache.wiki.WikiPage
        org.apache.wiki.WikiPage <|- - Attachment

        interface org.apache.wiki.api.core.Attachment {
            {abstract} +getFileName(): String
            {abstract} +setFileName(String): void
            {abstract} +getParentName(): String
            {abstract} +isCacheable(): boolean
            {abstract} +setCacheable(boolean): void
        }
        org.apache.wiki.api.core.Attachment <|.. Attachment

        AttachmentManager <|.. DefaultAttachmentManager

        DynamicAttachment - -> DynamicAttachmentProvider: provider

        DefaultAttachmentManager - -> "*" org.apache.wiki.api.core.Attachment: allAttachments

        AttachmentManager - -> "*" org.apache.wiki.api.core.Attachment: allAttachments

    }


    center footer UMLDoclet 1.1.4, PlantUML 1.2019.05
@enduml

PlantUML version 1.2019.05(Sat Apr 20 16:45:36 UTC 2019)
(APACHE source distribution)
Java Runtime: Java(TM) SE Runtime Environment
JVM: Java HotSpot(TM) 64-Bit Server VM
Java Version: 1.8.0_241-b07
Operating System: Linux
OS Version: 4.15.0-76-generic
Default Encoding: ISO-8859-1
Language: en
Country: US
--></g></svg>