<?xml version="1.0" encoding="UTF-8" standalone="no"?><svg xmlns="http://www.w3.org/2000/svg" xmlns:xlink="http://www.w3.org/1999/xlink" contentScriptType="application/ecmascript" contentStyleType="text/css" height="254px" preserveAspectRatio="none" style="width:626px;height:254px;" version="1.1" viewBox="0 0 626 254" width="626px" zoomAndPan="magnify"><defs><filter height="300%" id="f1l3pc48v9rpd6" width="300%" x="-1" y="-1"><feGaussianBlur result="blurOut" stdDeviation="2.0"/><feColorMatrix in="blurOut" result="blurOut2" type="matrix" values="0 0 0 0 0 0 0 0 0 0 0 0 0 0 0 0 0 0 .4 0"/><feOffset dx="4.0" dy="4.0" in="blurOut2" result="blurOut3"/><feBlend in="SourceGraphic" in2="blurOut3" mode="normal"/></filter></defs><g><!--cluster DefaultPluginManager--><polygon fill="#FFFFFF" filter="url(#f1l3pc48v9rpd6)" points="14,16,192,16,199,38.2969,604,38.2969,604,214,14,214,14,16" style="stroke: #000000; stroke-width: 1.5;"/><line style="stroke: #000000; stroke-width: 1.5;" x1="14" x2="199" y1="38.2969" y2="38.2969"/><text fill="#000000" font-family="sans-serif" font-size="14" font-weight="bold" lengthAdjust="spacingAndGlyphs" textLength="172" x="18" y="30.9951">DefaultPluginManager</text><!--class DefaultPluginManager.WikiPluginInfo--><a href="DefaultPluginManager.WikiPluginInfo.html" target="_top" xlink:actuate="onRequest" xlink:show="new" xlink:title="DefaultPluginManager.WikiPluginInfo.html" xlink:type="simple"><rect fill="#FEFECE" filter="url(#f1l3pc48v9rpd6)" height="163.2422" id="DefaultPluginManager.WikiPluginInfo" style="stroke: #A80036; stroke-width: 1.5;" width="574" x="22" y="43"/><ellipse cx="262.25" cy="59" fill="#ADD1B2" rx="11" ry="11" style="stroke: #A80036; stroke-width: 1.0;"/><path d="M265.2188,64.6406 Q264.6406,64.9375 264,65.0859 Q263.3594,65.2344 262.6563,65.2344 Q260.1563,65.2344 258.8359,63.5859 Q257.5156,61.9375 257.5156,58.8125 Q257.5156,55.6875 258.8359,54.0313 Q260.1563,52.375 262.6563,52.375 Q263.3594,52.375 264.0078,52.5313 Q264.6563,52.6875 265.2188,52.9844 L265.2188,55.7031 Q264.5938,55.125 264,54.8516 Q263.4063,54.5781 262.7813,54.5781 Q261.4375,54.5781 260.75,55.6484 Q260.0625,56.7188 260.0625,58.8125 Q260.0625,60.9063 260.75,61.9766 Q261.4375,63.0469 262.7813,63.0469 Q263.4063,63.0469 264,62.7734 Q264.5938,62.5 265.2188,61.9219 L265.2188,64.6406 Z "/><text fill="#000000" font-family="sans-serif" font-size="12" lengthAdjust="spacingAndGlyphs" textLength="85" x="282.75" y="63.1543">WikiPluginInfo</text><line style="stroke: #A80036; stroke-width: 1.5;" x1="23" x2="595" y1="75" y2="75"/><line style="stroke: #A80036; stroke-width: 1.5;" x1="23" x2="595" y1="83" y2="83"/><polygon fill="#FFFF44" points="33,89.9023,37,93.9023,33,97.9023,29,93.9023" style="stroke: #B38D22; stroke-width: 1.0;"/><text fill="#000000" font-family="sans-serif" font-size="11" lengthAdjust="spacingAndGlyphs" text-decoration="underline" textLength="538" x="42" y="97.2104">newInstance(String, Element, List&lt;String&gt;, List&lt;String&gt;): DefaultPluginManager.WikiPluginInfo</text><polygon fill="#FFFF44" points="33,102.707,37,106.707,33,110.707,29,106.707" style="stroke: #B38D22; stroke-width: 1.0;"/><text fill="#000000" font-family="sans-serif" font-size="11" lengthAdjust="spacingAndGlyphs" textLength="548" x="42" y="110.0151">initializePlugin(DefaultPluginManager.WikiPluginInfo, WikiEngine, List&lt;String&gt;, List&lt;String&gt;): void</text><polygon fill="#FFFF44" points="33,115.5117,37,119.5117,33,123.5117,29,119.5117" style="stroke: #B38D22; stroke-width: 1.0;"/><text fill="#000000" font-family="sans-serif" font-size="11" lengthAdjust="spacingAndGlyphs" textLength="181" x="42" y="122.8198">initializeFromXML(Element): void</text><polygon fill="#FFFF44" points="33,128.3164,37,132.3164,33,136.3164,29,132.3164" style="stroke: #B38D22; stroke-width: 1.0;"/><text fill="#000000" font-family="sans-serif" font-size="11" lengthAdjust="spacingAndGlyphs" text-decoration="underline" textLength="346" x="42" y="135.6245">newInstance(Class&lt;?&gt;): DefaultPluginManager.WikiPluginInfo</text><ellipse cx="33" cy="146.1211" fill="#84BE84" rx="3" ry="3" style="stroke: #038048; stroke-width: 1.0;"/><text fill="#000000" font-family="sans-serif" font-size="11" lengthAdjust="spacingAndGlyphs" textLength="133" x="42" y="148.4292">getClassName(): String</text><ellipse cx="33" cy="158.9258" fill="#84BE84" rx="3" ry="3" style="stroke: #038048; stroke-width: 1.0;"/><text fill="#000000" font-family="sans-serif" font-size="11" lengthAdjust="spacingAndGlyphs" textLength="95" x="42" y="161.2339">getAlias(): String</text><ellipse cx="33" cy="171.7305" fill="#84BE84" rx="3" ry="3" style="stroke: #038048; stroke-width: 1.0;"/><text fill="#000000" font-family="sans-serif" font-size="11" lengthAdjust="spacingAndGlyphs" textLength="118" x="42" y="174.0386">getAjaxAlias(): String</text><ellipse cx="33" cy="184.5352" fill="#84BE84" rx="3" ry="3" style="stroke: #038048; stroke-width: 1.0;"/><text fill="#000000" font-family="sans-serif" font-size="11" lengthAdjust="spacingAndGlyphs" textLength="328" x="42" y="186.8433">newPluginInstance(List&lt;String&gt;, List&lt;String&gt;): WikiPlugin</text><ellipse cx="33" cy="197.3398" fill="#84BE84" rx="3" ry="3" style="stroke: #038048; stroke-width: 1.0;"/><text fill="#000000" font-family="sans-serif" font-size="11" lengthAdjust="spacingAndGlyphs" textLength="166" x="42" y="199.6479">getIncludeText(String): String</text></a><text fill="#888888" font-family="sans-serif" font-size="10" lengthAdjust="spacingAndGlyphs" textLength="186" x="222" y="241.2822">UMLDoclet 1.1.4, PlantUML 1.2019.05</text><!--
@startuml

    class DefaultPluginManager.WikiPluginInfo [[DefaultPluginManager.WikiPluginInfo.html]] {
        {static} #newInstance(String, Element, List<String>, List<String>): DefaultPluginManager.WikiPluginInfo
        #initializePlugin(DefaultPluginManager.WikiPluginInfo, WikiEngine, List<String>, List<String>): void
        #initializeFromXML(Element): void
        {static} #newInstance(Class<?>): DefaultPluginManager.WikiPluginInfo
        +getClassName(): String
        +getAlias(): String
        +getAjaxAlias(): String
        +newPluginInstance(List<String>, List<String>): WikiPlugin
        +getIncludeText(String): String
    }


    center footer UMLDoclet 1.1.4, PlantUML 1.2019.05
@enduml

PlantUML version 1.2019.05(Sat Apr 20 16:45:36 UTC 2019)
(APACHE source distribution)
Java Runtime: Java(TM) SE Runtime Environment
JVM: Java HotSpot(TM) 64-Bit Server VM
Java Version: 1.8.0_191-b12
Operating System: Linux
OS Version: 4.15.0-58-generic
Default Encoding: ISO-8859-1
Language: en
Country: US
--></g></svg>