<?xml version="1.0" encoding="UTF-8" standalone="no"?><svg xmlns="http://www.w3.org/2000/svg" xmlns:xlink="http://www.w3.org/1999/xlink" contentScriptType="application/ecmascript" contentStyleType="text/css" height="750px" preserveAspectRatio="none" style="width:1957px;height:750px;background:#FFFFFF;" version="1.1" viewBox="0 0 1957 750" width="1957px" zoomAndPan="magnify"><defs><filter height="300%" id="f9z2ns49e8rdr" width="300%" x="-1" y="-1"><feGaussianBlur result="blurOut" stdDeviation="2.0"/><feColorMatrix in="blurOut" result="blurOut2" type="matrix" values="0 0 0 0 0 0 0 0 0 0 0 0 0 0 0 0 0 0 .4 0"/><feOffset dx="4.0" dy="4.0" in="blurOut2" result="blurOut3"/><feBlend in="SourceGraphic" in2="blurOut3" mode="normal"/></filter></defs><g><!--MD5=[3b373063fa179093f31377309d463d45]
cluster org.apache.wiki.render--><polygon fill="#FFFFFF" filter="url(#f9z2ns49e8rdr)" points="16,140,206,140,213,162.2969,1940,162.2969,1940,727,16,727,16,140" style="stroke:#000000;stroke-width:1.5;"/><line style="stroke:#000000;stroke-width:1.5;" x1="16" x2="213" y1="162.2969" y2="162.2969"/><text fill="#000000" font-family="sans-serif" font-size="14" font-weight="bold" lengthAdjust="spacing" textLength="184" x="20" y="154.9951">org.apache.wiki.render</text><!--MD5=[56305472176d3236625db78282a0c4e4]
cluster org.jdom2.output.support--><polygon fill="#FFFFFF" filter="url(#f9z2ns49e8rdr)" points="103,6,313,6,320,28.2969,331,28.2969,331,115,103,115,103,6" style="stroke:#000000;stroke-width:1.5;"/><line style="stroke:#000000;stroke-width:1.5;" x1="103" x2="320" y1="28.2969" y2="28.2969"/><text fill="#000000" font-family="sans-serif" font-size="14" font-weight="bold" lengthAdjust="spacing" textLength="204" x="107" y="20.9951">org.jdom2.output.support</text><!--MD5=[06e4b2620a8b168056b961578cd367b2]
cluster org.apache.wiki.api.engine--><polygon fill="#FFFFFF" filter="url(#f9z2ns49e8rdr)" points="383,12.5,601,12.5,608,34.7969,876,34.7969,876,108.5,383,108.5,383,12.5" style="stroke:#000000;stroke-width:1.5;"/><line style="stroke:#000000;stroke-width:1.5;" x1="383" x2="608" y1="34.7969" y2="34.7969"/><text fill="#000000" font-family="sans-serif" font-size="14" font-weight="bold" lengthAdjust="spacing" textLength="212" x="387" y="27.4951">org.apache.wiki.api.engine</text><!--MD5=[73faa91e05492c377d111539776da6fd]
cluster org.apache.wiki.event--><polygon fill="#FFFFFF" filter="url(#f9z2ns49e8rdr)" points="895,12.5,1076,12.5,1083,34.7969,1127,34.7969,1127,108.5,895,108.5,895,12.5" style="stroke:#000000;stroke-width:1.5;"/><line style="stroke:#000000;stroke-width:1.5;" x1="895" x2="1083" y1="34.7969" y2="34.7969"/><text fill="#000000" font-family="sans-serif" font-size="14" font-weight="bold" lengthAdjust="spacing" textLength="175" x="899" y="27.4951">org.apache.wiki.event</text><!--MD5=[ba14b7e446e59558acdd58a8e641054c]
cluster org.apache.wiki.modules--><polygon fill="#FFFFFF" filter="url(#f9z2ns49e8rdr)" points="1140,19,1343,19,1350,41.2969,1353,41.2969,1353,102,1140,102,1140,19" style="stroke:#000000;stroke-width:1.5;"/><line style="stroke:#000000;stroke-width:1.5;" x1="1140" x2="1350" y1="41.2969" y2="41.2969"/><text fill="#000000" font-family="sans-serif" font-size="14" font-weight="bold" lengthAdjust="spacing" textLength="197" x="1144" y="33.9951">org.apache.wiki.modules</text><!--MD5=[6ce2b85b05609a3a2488a5ad64e6f1da]
class org.apache.wiki.render.XHTMLRenderer--><a href="XHTMLRenderer.html" target="_top" title="XHTMLRenderer.html" xlink:actuate="onRequest" xlink:href="XHTMLRenderer.html" xlink:show="new" xlink:title="XHTMLRenderer.html" xlink:type="simple"><rect codeLine="3" fill="#FEFECE" filter="url(#f9z2ns49e8rdr)" height="73.6094" id="org.apache.wiki.render.XHTMLRenderer" style="stroke:#A80036;stroke-width:1.5;" width="252" x="1680" y="575"/><ellipse cx="1753.25" cy="591" fill="#ADD1B2" rx="11" ry="11" style="stroke:#A80036;stroke-width:1.0;"/><path d="M1756.2188,596.6406 Q1755.6406,596.9375 1755,597.0781 Q1754.3594,597.2344 1753.6563,597.2344 Q1751.1563,597.2344 1749.8281,595.5938 Q1748.5156,593.9375 1748.5156,590.8125 Q1748.5156,587.6875 1749.8281,586.0313 Q1751.1563,584.375 1753.6563,584.375 Q1754.3594,584.375 1755,584.5313 Q1755.6563,584.6875 1756.2188,584.9844 L1756.2188,587.7031 Q1755.5938,587.125 1755,586.8594 Q1754.4063,586.5781 1753.7813,586.5781 Q1752.4375,586.5781 1751.75,587.6563 Q1751.0625,588.7188 1751.0625,590.8125 Q1751.0625,592.9063 1751.75,593.9844 Q1752.4375,595.0469 1753.7813,595.0469 Q1754.4063,595.0469 1755,594.7813 Q1755.5938,594.5 1756.2188,593.9219 L1756.2188,596.6406 Z " fill="#000000"/><text fill="#000000" font-family="sans-serif" font-size="12" lengthAdjust="spacing" textLength="97" x="1773.75" y="595.1543">XHTMLRenderer</text><line style="stroke:#A80036;stroke-width:1.5;" x1="1681" x2="1931" y1="607" y2="607"/><line style="stroke:#A80036;stroke-width:1.5;" x1="1681" x2="1931" y1="615" y2="615"/><ellipse cx="1691" cy="626" fill="#84BE84" rx="3" ry="3" style="stroke:#038048;stroke-width:1.0;"/><text fill="#000000" font-family="sans-serif" font-size="11" lengthAdjust="spacing" textLength="226" x="1700" y="629.2104">XHTMLRenderer(Context, WikiDocument)</text><ellipse cx="1691" cy="638.8047" fill="#84BE84" rx="3" ry="3" style="stroke:#038048;stroke-width:1.0;"/><text fill="#000000" font-family="sans-serif" font-size="11" lengthAdjust="spacing" textLength="102" x="1700" y="642.0151">getString(): String</text></a><!--MD5=[9c181a8998c980c40d8613e944bc5e5b]
class org.apache.wiki.render.WikiRenderer--><a href="WikiRenderer.html" target="_top" title="WikiRenderer.html" xlink:actuate="onRequest" xlink:href="WikiRenderer.html" xlink:show="new" xlink:title="WikiRenderer.html" xlink:type="simple"><rect codeLine="8" fill="#FEFECE" filter="url(#f9z2ns49e8rdr)" height="124.8281" id="org.apache.wiki.render.WikiRenderer" style="stroke:#A80036;stroke-width:1.5;" width="236" x="1283" y="243.5"/><ellipse cx="1355.25" cy="259.5" fill="#A9DCDF" rx="11" ry="11" style="stroke:#A80036;stroke-width:1.0;"/><path d="M1355.3594,254.8438 L1354.2031,259.9219 L1356.5313,259.9219 L1355.3594,254.8438 Z M1353.875,252.6094 L1356.8594,252.6094 L1360.2188,265 L1357.7656,265 L1357,261.9375 L1353.7188,261.9375 L1352.9688,265 L1350.5313,265 L1353.875,252.6094 Z " fill="#000000"/><text fill="#000000" font-family="sans-serif" font-size="12" font-style="italic" lengthAdjust="spacing" textLength="83" x="1375.75" y="263.6543">WikiRenderer</text><line style="stroke:#A80036;stroke-width:1.5;" x1="1284" x2="1518" y1="275.5" y2="275.5"/><polygon fill="none" points="1294,281.5,1298,285.5,1294,289.5,1290,285.5" style="stroke:#B38D22;stroke-width:1.0;"/><text fill="#000000" font-family="sans-serif" font-size="11" lengthAdjust="spacing" textLength="109" x="1303" y="289.7104">m_context: Context</text><polygon fill="none" points="1294,294.3047,1298,298.3047,1294,302.3047,1290,298.3047" style="stroke:#B38D22;stroke-width:1.0;"/><text fill="#000000" font-family="sans-serif" font-size="11" lengthAdjust="spacing" textLength="159" x="1303" y="302.5151">m_document: WikiDocument</text><ellipse cx="1294" cy="312.1094" rx="3" ry="3" style="stroke:#038048;stroke-width:1.0;fill:none;"/><text fill="#000000" font-family="sans-serif" font-size="11" lengthAdjust="spacing" text-decoration="underline" textLength="157" x="1303" y="315.3198">LINKS_TRANSLATION: String</text><ellipse cx="1294" cy="324.9141" rx="3" ry="3" style="stroke:#038048;stroke-width:1.0;fill:none;"/><text fill="#000000" font-family="sans-serif" font-size="11" lengthAdjust="spacing" text-decoration="underline" textLength="127" x="1303" y="328.1245">LINKS_SOURCE: String</text><line style="stroke:#A80036;stroke-width:1.5;" x1="1284" x2="1518" y1="334.7188" y2="334.7188"/><polygon fill="#FFFF44" points="1294,340.7188,1298,344.7188,1294,348.7188,1290,344.7188" style="stroke:#B38D22;stroke-width:1.0;"/><text fill="#000000" font-family="sans-serif" font-size="11" lengthAdjust="spacing" textLength="210" x="1303" y="348.9292">WikiRenderer(Context, WikiDocument)</text><ellipse cx="1294" cy="358.5234" fill="#84BE84" rx="3" ry="3" style="stroke:#038048;stroke-width:1.0;"/><text fill="#000000" font-family="sans-serif" font-size="11" font-style="italic" lengthAdjust="spacing" textLength="100" x="1303" y="361.7339">getString(): String</text></a><!--MD5=[ea910bea1f99ca20ba9c07452042f4d9]
class org.apache.wiki.render.CustomXMLOutputProcessor--><a href="CustomXMLOutputProcessor.html" target="_top" title="CustomXMLOutputProcessor.html" xlink:actuate="onRequest" xlink:href="CustomXMLOutputProcessor.html" xlink:show="new" xlink:title="CustomXMLOutputProcessor.html" xlink:type="simple"><rect codeLine="17" fill="#FEFECE" filter="url(#f9z2ns49e8rdr)" height="60.8047" id="org.apache.wiki.render.CustomXMLOutputProcessor" style="stroke:#A80036;stroke-width:1.5;" width="385" x="24.5" y="275.5"/><ellipse cx="124.75" cy="291.5" fill="#ADD1B2" rx="11" ry="11" style="stroke:#A80036;stroke-width:1.0;"/><path d="M127.7188,297.1406 Q127.1406,297.4375 126.5,297.5781 Q125.8594,297.7344 125.1563,297.7344 Q122.6563,297.7344 121.3281,296.0938 Q120.0156,294.4375 120.0156,291.3125 Q120.0156,288.1875 121.3281,286.5313 Q122.6563,284.875 125.1563,284.875 Q125.8594,284.875 126.5,285.0313 Q127.1563,285.1875 127.7188,285.4844 L127.7188,288.2031 Q127.0938,287.625 126.5,287.3594 Q125.9063,287.0781 125.2813,287.0781 Q123.9375,287.0781 123.25,288.1563 Q122.5625,289.2188 122.5625,291.3125 Q122.5625,293.4063 123.25,294.4844 Q123.9375,295.5469 125.2813,295.5469 Q125.9063,295.5469 126.5,295.2813 Q127.0938,295 127.7188,294.4219 L127.7188,297.1406 Z " fill="#000000"/><text fill="#000000" font-family="sans-serif" font-size="12" lengthAdjust="spacing" textLength="176" x="145.25" y="295.6543">CustomXMLOutputProcessor</text><line style="stroke:#A80036;stroke-width:1.5;" x1="25.5" x2="408.5" y1="307.5" y2="307.5"/><line style="stroke:#A80036;stroke-width:1.5;" x1="25.5" x2="408.5" y1="315.5" y2="315.5"/><polygon fill="#FFFF44" points="35.5,321.5,39.5,325.5,35.5,329.5,31.5,325.5" style="stroke:#B38D22;stroke-width:1.0;"/><text fill="#000000" font-family="sans-serif" font-size="11" lengthAdjust="spacing" textLength="359" x="44.5" y="329.7104">attributeEscapedEntitiesFilter(Writer, FormatStack, String): void</text></a><!--MD5=[2960548a459148fa97fc999510a22891]
class org.apache.wiki.render.DefaultRenderingManager--><a href="DefaultRenderingManager.html" target="_top" title="DefaultRenderingManager.html" xlink:actuate="onRequest" xlink:href="DefaultRenderingManager.html" xlink:show="new" xlink:title="DefaultRenderingManager.html" xlink:type="simple"><rect codeLine="21" fill="#FEFECE" filter="url(#f9z2ns49e8rdr)" height="214.4609" id="org.apache.wiki.render.DefaultRenderingManager" style="stroke:#A80036;stroke-width:1.5;" width="692" x="24" y="505"/><ellipse cx="283.75" cy="521" fill="#ADD1B2" rx="11" ry="11" style="stroke:#A80036;stroke-width:1.0;"/><path d="M286.7188,526.6406 Q286.1406,526.9375 285.5,527.0781 Q284.8594,527.2344 284.1563,527.2344 Q281.6563,527.2344 280.3281,525.5938 Q279.0156,523.9375 279.0156,520.8125 Q279.0156,517.6875 280.3281,516.0313 Q281.6563,514.375 284.1563,514.375 Q284.8594,514.375 285.5,514.5313 Q286.1563,514.6875 286.7188,514.9844 L286.7188,517.7031 Q286.0938,517.125 285.5,516.8594 Q284.9063,516.5781 284.2813,516.5781 Q282.9375,516.5781 282.25,517.6563 Q281.5625,518.7188 281.5625,520.8125 Q281.5625,522.9063 282.25,523.9844 Q282.9375,525.0469 284.2813,525.0469 Q284.9063,525.0469 285.5,524.7813 Q286.0938,524.5 286.7188,523.9219 L286.7188,526.6406 Z " fill="#000000"/><text fill="#000000" font-family="sans-serif" font-size="12" lengthAdjust="spacing" textLength="164" x="304.25" y="525.1543">DefaultRenderingManager</text><line style="stroke:#A80036;stroke-width:1.5;" x1="25" x2="715" y1="537" y2="537"/><line style="stroke:#A80036;stroke-width:1.5;" x1="25" x2="715" y1="545" y2="545"/><ellipse cx="35" cy="556" fill="#84BE84" rx="3" ry="3" style="stroke:#038048;stroke-width:1.0;"/><text fill="#000000" font-family="sans-serif" font-size="11" lengthAdjust="spacing" textLength="189" x="44" y="559.2104">initialize(Engine, Properties): void</text><ellipse cx="35" cy="568.8047" fill="#84BE84" rx="3" ry="3" style="stroke:#038048;stroke-width:1.0;"/><text fill="#000000" font-family="sans-serif" font-size="11" lengthAdjust="spacing" textLength="153" x="44" y="572.0151">beautifyTitle(String): String</text><ellipse cx="35" cy="581.6094" fill="#84BE84" rx="3" ry="3" style="stroke:#038048;stroke-width:1.0;"/><text fill="#000000" font-family="sans-serif" font-size="11" lengthAdjust="spacing" textLength="201" x="44" y="584.8198">beautifyTitleNoBreak(String): String</text><ellipse cx="35" cy="594.4141" fill="#84BE84" rx="3" ry="3" style="stroke:#038048;stroke-width:1.0;"/><text fill="#000000" font-family="sans-serif" font-size="11" lengthAdjust="spacing" textLength="236" x="44" y="597.6245">getParser(Context, String): MarkupParser</text><ellipse cx="35" cy="607.2188" fill="#84BE84" rx="3" ry="3" style="stroke:#038048;stroke-width:1.0;"/><text fill="#000000" font-family="sans-serif" font-size="11" lengthAdjust="spacing" textLength="308" x="44" y="610.4292">getRenderedDocument(Context, String): WikiDocument</text><ellipse cx="35" cy="620.0234" fill="#84BE84" rx="3" ry="3" style="stroke:#038048;stroke-width:1.0;"/><text fill="#000000" font-family="sans-serif" font-size="11" lengthAdjust="spacing" textLength="227" x="44" y="623.2339">getHTML(Context, WikiDocument): String</text><ellipse cx="35" cy="632.8281" fill="#84BE84" rx="3" ry="3" style="stroke:#038048;stroke-width:1.0;"/><text fill="#000000" font-family="sans-serif" font-size="11" lengthAdjust="spacing" textLength="177" x="44" y="636.0386">getHTML(Context, Page): String</text><ellipse cx="35" cy="645.6328" fill="#84BE84" rx="3" ry="3" style="stroke:#038048;stroke-width:1.0;"/><text fill="#000000" font-family="sans-serif" font-size="11" lengthAdjust="spacing" textLength="154" x="44" y="648.8433">getHTML(String, int): String</text><ellipse cx="35" cy="658.4375" fill="#84BE84" rx="3" ry="3" style="stroke:#038048;stroke-width:1.0;"/><text fill="#000000" font-family="sans-serif" font-size="11" lengthAdjust="spacing" textLength="200" x="44" y="661.6479">textToHTML(Context, String): String</text><ellipse cx="35" cy="671.2422" fill="#84BE84" rx="3" ry="3" style="stroke:#038048;stroke-width:1.0;"/><text fill="#000000" font-family="sans-serif" font-size="11" lengthAdjust="spacing" textLength="666" x="44" y="674.4526">textToHTML(Context, String, StringTransmutator, StringTransmutator, StringTransmutator, boolean, boolean): String</text><ellipse cx="35" cy="684.0469" fill="#84BE84" rx="3" ry="3" style="stroke:#038048;stroke-width:1.0;"/><text fill="#000000" font-family="sans-serif" font-size="11" lengthAdjust="spacing" textLength="288" x="44" y="687.2573">getRenderer(Context, WikiDocument): WikiRenderer</text><ellipse cx="35" cy="696.8516" fill="#84BE84" rx="3" ry="3" style="stroke:#038048;stroke-width:1.0;"/><text fill="#000000" font-family="sans-serif" font-size="11" lengthAdjust="spacing" textLength="335" x="44" y="700.062">getWysiwygRenderer(Context, WikiDocument): WikiRenderer</text><ellipse cx="35" cy="709.6563" fill="#84BE84" rx="3" ry="3" style="stroke:#038048;stroke-width:1.0;"/><text fill="#000000" font-family="sans-serif" font-size="11" lengthAdjust="spacing" textLength="185" x="44" y="712.8667">actionPerformed(WikiEvent): void</text></a><!--MD5=[badd4c12b723bbecfef86826085280fc]
class org.apache.wiki.render.WysiwygEditingRenderer--><a href="WysiwygEditingRenderer.html" target="_top" title="WysiwygEditingRenderer.html" xlink:actuate="onRequest" xlink:href="WysiwygEditingRenderer.html" xlink:show="new" xlink:title="WysiwygEditingRenderer.html" xlink:type="simple"><rect codeLine="37" fill="#FEFECE" filter="url(#f9z2ns49e8rdr)" height="73.6094" id="org.apache.wiki.render.WysiwygEditingRenderer" style="stroke:#A80036;stroke-width:1.5;" width="300" x="751" y="575"/><ellipse cx="821.25" cy="591" fill="#ADD1B2" rx="11" ry="11" style="stroke:#A80036;stroke-width:1.0;"/><path d="M824.2188,596.6406 Q823.6406,596.9375 823,597.0781 Q822.3594,597.2344 821.6563,597.2344 Q819.1563,597.2344 817.8281,595.5938 Q816.5156,593.9375 816.5156,590.8125 Q816.5156,587.6875 817.8281,586.0313 Q819.1563,584.375 821.6563,584.375 Q822.3594,584.375 823,584.5313 Q823.6563,584.6875 824.2188,584.9844 L824.2188,587.7031 Q823.5938,587.125 823,586.8594 Q822.4063,586.5781 821.7813,586.5781 Q820.4375,586.5781 819.75,587.6563 Q819.0625,588.7188 819.0625,590.8125 Q819.0625,592.9063 819.75,593.9844 Q820.4375,595.0469 821.7813,595.0469 Q822.4063,595.0469 823,594.7813 Q823.5938,594.5 824.2188,593.9219 L824.2188,596.6406 Z " fill="#000000"/><text fill="#000000" font-family="sans-serif" font-size="12" lengthAdjust="spacing" textLength="151" x="841.75" y="595.1543">WysiwygEditingRenderer</text><line style="stroke:#A80036;stroke-width:1.5;" x1="752" x2="1050" y1="607" y2="607"/><line style="stroke:#A80036;stroke-width:1.5;" x1="752" x2="1050" y1="615" y2="615"/><ellipse cx="762" cy="626" fill="#84BE84" rx="3" ry="3" style="stroke:#038048;stroke-width:1.0;"/><text fill="#000000" font-family="sans-serif" font-size="11" lengthAdjust="spacing" textLength="274" x="771" y="629.2104">WysiwygEditingRenderer(Context, WikiDocument)</text><ellipse cx="762" cy="638.8047" fill="#84BE84" rx="3" ry="3" style="stroke:#038048;stroke-width:1.0;"/><text fill="#000000" font-family="sans-serif" font-size="11" lengthAdjust="spacing" textLength="102" x="771" y="642.0151">getString(): String</text></a><!--MD5=[6e594fdbb075d8f8a18805139be3e305]
class org.apache.wiki.render.RenderingManager--><a href="RenderingManager.html" target="_top" title="RenderingManager.html" xlink:actuate="onRequest" xlink:href="RenderingManager.html" xlink:show="new" xlink:title="RenderingManager.html" xlink:type="simple"><rect codeLine="42" fill="#FEFECE" filter="url(#f9z2ns49e8rdr)" height="278.4844" id="org.apache.wiki.render.RenderingManager" style="stroke:#A80036;stroke-width:1.5;" width="686" x="445" y="167"/><ellipse cx="724.25" cy="183" fill="#B4A7E5" rx="11" ry="11" style="stroke:#A80036;stroke-width:1.0;"/><path d="M720.1719,178.7656 L720.1719,176.6094 L727.5625,176.6094 L727.5625,178.7656 L725.0938,178.7656 L725.0938,186.8438 L727.5625,186.8438 L727.5625,189 L720.1719,189 L720.1719,186.8438 L722.6406,186.8438 L722.6406,178.7656 L720.1719,178.7656 Z " fill="#000000"/><text fill="#000000" font-family="sans-serif" font-size="12" font-style="italic" lengthAdjust="spacing" textLength="119" x="744.75" y="187.1543">RenderingManager</text><line style="stroke:#A80036;stroke-width:1.5;" x1="446" x2="1130" y1="199" y2="199"/><ellipse cx="456" cy="210" rx="3" ry="3" style="stroke:#038048;stroke-width:1.0;fill:none;"/><text fill="#000000" font-family="sans-serif" font-size="11" lengthAdjust="spacing" text-decoration="underline" textLength="121" x="465" y="213.2104">PROP_PARSER: String</text><ellipse cx="456" cy="222.8047" rx="3" ry="3" style="stroke:#038048;stroke-width:1.0;fill:none;"/><text fill="#000000" font-family="sans-serif" font-size="11" lengthAdjust="spacing" text-decoration="underline" textLength="136" x="465" y="226.0151">PROP_RENDERER: String</text><ellipse cx="456" cy="235.6094" rx="3" ry="3" style="stroke:#038048;stroke-width:1.0;fill:none;"/><text fill="#000000" font-family="sans-serif" font-size="11" lengthAdjust="spacing" text-decoration="underline" textLength="194" x="465" y="238.8198">PROP_WYSIWYG_RENDERER: String</text><ellipse cx="456" cy="248.4141" rx="3" ry="3" style="stroke:#038048;stroke-width:1.0;fill:none;"/><text fill="#000000" font-family="sans-serif" font-size="11" lengthAdjust="spacing" text-decoration="underline" textLength="161" x="465" y="251.6245">PROP_BEAUTIFYTITLE: String</text><line style="stroke:#A80036;stroke-width:1.5;" x1="446" x2="1130" y1="258.2188" y2="258.2188"/><ellipse cx="456" cy="269.2188" fill="#84BE84" rx="3" ry="3" style="stroke:#038048;stroke-width:1.0;"/><text fill="#000000" font-family="sans-serif" font-size="11" font-style="italic" lengthAdjust="spacing" textLength="152" x="465" y="272.4292">beautifyTitle(String): String</text><ellipse cx="456" cy="282.0234" fill="#84BE84" rx="3" ry="3" style="stroke:#038048;stroke-width:1.0;"/><text fill="#000000" font-family="sans-serif" font-size="11" font-style="italic" lengthAdjust="spacing" textLength="200" x="465" y="285.2339">beautifyTitleNoBreak(String): String</text><ellipse cx="456" cy="294.8281" fill="#84BE84" rx="3" ry="3" style="stroke:#038048;stroke-width:1.0;"/><text fill="#000000" font-family="sans-serif" font-size="11" font-style="italic" lengthAdjust="spacing" textLength="234" x="465" y="298.0386">getParser(Context, String): MarkupParser</text><ellipse cx="456" cy="307.6328" fill="#84BE84" rx="3" ry="3" style="stroke:#038048;stroke-width:1.0;"/><text fill="#000000" font-family="sans-serif" font-size="11" font-style="italic" lengthAdjust="spacing" textLength="311" x="465" y="310.8433">getRenderedDocument(Context, String): WikiDocument</text><ellipse cx="456" cy="320.4375" fill="#84BE84" rx="3" ry="3" style="stroke:#038048;stroke-width:1.0;"/><text fill="#000000" font-family="sans-serif" font-size="11" font-style="italic" lengthAdjust="spacing" textLength="295" x="465" y="323.6479">getRenderer(Context, WikiDocument): WikiRenderer</text><ellipse cx="456" cy="333.2422" fill="#84BE84" rx="3" ry="3" style="stroke:#038048;stroke-width:1.0;"/><text fill="#000000" font-family="sans-serif" font-size="11" font-style="italic" lengthAdjust="spacing" textLength="345" x="465" y="336.4526">getWysiwygRenderer(Context, WikiDocument): WikiRenderer</text><ellipse cx="456" cy="346.0469" fill="#84BE84" rx="3" ry="3" style="stroke:#038048;stroke-width:1.0;"/><text fill="#000000" font-family="sans-serif" font-size="11" font-style="italic" lengthAdjust="spacing" textLength="229" x="465" y="349.2573">getHTML(Context, WikiDocument): String</text><ellipse cx="456" cy="358.8516" fill="#84BE84" rx="3" ry="3" style="stroke:#038048;stroke-width:1.0;"/><text fill="#000000" font-family="sans-serif" font-size="11" font-style="italic" lengthAdjust="spacing" textLength="177" x="465" y="362.062">getHTML(Context, Page): String</text><ellipse cx="456" cy="371.6563" fill="#84BE84" rx="3" ry="3" style="stroke:#038048;stroke-width:1.0;"/><text fill="#000000" font-family="sans-serif" font-size="11" font-style="italic" lengthAdjust="spacing" textLength="152" x="465" y="374.8667">getHTML(String, int): String</text><ellipse cx="456" cy="384.4609" fill="#84BE84" rx="3" ry="3" style="stroke:#038048;stroke-width:1.0;"/><text fill="#000000" font-family="sans-serif" font-size="11" lengthAdjust="spacing" textLength="183" x="465" y="387.6714">getHTML(Context, String): String</text><ellipse cx="456" cy="397.2656" fill="#84BE84" rx="3" ry="3" style="stroke:#038048;stroke-width:1.0;"/><text fill="#000000" font-family="sans-serif" font-size="11" lengthAdjust="spacing" textLength="132" x="465" y="400.4761">getHTML(String): String</text><ellipse cx="456" cy="410.0703" fill="#84BE84" rx="3" ry="3" style="stroke:#038048;stroke-width:1.0;"/><text fill="#000000" font-family="sans-serif" font-size="11" font-style="italic" lengthAdjust="spacing" textLength="660" x="465" y="413.2808">textToHTML(Context, String, StringTransmutator, StringTransmutator, StringTransmutator, boolean, boolean): String</text><ellipse cx="456" cy="422.875" fill="#84BE84" rx="3" ry="3" style="stroke:#038048;stroke-width:1.0;"/><text fill="#000000" font-family="sans-serif" font-size="11" lengthAdjust="spacing" textLength="440" x="465" y="426.0854">textToHTML(Context, String, StringTransmutator, StringTransmutator): String</text><ellipse cx="456" cy="435.6797" fill="#84BE84" rx="3" ry="3" style="stroke:#038048;stroke-width:1.0;"/><text fill="#000000" font-family="sans-serif" font-size="11" lengthAdjust="spacing" textLength="560" x="465" y="438.8901">textToHTML(Context, String, StringTransmutator, StringTransmutator, StringTransmutator): String</text></a><!--MD5=[943f3551c3cbba80d8936af72abf630e]
class org.apache.wiki.render.CleanTextRenderer--><a href="CleanTextRenderer.html" target="_top" title="CleanTextRenderer.html" xlink:actuate="onRequest" xlink:href="CleanTextRenderer.html" xlink:show="new" xlink:title="CleanTextRenderer.html" xlink:type="simple"><rect codeLine="63" fill="#FEFECE" filter="url(#f9z2ns49e8rdr)" height="73.6094" id="org.apache.wiki.render.CleanTextRenderer" style="stroke:#A80036;stroke-width:1.5;" width="271" x="1086.5" y="575"/><ellipse cx="1158.25" cy="591" fill="#ADD1B2" rx="11" ry="11" style="stroke:#A80036;stroke-width:1.0;"/><path d="M1161.2188,596.6406 Q1160.6406,596.9375 1160,597.0781 Q1159.3594,597.2344 1158.6563,597.2344 Q1156.1563,597.2344 1154.8281,595.5938 Q1153.5156,593.9375 1153.5156,590.8125 Q1153.5156,587.6875 1154.8281,586.0313 Q1156.1563,584.375 1158.6563,584.375 Q1159.3594,584.375 1160,584.5313 Q1160.6563,584.6875 1161.2188,584.9844 L1161.2188,587.7031 Q1160.5938,587.125 1160,586.8594 Q1159.4063,586.5781 1158.7813,586.5781 Q1157.4375,586.5781 1156.75,587.6563 Q1156.0625,588.7188 1156.0625,590.8125 Q1156.0625,592.9063 1156.75,593.9844 Q1157.4375,595.0469 1158.7813,595.0469 Q1159.4063,595.0469 1160,594.7813 Q1160.5938,594.5 1161.2188,593.9219 L1161.2188,596.6406 Z " fill="#000000"/><text fill="#000000" font-family="sans-serif" font-size="12" lengthAdjust="spacing" textLength="119" x="1178.75" y="595.1543">CleanTextRenderer</text><line style="stroke:#A80036;stroke-width:1.5;" x1="1087.5" x2="1356.5" y1="607" y2="607"/><line style="stroke:#A80036;stroke-width:1.5;" x1="1087.5" x2="1356.5" y1="615" y2="615"/><ellipse cx="1097.5" cy="626" fill="#84BE84" rx="3" ry="3" style="stroke:#038048;stroke-width:1.0;"/><text fill="#000000" font-family="sans-serif" font-size="11" lengthAdjust="spacing" textLength="245" x="1106.5" y="629.2104">CleanTextRenderer(Context, WikiDocument)</text><ellipse cx="1097.5" cy="638.8047" fill="#84BE84" rx="3" ry="3" style="stroke:#038048;stroke-width:1.0;"/><text fill="#000000" font-family="sans-serif" font-size="11" lengthAdjust="spacing" textLength="102" x="1106.5" y="642.0151">getString(): String</text></a><!--MD5=[7babe8c7ef4daa3618c3d415a67c592e]
class org.apache.wiki.render.CreoleRenderer--><a href="CreoleRenderer.html" target="_top" title="CreoleRenderer.html" xlink:actuate="onRequest" xlink:href="CreoleRenderer.html" xlink:show="new" xlink:title="CreoleRenderer.html" xlink:type="simple"><rect codeLine="68" fill="#FEFECE" filter="url(#f9z2ns49e8rdr)" height="73.6094" id="org.apache.wiki.render.CreoleRenderer" style="stroke:#A80036;stroke-width:1.5;" width="252" x="1393" y="575"/><ellipse cx="1465.75" cy="591" fill="#ADD1B2" rx="11" ry="11" style="stroke:#A80036;stroke-width:1.0;"/><path d="M1468.7188,596.6406 Q1468.1406,596.9375 1467.5,597.0781 Q1466.8594,597.2344 1466.1563,597.2344 Q1463.6563,597.2344 1462.3281,595.5938 Q1461.0156,593.9375 1461.0156,590.8125 Q1461.0156,587.6875 1462.3281,586.0313 Q1463.6563,584.375 1466.1563,584.375 Q1466.8594,584.375 1467.5,584.5313 Q1468.1563,584.6875 1468.7188,584.9844 L1468.7188,587.7031 Q1468.0938,587.125 1467.5,586.8594 Q1466.9063,586.5781 1466.2813,586.5781 Q1464.9375,586.5781 1464.25,587.6563 Q1463.5625,588.7188 1463.5625,590.8125 Q1463.5625,592.9063 1464.25,593.9844 Q1464.9375,595.0469 1466.2813,595.0469 Q1466.9063,595.0469 1467.5,594.7813 Q1468.0938,594.5 1468.7188,593.9219 L1468.7188,596.6406 Z " fill="#000000"/><text fill="#000000" font-family="sans-serif" font-size="12" lengthAdjust="spacing" textLength="98" x="1486.25" y="595.1543">CreoleRenderer</text><line style="stroke:#A80036;stroke-width:1.5;" x1="1394" x2="1644" y1="607" y2="607"/><line style="stroke:#A80036;stroke-width:1.5;" x1="1394" x2="1644" y1="615" y2="615"/><ellipse cx="1404" cy="626" fill="#84BE84" rx="3" ry="3" style="stroke:#038048;stroke-width:1.0;"/><text fill="#000000" font-family="sans-serif" font-size="11" lengthAdjust="spacing" textLength="226" x="1413" y="629.2104">CreoleRenderer(Context, WikiDocument)</text><ellipse cx="1404" cy="638.8047" fill="#84BE84" rx="3" ry="3" style="stroke:#038048;stroke-width:1.0;"/><text fill="#000000" font-family="sans-serif" font-size="11" lengthAdjust="spacing" textLength="102" x="1413" y="642.0151">getString(): String</text></a><!--MD5=[c7a462810be9eaa6a4d9c2efa9eeb67e]
class org.jdom2.output.support.AbstractXMLOutputProcessor--><rect codeLine="86" fill="#FEFECE" filter="url(#f9z2ns49e8rdr)" height="73.6094" id="org.jdom2.output.support.AbstractXMLOutputProcessor" style="stroke:#A80036;stroke-width:1.5;" width="211" x="111.5" y="33"/><ellipse cx="126.5" cy="49" fill="#A9DCDF" rx="11" ry="11" style="stroke:#A80036;stroke-width:1.0;"/><path d="M126.6094,44.3438 L125.4531,49.4219 L127.7813,49.4219 L126.6094,44.3438 Z M125.125,42.1094 L128.1094,42.1094 L131.4688,54.5 L129.0156,54.5 L128.25,51.4375 L124.9688,51.4375 L124.2188,54.5 L121.7813,54.5 L125.125,42.1094 Z " fill="#000000"/><text fill="#000000" font-family="sans-serif" font-size="12" font-style="italic" lengthAdjust="spacing" textLength="179" x="140.5" y="53.1543">AbstractXMLOutputProcessor</text><line style="stroke:#A80036;stroke-width:1.5;" x1="112.5" x2="321.5" y1="65" y2="65"/><polygon fill="none" points="122.5,71,126.5,75,122.5,79,118.5,75" style="stroke:#B38D22;stroke-width:1.0;"/><text fill="#000000" font-family="sans-serif" font-size="11" lengthAdjust="spacing" text-decoration="underline" textLength="100" x="131.5" y="79.2104">CDATAPRE: String</text><polygon fill="none" points="122.5,83.8047,126.5,87.8047,122.5,91.8047,118.5,87.8047" style="stroke:#B38D22;stroke-width:1.0;"/><text fill="#000000" font-family="sans-serif" font-size="11" lengthAdjust="spacing" text-decoration="underline" textLength="110" x="131.5" y="92.0151">CDATAPOST: String</text><line style="stroke:#A80036;stroke-width:1.5;" x1="112.5" x2="321.5" y1="98.6094" y2="98.6094"/><!--MD5=[58109a6d9b4ddee4f79158fbe9ae1694]
class org.apache.wiki.api.engine.RenderApi--><a href="../api/engine/RenderApi.html" target="_top" title="../api/engine/RenderApi.html" xlink:actuate="onRequest" xlink:href="../api/engine/RenderApi.html" xlink:show="new" xlink:title="../api/engine/RenderApi.html" xlink:type="simple"><rect codeLine="93" fill="#FEFECE" filter="url(#f9z2ns49e8rdr)" height="60.8047" id="org.apache.wiki.api.engine.RenderApi" style="stroke:#A80036;stroke-width:1.5;" width="226" x="642" y="39.5"/><ellipse cx="718.75" cy="55.5" fill="#B4A7E5" rx="11" ry="11" style="stroke:#A80036;stroke-width:1.0;"/><path d="M714.6719,51.2656 L714.6719,49.1094 L722.0625,49.1094 L722.0625,51.2656 L719.5938,51.2656 L719.5938,59.3438 L722.0625,59.3438 L722.0625,61.5 L714.6719,61.5 L714.6719,59.3438 L717.1406,59.3438 L717.1406,51.2656 L714.6719,51.2656 Z " fill="#000000"/><text fill="#000000" font-family="sans-serif" font-size="12" font-style="italic" lengthAdjust="spacing" textLength="64" x="739.25" y="59.6543">RenderApi</text><line style="stroke:#A80036;stroke-width:1.5;" x1="643" x2="867" y1="71.5" y2="71.5"/><line style="stroke:#A80036;stroke-width:1.5;" x1="643" x2="867" y1="79.5" y2="79.5"/><ellipse cx="653" cy="90.5" fill="#84BE84" rx="3" ry="3" style="stroke:#038048;stroke-width:1.0;"/><text fill="#000000" font-family="sans-serif" font-size="11" font-style="italic" lengthAdjust="spacing" textLength="200" x="662" y="93.7104">textToHTML(Context, String): String</text></a><!--MD5=[b42cfcd16e39a0fd6a37261d508d7333]
class org.apache.wiki.api.engine.Initializable--><a href="../api/engine/Initializable.html" target="_top" title="../api/engine/Initializable.html" xlink:actuate="onRequest" xlink:href="../api/engine/Initializable.html" xlink:show="new" xlink:title="../api/engine/Initializable.html" xlink:type="simple"><rect codeLine="96" fill="#FEFECE" filter="url(#f9z2ns49e8rdr)" height="60.8047" id="org.apache.wiki.api.engine.Initializable" style="stroke:#A80036;stroke-width:1.5;" width="216" x="391" y="39.5"/><ellipse cx="459.75" cy="55.5" fill="#B4A7E5" rx="11" ry="11" style="stroke:#A80036;stroke-width:1.0;"/><path d="M455.6719,51.2656 L455.6719,49.1094 L463.0625,49.1094 L463.0625,51.2656 L460.5938,51.2656 L460.5938,59.3438 L463.0625,59.3438 L463.0625,61.5 L455.6719,61.5 L455.6719,59.3438 L458.1406,59.3438 L458.1406,51.2656 L455.6719,51.2656 Z " fill="#000000"/><text fill="#000000" font-family="sans-serif" font-size="12" font-style="italic" lengthAdjust="spacing" textLength="70" x="480.25" y="59.6543">Initializable</text><line style="stroke:#A80036;stroke-width:1.5;" x1="392" x2="606" y1="71.5" y2="71.5"/><line style="stroke:#A80036;stroke-width:1.5;" x1="392" x2="606" y1="79.5" y2="79.5"/><ellipse cx="402" cy="90.5" fill="#84BE84" rx="3" ry="3" style="stroke:#038048;stroke-width:1.0;"/><text fill="#000000" font-family="sans-serif" font-size="11" font-style="italic" lengthAdjust="spacing" textLength="190" x="411" y="93.7104">initialize(Engine, Properties): void</text></a><!--MD5=[8c616ba9df2429bf0adc99a32a005079]
class org.apache.wiki.event.WikiEventListener--><a href="../event/WikiEventListener.html" target="_top" title="../event/WikiEventListener.html" xlink:actuate="onRequest" xlink:href="../event/WikiEventListener.html" xlink:show="new" xlink:title="../event/WikiEventListener.html" xlink:type="simple"><rect codeLine="102" fill="#FEFECE" filter="url(#f9z2ns49e8rdr)" height="60.8047" id="org.apache.wiki.event.WikiEventListener" style="stroke:#A80036;stroke-width:1.5;" width="215" x="903.5" y="39.5"/><ellipse cx="951.75" cy="55.5" fill="#B4A7E5" rx="11" ry="11" style="stroke:#A80036;stroke-width:1.0;"/><path d="M947.6719,51.2656 L947.6719,49.1094 L955.0625,49.1094 L955.0625,51.2656 L952.5938,51.2656 L952.5938,59.3438 L955.0625,59.3438 L955.0625,61.5 L947.6719,61.5 L947.6719,59.3438 L950.1406,59.3438 L950.1406,51.2656 L947.6719,51.2656 Z " fill="#000000"/><text fill="#000000" font-family="sans-serif" font-size="12" font-style="italic" lengthAdjust="spacing" textLength="110" x="972.25" y="59.6543">WikiEventListener</text><line style="stroke:#A80036;stroke-width:1.5;" x1="904.5" x2="1117.5" y1="71.5" y2="71.5"/><line style="stroke:#A80036;stroke-width:1.5;" x1="904.5" x2="1117.5" y1="79.5" y2="79.5"/><ellipse cx="914.5" cy="90.5" fill="#84BE84" rx="3" ry="3" style="stroke:#038048;stroke-width:1.0;"/><text fill="#000000" font-family="sans-serif" font-size="11" font-style="italic" lengthAdjust="spacing" textLength="189" x="923.5" y="93.7104">actionPerformed(WikiEvent): void</text></a><!--MD5=[b7bc5679f73a21bab50bb2c40ae49e22]
class org.apache.wiki.modules.InternalModule--><a href="../modules/InternalModule.html" target="_top" title="../modules/InternalModule.html" xlink:actuate="onRequest" xlink:href="../modules/InternalModule.html" xlink:show="new" xlink:title="../modules/InternalModule.html" xlink:type="simple"><rect codeLine="108" fill="#FEFECE" filter="url(#f9z2ns49e8rdr)" height="48" id="org.apache.wiki.modules.InternalModule" style="stroke:#A80036;stroke-width:1.5;" width="126" x="1154" y="46"/><ellipse cx="1169" cy="62" fill="#B4A7E5" rx="11" ry="11" style="stroke:#A80036;stroke-width:1.0;"/><path d="M1164.9219,57.7656 L1164.9219,55.6094 L1172.3125,55.6094 L1172.3125,57.7656 L1169.8438,57.7656 L1169.8438,65.8438 L1172.3125,65.8438 L1172.3125,68 L1164.9219,68 L1164.9219,65.8438 L1167.3906,65.8438 L1167.3906,57.7656 L1164.9219,57.7656 Z " fill="#000000"/><text fill="#000000" font-family="sans-serif" font-size="12" font-style="italic" lengthAdjust="spacing" textLength="94" x="1183" y="66.1543">InternalModule</text><line style="stroke:#A80036;stroke-width:1.5;" x1="1155" x2="1279" y1="78" y2="78"/><line style="stroke:#A80036;stroke-width:1.5;" x1="1155" x2="1279" y1="86" y2="86"/></a><!--MD5=[e3fa91ae3e1045b531959a42ff5ede38]
reverse link org.apache.wiki.render.WikiRenderer to org.apache.wiki.render.XHTMLRenderer--><path codeLine="73" d="M1500.0497,380.8375 C1581.49,442.3702 1693.4512,526.9631 1756.897,574.9 " fill="none" id="org.apache.wiki.render.WikiRenderer-backto-org.apache.wiki.render.XHTMLRenderer" style="stroke:#A80036;stroke-width:1.0;"/><polygon fill="none" points="1495.6726,386.3038,1483.9351,368.6621,1504.1123,375.1337,1495.6726,386.3038" style="stroke:#A80036;stroke-width:1.0;"/><!--MD5=[cec529fa02df071c52a396e2d6ba8c14]
reverse link org.jdom2.output.support.AbstractXMLOutputProcessor to org.apache.wiki.render.CustomXMLOutputProcessor--><path codeLine="74" d="M217,127.1975 C217,173.8856 217,238.0465 217,275.4617 " fill="none" id="org.jdom2.output.support.AbstractXMLOutputProcessor-backto-org.apache.wiki.render.CustomXMLOutputProcessor" style="stroke:#A80036;stroke-width:1.0;"/><polygon fill="none" points="210.0001,127.1346,217,107.1346,224.0001,127.1346,210.0001,127.1346" style="stroke:#A80036;stroke-width:1.0;"/><!--MD5=[8703b756c5f037ca6eed5bcf73c552ff]
reverse link org.apache.wiki.render.RenderingManager to org.apache.wiki.render.DefaultRenderingManager--><path codeLine="75" d="M581.5516,457.1321 C559.5393,473.2463 537.4893,489.3882 516.3784,504.8426 " fill="none" id="org.apache.wiki.render.RenderingManager-backto-org.apache.wiki.render.DefaultRenderingManager" style="stroke:#A80036;stroke-width:1.0;stroke-dasharray:7.0,7.0;"/><polygon fill="none" points="577.6854,451.2871,597.9583,445.1215,585.9552,462.5837,577.6854,451.2871" style="stroke:#A80036;stroke-width:1.0;"/><!--MD5=[cfbd5c131391b00adc089a0c287cb00a]
reverse link org.apache.wiki.render.WikiRenderer to org.apache.wiki.render.WysiwygEditingRenderer--><path codeLine="76" d="M1277.4922,378.95 C1214.7966,416.2545 1137.581,462.6173 1069,505 C1031.9358,527.9055 990.6589,554.1839 958.295,574.9663 " fill="none" id="org.apache.wiki.render.WikiRenderer-backto-org.apache.wiki.render.WysiwygEditingRenderer" style="stroke:#A80036;stroke-width:1.0;"/><polygon fill="none" points="1274.0024,372.8811,1294.7713,368.6793,1281.1558,384.9157,1274.0024,372.8811" style="stroke:#A80036;stroke-width:1.0;"/><!--MD5=[085e4af89f663d9a0b0c1da35c841511]
reverse link org.apache.wiki.api.engine.RenderApi to org.apache.wiki.render.RenderingManager--><path codeLine="77" d="M762.1297,120.9879 C764.074,134.893 766.2781,150.6553 768.5596,166.972 " fill="none" id="org.apache.wiki.api.engine.RenderApi-backto-org.apache.wiki.render.RenderingManager" style="stroke:#A80036;stroke-width:1.0;"/><polygon fill="none" points="755.1514,121.6296,759.3142,100.8529,769.0165,119.6908,755.1514,121.6296" style="stroke:#A80036;stroke-width:1.0;"/><!--MD5=[d6ad290e80184e99fcf30b6a763a97ee]
reverse link org.apache.wiki.event.WikiEventListener to org.apache.wiki.render.RenderingManager--><path codeLine="78" d="M967.8895,115.6236 C953.5734,130.7743 936.8065,148.5186 919.3697,166.972 " fill="none" id="org.apache.wiki.event.WikiEventListener-backto-org.apache.wiki.render.RenderingManager" style="stroke:#A80036;stroke-width:1.0;"/><polygon fill="none" points="963.0226,110.5821,981.8466,100.8529,973.1984,120.1974,963.0226,110.5821" style="stroke:#A80036;stroke-width:1.0;"/><!--MD5=[d578fae8ddea6a72ef0738eaac51ee32]
reverse link org.apache.wiki.modules.InternalModule to org.apache.wiki.render.RenderingManager--><path codeLine="79" d="M1155.2548,103.9671 C1123.8525,121.242 1083.3718,143.5111 1040.8112,166.9244 " fill="none" id="org.apache.wiki.modules.InternalModule-backto-org.apache.wiki.render.RenderingManager" style="stroke:#A80036;stroke-width:1.0;"/><polygon fill="none" points="1152.2081,97.6538,1173.1055,94.1471,1158.9561,109.9203,1152.2081,97.6538" style="stroke:#A80036;stroke-width:1.0;"/><!--MD5=[f11cea714489a1ce21dcbf3449e9ef8d]
reverse link org.apache.wiki.api.engine.Initializable to org.apache.wiki.render.RenderingManager--><path codeLine="80" d="M551.9968,113.2777 C571.1674,128.9325 593.9886,147.5686 617.7707,166.9893 " fill="none" id="org.apache.wiki.api.engine.Initializable-backto-org.apache.wiki.render.RenderingManager" style="stroke:#A80036;stroke-width:1.0;"/><polygon fill="none" points="547.549,118.683,536.4854,100.6109,556.4041,107.8392,547.549,118.683" style="stroke:#A80036;stroke-width:1.0;"/><!--MD5=[ffd759f7df7f5b16464532516311a2a5]
reverse link org.apache.wiki.render.WikiRenderer to org.apache.wiki.render.CleanTextRenderer--><path codeLine="81" d="M1354.151,386.0883 C1318.4585,447.1045 1270.9543,528.3128 1243.7023,574.9 " fill="none" id="org.apache.wiki.render.WikiRenderer-backto-org.apache.wiki.render.CleanTextRenderer" style="stroke:#A80036;stroke-width:1.0;"/><polygon fill="none" points="1348.2041,382.3909,1364.3447,368.6621,1360.2884,389.4598,1348.2041,382.3909" style="stroke:#A80036;stroke-width:1.0;"/><!--MD5=[7a2dc4263685589dc58d490160cb31a9]
reverse link org.apache.wiki.render.WikiRenderer to org.apache.wiki.render.CreoleRenderer--><path codeLine="82" d="M1432.4913,387.6639 C1455.9495,448.4961 1486.8827,528.7127 1504.6935,574.9 " fill="none" id="org.apache.wiki.render.WikiRenderer-backto-org.apache.wiki.render.CreoleRenderer" style="stroke:#A80036;stroke-width:1.0;"/><polygon fill="none" points="1425.8286,389.8413,1425.1638,368.6621,1438.891,384.8041,1425.8286,389.8413" style="stroke:#A80036;stroke-width:1.0;"/><text fill="#888888" font-family="sans-serif" font-size="10" lengthAdjust="spacing" textLength="192" x="876" y="742.2822">UMLDoclet 2.0.15, PlantUML 1.2021.13</text><!--MD5=[fcf62bca2eb142b155fa8bfa8694974f]
@startuml
    namespace org.apache.wiki.render {

        class XHTMLRenderer [[XHTMLRenderer.html]] {
            +XHTMLRenderer(Context, WikiDocument)
            +getString(): String
        }

        abstract class WikiRenderer [[WikiRenderer.html]] {
            #m_context: Context
            #m_document: WikiDocument
            {static} +LINKS_TRANSLATION: String
            {static} +LINKS_SOURCE: String
            #WikiRenderer(Context, WikiDocument)
            {abstract} +getString(): String
        }

        class CustomXMLOutputProcessor [[CustomXMLOutputProcessor.html]] {
            #attributeEscapedEntitiesFilter(Writer, FormatStack, String): void
        }

        class DefaultRenderingManager [[DefaultRenderingManager.html]] {
            +initialize(Engine, Properties): void
            +beautifyTitle(String): String
            +beautifyTitleNoBreak(String): String
            +getParser(Context, String): MarkupParser
            +getRenderedDocument(Context, String): WikiDocument
            +getHTML(Context, WikiDocument): String
            +getHTML(Context, Page): String
            +getHTML(String, int): String
            +textToHTML(Context, String): String
            +textToHTML(Context, String, StringTransmutator, StringTransmutator, StringTransmutator, boolean, boolean): String
            +getRenderer(Context, WikiDocument): WikiRenderer
            +getWysiwygRenderer(Context, WikiDocument): WikiRenderer
            +actionPerformed(WikiEvent): void
        }

        class WysiwygEditingRenderer [[WysiwygEditingRenderer.html]] {
            +WysiwygEditingRenderer(Context, WikiDocument)
            +getString(): String
        }

        interface RenderingManager [[RenderingManager.html]] {
            {static} +PROP_PARSER: String
            {static} +PROP_RENDERER: String
            {static} +PROP_WYSIWYG_RENDERER: String
            {static} +PROP_BEAUTIFYTITLE: String
            {abstract} +beautifyTitle(String): String
            {abstract} +beautifyTitleNoBreak(String): String
            {abstract} +getParser(Context, String): MarkupParser
            {abstract} +getRenderedDocument(Context, String): WikiDocument
            {abstract} +getRenderer(Context, WikiDocument): WikiRenderer
            {abstract} +getWysiwygRenderer(Context, WikiDocument): WikiRenderer
            {abstract} +getHTML(Context, WikiDocument): String
            {abstract} +getHTML(Context, Page): String
            {abstract} +getHTML(String, int): String
            +getHTML(Context, String): String
            +getHTML(String): String
            {abstract} +textToHTML(Context, String, StringTransmutator, StringTransmutator, StringTransmutator, boolean, boolean): String
            +textToHTML(Context, String, StringTransmutator, StringTransmutator): String
            +textToHTML(Context, String, StringTransmutator, StringTransmutator, StringTransmutator): String
        }

        class CleanTextRenderer [[CleanTextRenderer.html]] {
            +CleanTextRenderer(Context, WikiDocument)
            +getString(): String
        }

        class CreoleRenderer [[CreoleRenderer.html]] {
            +CreoleRenderer(Context, WikiDocument)
            +getString(): String
        }

        WikiRenderer <|- - XHTMLRenderer
        org.jdom2.output.support.AbstractXMLOutputProcessor <|- - CustomXMLOutputProcessor
        RenderingManager <|.. DefaultRenderingManager
        WikiRenderer <|- - WysiwygEditingRenderer
        org.apache.wiki.api.engine.RenderApi <|- - RenderingManager
        org.apache.wiki.event.WikiEventListener <|- - RenderingManager
        org.apache.wiki.modules.InternalModule <|- - RenderingManager
        org.apache.wiki.api.engine.Initializable <|- - RenderingManager
        WikiRenderer <|- - CleanTextRenderer
        WikiRenderer <|- - CreoleRenderer
    }

    namespace org.jdom2.output.support {
        abstract class AbstractXMLOutputProcessor {
            {static} #CDATAPRE: String
            {static} #CDATAPOST: String
        }
    }

    namespace org.apache.wiki.api.engine {
        interface RenderApi [[../api/engine/RenderApi.html]] {
            {abstract} +textToHTML(Context, String): String
        }
        interface Initializable [[../api/engine/Initializable.html]] {
            {abstract} +initialize(Engine, Properties): void
        }
    }

    namespace org.apache.wiki.event {
        interface WikiEventListener [[../event/WikiEventListener.html]] {
            {abstract} +actionPerformed(WikiEvent): void
        }
    }

    namespace org.apache.wiki.modules {
        interface InternalModule [[../modules/InternalModule.html]]
    }

    center footer UMLDoclet 2.0.15, PlantUML 1.2021.13
@enduml

PlantUML version 1.2021.13(Mon Nov 01 11:38:45 UTC 2021)
(APACHE source distribution)
Java Runtime: Java(TM) SE Runtime Environment
JVM: Java HotSpot(TM) 64-Bit Server VM
Default Encoding: ISO-8859-1
Language: en
Country: US
--></g></svg>