<?xml version="1.0" encoding="UTF-8" standalone="no"?><svg xmlns="http://www.w3.org/2000/svg" xmlns:xlink="http://www.w3.org/1999/xlink" contentScriptType="application/ecmascript" contentStyleType="text/css" height="752px" preserveAspectRatio="none" style="width:906px;height:752px;" version="1.1" viewBox="0 0 906 752" width="906px" zoomAndPan="magnify"><defs><filter height="300%" id="f1ffuegiar9wpl" width="300%" x="-1" y="-1"><feGaussianBlur result="blurOut" stdDeviation="2.0"/><feColorMatrix in="blurOut" result="blurOut2" type="matrix" values="0 0 0 0 0 0 0 0 0 0 0 0 0 0 0 0 0 0 .4 0"/><feOffset dx="4.0" dy="4.0" in="blurOut2" result="blurOut3"/><feBlend in="SourceGraphic" in2="blurOut3" mode="normal"/></filter></defs><g><!--cluster org.apache.wiki.references--><polygon fill="#FFFFFF" filter="url(#f1ffuegiar9wpl)" points="251,137,475,137,482,159.2969,585,159.2969,585,712,251,712,251,137" style="stroke: #000000; stroke-width: 1.5;"/><line style="stroke: #000000; stroke-width: 1.5;" x1="251" x2="482" y1="159.2969" y2="159.2969"/><text fill="#000000" font-family="sans-serif" font-size="14" font-weight="bold" lengthAdjust="spacingAndGlyphs" textLength="218" x="255" y="151.9951">org.apache.wiki.references</text><!--cluster org.apache.wiki.api.filters--><polygon fill="#FFFFFF" filter="url(#f1ffuegiar9wpl)" points="491,16,701,16,708,38.2969,884,38.2969,884,112,491,112,491,16" style="stroke: #000000; stroke-width: 1.5;"/><line style="stroke: #000000; stroke-width: 1.5;" x1="491" x2="708" y1="38.2969" y2="38.2969"/><text fill="#000000" font-family="sans-serif" font-size="14" font-weight="bold" lengthAdjust="spacingAndGlyphs" textLength="204" x="495" y="30.9951">org.apache.wiki.api.filters</text><!--cluster org.apache.wiki.modules--><polygon fill="#FFFFFF" filter="url(#f1ffuegiar9wpl)" points="14,22.5,217,22.5,224,44.7969,227,44.7969,227,105.5,14,105.5,14,22.5" style="stroke: #000000; stroke-width: 1.5;"/><line style="stroke: #000000; stroke-width: 1.5;" x1="14" x2="224" y1="44.7969" y2="44.7969"/><text fill="#000000" font-family="sans-serif" font-size="14" font-weight="bold" lengthAdjust="spacingAndGlyphs" textLength="197" x="18" y="37.4951">org.apache.wiki.modules</text><!--cluster org.apache.wiki.event--><polygon fill="#FFFFFF" filter="url(#f1ffuegiar9wpl)" points="240,16,421,16,428,38.2969,472,38.2969,472,112,240,112,240,16" style="stroke: #000000; stroke-width: 1.5;"/><line style="stroke: #000000; stroke-width: 1.5;" x1="240" x2="428" y1="38.2969" y2="38.2969"/><text fill="#000000" font-family="sans-serif" font-size="14" font-weight="bold" lengthAdjust="spacingAndGlyphs" textLength="175" x="244" y="30.9951">org.apache.wiki.event</text><!--class org.apache.wiki.references.ReferenceManager--><a href="ReferenceManager.html" target="_top" xlink:actuate="onRequest" xlink:show="new" xlink:title="ReferenceManager.html" xlink:type="simple"><rect fill="#FEFECE" filter="url(#f1ffuegiar9wpl)" height="201.6563" id="org.apache.wiki.references.ReferenceManager" style="stroke: #A80036; stroke-width: 1.5;" width="316" x="259" y="164"/><ellipse cx="353.25" cy="180" fill="#B4A7E5" rx="11" ry="11" style="stroke: #A80036; stroke-width: 1.0;"/><path d="M349.1719,175.7656 L349.1719,173.6094 L356.5625,173.6094 L356.5625,175.7656 L354.0938,175.7656 L354.0938,183.8438 L356.5625,183.8438 L356.5625,186 L349.1719,186 L349.1719,183.8438 L351.6406,183.8438 L351.6406,175.7656 L349.1719,175.7656 Z "/><text fill="#000000" font-family="sans-serif" font-size="12" font-style="italic" lengthAdjust="spacingAndGlyphs" textLength="119" x="373.75" y="184.1543">ReferenceManager</text><line style="stroke: #A80036; stroke-width: 1.5;" x1="260" x2="574" y1="196" y2="196"/><line style="stroke: #A80036; stroke-width: 1.5;" x1="260" x2="574" y1="204" y2="204"/><ellipse cx="270" cy="215.9023" fill="#84BE84" rx="3" ry="3" style="stroke: #038048; stroke-width: 1.0;"/><text fill="#000000" font-family="sans-serif" font-size="11" font-style="italic" lengthAdjust="spacingAndGlyphs" textLength="187" x="279" y="218.2104">initialize(Collection&lt;Page&gt;): void</text><ellipse cx="270" cy="228.707" fill="#84BE84" rx="3" ry="3" style="stroke: #038048; stroke-width: 1.0;"/><text fill="#000000" font-family="sans-serif" font-size="11" font-style="italic" lengthAdjust="spacingAndGlyphs" textLength="268" x="279" y="231.0151">scanWikiLinks(Page, String): Collection&lt;String&gt;</text><ellipse cx="270" cy="241.5117" fill="#84BE84" rx="3" ry="3" style="stroke: #038048; stroke-width: 1.0;"/><text fill="#000000" font-family="sans-serif" font-size="11" font-style="italic" lengthAdjust="spacingAndGlyphs" textLength="150" x="279" y="243.8198">pageRemoved(Page): void</text><ellipse cx="270" cy="254.3164" fill="#84BE84" rx="3" ry="3" style="stroke: #038048; stroke-width: 1.0;"/><text fill="#000000" font-family="sans-serif" font-size="11" font-style="italic" lengthAdjust="spacingAndGlyphs" textLength="171" x="279" y="256.6245">updateReferences(Page): void</text><ellipse cx="270" cy="267.1211" fill="#84BE84" rx="3" ry="3" style="stroke: #038048; stroke-width: 1.0;"/><text fill="#000000" font-family="sans-serif" font-size="11" font-style="italic" lengthAdjust="spacingAndGlyphs" textLength="290" x="279" y="269.4292">updateReferences(String, Collection&lt;String&gt;): void</text><ellipse cx="270" cy="279.9258" fill="#84BE84" rx="3" ry="3" style="stroke: #038048; stroke-width: 1.0;"/><text fill="#000000" font-family="sans-serif" font-size="11" font-style="italic" lengthAdjust="spacingAndGlyphs" textLength="168" x="279" y="282.2339">clearPageEntries(String): void</text><ellipse cx="270" cy="292.7305" fill="#84BE84" rx="3" ry="3" style="stroke: #038048; stroke-width: 1.0;"/><text fill="#000000" font-family="sans-serif" font-size="11" font-style="italic" lengthAdjust="spacingAndGlyphs" textLength="220" x="279" y="295.0386">findUnreferenced(): Collection&lt;String&gt;</text><ellipse cx="270" cy="305.5352" fill="#84BE84" rx="3" ry="3" style="stroke: #038048; stroke-width: 1.0;"/><text fill="#000000" font-family="sans-serif" font-size="11" font-style="italic" lengthAdjust="spacingAndGlyphs" textLength="201" x="279" y="307.8433">findUncreated(): Collection&lt;String&gt;</text><ellipse cx="270" cy="318.3398" fill="#84BE84" rx="3" ry="3" style="stroke: #038048; stroke-width: 1.0;"/><text fill="#000000" font-family="sans-serif" font-size="11" font-style="italic" lengthAdjust="spacingAndGlyphs" textLength="193" x="279" y="320.6479">findReferrers(String): Set&lt;String&gt;</text><ellipse cx="270" cy="331.1445" fill="#84BE84" rx="3" ry="3" style="stroke: #038048; stroke-width: 1.0;"/><text fill="#000000" font-family="sans-serif" font-size="11" font-style="italic" lengthAdjust="spacingAndGlyphs" textLength="204" x="279" y="333.4526">findReferredBy(String): Set&lt;String&gt;</text><ellipse cx="270" cy="343.9492" fill="#84BE84" rx="3" ry="3" style="stroke: #038048; stroke-width: 1.0;"/><text fill="#000000" font-family="sans-serif" font-size="11" font-style="italic" lengthAdjust="spacingAndGlyphs" textLength="227" x="279" y="346.2573">findRefersTo(String): Collection&lt;String&gt;</text><ellipse cx="270" cy="356.7539" fill="#84BE84" rx="3" ry="3" style="stroke: #038048; stroke-width: 1.0;"/><text fill="#000000" font-family="sans-serif" font-size="11" font-style="italic" lengthAdjust="spacingAndGlyphs" textLength="151" x="279" y="359.062">findCreated(): Set&lt;String&gt;</text></a><!--class org.apache.wiki.references.DefaultReferenceManager--><a href="DefaultReferenceManager.html" target="_top" xlink:actuate="onRequest" xlink:show="new" xlink:title="DefaultReferenceManager.html" xlink:type="simple"><rect fill="#FEFECE" filter="url(#f1ffuegiar9wpl)" height="278.4844" id="org.apache.wiki.references.DefaultReferenceManager" style="stroke: #A80036; stroke-width: 1.5;" width="317" x="259.5" y="426"/><ellipse cx="331.75" cy="442" fill="#ADD1B2" rx="11" ry="11" style="stroke: #A80036; stroke-width: 1.0;"/><path d="M334.7188,447.6406 Q334.1406,447.9375 333.5,448.0859 Q332.8594,448.2344 332.1563,448.2344 Q329.6563,448.2344 328.3359,446.5859 Q327.0156,444.9375 327.0156,441.8125 Q327.0156,438.6875 328.3359,437.0313 Q329.6563,435.375 332.1563,435.375 Q332.8594,435.375 333.5078,435.5313 Q334.1563,435.6875 334.7188,435.9844 L334.7188,438.7031 Q334.0938,438.125 333.5,437.8516 Q332.9063,437.5781 332.2813,437.5781 Q330.9375,437.5781 330.25,438.6484 Q329.5625,439.7188 329.5625,441.8125 Q329.5625,443.9063 330.25,444.9766 Q330.9375,446.0469 332.2813,446.0469 Q332.9063,446.0469 333.5,445.7734 Q334.0938,445.5 334.7188,444.9219 L334.7188,447.6406 Z "/><text fill="#000000" font-family="sans-serif" font-size="12" lengthAdjust="spacingAndGlyphs" textLength="164" x="352.25" y="446.1543">DefaultReferenceManager</text><line style="stroke: #A80036; stroke-width: 1.5;" x1="260.5" x2="575.5" y1="458" y2="458"/><line style="stroke: #A80036; stroke-width: 1.5;" x1="260.5" x2="575.5" y1="466" y2="466"/><ellipse cx="270.5" cy="477.9023" fill="#84BE84" rx="3" ry="3" style="stroke: #038048; stroke-width: 1.0;"/><text fill="#000000" font-family="sans-serif" font-size="11" lengthAdjust="spacingAndGlyphs" textLength="192" x="279.5" y="480.2104">DefaultReferenceManager(Engine)</text><ellipse cx="270.5" cy="490.707" fill="#84BE84" rx="3" ry="3" style="stroke: #038048; stroke-width: 1.0;"/><text fill="#000000" font-family="sans-serif" font-size="11" lengthAdjust="spacingAndGlyphs" textLength="185" x="279.5" y="493.0151">initialize(Collection&lt;Page&gt;): void</text><ellipse cx="270.5" cy="503.5117" fill="#84BE84" rx="3" ry="3" style="stroke: #038048; stroke-width: 1.0;"/><text fill="#000000" font-family="sans-serif" font-size="11" lengthAdjust="spacingAndGlyphs" textLength="177" x="279.5" y="505.8198">postSave(Context, String): void</text><ellipse cx="270.5" cy="516.3164" fill="#84BE84" rx="3" ry="3" style="stroke: #038048; stroke-width: 1.0;"/><text fill="#000000" font-family="sans-serif" font-size="11" lengthAdjust="spacingAndGlyphs" textLength="270" x="279.5" y="518.6245">scanWikiLinks(Page, String): Collection&lt;String&gt;</text><ellipse cx="270.5" cy="529.1211" fill="#84BE84" rx="3" ry="3" style="stroke: #038048; stroke-width: 1.0;"/><text fill="#000000" font-family="sans-serif" font-size="11" lengthAdjust="spacingAndGlyphs" textLength="147" x="279.5" y="531.4292">pageRemoved(Page): void</text><ellipse cx="270.5" cy="541.9258" fill="#84BE84" rx="3" ry="3" style="stroke: #038048; stroke-width: 1.0;"/><text fill="#000000" font-family="sans-serif" font-size="11" lengthAdjust="spacingAndGlyphs" textLength="170" x="279.5" y="544.2339">updateReferences(Page): void</text><ellipse cx="270.5" cy="554.7305" fill="#84BE84" rx="3" ry="3" style="stroke: #038048; stroke-width: 1.0;"/><text fill="#000000" font-family="sans-serif" font-size="11" lengthAdjust="spacingAndGlyphs" textLength="291" x="279.5" y="557.0386">updateReferences(String, Collection&lt;String&gt;): void</text><polygon fill="#FFFF44" points="270.5,562.5352,274.5,566.5352,270.5,570.5352,266.5,566.5352" style="stroke: #B38D22; stroke-width: 1.0;"/><text fill="#000000" font-family="sans-serif" font-size="11" lengthAdjust="spacingAndGlyphs" textLength="275" x="279.5" y="569.8433">getRefersTo(): Map&lt;String, Collection&lt;String&gt;&gt;</text><polygon fill="#FFFF44" points="270.5,575.3398,274.5,579.3398,270.5,583.3398,266.5,579.3398" style="stroke: #B38D22; stroke-width: 1.0;"/><text fill="#000000" font-family="sans-serif" font-size="11" lengthAdjust="spacingAndGlyphs" textLength="251" x="279.5" y="582.6479">getReferredBy(): Map&lt;String, Set&lt;String&gt;&gt;</text><ellipse cx="270.5" cy="593.1445" fill="#84BE84" rx="3" ry="3" style="stroke: #038048; stroke-width: 1.0;"/><text fill="#000000" font-family="sans-serif" font-size="11" lengthAdjust="spacingAndGlyphs" textLength="169" x="279.5" y="595.4526">clearPageEntries(String): void</text><ellipse cx="270.5" cy="605.9492" fill="#84BE84" rx="3" ry="3" style="stroke: #038048; stroke-width: 1.0;"/><text fill="#000000" font-family="sans-serif" font-size="11" lengthAdjust="spacingAndGlyphs" textLength="221" x="279.5" y="608.2573">findUnreferenced(): Collection&lt;String&gt;</text><ellipse cx="270.5" cy="618.7539" fill="#84BE84" rx="3" ry="3" style="stroke: #038048; stroke-width: 1.0;"/><text fill="#000000" font-family="sans-serif" font-size="11" lengthAdjust="spacingAndGlyphs" textLength="202" x="279.5" y="621.062">findUncreated(): Collection&lt;String&gt;</text><ellipse cx="270.5" cy="631.5586" fill="#84BE84" rx="3" ry="3" style="stroke: #038048; stroke-width: 1.0;"/><text fill="#000000" font-family="sans-serif" font-size="11" lengthAdjust="spacingAndGlyphs" textLength="196" x="279.5" y="633.8667">findReferrers(String): Set&lt;String&gt;</text><ellipse cx="270.5" cy="644.3633" fill="#84BE84" rx="3" ry="3" style="stroke: #038048; stroke-width: 1.0;"/><text fill="#000000" font-family="sans-serif" font-size="11" lengthAdjust="spacingAndGlyphs" textLength="205" x="279.5" y="646.6714">findReferredBy(String): Set&lt;String&gt;</text><ellipse cx="270.5" cy="657.168" fill="#84BE84" rx="3" ry="3" style="stroke: #038048; stroke-width: 1.0;"/><text fill="#000000" font-family="sans-serif" font-size="11" lengthAdjust="spacingAndGlyphs" textLength="229" x="279.5" y="659.4761">findRefersTo(String): Collection&lt;String&gt;</text><ellipse cx="270.5" cy="669.9727" fill="#84BE84" rx="3" ry="3" style="stroke: #038048; stroke-width: 1.0;"/><text fill="#000000" font-family="sans-serif" font-size="11" lengthAdjust="spacingAndGlyphs" textLength="116" x="279.5" y="672.2808">deepHashCode(): int</text><ellipse cx="270.5" cy="682.7773" fill="#84BE84" rx="3" ry="3" style="stroke: #038048; stroke-width: 1.0;"/><text fill="#000000" font-family="sans-serif" font-size="11" lengthAdjust="spacingAndGlyphs" textLength="153" x="279.5" y="685.0854">findCreated(): Set&lt;String&gt;</text><ellipse cx="270.5" cy="695.582" fill="#84BE84" rx="3" ry="3" style="stroke: #038048; stroke-width: 1.0;"/><text fill="#000000" font-family="sans-serif" font-size="11" lengthAdjust="spacingAndGlyphs" textLength="185" x="279.5" y="697.8901">actionPerformed(WikiEvent): void</text></a><!--class org.apache.wiki.api.filters.PageFilter--><rect fill="#FEFECE" filter="url(#f1ffuegiar9wpl)" height="60.8047" id="org.apache.wiki.api.filters.PageFilter" style="stroke: #A80036; stroke-width: 1.5;" width="216" x="499" y="43"/><ellipse cx="571.75" cy="59" fill="#B4A7E5" rx="11" ry="11" style="stroke: #A80036; stroke-width: 1.0;"/><path d="M567.6719,54.7656 L567.6719,52.6094 L575.0625,52.6094 L575.0625,54.7656 L572.5938,54.7656 L572.5938,62.8438 L575.0625,62.8438 L575.0625,65 L567.6719,65 L567.6719,62.8438 L570.1406,62.8438 L570.1406,54.7656 L567.6719,54.7656 Z "/><text fill="#000000" font-family="sans-serif" font-size="12" font-style="italic" lengthAdjust="spacingAndGlyphs" textLength="62" x="592.25" y="63.1543">PageFilter</text><line style="stroke: #A80036; stroke-width: 1.5;" x1="500" x2="714" y1="75" y2="75"/><line style="stroke: #A80036; stroke-width: 1.5;" x1="500" x2="714" y1="83" y2="83"/><ellipse cx="510" cy="94.9023" fill="#84BE84" rx="3" ry="3" style="stroke: #038048; stroke-width: 1.0;"/><text fill="#000000" font-family="sans-serif" font-size="11" font-style="italic" lengthAdjust="spacingAndGlyphs" textLength="190" x="519" y="97.2104">initialize(Engine, Properties): void</text><!--class org.apache.wiki.api.filters.BasePageFilter--><rect fill="#FEFECE" filter="url(#f1ffuegiar9wpl)" height="48" id="org.apache.wiki.api.filters.BasePageFilter" style="stroke: #A80036; stroke-width: 1.5;" width="126" x="750" y="49.5"/><ellipse cx="765" cy="65.5" fill="#ADD1B2" rx="11" ry="11" style="stroke: #A80036; stroke-width: 1.0;"/><path d="M767.9688,71.1406 Q767.3906,71.4375 766.75,71.5859 Q766.1094,71.7344 765.4063,71.7344 Q762.9063,71.7344 761.5859,70.0859 Q760.2656,68.4375 760.2656,65.3125 Q760.2656,62.1875 761.5859,60.5313 Q762.9063,58.875 765.4063,58.875 Q766.1094,58.875 766.7578,59.0313 Q767.4063,59.1875 767.9688,59.4844 L767.9688,62.2031 Q767.3438,61.625 766.75,61.3516 Q766.1563,61.0781 765.5313,61.0781 Q764.1875,61.0781 763.5,62.1484 Q762.8125,63.2188 762.8125,65.3125 Q762.8125,67.4063 763.5,68.4766 Q764.1875,69.5469 765.5313,69.5469 Q766.1563,69.5469 766.75,69.2734 Q767.3438,69 767.9688,68.4219 L767.9688,71.1406 Z "/><text fill="#000000" font-family="sans-serif" font-size="12" lengthAdjust="spacingAndGlyphs" textLength="94" x="779" y="69.6543">BasePageFilter</text><line style="stroke: #A80036; stroke-width: 1.5;" x1="751" x2="875" y1="81.5" y2="81.5"/><line style="stroke: #A80036; stroke-width: 1.5;" x1="751" x2="875" y1="89.5" y2="89.5"/><!--class org.apache.wiki.modules.InternalModule--><rect fill="#FEFECE" filter="url(#f1ffuegiar9wpl)" height="48" id="org.apache.wiki.modules.InternalModule" style="stroke: #A80036; stroke-width: 1.5;" width="126" x="87" y="49.5"/><ellipse cx="102" cy="65.5" fill="#B4A7E5" rx="11" ry="11" style="stroke: #A80036; stroke-width: 1.0;"/><path d="M97.9219,61.2656 L97.9219,59.1094 L105.3125,59.1094 L105.3125,61.2656 L102.8438,61.2656 L102.8438,69.3438 L105.3125,69.3438 L105.3125,71.5 L97.9219,71.5 L97.9219,69.3438 L100.3906,69.3438 L100.3906,61.2656 L97.9219,61.2656 Z "/><text fill="#000000" font-family="sans-serif" font-size="12" font-style="italic" lengthAdjust="spacingAndGlyphs" textLength="94" x="116" y="69.6543">InternalModule</text><line style="stroke: #A80036; stroke-width: 1.5;" x1="88" x2="212" y1="81.5" y2="81.5"/><line style="stroke: #A80036; stroke-width: 1.5;" x1="88" x2="212" y1="89.5" y2="89.5"/><!--class org.apache.wiki.event.WikiEventListener--><rect fill="#FEFECE" filter="url(#f1ffuegiar9wpl)" height="60.8047" id="org.apache.wiki.event.WikiEventListener" style="stroke: #A80036; stroke-width: 1.5;" width="215" x="248.5" y="43"/><ellipse cx="296.75" cy="59" fill="#B4A7E5" rx="11" ry="11" style="stroke: #A80036; stroke-width: 1.0;"/><path d="M292.6719,54.7656 L292.6719,52.6094 L300.0625,52.6094 L300.0625,54.7656 L297.5938,54.7656 L297.5938,62.8438 L300.0625,62.8438 L300.0625,65 L292.6719,65 L292.6719,62.8438 L295.1406,62.8438 L295.1406,54.7656 L292.6719,54.7656 Z "/><text fill="#000000" font-family="sans-serif" font-size="12" font-style="italic" lengthAdjust="spacingAndGlyphs" textLength="110" x="317.25" y="63.1543">WikiEventListener</text><line style="stroke: #A80036; stroke-width: 1.5;" x1="249.5" x2="462.5" y1="75" y2="75"/><line style="stroke: #A80036; stroke-width: 1.5;" x1="249.5" x2="462.5" y1="83" y2="83"/><ellipse cx="259.5" cy="94.9023" fill="#84BE84" rx="3" ry="3" style="stroke: #038048; stroke-width: 1.0;"/><text fill="#000000" font-family="sans-serif" font-size="11" font-style="italic" lengthAdjust="spacingAndGlyphs" textLength="189" x="268.5" y="97.2104">actionPerformed(WikiEvent): void</text><!--link org.apache.wiki.api.filters.PageFilter to org.apache.wiki.references.ReferenceManager--><path d="M562.0566,118.7982 C548.4892,132.4727 533.0151,148.069 517.3465,163.8613 " fill="none" id="org.apache.wiki.api.filters.PageFilter-org.apache.wiki.references.ReferenceManager" style="stroke: #A80036; stroke-width: 1.0; stroke-dasharray: 7.0,7.0;"/><polygon fill="none" points="557.4176,113.5352,576.4732,104.2678,567.3559,123.3957,557.4176,113.5352" style="stroke: #A80036; stroke-width: 1.0;"/><!--link org.apache.wiki.modules.InternalModule to org.apache.wiki.references.ReferenceManager--><path d="M199.9539,109.3284 C221.866,125.0443 248.7989,144.3614 276.1447,163.9746 " fill="none" id="org.apache.wiki.modules.InternalModule-org.apache.wiki.references.ReferenceManager" style="stroke: #A80036; stroke-width: 1.0; stroke-dasharray: 7.0,7.0;"/><polygon fill="none" points="195.7177,114.9044,183.5454,97.5597,203.8772,103.5279,195.7177,114.9044" style="stroke: #A80036; stroke-width: 1.0;"/><!--link org.apache.wiki.event.WikiEventListener to org.apache.wiki.references.ReferenceManager--><path d="M371.9996,123.7282 C375.9611,136.1649 380.348,149.9369 384.7835,163.8613 " fill="none" id="org.apache.wiki.event.WikiEventListener-org.apache.wiki.references.ReferenceManager" style="stroke: #A80036; stroke-width: 1.0; stroke-dasharray: 7.0,7.0;"/><polygon fill="none" points="365.2012,125.449,365.8007,104.2678,378.5408,121.1997,365.2012,125.449" style="stroke: #A80036; stroke-width: 1.0;"/><!--link org.apache.wiki.api.filters.BasePageFilter to org.apache.wiki.references.DefaultReferenceManager--><path d="M783.8449,114.2779 C742.5953,171.4977 664.2681,278.4241 593,366 C577.0283,385.6264 559.8418,406.005 542.6997,425.9067 " fill="none" id="org.apache.wiki.api.filters.BasePageFilter-org.apache.wiki.references.DefaultReferenceManager" style="stroke: #A80036; stroke-width: 1.0;"/><polygon fill="none" points="778.2863,110.0178,795.6432,97.863,789.6545,118.1888,778.2863,110.0178" style="stroke: #A80036; stroke-width: 1.0;"/><!--link org.apache.wiki.references.ReferenceManager to org.apache.wiki.references.DefaultReferenceManager--><path d="M417.4045,386.3368 C417.4479,399.3794 417.4924,412.7223 417.5365,425.9511 " fill="none" id="org.apache.wiki.references.ReferenceManager-org.apache.wiki.references.DefaultReferenceManager" style="stroke: #A80036; stroke-width: 1.0; stroke-dasharray: 7.0,7.0;"/><polygon fill="none" points="410.404,386.1713,417.3372,366.1481,424.4039,386.1246,410.404,386.1713" style="stroke: #A80036; stroke-width: 1.0;"/><text fill="#888888" font-family="sans-serif" font-size="10" lengthAdjust="spacingAndGlyphs" textLength="186" x="362" y="739.2822">UMLDoclet 1.1.4, PlantUML 1.2019.05</text><!--
@startuml

    namespace org.apache.wiki.references {

        interface ReferenceManager [[ReferenceManager.html]] {
            {abstract} +initialize(Collection<Page>): void
            {abstract} +scanWikiLinks(Page, String): Collection<String>
            {abstract} +pageRemoved(Page): void
            {abstract} +updateReferences(Page): void
            {abstract} +updateReferences(String, Collection<String>): void
            {abstract} +clearPageEntries(String): void
            {abstract} +findUnreferenced(): Collection<String>
            {abstract} +findUncreated(): Collection<String>
            {abstract} +findReferrers(String): Set<String>
            {abstract} +findReferredBy(String): Set<String>
            {abstract} +findRefersTo(String): Collection<String>
            {abstract} +findCreated(): Set<String>
        }

        class DefaultReferenceManager [[DefaultReferenceManager.html]] {
            +DefaultReferenceManager(Engine)
            +initialize(Collection<Page>): void
            +postSave(Context, String): void
            +scanWikiLinks(Page, String): Collection<String>
            +pageRemoved(Page): void
            +updateReferences(Page): void
            +updateReferences(String, Collection<String>): void
            #getRefersTo(): Map<String, Collection<String>>
            #getReferredBy(): Map<String, Set<String>>
            +clearPageEntries(String): void
            +findUnreferenced(): Collection<String>
            +findUncreated(): Collection<String>
            +findReferrers(String): Set<String>
            +findReferredBy(String): Set<String>
            +findRefersTo(String): Collection<String>
            +deepHashCode(): int
            +findCreated(): Set<String>
            +actionPerformed(WikiEvent): void
        }

        interface org.apache.wiki.api.filters.PageFilter {
            {abstract} +initialize(Engine, Properties): void
        }
        org.apache.wiki.api.filters.PageFilter <|.. ReferenceManager

        interface org.apache.wiki.modules.InternalModule
        org.apache.wiki.modules.InternalModule <|.. ReferenceManager

        interface org.apache.wiki.event.WikiEventListener {
            {abstract} +actionPerformed(WikiEvent): void
        }
        org.apache.wiki.event.WikiEventListener <|.. ReferenceManager

        class org.apache.wiki.api.filters.BasePageFilter
        org.apache.wiki.api.filters.BasePageFilter <|- - DefaultReferenceManager

        ReferenceManager <|.. DefaultReferenceManager

    }


    center footer UMLDoclet 1.1.4, PlantUML 1.2019.05
@enduml

PlantUML version 1.2019.05(Sat Apr 20 16:45:36 UTC 2019)
(APACHE source distribution)
Java Runtime: Java(TM) SE Runtime Environment
JVM: Java HotSpot(TM) 64-Bit Server VM
Java Version: 1.8.0_241-b07
Operating System: Linux
OS Version: 4.15.0-74-generic
Default Encoding: ISO-8859-1
Language: en
Country: US
--></g></svg>