<?xml version="1.0" encoding="UTF-8" standalone="no"?><svg xmlns="http://www.w3.org/2000/svg" xmlns:xlink="http://www.w3.org/1999/xlink" contentScriptType="application/ecmascript" contentStyleType="text/css" height="190px" preserveAspectRatio="none" style="width:400px;height:190px;" version="1.1" viewBox="0 0 400 190" width="400px" zoomAndPan="magnify"><defs><filter height="300%" id="fowo2wmedw515" width="300%" x="-1" y="-1"><feGaussianBlur result="blurOut" stdDeviation="2.0"/><feColorMatrix in="blurOut" result="blurOut2" type="matrix" values="0 0 0 0 0 0 0 0 0 0 0 0 0 0 0 0 0 0 .4 0"/><feOffset dx="4.0" dy="4.0" in="blurOut2" result="blurOut3"/><feBlend in="SourceGraphic" in2="blurOut3" mode="normal"/></filter></defs><g><!--class DefaultCommandResolver--><a href="DefaultCommandResolver.html" target="_top" xlink:actuate="onRequest" xlink:show="new" xlink:title="DefaultCommandResolver.html" xlink:type="simple"><rect fill="#FEFECE" filter="url(#fowo2wmedw515)" height="150.4375" id="DefaultCommandResolver" style="stroke: #A80036; stroke-width: 1.5;" width="383" x="6" y="8"/><ellipse cx="113.25" cy="24" fill="#ADD1B2" rx="11" ry="11" style="stroke: #A80036; stroke-width: 1.0;"/><path d="M116.2188,29.6406 Q115.6406,29.9375 115,30.0781 Q114.3594,30.2344 113.6563,30.2344 Q111.1563,30.2344 109.8281,28.5938 Q108.5156,26.9375 108.5156,23.8125 Q108.5156,20.6875 109.8281,19.0313 Q111.1563,17.375 113.6563,17.375 Q114.3594,17.375 115,17.5313 Q115.6563,17.6875 116.2188,17.9844 L116.2188,20.7031 Q115.5938,20.125 115,19.8594 Q114.4063,19.5781 113.7813,19.5781 Q112.4375,19.5781 111.75,20.6563 Q111.0625,21.7188 111.0625,23.8125 Q111.0625,25.9063 111.75,26.9844 Q112.4375,28.0469 113.7813,28.0469 Q114.4063,28.0469 115,27.7813 Q115.5938,27.5 116.2188,26.9219 L116.2188,29.6406 Z "/><text fill="#000000" font-family="sans-serif" font-size="12" lengthAdjust="spacingAndGlyphs" textLength="160" x="133.75" y="28.1543">DefaultCommandResolver</text><line style="stroke: #A80036; stroke-width: 1.5;" x1="7" x2="388" y1="40" y2="40"/><line style="stroke: #A80036; stroke-width: 1.5;" x1="7" x2="388" y1="48" y2="48"/><ellipse cx="17" cy="59.9023" fill="#84BE84" rx="3" ry="3" style="stroke: #038048; stroke-width: 1.0;"/><text fill="#000000" font-family="sans-serif" font-size="11" lengthAdjust="spacingAndGlyphs" textLength="260" x="26" y="62.2104">DefaultCommandResolver(Engine, Properties)</text><ellipse cx="17" cy="72.707" fill="#84BE84" rx="3" ry="3" style="stroke: #038048; stroke-width: 1.0;"/><text fill="#000000" font-family="sans-serif" font-size="11" lengthAdjust="spacingAndGlyphs" textLength="304" x="26" y="75.0151">findCommand(HttpServletRequest, String): Command</text><ellipse cx="17" cy="85.5117" fill="#84BE84" rx="3" ry="3" style="stroke: #038048; stroke-width: 1.0;"/><text fill="#000000" font-family="sans-serif" font-size="11" lengthAdjust="spacingAndGlyphs" textLength="189" x="26" y="87.8198">getFinalPageName(String): String</text><ellipse cx="17" cy="98.3164" fill="#84BE84" rx="3" ry="3" style="stroke: #038048; stroke-width: 1.0;"/><text fill="#000000" font-family="sans-serif" font-size="11" lengthAdjust="spacingAndGlyphs" textLength="228" x="26" y="100.6245">getSpecialPageReference(String): String</text><polygon fill="#FFFF44" points="17,106.1211,21,110.1211,17,114.1211,13,110.1211" style="stroke: #B38D22; stroke-width: 1.0;"/><text fill="#000000" font-family="sans-serif" font-size="11" lengthAdjust="spacingAndGlyphs" textLength="334" x="26" y="113.4292">extractCommandFromPath(HttpServletRequest): Command</text><ellipse cx="17" cy="123.9258" fill="#84BE84" rx="3" ry="3" style="stroke: #038048; stroke-width: 1.0;"/><text fill="#000000" font-family="sans-serif" font-size="11" lengthAdjust="spacingAndGlyphs" textLength="357" x="26" y="126.2339">extractPageFromParameter(String, HttpServletRequest): String</text><ellipse cx="17" cy="136.7305" fill="#84BE84" rx="3" ry="3" style="stroke: #038048; stroke-width: 1.0;"/><text fill="#000000" font-family="sans-serif" font-size="11" lengthAdjust="spacingAndGlyphs" textLength="265" x="26" y="139.0386">resolvePage(HttpServletRequest, String): Page</text><polygon fill="#FFFF44" points="17,144.5352,21,148.5352,17,152.5352,13,148.5352" style="stroke: #B38D22; stroke-width: 1.0;"/><text fill="#000000" font-family="sans-serif" font-size="11" lengthAdjust="spacingAndGlyphs" textLength="195" x="26" y="151.8433">simplePageExists(String): boolean</text></a><text fill="#888888" font-family="sans-serif" font-size="10" lengthAdjust="spacingAndGlyphs" textLength="186" x="110.5" y="177.2822">UMLDoclet 1.1.4, PlantUML 1.2019.05</text><!--
@startuml

    class DefaultCommandResolver [[DefaultCommandResolver.html]] {
        +DefaultCommandResolver(Engine, Properties)
        +findCommand(HttpServletRequest, String): Command
        +getFinalPageName(String): String
        +getSpecialPageReference(String): String
        #extractCommandFromPath(HttpServletRequest): Command
        +extractPageFromParameter(String, HttpServletRequest): String
        +resolvePage(HttpServletRequest, String): Page
        #simplePageExists(String): boolean
    }


    center footer UMLDoclet 1.1.4, PlantUML 1.2019.05
@enduml

PlantUML version 1.2019.05(Sat Apr 20 16:45:36 UTC 2019)
(APACHE source distribution)
Java Runtime: OpenJDK Runtime Environment
JVM: OpenJDK 64-Bit Server VM
Java Version: 1.8.0_252-b09
Operating System: Linux
OS Version: 4.15.0-74-generic
Default Encoding: ISO-8859-1
Language: en
Country: US
--></g></svg>