<?xml version="1.0" encoding="UTF-8" standalone="no"?><svg xmlns="http://www.w3.org/2000/svg" xmlns:xlink="http://www.w3.org/1999/xlink" contentScriptType="application/ecmascript" contentStyleType="text/css" height="155px" preserveAspectRatio="none" style="width:230px;height:155px;" version="1.1" viewBox="0 0 230 155" width="230px" zoomAndPan="magnify"><defs><filter height="300%" id="f14v401g0if2rl" width="300%" x="-1" y="-1"><feGaussianBlur result="blurOut" stdDeviation="2.0"/><feColorMatrix in="blurOut" result="blurOut2" type="matrix" values="0 0 0 0 0 0 0 0 0 0 0 0 0 0 0 0 0 0 .4 0"/><feOffset dx="4.0" dy="4.0" in="blurOut2" result="blurOut3"/><feBlend in="SourceGraphic" in2="blurOut3" mode="normal"/></filter></defs><g><!--cluster BasicAttachmentProvider--><polygon fill="#FFFFFF" filter="url(#f14v401g0if2rl)" points="14,16,198,16,205,39.6094,208,39.6094,208,114,14,114,14,16" style="stroke: #000000; stroke-width: 1.5;"/><line style="stroke: #000000; stroke-width: 1.5;" x1="14" x2="205" y1="39.6094" y2="39.6094"/><text fill="#000000" font-family="sans-serif" font-size="14" font-weight="bold" lengthAdjust="spacingAndGlyphs" textLength="178" x="18" y="32.5332">BasicAttachmentProvider</text><!--class BasicAttachmentProvider.AttachmentVersionFilter--><a href="BasicAttachmentProvider.AttachmentVersionFilter.html" target="_top" xlink:actuate="onRequest" xlink:show="new" xlink:title="BasicAttachmentProvider.AttachmentVersionFilter.html" xlink:type="simple"><rect fill="#FEFECE" filter="url(#f14v401g0if2rl)" height="61.8359" id="BasicAttachmentProvider.AttachmentVersionFilter" style="stroke: #A80036; stroke-width: 1.5;" width="162" x="30" y="44"/><ellipse cx="45" cy="60" fill="#ADD1B2" rx="11" ry="11" style="stroke: #A80036; stroke-width: 1.0;"/><path d="M47.7656,55.875 Q47.9219,55.6563 48.1094,55.5469 Q48.2969,55.4375 48.5156,55.4375 Q48.8906,55.4375 49.125,55.6953 Q49.3594,55.9531 49.3594,56.5625 L49.3594,58.0156 Q49.3594,58.625 49.125,58.8906 Q48.8906,59.1563 48.5156,59.1563 Q48.1719,59.1563 47.9688,58.9531 Q47.7656,58.7656 47.6563,58.25 Q47.6094,57.8906 47.4219,57.7031 Q47.0938,57.3281 46.4844,57.1094 Q45.875,56.8906 45.25,56.8906 Q44.4844,56.8906 43.8516,57.2188 Q43.2188,57.5469 42.7266,58.2969 Q42.2344,59.0469 42.2344,60.0781 L42.2344,61.1719 Q42.2344,62.4063 43.125,63.2266 Q44.0156,64.0469 45.6094,64.0469 Q46.5469,64.0469 47.2031,63.7969 Q47.5938,63.6406 48.0156,63.2031 Q48.2813,62.9375 48.4297,62.8594 Q48.5781,62.7813 48.7813,62.7813 Q49.1094,62.7813 49.3672,63.0391 Q49.625,63.2969 49.625,63.6406 Q49.625,63.9844 49.2813,64.3906 Q48.7813,64.9688 47.9844,65.2969 Q46.9063,65.75 45.6094,65.75 Q44.0938,65.75 42.8906,65.125 Q41.9063,64.625 41.2188,63.5547 Q40.5313,62.4844 40.5313,61.2031 L40.5313,60.0469 Q40.5313,58.7188 41.1484,57.5703 Q41.7656,56.4219 42.8594,55.8047 Q43.9531,55.1875 45.1875,55.1875 Q45.9219,55.1875 46.5703,55.3516 Q47.2188,55.5156 47.7656,55.875 Z "/><text fill="#000000" font-family="sans-serif" font-size="12" lengthAdjust="spacingAndGlyphs" textLength="130" x="59" y="64.9102">AttachmentVersionFilter</text><line style="stroke: #A80036; stroke-width: 1.5;" x1="31" x2="191" y1="76" y2="76"/><line style="stroke: #A80036; stroke-width: 1.5;" x1="31" x2="191" y1="84" y2="84"/><ellipse cx="41" cy="96.418" fill="#84BE84" rx="3" ry="3" style="stroke: #038048; stroke-width: 1.0;"/><text fill="#000000" font-family="sans-serif" font-size="11" lengthAdjust="spacingAndGlyphs" textLength="135" x="50" y="99.4189">accept(File, String): boolean</text></a><text fill="#888888" font-family="sans-serif" font-size="10" lengthAdjust="spacingAndGlyphs" textLength="184" x="25" y="142.3809">UMLDoclet 1.1.4, PlantUML 1.2019.05</text><!--
@startuml

    class BasicAttachmentProvider.AttachmentVersionFilter [[BasicAttachmentProvider.AttachmentVersionFilter.html]] {
        +accept(File, String): boolean
    }


    center footer UMLDoclet 1.1.4, PlantUML 1.2019.05
@enduml

PlantUML version 1.2019.05(Sat Apr 20 18:45:36 CEST 2019)
(APACHE source distribution)
Java Runtime: OpenJDK Runtime Environment
JVM: OpenJDK 64-Bit Server VM
Java Version: 1.8.0_212-b03
Operating System: Windows 10
OS Version: 10.0
Default Encoding: Cp1252
Language: es
Country: ES
--></g></svg>