<?xml version="1.0" encoding="UTF-8" standalone="no"?><svg xmlns="http://www.w3.org/2000/svg" xmlns:xlink="http://www.w3.org/1999/xlink" contentScriptType="application/ecmascript" contentStyleType="text/css" height="418px" preserveAspectRatio="none" style="width:3611px;height:418px;background:#FFFFFF;" version="1.1" viewBox="0 0 3611 418" width="3611px" zoomAndPan="magnify"><defs><filter height="300%" id="f1389gzbwu9j3v" width="300%" x="-1" y="-1"><feGaussianBlur result="blurOut" stdDeviation="2.0"/><feColorMatrix in="blurOut" result="blurOut2" type="matrix" values="0 0 0 0 0 0 0 0 0 0 0 0 0 0 0 0 0 0 .4 0"/><feOffset dx="4.0" dy="4.0" in="blurOut2" result="blurOut3"/><feBlend in="SourceGraphic" in2="blurOut3" mode="normal"/></filter></defs><g><!--MD5=[dfaafc7932285f4cf5c29f79a5563992]
cluster org.apache.wiki.markdown.extensions.jspwikilinks.attributeprovider--><polygon fill="#FFFFFF" filter="url(#f1389gzbwu9j3v)" points="16,127,562,127,569,149.2969,3594,149.2969,3594,395,16,395,16,127" style="stroke:#000000;stroke-width:1.5;"/><line style="stroke:#000000;stroke-width:1.5;" x1="16" x2="569" y1="149.2969" y2="149.2969"/><text fill="#000000" font-family="sans-serif" font-size="14" font-weight="bold" lengthAdjust="spacing" textLength="540" x="20" y="141.9951">org.apache.wiki.markdown.extensions.jspwikilinks.attributeprovider</text><!--MD5=[a81de2553a89e9ee3aa41b3837eb6c94]
cluster com.vladsch.flexmark.html--><polygon fill="#FFFFFF" filter="url(#f1389gzbwu9j3v)" points="2315,6,2531,6,2538,28.2969,3003,28.2969,3003,102,2315,102,2315,6" style="stroke:#000000;stroke-width:1.5;"/><line style="stroke:#000000;stroke-width:1.5;" x1="2315" x2="2538" y1="28.2969" y2="28.2969"/><text fill="#000000" font-family="sans-serif" font-size="14" font-weight="bold" lengthAdjust="spacing" textLength="210" x="2319" y="20.9951">com.vladsch.flexmark.html</text><!--MD5=[d0e900d4d973637a69a52f97c4fbfae8]
class org.apache.wiki.markdown.extensions.jspwikilinks.attributeprovider.ImageLinkAttributeProviderState--><a href="ImageLinkAttributeProviderState.html" target="_top" title="ImageLinkAttributeProviderState.html" xlink:actuate="onRequest" xlink:href="ImageLinkAttributeProviderState.html" xlink:show="new" xlink:title="ImageLinkAttributeProviderState.html" xlink:type="simple"><rect codeLine="3" fill="#FEFECE" filter="url(#f1389gzbwu9j3v)" height="73.6094" id="org.apache.wiki.markdown.extensions.jspwikilinks.attributeprovider.ImageLinkAttributeProviderState" style="stroke:#A80036;stroke-width:1.5;" width="354" x="24" y="313"/><ellipse cx="95.75" cy="329" fill="#ADD1B2" rx="11" ry="11" style="stroke:#A80036;stroke-width:1.0;"/><path d="M98.7188,334.6406 Q98.1406,334.9375 97.5,335.0781 Q96.8594,335.2344 96.1563,335.2344 Q93.6563,335.2344 92.3281,333.5938 Q91.0156,331.9375 91.0156,328.8125 Q91.0156,325.6875 92.3281,324.0313 Q93.6563,322.375 96.1563,322.375 Q96.8594,322.375 97.5,322.5313 Q98.1563,322.6875 98.7188,322.9844 L98.7188,325.7031 Q98.0938,325.125 97.5,324.8594 Q96.9063,324.5781 96.2813,324.5781 Q94.9375,324.5781 94.25,325.6563 Q93.5625,326.7188 93.5625,328.8125 Q93.5625,330.9063 94.25,331.9844 Q94.9375,333.0469 96.2813,333.0469 Q96.9063,333.0469 97.5,332.7813 Q98.0938,332.5 98.7188,331.9219 L98.7188,334.6406 Z " fill="#000000"/><text fill="#000000" font-family="sans-serif" font-size="12" lengthAdjust="spacing" textLength="202" x="116.25" y="333.1543">ImageLinkAttributeProviderState</text><line style="stroke:#A80036;stroke-width:1.5;" x1="25" x2="377" y1="345" y2="345"/><line style="stroke:#A80036;stroke-width:1.5;" x1="25" x2="377" y1="353" y2="353"/><ellipse cx="35" cy="364" fill="#84BE84" rx="3" ry="3" style="stroke:#038048;stroke-width:1.0;"/><text fill="#000000" font-family="sans-serif" font-size="11" lengthAdjust="spacing" textLength="328" x="44" y="367.2104">ImageLinkAttributeProviderState(Context, String, boolean)</text><ellipse cx="35" cy="376.8047" fill="#84BE84" rx="3" ry="3" style="stroke:#038048;stroke-width:1.0;"/><text fill="#000000" font-family="sans-serif" font-size="11" lengthAdjust="spacing" textLength="280" x="44" y="380.0151">setAttributes(MutableAttributes, JSPWikiLink): void</text></a><!--MD5=[09c4e4ce9dc38d033ad9233c0b9e36c2]
class org.apache.wiki.markdown.extensions.jspwikilinks.attributeprovider.JSPWikiLinkAttributeProviderFactory--><a href="JSPWikiLinkAttributeProviderFactory.html" target="_top" title="JSPWikiLinkAttributeProviderFactory.html" xlink:actuate="onRequest" xlink:href="JSPWikiLinkAttributeProviderFactory.html" xlink:show="new" xlink:title="JSPWikiLinkAttributeProviderFactory.html" xlink:type="simple"><rect codeLine="8" fill="#FEFECE" filter="url(#f1389gzbwu9j3v)" height="73.6094" id="org.apache.wiki.markdown.extensions.jspwikilinks.attributeprovider.JSPWikiLinkAttributeProviderFactory" style="stroke:#A80036;stroke-width:1.5;" width="414" x="2693" y="166.5"/><ellipse cx="2786.25" cy="182.5" fill="#ADD1B2" rx="11" ry="11" style="stroke:#A80036;stroke-width:1.0;"/><path d="M2789.2188,188.1406 Q2788.6406,188.4375 2788,188.5781 Q2787.3594,188.7344 2786.6563,188.7344 Q2784.1563,188.7344 2782.8281,187.0938 Q2781.5156,185.4375 2781.5156,182.3125 Q2781.5156,179.1875 2782.8281,177.5313 Q2784.1563,175.875 2786.6563,175.875 Q2787.3594,175.875 2788,176.0313 Q2788.6563,176.1875 2789.2188,176.4844 L2789.2188,179.2031 Q2788.5938,178.625 2788,178.3594 Q2787.4063,178.0781 2786.7813,178.0781 Q2785.4375,178.0781 2784.75,179.1563 Q2784.0625,180.2188 2784.0625,182.3125 Q2784.0625,184.4063 2784.75,185.4844 Q2785.4375,186.5469 2786.7813,186.5469 Q2787.4063,186.5469 2788,186.2813 Q2788.5938,186 2789.2188,185.4219 L2789.2188,188.1406 Z " fill="#000000"/><text fill="#000000" font-family="sans-serif" font-size="12" lengthAdjust="spacing" textLength="219" x="2806.75" y="186.6543">JSPWikiLinkAttributeProviderFactory</text><line style="stroke:#A80036;stroke-width:1.5;" x1="2694" x2="3106" y1="198.5" y2="198.5"/><line style="stroke:#A80036;stroke-width:1.5;" x1="2694" x2="3106" y1="206.5" y2="206.5"/><ellipse cx="2704" cy="217.5" fill="#84BE84" rx="3" ry="3" style="stroke:#038048;stroke-width:1.0;"/><text fill="#000000" font-family="sans-serif" font-size="11" lengthAdjust="spacing" textLength="388" x="2713" y="220.7104">JSPWikiLinkAttributeProviderFactory(Context, boolean, List&lt;Pattern&gt;)</text><ellipse cx="2704" cy="230.3047" fill="#84BE84" rx="3" ry="3" style="stroke:#038048;stroke-width:1.0;"/><text fill="#000000" font-family="sans-serif" font-size="11" lengthAdjust="spacing" textLength="255" x="2713" y="233.5151">apply(LinkResolverContext): AttributeProvider</text></a><!--MD5=[f4465cf4658ba3dde8da15ef592a3d36]
class org.apache.wiki.markdown.extensions.jspwikilinks.attributeprovider.JSPWikiLinkAttributeProvider--><a href="JSPWikiLinkAttributeProvider.html" target="_top" title="JSPWikiLinkAttributeProvider.html" xlink:actuate="onRequest" xlink:href="JSPWikiLinkAttributeProvider.html" xlink:show="new" xlink:title="JSPWikiLinkAttributeProvider.html" xlink:type="simple"><rect codeLine="13" fill="#FEFECE" filter="url(#f1389gzbwu9j3v)" height="99.2188" id="org.apache.wiki.markdown.extensions.jspwikilinks.attributeprovider.JSPWikiLinkAttributeProvider" style="stroke:#A80036;stroke-width:1.5;" width="373" x="2284.5" y="154"/><ellipse cx="2380.25" cy="170" fill="#ADD1B2" rx="11" ry="11" style="stroke:#A80036;stroke-width:1.0;"/><path d="M2383.2188,175.6406 Q2382.6406,175.9375 2382,176.0781 Q2381.3594,176.2344 2380.6563,176.2344 Q2378.1563,176.2344 2376.8281,174.5938 Q2375.5156,172.9375 2375.5156,169.8125 Q2375.5156,166.6875 2376.8281,165.0313 Q2378.1563,163.375 2380.6563,163.375 Q2381.3594,163.375 2382,163.5313 Q2382.6563,163.6875 2383.2188,163.9844 L2383.2188,166.7031 Q2382.5938,166.125 2382,165.8594 Q2381.4063,165.5781 2380.7813,165.5781 Q2379.4375,165.5781 2378.75,166.6563 Q2378.0625,167.7188 2378.0625,169.8125 Q2378.0625,171.9063 2378.75,172.9844 Q2379.4375,174.0469 2380.7813,174.0469 Q2381.4063,174.0469 2382,173.7813 Q2382.5938,173.5 2383.2188,172.9219 L2383.2188,175.6406 Z " fill="#000000"/><text fill="#000000" font-family="sans-serif" font-size="12" lengthAdjust="spacing" textLength="173" x="2400.75" y="174.1543">JSPWikiLinkAttributeProvider</text><line style="stroke:#A80036;stroke-width:1.5;" x1="2285.5" x2="2656.5" y1="186" y2="186"/><polygon fill="none" points="2295.5,192,2299.5,196,2295.5,200,2291.5,196" style="stroke:#B38D22;stroke-width:1.0;"/><text fill="#000000" font-family="sans-serif" font-size="11" lengthAdjust="spacing" textLength="115" x="2304.5" y="200.2104">wikiContext: Context</text><polygon fill="none" points="2295.5,204.8047,2299.5,208.8047,2295.5,212.8047,2291.5,208.8047" style="stroke:#B38D22;stroke-width:1.0;"/><text fill="#000000" font-family="sans-serif" font-size="11" lengthAdjust="spacing" textLength="218" x="2304.5" y="213.0151">linkOperations: LinkParsingOperations</text><line style="stroke:#A80036;stroke-width:1.5;" x1="2285.5" x2="2656.5" y1="219.6094" y2="219.6094"/><ellipse cx="2295.5" cy="230.6094" fill="#84BE84" rx="3" ry="3" style="stroke:#038048;stroke-width:1.0;"/><text fill="#000000" font-family="sans-serif" font-size="11" lengthAdjust="spacing" textLength="347" x="2304.5" y="233.8198">JSPWikiLinkAttributeProvider(Context, boolean, List&lt;Pattern&gt;)</text><ellipse cx="2295.5" cy="243.4141" fill="#84BE84" rx="3" ry="3" style="stroke:#038048;stroke-width:1.0;"/><text fill="#000000" font-family="sans-serif" font-size="11" lengthAdjust="spacing" textLength="344" x="2304.5" y="246.6245">setAttributes(Node, AttributablePart, MutableAttributes): void</text></a><!--MD5=[751b0be4d35478110504cf058ab088e7]
class org.apache.wiki.markdown.extensions.jspwikilinks.attributeprovider.NodeAttributeProviderState--><a href="NodeAttributeProviderState.html" target="_top" title="NodeAttributeProviderState.html" xlink:actuate="onRequest" xlink:href="NodeAttributeProviderState.html" xlink:show="new" xlink:title="NodeAttributeProviderState.html" xlink:type="simple"><rect codeLine="20" fill="#FEFECE" filter="url(#f1389gzbwu9j3v)" height="60.8047" id="org.apache.wiki.markdown.extensions.jspwikilinks.attributeprovider.NodeAttributeProviderState" style="stroke:#A80036;stroke-width:1.5;" width="334" x="1436" y="173"/><ellipse cx="1463.6" cy="189" fill="#B4A7E5" rx="11" ry="11" style="stroke:#A80036;stroke-width:1.0;"/><path d="M1459.5219,184.7656 L1459.5219,182.6094 L1466.9125,182.6094 L1466.9125,184.7656 L1464.4438,184.7656 L1464.4438,192.8438 L1466.9125,192.8438 L1466.9125,195 L1459.5219,195 L1459.5219,192.8438 L1461.9906,192.8438 L1461.9906,184.7656 L1459.5219,184.7656 Z " fill="#000000"/><text fill="#000000" font-family="sans-serif" font-size="12" font-style="italic" lengthAdjust="spacing" textLength="172" x="1480.4" y="193.1543">NodeAttributeProviderState</text><rect fill="#FFFFFF" height="15.9688" style="stroke:#000000;stroke-width:1.0;stroke-dasharray:2.0,2.0;" width="100" x="1673" y="170"/><text fill="#000000" font-family="sans-serif" font-size="12" font-style="italic" lengthAdjust="spacing" textLength="98" x="1674" y="182.1387">T extends Node</text><line style="stroke:#A80036;stroke-width:1.5;" x1="1437" x2="1769" y1="205" y2="205"/><line style="stroke:#A80036;stroke-width:1.5;" x1="1437" x2="1769" y1="213" y2="213"/><ellipse cx="1447" cy="224" fill="#84BE84" rx="3" ry="3" style="stroke:#038048;stroke-width:1.0;"/><text fill="#000000" font-family="sans-serif" font-size="11" font-style="italic" lengthAdjust="spacing" textLength="308" x="1456" y="227.2104">setAttributes(MutableAttributes, T extends Node): void</text></a><!--MD5=[16927d18d6ca60be23bb1ab70fa18552]
class org.apache.wiki.markdown.extensions.jspwikilinks.attributeprovider.LocalReadLinkAttributeProviderState--><a href="LocalReadLinkAttributeProviderState.html" target="_top" title="LocalReadLinkAttributeProviderState.html" xlink:actuate="onRequest" xlink:href="LocalReadLinkAttributeProviderState.html" xlink:show="new" xlink:title="LocalReadLinkAttributeProviderState.html" xlink:type="simple"><rect codeLine="24" fill="#FEFECE" filter="url(#f1389gzbwu9j3v)" height="73.6094" id="org.apache.wiki.markdown.extensions.jspwikilinks.attributeprovider.LocalReadLinkAttributeProviderState" style="stroke:#A80036;stroke-width:1.5;" width="306" x="413" y="313"/><ellipse cx="448.7" cy="329" fill="#ADD1B2" rx="11" ry="11" style="stroke:#A80036;stroke-width:1.0;"/><path d="M451.6688,334.6406 Q451.0906,334.9375 450.45,335.0781 Q449.8094,335.2344 449.1063,335.2344 Q446.6063,335.2344 445.2781,333.5938 Q443.9656,331.9375 443.9656,328.8125 Q443.9656,325.6875 445.2781,324.0313 Q446.6063,322.375 449.1063,322.375 Q449.8094,322.375 450.45,322.5313 Q451.1063,322.6875 451.6688,322.9844 L451.6688,325.7031 Q451.0438,325.125 450.45,324.8594 Q449.8563,324.5781 449.2313,324.5781 Q447.8875,324.5781 447.2,325.6563 Q446.5125,326.7188 446.5125,328.8125 Q446.5125,330.9063 447.2,331.9844 Q447.8875,333.0469 449.2313,333.0469 Q449.8563,333.0469 450.45,332.7813 Q451.0438,332.5 451.6688,331.9219 L451.6688,334.6406 Z " fill="#000000"/><text fill="#000000" font-family="sans-serif" font-size="12" lengthAdjust="spacing" textLength="228" x="467.3" y="333.1543">LocalReadLinkAttributeProviderState</text><line style="stroke:#A80036;stroke-width:1.5;" x1="414" x2="718" y1="345" y2="345"/><line style="stroke:#A80036;stroke-width:1.5;" x1="414" x2="718" y1="353" y2="353"/><ellipse cx="424" cy="364" fill="#84BE84" rx="3" ry="3" style="stroke:#038048;stroke-width:1.0;"/><text fill="#000000" font-family="sans-serif" font-size="11" lengthAdjust="spacing" textLength="255" x="433" y="367.2104">LocalReadLinkAttributeProviderState(Context)</text><ellipse cx="424" cy="376.8047" fill="#84BE84" rx="3" ry="3" style="stroke:#038048;stroke-width:1.0;"/><text fill="#000000" font-family="sans-serif" font-size="11" lengthAdjust="spacing" textLength="280" x="433" y="380.0151">setAttributes(MutableAttributes, JSPWikiLink): void</text></a><!--MD5=[8a934b07a9213ba220109e16d2ff62ba]
class org.apache.wiki.markdown.extensions.jspwikilinks.attributeprovider.LocalFootnoteRefLinkAttributeProviderState--><a href="LocalFootnoteRefLinkAttributeProviderState.html" target="_top" title="LocalFootnoteRefLinkAttributeProviderState.html" xlink:actuate="onRequest" xlink:href="LocalFootnoteRefLinkAttributeProviderState.html" xlink:show="new" xlink:title="LocalFootnoteRefLinkAttributeProviderState.html" xlink:type="simple"><rect codeLine="29" fill="#FEFECE" filter="url(#f1389gzbwu9j3v)" height="73.6094" id="org.apache.wiki.markdown.extensions.jspwikilinks.attributeprovider.LocalFootnoteRefLinkAttributeProviderState" style="stroke:#A80036;stroke-width:1.5;" width="320" x="754" y="313"/><ellipse cx="775.75" cy="329" fill="#ADD1B2" rx="11" ry="11" style="stroke:#A80036;stroke-width:1.0;"/><path d="M778.7188,334.6406 Q778.1406,334.9375 777.5,335.0781 Q776.8594,335.2344 776.1563,335.2344 Q773.6563,335.2344 772.3281,333.5938 Q771.0156,331.9375 771.0156,328.8125 Q771.0156,325.6875 772.3281,324.0313 Q773.6563,322.375 776.1563,322.375 Q776.8594,322.375 777.5,322.5313 Q778.1563,322.6875 778.7188,322.9844 L778.7188,325.7031 Q778.0938,325.125 777.5,324.8594 Q776.9063,324.5781 776.2813,324.5781 Q774.9375,324.5781 774.25,325.6563 Q773.5625,326.7188 773.5625,328.8125 Q773.5625,330.9063 774.25,331.9844 Q774.9375,333.0469 776.2813,333.0469 Q776.9063,333.0469 777.5,332.7813 Q778.0938,332.5 778.7188,331.9219 L778.7188,334.6406 Z " fill="#000000"/><text fill="#000000" font-family="sans-serif" font-size="12" lengthAdjust="spacing" textLength="273" x="791.25" y="333.1543">LocalFootnoteRefLinkAttributeProviderState</text><line style="stroke:#A80036;stroke-width:1.5;" x1="755" x2="1073" y1="345" y2="345"/><line style="stroke:#A80036;stroke-width:1.5;" x1="755" x2="1073" y1="353" y2="353"/><ellipse cx="765" cy="364" fill="#84BE84" rx="3" ry="3" style="stroke:#038048;stroke-width:1.0;"/><text fill="#000000" font-family="sans-serif" font-size="11" lengthAdjust="spacing" textLength="294" x="774" y="367.2104">LocalFootnoteRefLinkAttributeProviderState(Context)</text><ellipse cx="765" cy="376.8047" fill="#84BE84" rx="3" ry="3" style="stroke:#038048;stroke-width:1.0;"/><text fill="#000000" font-family="sans-serif" font-size="11" lengthAdjust="spacing" textLength="280" x="774" y="380.0151">setAttributes(MutableAttributes, JSPWikiLink): void</text></a><!--MD5=[5c0450cd2c266fbcaec9c603853bf499]
class org.apache.wiki.markdown.extensions.jspwikilinks.attributeprovider.LocalFootnoteLinkAttributeProviderState--><a href="LocalFootnoteLinkAttributeProviderState.html" target="_top" title="LocalFootnoteLinkAttributeProviderState.html" xlink:actuate="onRequest" xlink:href="LocalFootnoteLinkAttributeProviderState.html" xlink:show="new" xlink:title="LocalFootnoteLinkAttributeProviderState.html" xlink:type="simple"><rect codeLine="34" fill="#FEFECE" filter="url(#f1389gzbwu9j3v)" height="73.6094" id="org.apache.wiki.markdown.extensions.jspwikilinks.attributeprovider.LocalFootnoteLinkAttributeProviderState" style="stroke:#A80036;stroke-width:1.5;" width="306" x="1109" y="313"/><ellipse cx="1133.45" cy="329" fill="#ADD1B2" rx="11" ry="11" style="stroke:#A80036;stroke-width:1.0;"/><path d="M1136.4188,334.6406 Q1135.8406,334.9375 1135.2,335.0781 Q1134.5594,335.2344 1133.8563,335.2344 Q1131.3563,335.2344 1130.0281,333.5938 Q1128.7156,331.9375 1128.7156,328.8125 Q1128.7156,325.6875 1130.0281,324.0313 Q1131.3563,322.375 1133.8563,322.375 Q1134.5594,322.375 1135.2,322.5313 Q1135.8563,322.6875 1136.4188,322.9844 L1136.4188,325.7031 Q1135.7938,325.125 1135.2,324.8594 Q1134.6063,324.5781 1133.9813,324.5781 Q1132.6375,324.5781 1131.95,325.6563 Q1131.2625,326.7188 1131.2625,328.8125 Q1131.2625,330.9063 1131.95,331.9844 Q1132.6375,333.0469 1133.9813,333.0469 Q1134.6063,333.0469 1135.2,332.7813 Q1135.7938,332.5 1136.4188,331.9219 L1136.4188,334.6406 Z " fill="#000000"/><text fill="#000000" font-family="sans-serif" font-size="12" lengthAdjust="spacing" textLength="253" x="1149.55" y="333.1543">LocalFootnoteLinkAttributeProviderState</text><line style="stroke:#A80036;stroke-width:1.5;" x1="1110" x2="1414" y1="345" y2="345"/><line style="stroke:#A80036;stroke-width:1.5;" x1="1110" x2="1414" y1="353" y2="353"/><ellipse cx="1120" cy="364" fill="#84BE84" rx="3" ry="3" style="stroke:#038048;stroke-width:1.0;"/><text fill="#000000" font-family="sans-serif" font-size="11" lengthAdjust="spacing" textLength="276" x="1129" y="367.2104">LocalFootnoteLinkAttributeProviderState(Context)</text><ellipse cx="1120" cy="376.8047" fill="#84BE84" rx="3" ry="3" style="stroke:#038048;stroke-width:1.0;"/><text fill="#000000" font-family="sans-serif" font-size="11" lengthAdjust="spacing" textLength="280" x="1129" y="380.0151">setAttributes(MutableAttributes, JSPWikiLink): void</text></a><!--MD5=[54d39ef98fb14810f1fdbb451198371e]
class org.apache.wiki.markdown.extensions.jspwikilinks.attributeprovider.WysiwygEditingAttributeProviderState--><a href="WysiwygEditingAttributeProviderState.html" target="_top" title="WysiwygEditingAttributeProviderState.html" xlink:actuate="onRequest" xlink:href="WysiwygEditingAttributeProviderState.html" xlink:show="new" xlink:title="WysiwygEditingAttributeProviderState.html" xlink:type="simple"><rect codeLine="39" fill="#FEFECE" filter="url(#f1389gzbwu9j3v)" height="73.6094" id="org.apache.wiki.markdown.extensions.jspwikilinks.attributeprovider.WysiwygEditingAttributeProviderState" style="stroke:#A80036;stroke-width:1.5;" width="306" x="1450" y="313"/><ellipse cx="1483.45" cy="329" fill="#ADD1B2" rx="11" ry="11" style="stroke:#A80036;stroke-width:1.0;"/><path d="M1486.4188,334.6406 Q1485.8406,334.9375 1485.2,335.0781 Q1484.5594,335.2344 1483.8563,335.2344 Q1481.3563,335.2344 1480.0281,333.5938 Q1478.7156,331.9375 1478.7156,328.8125 Q1478.7156,325.6875 1480.0281,324.0313 Q1481.3563,322.375 1483.8563,322.375 Q1484.5594,322.375 1485.2,322.5313 Q1485.8563,322.6875 1486.4188,322.9844 L1486.4188,325.7031 Q1485.7938,325.125 1485.2,324.8594 Q1484.6063,324.5781 1483.9813,324.5781 Q1482.6375,324.5781 1481.95,325.6563 Q1481.2625,326.7188 1481.2625,328.8125 Q1481.2625,330.9063 1481.95,331.9844 Q1482.6375,333.0469 1483.9813,333.0469 Q1484.6063,333.0469 1485.2,332.7813 Q1485.7938,332.5 1486.4188,331.9219 L1486.4188,334.6406 Z " fill="#000000"/><text fill="#000000" font-family="sans-serif" font-size="12" lengthAdjust="spacing" textLength="233" x="1501.55" y="333.1543">WysiwygEditingAttributeProviderState</text><line style="stroke:#A80036;stroke-width:1.5;" x1="1451" x2="1755" y1="345" y2="345"/><line style="stroke:#A80036;stroke-width:1.5;" x1="1451" x2="1755" y1="353" y2="353"/><ellipse cx="1461" cy="364" fill="#84BE84" rx="3" ry="3" style="stroke:#038048;stroke-width:1.0;"/><text fill="#000000" font-family="sans-serif" font-size="11" lengthAdjust="spacing" textLength="261" x="1470" y="367.2104">WysiwygEditingAttributeProviderState(Context)</text><ellipse cx="1461" cy="376.8047" fill="#84BE84" rx="3" ry="3" style="stroke:#038048;stroke-width:1.0;"/><text fill="#000000" font-family="sans-serif" font-size="11" lengthAdjust="spacing" textLength="280" x="1470" y="380.0151">setAttributes(MutableAttributes, JSPWikiLink): void</text></a><!--MD5=[e743dbf342e63903ac27c16bbfd0534a]
class org.apache.wiki.markdown.extensions.jspwikilinks.attributeprovider.LocalEditLinkAttributeProviderState--><a href="LocalEditLinkAttributeProviderState.html" target="_top" title="LocalEditLinkAttributeProviderState.html" xlink:actuate="onRequest" xlink:href="LocalEditLinkAttributeProviderState.html" xlink:show="new" xlink:title="LocalEditLinkAttributeProviderState.html" xlink:type="simple"><rect codeLine="44" fill="#FEFECE" filter="url(#f1389gzbwu9j3v)" height="73.6094" id="org.apache.wiki.markdown.extensions.jspwikilinks.attributeprovider.LocalEditLinkAttributeProviderState" style="stroke:#A80036;stroke-width:1.5;" width="316" x="1791" y="313"/><ellipse cx="1834.8" cy="329" fill="#ADD1B2" rx="11" ry="11" style="stroke:#A80036;stroke-width:1.0;"/><path d="M1837.7688,334.6406 Q1837.1906,334.9375 1836.55,335.0781 Q1835.9094,335.2344 1835.2063,335.2344 Q1832.7063,335.2344 1831.3781,333.5938 Q1830.0656,331.9375 1830.0656,328.8125 Q1830.0656,325.6875 1831.3781,324.0313 Q1832.7063,322.375 1835.2063,322.375 Q1835.9094,322.375 1836.55,322.5313 Q1837.2063,322.6875 1837.7688,322.9844 L1837.7688,325.7031 Q1837.1438,325.125 1836.55,324.8594 Q1835.9563,324.5781 1835.3313,324.5781 Q1833.9875,324.5781 1833.3,325.6563 Q1832.6125,326.7188 1832.6125,328.8125 Q1832.6125,330.9063 1833.3,331.9844 Q1833.9875,333.0469 1835.3313,333.0469 Q1835.9563,333.0469 1836.55,332.7813 Q1837.1438,332.5 1837.7688,331.9219 L1837.7688,334.6406 Z " fill="#000000"/><text fill="#000000" font-family="sans-serif" font-size="12" lengthAdjust="spacing" textLength="220" x="1855.2" y="333.1543">LocalEditLinkAttributeProviderState</text><line style="stroke:#A80036;stroke-width:1.5;" x1="1792" x2="2106" y1="345" y2="345"/><line style="stroke:#A80036;stroke-width:1.5;" x1="1792" x2="2106" y1="353" y2="353"/><ellipse cx="1802" cy="364" fill="#84BE84" rx="3" ry="3" style="stroke:#038048;stroke-width:1.0;"/><text fill="#000000" font-family="sans-serif" font-size="11" lengthAdjust="spacing" textLength="290" x="1811" y="367.2104">LocalEditLinkAttributeProviderState(Context, String)</text><ellipse cx="1802" cy="376.8047" fill="#84BE84" rx="3" ry="3" style="stroke:#038048;stroke-width:1.0;"/><text fill="#000000" font-family="sans-serif" font-size="11" lengthAdjust="spacing" textLength="280" x="1811" y="380.0151">setAttributes(MutableAttributes, JSPWikiLink): void</text></a><!--MD5=[92e222dad5755083319d954302396700]
class org.apache.wiki.markdown.extensions.jspwikilinks.attributeprovider.ExternalLinkAttributeProviderState--><a href="ExternalLinkAttributeProviderState.html" target="_top" title="ExternalLinkAttributeProviderState.html" xlink:actuate="onRequest" xlink:href="ExternalLinkAttributeProviderState.html" xlink:show="new" xlink:title="ExternalLinkAttributeProviderState.html" xlink:type="simple"><rect codeLine="49" fill="#FEFECE" filter="url(#f1389gzbwu9j3v)" height="73.6094" id="org.apache.wiki.markdown.extensions.jspwikilinks.attributeprovider.ExternalLinkAttributeProviderState" style="stroke:#A80036;stroke-width:1.5;" width="463" x="2142.5" y="313"/><ellipse cx="2262.25" cy="329" fill="#ADD1B2" rx="11" ry="11" style="stroke:#A80036;stroke-width:1.0;"/><path d="M2265.2188,334.6406 Q2264.6406,334.9375 2264,335.0781 Q2263.3594,335.2344 2262.6563,335.2344 Q2260.1563,335.2344 2258.8281,333.5938 Q2257.5156,331.9375 2257.5156,328.8125 Q2257.5156,325.6875 2258.8281,324.0313 Q2260.1563,322.375 2262.6563,322.375 Q2263.3594,322.375 2264,322.5313 Q2264.6563,322.6875 2265.2188,322.9844 L2265.2188,325.7031 Q2264.5938,325.125 2264,324.8594 Q2263.4063,324.5781 2262.7813,324.5781 Q2261.4375,324.5781 2260.75,325.6563 Q2260.0625,326.7188 2260.0625,328.8125 Q2260.0625,330.9063 2260.75,331.9844 Q2261.4375,333.0469 2262.7813,333.0469 Q2263.4063,333.0469 2264,332.7813 Q2264.5938,332.5 2265.2188,331.9219 L2265.2188,334.6406 Z " fill="#000000"/><text fill="#000000" font-family="sans-serif" font-size="12" lengthAdjust="spacing" textLength="215" x="2282.75" y="333.1543">ExternalLinkAttributeProviderState</text><line style="stroke:#A80036;stroke-width:1.5;" x1="2143.5" x2="2604.5" y1="345" y2="345"/><line style="stroke:#A80036;stroke-width:1.5;" x1="2143.5" x2="2604.5" y1="353" y2="353"/><ellipse cx="2153.5" cy="364" fill="#84BE84" rx="3" ry="3" style="stroke:#038048;stroke-width:1.0;"/><text fill="#000000" font-family="sans-serif" font-size="11" lengthAdjust="spacing" textLength="437" x="2162.5" y="367.2104">ExternalLinkAttributeProviderState(Context, boolean, boolean, List&lt;Pattern&gt;)</text><ellipse cx="2153.5" cy="376.8047" fill="#84BE84" rx="3" ry="3" style="stroke:#038048;stroke-width:1.0;"/><text fill="#000000" font-family="sans-serif" font-size="11" lengthAdjust="spacing" textLength="280" x="2162.5" y="380.0151">setAttributes(MutableAttributes, JSPWikiLink): void</text></a><!--MD5=[11f44c57c46fbac86fd767561e6c5df7]
class org.apache.wiki.markdown.extensions.jspwikilinks.attributeprovider.LocalLinkAttributeProviderState--><a href="LocalLinkAttributeProviderState.html" target="_top" title="LocalLinkAttributeProviderState.html" xlink:actuate="onRequest" xlink:href="LocalLinkAttributeProviderState.html" xlink:show="new" xlink:title="LocalLinkAttributeProviderState.html" xlink:type="simple"><rect codeLine="54" fill="#FEFECE" filter="url(#f1389gzbwu9j3v)" height="73.6094" id="org.apache.wiki.markdown.extensions.jspwikilinks.attributeprovider.LocalLinkAttributeProviderState" style="stroke:#A80036;stroke-width:1.5;" width="446" x="2641" y="313"/><ellipse cx="2761.75" cy="329" fill="#ADD1B2" rx="11" ry="11" style="stroke:#A80036;stroke-width:1.0;"/><path d="M2764.7188,334.6406 Q2764.1406,334.9375 2763.5,335.0781 Q2762.8594,335.2344 2762.1563,335.2344 Q2759.6563,335.2344 2758.3281,333.5938 Q2757.0156,331.9375 2757.0156,328.8125 Q2757.0156,325.6875 2758.3281,324.0313 Q2759.6563,322.375 2762.1563,322.375 Q2762.8594,322.375 2763.5,322.5313 Q2764.1563,322.6875 2764.7188,322.9844 L2764.7188,325.7031 Q2764.0938,325.125 2763.5,324.8594 Q2762.9063,324.5781 2762.2813,324.5781 Q2760.9375,324.5781 2760.25,325.6563 Q2759.5625,326.7188 2759.5625,328.8125 Q2759.5625,330.9063 2760.25,331.9844 Q2760.9375,333.0469 2762.2813,333.0469 Q2762.9063,333.0469 2763.5,332.7813 Q2764.0938,332.5 2764.7188,331.9219 L2764.7188,334.6406 Z " fill="#000000"/><text fill="#000000" font-family="sans-serif" font-size="12" lengthAdjust="spacing" textLength="196" x="2782.25" y="333.1543">LocalLinkAttributeProviderState</text><line style="stroke:#A80036;stroke-width:1.5;" x1="2642" x2="3086" y1="345" y2="345"/><line style="stroke:#A80036;stroke-width:1.5;" x1="2642" x2="3086" y1="353" y2="353"/><ellipse cx="2652" cy="364" fill="#84BE84" rx="3" ry="3" style="stroke:#038048;stroke-width:1.0;"/><text fill="#000000" font-family="sans-serif" font-size="11" lengthAdjust="spacing" textLength="420" x="2661" y="367.2104">LocalLinkAttributeProviderState(Context, boolean, boolean, List&lt;Pattern&gt;)</text><ellipse cx="2652" cy="376.8047" fill="#84BE84" rx="3" ry="3" style="stroke:#038048;stroke-width:1.0;"/><text fill="#000000" font-family="sans-serif" font-size="11" lengthAdjust="spacing" textLength="280" x="2661" y="380.0151">setAttributes(MutableAttributes, JSPWikiLink): void</text></a><!--MD5=[0e7ec95ae7ebd202e71709e656ff7072]
class org.apache.wiki.markdown.extensions.jspwikilinks.attributeprovider.InterWikiLinkAttributeProviderState--><a href="InterWikiLinkAttributeProviderState.html" target="_top" title="InterWikiLinkAttributeProviderState.html" xlink:actuate="onRequest" xlink:href="InterWikiLinkAttributeProviderState.html" xlink:show="new" xlink:title="InterWikiLinkAttributeProviderState.html" xlink:type="simple"><rect codeLine="59" fill="#FEFECE" filter="url(#f1389gzbwu9j3v)" height="73.6094" id="org.apache.wiki.markdown.extensions.jspwikilinks.attributeprovider.InterWikiLinkAttributeProviderState" style="stroke:#A80036;stroke-width:1.5;" width="464" x="3122" y="313"/><ellipse cx="3241.25" cy="329" fill="#ADD1B2" rx="11" ry="11" style="stroke:#A80036;stroke-width:1.0;"/><path d="M3244.2188,334.6406 Q3243.6406,334.9375 3243,335.0781 Q3242.3594,335.2344 3241.6563,335.2344 Q3239.1563,335.2344 3237.8281,333.5938 Q3236.5156,331.9375 3236.5156,328.8125 Q3236.5156,325.6875 3237.8281,324.0313 Q3239.1563,322.375 3241.6563,322.375 Q3242.3594,322.375 3243,322.5313 Q3243.6563,322.6875 3244.2188,322.9844 L3244.2188,325.7031 Q3243.5938,325.125 3243,324.8594 Q3242.4063,324.5781 3241.7813,324.5781 Q3240.4375,324.5781 3239.75,325.6563 Q3239.0625,326.7188 3239.0625,328.8125 Q3239.0625,330.9063 3239.75,331.9844 Q3240.4375,333.0469 3241.7813,333.0469 Q3242.4063,333.0469 3243,332.7813 Q3243.5938,332.5 3244.2188,331.9219 L3244.2188,334.6406 Z " fill="#000000"/><text fill="#000000" font-family="sans-serif" font-size="12" lengthAdjust="spacing" textLength="217" x="3261.75" y="333.1543">InterWikiLinkAttributeProviderState</text><line style="stroke:#A80036;stroke-width:1.5;" x1="3123" x2="3585" y1="345" y2="345"/><line style="stroke:#A80036;stroke-width:1.5;" x1="3123" x2="3585" y1="353" y2="353"/><ellipse cx="3133" cy="364" fill="#84BE84" rx="3" ry="3" style="stroke:#038048;stroke-width:1.0;"/><text fill="#000000" font-family="sans-serif" font-size="11" lengthAdjust="spacing" textLength="438" x="3142" y="367.2104">InterWikiLinkAttributeProviderState(Context, boolean, boolean, List&lt;Pattern&gt;)</text><ellipse cx="3133" cy="376.8047" fill="#84BE84" rx="3" ry="3" style="stroke:#038048;stroke-width:1.0;"/><text fill="#000000" font-family="sans-serif" font-size="11" lengthAdjust="spacing" textLength="280" x="3142" y="380.0151">setAttributes(MutableAttributes, JSPWikiLink): void</text></a><!--MD5=[da0b0cfbe6fb5c1880ced7888584e185]
class com.vladsch.flexmark.html.IndependentAttributeProviderFactory--><rect codeLine="78" fill="#FEFECE" filter="url(#f1389gzbwu9j3v)" height="48" id="com.vladsch.flexmark.html.IndependentAttributeProviderFactory" style="stroke:#A80036;stroke-width:1.5;" width="265" x="2729.5" y="39.5"/><ellipse cx="2744.5" cy="55.5" fill="#A9DCDF" rx="11" ry="11" style="stroke:#A80036;stroke-width:1.0;"/><path d="M2744.6094,50.8438 L2743.4531,55.9219 L2745.7813,55.9219 L2744.6094,50.8438 Z M2743.125,48.6094 L2746.1094,48.6094 L2749.4688,61 L2747.0156,61 L2746.25,57.9375 L2742.9688,57.9375 L2742.2188,61 L2739.7813,61 L2743.125,48.6094 Z " fill="#000000"/><text fill="#000000" font-family="sans-serif" font-size="12" font-style="italic" lengthAdjust="spacing" textLength="233" x="2758.5" y="59.6543">IndependentAttributeProviderFactory</text><line style="stroke:#A80036;stroke-width:1.5;" x1="2730.5" x2="2993.5" y1="71.5" y2="71.5"/><line style="stroke:#A80036;stroke-width:1.5;" x1="2730.5" x2="2993.5" y1="79.5" y2="79.5"/><!--MD5=[e3328784921197028990914999438f7b]
class com.vladsch.flexmark.html.AttributeProvider--><rect codeLine="79" fill="#FEFECE" filter="url(#f1389gzbwu9j3v)" height="60.8047" id="com.vladsch.flexmark.html.AttributeProvider" style="stroke:#A80036;stroke-width:1.5;" width="371" x="2323.5" y="33"/><ellipse cx="2452.25" cy="49" fill="#B4A7E5" rx="11" ry="11" style="stroke:#A80036;stroke-width:1.0;"/><path d="M2448.1719,44.7656 L2448.1719,42.6094 L2455.5625,42.6094 L2455.5625,44.7656 L2453.0938,44.7656 L2453.0938,52.8438 L2455.5625,52.8438 L2455.5625,55 L2448.1719,55 L2448.1719,52.8438 L2450.6406,52.8438 L2450.6406,44.7656 L2448.1719,44.7656 Z " fill="#000000"/><text fill="#000000" font-family="sans-serif" font-size="12" font-style="italic" lengthAdjust="spacing" textLength="105" x="2472.75" y="53.1543">AttributeProvider</text><line style="stroke:#A80036;stroke-width:1.5;" x1="2324.5" x2="2693.5" y1="65" y2="65"/><line style="stroke:#A80036;stroke-width:1.5;" x1="2324.5" x2="2693.5" y1="73" y2="73"/><ellipse cx="2334.5" cy="84" fill="#84BE84" rx="3" ry="3" style="stroke:#038048;stroke-width:1.0;"/><text fill="#000000" font-family="sans-serif" font-size="11" font-style="italic" lengthAdjust="spacing" textLength="345" x="2343.5" y="87.2104">setAttributes(Node, AttributablePart, MutableAttributes): void</text><!--MD5=[414b1201f38205903c7d8934f071b69d]
reverse link org.apache.wiki.markdown.extensions.jspwikilinks.attributeprovider.NodeAttributeProviderState to org.apache.wiki.markdown.extensions.jspwikilinks.attributeprovider.ImageLinkAttributeProviderState--><path codeLine="64" d="M1416.0066,214.8162 C1178.2174,230.5012 755.3268,262.7317 396,313 C390.1133,313.8235 384.1345,314.7041 378.1028,315.6302 " fill="none" id="org.apache.wiki.markdown.extensions.jspwikilinks.attributeprovider.NodeAttributeProviderState-backto-org.apache.wiki.markdown.extensions.jspwikilinks.attributeprovider.ImageLinkAttributeProviderState" style="stroke:#A80036;stroke-width:1.0;stroke-dasharray:7.0,7.0;"/><polygon fill="none" points="1415.554,207.831,1435.9685,213.5098,1416.4684,221.8011,1415.554,207.831" style="stroke:#A80036;stroke-width:1.0;"/><!--MD5=[e8e25f8b07d68029c95e09ef04581633]
reverse link com.vladsch.flexmark.html.IndependentAttributeProviderFactory to org.apache.wiki.markdown.extensions.jspwikilinks.attributeprovider.JSPWikiLinkAttributeProviderFactory--><path codeLine="65" d="M2873.8125,107.0196 C2878.9736,126.0342 2884.9646,148.1063 2889.9128,166.3365 " fill="none" id="com.vladsch.flexmark.html.IndependentAttributeProviderFactory-backto-org.apache.wiki.markdown.extensions.jspwikilinks.attributeprovider.JSPWikiLinkAttributeProviderFactory" style="stroke:#A80036;stroke-width:1.0;"/><polygon fill="none" points="2867.0159,108.7022,2868.5324,87.5669,2880.5271,105.0348,2867.0159,108.7022" style="stroke:#A80036;stroke-width:1.0;"/><!--MD5=[2a4b7d56e96f2a4989a53a60336cecbf]
reverse link com.vladsch.flexmark.html.AttributeProvider to org.apache.wiki.markdown.extensions.jspwikilinks.attributeprovider.JSPWikiLinkAttributeProvider--><path codeLine="66" d="M2495.3872,113.6524 C2491.8374,126.7308 2488.014,140.8167 2484.4715,153.868 " fill="none" id="com.vladsch.flexmark.html.AttributeProvider-backto-org.apache.wiki.markdown.extensions.jspwikilinks.attributeprovider.JSPWikiLinkAttributeProvider" style="stroke:#A80036;stroke-width:1.0;stroke-dasharray:7.0,7.0;"/><polygon fill="none" points="2488.6661,111.6915,2500.6607,94.2236,2502.1772,115.3589,2488.6661,111.6915" style="stroke:#A80036;stroke-width:1.0;"/><!--MD5=[184e370769ee86e88b5ca171f8a822dd]
reverse link org.apache.wiki.markdown.extensions.jspwikilinks.attributeprovider.NodeAttributeProviderState to org.apache.wiki.markdown.extensions.jspwikilinks.attributeprovider.LocalReadLinkAttributeProviderState--><path codeLine="67" d="M1416.0349,222.3714 C1240.1703,241.2488 969.8266,273.1697 737,313 C731.1618,313.9988 725.2208,315.06 719.2266,316.1685 " fill="none" id="org.apache.wiki.markdown.extensions.jspwikilinks.attributeprovider.NodeAttributeProviderState-backto-org.apache.wiki.markdown.extensions.jspwikilinks.attributeprovider.LocalReadLinkAttributeProviderState" style="stroke:#A80036;stroke-width:1.0;stroke-dasharray:7.0,7.0;"/><polygon fill="none" points="1415.3097,215.4091,1435.9396,220.2472,1416.7954,229.33,1415.3097,215.4091" style="stroke:#A80036;stroke-width:1.0;"/><!--MD5=[a7d0533e216ed85f9f81191aeb740192]
reverse link org.apache.wiki.markdown.extensions.jspwikilinks.attributeprovider.NodeAttributeProviderState to org.apache.wiki.markdown.extensions.jspwikilinks.attributeprovider.LocalFootnoteRefLinkAttributeProviderState--><path codeLine="68" d="M1439.5523,238.2534 C1329.1271,261.7328 1184.0319,292.5839 1074.2785,315.9205 " fill="none" id="org.apache.wiki.markdown.extensions.jspwikilinks.attributeprovider.NodeAttributeProviderState-backto-org.apache.wiki.markdown.extensions.jspwikilinks.attributeprovider.LocalFootnoteRefLinkAttributeProviderState" style="stroke:#A80036;stroke-width:1.0;stroke-dasharray:7.0,7.0;"/><polygon fill="none" points="1438.3832,231.3456,1459.4017,234.0329,1441.2949,245.0394,1438.3832,231.3456" style="stroke:#A80036;stroke-width:1.0;"/><!--MD5=[c3448401efd240e3d7171f7b22d4d3a4]
reverse link org.apache.wiki.markdown.extensions.jspwikilinks.attributeprovider.NodeAttributeProviderState to org.apache.wiki.markdown.extensions.jspwikilinks.attributeprovider.LocalFootnoteLinkAttributeProviderState--><path codeLine="69" d="M1513.4079,241.9904 C1462.4142,263.8983 1398.8504,291.2065 1348.396,312.8826 " fill="none" id="org.apache.wiki.markdown.extensions.jspwikilinks.attributeprovider.NodeAttributeProviderState-backto-org.apache.wiki.markdown.extensions.jspwikilinks.attributeprovider.LocalFootnoteLinkAttributeProviderState" style="stroke:#A80036;stroke-width:1.0;stroke-dasharray:7.0,7.0;"/><polygon fill="none" points="1510.7912,235.496,1531.9303,234.0329,1516.3175,248.3592,1510.7912,235.496" style="stroke:#A80036;stroke-width:1.0;"/><!--MD5=[3170b10dc60f61b395e0df1053f0f167]
reverse link org.apache.wiki.markdown.extensions.jspwikilinks.attributeprovider.NodeAttributeProviderState to org.apache.wiki.markdown.extensions.jspwikilinks.attributeprovider.WysiwygEditingAttributeProviderState--><path codeLine="70" d="M1603,254.2786 C1603,273.5284 1603,295.0707 1603,312.8373 " fill="none" id="org.apache.wiki.markdown.extensions.jspwikilinks.attributeprovider.NodeAttributeProviderState-backto-org.apache.wiki.markdown.extensions.jspwikilinks.attributeprovider.WysiwygEditingAttributeProviderState" style="stroke:#A80036;stroke-width:1.0;stroke-dasharray:7.0,7.0;"/><polygon fill="none" points="1596.0001,254.2112,1603,234.2112,1610.0001,254.2112,1596.0001,254.2112" style="stroke:#A80036;stroke-width:1.0;"/><!--MD5=[908db2af469fd6038c5d5673b290e9aa]
reverse link org.apache.wiki.markdown.extensions.jspwikilinks.attributeprovider.NodeAttributeProviderState to org.apache.wiki.markdown.extensions.jspwikilinks.attributeprovider.LocalEditLinkAttributeProviderState--><path codeLine="71" d="M1693.5648,241.8461 C1745.3636,263.7782 1810.0304,291.1588 1861.3371,312.8826 " fill="none" id="org.apache.wiki.markdown.extensions.jspwikilinks.attributeprovider.NodeAttributeProviderState-backto-org.apache.wiki.markdown.extensions.jspwikilinks.attributeprovider.LocalEditLinkAttributeProviderState" style="stroke:#A80036;stroke-width:1.0;stroke-dasharray:7.0,7.0;"/><polygon fill="none" points="1690.7996,248.2769,1675.1118,234.0329,1696.2582,235.3849,1690.7996,248.2769" style="stroke:#A80036;stroke-width:1.0;"/><!--MD5=[91c10a4ec75701a8acc152ddae0f349f]
reverse link org.apache.wiki.markdown.extensions.jspwikilinks.attributeprovider.NodeAttributeProviderState to org.apache.wiki.markdown.extensions.jspwikilinks.attributeprovider.ExternalLinkAttributeProviderState--><path codeLine="72" d="M1783.5343,237.8039 C1902.2342,260.3584 2057.4913,289.8592 2179.0107,312.9495 " fill="none" id="org.apache.wiki.markdown.extensions.jspwikilinks.attributeprovider.NodeAttributeProviderState-backto-org.apache.wiki.markdown.extensions.jspwikilinks.attributeprovider.ExternalLinkAttributeProviderState" style="stroke:#A80036;stroke-width:1.0;stroke-dasharray:7.0,7.0;"/><polygon fill="none" points="1782.0301,244.6434,1763.6884,234.0329,1784.6436,230.8895,1782.0301,244.6434" style="stroke:#A80036;stroke-width:1.0;"/><!--MD5=[4bc3aa91c72cd7edf084f8c7dd660073]
reverse link org.apache.wiki.markdown.extensions.jspwikilinks.attributeprovider.NodeAttributeProviderState to org.apache.wiki.markdown.extensions.jspwikilinks.attributeprovider.LocalLinkAttributeProviderState--><path codeLine="73" d="M1790.251,221.0301 C1995.0675,240.8041 2332.872,275.1755 2623,313 C2628.8765,313.7661 2634.8311,314.5591 2640.8376,315.3738 " fill="none" id="org.apache.wiki.markdown.extensions.jspwikilinks.attributeprovider.NodeAttributeProviderState-backto-org.apache.wiki.markdown.extensions.jspwikilinks.attributeprovider.LocalLinkAttributeProviderState" style="stroke:#A80036;stroke-width:1.0;stroke-dasharray:7.0,7.0;"/><polygon fill="none" points="1789.4762,227.988,1770.239,219.1037,1790.8178,214.0524,1789.4762,227.988" style="stroke:#A80036;stroke-width:1.0;"/><!--MD5=[375f0430107a551a65c9ef2c8845091d]
reverse link org.apache.wiki.markdown.extensions.jspwikilinks.attributeprovider.NodeAttributeProviderState to org.apache.wiki.markdown.extensions.jspwikilinks.attributeprovider.InterWikiLinkAttributeProviderState--><path codeLine="74" d="M1790.2149,217.6038 C1923.2303,227.5884 2106.0727,241.2405 2267,253 C2639.4049,280.2129 2733.8383,272.1961 3105,313 C3110.5389,313.6089 3116.1437,314.249 3121.7941,314.9155 " fill="none" id="org.apache.wiki.markdown.extensions.jspwikilinks.attributeprovider.NodeAttributeProviderState-backto-org.apache.wiki.markdown.extensions.jspwikilinks.attributeprovider.InterWikiLinkAttributeProviderState" style="stroke:#A80036;stroke-width:1.0;stroke-dasharray:7.0,7.0;"/><polygon fill="none" points="1789.5533,224.5739,1770.1336,216.0958,1790.6017,210.6132,1789.5533,224.5739" style="stroke:#A80036;stroke-width:1.0;"/><text fill="#888888" font-family="sans-serif" font-size="10" lengthAdjust="spacing" textLength="186" x="1706" y="410.2822">UMLDoclet 2.0.14, PlantUML 1.2021.9</text><!--MD5=[6ceba6bfda90638c45ee4d2398e33882]
@startuml
    namespace org.apache.wiki.markdown.extensions.jspwikilinks.attributeprovider {

        class ImageLinkAttributeProviderState [[ImageLinkAttributeProviderState.html]] {
            +ImageLinkAttributeProviderState(Context, String, boolean)
            +setAttributes(MutableAttributes, JSPWikiLink): void
        }

        class JSPWikiLinkAttributeProviderFactory [[JSPWikiLinkAttributeProviderFactory.html]] {
            +JSPWikiLinkAttributeProviderFactory(Context, boolean, List<Pattern>)
            +apply(LinkResolverContext): AttributeProvider
        }

        class JSPWikiLinkAttributeProvider [[JSPWikiLinkAttributeProvider.html]] {
            #wikiContext: Context
            #linkOperations: LinkParsingOperations
            +JSPWikiLinkAttributeProvider(Context, boolean, List<Pattern>)
            +setAttributes(Node, AttributablePart, MutableAttributes): void
        }

        interface NodeAttributeProviderState<T extends Node> [[NodeAttributeProviderState.html]] {
            {abstract} +setAttributes(MutableAttributes, T extends Node): void
        }

        class LocalReadLinkAttributeProviderState [[LocalReadLinkAttributeProviderState.html]] {
            +LocalReadLinkAttributeProviderState(Context)
            +setAttributes(MutableAttributes, JSPWikiLink): void
        }

        class LocalFootnoteRefLinkAttributeProviderState [[LocalFootnoteRefLinkAttributeProviderState.html]] {
            +LocalFootnoteRefLinkAttributeProviderState(Context)
            +setAttributes(MutableAttributes, JSPWikiLink): void
        }

        class LocalFootnoteLinkAttributeProviderState [[LocalFootnoteLinkAttributeProviderState.html]] {
            +LocalFootnoteLinkAttributeProviderState(Context)
            +setAttributes(MutableAttributes, JSPWikiLink): void
        }

        class WysiwygEditingAttributeProviderState [[WysiwygEditingAttributeProviderState.html]] {
            +WysiwygEditingAttributeProviderState(Context)
            +setAttributes(MutableAttributes, JSPWikiLink): void
        }

        class LocalEditLinkAttributeProviderState [[LocalEditLinkAttributeProviderState.html]] {
            +LocalEditLinkAttributeProviderState(Context, String)
            +setAttributes(MutableAttributes, JSPWikiLink): void
        }

        class ExternalLinkAttributeProviderState [[ExternalLinkAttributeProviderState.html]] {
            +ExternalLinkAttributeProviderState(Context, boolean, boolean, List<Pattern>)
            +setAttributes(MutableAttributes, JSPWikiLink): void
        }

        class LocalLinkAttributeProviderState [[LocalLinkAttributeProviderState.html]] {
            +LocalLinkAttributeProviderState(Context, boolean, boolean, List<Pattern>)
            +setAttributes(MutableAttributes, JSPWikiLink): void
        }

        class InterWikiLinkAttributeProviderState [[InterWikiLinkAttributeProviderState.html]] {
            +InterWikiLinkAttributeProviderState(Context, boolean, boolean, List<Pattern>)
            +setAttributes(MutableAttributes, JSPWikiLink): void
        }

        NodeAttributeProviderState <|.. ImageLinkAttributeProviderState
        com.vladsch.flexmark.html.IndependentAttributeProviderFactory <|- - JSPWikiLinkAttributeProviderFactory
        com.vladsch.flexmark.html.AttributeProvider <|.. JSPWikiLinkAttributeProvider
        NodeAttributeProviderState <|.. LocalReadLinkAttributeProviderState
        NodeAttributeProviderState <|.. LocalFootnoteRefLinkAttributeProviderState
        NodeAttributeProviderState <|.. LocalFootnoteLinkAttributeProviderState
        NodeAttributeProviderState <|.. WysiwygEditingAttributeProviderState
        NodeAttributeProviderState <|.. LocalEditLinkAttributeProviderState
        NodeAttributeProviderState <|.. ExternalLinkAttributeProviderState
        NodeAttributeProviderState <|.. LocalLinkAttributeProviderState
        NodeAttributeProviderState <|.. InterWikiLinkAttributeProviderState
    }

    namespace com.vladsch.flexmark.html {
        abstract class IndependentAttributeProviderFactory
        interface AttributeProvider {
            {abstract} +setAttributes(Node, AttributablePart, MutableAttributes): void
        }
    }

    center footer UMLDoclet 2.0.14, PlantUML 1.2021.9
@enduml

PlantUML version 1.2021.9(Sun Jul 25 10:13:56 UTC 2021)
(APACHE source distribution)
Java Runtime: Java(TM) SE Runtime Environment
JVM: Java HotSpot(TM) 64-Bit Server VM
Default Encoding: ISO-8859-1
Language: en
Country: US
--></g></svg>