<?xml version="1.0" encoding="UTF-8" standalone="no"?><svg xmlns="http://www.w3.org/2000/svg" xmlns:xlink="http://www.w3.org/1999/xlink" contentScriptType="application/ecmascript" contentStyleType="text/css" height="423px" preserveAspectRatio="none" style="width:3616px;height:423px;" version="1.1" viewBox="0 0 3616 423" width="3616px" zoomAndPan="magnify"><defs><filter height="300%" id="f16qemw6yzxqng" width="300%" x="-1" y="-1"><feGaussianBlur result="blurOut" stdDeviation="2.0"/><feColorMatrix in="blurOut" result="blurOut2" type="matrix" values="0 0 0 0 0 0 0 0 0 0 0 0 0 0 0 0 0 0 .4 0"/><feOffset dx="4.0" dy="4.0" in="blurOut2" result="blurOut3"/><feBlend in="SourceGraphic" in2="blurOut3" mode="normal"/></filter></defs><g><!--MD5=[dfaafc7932285f4cf5c29f79a5563992]
cluster org.apache.wiki.markdown.extensions.jspwikilinks.attributeprovider--><polygon fill="#FFFFFF" filter="url(#f16qemw6yzxqng)" points="16,127,562,127,569,149.2969,3594,149.2969,3594,395,16,395,16,127" style="stroke: #000000; stroke-width: 1.5;"/><line style="stroke: #000000; stroke-width: 1.5;" x1="16" x2="569" y1="149.2969" y2="149.2969"/><text fill="#000000" font-family="sans-serif" font-size="14" font-weight="bold" lengthAdjust="spacingAndGlyphs" textLength="540" x="20" y="141.9951">org.apache.wiki.markdown.extensions.jspwikilinks.attributeprovider</text><!--MD5=[a81de2553a89e9ee3aa41b3837eb6c94]
cluster com.vladsch.flexmark.html--><polygon fill="#FFFFFF" filter="url(#f16qemw6yzxqng)" points="1488,6,1704,6,1711,28.2969,2176,28.2969,2176,102,1488,102,1488,6" style="stroke: #000000; stroke-width: 1.5;"/><line style="stroke: #000000; stroke-width: 1.5;" x1="1488" x2="1711" y1="28.2969" y2="28.2969"/><text fill="#000000" font-family="sans-serif" font-size="14" font-weight="bold" lengthAdjust="spacingAndGlyphs" textLength="210" x="1492" y="20.9951">com.vladsch.flexmark.html</text><!--MD5=[09c4e4ce9dc38d033ad9233c0b9e36c2]
class org.apache.wiki.markdown.extensions.jspwikilinks.attributeprovider.JSPWikiLinkAttributeProviderFactory--><a href="JSPWikiLinkAttributeProviderFactory.html" target="_top" title="JSPWikiLinkAttributeProviderFactory.html" xlink:actuate="onRequest" xlink:href="JSPWikiLinkAttributeProviderFactory.html" xlink:show="new" xlink:title="JSPWikiLinkAttributeProviderFactory.html" xlink:type="simple"><rect codeLine="3" fill="#FEFECE" filter="url(#f16qemw6yzxqng)" height="73.6094" id="org.apache.wiki.markdown.extensions.jspwikilinks.attributeprovider.JSPWikiLinkAttributeProviderFactory" style="stroke: #A80036; stroke-width: 1.5;" width="414" x="2051" y="166.5"/><ellipse cx="2144.25" cy="182.5" fill="#ADD1B2" rx="11" ry="11" style="stroke: #A80036; stroke-width: 1.0;"/><path d="M2147.2188,188.1406 Q2146.6406,188.4375 2146,188.5781 Q2145.3594,188.7344 2144.6563,188.7344 Q2142.1563,188.7344 2140.8281,187.0938 Q2139.5156,185.4375 2139.5156,182.3125 Q2139.5156,179.1875 2140.8281,177.5313 Q2142.1563,175.875 2144.6563,175.875 Q2145.3594,175.875 2146,176.0313 Q2146.6563,176.1875 2147.2188,176.4844 L2147.2188,179.2031 Q2146.5938,178.625 2146,178.3594 Q2145.4063,178.0781 2144.7813,178.0781 Q2143.4375,178.0781 2142.75,179.1563 Q2142.0625,180.2188 2142.0625,182.3125 Q2142.0625,184.4063 2142.75,185.4844 Q2143.4375,186.5469 2144.7813,186.5469 Q2145.4063,186.5469 2146,186.2813 Q2146.5938,186 2147.2188,185.4219 L2147.2188,188.1406 Z "/><text fill="#000000" font-family="sans-serif" font-size="12" lengthAdjust="spacingAndGlyphs" textLength="219" x="2164.75" y="186.6543">JSPWikiLinkAttributeProviderFactory</text><line style="stroke: #A80036; stroke-width: 1.5;" x1="2052" x2="2464" y1="198.5" y2="198.5"/><line style="stroke: #A80036; stroke-width: 1.5;" x1="2052" x2="2464" y1="206.5" y2="206.5"/><ellipse cx="2062" cy="217.5" fill="#84BE84" rx="3" ry="3" style="stroke: #038048; stroke-width: 1.0;"/><text fill="#000000" font-family="sans-serif" font-size="11" lengthAdjust="spacingAndGlyphs" textLength="388" x="2071" y="220.7104">JSPWikiLinkAttributeProviderFactory(Context, boolean, List&lt;Pattern&gt;)</text><ellipse cx="2062" cy="230.3047" fill="#84BE84" rx="3" ry="3" style="stroke: #038048; stroke-width: 1.0;"/><text fill="#000000" font-family="sans-serif" font-size="11" lengthAdjust="spacingAndGlyphs" textLength="255" x="2071" y="233.5151">apply(LinkResolverContext): AttributeProvider</text></a><!--MD5=[16927d18d6ca60be23bb1ab70fa18552]
class org.apache.wiki.markdown.extensions.jspwikilinks.attributeprovider.LocalReadLinkAttributeProviderState--><a href="LocalReadLinkAttributeProviderState.html" target="_top" title="LocalReadLinkAttributeProviderState.html" xlink:actuate="onRequest" xlink:href="LocalReadLinkAttributeProviderState.html" xlink:show="new" xlink:title="LocalReadLinkAttributeProviderState.html" xlink:type="simple"><rect codeLine="8" fill="#FEFECE" filter="url(#f16qemw6yzxqng)" height="73.6094" id="org.apache.wiki.markdown.extensions.jspwikilinks.attributeprovider.LocalReadLinkAttributeProviderState" style="stroke: #A80036; stroke-width: 1.5;" width="306" x="24" y="313"/><ellipse cx="59.7" cy="329" fill="#ADD1B2" rx="11" ry="11" style="stroke: #A80036; stroke-width: 1.0;"/><path d="M62.6688,334.6406 Q62.0906,334.9375 61.45,335.0781 Q60.8094,335.2344 60.1063,335.2344 Q57.6063,335.2344 56.2781,333.5938 Q54.9656,331.9375 54.9656,328.8125 Q54.9656,325.6875 56.2781,324.0313 Q57.6063,322.375 60.1063,322.375 Q60.8094,322.375 61.45,322.5313 Q62.1063,322.6875 62.6688,322.9844 L62.6688,325.7031 Q62.0438,325.125 61.45,324.8594 Q60.8563,324.5781 60.2313,324.5781 Q58.8875,324.5781 58.2,325.6563 Q57.5125,326.7188 57.5125,328.8125 Q57.5125,330.9063 58.2,331.9844 Q58.8875,333.0469 60.2313,333.0469 Q60.8563,333.0469 61.45,332.7813 Q62.0438,332.5 62.6688,331.9219 L62.6688,334.6406 Z "/><text fill="#000000" font-family="sans-serif" font-size="12" lengthAdjust="spacingAndGlyphs" textLength="228" x="78.3" y="333.1543">LocalReadLinkAttributeProviderState</text><line style="stroke: #A80036; stroke-width: 1.5;" x1="25" x2="329" y1="345" y2="345"/><line style="stroke: #A80036; stroke-width: 1.5;" x1="25" x2="329" y1="353" y2="353"/><ellipse cx="35" cy="364" fill="#84BE84" rx="3" ry="3" style="stroke: #038048; stroke-width: 1.0;"/><text fill="#000000" font-family="sans-serif" font-size="11" lengthAdjust="spacingAndGlyphs" textLength="255" x="44" y="367.2104">LocalReadLinkAttributeProviderState(Context)</text><ellipse cx="35" cy="376.8047" fill="#84BE84" rx="3" ry="3" style="stroke: #038048; stroke-width: 1.0;"/><text fill="#000000" font-family="sans-serif" font-size="11" lengthAdjust="spacingAndGlyphs" textLength="280" x="44" y="380.0151">setAttributes(MutableAttributes, JSPWikiLink): void</text></a><!--MD5=[11f44c57c46fbac86fd767561e6c5df7]
class org.apache.wiki.markdown.extensions.jspwikilinks.attributeprovider.LocalLinkAttributeProviderState--><a href="LocalLinkAttributeProviderState.html" target="_top" title="LocalLinkAttributeProviderState.html" xlink:actuate="onRequest" xlink:href="LocalLinkAttributeProviderState.html" xlink:show="new" xlink:title="LocalLinkAttributeProviderState.html" xlink:type="simple"><rect codeLine="13" fill="#FEFECE" filter="url(#f16qemw6yzxqng)" height="73.6094" id="org.apache.wiki.markdown.extensions.jspwikilinks.attributeprovider.LocalLinkAttributeProviderState" style="stroke: #A80036; stroke-width: 1.5;" width="446" x="365" y="313"/><ellipse cx="485.75" cy="329" fill="#ADD1B2" rx="11" ry="11" style="stroke: #A80036; stroke-width: 1.0;"/><path d="M488.7188,334.6406 Q488.1406,334.9375 487.5,335.0781 Q486.8594,335.2344 486.1563,335.2344 Q483.6563,335.2344 482.3281,333.5938 Q481.0156,331.9375 481.0156,328.8125 Q481.0156,325.6875 482.3281,324.0313 Q483.6563,322.375 486.1563,322.375 Q486.8594,322.375 487.5,322.5313 Q488.1563,322.6875 488.7188,322.9844 L488.7188,325.7031 Q488.0938,325.125 487.5,324.8594 Q486.9063,324.5781 486.2813,324.5781 Q484.9375,324.5781 484.25,325.6563 Q483.5625,326.7188 483.5625,328.8125 Q483.5625,330.9063 484.25,331.9844 Q484.9375,333.0469 486.2813,333.0469 Q486.9063,333.0469 487.5,332.7813 Q488.0938,332.5 488.7188,331.9219 L488.7188,334.6406 Z "/><text fill="#000000" font-family="sans-serif" font-size="12" lengthAdjust="spacingAndGlyphs" textLength="196" x="506.25" y="333.1543">LocalLinkAttributeProviderState</text><line style="stroke: #A80036; stroke-width: 1.5;" x1="366" x2="810" y1="345" y2="345"/><line style="stroke: #A80036; stroke-width: 1.5;" x1="366" x2="810" y1="353" y2="353"/><ellipse cx="376" cy="364" fill="#84BE84" rx="3" ry="3" style="stroke: #038048; stroke-width: 1.0;"/><text fill="#000000" font-family="sans-serif" font-size="11" lengthAdjust="spacingAndGlyphs" textLength="420" x="385" y="367.2104">LocalLinkAttributeProviderState(Context, boolean, boolean, List&lt;Pattern&gt;)</text><ellipse cx="376" cy="376.8047" fill="#84BE84" rx="3" ry="3" style="stroke: #038048; stroke-width: 1.0;"/><text fill="#000000" font-family="sans-serif" font-size="11" lengthAdjust="spacingAndGlyphs" textLength="280" x="385" y="380.0151">setAttributes(MutableAttributes, JSPWikiLink): void</text></a><!--MD5=[92e222dad5755083319d954302396700]
class org.apache.wiki.markdown.extensions.jspwikilinks.attributeprovider.ExternalLinkAttributeProviderState--><a href="ExternalLinkAttributeProviderState.html" target="_top" title="ExternalLinkAttributeProviderState.html" xlink:actuate="onRequest" xlink:href="ExternalLinkAttributeProviderState.html" xlink:show="new" xlink:title="ExternalLinkAttributeProviderState.html" xlink:type="simple"><rect codeLine="18" fill="#FEFECE" filter="url(#f16qemw6yzxqng)" height="73.6094" id="org.apache.wiki.markdown.extensions.jspwikilinks.attributeprovider.ExternalLinkAttributeProviderState" style="stroke: #A80036; stroke-width: 1.5;" width="463" x="846.5" y="313"/><ellipse cx="966.25" cy="329" fill="#ADD1B2" rx="11" ry="11" style="stroke: #A80036; stroke-width: 1.0;"/><path d="M969.2188,334.6406 Q968.6406,334.9375 968,335.0781 Q967.3594,335.2344 966.6563,335.2344 Q964.1563,335.2344 962.8281,333.5938 Q961.5156,331.9375 961.5156,328.8125 Q961.5156,325.6875 962.8281,324.0313 Q964.1563,322.375 966.6563,322.375 Q967.3594,322.375 968,322.5313 Q968.6563,322.6875 969.2188,322.9844 L969.2188,325.7031 Q968.5938,325.125 968,324.8594 Q967.4063,324.5781 966.7813,324.5781 Q965.4375,324.5781 964.75,325.6563 Q964.0625,326.7188 964.0625,328.8125 Q964.0625,330.9063 964.75,331.9844 Q965.4375,333.0469 966.7813,333.0469 Q967.4063,333.0469 968,332.7813 Q968.5938,332.5 969.2188,331.9219 L969.2188,334.6406 Z "/><text fill="#000000" font-family="sans-serif" font-size="12" lengthAdjust="spacingAndGlyphs" textLength="215" x="986.75" y="333.1543">ExternalLinkAttributeProviderState</text><line style="stroke: #A80036; stroke-width: 1.5;" x1="847.5" x2="1308.5" y1="345" y2="345"/><line style="stroke: #A80036; stroke-width: 1.5;" x1="847.5" x2="1308.5" y1="353" y2="353"/><ellipse cx="857.5" cy="364" fill="#84BE84" rx="3" ry="3" style="stroke: #038048; stroke-width: 1.0;"/><text fill="#000000" font-family="sans-serif" font-size="11" lengthAdjust="spacingAndGlyphs" textLength="437" x="866.5" y="367.2104">ExternalLinkAttributeProviderState(Context, boolean, boolean, List&lt;Pattern&gt;)</text><ellipse cx="857.5" cy="376.8047" fill="#84BE84" rx="3" ry="3" style="stroke: #038048; stroke-width: 1.0;"/><text fill="#000000" font-family="sans-serif" font-size="11" lengthAdjust="spacingAndGlyphs" textLength="280" x="866.5" y="380.0151">setAttributes(MutableAttributes, JSPWikiLink): void</text></a><!--MD5=[e743dbf342e63903ac27c16bbfd0534a]
class org.apache.wiki.markdown.extensions.jspwikilinks.attributeprovider.LocalEditLinkAttributeProviderState--><a href="LocalEditLinkAttributeProviderState.html" target="_top" title="LocalEditLinkAttributeProviderState.html" xlink:actuate="onRequest" xlink:href="LocalEditLinkAttributeProviderState.html" xlink:show="new" xlink:title="LocalEditLinkAttributeProviderState.html" xlink:type="simple"><rect codeLine="23" fill="#FEFECE" filter="url(#f16qemw6yzxqng)" height="73.6094" id="org.apache.wiki.markdown.extensions.jspwikilinks.attributeprovider.LocalEditLinkAttributeProviderState" style="stroke: #A80036; stroke-width: 1.5;" width="316" x="1345" y="313"/><ellipse cx="1388.8" cy="329" fill="#ADD1B2" rx="11" ry="11" style="stroke: #A80036; stroke-width: 1.0;"/><path d="M1391.7688,334.6406 Q1391.1906,334.9375 1390.55,335.0781 Q1389.9094,335.2344 1389.2063,335.2344 Q1386.7063,335.2344 1385.3781,333.5938 Q1384.0656,331.9375 1384.0656,328.8125 Q1384.0656,325.6875 1385.3781,324.0313 Q1386.7063,322.375 1389.2063,322.375 Q1389.9094,322.375 1390.55,322.5313 Q1391.2063,322.6875 1391.7688,322.9844 L1391.7688,325.7031 Q1391.1438,325.125 1390.55,324.8594 Q1389.9563,324.5781 1389.3313,324.5781 Q1387.9875,324.5781 1387.3,325.6563 Q1386.6125,326.7188 1386.6125,328.8125 Q1386.6125,330.9063 1387.3,331.9844 Q1387.9875,333.0469 1389.3313,333.0469 Q1389.9563,333.0469 1390.55,332.7813 Q1391.1438,332.5 1391.7688,331.9219 L1391.7688,334.6406 Z "/><text fill="#000000" font-family="sans-serif" font-size="12" lengthAdjust="spacingAndGlyphs" textLength="220" x="1409.2" y="333.1543">LocalEditLinkAttributeProviderState</text><line style="stroke: #A80036; stroke-width: 1.5;" x1="1346" x2="1660" y1="345" y2="345"/><line style="stroke: #A80036; stroke-width: 1.5;" x1="1346" x2="1660" y1="353" y2="353"/><ellipse cx="1356" cy="364" fill="#84BE84" rx="3" ry="3" style="stroke: #038048; stroke-width: 1.0;"/><text fill="#000000" font-family="sans-serif" font-size="11" lengthAdjust="spacingAndGlyphs" textLength="290" x="1365" y="367.2104">LocalEditLinkAttributeProviderState(Context, String)</text><ellipse cx="1356" cy="376.8047" fill="#84BE84" rx="3" ry="3" style="stroke: #038048; stroke-width: 1.0;"/><text fill="#000000" font-family="sans-serif" font-size="11" lengthAdjust="spacingAndGlyphs" textLength="280" x="1365" y="380.0151">setAttributes(MutableAttributes, JSPWikiLink): void</text></a><!--MD5=[54d39ef98fb14810f1fdbb451198371e]
class org.apache.wiki.markdown.extensions.jspwikilinks.attributeprovider.WysiwygEditingAttributeProviderState--><a href="WysiwygEditingAttributeProviderState.html" target="_top" title="WysiwygEditingAttributeProviderState.html" xlink:actuate="onRequest" xlink:href="WysiwygEditingAttributeProviderState.html" xlink:show="new" xlink:title="WysiwygEditingAttributeProviderState.html" xlink:type="simple"><rect codeLine="28" fill="#FEFECE" filter="url(#f16qemw6yzxqng)" height="73.6094" id="org.apache.wiki.markdown.extensions.jspwikilinks.attributeprovider.WysiwygEditingAttributeProviderState" style="stroke: #A80036; stroke-width: 1.5;" width="306" x="1696" y="313"/><ellipse cx="1729.45" cy="329" fill="#ADD1B2" rx="11" ry="11" style="stroke: #A80036; stroke-width: 1.0;"/><path d="M1732.4188,334.6406 Q1731.8406,334.9375 1731.2,335.0781 Q1730.5594,335.2344 1729.8563,335.2344 Q1727.3563,335.2344 1726.0281,333.5938 Q1724.7156,331.9375 1724.7156,328.8125 Q1724.7156,325.6875 1726.0281,324.0313 Q1727.3563,322.375 1729.8563,322.375 Q1730.5594,322.375 1731.2,322.5313 Q1731.8563,322.6875 1732.4188,322.9844 L1732.4188,325.7031 Q1731.7938,325.125 1731.2,324.8594 Q1730.6063,324.5781 1729.9813,324.5781 Q1728.6375,324.5781 1727.95,325.6563 Q1727.2625,326.7188 1727.2625,328.8125 Q1727.2625,330.9063 1727.95,331.9844 Q1728.6375,333.0469 1729.9813,333.0469 Q1730.6063,333.0469 1731.2,332.7813 Q1731.7938,332.5 1732.4188,331.9219 L1732.4188,334.6406 Z "/><text fill="#000000" font-family="sans-serif" font-size="12" lengthAdjust="spacingAndGlyphs" textLength="233" x="1747.55" y="333.1543">WysiwygEditingAttributeProviderState</text><line style="stroke: #A80036; stroke-width: 1.5;" x1="1697" x2="2001" y1="345" y2="345"/><line style="stroke: #A80036; stroke-width: 1.5;" x1="1697" x2="2001" y1="353" y2="353"/><ellipse cx="1707" cy="364" fill="#84BE84" rx="3" ry="3" style="stroke: #038048; stroke-width: 1.0;"/><text fill="#000000" font-family="sans-serif" font-size="11" lengthAdjust="spacingAndGlyphs" textLength="261" x="1716" y="367.2104">WysiwygEditingAttributeProviderState(Context)</text><ellipse cx="1707" cy="376.8047" fill="#84BE84" rx="3" ry="3" style="stroke: #038048; stroke-width: 1.0;"/><text fill="#000000" font-family="sans-serif" font-size="11" lengthAdjust="spacingAndGlyphs" textLength="280" x="1716" y="380.0151">setAttributes(MutableAttributes, JSPWikiLink): void</text></a><!--MD5=[5c0450cd2c266fbcaec9c603853bf499]
class org.apache.wiki.markdown.extensions.jspwikilinks.attributeprovider.LocalFootnoteLinkAttributeProviderState--><a href="LocalFootnoteLinkAttributeProviderState.html" target="_top" title="LocalFootnoteLinkAttributeProviderState.html" xlink:actuate="onRequest" xlink:href="LocalFootnoteLinkAttributeProviderState.html" xlink:show="new" xlink:title="LocalFootnoteLinkAttributeProviderState.html" xlink:type="simple"><rect codeLine="33" fill="#FEFECE" filter="url(#f16qemw6yzxqng)" height="73.6094" id="org.apache.wiki.markdown.extensions.jspwikilinks.attributeprovider.LocalFootnoteLinkAttributeProviderState" style="stroke: #A80036; stroke-width: 1.5;" width="306" x="2037" y="313"/><ellipse cx="2061.45" cy="329" fill="#ADD1B2" rx="11" ry="11" style="stroke: #A80036; stroke-width: 1.0;"/><path d="M2064.4188,334.6406 Q2063.8406,334.9375 2063.2,335.0781 Q2062.5594,335.2344 2061.8563,335.2344 Q2059.3563,335.2344 2058.0281,333.5938 Q2056.7156,331.9375 2056.7156,328.8125 Q2056.7156,325.6875 2058.0281,324.0313 Q2059.3563,322.375 2061.8563,322.375 Q2062.5594,322.375 2063.2,322.5313 Q2063.8563,322.6875 2064.4188,322.9844 L2064.4188,325.7031 Q2063.7938,325.125 2063.2,324.8594 Q2062.6063,324.5781 2061.9813,324.5781 Q2060.6375,324.5781 2059.95,325.6563 Q2059.2625,326.7188 2059.2625,328.8125 Q2059.2625,330.9063 2059.95,331.9844 Q2060.6375,333.0469 2061.9813,333.0469 Q2062.6063,333.0469 2063.2,332.7813 Q2063.7938,332.5 2064.4188,331.9219 L2064.4188,334.6406 Z "/><text fill="#000000" font-family="sans-serif" font-size="12" lengthAdjust="spacingAndGlyphs" textLength="253" x="2077.55" y="333.1543">LocalFootnoteLinkAttributeProviderState</text><line style="stroke: #A80036; stroke-width: 1.5;" x1="2038" x2="2342" y1="345" y2="345"/><line style="stroke: #A80036; stroke-width: 1.5;" x1="2038" x2="2342" y1="353" y2="353"/><ellipse cx="2048" cy="364" fill="#84BE84" rx="3" ry="3" style="stroke: #038048; stroke-width: 1.0;"/><text fill="#000000" font-family="sans-serif" font-size="11" lengthAdjust="spacingAndGlyphs" textLength="276" x="2057" y="367.2104">LocalFootnoteLinkAttributeProviderState(Context)</text><ellipse cx="2048" cy="376.8047" fill="#84BE84" rx="3" ry="3" style="stroke: #038048; stroke-width: 1.0;"/><text fill="#000000" font-family="sans-serif" font-size="11" lengthAdjust="spacingAndGlyphs" textLength="280" x="2057" y="380.0151">setAttributes(MutableAttributes, JSPWikiLink): void</text></a><!--MD5=[0e7ec95ae7ebd202e71709e656ff7072]
class org.apache.wiki.markdown.extensions.jspwikilinks.attributeprovider.InterWikiLinkAttributeProviderState--><a href="InterWikiLinkAttributeProviderState.html" target="_top" title="InterWikiLinkAttributeProviderState.html" xlink:actuate="onRequest" xlink:href="InterWikiLinkAttributeProviderState.html" xlink:show="new" xlink:title="InterWikiLinkAttributeProviderState.html" xlink:type="simple"><rect codeLine="38" fill="#FEFECE" filter="url(#f16qemw6yzxqng)" height="73.6094" id="org.apache.wiki.markdown.extensions.jspwikilinks.attributeprovider.InterWikiLinkAttributeProviderState" style="stroke: #A80036; stroke-width: 1.5;" width="464" x="2378" y="313"/><ellipse cx="2497.25" cy="329" fill="#ADD1B2" rx="11" ry="11" style="stroke: #A80036; stroke-width: 1.0;"/><path d="M2500.2188,334.6406 Q2499.6406,334.9375 2499,335.0781 Q2498.3594,335.2344 2497.6563,335.2344 Q2495.1563,335.2344 2493.8281,333.5938 Q2492.5156,331.9375 2492.5156,328.8125 Q2492.5156,325.6875 2493.8281,324.0313 Q2495.1563,322.375 2497.6563,322.375 Q2498.3594,322.375 2499,322.5313 Q2499.6563,322.6875 2500.2188,322.9844 L2500.2188,325.7031 Q2499.5938,325.125 2499,324.8594 Q2498.4063,324.5781 2497.7813,324.5781 Q2496.4375,324.5781 2495.75,325.6563 Q2495.0625,326.7188 2495.0625,328.8125 Q2495.0625,330.9063 2495.75,331.9844 Q2496.4375,333.0469 2497.7813,333.0469 Q2498.4063,333.0469 2499,332.7813 Q2499.5938,332.5 2500.2188,331.9219 L2500.2188,334.6406 Z "/><text fill="#000000" font-family="sans-serif" font-size="12" lengthAdjust="spacingAndGlyphs" textLength="217" x="2517.75" y="333.1543">InterWikiLinkAttributeProviderState</text><line style="stroke: #A80036; stroke-width: 1.5;" x1="2379" x2="2841" y1="345" y2="345"/><line style="stroke: #A80036; stroke-width: 1.5;" x1="2379" x2="2841" y1="353" y2="353"/><ellipse cx="2389" cy="364" fill="#84BE84" rx="3" ry="3" style="stroke: #038048; stroke-width: 1.0;"/><text fill="#000000" font-family="sans-serif" font-size="11" lengthAdjust="spacingAndGlyphs" textLength="438" x="2398" y="367.2104">InterWikiLinkAttributeProviderState(Context, boolean, boolean, List&lt;Pattern&gt;)</text><ellipse cx="2389" cy="376.8047" fill="#84BE84" rx="3" ry="3" style="stroke: #038048; stroke-width: 1.0;"/><text fill="#000000" font-family="sans-serif" font-size="11" lengthAdjust="spacingAndGlyphs" textLength="280" x="2398" y="380.0151">setAttributes(MutableAttributes, JSPWikiLink): void</text></a><!--MD5=[8a934b07a9213ba220109e16d2ff62ba]
class org.apache.wiki.markdown.extensions.jspwikilinks.attributeprovider.LocalFootnoteRefLinkAttributeProviderState--><a href="LocalFootnoteRefLinkAttributeProviderState.html" target="_top" title="LocalFootnoteRefLinkAttributeProviderState.html" xlink:actuate="onRequest" xlink:href="LocalFootnoteRefLinkAttributeProviderState.html" xlink:show="new" xlink:title="LocalFootnoteRefLinkAttributeProviderState.html" xlink:type="simple"><rect codeLine="43" fill="#FEFECE" filter="url(#f16qemw6yzxqng)" height="73.6094" id="org.apache.wiki.markdown.extensions.jspwikilinks.attributeprovider.LocalFootnoteRefLinkAttributeProviderState" style="stroke: #A80036; stroke-width: 1.5;" width="320" x="2877" y="313"/><ellipse cx="2898.75" cy="329" fill="#ADD1B2" rx="11" ry="11" style="stroke: #A80036; stroke-width: 1.0;"/><path d="M2901.7188,334.6406 Q2901.1406,334.9375 2900.5,335.0781 Q2899.8594,335.2344 2899.1563,335.2344 Q2896.6563,335.2344 2895.3281,333.5938 Q2894.0156,331.9375 2894.0156,328.8125 Q2894.0156,325.6875 2895.3281,324.0313 Q2896.6563,322.375 2899.1563,322.375 Q2899.8594,322.375 2900.5,322.5313 Q2901.1563,322.6875 2901.7188,322.9844 L2901.7188,325.7031 Q2901.0938,325.125 2900.5,324.8594 Q2899.9063,324.5781 2899.2813,324.5781 Q2897.9375,324.5781 2897.25,325.6563 Q2896.5625,326.7188 2896.5625,328.8125 Q2896.5625,330.9063 2897.25,331.9844 Q2897.9375,333.0469 2899.2813,333.0469 Q2899.9063,333.0469 2900.5,332.7813 Q2901.0938,332.5 2901.7188,331.9219 L2901.7188,334.6406 Z "/><text fill="#000000" font-family="sans-serif" font-size="12" lengthAdjust="spacingAndGlyphs" textLength="273" x="2914.25" y="333.1543">LocalFootnoteRefLinkAttributeProviderState</text><line style="stroke: #A80036; stroke-width: 1.5;" x1="2878" x2="3196" y1="345" y2="345"/><line style="stroke: #A80036; stroke-width: 1.5;" x1="2878" x2="3196" y1="353" y2="353"/><ellipse cx="2888" cy="364" fill="#84BE84" rx="3" ry="3" style="stroke: #038048; stroke-width: 1.0;"/><text fill="#000000" font-family="sans-serif" font-size="11" lengthAdjust="spacingAndGlyphs" textLength="294" x="2897" y="367.2104">LocalFootnoteRefLinkAttributeProviderState(Context)</text><ellipse cx="2888" cy="376.8047" fill="#84BE84" rx="3" ry="3" style="stroke: #038048; stroke-width: 1.0;"/><text fill="#000000" font-family="sans-serif" font-size="11" lengthAdjust="spacingAndGlyphs" textLength="280" x="2897" y="380.0151">setAttributes(MutableAttributes, JSPWikiLink): void</text></a><!--MD5=[751b0be4d35478110504cf058ab088e7]
class org.apache.wiki.markdown.extensions.jspwikilinks.attributeprovider.NodeAttributeProviderState--><a href="NodeAttributeProviderState.html" target="_top" title="NodeAttributeProviderState.html" xlink:actuate="onRequest" xlink:href="NodeAttributeProviderState.html" xlink:show="new" xlink:title="NodeAttributeProviderState.html" xlink:type="simple"><rect codeLine="48" fill="#FEFECE" filter="url(#f16qemw6yzxqng)" height="60.8047" id="org.apache.wiki.markdown.extensions.jspwikilinks.attributeprovider.NodeAttributeProviderState" style="stroke: #A80036; stroke-width: 1.5;" width="334" x="1682" y="173"/><ellipse cx="1709.6" cy="189" fill="#B4A7E5" rx="11" ry="11" style="stroke: #A80036; stroke-width: 1.0;"/><path d="M1705.5219,184.7656 L1705.5219,182.6094 L1712.9125,182.6094 L1712.9125,184.7656 L1710.4438,184.7656 L1710.4438,192.8438 L1712.9125,192.8438 L1712.9125,195 L1705.5219,195 L1705.5219,192.8438 L1707.9906,192.8438 L1707.9906,184.7656 L1705.5219,184.7656 Z "/><text fill="#000000" font-family="sans-serif" font-size="12" font-style="italic" lengthAdjust="spacingAndGlyphs" textLength="172" x="1726.4" y="193.1543">NodeAttributeProviderState</text><rect fill="#FFFFFF" height="15.9688" style="stroke: #000000; stroke-width: 1.0; stroke-dasharray: 2.0,2.0;" width="100" x="1919" y="170"/><text fill="#000000" font-family="sans-serif" font-size="12" font-style="italic" lengthAdjust="spacingAndGlyphs" textLength="98" x="1920" y="182.1387">T extends Node</text><line style="stroke: #A80036; stroke-width: 1.5;" x1="1683" x2="2015" y1="205" y2="205"/><line style="stroke: #A80036; stroke-width: 1.5;" x1="1683" x2="2015" y1="213" y2="213"/><ellipse cx="1693" cy="224" fill="#84BE84" rx="3" ry="3" style="stroke: #038048; stroke-width: 1.0;"/><text fill="#000000" font-family="sans-serif" font-size="11" font-style="italic" lengthAdjust="spacingAndGlyphs" textLength="308" x="1702" y="227.2104">setAttributes(MutableAttributes, T extends Node): void</text></a><!--MD5=[d0e900d4d973637a69a52f97c4fbfae8]
class org.apache.wiki.markdown.extensions.jspwikilinks.attributeprovider.ImageLinkAttributeProviderState--><a href="ImageLinkAttributeProviderState.html" target="_top" title="ImageLinkAttributeProviderState.html" xlink:actuate="onRequest" xlink:href="ImageLinkAttributeProviderState.html" xlink:show="new" xlink:title="ImageLinkAttributeProviderState.html" xlink:type="simple"><rect codeLine="52" fill="#FEFECE" filter="url(#f16qemw6yzxqng)" height="73.6094" id="org.apache.wiki.markdown.extensions.jspwikilinks.attributeprovider.ImageLinkAttributeProviderState" style="stroke: #A80036; stroke-width: 1.5;" width="354" x="3232" y="313"/><ellipse cx="3303.75" cy="329" fill="#ADD1B2" rx="11" ry="11" style="stroke: #A80036; stroke-width: 1.0;"/><path d="M3306.7188,334.6406 Q3306.1406,334.9375 3305.5,335.0781 Q3304.8594,335.2344 3304.1563,335.2344 Q3301.6563,335.2344 3300.3281,333.5938 Q3299.0156,331.9375 3299.0156,328.8125 Q3299.0156,325.6875 3300.3281,324.0313 Q3301.6563,322.375 3304.1563,322.375 Q3304.8594,322.375 3305.5,322.5313 Q3306.1563,322.6875 3306.7188,322.9844 L3306.7188,325.7031 Q3306.0938,325.125 3305.5,324.8594 Q3304.9063,324.5781 3304.2813,324.5781 Q3302.9375,324.5781 3302.25,325.6563 Q3301.5625,326.7188 3301.5625,328.8125 Q3301.5625,330.9063 3302.25,331.9844 Q3302.9375,333.0469 3304.2813,333.0469 Q3304.9063,333.0469 3305.5,332.7813 Q3306.0938,332.5 3306.7188,331.9219 L3306.7188,334.6406 Z "/><text fill="#000000" font-family="sans-serif" font-size="12" lengthAdjust="spacingAndGlyphs" textLength="202" x="3324.25" y="333.1543">ImageLinkAttributeProviderState</text><line style="stroke: #A80036; stroke-width: 1.5;" x1="3233" x2="3585" y1="345" y2="345"/><line style="stroke: #A80036; stroke-width: 1.5;" x1="3233" x2="3585" y1="353" y2="353"/><ellipse cx="3243" cy="364" fill="#84BE84" rx="3" ry="3" style="stroke: #038048; stroke-width: 1.0;"/><text fill="#000000" font-family="sans-serif" font-size="11" lengthAdjust="spacingAndGlyphs" textLength="328" x="3252" y="367.2104">ImageLinkAttributeProviderState(Context, String, boolean)</text><ellipse cx="3243" cy="376.8047" fill="#84BE84" rx="3" ry="3" style="stroke: #038048; stroke-width: 1.0;"/><text fill="#000000" font-family="sans-serif" font-size="11" lengthAdjust="spacingAndGlyphs" textLength="280" x="3252" y="380.0151">setAttributes(MutableAttributes, JSPWikiLink): void</text></a><!--MD5=[f4465cf4658ba3dde8da15ef592a3d36]
class org.apache.wiki.markdown.extensions.jspwikilinks.attributeprovider.JSPWikiLinkAttributeProvider--><a href="JSPWikiLinkAttributeProvider.html" target="_top" title="JSPWikiLinkAttributeProvider.html" xlink:actuate="onRequest" xlink:href="JSPWikiLinkAttributeProvider.html" xlink:show="new" xlink:title="JSPWikiLinkAttributeProvider.html" xlink:type="simple"><rect codeLine="57" fill="#FEFECE" filter="url(#f16qemw6yzxqng)" height="99.2188" id="org.apache.wiki.markdown.extensions.jspwikilinks.attributeprovider.JSPWikiLinkAttributeProvider" style="stroke: #A80036; stroke-width: 1.5;" width="373" x="1273.5" y="154"/><ellipse cx="1369.25" cy="170" fill="#ADD1B2" rx="11" ry="11" style="stroke: #A80036; stroke-width: 1.0;"/><path d="M1372.2188,175.6406 Q1371.6406,175.9375 1371,176.0781 Q1370.3594,176.2344 1369.6563,176.2344 Q1367.1563,176.2344 1365.8281,174.5938 Q1364.5156,172.9375 1364.5156,169.8125 Q1364.5156,166.6875 1365.8281,165.0313 Q1367.1563,163.375 1369.6563,163.375 Q1370.3594,163.375 1371,163.5313 Q1371.6563,163.6875 1372.2188,163.9844 L1372.2188,166.7031 Q1371.5938,166.125 1371,165.8594 Q1370.4063,165.5781 1369.7813,165.5781 Q1368.4375,165.5781 1367.75,166.6563 Q1367.0625,167.7188 1367.0625,169.8125 Q1367.0625,171.9063 1367.75,172.9844 Q1368.4375,174.0469 1369.7813,174.0469 Q1370.4063,174.0469 1371,173.7813 Q1371.5938,173.5 1372.2188,172.9219 L1372.2188,175.6406 Z "/><text fill="#000000" font-family="sans-serif" font-size="12" lengthAdjust="spacingAndGlyphs" textLength="173" x="1389.75" y="174.1543">JSPWikiLinkAttributeProvider</text><line style="stroke: #A80036; stroke-width: 1.5;" x1="1274.5" x2="1645.5" y1="186" y2="186"/><polygon fill="none" points="1284.5,192,1288.5,196,1284.5,200,1280.5,196" style="stroke: #B38D22; stroke-width: 1.0;"/><text fill="#000000" font-family="sans-serif" font-size="11" lengthAdjust="spacingAndGlyphs" textLength="115" x="1293.5" y="200.2104">wikiContext: Context</text><polygon fill="none" points="1284.5,204.8047,1288.5,208.8047,1284.5,212.8047,1280.5,208.8047" style="stroke: #B38D22; stroke-width: 1.0;"/><text fill="#000000" font-family="sans-serif" font-size="11" lengthAdjust="spacingAndGlyphs" textLength="218" x="1293.5" y="213.0151">linkOperations: LinkParsingOperations</text><line style="stroke: #A80036; stroke-width: 1.5;" x1="1274.5" x2="1645.5" y1="219.6094" y2="219.6094"/><ellipse cx="1284.5" cy="230.6094" fill="#84BE84" rx="3" ry="3" style="stroke: #038048; stroke-width: 1.0;"/><text fill="#000000" font-family="sans-serif" font-size="11" lengthAdjust="spacingAndGlyphs" textLength="347" x="1293.5" y="233.8198">JSPWikiLinkAttributeProvider(Context, boolean, List&lt;Pattern&gt;)</text><ellipse cx="1284.5" cy="243.4141" fill="#84BE84" rx="3" ry="3" style="stroke: #038048; stroke-width: 1.0;"/><text fill="#000000" font-family="sans-serif" font-size="11" lengthAdjust="spacingAndGlyphs" textLength="344" x="1293.5" y="246.6245">setAttributes(Node, AttributablePart, MutableAttributes): void</text></a><!--MD5=[da0b0cfbe6fb5c1880ced7888584e185]
class com.vladsch.flexmark.html.IndependentAttributeProviderFactory--><rect codeLine="78" fill="#FEFECE" filter="url(#f16qemw6yzxqng)" height="48" id="com.vladsch.flexmark.html.IndependentAttributeProviderFactory" style="stroke: #A80036; stroke-width: 1.5;" width="265" x="1902.5" y="39.5"/><ellipse cx="1917.5" cy="55.5" fill="#A9DCDF" rx="11" ry="11" style="stroke: #A80036; stroke-width: 1.0;"/><path d="M1917.6094,50.8438 L1916.4531,55.9219 L1918.7813,55.9219 L1917.6094,50.8438 Z M1916.125,48.6094 L1919.1094,48.6094 L1922.4688,61 L1920.0156,61 L1919.25,57.9375 L1915.9688,57.9375 L1915.2188,61 L1912.7813,61 L1916.125,48.6094 Z "/><text fill="#000000" font-family="sans-serif" font-size="12" font-style="italic" lengthAdjust="spacingAndGlyphs" textLength="233" x="1931.5" y="59.6543">IndependentAttributeProviderFactory</text><line style="stroke: #A80036; stroke-width: 1.5;" x1="1903.5" x2="2166.5" y1="71.5" y2="71.5"/><line style="stroke: #A80036; stroke-width: 1.5;" x1="1903.5" x2="2166.5" y1="79.5" y2="79.5"/><!--MD5=[e3328784921197028990914999438f7b]
class com.vladsch.flexmark.html.AttributeProvider--><rect codeLine="79" fill="#FEFECE" filter="url(#f16qemw6yzxqng)" height="60.8047" id="com.vladsch.flexmark.html.AttributeProvider" style="stroke: #A80036; stroke-width: 1.5;" width="371" x="1496.5" y="33"/><ellipse cx="1625.25" cy="49" fill="#B4A7E5" rx="11" ry="11" style="stroke: #A80036; stroke-width: 1.0;"/><path d="M1621.1719,44.7656 L1621.1719,42.6094 L1628.5625,42.6094 L1628.5625,44.7656 L1626.0938,44.7656 L1626.0938,52.8438 L1628.5625,52.8438 L1628.5625,55 L1621.1719,55 L1621.1719,52.8438 L1623.6406,52.8438 L1623.6406,44.7656 L1621.1719,44.7656 Z "/><text fill="#000000" font-family="sans-serif" font-size="12" font-style="italic" lengthAdjust="spacingAndGlyphs" textLength="105" x="1645.75" y="53.1543">AttributeProvider</text><line style="stroke: #A80036; stroke-width: 1.5;" x1="1497.5" x2="1866.5" y1="65" y2="65"/><line style="stroke: #A80036; stroke-width: 1.5;" x1="1497.5" x2="1866.5" y1="73" y2="73"/><ellipse cx="1507.5" cy="84" fill="#84BE84" rx="3" ry="3" style="stroke: #038048; stroke-width: 1.0;"/><text fill="#000000" font-family="sans-serif" font-size="11" font-style="italic" lengthAdjust="spacingAndGlyphs" textLength="345" x="1516.5" y="87.2104">setAttributes(Node, AttributablePart, MutableAttributes): void</text><!--MD5=[e8e25f8b07d68029c95e09ef04581633]
reverse link com.vladsch.flexmark.html.IndependentAttributeProviderFactory to org.apache.wiki.markdown.extensions.jspwikilinks.attributeprovider.JSPWikiLinkAttributeProviderFactory--><path codeLine="64" d="M2090.622,98.4196 C2123.5564,119.0959 2165.2625,145.2791 2198.8039,166.3365 " fill="none" id="com.vladsch.flexmark.html.IndependentAttributeProviderFactory-backto-org.apache.wiki.markdown.extensions.jspwikilinks.attributeprovider.JSPWikiLinkAttributeProviderFactory" style="stroke: #A80036; stroke-width: 1.0;"/><polygon fill="none" points="2086.5517,104.1295,2073.3351,87.5669,2093.9956,92.2725,2086.5517,104.1295" style="stroke: #A80036; stroke-width: 1.0;"/><!--MD5=[184e370769ee86e88b5ca171f8a822dd]
reverse link org.apache.wiki.markdown.extensions.jspwikilinks.attributeprovider.NodeAttributeProviderState to org.apache.wiki.markdown.extensions.jspwikilinks.attributeprovider.LocalReadLinkAttributeProviderState--><path codeLine="65" d="M1730.9467,239.1417 C1708.8761,244.6453 1685.871,249.6161 1664,253 C1085.388,342.5225 928.6071,237.4914 348,313 C342.1264,313.7639 336.1555,314.626 330.1361,315.5671 " fill="none" id="org.apache.wiki.markdown.extensions.jspwikilinks.attributeprovider.NodeAttributeProviderState-backto-org.apache.wiki.markdown.extensions.jspwikilinks.attributeprovider.LocalReadLinkAttributeProviderState" style="stroke: #A80036; stroke-width: 1.0; stroke-dasharray: 7.0,7.0;"/><polygon fill="none" points="1729.353,232.3235,1750.4696,234.0817,1732.8656,245.8757,1729.353,232.3235" style="stroke: #A80036; stroke-width: 1.0;"/><!--MD5=[4bc3aa91c72cd7edf084f8c7dd660073]
reverse link org.apache.wiki.markdown.extensions.jspwikilinks.attributeprovider.NodeAttributeProviderState to org.apache.wiki.markdown.extensions.jspwikilinks.attributeprovider.LocalLinkAttributeProviderState--><path codeLine="66" d="M1729.0101,239.1385 C1707.5179,244.5079 1685.212,249.4333 1664,253 C1297.0829,314.6958 1198.7353,271.4024 829,313 C823.1109,313.6626 817.1451,314.3633 811.1287,315.0961 " fill="none" id="org.apache.wiki.markdown.extensions.jspwikilinks.attributeprovider.NodeAttributeProviderState-backto-org.apache.wiki.markdown.extensions.jspwikilinks.attributeprovider.LocalLinkAttributeProviderState" style="stroke: #A80036; stroke-width: 1.0; stroke-dasharray: 7.0,7.0;"/><polygon fill="none" points="1727.3488,232.3379,1748.4643,234.1087,1730.8532,245.8922,1727.3488,232.3379" style="stroke: #A80036; stroke-width: 1.0;"/><!--MD5=[91c10a4ec75701a8acc152ddae0f349f]
reverse link org.apache.wiki.markdown.extensions.jspwikilinks.attributeprovider.NodeAttributeProviderState to org.apache.wiki.markdown.extensions.jspwikilinks.attributeprovider.ExternalLinkAttributeProviderState--><path codeLine="67" d="M1722.2079,239.1719 C1702.7866,244.1288 1682.9125,248.9147 1664,253 C1597.3489,267.3974 1443.1719,292.8064 1309.6887,314.0075 " fill="none" id="org.apache.wiki.markdown.extensions.jspwikilinks.attributeprovider.NodeAttributeProviderState-backto-org.apache.wiki.markdown.extensions.jspwikilinks.attributeprovider.ExternalLinkAttributeProviderState" style="stroke: #A80036; stroke-width: 1.0; stroke-dasharray: 7.0,7.0;"/><polygon fill="none" points="1720.7048,232.33,1741.8227,234.0727,1724.2274,245.8796,1720.7048,232.33" style="stroke: #A80036; stroke-width: 1.0;"/><!--MD5=[908db2af469fd6038c5d5673b290e9aa]
reverse link org.apache.wiki.markdown.extensions.jspwikilinks.attributeprovider.NodeAttributeProviderState to org.apache.wiki.markdown.extensions.jspwikilinks.attributeprovider.LocalEditLinkAttributeProviderState--><path codeLine="68" d="M1758.4352,241.8461 C1706.6364,263.7782 1641.9696,291.1588 1590.6629,312.8826 " fill="none" id="org.apache.wiki.markdown.extensions.jspwikilinks.attributeprovider.NodeAttributeProviderState-backto-org.apache.wiki.markdown.extensions.jspwikilinks.attributeprovider.LocalEditLinkAttributeProviderState" style="stroke: #A80036; stroke-width: 1.0; stroke-dasharray: 7.0,7.0;"/><polygon fill="none" points="1755.7418,235.3849,1776.8882,234.0329,1761.2004,248.2769,1755.7418,235.3849" style="stroke: #A80036; stroke-width: 1.0;"/><!--MD5=[3170b10dc60f61b395e0df1053f0f167]
reverse link org.apache.wiki.markdown.extensions.jspwikilinks.attributeprovider.NodeAttributeProviderState to org.apache.wiki.markdown.extensions.jspwikilinks.attributeprovider.WysiwygEditingAttributeProviderState--><path codeLine="69" d="M1849,254.2786 C1849,273.5284 1849,295.0707 1849,312.8373 " fill="none" id="org.apache.wiki.markdown.extensions.jspwikilinks.attributeprovider.NodeAttributeProviderState-backto-org.apache.wiki.markdown.extensions.jspwikilinks.attributeprovider.WysiwygEditingAttributeProviderState" style="stroke: #A80036; stroke-width: 1.0; stroke-dasharray: 7.0,7.0;"/><polygon fill="none" points="1842.0001,254.2112,1849,234.2112,1856.0001,254.2112,1842.0001,254.2112" style="stroke: #A80036; stroke-width: 1.0;"/><!--MD5=[c3448401efd240e3d7171f7b22d4d3a4]
reverse link org.apache.wiki.markdown.extensions.jspwikilinks.attributeprovider.NodeAttributeProviderState to org.apache.wiki.markdown.extensions.jspwikilinks.attributeprovider.LocalFootnoteLinkAttributeProviderState--><path codeLine="70" d="M1938.5921,241.9904 C1989.5858,263.8983 2053.1496,291.2065 2103.604,312.8826 " fill="none" id="org.apache.wiki.markdown.extensions.jspwikilinks.attributeprovider.NodeAttributeProviderState-backto-org.apache.wiki.markdown.extensions.jspwikilinks.attributeprovider.LocalFootnoteLinkAttributeProviderState" style="stroke: #A80036; stroke-width: 1.0; stroke-dasharray: 7.0,7.0;"/><polygon fill="none" points="1935.6825,248.3592,1920.0697,234.0329,1941.2088,235.496,1935.6825,248.3592" style="stroke: #A80036; stroke-width: 1.0;"/><!--MD5=[375f0430107a551a65c9ef2c8845091d]
reverse link org.apache.wiki.markdown.extensions.jspwikilinks.attributeprovider.NodeAttributeProviderState to org.apache.wiki.markdown.extensions.jspwikilinks.attributeprovider.InterWikiLinkAttributeProviderState--><path codeLine="71" d="M1975.8024,239.1245 C1995.2222,244.0879 2015.0932,248.8883 2034,253 C2098.7813,267.0883 2247.6435,292.0888 2377.8005,313.1798 " fill="none" id="org.apache.wiki.markdown.extensions.jspwikilinks.attributeprovider.NodeAttributeProviderState-backto-org.apache.wiki.markdown.extensions.jspwikilinks.attributeprovider.InterWikiLinkAttributeProviderState" style="stroke: #A80036; stroke-width: 1.0; stroke-dasharray: 7.0,7.0;"/><polygon fill="none" points="1973.7814,245.8318,1956.1884,234.0213,1977.3067,232.2829,1973.7814,245.8318" style="stroke: #A80036; stroke-width: 1.0;"/><!--MD5=[a7d0533e216ed85f9f81191aeb740192]
reverse link org.apache.wiki.markdown.extensions.jspwikilinks.attributeprovider.NodeAttributeProviderState to org.apache.wiki.markdown.extensions.jspwikilinks.attributeprovider.LocalFootnoteRefLinkAttributeProviderState--><path codeLine="72" d="M1968.9922,239.1246 C1990.4841,244.4956 2012.7893,249.425 2034,253 C2396.959,314.1756 2495.4866,261.8953 2860,313 C2865.4406,313.7628 2870.9645,314.5942 2876.5349,315.4812 " fill="none" id="org.apache.wiki.markdown.extensions.jspwikilinks.attributeprovider.NodeAttributeProviderState-backto-org.apache.wiki.markdown.extensions.jspwikilinks.attributeprovider.LocalFootnoteRefLinkAttributeProviderState" style="stroke: #A80036; stroke-width: 1.0; stroke-dasharray: 7.0,7.0;"/><polygon fill="none" points="1967.1488,245.8783,1949.5381,234.0942,1970.6537,232.3241,1967.1488,245.8783" style="stroke: #A80036; stroke-width: 1.0;"/><!--MD5=[414b1201f38205903c7d8934f071b69d]
reverse link org.apache.wiki.markdown.extensions.jspwikilinks.attributeprovider.NodeAttributeProviderState to org.apache.wiki.markdown.extensions.jspwikilinks.attributeprovider.ImageLinkAttributeProviderState--><path codeLine="73" d="M1967.4507,239.1438 C1989.4029,244.6189 2012.2642,249.5792 2034,253 C2553.1754,334.7091 2693.1892,250.2871 3215,313 C3220.5319,313.6648 3226.1433,314.3944 3231.8016,315.1777 " fill="none" id="org.apache.wiki.markdown.extensions.jspwikilinks.attributeprovider.NodeAttributeProviderState-backto-org.apache.wiki.markdown.extensions.jspwikilinks.attributeprovider.ImageLinkAttributeProviderState" style="stroke: #A80036; stroke-width: 1.0; stroke-dasharray: 7.0,7.0;"/><polygon fill="none" points="1965.6328,245.904,1948.0264,234.1135,1969.1426,232.3511,1965.6328,245.904" style="stroke: #A80036; stroke-width: 1.0;"/><!--MD5=[2a4b7d56e96f2a4989a53a60336cecbf]
reverse link com.vladsch.flexmark.html.AttributeProvider to org.apache.wiki.markdown.extensions.jspwikilinks.attributeprovider.JSPWikiLinkAttributeProvider--><path codeLine="74" d="M1616.5374,104.7827 C1592.1899,120.137 1564.3063,137.7213 1538.8824,153.7544 " fill="none" id="com.vladsch.flexmark.html.AttributeProvider-backto-org.apache.wiki.markdown.extensions.jspwikilinks.attributeprovider.JSPWikiLinkAttributeProvider" style="stroke: #A80036; stroke-width: 1.0; stroke-dasharray: 7.0,7.0;"/><polygon fill="none" points="1612.9045,98.7981,1633.5555,94.0506,1620.3724,110.64,1612.9045,98.7981" style="stroke: #A80036; stroke-width: 1.0;"/><text fill="#888888" font-family="sans-serif" font-size="10" lengthAdjust="spacingAndGlyphs" textLength="192" x="1703" y="410.2822">UMLDoclet 2.0.12, PlantUML 1.2020.16</text><!--MD5=[07e09aaa2a53dbe71f3af041ba652008]
@startuml
    namespace org.apache.wiki.markdown.extensions.jspwikilinks.attributeprovider {

        class JSPWikiLinkAttributeProviderFactory [[JSPWikiLinkAttributeProviderFactory.html]] {
            +JSPWikiLinkAttributeProviderFactory(Context, boolean, List<Pattern>)
            +apply(LinkResolverContext): AttributeProvider
        }

        class LocalReadLinkAttributeProviderState [[LocalReadLinkAttributeProviderState.html]] {
            +LocalReadLinkAttributeProviderState(Context)
            +setAttributes(MutableAttributes, JSPWikiLink): void
        }

        class LocalLinkAttributeProviderState [[LocalLinkAttributeProviderState.html]] {
            +LocalLinkAttributeProviderState(Context, boolean, boolean, List<Pattern>)
            +setAttributes(MutableAttributes, JSPWikiLink): void
        }

        class ExternalLinkAttributeProviderState [[ExternalLinkAttributeProviderState.html]] {
            +ExternalLinkAttributeProviderState(Context, boolean, boolean, List<Pattern>)
            +setAttributes(MutableAttributes, JSPWikiLink): void
        }

        class LocalEditLinkAttributeProviderState [[LocalEditLinkAttributeProviderState.html]] {
            +LocalEditLinkAttributeProviderState(Context, String)
            +setAttributes(MutableAttributes, JSPWikiLink): void
        }

        class WysiwygEditingAttributeProviderState [[WysiwygEditingAttributeProviderState.html]] {
            +WysiwygEditingAttributeProviderState(Context)
            +setAttributes(MutableAttributes, JSPWikiLink): void
        }

        class LocalFootnoteLinkAttributeProviderState [[LocalFootnoteLinkAttributeProviderState.html]] {
            +LocalFootnoteLinkAttributeProviderState(Context)
            +setAttributes(MutableAttributes, JSPWikiLink): void
        }

        class InterWikiLinkAttributeProviderState [[InterWikiLinkAttributeProviderState.html]] {
            +InterWikiLinkAttributeProviderState(Context, boolean, boolean, List<Pattern>)
            +setAttributes(MutableAttributes, JSPWikiLink): void
        }

        class LocalFootnoteRefLinkAttributeProviderState [[LocalFootnoteRefLinkAttributeProviderState.html]] {
            +LocalFootnoteRefLinkAttributeProviderState(Context)
            +setAttributes(MutableAttributes, JSPWikiLink): void
        }

        interface NodeAttributeProviderState<T extends Node> [[NodeAttributeProviderState.html]] {
            {abstract} +setAttributes(MutableAttributes, T extends Node): void
        }

        class ImageLinkAttributeProviderState [[ImageLinkAttributeProviderState.html]] {
            +ImageLinkAttributeProviderState(Context, String, boolean)
            +setAttributes(MutableAttributes, JSPWikiLink): void
        }

        class JSPWikiLinkAttributeProvider [[JSPWikiLinkAttributeProvider.html]] {
            #wikiContext: Context
            #linkOperations: LinkParsingOperations
            +JSPWikiLinkAttributeProvider(Context, boolean, List<Pattern>)
            +setAttributes(Node, AttributablePart, MutableAttributes): void
        }

        com.vladsch.flexmark.html.IndependentAttributeProviderFactory <|- - JSPWikiLinkAttributeProviderFactory
        NodeAttributeProviderState <|.. LocalReadLinkAttributeProviderState
        NodeAttributeProviderState <|.. LocalLinkAttributeProviderState
        NodeAttributeProviderState <|.. ExternalLinkAttributeProviderState
        NodeAttributeProviderState <|.. LocalEditLinkAttributeProviderState
        NodeAttributeProviderState <|.. WysiwygEditingAttributeProviderState
        NodeAttributeProviderState <|.. LocalFootnoteLinkAttributeProviderState
        NodeAttributeProviderState <|.. InterWikiLinkAttributeProviderState
        NodeAttributeProviderState <|.. LocalFootnoteRefLinkAttributeProviderState
        NodeAttributeProviderState <|.. ImageLinkAttributeProviderState
        com.vladsch.flexmark.html.AttributeProvider <|.. JSPWikiLinkAttributeProvider
    }

    namespace com.vladsch.flexmark.html {
        abstract class IndependentAttributeProviderFactory
        interface AttributeProvider {
            {abstract} +setAttributes(Node, AttributablePart, MutableAttributes): void
        }
    }

    center footer UMLDoclet 2.0.12, PlantUML 1.2020.16
@enduml

PlantUML version 1.2020.16(Sun Aug 23 20:20:43 UTC 2020)
(APACHE source distribution)
Java Runtime: Java(TM) SE Runtime Environment
JVM: Java HotSpot(TM) 64-Bit Server VM
Default Encoding: ISO-8859-1
Language: en
Country: US
--></g></svg>