<?xml version="1.0" encoding="UTF-8" standalone="no"?><svg xmlns="http://www.w3.org/2000/svg" xmlns:xlink="http://www.w3.org/1999/xlink" contentScriptType="application/ecmascript" contentStyleType="text/css" height="423px" preserveAspectRatio="none" style="width:3616px;height:423px;" version="1.1" viewBox="0 0 3616 423" width="3616px" zoomAndPan="magnify"><defs><filter height="300%" id="f2yr5c0d0frdo" width="300%" x="-1" y="-1"><feGaussianBlur result="blurOut" stdDeviation="2.0"/><feColorMatrix in="blurOut" result="blurOut2" type="matrix" values="0 0 0 0 0 0 0 0 0 0 0 0 0 0 0 0 0 0 .4 0"/><feOffset dx="4.0" dy="4.0" in="blurOut2" result="blurOut3"/><feBlend in="SourceGraphic" in2="blurOut3" mode="normal"/></filter></defs><g><!--MD5=[dfaafc7932285f4cf5c29f79a5563992]
cluster org.apache.wiki.markdown.extensions.jspwikilinks.attributeprovider--><polygon fill="#FFFFFF" filter="url(#f2yr5c0d0frdo)" points="16,127,562,127,569,149.2969,3594,149.2969,3594,395,16,395,16,127" style="stroke: #000000; stroke-width: 1.5;"/><line style="stroke: #000000; stroke-width: 1.5;" x1="16" x2="569" y1="149.2969" y2="149.2969"/><text fill="#000000" font-family="sans-serif" font-size="14" font-weight="bold" lengthAdjust="spacingAndGlyphs" textLength="540" x="20" y="141.9951">org.apache.wiki.markdown.extensions.jspwikilinks.attributeprovider</text><!--MD5=[a81de2553a89e9ee3aa41b3837eb6c94]
cluster com.vladsch.flexmark.html--><polygon fill="#FFFFFF" filter="url(#f2yr5c0d0frdo)" points="2537,6,2753,6,2760,28.2969,3225,28.2969,3225,102,2537,102,2537,6" style="stroke: #000000; stroke-width: 1.5;"/><line style="stroke: #000000; stroke-width: 1.5;" x1="2537" x2="2760" y1="28.2969" y2="28.2969"/><text fill="#000000" font-family="sans-serif" font-size="14" font-weight="bold" lengthAdjust="spacingAndGlyphs" textLength="210" x="2541" y="20.9951">com.vladsch.flexmark.html</text><!--MD5=[8a934b07a9213ba220109e16d2ff62ba]
class org.apache.wiki.markdown.extensions.jspwikilinks.attributeprovider.LocalFootnoteRefLinkAttributeProviderState--><a href="LocalFootnoteRefLinkAttributeProviderState.html" target="_top" title="LocalFootnoteRefLinkAttributeProviderState.html" xlink:actuate="onRequest" xlink:href="LocalFootnoteRefLinkAttributeProviderState.html" xlink:show="new" xlink:title="LocalFootnoteRefLinkAttributeProviderState.html" xlink:type="simple"><rect codeLine="3" fill="#FEFECE" filter="url(#f2yr5c0d0frdo)" height="73.6094" id="org.apache.wiki.markdown.extensions.jspwikilinks.attributeprovider.LocalFootnoteRefLinkAttributeProviderState" style="stroke: #A80036; stroke-width: 1.5;" width="320" x="24" y="313"/><ellipse cx="45.75" cy="329" fill="#ADD1B2" rx="11" ry="11" style="stroke: #A80036; stroke-width: 1.0;"/><path d="M48.7188,334.6406 Q48.1406,334.9375 47.5,335.0781 Q46.8594,335.2344 46.1563,335.2344 Q43.6563,335.2344 42.3281,333.5938 Q41.0156,331.9375 41.0156,328.8125 Q41.0156,325.6875 42.3281,324.0313 Q43.6563,322.375 46.1563,322.375 Q46.8594,322.375 47.5,322.5313 Q48.1563,322.6875 48.7188,322.9844 L48.7188,325.7031 Q48.0938,325.125 47.5,324.8594 Q46.9063,324.5781 46.2813,324.5781 Q44.9375,324.5781 44.25,325.6563 Q43.5625,326.7188 43.5625,328.8125 Q43.5625,330.9063 44.25,331.9844 Q44.9375,333.0469 46.2813,333.0469 Q46.9063,333.0469 47.5,332.7813 Q48.0938,332.5 48.7188,331.9219 L48.7188,334.6406 Z "/><text fill="#000000" font-family="sans-serif" font-size="12" lengthAdjust="spacingAndGlyphs" textLength="273" x="61.25" y="333.1543">LocalFootnoteRefLinkAttributeProviderState</text><line style="stroke: #A80036; stroke-width: 1.5;" x1="25" x2="343" y1="345" y2="345"/><line style="stroke: #A80036; stroke-width: 1.5;" x1="25" x2="343" y1="353" y2="353"/><ellipse cx="35" cy="364" fill="#84BE84" rx="3" ry="3" style="stroke: #038048; stroke-width: 1.0;"/><text fill="#000000" font-family="sans-serif" font-size="11" lengthAdjust="spacingAndGlyphs" textLength="294" x="44" y="367.2104">LocalFootnoteRefLinkAttributeProviderState(Context)</text><ellipse cx="35" cy="376.8047" fill="#84BE84" rx="3" ry="3" style="stroke: #038048; stroke-width: 1.0;"/><text fill="#000000" font-family="sans-serif" font-size="11" lengthAdjust="spacingAndGlyphs" textLength="280" x="44" y="380.0151">setAttributes(MutableAttributes, JSPWikiLink): void</text></a><!--MD5=[f4465cf4658ba3dde8da15ef592a3d36]
class org.apache.wiki.markdown.extensions.jspwikilinks.attributeprovider.JSPWikiLinkAttributeProvider--><a href="JSPWikiLinkAttributeProvider.html" target="_top" title="JSPWikiLinkAttributeProvider.html" xlink:actuate="onRequest" xlink:href="JSPWikiLinkAttributeProvider.html" xlink:show="new" xlink:title="JSPWikiLinkAttributeProvider.html" xlink:type="simple"><rect codeLine="8" fill="#FEFECE" filter="url(#f2yr5c0d0frdo)" height="99.2188" id="org.apache.wiki.markdown.extensions.jspwikilinks.attributeprovider.JSPWikiLinkAttributeProvider" style="stroke: #A80036; stroke-width: 1.5;" width="373" x="2882.5" y="154"/><ellipse cx="2978.25" cy="170" fill="#ADD1B2" rx="11" ry="11" style="stroke: #A80036; stroke-width: 1.0;"/><path d="M2981.2188,175.6406 Q2980.6406,175.9375 2980,176.0781 Q2979.3594,176.2344 2978.6563,176.2344 Q2976.1563,176.2344 2974.8281,174.5938 Q2973.5156,172.9375 2973.5156,169.8125 Q2973.5156,166.6875 2974.8281,165.0313 Q2976.1563,163.375 2978.6563,163.375 Q2979.3594,163.375 2980,163.5313 Q2980.6563,163.6875 2981.2188,163.9844 L2981.2188,166.7031 Q2980.5938,166.125 2980,165.8594 Q2979.4063,165.5781 2978.7813,165.5781 Q2977.4375,165.5781 2976.75,166.6563 Q2976.0625,167.7188 2976.0625,169.8125 Q2976.0625,171.9063 2976.75,172.9844 Q2977.4375,174.0469 2978.7813,174.0469 Q2979.4063,174.0469 2980,173.7813 Q2980.5938,173.5 2981.2188,172.9219 L2981.2188,175.6406 Z "/><text fill="#000000" font-family="sans-serif" font-size="12" lengthAdjust="spacingAndGlyphs" textLength="173" x="2998.75" y="174.1543">JSPWikiLinkAttributeProvider</text><line style="stroke: #A80036; stroke-width: 1.5;" x1="2883.5" x2="3254.5" y1="186" y2="186"/><polygon fill="none" points="2893.5,192,2897.5,196,2893.5,200,2889.5,196" style="stroke: #B38D22; stroke-width: 1.0;"/><text fill="#000000" font-family="sans-serif" font-size="11" lengthAdjust="spacingAndGlyphs" textLength="115" x="2902.5" y="200.2104">wikiContext: Context</text><polygon fill="none" points="2893.5,204.8047,2897.5,208.8047,2893.5,212.8047,2889.5,208.8047" style="stroke: #B38D22; stroke-width: 1.0;"/><text fill="#000000" font-family="sans-serif" font-size="11" lengthAdjust="spacingAndGlyphs" textLength="218" x="2902.5" y="213.0151">linkOperations: LinkParsingOperations</text><line style="stroke: #A80036; stroke-width: 1.5;" x1="2883.5" x2="3254.5" y1="219.6094" y2="219.6094"/><ellipse cx="2893.5" cy="230.6094" fill="#84BE84" rx="3" ry="3" style="stroke: #038048; stroke-width: 1.0;"/><text fill="#000000" font-family="sans-serif" font-size="11" lengthAdjust="spacingAndGlyphs" textLength="347" x="2902.5" y="233.8198">JSPWikiLinkAttributeProvider(Context, boolean, List&lt;Pattern&gt;)</text><ellipse cx="2893.5" cy="243.4141" fill="#84BE84" rx="3" ry="3" style="stroke: #038048; stroke-width: 1.0;"/><text fill="#000000" font-family="sans-serif" font-size="11" lengthAdjust="spacingAndGlyphs" textLength="344" x="2902.5" y="246.6245">setAttributes(Node, AttributablePart, MutableAttributes): void</text></a><!--MD5=[0e7ec95ae7ebd202e71709e656ff7072]
class org.apache.wiki.markdown.extensions.jspwikilinks.attributeprovider.InterWikiLinkAttributeProviderState--><a href="InterWikiLinkAttributeProviderState.html" target="_top" title="InterWikiLinkAttributeProviderState.html" xlink:actuate="onRequest" xlink:href="InterWikiLinkAttributeProviderState.html" xlink:show="new" xlink:title="InterWikiLinkAttributeProviderState.html" xlink:type="simple"><rect codeLine="15" fill="#FEFECE" filter="url(#f2yr5c0d0frdo)" height="73.6094" id="org.apache.wiki.markdown.extensions.jspwikilinks.attributeprovider.InterWikiLinkAttributeProviderState" style="stroke: #A80036; stroke-width: 1.5;" width="464" x="379" y="313"/><ellipse cx="498.25" cy="329" fill="#ADD1B2" rx="11" ry="11" style="stroke: #A80036; stroke-width: 1.0;"/><path d="M501.2188,334.6406 Q500.6406,334.9375 500,335.0781 Q499.3594,335.2344 498.6563,335.2344 Q496.1563,335.2344 494.8281,333.5938 Q493.5156,331.9375 493.5156,328.8125 Q493.5156,325.6875 494.8281,324.0313 Q496.1563,322.375 498.6563,322.375 Q499.3594,322.375 500,322.5313 Q500.6563,322.6875 501.2188,322.9844 L501.2188,325.7031 Q500.5938,325.125 500,324.8594 Q499.4063,324.5781 498.7813,324.5781 Q497.4375,324.5781 496.75,325.6563 Q496.0625,326.7188 496.0625,328.8125 Q496.0625,330.9063 496.75,331.9844 Q497.4375,333.0469 498.7813,333.0469 Q499.4063,333.0469 500,332.7813 Q500.5938,332.5 501.2188,331.9219 L501.2188,334.6406 Z "/><text fill="#000000" font-family="sans-serif" font-size="12" lengthAdjust="spacingAndGlyphs" textLength="217" x="518.75" y="333.1543">InterWikiLinkAttributeProviderState</text><line style="stroke: #A80036; stroke-width: 1.5;" x1="380" x2="842" y1="345" y2="345"/><line style="stroke: #A80036; stroke-width: 1.5;" x1="380" x2="842" y1="353" y2="353"/><ellipse cx="390" cy="364" fill="#84BE84" rx="3" ry="3" style="stroke: #038048; stroke-width: 1.0;"/><text fill="#000000" font-family="sans-serif" font-size="11" lengthAdjust="spacingAndGlyphs" textLength="438" x="399" y="367.2104">InterWikiLinkAttributeProviderState(Context, boolean, boolean, List&lt;Pattern&gt;)</text><ellipse cx="390" cy="376.8047" fill="#84BE84" rx="3" ry="3" style="stroke: #038048; stroke-width: 1.0;"/><text fill="#000000" font-family="sans-serif" font-size="11" lengthAdjust="spacingAndGlyphs" textLength="280" x="399" y="380.0151">setAttributes(MutableAttributes, JSPWikiLink): void</text></a><!--MD5=[09c4e4ce9dc38d033ad9233c0b9e36c2]
class org.apache.wiki.markdown.extensions.jspwikilinks.attributeprovider.JSPWikiLinkAttributeProviderFactory--><a href="JSPWikiLinkAttributeProviderFactory.html" target="_top" title="JSPWikiLinkAttributeProviderFactory.html" xlink:actuate="onRequest" xlink:href="JSPWikiLinkAttributeProviderFactory.html" xlink:show="new" xlink:title="JSPWikiLinkAttributeProviderFactory.html" xlink:type="simple"><rect codeLine="20" fill="#FEFECE" filter="url(#f2yr5c0d0frdo)" height="73.6094" id="org.apache.wiki.markdown.extensions.jspwikilinks.attributeprovider.JSPWikiLinkAttributeProviderFactory" style="stroke: #A80036; stroke-width: 1.5;" width="414" x="2433" y="166.5"/><ellipse cx="2526.25" cy="182.5" fill="#ADD1B2" rx="11" ry="11" style="stroke: #A80036; stroke-width: 1.0;"/><path d="M2529.2188,188.1406 Q2528.6406,188.4375 2528,188.5781 Q2527.3594,188.7344 2526.6563,188.7344 Q2524.1563,188.7344 2522.8281,187.0938 Q2521.5156,185.4375 2521.5156,182.3125 Q2521.5156,179.1875 2522.8281,177.5313 Q2524.1563,175.875 2526.6563,175.875 Q2527.3594,175.875 2528,176.0313 Q2528.6563,176.1875 2529.2188,176.4844 L2529.2188,179.2031 Q2528.5938,178.625 2528,178.3594 Q2527.4063,178.0781 2526.7813,178.0781 Q2525.4375,178.0781 2524.75,179.1563 Q2524.0625,180.2188 2524.0625,182.3125 Q2524.0625,184.4063 2524.75,185.4844 Q2525.4375,186.5469 2526.7813,186.5469 Q2527.4063,186.5469 2528,186.2813 Q2528.5938,186 2529.2188,185.4219 L2529.2188,188.1406 Z "/><text fill="#000000" font-family="sans-serif" font-size="12" lengthAdjust="spacingAndGlyphs" textLength="219" x="2546.75" y="186.6543">JSPWikiLinkAttributeProviderFactory</text><line style="stroke: #A80036; stroke-width: 1.5;" x1="2434" x2="2846" y1="198.5" y2="198.5"/><line style="stroke: #A80036; stroke-width: 1.5;" x1="2434" x2="2846" y1="206.5" y2="206.5"/><ellipse cx="2444" cy="217.5" fill="#84BE84" rx="3" ry="3" style="stroke: #038048; stroke-width: 1.0;"/><text fill="#000000" font-family="sans-serif" font-size="11" lengthAdjust="spacingAndGlyphs" textLength="388" x="2453" y="220.7104">JSPWikiLinkAttributeProviderFactory(Context, boolean, List&lt;Pattern&gt;)</text><ellipse cx="2444" cy="230.3047" fill="#84BE84" rx="3" ry="3" style="stroke: #038048; stroke-width: 1.0;"/><text fill="#000000" font-family="sans-serif" font-size="11" lengthAdjust="spacingAndGlyphs" textLength="255" x="2453" y="233.5151">apply(LinkResolverContext): AttributeProvider</text></a><!--MD5=[d0e900d4d973637a69a52f97c4fbfae8]
class org.apache.wiki.markdown.extensions.jspwikilinks.attributeprovider.ImageLinkAttributeProviderState--><a href="ImageLinkAttributeProviderState.html" target="_top" title="ImageLinkAttributeProviderState.html" xlink:actuate="onRequest" xlink:href="ImageLinkAttributeProviderState.html" xlink:show="new" xlink:title="ImageLinkAttributeProviderState.html" xlink:type="simple"><rect codeLine="25" fill="#FEFECE" filter="url(#f2yr5c0d0frdo)" height="73.6094" id="org.apache.wiki.markdown.extensions.jspwikilinks.attributeprovider.ImageLinkAttributeProviderState" style="stroke: #A80036; stroke-width: 1.5;" width="354" x="878" y="313"/><ellipse cx="949.75" cy="329" fill="#ADD1B2" rx="11" ry="11" style="stroke: #A80036; stroke-width: 1.0;"/><path d="M952.7188,334.6406 Q952.1406,334.9375 951.5,335.0781 Q950.8594,335.2344 950.1563,335.2344 Q947.6563,335.2344 946.3281,333.5938 Q945.0156,331.9375 945.0156,328.8125 Q945.0156,325.6875 946.3281,324.0313 Q947.6563,322.375 950.1563,322.375 Q950.8594,322.375 951.5,322.5313 Q952.1563,322.6875 952.7188,322.9844 L952.7188,325.7031 Q952.0938,325.125 951.5,324.8594 Q950.9063,324.5781 950.2813,324.5781 Q948.9375,324.5781 948.25,325.6563 Q947.5625,326.7188 947.5625,328.8125 Q947.5625,330.9063 948.25,331.9844 Q948.9375,333.0469 950.2813,333.0469 Q950.9063,333.0469 951.5,332.7813 Q952.0938,332.5 952.7188,331.9219 L952.7188,334.6406 Z "/><text fill="#000000" font-family="sans-serif" font-size="12" lengthAdjust="spacingAndGlyphs" textLength="202" x="970.25" y="333.1543">ImageLinkAttributeProviderState</text><line style="stroke: #A80036; stroke-width: 1.5;" x1="879" x2="1231" y1="345" y2="345"/><line style="stroke: #A80036; stroke-width: 1.5;" x1="879" x2="1231" y1="353" y2="353"/><ellipse cx="889" cy="364" fill="#84BE84" rx="3" ry="3" style="stroke: #038048; stroke-width: 1.0;"/><text fill="#000000" font-family="sans-serif" font-size="11" lengthAdjust="spacingAndGlyphs" textLength="328" x="898" y="367.2104">ImageLinkAttributeProviderState(Context, String, boolean)</text><ellipse cx="889" cy="376.8047" fill="#84BE84" rx="3" ry="3" style="stroke: #038048; stroke-width: 1.0;"/><text fill="#000000" font-family="sans-serif" font-size="11" lengthAdjust="spacingAndGlyphs" textLength="280" x="898" y="380.0151">setAttributes(MutableAttributes, JSPWikiLink): void</text></a><!--MD5=[11f44c57c46fbac86fd767561e6c5df7]
class org.apache.wiki.markdown.extensions.jspwikilinks.attributeprovider.LocalLinkAttributeProviderState--><a href="LocalLinkAttributeProviderState.html" target="_top" title="LocalLinkAttributeProviderState.html" xlink:actuate="onRequest" xlink:href="LocalLinkAttributeProviderState.html" xlink:show="new" xlink:title="LocalLinkAttributeProviderState.html" xlink:type="simple"><rect codeLine="30" fill="#FEFECE" filter="url(#f2yr5c0d0frdo)" height="73.6094" id="org.apache.wiki.markdown.extensions.jspwikilinks.attributeprovider.LocalLinkAttributeProviderState" style="stroke: #A80036; stroke-width: 1.5;" width="446" x="1267" y="313"/><ellipse cx="1387.75" cy="329" fill="#ADD1B2" rx="11" ry="11" style="stroke: #A80036; stroke-width: 1.0;"/><path d="M1390.7188,334.6406 Q1390.1406,334.9375 1389.5,335.0781 Q1388.8594,335.2344 1388.1563,335.2344 Q1385.6563,335.2344 1384.3281,333.5938 Q1383.0156,331.9375 1383.0156,328.8125 Q1383.0156,325.6875 1384.3281,324.0313 Q1385.6563,322.375 1388.1563,322.375 Q1388.8594,322.375 1389.5,322.5313 Q1390.1563,322.6875 1390.7188,322.9844 L1390.7188,325.7031 Q1390.0938,325.125 1389.5,324.8594 Q1388.9063,324.5781 1388.2813,324.5781 Q1386.9375,324.5781 1386.25,325.6563 Q1385.5625,326.7188 1385.5625,328.8125 Q1385.5625,330.9063 1386.25,331.9844 Q1386.9375,333.0469 1388.2813,333.0469 Q1388.9063,333.0469 1389.5,332.7813 Q1390.0938,332.5 1390.7188,331.9219 L1390.7188,334.6406 Z "/><text fill="#000000" font-family="sans-serif" font-size="12" lengthAdjust="spacingAndGlyphs" textLength="196" x="1408.25" y="333.1543">LocalLinkAttributeProviderState</text><line style="stroke: #A80036; stroke-width: 1.5;" x1="1268" x2="1712" y1="345" y2="345"/><line style="stroke: #A80036; stroke-width: 1.5;" x1="1268" x2="1712" y1="353" y2="353"/><ellipse cx="1278" cy="364" fill="#84BE84" rx="3" ry="3" style="stroke: #038048; stroke-width: 1.0;"/><text fill="#000000" font-family="sans-serif" font-size="11" lengthAdjust="spacingAndGlyphs" textLength="420" x="1287" y="367.2104">LocalLinkAttributeProviderState(Context, boolean, boolean, List&lt;Pattern&gt;)</text><ellipse cx="1278" cy="376.8047" fill="#84BE84" rx="3" ry="3" style="stroke: #038048; stroke-width: 1.0;"/><text fill="#000000" font-family="sans-serif" font-size="11" lengthAdjust="spacingAndGlyphs" textLength="280" x="1287" y="380.0151">setAttributes(MutableAttributes, JSPWikiLink): void</text></a><!--MD5=[54d39ef98fb14810f1fdbb451198371e]
class org.apache.wiki.markdown.extensions.jspwikilinks.attributeprovider.WysiwygEditingAttributeProviderState--><a href="WysiwygEditingAttributeProviderState.html" target="_top" title="WysiwygEditingAttributeProviderState.html" xlink:actuate="onRequest" xlink:href="WysiwygEditingAttributeProviderState.html" xlink:show="new" xlink:title="WysiwygEditingAttributeProviderState.html" xlink:type="simple"><rect codeLine="35" fill="#FEFECE" filter="url(#f2yr5c0d0frdo)" height="73.6094" id="org.apache.wiki.markdown.extensions.jspwikilinks.attributeprovider.WysiwygEditingAttributeProviderState" style="stroke: #A80036; stroke-width: 1.5;" width="306" x="1748" y="313"/><ellipse cx="1781.45" cy="329" fill="#ADD1B2" rx="11" ry="11" style="stroke: #A80036; stroke-width: 1.0;"/><path d="M1784.4188,334.6406 Q1783.8406,334.9375 1783.2,335.0781 Q1782.5594,335.2344 1781.8563,335.2344 Q1779.3563,335.2344 1778.0281,333.5938 Q1776.7156,331.9375 1776.7156,328.8125 Q1776.7156,325.6875 1778.0281,324.0313 Q1779.3563,322.375 1781.8563,322.375 Q1782.5594,322.375 1783.2,322.5313 Q1783.8563,322.6875 1784.4188,322.9844 L1784.4188,325.7031 Q1783.7938,325.125 1783.2,324.8594 Q1782.6063,324.5781 1781.9813,324.5781 Q1780.6375,324.5781 1779.95,325.6563 Q1779.2625,326.7188 1779.2625,328.8125 Q1779.2625,330.9063 1779.95,331.9844 Q1780.6375,333.0469 1781.9813,333.0469 Q1782.6063,333.0469 1783.2,332.7813 Q1783.7938,332.5 1784.4188,331.9219 L1784.4188,334.6406 Z "/><text fill="#000000" font-family="sans-serif" font-size="12" lengthAdjust="spacingAndGlyphs" textLength="233" x="1799.55" y="333.1543">WysiwygEditingAttributeProviderState</text><line style="stroke: #A80036; stroke-width: 1.5;" x1="1749" x2="2053" y1="345" y2="345"/><line style="stroke: #A80036; stroke-width: 1.5;" x1="1749" x2="2053" y1="353" y2="353"/><ellipse cx="1759" cy="364" fill="#84BE84" rx="3" ry="3" style="stroke: #038048; stroke-width: 1.0;"/><text fill="#000000" font-family="sans-serif" font-size="11" lengthAdjust="spacingAndGlyphs" textLength="261" x="1768" y="367.2104">WysiwygEditingAttributeProviderState(Context)</text><ellipse cx="1759" cy="376.8047" fill="#84BE84" rx="3" ry="3" style="stroke: #038048; stroke-width: 1.0;"/><text fill="#000000" font-family="sans-serif" font-size="11" lengthAdjust="spacingAndGlyphs" textLength="280" x="1768" y="380.0151">setAttributes(MutableAttributes, JSPWikiLink): void</text></a><!--MD5=[e743dbf342e63903ac27c16bbfd0534a]
class org.apache.wiki.markdown.extensions.jspwikilinks.attributeprovider.LocalEditLinkAttributeProviderState--><a href="LocalEditLinkAttributeProviderState.html" target="_top" title="LocalEditLinkAttributeProviderState.html" xlink:actuate="onRequest" xlink:href="LocalEditLinkAttributeProviderState.html" xlink:show="new" xlink:title="LocalEditLinkAttributeProviderState.html" xlink:type="simple"><rect codeLine="40" fill="#FEFECE" filter="url(#f2yr5c0d0frdo)" height="73.6094" id="org.apache.wiki.markdown.extensions.jspwikilinks.attributeprovider.LocalEditLinkAttributeProviderState" style="stroke: #A80036; stroke-width: 1.5;" width="316" x="2089" y="313"/><ellipse cx="2132.8" cy="329" fill="#ADD1B2" rx="11" ry="11" style="stroke: #A80036; stroke-width: 1.0;"/><path d="M2135.7688,334.6406 Q2135.1906,334.9375 2134.55,335.0781 Q2133.9094,335.2344 2133.2063,335.2344 Q2130.7063,335.2344 2129.3781,333.5938 Q2128.0656,331.9375 2128.0656,328.8125 Q2128.0656,325.6875 2129.3781,324.0313 Q2130.7063,322.375 2133.2063,322.375 Q2133.9094,322.375 2134.55,322.5313 Q2135.2063,322.6875 2135.7688,322.9844 L2135.7688,325.7031 Q2135.1438,325.125 2134.55,324.8594 Q2133.9563,324.5781 2133.3313,324.5781 Q2131.9875,324.5781 2131.3,325.6563 Q2130.6125,326.7188 2130.6125,328.8125 Q2130.6125,330.9063 2131.3,331.9844 Q2131.9875,333.0469 2133.3313,333.0469 Q2133.9563,333.0469 2134.55,332.7813 Q2135.1438,332.5 2135.7688,331.9219 L2135.7688,334.6406 Z "/><text fill="#000000" font-family="sans-serif" font-size="12" lengthAdjust="spacingAndGlyphs" textLength="220" x="2153.2" y="333.1543">LocalEditLinkAttributeProviderState</text><line style="stroke: #A80036; stroke-width: 1.5;" x1="2090" x2="2404" y1="345" y2="345"/><line style="stroke: #A80036; stroke-width: 1.5;" x1="2090" x2="2404" y1="353" y2="353"/><ellipse cx="2100" cy="364" fill="#84BE84" rx="3" ry="3" style="stroke: #038048; stroke-width: 1.0;"/><text fill="#000000" font-family="sans-serif" font-size="11" lengthAdjust="spacingAndGlyphs" textLength="290" x="2109" y="367.2104">LocalEditLinkAttributeProviderState(Context, String)</text><ellipse cx="2100" cy="376.8047" fill="#84BE84" rx="3" ry="3" style="stroke: #038048; stroke-width: 1.0;"/><text fill="#000000" font-family="sans-serif" font-size="11" lengthAdjust="spacingAndGlyphs" textLength="280" x="2109" y="380.0151">setAttributes(MutableAttributes, JSPWikiLink): void</text></a><!--MD5=[16927d18d6ca60be23bb1ab70fa18552]
class org.apache.wiki.markdown.extensions.jspwikilinks.attributeprovider.LocalReadLinkAttributeProviderState--><a href="LocalReadLinkAttributeProviderState.html" target="_top" title="LocalReadLinkAttributeProviderState.html" xlink:actuate="onRequest" xlink:href="LocalReadLinkAttributeProviderState.html" xlink:show="new" xlink:title="LocalReadLinkAttributeProviderState.html" xlink:type="simple"><rect codeLine="45" fill="#FEFECE" filter="url(#f2yr5c0d0frdo)" height="73.6094" id="org.apache.wiki.markdown.extensions.jspwikilinks.attributeprovider.LocalReadLinkAttributeProviderState" style="stroke: #A80036; stroke-width: 1.5;" width="306" x="2440" y="313"/><ellipse cx="2475.7" cy="329" fill="#ADD1B2" rx="11" ry="11" style="stroke: #A80036; stroke-width: 1.0;"/><path d="M2478.6688,334.6406 Q2478.0906,334.9375 2477.45,335.0781 Q2476.8094,335.2344 2476.1063,335.2344 Q2473.6063,335.2344 2472.2781,333.5938 Q2470.9656,331.9375 2470.9656,328.8125 Q2470.9656,325.6875 2472.2781,324.0313 Q2473.6063,322.375 2476.1063,322.375 Q2476.8094,322.375 2477.45,322.5313 Q2478.1063,322.6875 2478.6688,322.9844 L2478.6688,325.7031 Q2478.0438,325.125 2477.45,324.8594 Q2476.8563,324.5781 2476.2313,324.5781 Q2474.8875,324.5781 2474.2,325.6563 Q2473.5125,326.7188 2473.5125,328.8125 Q2473.5125,330.9063 2474.2,331.9844 Q2474.8875,333.0469 2476.2313,333.0469 Q2476.8563,333.0469 2477.45,332.7813 Q2478.0438,332.5 2478.6688,331.9219 L2478.6688,334.6406 Z "/><text fill="#000000" font-family="sans-serif" font-size="12" lengthAdjust="spacingAndGlyphs" textLength="228" x="2494.3" y="333.1543">LocalReadLinkAttributeProviderState</text><line style="stroke: #A80036; stroke-width: 1.5;" x1="2441" x2="2745" y1="345" y2="345"/><line style="stroke: #A80036; stroke-width: 1.5;" x1="2441" x2="2745" y1="353" y2="353"/><ellipse cx="2451" cy="364" fill="#84BE84" rx="3" ry="3" style="stroke: #038048; stroke-width: 1.0;"/><text fill="#000000" font-family="sans-serif" font-size="11" lengthAdjust="spacingAndGlyphs" textLength="255" x="2460" y="367.2104">LocalReadLinkAttributeProviderState(Context)</text><ellipse cx="2451" cy="376.8047" fill="#84BE84" rx="3" ry="3" style="stroke: #038048; stroke-width: 1.0;"/><text fill="#000000" font-family="sans-serif" font-size="11" lengthAdjust="spacingAndGlyphs" textLength="280" x="2460" y="380.0151">setAttributes(MutableAttributes, JSPWikiLink): void</text></a><!--MD5=[92e222dad5755083319d954302396700]
class org.apache.wiki.markdown.extensions.jspwikilinks.attributeprovider.ExternalLinkAttributeProviderState--><a href="ExternalLinkAttributeProviderState.html" target="_top" title="ExternalLinkAttributeProviderState.html" xlink:actuate="onRequest" xlink:href="ExternalLinkAttributeProviderState.html" xlink:show="new" xlink:title="ExternalLinkAttributeProviderState.html" xlink:type="simple"><rect codeLine="50" fill="#FEFECE" filter="url(#f2yr5c0d0frdo)" height="73.6094" id="org.apache.wiki.markdown.extensions.jspwikilinks.attributeprovider.ExternalLinkAttributeProviderState" style="stroke: #A80036; stroke-width: 1.5;" width="463" x="2781.5" y="313"/><ellipse cx="2901.25" cy="329" fill="#ADD1B2" rx="11" ry="11" style="stroke: #A80036; stroke-width: 1.0;"/><path d="M2904.2188,334.6406 Q2903.6406,334.9375 2903,335.0781 Q2902.3594,335.2344 2901.6563,335.2344 Q2899.1563,335.2344 2897.8281,333.5938 Q2896.5156,331.9375 2896.5156,328.8125 Q2896.5156,325.6875 2897.8281,324.0313 Q2899.1563,322.375 2901.6563,322.375 Q2902.3594,322.375 2903,322.5313 Q2903.6563,322.6875 2904.2188,322.9844 L2904.2188,325.7031 Q2903.5938,325.125 2903,324.8594 Q2902.4063,324.5781 2901.7813,324.5781 Q2900.4375,324.5781 2899.75,325.6563 Q2899.0625,326.7188 2899.0625,328.8125 Q2899.0625,330.9063 2899.75,331.9844 Q2900.4375,333.0469 2901.7813,333.0469 Q2902.4063,333.0469 2903,332.7813 Q2903.5938,332.5 2904.2188,331.9219 L2904.2188,334.6406 Z "/><text fill="#000000" font-family="sans-serif" font-size="12" lengthAdjust="spacingAndGlyphs" textLength="215" x="2921.75" y="333.1543">ExternalLinkAttributeProviderState</text><line style="stroke: #A80036; stroke-width: 1.5;" x1="2782.5" x2="3243.5" y1="345" y2="345"/><line style="stroke: #A80036; stroke-width: 1.5;" x1="2782.5" x2="3243.5" y1="353" y2="353"/><ellipse cx="2792.5" cy="364" fill="#84BE84" rx="3" ry="3" style="stroke: #038048; stroke-width: 1.0;"/><text fill="#000000" font-family="sans-serif" font-size="11" lengthAdjust="spacingAndGlyphs" textLength="437" x="2801.5" y="367.2104">ExternalLinkAttributeProviderState(Context, boolean, boolean, List&lt;Pattern&gt;)</text><ellipse cx="2792.5" cy="376.8047" fill="#84BE84" rx="3" ry="3" style="stroke: #038048; stroke-width: 1.0;"/><text fill="#000000" font-family="sans-serif" font-size="11" lengthAdjust="spacingAndGlyphs" textLength="280" x="2801.5" y="380.0151">setAttributes(MutableAttributes, JSPWikiLink): void</text></a><!--MD5=[751b0be4d35478110504cf058ab088e7]
class org.apache.wiki.markdown.extensions.jspwikilinks.attributeprovider.NodeAttributeProviderState--><a href="NodeAttributeProviderState.html" target="_top" title="NodeAttributeProviderState.html" xlink:actuate="onRequest" xlink:href="NodeAttributeProviderState.html" xlink:show="new" xlink:title="NodeAttributeProviderState.html" xlink:type="simple"><rect codeLine="55" fill="#FEFECE" filter="url(#f2yr5c0d0frdo)" height="60.8047" id="org.apache.wiki.markdown.extensions.jspwikilinks.attributeprovider.NodeAttributeProviderState" style="stroke: #A80036; stroke-width: 1.5;" width="334" x="1734" y="173"/><ellipse cx="1761.6" cy="189" fill="#B4A7E5" rx="11" ry="11" style="stroke: #A80036; stroke-width: 1.0;"/><path d="M1757.5219,184.7656 L1757.5219,182.6094 L1764.9125,182.6094 L1764.9125,184.7656 L1762.4438,184.7656 L1762.4438,192.8438 L1764.9125,192.8438 L1764.9125,195 L1757.5219,195 L1757.5219,192.8438 L1759.9906,192.8438 L1759.9906,184.7656 L1757.5219,184.7656 Z "/><text fill="#000000" font-family="sans-serif" font-size="12" font-style="italic" lengthAdjust="spacingAndGlyphs" textLength="172" x="1778.4" y="193.1543">NodeAttributeProviderState</text><rect fill="#FFFFFF" height="15.9688" style="stroke: #000000; stroke-width: 1.0; stroke-dasharray: 2.0,2.0;" width="100" x="1971" y="170"/><text fill="#000000" font-family="sans-serif" font-size="12" font-style="italic" lengthAdjust="spacingAndGlyphs" textLength="98" x="1972" y="182.1387">T extends Node</text><line style="stroke: #A80036; stroke-width: 1.5;" x1="1735" x2="2067" y1="205" y2="205"/><line style="stroke: #A80036; stroke-width: 1.5;" x1="1735" x2="2067" y1="213" y2="213"/><ellipse cx="1745" cy="224" fill="#84BE84" rx="3" ry="3" style="stroke: #038048; stroke-width: 1.0;"/><text fill="#000000" font-family="sans-serif" font-size="11" font-style="italic" lengthAdjust="spacingAndGlyphs" textLength="308" x="1754" y="227.2104">setAttributes(MutableAttributes, T extends Node): void</text></a><!--MD5=[5c0450cd2c266fbcaec9c603853bf499]
class org.apache.wiki.markdown.extensions.jspwikilinks.attributeprovider.LocalFootnoteLinkAttributeProviderState--><a href="LocalFootnoteLinkAttributeProviderState.html" target="_top" title="LocalFootnoteLinkAttributeProviderState.html" xlink:actuate="onRequest" xlink:href="LocalFootnoteLinkAttributeProviderState.html" xlink:show="new" xlink:title="LocalFootnoteLinkAttributeProviderState.html" xlink:type="simple"><rect codeLine="59" fill="#FEFECE" filter="url(#f2yr5c0d0frdo)" height="73.6094" id="org.apache.wiki.markdown.extensions.jspwikilinks.attributeprovider.LocalFootnoteLinkAttributeProviderState" style="stroke: #A80036; stroke-width: 1.5;" width="306" x="3280" y="313"/><ellipse cx="3304.45" cy="329" fill="#ADD1B2" rx="11" ry="11" style="stroke: #A80036; stroke-width: 1.0;"/><path d="M3307.4188,334.6406 Q3306.8406,334.9375 3306.2,335.0781 Q3305.5594,335.2344 3304.8563,335.2344 Q3302.3563,335.2344 3301.0281,333.5938 Q3299.7156,331.9375 3299.7156,328.8125 Q3299.7156,325.6875 3301.0281,324.0313 Q3302.3563,322.375 3304.8563,322.375 Q3305.5594,322.375 3306.2,322.5313 Q3306.8563,322.6875 3307.4188,322.9844 L3307.4188,325.7031 Q3306.7938,325.125 3306.2,324.8594 Q3305.6063,324.5781 3304.9813,324.5781 Q3303.6375,324.5781 3302.95,325.6563 Q3302.2625,326.7188 3302.2625,328.8125 Q3302.2625,330.9063 3302.95,331.9844 Q3303.6375,333.0469 3304.9813,333.0469 Q3305.6063,333.0469 3306.2,332.7813 Q3306.7938,332.5 3307.4188,331.9219 L3307.4188,334.6406 Z "/><text fill="#000000" font-family="sans-serif" font-size="12" lengthAdjust="spacingAndGlyphs" textLength="253" x="3320.55" y="333.1543">LocalFootnoteLinkAttributeProviderState</text><line style="stroke: #A80036; stroke-width: 1.5;" x1="3281" x2="3585" y1="345" y2="345"/><line style="stroke: #A80036; stroke-width: 1.5;" x1="3281" x2="3585" y1="353" y2="353"/><ellipse cx="3291" cy="364" fill="#84BE84" rx="3" ry="3" style="stroke: #038048; stroke-width: 1.0;"/><text fill="#000000" font-family="sans-serif" font-size="11" lengthAdjust="spacingAndGlyphs" textLength="276" x="3300" y="367.2104">LocalFootnoteLinkAttributeProviderState(Context)</text><ellipse cx="3291" cy="376.8047" fill="#84BE84" rx="3" ry="3" style="stroke: #038048; stroke-width: 1.0;"/><text fill="#000000" font-family="sans-serif" font-size="11" lengthAdjust="spacingAndGlyphs" textLength="280" x="3300" y="380.0151">setAttributes(MutableAttributes, JSPWikiLink): void</text></a><!--MD5=[e3328784921197028990914999438f7b]
class com.vladsch.flexmark.html.AttributeProvider--><rect codeLine="78" fill="#FEFECE" filter="url(#f2yr5c0d0frdo)" height="60.8047" id="com.vladsch.flexmark.html.AttributeProvider" style="stroke: #A80036; stroke-width: 1.5;" width="371" x="2845.5" y="33"/><ellipse cx="2974.25" cy="49" fill="#B4A7E5" rx="11" ry="11" style="stroke: #A80036; stroke-width: 1.0;"/><path d="M2970.1719,44.7656 L2970.1719,42.6094 L2977.5625,42.6094 L2977.5625,44.7656 L2975.0938,44.7656 L2975.0938,52.8438 L2977.5625,52.8438 L2977.5625,55 L2970.1719,55 L2970.1719,52.8438 L2972.6406,52.8438 L2972.6406,44.7656 L2970.1719,44.7656 Z "/><text fill="#000000" font-family="sans-serif" font-size="12" font-style="italic" lengthAdjust="spacingAndGlyphs" textLength="105" x="2994.75" y="53.1543">AttributeProvider</text><line style="stroke: #A80036; stroke-width: 1.5;" x1="2846.5" x2="3215.5" y1="65" y2="65"/><line style="stroke: #A80036; stroke-width: 1.5;" x1="2846.5" x2="3215.5" y1="73" y2="73"/><ellipse cx="2856.5" cy="84" fill="#84BE84" rx="3" ry="3" style="stroke: #038048; stroke-width: 1.0;"/><text fill="#000000" font-family="sans-serif" font-size="11" font-style="italic" lengthAdjust="spacingAndGlyphs" textLength="345" x="2865.5" y="87.2104">setAttributes(Node, AttributablePart, MutableAttributes): void</text><!--MD5=[da0b0cfbe6fb5c1880ced7888584e185]
class com.vladsch.flexmark.html.IndependentAttributeProviderFactory--><rect codeLine="81" fill="#FEFECE" filter="url(#f2yr5c0d0frdo)" height="48" id="com.vladsch.flexmark.html.IndependentAttributeProviderFactory" style="stroke: #A80036; stroke-width: 1.5;" width="265" x="2545.5" y="39.5"/><ellipse cx="2560.5" cy="55.5" fill="#A9DCDF" rx="11" ry="11" style="stroke: #A80036; stroke-width: 1.0;"/><path d="M2560.6094,50.8438 L2559.4531,55.9219 L2561.7813,55.9219 L2560.6094,50.8438 Z M2559.125,48.6094 L2562.1094,48.6094 L2565.4688,61 L2563.0156,61 L2562.25,57.9375 L2558.9688,57.9375 L2558.2188,61 L2555.7813,61 L2559.125,48.6094 Z "/><text fill="#000000" font-family="sans-serif" font-size="12" font-style="italic" lengthAdjust="spacingAndGlyphs" textLength="233" x="2574.5" y="59.6543">IndependentAttributeProviderFactory</text><line style="stroke: #A80036; stroke-width: 1.5;" x1="2546.5" x2="2809.5" y1="71.5" y2="71.5"/><line style="stroke: #A80036; stroke-width: 1.5;" x1="2546.5" x2="2809.5" y1="79.5" y2="79.5"/><!--MD5=[a7d0533e216ed85f9f81191aeb740192]
reverse link org.apache.wiki.markdown.extensions.jspwikilinks.attributeprovider.NodeAttributeProviderState to org.apache.wiki.markdown.extensions.jspwikilinks.attributeprovider.LocalFootnoteRefLinkAttributeProviderState--><path codeLine="64" d="M1713.9961,208.7331 C1423.4946,218.6775 846.7564,245.6814 362,313 C356.2163,313.8032 350.3389,314.6835 344.4117,315.6256 " fill="none" id="org.apache.wiki.markdown.extensions.jspwikilinks.attributeprovider.NodeAttributeProviderState-backto-org.apache.wiki.markdown.extensions.jspwikilinks.attributeprovider.LocalFootnoteRefLinkAttributeProviderState" style="stroke: #A80036; stroke-width: 1.0; stroke-dasharray: 7.0,7.0;"/><polygon fill="none" points="1713.7634,201.737,1733.9876,208.0603,1714.2344,215.7291,1713.7634,201.737" style="stroke: #A80036; stroke-width: 1.0;"/><!--MD5=[2a4b7d56e96f2a4989a53a60336cecbf]
reverse link com.vladsch.flexmark.html.AttributeProvider to org.apache.wiki.markdown.extensions.jspwikilinks.attributeprovider.JSPWikiLinkAttributeProvider--><path codeLine="65" d="M3044.6128,113.6524 C3048.1626,126.7308 3051.986,140.8167 3055.5285,153.868 " fill="none" id="com.vladsch.flexmark.html.AttributeProvider-backto-org.apache.wiki.markdown.extensions.jspwikilinks.attributeprovider.JSPWikiLinkAttributeProvider" style="stroke: #A80036; stroke-width: 1.0; stroke-dasharray: 7.0,7.0;"/><polygon fill="none" points="3037.8228,115.3589,3039.3393,94.2236,3051.3339,111.6915,3037.8228,115.3589" style="stroke: #A80036; stroke-width: 1.0;"/><!--MD5=[375f0430107a551a65c9ef2c8845091d]
reverse link org.apache.wiki.markdown.extensions.jspwikilinks.attributeprovider.NodeAttributeProviderState to org.apache.wiki.markdown.extensions.jspwikilinks.attributeprovider.InterWikiLinkAttributeProviderState--><path codeLine="66" d="M1713.6408,220.8353 C1505.2018,240.6775 1158.5693,275.3315 861,313 C855.1237,313.7439 849.1719,314.5122 843.169,315.3003 " fill="none" id="org.apache.wiki.markdown.extensions.jspwikilinks.attributeprovider.NodeAttributeProviderState-backto-org.apache.wiki.markdown.extensions.jspwikilinks.attributeprovider.InterWikiLinkAttributeProviderState" style="stroke: #A80036; stroke-width: 1.0; stroke-dasharray: 7.0,7.0;"/><polygon fill="none" points="1713.1137,213.8539,1733.6858,218.9322,1714.437,227.7913,1713.1137,213.8539" style="stroke: #A80036; stroke-width: 1.0;"/><!--MD5=[e8e25f8b07d68029c95e09ef04581633]
reverse link com.vladsch.flexmark.html.IndependentAttributeProviderFactory to org.apache.wiki.markdown.extensions.jspwikilinks.attributeprovider.JSPWikiLinkAttributeProviderFactory--><path codeLine="67" d="M2666.1875,107.0196 C2661.0264,126.0342 2655.0354,148.1063 2650.0872,166.3365 " fill="none" id="com.vladsch.flexmark.html.IndependentAttributeProviderFactory-backto-org.apache.wiki.markdown.extensions.jspwikilinks.attributeprovider.JSPWikiLinkAttributeProviderFactory" style="stroke: #A80036; stroke-width: 1.0;"/><polygon fill="none" points="2659.4729,105.0348,2671.4676,87.5669,2672.9841,108.7022,2659.4729,105.0348" style="stroke: #A80036; stroke-width: 1.0;"/><!--MD5=[414b1201f38205903c7d8934f071b69d]
reverse link org.apache.wiki.markdown.extensions.jspwikilinks.attributeprovider.NodeAttributeProviderState to org.apache.wiki.markdown.extensions.jspwikilinks.attributeprovider.ImageLinkAttributeProviderState--><path codeLine="68" d="M1713.8516,233.916 C1583.6515,255.3367 1406.1064,285.0643 1250,313 C1244.1489,314.0471 1238.201,315.121 1232.1958,316.2135 " fill="none" id="org.apache.wiki.markdown.extensions.jspwikilinks.attributeprovider.NodeAttributeProviderState-backto-org.apache.wiki.markdown.extensions.jspwikilinks.attributeprovider.ImageLinkAttributeProviderState" style="stroke: #A80036; stroke-width: 1.0; stroke-dasharray: 7.0,7.0;"/><polygon fill="none" points="1713.0545,226.9531,1733.9249,230.6176,1715.3246,240.7679,1713.0545,226.9531" style="stroke: #A80036; stroke-width: 1.0;"/><!--MD5=[4bc3aa91c72cd7edf084f8c7dd660073]
reverse link org.apache.wiki.markdown.extensions.jspwikilinks.attributeprovider.NodeAttributeProviderState to org.apache.wiki.markdown.extensions.jspwikilinks.attributeprovider.LocalLinkAttributeProviderState--><path codeLine="69" d="M1796.2443,240.8399 C1734.2539,262.9363 1656.0121,290.8254 1594.1313,312.8826 " fill="none" id="org.apache.wiki.markdown.extensions.jspwikilinks.attributeprovider.NodeAttributeProviderState-backto-org.apache.wiki.markdown.extensions.jspwikilinks.attributeprovider.LocalLinkAttributeProviderState" style="stroke: #A80036; stroke-width: 1.0; stroke-dasharray: 7.0,7.0;"/><polygon fill="none" points="1794.1519,234.1544,1815.3412,234.0329,1798.8525,247.3417,1794.1519,234.1544" style="stroke: #A80036; stroke-width: 1.0;"/><!--MD5=[3170b10dc60f61b395e0df1053f0f167]
reverse link org.apache.wiki.markdown.extensions.jspwikilinks.attributeprovider.NodeAttributeProviderState to org.apache.wiki.markdown.extensions.jspwikilinks.attributeprovider.WysiwygEditingAttributeProviderState--><path codeLine="70" d="M1901,254.2786 C1901,273.5284 1901,295.0707 1901,312.8373 " fill="none" id="org.apache.wiki.markdown.extensions.jspwikilinks.attributeprovider.NodeAttributeProviderState-backto-org.apache.wiki.markdown.extensions.jspwikilinks.attributeprovider.WysiwygEditingAttributeProviderState" style="stroke: #A80036; stroke-width: 1.0; stroke-dasharray: 7.0,7.0;"/><polygon fill="none" points="1894.0001,254.2112,1901,234.2112,1908.0001,254.2112,1894.0001,254.2112" style="stroke: #A80036; stroke-width: 1.0;"/><!--MD5=[908db2af469fd6038c5d5673b290e9aa]
reverse link org.apache.wiki.markdown.extensions.jspwikilinks.attributeprovider.NodeAttributeProviderState to org.apache.wiki.markdown.extensions.jspwikilinks.attributeprovider.LocalEditLinkAttributeProviderState--><path codeLine="71" d="M1991.5648,241.8461 C2043.3636,263.7782 2108.0304,291.1588 2159.3371,312.8826 " fill="none" id="org.apache.wiki.markdown.extensions.jspwikilinks.attributeprovider.NodeAttributeProviderState-backto-org.apache.wiki.markdown.extensions.jspwikilinks.attributeprovider.LocalEditLinkAttributeProviderState" style="stroke: #A80036; stroke-width: 1.0; stroke-dasharray: 7.0,7.0;"/><polygon fill="none" points="1988.7996,248.2769,1973.1118,234.0329,1994.2582,235.3849,1988.7996,248.2769" style="stroke: #A80036; stroke-width: 1.0;"/><!--MD5=[184e370769ee86e88b5ca171f8a822dd]
reverse link org.apache.wiki.markdown.extensions.jspwikilinks.attributeprovider.NodeAttributeProviderState to org.apache.wiki.markdown.extensions.jspwikilinks.attributeprovider.LocalReadLinkAttributeProviderState--><path codeLine="72" d="M2067.6225,238.1189 C2170.1563,259.5051 2304.2382,287.62 2423,313 C2428.4645,314.1678 2434.027,315.36 2439.6448,316.5671 " fill="none" id="org.apache.wiki.markdown.extensions.jspwikilinks.attributeprovider.NodeAttributeProviderState-backto-org.apache.wiki.markdown.extensions.jspwikilinks.attributeprovider.LocalReadLinkAttributeProviderState" style="stroke: #A80036; stroke-width: 1.0; stroke-dasharray: 7.0,7.0;"/><polygon fill="none" points="2066.0274,244.937,2047.8771,234.0023,2068.8848,231.2317,2066.0274,244.937" style="stroke: #A80036; stroke-width: 1.0;"/><!--MD5=[91c10a4ec75701a8acc152ddae0f349f]
reverse link org.apache.wiki.markdown.extensions.jspwikilinks.attributeprovider.NodeAttributeProviderState to org.apache.wiki.markdown.extensions.jspwikilinks.attributeprovider.ExternalLinkAttributeProviderState--><path codeLine="73" d="M2088.2578,226.0927 C2263.1669,247.4722 2531.4559,280.9734 2764,313 C2769.7366,313.7901 2775.5464,314.5975 2781.4065,315.4183 " fill="none" id="org.apache.wiki.markdown.extensions.jspwikilinks.attributeprovider.NodeAttributeProviderState-backto-org.apache.wiki.markdown.extensions.jspwikilinks.attributeprovider.ExternalLinkAttributeProviderState" style="stroke: #A80036; stroke-width: 1.0; stroke-dasharray: 7.0,7.0;"/><polygon fill="none" points="2087.1981,233.0154,2068.1938,223.6433,2088.8946,219.1185,2087.1981,233.0154" style="stroke: #A80036; stroke-width: 1.0;"/><!--MD5=[c3448401efd240e3d7171f7b22d4d3a4]
reverse link org.apache.wiki.markdown.extensions.jspwikilinks.attributeprovider.NodeAttributeProviderState to org.apache.wiki.markdown.extensions.jspwikilinks.attributeprovider.LocalFootnoteLinkAttributeProviderState--><path codeLine="74" d="M2088.3328,222.6424 C2185.9619,232.3305 2307.3549,243.9275 2416,253 C2791.637,284.368 2888.8467,259.6736 3262,313 C3267.8635,313.8379 3273.8258,314.7629 3279.838,315.7568 " fill="none" id="org.apache.wiki.markdown.extensions.jspwikilinks.attributeprovider.NodeAttributeProviderState-backto-org.apache.wiki.markdown.extensions.jspwikilinks.attributeprovider.LocalFootnoteLinkAttributeProviderState" style="stroke: #A80036; stroke-width: 1.0; stroke-dasharray: 7.0,7.0;"/><polygon fill="none" points="2087.3977,229.584,2068.1895,220.6372,2088.7846,215.6529,2087.3977,229.584" style="stroke: #A80036; stroke-width: 1.0;"/><text fill="#888888" font-family="sans-serif" font-size="10" lengthAdjust="spacingAndGlyphs" textLength="192" x="1703" y="410.2822">UMLDoclet 2.0.12, PlantUML 1.2020.16</text><!--MD5=[8e2a8c6c7e1dc3eed7f33425a1188adf]
@startuml
    namespace org.apache.wiki.markdown.extensions.jspwikilinks.attributeprovider {

        class LocalFootnoteRefLinkAttributeProviderState [[LocalFootnoteRefLinkAttributeProviderState.html]] {
            +LocalFootnoteRefLinkAttributeProviderState(Context)
            +setAttributes(MutableAttributes, JSPWikiLink): void
        }

        class JSPWikiLinkAttributeProvider [[JSPWikiLinkAttributeProvider.html]] {
            #wikiContext: Context
            #linkOperations: LinkParsingOperations
            +JSPWikiLinkAttributeProvider(Context, boolean, List<Pattern>)
            +setAttributes(Node, AttributablePart, MutableAttributes): void
        }

        class InterWikiLinkAttributeProviderState [[InterWikiLinkAttributeProviderState.html]] {
            +InterWikiLinkAttributeProviderState(Context, boolean, boolean, List<Pattern>)
            +setAttributes(MutableAttributes, JSPWikiLink): void
        }

        class JSPWikiLinkAttributeProviderFactory [[JSPWikiLinkAttributeProviderFactory.html]] {
            +JSPWikiLinkAttributeProviderFactory(Context, boolean, List<Pattern>)
            +apply(LinkResolverContext): AttributeProvider
        }

        class ImageLinkAttributeProviderState [[ImageLinkAttributeProviderState.html]] {
            +ImageLinkAttributeProviderState(Context, String, boolean)
            +setAttributes(MutableAttributes, JSPWikiLink): void
        }

        class LocalLinkAttributeProviderState [[LocalLinkAttributeProviderState.html]] {
            +LocalLinkAttributeProviderState(Context, boolean, boolean, List<Pattern>)
            +setAttributes(MutableAttributes, JSPWikiLink): void
        }

        class WysiwygEditingAttributeProviderState [[WysiwygEditingAttributeProviderState.html]] {
            +WysiwygEditingAttributeProviderState(Context)
            +setAttributes(MutableAttributes, JSPWikiLink): void
        }

        class LocalEditLinkAttributeProviderState [[LocalEditLinkAttributeProviderState.html]] {
            +LocalEditLinkAttributeProviderState(Context, String)
            +setAttributes(MutableAttributes, JSPWikiLink): void
        }

        class LocalReadLinkAttributeProviderState [[LocalReadLinkAttributeProviderState.html]] {
            +LocalReadLinkAttributeProviderState(Context)
            +setAttributes(MutableAttributes, JSPWikiLink): void
        }

        class ExternalLinkAttributeProviderState [[ExternalLinkAttributeProviderState.html]] {
            +ExternalLinkAttributeProviderState(Context, boolean, boolean, List<Pattern>)
            +setAttributes(MutableAttributes, JSPWikiLink): void
        }

        interface NodeAttributeProviderState<T extends Node> [[NodeAttributeProviderState.html]] {
            {abstract} +setAttributes(MutableAttributes, T extends Node): void
        }

        class LocalFootnoteLinkAttributeProviderState [[LocalFootnoteLinkAttributeProviderState.html]] {
            +LocalFootnoteLinkAttributeProviderState(Context)
            +setAttributes(MutableAttributes, JSPWikiLink): void
        }

        NodeAttributeProviderState <|.. LocalFootnoteRefLinkAttributeProviderState
        com.vladsch.flexmark.html.AttributeProvider <|.. JSPWikiLinkAttributeProvider
        NodeAttributeProviderState <|.. InterWikiLinkAttributeProviderState
        com.vladsch.flexmark.html.IndependentAttributeProviderFactory <|- - JSPWikiLinkAttributeProviderFactory
        NodeAttributeProviderState <|.. ImageLinkAttributeProviderState
        NodeAttributeProviderState <|.. LocalLinkAttributeProviderState
        NodeAttributeProviderState <|.. WysiwygEditingAttributeProviderState
        NodeAttributeProviderState <|.. LocalEditLinkAttributeProviderState
        NodeAttributeProviderState <|.. LocalReadLinkAttributeProviderState
        NodeAttributeProviderState <|.. ExternalLinkAttributeProviderState
        NodeAttributeProviderState <|.. LocalFootnoteLinkAttributeProviderState
    }

    namespace com.vladsch.flexmark.html {
        interface AttributeProvider {
            {abstract} +setAttributes(Node, AttributablePart, MutableAttributes): void
        }
        abstract class IndependentAttributeProviderFactory
    }

    center footer UMLDoclet 2.0.12, PlantUML 1.2020.16
@enduml

PlantUML version 1.2020.16(Sun Aug 23 20:20:43 UTC 2020)
(APACHE source distribution)
Java Runtime: Java(TM) SE Runtime Environment
JVM: Java HotSpot(TM) 64-Bit Server VM
Default Encoding: ISO-8859-1
Language: en
Country: US
--></g></svg>