<?xml version="1.0" encoding="UTF-8" standalone="no"?><svg xmlns="http://www.w3.org/2000/svg" xmlns:xlink="http://www.w3.org/1999/xlink" contentScriptType="application/ecmascript" contentStyleType="text/css" height="423px" preserveAspectRatio="none" style="width:3616px;height:423px;" version="1.1" viewBox="0 0 3616 423" width="3616px" zoomAndPan="magnify"><defs><filter height="300%" id="fj044yf0i8x38" width="300%" x="-1" y="-1"><feGaussianBlur result="blurOut" stdDeviation="2.0"/><feColorMatrix in="blurOut" result="blurOut2" type="matrix" values="0 0 0 0 0 0 0 0 0 0 0 0 0 0 0 0 0 0 .4 0"/><feOffset dx="4.0" dy="4.0" in="blurOut2" result="blurOut3"/><feBlend in="SourceGraphic" in2="blurOut3" mode="normal"/></filter></defs><g><!--MD5=[dfaafc7932285f4cf5c29f79a5563992]
cluster org.apache.wiki.markdown.extensions.jspwikilinks.attributeprovider--><polygon fill="#FFFFFF" filter="url(#fj044yf0i8x38)" points="16,127,562,127,569,149.2969,3594,149.2969,3594,395,16,395,16,127" style="stroke: #000000; stroke-width: 1.5;"/><line style="stroke: #000000; stroke-width: 1.5;" x1="16" x2="569" y1="149.2969" y2="149.2969"/><text fill="#000000" font-family="sans-serif" font-size="14" font-weight="bold" lengthAdjust="spacingAndGlyphs" textLength="540" x="20" y="141.9951">org.apache.wiki.markdown.extensions.jspwikilinks.attributeprovider</text><!--MD5=[a81de2553a89e9ee3aa41b3837eb6c94]
cluster com.vladsch.flexmark.html--><polygon fill="#FFFFFF" filter="url(#fj044yf0i8x38)" points="474,6,690,6,697,28.2969,1162,28.2969,1162,102,474,102,474,6" style="stroke: #000000; stroke-width: 1.5;"/><line style="stroke: #000000; stroke-width: 1.5;" x1="474" x2="697" y1="28.2969" y2="28.2969"/><text fill="#000000" font-family="sans-serif" font-size="14" font-weight="bold" lengthAdjust="spacingAndGlyphs" textLength="210" x="478" y="20.9951">com.vladsch.flexmark.html</text><!--MD5=[e743dbf342e63903ac27c16bbfd0534a]
class org.apache.wiki.markdown.extensions.jspwikilinks.attributeprovider.LocalEditLinkAttributeProviderState--><a href="LocalEditLinkAttributeProviderState.html" target="_top" title="LocalEditLinkAttributeProviderState.html" xlink:actuate="onRequest" xlink:href="LocalEditLinkAttributeProviderState.html" xlink:show="new" xlink:title="LocalEditLinkAttributeProviderState.html" xlink:type="simple"><rect codeLine="3" fill="#FEFECE" filter="url(#fj044yf0i8x38)" height="73.6094" id="org.apache.wiki.markdown.extensions.jspwikilinks.attributeprovider.LocalEditLinkAttributeProviderState" style="stroke: #A80036; stroke-width: 1.5;" width="316" x="24" y="313"/><ellipse cx="67.8" cy="329" fill="#ADD1B2" rx="11" ry="11" style="stroke: #A80036; stroke-width: 1.0;"/><path d="M70.7688,334.6406 Q70.1906,334.9375 69.55,335.0781 Q68.9094,335.2344 68.2063,335.2344 Q65.7063,335.2344 64.3781,333.5938 Q63.0656,331.9375 63.0656,328.8125 Q63.0656,325.6875 64.3781,324.0313 Q65.7063,322.375 68.2063,322.375 Q68.9094,322.375 69.55,322.5313 Q70.2063,322.6875 70.7688,322.9844 L70.7688,325.7031 Q70.1438,325.125 69.55,324.8594 Q68.9563,324.5781 68.3313,324.5781 Q66.9875,324.5781 66.3,325.6563 Q65.6125,326.7188 65.6125,328.8125 Q65.6125,330.9063 66.3,331.9844 Q66.9875,333.0469 68.3313,333.0469 Q68.9563,333.0469 69.55,332.7813 Q70.1438,332.5 70.7688,331.9219 L70.7688,334.6406 Z "/><text fill="#000000" font-family="sans-serif" font-size="12" lengthAdjust="spacingAndGlyphs" textLength="220" x="88.2" y="333.1543">LocalEditLinkAttributeProviderState</text><line style="stroke: #A80036; stroke-width: 1.5;" x1="25" x2="339" y1="345" y2="345"/><line style="stroke: #A80036; stroke-width: 1.5;" x1="25" x2="339" y1="353" y2="353"/><ellipse cx="35" cy="364" fill="#84BE84" rx="3" ry="3" style="stroke: #038048; stroke-width: 1.0;"/><text fill="#000000" font-family="sans-serif" font-size="11" lengthAdjust="spacingAndGlyphs" textLength="290" x="44" y="367.2104">LocalEditLinkAttributeProviderState(Context, String)</text><ellipse cx="35" cy="376.8047" fill="#84BE84" rx="3" ry="3" style="stroke: #038048; stroke-width: 1.0;"/><text fill="#000000" font-family="sans-serif" font-size="11" lengthAdjust="spacingAndGlyphs" textLength="280" x="44" y="380.0151">setAttributes(MutableAttributes, JSPWikiLink): void</text></a><!--MD5=[11f44c57c46fbac86fd767561e6c5df7]
class org.apache.wiki.markdown.extensions.jspwikilinks.attributeprovider.LocalLinkAttributeProviderState--><a href="LocalLinkAttributeProviderState.html" target="_top" title="LocalLinkAttributeProviderState.html" xlink:actuate="onRequest" xlink:href="LocalLinkAttributeProviderState.html" xlink:show="new" xlink:title="LocalLinkAttributeProviderState.html" xlink:type="simple"><rect codeLine="8" fill="#FEFECE" filter="url(#fj044yf0i8x38)" height="73.6094" id="org.apache.wiki.markdown.extensions.jspwikilinks.attributeprovider.LocalLinkAttributeProviderState" style="stroke: #A80036; stroke-width: 1.5;" width="446" x="375" y="313"/><ellipse cx="495.75" cy="329" fill="#ADD1B2" rx="11" ry="11" style="stroke: #A80036; stroke-width: 1.0;"/><path d="M498.7188,334.6406 Q498.1406,334.9375 497.5,335.0781 Q496.8594,335.2344 496.1563,335.2344 Q493.6563,335.2344 492.3281,333.5938 Q491.0156,331.9375 491.0156,328.8125 Q491.0156,325.6875 492.3281,324.0313 Q493.6563,322.375 496.1563,322.375 Q496.8594,322.375 497.5,322.5313 Q498.1563,322.6875 498.7188,322.9844 L498.7188,325.7031 Q498.0938,325.125 497.5,324.8594 Q496.9063,324.5781 496.2813,324.5781 Q494.9375,324.5781 494.25,325.6563 Q493.5625,326.7188 493.5625,328.8125 Q493.5625,330.9063 494.25,331.9844 Q494.9375,333.0469 496.2813,333.0469 Q496.9063,333.0469 497.5,332.7813 Q498.0938,332.5 498.7188,331.9219 L498.7188,334.6406 Z "/><text fill="#000000" font-family="sans-serif" font-size="12" lengthAdjust="spacingAndGlyphs" textLength="196" x="516.25" y="333.1543">LocalLinkAttributeProviderState</text><line style="stroke: #A80036; stroke-width: 1.5;" x1="376" x2="820" y1="345" y2="345"/><line style="stroke: #A80036; stroke-width: 1.5;" x1="376" x2="820" y1="353" y2="353"/><ellipse cx="386" cy="364" fill="#84BE84" rx="3" ry="3" style="stroke: #038048; stroke-width: 1.0;"/><text fill="#000000" font-family="sans-serif" font-size="11" lengthAdjust="spacingAndGlyphs" textLength="420" x="395" y="367.2104">LocalLinkAttributeProviderState(Context, boolean, boolean, List&lt;Pattern&gt;)</text><ellipse cx="386" cy="376.8047" fill="#84BE84" rx="3" ry="3" style="stroke: #038048; stroke-width: 1.0;"/><text fill="#000000" font-family="sans-serif" font-size="11" lengthAdjust="spacingAndGlyphs" textLength="280" x="395" y="380.0151">setAttributes(MutableAttributes, JSPWikiLink): void</text></a><!--MD5=[751b0be4d35478110504cf058ab088e7]
class org.apache.wiki.markdown.extensions.jspwikilinks.attributeprovider.NodeAttributeProviderState--><a href="NodeAttributeProviderState.html" target="_top" title="NodeAttributeProviderState.html" xlink:actuate="onRequest" xlink:href="NodeAttributeProviderState.html" xlink:show="new" xlink:title="NodeAttributeProviderState.html" xlink:type="simple"><rect codeLine="13" fill="#FEFECE" filter="url(#fj044yf0i8x38)" height="60.8047" id="org.apache.wiki.markdown.extensions.jspwikilinks.attributeprovider.NodeAttributeProviderState" style="stroke: #A80036; stroke-width: 1.5;" width="334" x="1720" y="173"/><ellipse cx="1747.6" cy="189" fill="#B4A7E5" rx="11" ry="11" style="stroke: #A80036; stroke-width: 1.0;"/><path d="M1743.5219,184.7656 L1743.5219,182.6094 L1750.9125,182.6094 L1750.9125,184.7656 L1748.4438,184.7656 L1748.4438,192.8438 L1750.9125,192.8438 L1750.9125,195 L1743.5219,195 L1743.5219,192.8438 L1745.9906,192.8438 L1745.9906,184.7656 L1743.5219,184.7656 Z "/><text fill="#000000" font-family="sans-serif" font-size="12" font-style="italic" lengthAdjust="spacingAndGlyphs" textLength="172" x="1764.4" y="193.1543">NodeAttributeProviderState</text><rect fill="#FFFFFF" height="15.9688" style="stroke: #000000; stroke-width: 1.0; stroke-dasharray: 2.0,2.0;" width="100" x="1957" y="170"/><text fill="#000000" font-family="sans-serif" font-size="12" font-style="italic" lengthAdjust="spacingAndGlyphs" textLength="98" x="1958" y="182.1387">T extends Node</text><line style="stroke: #A80036; stroke-width: 1.5;" x1="1721" x2="2053" y1="205" y2="205"/><line style="stroke: #A80036; stroke-width: 1.5;" x1="1721" x2="2053" y1="213" y2="213"/><ellipse cx="1731" cy="224" fill="#84BE84" rx="3" ry="3" style="stroke: #038048; stroke-width: 1.0;"/><text fill="#000000" font-family="sans-serif" font-size="11" font-style="italic" lengthAdjust="spacingAndGlyphs" textLength="308" x="1740" y="227.2104">setAttributes(MutableAttributes, T extends Node): void</text></a><!--MD5=[92e222dad5755083319d954302396700]
class org.apache.wiki.markdown.extensions.jspwikilinks.attributeprovider.ExternalLinkAttributeProviderState--><a href="ExternalLinkAttributeProviderState.html" target="_top" title="ExternalLinkAttributeProviderState.html" xlink:actuate="onRequest" xlink:href="ExternalLinkAttributeProviderState.html" xlink:show="new" xlink:title="ExternalLinkAttributeProviderState.html" xlink:type="simple"><rect codeLine="17" fill="#FEFECE" filter="url(#fj044yf0i8x38)" height="73.6094" id="org.apache.wiki.markdown.extensions.jspwikilinks.attributeprovider.ExternalLinkAttributeProviderState" style="stroke: #A80036; stroke-width: 1.5;" width="463" x="856.5" y="313"/><ellipse cx="976.25" cy="329" fill="#ADD1B2" rx="11" ry="11" style="stroke: #A80036; stroke-width: 1.0;"/><path d="M979.2188,334.6406 Q978.6406,334.9375 978,335.0781 Q977.3594,335.2344 976.6563,335.2344 Q974.1563,335.2344 972.8281,333.5938 Q971.5156,331.9375 971.5156,328.8125 Q971.5156,325.6875 972.8281,324.0313 Q974.1563,322.375 976.6563,322.375 Q977.3594,322.375 978,322.5313 Q978.6563,322.6875 979.2188,322.9844 L979.2188,325.7031 Q978.5938,325.125 978,324.8594 Q977.4063,324.5781 976.7813,324.5781 Q975.4375,324.5781 974.75,325.6563 Q974.0625,326.7188 974.0625,328.8125 Q974.0625,330.9063 974.75,331.9844 Q975.4375,333.0469 976.7813,333.0469 Q977.4063,333.0469 978,332.7813 Q978.5938,332.5 979.2188,331.9219 L979.2188,334.6406 Z "/><text fill="#000000" font-family="sans-serif" font-size="12" lengthAdjust="spacingAndGlyphs" textLength="215" x="996.75" y="333.1543">ExternalLinkAttributeProviderState</text><line style="stroke: #A80036; stroke-width: 1.5;" x1="857.5" x2="1318.5" y1="345" y2="345"/><line style="stroke: #A80036; stroke-width: 1.5;" x1="857.5" x2="1318.5" y1="353" y2="353"/><ellipse cx="867.5" cy="364" fill="#84BE84" rx="3" ry="3" style="stroke: #038048; stroke-width: 1.0;"/><text fill="#000000" font-family="sans-serif" font-size="11" lengthAdjust="spacingAndGlyphs" textLength="437" x="876.5" y="367.2104">ExternalLinkAttributeProviderState(Context, boolean, boolean, List&lt;Pattern&gt;)</text><ellipse cx="867.5" cy="376.8047" fill="#84BE84" rx="3" ry="3" style="stroke: #038048; stroke-width: 1.0;"/><text fill="#000000" font-family="sans-serif" font-size="11" lengthAdjust="spacingAndGlyphs" textLength="280" x="876.5" y="380.0151">setAttributes(MutableAttributes, JSPWikiLink): void</text></a><!--MD5=[09c4e4ce9dc38d033ad9233c0b9e36c2]
class org.apache.wiki.markdown.extensions.jspwikilinks.attributeprovider.JSPWikiLinkAttributeProviderFactory--><a href="JSPWikiLinkAttributeProviderFactory.html" target="_top" title="JSPWikiLinkAttributeProviderFactory.html" xlink:actuate="onRequest" xlink:href="JSPWikiLinkAttributeProviderFactory.html" xlink:show="new" xlink:title="JSPWikiLinkAttributeProviderFactory.html" xlink:type="simple"><rect codeLine="22" fill="#FEFECE" filter="url(#fj044yf0i8x38)" height="73.6094" id="org.apache.wiki.markdown.extensions.jspwikilinks.attributeprovider.JSPWikiLinkAttributeProviderFactory" style="stroke: #A80036; stroke-width: 1.5;" width="414" x="852" y="166.5"/><ellipse cx="945.25" cy="182.5" fill="#ADD1B2" rx="11" ry="11" style="stroke: #A80036; stroke-width: 1.0;"/><path d="M948.2188,188.1406 Q947.6406,188.4375 947,188.5781 Q946.3594,188.7344 945.6563,188.7344 Q943.1563,188.7344 941.8281,187.0938 Q940.5156,185.4375 940.5156,182.3125 Q940.5156,179.1875 941.8281,177.5313 Q943.1563,175.875 945.6563,175.875 Q946.3594,175.875 947,176.0313 Q947.6563,176.1875 948.2188,176.4844 L948.2188,179.2031 Q947.5938,178.625 947,178.3594 Q946.4063,178.0781 945.7813,178.0781 Q944.4375,178.0781 943.75,179.1563 Q943.0625,180.2188 943.0625,182.3125 Q943.0625,184.4063 943.75,185.4844 Q944.4375,186.5469 945.7813,186.5469 Q946.4063,186.5469 947,186.2813 Q947.5938,186 948.2188,185.4219 L948.2188,188.1406 Z "/><text fill="#000000" font-family="sans-serif" font-size="12" lengthAdjust="spacingAndGlyphs" textLength="219" x="965.75" y="186.6543">JSPWikiLinkAttributeProviderFactory</text><line style="stroke: #A80036; stroke-width: 1.5;" x1="853" x2="1265" y1="198.5" y2="198.5"/><line style="stroke: #A80036; stroke-width: 1.5;" x1="853" x2="1265" y1="206.5" y2="206.5"/><ellipse cx="863" cy="217.5" fill="#84BE84" rx="3" ry="3" style="stroke: #038048; stroke-width: 1.0;"/><text fill="#000000" font-family="sans-serif" font-size="11" lengthAdjust="spacingAndGlyphs" textLength="388" x="872" y="220.7104">JSPWikiLinkAttributeProviderFactory(Context, boolean, List&lt;Pattern&gt;)</text><ellipse cx="863" cy="230.3047" fill="#84BE84" rx="3" ry="3" style="stroke: #038048; stroke-width: 1.0;"/><text fill="#000000" font-family="sans-serif" font-size="11" lengthAdjust="spacingAndGlyphs" textLength="255" x="872" y="233.5151">apply(LinkResolverContext): AttributeProvider</text></a><!--MD5=[8a934b07a9213ba220109e16d2ff62ba]
class org.apache.wiki.markdown.extensions.jspwikilinks.attributeprovider.LocalFootnoteRefLinkAttributeProviderState--><a href="LocalFootnoteRefLinkAttributeProviderState.html" target="_top" title="LocalFootnoteRefLinkAttributeProviderState.html" xlink:actuate="onRequest" xlink:href="LocalFootnoteRefLinkAttributeProviderState.html" xlink:show="new" xlink:title="LocalFootnoteRefLinkAttributeProviderState.html" xlink:type="simple"><rect codeLine="27" fill="#FEFECE" filter="url(#fj044yf0i8x38)" height="73.6094" id="org.apache.wiki.markdown.extensions.jspwikilinks.attributeprovider.LocalFootnoteRefLinkAttributeProviderState" style="stroke: #A80036; stroke-width: 1.5;" width="320" x="1355" y="313"/><ellipse cx="1376.75" cy="329" fill="#ADD1B2" rx="11" ry="11" style="stroke: #A80036; stroke-width: 1.0;"/><path d="M1379.7188,334.6406 Q1379.1406,334.9375 1378.5,335.0781 Q1377.8594,335.2344 1377.1563,335.2344 Q1374.6563,335.2344 1373.3281,333.5938 Q1372.0156,331.9375 1372.0156,328.8125 Q1372.0156,325.6875 1373.3281,324.0313 Q1374.6563,322.375 1377.1563,322.375 Q1377.8594,322.375 1378.5,322.5313 Q1379.1563,322.6875 1379.7188,322.9844 L1379.7188,325.7031 Q1379.0938,325.125 1378.5,324.8594 Q1377.9063,324.5781 1377.2813,324.5781 Q1375.9375,324.5781 1375.25,325.6563 Q1374.5625,326.7188 1374.5625,328.8125 Q1374.5625,330.9063 1375.25,331.9844 Q1375.9375,333.0469 1377.2813,333.0469 Q1377.9063,333.0469 1378.5,332.7813 Q1379.0938,332.5 1379.7188,331.9219 L1379.7188,334.6406 Z "/><text fill="#000000" font-family="sans-serif" font-size="12" lengthAdjust="spacingAndGlyphs" textLength="273" x="1392.25" y="333.1543">LocalFootnoteRefLinkAttributeProviderState</text><line style="stroke: #A80036; stroke-width: 1.5;" x1="1356" x2="1674" y1="345" y2="345"/><line style="stroke: #A80036; stroke-width: 1.5;" x1="1356" x2="1674" y1="353" y2="353"/><ellipse cx="1366" cy="364" fill="#84BE84" rx="3" ry="3" style="stroke: #038048; stroke-width: 1.0;"/><text fill="#000000" font-family="sans-serif" font-size="11" lengthAdjust="spacingAndGlyphs" textLength="294" x="1375" y="367.2104">LocalFootnoteRefLinkAttributeProviderState(Context)</text><ellipse cx="1366" cy="376.8047" fill="#84BE84" rx="3" ry="3" style="stroke: #038048; stroke-width: 1.0;"/><text fill="#000000" font-family="sans-serif" font-size="11" lengthAdjust="spacingAndGlyphs" textLength="280" x="1375" y="380.0151">setAttributes(MutableAttributes, JSPWikiLink): void</text></a><!--MD5=[d0e900d4d973637a69a52f97c4fbfae8]
class org.apache.wiki.markdown.extensions.jspwikilinks.attributeprovider.ImageLinkAttributeProviderState--><a href="ImageLinkAttributeProviderState.html" target="_top" title="ImageLinkAttributeProviderState.html" xlink:actuate="onRequest" xlink:href="ImageLinkAttributeProviderState.html" xlink:show="new" xlink:title="ImageLinkAttributeProviderState.html" xlink:type="simple"><rect codeLine="32" fill="#FEFECE" filter="url(#fj044yf0i8x38)" height="73.6094" id="org.apache.wiki.markdown.extensions.jspwikilinks.attributeprovider.ImageLinkAttributeProviderState" style="stroke: #A80036; stroke-width: 1.5;" width="354" x="1710" y="313"/><ellipse cx="1781.75" cy="329" fill="#ADD1B2" rx="11" ry="11" style="stroke: #A80036; stroke-width: 1.0;"/><path d="M1784.7188,334.6406 Q1784.1406,334.9375 1783.5,335.0781 Q1782.8594,335.2344 1782.1563,335.2344 Q1779.6563,335.2344 1778.3281,333.5938 Q1777.0156,331.9375 1777.0156,328.8125 Q1777.0156,325.6875 1778.3281,324.0313 Q1779.6563,322.375 1782.1563,322.375 Q1782.8594,322.375 1783.5,322.5313 Q1784.1563,322.6875 1784.7188,322.9844 L1784.7188,325.7031 Q1784.0938,325.125 1783.5,324.8594 Q1782.9063,324.5781 1782.2813,324.5781 Q1780.9375,324.5781 1780.25,325.6563 Q1779.5625,326.7188 1779.5625,328.8125 Q1779.5625,330.9063 1780.25,331.9844 Q1780.9375,333.0469 1782.2813,333.0469 Q1782.9063,333.0469 1783.5,332.7813 Q1784.0938,332.5 1784.7188,331.9219 L1784.7188,334.6406 Z "/><text fill="#000000" font-family="sans-serif" font-size="12" lengthAdjust="spacingAndGlyphs" textLength="202" x="1802.25" y="333.1543">ImageLinkAttributeProviderState</text><line style="stroke: #A80036; stroke-width: 1.5;" x1="1711" x2="2063" y1="345" y2="345"/><line style="stroke: #A80036; stroke-width: 1.5;" x1="1711" x2="2063" y1="353" y2="353"/><ellipse cx="1721" cy="364" fill="#84BE84" rx="3" ry="3" style="stroke: #038048; stroke-width: 1.0;"/><text fill="#000000" font-family="sans-serif" font-size="11" lengthAdjust="spacingAndGlyphs" textLength="328" x="1730" y="367.2104">ImageLinkAttributeProviderState(Context, String, boolean)</text><ellipse cx="1721" cy="376.8047" fill="#84BE84" rx="3" ry="3" style="stroke: #038048; stroke-width: 1.0;"/><text fill="#000000" font-family="sans-serif" font-size="11" lengthAdjust="spacingAndGlyphs" textLength="280" x="1730" y="380.0151">setAttributes(MutableAttributes, JSPWikiLink): void</text></a><!--MD5=[16927d18d6ca60be23bb1ab70fa18552]
class org.apache.wiki.markdown.extensions.jspwikilinks.attributeprovider.LocalReadLinkAttributeProviderState--><a href="LocalReadLinkAttributeProviderState.html" target="_top" title="LocalReadLinkAttributeProviderState.html" xlink:actuate="onRequest" xlink:href="LocalReadLinkAttributeProviderState.html" xlink:show="new" xlink:title="LocalReadLinkAttributeProviderState.html" xlink:type="simple"><rect codeLine="37" fill="#FEFECE" filter="url(#fj044yf0i8x38)" height="73.6094" id="org.apache.wiki.markdown.extensions.jspwikilinks.attributeprovider.LocalReadLinkAttributeProviderState" style="stroke: #A80036; stroke-width: 1.5;" width="306" x="2099" y="313"/><ellipse cx="2134.7" cy="329" fill="#ADD1B2" rx="11" ry="11" style="stroke: #A80036; stroke-width: 1.0;"/><path d="M2137.6688,334.6406 Q2137.0906,334.9375 2136.45,335.0781 Q2135.8094,335.2344 2135.1063,335.2344 Q2132.6063,335.2344 2131.2781,333.5938 Q2129.9656,331.9375 2129.9656,328.8125 Q2129.9656,325.6875 2131.2781,324.0313 Q2132.6063,322.375 2135.1063,322.375 Q2135.8094,322.375 2136.45,322.5313 Q2137.1063,322.6875 2137.6688,322.9844 L2137.6688,325.7031 Q2137.0438,325.125 2136.45,324.8594 Q2135.8563,324.5781 2135.2313,324.5781 Q2133.8875,324.5781 2133.2,325.6563 Q2132.5125,326.7188 2132.5125,328.8125 Q2132.5125,330.9063 2133.2,331.9844 Q2133.8875,333.0469 2135.2313,333.0469 Q2135.8563,333.0469 2136.45,332.7813 Q2137.0438,332.5 2137.6688,331.9219 L2137.6688,334.6406 Z "/><text fill="#000000" font-family="sans-serif" font-size="12" lengthAdjust="spacingAndGlyphs" textLength="228" x="2153.3" y="333.1543">LocalReadLinkAttributeProviderState</text><line style="stroke: #A80036; stroke-width: 1.5;" x1="2100" x2="2404" y1="345" y2="345"/><line style="stroke: #A80036; stroke-width: 1.5;" x1="2100" x2="2404" y1="353" y2="353"/><ellipse cx="2110" cy="364" fill="#84BE84" rx="3" ry="3" style="stroke: #038048; stroke-width: 1.0;"/><text fill="#000000" font-family="sans-serif" font-size="11" lengthAdjust="spacingAndGlyphs" textLength="255" x="2119" y="367.2104">LocalReadLinkAttributeProviderState(Context)</text><ellipse cx="2110" cy="376.8047" fill="#84BE84" rx="3" ry="3" style="stroke: #038048; stroke-width: 1.0;"/><text fill="#000000" font-family="sans-serif" font-size="11" lengthAdjust="spacingAndGlyphs" textLength="280" x="2119" y="380.0151">setAttributes(MutableAttributes, JSPWikiLink): void</text></a><!--MD5=[f4465cf4658ba3dde8da15ef592a3d36]
class org.apache.wiki.markdown.extensions.jspwikilinks.attributeprovider.JSPWikiLinkAttributeProvider--><a href="JSPWikiLinkAttributeProvider.html" target="_top" title="JSPWikiLinkAttributeProvider.html" xlink:actuate="onRequest" xlink:href="JSPWikiLinkAttributeProvider.html" xlink:show="new" xlink:title="JSPWikiLinkAttributeProvider.html" xlink:type="simple"><rect codeLine="42" fill="#FEFECE" filter="url(#fj044yf0i8x38)" height="99.2188" id="org.apache.wiki.markdown.extensions.jspwikilinks.attributeprovider.JSPWikiLinkAttributeProvider" style="stroke: #A80036; stroke-width: 1.5;" width="373" x="443.5" y="154"/><ellipse cx="539.25" cy="170" fill="#ADD1B2" rx="11" ry="11" style="stroke: #A80036; stroke-width: 1.0;"/><path d="M542.2188,175.6406 Q541.6406,175.9375 541,176.0781 Q540.3594,176.2344 539.6563,176.2344 Q537.1563,176.2344 535.8281,174.5938 Q534.5156,172.9375 534.5156,169.8125 Q534.5156,166.6875 535.8281,165.0313 Q537.1563,163.375 539.6563,163.375 Q540.3594,163.375 541,163.5313 Q541.6563,163.6875 542.2188,163.9844 L542.2188,166.7031 Q541.5938,166.125 541,165.8594 Q540.4063,165.5781 539.7813,165.5781 Q538.4375,165.5781 537.75,166.6563 Q537.0625,167.7188 537.0625,169.8125 Q537.0625,171.9063 537.75,172.9844 Q538.4375,174.0469 539.7813,174.0469 Q540.4063,174.0469 541,173.7813 Q541.5938,173.5 542.2188,172.9219 L542.2188,175.6406 Z "/><text fill="#000000" font-family="sans-serif" font-size="12" lengthAdjust="spacingAndGlyphs" textLength="173" x="559.75" y="174.1543">JSPWikiLinkAttributeProvider</text><line style="stroke: #A80036; stroke-width: 1.5;" x1="444.5" x2="815.5" y1="186" y2="186"/><polygon fill="none" points="454.5,192,458.5,196,454.5,200,450.5,196" style="stroke: #B38D22; stroke-width: 1.0;"/><text fill="#000000" font-family="sans-serif" font-size="11" lengthAdjust="spacingAndGlyphs" textLength="115" x="463.5" y="200.2104">wikiContext: Context</text><polygon fill="none" points="454.5,204.8047,458.5,208.8047,454.5,212.8047,450.5,208.8047" style="stroke: #B38D22; stroke-width: 1.0;"/><text fill="#000000" font-family="sans-serif" font-size="11" lengthAdjust="spacingAndGlyphs" textLength="218" x="463.5" y="213.0151">linkOperations: LinkParsingOperations</text><line style="stroke: #A80036; stroke-width: 1.5;" x1="444.5" x2="815.5" y1="219.6094" y2="219.6094"/><ellipse cx="454.5" cy="230.6094" fill="#84BE84" rx="3" ry="3" style="stroke: #038048; stroke-width: 1.0;"/><text fill="#000000" font-family="sans-serif" font-size="11" lengthAdjust="spacingAndGlyphs" textLength="347" x="463.5" y="233.8198">JSPWikiLinkAttributeProvider(Context, boolean, List&lt;Pattern&gt;)</text><ellipse cx="454.5" cy="243.4141" fill="#84BE84" rx="3" ry="3" style="stroke: #038048; stroke-width: 1.0;"/><text fill="#000000" font-family="sans-serif" font-size="11" lengthAdjust="spacingAndGlyphs" textLength="344" x="463.5" y="246.6245">setAttributes(Node, AttributablePart, MutableAttributes): void</text></a><!--MD5=[54d39ef98fb14810f1fdbb451198371e]
class org.apache.wiki.markdown.extensions.jspwikilinks.attributeprovider.WysiwygEditingAttributeProviderState--><a href="WysiwygEditingAttributeProviderState.html" target="_top" title="WysiwygEditingAttributeProviderState.html" xlink:actuate="onRequest" xlink:href="WysiwygEditingAttributeProviderState.html" xlink:show="new" xlink:title="WysiwygEditingAttributeProviderState.html" xlink:type="simple"><rect codeLine="49" fill="#FEFECE" filter="url(#fj044yf0i8x38)" height="73.6094" id="org.apache.wiki.markdown.extensions.jspwikilinks.attributeprovider.WysiwygEditingAttributeProviderState" style="stroke: #A80036; stroke-width: 1.5;" width="306" x="2440" y="313"/><ellipse cx="2473.45" cy="329" fill="#ADD1B2" rx="11" ry="11" style="stroke: #A80036; stroke-width: 1.0;"/><path d="M2476.4188,334.6406 Q2475.8406,334.9375 2475.2,335.0781 Q2474.5594,335.2344 2473.8563,335.2344 Q2471.3563,335.2344 2470.0281,333.5938 Q2468.7156,331.9375 2468.7156,328.8125 Q2468.7156,325.6875 2470.0281,324.0313 Q2471.3563,322.375 2473.8563,322.375 Q2474.5594,322.375 2475.2,322.5313 Q2475.8563,322.6875 2476.4188,322.9844 L2476.4188,325.7031 Q2475.7938,325.125 2475.2,324.8594 Q2474.6063,324.5781 2473.9813,324.5781 Q2472.6375,324.5781 2471.95,325.6563 Q2471.2625,326.7188 2471.2625,328.8125 Q2471.2625,330.9063 2471.95,331.9844 Q2472.6375,333.0469 2473.9813,333.0469 Q2474.6063,333.0469 2475.2,332.7813 Q2475.7938,332.5 2476.4188,331.9219 L2476.4188,334.6406 Z "/><text fill="#000000" font-family="sans-serif" font-size="12" lengthAdjust="spacingAndGlyphs" textLength="233" x="2491.55" y="333.1543">WysiwygEditingAttributeProviderState</text><line style="stroke: #A80036; stroke-width: 1.5;" x1="2441" x2="2745" y1="345" y2="345"/><line style="stroke: #A80036; stroke-width: 1.5;" x1="2441" x2="2745" y1="353" y2="353"/><ellipse cx="2451" cy="364" fill="#84BE84" rx="3" ry="3" style="stroke: #038048; stroke-width: 1.0;"/><text fill="#000000" font-family="sans-serif" font-size="11" lengthAdjust="spacingAndGlyphs" textLength="261" x="2460" y="367.2104">WysiwygEditingAttributeProviderState(Context)</text><ellipse cx="2451" cy="376.8047" fill="#84BE84" rx="3" ry="3" style="stroke: #038048; stroke-width: 1.0;"/><text fill="#000000" font-family="sans-serif" font-size="11" lengthAdjust="spacingAndGlyphs" textLength="280" x="2460" y="380.0151">setAttributes(MutableAttributes, JSPWikiLink): void</text></a><!--MD5=[5c0450cd2c266fbcaec9c603853bf499]
class org.apache.wiki.markdown.extensions.jspwikilinks.attributeprovider.LocalFootnoteLinkAttributeProviderState--><a href="LocalFootnoteLinkAttributeProviderState.html" target="_top" title="LocalFootnoteLinkAttributeProviderState.html" xlink:actuate="onRequest" xlink:href="LocalFootnoteLinkAttributeProviderState.html" xlink:show="new" xlink:title="LocalFootnoteLinkAttributeProviderState.html" xlink:type="simple"><rect codeLine="54" fill="#FEFECE" filter="url(#fj044yf0i8x38)" height="73.6094" id="org.apache.wiki.markdown.extensions.jspwikilinks.attributeprovider.LocalFootnoteLinkAttributeProviderState" style="stroke: #A80036; stroke-width: 1.5;" width="306" x="2781" y="313"/><ellipse cx="2805.45" cy="329" fill="#ADD1B2" rx="11" ry="11" style="stroke: #A80036; stroke-width: 1.0;"/><path d="M2808.4188,334.6406 Q2807.8406,334.9375 2807.2,335.0781 Q2806.5594,335.2344 2805.8563,335.2344 Q2803.3563,335.2344 2802.0281,333.5938 Q2800.7156,331.9375 2800.7156,328.8125 Q2800.7156,325.6875 2802.0281,324.0313 Q2803.3563,322.375 2805.8563,322.375 Q2806.5594,322.375 2807.2,322.5313 Q2807.8563,322.6875 2808.4188,322.9844 L2808.4188,325.7031 Q2807.7938,325.125 2807.2,324.8594 Q2806.6063,324.5781 2805.9813,324.5781 Q2804.6375,324.5781 2803.95,325.6563 Q2803.2625,326.7188 2803.2625,328.8125 Q2803.2625,330.9063 2803.95,331.9844 Q2804.6375,333.0469 2805.9813,333.0469 Q2806.6063,333.0469 2807.2,332.7813 Q2807.7938,332.5 2808.4188,331.9219 L2808.4188,334.6406 Z "/><text fill="#000000" font-family="sans-serif" font-size="12" lengthAdjust="spacingAndGlyphs" textLength="253" x="2821.55" y="333.1543">LocalFootnoteLinkAttributeProviderState</text><line style="stroke: #A80036; stroke-width: 1.5;" x1="2782" x2="3086" y1="345" y2="345"/><line style="stroke: #A80036; stroke-width: 1.5;" x1="2782" x2="3086" y1="353" y2="353"/><ellipse cx="2792" cy="364" fill="#84BE84" rx="3" ry="3" style="stroke: #038048; stroke-width: 1.0;"/><text fill="#000000" font-family="sans-serif" font-size="11" lengthAdjust="spacingAndGlyphs" textLength="276" x="2801" y="367.2104">LocalFootnoteLinkAttributeProviderState(Context)</text><ellipse cx="2792" cy="376.8047" fill="#84BE84" rx="3" ry="3" style="stroke: #038048; stroke-width: 1.0;"/><text fill="#000000" font-family="sans-serif" font-size="11" lengthAdjust="spacingAndGlyphs" textLength="280" x="2801" y="380.0151">setAttributes(MutableAttributes, JSPWikiLink): void</text></a><!--MD5=[0e7ec95ae7ebd202e71709e656ff7072]
class org.apache.wiki.markdown.extensions.jspwikilinks.attributeprovider.InterWikiLinkAttributeProviderState--><a href="InterWikiLinkAttributeProviderState.html" target="_top" title="InterWikiLinkAttributeProviderState.html" xlink:actuate="onRequest" xlink:href="InterWikiLinkAttributeProviderState.html" xlink:show="new" xlink:title="InterWikiLinkAttributeProviderState.html" xlink:type="simple"><rect codeLine="59" fill="#FEFECE" filter="url(#fj044yf0i8x38)" height="73.6094" id="org.apache.wiki.markdown.extensions.jspwikilinks.attributeprovider.InterWikiLinkAttributeProviderState" style="stroke: #A80036; stroke-width: 1.5;" width="464" x="3122" y="313"/><ellipse cx="3241.25" cy="329" fill="#ADD1B2" rx="11" ry="11" style="stroke: #A80036; stroke-width: 1.0;"/><path d="M3244.2188,334.6406 Q3243.6406,334.9375 3243,335.0781 Q3242.3594,335.2344 3241.6563,335.2344 Q3239.1563,335.2344 3237.8281,333.5938 Q3236.5156,331.9375 3236.5156,328.8125 Q3236.5156,325.6875 3237.8281,324.0313 Q3239.1563,322.375 3241.6563,322.375 Q3242.3594,322.375 3243,322.5313 Q3243.6563,322.6875 3244.2188,322.9844 L3244.2188,325.7031 Q3243.5938,325.125 3243,324.8594 Q3242.4063,324.5781 3241.7813,324.5781 Q3240.4375,324.5781 3239.75,325.6563 Q3239.0625,326.7188 3239.0625,328.8125 Q3239.0625,330.9063 3239.75,331.9844 Q3240.4375,333.0469 3241.7813,333.0469 Q3242.4063,333.0469 3243,332.7813 Q3243.5938,332.5 3244.2188,331.9219 L3244.2188,334.6406 Z "/><text fill="#000000" font-family="sans-serif" font-size="12" lengthAdjust="spacingAndGlyphs" textLength="217" x="3261.75" y="333.1543">InterWikiLinkAttributeProviderState</text><line style="stroke: #A80036; stroke-width: 1.5;" x1="3123" x2="3585" y1="345" y2="345"/><line style="stroke: #A80036; stroke-width: 1.5;" x1="3123" x2="3585" y1="353" y2="353"/><ellipse cx="3133" cy="364" fill="#84BE84" rx="3" ry="3" style="stroke: #038048; stroke-width: 1.0;"/><text fill="#000000" font-family="sans-serif" font-size="11" lengthAdjust="spacingAndGlyphs" textLength="438" x="3142" y="367.2104">InterWikiLinkAttributeProviderState(Context, boolean, boolean, List&lt;Pattern&gt;)</text><ellipse cx="3133" cy="376.8047" fill="#84BE84" rx="3" ry="3" style="stroke: #038048; stroke-width: 1.0;"/><text fill="#000000" font-family="sans-serif" font-size="11" lengthAdjust="spacingAndGlyphs" textLength="280" x="3142" y="380.0151">setAttributes(MutableAttributes, JSPWikiLink): void</text></a><!--MD5=[da0b0cfbe6fb5c1880ced7888584e185]
class com.vladsch.flexmark.html.IndependentAttributeProviderFactory--><rect codeLine="78" fill="#FEFECE" filter="url(#fj044yf0i8x38)" height="48" id="com.vladsch.flexmark.html.IndependentAttributeProviderFactory" style="stroke: #A80036; stroke-width: 1.5;" width="265" x="888.5" y="39.5"/><ellipse cx="903.5" cy="55.5" fill="#A9DCDF" rx="11" ry="11" style="stroke: #A80036; stroke-width: 1.0;"/><path d="M903.6094,50.8438 L902.4531,55.9219 L904.7813,55.9219 L903.6094,50.8438 Z M902.125,48.6094 L905.1094,48.6094 L908.4688,61 L906.0156,61 L905.25,57.9375 L901.9688,57.9375 L901.2188,61 L898.7813,61 L902.125,48.6094 Z "/><text fill="#000000" font-family="sans-serif" font-size="12" font-style="italic" lengthAdjust="spacingAndGlyphs" textLength="233" x="917.5" y="59.6543">IndependentAttributeProviderFactory</text><line style="stroke: #A80036; stroke-width: 1.5;" x1="889.5" x2="1152.5" y1="71.5" y2="71.5"/><line style="stroke: #A80036; stroke-width: 1.5;" x1="889.5" x2="1152.5" y1="79.5" y2="79.5"/><!--MD5=[e3328784921197028990914999438f7b]
class com.vladsch.flexmark.html.AttributeProvider--><rect codeLine="79" fill="#FEFECE" filter="url(#fj044yf0i8x38)" height="60.8047" id="com.vladsch.flexmark.html.AttributeProvider" style="stroke: #A80036; stroke-width: 1.5;" width="371" x="482.5" y="33"/><ellipse cx="611.25" cy="49" fill="#B4A7E5" rx="11" ry="11" style="stroke: #A80036; stroke-width: 1.0;"/><path d="M607.1719,44.7656 L607.1719,42.6094 L614.5625,42.6094 L614.5625,44.7656 L612.0938,44.7656 L612.0938,52.8438 L614.5625,52.8438 L614.5625,55 L607.1719,55 L607.1719,52.8438 L609.6406,52.8438 L609.6406,44.7656 L607.1719,44.7656 Z "/><text fill="#000000" font-family="sans-serif" font-size="12" font-style="italic" lengthAdjust="spacingAndGlyphs" textLength="105" x="631.75" y="53.1543">AttributeProvider</text><line style="stroke: #A80036; stroke-width: 1.5;" x1="483.5" x2="852.5" y1="65" y2="65"/><line style="stroke: #A80036; stroke-width: 1.5;" x1="483.5" x2="852.5" y1="73" y2="73"/><ellipse cx="493.5" cy="84" fill="#84BE84" rx="3" ry="3" style="stroke: #038048; stroke-width: 1.0;"/><text fill="#000000" font-family="sans-serif" font-size="11" font-style="italic" lengthAdjust="spacingAndGlyphs" textLength="345" x="502.5" y="87.2104">setAttributes(Node, AttributablePart, MutableAttributes): void</text><!--MD5=[908db2af469fd6038c5d5673b290e9aa]
reverse link org.apache.wiki.markdown.extensions.jspwikilinks.attributeprovider.NodeAttributeProviderState to org.apache.wiki.markdown.extensions.jspwikilinks.attributeprovider.LocalEditLinkAttributeProviderState--><path codeLine="64" d="M1699.473,219.7328 C1580.488,229.8247 1423.2593,242.7781 1284,253 C872.2456,283.2235 766.0219,256.8202 357,313 C351.4623,313.7606 345.8382,314.5972 340.1672,315.4953 " fill="none" id="org.apache.wiki.markdown.extensions.jspwikilinks.attributeprovider.NodeAttributeProviderState-backto-org.apache.wiki.markdown.extensions.jspwikilinks.attributeprovider.LocalEditLinkAttributeProviderState" style="stroke: #A80036; stroke-width: 1.0; stroke-dasharray: 7.0,7.0;"/><polygon fill="none" points="1699.2074,212.7302,1719.7284,218.0111,1700.3931,226.6799,1699.2074,212.7302" style="stroke: #A80036; stroke-width: 1.0;"/><!--MD5=[4bc3aa91c72cd7edf084f8c7dd660073]
reverse link org.apache.wiki.markdown.extensions.jspwikilinks.attributeprovider.NodeAttributeProviderState to org.apache.wiki.markdown.extensions.jspwikilinks.attributeprovider.LocalLinkAttributeProviderState--><path codeLine="65" d="M1699.54,220.338 C1489.6126,239.8331 1139.4039,274.2691 839,313 C833.1224,313.7578 827.1669,314.5434 821.1595,315.3514 " fill="none" id="org.apache.wiki.markdown.extensions.jspwikilinks.attributeprovider.NodeAttributeProviderState-backto-org.apache.wiki.markdown.extensions.jspwikilinks.attributeprovider.LocalLinkAttributeProviderState" style="stroke: #A80036; stroke-width: 1.0; stroke-dasharray: 7.0,7.0;"/><polygon fill="none" points="1699.1644,213.3429,1719.7245,218.4694,1700.4549,227.2833,1699.1644,213.3429" style="stroke: #A80036; stroke-width: 1.0;"/><!--MD5=[91c10a4ec75701a8acc152ddae0f349f]
reverse link org.apache.wiki.markdown.extensions.jspwikilinks.attributeprovider.NodeAttributeProviderState to org.apache.wiki.markdown.extensions.jspwikilinks.attributeprovider.ExternalLinkAttributeProviderState--><path codeLine="66" d="M1700.6706,237.6643 C1577.563,260.2366 1416.2631,289.8116 1290.0706,312.9495 " fill="none" id="org.apache.wiki.markdown.extensions.jspwikilinks.attributeprovider.NodeAttributeProviderState-backto-org.apache.wiki.markdown.extensions.jspwikilinks.attributeprovider.ExternalLinkAttributeProviderState" style="stroke: #A80036; stroke-width: 1.0; stroke-dasharray: 7.0,7.0;"/><polygon fill="none" points="1699.5415,230.7547,1720.476,234.0329,1702.0664,244.5251,1699.5415,230.7547" style="stroke: #A80036; stroke-width: 1.0;"/><!--MD5=[e8e25f8b07d68029c95e09ef04581633]
reverse link com.vladsch.flexmark.html.IndependentAttributeProviderFactory to org.apache.wiki.markdown.extensions.jspwikilinks.attributeprovider.JSPWikiLinkAttributeProviderFactory--><path codeLine="67" d="M1032.8125,107.0196 C1037.9736,126.0342 1043.9646,148.1063 1048.9128,166.3365 " fill="none" id="com.vladsch.flexmark.html.IndependentAttributeProviderFactory-backto-org.apache.wiki.markdown.extensions.jspwikilinks.attributeprovider.JSPWikiLinkAttributeProviderFactory" style="stroke: #A80036; stroke-width: 1.0;"/><polygon fill="none" points="1026.0159,108.7022,1027.5324,87.5669,1039.5271,105.0348,1026.0159,108.7022" style="stroke: #A80036; stroke-width: 1.0;"/><!--MD5=[a7d0533e216ed85f9f81191aeb740192]
reverse link org.apache.wiki.markdown.extensions.jspwikilinks.attributeprovider.NodeAttributeProviderState to org.apache.wiki.markdown.extensions.jspwikilinks.attributeprovider.LocalFootnoteRefLinkAttributeProviderState--><path codeLine="68" d="M1790.7272,241.4139 C1734.854,263.4177 1664.7753,291.0159 1609.2502,312.8826 " fill="none" id="org.apache.wiki.markdown.extensions.jspwikilinks.attributeprovider.NodeAttributeProviderState-backto-org.apache.wiki.markdown.extensions.jspwikilinks.attributeprovider.LocalFootnoteRefLinkAttributeProviderState" style="stroke: #A80036; stroke-width: 1.0; stroke-dasharray: 7.0,7.0;"/><polygon fill="none" points="1788.2955,234.8483,1809.4694,234.0329,1793.4255,247.8746,1788.2955,234.8483" style="stroke: #A80036; stroke-width: 1.0;"/><!--MD5=[414b1201f38205903c7d8934f071b69d]
reverse link org.apache.wiki.markdown.extensions.jspwikilinks.attributeprovider.NodeAttributeProviderState to org.apache.wiki.markdown.extensions.jspwikilinks.attributeprovider.ImageLinkAttributeProviderState--><path codeLine="69" d="M1887,254.2786 C1887,273.5284 1887,295.0707 1887,312.8373 " fill="none" id="org.apache.wiki.markdown.extensions.jspwikilinks.attributeprovider.NodeAttributeProviderState-backto-org.apache.wiki.markdown.extensions.jspwikilinks.attributeprovider.ImageLinkAttributeProviderState" style="stroke: #A80036; stroke-width: 1.0; stroke-dasharray: 7.0,7.0;"/><polygon fill="none" points="1880.0001,254.2112,1887,234.2112,1894.0001,254.2112,1880.0001,254.2112" style="stroke: #A80036; stroke-width: 1.0;"/><!--MD5=[184e370769ee86e88b5ca171f8a822dd]
reverse link org.apache.wiki.markdown.extensions.jspwikilinks.attributeprovider.NodeAttributeProviderState to org.apache.wiki.markdown.extensions.jspwikilinks.attributeprovider.LocalReadLinkAttributeProviderState--><path codeLine="70" d="M1981.8198,241.5578 C2036.5826,263.5379 2105.1618,291.0636 2159.5233,312.8826 " fill="none" id="org.apache.wiki.markdown.extensions.jspwikilinks.attributeprovider.NodeAttributeProviderState-backto-org.apache.wiki.markdown.extensions.jspwikilinks.attributeprovider.LocalReadLinkAttributeProviderState" style="stroke: #A80036; stroke-width: 1.0; stroke-dasharray: 7.0,7.0;"/><polygon fill="none" points="1979.025,247.9789,1963.0717,234.0329,1984.2399,234.9864,1979.025,247.9789" style="stroke: #A80036; stroke-width: 1.0;"/><!--MD5=[2a4b7d56e96f2a4989a53a60336cecbf]
reverse link com.vladsch.flexmark.html.AttributeProvider to org.apache.wiki.markdown.extensions.jspwikilinks.attributeprovider.JSPWikiLinkAttributeProvider--><path codeLine="71" d="M654.3872,113.6524 C650.8374,126.7308 647.014,140.8167 643.4715,153.868 " fill="none" id="com.vladsch.flexmark.html.AttributeProvider-backto-org.apache.wiki.markdown.extensions.jspwikilinks.attributeprovider.JSPWikiLinkAttributeProvider" style="stroke: #A80036; stroke-width: 1.0; stroke-dasharray: 7.0,7.0;"/><polygon fill="none" points="647.6661,111.6915,659.6607,94.2236,661.1772,115.3589,647.6661,111.6915" style="stroke: #A80036; stroke-width: 1.0;"/><!--MD5=[3170b10dc60f61b395e0df1053f0f167]
reverse link org.apache.wiki.markdown.extensions.jspwikilinks.attributeprovider.NodeAttributeProviderState to org.apache.wiki.markdown.extensions.jspwikilinks.attributeprovider.WysiwygEditingAttributeProviderState--><path codeLine="72" d="M2058.9407,238.0444 C2164.1376,259.3238 2301.4273,287.353 2423,313 C2428.4676,314.1534 2434.0327,315.3334 2439.6527,316.53 " fill="none" id="org.apache.wiki.markdown.extensions.jspwikilinks.attributeprovider.NodeAttributeProviderState-backto-org.apache.wiki.markdown.extensions.jspwikilinks.attributeprovider.WysiwygEditingAttributeProviderState" style="stroke: #A80036; stroke-width: 1.0; stroke-dasharray: 7.0,7.0;"/><polygon fill="none" points="2057.2305,244.8403,2039.0139,234.0166,2060.0043,231.1178,2057.2305,244.8403" style="stroke: #A80036; stroke-width: 1.0;"/><!--MD5=[c3448401efd240e3d7171f7b22d4d3a4]
reverse link org.apache.wiki.markdown.extensions.jspwikilinks.attributeprovider.NodeAttributeProviderState to org.apache.wiki.markdown.extensions.jspwikilinks.attributeprovider.LocalFootnoteLinkAttributeProviderState--><path codeLine="73" d="M2074.2992,221.9451 C2252.3543,240.6455 2527.3451,272.5569 2764,313 C2769.508,313.9413 2775.1078,314.9398 2780.7572,315.9822 " fill="none" id="org.apache.wiki.markdown.extensions.jspwikilinks.attributeprovider.NodeAttributeProviderState-backto-org.apache.wiki.markdown.extensions.jspwikilinks.attributeprovider.LocalFootnoteLinkAttributeProviderState" style="stroke: #A80036; stroke-width: 1.0; stroke-dasharray: 7.0,7.0;"/><polygon fill="none" points="2073.3175,228.8808,2054.1524,219.8421,2074.771,214.9564,2073.3175,228.8808" style="stroke: #A80036; stroke-width: 1.0;"/><!--MD5=[375f0430107a551a65c9ef2c8845091d]
reverse link org.apache.wiki.markdown.extensions.jspwikilinks.attributeprovider.NodeAttributeProviderState to org.apache.wiki.markdown.extensions.jspwikilinks.attributeprovider.InterWikiLinkAttributeProviderState--><path codeLine="74" d="M2074.3872,216.9631 C2313.8427,234.9436 2740.9532,269.625 3105,313 C3110.5331,313.6593 3116.1327,314.3446 3121.7784,315.0519 " fill="none" id="org.apache.wiki.markdown.extensions.jspwikilinks.attributeprovider.NodeAttributeProviderState-backto-org.apache.wiki.markdown.extensions.jspwikilinks.attributeprovider.InterWikiLinkAttributeProviderState" style="stroke: #A80036; stroke-width: 1.0; stroke-dasharray: 7.0,7.0;"/><polygon fill="none" points="2073.7108,223.9322,2054.2885,215.4601,2074.7549,209.9711,2073.7108,223.9322" style="stroke: #A80036; stroke-width: 1.0;"/><text fill="#888888" font-family="sans-serif" font-size="10" lengthAdjust="spacingAndGlyphs" textLength="192" x="1703" y="410.2822">UMLDoclet 2.0.12, PlantUML 1.2020.16</text><!--MD5=[f57a4ea9a68c1d6b158c64de4c0babef]
@startuml
    namespace org.apache.wiki.markdown.extensions.jspwikilinks.attributeprovider {

        class LocalEditLinkAttributeProviderState [[LocalEditLinkAttributeProviderState.html]] {
            +LocalEditLinkAttributeProviderState(Context, String)
            +setAttributes(MutableAttributes, JSPWikiLink): void
        }

        class LocalLinkAttributeProviderState [[LocalLinkAttributeProviderState.html]] {
            +LocalLinkAttributeProviderState(Context, boolean, boolean, List<Pattern>)
            +setAttributes(MutableAttributes, JSPWikiLink): void
        }

        interface NodeAttributeProviderState<T extends Node> [[NodeAttributeProviderState.html]] {
            {abstract} +setAttributes(MutableAttributes, T extends Node): void
        }

        class ExternalLinkAttributeProviderState [[ExternalLinkAttributeProviderState.html]] {
            +ExternalLinkAttributeProviderState(Context, boolean, boolean, List<Pattern>)
            +setAttributes(MutableAttributes, JSPWikiLink): void
        }

        class JSPWikiLinkAttributeProviderFactory [[JSPWikiLinkAttributeProviderFactory.html]] {
            +JSPWikiLinkAttributeProviderFactory(Context, boolean, List<Pattern>)
            +apply(LinkResolverContext): AttributeProvider
        }

        class LocalFootnoteRefLinkAttributeProviderState [[LocalFootnoteRefLinkAttributeProviderState.html]] {
            +LocalFootnoteRefLinkAttributeProviderState(Context)
            +setAttributes(MutableAttributes, JSPWikiLink): void
        }

        class ImageLinkAttributeProviderState [[ImageLinkAttributeProviderState.html]] {
            +ImageLinkAttributeProviderState(Context, String, boolean)
            +setAttributes(MutableAttributes, JSPWikiLink): void
        }

        class LocalReadLinkAttributeProviderState [[LocalReadLinkAttributeProviderState.html]] {
            +LocalReadLinkAttributeProviderState(Context)
            +setAttributes(MutableAttributes, JSPWikiLink): void
        }

        class JSPWikiLinkAttributeProvider [[JSPWikiLinkAttributeProvider.html]] {
            #wikiContext: Context
            #linkOperations: LinkParsingOperations
            +JSPWikiLinkAttributeProvider(Context, boolean, List<Pattern>)
            +setAttributes(Node, AttributablePart, MutableAttributes): void
        }

        class WysiwygEditingAttributeProviderState [[WysiwygEditingAttributeProviderState.html]] {
            +WysiwygEditingAttributeProviderState(Context)
            +setAttributes(MutableAttributes, JSPWikiLink): void
        }

        class LocalFootnoteLinkAttributeProviderState [[LocalFootnoteLinkAttributeProviderState.html]] {
            +LocalFootnoteLinkAttributeProviderState(Context)
            +setAttributes(MutableAttributes, JSPWikiLink): void
        }

        class InterWikiLinkAttributeProviderState [[InterWikiLinkAttributeProviderState.html]] {
            +InterWikiLinkAttributeProviderState(Context, boolean, boolean, List<Pattern>)
            +setAttributes(MutableAttributes, JSPWikiLink): void
        }

        NodeAttributeProviderState <|.. LocalEditLinkAttributeProviderState
        NodeAttributeProviderState <|.. LocalLinkAttributeProviderState
        NodeAttributeProviderState <|.. ExternalLinkAttributeProviderState
        com.vladsch.flexmark.html.IndependentAttributeProviderFactory <|- - JSPWikiLinkAttributeProviderFactory
        NodeAttributeProviderState <|.. LocalFootnoteRefLinkAttributeProviderState
        NodeAttributeProviderState <|.. ImageLinkAttributeProviderState
        NodeAttributeProviderState <|.. LocalReadLinkAttributeProviderState
        com.vladsch.flexmark.html.AttributeProvider <|.. JSPWikiLinkAttributeProvider
        NodeAttributeProviderState <|.. WysiwygEditingAttributeProviderState
        NodeAttributeProviderState <|.. LocalFootnoteLinkAttributeProviderState
        NodeAttributeProviderState <|.. InterWikiLinkAttributeProviderState
    }

    namespace com.vladsch.flexmark.html {
        abstract class IndependentAttributeProviderFactory
        interface AttributeProvider {
            {abstract} +setAttributes(Node, AttributablePart, MutableAttributes): void
        }
    }

    center footer UMLDoclet 2.0.12, PlantUML 1.2020.16
@enduml

PlantUML version 1.2020.16(Sun Aug 23 20:20:43 UTC 2020)
(APACHE source distribution)
Java Runtime: Java(TM) SE Runtime Environment
JVM: Java HotSpot(TM) 64-Bit Server VM
Default Encoding: ISO-8859-1
Language: en
Country: US
--></g></svg>