<?xml version="1.0" encoding="UTF-8" standalone="no"?><svg xmlns="http://www.w3.org/2000/svg" xmlns:xlink="http://www.w3.org/1999/xlink" contentScriptType="application/ecmascript" contentStyleType="text/css" height="101px" preserveAspectRatio="none" style="width:366px;height:101px;" version="1.1" viewBox="0 0 366 101" width="366px" zoomAndPan="magnify"><defs><filter height="300%" id="f1c1ecbtxg39ab" width="300%" x="-1" y="-1"><feGaussianBlur result="blurOut" stdDeviation="2.0"/><feColorMatrix in="blurOut" result="blurOut2" type="matrix" values="0 0 0 0 0 0 0 0 0 0 0 0 0 0 0 0 0 0 .4 0"/><feOffset dx="4.0" dy="4.0" in="blurOut2" result="blurOut3"/><feBlend in="SourceGraphic" in2="blurOut3" mode="normal"/></filter></defs><g><!--class PageRenamer--><a href="PageRenamer.html" target="_top" xlink:actuate="onRequest" xlink:show="new" xlink:title="PageRenamer.html" xlink:type="simple"><rect fill="#FEFECE" filter="url(#f1c1ecbtxg39ab)" height="60.8047" id="PageRenamer" style="stroke: #A80036; stroke-width: 1.5;" width="349" x="6" y="8"/><ellipse cx="132.25" cy="24" fill="#ADD1B2" rx="11" ry="11" style="stroke: #A80036; stroke-width: 1.0;"/><path d="M135.2188,29.6406 Q134.6406,29.9375 134,30.0859 Q133.3594,30.2344 132.6563,30.2344 Q130.1563,30.2344 128.8359,28.5859 Q127.5156,26.9375 127.5156,23.8125 Q127.5156,20.6875 128.8359,19.0313 Q130.1563,17.375 132.6563,17.375 Q133.3594,17.375 134.0078,17.5313 Q134.6563,17.6875 135.2188,17.9844 L135.2188,20.7031 Q134.5938,20.125 134,19.8516 Q133.4063,19.5781 132.7813,19.5781 Q131.4375,19.5781 130.75,20.6484 Q130.0625,21.7188 130.0625,23.8125 Q130.0625,25.9063 130.75,26.9766 Q131.4375,28.0469 132.7813,28.0469 Q133.4063,28.0469 134,27.7734 Q134.5938,27.5 135.2188,26.9219 L135.2188,29.6406 Z "/><text fill="#000000" font-family="sans-serif" font-size="12" lengthAdjust="spacingAndGlyphs" textLength="88" x="152.75" y="28.1543">PageRenamer</text><line style="stroke: #A80036; stroke-width: 1.5;" x1="7" x2="354" y1="40" y2="40"/><line style="stroke: #A80036; stroke-width: 1.5;" x1="7" x2="354" y1="48" y2="48"/><ellipse cx="17" cy="59.9023" fill="#84BE84" rx="3" ry="3" style="stroke: #038048; stroke-width: 1.0;"/><text fill="#000000" font-family="sans-serif" font-size="11" lengthAdjust="spacingAndGlyphs" textLength="323" x="26" y="62.2104">renamePage(WikiContext, String, String, boolean): String</text></a><text fill="#888888" font-family="sans-serif" font-size="10" lengthAdjust="spacingAndGlyphs" textLength="186" x="93.5" y="88.2822">UMLDoclet 1.1.4, PlantUML 1.2019.05</text><!--
@startuml

    class PageRenamer [[PageRenamer.html]] {
        +renamePage(WikiContext, String, String, boolean): String
    }


    center footer UMLDoclet 1.1.4, PlantUML 1.2019.05
@enduml

PlantUML version 1.2019.05(Sat Apr 20 16:45:36 UTC 2019)
(APACHE source distribution)
Java Runtime: Java(TM) SE Runtime Environment
JVM: Java HotSpot(TM) 64-Bit Server VM
Java Version: 1.8.0_191-b12
Operating System: Linux
OS Version: 4.15.0-58-generic
Default Encoding: ISO-8859-1
Language: en
Country: US
--></g></svg>