<?xml version="1.0" encoding="UTF-8" standalone="no"?><svg xmlns="http://www.w3.org/2000/svg" xmlns:xlink="http://www.w3.org/1999/xlink" contentScriptType="application/ecmascript" contentStyleType="text/css" height="186px" preserveAspectRatio="none" style="width:448px;height:186px;" version="1.1" viewBox="0 0 448 186" width="448px" zoomAndPan="magnify"><defs><filter height="300%" id="f1769ru5dsk12v" width="300%" x="-1" y="-1"><feGaussianBlur result="blurOut" stdDeviation="2.0"/><feColorMatrix in="blurOut" result="blurOut2" type="matrix" values="0 0 0 0 0 0 0 0 0 0 0 0 0 0 0 0 0 0 .4 0"/><feOffset dx="4.0" dy="4.0" in="blurOut2" result="blurOut3"/><feBlend in="SourceGraphic" in2="blurOut3" mode="normal"/></filter></defs><g><!--class AttachmentServlet--><a href="AttachmentServlet.html" target="_top" xlink:actuate="onRequest" xlink:show="new" xlink:title="AttachmentServlet.html" xlink:type="simple"><rect fill="#FEFECE" filter="url(#f1769ru5dsk12v)" height="144.8516" id="AttachmentServlet" style="stroke: #A80036; stroke-width: 1.5;" width="431" x="6" y="8"/><ellipse cx="168.25" cy="24" fill="#ADD1B2" rx="11" ry="11" style="stroke: #A80036; stroke-width: 1.0;"/><path d="M171.0156,19.875 Q171.1719,19.6563 171.3594,19.5469 Q171.5469,19.4375 171.7656,19.4375 Q172.1406,19.4375 172.375,19.6953 Q172.6094,19.9531 172.6094,20.5625 L172.6094,22.0156 Q172.6094,22.625 172.375,22.8906 Q172.1406,23.1563 171.7656,23.1563 Q171.4219,23.1563 171.2188,22.9531 Q171.0156,22.7656 170.9063,22.25 Q170.8594,21.8906 170.6719,21.7031 Q170.3438,21.3281 169.7344,21.1094 Q169.125,20.8906 168.5,20.8906 Q167.7344,20.8906 167.1016,21.2188 Q166.4688,21.5469 165.9766,22.2969 Q165.4844,23.0469 165.4844,24.0781 L165.4844,25.1719 Q165.4844,26.4063 166.375,27.2266 Q167.2656,28.0469 168.8594,28.0469 Q169.7969,28.0469 170.4531,27.7969 Q170.8438,27.6406 171.2656,27.2031 Q171.5313,26.9375 171.6797,26.8594 Q171.8281,26.7813 172.0313,26.7813 Q172.3594,26.7813 172.6172,27.0391 Q172.875,27.2969 172.875,27.6406 Q172.875,27.9844 172.5313,28.3906 Q172.0313,28.9688 171.2344,29.2969 Q170.1563,29.75 168.8594,29.75 Q167.3438,29.75 166.1406,29.125 Q165.1563,28.625 164.4688,27.5547 Q163.7813,26.4844 163.7813,25.2031 L163.7813,24.0469 Q163.7813,22.7188 164.3984,21.5703 Q165.0156,20.4219 166.1094,19.8047 Q167.2031,19.1875 168.4375,19.1875 Q169.1719,19.1875 169.8203,19.3516 Q170.4688,19.5156 171.0156,19.875 Z "/><text fill="#000000" font-family="sans-serif" font-size="12" lengthAdjust="spacingAndGlyphs" textLength="98" x="188.75" y="28.9102">AttachmentServlet</text><line style="stroke: #A80036; stroke-width: 1.5;" x1="7" x2="436" y1="40" y2="40"/><polygon fill="none" points="17,47.418,21,51.418,17,55.418,13,51.418" style="stroke: #B38D22; stroke-width: 1.0;"/><text fill="#000000" font-family="sans-serif" font-size="11" lengthAdjust="spacingAndGlyphs" text-decoration="underline" textLength="114" x="26" y="55.4189">DEFAULT_EXPIRY: long</text><line style="stroke: #A80036; stroke-width: 1.5;" x1="7" x2="436" y1="61.8359" y2="61.8359"/><ellipse cx="17" cy="74.2539" fill="#84BE84" rx="3" ry="3" style="stroke: #038048; stroke-width: 1.0;"/><text fill="#000000" font-family="sans-serif" font-size="11" lengthAdjust="spacingAndGlyphs" textLength="112" x="26" y="77.2549">init(ServletConfig): void</text><polygon fill="#FFFF44" points="17,83.0898,21,87.0898,17,91.0898,13,87.0898" style="stroke: #B38D22; stroke-width: 1.0;"/><text fill="#000000" font-family="sans-serif" font-size="11" lengthAdjust="spacingAndGlyphs" textLength="284" x="26" y="91.0908">doOptions(HttpServletRequest, HttpServletResponse): void</text><ellipse cx="17" cy="101.9258" fill="#84BE84" rx="3" ry="3" style="stroke: #038048; stroke-width: 1.0;"/><text fill="#000000" font-family="sans-serif" font-size="11" lengthAdjust="spacingAndGlyphs" textLength="264" x="26" y="104.9268">doGet(HttpServletRequest, HttpServletResponse): void</text><ellipse cx="17" cy="115.7617" fill="#84BE84" rx="3" ry="3" style="stroke: #038048; stroke-width: 1.0;"/><text fill="#000000" font-family="sans-serif" font-size="11" lengthAdjust="spacingAndGlyphs" textLength="268" x="26" y="118.7627">doPost(HttpServletRequest, HttpServletResponse): void</text><polygon fill="#FFFF44" points="17,124.5977,21,128.5977,17,132.5977,13,128.5977" style="stroke: #B38D22; stroke-width: 1.0;"/><text fill="#000000" font-family="sans-serif" font-size="11" lengthAdjust="spacingAndGlyphs" textLength="167" x="26" y="132.5986">upload(HttpServletRequest): String</text><polygon fill="#FFFF44" points="17,138.4336,21,142.4336,17,146.4336,13,142.4336" style="stroke: #B38D22; stroke-width: 1.0;"/><text fill="#000000" font-family="sans-serif" font-size="11" lengthAdjust="spacingAndGlyphs" textLength="405" x="26" y="146.4346">executeUpload(WikiContext, InputStream, String, String, String, String, long): boolean</text></a><text fill="#888888" font-family="sans-serif" font-size="10" lengthAdjust="spacingAndGlyphs" textLength="184" x="135.5" y="173.3809">UMLDoclet 1.1.4, PlantUML 1.2019.05</text><!--
@startuml

    class AttachmentServlet [[AttachmentServlet.html]] {
        {static} #DEFAULT_EXPIRY: long
        +init(ServletConfig): void
        #doOptions(HttpServletRequest, HttpServletResponse): void
        +doGet(HttpServletRequest, HttpServletResponse): void
        +doPost(HttpServletRequest, HttpServletResponse): void
        #upload(HttpServletRequest): String
        #executeUpload(WikiContext, InputStream, String, String, String, String, long): boolean
    }


    center footer UMLDoclet 1.1.4, PlantUML 1.2019.05
@enduml

PlantUML version 1.2019.05(Sat Apr 20 18:45:36 CEST 2019)
(APACHE source distribution)
Java Runtime: OpenJDK Runtime Environment
JVM: OpenJDK 64-Bit Server VM
Java Version: 1.8.0_212-b03
Operating System: Windows 10
OS Version: 10.0
Default Encoding: Cp1252
Language: es
Country: ES
--></g></svg>