<?xml version="1.0" encoding="UTF-8" standalone="no"?><svg xmlns="http://www.w3.org/2000/svg" xmlns:xlink="http://www.w3.org/1999/xlink" contentScriptType="application/ecmascript" contentStyleType="text/css" height="220px" preserveAspectRatio="none" style="width:193px;height:220px;background:#FFFFFF;" version="1.1" viewBox="0 0 193 220" width="193px" zoomAndPan="magnify"><defs><filter height="300%" id="fjy7i4jh7l16x" width="300%" x="-1" y="-1"><feGaussianBlur result="blurOut" stdDeviation="2.0"/><feColorMatrix in="blurOut" result="blurOut2" type="matrix" values="0 0 0 0 0 0 0 0 0 0 0 0 0 0 0 0 0 0 .4 0"/><feOffset dx="4.0" dy="4.0" in="blurOut2" result="blurOut3"/><feBlend in="SourceGraphic" in2="blurOut3" mode="normal"/></filter></defs><g><!--MD5=[3cbf8d6074ac2a6323da3d2748061adb]
class org.apache.wiki.parser.VariableContent--><a href="VariableContent.html" target="_top" title="VariableContent.html" xlink:actuate="onRequest" xlink:href="VariableContent.html" xlink:show="new" xlink:title="VariableContent.html" xlink:type="simple"><rect codeLine="5" fill="#FEFECE" filter="url(#fjy7i4jh7l16x)" height="84.3516" id="org.apache.wiki.parser.VariableContent" style="stroke:#A80036;stroke-width:1.5;" width="158" x="17" y="105"/><ellipse cx="39.2" cy="123.9688" fill="#ADD1B2" rx="11" ry="11" style="stroke:#A80036;stroke-width:1.0;"/><path d="M42.1688,129.6094 Q41.5906,129.9063 40.95,130.0469 Q40.3094,130.2031 39.6063,130.2031 Q37.1063,130.2031 35.7781,128.5625 Q34.4656,126.9063 34.4656,123.7813 Q34.4656,120.6563 35.7781,119 Q37.1063,117.3438 39.6063,117.3438 Q40.3094,117.3438 40.95,117.5 Q41.6063,117.6563 42.1688,117.9531 L42.1688,120.6719 Q41.5438,120.0938 40.95,119.8281 Q40.3563,119.5469 39.7313,119.5469 Q38.3875,119.5469 37.7,120.625 Q37.0125,121.6875 37.0125,123.7813 Q37.0125,125.875 37.7,126.9531 Q38.3875,128.0156 39.7313,128.0156 Q40.3563,128.0156 40.95,127.75 Q41.5438,127.4688 42.1688,126.8906 L42.1688,129.6094 Z " fill="#000000"/><text fill="#000000" font-family="sans-serif" font-size="14" lengthAdjust="spacing" textLength="110" x="54.8" y="122.9951">VariableContent</text><text fill="#000000" font-family="sans-serif" font-size="10" lengthAdjust="spacing" textLength="108" x="55.8" y="135.5791">org.apache.wiki.parser</text><line style="stroke:#A80036;stroke-width:1.5;" x1="18" x2="174" y1="142.9375" y2="142.9375"/><ellipse cx="28" cy="153.9375" fill="#84BE84" rx="3" ry="3" style="stroke:#038048;stroke-width:1.0;"/><text fill="#000000" font-family="sans-serif" font-size="11" lengthAdjust="spacing" textLength="132" x="37" y="157.1479">VariableContent(String)</text><ellipse cx="28" cy="166.7422" fill="#84BE84" rx="3" ry="3" style="stroke:#038048;stroke-width:1.0;"/><text fill="#000000" font-family="sans-serif" font-size="11" lengthAdjust="spacing" textLength="99" x="37" y="169.9526">getValue(): String</text><ellipse cx="28" cy="179.5469" fill="#84BE84" rx="3" ry="3" style="stroke:#038048;stroke-width:1.0;"/><text fill="#000000" font-family="sans-serif" font-size="11" lengthAdjust="spacing" textLength="92" x="37" y="182.7573">getText(): String</text></a><!--MD5=[f7feb5eab27315cb5b8a3a4a6c5233f5]
class org.jdom2.Text--><rect codeLine="11" fill="#FEFECE" filter="url(#fjy7i4jh7l16x)" height="37.9375" id="org.jdom2.Text" style="stroke:#A80036;stroke-width:1.5;" width="81" x="55.5" y="7"/><ellipse cx="70.5" cy="25.9688" fill="#ADD1B2" rx="11" ry="11" style="stroke:#A80036;stroke-width:1.0;"/><path d="M73.4688,31.6094 Q72.8906,31.9063 72.25,32.0469 Q71.6094,32.2031 70.9063,32.2031 Q68.4063,32.2031 67.0781,30.5625 Q65.7656,28.9063 65.7656,25.7813 Q65.7656,22.6563 67.0781,21 Q68.4063,19.3438 70.9063,19.3438 Q71.6094,19.3438 72.25,19.5 Q72.9063,19.6563 73.4688,19.9531 L73.4688,22.6719 Q72.8438,22.0938 72.25,21.8281 Q71.6563,21.5469 71.0313,21.5469 Q69.6875,21.5469 69,22.625 Q68.3125,23.6875 68.3125,25.7813 Q68.3125,27.875 69,28.9531 Q69.6875,30.0156 71.0313,30.0156 Q71.6563,30.0156 72.25,29.75 Q72.8438,29.4688 73.4688,28.8906 L73.4688,31.6094 Z " fill="#000000"/><text fill="#000000" font-family="sans-serif" font-size="14" lengthAdjust="spacing" textLength="30" x="94" y="24.9951">Text</text><text fill="#000000" font-family="sans-serif" font-size="10" lengthAdjust="spacing" textLength="49" x="84.5" y="37.5791">org.jdom2</text><!--MD5=[eb7823cdb3af76e91a80e9eac3c795af]
reverse link org.jdom2.Text to org.apache.wiki.parser.VariableContent--><path codeLine="13" d="M96,65.259 C96,77.9194 96,92.0012 96,104.8605 " fill="none" id="org.jdom2.Text-backto-org.apache.wiki.parser.VariableContent" style="stroke:#A80036;stroke-width:1.0;"/><polygon fill="none" points="89.0001,65.1728,96,45.1728,103.0001,65.1728,89.0001,65.1728" style="stroke:#A80036;stroke-width:1.0;"/><text fill="#888888" font-family="sans-serif" font-size="10" lengthAdjust="spacing" textLength="186" x="0" y="211.6338">UMLDoclet 2.0.14, PlantUML 1.2021.9</text><!--MD5=[3cef60d70629fa067533c8fdcf890082]
@startuml
    set namespaceSeparator none
    hide empty fields
    hide empty methods

    class "<size:14>VariableContent\n<size:10>org.apache.wiki.parser" as org.apache.wiki.parser.VariableContent [[VariableContent.html]] {
        +VariableContent(String)
        +getValue(): String
        +getText(): String
    }

    class "<size:14>Text\n<size:10>org.jdom2" as org.jdom2.Text

    org.jdom2.Text <|- - org.apache.wiki.parser.VariableContent

    center footer UMLDoclet 2.0.14, PlantUML 1.2021.9
@enduml

PlantUML version 1.2021.9(Sun Jul 25 10:13:56 UTC 2021)
(APACHE source distribution)
Java Runtime: Java(TM) SE Runtime Environment
JVM: Java HotSpot(TM) 64-Bit Server VM
Default Encoding: ISO-8859-1
Language: en
Country: US
--></g></svg>