<?xml version="1.0" encoding="UTF-8" standalone="no"?><svg xmlns="http://www.w3.org/2000/svg" xmlns:xlink="http://www.w3.org/1999/xlink" contentScriptType="application/ecmascript" contentStyleType="text/css" height="585px" preserveAspectRatio="none" style="width:1202px;height:585px;background:#FFFFFF;" version="1.1" viewBox="0 0 1202 585" width="1202px" zoomAndPan="magnify"><defs><filter height="300%" id="f12j58dt040xhw" width="300%" x="-1" y="-1"><feGaussianBlur result="blurOut" stdDeviation="2.0"/><feColorMatrix in="blurOut" result="blurOut2" type="matrix" values="0 0 0 0 0 0 0 0 0 0 0 0 0 0 0 0 0 0 .4 0"/><feOffset dx="4.0" dy="4.0" in="blurOut2" result="blurOut3"/><feBlend in="SourceGraphic" in2="blurOut3" mode="normal"/></filter></defs><g><!--MD5=[ab4e46ae90e42f945278af21c606574a]
cluster org.apache.wiki.pages.haddock--><polygon fill="#FFFFFF" filter="url(#f12j58dt040xhw)" points="16,204,272,204,279,226.2969,1185,226.2969,1185,562,16,562,16,204" style="stroke:#000000;stroke-width:1.5;"/><line style="stroke:#000000;stroke-width:1.5;" x1="16" x2="279" y1="226.2969" y2="226.2969"/><text fill="#000000" font-family="sans-serif" font-size="14" font-weight="bold" lengthAdjust="spacing" textLength="250" x="20" y="218.9951">org.apache.wiki.pages.haddock</text><!--MD5=[954f6ac704b42248268a3b144aae5ef0]
cluster org.apache.wiki.pages--><polygon fill="#FFFFFF" filter="url(#f12j58dt040xhw)" points="503,6,687,6,694,28.2969,703,28.2969,703,179,503,179,503,6" style="stroke:#000000;stroke-width:1.5;"/><line style="stroke:#000000;stroke-width:1.5;" x1="503" x2="694" y1="28.2969" y2="28.2969"/><text fill="#000000" font-family="sans-serif" font-size="14" font-weight="bold" lengthAdjust="spacing" textLength="178" x="507" y="20.9951">org.apache.wiki.pages</text><!--MD5=[51fa92a3ff110d57e5424501b00811c5]
class org.apache.wiki.pages.haddock.HaddockPage--><a href="HaddockPage.html" target="_top" title="HaddockPage.html" xlink:actuate="onRequest" xlink:href="HaddockPage.html" xlink:show="new" xlink:title="HaddockPage.html" xlink:type="simple"><rect codeLine="3" fill="#FEFECE" filter="url(#f12j58dt040xhw)" height="73.6094" id="org.apache.wiki.pages.haddock.HaddockPage" style="stroke:#A80036;stroke-width:1.5;" width="169" x="518.5" y="231"/><ellipse cx="556.45" cy="247" fill="#B4A7E5" rx="11" ry="11" style="stroke:#A80036;stroke-width:1.0;"/><path d="M552.3719,242.7656 L552.3719,240.6094 L559.7625,240.6094 L559.7625,242.7656 L557.2938,242.7656 L557.2938,250.8438 L559.7625,250.8438 L559.7625,253 L552.3719,253 L552.3719,250.8438 L554.8406,250.8438 L554.8406,242.7656 L552.3719,242.7656 Z " fill="#000000"/><text fill="#000000" font-family="sans-serif" font-size="12" font-style="italic" lengthAdjust="spacing" textLength="86" x="575.55" y="251.1543">HaddockPage</text><line style="stroke:#A80036;stroke-width:1.5;" x1="519.5" x2="686.5" y1="263" y2="263"/><line style="stroke:#A80036;stroke-width:1.5;" x1="519.5" x2="686.5" y1="271" y2="271"/><ellipse cx="529.5" cy="282" fill="#84BE84" rx="3" ry="3" style="stroke:#038048;stroke-width:1.0;"/><text fill="#000000" font-family="sans-serif" font-size="11" lengthAdjust="spacing" textLength="95" x="538.5" y="285.2104">wikiTitle(): String</text><ellipse cx="529.5" cy="294.8047" fill="#84BE84" rx="3" ry="3" style="stroke:#038048;stroke-width:1.0;"/><text fill="#000000" font-family="sans-serif" font-size="11" lengthAdjust="spacing" textLength="143" x="538.5" y="298.0151">wikiPageContent(): String</text></a><!--MD5=[794d9b721f214d610582c64d7ce310de]
class org.apache.wiki.pages.haddock.SearchResultsPage--><a href="SearchResultsPage.html" target="_top" title="SearchResultsPage.html" xlink:actuate="onRequest" xlink:href="SearchResultsPage.html" xlink:show="new" xlink:title="SearchResultsPage.html" xlink:type="simple"><rect codeLine="8" fill="#FEFECE" filter="url(#f12j58dt040xhw)" height="99.2188" id="org.apache.wiki.pages.haddock.SearchResultsPage" style="stroke:#A80036;stroke-width:1.5;" width="279" x="24.5" y="410"/><ellipse cx="98.75" cy="426" fill="#ADD1B2" rx="11" ry="11" style="stroke:#A80036;stroke-width:1.0;"/><path d="M101.7188,431.6406 Q101.1406,431.9375 100.5,432.0781 Q99.8594,432.2344 99.1563,432.2344 Q96.6563,432.2344 95.3281,430.5938 Q94.0156,428.9375 94.0156,425.8125 Q94.0156,422.6875 95.3281,421.0313 Q96.6563,419.375 99.1563,419.375 Q99.8594,419.375 100.5,419.5313 Q101.1563,419.6875 101.7188,419.9844 L101.7188,422.7031 Q101.0938,422.125 100.5,421.8594 Q99.9063,421.5781 99.2813,421.5781 Q97.9375,421.5781 97.25,422.6563 Q96.5625,423.7188 96.5625,425.8125 Q96.5625,427.9063 97.25,428.9844 Q97.9375,430.0469 99.2813,430.0469 Q99.9063,430.0469 100.5,429.7813 Q101.0938,429.5 101.7188,428.9219 L101.7188,431.6406 Z " fill="#000000"/><text fill="#000000" font-family="sans-serif" font-size="12" lengthAdjust="spacing" textLength="122" x="119.25" y="430.1543">SearchResultsPage</text><line style="stroke:#A80036;stroke-width:1.5;" x1="25.5" x2="302.5" y1="442" y2="442"/><line style="stroke:#A80036;stroke-width:1.5;" x1="25.5" x2="302.5" y1="450" y2="450"/><ellipse cx="35.5" cy="461" fill="#84BE84" rx="3" ry="3" style="stroke:#038048;stroke-width:1.0;"/><text fill="#000000" font-family="sans-serif" font-size="11" lengthAdjust="spacing" text-decoration="underline" textLength="188" x="44.5" y="464.2104">open(String): SearchResultsPage</text><ellipse cx="35.5" cy="473.8047" fill="#84BE84" rx="3" ry="3" style="stroke:#038048;stroke-width:1.0;"/><text fill="#000000" font-family="sans-serif" font-size="11" lengthAdjust="spacing" textLength="157" x="44.5" y="477.0151">pagesFound(): List&lt;String&gt;</text><ellipse cx="35.5" cy="486.6094" fill="#84BE84" rx="3" ry="3" style="stroke:#038048;stroke-width:1.0;"/><text fill="#000000" font-family="sans-serif" font-size="11" lengthAdjust="spacing" textLength="253" x="44.5" y="489.8198">shouldContain(String...): SearchResultsPage</text><ellipse cx="35.5" cy="499.4141" fill="#84BE84" rx="3" ry="3" style="stroke:#038048;stroke-width:1.0;"/><text fill="#000000" font-family="sans-serif" font-size="11" lengthAdjust="spacing" textLength="187" x="44.5" y="502.6245">navigateTo(String): ViewWikiPage</text></a><!--MD5=[41e30840bbd613a8eda7650bb8abf4d5]
class org.apache.wiki.pages.haddock.EditWikiPage--><a href="EditWikiPage.html" target="_top" title="EditWikiPage.html" xlink:actuate="onRequest" xlink:href="EditWikiPage.html" xlink:show="new" xlink:title="EditWikiPage.html" xlink:type="simple"><rect codeLine="15" fill="#FEFECE" filter="url(#f12j58dt040xhw)" height="99.2188" id="org.apache.wiki.pages.haddock.EditWikiPage" style="stroke:#A80036;stroke-width:1.5;" width="244" x="339" y="410"/><ellipse cx="416.75" cy="426" fill="#ADD1B2" rx="11" ry="11" style="stroke:#A80036;stroke-width:1.0;"/><path d="M419.7188,431.6406 Q419.1406,431.9375 418.5,432.0781 Q417.8594,432.2344 417.1563,432.2344 Q414.6563,432.2344 413.3281,430.5938 Q412.0156,428.9375 412.0156,425.8125 Q412.0156,422.6875 413.3281,421.0313 Q414.6563,419.375 417.1563,419.375 Q417.8594,419.375 418.5,419.5313 Q419.1563,419.6875 419.7188,419.9844 L419.7188,422.7031 Q419.0938,422.125 418.5,421.8594 Q417.9063,421.5781 417.2813,421.5781 Q415.9375,421.5781 415.25,422.6563 Q414.5625,423.7188 414.5625,425.8125 Q414.5625,427.9063 415.25,428.9844 Q415.9375,430.0469 417.2813,430.0469 Q417.9063,430.0469 418.5,429.7813 Q419.0938,429.5 419.7188,428.9219 L419.7188,431.6406 Z " fill="#000000"/><text fill="#000000" font-family="sans-serif" font-size="12" lengthAdjust="spacing" textLength="80" x="437.25" y="430.1543">EditWikiPage</text><line style="stroke:#A80036;stroke-width:1.5;" x1="340" x2="582" y1="442" y2="442"/><line style="stroke:#A80036;stroke-width:1.5;" x1="340" x2="582" y1="450" y2="450"/><ellipse cx="350" cy="461" fill="#84BE84" rx="3" ry="3" style="stroke:#038048;stroke-width:1.0;"/><text fill="#000000" font-family="sans-serif" font-size="11" lengthAdjust="spacing" text-decoration="underline" textLength="148" x="359" y="464.2104">open(String): EditWikiPage</text><ellipse cx="350" cy="473.8047" fill="#84BE84" rx="3" ry="3" style="stroke:#038048;stroke-width:1.0;"/><text fill="#000000" font-family="sans-serif" font-size="11" lengthAdjust="spacing" textLength="127" x="359" y="477.0151">cancel(): ViewWikiPage</text><ellipse cx="350" cy="486.6094" fill="#84BE84" rx="3" ry="3" style="stroke:#038048;stroke-width:1.0;"/><text fill="#000000" font-family="sans-serif" font-size="11" lengthAdjust="spacing" textLength="176" x="359" y="489.8198">saveText(String): ViewWikiPage</text><ellipse cx="350" cy="499.4141" fill="#84BE84" rx="3" ry="3" style="stroke:#038048;stroke-width:1.0;"/><text fill="#000000" font-family="sans-serif" font-size="11" lengthAdjust="spacing" textLength="218" x="359" y="502.6245">saveText(String, String): ViewWikiPage</text></a><!--MD5=[6918ca30fdf956c5b090e8366d1b7f58]
class org.apache.wiki.pages.haddock.ViewWikiPage--><a href="ViewWikiPage.html" target="_top" title="ViewWikiPage.html" xlink:actuate="onRequest" xlink:href="ViewWikiPage.html" xlink:show="new" xlink:title="ViewWikiPage.html" xlink:type="simple"><rect codeLine="22" fill="#FEFECE" filter="url(#f12j58dt040xhw)" height="188.8516" id="org.apache.wiki.pages.haddock.ViewWikiPage" style="stroke:#A80036;stroke-width:1.5;" width="254" x="618" y="365"/><ellipse cx="698.75" cy="381" fill="#ADD1B2" rx="11" ry="11" style="stroke:#A80036;stroke-width:1.0;"/><path d="M701.7188,386.6406 Q701.1406,386.9375 700.5,387.0781 Q699.8594,387.2344 699.1563,387.2344 Q696.6563,387.2344 695.3281,385.5938 Q694.0156,383.9375 694.0156,380.8125 Q694.0156,377.6875 695.3281,376.0313 Q696.6563,374.375 699.1563,374.375 Q699.8594,374.375 700.5,374.5313 Q701.1563,374.6875 701.7188,374.9844 L701.7188,377.7031 Q701.0938,377.125 700.5,376.8594 Q699.9063,376.5781 699.2813,376.5781 Q697.9375,376.5781 697.25,377.6563 Q696.5625,378.7188 696.5625,380.8125 Q696.5625,382.9063 697.25,383.9844 Q697.9375,385.0469 699.2813,385.0469 Q699.9063,385.0469 700.5,384.7813 Q701.0938,384.5 701.7188,383.9219 L701.7188,386.6406 Z " fill="#000000"/><text fill="#000000" font-family="sans-serif" font-size="12" lengthAdjust="spacing" textLength="84" x="719.25" y="385.1543">ViewWikiPage</text><line style="stroke:#A80036;stroke-width:1.5;" x1="619" x2="871" y1="397" y2="397"/><line style="stroke:#A80036;stroke-width:1.5;" x1="619" x2="871" y1="405" y2="405"/><ellipse cx="629" cy="416" fill="#84BE84" rx="3" ry="3" style="stroke:#038048;stroke-width:1.0;"/><text fill="#000000" font-family="sans-serif" font-size="11" lengthAdjust="spacing" text-decoration="underline" textLength="153" x="638" y="419.2104">open(String): ViewWikiPage</text><ellipse cx="629" cy="428.8047" fill="#84BE84" rx="3" ry="3" style="stroke:#038048;stroke-width:1.0;"/><text fill="#000000" font-family="sans-serif" font-size="11" lengthAdjust="spacing" textLength="151" x="638" y="432.0151">authenticatedText(): String</text><ellipse cx="629" cy="441.6094" fill="#84BE84" rx="3" ry="3" style="stroke:#038048;stroke-width:1.0;"/><text fill="#000000" font-family="sans-serif" font-size="11" lengthAdjust="spacing" textLength="144" x="638" y="444.8198">clickOnLogin(): LoginPage</text><ellipse cx="629" cy="454.4141" fill="#84BE84" rx="3" ry="3" style="stroke:#038048;stroke-width:1.0;"/><text fill="#000000" font-family="sans-serif" font-size="11" lengthAdjust="spacing" textLength="228" x="638" y="457.6245">clickOnShowReaderView(): ViewWikiPage</text><ellipse cx="629" cy="467.2188" fill="#84BE84" rx="3" ry="3" style="stroke:#038048;stroke-width:1.0;"/><text fill="#000000" font-family="sans-serif" font-size="11" lengthAdjust="spacing" textLength="179" x="638" y="470.4292">hoverLoginArea(): ViewWikiPage</text><ellipse cx="629" cy="480.0234" fill="#84BE84" rx="3" ry="3" style="stroke:#038048;stroke-width:1.0;"/><text fill="#000000" font-family="sans-serif" font-size="11" lengthAdjust="spacing" textLength="177" x="638" y="483.2339">hoverMoreArea(): ViewWikiPage</text><ellipse cx="629" cy="492.8281" fill="#84BE84" rx="3" ry="3" style="stroke:#038048;stroke-width:1.0;"/><text fill="#000000" font-family="sans-serif" font-size="11" lengthAdjust="spacing" textLength="135" x="638" y="496.0386">editPage(): EditWikiPage</text><ellipse cx="629" cy="505.6328" fill="#84BE84" rx="3" ry="3" style="stroke:#038048;stroke-width:1.0;"/><text fill="#000000" font-family="sans-serif" font-size="11" lengthAdjust="spacing" textLength="217" x="638" y="508.8433">searchFor(String): SearchResultsPage</text><ellipse cx="629" cy="518.4375" fill="#84BE84" rx="3" ry="3" style="stroke:#038048;stroke-width:1.0;"/><text fill="#000000" font-family="sans-serif" font-size="11" lengthAdjust="spacing" textLength="169" x="638" y="521.6479">clickOnLogout(): ViewWikiPage</text><ellipse cx="629" cy="531.2422" fill="#84BE84" rx="3" ry="3" style="stroke:#038048;stroke-width:1.0;"/><text fill="#000000" font-family="sans-serif" font-size="11" lengthAdjust="spacing" textLength="187" x="638" y="534.4526">navigateTo(String): ViewWikiPage</text><ellipse cx="629" cy="544.0469" fill="#84BE84" rx="3" ry="3" style="stroke:#038048;stroke-width:1.0;"/><text fill="#000000" font-family="sans-serif" font-size="11" lengthAdjust="spacing" textLength="154" x="638" y="547.2573">sidebar(): SelenideElement</text></a><!--MD5=[c6257123337d91e7e698d8b5305329e8]
class org.apache.wiki.pages.haddock.LoginPage--><a href="LoginPage.html" target="_top" title="LoginPage.html" xlink:actuate="onRequest" xlink:href="LoginPage.html" xlink:show="new" xlink:title="LoginPage.html" xlink:type="simple"><rect codeLine="36" fill="#FEFECE" filter="url(#f12j58dt040xhw)" height="73.6094" id="org.apache.wiki.pages.haddock.LoginPage" style="stroke:#A80036;stroke-width:1.5;" width="269" x="907.5" y="422.5"/><ellipse cx="1005.25" cy="438.5" fill="#ADD1B2" rx="11" ry="11" style="stroke:#A80036;stroke-width:1.0;"/><path d="M1008.2188,444.1406 Q1007.6406,444.4375 1007,444.5781 Q1006.3594,444.7344 1005.6563,444.7344 Q1003.1563,444.7344 1001.8281,443.0938 Q1000.5156,441.4375 1000.5156,438.3125 Q1000.5156,435.1875 1001.8281,433.5313 Q1003.1563,431.875 1005.6563,431.875 Q1006.3594,431.875 1007,432.0313 Q1007.6563,432.1875 1008.2188,432.4844 L1008.2188,435.2031 Q1007.5938,434.625 1007,434.3594 Q1006.4063,434.0781 1005.7813,434.0781 Q1004.4375,434.0781 1003.75,435.1563 Q1003.0625,436.2188 1003.0625,438.3125 Q1003.0625,440.4063 1003.75,441.4844 Q1004.4375,442.5469 1005.7813,442.5469 Q1006.4063,442.5469 1007,442.2813 Q1007.5938,442 1008.2188,441.4219 L1008.2188,444.1406 Z " fill="#000000"/><text fill="#000000" font-family="sans-serif" font-size="12" lengthAdjust="spacing" textLength="65" x="1025.75" y="442.6543">LoginPage</text><line style="stroke:#A80036;stroke-width:1.5;" x1="908.5" x2="1175.5" y1="454.5" y2="454.5"/><line style="stroke:#A80036;stroke-width:1.5;" x1="908.5" x2="1175.5" y1="462.5" y2="462.5"/><ellipse cx="918.5" cy="473.5" fill="#84BE84" rx="3" ry="3" style="stroke:#038048;stroke-width:1.0;"/><text fill="#000000" font-family="sans-serif" font-size="11" lengthAdjust="spacing" textLength="167" x="927.5" y="476.7104">performLogin(): ViewWikiPage</text><ellipse cx="918.5" cy="486.3047" fill="#84BE84" rx="3" ry="3" style="stroke:#038048;stroke-width:1.0;"/><text fill="#000000" font-family="sans-serif" font-size="11" lengthAdjust="spacing" textLength="243" x="927.5" y="489.5151">performLogin(String, String): ViewWikiPage</text></a><!--MD5=[e6b9d11e12a2386dcaf6b730b8ea57a3]
class org.apache.wiki.pages.Page--><a href="../Page.html" target="_top" title="../Page.html" xlink:actuate="onRequest" xlink:href="../Page.html" xlink:show="new" xlink:title="../Page.html" xlink:type="simple"><rect codeLine="49" fill="#FEFECE" filter="url(#f12j58dt040xhw)" height="137.6328" id="org.apache.wiki.pages.Page" style="stroke:#A80036;stroke-width:1.5;" width="183" x="511.5" y="33"/><ellipse cx="583.25" cy="49" fill="#B4A7E5" rx="11" ry="11" style="stroke:#A80036;stroke-width:1.0;"/><path d="M579.1719,44.7656 L579.1719,42.6094 L586.5625,42.6094 L586.5625,44.7656 L584.0938,44.7656 L584.0938,52.8438 L586.5625,52.8438 L586.5625,55 L579.1719,55 L579.1719,52.8438 L581.6406,52.8438 L581.6406,44.7656 L579.1719,44.7656 Z " fill="#000000"/><text fill="#000000" font-family="sans-serif" font-size="12" font-style="italic" lengthAdjust="spacing" textLength="31" x="603.75" y="53.1543">Page</text><line style="stroke:#A80036;stroke-width:1.5;" x1="512.5" x2="693.5" y1="65" y2="65"/><line style="stroke:#A80036;stroke-width:1.5;" x1="512.5" x2="693.5" y1="73" y2="73"/><ellipse cx="522.5" cy="84" fill="#84BE84" rx="3" ry="3" style="stroke:#038048;stroke-width:1.0;"/><text fill="#000000" font-family="sans-serif" font-size="11" lengthAdjust="spacing" text-decoration="underline" textLength="157" x="531.5" y="87.2104">withUrl(String): PageBuilder</text><ellipse cx="522.5" cy="96.8047" fill="#84BE84" rx="3" ry="3" style="stroke:#038048;stroke-width:1.0;"/><text fill="#000000" font-family="sans-serif" font-size="11" lengthAdjust="spacing" text-decoration="underline" textLength="94" x="531.5" y="100.0151">baseUrl(): String</text><ellipse cx="522.5" cy="109.6094" fill="#84BE84" rx="3" ry="3" style="stroke:#038048;stroke-width:1.0;"/><text fill="#000000" font-family="sans-serif" font-size="11" lengthAdjust="spacing" text-decoration="underline" textLength="123" x="531.5" y="112.8198">download(String): File</text><ellipse cx="522.5" cy="122.4141" fill="#84BE84" rx="3" ry="3" style="stroke:#038048;stroke-width:1.0;"/><text fill="#000000" font-family="sans-serif" font-size="11" lengthAdjust="spacing" textLength="71" x="531.5" y="125.6245">title(): String</text><ellipse cx="522.5" cy="135.2188" fill="#84BE84" rx="3" ry="3" style="stroke:#038048;stroke-width:1.0;"/><text fill="#000000" font-family="sans-serif" font-size="11" lengthAdjust="spacing" textLength="65" x="531.5" y="138.4292">url(): String</text><ellipse cx="522.5" cy="148.0234" fill="#84BE84" rx="3" ry="3" style="stroke:#038048;stroke-width:1.0;"/><text fill="#000000" font-family="sans-serif" font-size="11" font-style="italic" lengthAdjust="spacing" textLength="94" x="531.5" y="151.2339">wikiTitle(): String</text><ellipse cx="522.5" cy="160.8281" fill="#84BE84" rx="3" ry="3" style="stroke:#038048;stroke-width:1.0;"/><text fill="#000000" font-family="sans-serif" font-size="11" font-style="italic" lengthAdjust="spacing" textLength="142" x="531.5" y="164.0386">wikiPageContent(): String</text></a><!--MD5=[eadd6c3753b07f47c2f03fa9acd64816]
reverse link org.apache.wiki.pages.Page to org.apache.wiki.pages.haddock.HaddockPage--><path codeLine="41" d="M603,191.7347 C603,205.5894 603,219.1922 603,230.9852 " fill="none" id="org.apache.wiki.pages.Page-backto-org.apache.wiki.pages.haddock.HaddockPage" style="stroke:#A80036;stroke-width:1.0;"/><polygon fill="none" points="596.0001,191.4371,603,171.4371,610.0001,191.4371,596.0001,191.4371" style="stroke:#A80036;stroke-width:1.0;"/><!--MD5=[49fc634f611741c6cc98691ff604cb84]
reverse link org.apache.wiki.pages.haddock.HaddockPage to org.apache.wiki.pages.haddock.SearchResultsPage--><path codeLine="42" d="M498.976,298.2458 C445.1069,315.3147 378.8801,338.5198 322,365 C294.3276,377.8827 265.3135,394.3047 239.8098,409.8326 " fill="none" id="org.apache.wiki.pages.haddock.HaddockPage-backto-org.apache.wiki.pages.haddock.SearchResultsPage" style="stroke:#A80036;stroke-width:1.0;stroke-dasharray:7.0,7.0;"/><polygon fill="none" points="497.0459,291.5152,518.2232,292.2402,501.2161,304.8798,497.0459,291.5152" style="stroke:#A80036;stroke-width:1.0;"/><!--MD5=[3cfe57979b4f3097f41fca5880da929f]
reverse link org.apache.wiki.pages.haddock.HaddockPage to org.apache.wiki.pages.haddock.EditWikiPage--><path codeLine="43" d="M563.1592,321.7289 C542.6583,349.3764 517.8336,382.8547 497.7893,409.8863 " fill="none" id="org.apache.wiki.pages.haddock.HaddockPage-backto-org.apache.wiki.pages.haddock.EditWikiPage" style="stroke:#A80036;stroke-width:1.0;stroke-dasharray:7.0,7.0;"/><polygon fill="none" points="557.7484,317.2735,575.2839,305.3777,568.9941,325.6124,557.7484,317.2735" style="stroke:#A80036;stroke-width:1.0;"/><!--MD5=[86d7adb97df1cbde6ac9109c3333d74c]
reverse link org.apache.wiki.pages.haddock.HaddockPage to org.apache.wiki.pages.haddock.ViewWikiPage--><path codeLine="44" d="M642.7095,321.5519 C652.6743,334.9904 663.6671,349.8151 674.6395,364.6124 " fill="none" id="org.apache.wiki.pages.haddock.HaddockPage-backto-org.apache.wiki.pages.haddock.ViewWikiPage" style="stroke:#A80036;stroke-width:1.0;stroke-dasharray:7.0,7.0;"/><polygon fill="none" points="637.0059,325.6124,630.7161,305.3777,648.2516,317.2735,637.0059,325.6124" style="stroke:#A80036;stroke-width:1.0;"/><!--MD5=[69fa6963d335ab919d5e415dcd915065]
reverse link org.apache.wiki.pages.haddock.HaddockPage to org.apache.wiki.pages.haddock.LoginPage--><path codeLine="45" d="M706.9949,296.8124 C762.5155,313.7584 831.3096,337.2924 890,365 C924.4215,381.2503 960.7051,403.5869 989.1869,422.4641 " fill="none" id="org.apache.wiki.pages.haddock.HaddockPage-backto-org.apache.wiki.pages.haddock.LoginPage" style="stroke:#A80036;stroke-width:1.0;stroke-dasharray:7.0,7.0;"/><polygon fill="none" points="704.712,303.4359,687.5666,290.9845,708.7346,290.0262,704.712,303.4359" style="stroke:#A80036;stroke-width:1.0;"/><text fill="#888888" font-family="sans-serif" font-size="10" lengthAdjust="spacing" textLength="192" x="498.5" y="577.2822">UMLDoclet 2.0.15, PlantUML 1.2021.13</text><!--MD5=[5cce857e428410aecef9c26a041452a4]
@startuml
    namespace org.apache.wiki.pages.haddock {

        interface HaddockPage [[HaddockPage.html]] {
            +wikiTitle(): String
            +wikiPageContent(): String
        }

        class SearchResultsPage [[SearchResultsPage.html]] {
            {static} +open(String): SearchResultsPage
            +pagesFound(): List<String>
            +shouldContain(String...): SearchResultsPage
            +navigateTo(String): ViewWikiPage
        }

        class EditWikiPage [[EditWikiPage.html]] {
            {static} +open(String): EditWikiPage
            +cancel(): ViewWikiPage
            +saveText(String): ViewWikiPage
            +saveText(String, String): ViewWikiPage
        }

        class ViewWikiPage [[ViewWikiPage.html]] {
            {static} +open(String): ViewWikiPage
            +authenticatedText(): String
            +clickOnLogin(): LoginPage
            +clickOnShowReaderView(): ViewWikiPage
            +hoverLoginArea(): ViewWikiPage
            +hoverMoreArea(): ViewWikiPage
            +editPage(): EditWikiPage
            +searchFor(String): SearchResultsPage
            +clickOnLogout(): ViewWikiPage
            +navigateTo(String): ViewWikiPage
            +sidebar(): SelenideElement
        }

        class LoginPage [[LoginPage.html]] {
            +performLogin(): ViewWikiPage
            +performLogin(String, String): ViewWikiPage
        }

        org.apache.wiki.pages.Page <|- - HaddockPage
        HaddockPage <|.. SearchResultsPage
        HaddockPage <|.. EditWikiPage
        HaddockPage <|.. ViewWikiPage
        HaddockPage <|.. LoginPage
    }

    namespace org.apache.wiki.pages {
        interface Page [[../Page.html]] {
            {static} +withUrl(String): PageBuilder
            {static} +baseUrl(): String
            {static} +download(String): File
            +title(): String
            +url(): String
            {abstract} +wikiTitle(): String
            {abstract} +wikiPageContent(): String
        }
    }

    center footer UMLDoclet 2.0.15, PlantUML 1.2021.13
@enduml

PlantUML version 1.2021.13(Mon Nov 01 11:38:45 UTC 2021)
(APACHE source distribution)
Java Runtime: Java(TM) SE Runtime Environment
JVM: Java HotSpot(TM) 64-Bit Server VM
Default Encoding: ISO-8859-1
Language: en
Country: US
--></g></svg>