<?xml version="1.0" encoding="UTF-8" standalone="no"?><svg xmlns="http://www.w3.org/2000/svg" xmlns:xlink="http://www.w3.org/1999/xlink" contentScriptType="application/ecmascript" contentStyleType="text/css" height="271px" preserveAspectRatio="none" style="width:710px;height:271px;background:#FFFFFF;" version="1.1" viewBox="0 0 710 271" width="710px" zoomAndPan="magnify"><defs><filter height="300%" id="f1j3fqe2ngrxfy" width="300%" x="-1" y="-1"><feGaussianBlur result="blurOut" stdDeviation="2.0"/><feColorMatrix in="blurOut" result="blurOut2" type="matrix" values="0 0 0 0 0 0 0 0 0 0 0 0 0 0 0 0 0 0 .4 0"/><feOffset dx="4.0" dy="4.0" in="blurOut2" result="blurOut3"/><feBlend in="SourceGraphic" in2="blurOut3" mode="normal"/></filter></defs><g><!--MD5=[52f38bc6e96f690059962166698ac6df]
cluster org.apache.wiki.markdown.renderer--><polygon fill="#FFFFFF" filter="url(#f1j3fqe2ngrxfy)" points="16,127,311,127,318,149.2969,693,149.2969,693,248,16,248,16,127" style="stroke:#000000;stroke-width:1.5;"/><line style="stroke:#000000;stroke-width:1.5;" x1="16" x2="318" y1="149.2969" y2="149.2969"/><text fill="#000000" font-family="sans-serif" font-size="14" font-weight="bold" lengthAdjust="spacing" textLength="289" x="20" y="141.9951">org.apache.wiki.markdown.renderer</text><!--MD5=[42cc0244660440778e2306a052f6938e]
cluster com.vladsch.flexmark.html.renderer--><polygon fill="#FFFFFF" filter="url(#f1j3fqe2ngrxfy)" points="16,6,308,6,315,28.2969,693,28.2969,693,102,16,102,16,6" style="stroke:#000000;stroke-width:1.5;"/><line style="stroke:#000000;stroke-width:1.5;" x1="16" x2="315" y1="28.2969" y2="28.2969"/><text fill="#000000" font-family="sans-serif" font-size="14" font-weight="bold" lengthAdjust="spacing" textLength="286" x="20" y="20.9951">com.vladsch.flexmark.html.renderer</text><!--MD5=[ff26b3f40c441dec855ee9cf7e6d2a8f]
class org.apache.wiki.markdown.renderer.JSPWikiLinkRenderer--><a href="JSPWikiLinkRenderer.html" target="_top" title="JSPWikiLinkRenderer.html" xlink:actuate="onRequest" xlink:href="JSPWikiLinkRenderer.html" xlink:show="new" xlink:title="JSPWikiLinkRenderer.html" xlink:type="simple"><rect codeLine="3" fill="#FEFECE" filter="url(#f1j3fqe2ngrxfy)" height="60.8047" id="org.apache.wiki.markdown.renderer.JSPWikiLinkRenderer" style="stroke:#A80036;stroke-width:1.5;" width="388" x="297" y="166.5"/><ellipse cx="424.25" cy="182.5" fill="#ADD1B2" rx="11" ry="11" style="stroke:#A80036;stroke-width:1.0;"/><path d="M427.2188,188.1406 Q426.6406,188.4375 426,188.5781 Q425.3594,188.7344 424.6563,188.7344 Q422.1563,188.7344 420.8281,187.0938 Q419.5156,185.4375 419.5156,182.3125 Q419.5156,179.1875 420.8281,177.5313 Q422.1563,175.875 424.6563,175.875 Q425.3594,175.875 426,176.0313 Q426.6563,176.1875 427.2188,176.4844 L427.2188,179.2031 Q426.5938,178.625 426,178.3594 Q425.4063,178.0781 424.7813,178.0781 Q423.4375,178.0781 422.75,179.1563 Q422.0625,180.2188 422.0625,182.3125 Q422.0625,184.4063 422.75,185.4844 Q423.4375,186.5469 424.7813,186.5469 Q425.4063,186.5469 426,186.2813 Q426.5938,186 427.2188,185.4219 L427.2188,188.1406 Z " fill="#000000"/><text fill="#000000" font-family="sans-serif" font-size="12" lengthAdjust="spacing" textLength="125" x="444.75" y="186.6543">JSPWikiLinkRenderer</text><line style="stroke:#A80036;stroke-width:1.5;" x1="298" x2="684" y1="198.5" y2="198.5"/><line style="stroke:#A80036;stroke-width:1.5;" x1="298" x2="684" y1="206.5" y2="206.5"/><ellipse cx="308" cy="217.5" fill="#84BE84" rx="3" ry="3" style="stroke:#038048;stroke-width:1.0;"/><text fill="#000000" font-family="sans-serif" font-size="11" lengthAdjust="spacing" textLength="362" x="317" y="220.7104">getNodeRenderingHandlers(): Set&lt;NodeRenderingHandler&lt;?&gt;&gt;</text></a><!--MD5=[f112c0cd869bb24c4e982c904bf90aa4]
class org.apache.wiki.markdown.renderer.JSPWikiNodeRendererFactory--><a href="JSPWikiNodeRendererFactory.html" target="_top" title="JSPWikiNodeRendererFactory.html" xlink:actuate="onRequest" xlink:href="JSPWikiNodeRendererFactory.html" xlink:show="new" xlink:title="JSPWikiNodeRendererFactory.html" xlink:type="simple"><rect codeLine="7" fill="#FEFECE" filter="url(#f1j3fqe2ngrxfy)" height="86.4141" id="org.apache.wiki.markdown.renderer.JSPWikiNodeRendererFactory" style="stroke:#A80036;stroke-width:1.5;" width="238" x="24" y="154"/><ellipse cx="50.7" cy="170" fill="#ADD1B2" rx="11" ry="11" style="stroke:#A80036;stroke-width:1.0;"/><path d="M53.6688,175.6406 Q53.0906,175.9375 52.45,176.0781 Q51.8094,176.2344 51.1063,176.2344 Q48.6063,176.2344 47.2781,174.5938 Q45.9656,172.9375 45.9656,169.8125 Q45.9656,166.6875 47.2781,165.0313 Q48.6063,163.375 51.1063,163.375 Q51.8094,163.375 52.45,163.5313 Q53.1063,163.6875 53.6688,163.9844 L53.6688,166.7031 Q53.0438,166.125 52.45,165.8594 Q51.8563,165.5781 51.2313,165.5781 Q49.8875,165.5781 49.2,166.6563 Q48.5125,167.7188 48.5125,169.8125 Q48.5125,171.9063 49.2,172.9844 Q49.8875,174.0469 51.2313,174.0469 Q51.8563,174.0469 52.45,173.7813 Q53.0438,173.5 53.6688,172.9219 L53.6688,175.6406 Z " fill="#000000"/><text fill="#000000" font-family="sans-serif" font-size="12" lengthAdjust="spacing" textLength="180" x="67.3" y="174.1543">JSPWikiNodeRendererFactory</text><line style="stroke:#A80036;stroke-width:1.5;" x1="25" x2="261" y1="186" y2="186"/><line style="stroke:#A80036;stroke-width:1.5;" x1="25" x2="261" y1="194" y2="194"/><ellipse cx="35" cy="205" fill="#84BE84" rx="3" ry="3" style="stroke:#038048;stroke-width:1.0;"/><text fill="#000000" font-family="sans-serif" font-size="11" lengthAdjust="spacing" textLength="212" x="44" y="208.2104">JSPWikiNodeRendererFactory(Context)</text><ellipse cx="35" cy="217.8047" fill="#84BE84" rx="3" ry="3" style="stroke:#038048;stroke-width:1.0;"/><text fill="#000000" font-family="sans-serif" font-size="11" lengthAdjust="spacing" textLength="190" x="44" y="221.0151">apply(DataHolder): NodeRenderer</text><ellipse cx="35" cy="230.6094" fill="#84BE84" rx="3" ry="3" style="stroke:#038048;stroke-width:1.0;"/><text fill="#000000" font-family="sans-serif" font-size="11" lengthAdjust="spacing" textLength="184" x="44" y="233.8198">getDelegates(): Set&lt;Class&lt;?&gt;&gt;</text></a><!--MD5=[8cd6336943773a98c226716fab62c4b2]
class com.vladsch.flexmark.html.renderer.NodeRenderer--><rect codeLine="18" fill="#FEFECE" filter="url(#f1j3fqe2ngrxfy)" height="60.8047" id="com.vladsch.flexmark.html.renderer.NodeRenderer" style="stroke:#A80036;stroke-width:1.5;" width="388" x="297" y="33"/><ellipse cx="441.25" cy="49" fill="#B4A7E5" rx="11" ry="11" style="stroke:#A80036;stroke-width:1.0;"/><path d="M437.1719,44.7656 L437.1719,42.6094 L444.5625,42.6094 L444.5625,44.7656 L442.0938,44.7656 L442.0938,52.8438 L444.5625,52.8438 L444.5625,55 L437.1719,55 L437.1719,52.8438 L439.6406,52.8438 L439.6406,44.7656 L437.1719,44.7656 Z " fill="#000000"/><text fill="#000000" font-family="sans-serif" font-size="12" font-style="italic" lengthAdjust="spacing" textLength="91" x="461.75" y="53.1543">NodeRenderer</text><line style="stroke:#A80036;stroke-width:1.5;" x1="298" x2="684" y1="65" y2="65"/><line style="stroke:#A80036;stroke-width:1.5;" x1="298" x2="684" y1="73" y2="73"/><ellipse cx="308" cy="84" fill="#84BE84" rx="3" ry="3" style="stroke:#038048;stroke-width:1.0;"/><text fill="#000000" font-family="sans-serif" font-size="11" font-style="italic" lengthAdjust="spacing" textLength="362" x="317" y="87.2104">getNodeRenderingHandlers(): Set&lt;NodeRenderingHandler&lt;?&gt;&gt;</text><!--MD5=[4e00c90093d4c055e89ecf9ca716b50d]
class com.vladsch.flexmark.html.renderer.DelegatingNodeRendererFactory--><rect codeLine="21" fill="#FEFECE" filter="url(#f1j3fqe2ngrxfy)" height="60.8047" id="com.vladsch.flexmark.html.renderer.DelegatingNodeRendererFactory" style="stroke:#A80036;stroke-width:1.5;" width="238" x="24" y="33"/><ellipse cx="39" cy="49" fill="#B4A7E5" rx="11" ry="11" style="stroke:#A80036;stroke-width:1.0;"/><path d="M34.9219,44.7656 L34.9219,42.6094 L42.3125,42.6094 L42.3125,44.7656 L39.8438,44.7656 L39.8438,52.8438 L42.3125,52.8438 L42.3125,55 L34.9219,55 L34.9219,52.8438 L37.3906,52.8438 L37.3906,44.7656 L34.9219,44.7656 Z " fill="#000000"/><text fill="#000000" font-family="sans-serif" font-size="12" font-style="italic" lengthAdjust="spacing" textLength="206" x="53" y="53.1543">DelegatingNodeRendererFactory</text><line style="stroke:#A80036;stroke-width:1.5;" x1="25" x2="261" y1="65" y2="65"/><line style="stroke:#A80036;stroke-width:1.5;" x1="25" x2="261" y1="73" y2="73"/><ellipse cx="35" cy="84" fill="#84BE84" rx="3" ry="3" style="stroke:#038048;stroke-width:1.0;"/><text fill="#000000" font-family="sans-serif" font-size="11" font-style="italic" lengthAdjust="spacing" textLength="180" x="44" y="87.2104">getDelegates(): Set&lt;Class&lt;?&gt;&gt;</text><!--MD5=[1cbfc9c4a74f847993c4b08a699904dc]
reverse link com.vladsch.flexmark.html.renderer.NodeRenderer to org.apache.wiki.markdown.renderer.JSPWikiLinkRenderer--><path codeLine="13" d="M491,114.2762 C491,131.7056 491,150.6786 491,166.0526 " fill="none" id="com.vladsch.flexmark.html.renderer.NodeRenderer-backto-org.apache.wiki.markdown.renderer.JSPWikiLinkRenderer" style="stroke:#A80036;stroke-width:1.0;stroke-dasharray:7.0,7.0;"/><polygon fill="none" points="484.0001,114.1276,491,94.1276,498.0001,114.1276,484.0001,114.1276" style="stroke:#A80036;stroke-width:1.0;"/><!--MD5=[e5905f6b45b43ed64153bd892e314954]
reverse link com.vladsch.flexmark.html.renderer.DelegatingNodeRendererFactory to org.apache.wiki.markdown.renderer.JSPWikiNodeRendererFactory--><path codeLine="14" d="M143,114.2557 C143,127.3131 143,141.2382 143,153.8681 " fill="none" id="com.vladsch.flexmark.html.renderer.DelegatingNodeRendererFactory-backto-org.apache.wiki.markdown.renderer.JSPWikiNodeRendererFactory" style="stroke:#A80036;stroke-width:1.0;stroke-dasharray:7.0,7.0;"/><polygon fill="none" points="136.0001,114.1276,143,94.1276,150.0001,114.1276,136.0001,114.1276" style="stroke:#A80036;stroke-width:1.0;"/><text fill="#888888" font-family="sans-serif" font-size="10" lengthAdjust="spacing" textLength="186" x="255.5" y="263.2822">UMLDoclet 2.0.14, PlantUML 1.2021.9</text><!--MD5=[d18003add65989c59e19eb41bb1d3d67]
@startuml
    namespace org.apache.wiki.markdown.renderer {

        class JSPWikiLinkRenderer [[JSPWikiLinkRenderer.html]] {
            +getNodeRenderingHandlers(): Set<NodeRenderingHandler<?>>
        }

        class JSPWikiNodeRendererFactory [[JSPWikiNodeRendererFactory.html]] {
            +JSPWikiNodeRendererFactory(Context)
            +apply(DataHolder): NodeRenderer
            +getDelegates(): Set<Class<?>>
        }

        com.vladsch.flexmark.html.renderer.NodeRenderer <|.. JSPWikiLinkRenderer
        com.vladsch.flexmark.html.renderer.DelegatingNodeRendererFactory <|.. JSPWikiNodeRendererFactory
    }

    namespace com.vladsch.flexmark.html.renderer {
        interface NodeRenderer {
            {abstract} +getNodeRenderingHandlers(): Set<NodeRenderingHandler<?>>
        }
        interface DelegatingNodeRendererFactory {
            {abstract} +getDelegates(): Set<Class<?>>
        }
    }

    center footer UMLDoclet 2.0.14, PlantUML 1.2021.9
@enduml

PlantUML version 1.2021.9(Sun Jul 25 10:13:56 UTC 2021)
(APACHE source distribution)
Java Runtime: Java(TM) SE Runtime Environment
JVM: Java HotSpot(TM) 64-Bit Server VM
Default Encoding: ISO-8859-1
Language: en
Country: US
--></g></svg>