<?xml version="1.0" encoding="UTF-8" standalone="no"?><svg xmlns="http://www.w3.org/2000/svg" xmlns:xlink="http://www.w3.org/1999/xlink" contentScriptType="application/ecmascript" contentStyleType="text/css" height="178px" preserveAspectRatio="none" style="width:297px;height:178px;" version="1.1" viewBox="0 0 297 178" width="297px" zoomAndPan="magnify"><defs><filter height="300%" id="f21j7q4ncrr57" width="300%" x="-1" y="-1"><feGaussianBlur result="blurOut" stdDeviation="2.0"/><feColorMatrix in="blurOut" result="blurOut2" type="matrix" values="0 0 0 0 0 0 0 0 0 0 0 0 0 0 0 0 0 0 .4 0"/><feOffset dx="4.0" dy="4.0" in="blurOut2" result="blurOut3"/><feBlend in="SourceGraphic" in2="blurOut3" mode="normal"/></filter></defs><g><!--class WikiPageRenameEvent--><a href="WikiPageRenameEvent.html" target="_top" xlink:actuate="onRequest" xlink:show="new" xlink:title="WikiPageRenameEvent.html" xlink:type="simple"><rect fill="#FEFECE" filter="url(#f21j7q4ncrr57)" height="137.6328" id="WikiPageRenameEvent" style="stroke: #A80036; stroke-width: 1.5;" width="280" x="6" y="8"/><ellipse cx="70.75" cy="24" fill="#ADD1B2" rx="11" ry="11" style="stroke: #A80036; stroke-width: 1.0;"/><path d="M73.7188,29.6406 Q73.1406,29.9375 72.5,30.0781 Q71.8594,30.2344 71.1563,30.2344 Q68.6563,30.2344 67.3281,28.5938 Q66.0156,26.9375 66.0156,23.8125 Q66.0156,20.6875 67.3281,19.0313 Q68.6563,17.375 71.1563,17.375 Q71.8594,17.375 72.5,17.5313 Q73.1563,17.6875 73.7188,17.9844 L73.7188,20.7031 Q73.0938,20.125 72.5,19.8594 Q71.9063,19.5781 71.2813,19.5781 Q69.9375,19.5781 69.25,20.6563 Q68.5625,21.7188 68.5625,23.8125 Q68.5625,25.9063 69.25,26.9844 Q69.9375,28.0469 71.2813,28.0469 Q71.9063,28.0469 72.5,27.7813 Q73.0938,27.5 73.7188,26.9219 L73.7188,29.6406 Z "/><text fill="#000000" font-family="sans-serif" font-size="12" lengthAdjust="spacingAndGlyphs" textLength="142" x="91.25" y="28.1543">WikiPageRenameEvent</text><line style="stroke: #A80036; stroke-width: 1.5;" x1="7" x2="285" y1="40" y2="40"/><ellipse cx="17" cy="51.9023" fill="none" rx="3" ry="3" style="stroke: #038048; stroke-width: 1.0;"/><text fill="#000000" font-family="sans-serif" font-size="11" lengthAdjust="spacingAndGlyphs" text-decoration="underline" textLength="111" x="26" y="54.2104">PAGE_RENAMED: int</text><line style="stroke: #A80036; stroke-width: 1.5;" x1="7" x2="285" y1="60.8047" y2="60.8047"/><ellipse cx="17" cy="72.707" fill="#84BE84" rx="3" ry="3" style="stroke: #038048; stroke-width: 1.0;"/><text fill="#000000" font-family="sans-serif" font-size="11" lengthAdjust="spacingAndGlyphs" textLength="254" x="26" y="75.0151">WikiPageRenameEvent(Object, String, String)</text><ellipse cx="17" cy="85.5117" fill="#84BE84" rx="3" ry="3" style="stroke: #038048; stroke-width: 1.0;"/><text fill="#000000" font-family="sans-serif" font-size="11" lengthAdjust="spacingAndGlyphs" textLength="148" x="26" y="87.8198">getOldPageName(): String</text><ellipse cx="17" cy="98.3164" fill="#84BE84" rx="3" ry="3" style="stroke: #038048; stroke-width: 1.0;"/><text fill="#000000" font-family="sans-serif" font-size="11" lengthAdjust="spacingAndGlyphs" textLength="153" x="26" y="100.6245">getNewPageName(): String</text><ellipse cx="17" cy="111.1211" fill="#84BE84" rx="3" ry="3" style="stroke: #038048; stroke-width: 1.0;"/><text fill="#000000" font-family="sans-serif" font-size="11" lengthAdjust="spacingAndGlyphs" text-decoration="underline" textLength="139" x="26" y="113.4292">isValidType(int): boolean</text><ellipse cx="17" cy="123.9258" fill="#84BE84" rx="3" ry="3" style="stroke: #038048; stroke-width: 1.0;"/><text fill="#000000" font-family="sans-serif" font-size="11" lengthAdjust="spacingAndGlyphs" textLength="114" x="26" y="126.2339">eventName(): String</text><ellipse cx="17" cy="136.7305" fill="#84BE84" rx="3" ry="3" style="stroke: #038048; stroke-width: 1.0;"/><text fill="#000000" font-family="sans-serif" font-size="11" lengthAdjust="spacingAndGlyphs" textLength="159" x="26" y="139.0386">getTypeDescription(): String</text></a><text fill="#888888" font-family="sans-serif" font-size="10" lengthAdjust="spacingAndGlyphs" textLength="186" x="59" y="165.2822">UMLDoclet 1.1.4, PlantUML 1.2019.05</text><!--
@startuml

    class WikiPageRenameEvent [[WikiPageRenameEvent.html]] {
        {static} +PAGE_RENAMED: int
        +WikiPageRenameEvent(Object, String, String)
        +getOldPageName(): String
        +getNewPageName(): String
        {static} +isValidType(int): boolean
        +eventName(): String
        +getTypeDescription(): String
    }


    center footer UMLDoclet 1.1.4, PlantUML 1.2019.05
@enduml

PlantUML version 1.2019.05(Sat Apr 20 16:45:36 UTC 2019)
(APACHE source distribution)
Java Runtime: OpenJDK Runtime Environment
JVM: OpenJDK 64-Bit Server VM
Java Version: 1.8.0_252-b09
Operating System: Linux
OS Version: 4.15.0-74-generic
Default Encoding: ISO-8859-1
Language: en
Country: US
--></g></svg>