<?xml version="1.0" encoding="UTF-8" standalone="no"?><svg xmlns="http://www.w3.org/2000/svg" xmlns:xlink="http://www.w3.org/1999/xlink" contentScriptType="application/ecmascript" contentStyleType="text/css" height="254px" preserveAspectRatio="none" style="width:242px;height:254px;" version="1.1" viewBox="0 0 242 254" width="242px" zoomAndPan="magnify"><defs><filter height="300%" id="fopv5akgige4v" width="300%" x="-1" y="-1"><feGaussianBlur result="blurOut" stdDeviation="2.0"/><feColorMatrix in="blurOut" result="blurOut2" type="matrix" values="0 0 0 0 0 0 0 0 0 0 0 0 0 0 0 0 0 0 .4 0"/><feOffset dx="4.0" dy="4.0" in="blurOut2" result="blurOut3"/><feBlend in="SourceGraphic" in2="blurOut3" mode="normal"/></filter></defs><g><!--class WorkflowEvent--><a href="WorkflowEvent.html" target="_top" xlink:actuate="onRequest" xlink:show="new" xlink:title="WorkflowEvent.html" xlink:type="simple"><rect fill="#FEFECE" filter="url(#fopv5akgige4v)" height="214.4609" id="WorkflowEvent" style="stroke: #A80036; stroke-width: 1.5;" width="225" x="6" y="8"/><ellipse cx="69.25" cy="24" fill="#ADD1B2" rx="11" ry="11" style="stroke: #A80036; stroke-width: 1.0;"/><path d="M72.2188,29.6406 Q71.6406,29.9375 71,30.0781 Q70.3594,30.2344 69.6563,30.2344 Q67.1563,30.2344 65.8281,28.5938 Q64.5156,26.9375 64.5156,23.8125 Q64.5156,20.6875 65.8281,19.0313 Q67.1563,17.375 69.6563,17.375 Q70.3594,17.375 71,17.5313 Q71.6563,17.6875 72.2188,17.9844 L72.2188,20.7031 Q71.5938,20.125 71,19.8594 Q70.4063,19.5781 69.7813,19.5781 Q68.4375,19.5781 67.75,20.6563 Q67.0625,21.7188 67.0625,23.8125 Q67.0625,25.9063 67.75,26.9844 Q68.4375,28.0469 69.7813,28.0469 Q70.4063,28.0469 71,27.7813 Q71.5938,27.5 72.2188,26.9219 L72.2188,29.6406 Z "/><text fill="#000000" font-family="sans-serif" font-size="12" lengthAdjust="spacingAndGlyphs" textLength="90" x="89.75" y="28.1543">WorkflowEvent</text><line style="stroke: #A80036; stroke-width: 1.5;" x1="7" x2="230" y1="40" y2="40"/><ellipse cx="17" cy="51.9023" fill="none" rx="3" ry="3" style="stroke: #038048; stroke-width: 1.0;"/><text fill="#000000" font-family="sans-serif" font-size="11" lengthAdjust="spacingAndGlyphs" text-decoration="underline" textLength="73" x="26" y="54.2104">CREATED: int</text><ellipse cx="17" cy="64.707" fill="none" rx="3" ry="3" style="stroke: #038048; stroke-width: 1.0;"/><text fill="#000000" font-family="sans-serif" font-size="11" lengthAdjust="spacingAndGlyphs" text-decoration="underline" textLength="73" x="26" y="67.0151">STARTED: int</text><ellipse cx="17" cy="77.5117" fill="none" rx="3" ry="3" style="stroke: #038048; stroke-width: 1.0;"/><text fill="#000000" font-family="sans-serif" font-size="11" lengthAdjust="spacingAndGlyphs" text-decoration="underline" textLength="73" x="26" y="79.8198">RUNNING: int</text><ellipse cx="17" cy="90.3164" fill="none" rx="3" ry="3" style="stroke: #038048; stroke-width: 1.0;"/><text fill="#000000" font-family="sans-serif" font-size="11" lengthAdjust="spacingAndGlyphs" text-decoration="underline" textLength="68" x="26" y="92.6245">WAITING: int</text><ellipse cx="17" cy="103.1211" fill="none" rx="3" ry="3" style="stroke: #038048; stroke-width: 1.0;"/><text fill="#000000" font-family="sans-serif" font-size="11" lengthAdjust="spacingAndGlyphs" text-decoration="underline" textLength="90" x="26" y="105.4292">COMPLETED: int</text><ellipse cx="17" cy="115.9258" fill="none" rx="3" ry="3" style="stroke: #038048; stroke-width: 1.0;"/><text fill="#000000" font-family="sans-serif" font-size="11" lengthAdjust="spacingAndGlyphs" text-decoration="underline" textLength="75" x="26" y="118.2339">ABORTED: int</text><ellipse cx="17" cy="128.7305" fill="none" rx="3" ry="3" style="stroke: #038048; stroke-width: 1.0;"/><text fill="#000000" font-family="sans-serif" font-size="11" lengthAdjust="spacingAndGlyphs" text-decoration="underline" textLength="98" x="26" y="131.0386">DQ_ADDITION: int</text><ellipse cx="17" cy="141.5352" fill="none" rx="3" ry="3" style="stroke: #038048; stroke-width: 1.0;"/><text fill="#000000" font-family="sans-serif" font-size="11" lengthAdjust="spacingAndGlyphs" text-decoration="underline" textLength="97" x="26" y="143.8433">DQ_REMOVAL: int</text><ellipse cx="17" cy="154.3398" fill="none" rx="3" ry="3" style="stroke: #038048; stroke-width: 1.0;"/><text fill="#000000" font-family="sans-serif" font-size="11" lengthAdjust="spacingAndGlyphs" text-decoration="underline" textLength="86" x="26" y="156.6479">DQ_DECIDE: int</text><ellipse cx="17" cy="167.1445" fill="none" rx="3" ry="3" style="stroke: #038048; stroke-width: 1.0;"/><text fill="#000000" font-family="sans-serif" font-size="11" lengthAdjust="spacingAndGlyphs" text-decoration="underline" textLength="102" x="26" y="169.4526">DQ_REASSIGN: int</text><line style="stroke: #A80036; stroke-width: 1.5;" x1="7" x2="230" y1="176.0469" y2="176.0469"/><ellipse cx="17" cy="187.9492" fill="#84BE84" rx="3" ry="3" style="stroke: #038048; stroke-width: 1.0;"/><text fill="#000000" font-family="sans-serif" font-size="11" lengthAdjust="spacingAndGlyphs" textLength="147" x="26" y="190.2573">WorkflowEvent(Object, int)</text><ellipse cx="17" cy="200.7539" fill="#84BE84" rx="3" ry="3" style="stroke: #038048; stroke-width: 1.0;"/><text fill="#000000" font-family="sans-serif" font-size="11" lengthAdjust="spacingAndGlyphs" textLength="199" x="26" y="203.062">WorkflowEvent(Object, int, Object[])</text><ellipse cx="17" cy="213.5586" fill="#84BE84" rx="3" ry="3" style="stroke: #038048; stroke-width: 1.0;"/><text fill="#000000" font-family="sans-serif" font-size="11" lengthAdjust="spacingAndGlyphs" textLength="128" x="26" y="215.8667">eventName(int): String</text></a><text fill="#888888" font-family="sans-serif" font-size="10" lengthAdjust="spacingAndGlyphs" textLength="186" x="31.5" y="241.2822">UMLDoclet 1.1.4, PlantUML 1.2019.05</text><!--
@startuml

    class WorkflowEvent [[WorkflowEvent.html]] {
        {static} +CREATED: int
        {static} +STARTED: int
        {static} +RUNNING: int
        {static} +WAITING: int
        {static} +COMPLETED: int
        {static} +ABORTED: int
        {static} +DQ_ADDITION: int
        {static} +DQ_REMOVAL: int
        {static} +DQ_DECIDE: int
        {static} +DQ_REASSIGN: int
        +WorkflowEvent(Object, int)
        +WorkflowEvent(Object, int, Object[])
        +eventName(int): String
    }


    center footer UMLDoclet 1.1.4, PlantUML 1.2019.05
@enduml

PlantUML version 1.2019.05(Sat Apr 20 16:45:36 UTC 2019)
(APACHE source distribution)
Java Runtime: OpenJDK Runtime Environment
JVM: OpenJDK 64-Bit Server VM
Java Version: 1.8.0_252-b09
Operating System: Linux
OS Version: 4.15.0-66-generic
Default Encoding: ISO-8859-1
Language: en
Country: US
--></g></svg>