<?xml version="1.0" encoding="UTF-8" standalone="no"?><svg xmlns="http://www.w3.org/2000/svg" xmlns:xlink="http://www.w3.org/1999/xlink" contentScriptType="application/ecmascript" contentStyleType="text/css" height="101px" preserveAspectRatio="none" style="width:198px;height:101px;" version="1.1" viewBox="0 0 198 101" width="198px" zoomAndPan="magnify"><defs><filter height="300%" id="f5mgskas9fm72" width="300%" x="-1" y="-1"><feGaussianBlur result="blurOut" stdDeviation="2.0"/><feColorMatrix in="blurOut" result="blurOut2" type="matrix" values="0 0 0 0 0 0 0 0 0 0 0 0 0 0 0 0 0 0 .4 0"/><feOffset dx="4.0" dy="4.0" in="blurOut2" result="blurOut3"/><feBlend in="SourceGraphic" in2="blurOut3" mode="normal"/></filter></defs><g><!--class PreviousVersionTag--><a href="PreviousVersionTag.html" target="_top" xlink:actuate="onRequest" xlink:show="new" xlink:title="PreviousVersionTag.html" xlink:type="simple"><rect fill="#FEFECE" filter="url(#f5mgskas9fm72)" height="60.8047" id="PreviousVersionTag" style="stroke: #A80036; stroke-width: 1.5;" width="155" x="9.5" y="8"/><ellipse cx="24.5" cy="24" fill="#ADD1B2" rx="11" ry="11" style="stroke: #A80036; stroke-width: 1.0;"/><path d="M27.4688,29.6406 Q26.8906,29.9375 26.25,30.0781 Q25.6094,30.2344 24.9063,30.2344 Q22.4063,30.2344 21.0781,28.5938 Q19.7656,26.9375 19.7656,23.8125 Q19.7656,20.6875 21.0781,19.0313 Q22.4063,17.375 24.9063,17.375 Q25.6094,17.375 26.25,17.5313 Q26.9063,17.6875 27.4688,17.9844 L27.4688,20.7031 Q26.8438,20.125 26.25,19.8594 Q25.6563,19.5781 25.0313,19.5781 Q23.6875,19.5781 23,20.6563 Q22.3125,21.7188 22.3125,23.8125 Q22.3125,25.9063 23,26.9844 Q23.6875,28.0469 25.0313,28.0469 Q25.6563,28.0469 26.25,27.7813 Q26.8438,27.5 27.4688,26.9219 L27.4688,29.6406 Z "/><text fill="#000000" font-family="sans-serif" font-size="12" lengthAdjust="spacingAndGlyphs" textLength="123" x="38.5" y="28.1543">PreviousVersionTag</text><line style="stroke: #A80036; stroke-width: 1.5;" x1="10.5" x2="163.5" y1="40" y2="40"/><line style="stroke: #A80036; stroke-width: 1.5;" x1="10.5" x2="163.5" y1="48" y2="48"/><ellipse cx="20.5" cy="59.9023" fill="#84BE84" rx="3" ry="3" style="stroke: #038048; stroke-width: 1.0;"/><text fill="#000000" font-family="sans-serif" font-size="11" lengthAdjust="spacingAndGlyphs" textLength="114" x="29.5" y="62.2104">doWikiStartTag(): int</text></a><text fill="#888888" font-family="sans-serif" font-size="10" lengthAdjust="spacingAndGlyphs" textLength="186" x="0" y="88.2822">UMLDoclet 1.1.4, PlantUML 1.2019.05</text><!--
@startuml

    class PreviousVersionTag [[PreviousVersionTag.html]] {
        +doWikiStartTag(): int
    }


    center footer UMLDoclet 1.1.4, PlantUML 1.2019.05
@enduml

PlantUML version 1.2019.05(Sat Apr 20 16:45:36 UTC 2019)
(APACHE source distribution)
Java Runtime: OpenJDK Runtime Environment
JVM: OpenJDK 64-Bit Server VM
Java Version: 1.8.0_252-b09
Operating System: Linux
OS Version: 4.15.0-74-generic
Default Encoding: ISO-8859-1
Language: en
Country: US
--></g></svg>