<?xml version="1.0" encoding="UTF-8" standalone="no"?><svg xmlns="http://www.w3.org/2000/svg" xmlns:xlink="http://www.w3.org/1999/xlink" contentScriptType="application/ecmascript" contentStyleType="text/css" height="126px" preserveAspectRatio="none" style="width:204px;height:126px;" version="1.1" viewBox="0 0 204 126" width="204px" zoomAndPan="magnify"><defs><filter height="300%" id="fynodv3etp9l8" width="300%" x="-1" y="-1"><feGaussianBlur result="blurOut" stdDeviation="2.0"/><feColorMatrix in="blurOut" result="blurOut2" type="matrix" values="0 0 0 0 0 0 0 0 0 0 0 0 0 0 0 0 0 0 .4 0"/><feOffset dx="4.0" dy="4.0" in="blurOut2" result="blurOut3"/><feBlend in="SourceGraphic" in2="blurOut3" mode="normal"/></filter></defs><g><!--class LocaleComparator--><a href="LocaleComparator.html" target="_top" xlink:actuate="onRequest" xlink:show="new" xlink:title="LocaleComparator.html" xlink:type="simple"><rect fill="#FEFECE" filter="url(#fynodv3etp9l8)" height="86.4141" id="LocaleComparator" style="stroke: #A80036; stroke-width: 1.5;" width="174" x="6" y="8"/><ellipse cx="33.6" cy="24" fill="#ADD1B2" rx="11" ry="11" style="stroke: #A80036; stroke-width: 1.0;"/><path d="M36.5688,29.6406 Q35.9906,29.9375 35.35,30.0781 Q34.7094,30.2344 34.0063,30.2344 Q31.5063,30.2344 30.1781,28.5938 Q28.8656,26.9375 28.8656,23.8125 Q28.8656,20.6875 30.1781,19.0313 Q31.5063,17.375 34.0063,17.375 Q34.7094,17.375 35.35,17.5313 Q36.0063,17.6875 36.5688,17.9844 L36.5688,20.7031 Q35.9438,20.125 35.35,19.8594 Q34.7563,19.5781 34.1313,19.5781 Q32.7875,19.5781 32.1,20.6563 Q31.4125,21.7188 31.4125,23.8125 Q31.4125,25.9063 32.1,26.9844 Q32.7875,28.0469 34.1313,28.0469 Q34.7563,28.0469 35.35,27.7813 Q35.9438,27.5 36.5688,26.9219 L36.5688,29.6406 Z "/><text fill="#000000" font-family="sans-serif" font-size="12" lengthAdjust="spacingAndGlyphs" textLength="114" x="50.4" y="28.1543">LocaleComparator</text><line style="stroke: #A80036; stroke-width: 1.5;" x1="7" x2="179" y1="40" y2="40"/><line style="stroke: #A80036; stroke-width: 1.5;" x1="7" x2="179" y1="48" y2="48"/><ellipse cx="17" cy="59.9023" fill="#84BE84" rx="3" ry="3" style="stroke: #038048; stroke-width: 1.0;"/><text fill="#000000" font-family="sans-serif" font-size="11" lengthAdjust="spacingAndGlyphs" textLength="112" x="26" y="62.2104">LocaleComparator()</text><ellipse cx="17" cy="72.707" fill="#84BE84" rx="3" ry="3" style="stroke: #038048; stroke-width: 1.0;"/><text fill="#000000" font-family="sans-serif" font-size="11" lengthAdjust="spacingAndGlyphs" textLength="148" x="26" y="75.0151">LocaleComparator(Locale)</text><ellipse cx="17" cy="85.5117" fill="#84BE84" rx="3" ry="3" style="stroke: #038048; stroke-width: 1.0;"/><text fill="#000000" font-family="sans-serif" font-size="11" lengthAdjust="spacingAndGlyphs" textLength="129" x="26" y="87.8198">setLocale(Locale): void</text></a><text fill="#888888" font-family="sans-serif" font-size="10" lengthAdjust="spacingAndGlyphs" textLength="186" x="6" y="113.2822">UMLDoclet 1.1.4, PlantUML 1.2019.05</text><!--
@startuml

    class LocaleComparator [[LocaleComparator.html]] {
        +LocaleComparator()
        +LocaleComparator(Locale)
        +setLocale(Locale): void
    }


    center footer UMLDoclet 1.1.4, PlantUML 1.2019.05
@enduml

PlantUML version 1.2019.05(Sat Apr 20 16:45:36 UTC 2019)
(APACHE source distribution)
Java Runtime: OpenJDK Runtime Environment
JVM: OpenJDK 64-Bit Server VM
Java Version: 1.8.0_252-b09
Operating System: Linux
OS Version: 4.15.0-66-generic
Default Encoding: ISO-8859-1
Language: en
Country: US
--></g></svg>