<?xml version="1.0" encoding="UTF-8" standalone="no"?><svg xmlns="http://www.w3.org/2000/svg" xmlns:xlink="http://www.w3.org/1999/xlink" contentScriptType="application/ecmascript" contentStyleType="text/css" height="241px" preserveAspectRatio="none" style="width:193px;height:241px;background:#FFFFFF;" version="1.1" viewBox="0 0 193 241" width="193px" zoomAndPan="magnify"><defs><filter height="300%" id="fkpgh9k67o8ng" width="300%" x="-1" y="-1"><feGaussianBlur result="blurOut" stdDeviation="2.0"/><feColorMatrix in="blurOut" result="blurOut2" type="matrix" values="0 0 0 0 0 0 0 0 0 0 0 0 0 0 0 0 0 0 .4 0"/><feOffset dx="4.0" dy="4.0" in="blurOut2" result="blurOut3"/><feBlend in="SourceGraphic" in2="blurOut3" mode="normal"/></filter></defs><g><!--MD5=[2eee00d0630945e31b2b627473d3bd10]
class org.apache.wiki.tags.CheckLockTag--><a href="CheckLockTag.html" target="_top" title="CheckLockTag.html" xlink:actuate="onRequest" xlink:href="CheckLockTag.html" xlink:show="new" xlink:title="CheckLockTag.html" xlink:type="simple"><rect codeLine="5" fill="#FEFECE" filter="url(#fkpgh9k67o8ng)" height="84.3516" id="org.apache.wiki.tags.CheckLockTag" style="stroke:#A80036;stroke-width:1.5;" width="147" x="22.5" y="126"/><ellipse cx="43.35" cy="144.9688" fill="#ADD1B2" rx="11" ry="11" style="stroke:#A80036;stroke-width:1.0;"/><path d="M46.3188,150.6094 Q45.7406,150.9063 45.1,151.0469 Q44.4594,151.2031 43.7563,151.2031 Q41.2563,151.2031 39.9281,149.5625 Q38.6156,147.9063 38.6156,144.7813 Q38.6156,141.6563 39.9281,140 Q41.2563,138.3438 43.7563,138.3438 Q44.4594,138.3438 45.1,138.5 Q45.7563,138.6563 46.3188,138.9531 L46.3188,141.6719 Q45.6938,141.0938 45.1,140.8281 Q44.5063,140.5469 43.8813,140.5469 Q42.5375,140.5469 41.85,141.625 Q41.1625,142.6875 41.1625,144.7813 Q41.1625,146.875 41.85,147.9531 Q42.5375,149.0156 43.8813,149.0156 Q44.5063,149.0156 45.1,148.75 Q45.6938,148.4688 46.3188,147.8906 L46.3188,150.6094 Z " fill="#000000"/><text fill="#000000" font-family="sans-serif" font-size="14" lengthAdjust="spacing" textLength="102" x="58.65" y="143.9951">CheckLockTag</text><text fill="#000000" font-family="sans-serif" font-size="10" lengthAdjust="spacing" textLength="98" x="60.65" y="156.5791">org.apache.wiki.tags</text><line style="stroke:#A80036;stroke-width:1.5;" x1="23.5" x2="168.5" y1="163.9375" y2="163.9375"/><ellipse cx="33.5" cy="174.9375" fill="#84BE84" rx="3" ry="3" style="stroke:#038048;stroke-width:1.0;"/><text fill="#000000" font-family="sans-serif" font-size="11" lengthAdjust="spacing" textLength="77" x="42.5" y="178.1479">initTag(): void</text><ellipse cx="33.5" cy="187.7422" fill="#84BE84" rx="3" ry="3" style="stroke:#038048;stroke-width:1.0;"/><text fill="#000000" font-family="sans-serif" font-size="11" lengthAdjust="spacing" textLength="121" x="42.5" y="190.9526">setMode(String): void</text><ellipse cx="33.5" cy="200.5469" fill="#84BE84" rx="3" ry="3" style="stroke:#038048;stroke-width:1.0;"/><text fill="#000000" font-family="sans-serif" font-size="11" lengthAdjust="spacing" textLength="114" x="42.5" y="203.7573">doWikiStartTag(): int</text></a><!--MD5=[0148d16490ea9d40379f79f2f3eafb9d]
class org.apache.wiki.tags.WikiTagBase--><a href="WikiTagBase.html" target="_top" title="WikiTagBase.html" xlink:actuate="onRequest" xlink:href="WikiTagBase.html" xlink:show="new" xlink:title="WikiTagBase.html" xlink:type="simple"><rect codeLine="11" fill="#FEFECE" filter="url(#fkpgh9k67o8ng)" height="58.7422" id="org.apache.wiki.tags.WikiTagBase" style="stroke:#A80036;stroke-width:1.5;" width="141" x="25.5" y="7"/><ellipse cx="43.65" cy="25.9688" fill="#A9DCDF" rx="11" ry="11" style="stroke:#A80036;stroke-width:1.0;"/><path d="M43.7594,21.3125 L42.6031,26.3906 L44.9313,26.3906 L43.7594,21.3125 Z M42.275,19.0781 L45.2594,19.0781 L48.6188,31.4688 L46.1656,31.4688 L45.4,28.4063 L42.1188,28.4063 L41.3688,31.4688 L38.9313,31.4688 L42.275,19.0781 Z " fill="#000000"/><text fill="#000000" font-family="sans-serif" font-size="14" font-style="italic" lengthAdjust="spacing" textLength="88" x="65.35" y="24.9951">WikiTagBase</text><text fill="#000000" font-family="sans-serif" font-size="10" font-style="italic" lengthAdjust="spacing" textLength="102" x="58.35" y="37.5791">org.apache.wiki.tags</text><line style="stroke:#A80036;stroke-width:1.5;" x1="26.5" x2="165.5" y1="44.9375" y2="44.9375"/><ellipse cx="36.5" cy="55.9375" fill="#84BE84" rx="3" ry="3" style="stroke:#038048;stroke-width:1.0;"/><text fill="#000000" font-family="sans-serif" font-size="11" font-style="italic" lengthAdjust="spacing" textLength="115" x="45.5" y="59.1479">doWikiStartTag(): int</text></a><!--MD5=[1ed78af8091f096e6e94282ab3baccb9]
reverse link org.apache.wiki.tags.WikiTagBase to org.apache.wiki.tags.CheckLockTag--><path codeLine="15" d="M96,86.138 C96,99.225 96,113.2196 96,125.8691 " fill="none" id="org.apache.wiki.tags.WikiTagBase-backto-org.apache.wiki.tags.CheckLockTag" style="stroke:#A80036;stroke-width:1.0;"/><polygon fill="none" points="89.0001,86.0112,96,66.0112,103.0001,86.0111,89.0001,86.0112" style="stroke:#A80036;stroke-width:1.0;"/><text fill="#888888" font-family="sans-serif" font-size="10" lengthAdjust="spacing" textLength="186" x="0" y="232.6338">UMLDoclet 2.0.14, PlantUML 1.2021.9</text><!--MD5=[475f14c706edb36f36acbd6f35dd81ff]
@startuml
    set namespaceSeparator none
    hide empty fields
    hide empty methods

    class "<size:14>CheckLockTag\n<size:10>org.apache.wiki.tags" as org.apache.wiki.tags.CheckLockTag [[CheckLockTag.html]] {
        +initTag(): void
        +setMode(String): void
        +doWikiStartTag(): int
    }

    abstract class "<size:14>WikiTagBase\n<size:10>org.apache.wiki.tags" as org.apache.wiki.tags.WikiTagBase [[WikiTagBase.html]] {
        {abstract} +doWikiStartTag(): int
    }

    org.apache.wiki.tags.WikiTagBase <|- - org.apache.wiki.tags.CheckLockTag

    center footer UMLDoclet 2.0.14, PlantUML 1.2021.9
@enduml

PlantUML version 1.2021.9(Sun Jul 25 10:13:56 UTC 2021)
(APACHE source distribution)
Java Runtime: Java(TM) SE Runtime Environment
JVM: Java HotSpot(TM) 64-Bit Server VM
Default Encoding: ISO-8859-1
Language: en
Country: US
--></g></svg>