<?xml version="1.0" encoding="UTF-8" standalone="no"?><svg xmlns="http://www.w3.org/2000/svg" xmlns:xlink="http://www.w3.org/1999/xlink" contentScriptType="application/ecmascript" contentStyleType="text/css" height="292px" preserveAspectRatio="none" style="width:198px;height:292px;background:#FFFFFF;" version="1.1" viewBox="0 0 198 292" width="198px" zoomAndPan="magnify"><defs><filter height="300%" id="f71lzcwwhob43" width="300%" x="-1" y="-1"><feGaussianBlur result="blurOut" stdDeviation="2.0"/><feColorMatrix in="blurOut" result="blurOut2" type="matrix" values="0 0 0 0 0 0 0 0 0 0 0 0 0 0 0 0 0 0 .4 0"/><feOffset dx="4.0" dy="4.0" in="blurOut2" result="blurOut3"/><feBlend in="SourceGraphic" in2="blurOut3" mode="normal"/></filter></defs><g><!--MD5=[31f0d9e8d9be84b3bca3ec2e170ca551]
class org.apache.wiki.tags.LinkToTag--><a href="LinkToTag.html" target="_top" title="LinkToTag.html" xlink:actuate="onRequest" xlink:href="LinkToTag.html" xlink:show="new" xlink:title="LinkToTag.html" xlink:type="simple"><rect codeLine="5" fill="#FEFECE" filter="url(#f71lzcwwhob43)" height="156.375" id="org.apache.wiki.tags.LinkToTag" style="stroke:#A80036;stroke-width:1.5;" width="176" x="8" y="105"/><ellipse cx="43.7" cy="123.9688" fill="#ADD1B2" rx="11" ry="11" style="stroke:#A80036;stroke-width:1.0;"/><path d="M46.6688,129.6094 Q46.0906,129.9063 45.45,130.0469 Q44.8094,130.2031 44.1063,130.2031 Q41.6063,130.2031 40.2781,128.5625 Q38.9656,126.9063 38.9656,123.7813 Q38.9656,120.6563 40.2781,119 Q41.6063,117.3438 44.1063,117.3438 Q44.8094,117.3438 45.45,117.5 Q46.1063,117.6563 46.6688,117.9531 L46.6688,120.6719 Q46.0438,120.0938 45.45,119.8281 Q44.8563,119.5469 44.2313,119.5469 Q42.8875,119.5469 42.2,120.625 Q41.5125,121.6875 41.5125,123.7813 Q41.5125,125.875 42.2,126.9531 Q42.8875,128.0156 44.2313,128.0156 Q44.8563,128.0156 45.45,127.75 Q46.0438,127.4688 46.6688,126.8906 L46.6688,129.6094 Z " fill="#000000"/><text fill="#000000" font-family="sans-serif" font-size="14" lengthAdjust="spacing" textLength="71" x="75.8" y="122.9951">LinkToTag</text><text fill="#000000" font-family="sans-serif" font-size="10" lengthAdjust="spacing" textLength="98" x="62.3" y="135.5791">org.apache.wiki.tags</text><line style="stroke:#A80036;stroke-width:1.5;" x1="9" x2="183" y1="142.9375" y2="142.9375"/><ellipse cx="19" cy="153.9375" rx="3" ry="3" style="stroke:#038048;stroke-width:1.0;fill:none;"/><text fill="#000000" font-family="sans-serif" font-size="11" lengthAdjust="spacing" textLength="80" x="28" y="157.1479">m_title: String</text><ellipse cx="19" cy="166.7422" rx="3" ry="3" style="stroke:#038048;stroke-width:1.0;fill:none;"/><text fill="#000000" font-family="sans-serif" font-size="11" lengthAdjust="spacing" textLength="118" x="28" y="169.9526">m_accesskey: String</text><line style="stroke:#A80036;stroke-width:1.5;" x1="9" x2="183" y1="176.5469" y2="176.5469"/><ellipse cx="19" cy="187.5469" fill="#84BE84" rx="3" ry="3" style="stroke:#038048;stroke-width:1.0;"/><text fill="#000000" font-family="sans-serif" font-size="11" lengthAdjust="spacing" textLength="77" x="28" y="190.7573">initTag(): void</text><ellipse cx="19" cy="200.3516" fill="#84BE84" rx="3" ry="3" style="stroke:#038048;stroke-width:1.0;"/><text fill="#000000" font-family="sans-serif" font-size="11" lengthAdjust="spacing" textLength="111" x="28" y="203.562">getVersion(): String</text><ellipse cx="19" cy="213.1563" fill="#84BE84" rx="3" ry="3" style="stroke:#038048;stroke-width:1.0;"/><text fill="#000000" font-family="sans-serif" font-size="11" lengthAdjust="spacing" textLength="134" x="28" y="216.3667">setVersion(String): void</text><ellipse cx="19" cy="225.9609" fill="#84BE84" rx="3" ry="3" style="stroke:#038048;stroke-width:1.0;"/><text fill="#000000" font-family="sans-serif" font-size="11" lengthAdjust="spacing" textLength="115" x="28" y="229.1714">setTitle(String): void</text><ellipse cx="19" cy="238.7656" fill="#84BE84" rx="3" ry="3" style="stroke:#038048;stroke-width:1.0;"/><text fill="#000000" font-family="sans-serif" font-size="11" lengthAdjust="spacing" textLength="150" x="28" y="241.9761">setAccesskey(String): void</text><ellipse cx="19" cy="251.5703" fill="#84BE84" rx="3" ry="3" style="stroke:#038048;stroke-width:1.0;"/><text fill="#000000" font-family="sans-serif" font-size="11" lengthAdjust="spacing" textLength="114" x="28" y="254.7808">doWikiStartTag(): int</text></a><!--MD5=[c34e6c606284c4bff727884542ace417]
class org.apache.wiki.tags.WikiLinkTag--><a href="WikiLinkTag.html" target="_top" title="WikiLinkTag.html" xlink:actuate="onRequest" xlink:href="WikiLinkTag.html" xlink:show="new" xlink:title="WikiLinkTag.html" xlink:type="simple"><rect codeLine="16" fill="#FEFECE" filter="url(#f71lzcwwhob43)" height="37.9375" id="org.apache.wiki.tags.WikiLinkTag" style="stroke:#A80036;stroke-width:1.5;" width="134" x="29" y="7"/><ellipse cx="44" cy="25.9688" fill="#A9DCDF" rx="11" ry="11" style="stroke:#A80036;stroke-width:1.0;"/><path d="M44.1094,21.3125 L42.9531,26.3906 L45.2813,26.3906 L44.1094,21.3125 Z M42.625,19.0781 L45.6094,19.0781 L48.9688,31.4688 L46.5156,31.4688 L45.75,28.4063 L42.4688,28.4063 L41.7188,31.4688 L39.2813,31.4688 L42.625,19.0781 Z " fill="#000000"/><text fill="#000000" font-family="sans-serif" font-size="14" font-style="italic" lengthAdjust="spacing" textLength="82" x="68" y="24.9951">WikiLinkTag</text><text fill="#000000" font-family="sans-serif" font-size="10" font-style="italic" lengthAdjust="spacing" textLength="102" x="58" y="37.5791">org.apache.wiki.tags</text></a><!--MD5=[d001eba3fe8ab381d21b8a2f36b9ab8d]
reverse link org.apache.wiki.tags.WikiLinkTag to org.apache.wiki.tags.LinkToTag--><path codeLine="18" d="M96,65.3456 C96,77.3814 96,91.0678 96,104.7444 " fill="none" id="org.apache.wiki.tags.WikiLinkTag-backto-org.apache.wiki.tags.LinkToTag" style="stroke:#A80036;stroke-width:1.0;"/><polygon fill="none" points="89.0001,65.2513,96,45.2513,103.0001,65.2512,89.0001,65.2513" style="stroke:#A80036;stroke-width:1.0;"/><text fill="#888888" font-family="sans-serif" font-size="10" lengthAdjust="spacing" textLength="186" x="0" y="283.6572">UMLDoclet 2.0.14, PlantUML 1.2021.9</text><!--MD5=[b830ff695686adba7f577a15a48c9dc0]
@startuml
    set namespaceSeparator none
    hide empty fields
    hide empty methods

    class "<size:14>LinkToTag\n<size:10>org.apache.wiki.tags" as org.apache.wiki.tags.LinkToTag [[LinkToTag.html]] {
        +m_title: String
        +m_accesskey: String
        +initTag(): void
        +getVersion(): String
        +setVersion(String): void
        +setTitle(String): void
        +setAccesskey(String): void
        +doWikiStartTag(): int
    }

    abstract class "<size:14>WikiLinkTag\n<size:10>org.apache.wiki.tags" as org.apache.wiki.tags.WikiLinkTag [[WikiLinkTag.html]]

    org.apache.wiki.tags.WikiLinkTag <|- - org.apache.wiki.tags.LinkToTag

    center footer UMLDoclet 2.0.14, PlantUML 1.2021.9
@enduml

PlantUML version 1.2021.9(Sun Jul 25 10:13:56 UTC 2021)
(APACHE source distribution)
Java Runtime: Java(TM) SE Runtime Environment
JVM: Java HotSpot(TM) 64-Bit Server VM
Default Encoding: ISO-8859-1
Language: en
Country: US
--></g></svg>