<?xml version="1.0" encoding="UTF-8" standalone="no"?><svg xmlns="http://www.w3.org/2000/svg" xmlns:xlink="http://www.w3.org/1999/xlink" contentScriptType="application/ecmascript" contentStyleType="text/css" height="215px" preserveAspectRatio="none" style="width:193px;height:215px;background:#FFFFFF;" version="1.1" viewBox="0 0 193 215" width="193px" zoomAndPan="magnify"><defs><filter height="300%" id="f6yrz2eqtitry" width="300%" x="-1" y="-1"><feGaussianBlur result="blurOut" stdDeviation="2.0"/><feColorMatrix in="blurOut" result="blurOut2" type="matrix" values="0 0 0 0 0 0 0 0 0 0 0 0 0 0 0 0 0 0 .4 0"/><feOffset dx="4.0" dy="4.0" in="blurOut2" result="blurOut3"/><feBlend in="SourceGraphic" in2="blurOut3" mode="normal"/></filter></defs><g><!--MD5=[554ffabee2a294c6b20993a578352845]
class org.apache.wiki.tags.PageNameTag--><a href="PageNameTag.html" target="_top" title="PageNameTag.html" xlink:actuate="onRequest" xlink:href="PageNameTag.html" xlink:show="new" xlink:title="PageNameTag.html" xlink:type="simple"><rect codeLine="5" fill="#FEFECE" filter="url(#f6yrz2eqtitry)" height="58.7422" id="org.apache.wiki.tags.PageNameTag" style="stroke:#A80036;stroke-width:1.5;" width="140" x="26" y="126"/><ellipse cx="44.15" cy="144.9688" fill="#ADD1B2" rx="11" ry="11" style="stroke:#A80036;stroke-width:1.0;"/><path d="M47.1188,150.6094 Q46.5406,150.9063 45.9,151.0469 Q45.2594,151.2031 44.5563,151.2031 Q42.0563,151.2031 40.7281,149.5625 Q39.4156,147.9063 39.4156,144.7813 Q39.4156,141.6563 40.7281,140 Q42.0563,138.3438 44.5563,138.3438 Q45.2594,138.3438 45.9,138.5 Q46.5563,138.6563 47.1188,138.9531 L47.1188,141.6719 Q46.4938,141.0938 45.9,140.8281 Q45.3063,140.5469 44.6813,140.5469 Q43.3375,140.5469 42.65,141.625 Q41.9625,142.6875 41.9625,144.7813 Q41.9625,146.875 42.65,147.9531 Q43.3375,149.0156 44.6813,149.0156 Q45.3063,149.0156 45.9,148.75 Q46.4938,148.4688 47.1188,147.8906 L47.1188,150.6094 Z " fill="#000000"/><text fill="#000000" font-family="sans-serif" font-size="14" lengthAdjust="spacing" textLength="101" x="58.85" y="143.9951">PageNameTag</text><text fill="#000000" font-family="sans-serif" font-size="10" lengthAdjust="spacing" textLength="98" x="60.35" y="156.5791">org.apache.wiki.tags</text><line style="stroke:#A80036;stroke-width:1.5;" x1="27" x2="165" y1="163.9375" y2="163.9375"/><ellipse cx="37" cy="174.9375" fill="#84BE84" rx="3" ry="3" style="stroke:#038048;stroke-width:1.0;"/><text fill="#000000" font-family="sans-serif" font-size="11" lengthAdjust="spacing" textLength="114" x="46" y="178.1479">doWikiStartTag(): int</text></a><!--MD5=[0148d16490ea9d40379f79f2f3eafb9d]
class org.apache.wiki.tags.WikiTagBase--><a href="WikiTagBase.html" target="_top" title="WikiTagBase.html" xlink:actuate="onRequest" xlink:href="WikiTagBase.html" xlink:show="new" xlink:title="WikiTagBase.html" xlink:type="simple"><rect codeLine="9" fill="#FEFECE" filter="url(#f6yrz2eqtitry)" height="58.7422" id="org.apache.wiki.tags.WikiTagBase" style="stroke:#A80036;stroke-width:1.5;" width="141" x="25.5" y="7"/><ellipse cx="43.65" cy="25.9688" fill="#A9DCDF" rx="11" ry="11" style="stroke:#A80036;stroke-width:1.0;"/><path d="M43.7594,21.3125 L42.6031,26.3906 L44.9313,26.3906 L43.7594,21.3125 Z M42.275,19.0781 L45.2594,19.0781 L48.6188,31.4688 L46.1656,31.4688 L45.4,28.4063 L42.1188,28.4063 L41.3688,31.4688 L38.9313,31.4688 L42.275,19.0781 Z " fill="#000000"/><text fill="#000000" font-family="sans-serif" font-size="14" font-style="italic" lengthAdjust="spacing" textLength="88" x="65.35" y="24.9951">WikiTagBase</text><text fill="#000000" font-family="sans-serif" font-size="10" font-style="italic" lengthAdjust="spacing" textLength="102" x="58.35" y="37.5791">org.apache.wiki.tags</text><line style="stroke:#A80036;stroke-width:1.5;" x1="26.5" x2="165.5" y1="44.9375" y2="44.9375"/><ellipse cx="36.5" cy="55.9375" fill="#84BE84" rx="3" ry="3" style="stroke:#038048;stroke-width:1.0;"/><text fill="#000000" font-family="sans-serif" font-size="11" font-style="italic" lengthAdjust="spacing" textLength="115" x="45.5" y="59.1479">doWikiStartTag(): int</text></a><!--MD5=[de4582fbb7f4c08122c3493a099a16a0]
reverse link org.apache.wiki.tags.WikiTagBase to org.apache.wiki.tags.PageNameTag--><path codeLine="13" d="M96,86.3288 C96,99.7348 96,113.8139 96,125.7447 " fill="none" id="org.apache.wiki.tags.WikiTagBase-backto-org.apache.wiki.tags.PageNameTag" style="stroke:#A80036;stroke-width:1.0;"/><polygon fill="none" points="89.0001,86.2218,96,66.2218,103.0001,86.2217,89.0001,86.2218" style="stroke:#A80036;stroke-width:1.0;"/><text fill="#888888" font-family="sans-serif" font-size="10" lengthAdjust="spacing" textLength="186" x="0" y="207.0244">UMLDoclet 2.0.14, PlantUML 1.2021.9</text><!--MD5=[44570033a48701221795ce16f43437bc]
@startuml
    set namespaceSeparator none
    hide empty fields
    hide empty methods

    class "<size:14>PageNameTag\n<size:10>org.apache.wiki.tags" as org.apache.wiki.tags.PageNameTag [[PageNameTag.html]] {
        +doWikiStartTag(): int
    }

    abstract class "<size:14>WikiTagBase\n<size:10>org.apache.wiki.tags" as org.apache.wiki.tags.WikiTagBase [[WikiTagBase.html]] {
        {abstract} +doWikiStartTag(): int
    }

    org.apache.wiki.tags.WikiTagBase <|- - org.apache.wiki.tags.PageNameTag

    center footer UMLDoclet 2.0.14, PlantUML 1.2021.9
@enduml

PlantUML version 1.2021.9(Sun Jul 25 10:13:56 UTC 2021)
(APACHE source distribution)
Java Runtime: Java(TM) SE Runtime Environment
JVM: Java HotSpot(TM) 64-Bit Server VM
Default Encoding: ISO-8859-1
Language: en
Country: US
--></g></svg>