<?xml version="1.0" encoding="UTF-8" standalone="no"?><svg xmlns="http://www.w3.org/2000/svg" xmlns:xlink="http://www.w3.org/1999/xlink" contentScriptType="application/ecmascript" contentStyleType="text/css" height="253px" preserveAspectRatio="none" style="width:198px;height:253px;background:#FFFFFF;" version="1.1" viewBox="0 0 198 253" width="198px" zoomAndPan="magnify"><defs><filter height="300%" id="f1lfi33kykyuf0" width="300%" x="-1" y="-1"><feGaussianBlur result="blurOut" stdDeviation="2.0"/><feColorMatrix in="blurOut" result="blurOut2" type="matrix" values="0 0 0 0 0 0 0 0 0 0 0 0 0 0 0 0 0 0 .4 0"/><feOffset dx="4.0" dy="4.0" in="blurOut2" result="blurOut3"/><feBlend in="SourceGraphic" in2="blurOut3" mode="normal"/></filter></defs><g><!--MD5=[6acd1bb1d7bbaf0c897c5af6f9a73c51]
class org.apache.wiki.tags.PageInfoLinkTag--><a href="PageInfoLinkTag.html" target="_top" title="PageInfoLinkTag.html" xlink:actuate="onRequest" xlink:href="PageInfoLinkTag.html" xlink:show="new" xlink:title="PageInfoLinkTag.html" xlink:type="simple"><rect codeLine="5" fill="#FEFECE" filter="url(#f1lfi33kykyuf0)" height="117.9609" id="org.apache.wiki.tags.PageInfoLinkTag" style="stroke:#A80036;stroke-width:1.5;" width="176" x="8" y="105"/><ellipse cx="36.95" cy="123.9688" fill="#ADD1B2" rx="11" ry="11" style="stroke:#A80036;stroke-width:1.0;"/><path d="M39.9188,129.6094 Q39.3406,129.9063 38.7,130.0469 Q38.0594,130.2031 37.3563,130.2031 Q34.8563,130.2031 33.5281,128.5625 Q32.2156,126.9063 32.2156,123.7813 Q32.2156,120.6563 33.5281,119 Q34.8563,117.3438 37.3563,117.3438 Q38.0594,117.3438 38.7,117.5 Q39.3563,117.6563 39.9188,117.9531 L39.9188,120.6719 Q39.2938,120.0938 38.7,119.8281 Q38.1063,119.5469 37.4813,119.5469 Q36.1375,119.5469 35.45,120.625 Q34.7625,121.6875 34.7625,123.7813 Q34.7625,125.875 35.45,126.9531 Q36.1375,128.0156 37.4813,128.0156 Q38.1063,128.0156 38.7,127.75 Q39.2938,127.4688 39.9188,126.8906 L39.9188,129.6094 Z " fill="#000000"/><text fill="#000000" font-family="sans-serif" font-size="14" lengthAdjust="spacing" textLength="113" x="54.05" y="122.9951">PageInfoLinkTag</text><text fill="#000000" font-family="sans-serif" font-size="10" lengthAdjust="spacing" textLength="98" x="61.55" y="135.5791">org.apache.wiki.tags</text><line style="stroke:#A80036;stroke-width:1.5;" x1="9" x2="183" y1="142.9375" y2="142.9375"/><ellipse cx="19" cy="153.9375" rx="3" ry="3" style="stroke:#038048;stroke-width:1.0;fill:none;"/><text fill="#000000" font-family="sans-serif" font-size="11" lengthAdjust="spacing" textLength="80" x="28" y="157.1479">m_title: String</text><ellipse cx="19" cy="166.7422" rx="3" ry="3" style="stroke:#038048;stroke-width:1.0;fill:none;"/><text fill="#000000" font-family="sans-serif" font-size="11" lengthAdjust="spacing" textLength="118" x="28" y="169.9526">m_accesskey: String</text><line style="stroke:#A80036;stroke-width:1.5;" x1="9" x2="183" y1="176.5469" y2="176.5469"/><ellipse cx="19" cy="187.5469" fill="#84BE84" rx="3" ry="3" style="stroke:#038048;stroke-width:1.0;"/><text fill="#000000" font-family="sans-serif" font-size="11" lengthAdjust="spacing" textLength="115" x="28" y="190.7573">setTitle(String): void</text><ellipse cx="19" cy="200.3516" fill="#84BE84" rx="3" ry="3" style="stroke:#038048;stroke-width:1.0;"/><text fill="#000000" font-family="sans-serif" font-size="11" lengthAdjust="spacing" textLength="150" x="28" y="203.562">setAccesskey(String): void</text><ellipse cx="19" cy="213.1563" fill="#84BE84" rx="3" ry="3" style="stroke:#038048;stroke-width:1.0;"/><text fill="#000000" font-family="sans-serif" font-size="11" lengthAdjust="spacing" textLength="114" x="28" y="216.3667">doWikiStartTag(): int</text></a><!--MD5=[c34e6c606284c4bff727884542ace417]
class org.apache.wiki.tags.WikiLinkTag--><a href="WikiLinkTag.html" target="_top" title="WikiLinkTag.html" xlink:actuate="onRequest" xlink:href="WikiLinkTag.html" xlink:show="new" xlink:title="WikiLinkTag.html" xlink:type="simple"><rect codeLine="13" fill="#FEFECE" filter="url(#f1lfi33kykyuf0)" height="37.9375" id="org.apache.wiki.tags.WikiLinkTag" style="stroke:#A80036;stroke-width:1.5;" width="134" x="29" y="7"/><ellipse cx="44" cy="25.9688" fill="#A9DCDF" rx="11" ry="11" style="stroke:#A80036;stroke-width:1.0;"/><path d="M44.1094,21.3125 L42.9531,26.3906 L45.2813,26.3906 L44.1094,21.3125 Z M42.625,19.0781 L45.6094,19.0781 L48.9688,31.4688 L46.5156,31.4688 L45.75,28.4063 L42.4688,28.4063 L41.7188,31.4688 L39.2813,31.4688 L42.625,19.0781 Z " fill="#000000"/><text fill="#000000" font-family="sans-serif" font-size="14" font-style="italic" lengthAdjust="spacing" textLength="82" x="68" y="24.9951">WikiLinkTag</text><text fill="#000000" font-family="sans-serif" font-size="10" font-style="italic" lengthAdjust="spacing" textLength="102" x="58" y="37.5791">org.apache.wiki.tags</text></a><!--MD5=[20ae22fe93b2631717c2c1489de935d8]
reverse link org.apache.wiki.tags.WikiLinkTag to org.apache.wiki.tags.PageInfoLinkTag--><path codeLine="15" d="M96,65.2842 C96,77.6422 96,91.5722 96,104.9877 " fill="none" id="org.apache.wiki.tags.WikiLinkTag-backto-org.apache.wiki.tags.PageInfoLinkTag" style="stroke:#A80036;stroke-width:1.0;"/><polygon fill="none" points="89.0001,65.1883,96,45.1883,103.0001,65.1883,89.0001,65.1883" style="stroke:#A80036;stroke-width:1.0;"/><text fill="#888888" font-family="sans-serif" font-size="10" lengthAdjust="spacing" textLength="186" x="0" y="245.2432">UMLDoclet 2.0.14, PlantUML 1.2021.9</text><!--MD5=[3f0363e3de84df1467ff2e7d7799b462]
@startuml
    set namespaceSeparator none
    hide empty fields
    hide empty methods

    class "<size:14>PageInfoLinkTag\n<size:10>org.apache.wiki.tags" as org.apache.wiki.tags.PageInfoLinkTag [[PageInfoLinkTag.html]] {
        +m_title: String
        +m_accesskey: String
        +setTitle(String): void
        +setAccesskey(String): void
        +doWikiStartTag(): int
    }

    abstract class "<size:14>WikiLinkTag\n<size:10>org.apache.wiki.tags" as org.apache.wiki.tags.WikiLinkTag [[WikiLinkTag.html]]

    org.apache.wiki.tags.WikiLinkTag <|- - org.apache.wiki.tags.PageInfoLinkTag

    center footer UMLDoclet 2.0.14, PlantUML 1.2021.9
@enduml

PlantUML version 1.2021.9(Sun Jul 25 10:13:56 UTC 2021)
(APACHE source distribution)
Java Runtime: Java(TM) SE Runtime Environment
JVM: Java HotSpot(TM) 64-Bit Server VM
Default Encoding: ISO-8859-1
Language: en
Country: US
--></g></svg>