<?xml version="1.0" encoding="UTF-8" standalone="no"?><svg xmlns="http://www.w3.org/2000/svg" xmlns:xlink="http://www.w3.org/1999/xlink" contentScriptType="application/ecmascript" contentStyleType="text/css" height="215px" preserveAspectRatio="none" style="width:199px;height:215px;background:#FFFFFF;" version="1.1" viewBox="0 0 199 215" width="199px" zoomAndPan="magnify"><defs><filter height="300%" id="f1t9ueoxomvggi" width="300%" x="-1" y="-1"><feGaussianBlur result="blurOut" stdDeviation="2.0"/><feColorMatrix in="blurOut" result="blurOut2" type="matrix" values="0 0 0 0 0 0 0 0 0 0 0 0 0 0 0 0 0 0 .4 0"/><feOffset dx="4.0" dy="4.0" in="blurOut2" result="blurOut3"/><feBlend in="SourceGraphic" in2="blurOut3" mode="normal"/></filter></defs><g><!--MD5=[8ad1840b8642491fc62d5acf1b6ca679]
class org.apache.wiki.tags.ParentPageNameTag--><a href="ParentPageNameTag.html" target="_top" title="ParentPageNameTag.html" xlink:actuate="onRequest" xlink:href="ParentPageNameTag.html" xlink:show="new" xlink:title="ParentPageNameTag.html" xlink:type="simple"><rect codeLine="5" fill="#FEFECE" filter="url(#f1t9ueoxomvggi)" height="58.7422" id="org.apache.wiki.tags.ParentPageNameTag" style="stroke:#A80036;stroke-width:1.5;" width="178" x="7" y="126"/><ellipse cx="22" cy="144.9688" fill="#ADD1B2" rx="11" ry="11" style="stroke:#A80036;stroke-width:1.0;"/><path d="M24.9688,150.6094 Q24.3906,150.9063 23.75,151.0469 Q23.1094,151.2031 22.4063,151.2031 Q19.9063,151.2031 18.5781,149.5625 Q17.2656,147.9063 17.2656,144.7813 Q17.2656,141.6563 18.5781,140 Q19.9063,138.3438 22.4063,138.3438 Q23.1094,138.3438 23.75,138.5 Q24.4063,138.6563 24.9688,138.9531 L24.9688,141.6719 Q24.3438,141.0938 23.75,140.8281 Q23.1563,140.5469 22.5313,140.5469 Q21.1875,140.5469 20.5,141.625 Q19.8125,142.6875 19.8125,144.7813 Q19.8125,146.875 20.5,147.9531 Q21.1875,149.0156 22.5313,149.0156 Q23.1563,149.0156 23.75,148.75 Q24.3438,148.4688 24.9688,147.8906 L24.9688,150.6094 Z " fill="#000000"/><text fill="#000000" font-family="sans-serif" font-size="14" lengthAdjust="spacing" textLength="146" x="36" y="143.9951">ParentPageNameTag</text><text fill="#000000" font-family="sans-serif" font-size="10" lengthAdjust="spacing" textLength="98" x="60" y="156.5791">org.apache.wiki.tags</text><line style="stroke:#A80036;stroke-width:1.5;" x1="8" x2="184" y1="163.9375" y2="163.9375"/><ellipse cx="18" cy="174.9375" fill="#84BE84" rx="3" ry="3" style="stroke:#038048;stroke-width:1.0;"/><text fill="#000000" font-family="sans-serif" font-size="11" lengthAdjust="spacing" textLength="114" x="27" y="178.1479">doWikiStartTag(): int</text></a><!--MD5=[0148d16490ea9d40379f79f2f3eafb9d]
class org.apache.wiki.tags.WikiTagBase--><a href="WikiTagBase.html" target="_top" title="WikiTagBase.html" xlink:actuate="onRequest" xlink:href="WikiTagBase.html" xlink:show="new" xlink:title="WikiTagBase.html" xlink:type="simple"><rect codeLine="9" fill="#FEFECE" filter="url(#f1t9ueoxomvggi)" height="58.7422" id="org.apache.wiki.tags.WikiTagBase" style="stroke:#A80036;stroke-width:1.5;" width="141" x="25.5" y="7"/><ellipse cx="43.65" cy="25.9688" fill="#A9DCDF" rx="11" ry="11" style="stroke:#A80036;stroke-width:1.0;"/><path d="M43.7594,21.3125 L42.6031,26.3906 L44.9313,26.3906 L43.7594,21.3125 Z M42.275,19.0781 L45.2594,19.0781 L48.6188,31.4688 L46.1656,31.4688 L45.4,28.4063 L42.1188,28.4063 L41.3688,31.4688 L38.9313,31.4688 L42.275,19.0781 Z " fill="#000000"/><text fill="#000000" font-family="sans-serif" font-size="14" font-style="italic" lengthAdjust="spacing" textLength="88" x="65.35" y="24.9951">WikiTagBase</text><text fill="#000000" font-family="sans-serif" font-size="10" font-style="italic" lengthAdjust="spacing" textLength="102" x="58.35" y="37.5791">org.apache.wiki.tags</text><line style="stroke:#A80036;stroke-width:1.5;" x1="26.5" x2="165.5" y1="44.9375" y2="44.9375"/><ellipse cx="36.5" cy="55.9375" fill="#84BE84" rx="3" ry="3" style="stroke:#038048;stroke-width:1.0;"/><text fill="#000000" font-family="sans-serif" font-size="11" font-style="italic" lengthAdjust="spacing" textLength="115" x="45.5" y="59.1479">doWikiStartTag(): int</text></a><!--MD5=[4b7b1652071d51611779eab945964bca]
reverse link org.apache.wiki.tags.WikiTagBase to org.apache.wiki.tags.ParentPageNameTag--><path codeLine="13" d="M96,86.3288 C96,99.7348 96,113.8139 96,125.7447 " fill="none" id="org.apache.wiki.tags.WikiTagBase-backto-org.apache.wiki.tags.ParentPageNameTag" style="stroke:#A80036;stroke-width:1.0;"/><polygon fill="none" points="89.0001,86.2218,96,66.2218,103.0001,86.2217,89.0001,86.2218" style="stroke:#A80036;stroke-width:1.0;"/><text fill="#888888" font-family="sans-serif" font-size="10" lengthAdjust="spacing" textLength="186" x="0" y="207.0244">UMLDoclet 2.0.14, PlantUML 1.2021.9</text><!--MD5=[c89c5e0e566ce190c186aecd0854e0c6]
@startuml
    set namespaceSeparator none
    hide empty fields
    hide empty methods

    class "<size:14>ParentPageNameTag\n<size:10>org.apache.wiki.tags" as org.apache.wiki.tags.ParentPageNameTag [[ParentPageNameTag.html]] {
        +doWikiStartTag(): int
    }

    abstract class "<size:14>WikiTagBase\n<size:10>org.apache.wiki.tags" as org.apache.wiki.tags.WikiTagBase [[WikiTagBase.html]] {
        {abstract} +doWikiStartTag(): int
    }

    org.apache.wiki.tags.WikiTagBase <|- - org.apache.wiki.tags.ParentPageNameTag

    center footer UMLDoclet 2.0.14, PlantUML 1.2021.9
@enduml

PlantUML version 1.2021.9(Sun Jul 25 10:13:56 UTC 2021)
(APACHE source distribution)
Java Runtime: Java(TM) SE Runtime Environment
JVM: Java HotSpot(TM) 64-Bit Server VM
Default Encoding: ISO-8859-1
Language: en
Country: US
--></g></svg>