<?xml version="1.0" encoding="UTF-8" standalone="no"?><svg xmlns="http://www.w3.org/2000/svg" xmlns:xlink="http://www.w3.org/1999/xlink" contentScriptType="application/ecmascript" contentStyleType="text/css" height="253px" preserveAspectRatio="none" style="width:193px;height:253px;background:#FFFFFF;" version="1.1" viewBox="0 0 193 253" width="193px" zoomAndPan="magnify"><defs><filter height="300%" id="f8grvuosymzof" width="300%" x="-1" y="-1"><feGaussianBlur result="blurOut" stdDeviation="2.0"/><feColorMatrix in="blurOut" result="blurOut2" type="matrix" values="0 0 0 0 0 0 0 0 0 0 0 0 0 0 0 0 0 0 .4 0"/><feOffset dx="4.0" dy="4.0" in="blurOut2" result="blurOut3"/><feBlend in="SourceGraphic" in2="blurOut3" mode="normal"/></filter></defs><g><!--MD5=[ca1a75ecdb0b7e31fb4ae9771d676b5d]
class org.apache.wiki.tags.UserCheckTag--><a href="UserCheckTag.html" target="_top" title="UserCheckTag.html" xlink:actuate="onRequest" xlink:href="UserCheckTag.html" xlink:show="new" xlink:title="UserCheckTag.html" xlink:type="simple"><rect codeLine="5" fill="#FEFECE" filter="url(#f8grvuosymzof)" height="97.1563" id="org.apache.wiki.tags.UserCheckTag" style="stroke:#A80036;stroke-width:1.5;" width="154" x="19" y="126"/><ellipse cx="43" cy="144.9688" fill="#ADD1B2" rx="11" ry="11" style="stroke:#A80036;stroke-width:1.0;"/><path d="M45.9688,150.6094 Q45.3906,150.9063 44.75,151.0469 Q44.1094,151.2031 43.4063,151.2031 Q40.9063,151.2031 39.5781,149.5625 Q38.2656,147.9063 38.2656,144.7813 Q38.2656,141.6563 39.5781,140 Q40.9063,138.3438 43.4063,138.3438 Q44.1094,138.3438 44.75,138.5 Q45.4063,138.6563 45.9688,138.9531 L45.9688,141.6719 Q45.3438,141.0938 44.75,140.8281 Q44.1563,140.5469 43.5313,140.5469 Q42.1875,140.5469 41.5,141.625 Q40.8125,142.6875 40.8125,144.7813 Q40.8125,146.875 41.5,147.9531 Q42.1875,149.0156 43.5313,149.0156 Q44.1563,149.0156 44.75,148.75 Q45.3438,148.4688 45.9688,147.8906 L45.9688,150.6094 Z " fill="#000000"/><text fill="#000000" font-family="sans-serif" font-size="14" lengthAdjust="spacing" textLength="102" x="59" y="143.9951">UserCheckTag</text><text fill="#000000" font-family="sans-serif" font-size="10" lengthAdjust="spacing" textLength="98" x="61" y="156.5791">org.apache.wiki.tags</text><line style="stroke:#A80036;stroke-width:1.5;" x1="20" x2="172" y1="163.9375" y2="163.9375"/><ellipse cx="30" cy="174.9375" fill="#84BE84" rx="3" ry="3" style="stroke:#038048;stroke-width:1.0;"/><text fill="#000000" font-family="sans-serif" font-size="11" lengthAdjust="spacing" textLength="77" x="39" y="178.1479">initTag(): void</text><ellipse cx="30" cy="187.7422" fill="#84BE84" rx="3" ry="3" style="stroke:#038048;stroke-width:1.0;"/><text fill="#000000" font-family="sans-serif" font-size="11" lengthAdjust="spacing" textLength="105" x="39" y="190.9526">getStatus(): String</text><ellipse cx="30" cy="200.5469" fill="#84BE84" rx="3" ry="3" style="stroke:#038048;stroke-width:1.0;"/><text fill="#000000" font-family="sans-serif" font-size="11" lengthAdjust="spacing" textLength="128" x="39" y="203.7573">setStatus(String): void</text><ellipse cx="30" cy="213.3516" fill="#84BE84" rx="3" ry="3" style="stroke:#038048;stroke-width:1.0;"/><text fill="#000000" font-family="sans-serif" font-size="11" lengthAdjust="spacing" textLength="114" x="39" y="216.562">doWikiStartTag(): int</text></a><!--MD5=[0148d16490ea9d40379f79f2f3eafb9d]
class org.apache.wiki.tags.WikiTagBase--><a href="WikiTagBase.html" target="_top" title="WikiTagBase.html" xlink:actuate="onRequest" xlink:href="WikiTagBase.html" xlink:show="new" xlink:title="WikiTagBase.html" xlink:type="simple"><rect codeLine="12" fill="#FEFECE" filter="url(#f8grvuosymzof)" height="58.7422" id="org.apache.wiki.tags.WikiTagBase" style="stroke:#A80036;stroke-width:1.5;" width="141" x="25.5" y="7"/><ellipse cx="43.65" cy="25.9688" fill="#A9DCDF" rx="11" ry="11" style="stroke:#A80036;stroke-width:1.0;"/><path d="M43.7594,21.3125 L42.6031,26.3906 L44.9313,26.3906 L43.7594,21.3125 Z M42.275,19.0781 L45.2594,19.0781 L48.6188,31.4688 L46.1656,31.4688 L45.4,28.4063 L42.1188,28.4063 L41.3688,31.4688 L38.9313,31.4688 L42.275,19.0781 Z " fill="#000000"/><text fill="#000000" font-family="sans-serif" font-size="14" font-style="italic" lengthAdjust="spacing" textLength="88" x="65.35" y="24.9951">WikiTagBase</text><text fill="#000000" font-family="sans-serif" font-size="10" font-style="italic" lengthAdjust="spacing" textLength="102" x="58.35" y="37.5791">org.apache.wiki.tags</text><line style="stroke:#A80036;stroke-width:1.5;" x1="26.5" x2="165.5" y1="44.9375" y2="44.9375"/><ellipse cx="36.5" cy="55.9375" fill="#84BE84" rx="3" ry="3" style="stroke:#038048;stroke-width:1.0;"/><text fill="#000000" font-family="sans-serif" font-size="11" font-style="italic" lengthAdjust="spacing" textLength="115" x="45.5" y="59.1479">doWikiStartTag(): int</text></a><!--MD5=[0b34c1d4457a58420b02ccbcf2c071ce]
reverse link org.apache.wiki.tags.WikiTagBase to org.apache.wiki.tags.UserCheckTag--><path codeLine="16" d="M96,86.4915 C96,99.3495 96,113.1626 96,125.9464 " fill="none" id="org.apache.wiki.tags.WikiTagBase-backto-org.apache.wiki.tags.UserCheckTag" style="stroke:#A80036;stroke-width:1.0;"/><polygon fill="none" points="89.0001,86.1045,96,66.1045,103.0001,86.1044,89.0001,86.1045" style="stroke:#A80036;stroke-width:1.0;"/><text fill="#888888" font-family="sans-serif" font-size="10" lengthAdjust="spacing" textLength="186" x="0" y="245.4385">UMLDoclet 2.0.14, PlantUML 1.2021.9</text><!--MD5=[421d74ac68906fda41b8bc60e80a157c]
@startuml
    set namespaceSeparator none
    hide empty fields
    hide empty methods

    class "<size:14>UserCheckTag\n<size:10>org.apache.wiki.tags" as org.apache.wiki.tags.UserCheckTag [[UserCheckTag.html]] {
        +initTag(): void
        +getStatus(): String
        +setStatus(String): void
        +doWikiStartTag(): int
    }

    abstract class "<size:14>WikiTagBase\n<size:10>org.apache.wiki.tags" as org.apache.wiki.tags.WikiTagBase [[WikiTagBase.html]] {
        {abstract} +doWikiStartTag(): int
    }

    org.apache.wiki.tags.WikiTagBase <|- - org.apache.wiki.tags.UserCheckTag

    center footer UMLDoclet 2.0.14, PlantUML 1.2021.9
@enduml

PlantUML version 1.2021.9(Sun Jul 25 10:13:56 UTC 2021)
(APACHE source distribution)
Java Runtime: Java(TM) SE Runtime Environment
JVM: Java HotSpot(TM) 64-Bit Server VM
Default Encoding: ISO-8859-1
Language: en
Country: US
--></g></svg>