<?plantuml 1.2026.2?><svg xmlns="http://www.w3.org/2000/svg" xmlns:xlink="http://www.w3.org/1999/xlink" contentStyleType="text/css" data-diagram-type="CLASS" height="173px" preserveAspectRatio="none" style="width:488px;height:173px;background:#FFFFFF;" version="1.1" viewBox="0 0 488 173" width="488px" zoomAndPan="magnify"><defs/><g><!--class org.apache.wiki.workflow.SimpleDecision--><g class="entity" data-qualified-name="org.apache.wiki.workflow.SimpleDecision" data-source-line="13" id="ent0002"><a href="SimpleDecision.html" target="_top" title="SimpleDecision.html" xlink:actuate="onRequest" xlink:href="SimpleDecision.html" xlink:show="new" xlink:title="SimpleDecision.html" xlink:type="simple"><rect fill="#F1F1F1" height="62.2344" rx="2.5" ry="2.5" style="stroke:#181818;stroke-width:0.5;" width="475.4766" x="6" y="86"/><ellipse cx="175.9751" cy="104.9688" fill="#ADD1B2" rx="11" ry="11" style="stroke:#181818;stroke-width:1;"/><path d="M178.9438,110.6094 Q178.3657,110.9063 177.7251,111.0469 Q177.0845,111.2031 176.3813,111.2031 Q173.8813,111.2031 172.5532,109.5625 Q171.2407,107.9063 171.2407,104.7813 Q171.2407,101.6563 172.5532,100 Q173.8813,98.3438 176.3813,98.3438 Q177.0845,98.3438 177.7251,98.5 Q178.3813,98.6563 178.9438,98.9531 L178.9438,101.6719 Q178.3188,101.0938 177.7251,100.8281 Q177.1313,100.5469 176.5063,100.5469 Q175.1626,100.5469 174.4751,101.625 Q173.7876,102.6875 173.7876,104.7813 Q173.7876,106.875 174.4751,107.9531 Q175.1626,109.0156 176.5063,109.0156 Q177.1313,109.0156 177.7251,108.75 Q178.3188,108.4688 178.9438,107.8906 L178.9438,110.6094 Z " fill="#000000"/><text fill="#000000" font-family="sans-serif" font-size="14" lengthAdjust="spacing" textLength="107.4063" x="206.2852" y="103.9951">SimpleDecision</text><text fill="#000000" font-family="sans-serif" font-size="10" lengthAdjust="spacing" textLength="127.0264" x="196.4751" y="116.5791">org.apache.wiki.workflow</text><line style="stroke:#181818;stroke-width:0.5;" x1="7" x2="480.4766" y1="123.9375" y2="123.9375"/></a><g data-visibility-modifier="PUBLIC_METHOD"><a href="SimpleDecision.html" target="_top" title="SimpleDecision.html" xlink:actuate="onRequest" xlink:href="SimpleDecision.html" xlink:show="new" xlink:title="SimpleDecision.html" xlink:type="simple"><ellipse cx="17" cy="137.5859" fill="#84BE84" rx="3" ry="3" style="stroke:#038048;stroke-width:1;"/></a></g><a href="SimpleDecision.html" target="_top" title="SimpleDecision.html" xlink:actuate="onRequest" xlink:href="SimpleDecision.html" xlink:show="new" xlink:title="SimpleDecision.html" xlink:type="simple"><text fill="#000000" font-family="sans-serif" font-size="14" lengthAdjust="spacing" textLength="449.4766" x="26" y="140.9326">SimpleDecision(int, Map&lt;String, Serializable&gt;, String, Principal)</text></a></g><!--class org.apache.wiki.workflow.Decision--><g class="entity" data-qualified-name="org.apache.wiki.workflow.Decision" data-source-line="17" id="ent0003"><a href="Decision.html" target="_top" title="Decision.html" xlink:actuate="onRequest" xlink:href="Decision.html" xlink:show="new" xlink:title="Decision.html" xlink:type="simple"><rect fill="#F1F1F1" height="37.9375" rx="2.5" ry="2.5" style="stroke:#181818;stroke-width:0.5;" width="159.0264" x="164" y="12"/><ellipse cx="179" cy="30.9688" fill="#A9DCDF" rx="11" ry="11" style="stroke:#181818;stroke-width:1;"/><path d="M179.1094,26.3125 L177.9531,31.3906 L180.2813,31.3906 L179.1094,26.3125 Z M177.625,24.0781 L180.6094,24.0781 L183.9688,36.4688 L181.5156,36.4688 L180.75,33.4063 L177.4688,33.4063 L176.7188,36.4688 L174.2813,36.4688 L177.625,24.0781 Z " fill="#000000"/><text fill="#000000" font-family="sans-serif" font-size="14" font-style="italic" lengthAdjust="spacing" textLength="59.6025" x="226.7119" y="29.9951">Decision</text><text fill="#000000" font-family="sans-serif" font-size="10" font-style="italic" lengthAdjust="spacing" textLength="127.0264" x="193" y="42.5791">org.apache.wiki.workflow</text></a></g><g class="link" data-entity-1="ent0003" data-entity-2="ent0002" data-link-type="extension" id="lnk4"><polygon fill="none" points="243.5,50.2267,237.5,68.2267,249.5,68.2267,243.5,50.2267" style="stroke:#181818;stroke-width:1;"/><path d="M243.5,68.2267 C243.5,78.6492 243.5,73.9839 243.5,85.9187" fill="none" style="stroke:#181818;stroke-width:1;"/></g><g class="footer" data-source-line="27"><text fill="#888888" font-family="sans-serif" font-size="10" lengthAdjust="spacing" textLength="3.1787" x="238.4106" y="151.2822">&#160;</text><a href="https://github.com/talsma-ict/umldoclet" target="_top" title="https://github.com/talsma-ict/umldoclet" xlink:actuate="onRequest" xlink:href="https://github.com/talsma-ict/umldoclet" xlink:show="new" xlink:title="https://github.com/talsma-ict/umldoclet" xlink:type="simple"><text fill="#888888" font-family="sans-serif" font-size="10" lengthAdjust="spacing" textLength="82.3096" x="198.8452" y="162.9229">UMLDoclet 2.3.0</text></a></g><?plantuml-src hLDDRzf043sRNp5D3qbKC8QGZo8KAI9LFqIag91B2OTXFTWhrhlkxZY8jFtl7KFI1gIgFLIojDePpvlttiv4Xp1qvThhB6TW1vph07St8q2RGaQMF3Abe0lCAC2SZBDPsFv8W1NdpeDRR6xAUK-XT3RLDeDF-80GNEKLXRZHY0vXyWozml02UhwkWzTE6M8u6Xw_uDDDEcUjRj8zWmcQK21y74xY6kftGJS-YHCGOACLsI1ubKt9RmXTbQZa66qpJNWW7xIpKfFK8BL2vIoZjW5Az1ng9RS6BTSiEt7TEUx2qTLujCigURjXrOGhRx5AuRFxMcrLlYezPaBKuDfL3A4WHekI2CBLOY7-eA8nIJjaiSuwIuqeroa15IMlOQ79f64d91YvarWZKWP3W8D1q8_Kx_Gknxee3LsJqhMkU_kKI2wTpsBSg8zNUgdZbVFBXN6h0n3h_vICT-5WEjqDn3aNPZQ3RuqeUhEREjAMct23vM3CNbw_2MFo6er-nBcXIxa-XM_bKBf4Szo8VeWYd0Vsg1ZsfVqtKI_ax0kH_dyl6tnljVxLCW4S15wBOh5euHpB8DPkHH_M9VcHjikXC_BghozsWdVrn1fjIJP4BIs94JAWuayqQ3_3FQ7Ts-aqPov3lztEDEVLF5QkQFDcFLfQSRigJBfTZRqbcStgeN__Q-_g2MubylKcdVF-QQT_aiIzyqxtz2Gvk_WoVSUgVJSPpdu2?></g></svg>