<?xml version="1.0" encoding="UTF-8" standalone="no"?><svg xmlns="http://www.w3.org/2000/svg" xmlns:xlink="http://www.w3.org/1999/xlink" contentScriptType="application/ecmascript" contentStyleType="text/css" height="214px" preserveAspectRatio="none" style="width:393px;height:214px;" version="1.1" viewBox="0 0 393 214" width="393px" zoomAndPan="magnify"><defs><filter height="300%" id="f1nqrvsua4l22b" width="300%" x="-1" y="-1"><feGaussianBlur result="blurOut" stdDeviation="2.0"/><feColorMatrix in="blurOut" result="blurOut2" type="matrix" values="0 0 0 0 0 0 0 0 0 0 0 0 0 0 0 0 0 0 .4 0"/><feOffset dx="4.0" dy="4.0" in="blurOut2" result="blurOut3"/><feBlend in="SourceGraphic" in2="blurOut3" mode="normal"/></filter></defs><g><!--class Preferences--><a href="Preferences.html" target="_top" xlink:actuate="onRequest" xlink:show="new" xlink:title="Preferences.html" xlink:type="simple"><rect fill="#FEFECE" filter="url(#f1nqrvsua4l22b)" height="172.5234" id="Preferences" style="stroke: #A80036; stroke-width: 1.5;" width="376" x="6" y="8"/><ellipse cx="156.25" cy="24" fill="#ADD1B2" rx="11" ry="11" style="stroke: #A80036; stroke-width: 1.0;"/><path d="M159.0156,19.875 Q159.1719,19.6563 159.3594,19.5469 Q159.5469,19.4375 159.7656,19.4375 Q160.1406,19.4375 160.375,19.6953 Q160.6094,19.9531 160.6094,20.5625 L160.6094,22.0156 Q160.6094,22.625 160.375,22.8906 Q160.1406,23.1563 159.7656,23.1563 Q159.4219,23.1563 159.2188,22.9531 Q159.0156,22.7656 158.9063,22.25 Q158.8594,21.8906 158.6719,21.7031 Q158.3438,21.3281 157.7344,21.1094 Q157.125,20.8906 156.5,20.8906 Q155.7344,20.8906 155.1016,21.2188 Q154.4688,21.5469 153.9766,22.2969 Q153.4844,23.0469 153.4844,24.0781 L153.4844,25.1719 Q153.4844,26.4063 154.375,27.2266 Q155.2656,28.0469 156.8594,28.0469 Q157.7969,28.0469 158.4531,27.7969 Q158.8438,27.6406 159.2656,27.2031 Q159.5313,26.9375 159.6797,26.8594 Q159.8281,26.7813 160.0313,26.7813 Q160.3594,26.7813 160.6172,27.0391 Q160.875,27.2969 160.875,27.6406 Q160.875,27.9844 160.5313,28.3906 Q160.0313,28.9688 159.2344,29.2969 Q158.1563,29.75 156.8594,29.75 Q155.3438,29.75 154.1406,29.125 Q153.1563,28.625 152.4688,27.5547 Q151.7813,26.4844 151.7813,25.2031 L151.7813,24.0469 Q151.7813,22.7188 152.3984,21.5703 Q153.0156,20.4219 154.1094,19.8047 Q155.2031,19.1875 156.4375,19.1875 Q157.1719,19.1875 157.8203,19.3516 Q158.4688,19.5156 159.0156,19.875 Z "/><text fill="#000000" font-family="sans-serif" font-size="12" lengthAdjust="spacingAndGlyphs" textLength="67" x="176.75" y="28.9102">Preferences</text><line style="stroke: #A80036; stroke-width: 1.5;" x1="7" x2="381" y1="40" y2="40"/><ellipse cx="17" cy="52.418" fill="none" rx="3" ry="3" style="stroke: #038048; stroke-width: 1.0;"/><text fill="#000000" font-family="sans-serif" font-size="11" lengthAdjust="spacingAndGlyphs" text-decoration="underline" textLength="110" x="26" y="55.4189">SESSIONPREFS: String</text><line style="stroke: #A80036; stroke-width: 1.5;" x1="7" x2="381" y1="61.8359" y2="61.8359"/><ellipse cx="17" cy="74.2539" fill="#84BE84" rx="3" ry="3" style="stroke: #038048; stroke-width: 1.0;"/><text fill="#000000" font-family="sans-serif" font-size="11" lengthAdjust="spacingAndGlyphs" text-decoration="underline" textLength="182" x="26" y="77.2549">setupPreferences(PageContext): void</text><ellipse cx="17" cy="88.0898" fill="#84BE84" rx="3" ry="3" style="stroke: #038048; stroke-width: 1.0;"/><text fill="#000000" font-family="sans-serif" font-size="11" lengthAdjust="spacingAndGlyphs" text-decoration="underline" textLength="185" x="26" y="91.0908">reloadPreferences(PageContext): void</text><ellipse cx="17" cy="101.9258" fill="#84BE84" rx="3" ry="3" style="stroke: #038048; stroke-width: 1.0;"/><text fill="#000000" font-family="sans-serif" font-size="11" lengthAdjust="spacingAndGlyphs" text-decoration="underline" textLength="201" x="26" y="104.9268">getPreference(WikiContext, String): String</text><ellipse cx="17" cy="115.7617" fill="#84BE84" rx="3" ry="3" style="stroke: #038048; stroke-width: 1.0;"/><text fill="#000000" font-family="sans-serif" font-size="11" lengthAdjust="spacingAndGlyphs" text-decoration="underline" textLength="206" x="26" y="118.7627">getPreference(PageContext, String): String</text><ellipse cx="17" cy="129.5977" fill="#84BE84" rx="3" ry="3" style="stroke: #038048; stroke-width: 1.0;"/><text fill="#000000" font-family="sans-serif" font-size="11" lengthAdjust="spacingAndGlyphs" text-decoration="underline" textLength="149" x="26" y="132.5986">getLocale(WikiContext): Locale</text><ellipse cx="17" cy="143.4336" fill="#84BE84" rx="3" ry="3" style="stroke: #038048; stroke-width: 1.0;"/><text fill="#000000" font-family="sans-serif" font-size="11" lengthAdjust="spacingAndGlyphs" text-decoration="underline" textLength="232" x="26" y="146.4346">getBundle(WikiContext, String): ResourceBundle</text><ellipse cx="17" cy="157.2695" fill="#84BE84" rx="3" ry="3" style="stroke: #038048; stroke-width: 1.0;"/><text fill="#000000" font-family="sans-serif" font-size="11" lengthAdjust="spacingAndGlyphs" text-decoration="underline" textLength="350" x="26" y="160.2705">getDateFormat(WikiContext, Preferences.TimeFormat): SimpleDateFormat</text><ellipse cx="17" cy="171.1055" fill="#84BE84" rx="3" ry="3" style="stroke: #038048; stroke-width: 1.0;"/><text fill="#000000" font-family="sans-serif" font-size="11" lengthAdjust="spacingAndGlyphs" text-decoration="underline" textLength="304" x="26" y="174.1064">renderDate(WikiContext, Date, Preferences.TimeFormat): String</text></a><text fill="#888888" font-family="sans-serif" font-size="10" lengthAdjust="spacingAndGlyphs" textLength="184" x="108" y="201.3809">UMLDoclet 1.1.4, PlantUML 1.2019.05</text><!--
@startuml

    class Preferences [[Preferences.html]] {
        {static} +SESSIONPREFS: String
        {static} +setupPreferences(PageContext): void
        {static} +reloadPreferences(PageContext): void
        {static} +getPreference(WikiContext, String): String
        {static} +getPreference(PageContext, String): String
        {static} +getLocale(WikiContext): Locale
        {static} +getBundle(WikiContext, String): ResourceBundle
        {static} +getDateFormat(WikiContext, Preferences.TimeFormat): SimpleDateFormat
        {static} +renderDate(WikiContext, Date, Preferences.TimeFormat): String
    }


    center footer UMLDoclet 1.1.4, PlantUML 1.2019.05
@enduml

PlantUML version 1.2019.05(Sat Apr 20 18:45:36 CEST 2019)
(APACHE source distribution)
Java Runtime: OpenJDK Runtime Environment
JVM: OpenJDK 64-Bit Server VM
Java Version: 1.8.0_212-b03
Operating System: Windows 10
OS Version: 10.0
Default Encoding: Cp1252
Language: es
Country: ES
--></g></svg>