<?xml version="1.0" encoding="UTF-8" standalone="no"?><svg xmlns="http://www.w3.org/2000/svg" xmlns:xlink="http://www.w3.org/1999/xlink" contentScriptType="application/ecmascript" contentStyleType="text/css" height="186px" preserveAspectRatio="none" style="width:241px;height:186px;" version="1.1" viewBox="0 0 241 186" width="241px" zoomAndPan="magnify"><defs><filter height="300%" id="f1ts7xnewft2h1" width="300%" x="-1" y="-1"><feGaussianBlur result="blurOut" stdDeviation="2.0"/><feColorMatrix in="blurOut" result="blurOut2" type="matrix" values="0 0 0 0 0 0 0 0 0 0 0 0 0 0 0 0 0 0 .4 0"/><feOffset dx="4.0" dy="4.0" in="blurOut2" result="blurOut3"/><feBlend in="SourceGraphic" in2="blurOut3" mode="normal"/></filter></defs><g><!--class BasicPageFilter--><a href="BasicPageFilter.html" target="_top" xlink:actuate="onRequest" xlink:show="new" xlink:title="BasicPageFilter.html" xlink:type="simple"><rect fill="#FEFECE" filter="url(#f1ts7xnewft2h1)" height="144.8516" id="BasicPageFilter" style="stroke: #A80036; stroke-width: 1.5;" width="224" x="6" y="8"/><ellipse cx="70.25" cy="24" fill="#ADD1B2" rx="11" ry="11" style="stroke: #A80036; stroke-width: 1.0;"/><path d="M73.0156,19.875 Q73.1719,19.6563 73.3594,19.5469 Q73.5469,19.4375 73.7656,19.4375 Q74.1406,19.4375 74.375,19.6953 Q74.6094,19.9531 74.6094,20.5625 L74.6094,22.0156 Q74.6094,22.625 74.375,22.8906 Q74.1406,23.1563 73.7656,23.1563 Q73.4219,23.1563 73.2188,22.9531 Q73.0156,22.7656 72.9063,22.25 Q72.8594,21.8906 72.6719,21.7031 Q72.3438,21.3281 71.7344,21.1094 Q71.125,20.8906 70.5,20.8906 Q69.7344,20.8906 69.1016,21.2188 Q68.4688,21.5469 67.9766,22.2969 Q67.4844,23.0469 67.4844,24.0781 L67.4844,25.1719 Q67.4844,26.4063 68.375,27.2266 Q69.2656,28.0469 70.8594,28.0469 Q71.7969,28.0469 72.4531,27.7969 Q72.8438,27.6406 73.2656,27.2031 Q73.5313,26.9375 73.6797,26.8594 Q73.8281,26.7813 74.0313,26.7813 Q74.3594,26.7813 74.6172,27.0391 Q74.875,27.2969 74.875,27.6406 Q74.875,27.9844 74.5313,28.3906 Q74.0313,28.9688 73.2344,29.2969 Q72.1563,29.75 70.8594,29.75 Q69.3438,29.75 68.1406,29.125 Q67.1563,28.625 66.4688,27.5547 Q65.7813,26.4844 65.7813,25.2031 L65.7813,24.0469 Q65.7813,22.7188 66.3984,21.5703 Q67.0156,20.4219 68.1094,19.8047 Q69.2031,19.1875 70.4375,19.1875 Q71.1719,19.1875 71.8203,19.3516 Q72.4688,19.5156 73.0156,19.875 Z "/><text fill="#000000" font-family="sans-serif" font-size="12" lengthAdjust="spacingAndGlyphs" textLength="87" x="90.75" y="28.9102">BasicPageFilter</text><line style="stroke: #A80036; stroke-width: 1.5;" x1="7" x2="229" y1="40" y2="40"/><polygon fill="none" points="17,47.418,21,51.418,17,55.418,13,51.418" style="stroke: #B38D22; stroke-width: 1.0;"/><text fill="#000000" font-family="sans-serif" font-size="11" lengthAdjust="spacingAndGlyphs" textLength="103" x="26" y="55.4189">m_engine: WikiEngine</text><line style="stroke: #A80036; stroke-width: 1.5;" x1="7" x2="229" y1="61.8359" y2="61.8359"/><ellipse cx="17" cy="74.2539" fill="#84BE84" rx="3" ry="3" style="stroke: #038048; stroke-width: 1.0;"/><text fill="#000000" font-family="sans-serif" font-size="11" lengthAdjust="spacingAndGlyphs" textLength="177" x="26" y="77.2549">initialize(WikiEngine, Properties): void</text><ellipse cx="17" cy="88.0898" fill="#84BE84" rx="3" ry="3" style="stroke: #038048; stroke-width: 1.0;"/><text fill="#000000" font-family="sans-serif" font-size="11" lengthAdjust="spacingAndGlyphs" textLength="193" x="26" y="91.0908">preTranslate(WikiContext, String): String</text><ellipse cx="17" cy="101.9258" fill="#84BE84" rx="3" ry="3" style="stroke: #038048; stroke-width: 1.0;"/><text fill="#000000" font-family="sans-serif" font-size="11" lengthAdjust="spacingAndGlyphs" textLength="198" x="26" y="104.9268">postTranslate(WikiContext, String): String</text><ellipse cx="17" cy="115.7617" fill="#84BE84" rx="3" ry="3" style="stroke: #038048; stroke-width: 1.0;"/><text fill="#000000" font-family="sans-serif" font-size="11" lengthAdjust="spacingAndGlyphs" textLength="173" x="26" y="118.7627">preSave(WikiContext, String): String</text><ellipse cx="17" cy="129.5977" fill="#84BE84" rx="3" ry="3" style="stroke: #038048; stroke-width: 1.0;"/><text fill="#000000" font-family="sans-serif" font-size="11" lengthAdjust="spacingAndGlyphs" textLength="170" x="26" y="132.5986">postSave(WikiContext, String): void</text><ellipse cx="17" cy="143.4336" fill="#84BE84" rx="3" ry="3" style="stroke: #038048; stroke-width: 1.0;"/><text fill="#000000" font-family="sans-serif" font-size="11" lengthAdjust="spacingAndGlyphs" textLength="122" x="26" y="146.4346">destroy(WikiEngine): void</text></a><text fill="#888888" font-family="sans-serif" font-size="10" lengthAdjust="spacingAndGlyphs" textLength="184" x="32" y="173.3809">UMLDoclet 1.1.4, PlantUML 1.2019.05</text><!--
@startuml

    class BasicPageFilter [[BasicPageFilter.html]] {
        #m_engine: WikiEngine
        +initialize(WikiEngine, Properties): void
        +preTranslate(WikiContext, String): String
        +postTranslate(WikiContext, String): String
        +preSave(WikiContext, String): String
        +postSave(WikiContext, String): void
        +destroy(WikiEngine): void
    }


    center footer UMLDoclet 1.1.4, PlantUML 1.2019.05
@enduml

PlantUML version 1.2019.05(Sat Apr 20 18:45:36 CEST 2019)
(APACHE source distribution)
Java Runtime: OpenJDK Runtime Environment
JVM: OpenJDK 64-Bit Server VM
Java Version: 1.8.0_212-b03
Operating System: Windows 10
OS Version: 10.0
Default Encoding: Cp1252
Language: es
Country: ES
--></g></svg>