<?xml version="1.0" encoding="UTF-8" standalone="no"?><svg xmlns="http://www.w3.org/2000/svg" xmlns:xlink="http://www.w3.org/1999/xlink" contentScriptType="application/ecmascript" contentStyleType="text/css" height="445px" preserveAspectRatio="none" style="width:3335px;height:445px;" version="1.1" viewBox="0 0 3335 445" width="3335px" zoomAndPan="magnify"><defs><filter height="300%" id="f1ufmt8zwi1fg5" width="300%" x="-1" y="-1"><feGaussianBlur result="blurOut" stdDeviation="2.0"/><feColorMatrix in="blurOut" result="blurOut2" type="matrix" values="0 0 0 0 0 0 0 0 0 0 0 0 0 0 0 0 0 0 .4 0"/><feOffset dx="4.0" dy="4.0" in="blurOut2" result="blurOut3"/><feBlend in="SourceGraphic" in2="blurOut3" mode="normal"/></filter></defs><g><!--cluster org.apache.wiki.markdown.extensions.jspwikilinks.attributeprovider--><polygon fill="#FFFFFF" filter="url(#f1ufmt8zwi1fg5)" points="14,137,560,137,567,159.2969,3313,159.2969,3313,405,14,405,14,137" style="stroke: #000000; stroke-width: 1.5;"/><line style="stroke: #000000; stroke-width: 1.5;" x1="14" x2="567" y1="159.2969" y2="159.2969"/><text fill="#000000" font-family="sans-serif" font-size="14" font-weight="bold" lengthAdjust="spacingAndGlyphs" textLength="540" x="18" y="151.9951">org.apache.wiki.markdown.extensions.jspwikilinks.attributeprovider</text><!--cluster com.vladsch.flexmark.html--><polygon fill="#FFFFFF" filter="url(#f1ufmt8zwi1fg5)" points="1331,16,1547,16,1554,38.2969,1974,38.2969,1974,112,1331,112,1331,16" style="stroke: #000000; stroke-width: 1.5;"/><line style="stroke: #000000; stroke-width: 1.5;" x1="1331" x2="1554" y1="38.2969" y2="38.2969"/><text fill="#000000" font-family="sans-serif" font-size="14" font-weight="bold" lengthAdjust="spacingAndGlyphs" textLength="210" x="1335" y="30.9951">com.vladsch.flexmark.html</text><!--class org.apache.wiki.markdown.extensions.jspwikilinks.attributeprovider.JSPWikiLinkAttributeProviderFactory--><a href="JSPWikiLinkAttributeProviderFactory.html" target="_top" xlink:actuate="onRequest" xlink:show="new" xlink:title="JSPWikiLinkAttributeProviderFactory.html" xlink:type="simple"><rect fill="#FEFECE" filter="url(#f1ufmt8zwi1fg5)" height="73.6094" id="org.apache.wiki.markdown.extensions.jspwikilinks.attributeprovider.JSPWikiLinkAttributeProviderFactory" style="stroke: #A80036; stroke-width: 1.5;" width="295" x="1818.5" y="176.5"/><ellipse cx="1853.3" cy="192.5" fill="#ADD1B2" rx="11" ry="11" style="stroke: #A80036; stroke-width: 1.0;"/><path d="M1856.2688,198.1406 Q1855.6906,198.4375 1855.05,198.5859 Q1854.4094,198.7344 1853.7063,198.7344 Q1851.2063,198.7344 1849.8859,197.0859 Q1848.5656,195.4375 1848.5656,192.3125 Q1848.5656,189.1875 1849.8859,187.5313 Q1851.2063,185.875 1853.7063,185.875 Q1854.4094,185.875 1855.0578,186.0313 Q1855.7063,186.1875 1856.2688,186.4844 L1856.2688,189.2031 Q1855.6438,188.625 1855.05,188.3516 Q1854.4563,188.0781 1853.8313,188.0781 Q1852.4875,188.0781 1851.8,189.1484 Q1851.1125,190.2188 1851.1125,192.3125 Q1851.1125,194.4063 1851.8,195.4766 Q1852.4875,196.5469 1853.8313,196.5469 Q1854.4563,196.5469 1855.05,196.2734 Q1855.6438,196 1856.2688,195.4219 L1856.2688,198.1406 Z "/><text fill="#000000" font-family="sans-serif" font-size="12" lengthAdjust="spacingAndGlyphs" textLength="219" x="1871.7" y="196.6543">JSPWikiLinkAttributeProviderFactory</text><line style="stroke: #A80036; stroke-width: 1.5;" x1="1819.5" x2="2112.5" y1="208.5" y2="208.5"/><line style="stroke: #A80036; stroke-width: 1.5;" x1="1819.5" x2="2112.5" y1="216.5" y2="216.5"/><ellipse cx="1829.5" cy="228.4023" fill="#84BE84" rx="3" ry="3" style="stroke: #038048; stroke-width: 1.0;"/><text fill="#000000" font-family="sans-serif" font-size="11" lengthAdjust="spacingAndGlyphs" textLength="269" x="1838.5" y="230.7104">JSPWikiLinkAttributeProviderFactory(WikiContext)</text><ellipse cx="1829.5" cy="241.207" fill="#84BE84" rx="3" ry="3" style="stroke: #038048; stroke-width: 1.0;"/><text fill="#000000" font-family="sans-serif" font-size="11" lengthAdjust="spacingAndGlyphs" textLength="255" x="1838.5" y="243.5151">apply(LinkResolverContext): AttributeProvider</text></a><!--class org.apache.wiki.markdown.extensions.jspwikilinks.attributeprovider.LocalReadLinkAttributeProviderState--><a href="LocalReadLinkAttributeProviderState.html" target="_top" xlink:actuate="onRequest" xlink:show="new" xlink:title="LocalReadLinkAttributeProviderState.html" xlink:type="simple"><rect fill="#FEFECE" filter="url(#f1ufmt8zwi1fg5)" height="73.6094" id="org.apache.wiki.markdown.extensions.jspwikilinks.attributeprovider.LocalReadLinkAttributeProviderState" style="stroke: #A80036; stroke-width: 1.5;" width="302" x="22" y="323"/><ellipse cx="55.9" cy="339" fill="#ADD1B2" rx="11" ry="11" style="stroke: #A80036; stroke-width: 1.0;"/><path d="M58.8688,344.6406 Q58.2906,344.9375 57.65,345.0859 Q57.0094,345.2344 56.3063,345.2344 Q53.8063,345.2344 52.4859,343.5859 Q51.1656,341.9375 51.1656,338.8125 Q51.1656,335.6875 52.4859,334.0313 Q53.8063,332.375 56.3063,332.375 Q57.0094,332.375 57.6578,332.5313 Q58.3063,332.6875 58.8688,332.9844 L58.8688,335.7031 Q58.2438,335.125 57.65,334.8516 Q57.0563,334.5781 56.4313,334.5781 Q55.0875,334.5781 54.4,335.6484 Q53.7125,336.7188 53.7125,338.8125 Q53.7125,340.9063 54.4,341.9766 Q55.0875,343.0469 56.4313,343.0469 Q57.0563,343.0469 57.65,342.7734 Q58.2438,342.5 58.8688,341.9219 L58.8688,344.6406 Z "/><text fill="#000000" font-family="sans-serif" font-size="12" lengthAdjust="spacingAndGlyphs" textLength="228" x="74.1" y="343.1543">LocalReadLinkAttributeProviderState</text><line style="stroke: #A80036; stroke-width: 1.5;" x1="23" x2="323" y1="355" y2="355"/><line style="stroke: #A80036; stroke-width: 1.5;" x1="23" x2="323" y1="363" y2="363"/><ellipse cx="33" cy="374.9023" fill="#84BE84" rx="3" ry="3" style="stroke: #038048; stroke-width: 1.0;"/><text fill="#000000" font-family="sans-serif" font-size="11" lengthAdjust="spacingAndGlyphs" textLength="276" x="42" y="377.2104">LocalReadLinkAttributeProviderState(WikiContext)</text><ellipse cx="33" cy="387.707" fill="#84BE84" rx="3" ry="3" style="stroke: #038048; stroke-width: 1.0;"/><text fill="#000000" font-family="sans-serif" font-size="11" lengthAdjust="spacingAndGlyphs" textLength="236" x="42" y="390.0151">setAttributes(Attributes, JSPWikiLink): void</text></a><!--class org.apache.wiki.markdown.extensions.jspwikilinks.attributeprovider.LocalFootnoteRefLinkAttributeProviderState--><a href="LocalFootnoteRefLinkAttributeProviderState.html" target="_top" xlink:actuate="onRequest" xlink:show="new" xlink:title="LocalFootnoteRefLinkAttributeProviderState.html" xlink:type="simple"><rect fill="#FEFECE" filter="url(#f1ufmt8zwi1fg5)" height="73.6094" id="org.apache.wiki.markdown.extensions.jspwikilinks.attributeprovider.LocalFootnoteRefLinkAttributeProviderState" style="stroke: #A80036; stroke-width: 1.5;" width="341" x="359.5" y="323"/><ellipse cx="390.7" cy="339" fill="#ADD1B2" rx="11" ry="11" style="stroke: #A80036; stroke-width: 1.0;"/><path d="M393.6688,344.6406 Q393.0906,344.9375 392.45,345.0859 Q391.8094,345.2344 391.1063,345.2344 Q388.6063,345.2344 387.2859,343.5859 Q385.9656,341.9375 385.9656,338.8125 Q385.9656,335.6875 387.2859,334.0313 Q388.6063,332.375 391.1063,332.375 Q391.8094,332.375 392.4578,332.5313 Q393.1063,332.6875 393.6688,332.9844 L393.6688,335.7031 Q393.0438,335.125 392.45,334.8516 Q391.8563,334.5781 391.2313,334.5781 Q389.8875,334.5781 389.2,335.6484 Q388.5125,336.7188 388.5125,338.8125 Q388.5125,340.9063 389.2,341.9766 Q389.8875,343.0469 391.2313,343.0469 Q391.8563,343.0469 392.45,342.7734 Q393.0438,342.5 393.6688,341.9219 L393.6688,344.6406 Z "/><text fill="#000000" font-family="sans-serif" font-size="12" lengthAdjust="spacingAndGlyphs" textLength="273" x="408.3" y="343.1543">LocalFootnoteRefLinkAttributeProviderState</text><line style="stroke: #A80036; stroke-width: 1.5;" x1="360.5" x2="699.5" y1="355" y2="355"/><line style="stroke: #A80036; stroke-width: 1.5;" x1="360.5" x2="699.5" y1="363" y2="363"/><ellipse cx="370.5" cy="374.9023" fill="#84BE84" rx="3" ry="3" style="stroke: #038048; stroke-width: 1.0;"/><text fill="#000000" font-family="sans-serif" font-size="11" lengthAdjust="spacingAndGlyphs" textLength="315" x="379.5" y="377.2104">LocalFootnoteRefLinkAttributeProviderState(WikiContext)</text><ellipse cx="370.5" cy="387.707" fill="#84BE84" rx="3" ry="3" style="stroke: #038048; stroke-width: 1.0;"/><text fill="#000000" font-family="sans-serif" font-size="11" lengthAdjust="spacingAndGlyphs" textLength="236" x="379.5" y="390.0151">setAttributes(Attributes, JSPWikiLink): void</text></a><!--class org.apache.wiki.markdown.extensions.jspwikilinks.attributeprovider.LocalLinkAttributeProviderState--><a href="LocalLinkAttributeProviderState.html" target="_top" xlink:actuate="onRequest" xlink:show="new" xlink:title="LocalLinkAttributeProviderState.html" xlink:type="simple"><rect fill="#FEFECE" filter="url(#f1ufmt8zwi1fg5)" height="73.6094" id="org.apache.wiki.markdown.extensions.jspwikilinks.attributeprovider.LocalLinkAttributeProviderState" style="stroke: #A80036; stroke-width: 1.5;" width="327" x="735.5" y="323"/><ellipse cx="796.75" cy="339" fill="#ADD1B2" rx="11" ry="11" style="stroke: #A80036; stroke-width: 1.0;"/><path d="M799.7188,344.6406 Q799.1406,344.9375 798.5,345.0859 Q797.8594,345.2344 797.1563,345.2344 Q794.6563,345.2344 793.3359,343.5859 Q792.0156,341.9375 792.0156,338.8125 Q792.0156,335.6875 793.3359,334.0313 Q794.6563,332.375 797.1563,332.375 Q797.8594,332.375 798.5078,332.5313 Q799.1563,332.6875 799.7188,332.9844 L799.7188,335.7031 Q799.0938,335.125 798.5,334.8516 Q797.9063,334.5781 797.2813,334.5781 Q795.9375,334.5781 795.25,335.6484 Q794.5625,336.7188 794.5625,338.8125 Q794.5625,340.9063 795.25,341.9766 Q795.9375,343.0469 797.2813,343.0469 Q797.9063,343.0469 798.5,342.7734 Q799.0938,342.5 799.7188,341.9219 L799.7188,344.6406 Z "/><text fill="#000000" font-family="sans-serif" font-size="12" lengthAdjust="spacingAndGlyphs" textLength="196" x="817.25" y="343.1543">LocalLinkAttributeProviderState</text><line style="stroke: #A80036; stroke-width: 1.5;" x1="736.5" x2="1061.5" y1="355" y2="355"/><line style="stroke: #A80036; stroke-width: 1.5;" x1="736.5" x2="1061.5" y1="363" y2="363"/><ellipse cx="746.5" cy="374.9023" fill="#84BE84" rx="3" ry="3" style="stroke: #038048; stroke-width: 1.0;"/><text fill="#000000" font-family="sans-serif" font-size="11" lengthAdjust="spacingAndGlyphs" textLength="301" x="755.5" y="377.2104">LocalLinkAttributeProviderState(WikiContext, boolean)</text><ellipse cx="746.5" cy="387.707" fill="#84BE84" rx="3" ry="3" style="stroke: #038048; stroke-width: 1.0;"/><text fill="#000000" font-family="sans-serif" font-size="11" lengthAdjust="spacingAndGlyphs" textLength="236" x="755.5" y="390.0151">setAttributes(Attributes, JSPWikiLink): void</text></a><!--class org.apache.wiki.markdown.extensions.jspwikilinks.attributeprovider.ImageLinkAttributeProviderState--><a href="ImageLinkAttributeProviderState.html" target="_top" xlink:actuate="onRequest" xlink:show="new" xlink:title="ImageLinkAttributeProviderState.html" xlink:type="simple"><rect fill="#FEFECE" filter="url(#f1ufmt8zwi1fg5)" height="73.6094" id="org.apache.wiki.markdown.extensions.jspwikilinks.attributeprovider.ImageLinkAttributeProviderState" style="stroke: #A80036; stroke-width: 1.5;" width="375" x="1097.5" y="323"/><ellipse cx="1179.75" cy="339" fill="#ADD1B2" rx="11" ry="11" style="stroke: #A80036; stroke-width: 1.0;"/><path d="M1182.7188,344.6406 Q1182.1406,344.9375 1181.5,345.0859 Q1180.8594,345.2344 1180.1563,345.2344 Q1177.6563,345.2344 1176.3359,343.5859 Q1175.0156,341.9375 1175.0156,338.8125 Q1175.0156,335.6875 1176.3359,334.0313 Q1177.6563,332.375 1180.1563,332.375 Q1180.8594,332.375 1181.5078,332.5313 Q1182.1563,332.6875 1182.7188,332.9844 L1182.7188,335.7031 Q1182.0938,335.125 1181.5,334.8516 Q1180.9063,334.5781 1180.2813,334.5781 Q1178.9375,334.5781 1178.25,335.6484 Q1177.5625,336.7188 1177.5625,338.8125 Q1177.5625,340.9063 1178.25,341.9766 Q1178.9375,343.0469 1180.2813,343.0469 Q1180.9063,343.0469 1181.5,342.7734 Q1182.0938,342.5 1182.7188,341.9219 L1182.7188,344.6406 Z "/><text fill="#000000" font-family="sans-serif" font-size="12" lengthAdjust="spacingAndGlyphs" textLength="202" x="1200.25" y="343.1543">ImageLinkAttributeProviderState</text><line style="stroke: #A80036; stroke-width: 1.5;" x1="1098.5" x2="1471.5" y1="355" y2="355"/><line style="stroke: #A80036; stroke-width: 1.5;" x1="1098.5" x2="1471.5" y1="363" y2="363"/><ellipse cx="1108.5" cy="374.9023" fill="#84BE84" rx="3" ry="3" style="stroke: #038048; stroke-width: 1.0;"/><text fill="#000000" font-family="sans-serif" font-size="11" lengthAdjust="spacingAndGlyphs" textLength="349" x="1117.5" y="377.2104">ImageLinkAttributeProviderState(WikiContext, String, boolean)</text><ellipse cx="1108.5" cy="387.707" fill="#84BE84" rx="3" ry="3" style="stroke: #038048; stroke-width: 1.0;"/><text fill="#000000" font-family="sans-serif" font-size="11" lengthAdjust="spacingAndGlyphs" textLength="236" x="1117.5" y="390.0151">setAttributes(Attributes, JSPWikiLink): void</text></a><!--class org.apache.wiki.markdown.extensions.jspwikilinks.attributeprovider.NodeAttributeProviderState--><a href="NodeAttributeProviderState.html" target="_top" xlink:actuate="onRequest" xlink:show="new" xlink:title="NodeAttributeProviderState.html" xlink:type="simple"><rect fill="#FEFECE" filter="url(#f1ufmt8zwi1fg5)" height="60.8047" id="org.apache.wiki.markdown.extensions.jspwikilinks.attributeprovider.NodeAttributeProviderState" style="stroke: #A80036; stroke-width: 1.5;" width="215" x="1568.5" y="183"/><ellipse cx="1583.5" cy="199" fill="#B4A7E5" rx="11" ry="11" style="stroke: #A80036; stroke-width: 1.0;"/><path d="M1579.4219,194.7656 L1579.4219,192.6094 L1586.8125,192.6094 L1586.8125,194.7656 L1584.3438,194.7656 L1584.3438,202.8438 L1586.8125,202.8438 L1586.8125,205 L1579.4219,205 L1579.4219,202.8438 L1581.8906,202.8438 L1581.8906,194.7656 L1579.4219,194.7656 Z "/><text fill="#000000" font-family="sans-serif" font-size="12" font-style="italic" lengthAdjust="spacingAndGlyphs" textLength="172" x="1597.5" y="203.1543">NodeAttributeProviderState</text><rect fill="#FFFFFF" height="15.9688" style="stroke: #000000; stroke-width: 1.0; stroke-dasharray: 2.0,2.0;" width="9" x="1777.5" y="180"/><text fill="#000000" font-family="sans-serif" font-size="12" font-style="italic" lengthAdjust="spacingAndGlyphs" textLength="7" x="1778.5" y="192.1387">T</text><line style="stroke: #A80036; stroke-width: 1.5;" x1="1569.5" x2="1782.5" y1="215" y2="215"/><line style="stroke: #A80036; stroke-width: 1.5;" x1="1569.5" x2="1782.5" y1="223" y2="223"/><ellipse cx="1579.5" cy="234.9023" fill="#84BE84" rx="3" ry="3" style="stroke: #038048; stroke-width: 1.0;"/><text fill="#000000" font-family="sans-serif" font-size="11" font-style="italic" lengthAdjust="spacingAndGlyphs" textLength="182" x="1588.5" y="237.2104">setAttributes(Attributes, T): void</text></a><!--class org.apache.wiki.markdown.extensions.jspwikilinks.attributeprovider.LocalEditLinkAttributeProviderState--><a href="LocalEditLinkAttributeProviderState.html" target="_top" xlink:actuate="onRequest" xlink:show="new" xlink:title="LocalEditLinkAttributeProviderState.html" xlink:type="simple"><rect fill="#FEFECE" filter="url(#f1ufmt8zwi1fg5)" height="73.6094" id="org.apache.wiki.markdown.extensions.jspwikilinks.attributeprovider.LocalEditLinkAttributeProviderState" style="stroke: #A80036; stroke-width: 1.5;" width="337" x="1507.5" y="323"/><ellipse cx="1561.75" cy="339" fill="#ADD1B2" rx="11" ry="11" style="stroke: #A80036; stroke-width: 1.0;"/><path d="M1564.7188,344.6406 Q1564.1406,344.9375 1563.5,345.0859 Q1562.8594,345.2344 1562.1563,345.2344 Q1559.6563,345.2344 1558.3359,343.5859 Q1557.0156,341.9375 1557.0156,338.8125 Q1557.0156,335.6875 1558.3359,334.0313 Q1559.6563,332.375 1562.1563,332.375 Q1562.8594,332.375 1563.5078,332.5313 Q1564.1563,332.6875 1564.7188,332.9844 L1564.7188,335.7031 Q1564.0938,335.125 1563.5,334.8516 Q1562.9063,334.5781 1562.2813,334.5781 Q1560.9375,334.5781 1560.25,335.6484 Q1559.5625,336.7188 1559.5625,338.8125 Q1559.5625,340.9063 1560.25,341.9766 Q1560.9375,343.0469 1562.2813,343.0469 Q1562.9063,343.0469 1563.5,342.7734 Q1564.0938,342.5 1564.7188,341.9219 L1564.7188,344.6406 Z "/><text fill="#000000" font-family="sans-serif" font-size="12" lengthAdjust="spacingAndGlyphs" textLength="220" x="1582.25" y="343.1543">LocalEditLinkAttributeProviderState</text><line style="stroke: #A80036; stroke-width: 1.5;" x1="1508.5" x2="1843.5" y1="355" y2="355"/><line style="stroke: #A80036; stroke-width: 1.5;" x1="1508.5" x2="1843.5" y1="363" y2="363"/><ellipse cx="1518.5" cy="374.9023" fill="#84BE84" rx="3" ry="3" style="stroke: #038048; stroke-width: 1.0;"/><text fill="#000000" font-family="sans-serif" font-size="11" lengthAdjust="spacingAndGlyphs" textLength="311" x="1527.5" y="377.2104">LocalEditLinkAttributeProviderState(WikiContext, String)</text><ellipse cx="1518.5" cy="387.707" fill="#84BE84" rx="3" ry="3" style="stroke: #038048; stroke-width: 1.0;"/><text fill="#000000" font-family="sans-serif" font-size="11" lengthAdjust="spacingAndGlyphs" textLength="236" x="1527.5" y="390.0151">setAttributes(Attributes, JSPWikiLink): void</text></a><!--class org.apache.wiki.markdown.extensions.jspwikilinks.attributeprovider.ExternalLinkAttributeProviderState--><a href="ExternalLinkAttributeProviderState.html" target="_top" xlink:actuate="onRequest" xlink:show="new" xlink:title="ExternalLinkAttributeProviderState.html" xlink:type="simple"><rect fill="#FEFECE" filter="url(#f1ufmt8zwi1fg5)" height="73.6094" id="org.apache.wiki.markdown.extensions.jspwikilinks.attributeprovider.ExternalLinkAttributeProviderState" style="stroke: #A80036; stroke-width: 1.5;" width="344" x="1880" y="323"/><ellipse cx="1940.25" cy="339" fill="#ADD1B2" rx="11" ry="11" style="stroke: #A80036; stroke-width: 1.0;"/><path d="M1943.2188,344.6406 Q1942.6406,344.9375 1942,345.0859 Q1941.3594,345.2344 1940.6563,345.2344 Q1938.1563,345.2344 1936.8359,343.5859 Q1935.5156,341.9375 1935.5156,338.8125 Q1935.5156,335.6875 1936.8359,334.0313 Q1938.1563,332.375 1940.6563,332.375 Q1941.3594,332.375 1942.0078,332.5313 Q1942.6563,332.6875 1943.2188,332.9844 L1943.2188,335.7031 Q1942.5938,335.125 1942,334.8516 Q1941.4063,334.5781 1940.7813,334.5781 Q1939.4375,334.5781 1938.75,335.6484 Q1938.0625,336.7188 1938.0625,338.8125 Q1938.0625,340.9063 1938.75,341.9766 Q1939.4375,343.0469 1940.7813,343.0469 Q1941.4063,343.0469 1942,342.7734 Q1942.5938,342.5 1943.2188,341.9219 L1943.2188,344.6406 Z "/><text fill="#000000" font-family="sans-serif" font-size="12" lengthAdjust="spacingAndGlyphs" textLength="215" x="1960.75" y="343.1543">ExternalLinkAttributeProviderState</text><line style="stroke: #A80036; stroke-width: 1.5;" x1="1881" x2="2223" y1="355" y2="355"/><line style="stroke: #A80036; stroke-width: 1.5;" x1="1881" x2="2223" y1="363" y2="363"/><ellipse cx="1891" cy="374.9023" fill="#84BE84" rx="3" ry="3" style="stroke: #038048; stroke-width: 1.0;"/><text fill="#000000" font-family="sans-serif" font-size="11" lengthAdjust="spacingAndGlyphs" textLength="318" x="1900" y="377.2104">ExternalLinkAttributeProviderState(WikiContext, boolean)</text><ellipse cx="1891" cy="387.707" fill="#84BE84" rx="3" ry="3" style="stroke: #038048; stroke-width: 1.0;"/><text fill="#000000" font-family="sans-serif" font-size="11" lengthAdjust="spacingAndGlyphs" textLength="236" x="1900" y="390.0151">setAttributes(Attributes, JSPWikiLink): void</text></a><!--class org.apache.wiki.markdown.extensions.jspwikilinks.attributeprovider.WysiwygEditingAttributeProviderState--><a href="WysiwygEditingAttributeProviderState.html" target="_top" xlink:actuate="onRequest" xlink:show="new" xlink:title="WysiwygEditingAttributeProviderState.html" xlink:type="simple"><rect fill="#FEFECE" filter="url(#f1ufmt8zwi1fg5)" height="73.6094" id="org.apache.wiki.markdown.extensions.jspwikilinks.attributeprovider.WysiwygEditingAttributeProviderState" style="stroke: #A80036; stroke-width: 1.5;" width="308" x="2259" y="323"/><ellipse cx="2293.35" cy="339" fill="#ADD1B2" rx="11" ry="11" style="stroke: #A80036; stroke-width: 1.0;"/><path d="M2296.3188,344.6406 Q2295.7406,344.9375 2295.1,345.0859 Q2294.4594,345.2344 2293.7563,345.2344 Q2291.2563,345.2344 2289.9359,343.5859 Q2288.6156,341.9375 2288.6156,338.8125 Q2288.6156,335.6875 2289.9359,334.0313 Q2291.2563,332.375 2293.7563,332.375 Q2294.4594,332.375 2295.1078,332.5313 Q2295.7563,332.6875 2296.3188,332.9844 L2296.3188,335.7031 Q2295.6938,335.125 2295.1,334.8516 Q2294.5063,334.5781 2293.8813,334.5781 Q2292.5375,334.5781 2291.85,335.6484 Q2291.1625,336.7188 2291.1625,338.8125 Q2291.1625,340.9063 2291.85,341.9766 Q2292.5375,343.0469 2293.8813,343.0469 Q2294.5063,343.0469 2295.1,342.7734 Q2295.6938,342.5 2296.3188,341.9219 L2296.3188,344.6406 Z "/><text fill="#000000" font-family="sans-serif" font-size="12" lengthAdjust="spacingAndGlyphs" textLength="233" x="2311.65" y="343.1543">WysiwygEditingAttributeProviderState</text><line style="stroke: #A80036; stroke-width: 1.5;" x1="2260" x2="2566" y1="355" y2="355"/><line style="stroke: #A80036; stroke-width: 1.5;" x1="2260" x2="2566" y1="363" y2="363"/><ellipse cx="2270" cy="374.9023" fill="#84BE84" rx="3" ry="3" style="stroke: #038048; stroke-width: 1.0;"/><text fill="#000000" font-family="sans-serif" font-size="11" lengthAdjust="spacingAndGlyphs" textLength="282" x="2279" y="377.2104">WysiwygEditingAttributeProviderState(WikiContext)</text><ellipse cx="2270" cy="387.707" fill="#84BE84" rx="3" ry="3" style="stroke: #038048; stroke-width: 1.0;"/><text fill="#000000" font-family="sans-serif" font-size="11" lengthAdjust="spacingAndGlyphs" textLength="236" x="2279" y="390.0151">setAttributes(Attributes, JSPWikiLink): void</text></a><!--class org.apache.wiki.markdown.extensions.jspwikilinks.attributeprovider.LocalFootnoteLinkAttributeProviderState--><a href="LocalFootnoteLinkAttributeProviderState.html" target="_top" xlink:actuate="onRequest" xlink:show="new" xlink:title="LocalFootnoteLinkAttributeProviderState.html" xlink:type="simple"><rect fill="#FEFECE" filter="url(#f1ufmt8zwi1fg5)" height="73.6094" id="org.apache.wiki.markdown.extensions.jspwikilinks.attributeprovider.LocalFootnoteLinkAttributeProviderState" style="stroke: #A80036; stroke-width: 1.5;" width="323" x="2602.5" y="323"/><ellipse cx="2634.6" cy="339" fill="#ADD1B2" rx="11" ry="11" style="stroke: #A80036; stroke-width: 1.0;"/><path d="M2637.5688,344.6406 Q2636.9906,344.9375 2636.35,345.0859 Q2635.7094,345.2344 2635.0063,345.2344 Q2632.5063,345.2344 2631.1859,343.5859 Q2629.8656,341.9375 2629.8656,338.8125 Q2629.8656,335.6875 2631.1859,334.0313 Q2632.5063,332.375 2635.0063,332.375 Q2635.7094,332.375 2636.3578,332.5313 Q2637.0063,332.6875 2637.5688,332.9844 L2637.5688,335.7031 Q2636.9438,335.125 2636.35,334.8516 Q2635.7563,334.5781 2635.1313,334.5781 Q2633.7875,334.5781 2633.1,335.6484 Q2632.4125,336.7188 2632.4125,338.8125 Q2632.4125,340.9063 2633.1,341.9766 Q2633.7875,343.0469 2635.1313,343.0469 Q2635.7563,343.0469 2636.35,342.7734 Q2636.9438,342.5 2637.5688,341.9219 L2637.5688,344.6406 Z "/><text fill="#000000" font-family="sans-serif" font-size="12" lengthAdjust="spacingAndGlyphs" textLength="253" x="2652.4" y="343.1543">LocalFootnoteLinkAttributeProviderState</text><line style="stroke: #A80036; stroke-width: 1.5;" x1="2603.5" x2="2924.5" y1="355" y2="355"/><line style="stroke: #A80036; stroke-width: 1.5;" x1="2603.5" x2="2924.5" y1="363" y2="363"/><ellipse cx="2613.5" cy="374.9023" fill="#84BE84" rx="3" ry="3" style="stroke: #038048; stroke-width: 1.0;"/><text fill="#000000" font-family="sans-serif" font-size="11" lengthAdjust="spacingAndGlyphs" textLength="297" x="2622.5" y="377.2104">LocalFootnoteLinkAttributeProviderState(WikiContext)</text><ellipse cx="2613.5" cy="387.707" fill="#84BE84" rx="3" ry="3" style="stroke: #038048; stroke-width: 1.0;"/><text fill="#000000" font-family="sans-serif" font-size="11" lengthAdjust="spacingAndGlyphs" textLength="236" x="2622.5" y="390.0151">setAttributes(Attributes, JSPWikiLink): void</text></a><!--class org.apache.wiki.markdown.extensions.jspwikilinks.attributeprovider.JSPWikiLinkAttributeProvider--><a href="JSPWikiLinkAttributeProvider.html" target="_top" xlink:actuate="onRequest" xlink:show="new" xlink:title="JSPWikiLinkAttributeProvider.html" xlink:type="simple"><rect fill="#FEFECE" filter="url(#f1ufmt8zwi1fg5)" height="99.2188" id="org.apache.wiki.markdown.extensions.jspwikilinks.attributeprovider.JSPWikiLinkAttributeProvider" style="stroke: #A80036; stroke-width: 1.5;" width="326" x="1207" y="164"/><ellipse cx="1279.25" cy="180" fill="#ADD1B2" rx="11" ry="11" style="stroke: #A80036; stroke-width: 1.0;"/><path d="M1282.2188,185.6406 Q1281.6406,185.9375 1281,186.0859 Q1280.3594,186.2344 1279.6563,186.2344 Q1277.1563,186.2344 1275.8359,184.5859 Q1274.5156,182.9375 1274.5156,179.8125 Q1274.5156,176.6875 1275.8359,175.0313 Q1277.1563,173.375 1279.6563,173.375 Q1280.3594,173.375 1281.0078,173.5313 Q1281.6563,173.6875 1282.2188,173.9844 L1282.2188,176.7031 Q1281.5938,176.125 1281,175.8516 Q1280.4063,175.5781 1279.7813,175.5781 Q1278.4375,175.5781 1277.75,176.6484 Q1277.0625,177.7188 1277.0625,179.8125 Q1277.0625,181.9063 1277.75,182.9766 Q1278.4375,184.0469 1279.7813,184.0469 Q1280.4063,184.0469 1281,183.7734 Q1281.5938,183.5 1282.2188,182.9219 L1282.2188,185.6406 Z "/><text fill="#000000" font-family="sans-serif" font-size="12" lengthAdjust="spacingAndGlyphs" textLength="173" x="1299.75" y="184.1543">JSPWikiLinkAttributeProvider</text><line style="stroke: #A80036; stroke-width: 1.5;" x1="1208" x2="1532" y1="196" y2="196"/><polygon fill="none" points="1218,202.9023,1222,206.9023,1218,210.9023,1214,206.9023" style="stroke: #B38D22; stroke-width: 1.0;"/><text fill="#000000" font-family="sans-serif" font-size="11" lengthAdjust="spacingAndGlyphs" textLength="136" x="1227" y="210.2104">wikiContext: WikiContext</text><polygon fill="none" points="1218,215.707,1222,219.707,1218,223.707,1214,219.707" style="stroke: #B38D22; stroke-width: 1.0;"/><text fill="#000000" font-family="sans-serif" font-size="11" lengthAdjust="spacingAndGlyphs" textLength="218" x="1227" y="223.0151">linkOperations: LinkParsingOperations</text><line style="stroke: #A80036; stroke-width: 1.5;" x1="1208" x2="1532" y1="229.6094" y2="229.6094"/><ellipse cx="1218" cy="241.5117" fill="#84BE84" rx="3" ry="3" style="stroke: #038048; stroke-width: 1.0;"/><text fill="#000000" font-family="sans-serif" font-size="11" lengthAdjust="spacingAndGlyphs" textLength="228" x="1227" y="243.8198">JSPWikiLinkAttributeProvider(WikiContext)</text><ellipse cx="1218" cy="254.3164" fill="#84BE84" rx="3" ry="3" style="stroke: #038048; stroke-width: 1.0;"/><text fill="#000000" font-family="sans-serif" font-size="11" lengthAdjust="spacingAndGlyphs" textLength="300" x="1227" y="256.6245">setAttributes(Node, AttributablePart, Attributes): void</text></a><!--class org.apache.wiki.markdown.extensions.jspwikilinks.attributeprovider.InterWikiLinkAttributeProviderState--><a href="InterWikiLinkAttributeProviderState.html" target="_top" xlink:actuate="onRequest" xlink:show="new" xlink:title="InterWikiLinkAttributeProviderState.html" xlink:type="simple"><rect fill="#FEFECE" filter="url(#f1ufmt8zwi1fg5)" height="73.6094" id="org.apache.wiki.markdown.extensions.jspwikilinks.attributeprovider.InterWikiLinkAttributeProviderState" style="stroke: #A80036; stroke-width: 1.5;" width="345" x="2960.5" y="323"/><ellipse cx="3020.25" cy="339" fill="#ADD1B2" rx="11" ry="11" style="stroke: #A80036; stroke-width: 1.0;"/><path d="M3023.2188,344.6406 Q3022.6406,344.9375 3022,345.0859 Q3021.3594,345.2344 3020.6563,345.2344 Q3018.1563,345.2344 3016.8359,343.5859 Q3015.5156,341.9375 3015.5156,338.8125 Q3015.5156,335.6875 3016.8359,334.0313 Q3018.1563,332.375 3020.6563,332.375 Q3021.3594,332.375 3022.0078,332.5313 Q3022.6563,332.6875 3023.2188,332.9844 L3023.2188,335.7031 Q3022.5938,335.125 3022,334.8516 Q3021.4063,334.5781 3020.7813,334.5781 Q3019.4375,334.5781 3018.75,335.6484 Q3018.0625,336.7188 3018.0625,338.8125 Q3018.0625,340.9063 3018.75,341.9766 Q3019.4375,343.0469 3020.7813,343.0469 Q3021.4063,343.0469 3022,342.7734 Q3022.5938,342.5 3023.2188,341.9219 L3023.2188,344.6406 Z "/><text fill="#000000" font-family="sans-serif" font-size="12" lengthAdjust="spacingAndGlyphs" textLength="217" x="3040.75" y="343.1543">InterWikiLinkAttributeProviderState</text><line style="stroke: #A80036; stroke-width: 1.5;" x1="2961.5" x2="3304.5" y1="355" y2="355"/><line style="stroke: #A80036; stroke-width: 1.5;" x1="2961.5" x2="3304.5" y1="363" y2="363"/><ellipse cx="2971.5" cy="374.9023" fill="#84BE84" rx="3" ry="3" style="stroke: #038048; stroke-width: 1.0;"/><text fill="#000000" font-family="sans-serif" font-size="11" lengthAdjust="spacingAndGlyphs" textLength="319" x="2980.5" y="377.2104">InterWikiLinkAttributeProviderState(WikiContext, boolean)</text><ellipse cx="2971.5" cy="387.707" fill="#84BE84" rx="3" ry="3" style="stroke: #038048; stroke-width: 1.0;"/><text fill="#000000" font-family="sans-serif" font-size="11" lengthAdjust="spacingAndGlyphs" textLength="236" x="2980.5" y="390.0151">setAttributes(Attributes, JSPWikiLink): void</text></a><!--class com.vladsch.flexmark.html.IndependentAttributeProviderFactory--><rect fill="#FEFECE" filter="url(#f1ufmt8zwi1fg5)" height="48" id="com.vladsch.flexmark.html.IndependentAttributeProviderFactory" style="stroke: #A80036; stroke-width: 1.5;" width="265" x="1700.5" y="49.5"/><ellipse cx="1715.5" cy="65.5" fill="#A9DCDF" rx="11" ry="11" style="stroke: #A80036; stroke-width: 1.0;"/><path d="M1715.6094,60.8438 L1714.4531,65.9219 L1716.7813,65.9219 L1715.6094,60.8438 Z M1714.125,58.6094 L1717.1094,58.6094 L1720.4688,71 L1718.0156,71 L1717.25,67.9375 L1713.9688,67.9375 L1713.2188,71 L1710.7813,71 L1714.125,58.6094 Z "/><text fill="#000000" font-family="sans-serif" font-size="12" font-style="italic" lengthAdjust="spacingAndGlyphs" textLength="233" x="1729.5" y="69.6543">IndependentAttributeProviderFactory</text><line style="stroke: #A80036; stroke-width: 1.5;" x1="1701.5" x2="1964.5" y1="81.5" y2="81.5"/><line style="stroke: #A80036; stroke-width: 1.5;" x1="1701.5" x2="1964.5" y1="89.5" y2="89.5"/><!--class com.vladsch.flexmark.html.AttributeProvider--><rect fill="#FEFECE" filter="url(#f1ufmt8zwi1fg5)" height="60.8047" id="com.vladsch.flexmark.html.AttributeProvider" style="stroke: #A80036; stroke-width: 1.5;" width="327" x="1338.5" y="43"/><ellipse cx="1445.25" cy="59" fill="#B4A7E5" rx="11" ry="11" style="stroke: #A80036; stroke-width: 1.0;"/><path d="M1441.1719,54.7656 L1441.1719,52.6094 L1448.5625,52.6094 L1448.5625,54.7656 L1446.0938,54.7656 L1446.0938,62.8438 L1448.5625,62.8438 L1448.5625,65 L1441.1719,65 L1441.1719,62.8438 L1443.6406,62.8438 L1443.6406,54.7656 L1441.1719,54.7656 Z "/><text fill="#000000" font-family="sans-serif" font-size="12" font-style="italic" lengthAdjust="spacingAndGlyphs" textLength="105" x="1465.75" y="63.1543">AttributeProvider</text><line style="stroke: #A80036; stroke-width: 1.5;" x1="1339.5" x2="1664.5" y1="75" y2="75"/><line style="stroke: #A80036; stroke-width: 1.5;" x1="1339.5" x2="1664.5" y1="83" y2="83"/><ellipse cx="1349.5" cy="94.9023" fill="#84BE84" rx="3" ry="3" style="stroke: #038048; stroke-width: 1.0;"/><text fill="#000000" font-family="sans-serif" font-size="11" font-style="italic" lengthAdjust="spacingAndGlyphs" textLength="301" x="1358.5" y="97.2104">setAttributes(Node, AttributablePart, Attributes): void</text><!--link com.vladsch.flexmark.html.IndependentAttributeProviderFactory to org.apache.wiki.markdown.extensions.jspwikilinks.attributeprovider.JSPWikiLinkAttributeProviderFactory--><path d="M1869.7748,112.2104 C1888.7926,132.229 1911.8941,156.5465 1930.6947,176.3365 " fill="none" id="com.vladsch.flexmark.html.IndependentAttributeProviderFactory-org.apache.wiki.markdown.extensions.jspwikilinks.attributeprovider.JSPWikiLinkAttributeProviderFactory" style="stroke: #A80036; stroke-width: 1.0;"/><polygon fill="none" points="1864.5635,116.8881,1855.8635,97.5669,1874.7135,107.2456,1864.5635,116.8881" style="stroke: #A80036; stroke-width: 1.0;"/><!--link org.apache.wiki.markdown.extensions.jspwikilinks.attributeprovider.NodeAttributeProviderState to org.apache.wiki.markdown.extensions.jspwikilinks.attributeprovider.LocalReadLinkAttributeProviderState--><path d="M1591.3954,251.2765 C1578.0963,255.9615 1564.3343,260.1116 1551,263 C1025.1999,376.8967 875.2746,251.8918 342,323 C336.1945,323.7741 330.2929,324.645 324.3435,325.5934 " fill="none" id="org.apache.wiki.markdown.extensions.jspwikilinks.attributeprovider.NodeAttributeProviderState-org.apache.wiki.markdown.extensions.jspwikilinks.attributeprovider.LocalReadLinkAttributeProviderState" style="stroke: #A80036; stroke-width: 1.0; stroke-dasharray: 7.0,7.0;"/><polygon fill="none" points="1589.2612,244.6005,1610.4453,244.1143,1594.1881,257.7049,1589.2612,244.6005" style="stroke: #A80036; stroke-width: 1.0;"/><!--link org.apache.wiki.markdown.extensions.jspwikilinks.attributeprovider.NodeAttributeProviderState to org.apache.wiki.markdown.extensions.jspwikilinks.attributeprovider.LocalFootnoteRefLinkAttributeProviderState--><path d="M1590.8778,251.1736 C1577.7293,255.8292 1564.1483,259.9979 1551,263 C1189.1315,345.6244 1085.8976,273.7361 718,323 C712.3126,323.7616 706.538,324.5885 700.7138,325.4686 " fill="none" id="org.apache.wiki.markdown.extensions.jspwikilinks.attributeprovider.NodeAttributeProviderState-org.apache.wiki.markdown.extensions.jspwikilinks.attributeprovider.LocalFootnoteRefLinkAttributeProviderState" style="stroke: #A80036; stroke-width: 1.0; stroke-dasharray: 7.0,7.0;"/><polygon fill="none" points="1588.5476,244.5713,1609.7317,244.0832,1593.4757,257.6753,1588.5476,244.5713" style="stroke: #A80036; stroke-width: 1.0;"/><!--link org.apache.wiki.markdown.extensions.jspwikilinks.attributeprovider.NodeAttributeProviderState to org.apache.wiki.markdown.extensions.jspwikilinks.attributeprovider.LocalLinkAttributeProviderState--><path d="M1589.1297,251.1004 C1576.5027,255.6239 1563.534,259.7744 1551,263 C1346.6337,315.5927 1288.1875,288.5106 1080,323 C1074.3044,323.9436 1068.5149,324.9374 1062.6729,325.9697 " fill="none" id="org.apache.wiki.markdown.extensions.jspwikilinks.attributeprovider.NodeAttributeProviderState-org.apache.wiki.markdown.extensions.jspwikilinks.attributeprovider.LocalLinkAttributeProviderState" style="stroke: #A80036; stroke-width: 1.0; stroke-dasharray: 7.0,7.0;"/><polygon fill="none" points="1586.7465,244.518,1607.9303,244.0204,1591.6804,257.6198,1586.7465,244.518" style="stroke: #A80036; stroke-width: 1.0;"/><!--link org.apache.wiki.markdown.extensions.jspwikilinks.attributeprovider.NodeAttributeProviderState to org.apache.wiki.markdown.extensions.jspwikilinks.attributeprovider.ImageLinkAttributeProviderState--><path d="M1581.0652,251.4083 C1570.9307,255.3612 1560.7622,259.2879 1551,263 C1497.5881,283.3098 1437.8337,305.1764 1388.511,322.9978 " fill="none" id="org.apache.wiki.markdown.extensions.jspwikilinks.attributeprovider.NodeAttributeProviderState-org.apache.wiki.markdown.extensions.jspwikilinks.attributeprovider.ImageLinkAttributeProviderState" style="stroke: #A80036; stroke-width: 1.0; stroke-dasharray: 7.0,7.0;"/><polygon fill="none" points="1578.6037,244.8546,1599.7787,244.0676,1583.7162,257.8878,1578.6037,244.8546" style="stroke: #A80036; stroke-width: 1.0;"/><!--link org.apache.wiki.markdown.extensions.jspwikilinks.attributeprovider.NodeAttributeProviderState to org.apache.wiki.markdown.extensions.jspwikilinks.attributeprovider.LocalEditLinkAttributeProviderState--><path d="M1676,264.2786 C1676,283.5284 1676,305.0707 1676,322.8373 " fill="none" id="org.apache.wiki.markdown.extensions.jspwikilinks.attributeprovider.NodeAttributeProviderState-org.apache.wiki.markdown.extensions.jspwikilinks.attributeprovider.LocalEditLinkAttributeProviderState" style="stroke: #A80036; stroke-width: 1.0; stroke-dasharray: 7.0,7.0;"/><polygon fill="none" points="1669.0001,264.2112,1676,244.2112,1683.0001,264.2112,1669.0001,264.2112" style="stroke: #A80036; stroke-width: 1.0;"/><!--link org.apache.wiki.markdown.extensions.jspwikilinks.attributeprovider.NodeAttributeProviderState to org.apache.wiki.markdown.extensions.jspwikilinks.attributeprovider.ExternalLinkAttributeProviderState--><path d="M1771.8059,251.5327 C1781.6614,255.417 1791.5292,259.2948 1801,263 C1852.0111,282.9565 1908.9478,304.9804 1955.6815,322.9915 " fill="none" id="org.apache.wiki.markdown.extensions.jspwikilinks.attributeprovider.NodeAttributeProviderState-org.apache.wiki.markdown.extensions.jspwikilinks.attributeprovider.ExternalLinkAttributeProviderState" style="stroke: #A80036; stroke-width: 1.0; stroke-dasharray: 7.0,7.0;"/><polygon fill="none" points="1769.0083,257.954,1752.9764,244.0984,1774.1496,244.9322,1769.0083,257.954" style="stroke: #A80036; stroke-width: 1.0;"/><!--link org.apache.wiki.markdown.extensions.jspwikilinks.attributeprovider.NodeAttributeProviderState to org.apache.wiki.markdown.extensions.jspwikilinks.attributeprovider.WysiwygEditingAttributeProviderState--><path d="M1763.5657,251.2425 C1775.9772,255.6879 1788.7012,259.7791 1801,263 C1992.3524,313.1135 2047.1865,288.7247 2242,323 C2247.5343,323.9737 2253.1617,324.9999 2258.8399,326.0659 " fill="none" id="org.apache.wiki.markdown.extensions.jspwikilinks.attributeprovider.NodeAttributeProviderState-org.apache.wiki.markdown.extensions.jspwikilinks.attributeprovider.WysiwygEditingAttributeProviderState" style="stroke: #A80036; stroke-width: 1.0; stroke-dasharray: 7.0,7.0;"/><polygon fill="none" points="1760.6783,257.6353,1744.4252,244.0397,1765.6091,244.5323,1760.6783,257.6353" style="stroke: #A80036; stroke-width: 1.0;"/><!--link org.apache.wiki.markdown.extensions.jspwikilinks.attributeprovider.NodeAttributeProviderState to org.apache.wiki.markdown.extensions.jspwikilinks.attributeprovider.LocalFootnoteLinkAttributeProviderState--><path d="M1761.1343,251.1207 C1774.2811,255.7837 1787.8584,259.9684 1801,263 C2141.5204,341.5525 2238.961,274.1976 2585,323 C2590.656,323.7977 2596.4016,324.6661 2602.1962,325.5914 " fill="none" id="org.apache.wiki.markdown.extensions.jspwikilinks.attributeprovider.NodeAttributeProviderState-org.apache.wiki.markdown.extensions.jspwikilinks.attributeprovider.LocalFootnoteLinkAttributeProviderState" style="stroke: #A80036; stroke-width: 1.0; stroke-dasharray: 7.0,7.0;"/><polygon fill="none" points="1758.5341,257.6215,1742.2816,244.0253,1763.4655,244.5187,1758.5341,257.6215" style="stroke: #A80036; stroke-width: 1.0;"/><!--link com.vladsch.flexmark.html.AttributeProvider to org.apache.wiki.markdown.extensions.jspwikilinks.attributeprovider.JSPWikiLinkAttributeProvider--><path d="M1459.0738,119.0278 C1445.5584,133.3623 1430.5663,149.263 1416.7959,163.868 " fill="none" id="com.vladsch.flexmark.html.AttributeProvider-org.apache.wiki.markdown.extensions.jspwikilinks.attributeprovider.JSPWikiLinkAttributeProvider" style="stroke: #A80036; stroke-width: 1.0; stroke-dasharray: 7.0,7.0;"/><polygon fill="none" points="1454.2186,113.9733,1473.032,104.2236,1464.4049,123.5775,1454.2186,113.9733" style="stroke: #A80036; stroke-width: 1.0;"/><!--link org.apache.wiki.markdown.extensions.jspwikilinks.attributeprovider.NodeAttributeProviderState to org.apache.wiki.markdown.extensions.jspwikilinks.attributeprovider.InterWikiLinkAttributeProviderState--><path d="M1760.6121,251.2419 C1773.9102,255.9316 1787.6699,260.0922 1801,263 C2297.5784,371.3219 2438.5476,260.9395 2943,323 C2948.7536,323.7078 2954.5945,324.4883 2960.4848,325.3283 " fill="none" id="org.apache.wiki.markdown.extensions.jspwikilinks.attributeprovider.NodeAttributeProviderState-org.apache.wiki.markdown.extensions.jspwikilinks.attributeprovider.InterWikiLinkAttributeProviderState" style="stroke: #A80036; stroke-width: 1.0; stroke-dasharray: 7.0,7.0;"/><polygon fill="none" points="1757.818,257.6698,1741.5629,244.0766,1762.7469,244.5661,1757.818,257.6698" style="stroke: #A80036; stroke-width: 1.0;"/><text fill="#888888" font-family="sans-serif" font-size="10" lengthAdjust="spacingAndGlyphs" textLength="186" x="1576.5" y="432.2822">UMLDoclet 1.1.4, PlantUML 1.2019.05</text><!--
@startuml

    namespace org.apache.wiki.markdown.extensions.jspwikilinks.attributeprovider {

        class JSPWikiLinkAttributeProviderFactory [[JSPWikiLinkAttributeProviderFactory.html]] {
            +JSPWikiLinkAttributeProviderFactory(WikiContext)
            +apply(LinkResolverContext): AttributeProvider
        }

        class LocalReadLinkAttributeProviderState [[LocalReadLinkAttributeProviderState.html]] {
            +LocalReadLinkAttributeProviderState(WikiContext)
            +setAttributes(Attributes, JSPWikiLink): void
        }

        class LocalFootnoteRefLinkAttributeProviderState [[LocalFootnoteRefLinkAttributeProviderState.html]] {
            +LocalFootnoteRefLinkAttributeProviderState(WikiContext)
            +setAttributes(Attributes, JSPWikiLink): void
        }

        class LocalLinkAttributeProviderState [[LocalLinkAttributeProviderState.html]] {
            +LocalLinkAttributeProviderState(WikiContext, boolean)
            +setAttributes(Attributes, JSPWikiLink): void
        }

        class ImageLinkAttributeProviderState [[ImageLinkAttributeProviderState.html]] {
            +ImageLinkAttributeProviderState(WikiContext, String, boolean)
            +setAttributes(Attributes, JSPWikiLink): void
        }

        interface NodeAttributeProviderState<T> [[NodeAttributeProviderState.html]] {
            {abstract} +setAttributes(Attributes, T): void
        }

        class LocalEditLinkAttributeProviderState [[LocalEditLinkAttributeProviderState.html]] {
            +LocalEditLinkAttributeProviderState(WikiContext, String)
            +setAttributes(Attributes, JSPWikiLink): void
        }

        class ExternalLinkAttributeProviderState [[ExternalLinkAttributeProviderState.html]] {
            +ExternalLinkAttributeProviderState(WikiContext, boolean)
            +setAttributes(Attributes, JSPWikiLink): void
        }

        class WysiwygEditingAttributeProviderState [[WysiwygEditingAttributeProviderState.html]] {
            +WysiwygEditingAttributeProviderState(WikiContext)
            +setAttributes(Attributes, JSPWikiLink): void
        }

        class LocalFootnoteLinkAttributeProviderState [[LocalFootnoteLinkAttributeProviderState.html]] {
            +LocalFootnoteLinkAttributeProviderState(WikiContext)
            +setAttributes(Attributes, JSPWikiLink): void
        }

        class JSPWikiLinkAttributeProvider [[JSPWikiLinkAttributeProvider.html]] {
            #wikiContext: WikiContext
            #linkOperations: LinkParsingOperations
            +JSPWikiLinkAttributeProvider(WikiContext)
            +setAttributes(Node, AttributablePart, Attributes): void
        }

        class InterWikiLinkAttributeProviderState [[InterWikiLinkAttributeProviderState.html]] {
            +InterWikiLinkAttributeProviderState(WikiContext, boolean)
            +setAttributes(Attributes, JSPWikiLink): void
        }

        abstract class com.vladsch.flexmark.html.IndependentAttributeProviderFactory
        com.vladsch.flexmark.html.IndependentAttributeProviderFactory <|- - JSPWikiLinkAttributeProviderFactory

        NodeAttributeProviderState <|.. LocalReadLinkAttributeProviderState

        NodeAttributeProviderState <|.. LocalFootnoteRefLinkAttributeProviderState

        NodeAttributeProviderState <|.. LocalLinkAttributeProviderState

        NodeAttributeProviderState <|.. ImageLinkAttributeProviderState

        NodeAttributeProviderState <|.. LocalEditLinkAttributeProviderState

        NodeAttributeProviderState <|.. ExternalLinkAttributeProviderState

        NodeAttributeProviderState <|.. WysiwygEditingAttributeProviderState

        NodeAttributeProviderState <|.. LocalFootnoteLinkAttributeProviderState

        interface com.vladsch.flexmark.html.AttributeProvider {
            {abstract} +setAttributes(Node, AttributablePart, Attributes): void
        }
        com.vladsch.flexmark.html.AttributeProvider <|.. JSPWikiLinkAttributeProvider

        NodeAttributeProviderState <|.. InterWikiLinkAttributeProviderState

    }


    center footer UMLDoclet 1.1.4, PlantUML 1.2019.05
@enduml

PlantUML version 1.2019.05(Sat Apr 20 16:45:36 UTC 2019)
(APACHE source distribution)
Java Runtime: Java(TM) SE Runtime Environment
JVM: Java HotSpot(TM) 64-Bit Server VM
Java Version: 1.8.0_191-b12
Operating System: Linux
OS Version: 4.15.0-58-generic
Default Encoding: ISO-8859-1
Language: en
Country: US
--></g></svg>