<?xml version="1.0" encoding="UTF-8" standalone="no"?><svg xmlns="http://www.w3.org/2000/svg" xmlns:xlink="http://www.w3.org/1999/xlink" contentScriptType="application/ecmascript" contentStyleType="text/css" height="78px" preserveAspectRatio="none" style="width:202px;height:78px;" version="1.1" viewBox="0 0 202 78" width="202px" zoomAndPan="magnify"><defs><filter height="300%" id="flm01ez4mxroo" width="300%" x="-1" y="-1"><feGaussianBlur result="blurOut" stdDeviation="2.0"/><feColorMatrix in="blurOut" result="blurOut2" type="matrix" values="0 0 0 0 0 0 0 0 0 0 0 0 0 0 0 0 0 0 .4 0"/><feOffset dx="4.0" dy="4.0" in="blurOut2" result="blurOut3"/><feBlend in="SourceGraphic" in2="blurOut3" mode="normal"/></filter></defs><g><!--MD5=[c019967ff6c5a47948359e0516e6c2a9]
class org.apache.wiki.its.AnonymousViewIT--><a href="AnonymousViewIT.html" target="_top" title="AnonymousViewIT.html" xlink:actuate="onRequest" xlink:href="AnonymousViewIT.html" xlink:show="new" xlink:title="AnonymousViewIT.html" xlink:type="simple"><rect codeLine="5" fill="#FEFECE" filter="url(#flm01ez4mxroo)" height="40.1875" id="org.apache.wiki.its.AnonymousViewIT" style="stroke: #A80036; stroke-width: 1.5;" width="147" x="21.5" y="7"/><ellipse cx="36.5" cy="27.0938" fill="#ADD1B2" rx="11" ry="11" style="stroke: #A80036; stroke-width: 1.0;"/><path d="M39.2656,22.9688 Q39.4219,22.75 39.6094,22.6406 Q39.7969,22.5313 40.0156,22.5313 Q40.3906,22.5313 40.625,22.7969 Q40.8594,23.0469 40.8594,23.6563 L40.8594,25.1094 Q40.8594,25.7188 40.625,25.9844 Q40.3906,26.25 40.0156,26.25 Q39.6719,26.25 39.4688,26.0469 Q39.2656,25.8594 39.1563,25.3438 Q39.1094,24.9844 38.9219,24.7969 Q38.5938,24.4219 37.9844,24.2031 Q37.375,23.9844 36.75,23.9844 Q35.9844,23.9844 35.3438,24.3125 Q34.7188,24.6406 34.2188,25.3906 Q33.7344,26.1406 33.7344,27.1719 L33.7344,28.2656 Q33.7344,29.5 34.625,30.3281 Q35.5156,31.1406 37.1094,31.1406 Q38.0469,31.1406 38.7031,30.8906 Q39.0938,30.7344 39.5156,30.2969 Q39.7813,30.0313 39.9219,29.9531 Q40.0781,29.875 40.2813,29.875 Q40.6094,29.875 40.8594,30.1406 Q41.125,30.3906 41.125,30.7344 Q41.125,31.0781 40.7813,31.4844 Q40.2813,32.0625 39.4844,32.3906 Q38.4063,32.8438 37.1094,32.8438 Q35.5938,32.8438 34.3906,32.2188 Q33.4063,31.7188 32.7188,30.6563 Q32.0313,29.5781 32.0313,28.2969 L32.0313,27.1406 Q32.0313,25.8125 32.6406,24.6719 Q33.2656,23.5156 34.3594,22.9063 Q35.4531,22.2813 36.6875,22.2813 Q37.4219,22.2813 38.0625,22.4531 Q38.7188,22.6094 39.2656,22.9688 Z "/><text fill="#000000" font-family="sans-serif" font-size="14" lengthAdjust="spacingAndGlyphs" textLength="115" x="50.5" y="26.5332">AnonymousViewIT</text><text fill="#000000" font-family="sans-serif" font-size="10" lengthAdjust="spacingAndGlyphs" textLength="87" x="64.5" y="39.9902">org.apache.wiki.its</text></a><text fill="#888888" font-family="sans-serif" font-size="10" lengthAdjust="spacingAndGlyphs" textLength="190" x="0" y="64.5684">UMLDoclet 2.0.12, PlantUML 1.2020.16</text><!--MD5=[e3e0ba482bcd6560ef61a7731f72b5e9]
@startuml
    set namespaceSeparator none
    hide empty fields
    hide empty methods

    class "<size:14>AnonymousViewIT\n<size:10>org.apache.wiki.its" as org.apache.wiki.its.AnonymousViewIT [[AnonymousViewIT.html]] {
    }

    center footer UMLDoclet 2.0.12, PlantUML 1.2020.16
@enduml

PlantUML version 1.2020.16(Sun Aug 23 22:20:43 CEST 2020)
(APACHE source distribution)
Java Runtime: OpenJDK Runtime Environment
JVM: OpenJDK 64-Bit Server VM
Default Encoding: Cp1252
Language: es
Country: ES
--></g></svg>