<?xml version="1.0" encoding="UTF-8" standalone="no"?><svg xmlns="http://www.w3.org/2000/svg" xmlns:xlink="http://www.w3.org/1999/xlink" contentScriptType="application/ecmascript" contentStyleType="text/css" height="277px" preserveAspectRatio="none" style="width:293px;height:277px;background:#FFFFFF;" version="1.1" viewBox="0 0 293 277" width="293px" zoomAndPan="magnify"><defs><filter height="300%" id="f1r25i9l7ruuxz" width="300%" x="-1" y="-1"><feGaussianBlur result="blurOut" stdDeviation="2.0"/><feColorMatrix in="blurOut" result="blurOut2" type="matrix" values="0 0 0 0 0 0 0 0 0 0 0 0 0 0 0 0 0 0 .4 0"/><feOffset dx="4.0" dy="4.0" in="blurOut2" result="blurOut3"/><feBlend in="SourceGraphic" in2="blurOut3" mode="normal"/></filter></defs><g><!--MD5=[8048b25acfd1af8e6d795ff03bceb690]
cluster org.apache.wiki.tasks.auth--><polygon fill="#FFFFFF" filter="url(#f1r25i9l7ruuxz)" points="16,129,234,129,241,151.2969,244,151.2969,244,254,16,254,16,129" style="stroke:#000000;stroke-width:1.5;"/><line style="stroke:#000000;stroke-width:1.5;" x1="16" x2="241" y1="151.2969" y2="151.2969"/><text fill="#000000" font-family="sans-serif" font-size="14" font-weight="bold" lengthAdjust="spacing" textLength="212" x="20" y="143.9951">org.apache.wiki.tasks.auth</text><!--MD5=[1bb04c14740e941ad380a800748883c1]
cluster org.apache.wiki.workflow--><polygon fill="#FFFFFF" filter="url(#f1r25i9l7ruuxz)" points="56,6,266,6,273,28.2969,276,28.2969,276,105,56,105,56,6" style="stroke:#000000;stroke-width:1.5;"/><line style="stroke:#000000;stroke-width:1.5;" x1="56" x2="273" y1="28.2969" y2="28.2969"/><text fill="#000000" font-family="sans-serif" font-size="14" font-weight="bold" lengthAdjust="spacing" textLength="204" x="60" y="20.9951">org.apache.wiki.workflow</text><!--MD5=[94a91db8ae6c91e03d3bc685ac2939b9]
class org.apache.wiki.tasks.auth.SaveUserProfileTask--><a href="SaveUserProfileTask.html" target="_top" title="SaveUserProfileTask.html" xlink:actuate="onRequest" xlink:href="SaveUserProfileTask.html" xlink:show="new" xlink:title="SaveUserProfileTask.html" xlink:type="simple"><rect codeLine="3" fill="#FEFECE" filter="url(#f1r25i9l7ruuxz)" height="73.6094" id="org.apache.wiki.tasks.auth.SaveUserProfileTask" style="stroke:#A80036;stroke-width:1.5;" width="188" x="36" y="164"/><ellipse cx="64.05" cy="180" fill="#ADD1B2" rx="11" ry="11" style="stroke:#A80036;stroke-width:1.0;"/><path d="M67.0188,185.6406 Q66.4406,185.9375 65.8,186.0781 Q65.1594,186.2344 64.4563,186.2344 Q61.9563,186.2344 60.6281,184.5938 Q59.3156,182.9375 59.3156,179.8125 Q59.3156,176.6875 60.6281,175.0313 Q61.9563,173.375 64.4563,173.375 Q65.1594,173.375 65.8,173.5313 Q66.4563,173.6875 67.0188,173.9844 L67.0188,176.7031 Q66.3938,176.125 65.8,175.8594 Q65.2063,175.5781 64.5813,175.5781 Q63.2375,175.5781 62.55,176.6563 Q61.8625,177.7188 61.8625,179.8125 Q61.8625,181.9063 62.55,182.9844 Q63.2375,184.0469 64.5813,184.0469 Q65.2063,184.0469 65.8,183.7813 Q66.3938,183.5 67.0188,182.9219 L67.0188,185.6406 Z " fill="#000000"/><text fill="#000000" font-family="sans-serif" font-size="12" lengthAdjust="spacing" textLength="127" x="80.95" y="184.1543">SaveUserProfileTask</text><line style="stroke:#A80036;stroke-width:1.5;" x1="37" x2="223" y1="196" y2="196"/><line style="stroke:#A80036;stroke-width:1.5;" x1="37" x2="223" y1="204" y2="204"/><ellipse cx="47" cy="215" fill="#84BE84" rx="3" ry="3" style="stroke:#038048;stroke-width:1.0;"/><text fill="#000000" font-family="sans-serif" font-size="11" lengthAdjust="spacing" textLength="162" x="56" y="218.2104">SaveUserProfileTask(Locale)</text><ellipse cx="47" cy="227.8047" fill="#84BE84" rx="3" ry="3" style="stroke:#038048;stroke-width:1.0;"/><text fill="#000000" font-family="sans-serif" font-size="11" lengthAdjust="spacing" textLength="154" x="56" y="231.0151">execute(Context): Outcome</text></a><!--MD5=[ddd9fe3ac7221505577f2a4ed232731a]
class org.apache.wiki.workflow.Task--><a href="../../workflow/Task.html" target="_top" title="../../workflow/Task.html" xlink:actuate="onRequest" xlink:href="../../workflow/Task.html" xlink:show="new" xlink:title="../../workflow/Task.html" xlink:type="simple"><rect codeLine="12" fill="#FEFECE" filter="url(#f1r25i9l7ruuxz)" height="48" id="org.apache.wiki.workflow.Task" style="stroke:#A80036;stroke-width:1.5;" width="60" x="100" y="41"/><ellipse cx="115" cy="57" fill="#A9DCDF" rx="11" ry="11" style="stroke:#A80036;stroke-width:1.0;"/><path d="M115.1094,52.3438 L113.9531,57.4219 L116.2813,57.4219 L115.1094,52.3438 Z M113.625,50.1094 L116.6094,50.1094 L119.9688,62.5 L117.5156,62.5 L116.75,59.4375 L113.4688,59.4375 L112.7188,62.5 L110.2813,62.5 L113.625,50.1094 Z " fill="#000000"/><text fill="#000000" font-family="sans-serif" font-size="12" font-style="italic" lengthAdjust="spacing" textLength="28" x="129" y="61.1543">Task</text><line style="stroke:#A80036;stroke-width:1.5;" x1="101" x2="159" y1="73" y2="73"/><line style="stroke:#A80036;stroke-width:1.5;" x1="101" x2="159" y1="81" y2="81"/></a><!--MD5=[1db5d3aca25752ea4feac62bf5652a1b]
reverse link org.apache.wiki.workflow.Task to org.apache.wiki.tasks.auth.SaveUserProfileTask--><path codeLine="8" d="M130,109.26 C130,126.9 130,147.07 130,163.91 " fill="none" id="org.apache.wiki.workflow.Task-backto-org.apache.wiki.tasks.auth.SaveUserProfileTask" style="stroke:#A80036;stroke-width:1.0;"/><polygon fill="none" points="123,109.04,130,89.04,137,109.04,123,109.04" style="stroke:#A80036;stroke-width:1.0;"/><text fill="#888888" font-family="sans-serif" font-size="10" lengthAdjust="spacing" textLength="192" x="44" y="269.2822">UMLDoclet 2.0.15, PlantUML 1.2021.13</text><!--MD5=[97678739608cfadf4669f92dfa4e7407]
@startuml
    namespace org.apache.wiki.tasks.auth {

        class SaveUserProfileTask [[SaveUserProfileTask.html]] {
            +SaveUserProfileTask(Locale)
            +execute(Context): Outcome
        }

        org.apache.wiki.workflow.Task <|- - SaveUserProfileTask
    }

    namespace org.apache.wiki.workflow {
        abstract class Task [[../../workflow/Task.html]] {
        }
    }

    center footer UMLDoclet 2.0.15, PlantUML 1.2021.13
@enduml

PlantUML version 1.2021.13(Mon Nov 01 11:38:45 UTC 2021)
(APACHE source distribution)
Java Runtime: OpenJDK Runtime Environment
JVM: OpenJDK 64-Bit Server VM
Default Encoding: UTF-8
Language: en
Country: US
--></g></svg>