<?xml version="1.0" encoding="UTF-8" standalone="no"?><svg xmlns="http://www.w3.org/2000/svg" xmlns:xlink="http://www.w3.org/1999/xlink" contentScriptType="application/ecmascript" contentStyleType="text/css" height="186px" preserveAspectRatio="none" style="width:264px;height:186px;" version="1.1" viewBox="0 0 264 186" width="264px" zoomAndPan="magnify"><defs><filter height="300%" id="fp33vj31mip4s" width="300%" x="-1" y="-1"><feGaussianBlur result="blurOut" stdDeviation="2.0"/><feColorMatrix in="blurOut" result="blurOut2" type="matrix" values="0 0 0 0 0 0 0 0 0 0 0 0 0 0 0 0 0 0 .4 0"/><feOffset dx="4.0" dy="4.0" in="blurOut2" result="blurOut3"/><feBlend in="SourceGraphic" in2="blurOut3" mode="normal"/></filter></defs><g><!--class Env--><a href="Env.html" target="_top" xlink:actuate="onRequest" xlink:show="new" xlink:title="Env.html" xlink:type="simple"><rect fill="#FEFECE" filter="url(#fp33vj31mip4s)" height="144.8516" id="Env" style="stroke: #A80036; stroke-width: 1.5;" width="247" x="6" y="8"/><ellipse cx="115.25" cy="24" fill="#ADD1B2" rx="11" ry="11" style="stroke: #A80036; stroke-width: 1.0;"/><path d="M118.0156,19.875 Q118.1719,19.6563 118.3594,19.5469 Q118.5469,19.4375 118.7656,19.4375 Q119.1406,19.4375 119.375,19.6953 Q119.6094,19.9531 119.6094,20.5625 L119.6094,22.0156 Q119.6094,22.625 119.375,22.8906 Q119.1406,23.1563 118.7656,23.1563 Q118.4219,23.1563 118.2188,22.9531 Q118.0156,22.7656 117.9063,22.25 Q117.8594,21.8906 117.6719,21.7031 Q117.3438,21.3281 116.7344,21.1094 Q116.125,20.8906 115.5,20.8906 Q114.7344,20.8906 114.1016,21.2188 Q113.4688,21.5469 112.9766,22.2969 Q112.4844,23.0469 112.4844,24.0781 L112.4844,25.1719 Q112.4844,26.4063 113.375,27.2266 Q114.2656,28.0469 115.8594,28.0469 Q116.7969,28.0469 117.4531,27.7969 Q117.8438,27.6406 118.2656,27.2031 Q118.5313,26.9375 118.6797,26.8594 Q118.8281,26.7813 119.0313,26.7813 Q119.3594,26.7813 119.6172,27.0391 Q119.875,27.2969 119.875,27.6406 Q119.875,27.9844 119.5313,28.3906 Q119.0313,28.9688 118.2344,29.2969 Q117.1563,29.75 115.8594,29.75 Q114.3438,29.75 113.1406,29.125 Q112.1563,28.625 111.4688,27.5547 Q110.7813,26.4844 110.7813,25.2031 L110.7813,24.0469 Q110.7813,22.7188 111.3984,21.5703 Q112.0156,20.4219 113.1094,19.8047 Q114.2031,19.1875 115.4375,19.1875 Q116.1719,19.1875 116.8203,19.3516 Q117.4688,19.5156 118.0156,19.875 Z "/><text fill="#000000" font-family="sans-serif" font-size="12" lengthAdjust="spacingAndGlyphs" textLength="20" x="135.75" y="28.9102">Env</text><line style="stroke: #A80036; stroke-width: 1.5;" x1="7" x2="252" y1="40" y2="40"/><ellipse cx="17" cy="52.418" fill="none" rx="3" ry="3" style="stroke: #038048; stroke-width: 1.0;"/><text fill="#000000" font-family="sans-serif" font-size="11" lengthAdjust="spacingAndGlyphs" text-decoration="underline" textLength="126" x="26" y="55.4189">TESTS_BASE_URL: String</text><ellipse cx="17" cy="66.2539" fill="none" rx="3" ry="3" style="stroke: #038048; stroke-width: 1.0;"/><text fill="#000000" font-family="sans-serif" font-size="11" lengthAdjust="spacingAndGlyphs" text-decoration="underline" textLength="180" x="26" y="69.2549">TESTS_CONFIG_HEADLESS: boolean</text><ellipse cx="17" cy="80.0898" fill="none" rx="3" ry="3" style="stroke: #038048; stroke-width: 1.0;"/><text fill="#000000" font-family="sans-serif" font-size="11" lengthAdjust="spacingAndGlyphs" text-decoration="underline" textLength="209" x="26" y="83.0908">TESTS_CONFIG_REPORTS_FOLDER: String</text><ellipse cx="17" cy="93.9258" fill="none" rx="3" ry="3" style="stroke: #038048; stroke-width: 1.0;"/><text fill="#000000" font-family="sans-serif" font-size="11" lengthAdjust="spacingAndGlyphs" text-decoration="underline" textLength="221" x="26" y="96.9268">TESTS_CONFIG_START_MAXIMIZED: boolean</text><ellipse cx="17" cy="107.7617" fill="none" rx="3" ry="3" style="stroke: #038048; stroke-width: 1.0;"/><text fill="#000000" font-family="sans-serif" font-size="11" lengthAdjust="spacingAndGlyphs" text-decoration="underline" textLength="221" x="26" y="110.7627">TESTS_CONFIG_WDM_TARGET_PATH: String</text><ellipse cx="17" cy="121.5977" fill="none" rx="3" ry="3" style="stroke: #038048; stroke-width: 1.0;"/><text fill="#000000" font-family="sans-serif" font-size="11" lengthAdjust="spacingAndGlyphs" text-decoration="underline" textLength="166" x="26" y="124.5986">LOGIN_JANNE_USERNAME: String</text><ellipse cx="17" cy="135.4336" fill="none" rx="3" ry="3" style="stroke: #038048; stroke-width: 1.0;"/><text fill="#000000" font-family="sans-serif" font-size="11" lengthAdjust="spacingAndGlyphs" text-decoration="underline" textLength="170" x="26" y="138.4346">LOGIN_JANNE_PASSWORD: String</text><line style="stroke: #A80036; stroke-width: 1.5;" x1="7" x2="252" y1="144.8516" y2="144.8516"/></a><text fill="#888888" font-family="sans-serif" font-size="10" lengthAdjust="spacingAndGlyphs" textLength="184" x="43.5" y="173.3809">UMLDoclet 1.1.4, PlantUML 1.2019.05</text><!--
@startuml

    class Env [[Env.html]] {
        {static} +TESTS_BASE_URL: String
        {static} +TESTS_CONFIG_HEADLESS: boolean
        {static} +TESTS_CONFIG_REPORTS_FOLDER: String
        {static} +TESTS_CONFIG_START_MAXIMIZED: boolean
        {static} +TESTS_CONFIG_WDM_TARGET_PATH: String
        {static} +LOGIN_JANNE_USERNAME: String
        {static} +LOGIN_JANNE_PASSWORD: String
    }


    center footer UMLDoclet 1.1.4, PlantUML 1.2019.05
@enduml

PlantUML version 1.2019.05(Sat Apr 20 18:45:36 CEST 2019)
(APACHE source distribution)
Java Runtime: OpenJDK Runtime Environment
JVM: OpenJDK 64-Bit Server VM
Java Version: 1.8.0_212-b03
Operating System: Windows 10
OS Version: 10.0
Default Encoding: Cp1252
Language: es
Country: ES
--></g></svg>