<?xml version="1.0" encoding="UTF-8" standalone="no"?><svg xmlns="http://www.w3.org/2000/svg" xmlns:xlink="http://www.w3.org/1999/xlink" contentScriptType="application/ecmascript" contentStyleType="text/css" height="203px" preserveAspectRatio="none" style="width:400px;height:203px;" version="1.1" viewBox="0 0 400 203" width="400px" zoomAndPan="magnify"><defs><filter height="300%" id="f15tf25v90sxv3" width="300%" x="-1" y="-1"><feGaussianBlur result="blurOut" stdDeviation="2.0"/><feColorMatrix in="blurOut" result="blurOut2" type="matrix" values="0 0 0 0 0 0 0 0 0 0 0 0 0 0 0 0 0 0 .4 0"/><feOffset dx="4.0" dy="4.0" in="blurOut2" result="blurOut3"/><feBlend in="SourceGraphic" in2="blurOut3" mode="normal"/></filter></defs><g><!--class CommandResolver--><a href="CommandResolver.html" target="_top" xlink:actuate="onRequest" xlink:show="new" xlink:title="CommandResolver.html" xlink:type="simple"><rect fill="#FEFECE" filter="url(#f15tf25v90sxv3)" height="163.2422" id="CommandResolver" style="stroke: #A80036; stroke-width: 1.5;" width="383" x="6" y="8"/><ellipse cx="135.75" cy="24" fill="#ADD1B2" rx="11" ry="11" style="stroke: #A80036; stroke-width: 1.0;"/><path d="M138.7188,29.6406 Q138.1406,29.9375 137.5,30.0859 Q136.8594,30.2344 136.1563,30.2344 Q133.6563,30.2344 132.3359,28.5859 Q131.0156,26.9375 131.0156,23.8125 Q131.0156,20.6875 132.3359,19.0313 Q133.6563,17.375 136.1563,17.375 Q136.8594,17.375 137.5078,17.5313 Q138.1563,17.6875 138.7188,17.9844 L138.7188,20.7031 Q138.0938,20.125 137.5,19.8516 Q136.9063,19.5781 136.2813,19.5781 Q134.9375,19.5781 134.25,20.6484 Q133.5625,21.7188 133.5625,23.8125 Q133.5625,25.9063 134.25,26.9766 Q134.9375,28.0469 136.2813,28.0469 Q136.9063,28.0469 137.5,27.7734 Q138.0938,27.5 138.7188,26.9219 L138.7188,29.6406 Z "/><text fill="#000000" font-family="sans-serif" font-size="12" lengthAdjust="spacingAndGlyphs" textLength="115" x="156.25" y="28.1543">CommandResolver</text><line style="stroke: #A80036; stroke-width: 1.5;" x1="7" x2="388" y1="40" y2="40"/><line style="stroke: #A80036; stroke-width: 1.5;" x1="7" x2="388" y1="48" y2="48"/><ellipse cx="17" cy="59.9023" fill="#84BE84" rx="3" ry="3" style="stroke: #038048; stroke-width: 1.0;"/><text fill="#000000" font-family="sans-serif" font-size="11" lengthAdjust="spacingAndGlyphs" textLength="241" x="26" y="62.2104">CommandResolver(WikiEngine, Properties)</text><ellipse cx="17" cy="72.707" fill="#84BE84" rx="3" ry="3" style="stroke: #038048; stroke-width: 1.0;"/><text fill="#000000" font-family="sans-serif" font-size="11" lengthAdjust="spacingAndGlyphs" text-decoration="underline" textLength="187" x="26" y="75.0151">findCommand(String): Command</text><ellipse cx="17" cy="85.5117" fill="#84BE84" rx="3" ry="3" style="stroke: #038048; stroke-width: 1.0;"/><text fill="#000000" font-family="sans-serif" font-size="11" lengthAdjust="spacingAndGlyphs" textLength="304" x="26" y="87.8198">findCommand(HttpServletRequest, String): Command</text><ellipse cx="17" cy="98.3164" fill="#84BE84" rx="3" ry="3" style="stroke: #038048; stroke-width: 1.0;"/><text fill="#000000" font-family="sans-serif" font-size="11" lengthAdjust="spacingAndGlyphs" textLength="189" x="26" y="100.6245">getFinalPageName(String): String</text><ellipse cx="17" cy="111.1211" fill="#84BE84" rx="3" ry="3" style="stroke: #038048; stroke-width: 1.0;"/><text fill="#000000" font-family="sans-serif" font-size="11" lengthAdjust="spacingAndGlyphs" textLength="228" x="26" y="113.4292">getSpecialPageReference(String): String</text><polygon fill="#FFFF44" points="17,118.9258,21,122.9258,17,126.9258,13,122.9258" style="stroke: #B38D22; stroke-width: 1.0;"/><text fill="#000000" font-family="sans-serif" font-size="11" lengthAdjust="spacingAndGlyphs" textLength="334" x="26" y="126.2339">extractCommandFromPath(HttpServletRequest): Command</text><polygon fill="#FFFF44" points="17,131.7305,21,135.7305,17,139.7305,13,135.7305" style="stroke: #B38D22; stroke-width: 1.0;"/><text fill="#000000" font-family="sans-serif" font-size="11" lengthAdjust="spacingAndGlyphs" textLength="357" x="26" y="139.0386">extractPageFromParameter(String, HttpServletRequest): String</text><polygon fill="#FFFF44" points="17,144.5352,21,148.5352,17,152.5352,13,148.5352" style="stroke: #B38D22; stroke-width: 1.0;"/><text fill="#000000" font-family="sans-serif" font-size="11" lengthAdjust="spacingAndGlyphs" textLength="286" x="26" y="151.8433">resolvePage(HttpServletRequest, String): WikiPage</text><polygon fill="#FFFF44" points="17,157.3398,21,161.3398,17,165.3398,13,161.3398" style="stroke: #B38D22; stroke-width: 1.0;"/><text fill="#000000" font-family="sans-serif" font-size="11" lengthAdjust="spacingAndGlyphs" textLength="195" x="26" y="164.6479">simplePageExists(String): boolean</text></a><text fill="#888888" font-family="sans-serif" font-size="10" lengthAdjust="spacingAndGlyphs" textLength="186" x="110.5" y="190.2822">UMLDoclet 1.1.4, PlantUML 1.2019.05</text><!--
@startuml

    class CommandResolver [[CommandResolver.html]] {
        +CommandResolver(WikiEngine, Properties)
        {static} +findCommand(String): Command
        +findCommand(HttpServletRequest, String): Command
        +getFinalPageName(String): String
        +getSpecialPageReference(String): String
        #extractCommandFromPath(HttpServletRequest): Command
        #extractPageFromParameter(String, HttpServletRequest): String
        #resolvePage(HttpServletRequest, String): WikiPage
        #simplePageExists(String): boolean
    }


    center footer UMLDoclet 1.1.4, PlantUML 1.2019.05
@enduml

PlantUML version 1.2019.05(Sat Apr 20 16:45:36 UTC 2019)
(APACHE source distribution)
Java Runtime: Java(TM) SE Runtime Environment
JVM: Java HotSpot(TM) 64-Bit Server VM
Java Version: 1.8.0_191-b12
Operating System: Linux
OS Version: 4.15.0-58-generic
Default Encoding: ISO-8859-1
Language: en
Country: US
--></g></svg>