<?xml version="1.0" encoding="UTF-8" standalone="no"?><svg xmlns="http://www.w3.org/2000/svg" xmlns:xlink="http://www.w3.org/1999/xlink" contentScriptType="application/ecmascript" contentStyleType="text/css" height="235px" preserveAspectRatio="none" style="width:384px;height:235px;" version="1.1" viewBox="0 0 384 235" width="384px" zoomAndPan="magnify"><defs><filter height="300%" id="faccapfl32gdo" width="300%" x="-1" y="-1"><feGaussianBlur result="blurOut" stdDeviation="2.0"/><feColorMatrix in="blurOut" result="blurOut2" type="matrix" values="0 0 0 0 0 0 0 0 0 0 0 0 0 0 0 0 0 0 .4 0"/><feOffset dx="4.0" dy="4.0" in="blurOut2" result="blurOut3"/><feBlend in="SourceGraphic" in2="blurOut3" mode="normal"/></filter></defs><g><!--cluster PageViewPlugin--><polygon fill="#FFFFFF" filter="url(#faccapfl32gdo)" points="22,24,154,24,161,46.2969,362,46.2969,362,187,22,187,22,24" style="stroke: #000000; stroke-width: 1.5;"/><line style="stroke: #000000; stroke-width: 1.5;" x1="22" x2="161" y1="46.2969" y2="46.2969"/><text fill="#000000" font-family="sans-serif" font-size="14" font-weight="bold" lengthAdjust="spacingAndGlyphs" textLength="126" x="26" y="38.9951">PageViewPlugin</text><!--class PageViewPlugin.PageViewManager--><a href="PageViewPlugin.PageViewManager.html" target="_top" xlink:actuate="onRequest" xlink:show="new" xlink:title="PageViewPlugin.PageViewManager.html" xlink:type="simple"><rect fill="#FEFECE" filter="url(#faccapfl32gdo)" height="112.0234" id="PageViewPlugin.PageViewManager" style="stroke: #A80036; stroke-width: 1.5;" width="309" x="37.5" y="59"/><ellipse cx="130.25" cy="75" fill="#ADD1B2" rx="11" ry="11" style="stroke: #A80036; stroke-width: 1.0;"/><path d="M133.2188,80.6406 Q132.6406,80.9375 132,81.0859 Q131.3594,81.2344 130.6563,81.2344 Q128.1563,81.2344 126.8359,79.5859 Q125.5156,77.9375 125.5156,74.8125 Q125.5156,71.6875 126.8359,70.0313 Q128.1563,68.375 130.6563,68.375 Q131.3594,68.375 132.0078,68.5313 Q132.6563,68.6875 133.2188,68.9844 L133.2188,71.7031 Q132.5938,71.125 132,70.8516 Q131.4063,70.5781 130.7813,70.5781 Q129.4375,70.5781 128.75,71.6484 Q128.0625,72.7188 128.0625,74.8125 Q128.0625,76.9063 128.75,77.9766 Q129.4375,79.0469 130.7813,79.0469 Q131.4063,79.0469 132,78.7734 Q132.5938,78.5 133.2188,77.9219 L133.2188,80.6406 Z "/><text fill="#000000" font-family="sans-serif" font-size="12" lengthAdjust="spacingAndGlyphs" textLength="115" x="150.75" y="79.1543">PageViewManager</text><line style="stroke: #A80036; stroke-width: 1.5;" x1="38.5" x2="345.5" y1="91" y2="91"/><line style="stroke: #A80036; stroke-width: 1.5;" x1="38.5" x2="345.5" y1="99" y2="99"/><ellipse cx="48.5" cy="110.9023" fill="#84BE84" rx="3" ry="3" style="stroke: #038048; stroke-width: 1.0;"/><text fill="#000000" font-family="sans-serif" font-size="11" lengthAdjust="spacingAndGlyphs" textLength="143" x="57.5" y="113.2104">initialize(WikiEngine): void</text><ellipse cx="48.5" cy="123.707" fill="#84BE84" rx="3" ry="3" style="stroke: #038048; stroke-width: 1.0;"/><text fill="#000000" font-family="sans-serif" font-size="11" lengthAdjust="spacingAndGlyphs" textLength="185" x="57.5" y="126.0151">actionPerformed(WikiEvent): void</text><ellipse cx="48.5" cy="136.5117" fill="#84BE84" rx="3" ry="3" style="stroke: #038048; stroke-width: 1.0;"/><text fill="#000000" font-family="sans-serif" font-size="11" lengthAdjust="spacingAndGlyphs" textLength="283" x="57.5" y="138.8198">execute(WikiContext, Map&lt;String, String&gt;): String</text><polygon fill="#FFFF44" points="48.5,144.3164,52.5,148.3164,48.5,152.3164,44.5,148.3164" style="stroke: #B38D22; stroke-width: 1.0;"/><text fill="#000000" font-family="sans-serif" font-size="11" lengthAdjust="spacingAndGlyphs" textLength="117" x="57.5" y="151.6245">getCount(Object): int</text><polygon fill="#FFFF44" points="48.5,157.1211,52.5,161.1211,48.5,165.1211,44.5,161.1211" style="stroke: #B38D22; stroke-width: 1.0;"/><text fill="#000000" font-family="sans-serif" font-size="11" lengthAdjust="spacingAndGlyphs" textLength="121" x="57.5" y="164.4292">storeCounters(): void</text></a><text fill="#888888" font-family="sans-serif" font-size="10" lengthAdjust="spacingAndGlyphs" textLength="186" x="105" y="222.2822">UMLDoclet 1.1.4, PlantUML 1.2019.05</text><!--
@startuml

    class PageViewPlugin.PageViewManager [[PageViewPlugin.PageViewManager.html]] {
        +initialize(WikiEngine): void
        +actionPerformed(WikiEvent): void
        +execute(WikiContext, Map<String, String>): String
        #getCount(Object): int
        #storeCounters(): void
    }


    center footer UMLDoclet 1.1.4, PlantUML 1.2019.05
@enduml

PlantUML version 1.2019.05(Sat Apr 20 16:45:36 UTC 2019)
(APACHE source distribution)
Java Runtime: Java(TM) SE Runtime Environment
JVM: Java HotSpot(TM) 64-Bit Server VM
Java Version: 1.8.0_191-b12
Operating System: Linux
OS Version: 4.4.0-137-generic
Default Encoding: ISO-8859-1
Language: en
Country: US
--></g></svg>