<?xml version="1.0" encoding="UTF-8" standalone="no"?><svg xmlns="http://www.w3.org/2000/svg" xmlns:xlink="http://www.w3.org/1999/xlink" contentScriptType="application/ecmascript" contentStyleType="text/css" height="349px" preserveAspectRatio="none" style="width:1175px;height:349px;" version="1.1" viewBox="0 0 1175 349" width="1175px" zoomAndPan="magnify"><defs><filter height="300%" id="f66mvzshzh1o1" width="300%" x="-1" y="-1"><feGaussianBlur result="blurOut" stdDeviation="2.0"/><feColorMatrix in="blurOut" result="blurOut2" type="matrix" values="0 0 0 0 0 0 0 0 0 0 0 0 0 0 0 0 0 0 .4 0"/><feOffset dx="4.0" dy="4.0" in="blurOut2" result="blurOut3"/><feBlend in="SourceGraphic" in2="blurOut3" mode="normal"/></filter></defs><g><!--cluster org.apache.wiki.ajax--><polygon fill="#FFFFFF" filter="url(#f66mvzshzh1o1)" points="14,124,181,124,188,146.2969,1153,146.2969,1153,309,14,309,14,124" style="stroke: #000000; stroke-width: 1.5;"/><line style="stroke: #000000; stroke-width: 1.5;" x1="14" x2="188" y1="146.2969" y2="146.2969"/><text fill="#000000" font-family="sans-serif" font-size="14" font-weight="bold" lengthAdjust="spacingAndGlyphs" textLength="161" x="18" y="138.9951">org.apache.wiki.ajax</text><!--cluster javax.servlet.http--><polygon fill="#FFFFFF" filter="url(#f66mvzshzh1o1)" points="533,16,676,16,683,38.2969,686,38.2969,686,99,533,99,533,16" style="stroke: #000000; stroke-width: 1.5;"/><line style="stroke: #000000; stroke-width: 1.5;" x1="533" x2="683" y1="38.2969" y2="38.2969"/><text fill="#000000" font-family="sans-serif" font-size="14" font-weight="bold" lengthAdjust="spacingAndGlyphs" textLength="137" x="537" y="30.9951">javax.servlet.http</text><!--class org.apache.wiki.ajax.AjaxUtil--><a href="AjaxUtil.html" target="_top" xlink:actuate="onRequest" xlink:show="new" xlink:title="AjaxUtil.html" xlink:type="simple"><rect fill="#FEFECE" filter="url(#f66mvzshzh1o1)" height="73.6094" id="org.apache.wiki.ajax.AjaxUtil" style="stroke: #A80036; stroke-width: 1.5;" width="243" x="901.5" y="189"/><ellipse cx="996.25" cy="205" fill="#ADD1B2" rx="11" ry="11" style="stroke: #A80036; stroke-width: 1.0;"/><path d="M999.2188,210.6406 Q998.6406,210.9375 998,211.0859 Q997.3594,211.2344 996.6563,211.2344 Q994.1563,211.2344 992.8359,209.5859 Q991.5156,207.9375 991.5156,204.8125 Q991.5156,201.6875 992.8359,200.0313 Q994.1563,198.375 996.6563,198.375 Q997.3594,198.375 998.0078,198.5313 Q998.6563,198.6875 999.2188,198.9844 L999.2188,201.7031 Q998.5938,201.125 998,200.8516 Q997.4063,200.5781 996.7813,200.5781 Q995.4375,200.5781 994.75,201.6484 Q994.0625,202.7188 994.0625,204.8125 Q994.0625,206.9063 994.75,207.9766 Q995.4375,209.0469 996.7813,209.0469 Q997.4063,209.0469 998,208.7734 Q998.5938,208.5 999.2188,207.9219 L999.2188,210.6406 Z "/><text fill="#000000" font-family="sans-serif" font-size="12" lengthAdjust="spacingAndGlyphs" textLength="45" x="1016.75" y="209.1543">AjaxUtil</text><line style="stroke: #A80036; stroke-width: 1.5;" x1="902.5" x2="1143.5" y1="221" y2="221"/><line style="stroke: #A80036; stroke-width: 1.5;" x1="902.5" x2="1143.5" y1="229" y2="229"/><ellipse cx="912.5" cy="240.9023" fill="#84BE84" rx="3" ry="3" style="stroke: #038048; stroke-width: 1.0;"/><text fill="#000000" font-family="sans-serif" font-size="11" lengthAdjust="spacingAndGlyphs" text-decoration="underline" textLength="121" x="921.5" y="243.2104">toJson(Object): String</text><ellipse cx="912.5" cy="253.707" fill="#84BE84" rx="3" ry="3" style="stroke: #038048; stroke-width: 1.0;"/><text fill="#000000" font-family="sans-serif" font-size="11" lengthAdjust="spacingAndGlyphs" text-decoration="underline" textLength="217" x="921.5" y="256.0151">getNextPathPart(String, String): String</text></a><!--class org.apache.wiki.ajax.WikiAjaxServlet--><a href="WikiAjaxServlet.html" target="_top" xlink:actuate="onRequest" xlink:show="new" xlink:title="WikiAjaxServlet.html" xlink:type="simple"><rect fill="#FEFECE" filter="url(#f66mvzshzh1o1)" height="73.6094" id="org.apache.wiki.ajax.WikiAjaxServlet" style="stroke: #A80036; stroke-width: 1.5;" width="461" x="405.5" y="189"/><ellipse cx="584.75" cy="205" fill="#B4A7E5" rx="11" ry="11" style="stroke: #A80036; stroke-width: 1.0;"/><path d="M580.6719,200.7656 L580.6719,198.6094 L588.0625,198.6094 L588.0625,200.7656 L585.5938,200.7656 L585.5938,208.8438 L588.0625,208.8438 L588.0625,211 L580.6719,211 L580.6719,208.8438 L583.1406,208.8438 L583.1406,200.7656 L580.6719,200.7656 Z "/><text fill="#000000" font-family="sans-serif" font-size="12" font-style="italic" lengthAdjust="spacingAndGlyphs" textLength="94" x="605.25" y="209.1543">WikiAjaxServlet</text><line style="stroke: #A80036; stroke-width: 1.5;" x1="406.5" x2="865.5" y1="221" y2="221"/><line style="stroke: #A80036; stroke-width: 1.5;" x1="406.5" x2="865.5" y1="229" y2="229"/><ellipse cx="416.5" cy="240.9023" fill="#84BE84" rx="3" ry="3" style="stroke: #038048; stroke-width: 1.0;"/><text fill="#000000" font-family="sans-serif" font-size="11" font-style="italic" lengthAdjust="spacingAndGlyphs" textLength="154" x="425.5" y="243.2104">getServletMapping(): String</text><ellipse cx="416.5" cy="253.707" fill="#84BE84" rx="3" ry="3" style="stroke: #038048; stroke-width: 1.0;"/><text fill="#000000" font-family="sans-serif" font-size="11" font-style="italic" lengthAdjust="spacingAndGlyphs" textLength="435" x="425.5" y="256.0151">service(HttpServletRequest, HttpServletResponse, String, List&lt;String&gt;): void</text></a><!--class org.apache.wiki.ajax.WikiAjaxDispatcherServlet--><a href="WikiAjaxDispatcherServlet.html" target="_top" xlink:actuate="onRequest" xlink:show="new" xlink:title="WikiAjaxDispatcherServlet.html" xlink:type="simple"><rect fill="#FEFECE" filter="url(#f66mvzshzh1o1)" height="150.4375" id="org.apache.wiki.ajax.WikiAjaxDispatcherServlet" style="stroke: #A80036; stroke-width: 1.5;" width="348" x="22" y="151"/><ellipse cx="111.75" cy="167" fill="#ADD1B2" rx="11" ry="11" style="stroke: #A80036; stroke-width: 1.0;"/><path d="M114.7188,172.6406 Q114.1406,172.9375 113.5,173.0859 Q112.8594,173.2344 112.1563,173.2344 Q109.6563,173.2344 108.3359,171.5859 Q107.0156,169.9375 107.0156,166.8125 Q107.0156,163.6875 108.3359,162.0313 Q109.6563,160.375 112.1563,160.375 Q112.8594,160.375 113.5078,160.5313 Q114.1563,160.6875 114.7188,160.9844 L114.7188,163.7031 Q114.0938,163.125 113.5,162.8516 Q112.9063,162.5781 112.2813,162.5781 Q110.9375,162.5781 110.25,163.6484 Q109.5625,164.7188 109.5625,166.8125 Q109.5625,168.9063 110.25,169.9766 Q110.9375,171.0469 112.2813,171.0469 Q112.9063,171.0469 113.5,170.7734 Q114.0938,170.5 114.7188,169.9219 L114.7188,172.6406 Z "/><text fill="#000000" font-family="sans-serif" font-size="12" lengthAdjust="spacingAndGlyphs" textLength="160" x="132.25" y="171.1543">WikiAjaxDispatcherServlet</text><line style="stroke: #A80036; stroke-width: 1.5;" x1="23" x2="369" y1="183" y2="183"/><line style="stroke: #A80036; stroke-width: 1.5;" x1="23" x2="369" y1="191" y2="191"/><ellipse cx="33" cy="202.9023" fill="#84BE84" rx="3" ry="3" style="stroke: #038048; stroke-width: 1.0;"/><text fill="#000000" font-family="sans-serif" font-size="11" lengthAdjust="spacingAndGlyphs" textLength="132" x="42" y="205.2104">init(ServletConfig): void</text><ellipse cx="33" cy="215.707" fill="#84BE84" rx="3" ry="3" style="stroke: #038048; stroke-width: 1.0;"/><text fill="#000000" font-family="sans-serif" font-size="11" lengthAdjust="spacingAndGlyphs" text-decoration="underline" textLength="208" x="42" y="218.0151">registerServlet(WikiAjaxServlet): void</text><ellipse cx="33" cy="228.5117" fill="#84BE84" rx="3" ry="3" style="stroke: #038048; stroke-width: 1.0;"/><text fill="#000000" font-family="sans-serif" font-size="11" lengthAdjust="spacingAndGlyphs" text-decoration="underline" textLength="250" x="42" y="230.8198">registerServlet(String, WikiAjaxServlet): void</text><ellipse cx="33" cy="241.3164" fill="#84BE84" rx="3" ry="3" style="stroke: #038048; stroke-width: 1.0;"/><text fill="#000000" font-family="sans-serif" font-size="11" lengthAdjust="spacingAndGlyphs" text-decoration="underline" textLength="322" x="42" y="243.6245">registerServlet(String, WikiAjaxServlet, Permission): void</text><ellipse cx="33" cy="254.1211" fill="#84BE84" rx="3" ry="3" style="stroke: #038048; stroke-width: 1.0;"/><text fill="#000000" font-family="sans-serif" font-size="11" lengthAdjust="spacingAndGlyphs" textLength="314" x="42" y="256.4292">doPost(HttpServletRequest, HttpServletResponse): void</text><ellipse cx="33" cy="266.9258" fill="#84BE84" rx="3" ry="3" style="stroke: #038048; stroke-width: 1.0;"/><text fill="#000000" font-family="sans-serif" font-size="11" lengthAdjust="spacingAndGlyphs" textLength="309" x="42" y="269.2339">doGet(HttpServletRequest, HttpServletResponse): void</text><ellipse cx="33" cy="279.7305" fill="#84BE84" rx="3" ry="3" style="stroke: #038048; stroke-width: 1.0;"/><text fill="#000000" font-family="sans-serif" font-size="11" lengthAdjust="spacingAndGlyphs" textLength="175" x="42" y="282.0386">getServletName(String): String</text><ellipse cx="33" cy="292.5352" fill="#84BE84" rx="3" ry="3" style="stroke: #038048; stroke-width: 1.0;"/><text fill="#000000" font-family="sans-serif" font-size="11" lengthAdjust="spacingAndGlyphs" textLength="242" x="42" y="294.8433">findServletByName(String): WikiAjaxServlet</text></a><!--class javax.servlet.http.HttpServlet--><rect fill="#FEFECE" filter="url(#f66mvzshzh1o1)" height="48" id="javax.servlet.http.HttpServlet" style="stroke: #A80036; stroke-width: 1.5;" width="102" x="558" y="43"/><ellipse cx="573" cy="59" fill="#A9DCDF" rx="11" ry="11" style="stroke: #A80036; stroke-width: 1.0;"/><path d="M573.1094,54.3438 L571.9531,59.4219 L574.2813,59.4219 L573.1094,54.3438 Z M571.625,52.1094 L574.6094,52.1094 L577.9688,64.5 L575.5156,64.5 L574.75,61.4375 L571.4688,61.4375 L570.7188,64.5 L568.2813,64.5 L571.625,52.1094 Z "/><text fill="#000000" font-family="sans-serif" font-size="12" font-style="italic" lengthAdjust="spacingAndGlyphs" textLength="70" x="587" y="63.1543">HttpServlet</text><line style="stroke: #A80036; stroke-width: 1.5;" x1="559" x2="659" y1="75" y2="75"/><line style="stroke: #A80036; stroke-width: 1.5;" x1="559" x2="659" y1="83" y2="83"/><!--link javax.servlet.http.HttpServlet to org.apache.wiki.ajax.AjaxUtil--><path d="M680.4084,73.3407 C737.4801,80.3745 818.4844,94.8431 884,124 C920.2339,140.1255 956.1964,166.883 982.4618,188.947 " fill="none" id="javax.servlet.http.HttpServlet-org.apache.wiki.ajax.AjaxUtil" style="stroke: #A80036; stroke-width: 1.0;"/><polygon fill="none" points="679.2422,80.2532,660.1637,71.033,680.8279,66.3432,679.2422,80.2532" style="stroke: #A80036; stroke-width: 1.0;"/><!--link javax.servlet.http.HttpServlet to org.apache.wiki.ajax.WikiAjaxDispatcherServlet--><path d="M538.0777,80.8211 C494.0612,90.487 436.7869,105.0563 388,124 C368.0321,131.7534 347.4819,141.0818 327.5889,150.9058 " fill="none" id="javax.servlet.http.HttpServlet-org.apache.wiki.ajax.WikiAjaxDispatcherServlet" style="stroke: #A80036; stroke-width: 1.0;"/><polygon fill="none" points="536.8874,73.9177,557.9066,76.5997,539.8026,87.6108,536.8874,73.9177" style="stroke: #A80036; stroke-width: 1.0;"/><text fill="#888888" font-family="sans-serif" font-size="10" lengthAdjust="spacingAndGlyphs" textLength="186" x="496.5" y="336.2822">UMLDoclet 1.1.4, PlantUML 1.2019.05</text><!--
@startuml

    namespace org.apache.wiki.ajax {

        class AjaxUtil [[AjaxUtil.html]] {
            {static} +toJson(Object): String
            {static} +getNextPathPart(String, String): String
        }

        interface WikiAjaxServlet [[WikiAjaxServlet.html]] {
            {abstract} +getServletMapping(): String
            {abstract} +service(HttpServletRequest, HttpServletResponse, String, List<String>): void
        }

        class WikiAjaxDispatcherServlet [[WikiAjaxDispatcherServlet.html]] {
            +init(ServletConfig): void
            {static} +registerServlet(WikiAjaxServlet): void
            {static} +registerServlet(String, WikiAjaxServlet): void
            {static} +registerServlet(String, WikiAjaxServlet, Permission): void
            +doPost(HttpServletRequest, HttpServletResponse): void
            +doGet(HttpServletRequest, HttpServletResponse): void
            +getServletName(String): String
            +findServletByName(String): WikiAjaxServlet
        }

        abstract class javax.servlet.http.HttpServlet
        javax.servlet.http.HttpServlet <|- - AjaxUtil

        javax.servlet.http.HttpServlet <|- - WikiAjaxDispatcherServlet

    }


    center footer UMLDoclet 1.1.4, PlantUML 1.2019.05
@enduml

PlantUML version 1.2019.05(Sat Apr 20 16:45:36 UTC 2019)
(APACHE source distribution)
Java Runtime: Java(TM) SE Runtime Environment
JVM: Java HotSpot(TM) 64-Bit Server VM
Java Version: 1.8.0_241-b07
Operating System: Linux
OS Version: 4.15.0-74-generic
Default Encoding: ISO-8859-1
Language: en
Country: US
--></g></svg>