<?xml version="1.0" encoding="UTF-8" standalone="no"?><svg xmlns="http://www.w3.org/2000/svg" xmlns:xlink="http://www.w3.org/1999/xlink" contentScriptType="application/ecmascript" contentStyleType="text/css" height="190px" preserveAspectRatio="none" style="width:365px;height:190px;" version="1.1" viewBox="0 0 365 190" width="365px" zoomAndPan="magnify"><defs><filter height="300%" id="f4zrnisjpul6s" width="300%" x="-1" y="-1"><feGaussianBlur result="blurOut" stdDeviation="2.0"/><feColorMatrix in="blurOut" result="blurOut2" type="matrix" values="0 0 0 0 0 0 0 0 0 0 0 0 0 0 0 0 0 0 .4 0"/><feOffset dx="4.0" dy="4.0" in="blurOut2" result="blurOut3"/><feBlend in="SourceGraphic" in2="blurOut3" mode="normal"/></filter></defs><g><!--class WikiAjaxDispatcherServlet--><a href="WikiAjaxDispatcherServlet.html" target="_top" xlink:actuate="onRequest" xlink:show="new" xlink:title="WikiAjaxDispatcherServlet.html" xlink:type="simple"><rect fill="#FEFECE" filter="url(#f4zrnisjpul6s)" height="150.4375" id="WikiAjaxDispatcherServlet" style="stroke: #A80036; stroke-width: 1.5;" width="348" x="6" y="8"/><ellipse cx="95.75" cy="24" fill="#ADD1B2" rx="11" ry="11" style="stroke: #A80036; stroke-width: 1.0;"/><path d="M98.7188,29.6406 Q98.1406,29.9375 97.5,30.0859 Q96.8594,30.2344 96.1563,30.2344 Q93.6563,30.2344 92.3359,28.5859 Q91.0156,26.9375 91.0156,23.8125 Q91.0156,20.6875 92.3359,19.0313 Q93.6563,17.375 96.1563,17.375 Q96.8594,17.375 97.5078,17.5313 Q98.1563,17.6875 98.7188,17.9844 L98.7188,20.7031 Q98.0938,20.125 97.5,19.8516 Q96.9063,19.5781 96.2813,19.5781 Q94.9375,19.5781 94.25,20.6484 Q93.5625,21.7188 93.5625,23.8125 Q93.5625,25.9063 94.25,26.9766 Q94.9375,28.0469 96.2813,28.0469 Q96.9063,28.0469 97.5,27.7734 Q98.0938,27.5 98.7188,26.9219 L98.7188,29.6406 Z "/><text fill="#000000" font-family="sans-serif" font-size="12" lengthAdjust="spacingAndGlyphs" textLength="160" x="116.25" y="28.1543">WikiAjaxDispatcherServlet</text><line style="stroke: #A80036; stroke-width: 1.5;" x1="7" x2="353" y1="40" y2="40"/><line style="stroke: #A80036; stroke-width: 1.5;" x1="7" x2="353" y1="48" y2="48"/><ellipse cx="17" cy="59.9023" fill="#84BE84" rx="3" ry="3" style="stroke: #038048; stroke-width: 1.0;"/><text fill="#000000" font-family="sans-serif" font-size="11" lengthAdjust="spacingAndGlyphs" textLength="132" x="26" y="62.2104">init(ServletConfig): void</text><ellipse cx="17" cy="72.707" fill="#84BE84" rx="3" ry="3" style="stroke: #038048; stroke-width: 1.0;"/><text fill="#000000" font-family="sans-serif" font-size="11" lengthAdjust="spacingAndGlyphs" text-decoration="underline" textLength="208" x="26" y="75.0151">registerServlet(WikiAjaxServlet): void</text><ellipse cx="17" cy="85.5117" fill="#84BE84" rx="3" ry="3" style="stroke: #038048; stroke-width: 1.0;"/><text fill="#000000" font-family="sans-serif" font-size="11" lengthAdjust="spacingAndGlyphs" text-decoration="underline" textLength="250" x="26" y="87.8198">registerServlet(String, WikiAjaxServlet): void</text><ellipse cx="17" cy="98.3164" fill="#84BE84" rx="3" ry="3" style="stroke: #038048; stroke-width: 1.0;"/><text fill="#000000" font-family="sans-serif" font-size="11" lengthAdjust="spacingAndGlyphs" text-decoration="underline" textLength="322" x="26" y="100.6245">registerServlet(String, WikiAjaxServlet, Permission): void</text><ellipse cx="17" cy="111.1211" fill="#84BE84" rx="3" ry="3" style="stroke: #038048; stroke-width: 1.0;"/><text fill="#000000" font-family="sans-serif" font-size="11" lengthAdjust="spacingAndGlyphs" textLength="314" x="26" y="113.4292">doPost(HttpServletRequest, HttpServletResponse): void</text><ellipse cx="17" cy="123.9258" fill="#84BE84" rx="3" ry="3" style="stroke: #038048; stroke-width: 1.0;"/><text fill="#000000" font-family="sans-serif" font-size="11" lengthAdjust="spacingAndGlyphs" textLength="309" x="26" y="126.2339">doGet(HttpServletRequest, HttpServletResponse): void</text><ellipse cx="17" cy="136.7305" fill="#84BE84" rx="3" ry="3" style="stroke: #038048; stroke-width: 1.0;"/><text fill="#000000" font-family="sans-serif" font-size="11" lengthAdjust="spacingAndGlyphs" textLength="175" x="26" y="139.0386">getServletName(String): String</text><ellipse cx="17" cy="149.5352" fill="#84BE84" rx="3" ry="3" style="stroke: #038048; stroke-width: 1.0;"/><text fill="#000000" font-family="sans-serif" font-size="11" lengthAdjust="spacingAndGlyphs" textLength="242" x="26" y="151.8433">findServletByName(String): WikiAjaxServlet</text></a><text fill="#888888" font-family="sans-serif" font-size="10" lengthAdjust="spacingAndGlyphs" textLength="186" x="93" y="177.2822">UMLDoclet 1.1.4, PlantUML 1.2019.05</text><!--
@startuml

    class WikiAjaxDispatcherServlet [[WikiAjaxDispatcherServlet.html]] {
        +init(ServletConfig): void
        {static} +registerServlet(WikiAjaxServlet): void
        {static} +registerServlet(String, WikiAjaxServlet): void
        {static} +registerServlet(String, WikiAjaxServlet, Permission): void
        +doPost(HttpServletRequest, HttpServletResponse): void
        +doGet(HttpServletRequest, HttpServletResponse): void
        +getServletName(String): String
        +findServletByName(String): WikiAjaxServlet
    }


    center footer UMLDoclet 1.1.4, PlantUML 1.2019.05
@enduml

PlantUML version 1.2019.05(Sat Apr 20 16:45:36 UTC 2019)
(APACHE source distribution)
Java Runtime: Java(TM) SE Runtime Environment
JVM: Java HotSpot(TM) 64-Bit Server VM
Java Version: 1.8.0_241-b07
Operating System: Linux
OS Version: 4.15.0-76-generic
Default Encoding: ISO-8859-1
Language: en
Country: US
--></g></svg>