<?xml version="1.0" encoding="UTF-8" standalone="no"?><svg xmlns="http://www.w3.org/2000/svg" xmlns:xlink="http://www.w3.org/1999/xlink" contentScriptType="application/ecmascript" contentStyleType="text/css" height="128px" preserveAspectRatio="none" style="width:219px;height:128px;background:#FFFFFF;" version="1.1" viewBox="0 0 219 128" width="219px" zoomAndPan="magnify"><defs><filter height="300%" id="f16tq8wqc8kdvc" width="300%" x="-1" y="-1"><feGaussianBlur result="blurOut" stdDeviation="2.0"/><feColorMatrix in="blurOut" result="blurOut2" type="matrix" values="0 0 0 0 0 0 0 0 0 0 0 0 0 0 0 0 0 0 .4 0"/><feOffset dx="4.0" dy="4.0" in="blurOut2" result="blurOut3"/><feBlend in="SourceGraphic" in2="blurOut3" mode="normal"/></filter></defs><g><!--MD5=[314384c0604f43b516d6801afb70dd1c]
class org.apache.wiki.util.ByteUtils--><a href="ByteUtils.html" target="_top" title="ByteUtils.html" xlink:actuate="onRequest" xlink:href="ByteUtils.html" xlink:show="new" xlink:title="ByteUtils.html" xlink:type="simple"><rect codeLine="5" fill="#FEFECE" filter="url(#f16tq8wqc8kdvc)" height="97.1563" id="org.apache.wiki.util.ByteUtils" style="stroke:#A80036;stroke-width:1.5;" width="198" x="7" y="7"/><ellipse cx="56.25" cy="25.9688" fill="#ADD1B2" rx="11" ry="11" style="stroke:#A80036;stroke-width:1.0;"/><path d="M59.2188,31.6094 Q58.6406,31.9063 58,32.0469 Q57.3594,32.2031 56.6563,32.2031 Q54.1563,32.2031 52.8281,30.5625 Q51.5156,28.9063 51.5156,25.7813 Q51.5156,22.6563 52.8281,21 Q54.1563,19.3438 56.6563,19.3438 Q57.3594,19.3438 58,19.5 Q58.6563,19.6563 59.2188,19.9531 L59.2188,22.6719 Q58.5938,22.0938 58,21.8281 Q57.4063,21.5469 56.7813,21.5469 Q55.4375,21.5469 54.75,22.625 Q54.0625,23.6875 54.0625,25.7813 Q54.0625,27.875 54.75,28.9531 Q55.4375,30.0156 56.7813,30.0156 Q57.4063,30.0156 58,29.75 Q58.5938,29.4688 59.2188,28.8906 L59.2188,31.6094 Z " fill="#000000"/><text fill="#000000" font-family="sans-serif" font-size="14" lengthAdjust="spacing" textLength="60" x="92.25" y="24.9951">ByteUtils</text><text fill="#000000" font-family="sans-serif" font-size="10" lengthAdjust="spacing" textLength="91" x="76.75" y="37.5791">org.apache.wiki.util</text><line style="stroke:#A80036;stroke-width:1.5;" x1="8" x2="204" y1="44.9375" y2="44.9375"/><ellipse cx="18" cy="55.9375" fill="#84BE84" rx="3" ry="3" style="stroke:#038048;stroke-width:1.0;"/><text fill="#000000" font-family="sans-serif" font-size="11" lengthAdjust="spacing" text-decoration="underline" textLength="140" x="27" y="59.1479">bytes2hex(byte[]): String</text><ellipse cx="18" cy="68.7422" fill="#84BE84" rx="3" ry="3" style="stroke:#038048;stroke-width:1.0;"/><text fill="#000000" font-family="sans-serif" font-size="11" lengthAdjust="spacing" text-decoration="underline" textLength="125" x="27" y="71.9526">byte2hex(byte): String</text><ellipse cx="18" cy="81.5469" fill="#84BE84" rx="3" ry="3" style="stroke:#038048;stroke-width:1.0;"/><text fill="#000000" font-family="sans-serif" font-size="11" lengthAdjust="spacing" text-decoration="underline" textLength="172" x="27" y="84.7573">parseHexBinary(String): byte[]</text><ellipse cx="18" cy="94.3516" fill="#84BE84" rx="3" ry="3" style="stroke:#038048;stroke-width:1.0;"/><text fill="#000000" font-family="sans-serif" font-size="11" lengthAdjust="spacing" text-decoration="underline" textLength="107" x="27" y="97.562">hexToBin(char): int</text></a><text fill="#888888" font-family="sans-serif" font-size="10" lengthAdjust="spacing" textLength="186" x="13" y="120.4385">UMLDoclet 2.0.14, PlantUML 1.2021.9</text><!--MD5=[8ab974317e62a4103b2690fd04d0f9d3]
@startuml
    set namespaceSeparator none
    hide empty fields
    hide empty methods

    class "<size:14>ByteUtils\n<size:10>org.apache.wiki.util" as org.apache.wiki.util.ByteUtils [[ByteUtils.html]] {
        {static} +bytes2hex(byte[]): String
        {static} +byte2hex(byte): String
        {static} +parseHexBinary(String): byte[]
        {static} +hexToBin(char): int
    }

    center footer UMLDoclet 2.0.14, PlantUML 1.2021.9
@enduml

PlantUML version 1.2021.9(Sun Jul 25 10:13:56 UTC 2021)
(APACHE source distribution)
Java Runtime: Java(TM) SE Runtime Environment
JVM: Java HotSpot(TM) 64-Bit Server VM
Default Encoding: ISO-8859-1
Language: en
Country: US
--></g></svg>