<?xml version="1.0" encoding="UTF-8" standalone="no"?><svg xmlns="http://www.w3.org/2000/svg" xmlns:xlink="http://www.w3.org/1999/xlink" contentScriptType="application/ecmascript" contentStyleType="text/css" height="419px" preserveAspectRatio="none" style="width:248px;height:419px;" version="1.1" viewBox="0 0 248 419" width="248px" zoomAndPan="magnify"><defs><filter height="300%" id="f1d7l7lgrfh4ku" width="300%" x="-1" y="-1"><feGaussianBlur result="blurOut" stdDeviation="2.0"/><feColorMatrix in="blurOut" result="blurOut2" type="matrix" values="0 0 0 0 0 0 0 0 0 0 0 0 0 0 0 0 0 0 .4 0"/><feOffset dx="4.0" dy="4.0" in="blurOut2" result="blurOut3"/><feBlend in="SourceGraphic" in2="blurOut3" mode="normal"/></filter></defs><g><!--MD5=[6b7369be098769449817cfcccc520f2c]
class org.apache.wiki.tags.BreadcrumbsTag--><a href="BreadcrumbsTag.html" target="_top" title="BreadcrumbsTag.html" xlink:actuate="onRequest" xlink:href="BreadcrumbsTag.html" xlink:show="new" xlink:title="BreadcrumbsTag.html" xlink:type="simple"><rect codeLine="5" fill="#FEFECE" filter="url(#f1d7l7lgrfh4ku)" height="153.0391" id="org.apache.wiki.tags.BreadcrumbsTag" style="stroke: #A80036; stroke-width: 1.5;" width="187" x="24.5" y="129"/><ellipse cx="60.2" cy="149.0938" fill="#ADD1B2" rx="11" ry="11" style="stroke: #A80036; stroke-width: 1.0;"/><path d="M62.9656,144.9688 Q63.1219,144.75 63.3094,144.6406 Q63.4969,144.5313 63.7156,144.5313 Q64.0906,144.5313 64.325,144.7969 Q64.5594,145.0469 64.5594,145.6563 L64.5594,147.1094 Q64.5594,147.7188 64.325,147.9844 Q64.0906,148.25 63.7156,148.25 Q63.3719,148.25 63.1688,148.0469 Q62.9656,147.8594 62.8563,147.3438 Q62.8094,146.9844 62.6219,146.7969 Q62.2938,146.4219 61.6844,146.2031 Q61.075,145.9844 60.45,145.9844 Q59.6844,145.9844 59.0438,146.3125 Q58.4188,146.6406 57.9188,147.3906 Q57.4344,148.1406 57.4344,149.1719 L57.4344,150.2656 Q57.4344,151.5 58.325,152.3281 Q59.2156,153.1406 60.8094,153.1406 Q61.7469,153.1406 62.4031,152.8906 Q62.7938,152.7344 63.2156,152.2969 Q63.4813,152.0313 63.6219,151.9531 Q63.7781,151.875 63.9813,151.875 Q64.3094,151.875 64.5594,152.1406 Q64.825,152.3906 64.825,152.7344 Q64.825,153.0781 64.4813,153.4844 Q63.9813,154.0625 63.1844,154.3906 Q62.1063,154.8438 60.8094,154.8438 Q59.2938,154.8438 58.0906,154.2188 Q57.1063,153.7188 56.4188,152.6563 Q55.7313,151.5781 55.7313,150.2969 L55.7313,149.1406 Q55.7313,147.8125 56.3406,146.6719 Q56.9656,145.5156 58.0594,144.9063 Q59.1531,144.2813 60.3875,144.2813 Q61.1219,144.2813 61.7625,144.4531 Q62.4188,144.6094 62.9656,144.9688 Z "/><text fill="#000000" font-family="sans-serif" font-size="14" lengthAdjust="spacingAndGlyphs" textLength="109" x="78.8" y="148.5332">BreadcrumbsTag</text><text fill="#000000" font-family="sans-serif" font-size="10" lengthAdjust="spacingAndGlyphs" textLength="96" x="85.3" y="161.9902">org.apache.wiki.tags</text><line style="stroke: #A80036; stroke-width: 1.5;" x1="25.5" x2="210.5" y1="169.1875" y2="169.1875"/><ellipse cx="35.5" cy="180.1875" fill="none" rx="3" ry="3" style="stroke: #038048; stroke-width: 1.0;"/><text fill="#000000" font-family="sans-serif" font-size="11" lengthAdjust="spacingAndGlyphs" text-decoration="underline" textLength="161" x="44.5" y="184.6064">BREADCRUMBTRAIL_KEY: String</text><line style="stroke: #A80036; stroke-width: 1.5;" x1="25.5" x2="210.5" y1="191.0234" y2="191.0234"/><ellipse cx="35.5" cy="202.0234" fill="#84BE84" rx="3" ry="3" style="stroke: #038048; stroke-width: 1.0;"/><text fill="#000000" font-family="sans-serif" font-size="11" lengthAdjust="spacingAndGlyphs" textLength="65" x="44.5" y="206.4424">initTag(): void</text><ellipse cx="35.5" cy="215.8594" fill="#84BE84" rx="3" ry="3" style="stroke: #038048; stroke-width: 1.0;"/><text fill="#000000" font-family="sans-serif" font-size="11" lengthAdjust="spacingAndGlyphs" textLength="90" x="44.5" y="220.2783">getMaxpages(): int</text><ellipse cx="35.5" cy="229.6953" fill="#84BE84" rx="3" ry="3" style="stroke: #038048; stroke-width: 1.0;"/><text fill="#000000" font-family="sans-serif" font-size="11" lengthAdjust="spacingAndGlyphs" textLength="110" x="44.5" y="234.1143">setMaxpages(int): void</text><ellipse cx="35.5" cy="243.5313" fill="#84BE84" rx="3" ry="3" style="stroke: #038048; stroke-width: 1.0;"/><text fill="#000000" font-family="sans-serif" font-size="11" lengthAdjust="spacingAndGlyphs" textLength="105" x="44.5" y="247.9502">getSeparator(): String</text><ellipse cx="35.5" cy="257.3672" fill="#84BE84" rx="3" ry="3" style="stroke: #038048; stroke-width: 1.0;"/><text fill="#000000" font-family="sans-serif" font-size="11" lengthAdjust="spacingAndGlyphs" textLength="125" x="44.5" y="261.7861">setSeparator(String): void</text><ellipse cx="35.5" cy="271.2031" fill="#84BE84" rx="3" ry="3" style="stroke: #038048; stroke-width: 1.0;"/><text fill="#000000" font-family="sans-serif" font-size="11" lengthAdjust="spacingAndGlyphs" textLength="97" x="44.5" y="275.6221">doWikiStartTag(): int</text></a><!--MD5=[0148d16490ea9d40379f79f2f3eafb9d]
class org.apache.wiki.tags.WikiTagBase--><a href="WikiTagBase.html" target="_top" title="WikiTagBase.html" xlink:actuate="onRequest" xlink:href="WikiTagBase.html" xlink:show="new" xlink:title="WikiTagBase.html" xlink:type="simple"><rect codeLine="15" fill="#FEFECE" filter="url(#f1d7l7lgrfh4ku)" height="62.0234" id="org.apache.wiki.tags.WikiTagBase" style="stroke: #A80036; stroke-width: 1.5;" width="130" x="53" y="7"/><ellipse cx="68" cy="27.0938" fill="#A9DCDF" rx="11" ry="11" style="stroke: #A80036; stroke-width: 1.0;"/><path d="M70.1875,28.8594 L66.0469,28.8594 L65.625,29.8906 L66.0469,29.8906 Q66.6563,29.8906 66.9219,30.125 Q67.1875,30.3594 67.1875,30.75 Q67.1875,31.125 66.9219,31.3594 Q66.6563,31.5938 66.0469,31.5938 L63.75,31.5938 Q63.1406,31.5938 62.8906,31.3594 Q62.625,31.125 62.625,30.7344 Q62.625,30.3594 62.9063,30.125 Q63.1719,29.875 63.7969,29.8906 L66.4688,23.2344 L65.3594,23.2344 Q64.75,23.2344 64.4844,23 Q64.2188,22.7656 64.2188,22.375 Q64.2188,22 64.4844,21.7656 Q64.75,21.5313 65.3594,21.5313 L69.0313,21.5313 L72.4219,29.8906 Q73.0156,29.8906 73.2031,30.0313 Q73.5938,30.2969 73.5938,30.75 Q73.5938,31.125 73.3281,31.3594 Q73.0781,31.5938 72.4688,31.5938 L70.1719,31.5938 Q69.5625,31.5938 69.2969,31.3594 Q69.0313,31.125 69.0313,30.7344 Q69.0313,30.3594 69.2969,30.125 Q69.5625,29.8906 70.1719,29.8906 L70.5938,29.8906 L70.1875,28.8594 Z M69.4688,27.1563 L68.1094,23.7813 L66.7344,27.1563 L69.4688,27.1563 Z "/><text fill="#000000" font-family="sans-serif" font-size="14" font-style="italic" lengthAdjust="spacingAndGlyphs" textLength="85" x="88.5" y="26.5332">WikiTagBase</text><text fill="#000000" font-family="sans-serif" font-size="10" font-style="italic" lengthAdjust="spacingAndGlyphs" textLength="98" x="82" y="39.9902">org.apache.wiki.tags</text><line style="stroke: #A80036; stroke-width: 1.5;" x1="54" x2="182" y1="47.1875" y2="47.1875"/><ellipse cx="64" cy="58.1875" fill="#84BE84" rx="3" ry="3" style="stroke: #038048; stroke-width: 1.0;"/><text fill="#000000" font-family="sans-serif" font-size="11" font-style="italic" lengthAdjust="spacingAndGlyphs" textLength="103" x="73" y="62.6064">doWikiStartTag(): int</text></a><!--MD5=[75616bd87cbcbc15f6ce64168a471c69]
class org.apache.wiki.tags.BreadcrumbsTag.FixedQueue--><a href="BreadcrumbsTag.FixedQueue.html" target="_top" title="BreadcrumbsTag.FixedQueue.html" xlink:actuate="onRequest" xlink:href="BreadcrumbsTag.FixedQueue.html" xlink:show="new" xlink:title="BreadcrumbsTag.FixedQueue.html" xlink:type="simple"><rect codeLine="18" fill="#FEFECE" filter="url(#f1d7l7lgrfh4ku)" height="40.1875" id="org.apache.wiki.tags.BreadcrumbsTag.FixedQueue" style="stroke: #A80036; stroke-width: 1.5;" width="222" x="7" y="342"/><ellipse cx="22" cy="362.0938" fill="#ADD1B2" rx="11" ry="11" style="stroke: #A80036; stroke-width: 1.0;"/><path d="M24.7656,357.9688 Q24.9219,357.75 25.1094,357.6406 Q25.2969,357.5313 25.5156,357.5313 Q25.8906,357.5313 26.125,357.7969 Q26.3594,358.0469 26.3594,358.6563 L26.3594,360.1094 Q26.3594,360.7188 26.125,360.9844 Q25.8906,361.25 25.5156,361.25 Q25.1719,361.25 24.9688,361.0469 Q24.7656,360.8594 24.6563,360.3438 Q24.6094,359.9844 24.4219,359.7969 Q24.0938,359.4219 23.4844,359.2031 Q22.875,358.9844 22.25,358.9844 Q21.4844,358.9844 20.8438,359.3125 Q20.2188,359.6406 19.7188,360.3906 Q19.2344,361.1406 19.2344,362.1719 L19.2344,363.2656 Q19.2344,364.5 20.125,365.3281 Q21.0156,366.1406 22.6094,366.1406 Q23.5469,366.1406 24.2031,365.8906 Q24.5938,365.7344 25.0156,365.2969 Q25.2813,365.0313 25.4219,364.9531 Q25.5781,364.875 25.7813,364.875 Q26.1094,364.875 26.3594,365.1406 Q26.625,365.3906 26.625,365.7344 Q26.625,366.0781 26.2813,366.4844 Q25.7813,367.0625 24.9844,367.3906 Q23.9063,367.8438 22.6094,367.8438 Q21.0938,367.8438 19.8906,367.2188 Q18.9063,366.7188 18.2188,365.6563 Q17.5313,364.5781 17.5313,363.2969 L17.5313,362.1406 Q17.5313,360.8125 18.1406,359.6719 Q18.7656,358.5156 19.8594,357.9063 Q20.9531,357.2813 22.1875,357.2813 Q22.9219,357.2813 23.5625,357.4531 Q24.2188,357.6094 24.7656,357.9688 Z "/><text fill="#000000" font-family="sans-serif" font-size="14" lengthAdjust="spacingAndGlyphs" textLength="190" x="36" y="361.5332">BreadcrumbsTag.FixedQueue</text><text fill="#000000" font-family="sans-serif" font-size="10" lengthAdjust="spacingAndGlyphs" textLength="96" x="83" y="374.9902">org.apache.wiki.tags</text></a><!--MD5=[63d7728ee47ecb50fb9ad2259b885257]
reverse link org.apache.wiki.tags.WikiTagBase to org.apache.wiki.tags.BreadcrumbsTag--><path codeLine="20" d="M118,89.4514 C118,101.9475 118,115.5765 118,128.9582 " fill="none" id="org.apache.wiki.tags.WikiTagBase-backto-org.apache.wiki.tags.BreadcrumbsTag" style="stroke: #A80036; stroke-width: 1.0;"/><polygon fill="none" points="111.0001,89.1129,118,69.1129,125.0001,89.1129,111.0001,89.1129" style="stroke: #A80036; stroke-width: 1.0;"/><!--MD5=[5b4896faefed1cef388141f8c98bf265]
reverse link org.apache.wiki.tags.BreadcrumbsTag to org.apache.wiki.tags.BreadcrumbsTag.FixedQueue--><path codeLine="21" d="M118,297.4917 C118,314.1541 118,329.9584 118,341.7533 " fill="none" id="org.apache.wiki.tags.BreadcrumbsTag-backto-org.apache.wiki.tags.BreadcrumbsTag.FixedQueue" style="stroke: #A80036; stroke-width: 1.0;"/><ellipse cx="118.0001" cy="290.3746" fill="#FFFFFF" rx="8" ry="8" style="stroke: #A80036; stroke-width: 1.0;"/><line style="stroke: #A80036; stroke-width: 1.0;" x1="118.0002" x2="118" y1="298.3746" y2="282.3746"/><line style="stroke: #A80036; stroke-width: 1.0;" x1="110.0001" x2="126.0001" y1="290.3747" y2="290.3745"/><text fill="#888888" font-family="sans-serif" font-size="10" lengthAdjust="spacingAndGlyphs" textLength="190" x="20" y="405.5684">UMLDoclet 2.0.12, PlantUML 1.2020.16</text><!--MD5=[853af6bfbd8a3f55de53f97c54fb7732]
@startuml
    set namespaceSeparator none
    hide empty fields
    hide empty methods

    class "<size:14>BreadcrumbsTag\n<size:10>org.apache.wiki.tags" as org.apache.wiki.tags.BreadcrumbsTag [[BreadcrumbsTag.html]] {
        {static} +BREADCRUMBTRAIL_KEY: String
        +initTag(): void
        +getMaxpages(): int
        +setMaxpages(int): void
        +getSeparator(): String
        +setSeparator(String): void
        +doWikiStartTag(): int
    }

    abstract class "<size:14>WikiTagBase\n<size:10>org.apache.wiki.tags" as org.apache.wiki.tags.WikiTagBase [[WikiTagBase.html]] {
        {abstract} +doWikiStartTag(): int
    }
    class "<size:14>BreadcrumbsTag.FixedQueue\n<size:10>org.apache.wiki.tags" as org.apache.wiki.tags.BreadcrumbsTag.FixedQueue [[BreadcrumbsTag.FixedQueue.html]]

    org.apache.wiki.tags.WikiTagBase <|- - org.apache.wiki.tags.BreadcrumbsTag
    org.apache.wiki.tags.BreadcrumbsTag +- - org.apache.wiki.tags.BreadcrumbsTag.FixedQueue

    center footer UMLDoclet 2.0.12, PlantUML 1.2020.16
@enduml

PlantUML version 1.2020.16(Sun Aug 23 22:20:43 CEST 2020)
(APACHE source distribution)
Java Runtime: OpenJDK Runtime Environment
JVM: OpenJDK 64-Bit Server VM
Default Encoding: Cp1252
Language: es
Country: ES
--></g></svg>