<?xml version="1.0" encoding="UTF-8" standalone="no"?><svg xmlns="http://www.w3.org/2000/svg" xmlns:xlink="http://www.w3.org/1999/xlink" contentScriptType="application/ecmascript" contentStyleType="text/css" height="305px" preserveAspectRatio="none" style="width:202px;height:305px;" version="1.1" viewBox="0 0 202 305" width="202px" zoomAndPan="magnify"><defs><filter height="300%" id="ffgllg0z17et6" width="300%" x="-1" y="-1"><feGaussianBlur result="blurOut" stdDeviation="2.0"/><feColorMatrix in="blurOut" result="blurOut2" type="matrix" values="0 0 0 0 0 0 0 0 0 0 0 0 0 0 0 0 0 0 .4 0"/><feOffset dx="4.0" dy="4.0" in="blurOut2" result="blurOut3"/><feBlend in="SourceGraphic" in2="blurOut3" mode="normal"/></filter></defs><g><!--MD5=[b434e43872f9523f477a2d0ccc3f0862]
class org.apache.wiki.tags.IncludeTag--><a href="IncludeTag.html" target="_top" title="IncludeTag.html" xlink:actuate="onRequest" xlink:href="IncludeTag.html" xlink:show="new" xlink:title="IncludeTag.html" xlink:type="simple"><rect codeLine="5" fill="#FEFECE" filter="url(#ffgllg0z17et6)" height="139.2031" id="org.apache.wiki.tags.IncludeTag" style="stroke: #A80036; stroke-width: 1.5;" width="128" x="34.5" y="129"/><ellipse cx="49.5" cy="149.0938" fill="#ADD1B2" rx="11" ry="11" style="stroke: #A80036; stroke-width: 1.0;"/><path d="M52.2656,144.9688 Q52.4219,144.75 52.6094,144.6406 Q52.7969,144.5313 53.0156,144.5313 Q53.3906,144.5313 53.625,144.7969 Q53.8594,145.0469 53.8594,145.6563 L53.8594,147.1094 Q53.8594,147.7188 53.625,147.9844 Q53.3906,148.25 53.0156,148.25 Q52.6719,148.25 52.4688,148.0469 Q52.2656,147.8594 52.1563,147.3438 Q52.1094,146.9844 51.9219,146.7969 Q51.5938,146.4219 50.9844,146.2031 Q50.375,145.9844 49.75,145.9844 Q48.9844,145.9844 48.3438,146.3125 Q47.7188,146.6406 47.2188,147.3906 Q46.7344,148.1406 46.7344,149.1719 L46.7344,150.2656 Q46.7344,151.5 47.625,152.3281 Q48.5156,153.1406 50.1094,153.1406 Q51.0469,153.1406 51.7031,152.8906 Q52.0938,152.7344 52.5156,152.2969 Q52.7813,152.0313 52.9219,151.9531 Q53.0781,151.875 53.2813,151.875 Q53.6094,151.875 53.8594,152.1406 Q54.125,152.3906 54.125,152.7344 Q54.125,153.0781 53.7813,153.4844 Q53.2813,154.0625 52.4844,154.3906 Q51.4063,154.8438 50.1094,154.8438 Q48.5938,154.8438 47.3906,154.2188 Q46.4063,153.7188 45.7188,152.6563 Q45.0313,151.5781 45.0313,150.2969 L45.0313,149.1406 Q45.0313,147.8125 45.6406,146.6719 Q46.2656,145.5156 47.3594,144.9063 Q48.4531,144.2813 49.6875,144.2813 Q50.4219,144.2813 51.0625,144.4531 Q51.7188,144.6094 52.2656,144.9688 Z "/><text fill="#000000" font-family="sans-serif" font-size="14" lengthAdjust="spacingAndGlyphs" textLength="70" x="76.5" y="148.5332">IncludeTag</text><text fill="#000000" font-family="sans-serif" font-size="10" lengthAdjust="spacingAndGlyphs" textLength="96" x="63.5" y="161.9902">org.apache.wiki.tags</text><line style="stroke: #A80036; stroke-width: 1.5;" x1="35.5" x2="161.5" y1="169.1875" y2="169.1875"/><polygon fill="none" points="45.5,175.1875,49.5,179.1875,45.5,183.1875,41.5,179.1875" style="stroke: #B38D22; stroke-width: 1.0;"/><text fill="#000000" font-family="sans-serif" font-size="11" lengthAdjust="spacingAndGlyphs" textLength="72" x="54.5" y="184.6064">m_page: String</text><line style="stroke: #A80036; stroke-width: 1.5;" x1="35.5" x2="161.5" y1="191.0234" y2="191.0234"/><ellipse cx="45.5" cy="202.0234" fill="#84BE84" rx="3" ry="3" style="stroke: #038048; stroke-width: 1.0;"/><text fill="#000000" font-family="sans-serif" font-size="11" lengthAdjust="spacingAndGlyphs" textLength="65" x="54.5" y="206.4424">initTag(): void</text><ellipse cx="45.5" cy="215.8594" fill="#84BE84" rx="3" ry="3" style="stroke: #038048; stroke-width: 1.0;"/><text fill="#000000" font-family="sans-serif" font-size="11" lengthAdjust="spacingAndGlyphs" textLength="101" x="54.5" y="220.2783">setPage(String): void</text><ellipse cx="45.5" cy="229.6953" fill="#84BE84" rx="3" ry="3" style="stroke: #038048; stroke-width: 1.0;"/><text fill="#000000" font-family="sans-serif" font-size="11" lengthAdjust="spacingAndGlyphs" textLength="81" x="54.5" y="234.1143">getPage(): String</text><ellipse cx="45.5" cy="243.5313" fill="#84BE84" rx="3" ry="3" style="stroke: #038048; stroke-width: 1.0;"/><text fill="#000000" font-family="sans-serif" font-size="11" lengthAdjust="spacingAndGlyphs" textLength="97" x="54.5" y="247.9502">doWikiStartTag(): int</text><ellipse cx="45.5" cy="257.3672" fill="#84BE84" rx="3" ry="3" style="stroke: #038048; stroke-width: 1.0;"/><text fill="#000000" font-family="sans-serif" font-size="11" lengthAdjust="spacingAndGlyphs" textLength="73" x="54.5" y="261.7861">doEndTag(): int</text></a><!--MD5=[0148d16490ea9d40379f79f2f3eafb9d]
class org.apache.wiki.tags.WikiTagBase--><a href="WikiTagBase.html" target="_top" title="WikiTagBase.html" xlink:actuate="onRequest" xlink:href="WikiTagBase.html" xlink:show="new" xlink:title="WikiTagBase.html" xlink:type="simple"><rect codeLine="14" fill="#FEFECE" filter="url(#ffgllg0z17et6)" height="62.0234" id="org.apache.wiki.tags.WikiTagBase" style="stroke: #A80036; stroke-width: 1.5;" width="130" x="33.5" y="7"/><ellipse cx="48.5" cy="27.0938" fill="#A9DCDF" rx="11" ry="11" style="stroke: #A80036; stroke-width: 1.0;"/><path d="M50.6875,28.8594 L46.5469,28.8594 L46.125,29.8906 L46.5469,29.8906 Q47.1563,29.8906 47.4219,30.125 Q47.6875,30.3594 47.6875,30.75 Q47.6875,31.125 47.4219,31.3594 Q47.1563,31.5938 46.5469,31.5938 L44.25,31.5938 Q43.6406,31.5938 43.3906,31.3594 Q43.125,31.125 43.125,30.7344 Q43.125,30.3594 43.4063,30.125 Q43.6719,29.875 44.2969,29.8906 L46.9688,23.2344 L45.8594,23.2344 Q45.25,23.2344 44.9844,23 Q44.7188,22.7656 44.7188,22.375 Q44.7188,22 44.9844,21.7656 Q45.25,21.5313 45.8594,21.5313 L49.5313,21.5313 L52.9219,29.8906 Q53.5156,29.8906 53.7031,30.0313 Q54.0938,30.2969 54.0938,30.75 Q54.0938,31.125 53.8281,31.3594 Q53.5781,31.5938 52.9688,31.5938 L50.6719,31.5938 Q50.0625,31.5938 49.7969,31.3594 Q49.5313,31.125 49.5313,30.7344 Q49.5313,30.3594 49.7969,30.125 Q50.0625,29.8906 50.6719,29.8906 L51.0938,29.8906 L50.6875,28.8594 Z M49.9688,27.1563 L48.6094,23.7813 L47.2344,27.1563 L49.9688,27.1563 Z "/><text fill="#000000" font-family="sans-serif" font-size="14" font-style="italic" lengthAdjust="spacingAndGlyphs" textLength="85" x="69" y="26.5332">WikiTagBase</text><text fill="#000000" font-family="sans-serif" font-size="10" font-style="italic" lengthAdjust="spacingAndGlyphs" textLength="98" x="62.5" y="39.9902">org.apache.wiki.tags</text><line style="stroke: #A80036; stroke-width: 1.5;" x1="34.5" x2="162.5" y1="47.1875" y2="47.1875"/><ellipse cx="44.5" cy="58.1875" fill="#84BE84" rx="3" ry="3" style="stroke: #038048; stroke-width: 1.0;"/><text fill="#000000" font-family="sans-serif" font-size="11" font-style="italic" lengthAdjust="spacingAndGlyphs" textLength="103" x="53.5" y="62.6064">doWikiStartTag(): int</text></a><!--MD5=[683bb039c75dc114aaf00ad094057688]
reverse link org.apache.wiki.tags.WikiTagBase to org.apache.wiki.tags.IncludeTag--><path codeLine="18" d="M98.5,89.6468 C98.5,102.0939 98.5,115.5972 98.5,128.7206 " fill="none" id="org.apache.wiki.tags.WikiTagBase-backto-org.apache.wiki.tags.IncludeTag" style="stroke: #A80036; stroke-width: 1.0;"/><polygon fill="none" points="91.5001,89.3271,98.5,69.327,105.5001,89.327,91.5001,89.3271" style="stroke: #A80036; stroke-width: 1.0;"/><text fill="#888888" font-family="sans-serif" font-size="10" lengthAdjust="spacingAndGlyphs" textLength="190" x="0" y="291.584">UMLDoclet 2.0.12, PlantUML 1.2020.16</text><!--MD5=[f3d6e7583ceedeae890a9e6d279e2ec5]
@startuml
    set namespaceSeparator none
    hide empty fields
    hide empty methods

    class "<size:14>IncludeTag\n<size:10>org.apache.wiki.tags" as org.apache.wiki.tags.IncludeTag [[IncludeTag.html]] {
        #m_page: String
        +initTag(): void
        +setPage(String): void
        +getPage(): String
        +doWikiStartTag(): int
        +doEndTag(): int
    }

    abstract class "<size:14>WikiTagBase\n<size:10>org.apache.wiki.tags" as org.apache.wiki.tags.WikiTagBase [[WikiTagBase.html]] {
        {abstract} +doWikiStartTag(): int
    }

    org.apache.wiki.tags.WikiTagBase <|- - org.apache.wiki.tags.IncludeTag

    center footer UMLDoclet 2.0.12, PlantUML 1.2020.16
@enduml

PlantUML version 1.2020.16(Sun Aug 23 22:20:43 CEST 2020)
(APACHE source distribution)
Java Runtime: OpenJDK Runtime Environment
JVM: OpenJDK 64-Bit Server VM
Default Encoding: Cp1252
Language: es
Country: ES
--></g></svg>