<?xml version="1.0" encoding="UTF-8" standalone="no"?><svg xmlns="http://www.w3.org/2000/svg" xmlns:xlink="http://www.w3.org/1999/xlink" contentScriptType="application/ecmascript" contentStyleType="text/css" height="305px" preserveAspectRatio="none" style="width:202px;height:305px;" version="1.1" viewBox="0 0 202 305" width="202px" zoomAndPan="magnify"><defs><filter height="300%" id="f1o1xhcru0yvgv" width="300%" x="-1" y="-1"><feGaussianBlur result="blurOut" stdDeviation="2.0"/><feColorMatrix in="blurOut" result="blurOut2" type="matrix" values="0 0 0 0 0 0 0 0 0 0 0 0 0 0 0 0 0 0 .4 0"/><feOffset dx="4.0" dy="4.0" in="blurOut2" result="blurOut3"/><feBlend in="SourceGraphic" in2="blurOut3" mode="normal"/></filter></defs><g><!--MD5=[4223acf0c7a4a57098d50bb15e21fdd7]
class org.apache.wiki.tags.UserProfileTag--><a href="UserProfileTag.html" target="_top" title="UserProfileTag.html" xlink:actuate="onRequest" xlink:href="UserProfileTag.html" xlink:show="new" xlink:title="UserProfileTag.html" xlink:type="simple"><rect codeLine="5" fill="#FEFECE" filter="url(#f1o1xhcru0yvgv)" height="139.2031" id="org.apache.wiki.tags.UserProfileTag" style="stroke: #A80036; stroke-width: 1.5;" width="162" x="17" y="129"/><ellipse cx="47.3" cy="149.0938" fill="#ADD1B2" rx="11" ry="11" style="stroke: #A80036; stroke-width: 1.0;"/><path d="M50.0656,144.9688 Q50.2219,144.75 50.4094,144.6406 Q50.5969,144.5313 50.8156,144.5313 Q51.1906,144.5313 51.425,144.7969 Q51.6594,145.0469 51.6594,145.6563 L51.6594,147.1094 Q51.6594,147.7188 51.425,147.9844 Q51.1906,148.25 50.8156,148.25 Q50.4719,148.25 50.2688,148.0469 Q50.0656,147.8594 49.9563,147.3438 Q49.9094,146.9844 49.7219,146.7969 Q49.3938,146.4219 48.7844,146.2031 Q48.175,145.9844 47.55,145.9844 Q46.7844,145.9844 46.1438,146.3125 Q45.5188,146.6406 45.0188,147.3906 Q44.5344,148.1406 44.5344,149.1719 L44.5344,150.2656 Q44.5344,151.5 45.425,152.3281 Q46.3156,153.1406 47.9094,153.1406 Q48.8469,153.1406 49.5031,152.8906 Q49.8938,152.7344 50.3156,152.2969 Q50.5813,152.0313 50.7219,151.9531 Q50.8781,151.875 51.0813,151.875 Q51.4094,151.875 51.6594,152.1406 Q51.925,152.3906 51.925,152.7344 Q51.925,153.0781 51.5813,153.4844 Q51.0813,154.0625 50.2844,154.3906 Q49.2063,154.8438 47.9094,154.8438 Q46.3938,154.8438 45.1906,154.2188 Q44.2063,153.7188 43.5188,152.6563 Q42.8313,151.5781 42.8313,150.2969 L42.8313,149.1406 Q42.8313,147.8125 43.4406,146.6719 Q44.0656,145.5156 45.1594,144.9063 Q46.2531,144.2813 47.4875,144.2813 Q48.2219,144.2813 48.8625,144.4531 Q49.5188,144.6094 50.0656,144.9688 Z "/><text fill="#000000" font-family="sans-serif" font-size="14" lengthAdjust="spacingAndGlyphs" textLength="94" x="65.7" y="148.5332">UserProfileTag</text><text fill="#000000" font-family="sans-serif" font-size="10" lengthAdjust="spacingAndGlyphs" textLength="96" x="64.7" y="161.9902">org.apache.wiki.tags</text><line style="stroke: #A80036; stroke-width: 1.5;" x1="18" x2="178" y1="169.1875" y2="169.1875"/><ellipse cx="28" cy="180.1875" fill="none" rx="3" ry="3" style="stroke: #038048; stroke-width: 1.0;"/><text fill="#000000" font-family="sans-serif" font-size="11" lengthAdjust="spacingAndGlyphs" text-decoration="underline" textLength="69" x="37" y="184.6064">BLANK: String</text><line style="stroke: #A80036; stroke-width: 1.5;" x1="18" x2="178" y1="191.0234" y2="191.0234"/><ellipse cx="28" cy="202.0234" fill="#84BE84" rx="3" ry="3" style="stroke: #038048; stroke-width: 1.0;"/><text fill="#000000" font-family="sans-serif" font-size="11" lengthAdjust="spacingAndGlyphs" textLength="65" x="37" y="206.4424">initTag(): void</text><ellipse cx="28" cy="215.8594" fill="#84BE84" rx="3" ry="3" style="stroke: #038048; stroke-width: 1.0;"/><text fill="#000000" font-family="sans-serif" font-size="11" lengthAdjust="spacingAndGlyphs" textLength="97" x="37" y="220.2783">doWikiStartTag(): int</text><ellipse cx="28" cy="229.6953" fill="#84BE84" rx="3" ry="3" style="stroke: #038048; stroke-width: 1.0;"/><text fill="#000000" font-family="sans-serif" font-size="11" lengthAdjust="spacingAndGlyphs" textLength="118" x="37" y="234.1143">setProperty(String): void</text><ellipse cx="28" cy="243.5313" fill="#84BE84" rx="3" ry="3" style="stroke: #038048; stroke-width: 1.0;"/><text fill="#000000" font-family="sans-serif" font-size="11" lengthAdjust="spacingAndGlyphs" text-decoration="underline" textLength="136" x="37" y="247.9502">printGroups(Context): String</text><ellipse cx="28" cy="257.3672" fill="#84BE84" rx="3" ry="3" style="stroke: #038048; stroke-width: 1.0;"/><text fill="#000000" font-family="sans-serif" font-size="11" lengthAdjust="spacingAndGlyphs" text-decoration="underline" textLength="127" x="37" y="261.7861">printRoles(Context): String</text></a><!--MD5=[0148d16490ea9d40379f79f2f3eafb9d]
class org.apache.wiki.tags.WikiTagBase--><a href="WikiTagBase.html" target="_top" title="WikiTagBase.html" xlink:actuate="onRequest" xlink:href="WikiTagBase.html" xlink:show="new" xlink:title="WikiTagBase.html" xlink:type="simple"><rect codeLine="14" fill="#FEFECE" filter="url(#f1o1xhcru0yvgv)" height="62.0234" id="org.apache.wiki.tags.WikiTagBase" style="stroke: #A80036; stroke-width: 1.5;" width="130" x="33" y="7"/><ellipse cx="48" cy="27.0938" fill="#A9DCDF" rx="11" ry="11" style="stroke: #A80036; stroke-width: 1.0;"/><path d="M50.1875,28.8594 L46.0469,28.8594 L45.625,29.8906 L46.0469,29.8906 Q46.6563,29.8906 46.9219,30.125 Q47.1875,30.3594 47.1875,30.75 Q47.1875,31.125 46.9219,31.3594 Q46.6563,31.5938 46.0469,31.5938 L43.75,31.5938 Q43.1406,31.5938 42.8906,31.3594 Q42.625,31.125 42.625,30.7344 Q42.625,30.3594 42.9063,30.125 Q43.1719,29.875 43.7969,29.8906 L46.4688,23.2344 L45.3594,23.2344 Q44.75,23.2344 44.4844,23 Q44.2188,22.7656 44.2188,22.375 Q44.2188,22 44.4844,21.7656 Q44.75,21.5313 45.3594,21.5313 L49.0313,21.5313 L52.4219,29.8906 Q53.0156,29.8906 53.2031,30.0313 Q53.5938,30.2969 53.5938,30.75 Q53.5938,31.125 53.3281,31.3594 Q53.0781,31.5938 52.4688,31.5938 L50.1719,31.5938 Q49.5625,31.5938 49.2969,31.3594 Q49.0313,31.125 49.0313,30.7344 Q49.0313,30.3594 49.2969,30.125 Q49.5625,29.8906 50.1719,29.8906 L50.5938,29.8906 L50.1875,28.8594 Z M49.4688,27.1563 L48.1094,23.7813 L46.7344,27.1563 L49.4688,27.1563 Z "/><text fill="#000000" font-family="sans-serif" font-size="14" font-style="italic" lengthAdjust="spacingAndGlyphs" textLength="85" x="68.5" y="26.5332">WikiTagBase</text><text fill="#000000" font-family="sans-serif" font-size="10" font-style="italic" lengthAdjust="spacingAndGlyphs" textLength="98" x="62" y="39.9902">org.apache.wiki.tags</text><line style="stroke: #A80036; stroke-width: 1.5;" x1="34" x2="162" y1="47.1875" y2="47.1875"/><ellipse cx="44" cy="58.1875" fill="#84BE84" rx="3" ry="3" style="stroke: #038048; stroke-width: 1.0;"/><text fill="#000000" font-family="sans-serif" font-size="11" font-style="italic" lengthAdjust="spacingAndGlyphs" textLength="103" x="53" y="62.6064">doWikiStartTag(): int</text></a><!--MD5=[1ad116cbb1f03b4a26a123e8e386c00c]
reverse link org.apache.wiki.tags.WikiTagBase to org.apache.wiki.tags.UserProfileTag--><path codeLine="18" d="M98,89.6468 C98,102.0939 98,115.5972 98,128.7206 " fill="none" id="org.apache.wiki.tags.WikiTagBase-backto-org.apache.wiki.tags.UserProfileTag" style="stroke: #A80036; stroke-width: 1.0;"/><polygon fill="none" points="91.0001,89.3271,98,69.327,105.0001,89.327,91.0001,89.3271" style="stroke: #A80036; stroke-width: 1.0;"/><text fill="#888888" font-family="sans-serif" font-size="10" lengthAdjust="spacingAndGlyphs" textLength="190" x="0" y="291.584">UMLDoclet 2.0.12, PlantUML 1.2020.16</text><!--MD5=[494bc8c5d3ff90f2ca90a9da771f7375]
@startuml
    set namespaceSeparator none
    hide empty fields
    hide empty methods

    class "<size:14>UserProfileTag\n<size:10>org.apache.wiki.tags" as org.apache.wiki.tags.UserProfileTag [[UserProfileTag.html]] {
        {static} +BLANK: String
        +initTag(): void
        +doWikiStartTag(): int
        +setProperty(String): void
        {static} +printGroups(Context): String
        {static} +printRoles(Context): String
    }

    abstract class "<size:14>WikiTagBase\n<size:10>org.apache.wiki.tags" as org.apache.wiki.tags.WikiTagBase [[WikiTagBase.html]] {
        {abstract} +doWikiStartTag(): int
    }

    org.apache.wiki.tags.WikiTagBase <|- - org.apache.wiki.tags.UserProfileTag

    center footer UMLDoclet 2.0.12, PlantUML 1.2020.16
@enduml

PlantUML version 1.2020.16(Sun Aug 23 22:20:43 CEST 2020)
(APACHE source distribution)
Java Runtime: OpenJDK Runtime Environment
JVM: OpenJDK 64-Bit Server VM
Default Encoding: Cp1252
Language: es
Country: ES
--></g></svg>