<?xml version="1.0" encoding="UTF-8" standalone="no"?><svg xmlns="http://www.w3.org/2000/svg" xmlns:xlink="http://www.w3.org/1999/xlink" contentScriptType="application/ecmascript" contentStyleType="text/css" height="360px" preserveAspectRatio="none" style="width:352px;height:360px;" version="1.1" viewBox="0 0 352 360" width="352px" zoomAndPan="magnify"><defs><filter height="300%" id="f1vdyv0s2a472h" width="300%" x="-1" y="-1"><feGaussianBlur result="blurOut" stdDeviation="2.0"/><feColorMatrix in="blurOut" result="blurOut2" type="matrix" values="0 0 0 0 0 0 0 0 0 0 0 0 0 0 0 0 0 0 .4 0"/><feOffset dx="4.0" dy="4.0" in="blurOut2" result="blurOut3"/><feBlend in="SourceGraphic" in2="blurOut3" mode="normal"/></filter></defs><g><!--MD5=[0148d16490ea9d40379f79f2f3eafb9d]
class org.apache.wiki.tags.WikiTagBase--><a href="WikiTagBase.html" target="_top" title="WikiTagBase.html" xlink:actuate="onRequest" xlink:href="WikiTagBase.html" xlink:show="new" xlink:title="WikiTagBase.html" xlink:type="simple"><rect codeLine="5" fill="#FEFECE" filter="url(#f1vdyv0s2a472h)" height="180.7109" id="org.apache.wiki.tags.WikiTagBase" style="stroke: #A80036; stroke-width: 1.5;" width="197" x="67.5" y="143"/><ellipse cx="112.75" cy="163.0938" fill="#A9DCDF" rx="11" ry="11" style="stroke: #A80036; stroke-width: 1.0;"/><path d="M114.9375,164.8594 L110.7969,164.8594 L110.375,165.8906 L110.7969,165.8906 Q111.4063,165.8906 111.6719,166.125 Q111.9375,166.3594 111.9375,166.75 Q111.9375,167.125 111.6719,167.3594 Q111.4063,167.5938 110.7969,167.5938 L108.5,167.5938 Q107.8906,167.5938 107.6406,167.3594 Q107.375,167.125 107.375,166.7344 Q107.375,166.3594 107.6563,166.125 Q107.9219,165.875 108.5469,165.8906 L111.2188,159.2344 L110.1094,159.2344 Q109.5,159.2344 109.2344,159 Q108.9688,158.7656 108.9688,158.375 Q108.9688,158 109.2344,157.7656 Q109.5,157.5313 110.1094,157.5313 L113.7813,157.5313 L117.1719,165.8906 Q117.7656,165.8906 117.9531,166.0313 Q118.3438,166.2969 118.3438,166.75 Q118.3438,167.125 118.0781,167.3594 Q117.8281,167.5938 117.2188,167.5938 L114.9219,167.5938 Q114.3125,167.5938 114.0469,167.3594 Q113.7813,167.125 113.7813,166.7344 Q113.7813,166.3594 114.0469,166.125 Q114.3125,165.8906 114.9219,165.8906 L115.3438,165.8906 L114.9375,164.8594 Z M114.2188,163.1563 L112.8594,159.7813 L111.4844,163.1563 L114.2188,163.1563 Z "/><text fill="#000000" font-family="sans-serif" font-size="14" font-style="italic" lengthAdjust="spacingAndGlyphs" textLength="85" x="139.75" y="162.5332">WikiTagBase</text><text fill="#000000" font-family="sans-serif" font-size="10" font-style="italic" lengthAdjust="spacingAndGlyphs" textLength="98" x="133.25" y="175.9902">org.apache.wiki.tags</text><line style="stroke: #A80036; stroke-width: 1.5;" x1="68.5" x2="263.5" y1="183.1875" y2="183.1875"/><polygon fill="none" points="78.5,189.1875,82.5,193.1875,78.5,197.1875,74.5,193.1875" style="stroke: #B38D22; stroke-width: 1.0;"/><text fill="#000000" font-family="sans-serif" font-size="11" lengthAdjust="spacingAndGlyphs" textLength="113" x="87.5" y="198.6064">m_wikiContext: Context</text><line style="stroke: #A80036; stroke-width: 1.5;" x1="68.5" x2="263.5" y1="205.0234" y2="205.0234"/><ellipse cx="78.5" cy="216.0234" fill="#84BE84" rx="3" ry="3" style="stroke: #038048; stroke-width: 1.0;"/><text fill="#000000" font-family="sans-serif" font-size="11" lengthAdjust="spacingAndGlyphs" textLength="171" x="87.5" y="220.4424">setPageContext(PageContext): void</text><ellipse cx="78.5" cy="229.8594" fill="#84BE84" rx="3" ry="3" style="stroke: #038048; stroke-width: 1.0;"/><text fill="#000000" font-family="sans-serif" font-size="11" lengthAdjust="spacingAndGlyphs" textLength="65" x="87.5" y="234.2783">initTag(): void</text><ellipse cx="78.5" cy="243.6953" fill="#84BE84" rx="3" ry="3" style="stroke: #038048; stroke-width: 1.0;"/><text fill="#000000" font-family="sans-serif" font-size="11" lengthAdjust="spacingAndGlyphs" textLength="78" x="87.5" y="248.1143">doStartTag(): int</text><ellipse cx="78.5" cy="257.5313" fill="#84BE84" rx="3" ry="3" style="stroke: #038048; stroke-width: 1.0;"/><text fill="#000000" font-family="sans-serif" font-size="11" font-style="italic" lengthAdjust="spacingAndGlyphs" textLength="103" x="87.5" y="261.9502">doWikiStartTag(): int</text><ellipse cx="78.5" cy="271.3672" fill="#84BE84" rx="3" ry="3" style="stroke: #038048; stroke-width: 1.0;"/><text fill="#000000" font-family="sans-serif" font-size="11" lengthAdjust="spacingAndGlyphs" textLength="73" x="87.5" y="275.7861">doEndTag(): int</text><ellipse cx="78.5" cy="285.2031" fill="#84BE84" rx="3" ry="3" style="stroke: #038048; stroke-width: 1.0;"/><text fill="#000000" font-family="sans-serif" font-size="11" lengthAdjust="spacingAndGlyphs" textLength="126" x="87.5" y="289.6221">doCatch(Throwable): void</text><ellipse cx="78.5" cy="299.0391" fill="#84BE84" rx="3" ry="3" style="stroke: #038048; stroke-width: 1.0;"/><text fill="#000000" font-family="sans-serif" font-size="11" lengthAdjust="spacingAndGlyphs" textLength="76" x="87.5" y="303.458">doFinally(): void</text><ellipse cx="78.5" cy="312.875" fill="#84BE84" rx="3" ry="3" style="stroke: #038048; stroke-width: 1.0;"/><text fill="#000000" font-family="sans-serif" font-size="11" lengthAdjust="spacingAndGlyphs" textLength="85" x="87.5" y="317.2939">setId(String): void</text></a><!--MD5=[f003f646393cc366278d6801f933eb2f]
class javax.servlet.jsp.tagext.TagSupport--><rect codeLine="17" fill="#FEFECE" filter="url(#f1vdyv0s2a472h)" height="40.1875" id="javax.servlet.jsp.tagext.TagSupport" style="stroke: #A80036; stroke-width: 1.5;" width="138" x="7" y="25"/><ellipse cx="22" cy="45.0938" fill="#ADD1B2" rx="11" ry="11" style="stroke: #A80036; stroke-width: 1.0;"/><path d="M24.7656,40.9688 Q24.9219,40.75 25.1094,40.6406 Q25.2969,40.5313 25.5156,40.5313 Q25.8906,40.5313 26.125,40.7969 Q26.3594,41.0469 26.3594,41.6563 L26.3594,43.1094 Q26.3594,43.7188 26.125,43.9844 Q25.8906,44.25 25.5156,44.25 Q25.1719,44.25 24.9688,44.0469 Q24.7656,43.8594 24.6563,43.3438 Q24.6094,42.9844 24.4219,42.7969 Q24.0938,42.4219 23.4844,42.2031 Q22.875,41.9844 22.25,41.9844 Q21.4844,41.9844 20.8438,42.3125 Q20.2188,42.6406 19.7188,43.3906 Q19.2344,44.1406 19.2344,45.1719 L19.2344,46.2656 Q19.2344,47.5 20.125,48.3281 Q21.0156,49.1406 22.6094,49.1406 Q23.5469,49.1406 24.2031,48.8906 Q24.5938,48.7344 25.0156,48.2969 Q25.2813,48.0313 25.4219,47.9531 Q25.5781,47.875 25.7813,47.875 Q26.1094,47.875 26.3594,48.1406 Q26.625,48.3906 26.625,48.7344 Q26.625,49.0781 26.2813,49.4844 Q25.7813,50.0625 24.9844,50.3906 Q23.9063,50.8438 22.6094,50.8438 Q21.0938,50.8438 19.8906,50.2188 Q18.9063,49.7188 18.2188,48.6563 Q17.5313,47.5781 17.5313,46.2969 L17.5313,45.1406 Q17.5313,43.8125 18.1406,42.6719 Q18.7656,41.5156 19.8594,40.9063 Q20.9531,40.2813 22.1875,40.2813 Q22.9219,40.2813 23.5625,40.4531 Q24.2188,40.6094 24.7656,40.9688 Z "/><text fill="#000000" font-family="sans-serif" font-size="14" lengthAdjust="spacingAndGlyphs" textLength="75" x="51.5" y="44.5332">TagSupport</text><text fill="#000000" font-family="sans-serif" font-size="10" lengthAdjust="spacingAndGlyphs" textLength="106" x="36" y="57.9902">javax.servlet.jsp.tagext</text><!--MD5=[098e12979019207974feef230640529d]
class javax.servlet.jsp.tagext.TryCatchFinally--><rect codeLine="18" fill="#FEFECE" filter="url(#f1vdyv0s2a472h)" height="75.8594" id="javax.servlet.jsp.tagext.TryCatchFinally" style="stroke: #A80036; stroke-width: 1.5;" width="153" x="180.5" y="7"/><ellipse cx="202.25" cy="27.0938" fill="#B4A7E5" rx="11" ry="11" style="stroke: #A80036; stroke-width: 1.0;"/><path d="M203.2031,23.7344 L203.2031,30.3906 L204.9219,30.3906 Q205.5313,30.3906 205.7969,30.625 Q206.0625,30.8594 206.0625,31.25 Q206.0625,31.625 205.7969,31.8594 Q205.5313,32.0938 204.9219,32.0938 L199.7813,32.0938 Q199.1719,32.0938 198.9063,31.8594 Q198.6406,31.625 198.6406,31.2344 Q198.6406,30.8594 198.9063,30.625 Q199.1719,30.3906 199.7813,30.3906 L201.5,30.3906 L201.5,23.7344 L199.7813,23.7344 Q199.1719,23.7344 198.9063,23.5 Q198.6406,23.2656 198.6406,22.875 Q198.6406,22.5 198.9063,22.2656 Q199.1719,22.0313 199.7813,22.0313 L204.9219,22.0313 Q205.5313,22.0313 205.7969,22.2656 Q206.0625,22.5 206.0625,22.875 Q206.0625,23.2656 205.7969,23.5 Q205.5313,23.7344 204.9219,23.7344 L203.2031,23.7344 Z "/><text fill="#000000" font-family="sans-serif" font-size="14" font-style="italic" lengthAdjust="spacingAndGlyphs" textLength="99" x="221.25" y="26.5332">TryCatchFinally</text><text fill="#000000" font-family="sans-serif" font-size="10" font-style="italic" lengthAdjust="spacingAndGlyphs" textLength="106" x="217.75" y="39.9902">javax.servlet.jsp.tagext</text><line style="stroke: #A80036; stroke-width: 1.5;" x1="181.5" x2="332.5" y1="47.1875" y2="47.1875"/><ellipse cx="191.5" cy="58.1875" fill="#84BE84" rx="3" ry="3" style="stroke: #038048; stroke-width: 1.0;"/><text fill="#000000" font-family="sans-serif" font-size="11" font-style="italic" lengthAdjust="spacingAndGlyphs" textLength="127" x="200.5" y="62.6064">doCatch(Throwable): void</text><ellipse cx="191.5" cy="72.0234" fill="#84BE84" rx="3" ry="3" style="stroke: #038048; stroke-width: 1.0;"/><text fill="#000000" font-family="sans-serif" font-size="11" font-style="italic" lengthAdjust="spacingAndGlyphs" textLength="79" x="200.5" y="76.4424">doFinally(): void</text><!--MD5=[8eadc5c9bff412e66c12dc7645d24066]
reverse link javax.servlet.jsp.tagext.TagSupport to org.apache.wiki.tags.WikiTagBase--><path codeLine="23" d="M94.3431,83.4185 C102.5975,100.707 112.7231,121.9145 122.7341,142.8819 " fill="none" id="javax.servlet.jsp.tagext.TagSupport-backto-org.apache.wiki.tags.WikiTagBase" style="stroke: #A80036; stroke-width: 1.0;"/><polygon fill="none" points="87.932,86.2372,85.6316,65.1728,100.5658,80.2051,87.932,86.2372" style="stroke: #A80036; stroke-width: 1.0;"/><!--MD5=[7a26b19b3e550af47d4bc2f29a3a384f]
reverse link javax.servlet.jsp.tagext.TryCatchFinally to org.apache.wiki.tags.WikiTagBase--><path codeLine="24" d="M229.8061,101.3302 C223.4894,114.4149 216.6077,128.6697 209.7779,142.8173 " fill="none" id="javax.servlet.jsp.tagext.TryCatchFinally-backto-org.apache.wiki.tags.WikiTagBase" style="stroke: #A80036; stroke-width: 1.0; stroke-dasharray: 7.0,7.0;"/><polygon fill="none" points="223.5859,98.1136,238.5848,83.1458,236.1936,104.2001,223.5859,98.1136" style="stroke: #A80036; stroke-width: 1.0;"/><text fill="#888888" font-family="sans-serif" font-size="10" lengthAdjust="spacingAndGlyphs" textLength="190" x="72.25" y="347.0918">UMLDoclet 2.0.12, PlantUML 1.2020.16</text><!--MD5=[701cc332b4ecb22429f5e995309803c5]
@startuml
    set namespaceSeparator none
    hide empty fields
    hide empty methods

    abstract class "<size:14>WikiTagBase\n<size:10>org.apache.wiki.tags" as org.apache.wiki.tags.WikiTagBase [[WikiTagBase.html]] {
        #m_wikiContext: Context
        +setPageContext(PageContext): void
        +initTag(): void
        +doStartTag(): int
        {abstract} +doWikiStartTag(): int
        +doEndTag(): int
        +doCatch(Throwable): void
        +doFinally(): void
        +setId(String): void
    }

    class "<size:14>TagSupport\n<size:10>javax.servlet.jsp.tagext" as javax.servlet.jsp.tagext.TagSupport
    interface "<size:14>TryCatchFinally\n<size:10>javax.servlet.jsp.tagext" as javax.servlet.jsp.tagext.TryCatchFinally {
        {abstract} +doCatch(Throwable): void
        {abstract} +doFinally(): void
    }

    javax.servlet.jsp.tagext.TagSupport <|- - org.apache.wiki.tags.WikiTagBase
    javax.servlet.jsp.tagext.TryCatchFinally <|.. org.apache.wiki.tags.WikiTagBase

    center footer UMLDoclet 2.0.12, PlantUML 1.2020.16
@enduml

PlantUML version 1.2020.16(Sun Aug 23 22:20:43 CEST 2020)
(APACHE source distribution)
Java Runtime: OpenJDK Runtime Environment
JVM: OpenJDK 64-Bit Server VM
Default Encoding: Cp1252
Language: es
Country: ES
--></g></svg>