<?xml version="1.0" encoding="UTF-8" standalone="no"?><svg xmlns="http://www.w3.org/2000/svg" xmlns:xlink="http://www.w3.org/1999/xlink" contentScriptType="application/ecmascript" contentStyleType="text/css" height="306px" preserveAspectRatio="none" style="width:321px;height:306px;" version="1.1" viewBox="0 0 321 306" width="321px" zoomAndPan="magnify"><defs><filter height="300%" id="fb7oyazs0ihb" width="300%" x="-1" y="-1"><feGaussianBlur result="blurOut" stdDeviation="2.0"/><feColorMatrix in="blurOut" result="blurOut2" type="matrix" values="0 0 0 0 0 0 0 0 0 0 0 0 0 0 0 0 0 0 .4 0"/><feOffset dx="4.0" dy="4.0" in="blurOut2" result="blurOut3"/><feBlend in="SourceGraphic" in2="blurOut3" mode="normal"/></filter></defs><g><!--class DefaultGroupManager--><a href="DefaultGroupManager.html" target="_top" xlink:actuate="onRequest" xlink:show="new" xlink:title="DefaultGroupManager.html" xlink:type="simple"><rect fill="#FEFECE" filter="url(#fb7oyazs0ihb)" height="265.6797" id="DefaultGroupManager" style="stroke: #A80036; stroke-width: 1.5;" width="304" x="6" y="8"/><ellipse cx="84.75" cy="24" fill="#ADD1B2" rx="11" ry="11" style="stroke: #A80036; stroke-width: 1.0;"/><path d="M87.7188,29.6406 Q87.1406,29.9375 86.5,30.0781 Q85.8594,30.2344 85.1563,30.2344 Q82.6563,30.2344 81.3281,28.5938 Q80.0156,26.9375 80.0156,23.8125 Q80.0156,20.6875 81.3281,19.0313 Q82.6563,17.375 85.1563,17.375 Q85.8594,17.375 86.5,17.5313 Q87.1563,17.6875 87.7188,17.9844 L87.7188,20.7031 Q87.0938,20.125 86.5,19.8594 Q85.9063,19.5781 85.2813,19.5781 Q83.9375,19.5781 83.25,20.6563 Q82.5625,21.7188 82.5625,23.8125 Q82.5625,25.9063 83.25,26.9844 Q83.9375,28.0469 85.2813,28.0469 Q85.9063,28.0469 86.5,27.7813 Q87.0938,27.5 87.7188,26.9219 L87.7188,29.6406 Z "/><text fill="#000000" font-family="sans-serif" font-size="12" lengthAdjust="spacingAndGlyphs" textLength="138" x="105.25" y="28.1543">DefaultGroupManager</text><line style="stroke: #A80036; stroke-width: 1.5;" x1="7" x2="309" y1="40" y2="40"/><polygon fill="none" points="17,46.9023,21,50.9023,17,54.9023,13,50.9023" style="stroke: #B38D22; stroke-width: 1.0;"/><text fill="#000000" font-family="sans-serif" font-size="11" lengthAdjust="spacingAndGlyphs" textLength="101" x="26" y="54.2104">m_engine: Engine</text><polygon fill="none" points="17,59.707,21,63.707,17,67.707,13,63.707" style="stroke: #B38D22; stroke-width: 1.0;"/><text fill="#000000" font-family="sans-serif" font-size="11" lengthAdjust="spacingAndGlyphs" textLength="202" x="26" y="67.0151">m_groupListener: WikiEventListener</text><line style="stroke: #A80036; stroke-width: 1.5;" x1="7" x2="309" y1="73.6094" y2="73.6094"/><ellipse cx="17" cy="85.5117" fill="#84BE84" rx="3" ry="3" style="stroke: #038048; stroke-width: 1.0;"/><text fill="#000000" font-family="sans-serif" font-size="11" lengthAdjust="spacingAndGlyphs" textLength="143" x="26" y="87.8198">findRole(String): Principal</text><ellipse cx="17" cy="98.3164" fill="#84BE84" rx="3" ry="3" style="stroke: #038048; stroke-width: 1.0;"/><text fill="#000000" font-family="sans-serif" font-size="11" lengthAdjust="spacingAndGlyphs" textLength="138" x="26" y="100.6245">getGroup(String): Group</text><ellipse cx="17" cy="111.1211" fill="#84BE84" rx="3" ry="3" style="stroke: #038048; stroke-width: 1.0;"/><text fill="#000000" font-family="sans-serif" font-size="11" lengthAdjust="spacingAndGlyphs" textLength="212" x="26" y="113.4292">getGroupDatabase(): GroupDatabase</text><ellipse cx="17" cy="123.9258" fill="#84BE84" rx="3" ry="3" style="stroke: #038048; stroke-width: 1.0;"/><text fill="#000000" font-family="sans-serif" font-size="11" lengthAdjust="spacingAndGlyphs" textLength="121" x="26" y="126.2339">getRoles(): Principal[]</text><ellipse cx="17" cy="136.7305" fill="#84BE84" rx="3" ry="3" style="stroke: #038048; stroke-width: 1.0;"/><text fill="#000000" font-family="sans-serif" font-size="11" lengthAdjust="spacingAndGlyphs" textLength="189" x="26" y="139.0386">initialize(Engine, Properties): void</text><ellipse cx="17" cy="149.5352" fill="#84BE84" rx="3" ry="3" style="stroke: #038048; stroke-width: 1.0;"/><text fill="#000000" font-family="sans-serif" font-size="11" lengthAdjust="spacingAndGlyphs" textLength="234" x="26" y="151.8433">isUserInRole(Session, Principal): boolean</text><ellipse cx="17" cy="162.3398" fill="#84BE84" rx="3" ry="3" style="stroke: #038048; stroke-width: 1.0;"/><text fill="#000000" font-family="sans-serif" font-size="11" lengthAdjust="spacingAndGlyphs" textLength="248" x="26" y="164.6479">parseGroup(String, String, boolean): Group</text><ellipse cx="17" cy="175.1445" fill="#84BE84" rx="3" ry="3" style="stroke: #038048; stroke-width: 1.0;"/><text fill="#000000" font-family="sans-serif" font-size="11" lengthAdjust="spacingAndGlyphs" textLength="151" x="26" y="177.4526">removeGroup(String): void</text><ellipse cx="17" cy="187.9492" fill="#84BE84" rx="3" ry="3" style="stroke: #038048; stroke-width: 1.0;"/><text fill="#000000" font-family="sans-serif" font-size="11" lengthAdjust="spacingAndGlyphs" textLength="181" x="26" y="190.2573">setGroup(Session, Group): void</text><ellipse cx="17" cy="200.7539" fill="#84BE84" rx="3" ry="3" style="stroke: #038048; stroke-width: 1.0;"/><text fill="#000000" font-family="sans-serif" font-size="11" lengthAdjust="spacingAndGlyphs" textLength="204" x="26" y="203.062">validateGroup(Context, Group): void</text><ellipse cx="17" cy="213.5586" fill="#84BE84" rx="3" ry="3" style="stroke: #038048; stroke-width: 1.0;"/><text fill="#000000" font-family="sans-serif" font-size="11" lengthAdjust="spacingAndGlyphs" textLength="224" x="26" y="215.8667">checkGroupName(Context, String): void</text><polygon fill="#FFFF44" points="17,221.3633,21,225.3633,17,229.3633,13,225.3633" style="stroke: #B38D22; stroke-width: 1.0;"/><text fill="#000000" font-family="sans-serif" font-size="11" lengthAdjust="spacingAndGlyphs" textLength="184" x="26" y="228.6714">extractMembers(String): String[]</text><ellipse cx="17" cy="239.168" fill="#84BE84" rx="3" ry="3" style="stroke: #038048; stroke-width: 1.0;"/><text fill="#000000" font-family="sans-serif" font-size="11" lengthAdjust="spacingAndGlyphs" textLength="256" x="26" y="241.4761">addWikiEventListener(WikiEventListener): void</text><ellipse cx="17" cy="251.9727" fill="#84BE84" rx="3" ry="3" style="stroke: #038048; stroke-width: 1.0;"/><text fill="#000000" font-family="sans-serif" font-size="11" lengthAdjust="spacingAndGlyphs" textLength="278" x="26" y="254.2808">removeWikiEventListener(WikiEventListener): void</text><ellipse cx="17" cy="264.7773" fill="#84BE84" rx="3" ry="3" style="stroke: #038048; stroke-width: 1.0;"/><text fill="#000000" font-family="sans-serif" font-size="11" lengthAdjust="spacingAndGlyphs" textLength="185" x="26" y="267.0854">actionPerformed(WikiEvent): void</text></a><text fill="#888888" font-family="sans-serif" font-size="10" lengthAdjust="spacingAndGlyphs" textLength="186" x="71" y="293.2822">UMLDoclet 1.1.4, PlantUML 1.2019.05</text><!--
@startuml

    class DefaultGroupManager [[DefaultGroupManager.html]] {
        #m_engine: Engine
        #m_groupListener: WikiEventListener
        +findRole(String): Principal
        +getGroup(String): Group
        +getGroupDatabase(): GroupDatabase
        +getRoles(): Principal[]
        +initialize(Engine, Properties): void
        +isUserInRole(Session, Principal): boolean
        +parseGroup(String, String, boolean): Group
        +removeGroup(String): void
        +setGroup(Session, Group): void
        +validateGroup(Context, Group): void
        +checkGroupName(Context, String): void
        #extractMembers(String): String[]
        +addWikiEventListener(WikiEventListener): void
        +removeWikiEventListener(WikiEventListener): void
        +actionPerformed(WikiEvent): void
    }


    center footer UMLDoclet 1.1.4, PlantUML 1.2019.05
@enduml

PlantUML version 1.2019.05(Sat Apr 20 16:45:36 UTC 2019)
(APACHE source distribution)
Java Runtime: OpenJDK Runtime Environment
JVM: OpenJDK 64-Bit Server VM
Java Version: 1.8.0_252-b09
Operating System: Linux
OS Version: 4.15.0-74-generic
Default Encoding: ISO-8859-1
Language: en
Country: US
--></g></svg>