<?xml version="1.0" encoding="UTF-8" standalone="no"?><svg xmlns="http://www.w3.org/2000/svg" xmlns:xlink="http://www.w3.org/1999/xlink" contentScriptType="application/ecmascript" contentStyleType="text/css" height="273px" preserveAspectRatio="none" style="width:511px;height:273px;" version="1.1" viewBox="0 0 511 273" width="511px" zoomAndPan="magnify"><defs><filter height="300%" id="f12xx6iktzgcu8" width="300%" x="-1" y="-1"><feGaussianBlur result="blurOut" stdDeviation="2.0"/><feColorMatrix in="blurOut" result="blurOut2" type="matrix" values="0 0 0 0 0 0 0 0 0 0 0 0 0 0 0 0 0 0 .4 0"/><feOffset dx="4.0" dy="4.0" in="blurOut2" result="blurOut3"/><feBlend in="SourceGraphic" in2="blurOut3" mode="normal"/></filter></defs><g><!--cluster org.apache.wiki.tasks.pages--><polygon fill="#FFFFFF" filter="url(#f12xx6iktzgcu8)" points="14,124,245,124,252,146.2969,489,146.2969,489,233,14,233,14,124" style="stroke: #000000; stroke-width: 1.5;"/><line style="stroke: #000000; stroke-width: 1.5;" x1="14" x2="252" y1="146.2969" y2="146.2969"/><text fill="#000000" font-family="sans-serif" font-size="14" font-weight="bold" lengthAdjust="spacingAndGlyphs" textLength="225" x="18" y="138.9951">org.apache.wiki.tasks.pages</text><!--cluster org.apache.wiki.workflow--><polygon fill="#FFFFFF" filter="url(#f12xx6iktzgcu8)" points="157,16,367,16,374,38.2969,377,38.2969,377,99,157,99,157,16" style="stroke: #000000; stroke-width: 1.5;"/><line style="stroke: #000000; stroke-width: 1.5;" x1="157" x2="374" y1="38.2969" y2="38.2969"/><text fill="#000000" font-family="sans-serif" font-size="14" font-weight="bold" lengthAdjust="spacingAndGlyphs" textLength="204" x="161" y="30.9951">org.apache.wiki.workflow</text><!--class org.apache.wiki.tasks.pages.PreSaveWikiPageTask--><a href="PreSaveWikiPageTask.html" target="_top" xlink:actuate="onRequest" xlink:show="new" xlink:title="PreSaveWikiPageTask.html" xlink:type="simple"><rect fill="#FEFECE" filter="url(#f12xx6iktzgcu8)" height="73.6094" id="org.apache.wiki.tasks.pages.PreSaveWikiPageTask" style="stroke: #A80036; stroke-width: 1.5;" width="242" x="239" y="151"/><ellipse cx="287.75" cy="167" fill="#ADD1B2" rx="11" ry="11" style="stroke: #A80036; stroke-width: 1.0;"/><path d="M290.7188,172.6406 Q290.1406,172.9375 289.5,173.0781 Q288.8594,173.2344 288.1563,173.2344 Q285.6563,173.2344 284.3281,171.5938 Q283.0156,169.9375 283.0156,166.8125 Q283.0156,163.6875 284.3281,162.0313 Q285.6563,160.375 288.1563,160.375 Q288.8594,160.375 289.5,160.5313 Q290.1563,160.6875 290.7188,160.9844 L290.7188,163.7031 Q290.0938,163.125 289.5,162.8594 Q288.9063,162.5781 288.2813,162.5781 Q286.9375,162.5781 286.25,163.6563 Q285.5625,164.7188 285.5625,166.8125 Q285.5625,168.9063 286.25,169.9844 Q286.9375,171.0469 288.2813,171.0469 Q288.9063,171.0469 289.5,170.7813 Q290.0938,170.5 290.7188,169.9219 L290.7188,172.6406 Z "/><text fill="#000000" font-family="sans-serif" font-size="12" lengthAdjust="spacingAndGlyphs" textLength="136" x="308.25" y="171.1543">PreSaveWikiPageTask</text><line style="stroke: #A80036; stroke-width: 1.5;" x1="240" x2="480" y1="183" y2="183"/><line style="stroke: #A80036; stroke-width: 1.5;" x1="240" x2="480" y1="191" y2="191"/><ellipse cx="250" cy="202.9023" fill="#84BE84" rx="3" ry="3" style="stroke: #038048; stroke-width: 1.0;"/><text fill="#000000" font-family="sans-serif" font-size="11" lengthAdjust="spacingAndGlyphs" textLength="216" x="259" y="205.2104">PreSaveWikiPageTask(Context, String)</text><ellipse cx="250" cy="215.707" fill="#84BE84" rx="3" ry="3" style="stroke: #038048; stroke-width: 1.0;"/><text fill="#000000" font-family="sans-serif" font-size="11" lengthAdjust="spacingAndGlyphs" textLength="111" x="259" y="218.0151">execute(): Outcome</text></a><!--class org.apache.wiki.tasks.pages.SaveWikiPageTask--><a href="SaveWikiPageTask.html" target="_top" xlink:actuate="onRequest" xlink:show="new" xlink:title="SaveWikiPageTask.html" xlink:type="simple"><rect fill="#FEFECE" filter="url(#f12xx6iktzgcu8)" height="73.6094" id="org.apache.wiki.tasks.pages.SaveWikiPageTask" style="stroke: #A80036; stroke-width: 1.5;" width="181" x="22.5" y="151"/><ellipse cx="52.8" cy="167" fill="#ADD1B2" rx="11" ry="11" style="stroke: #A80036; stroke-width: 1.0;"/><path d="M55.7688,172.6406 Q55.1906,172.9375 54.55,173.0781 Q53.9094,173.2344 53.2063,173.2344 Q50.7063,173.2344 49.3781,171.5938 Q48.0656,169.9375 48.0656,166.8125 Q48.0656,163.6875 49.3781,162.0313 Q50.7063,160.375 53.2063,160.375 Q53.9094,160.375 54.55,160.5313 Q55.2063,160.6875 55.7688,160.9844 L55.7688,163.7031 Q55.1438,163.125 54.55,162.8594 Q53.9563,162.5781 53.3313,162.5781 Q51.9875,162.5781 51.3,163.6563 Q50.6125,164.7188 50.6125,166.8125 Q50.6125,168.9063 51.3,169.9844 Q51.9875,171.0469 53.3313,171.0469 Q53.9563,171.0469 54.55,170.7813 Q55.1438,170.5 55.7688,169.9219 L55.7688,172.6406 Z "/><text fill="#000000" font-family="sans-serif" font-size="12" lengthAdjust="spacingAndGlyphs" textLength="115" x="70.2" y="171.1543">SaveWikiPageTask</text><line style="stroke: #A80036; stroke-width: 1.5;" x1="23.5" x2="202.5" y1="183" y2="183"/><line style="stroke: #A80036; stroke-width: 1.5;" x1="23.5" x2="202.5" y1="191" y2="191"/><ellipse cx="33.5" cy="202.9023" fill="#84BE84" rx="3" ry="3" style="stroke: #038048; stroke-width: 1.0;"/><text fill="#000000" font-family="sans-serif" font-size="11" lengthAdjust="spacingAndGlyphs" textLength="155" x="42.5" y="205.2104">SaveWikiPageTask(Context)</text><ellipse cx="33.5" cy="215.707" fill="#84BE84" rx="3" ry="3" style="stroke: #038048; stroke-width: 1.0;"/><text fill="#000000" font-family="sans-serif" font-size="11" lengthAdjust="spacingAndGlyphs" textLength="111" x="42.5" y="218.0151">execute(): Outcome</text></a><!--class org.apache.wiki.workflow.Task--><rect fill="#FEFECE" filter="url(#f12xx6iktzgcu8)" height="48" id="org.apache.wiki.workflow.Task" style="stroke: #A80036; stroke-width: 1.5;" width="60" x="195" y="43"/><ellipse cx="210" cy="59" fill="#A9DCDF" rx="11" ry="11" style="stroke: #A80036; stroke-width: 1.0;"/><path d="M210.1094,54.3438 L208.9531,59.4219 L211.2813,59.4219 L210.1094,54.3438 Z M208.625,52.1094 L211.6094,52.1094 L214.9688,64.5 L212.5156,64.5 L211.75,61.4375 L208.4688,61.4375 L207.7188,64.5 L205.2813,64.5 L208.625,52.1094 Z "/><text fill="#000000" font-family="sans-serif" font-size="12" font-style="italic" lengthAdjust="spacingAndGlyphs" textLength="28" x="224" y="63.1543">Task</text><line style="stroke: #A80036; stroke-width: 1.5;" x1="196" x2="254" y1="75" y2="75"/><line style="stroke: #A80036; stroke-width: 1.5;" x1="196" x2="254" y1="83" y2="83"/><!--link org.apache.wiki.workflow.Task to org.apache.wiki.tasks.pages.PreSaveWikiPageTask--><path d="M266.9076,104.5617 C283.3904,119.3351 302.2629,136.2505 318.6873,150.9716 " fill="none" id="org.apache.wiki.workflow.Task-org.apache.wiki.tasks.pages.PreSaveWikiPageTask" style="stroke: #A80036; stroke-width: 1.0;"/><polygon fill="none" points="262.216,109.7568,251.9948,91.1953,271.5602,99.3315,262.216,109.7568" style="stroke: #A80036; stroke-width: 1.0;"/><!--link org.apache.wiki.workflow.Task to org.apache.wiki.tasks.pages.SaveWikiPageTask--><path d="M188.9578,105.9384 C175.5911,120.3793 160.479,136.7058 147.2742,150.9716 " fill="none" id="org.apache.wiki.workflow.Task-org.apache.wiki.tasks.pages.SaveWikiPageTask" style="stroke: #A80036; stroke-width: 1.0;"/><polygon fill="none" points="183.8814,101.1178,202.6043,91.1953,194.1557,110.6278,183.8814,101.1178" style="stroke: #A80036; stroke-width: 1.0;"/><text fill="#888888" font-family="sans-serif" font-size="10" lengthAdjust="spacingAndGlyphs" textLength="186" x="164.5" y="260.2822">UMLDoclet 1.1.4, PlantUML 1.2019.05</text><!--
@startuml

    namespace org.apache.wiki.tasks.pages {

        class PreSaveWikiPageTask [[PreSaveWikiPageTask.html]] {
            +PreSaveWikiPageTask(Context, String)
            +execute(): Outcome
        }

        class SaveWikiPageTask [[SaveWikiPageTask.html]] {
            +SaveWikiPageTask(Context)
            +execute(): Outcome
        }

        abstract class org.apache.wiki.workflow.Task
        org.apache.wiki.workflow.Task <|- - PreSaveWikiPageTask

        org.apache.wiki.workflow.Task <|- - SaveWikiPageTask

    }


    center footer UMLDoclet 1.1.4, PlantUML 1.2019.05
@enduml

PlantUML version 1.2019.05(Sat Apr 20 16:45:36 UTC 2019)
(APACHE source distribution)
Java Runtime: OpenJDK Runtime Environment
JVM: OpenJDK 64-Bit Server VM
Java Version: 1.8.0_252-b09
Operating System: Linux
OS Version: 4.15.0-74-generic
Default Encoding: ISO-8859-1
Language: en
Country: US
--></g></svg>