<?xml version="1.0" encoding="UTF-8" standalone="no"?><svg xmlns="http://www.w3.org/2000/svg" xmlns:xlink="http://www.w3.org/1999/xlink" contentScriptType="application/ecmascript" contentStyleType="text/css" height="101px" preserveAspectRatio="none" style="width:207px;height:101px;" version="1.1" viewBox="0 0 207 101" width="207px" zoomAndPan="magnify"><defs><filter height="300%" id="f1k8zlg7bdwoug" width="300%" x="-1" y="-1"><feGaussianBlur result="blurOut" stdDeviation="2.0"/><feColorMatrix in="blurOut" result="blurOut2" type="matrix" values="0 0 0 0 0 0 0 0 0 0 0 0 0 0 0 0 0 0 .4 0"/><feOffset dx="4.0" dy="4.0" in="blurOut2" result="blurOut3"/><feBlend in="SourceGraphic" in2="blurOut3" mode="normal"/></filter></defs><g><!--class SaveWikiPageTask--><a href="SaveWikiPageTask.html" target="_top" xlink:actuate="onRequest" xlink:show="new" xlink:title="SaveWikiPageTask.html" xlink:type="simple"><rect fill="#FEFECE" filter="url(#f1k8zlg7bdwoug)" height="60.8047" id="SaveWikiPageTask" style="stroke: #A80036; stroke-width: 1.5;" width="180" x="6" y="8"/><ellipse cx="35.85" cy="24" fill="#ADD1B2" rx="11" ry="11" style="stroke: #A80036; stroke-width: 1.0;"/><path d="M38.8188,29.6406 Q38.2406,29.9375 37.6,30.0781 Q36.9594,30.2344 36.2563,30.2344 Q33.7563,30.2344 32.4281,28.5938 Q31.1156,26.9375 31.1156,23.8125 Q31.1156,20.6875 32.4281,19.0313 Q33.7563,17.375 36.2563,17.375 Q36.9594,17.375 37.6,17.5313 Q38.2563,17.6875 38.8188,17.9844 L38.8188,20.7031 Q38.1938,20.125 37.6,19.8594 Q37.0063,19.5781 36.3813,19.5781 Q35.0375,19.5781 34.35,20.6563 Q33.6625,21.7188 33.6625,23.8125 Q33.6625,25.9063 34.35,26.9844 Q35.0375,28.0469 36.3813,28.0469 Q37.0063,28.0469 37.6,27.7813 Q38.1938,27.5 38.8188,26.9219 L38.8188,29.6406 Z "/><text fill="#000000" font-family="sans-serif" font-size="12" lengthAdjust="spacingAndGlyphs" textLength="115" x="53.15" y="28.1543">SaveWikiPageTask</text><line style="stroke: #A80036; stroke-width: 1.5;" x1="7" x2="185" y1="40" y2="40"/><line style="stroke: #A80036; stroke-width: 1.5;" x1="7" x2="185" y1="48" y2="48"/><ellipse cx="17" cy="59.9023" fill="#84BE84" rx="3" ry="3" style="stroke: #038048; stroke-width: 1.0;"/><text fill="#000000" font-family="sans-serif" font-size="11" lengthAdjust="spacingAndGlyphs" textLength="154" x="26" y="62.2104">execute(Context): Outcome</text></a><text fill="#888888" font-family="sans-serif" font-size="10" lengthAdjust="spacingAndGlyphs" textLength="186" x="9" y="88.2822">UMLDoclet 1.1.4, PlantUML 1.2019.05</text><!--
@startuml

    class SaveWikiPageTask [[SaveWikiPageTask.html]] {
        +execute(Context): Outcome
    }


    center footer UMLDoclet 1.1.4, PlantUML 1.2019.05
@enduml

PlantUML version 1.2019.05(Sat Apr 20 16:45:36 UTC 2019)
(APACHE source distribution)
Java Runtime: OpenJDK Runtime Environment
JVM: OpenJDK 64-Bit Server VM
Java Version: 1.8.0_252-b09
Operating System: Linux
OS Version: 4.15.0-74-generic
Default Encoding: ISO-8859-1
Language: en
Country: US
--></g></svg>