<?xml version="1.0" encoding="UTF-8" standalone="no"?><svg xmlns="http://www.w3.org/2000/svg" xmlns:xlink="http://www.w3.org/1999/xlink" contentScriptType="application/ecmascript" contentStyleType="text/css" height="114px" preserveAspectRatio="none" style="width:357px;height:114px;" version="1.1" viewBox="0 0 357 114" width="357px" zoomAndPan="magnify"><defs><filter height="300%" id="f6dwg3rq7h3l8" width="300%" x="-1" y="-1"><feGaussianBlur result="blurOut" stdDeviation="2.0"/><feColorMatrix in="blurOut" result="blurOut2" type="matrix" values="0 0 0 0 0 0 0 0 0 0 0 0 0 0 0 0 0 0 .4 0"/><feOffset dx="4.0" dy="4.0" in="blurOut2" result="blurOut3"/><feBlend in="SourceGraphic" in2="blurOut3" mode="normal"/></filter></defs><g><!--class LocalFootnoteLinkNodePostProcessorState--><a href="LocalFootnoteLinkNodePostProcessorState.html" target="_top" xlink:actuate="onRequest" xlink:show="new" xlink:title="LocalFootnoteLinkNodePostProcessorState.html" xlink:type="simple"><rect fill="#FEFECE" filter="url(#f6dwg3rq7h3l8)" height="73.6094" id="LocalFootnoteLinkNodePostProcessorState" style="stroke: #A80036; stroke-width: 1.5;" width="340" x="6" y="8"/><ellipse cx="37.65" cy="24" fill="#ADD1B2" rx="11" ry="11" style="stroke: #A80036; stroke-width: 1.0;"/><path d="M40.6188,29.6406 Q40.0406,29.9375 39.4,30.0859 Q38.7594,30.2344 38.0563,30.2344 Q35.5563,30.2344 34.2359,28.5859 Q32.9156,26.9375 32.9156,23.8125 Q32.9156,20.6875 34.2359,19.0313 Q35.5563,17.375 38.0563,17.375 Q38.7594,17.375 39.4078,17.5313 Q40.0563,17.6875 40.6188,17.9844 L40.6188,20.7031 Q39.9938,20.125 39.4,19.8516 Q38.8063,19.5781 38.1813,19.5781 Q36.8375,19.5781 36.15,20.6484 Q35.4625,21.7188 35.4625,23.8125 Q35.4625,25.9063 36.15,26.9766 Q36.8375,28.0469 38.1813,28.0469 Q38.8063,28.0469 39.4,27.7734 Q39.9938,27.5 40.6188,26.9219 L40.6188,29.6406 Z "/><text fill="#000000" font-family="sans-serif" font-size="12" lengthAdjust="spacingAndGlyphs" textLength="271" x="55.35" y="28.1543">LocalFootnoteLinkNodePostProcessorState</text><line style="stroke: #A80036; stroke-width: 1.5;" x1="7" x2="345" y1="40" y2="40"/><line style="stroke: #A80036; stroke-width: 1.5;" x1="7" x2="345" y1="48" y2="48"/><ellipse cx="17" cy="59.9023" fill="#84BE84" rx="3" ry="3" style="stroke: #038048; stroke-width: 1.0;"/><text fill="#000000" font-family="sans-serif" font-size="11" lengthAdjust="spacingAndGlyphs" textLength="314" x="26" y="62.2104">LocalFootnoteLinkNodePostProcessorState(WikiContext)</text><ellipse cx="17" cy="72.707" fill="#84BE84" rx="3" ry="3" style="stroke: #038048; stroke-width: 1.0;"/><text fill="#000000" font-family="sans-serif" font-size="11" lengthAdjust="spacingAndGlyphs" textLength="226" x="26" y="75.0151">process(NodeTracker, JSPWikiLink): void</text></a><text fill="#888888" font-family="sans-serif" font-size="10" lengthAdjust="spacingAndGlyphs" textLength="186" x="89" y="101.2822">UMLDoclet 1.1.4, PlantUML 1.2019.05</text><!--
@startuml

    class LocalFootnoteLinkNodePostProcessorState [[LocalFootnoteLinkNodePostProcessorState.html]] {
        +LocalFootnoteLinkNodePostProcessorState(WikiContext)
        +process(NodeTracker, JSPWikiLink): void
    }


    center footer UMLDoclet 1.1.4, PlantUML 1.2019.05
@enduml

PlantUML version 1.2019.05(Sat Apr 20 16:45:36 UTC 2019)
(APACHE source distribution)
Java Runtime: Java(TM) SE Runtime Environment
JVM: Java HotSpot(TM) 64-Bit Server VM
Java Version: 1.8.0_191-b12
Operating System: Linux
OS Version: 4.15.0-76-generic
Default Encoding: ISO-8859-1
Language: en
Country: US
--></g></svg>