<?xml version="1.0" encoding="UTF-8" standalone="no"?><svg xmlns="http://www.w3.org/2000/svg" xmlns:xlink="http://www.w3.org/1999/xlink" contentScriptType="application/ecmascript" contentStyleType="text/css" height="114px" preserveAspectRatio="none" style="width:375px;height:114px;" version="1.1" viewBox="0 0 375 114" width="375px" zoomAndPan="magnify"><defs><filter height="300%" id="f9adu5x77hf8z" width="300%" x="-1" y="-1"><feGaussianBlur result="blurOut" stdDeviation="2.0"/><feColorMatrix in="blurOut" result="blurOut2" type="matrix" values="0 0 0 0 0 0 0 0 0 0 0 0 0 0 0 0 0 0 .4 0"/><feOffset dx="4.0" dy="4.0" in="blurOut2" result="blurOut3"/><feBlend in="SourceGraphic" in2="blurOut3" mode="normal"/></filter></defs><g><!--class LocalFootnoteRefLinkNodePostProcessorState--><a href="LocalFootnoteRefLinkNodePostProcessorState.html" target="_top" xlink:actuate="onRequest" xlink:show="new" xlink:title="LocalFootnoteRefLinkNodePostProcessorState.html" xlink:type="simple"><rect fill="#FEFECE" filter="url(#f9adu5x77hf8z)" height="73.6094" id="LocalFootnoteRefLinkNodePostProcessorState" style="stroke: #A80036; stroke-width: 1.5;" width="358" x="6" y="8"/><ellipse cx="36.75" cy="24" fill="#ADD1B2" rx="11" ry="11" style="stroke: #A80036; stroke-width: 1.0;"/><path d="M39.7188,29.6406 Q39.1406,29.9375 38.5,30.0859 Q37.8594,30.2344 37.1563,30.2344 Q34.6563,30.2344 33.3359,28.5859 Q32.0156,26.9375 32.0156,23.8125 Q32.0156,20.6875 33.3359,19.0313 Q34.6563,17.375 37.1563,17.375 Q37.8594,17.375 38.5078,17.5313 Q39.1563,17.6875 39.7188,17.9844 L39.7188,20.7031 Q39.0938,20.125 38.5,19.8516 Q37.9063,19.5781 37.2813,19.5781 Q35.9375,19.5781 35.25,20.6484 Q34.5625,21.7188 34.5625,23.8125 Q34.5625,25.9063 35.25,26.9766 Q35.9375,28.0469 37.2813,28.0469 Q37.9063,28.0469 38.5,27.7734 Q39.0938,27.5 39.7188,26.9219 L39.7188,29.6406 Z "/><text fill="#000000" font-family="sans-serif" font-size="12" lengthAdjust="spacingAndGlyphs" textLength="291" x="54.25" y="28.1543">LocalFootnoteRefLinkNodePostProcessorState</text><line style="stroke: #A80036; stroke-width: 1.5;" x1="7" x2="363" y1="40" y2="40"/><line style="stroke: #A80036; stroke-width: 1.5;" x1="7" x2="363" y1="48" y2="48"/><ellipse cx="17" cy="59.9023" fill="#84BE84" rx="3" ry="3" style="stroke: #038048; stroke-width: 1.0;"/><text fill="#000000" font-family="sans-serif" font-size="11" lengthAdjust="spacingAndGlyphs" textLength="332" x="26" y="62.2104">LocalFootnoteRefLinkNodePostProcessorState(WikiContext)</text><ellipse cx="17" cy="72.707" fill="#84BE84" rx="3" ry="3" style="stroke: #038048; stroke-width: 1.0;"/><text fill="#000000" font-family="sans-serif" font-size="11" lengthAdjust="spacingAndGlyphs" textLength="226" x="26" y="75.0151">process(NodeTracker, JSPWikiLink): void</text></a><text fill="#888888" font-family="sans-serif" font-size="10" lengthAdjust="spacingAndGlyphs" textLength="186" x="98" y="101.2822">UMLDoclet 1.1.4, PlantUML 1.2019.05</text><!--
@startuml

    class LocalFootnoteRefLinkNodePostProcessorState [[LocalFootnoteRefLinkNodePostProcessorState.html]] {
        +LocalFootnoteRefLinkNodePostProcessorState(WikiContext)
        +process(NodeTracker, JSPWikiLink): void
    }


    center footer UMLDoclet 1.1.4, PlantUML 1.2019.05
@enduml

PlantUML version 1.2019.05(Sat Apr 20 16:45:36 UTC 2019)
(APACHE source distribution)
Java Runtime: Java(TM) SE Runtime Environment
JVM: Java HotSpot(TM) 64-Bit Server VM
Java Version: 1.8.0_191-b12
Operating System: Linux
OS Version: 4.15.0-58-generic
Default Encoding: ISO-8859-1
Language: en
Country: US
--></g></svg>