<?xml version="1.0" encoding="UTF-8" standalone="no"?><svg xmlns="http://www.w3.org/2000/svg" xmlns:xlink="http://www.w3.org/1999/xlink" contentScriptType="application/ecmascript" contentStyleType="text/css" height="215px" preserveAspectRatio="none" style="width:199px;height:215px;background:#FFFFFF;" version="1.1" viewBox="0 0 199 215" width="199px" zoomAndPan="magnify"><defs><filter height="300%" id="f1iuwdjsf7bnbc" width="300%" x="-1" y="-1"><feGaussianBlur result="blurOut" stdDeviation="2.0"/><feColorMatrix in="blurOut" result="blurOut2" type="matrix" values="0 0 0 0 0 0 0 0 0 0 0 0 0 0 0 0 0 0 .4 0"/><feOffset dx="4.0" dy="4.0" in="blurOut2" result="blurOut3"/><feBlend in="SourceGraphic" in2="blurOut3" mode="normal"/></filter></defs><g><!--MD5=[65bcd57a9129b2210aae07f8ec7d35de]
class org.apache.wiki.tags.SpamFilterInputsTag--><a href="SpamFilterInputsTag.html" target="_top" title="SpamFilterInputsTag.html" xlink:actuate="onRequest" xlink:href="SpamFilterInputsTag.html" xlink:show="new" xlink:title="SpamFilterInputsTag.html" xlink:type="simple"><rect codeLine="5" fill="#FEFECE" filter="url(#f1iuwdjsf7bnbc)" height="58.7422" id="org.apache.wiki.tags.SpamFilterInputsTag" style="stroke:#A80036;stroke-width:1.5;" width="173" x="12.5" y="126"/><ellipse cx="27.5" cy="144.9688" fill="#ADD1B2" rx="11" ry="11" style="stroke:#A80036;stroke-width:1.0;"/><path d="M30.4688,150.6094 Q29.8906,150.9063 29.25,151.0469 Q28.6094,151.2031 27.9063,151.2031 Q25.4063,151.2031 24.0781,149.5625 Q22.7656,147.9063 22.7656,144.7813 Q22.7656,141.6563 24.0781,140 Q25.4063,138.3438 27.9063,138.3438 Q28.6094,138.3438 29.25,138.5 Q29.9063,138.6563 30.4688,138.9531 L30.4688,141.6719 Q29.8438,141.0938 29.25,140.8281 Q28.6563,140.5469 28.0313,140.5469 Q26.6875,140.5469 26,141.625 Q25.3125,142.6875 25.3125,144.7813 Q25.3125,146.875 26,147.9531 Q26.6875,149.0156 28.0313,149.0156 Q28.6563,149.0156 29.25,148.75 Q29.8438,148.4688 30.4688,147.8906 L30.4688,150.6094 Z " fill="#000000"/><text fill="#000000" font-family="sans-serif" font-size="14" lengthAdjust="spacing" textLength="141" x="41.5" y="143.9951">SpamFilterInputsTag</text><text fill="#000000" font-family="sans-serif" font-size="10" lengthAdjust="spacing" textLength="98" x="63" y="156.5791">org.apache.wiki.tags</text><line style="stroke:#A80036;stroke-width:1.5;" x1="13.5" x2="184.5" y1="163.9375" y2="163.9375"/><ellipse cx="23.5" cy="174.9375" fill="#84BE84" rx="3" ry="3" style="stroke:#038048;stroke-width:1.0;"/><text fill="#000000" font-family="sans-serif" font-size="11" lengthAdjust="spacing" textLength="114" x="32.5" y="178.1479">doWikiStartTag(): int</text></a><!--MD5=[0148d16490ea9d40379f79f2f3eafb9d]
class org.apache.wiki.tags.WikiTagBase--><a href="WikiTagBase.html" target="_top" title="WikiTagBase.html" xlink:actuate="onRequest" xlink:href="WikiTagBase.html" xlink:show="new" xlink:title="WikiTagBase.html" xlink:type="simple"><rect codeLine="9" fill="#FEFECE" filter="url(#f1iuwdjsf7bnbc)" height="58.7422" id="org.apache.wiki.tags.WikiTagBase" style="stroke:#A80036;stroke-width:1.5;" width="141" x="28.5" y="7"/><ellipse cx="46.65" cy="25.9688" fill="#A9DCDF" rx="11" ry="11" style="stroke:#A80036;stroke-width:1.0;"/><path d="M46.7594,21.3125 L45.6031,26.3906 L47.9313,26.3906 L46.7594,21.3125 Z M45.275,19.0781 L48.2594,19.0781 L51.6188,31.4688 L49.1656,31.4688 L48.4,28.4063 L45.1188,28.4063 L44.3688,31.4688 L41.9313,31.4688 L45.275,19.0781 Z " fill="#000000"/><text fill="#000000" font-family="sans-serif" font-size="14" font-style="italic" lengthAdjust="spacing" textLength="88" x="68.35" y="24.9951">WikiTagBase</text><text fill="#000000" font-family="sans-serif" font-size="10" font-style="italic" lengthAdjust="spacing" textLength="102" x="61.35" y="37.5791">org.apache.wiki.tags</text><line style="stroke:#A80036;stroke-width:1.5;" x1="29.5" x2="168.5" y1="44.9375" y2="44.9375"/><ellipse cx="39.5" cy="55.9375" fill="#84BE84" rx="3" ry="3" style="stroke:#038048;stroke-width:1.0;"/><text fill="#000000" font-family="sans-serif" font-size="11" font-style="italic" lengthAdjust="spacing" textLength="115" x="48.5" y="59.1479">doWikiStartTag(): int</text></a><!--MD5=[6395aee26ba1ddd2432b957c70df0b54]
reverse link org.apache.wiki.tags.WikiTagBase to org.apache.wiki.tags.SpamFilterInputsTag--><path codeLine="13" d="M99,86.3288 C99,99.7348 99,113.8139 99,125.7447 " fill="none" id="org.apache.wiki.tags.WikiTagBase-backto-org.apache.wiki.tags.SpamFilterInputsTag" style="stroke:#A80036;stroke-width:1.0;"/><polygon fill="none" points="92.0001,86.2218,99,66.2218,106.0001,86.2217,92.0001,86.2218" style="stroke:#A80036;stroke-width:1.0;"/><text fill="#888888" font-family="sans-serif" font-size="10" lengthAdjust="spacing" textLength="192" x="0" y="207.0244">UMLDoclet 2.0.15, PlantUML 1.2021.13</text><!--MD5=[90641cb2a97a3f30746286db5ed8d9dc]
@startuml
    set namespaceSeparator none
    hide empty fields
    hide empty methods

    class "<size:14>SpamFilterInputsTag\n<size:10>org.apache.wiki.tags" as org.apache.wiki.tags.SpamFilterInputsTag [[SpamFilterInputsTag.html]] {
        +doWikiStartTag(): int
    }

    abstract class "<size:14>WikiTagBase\n<size:10>org.apache.wiki.tags" as org.apache.wiki.tags.WikiTagBase [[WikiTagBase.html]] {
        {abstract} +doWikiStartTag(): int
    }

    org.apache.wiki.tags.WikiTagBase <|- - org.apache.wiki.tags.SpamFilterInputsTag

    center footer UMLDoclet 2.0.15, PlantUML 1.2021.13
@enduml

PlantUML version 1.2021.13(Mon Nov 01 11:38:45 UTC 2021)
(APACHE source distribution)
Java Runtime: OpenJDK Runtime Environment
JVM: OpenJDK 64-Bit Server VM
Default Encoding: ISO-8859-1
Language: en
Country: US
--></g></svg>