<?xml version="1.0" encoding="UTF-8" standalone="no"?><svg xmlns="http://www.w3.org/2000/svg" xmlns:xlink="http://www.w3.org/1999/xlink" contentScriptType="application/ecmascript" contentStyleType="text/css" height="540px" preserveAspectRatio="none" style="width:961px;height:540px;background:#FFFFFF;" version="1.1" viewBox="0 0 961 540" width="961px" zoomAndPan="magnify"><defs><filter height="300%" id="fxa3w27pmth04" width="300%" x="-1" y="-1"><feGaussianBlur result="blurOut" stdDeviation="2.0"/><feColorMatrix in="blurOut" result="blurOut2" type="matrix" values="0 0 0 0 0 0 0 0 0 0 0 0 0 0 0 0 0 0 .4 0"/><feOffset dx="4.0" dy="4.0" in="blurOut2" result="blurOut3"/><feBlend in="SourceGraphic" in2="blurOut3" mode="normal"/></filter></defs><g><!--MD5=[cf20ada5cc6025b15a12d1d79d6dc947]
cluster org.apache.wiki.cache--><polygon fill="#FFFFFF" filter="url(#fxa3w27pmth04)" points="16,6,199,6,206,28.2969,693,28.2969,693,517,16,517,16,6" style="stroke:#000000;stroke-width:1.5;"/><line style="stroke:#000000;stroke-width:1.5;" x1="16" x2="206" y1="28.2969" y2="28.2969"/><text fill="#000000" font-family="sans-serif" font-size="14" font-weight="bold" lengthAdjust="spacing" textLength="177" x="20" y="20.9951">org.apache.wiki.cache</text><!--MD5=[06e4b2620a8b168056b961578cd367b2]
cluster org.apache.wiki.api.engine--><polygon fill="#FFFFFF" filter="url(#fxa3w27pmth04)" points="712,108.5,930,108.5,937,130.7969,944,130.7969,944,204.5,712,204.5,712,108.5" style="stroke:#000000;stroke-width:1.5;"/><line style="stroke:#000000;stroke-width:1.5;" x1="712" x2="937" y1="130.7969" y2="130.7969"/><text fill="#000000" font-family="sans-serif" font-size="14" font-weight="bold" lengthAdjust="spacing" textLength="212" x="716" y="123.4951">org.apache.wiki.api.engine</text><!--MD5=[cb353372bce5e7783b72905abe8f50ba]
class org.apache.wiki.cache.CacheInfo--><a href="CacheInfo.html" target="_top" title="CacheInfo.html" xlink:actuate="onRequest" xlink:href="CacheInfo.html" xlink:show="new" xlink:title="CacheInfo.html" xlink:type="simple"><rect codeLine="3" fill="#FEFECE" filter="url(#fxa3w27pmth04)" height="137.6328" id="org.apache.wiki.cache.CacheInfo" style="stroke:#A80036;stroke-width:1.5;" width="202" x="483" y="97"/><ellipse cx="548.75" cy="113" fill="#ADD1B2" rx="11" ry="11" style="stroke:#A80036;stroke-width:1.0;"/><path d="M551.7188,118.6406 Q551.1406,118.9375 550.5,119.0781 Q549.8594,119.2344 549.1563,119.2344 Q546.6563,119.2344 545.3281,117.5938 Q544.0156,115.9375 544.0156,112.8125 Q544.0156,109.6875 545.3281,108.0313 Q546.6563,106.375 549.1563,106.375 Q549.8594,106.375 550.5,106.5313 Q551.1563,106.6875 551.7188,106.9844 L551.7188,109.7031 Q551.0938,109.125 550.5,108.8594 Q549.9063,108.5781 549.2813,108.5781 Q547.9375,108.5781 547.25,109.6563 Q546.5625,110.7188 546.5625,112.8125 Q546.5625,114.9063 547.25,115.9844 Q547.9375,117.0469 549.2813,117.0469 Q549.9063,117.0469 550.5,116.7813 Q551.0938,116.5 551.7188,115.9219 L551.7188,118.6406 Z " fill="#000000"/><text fill="#000000" font-family="sans-serif" font-size="12" lengthAdjust="spacing" textLength="62" x="569.25" y="117.1543">CacheInfo</text><line style="stroke:#A80036;stroke-width:1.5;" x1="484" x2="684" y1="129" y2="129"/><line style="stroke:#A80036;stroke-width:1.5;" x1="484" x2="684" y1="137" y2="137"/><ellipse cx="494" cy="148" fill="#84BE84" rx="3" ry="3" style="stroke:#038048;stroke-width:1.0;"/><text fill="#000000" font-family="sans-serif" font-size="11" lengthAdjust="spacing" textLength="130" x="503" y="151.2104">CacheInfo(String, long)</text><ellipse cx="494" cy="160.8047" fill="#84BE84" rx="3" ry="3" style="stroke:#038048;stroke-width:1.0;"/><text fill="#000000" font-family="sans-serif" font-size="11" lengthAdjust="spacing" textLength="53" x="503" y="164.0151">hit(): void</text><ellipse cx="494" cy="173.6094" fill="#84BE84" rx="3" ry="3" style="stroke:#038048;stroke-width:1.0;"/><text fill="#000000" font-family="sans-serif" font-size="11" lengthAdjust="spacing" textLength="67" x="503" y="176.8198">miss(): void</text><ellipse cx="494" cy="186.4141" fill="#84BE84" rx="3" ry="3" style="stroke:#038048;stroke-width:1.0;"/><text fill="#000000" font-family="sans-serif" font-size="11" lengthAdjust="spacing" textLength="101" x="503" y="189.6245">getName(): String</text><ellipse cx="494" cy="199.2188" fill="#84BE84" rx="3" ry="3" style="stroke:#038048;stroke-width:1.0;"/><text fill="#000000" font-family="sans-serif" font-size="11" lengthAdjust="spacing" textLength="98" x="503" y="202.4292">getMisses(): long</text><ellipse cx="494" cy="212.0234" fill="#84BE84" rx="3" ry="3" style="stroke:#038048;stroke-width:1.0;"/><text fill="#000000" font-family="sans-serif" font-size="11" lengthAdjust="spacing" textLength="80" x="503" y="215.2339">getHits(): long</text><ellipse cx="494" cy="224.8281" fill="#84BE84" rx="3" ry="3" style="stroke:#038048;stroke-width:1.0;"/><text fill="#000000" font-family="sans-serif" font-size="11" lengthAdjust="spacing" textLength="176" x="503" y="228.0386">getMaxElementsAllowed(): long</text></a><!--MD5=[3a6c2a3d7bc82cc568ce964c85437692]
class org.apache.wiki.cache.CachingManager--><a href="CachingManager.html" target="_top" title="CachingManager.html" xlink:actuate="onRequest" xlink:href="CachingManager.html" xlink:show="new" xlink:title="CachingManager.html" xlink:type="simple"><rect codeLine="13" fill="#FEFECE" filter="url(#fxa3w27pmth04)" height="265.6797" id="org.apache.wiki.cache.CachingManager" style="stroke:#A80036;stroke-width:1.5;" width="423" x="24.5" y="33"/><ellipse cx="179.25" cy="49" fill="#B4A7E5" rx="11" ry="11" style="stroke:#A80036;stroke-width:1.0;"/><path d="M175.1719,44.7656 L175.1719,42.6094 L182.5625,42.6094 L182.5625,44.7656 L180.0938,44.7656 L180.0938,52.8438 L182.5625,52.8438 L182.5625,55 L175.1719,55 L175.1719,52.8438 L177.6406,52.8438 L177.6406,44.7656 L175.1719,44.7656 Z " fill="#000000"/><text fill="#000000" font-family="sans-serif" font-size="12" font-style="italic" lengthAdjust="spacing" textLength="105" x="199.75" y="53.1543">CachingManager</text><line style="stroke:#A80036;stroke-width:1.5;" x1="25.5" x2="446.5" y1="65" y2="65"/><ellipse cx="35.5" cy="76" rx="3" ry="3" style="stroke:#038048;stroke-width:1.0;fill:none;"/><text fill="#000000" font-family="sans-serif" font-size="11" lengthAdjust="spacing" text-decoration="underline" textLength="176" x="44.5" y="79.2104">PROP_USECACHE_DEPRECATED</text><text fill="#000000" font-family="sans-serif" font-size="11" lengthAdjust="spacing" text-decoration="underline" textLength="42" x="220.5" y="79.2104">: String</text><ellipse cx="35.5" cy="88.8047" rx="3" ry="3" style="stroke:#038048;stroke-width:1.0;fill:none;"/><text fill="#000000" font-family="sans-serif" font-size="11" lengthAdjust="spacing" text-decoration="underline" textLength="165" x="44.5" y="92.0151">PROP_CACHE_ENABLE: String</text><ellipse cx="35.5" cy="101.6094" rx="3" ry="3" style="stroke:#038048;stroke-width:1.0;fill:none;"/><text fill="#000000" font-family="sans-serif" font-size="11" lengthAdjust="spacing" text-decoration="underline" textLength="181" x="44.5" y="104.8198">PROP_CACHE_CONF_FILE: String</text><ellipse cx="35.5" cy="114.4141" rx="3" ry="3" style="stroke:#038048;stroke-width:1.0;fill:none;"/><text fill="#000000" font-family="sans-serif" font-size="11" lengthAdjust="spacing" text-decoration="underline" textLength="169" x="44.5" y="117.6245">CACHE_ATTACHMENTS: String</text><ellipse cx="35.5" cy="127.2188" rx="3" ry="3" style="stroke:#038048;stroke-width:1.0;fill:none;"/><text fill="#000000" font-family="sans-serif" font-size="11" lengthAdjust="spacing" text-decoration="underline" textLength="246" x="44.5" y="130.4292">CACHE_ATTACHMENTS_COLLECTION: String</text><ellipse cx="35.5" cy="140.0234" rx="3" ry="3" style="stroke:#038048;stroke-width:1.0;fill:none;"/><text fill="#000000" font-family="sans-serif" font-size="11" lengthAdjust="spacing" text-decoration="underline" textLength="225" x="44.5" y="143.2339">CACHE_ATTACHMENTS_DYNAMIC: String</text><ellipse cx="35.5" cy="152.8281" rx="3" ry="3" style="stroke:#038048;stroke-width:1.0;fill:none;"/><text fill="#000000" font-family="sans-serif" font-size="11" lengthAdjust="spacing" text-decoration="underline" textLength="124" x="44.5" y="156.0386">CACHE_PAGES: String</text><ellipse cx="35.5" cy="165.6328" rx="3" ry="3" style="stroke:#038048;stroke-width:1.0;fill:none;"/><text fill="#000000" font-family="sans-serif" font-size="11" lengthAdjust="spacing" text-decoration="underline" textLength="158" x="44.5" y="168.8433">CACHE_PAGES_TEXT: String</text><ellipse cx="35.5" cy="178.4375" rx="3" ry="3" style="stroke:#038048;stroke-width:1.0;fill:none;"/><text fill="#000000" font-family="sans-serif" font-size="11" lengthAdjust="spacing" text-decoration="underline" textLength="179" x="44.5" y="181.6479">CACHE_PAGES_HISTORY: String</text><ellipse cx="35.5" cy="191.2422" rx="3" ry="3" style="stroke:#038048;stroke-width:1.0;fill:none;"/><text fill="#000000" font-family="sans-serif" font-size="11" lengthAdjust="spacing" text-decoration="underline" textLength="158" x="44.5" y="194.4526">CACHE_DOCUMENTS: String</text><line style="stroke:#A80036;stroke-width:1.5;" x1="25.5" x2="446.5" y1="201.0469" y2="201.0469"/><ellipse cx="35.5" cy="212.0469" fill="#84BE84" rx="3" ry="3" style="stroke:#038048;stroke-width:1.0;"/><text fill="#000000" font-family="sans-serif" font-size="11" font-style="italic" lengthAdjust="spacing" textLength="94" x="44.5" y="215.2573">shutdown(): void</text><ellipse cx="35.5" cy="224.8516" fill="#84BE84" rx="3" ry="3" style="stroke:#038048;stroke-width:1.0;"/><text fill="#000000" font-family="sans-serif" font-size="11" font-style="italic" lengthAdjust="spacing" textLength="139" x="44.5" y="228.062">enabled(String): boolean</text><ellipse cx="35.5" cy="237.6563" fill="#84BE84" rx="3" ry="3" style="stroke:#038048;stroke-width:1.0;"/><text fill="#000000" font-family="sans-serif" font-size="11" font-style="italic" lengthAdjust="spacing" textLength="126" x="44.5" y="240.8667">info(String): CacheInfo</text><ellipse cx="35.5" cy="250.4609" fill="#84BE84" rx="3" ry="3" style="stroke:#038048;stroke-width:1.0;"/><text fill="#000000" font-family="sans-serif" font-size="11" font-style="italic" lengthAdjust="spacing" textLength="237" x="44.5" y="253.6714">keys(String): List&lt;T extends Serializable&gt;</text><ellipse cx="35.5" cy="263.2656" fill="#84BE84" rx="3" ry="3" style="stroke:#038048;stroke-width:1.0;"/><text fill="#000000" font-family="sans-serif" font-size="11" font-style="italic" lengthAdjust="spacing" textLength="397" x="44.5" y="266.4761">get(String, Serializable, CheckedSupplier&lt;T, E extends Exception&gt;): T</text><ellipse cx="35.5" cy="276.0703" fill="#84BE84" rx="3" ry="3" style="stroke:#038048;stroke-width:1.0;"/><text fill="#000000" font-family="sans-serif" font-size="11" font-style="italic" lengthAdjust="spacing" textLength="208" x="44.5" y="279.2808">put(String, Serializable, Object): void</text><ellipse cx="35.5" cy="288.875" fill="#84BE84" rx="3" ry="3" style="stroke:#038048;stroke-width:1.0;"/><text fill="#000000" font-family="sans-serif" font-size="11" font-style="italic" lengthAdjust="spacing" textLength="190" x="44.5" y="292.0854">remove(String, Serializable): void</text></a><!--MD5=[4bfdfaca1e8c29230d5e9763d3dd41bf]
class org.apache.wiki.cache.EhcacheCachingManager--><a href="EhcacheCachingManager.html" target="_top" title="EhcacheCachingManager.html" xlink:actuate="onRequest" xlink:href="EhcacheCachingManager.html" xlink:show="new" xlink:title="EhcacheCachingManager.html" xlink:type="simple"><rect codeLine="33" fill="#FEFECE" filter="url(#fxa3w27pmth04)" height="150.4375" id="org.apache.wiki.cache.EhcacheCachingManager" style="stroke:#A80036;stroke-width:1.5;" width="424" x="142" y="359"/><ellipse cx="270.25" cy="375" fill="#ADD1B2" rx="11" ry="11" style="stroke:#A80036;stroke-width:1.0;"/><path d="M273.2188,380.6406 Q272.6406,380.9375 272,381.0781 Q271.3594,381.2344 270.6563,381.2344 Q268.1563,381.2344 266.8281,379.5938 Q265.5156,377.9375 265.5156,374.8125 Q265.5156,371.6875 266.8281,370.0313 Q268.1563,368.375 270.6563,368.375 Q271.3594,368.375 272,368.5313 Q272.6563,368.6875 273.2188,368.9844 L273.2188,371.7031 Q272.5938,371.125 272,370.8594 Q271.4063,370.5781 270.7813,370.5781 Q269.4375,370.5781 268.75,371.6563 Q268.0625,372.7188 268.0625,374.8125 Q268.0625,376.9063 268.75,377.9844 Q269.4375,379.0469 270.7813,379.0469 Q271.4063,379.0469 272,378.7813 Q272.5938,378.5 273.2188,377.9219 L273.2188,380.6406 Z " fill="#000000"/><text fill="#000000" font-family="sans-serif" font-size="12" lengthAdjust="spacing" textLength="159" x="290.75" y="379.1543">EhcacheCachingManager</text><line style="stroke:#A80036;stroke-width:1.5;" x1="143" x2="565" y1="391" y2="391"/><line style="stroke:#A80036;stroke-width:1.5;" x1="143" x2="565" y1="399" y2="399"/><ellipse cx="153" cy="410" fill="#84BE84" rx="3" ry="3" style="stroke:#038048;stroke-width:1.0;"/><text fill="#000000" font-family="sans-serif" font-size="11" lengthAdjust="spacing" textLength="94" x="162" y="413.2104">shutdown(): void</text><ellipse cx="153" cy="422.8047" fill="#84BE84" rx="3" ry="3" style="stroke:#038048;stroke-width:1.0;"/><text fill="#000000" font-family="sans-serif" font-size="11" lengthAdjust="spacing" textLength="189" x="162" y="426.0151">initialize(Engine, Properties): void</text><ellipse cx="153" cy="435.6094" fill="#84BE84" rx="3" ry="3" style="stroke:#038048;stroke-width:1.0;"/><text fill="#000000" font-family="sans-serif" font-size="11" lengthAdjust="spacing" textLength="140" x="162" y="438.8198">enabled(String): boolean</text><ellipse cx="153" cy="448.4141" fill="#84BE84" rx="3" ry="3" style="stroke:#038048;stroke-width:1.0;"/><text fill="#000000" font-family="sans-serif" font-size="11" lengthAdjust="spacing" textLength="127" x="162" y="451.6245">info(String): CacheInfo</text><ellipse cx="153" cy="461.2188" fill="#84BE84" rx="3" ry="3" style="stroke:#038048;stroke-width:1.0;"/><text fill="#000000" font-family="sans-serif" font-size="11" lengthAdjust="spacing" textLength="148" x="162" y="464.4292">keys(String): List&lt;String&gt;</text><ellipse cx="153" cy="474.0234" fill="#84BE84" rx="3" ry="3" style="stroke:#038048;stroke-width:1.0;"/><text fill="#000000" font-family="sans-serif" font-size="11" lengthAdjust="spacing" textLength="398" x="162" y="477.2339">get(String, Serializable, CheckedSupplier&lt;T, E extends Exception&gt;): T</text><ellipse cx="153" cy="486.8281" fill="#84BE84" rx="3" ry="3" style="stroke:#038048;stroke-width:1.0;"/><text fill="#000000" font-family="sans-serif" font-size="11" lengthAdjust="spacing" textLength="208" x="162" y="490.0386">put(String, Serializable, Object): void</text><ellipse cx="153" cy="499.6328" fill="#84BE84" rx="3" ry="3" style="stroke:#038048;stroke-width:1.0;"/><text fill="#000000" font-family="sans-serif" font-size="11" lengthAdjust="spacing" textLength="189" x="162" y="502.8433">remove(String, Serializable): void</text></a><!--MD5=[b42cfcd16e39a0fd6a37261d508d7333]
class org.apache.wiki.api.engine.Initializable--><a href="../api/engine/Initializable.html" target="_top" title="../api/engine/Initializable.html" xlink:actuate="onRequest" xlink:href="../api/engine/Initializable.html" xlink:show="new" xlink:title="../api/engine/Initializable.html" xlink:type="simple"><rect codeLine="49" fill="#FEFECE" filter="url(#fxa3w27pmth04)" height="60.8047" id="org.apache.wiki.api.engine.Initializable" style="stroke:#A80036;stroke-width:1.5;" width="216" x="720" y="135.5"/><ellipse cx="788.75" cy="151.5" fill="#B4A7E5" rx="11" ry="11" style="stroke:#A80036;stroke-width:1.0;"/><path d="M784.6719,147.2656 L784.6719,145.1094 L792.0625,145.1094 L792.0625,147.2656 L789.5938,147.2656 L789.5938,155.3438 L792.0625,155.3438 L792.0625,157.5 L784.6719,157.5 L784.6719,155.3438 L787.1406,155.3438 L787.1406,147.2656 L784.6719,147.2656 Z " fill="#000000"/><text fill="#000000" font-family="sans-serif" font-size="12" font-style="italic" lengthAdjust="spacing" textLength="70" x="809.25" y="155.6543">Initializable</text><line style="stroke:#A80036;stroke-width:1.5;" x1="721" x2="935" y1="167.5" y2="167.5"/><line style="stroke:#A80036;stroke-width:1.5;" x1="721" x2="935" y1="175.5" y2="175.5"/><ellipse cx="731" cy="186.5" fill="#84BE84" rx="3" ry="3" style="stroke:#038048;stroke-width:1.0;"/><text fill="#000000" font-family="sans-serif" font-size="11" font-style="italic" lengthAdjust="spacing" textLength="190" x="740" y="189.7104">initialize(Engine, Properties): void</text></a><!--MD5=[9f6213186dc836752574e19aad9b8672]
reverse link org.apache.wiki.cache.CachingManager to org.apache.wiki.cache.EhcacheCachingManager--><path codeLine="44" d="M302.8812,317.8998 C309.1053,332.0358 315.2102,345.9011 320.9122,358.8514 " fill="none" id="org.apache.wiki.cache.CachingManager-backto-org.apache.wiki.cache.EhcacheCachingManager" style="stroke:#A80036;stroke-width:1.0;stroke-dasharray:7.0,7.0;"/><polygon fill="none" points="296.3072,320.3399,294.6543,299.2148,309.1202,314.6983,296.3072,320.3399" style="stroke:#A80036;stroke-width:1.0;"/><!--MD5=[7b830e65a579f148cb4264e357ce6df7]
reverse link org.apache.wiki.api.engine.Initializable to org.apache.wiki.cache.EhcacheCachingManager--><path codeLine="45" d="M792.6131,212.3051 C769.1474,240.4537 736.2667,275.3997 701,299 C660.0367,326.4124 612.6911,349.4718 566.3992,368.3393 " fill="none" id="org.apache.wiki.api.engine.Initializable-backto-org.apache.wiki.cache.EhcacheCachingManager" style="stroke:#A80036;stroke-width:1.0;stroke-dasharray:7.0,7.0;"/><polygon fill="none" points="787.2612,207.791,805.2882,196.6543,798.1408,216.6021,787.2612,207.791" style="stroke:#A80036;stroke-width:1.0;"/><text fill="#888888" font-family="sans-serif" font-size="10" lengthAdjust="spacing" textLength="192" x="378" y="532.2822">UMLDoclet 2.0.15, PlantUML 1.2021.13</text><!--MD5=[ff3548830eed07c8e2d250e726ba3fe3]
@startuml
    namespace org.apache.wiki.cache {

        class CacheInfo [[CacheInfo.html]] {
            +CacheInfo(String, long)
            +hit(): void
            +miss(): void
            +getName(): String
            +getMisses(): long
            +getHits(): long
            +getMaxElementsAllowed(): long
        }

        interface CachingManager [[CachingManager.html]] {
            {static} +- -PROP_USECACHE_DEPRECATED- -: String
            {static} +PROP_CACHE_ENABLE: String
            {static} +PROP_CACHE_CONF_FILE: String
            {static} +CACHE_ATTACHMENTS: String
            {static} +CACHE_ATTACHMENTS_COLLECTION: String
            {static} +CACHE_ATTACHMENTS_DYNAMIC: String
            {static} +CACHE_PAGES: String
            {static} +CACHE_PAGES_TEXT: String
            {static} +CACHE_PAGES_HISTORY: String
            {static} +CACHE_DOCUMENTS: String
            {abstract} +shutdown(): void
            {abstract} +enabled(String): boolean
            {abstract} +info(String): CacheInfo
            {abstract} +keys(String): List<T extends Serializable>
            {abstract} +get(String, Serializable, CheckedSupplier<T, E extends Exception>): T
            {abstract} +put(String, Serializable, Object): void
            {abstract} +remove(String, Serializable): void
        }

        class EhcacheCachingManager [[EhcacheCachingManager.html]] {
            +shutdown(): void
            +initialize(Engine, Properties): void
            +enabled(String): boolean
            +info(String): CacheInfo
            +keys(String): List<String>
            +get(String, Serializable, CheckedSupplier<T, E extends Exception>): T
            +put(String, Serializable, Object): void
            +remove(String, Serializable): void
        }

        CachingManager <|.. EhcacheCachingManager
        org.apache.wiki.api.engine.Initializable <|.. EhcacheCachingManager
    }

    namespace org.apache.wiki.api.engine {
        interface Initializable [[../api/engine/Initializable.html]] {
            {abstract} +initialize(Engine, Properties): void
        }
    }

    center footer UMLDoclet 2.0.15, PlantUML 1.2021.13
@enduml

PlantUML version 1.2021.13(Mon Nov 01 11:38:45 UTC 2021)
(APACHE source distribution)
Java Runtime: OpenJDK Runtime Environment
JVM: OpenJDK 64-Bit Server VM
Default Encoding: ISO-8859-1
Language: en
Country: US
--></g></svg>