<?xml version="1.0" encoding="UTF-8" standalone="no"?><svg xmlns="http://www.w3.org/2000/svg" xmlns:xlink="http://www.w3.org/1999/xlink" contentScriptType="application/ecmascript" contentStyleType="text/css" height="1096px" preserveAspectRatio="none" style="width:1387px;height:1096px;background:#FFFFFF;" version="1.1" viewBox="0 0 1387 1096" width="1387px" zoomAndPan="magnify"><defs><filter height="300%" id="f5fve90im3x9i" width="300%" x="-1" y="-1"><feGaussianBlur result="blurOut" stdDeviation="2.0"/><feColorMatrix in="blurOut" result="blurOut2" type="matrix" values="0 0 0 0 0 0 0 0 0 0 0 0 0 0 0 0 0 0 .4 0"/><feOffset dx="4.0" dy="4.0" in="blurOut2" result="blurOut3"/><feBlend in="SourceGraphic" in2="blurOut3" mode="normal"/></filter></defs><g><!--MD5=[925c285d5b55c51cbfefafd668951236]
cluster org.apache.wiki.htmltowiki--><polygon fill="#FFFFFF" filter="url(#f5fve90im3x9i)" points="16,165,233,165,240,187.2969,1370,187.2969,1370,1073,16,1073,16,165" style="stroke:#000000;stroke-width:1.5;"/><line style="stroke:#000000;stroke-width:1.5;" x1="16" x2="240" y1="187.2969" y2="187.2969"/><text fill="#000000" font-family="sans-serif" font-size="14" font-weight="bold" lengthAdjust="spacing" textLength="211" x="20" y="179.9951">org.apache.wiki.htmltowiki</text><!--MD5=[0d852700fdad35b7061d461d6907a324]
cluster java.io--><polygon fill="#FFFFFF" filter="url(#f5fve90im3x9i)" points="501,6,557,6,564,28.2969,689,28.2969,689,140,501,140,501,6" style="stroke:#000000;stroke-width:1.5;"/><line style="stroke:#000000;stroke-width:1.5;" x1="501" x2="564" y1="28.2969" y2="28.2969"/><text fill="#000000" font-family="sans-serif" font-size="14" font-weight="bold" lengthAdjust="spacing" textLength="50" x="505" y="20.9951">java.io</text><!--MD5=[4813a44c5a4854b149b5f436d79b1d25]
class org.apache.wiki.htmltowiki.WhitespaceTrimWriter--><a href="WhitespaceTrimWriter.html" target="_top" title="WhitespaceTrimWriter.html" xlink:actuate="onRequest" xlink:href="WhitespaceTrimWriter.html" xlink:show="new" xlink:title="WhitespaceTrimWriter.html" xlink:type="simple"><rect codeLine="3" fill="#FEFECE" filter="url(#f5fve90im3x9i)" height="137.6328" id="org.apache.wiki.htmltowiki.WhitespaceTrimWriter" style="stroke:#A80036;stroke-width:1.5;" width="248" x="471" y="249.5"/><ellipse cx="522.75" cy="265.5" fill="#ADD1B2" rx="11" ry="11" style="stroke:#A80036;stroke-width:1.0;"/><path d="M525.7188,271.1406 Q525.1406,271.4375 524.5,271.5781 Q523.8594,271.7344 523.1563,271.7344 Q520.6563,271.7344 519.3281,270.0938 Q518.0156,268.4375 518.0156,265.3125 Q518.0156,262.1875 519.3281,260.5313 Q520.6563,258.875 523.1563,258.875 Q523.8594,258.875 524.5,259.0313 Q525.1563,259.1875 525.7188,259.4844 L525.7188,262.2031 Q525.0938,261.625 524.5,261.3594 Q523.9063,261.0781 523.2813,261.0781 Q521.9375,261.0781 521.25,262.1563 Q520.5625,263.2188 520.5625,265.3125 Q520.5625,267.4063 521.25,268.4844 Q521.9375,269.5469 523.2813,269.5469 Q523.9063,269.5469 524.5,269.2813 Q525.0938,269 525.7188,268.4219 L525.7188,271.1406 Z " fill="#000000"/><text fill="#000000" font-family="sans-serif" font-size="12" lengthAdjust="spacing" textLength="136" x="543.25" y="269.6543">WhitespaceTrimWriter</text><line style="stroke:#A80036;stroke-width:1.5;" x1="472" x2="718" y1="281.5" y2="281.5"/><ellipse cx="482" cy="292.5" rx="3" ry="3" style="stroke:#038048;stroke-width:1.0;fill:none;"/><text fill="#000000" font-family="sans-serif" font-size="11" lengthAdjust="spacing" text-decoration="underline" textLength="158" x="491" y="295.7104">NO_TRIMMED_SPACE: String</text><line style="stroke:#A80036;stroke-width:1.5;" x1="472" x2="718" y1="302.3047" y2="302.3047"/><ellipse cx="482" cy="313.3047" fill="#84BE84" rx="3" ry="3" style="stroke:#038048;stroke-width:1.0;"/><text fill="#000000" font-family="sans-serif" font-size="11" lengthAdjust="spacing" textLength="67" x="491" y="316.5151">flush(): void</text><ellipse cx="482" cy="326.1094" fill="#84BE84" rx="3" ry="3" style="stroke:#038048;stroke-width:1.0;"/><text fill="#000000" font-family="sans-serif" font-size="11" lengthAdjust="spacing" textLength="191" x="491" y="329.3198">isWhitespaceTrimMode(): boolean</text><ellipse cx="482" cy="338.9141" fill="#84BE84" rx="3" ry="3" style="stroke:#038048;stroke-width:1.0;"/><text fill="#000000" font-family="sans-serif" font-size="11" lengthAdjust="spacing" textLength="222" x="491" y="342.1245">setWhitespaceTrimMode(boolean): void</text><ellipse cx="482" cy="351.7188" fill="#84BE84" rx="3" ry="3" style="stroke:#038048;stroke-width:1.0;"/><text fill="#000000" font-family="sans-serif" font-size="11" lengthAdjust="spacing" textLength="144" x="491" y="354.9292">write(char[], int, int): void</text><ellipse cx="482" cy="364.5234" fill="#84BE84" rx="3" ry="3" style="stroke:#038048;stroke-width:1.0;"/><text fill="#000000" font-family="sans-serif" font-size="11" lengthAdjust="spacing" textLength="69" x="491" y="367.7339">close(): void</text><ellipse cx="482" cy="377.3281" fill="#84BE84" rx="3" ry="3" style="stroke:#038048;stroke-width:1.0;"/><text fill="#000000" font-family="sans-serif" font-size="11" lengthAdjust="spacing" textLength="194" x="491" y="380.5386">isCurrentlyOnLineBegin(): boolean</text></a><!--MD5=[e7d4954d9fa2f45d54cef927abca9a2a]
class org.apache.wiki.htmltowiki.HtmlStringToWikiTranslator--><a href="HtmlStringToWikiTranslator.html" target="_top" title="HtmlStringToWikiTranslator.html" xlink:actuate="onRequest" xlink:href="HtmlStringToWikiTranslator.html" xlink:show="new" xlink:title="HtmlStringToWikiTranslator.html" xlink:type="simple"><rect codeLine="13" fill="#FEFECE" filter="url(#f5fve90im3x9i)" height="112.0234" id="org.apache.wiki.htmltowiki.HtmlStringToWikiTranslator" style="stroke:#A80036;stroke-width:1.5;" width="273" x="754.5" y="262.5"/><ellipse cx="802.75" cy="278.5" fill="#ADD1B2" rx="11" ry="11" style="stroke:#A80036;stroke-width:1.0;"/><path d="M805.7188,284.1406 Q805.1406,284.4375 804.5,284.5781 Q803.8594,284.7344 803.1563,284.7344 Q800.6563,284.7344 799.3281,283.0938 Q798.0156,281.4375 798.0156,278.3125 Q798.0156,275.1875 799.3281,273.5313 Q800.6563,271.875 803.1563,271.875 Q803.8594,271.875 804.5,272.0313 Q805.1563,272.1875 805.7188,272.4844 L805.7188,275.2031 Q805.0938,274.625 804.5,274.3594 Q803.9063,274.0781 803.2813,274.0781 Q801.9375,274.0781 801.25,275.1563 Q800.5625,276.2188 800.5625,278.3125 Q800.5625,280.4063 801.25,281.4844 Q801.9375,282.5469 803.2813,282.5469 Q803.9063,282.5469 804.5,282.2813 Q805.0938,282 805.7188,281.4219 L805.7188,284.1406 Z " fill="#000000"/><text fill="#000000" font-family="sans-serif" font-size="12" lengthAdjust="spacing" textLength="168" x="823.25" y="282.6543">HtmlStringToWikiTranslator</text><line style="stroke:#A80036;stroke-width:1.5;" x1="755.5" x2="1026.5" y1="294.5" y2="294.5"/><line style="stroke:#A80036;stroke-width:1.5;" x1="755.5" x2="1026.5" y1="302.5" y2="302.5"/><ellipse cx="765.5" cy="313.5" fill="#84BE84" rx="3" ry="3" style="stroke:#038048;stroke-width:1.0;"/><text fill="#000000" font-family="sans-serif" font-size="11" lengthAdjust="spacing" textLength="200" x="774.5" y="316.7104">HtmlStringToWikiTranslator(Engine)</text><ellipse cx="765.5" cy="326.3047" fill="#84BE84" rx="3" ry="3" style="stroke:#038048;stroke-width:1.0;"/><text fill="#000000" font-family="sans-serif" font-size="11" lengthAdjust="spacing" textLength="135" x="774.5" y="329.5151">translate(String): String</text><ellipse cx="765.5" cy="339.1094" fill="#84BE84" rx="3" ry="3" style="stroke:#038048;stroke-width:1.0;"/><text fill="#000000" font-family="sans-serif" font-size="11" lengthAdjust="spacing" textLength="186" x="774.5" y="342.3198">translate(String, Context): String</text><ellipse cx="765.5" cy="351.9141" fill="#84BE84" rx="3" ry="3" style="stroke:#038048;stroke-width:1.0;"/><text fill="#000000" font-family="sans-serif" font-size="11" lengthAdjust="spacing" textLength="247" x="774.5" y="355.1245">translate(String, XHtmlToWikiConfig): String</text><ellipse cx="765.5" cy="364.7188" fill="#84BE84" rx="3" ry="3" style="stroke:#038048;stroke-width:1.0;"/><text fill="#000000" font-family="sans-serif" font-size="11" lengthAdjust="spacing" text-decoration="underline" textLength="183" x="774.5" y="367.9292">element2String(Element): String</text></a><!--MD5=[f465f7faf678a3d01f1fa86cd0e5121a]
class org.apache.wiki.htmltowiki.XHtmlElementToWikiTranslator--><a href="XHtmlElementToWikiTranslator.html" target="_top" title="XHtmlElementToWikiTranslator.html" xlink:actuate="onRequest" xlink:href="XHtmlElementToWikiTranslator.html" xlink:show="new" xlink:title="XHtmlElementToWikiTranslator.html" xlink:type="simple"><rect codeLine="21" fill="#FEFECE" filter="url(#f5fve90im3x9i)" height="150.4375" id="org.apache.wiki.htmltowiki.XHtmlElementToWikiTranslator" style="stroke:#A80036;stroke-width:1.5;" width="411" x="24.5" y="243.5"/><ellipse cx="131.25" cy="259.5" fill="#ADD1B2" rx="11" ry="11" style="stroke:#A80036;stroke-width:1.0;"/><path d="M134.2188,265.1406 Q133.6406,265.4375 133,265.5781 Q132.3594,265.7344 131.6563,265.7344 Q129.1563,265.7344 127.8281,264.0938 Q126.5156,262.4375 126.5156,259.3125 Q126.5156,256.1875 127.8281,254.5313 Q129.1563,252.875 131.6563,252.875 Q132.3594,252.875 133,253.0313 Q133.6563,253.1875 134.2188,253.4844 L134.2188,256.2031 Q133.5938,255.625 133,255.3594 Q132.4063,255.0781 131.7813,255.0781 Q130.4375,255.0781 129.75,256.1563 Q129.0625,257.2188 129.0625,259.3125 Q129.0625,261.4063 129.75,262.4844 Q130.4375,263.5469 131.7813,263.5469 Q132.4063,263.5469 133,263.2813 Q133.5938,263 134.2188,262.4219 L134.2188,265.1406 Z " fill="#000000"/><text fill="#000000" font-family="sans-serif" font-size="12" lengthAdjust="spacing" textLength="189" x="151.75" y="263.6543">XHtmlElementToWikiTranslator</text><line style="stroke:#A80036;stroke-width:1.5;" x1="25.5" x2="434.5" y1="275.5" y2="275.5"/><line style="stroke:#A80036;stroke-width:1.5;" x1="25.5" x2="434.5" y1="283.5" y2="283.5"/><ellipse cx="35.5" cy="294.5" fill="#84BE84" rx="3" ry="3" style="stroke:#038048;stroke-width:1.0;"/><text fill="#000000" font-family="sans-serif" font-size="11" lengthAdjust="spacing" textLength="273" x="44.5" y="297.7104">XHtmlElementToWikiTranslator(Engine, Element)</text><ellipse cx="35.5" cy="307.3047" fill="#84BE84" rx="3" ry="3" style="stroke:#038048;stroke-width:1.0;"/><text fill="#000000" font-family="sans-serif" font-size="11" lengthAdjust="spacing" textLength="385" x="44.5" y="310.5151">XHtmlElementToWikiTranslator(Engine, Element, XHtmlToWikiConfig)</text><ellipse cx="35.5" cy="320.1094" fill="#84BE84" rx="3" ry="3" style="stroke:#038048;stroke-width:1.0;"/><text fill="#000000" font-family="sans-serif" font-size="11" lengthAdjust="spacing" textLength="123" x="44.5" y="323.3198">getWikiString(): String</text><ellipse cx="35.5" cy="332.9141" fill="#84BE84" rx="3" ry="3" style="stroke:#038048;stroke-width:1.0;"/><text fill="#000000" font-family="sans-serif" font-size="11" lengthAdjust="spacing" textLength="134" x="44.5" y="336.1245">translate(Content): void</text><ellipse cx="35.5" cy="345.7188" fill="#84BE84" rx="3" ry="3" style="stroke:#038048;stroke-width:1.0;"/><text fill="#000000" font-family="sans-serif" font-size="11" lengthAdjust="spacing" textLength="138" x="44.5" y="348.9292">translateText(Text): void</text><ellipse cx="35.5" cy="358.5234" fill="#84BE84" rx="3" ry="3" style="stroke:#038048;stroke-width:1.0;"/><text fill="#000000" font-family="sans-serif" font-size="11" lengthAdjust="spacing" textLength="171" x="44.5" y="361.7339">translateImage(Element): void</text><ellipse cx="35.5" cy="371.3281" fill="#84BE84" rx="3" ry="3" style="stroke:#038048;stroke-width:1.0;"/><text fill="#000000" font-family="sans-serif" font-size="11" lengthAdjust="spacing" textLength="183" x="44.5" y="374.5386">translateChildren(Element): void</text><ellipse cx="35.5" cy="384.1328" fill="#84BE84" rx="3" ry="3" style="stroke:#038048;stroke-width:1.0;"/><text fill="#000000" font-family="sans-serif" font-size="11" lengthAdjust="spacing" textLength="195" x="44.5" y="387.3433">translateParagraph(Element): void</text></a><!--MD5=[b1331e2f76e992668170d446c662cc6e]
class org.apache.wiki.htmltowiki.XHtmlElementToWikiTranslator.ElementDecoratorData--><a href="XHtmlElementToWikiTranslator.ElementDecoratorData.html" target="_top" title="XHtmlElementToWikiTranslator.ElementDecoratorData.html" xlink:actuate="onRequest" xlink:href="XHtmlElementToWikiTranslator.ElementDecoratorData.html" xlink:show="new" xlink:title="XHtmlElementToWikiTranslator.ElementDecoratorData.html" xlink:type="simple"><rect codeLine="32" fill="#FEFECE" filter="url(#f5fve90im3x9i)" height="150.4375" id="org.apache.wiki.htmltowiki.XHtmlElementToWikiTranslator.ElementDecoratorData" style="stroke:#A80036;stroke-width:1.5;" width="369" x="45.5" y="710"/><ellipse cx="60.5" cy="726" fill="#ADD1B2" rx="11" ry="11" style="stroke:#A80036;stroke-width:1.0;"/><path d="M63.4688,731.6406 Q62.8906,731.9375 62.25,732.0781 Q61.6094,732.2344 60.9063,732.2344 Q58.4063,732.2344 57.0781,730.5938 Q55.7656,728.9375 55.7656,725.8125 Q55.7656,722.6875 57.0781,721.0313 Q58.4063,719.375 60.9063,719.375 Q61.6094,719.375 62.25,719.5313 Q62.9063,719.6875 63.4688,719.9844 L63.4688,722.7031 Q62.8438,722.125 62.25,721.8594 Q61.6563,721.5781 61.0313,721.5781 Q59.6875,721.5781 59,722.6563 Q58.3125,723.7188 58.3125,725.8125 Q58.3125,727.9063 59,728.9844 Q59.6875,730.0469 61.0313,730.0469 Q61.6563,730.0469 62.25,729.7813 Q62.8438,729.5 63.4688,728.9219 L63.4688,731.6406 Z " fill="#000000"/><text fill="#000000" font-family="sans-serif" font-size="12" lengthAdjust="spacing" textLength="337" x="74.5" y="730.1543">XHtmlElementToWikiTranslator.ElementDecoratorData</text><line style="stroke:#A80036;stroke-width:1.5;" x1="46.5" x2="413.5" y1="742" y2="742"/><ellipse cx="56.5" cy="753" rx="3" ry="3" style="stroke:#038048;stroke-width:1.0;fill:none;"/><text fill="#000000" font-family="sans-serif" font-size="11" lengthAdjust="spacing" textLength="82" x="65.5" y="756.2104">base: Element</text><ellipse cx="56.5" cy="765.8047" rx="3" ry="3" style="stroke:#038048;stroke-width:1.0;fill:none;"/><text fill="#000000" font-family="sans-serif" font-size="11" lengthAdjust="spacing" textLength="96" x="65.5" y="769.0151">htmlBase: String</text><ellipse cx="56.5" cy="778.6094" rx="3" ry="3" style="stroke:#038048;stroke-width:1.0;fill:none;"/><text fill="#000000" font-family="sans-serif" font-size="11" lengthAdjust="spacing" textLength="94" x="65.5" y="781.8198">cssClass: String</text><ellipse cx="56.5" cy="791.4141" rx="3" ry="3" style="stroke:#038048;stroke-width:1.0;fill:none;"/><text fill="#000000" font-family="sans-serif" font-size="11" lengthAdjust="spacing" textLength="103" x="65.5" y="794.6245">cssSpecial: String</text><ellipse cx="56.5" cy="804.2188" rx="3" ry="3" style="stroke:#038048;stroke-width:1.0;fill:none;"/><text fill="#000000" font-family="sans-serif" font-size="11" lengthAdjust="spacing" textLength="119" x="65.5" y="807.4292">monospace: boolean</text><ellipse cx="56.5" cy="817.0234" rx="3" ry="3" style="stroke:#038048;stroke-width:1.0;fill:none;"/><text fill="#000000" font-family="sans-serif" font-size="11" lengthAdjust="spacing" textLength="77" x="65.5" y="820.2339">bold: boolean</text><ellipse cx="56.5" cy="829.8281" rx="3" ry="3" style="stroke:#038048;stroke-width:1.0;fill:none;"/><text fill="#000000" font-family="sans-serif" font-size="11" lengthAdjust="spacing" textLength="79" x="65.5" y="833.0386">italic: boolean</text><ellipse cx="56.5" cy="842.6328" rx="3" ry="3" style="stroke:#038048;stroke-width:1.0;fill:none;"/><text fill="#000000" font-family="sans-serif" font-size="11" lengthAdjust="spacing" textLength="150" x="65.5" y="845.8433">ignoredCssClass: boolean</text><line style="stroke:#A80036;stroke-width:1.5;" x1="46.5" x2="413.5" y1="852.4375" y2="852.4375"/></a><!--MD5=[5b28aa672ccf90fdf7956b5ae9c93fe9]
class org.apache.wiki.htmltowiki.XHtmlToWikiConfig--><a href="XHtmlToWikiConfig.html" target="_top" title="XHtmlToWikiConfig.html" xlink:actuate="onRequest" xlink:href="XHtmlToWikiConfig.html" xlink:show="new" xlink:title="XHtmlToWikiConfig.html" xlink:type="simple"><rect codeLine="43" fill="#FEFECE" filter="url(#f5fve90im3x9i)" height="252.875" id="org.apache.wiki.htmltowiki.XHtmlToWikiConfig" style="stroke:#A80036;stroke-width:1.5;" width="299" x="1062.5" y="192"/><ellipse cx="1151.25" cy="208" fill="#ADD1B2" rx="11" ry="11" style="stroke:#A80036;stroke-width:1.0;"/><path d="M1154.2188,213.6406 Q1153.6406,213.9375 1153,214.0781 Q1152.3594,214.2344 1151.6563,214.2344 Q1149.1563,214.2344 1147.8281,212.5938 Q1146.5156,210.9375 1146.5156,207.8125 Q1146.5156,204.6875 1147.8281,203.0313 Q1149.1563,201.375 1151.6563,201.375 Q1152.3594,201.375 1153,201.5313 Q1153.6563,201.6875 1154.2188,201.9844 L1154.2188,204.7031 Q1153.5938,204.125 1153,203.8594 Q1152.4063,203.5781 1151.7813,203.5781 Q1150.4375,203.5781 1149.75,204.6563 Q1149.0625,205.7188 1149.0625,207.8125 Q1149.0625,209.9063 1149.75,210.9844 Q1150.4375,212.0469 1151.7813,212.0469 Q1152.4063,212.0469 1153,211.7813 Q1153.5938,211.5 1154.2188,210.9219 L1154.2188,213.6406 Z " fill="#000000"/><text fill="#000000" font-family="sans-serif" font-size="12" lengthAdjust="spacing" textLength="113" x="1171.75" y="212.1543">XHtmlToWikiConfig</text><line style="stroke:#A80036;stroke-width:1.5;" x1="1063.5" x2="1360.5" y1="224" y2="224"/><line style="stroke:#A80036;stroke-width:1.5;" x1="1063.5" x2="1360.5" y1="232" y2="232"/><ellipse cx="1073.5" cy="243" fill="#84BE84" rx="3" ry="3" style="stroke:#038048;stroke-width:1.0;"/><text fill="#000000" font-family="sans-serif" font-size="11" lengthAdjust="spacing" textLength="112" x="1082.5" y="246.2104">XHtmlToWikiConfig()</text><ellipse cx="1073.5" cy="255.8047" fill="#84BE84" rx="3" ry="3" style="stroke:#038048;stroke-width:1.0;"/><text fill="#000000" font-family="sans-serif" font-size="11" lengthAdjust="spacing" textLength="155" x="1082.5" y="259.0151">XHtmlToWikiConfig(Context)</text><ellipse cx="1073.5" cy="268.6094" fill="#84BE84" rx="3" ry="3" style="stroke:#038048;stroke-width:1.0;"/><text fill="#000000" font-family="sans-serif" font-size="11" lengthAdjust="spacing" textLength="131" x="1082.5" y="271.8198">getAttachPage(): String</text><ellipse cx="1073.5" cy="281.4141" fill="#84BE84" rx="3" ry="3" style="stroke:#038048;stroke-width:1.0;"/><text fill="#000000" font-family="sans-serif" font-size="11" lengthAdjust="spacing" textLength="154" x="1082.5" y="284.6245">setAttachPage(String): void</text><ellipse cx="1073.5" cy="294.2188" fill="#84BE84" rx="3" ry="3" style="stroke:#038048;stroke-width:1.0;"/><text fill="#000000" font-family="sans-serif" font-size="11" lengthAdjust="spacing" textLength="107" x="1082.5" y="297.4292">getOutlink(): String</text><ellipse cx="1073.5" cy="307.0234" fill="#84BE84" rx="3" ry="3" style="stroke:#038048;stroke-width:1.0;"/><text fill="#000000" font-family="sans-serif" font-size="11" lengthAdjust="spacing" textLength="130" x="1082.5" y="310.2339">setOutlink(String): void</text><ellipse cx="1073.5" cy="319.8281" fill="#84BE84" rx="3" ry="3" style="stroke:#038048;stroke-width:1.0;"/><text fill="#000000" font-family="sans-serif" font-size="11" lengthAdjust="spacing" textLength="134" x="1082.5" y="323.0386">getPageInfoJsp(): String</text><ellipse cx="1073.5" cy="332.6328" fill="#84BE84" rx="3" ry="3" style="stroke:#038048;stroke-width:1.0;"/><text fill="#000000" font-family="sans-serif" font-size="11" lengthAdjust="spacing" textLength="157" x="1082.5" y="335.8433">setPageInfoJsp(String): void</text><ellipse cx="1073.5" cy="345.4375" fill="#84BE84" rx="3" ry="3" style="stroke:#038048;stroke-width:1.0;"/><text fill="#000000" font-family="sans-serif" font-size="11" lengthAdjust="spacing" textLength="129" x="1082.5" y="348.6479">getPageName(): String</text><ellipse cx="1073.5" cy="358.2422" fill="#84BE84" rx="3" ry="3" style="stroke:#038048;stroke-width:1.0;"/><text fill="#000000" font-family="sans-serif" font-size="11" lengthAdjust="spacing" textLength="152" x="1082.5" y="361.4526">setPageName(String): void</text><ellipse cx="1073.5" cy="371.0469" fill="#84BE84" rx="3" ry="3" style="stroke:#038048;stroke-width:1.0;"/><text fill="#000000" font-family="sans-serif" font-size="11" lengthAdjust="spacing" textLength="134" x="1082.5" y="374.2573">getWikiJspPage(): String</text><ellipse cx="1073.5" cy="383.8516" fill="#84BE84" rx="3" ry="3" style="stroke:#038048;stroke-width:1.0;"/><text fill="#000000" font-family="sans-serif" font-size="11" lengthAdjust="spacing" textLength="157" x="1082.5" y="387.062">setWikiJspPage(String): void</text><ellipse cx="1073.5" cy="396.6563" fill="#84BE84" rx="3" ry="3" style="stroke:#038048;stroke-width:1.0;"/><text fill="#000000" font-family="sans-serif" font-size="11" lengthAdjust="spacing" textLength="134" x="1082.5" y="399.8667">getEditJspPage(): String</text><ellipse cx="1073.5" cy="409.4609" fill="#84BE84" rx="3" ry="3" style="stroke:#038048;stroke-width:1.0;"/><text fill="#000000" font-family="sans-serif" font-size="11" lengthAdjust="spacing" textLength="157" x="1082.5" y="412.6714">setEditJspPage(String): void</text><ellipse cx="1073.5" cy="422.2656" fill="#84BE84" rx="3" ry="3" style="stroke:#038048;stroke-width:1.0;"/><text fill="#000000" font-family="sans-serif" font-size="11" lengthAdjust="spacing" textLength="273" x="1082.5" y="425.4761">isNotIgnorableWikiMarkupLink(Element): boolean</text><ellipse cx="1073.5" cy="435.0703" fill="#84BE84" rx="3" ry="3" style="stroke:#038048;stroke-width:1.0;"/><text fill="#000000" font-family="sans-serif" font-size="11" lengthAdjust="spacing" textLength="129" x="1082.5" y="438.2808">trimLink(String): String</text></a><!--MD5=[83a7751a55bb9ec62a4d9eabb77fd392]
class org.apache.wiki.htmltowiki.SyntaxDecorator--><a href="SyntaxDecorator.html" target="_top" title="SyntaxDecorator.html" xlink:actuate="onRequest" xlink:href="SyntaxDecorator.html" xlink:show="new" xlink:title="SyntaxDecorator.html" xlink:type="simple"><rect codeLine="62" fill="#FEFECE" filter="url(#f5fve90im3x9i)" height="560.1875" id="org.apache.wiki.htmltowiki.SyntaxDecorator" style="stroke:#A80036;stroke-width:1.5;" width="766" x="508" y="505"/><ellipse cx="833.75" cy="521" fill="#B4A7E5" rx="11" ry="11" style="stroke:#A80036;stroke-width:1.0;"/><path d="M829.6719,516.7656 L829.6719,514.6094 L837.0625,514.6094 L837.0625,516.7656 L834.5938,516.7656 L834.5938,524.8438 L837.0625,524.8438 L837.0625,527 L829.6719,527 L829.6719,524.8438 L832.1406,524.8438 L832.1406,516.7656 L829.6719,516.7656 Z " fill="#000000"/><text fill="#000000" font-family="sans-serif" font-size="12" font-style="italic" lengthAdjust="spacing" textLength="106" x="854.25" y="525.1543">SyntaxDecorator</text><line style="stroke:#A80036;stroke-width:1.5;" x1="509" x2="1273" y1="537" y2="537"/><line style="stroke:#A80036;stroke-width:1.5;" x1="509" x2="1273" y1="545" y2="545"/><ellipse cx="519" cy="556" fill="#84BE84" rx="3" ry="3" style="stroke:#038048;stroke-width:1.0;"/><text fill="#000000" font-family="sans-serif" font-size="11" font-style="italic" lengthAdjust="spacing" textLength="740" x="528" y="559.2104">init(PrintWriter, Deque&lt;String&gt;, Deque&lt;String&gt;, WhitespaceTrimWriter, XHtmlToWikiConfig, XHtmlElementToWikiTranslator): void</text><ellipse cx="519" cy="568.8047" fill="#84BE84" rx="3" ry="3" style="stroke:#038048;stroke-width:1.0;"/><text fill="#000000" font-family="sans-serif" font-size="11" font-style="italic" lengthAdjust="spacing" textLength="134" x="528" y="572.0151">a(Element, String): void</text><ellipse cx="519" cy="581.6094" fill="#84BE84" rx="3" ry="3" style="stroke:#038048;stroke-width:1.0;"/><text fill="#000000" font-family="sans-serif" font-size="11" font-style="italic" lengthAdjust="spacing" textLength="170" x="528" y="584.8198">aFootnote(String, String): void</text><ellipse cx="519" cy="594.4141" fill="#84BE84" rx="3" ry="3" style="stroke:#038048;stroke-width:1.0;"/><text fill="#000000" font-family="sans-serif" font-size="11" font-style="italic" lengthAdjust="spacing" textLength="150" x="528" y="597.6245">aUndefined(Element): void</text><ellipse cx="519" cy="607.2188" fill="#84BE84" rx="3" ry="3" style="stroke:#038048;stroke-width:1.0;"/><text fill="#000000" font-family="sans-serif" font-size="11" font-style="italic" lengthAdjust="spacing" textLength="152" x="528" y="610.4292">br(Element, Element): void</text><ellipse cx="519" cy="620.0234" fill="#84BE84" rx="3" ry="3" style="stroke:#038048;stroke-width:1.0;"/><text fill="#000000" font-family="sans-serif" font-size="11" font-style="italic" lengthAdjust="spacing" textLength="113" x="528" y="623.2339">code(Element): void</text><ellipse cx="519" cy="632.8281" fill="#84BE84" rx="3" ry="3" style="stroke:#038048;stroke-width:1.0;"/><text fill="#000000" font-family="sans-serif" font-size="11" font-style="italic" lengthAdjust="spacing" textLength="100" x="528" y="636.0386">dd(Element): void</text><ellipse cx="519" cy="645.6328" fill="#84BE84" rx="3" ry="3" style="stroke:#038048;stroke-width:1.0;"/><text fill="#000000" font-family="sans-serif" font-size="11" font-style="italic" lengthAdjust="spacing" textLength="96" x="528" y="648.8433">dl(Element): void</text><ellipse cx="519" cy="658.4375" fill="#84BE84" rx="3" ry="3" style="stroke:#038048;stroke-width:1.0;"/><text fill="#000000" font-family="sans-serif" font-size="11" font-style="italic" lengthAdjust="spacing" textLength="97" x="528" y="661.6479">dt(Element): void</text><ellipse cx="519" cy="671.2422" fill="#84BE84" rx="3" ry="3" style="stroke:#038048;stroke-width:1.0;"/><text fill="#000000" font-family="sans-serif" font-size="11" font-style="italic" lengthAdjust="spacing" textLength="104" x="528" y="674.4526">em(Element): void</text><ellipse cx="519" cy="684.0469" fill="#84BE84" rx="3" ry="3" style="stroke:#038048;stroke-width:1.0;"/><text fill="#000000" font-family="sans-serif" font-size="11" font-style="italic" lengthAdjust="spacing" textLength="113" x="528" y="687.2573">form(Element): void</text><ellipse cx="519" cy="696.8516" fill="#84BE84" rx="3" ry="3" style="stroke:#038048;stroke-width:1.0;"/><text fill="#000000" font-family="sans-serif" font-size="11" font-style="italic" lengthAdjust="spacing" textLength="98" x="528" y="700.062">hr(Element): void</text><ellipse cx="519" cy="709.6563" fill="#84BE84" rx="3" ry="3" style="stroke:#038048;stroke-width:1.0;"/><text fill="#000000" font-family="sans-serif" font-size="11" font-style="italic" lengthAdjust="spacing" textLength="100" x="528" y="712.8667">h1(Element): void</text><ellipse cx="519" cy="722.4609" fill="#84BE84" rx="3" ry="3" style="stroke:#038048;stroke-width:1.0;"/><text fill="#000000" font-family="sans-serif" font-size="11" font-style="italic" lengthAdjust="spacing" textLength="100" x="528" y="725.6714">h2(Element): void</text><ellipse cx="519" cy="735.2656" fill="#84BE84" rx="3" ry="3" style="stroke:#038048;stroke-width:1.0;"/><text fill="#000000" font-family="sans-serif" font-size="11" font-style="italic" lengthAdjust="spacing" textLength="100" x="528" y="738.4761">h3(Element): void</text><ellipse cx="519" cy="748.0703" fill="#84BE84" rx="3" ry="3" style="stroke:#038048;stroke-width:1.0;"/><text fill="#000000" font-family="sans-serif" font-size="11" font-style="italic" lengthAdjust="spacing" textLength="100" x="528" y="751.2808">h4(Element): void</text><ellipse cx="519" cy="760.875" fill="#84BE84" rx="3" ry="3" style="stroke:#038048;stroke-width:1.0;"/><text fill="#000000" font-family="sans-serif" font-size="11" font-style="italic" lengthAdjust="spacing" textLength="234" x="528" y="764.0854">image(String, Map&lt;String, Object&gt;): void</text><ellipse cx="519" cy="773.6797" fill="#84BE84" rx="3" ry="3" style="stroke:#038048;stroke-width:1.0;"/><text fill="#000000" font-family="sans-serif" font-size="11" font-style="italic" lengthAdjust="spacing" textLength="107" x="528" y="776.8901">img(Element): void</text><ellipse cx="519" cy="786.4844" fill="#84BE84" rx="3" ry="3" style="stroke:#038048;stroke-width:1.0;"/><text fill="#000000" font-family="sans-serif" font-size="11" font-style="italic" lengthAdjust="spacing" textLength="114" x="528" y="789.6948">input(Element): void</text><ellipse cx="519" cy="799.2891" fill="#84BE84" rx="3" ry="3" style="stroke:#038048;stroke-width:1.0;"/><text fill="#000000" font-family="sans-serif" font-size="11" font-style="italic" lengthAdjust="spacing" textLength="146" x="528" y="802.4995">li(Element, Element): void</text><ellipse cx="519" cy="812.0938" fill="#84BE84" rx="3" ry="3" style="stroke:#038048;stroke-width:1.0;"/><text fill="#000000" font-family="sans-serif" font-size="11" font-style="italic" lengthAdjust="spacing" textLength="96" x="528" y="815.3042">ol(Element): void</text><ellipse cx="519" cy="824.8984" fill="#84BE84" rx="3" ry="3" style="stroke:#038048;stroke-width:1.0;"/><text fill="#000000" font-family="sans-serif" font-size="11" font-style="italic" lengthAdjust="spacing" textLength="175" x="528" y="828.1089">option(Element, Element): void</text><ellipse cx="519" cy="837.7031" fill="#84BE84" rx="3" ry="3" style="stroke:#038048;stroke-width:1.0;"/><text fill="#000000" font-family="sans-serif" font-size="11" font-style="italic" lengthAdjust="spacing" textLength="93" x="528" y="840.9136">p(Element): void</text><ellipse cx="519" cy="850.5078" fill="#84BE84" rx="3" ry="3" style="stroke:#038048;stroke-width:1.0;"/><text fill="#000000" font-family="sans-serif" font-size="11" font-style="italic" lengthAdjust="spacing" textLength="227" x="528" y="853.7183">paragraph(ElementDecoratorData): void</text><ellipse cx="519" cy="863.3125" fill="#84BE84" rx="3" ry="3" style="stroke:#038048;stroke-width:1.0;"/><text fill="#000000" font-family="sans-serif" font-size="11" font-style="italic" lengthAdjust="spacing" textLength="105" x="528" y="866.5229">pre(Element): void</text><ellipse cx="519" cy="876.1172" fill="#84BE84" rx="3" ry="3" style="stroke:#038048;stroke-width:1.0;"/><text fill="#000000" font-family="sans-serif" font-size="11" font-style="italic" lengthAdjust="spacing" textLength="122" x="528" y="879.3276">strong(Element): void</text><ellipse cx="519" cy="888.9219" fill="#84BE84" rx="3" ry="3" style="stroke:#038048;stroke-width:1.0;"/><text fill="#000000" font-family="sans-serif" font-size="11" font-style="italic" lengthAdjust="spacing" textLength="114" x="528" y="892.1323">table(Element): void</text><ellipse cx="519" cy="901.7266" fill="#84BE84" rx="3" ry="3" style="stroke:#038048;stroke-width:1.0;"/><text fill="#000000" font-family="sans-serif" font-size="11" font-style="italic" lengthAdjust="spacing" textLength="118" x="528" y="904.937">tbody(Element): void</text><ellipse cx="519" cy="914.5313" fill="#84BE84" rx="3" ry="3" style="stroke:#038048;stroke-width:1.0;"/><text fill="#000000" font-family="sans-serif" font-size="11" font-style="italic" lengthAdjust="spacing" textLength="97" x="528" y="917.7417">td(Element): void</text><ellipse cx="519" cy="927.3359" fill="#84BE84" rx="3" ry="3" style="stroke:#038048;stroke-width:1.0;"/><text fill="#000000" font-family="sans-serif" font-size="11" font-style="italic" lengthAdjust="spacing" textLength="87" x="528" y="930.5464">text(Text): void</text><ellipse cx="519" cy="940.1406" fill="#84BE84" rx="3" ry="3" style="stroke:#038048;stroke-width:1.0;"/><text fill="#000000" font-family="sans-serif" font-size="11" font-style="italic" lengthAdjust="spacing" textLength="134" x="528" y="943.3511">textarea(Element): void</text><ellipse cx="519" cy="952.9453" fill="#84BE84" rx="3" ry="3" style="stroke:#038048;stroke-width:1.0;"/><text fill="#000000" font-family="sans-serif" font-size="11" font-style="italic" lengthAdjust="spacing" textLength="97" x="528" y="956.1558">th(Element): void</text><ellipse cx="519" cy="965.75" fill="#84BE84" rx="3" ry="3" style="stroke:#038048;stroke-width:1.0;"/><text fill="#000000" font-family="sans-serif" font-size="11" font-style="italic" lengthAdjust="spacing" textLength="118" x="528" y="968.9604">thead(Element): void</text><ellipse cx="519" cy="978.5547" fill="#84BE84" rx="3" ry="3" style="stroke:#038048;stroke-width:1.0;"/><text fill="#000000" font-family="sans-serif" font-size="11" font-style="italic" lengthAdjust="spacing" textLength="95" x="528" y="981.7651">tr(Element): void</text><ellipse cx="519" cy="991.3594" fill="#84BE84" rx="3" ry="3" style="stroke:#038048;stroke-width:1.0;"/><text fill="#000000" font-family="sans-serif" font-size="11" font-style="italic" lengthAdjust="spacing" textLength="119" x="528" y="994.5698">select(Element): void</text><ellipse cx="519" cy="1004.1641" fill="#84BE84" rx="3" ry="3" style="stroke:#038048;stroke-width:1.0;"/><text fill="#000000" font-family="sans-serif" font-size="11" font-style="italic" lengthAdjust="spacing" textLength="117" x="528" y="1007.3745">strike(Element): void</text><ellipse cx="519" cy="1016.9688" fill="#84BE84" rx="3" ry="3" style="stroke:#038048;stroke-width:1.0;"/><text fill="#000000" font-family="sans-serif" font-size="11" font-style="italic" lengthAdjust="spacing" textLength="106" x="528" y="1020.1792">sub(Element): void</text><ellipse cx="519" cy="1029.7734" fill="#84BE84" rx="3" ry="3" style="stroke:#038048;stroke-width:1.0;"/><text fill="#000000" font-family="sans-serif" font-size="11" font-style="italic" lengthAdjust="spacing" textLength="106" x="528" y="1032.9839">sup(Element): void</text><ellipse cx="519" cy="1042.5781" fill="#84BE84" rx="3" ry="3" style="stroke:#038048;stroke-width:1.0;"/><text fill="#000000" font-family="sans-serif" font-size="11" font-style="italic" lengthAdjust="spacing" textLength="96" x="528" y="1045.7886">ul(Element): void</text><ellipse cx="519" cy="1055.3828" fill="#84BE84" rx="3" ry="3" style="stroke:#038048;stroke-width:1.0;"/><text fill="#000000" font-family="sans-serif" font-size="11" font-style="italic" lengthAdjust="spacing" textLength="139" x="528" y="1058.5933">underline(Element): void</text></a><!--MD5=[048c3133f4c34f5b25aafff9853428d6]
class java.io.Writer--><rect codeLine="110" fill="#FEFECE" filter="url(#f5fve90im3x9i)" height="99.2188" id="java.io.Writer" style="stroke:#A80036;stroke-width:1.5;" width="171" x="509.5" y="33"/><ellipse cx="571.75" cy="49" fill="#A9DCDF" rx="11" ry="11" style="stroke:#A80036;stroke-width:1.0;"/><path d="M571.8594,44.3438 L570.7031,49.4219 L573.0313,49.4219 L571.8594,44.3438 Z M570.375,42.1094 L573.3594,42.1094 L576.7188,54.5 L574.2656,54.5 L573.5,51.4375 L570.2188,51.4375 L569.4688,54.5 L567.0313,54.5 L570.375,42.1094 Z " fill="#000000"/><text fill="#000000" font-family="sans-serif" font-size="12" font-style="italic" lengthAdjust="spacing" textLength="38" x="592.25" y="53.1543">Writer</text><line style="stroke:#A80036;stroke-width:1.5;" x1="510.5" x2="679.5" y1="65" y2="65"/><polygon fill="none" points="520.5,71,524.5,75,520.5,79,516.5,75" style="stroke:#B38D22;stroke-width:1.0;"/><text fill="#000000" font-family="sans-serif" font-size="11" lengthAdjust="spacing" textLength="66" x="529.5" y="79.2104">lock: Object</text><line style="stroke:#A80036;stroke-width:1.5;" x1="510.5" x2="679.5" y1="85.8047" y2="85.8047"/><ellipse cx="520.5" cy="96.8047" fill="#84BE84" rx="3" ry="3" style="stroke:#038048;stroke-width:1.0;"/><text fill="#000000" font-family="sans-serif" font-size="11" font-style="italic" lengthAdjust="spacing" textLength="145" x="529.5" y="100.0151">write(char[], int, int): void</text><ellipse cx="520.5" cy="109.6094" fill="#84BE84" rx="3" ry="3" style="stroke:#038048;stroke-width:1.0;"/><text fill="#000000" font-family="sans-serif" font-size="11" font-style="italic" lengthAdjust="spacing" textLength="67" x="529.5" y="112.8198">flush(): void</text><ellipse cx="520.5" cy="122.4141" fill="#84BE84" rx="3" ry="3" style="stroke:#038048;stroke-width:1.0;"/><text fill="#000000" font-family="sans-serif" font-size="11" font-style="italic" lengthAdjust="spacing" textLength="69" x="529.5" y="125.6245">close(): void</text><!--MD5=[606416bd2c81f50ca67eab872be04471]
reverse link java.io.Writer to org.apache.wiki.htmltowiki.WhitespaceTrimWriter--><path codeLine="105" d="M595,152.4371 C595,182.9591 595,218.6556 595,249.1147 " fill="none" id="java.io.Writer-backto-org.apache.wiki.htmltowiki.WhitespaceTrimWriter" style="stroke:#A80036;stroke-width:1.0;"/><polygon fill="none" points="588.0001,152.2612,595,132.2612,602.0001,152.2611,588.0001,152.2612" style="stroke:#A80036;stroke-width:1.0;"/><!--MD5=[52d57de5793f49c3c1bcfaa300453f3a]
reverse link org.apache.wiki.htmltowiki.XHtmlElementToWikiTranslator to org.apache.wiki.htmltowiki.XHtmlElementToWikiTranslator.ElementDecoratorData--><path codeLine="106" d="M230,408.7305 C230,496.3626 230,627.8588 230,709.9367 " fill="none" id="org.apache.wiki.htmltowiki.XHtmlElementToWikiTranslator-backto-org.apache.wiki.htmltowiki.XHtmlElementToWikiTranslator.ElementDecoratorData" style="stroke:#A80036;stroke-width:1.0;"/><ellipse cx="230.0001" cy="401.7104" fill="#FFFFFF" rx="8" ry="8" style="stroke:#A80036;stroke-width:1.0;"/><line style="stroke:#A80036;stroke-width:1.0;" x1="230.0002" x2="230" y1="409.7104" y2="393.7104"/><line style="stroke:#A80036;stroke-width:1.0;" x1="222.0001" x2="238.0001" y1="401.7105" y2="401.7103"/><!--MD5=[b562d9984167fd143b630955af23102c]
link org.apache.wiki.htmltowiki.HtmlStringToWikiTranslator to org.apache.wiki.htmltowiki.XHtmlToWikiConfig--><!--MD5=[e49389192d7146d021cf0b4215d8fcd3]
link org.apache.wiki.htmltowiki.HtmlStringToWikiTranslator to org.apache.wiki.htmltowiki.SyntaxDecorator--><text fill="#888888" font-family="sans-serif" font-size="10" lengthAdjust="spacing" textLength="192" x="591" y="1088.2822">UMLDoclet 2.0.15, PlantUML 1.2021.13</text><!--MD5=[ff5a70a41b5fd9b025ba3c51068293b2]
@startuml
    namespace org.apache.wiki.htmltowiki {

        class WhitespaceTrimWriter [[WhitespaceTrimWriter.html]] {
            {static} +NO_TRIMMED_SPACE: String
            +flush(): void
            +isWhitespaceTrimMode(): boolean
            +setWhitespaceTrimMode(boolean): void
            +write(char[], int, int): void
            +close(): void
            +isCurrentlyOnLineBegin(): boolean
        }

        class HtmlStringToWikiTranslator [[HtmlStringToWikiTranslator.html]] {
            +HtmlStringToWikiTranslator(Engine)
            +translate(String): String
            +translate(String, Context): String
            +translate(String, XHtmlToWikiConfig): String
            {static} +element2String(Element): String
        }

        class XHtmlElementToWikiTranslator [[XHtmlElementToWikiTranslator.html]] {
            +XHtmlElementToWikiTranslator(Engine, Element)
            +XHtmlElementToWikiTranslator(Engine, Element, XHtmlToWikiConfig)
            +getWikiString(): String
            +translate(Content): void
            +translateText(Text): void
            +translateImage(Element): void
            +translateChildren(Element): void
            +translateParagraph(Element): void
        }

        class org.apache.wiki.htmltowiki.XHtmlElementToWikiTranslator.ElementDecoratorData [[XHtmlElementToWikiTranslator.ElementDecoratorData.html]] {
            +base: Element
            +htmlBase: String
            +cssClass: String
            +cssSpecial: String
            +monospace: boolean
            +bold: boolean
            +italic: boolean
            +ignoredCssClass: boolean
        }

        class XHtmlToWikiConfig [[XHtmlToWikiConfig.html]] {
            +XHtmlToWikiConfig()
            +XHtmlToWikiConfig(Context)
            +getAttachPage(): String
            +setAttachPage(String): void
            +getOutlink(): String
            +setOutlink(String): void
            +getPageInfoJsp(): String
            +setPageInfoJsp(String): void
            +getPageName(): String
            +setPageName(String): void
            +getWikiJspPage(): String
            +setWikiJspPage(String): void
            +getEditJspPage(): String
            +setEditJspPage(String): void
            +isNotIgnorableWikiMarkupLink(Element): boolean
            +trimLink(String): String
        }

        interface SyntaxDecorator [[SyntaxDecorator.html]] {
            {abstract} +init(PrintWriter, Deque<String>, Deque<String>, WhitespaceTrimWriter, XHtmlToWikiConfig, XHtmlElementToWikiTranslator): void
            {abstract} +a(Element, String): void
            {abstract} +aFootnote(String, String): void
            {abstract} +aUndefined(Element): void
            {abstract} +br(Element, Element): void
            {abstract} +code(Element): void
            {abstract} +dd(Element): void
            {abstract} +dl(Element): void
            {abstract} +dt(Element): void
            {abstract} +em(Element): void
            {abstract} +form(Element): void
            {abstract} +hr(Element): void
            {abstract} +h1(Element): void
            {abstract} +h2(Element): void
            {abstract} +h3(Element): void
            {abstract} +h4(Element): void
            {abstract} +image(String, Map<String, Object>): void
            {abstract} +img(Element): void
            {abstract} +input(Element): void
            {abstract} +li(Element, Element): void
            {abstract} +ol(Element): void
            {abstract} +option(Element, Element): void
            {abstract} +p(Element): void
            {abstract} +paragraph(ElementDecoratorData): void
            {abstract} +pre(Element): void
            {abstract} +strong(Element): void
            {abstract} +table(Element): void
            {abstract} +tbody(Element): void
            {abstract} +td(Element): void
            {abstract} +text(Text): void
            {abstract} +textarea(Element): void
            {abstract} +th(Element): void
            {abstract} +thead(Element): void
            {abstract} +tr(Element): void
            {abstract} +select(Element): void
            {abstract} +strike(Element): void
            {abstract} +sub(Element): void
            {abstract} +sup(Element): void
            {abstract} +ul(Element): void
            {abstract} +underline(Element): void
        }

        java.io.Writer <|- - WhitespaceTrimWriter
        XHtmlElementToWikiTranslator +- - org.apache.wiki.htmltowiki.XHtmlElementToWikiTranslator.ElementDecoratorData
    }

    namespace java.io {
        abstract class Writer {
            #lock: Object
            {abstract} +write(char[], int, int): void
            {abstract} +flush(): void
            {abstract} +close(): void
        }
    }

    center footer UMLDoclet 2.0.15, PlantUML 1.2021.13
@enduml

PlantUML version 1.2021.13(Mon Nov 01 11:38:45 UTC 2021)
(APACHE source distribution)
Java Runtime: OpenJDK Runtime Environment
JVM: OpenJDK 64-Bit Server VM
Default Encoding: ISO-8859-1
Language: en
Country: US
--></g></svg>