<?xml version="1.0" encoding="UTF-8" standalone="no"?><svg xmlns="http://www.w3.org/2000/svg" xmlns:xlink="http://www.w3.org/1999/xlink" contentScriptType="application/ecmascript" contentStyleType="text/css" height="172px" preserveAspectRatio="none" style="width:283px;height:172px;" version="1.1" viewBox="0 0 283 172" width="283px" zoomAndPan="magnify"><defs><filter height="300%" id="fzavrh2cyenl8" width="300%" x="-1" y="-1"><feGaussianBlur result="blurOut" stdDeviation="2.0"/><feColorMatrix in="blurOut" result="blurOut2" type="matrix" values="0 0 0 0 0 0 0 0 0 0 0 0 0 0 0 0 0 0 .4 0"/><feOffset dx="4.0" dy="4.0" in="blurOut2" result="blurOut3"/><feBlend in="SourceGraphic" in2="blurOut3" mode="normal"/></filter></defs><g><!--class CookieAssertionLoginModule--><a href="CookieAssertionLoginModule.html" target="_top" xlink:actuate="onRequest" xlink:show="new" xlink:title="CookieAssertionLoginModule.html" xlink:type="simple"><rect fill="#FEFECE" filter="url(#fzavrh2cyenl8)" height="131.0156" id="CookieAssertionLoginModule" style="stroke: #A80036; stroke-width: 1.5;" width="266" x="6" y="8"/><ellipse cx="53.75" cy="24" fill="#ADD1B2" rx="11" ry="11" style="stroke: #A80036; stroke-width: 1.0;"/><path d="M56.5156,19.875 Q56.6719,19.6563 56.8594,19.5469 Q57.0469,19.4375 57.2656,19.4375 Q57.6406,19.4375 57.875,19.6953 Q58.1094,19.9531 58.1094,20.5625 L58.1094,22.0156 Q58.1094,22.625 57.875,22.8906 Q57.6406,23.1563 57.2656,23.1563 Q56.9219,23.1563 56.7188,22.9531 Q56.5156,22.7656 56.4063,22.25 Q56.3594,21.8906 56.1719,21.7031 Q55.8438,21.3281 55.2344,21.1094 Q54.625,20.8906 54,20.8906 Q53.2344,20.8906 52.6016,21.2188 Q51.9688,21.5469 51.4766,22.2969 Q50.9844,23.0469 50.9844,24.0781 L50.9844,25.1719 Q50.9844,26.4063 51.875,27.2266 Q52.7656,28.0469 54.3594,28.0469 Q55.2969,28.0469 55.9531,27.7969 Q56.3438,27.6406 56.7656,27.2031 Q57.0313,26.9375 57.1797,26.8594 Q57.3281,26.7813 57.5313,26.7813 Q57.8594,26.7813 58.1172,27.0391 Q58.375,27.2969 58.375,27.6406 Q58.375,27.9844 58.0313,28.3906 Q57.5313,28.9688 56.7344,29.2969 Q55.6563,29.75 54.3594,29.75 Q52.8438,29.75 51.6406,29.125 Q50.6563,28.625 49.9688,27.5547 Q49.2813,26.4844 49.2813,25.2031 L49.2813,24.0469 Q49.2813,22.7188 49.8984,21.5703 Q50.5156,20.4219 51.6094,19.8047 Q52.7031,19.1875 53.9375,19.1875 Q54.6719,19.1875 55.3203,19.3516 Q55.9688,19.5156 56.5156,19.875 Z "/><text fill="#000000" font-family="sans-serif" font-size="12" lengthAdjust="spacingAndGlyphs" textLength="162" x="74.25" y="28.9102">CookieAssertionLoginModule</text><line style="stroke: #A80036; stroke-width: 1.5;" x1="7" x2="271" y1="40" y2="40"/><ellipse cx="17" cy="52.418" fill="none" rx="3" ry="3" style="stroke: #038048; stroke-width: 1.0;"/><text fill="#000000" font-family="sans-serif" font-size="11" lengthAdjust="spacingAndGlyphs" text-decoration="underline" textLength="145" x="26" y="55.4189">PREFS_COOKIE_NAME: String</text><polygon fill="none" points="17,61.2539,21,65.2539,17,69.2539,13,65.2539" style="stroke: #B38D22; stroke-width: 1.0;"/><text fill="#000000" font-family="sans-serif" font-size="11" lengthAdjust="spacingAndGlyphs" text-decoration="underline" textLength="54" x="26" y="69.2549">log: Logger</text><line style="stroke: #A80036; stroke-width: 1.5;" x1="7" x2="271" y1="75.6719" y2="75.6719"/><ellipse cx="17" cy="88.0898" fill="#84BE84" rx="3" ry="3" style="stroke: #038048; stroke-width: 1.0;"/><text fill="#000000" font-family="sans-serif" font-size="11" lengthAdjust="spacingAndGlyphs" textLength="74" x="26" y="91.0908">login(): boolean</text><ellipse cx="17" cy="101.9258" fill="#84BE84" rx="3" ry="3" style="stroke: #038048; stroke-width: 1.0;"/><text fill="#000000" font-family="sans-serif" font-size="11" lengthAdjust="spacingAndGlyphs" text-decoration="underline" textLength="205" x="26" y="104.9268">getUserCookie(HttpServletRequest): String</text><ellipse cx="17" cy="115.7617" fill="#84BE84" rx="3" ry="3" style="stroke: #038048; stroke-width: 1.0;"/><text fill="#000000" font-family="sans-serif" font-size="11" lengthAdjust="spacingAndGlyphs" text-decoration="underline" textLength="240" x="26" y="118.7627">setUserCookie(HttpServletResponse, String): void</text><ellipse cx="17" cy="129.5977" fill="#84BE84" rx="3" ry="3" style="stroke: #038048; stroke-width: 1.0;"/><text fill="#000000" font-family="sans-serif" font-size="11" lengthAdjust="spacingAndGlyphs" text-decoration="underline" textLength="215" x="26" y="132.5986">clearUserCookie(HttpServletResponse): void</text></a><text fill="#888888" font-family="sans-serif" font-size="10" lengthAdjust="spacingAndGlyphs" textLength="184" x="53" y="159.3809">UMLDoclet 1.1.4, PlantUML 1.2019.05</text><!--
@startuml

    class CookieAssertionLoginModule [[CookieAssertionLoginModule.html]] {
        {static} +PREFS_COOKIE_NAME: String
        {static} #log: Logger
        +login(): boolean
        {static} +getUserCookie(HttpServletRequest): String
        {static} +setUserCookie(HttpServletResponse, String): void
        {static} +clearUserCookie(HttpServletResponse): void
    }


    center footer UMLDoclet 1.1.4, PlantUML 1.2019.05
@enduml

PlantUML version 1.2019.05(Sat Apr 20 18:45:36 CEST 2019)
(APACHE source distribution)
Java Runtime: OpenJDK Runtime Environment
JVM: OpenJDK 64-Bit Server VM
Java Version: 1.8.0_212-b03
Operating System: Windows 10
OS Version: 10.0
Default Encoding: Cp1252
Language: es
Country: ES
--></g></svg>