<?xml version="1.0" encoding="UTF-8" standalone="no"?><svg xmlns="http://www.w3.org/2000/svg" xmlns:xlink="http://www.w3.org/1999/xlink" contentScriptType="application/ecmascript" contentStyleType="text/css" height="805px" preserveAspectRatio="none" style="width:2397px;height:805px;" version="1.1" viewBox="0 0 2397 805" width="2397px" zoomAndPan="magnify"><defs><filter height="300%" id="fwuzs7mn1m31k" width="300%" x="-1" y="-1"><feGaussianBlur result="blurOut" stdDeviation="2.0"/><feColorMatrix in="blurOut" result="blurOut2" type="matrix" values="0 0 0 0 0 0 0 0 0 0 0 0 0 0 0 0 0 0 .4 0"/><feOffset dx="4.0" dy="4.0" in="blurOut2" result="blurOut3"/><feBlend in="SourceGraphic" in2="blurOut3" mode="normal"/></filter></defs><g><!--cluster org.apache.wiki.auth.login--><polygon fill="#FFFFFF" filter="url(#fwuzs7mn1m31k)" points="14,217,204,217,211,240.6094,2237,240.6094,2237,764,14,764,14,217" style="stroke: #000000; stroke-width: 1.5;"/><line style="stroke: #000000; stroke-width: 1.5;" x1="14" x2="211" y1="240.6094" y2="240.6094"/><text fill="#000000" font-family="sans-serif" font-size="14" font-weight="bold" lengthAdjust="spacingAndGlyphs" textLength="184" x="18" y="233.5332">org.apache.wiki.auth.login</text><!--cluster javax.security.auth.callback--><polygon fill="#FFFFFF" filter="url(#fwuzs7mn1m31k)" points="517,43.5,716,43.5,723,67.1094,794,67.1094,794,141.5,517,141.5,517,43.5" style="stroke: #000000; stroke-width: 1.5;"/><line style="stroke: #000000; stroke-width: 1.5;" x1="517" x2="723" y1="67.1094" y2="67.1094"/><text fill="#000000" font-family="sans-serif" font-size="14" font-weight="bold" lengthAdjust="spacingAndGlyphs" textLength="193" x="521" y="60.0332">javax.security.auth.callback</text><!--cluster java.security--><polygon fill="#FFFFFF" filter="url(#fwuzs7mn1m31k)" points="2245,474,2340,474,2347,497.6094,2375,497.6094,2375,572,2245,572,2245,474" style="stroke: #000000; stroke-width: 1.5;"/><line style="stroke: #000000; stroke-width: 1.5;" x1="2245" x2="2347" y1="497.6094" y2="497.6094"/><text fill="#000000" font-family="sans-serif" font-size="14" font-weight="bold" lengthAdjust="spacingAndGlyphs" textLength="89" x="2249" y="490.5332">java.security</text><!--cluster javax.security.auth.spi--><polygon fill="#FFFFFF" filter="url(#fwuzs7mn1m31k)" points="813,16,976,16,983,39.6094,1219,39.6094,1219,169,813,169,813,16" style="stroke: #000000; stroke-width: 1.5;"/><line style="stroke: #000000; stroke-width: 1.5;" x1="813" x2="983" y1="39.6094" y2="39.6094"/><text fill="#000000" font-family="sans-serif" font-size="14" font-weight="bold" lengthAdjust="spacingAndGlyphs" textLength="157" x="817" y="32.5332">javax.security.auth.spi</text><!--class org.apache.wiki.auth.login.WikiEngineCallback--><a href="WikiEngineCallback.html" target="_top" xlink:actuate="onRequest" xlink:show="new" xlink:title="WikiEngineCallback.html" xlink:type="simple"><rect fill="#FEFECE" filter="url(#fwuzs7mn1m31k)" height="75.6719" id="org.apache.wiki.auth.login.WikiEngineCallback" style="stroke: #A80036; stroke-width: 1.5;" width="158" x="265" y="293.5"/><ellipse cx="287.2" cy="309.5" fill="#ADD1B2" rx="11" ry="11" style="stroke: #A80036; stroke-width: 1.0;"/><path d="M289.9656,305.375 Q290.1219,305.1563 290.3094,305.0469 Q290.4969,304.9375 290.7156,304.9375 Q291.0906,304.9375 291.325,305.1953 Q291.5594,305.4531 291.5594,306.0625 L291.5594,307.5156 Q291.5594,308.125 291.325,308.3906 Q291.0906,308.6563 290.7156,308.6563 Q290.3719,308.6563 290.1688,308.4531 Q289.9656,308.2656 289.8563,307.75 Q289.8094,307.3906 289.6219,307.2031 Q289.2938,306.8281 288.6844,306.6094 Q288.075,306.3906 287.45,306.3906 Q286.6844,306.3906 286.0516,306.7188 Q285.4188,307.0469 284.9266,307.7969 Q284.4344,308.5469 284.4344,309.5781 L284.4344,310.6719 Q284.4344,311.9063 285.325,312.7266 Q286.2156,313.5469 287.8094,313.5469 Q288.7469,313.5469 289.4031,313.2969 Q289.7938,313.1406 290.2156,312.7031 Q290.4813,312.4375 290.6297,312.3594 Q290.7781,312.2813 290.9813,312.2813 Q291.3094,312.2813 291.5672,312.5391 Q291.825,312.7969 291.825,313.1406 Q291.825,313.4844 291.4813,313.8906 Q290.9813,314.4688 290.1844,314.7969 Q289.1063,315.25 287.8094,315.25 Q286.2938,315.25 285.0906,314.625 Q284.1063,314.125 283.4188,313.0547 Q282.7313,311.9844 282.7313,310.7031 L282.7313,309.5469 Q282.7313,308.2188 283.3484,307.0703 Q283.9656,305.9219 285.0594,305.3047 Q286.1531,304.6875 287.3875,304.6875 Q288.1219,304.6875 288.7703,304.8516 Q289.4188,305.0156 289.9656,305.375 Z "/><text fill="#000000" font-family="sans-serif" font-size="12" lengthAdjust="spacingAndGlyphs" textLength="110" x="302.8" y="314.4102">WikiEngineCallback</text><line style="stroke: #A80036; stroke-width: 1.5;" x1="266" x2="422" y1="325.5" y2="325.5"/><line style="stroke: #A80036; stroke-width: 1.5;" x1="266" x2="422" y1="333.5" y2="333.5"/><ellipse cx="276" cy="345.918" fill="#84BE84" rx="3" ry="3" style="stroke: #038048; stroke-width: 1.0;"/><text fill="#000000" font-family="sans-serif" font-size="11" lengthAdjust="spacingAndGlyphs" textLength="132" x="285" y="348.9189">setEngine(WikiEngine): void</text><ellipse cx="276" cy="359.7539" fill="#84BE84" rx="3" ry="3" style="stroke: #038048; stroke-width: 1.0;"/><text fill="#000000" font-family="sans-serif" font-size="11" lengthAdjust="spacingAndGlyphs" textLength="112" x="285" y="362.7549">getEngine(): WikiEngine</text></a><!--class org.apache.wiki.auth.login.WikiCallbackHandler--><a href="WikiCallbackHandler.html" target="_top" xlink:actuate="onRequest" xlink:show="new" xlink:title="WikiCallbackHandler.html" xlink:type="simple"><rect fill="#FEFECE" filter="url(#fwuzs7mn1m31k)" height="75.6719" id="org.apache.wiki.auth.login.WikiCallbackHandler" style="stroke: #A80036; stroke-width: 1.5;" width="348" x="1517" y="293.5"/><ellipse cx="1629.25" cy="309.5" fill="#ADD1B2" rx="11" ry="11" style="stroke: #A80036; stroke-width: 1.0;"/><path d="M1632.0156,305.375 Q1632.1719,305.1563 1632.3594,305.0469 Q1632.5469,304.9375 1632.7656,304.9375 Q1633.1406,304.9375 1633.375,305.1953 Q1633.6094,305.4531 1633.6094,306.0625 L1633.6094,307.5156 Q1633.6094,308.125 1633.375,308.3906 Q1633.1406,308.6563 1632.7656,308.6563 Q1632.4219,308.6563 1632.2188,308.4531 Q1632.0156,308.2656 1631.9063,307.75 Q1631.8594,307.3906 1631.6719,307.2031 Q1631.3438,306.8281 1630.7344,306.6094 Q1630.125,306.3906 1629.5,306.3906 Q1628.7344,306.3906 1628.1016,306.7188 Q1627.4688,307.0469 1626.9766,307.7969 Q1626.4844,308.5469 1626.4844,309.5781 L1626.4844,310.6719 Q1626.4844,311.9063 1627.375,312.7266 Q1628.2656,313.5469 1629.8594,313.5469 Q1630.7969,313.5469 1631.4531,313.2969 Q1631.8438,313.1406 1632.2656,312.7031 Q1632.5313,312.4375 1632.6797,312.3594 Q1632.8281,312.2813 1633.0313,312.2813 Q1633.3594,312.2813 1633.6172,312.5391 Q1633.875,312.7969 1633.875,313.1406 Q1633.875,313.4844 1633.5313,313.8906 Q1633.0313,314.4688 1632.2344,314.7969 Q1631.1563,315.25 1629.8594,315.25 Q1628.3438,315.25 1627.1406,314.625 Q1626.1563,314.125 1625.4688,313.0547 Q1624.7813,311.9844 1624.7813,310.7031 L1624.7813,309.5469 Q1624.7813,308.2188 1625.3984,307.0703 Q1626.0156,305.9219 1627.1094,305.3047 Q1628.2031,304.6875 1629.4375,304.6875 Q1630.1719,304.6875 1630.8203,304.8516 Q1631.4688,305.0156 1632.0156,305.375 Z "/><text fill="#000000" font-family="sans-serif" font-size="12" lengthAdjust="spacingAndGlyphs" textLength="115" x="1649.75" y="314.4102">WikiCallbackHandler</text><line style="stroke: #A80036; stroke-width: 1.5;" x1="1518" x2="1864" y1="325.5" y2="325.5"/><line style="stroke: #A80036; stroke-width: 1.5;" x1="1518" x2="1864" y1="333.5" y2="333.5"/><ellipse cx="1528" cy="345.918" fill="#84BE84" rx="3" ry="3" style="stroke: #038048; stroke-width: 1.0;"/><text fill="#000000" font-family="sans-serif" font-size="11" lengthAdjust="spacingAndGlyphs" textLength="322" x="1537" y="348.9189">WikiCallbackHandler(WikiEngine, HttpServletRequest, String, String)</text><ellipse cx="1528" cy="359.7539" fill="#84BE84" rx="3" ry="3" style="stroke: #038048; stroke-width: 1.0;"/><text fill="#000000" font-family="sans-serif" font-size="11" lengthAdjust="spacingAndGlyphs" textLength="112" x="1537" y="362.7549">handle(Callback[]): void</text></a><!--class org.apache.wiki.auth.login.WebContainerLoginModule--><a href="WebContainerLoginModule.html" target="_top" xlink:actuate="onRequest" xlink:show="new" xlink:title="WebContainerLoginModule.html" xlink:type="simple"><rect fill="#FEFECE" filter="url(#fwuzs7mn1m31k)" height="75.6719" id="org.apache.wiki.auth.login.WebContainerLoginModule" style="stroke: #A80036; stroke-width: 1.5;" width="182" x="583" y="652.5"/><ellipse cx="598" cy="668.5" fill="#ADD1B2" rx="11" ry="11" style="stroke: #A80036; stroke-width: 1.0;"/><path d="M600.7656,664.375 Q600.9219,664.1563 601.1094,664.0469 Q601.2969,663.9375 601.5156,663.9375 Q601.8906,663.9375 602.125,664.1953 Q602.3594,664.4531 602.3594,665.0625 L602.3594,666.5156 Q602.3594,667.125 602.125,667.3906 Q601.8906,667.6563 601.5156,667.6563 Q601.1719,667.6563 600.9688,667.4531 Q600.7656,667.2656 600.6563,666.75 Q600.6094,666.3906 600.4219,666.2031 Q600.0938,665.8281 599.4844,665.6094 Q598.875,665.3906 598.25,665.3906 Q597.4844,665.3906 596.8516,665.7188 Q596.2188,666.0469 595.7266,666.7969 Q595.2344,667.5469 595.2344,668.5781 L595.2344,669.6719 Q595.2344,670.9063 596.125,671.7266 Q597.0156,672.5469 598.6094,672.5469 Q599.5469,672.5469 600.2031,672.2969 Q600.5938,672.1406 601.0156,671.7031 Q601.2813,671.4375 601.4297,671.3594 Q601.5781,671.2813 601.7813,671.2813 Q602.1094,671.2813 602.3672,671.5391 Q602.625,671.7969 602.625,672.1406 Q602.625,672.4844 602.2813,672.8906 Q601.7813,673.4688 600.9844,673.7969 Q599.9063,674.25 598.6094,674.25 Q597.0938,674.25 595.8906,673.625 Q594.9063,673.125 594.2188,672.0547 Q593.5313,670.9844 593.5313,669.7031 L593.5313,668.5469 Q593.5313,667.2188 594.1484,666.0703 Q594.7656,664.9219 595.8594,664.3047 Q596.9531,663.6875 598.1875,663.6875 Q598.9219,663.6875 599.5703,663.8516 Q600.2188,664.0156 600.7656,664.375 Z "/><text fill="#000000" font-family="sans-serif" font-size="12" lengthAdjust="spacingAndGlyphs" textLength="150" x="612" y="673.4102">WebContainerLoginModule</text><line style="stroke: #A80036; stroke-width: 1.5;" x1="584" x2="764" y1="684.5" y2="684.5"/><polygon fill="none" points="594,691.918,598,695.918,594,699.918,590,695.918" style="stroke: #B38D22; stroke-width: 1.0;"/><text fill="#000000" font-family="sans-serif" font-size="11" lengthAdjust="spacingAndGlyphs" text-decoration="underline" textLength="54" x="603" y="699.9189">log: Logger</text><line style="stroke: #A80036; stroke-width: 1.5;" x1="584" x2="764" y1="706.3359" y2="706.3359"/><ellipse cx="594" cy="718.7539" fill="#84BE84" rx="3" ry="3" style="stroke: #038048; stroke-width: 1.0;"/><text fill="#000000" font-family="sans-serif" font-size="11" lengthAdjust="spacingAndGlyphs" textLength="74" x="603" y="721.7549">login(): boolean</text></a><!--class org.apache.wiki.auth.login.WebContainerCallbackHandler--><a href="WebContainerCallbackHandler.html" target="_top" xlink:actuate="onRequest" xlink:show="new" xlink:title="WebContainerCallbackHandler.html" xlink:type="simple"><rect fill="#FEFECE" filter="url(#fwuzs7mn1m31k)" height="75.6719" id="org.apache.wiki.auth.login.WebContainerCallbackHandler" style="stroke: #A80036; stroke-width: 1.5;" width="329" x="1900.5" y="293.5"/><ellipse cx="1975.25" cy="309.5" fill="#ADD1B2" rx="11" ry="11" style="stroke: #A80036; stroke-width: 1.0;"/><path d="M1978.0156,305.375 Q1978.1719,305.1563 1978.3594,305.0469 Q1978.5469,304.9375 1978.7656,304.9375 Q1979.1406,304.9375 1979.375,305.1953 Q1979.6094,305.4531 1979.6094,306.0625 L1979.6094,307.5156 Q1979.6094,308.125 1979.375,308.3906 Q1979.1406,308.6563 1978.7656,308.6563 Q1978.4219,308.6563 1978.2188,308.4531 Q1978.0156,308.2656 1977.9063,307.75 Q1977.8594,307.3906 1977.6719,307.2031 Q1977.3438,306.8281 1976.7344,306.6094 Q1976.125,306.3906 1975.5,306.3906 Q1974.7344,306.3906 1974.1016,306.7188 Q1973.4688,307.0469 1972.9766,307.7969 Q1972.4844,308.5469 1972.4844,309.5781 L1972.4844,310.6719 Q1972.4844,311.9063 1973.375,312.7266 Q1974.2656,313.5469 1975.8594,313.5469 Q1976.7969,313.5469 1977.4531,313.2969 Q1977.8438,313.1406 1978.2656,312.7031 Q1978.5313,312.4375 1978.6797,312.3594 Q1978.8281,312.2813 1979.0313,312.2813 Q1979.3594,312.2813 1979.6172,312.5391 Q1979.875,312.7969 1979.875,313.1406 Q1979.875,313.4844 1979.5313,313.8906 Q1979.0313,314.4688 1978.2344,314.7969 Q1977.1563,315.25 1975.8594,315.25 Q1974.3438,315.25 1973.1406,314.625 Q1972.1563,314.125 1971.4688,313.0547 Q1970.7813,311.9844 1970.7813,310.7031 L1970.7813,309.5469 Q1970.7813,308.2188 1971.3984,307.0703 Q1972.0156,305.9219 1973.1094,305.3047 Q1974.2031,304.6875 1975.4375,304.6875 Q1976.1719,304.6875 1976.8203,304.8516 Q1977.4688,305.0156 1978.0156,305.375 Z "/><text fill="#000000" font-family="sans-serif" font-size="12" lengthAdjust="spacingAndGlyphs" textLength="171" x="1995.75" y="314.4102">WebContainerCallbackHandler</text><line style="stroke: #A80036; stroke-width: 1.5;" x1="1901.5" x2="2228.5" y1="325.5" y2="325.5"/><line style="stroke: #A80036; stroke-width: 1.5;" x1="1901.5" x2="2228.5" y1="333.5" y2="333.5"/><ellipse cx="1911.5" cy="345.918" fill="#84BE84" rx="3" ry="3" style="stroke: #038048; stroke-width: 1.0;"/><text fill="#000000" font-family="sans-serif" font-size="11" lengthAdjust="spacingAndGlyphs" textLength="303" x="1920.5" y="348.9189">WebContainerCallbackHandler(WikiEngine, HttpServletRequest)</text><ellipse cx="1911.5" cy="359.7539" fill="#84BE84" rx="3" ry="3" style="stroke: #038048; stroke-width: 1.0;"/><text fill="#000000" font-family="sans-serif" font-size="11" lengthAdjust="spacingAndGlyphs" textLength="112" x="1920.5" y="362.7549">handle(Callback[]): void</text></a><!--class org.apache.wiki.auth.login.UserDatabaseLoginModule--><a href="UserDatabaseLoginModule.html" target="_top" xlink:actuate="onRequest" xlink:show="new" xlink:title="UserDatabaseLoginModule.html" xlink:type="simple"><rect fill="#FEFECE" filter="url(#fwuzs7mn1m31k)" height="61.8359" id="org.apache.wiki.auth.login.UserDatabaseLoginModule" style="stroke: #A80036; stroke-width: 1.5;" width="184" x="800" y="659.5"/><ellipse cx="815" cy="675.5" fill="#ADD1B2" rx="11" ry="11" style="stroke: #A80036; stroke-width: 1.0;"/><path d="M817.7656,671.375 Q817.9219,671.1563 818.1094,671.0469 Q818.2969,670.9375 818.5156,670.9375 Q818.8906,670.9375 819.125,671.1953 Q819.3594,671.4531 819.3594,672.0625 L819.3594,673.5156 Q819.3594,674.125 819.125,674.3906 Q818.8906,674.6563 818.5156,674.6563 Q818.1719,674.6563 817.9688,674.4531 Q817.7656,674.2656 817.6563,673.75 Q817.6094,673.3906 817.4219,673.2031 Q817.0938,672.8281 816.4844,672.6094 Q815.875,672.3906 815.25,672.3906 Q814.4844,672.3906 813.8516,672.7188 Q813.2188,673.0469 812.7266,673.7969 Q812.2344,674.5469 812.2344,675.5781 L812.2344,676.6719 Q812.2344,677.9063 813.125,678.7266 Q814.0156,679.5469 815.6094,679.5469 Q816.5469,679.5469 817.2031,679.2969 Q817.5938,679.1406 818.0156,678.7031 Q818.2813,678.4375 818.4297,678.3594 Q818.5781,678.2813 818.7813,678.2813 Q819.1094,678.2813 819.3672,678.5391 Q819.625,678.7969 819.625,679.1406 Q819.625,679.4844 819.2813,679.8906 Q818.7813,680.4688 817.9844,680.7969 Q816.9063,681.25 815.6094,681.25 Q814.0938,681.25 812.8906,680.625 Q811.9063,680.125 811.2188,679.0547 Q810.5313,677.9844 810.5313,676.7031 L810.5313,675.5469 Q810.5313,674.2188 811.1484,673.0703 Q811.7656,671.9219 812.8594,671.3047 Q813.9531,670.6875 815.1875,670.6875 Q815.9219,670.6875 816.5703,670.8516 Q817.2188,671.0156 817.7656,671.375 Z "/><text fill="#000000" font-family="sans-serif" font-size="12" lengthAdjust="spacingAndGlyphs" textLength="152" x="829" y="680.4102">UserDatabaseLoginModule</text><line style="stroke: #A80036; stroke-width: 1.5;" x1="801" x2="983" y1="691.5" y2="691.5"/><line style="stroke: #A80036; stroke-width: 1.5;" x1="801" x2="983" y1="699.5" y2="699.5"/><ellipse cx="811" cy="711.918" fill="#84BE84" rx="3" ry="3" style="stroke: #038048; stroke-width: 1.0;"/><text fill="#000000" font-family="sans-serif" font-size="11" lengthAdjust="spacingAndGlyphs" textLength="74" x="820" y="714.9189">login(): boolean</text></a><!--class org.apache.wiki.auth.login.UserDatabaseCallback--><a href="UserDatabaseCallback.html" target="_top" xlink:actuate="onRequest" xlink:show="new" xlink:title="UserDatabaseCallback.html" xlink:type="simple"><rect fill="#FEFECE" filter="url(#fwuzs7mn1m31k)" height="75.6719" id="org.apache.wiki.auth.login.UserDatabaseCallback" style="stroke: #A80036; stroke-width: 1.5;" width="213" x="457.5" y="293.5"/><ellipse cx="495.9" cy="309.5" fill="#ADD1B2" rx="11" ry="11" style="stroke: #A80036; stroke-width: 1.0;"/><path d="M498.6656,305.375 Q498.8219,305.1563 499.0094,305.0469 Q499.1969,304.9375 499.4156,304.9375 Q499.7906,304.9375 500.025,305.1953 Q500.2594,305.4531 500.2594,306.0625 L500.2594,307.5156 Q500.2594,308.125 500.025,308.3906 Q499.7906,308.6563 499.4156,308.6563 Q499.0719,308.6563 498.8688,308.4531 Q498.6656,308.2656 498.5563,307.75 Q498.5094,307.3906 498.3219,307.2031 Q497.9938,306.8281 497.3844,306.6094 Q496.775,306.3906 496.15,306.3906 Q495.3844,306.3906 494.7516,306.7188 Q494.1188,307.0469 493.6266,307.7969 Q493.1344,308.5469 493.1344,309.5781 L493.1344,310.6719 Q493.1344,311.9063 494.025,312.7266 Q494.9156,313.5469 496.5094,313.5469 Q497.4469,313.5469 498.1031,313.2969 Q498.4938,313.1406 498.9156,312.7031 Q499.1813,312.4375 499.3297,312.3594 Q499.4781,312.2813 499.6813,312.2813 Q500.0094,312.2813 500.2672,312.5391 Q500.525,312.7969 500.525,313.1406 Q500.525,313.4844 500.1813,313.8906 Q499.6813,314.4688 498.8844,314.7969 Q497.8063,315.25 496.5094,315.25 Q494.9938,315.25 493.7906,314.625 Q492.8063,314.125 492.1188,313.0547 Q491.4313,311.9844 491.4313,310.7031 L491.4313,309.5469 Q491.4313,308.2188 492.0484,307.0703 Q492.6656,305.9219 493.7594,305.3047 Q494.8531,304.6875 496.0875,304.6875 Q496.8219,304.6875 497.4703,304.8516 Q498.1188,305.0156 498.6656,305.375 Z "/><text fill="#000000" font-family="sans-serif" font-size="12" lengthAdjust="spacingAndGlyphs" textLength="129" x="515.1" y="314.4102">UserDatabaseCallback</text><line style="stroke: #A80036; stroke-width: 1.5;" x1="458.5" x2="669.5" y1="325.5" y2="325.5"/><line style="stroke: #A80036; stroke-width: 1.5;" x1="458.5" x2="669.5" y1="333.5" y2="333.5"/><ellipse cx="468.5" cy="345.918" fill="#84BE84" rx="3" ry="3" style="stroke: #038048; stroke-width: 1.0;"/><text fill="#000000" font-family="sans-serif" font-size="11" lengthAdjust="spacingAndGlyphs" textLength="167" x="477.5" y="348.9189">getUserDatabase(): UserDatabase</text><ellipse cx="468.5" cy="359.7539" fill="#84BE84" rx="3" ry="3" style="stroke: #038048; stroke-width: 1.0;"/><text fill="#000000" font-family="sans-serif" font-size="11" lengthAdjust="spacingAndGlyphs" textLength="187" x="477.5" y="362.7549">setUserDatabase(UserDatabase): void</text></a><!--class org.apache.wiki.auth.login.PrincipalWrapper--><a href="PrincipalWrapper.html" target="_top" xlink:actuate="onRequest" xlink:show="new" xlink:title="PrincipalWrapper.html" xlink:type="simple"><rect fill="#FEFECE" filter="url(#fwuzs7mn1m31k)" height="75.6719" id="org.apache.wiki.auth.login.PrincipalWrapper" style="stroke: #A80036; stroke-width: 1.5;" width="156" x="1113" y="293.5"/><ellipse cx="1141.05" cy="309.5" fill="#ADD1B2" rx="11" ry="11" style="stroke: #A80036; stroke-width: 1.0;"/><path d="M1143.8156,305.375 Q1143.9719,305.1563 1144.1594,305.0469 Q1144.3469,304.9375 1144.5656,304.9375 Q1144.9406,304.9375 1145.175,305.1953 Q1145.4094,305.4531 1145.4094,306.0625 L1145.4094,307.5156 Q1145.4094,308.125 1145.175,308.3906 Q1144.9406,308.6563 1144.5656,308.6563 Q1144.2219,308.6563 1144.0188,308.4531 Q1143.8156,308.2656 1143.7063,307.75 Q1143.6594,307.3906 1143.4719,307.2031 Q1143.1438,306.8281 1142.5344,306.6094 Q1141.925,306.3906 1141.3,306.3906 Q1140.5344,306.3906 1139.9016,306.7188 Q1139.2688,307.0469 1138.7766,307.7969 Q1138.2844,308.5469 1138.2844,309.5781 L1138.2844,310.6719 Q1138.2844,311.9063 1139.175,312.7266 Q1140.0656,313.5469 1141.6594,313.5469 Q1142.5969,313.5469 1143.2531,313.2969 Q1143.6438,313.1406 1144.0656,312.7031 Q1144.3313,312.4375 1144.4797,312.3594 Q1144.6281,312.2813 1144.8313,312.2813 Q1145.1594,312.2813 1145.4172,312.5391 Q1145.675,312.7969 1145.675,313.1406 Q1145.675,313.4844 1145.3313,313.8906 Q1144.8313,314.4688 1144.0344,314.7969 Q1142.9563,315.25 1141.6594,315.25 Q1140.1438,315.25 1138.9406,314.625 Q1137.9563,314.125 1137.2688,313.0547 Q1136.5813,311.9844 1136.5813,310.7031 L1136.5813,309.5469 Q1136.5813,308.2188 1137.1984,307.0703 Q1137.8156,305.9219 1138.9094,305.3047 Q1140.0031,304.6875 1141.2375,304.6875 Q1141.9719,304.6875 1142.6203,304.8516 Q1143.2688,305.0156 1143.8156,305.375 Z "/><text fill="#000000" font-family="sans-serif" font-size="12" lengthAdjust="spacingAndGlyphs" textLength="95" x="1157.95" y="314.4102">PrincipalWrapper</text><line style="stroke: #A80036; stroke-width: 1.5;" x1="1114" x2="1268" y1="325.5" y2="325.5"/><line style="stroke: #A80036; stroke-width: 1.5;" x1="1114" x2="1268" y1="333.5" y2="333.5"/><ellipse cx="1124" cy="345.918" fill="#84BE84" rx="3" ry="3" style="stroke: #038048; stroke-width: 1.0;"/><text fill="#000000" font-family="sans-serif" font-size="11" lengthAdjust="spacingAndGlyphs" textLength="130" x="1133" y="348.9189">PrincipalWrapper(Principal)</text><ellipse cx="1124" cy="359.7539" fill="#84BE84" rx="3" ry="3" style="stroke: #038048; stroke-width: 1.0;"/><text fill="#000000" font-family="sans-serif" font-size="11" lengthAdjust="spacingAndGlyphs" textLength="84" x="1133" y="362.7549">getName(): String</text></a><!--class org.apache.wiki.auth.login.HttpRequestCallback--><a href="HttpRequestCallback.html" target="_top" xlink:actuate="onRequest" xlink:show="new" xlink:title="HttpRequestCallback.html" xlink:type="simple"><rect fill="#FEFECE" filter="url(#fwuzs7mn1m31k)" height="75.6719" id="org.apache.wiki.auth.login.HttpRequestCallback" style="stroke: #A80036; stroke-width: 1.5;" width="208" x="22" y="293.5"/><ellipse cx="63.55" cy="309.5" fill="#ADD1B2" rx="11" ry="11" style="stroke: #A80036; stroke-width: 1.0;"/><path d="M66.3156,305.375 Q66.4719,305.1563 66.6594,305.0469 Q66.8469,304.9375 67.0656,304.9375 Q67.4406,304.9375 67.675,305.1953 Q67.9094,305.4531 67.9094,306.0625 L67.9094,307.5156 Q67.9094,308.125 67.675,308.3906 Q67.4406,308.6563 67.0656,308.6563 Q66.7219,308.6563 66.5188,308.4531 Q66.3156,308.2656 66.2063,307.75 Q66.1594,307.3906 65.9719,307.2031 Q65.6438,306.8281 65.0344,306.6094 Q64.425,306.3906 63.8,306.3906 Q63.0344,306.3906 62.4016,306.7188 Q61.7688,307.0469 61.2766,307.7969 Q60.7844,308.5469 60.7844,309.5781 L60.7844,310.6719 Q60.7844,311.9063 61.675,312.7266 Q62.5656,313.5469 64.1594,313.5469 Q65.0969,313.5469 65.7531,313.2969 Q66.1438,313.1406 66.5656,312.7031 Q66.8313,312.4375 66.9797,312.3594 Q67.1281,312.2813 67.3313,312.2813 Q67.6594,312.2813 67.9172,312.5391 Q68.175,312.7969 68.175,313.1406 Q68.175,313.4844 67.8313,313.8906 Q67.3313,314.4688 66.5344,314.7969 Q65.4563,315.25 64.1594,315.25 Q62.6438,315.25 61.4406,314.625 Q60.4563,314.125 59.7688,313.0547 Q59.0813,311.9844 59.0813,310.7031 L59.0813,309.5469 Q59.0813,308.2188 59.6984,307.0703 Q60.3156,305.9219 61.4094,305.3047 Q62.5031,304.6875 63.7375,304.6875 Q64.4719,304.6875 65.1203,304.8516 Q65.7688,305.0156 66.3156,305.375 Z "/><text fill="#000000" font-family="sans-serif" font-size="12" lengthAdjust="spacingAndGlyphs" textLength="117" x="83.45" y="314.4102">HttpRequestCallback</text><line style="stroke: #A80036; stroke-width: 1.5;" x1="23" x2="229" y1="325.5" y2="325.5"/><line style="stroke: #A80036; stroke-width: 1.5;" x1="23" x2="229" y1="333.5" y2="333.5"/><ellipse cx="33" cy="345.918" fill="#84BE84" rx="3" ry="3" style="stroke: #038048; stroke-width: 1.0;"/><text fill="#000000" font-family="sans-serif" font-size="11" lengthAdjust="spacingAndGlyphs" textLength="182" x="42" y="348.9189">setRequest(HttpServletRequest): void</text><ellipse cx="33" cy="359.7539" fill="#84BE84" rx="3" ry="3" style="stroke: #038048; stroke-width: 1.0;"/><text fill="#000000" font-family="sans-serif" font-size="11" lengthAdjust="spacingAndGlyphs" textLength="162" x="42" y="362.7549">getRequest(): HttpServletRequest</text></a><!--class org.apache.wiki.auth.login.CookieAuthenticationLoginModule--><a href="CookieAuthenticationLoginModule.html" target="_top" xlink:actuate="onRequest" xlink:show="new" xlink:title="CookieAuthenticationLoginModule.html" xlink:type="simple"><rect fill="#FEFECE" filter="url(#fwuzs7mn1m31k)" height="117.1797" id="org.apache.wiki.auth.login.CookieAuthenticationLoginModule" style="stroke: #A80036; stroke-width: 1.5;" width="400" x="1019" y="632"/><ellipse cx="1121.25" cy="648" fill="#ADD1B2" rx="11" ry="11" style="stroke: #A80036; stroke-width: 1.0;"/><path d="M1124.0156,643.875 Q1124.1719,643.6563 1124.3594,643.5469 Q1124.5469,643.4375 1124.7656,643.4375 Q1125.1406,643.4375 1125.375,643.6953 Q1125.6094,643.9531 1125.6094,644.5625 L1125.6094,646.0156 Q1125.6094,646.625 1125.375,646.8906 Q1125.1406,647.1563 1124.7656,647.1563 Q1124.4219,647.1563 1124.2188,646.9531 Q1124.0156,646.7656 1123.9063,646.25 Q1123.8594,645.8906 1123.6719,645.7031 Q1123.3438,645.3281 1122.7344,645.1094 Q1122.125,644.8906 1121.5,644.8906 Q1120.7344,644.8906 1120.1016,645.2188 Q1119.4688,645.5469 1118.9766,646.2969 Q1118.4844,647.0469 1118.4844,648.0781 L1118.4844,649.1719 Q1118.4844,650.4063 1119.375,651.2266 Q1120.2656,652.0469 1121.8594,652.0469 Q1122.7969,652.0469 1123.4531,651.7969 Q1123.8438,651.6406 1124.2656,651.2031 Q1124.5313,650.9375 1124.6797,650.8594 Q1124.8281,650.7813 1125.0313,650.7813 Q1125.3594,650.7813 1125.6172,651.0391 Q1125.875,651.2969 1125.875,651.6406 Q1125.875,651.9844 1125.5313,652.3906 Q1125.0313,652.9688 1124.2344,653.2969 Q1123.1563,653.75 1121.8594,653.75 Q1120.3438,653.75 1119.1406,653.125 Q1118.1563,652.625 1117.4688,651.5547 Q1116.7813,650.4844 1116.7813,649.2031 L1116.7813,648.0469 Q1116.7813,646.7188 1117.3984,645.5703 Q1118.0156,644.4219 1119.1094,643.8047 Q1120.2031,643.1875 1121.4375,643.1875 Q1122.1719,643.1875 1122.8203,643.3516 Q1123.4688,643.5156 1124.0156,643.875 Z "/><text fill="#000000" font-family="sans-serif" font-size="12" lengthAdjust="spacingAndGlyphs" textLength="187" x="1141.75" y="652.9102">CookieAuthenticationLoginModule</text><line style="stroke: #A80036; stroke-width: 1.5;" x1="1020" x2="1418" y1="664" y2="664"/><polygon fill="none" points="1030,671.418,1034,675.418,1030,679.418,1026,675.418" style="stroke: #B38D22; stroke-width: 1.0;"/><text fill="#000000" font-family="sans-serif" font-size="11" lengthAdjust="spacingAndGlyphs" text-decoration="underline" textLength="94" x="1039" y="679.4189">COOKIE_DIR: String</text><ellipse cx="1030" cy="690.2539" fill="none" rx="3" ry="3" style="stroke: #038048; stroke-width: 1.0;"/><text fill="#000000" font-family="sans-serif" font-size="11" lengthAdjust="spacingAndGlyphs" text-decoration="underline" textLength="176" x="1039" y="693.2549">PROP_LOGIN_EXPIRY_DAYS: String</text><line style="stroke: #A80036; stroke-width: 1.5;" x1="1020" x2="1418" y1="699.6719" y2="699.6719"/><ellipse cx="1030" cy="712.0898" fill="#84BE84" rx="3" ry="3" style="stroke: #038048; stroke-width: 1.0;"/><text fill="#000000" font-family="sans-serif" font-size="11" lengthAdjust="spacingAndGlyphs" textLength="74" x="1039" y="715.0908">login(): boolean</text><ellipse cx="1030" cy="725.9258" fill="#84BE84" rx="3" ry="3" style="stroke: #038048; stroke-width: 1.0;"/><text fill="#000000" font-family="sans-serif" font-size="11" lengthAdjust="spacingAndGlyphs" text-decoration="underline" textLength="300" x="1039" y="728.9268">setLoginCookie(WikiEngine, HttpServletResponse, String): void</text><ellipse cx="1030" cy="739.7617" fill="#84BE84" rx="3" ry="3" style="stroke: #038048; stroke-width: 1.0;"/><text fill="#000000" font-family="sans-serif" font-size="11" lengthAdjust="spacingAndGlyphs" text-decoration="underline" textLength="374" x="1039" y="742.7627">clearLoginCookie(WikiEngine, HttpServletRequest, HttpServletResponse): void</text></a><!--class org.apache.wiki.auth.login.CookieAssertionLoginModule--><a href="CookieAssertionLoginModule.html" target="_top" xlink:actuate="onRequest" xlink:show="new" xlink:title="CookieAssertionLoginModule.html" xlink:type="simple"><rect fill="#FEFECE" filter="url(#fwuzs7mn1m31k)" height="131.0156" id="org.apache.wiki.auth.login.CookieAssertionLoginModule" style="stroke: #A80036; stroke-width: 1.5;" width="266" x="1454" y="625"/><ellipse cx="1501.75" cy="641" fill="#ADD1B2" rx="11" ry="11" style="stroke: #A80036; stroke-width: 1.0;"/><path d="M1504.5156,636.875 Q1504.6719,636.6563 1504.8594,636.5469 Q1505.0469,636.4375 1505.2656,636.4375 Q1505.6406,636.4375 1505.875,636.6953 Q1506.1094,636.9531 1506.1094,637.5625 L1506.1094,639.0156 Q1506.1094,639.625 1505.875,639.8906 Q1505.6406,640.1563 1505.2656,640.1563 Q1504.9219,640.1563 1504.7188,639.9531 Q1504.5156,639.7656 1504.4063,639.25 Q1504.3594,638.8906 1504.1719,638.7031 Q1503.8438,638.3281 1503.2344,638.1094 Q1502.625,637.8906 1502,637.8906 Q1501.2344,637.8906 1500.6016,638.2188 Q1499.9688,638.5469 1499.4766,639.2969 Q1498.9844,640.0469 1498.9844,641.0781 L1498.9844,642.1719 Q1498.9844,643.4063 1499.875,644.2266 Q1500.7656,645.0469 1502.3594,645.0469 Q1503.2969,645.0469 1503.9531,644.7969 Q1504.3438,644.6406 1504.7656,644.2031 Q1505.0313,643.9375 1505.1797,643.8594 Q1505.3281,643.7813 1505.5313,643.7813 Q1505.8594,643.7813 1506.1172,644.0391 Q1506.375,644.2969 1506.375,644.6406 Q1506.375,644.9844 1506.0313,645.3906 Q1505.5313,645.9688 1504.7344,646.2969 Q1503.6563,646.75 1502.3594,646.75 Q1500.8438,646.75 1499.6406,646.125 Q1498.6563,645.625 1497.9688,644.5547 Q1497.2813,643.4844 1497.2813,642.2031 L1497.2813,641.0469 Q1497.2813,639.7188 1497.8984,638.5703 Q1498.5156,637.4219 1499.6094,636.8047 Q1500.7031,636.1875 1501.9375,636.1875 Q1502.6719,636.1875 1503.3203,636.3516 Q1503.9688,636.5156 1504.5156,636.875 Z "/><text fill="#000000" font-family="sans-serif" font-size="12" lengthAdjust="spacingAndGlyphs" textLength="162" x="1522.25" y="645.9102">CookieAssertionLoginModule</text><line style="stroke: #A80036; stroke-width: 1.5;" x1="1455" x2="1719" y1="657" y2="657"/><ellipse cx="1465" cy="669.418" fill="none" rx="3" ry="3" style="stroke: #038048; stroke-width: 1.0;"/><text fill="#000000" font-family="sans-serif" font-size="11" lengthAdjust="spacingAndGlyphs" text-decoration="underline" textLength="145" x="1474" y="672.4189">PREFS_COOKIE_NAME: String</text><polygon fill="none" points="1465,678.2539,1469,682.2539,1465,686.2539,1461,682.2539" style="stroke: #B38D22; stroke-width: 1.0;"/><text fill="#000000" font-family="sans-serif" font-size="11" lengthAdjust="spacingAndGlyphs" text-decoration="underline" textLength="54" x="1474" y="686.2549">log: Logger</text><line style="stroke: #A80036; stroke-width: 1.5;" x1="1455" x2="1719" y1="692.6719" y2="692.6719"/><ellipse cx="1465" cy="705.0898" fill="#84BE84" rx="3" ry="3" style="stroke: #038048; stroke-width: 1.0;"/><text fill="#000000" font-family="sans-serif" font-size="11" lengthAdjust="spacingAndGlyphs" textLength="74" x="1474" y="708.0908">login(): boolean</text><ellipse cx="1465" cy="718.9258" fill="#84BE84" rx="3" ry="3" style="stroke: #038048; stroke-width: 1.0;"/><text fill="#000000" font-family="sans-serif" font-size="11" lengthAdjust="spacingAndGlyphs" text-decoration="underline" textLength="205" x="1474" y="721.9268">getUserCookie(HttpServletRequest): String</text><ellipse cx="1465" cy="732.7617" fill="#84BE84" rx="3" ry="3" style="stroke: #038048; stroke-width: 1.0;"/><text fill="#000000" font-family="sans-serif" font-size="11" lengthAdjust="spacingAndGlyphs" text-decoration="underline" textLength="240" x="1474" y="735.7627">setUserCookie(HttpServletResponse, String): void</text><ellipse cx="1465" cy="746.5977" fill="#84BE84" rx="3" ry="3" style="stroke: #038048; stroke-width: 1.0;"/><text fill="#000000" font-family="sans-serif" font-size="11" lengthAdjust="spacingAndGlyphs" text-decoration="underline" textLength="215" x="1474" y="749.5986">clearUserCookie(HttpServletResponse): void</text></a><!--class org.apache.wiki.auth.login.AuthorizerCallback--><a href="AuthorizerCallback.html" target="_top" xlink:actuate="onRequest" xlink:show="new" xlink:title="AuthorizerCallback.html" xlink:type="simple"><rect fill="#FEFECE" filter="url(#fwuzs7mn1m31k)" height="75.6719" id="org.apache.wiki.auth.login.AuthorizerCallback" style="stroke: #A80036; stroke-width: 1.5;" width="177" x="1304.5" y="293.5"/><ellipse cx="1338.85" cy="309.5" fill="#ADD1B2" rx="11" ry="11" style="stroke: #A80036; stroke-width: 1.0;"/><path d="M1341.6156,305.375 Q1341.7719,305.1563 1341.9594,305.0469 Q1342.1469,304.9375 1342.3656,304.9375 Q1342.7406,304.9375 1342.975,305.1953 Q1343.2094,305.4531 1343.2094,306.0625 L1343.2094,307.5156 Q1343.2094,308.125 1342.975,308.3906 Q1342.7406,308.6563 1342.3656,308.6563 Q1342.0219,308.6563 1341.8188,308.4531 Q1341.6156,308.2656 1341.5063,307.75 Q1341.4594,307.3906 1341.2719,307.2031 Q1340.9438,306.8281 1340.3344,306.6094 Q1339.725,306.3906 1339.1,306.3906 Q1338.3344,306.3906 1337.7016,306.7188 Q1337.0688,307.0469 1336.5766,307.7969 Q1336.0844,308.5469 1336.0844,309.5781 L1336.0844,310.6719 Q1336.0844,311.9063 1336.975,312.7266 Q1337.8656,313.5469 1339.4594,313.5469 Q1340.3969,313.5469 1341.0531,313.2969 Q1341.4438,313.1406 1341.8656,312.7031 Q1342.1313,312.4375 1342.2797,312.3594 Q1342.4281,312.2813 1342.6313,312.2813 Q1342.9594,312.2813 1343.2172,312.5391 Q1343.475,312.7969 1343.475,313.1406 Q1343.475,313.4844 1343.1313,313.8906 Q1342.6313,314.4688 1341.8344,314.7969 Q1340.7563,315.25 1339.4594,315.25 Q1337.9438,315.25 1336.7406,314.625 Q1335.7563,314.125 1335.0688,313.0547 Q1334.3813,311.9844 1334.3813,310.7031 L1334.3813,309.5469 Q1334.3813,308.2188 1334.9984,307.0703 Q1335.6156,305.9219 1336.7094,305.3047 Q1337.8031,304.6875 1339.0375,304.6875 Q1339.7719,304.6875 1340.4203,304.8516 Q1341.0688,305.0156 1341.6156,305.375 Z "/><text fill="#000000" font-family="sans-serif" font-size="12" lengthAdjust="spacingAndGlyphs" textLength="102" x="1357.15" y="314.4102">AuthorizerCallback</text><line style="stroke: #A80036; stroke-width: 1.5;" x1="1305.5" x2="1480.5" y1="325.5" y2="325.5"/><line style="stroke: #A80036; stroke-width: 1.5;" x1="1305.5" x2="1480.5" y1="333.5" y2="333.5"/><ellipse cx="1315.5" cy="345.918" fill="#84BE84" rx="3" ry="3" style="stroke: #038048; stroke-width: 1.0;"/><text fill="#000000" font-family="sans-serif" font-size="11" lengthAdjust="spacingAndGlyphs" textLength="151" x="1324.5" y="348.9189">setAuthorizer(Authorizer): void</text><ellipse cx="1315.5" cy="359.7539" fill="#84BE84" rx="3" ry="3" style="stroke: #038048; stroke-width: 1.0;"/><text fill="#000000" font-family="sans-serif" font-size="11" lengthAdjust="spacingAndGlyphs" textLength="131" x="1324.5" y="362.7549">getAuthorizer(): Authorizer</text></a><!--class org.apache.wiki.auth.login.AnonymousLoginModule--><a href="AnonymousLoginModule.html" target="_top" xlink:actuate="onRequest" xlink:show="new" xlink:title="AnonymousLoginModule.html" xlink:type="simple"><rect fill="#FEFECE" filter="url(#fwuzs7mn1m31k)" height="89.5078" id="org.apache.wiki.auth.login.AnonymousLoginModule" style="stroke: #A80036; stroke-width: 1.5;" width="168" x="380" y="645.5"/><ellipse cx="395" cy="661.5" fill="#ADD1B2" rx="11" ry="11" style="stroke: #A80036; stroke-width: 1.0;"/><path d="M397.7656,657.375 Q397.9219,657.1563 398.1094,657.0469 Q398.2969,656.9375 398.5156,656.9375 Q398.8906,656.9375 399.125,657.1953 Q399.3594,657.4531 399.3594,658.0625 L399.3594,659.5156 Q399.3594,660.125 399.125,660.3906 Q398.8906,660.6563 398.5156,660.6563 Q398.1719,660.6563 397.9688,660.4531 Q397.7656,660.2656 397.6563,659.75 Q397.6094,659.3906 397.4219,659.2031 Q397.0938,658.8281 396.4844,658.6094 Q395.875,658.3906 395.25,658.3906 Q394.4844,658.3906 393.8516,658.7188 Q393.2188,659.0469 392.7266,659.7969 Q392.2344,660.5469 392.2344,661.5781 L392.2344,662.6719 Q392.2344,663.9063 393.125,664.7266 Q394.0156,665.5469 395.6094,665.5469 Q396.5469,665.5469 397.2031,665.2969 Q397.5938,665.1406 398.0156,664.7031 Q398.2813,664.4375 398.4297,664.3594 Q398.5781,664.2813 398.7813,664.2813 Q399.1094,664.2813 399.3672,664.5391 Q399.625,664.7969 399.625,665.1406 Q399.625,665.4844 399.2813,665.8906 Q398.7813,666.4688 397.9844,666.7969 Q396.9063,667.25 395.6094,667.25 Q394.0938,667.25 392.8906,666.625 Q391.9063,666.125 391.2188,665.0547 Q390.5313,663.9844 390.5313,662.7031 L390.5313,661.5469 Q390.5313,660.2188 391.1484,659.0703 Q391.7656,657.9219 392.8594,657.3047 Q393.9531,656.6875 395.1875,656.6875 Q395.9219,656.6875 396.5703,656.8516 Q397.2188,657.0156 397.7656,657.375 Z "/><text fill="#000000" font-family="sans-serif" font-size="12" lengthAdjust="spacingAndGlyphs" textLength="136" x="409" y="666.4102">AnonymousLoginModule</text><line style="stroke: #A80036; stroke-width: 1.5;" x1="381" x2="547" y1="677.5" y2="677.5"/><ellipse cx="391" cy="689.918" fill="none" rx="3" ry="3" style="stroke: #038048; stroke-width: 1.0;"/><text fill="#000000" font-family="sans-serif" font-size="11" lengthAdjust="spacingAndGlyphs" text-decoration="underline" textLength="75" x="400" y="692.9189">PROMPT: String</text><polygon fill="none" points="391,698.7539,395,702.7539,391,706.7539,387,702.7539" style="stroke: #B38D22; stroke-width: 1.0;"/><text fill="#000000" font-family="sans-serif" font-size="11" lengthAdjust="spacingAndGlyphs" text-decoration="underline" textLength="54" x="400" y="706.7549">log: Logger</text><line style="stroke: #A80036; stroke-width: 1.5;" x1="381" x2="547" y1="713.1719" y2="713.1719"/><ellipse cx="391" cy="725.5898" fill="#84BE84" rx="3" ry="3" style="stroke: #038048; stroke-width: 1.0;"/><text fill="#000000" font-family="sans-serif" font-size="11" lengthAdjust="spacingAndGlyphs" textLength="74" x="400" y="728.5908">login(): boolean</text></a><!--class org.apache.wiki.auth.login.AbstractLoginModule--><a href="AbstractLoginModule.html" target="_top" xlink:actuate="onRequest" xlink:show="new" xlink:title="AbstractLoginModule.html" xlink:type="simple"><rect fill="#FEFECE" filter="url(#fwuzs7mn1m31k)" height="172.5234" id="org.apache.wiki.auth.login.AbstractLoginModule" style="stroke: #A80036; stroke-width: 1.5;" width="372" x="706" y="245"/><ellipse cx="829.75" cy="261" fill="#A9DCDF" rx="11" ry="11" style="stroke: #A80036; stroke-width: 1.0;"/><path d="M831.9375,262.7656 L827.7969,262.7656 L827.375,263.7969 L827.7969,263.7969 Q828.4063,263.7969 828.6719,264.0313 Q828.9375,264.2656 828.9375,264.6563 Q828.9375,265.0313 828.6719,265.2656 Q828.4063,265.5 827.7969,265.5 L825.5,265.5 Q824.8906,265.5 824.6328,265.2656 Q824.375,265.0313 824.375,264.6406 Q824.375,264.2656 824.6484,264.0234 Q824.9219,263.7813 825.5469,263.7969 L828.2188,257.1406 L827.1094,257.1406 Q826.5,257.1406 826.2344,256.9063 Q825.9688,256.6719 825.9688,256.2813 Q825.9688,255.9063 826.2344,255.6719 Q826.5,255.4375 827.1094,255.4375 L830.7813,255.4375 L834.1719,263.7969 Q834.7656,263.7969 834.9531,263.9375 Q835.3438,264.2031 835.3438,264.6563 Q835.3438,265.0313 835.0859,265.2656 Q834.8281,265.5 834.2188,265.5 L831.9219,265.5 Q831.3125,265.5 831.0469,265.2656 Q830.7813,265.0313 830.7813,264.6406 Q830.7813,264.2656 831.0469,264.0313 Q831.3125,263.7969 831.9219,263.7969 L832.3438,263.7969 L831.9375,262.7656 Z M831.2188,261.0625 L829.8594,257.6875 L828.4844,261.0625 L831.2188,261.0625 Z "/><text fill="#000000" font-family="sans-serif" font-size="12" font-style="italic" lengthAdjust="spacingAndGlyphs" textLength="116" x="850.25" y="265.9102">AbstractLoginModule</text><line style="stroke: #A80036; stroke-width: 1.5;" x1="707" x2="1077" y1="277" y2="277"/><polygon fill="none" points="717,284.418,721,288.418,717,292.418,713,288.418" style="stroke: #B38D22; stroke-width: 1.0;"/><text fill="#000000" font-family="sans-serif" font-size="11" lengthAdjust="spacingAndGlyphs" text-decoration="underline" textLength="60" x="726" y="292.4189">NULL: String</text><polygon fill="none" points="717,298.2539,721,302.2539,717,306.2539,713,302.2539" style="stroke: #B38D22; stroke-width: 1.0;"/><text fill="#000000" font-family="sans-serif" font-size="11" lengthAdjust="spacingAndGlyphs" textLength="127" x="726" y="306.2549">m_options: Map&lt;String, ?&gt;</text><polygon fill="none" points="717,312.0898,721,316.0898,717,320.0898,713,316.0898" style="stroke: #B38D22; stroke-width: 1.0;"/><text fill="#000000" font-family="sans-serif" font-size="11" lengthAdjust="spacingAndGlyphs" textLength="116" x="726" y="320.0908">m_state: Map&lt;String, ?&gt;</text><polygon fill="none" points="717,325.9258,721,329.9258,717,333.9258,713,329.9258" style="stroke: #B38D22; stroke-width: 1.0;"/><text fill="#000000" font-family="sans-serif" font-size="11" lengthAdjust="spacingAndGlyphs" textLength="91" x="726" y="333.9268">m_subject: Subject</text><line style="stroke: #A80036; stroke-width: 1.5;" x1="707" x2="1077" y1="340.3438" y2="340.3438"/><ellipse cx="717" cy="352.7617" fill="#84BE84" rx="3" ry="3" style="stroke: #038048; stroke-width: 1.0;"/><text fill="#000000" font-family="sans-serif" font-size="11" lengthAdjust="spacingAndGlyphs" textLength="77" x="726" y="355.7627">abort(): boolean</text><ellipse cx="717" cy="366.5977" fill="#84BE84" rx="3" ry="3" style="stroke: #038048; stroke-width: 1.0;"/><text fill="#000000" font-family="sans-serif" font-size="11" lengthAdjust="spacingAndGlyphs" textLength="85" x="726" y="369.5986">commit(): boolean</text><ellipse cx="717" cy="380.4336" fill="#84BE84" rx="3" ry="3" style="stroke: #038048; stroke-width: 1.0;"/><text fill="#000000" font-family="sans-serif" font-size="11" lengthAdjust="spacingAndGlyphs" textLength="346" x="726" y="383.4346">initialize(Subject, CallbackHandler, Map&lt;String, ?&gt;, Map&lt;String, ?&gt;): void</text><ellipse cx="717" cy="394.2695" fill="#84BE84" rx="3" ry="3" style="stroke: #038048; stroke-width: 1.0;"/><text fill="#000000" font-family="sans-serif" font-size="11" lengthAdjust="spacingAndGlyphs" textLength="81" x="726" y="397.2705">logout(): boolean</text><ellipse cx="717" cy="408.1055" fill="#84BE84" rx="3" ry="3" style="stroke: #038048; stroke-width: 1.0;"/><text fill="#000000" font-family="sans-serif" font-size="11" font-style="italic" lengthAdjust="spacingAndGlyphs" textLength="78" x="726" y="411.1064">login(): boolean</text></a><!--class javax.security.auth.callback.Callback--><rect fill="#FEFECE" filter="url(#fwuzs7mn1m31k)" height="48" id="javax.security.auth.callback.Callback" style="stroke: #A80036; stroke-width: 1.5;" width="82" x="525" y="78.5"/><ellipse cx="540" cy="94.5" fill="#B4A7E5" rx="11" ry="11" style="stroke: #A80036; stroke-width: 1.0;"/><path d="M540.9531,91.1406 L540.9531,97.7969 L542.6719,97.7969 Q543.2813,97.7969 543.5469,98.0313 Q543.8125,98.2656 543.8125,98.6563 Q543.8125,99.0313 543.5469,99.2656 Q543.2813,99.5 542.6719,99.5 L537.5313,99.5 Q536.9219,99.5 536.6563,99.2656 Q536.3906,99.0313 536.3906,98.6406 Q536.3906,98.2656 536.6563,98.0313 Q536.9219,97.7969 537.5313,97.7969 L539.25,97.7969 L539.25,91.1406 L537.5313,91.1406 Q536.9219,91.1406 536.6563,90.9063 Q536.3906,90.6719 536.3906,90.2813 Q536.3906,89.9063 536.6563,89.6719 Q536.9219,89.4375 537.5313,89.4375 L542.6719,89.4375 Q543.2813,89.4375 543.5469,89.6719 Q543.8125,89.9063 543.8125,90.2813 Q543.8125,90.6719 543.5469,90.9063 Q543.2813,91.1406 542.6719,91.1406 L540.9531,91.1406 Z "/><text fill="#000000" font-family="sans-serif" font-size="12" font-style="italic" lengthAdjust="spacingAndGlyphs" textLength="50" x="554" y="99.4102">Callback</text><line style="stroke: #A80036; stroke-width: 1.5;" x1="526" x2="606" y1="110.5" y2="110.5"/><line style="stroke: #A80036; stroke-width: 1.5;" x1="526" x2="606" y1="118.5" y2="118.5"/><!--class javax.security.auth.callback.CallbackHandler--><rect fill="#FEFECE" filter="url(#fwuzs7mn1m31k)" height="61.8359" id="javax.security.auth.callback.CallbackHandler" style="stroke: #A80036; stroke-width: 1.5;" width="144" x="642" y="71.5"/><ellipse cx="665.1" cy="87.5" fill="#B4A7E5" rx="11" ry="11" style="stroke: #A80036; stroke-width: 1.0;"/><path d="M666.0531,84.1406 L666.0531,90.7969 L667.7719,90.7969 Q668.3813,90.7969 668.6469,91.0313 Q668.9125,91.2656 668.9125,91.6563 Q668.9125,92.0313 668.6469,92.2656 Q668.3813,92.5 667.7719,92.5 L662.6313,92.5 Q662.0219,92.5 661.7563,92.2656 Q661.4906,92.0313 661.4906,91.6406 Q661.4906,91.2656 661.7563,91.0313 Q662.0219,90.7969 662.6313,90.7969 L664.35,90.7969 L664.35,84.1406 L662.6313,84.1406 Q662.0219,84.1406 661.7563,83.9063 Q661.4906,83.6719 661.4906,83.2813 Q661.4906,82.9063 661.7563,82.6719 Q662.0219,82.4375 662.6313,82.4375 L667.7719,82.4375 Q668.3813,82.4375 668.6469,82.6719 Q668.9125,82.9063 668.9125,83.2813 Q668.9125,83.6719 668.6469,83.9063 Q668.3813,84.1406 667.7719,84.1406 L666.0531,84.1406 Z "/><text fill="#000000" font-family="sans-serif" font-size="12" font-style="italic" lengthAdjust="spacingAndGlyphs" textLength="94" x="680.9" y="92.4102">CallbackHandler</text><line style="stroke: #A80036; stroke-width: 1.5;" x1="643" x2="785" y1="103.5" y2="103.5"/><line style="stroke: #A80036; stroke-width: 1.5;" x1="643" x2="785" y1="111.5" y2="111.5"/><ellipse cx="653" cy="123.918" fill="#84BE84" rx="3" ry="3" style="stroke: #038048; stroke-width: 1.0;"/><text fill="#000000" font-family="sans-serif" font-size="11" font-style="italic" lengthAdjust="spacingAndGlyphs" textLength="118" x="662" y="126.9189">handle(Callback[]): void</text><!--class java.security.Principal--><rect fill="#FEFECE" filter="url(#fwuzs7mn1m31k)" height="61.8359" id="java.security.Principal" style="stroke: #A80036; stroke-width: 1.5;" width="113" x="2253.5" y="502"/><ellipse cx="2283.35" cy="518" fill="#B4A7E5" rx="11" ry="11" style="stroke: #A80036; stroke-width: 1.0;"/><path d="M2284.3031,514.6406 L2284.3031,521.2969 L2286.0219,521.2969 Q2286.6313,521.2969 2286.8969,521.5313 Q2287.1625,521.7656 2287.1625,522.1563 Q2287.1625,522.5313 2286.8969,522.7656 Q2286.6313,523 2286.0219,523 L2280.8813,523 Q2280.2719,523 2280.0063,522.7656 Q2279.7406,522.5313 2279.7406,522.1406 Q2279.7406,521.7656 2280.0063,521.5313 Q2280.2719,521.2969 2280.8813,521.2969 L2282.6,521.2969 L2282.6,514.6406 L2280.8813,514.6406 Q2280.2719,514.6406 2280.0063,514.4063 Q2279.7406,514.1719 2279.7406,513.7813 Q2279.7406,513.4063 2280.0063,513.1719 Q2280.2719,512.9375 2280.8813,512.9375 L2286.0219,512.9375 Q2286.6313,512.9375 2286.8969,513.1719 Q2287.1625,513.4063 2287.1625,513.7813 Q2287.1625,514.1719 2286.8969,514.4063 Q2286.6313,514.6406 2286.0219,514.6406 L2284.3031,514.6406 Z "/><text fill="#000000" font-family="sans-serif" font-size="12" font-style="italic" lengthAdjust="spacingAndGlyphs" textLength="48" x="2300.65" y="522.9102">Principal</text><line style="stroke: #A80036; stroke-width: 1.5;" x1="2254.5" x2="2365.5" y1="534" y2="534"/><line style="stroke: #A80036; stroke-width: 1.5;" x1="2254.5" x2="2365.5" y1="542" y2="542"/><ellipse cx="2264.5" cy="554.418" fill="#84BE84" rx="3" ry="3" style="stroke: #038048; stroke-width: 1.0;"/><text fill="#000000" font-family="sans-serif" font-size="11" font-style="italic" lengthAdjust="spacingAndGlyphs" textLength="87" x="2273.5" y="557.4189">getName(): String</text><!--class javax.security.auth.spi.LoginModule--><rect fill="#FEFECE" filter="url(#fwuzs7mn1m31k)" height="117.1797" id="javax.security.auth.spi.LoginModule" style="stroke: #A80036; stroke-width: 1.5;" width="390" x="821" y="44"/><ellipse cx="976.25" cy="60" fill="#B4A7E5" rx="11" ry="11" style="stroke: #A80036; stroke-width: 1.0;"/><path d="M977.2031,56.6406 L977.2031,63.2969 L978.9219,63.2969 Q979.5313,63.2969 979.7969,63.5313 Q980.0625,63.7656 980.0625,64.1563 Q980.0625,64.5313 979.7969,64.7656 Q979.5313,65 978.9219,65 L973.7813,65 Q973.1719,65 972.9063,64.7656 Q972.6406,64.5313 972.6406,64.1406 Q972.6406,63.7656 972.9063,63.5313 Q973.1719,63.2969 973.7813,63.2969 L975.5,63.2969 L975.5,56.6406 L973.7813,56.6406 Q973.1719,56.6406 972.9063,56.4063 Q972.6406,56.1719 972.6406,55.7813 Q972.6406,55.4063 972.9063,55.1719 Q973.1719,54.9375 973.7813,54.9375 L978.9219,54.9375 Q979.5313,54.9375 979.7969,55.1719 Q980.0625,55.4063 980.0625,55.7813 Q980.0625,56.1719 979.7969,56.4063 Q979.5313,56.6406 978.9219,56.6406 L977.2031,56.6406 Z "/><text fill="#000000" font-family="sans-serif" font-size="12" font-style="italic" lengthAdjust="spacingAndGlyphs" textLength="71" x="996.75" y="64.9102">LoginModule</text><line style="stroke: #A80036; stroke-width: 1.5;" x1="822" x2="1210" y1="76" y2="76"/><line style="stroke: #A80036; stroke-width: 1.5;" x1="822" x2="1210" y1="84" y2="84"/><ellipse cx="832" cy="96.418" fill="#84BE84" rx="3" ry="3" style="stroke: #038048; stroke-width: 1.0;"/><text fill="#000000" font-family="sans-serif" font-size="11" font-style="italic" lengthAdjust="spacingAndGlyphs" textLength="364" x="841" y="99.4189">initialize(Subject, CallbackHandler, Map&lt;String, ?&gt;, Map&lt;String, ?&gt;): void</text><ellipse cx="832" cy="110.2539" fill="#84BE84" rx="3" ry="3" style="stroke: #038048; stroke-width: 1.0;"/><text fill="#000000" font-family="sans-serif" font-size="11" font-style="italic" lengthAdjust="spacingAndGlyphs" textLength="78" x="841" y="113.2549">login(): boolean</text><ellipse cx="832" cy="124.0898" fill="#84BE84" rx="3" ry="3" style="stroke: #038048; stroke-width: 1.0;"/><text fill="#000000" font-family="sans-serif" font-size="11" font-style="italic" lengthAdjust="spacingAndGlyphs" textLength="90" x="841" y="127.0908">commit(): boolean</text><ellipse cx="832" cy="137.9258" fill="#84BE84" rx="3" ry="3" style="stroke: #038048; stroke-width: 1.0;"/><text fill="#000000" font-family="sans-serif" font-size="11" font-style="italic" lengthAdjust="spacingAndGlyphs" textLength="80" x="841" y="140.9268">abort(): boolean</text><ellipse cx="832" cy="151.7617" fill="#84BE84" rx="3" ry="3" style="stroke: #038048; stroke-width: 1.0;"/><text fill="#000000" font-family="sans-serif" font-size="11" font-style="italic" lengthAdjust="spacingAndGlyphs" textLength="84" x="841" y="154.7627">logout(): boolean</text><!--link javax.security.auth.callback.Callback to org.apache.wiki.auth.login.WikiEngineCallback--><path d="M521.9209,139.9361 C497.0935,161.6583 465.9556,189.9881 440,217 C416.6343,241.3166 392.2435,270.4632 373.8942,293.2637 " fill="none" id="javax.security.auth.callback.Callback-org.apache.wiki.auth.login.WikiEngineCallback" style="stroke: #A80036; stroke-width: 1.0; stroke-dasharray: 7.0,7.0;"/><polygon fill="none" points="517.5063,134.4991,537.2069,126.696,526.6723,145.0814,517.5063,134.4991" style="stroke: #A80036; stroke-width: 1.0;"/><!--link javax.security.auth.callback.CallbackHandler to org.apache.wiki.auth.login.WikiCallbackHandler--><path d="M770.2453,145.8412 C781.5244,153.8887 793.4606,161.9669 805,169 C821.9722,179.3443 865.6857,204.3075 885,209 C951.2993,225.1078 1433.3427,198.4478 1499,217 C1552.5948,232.1438 1606.4337,266.2873 1643.4028,293.3718 " fill="none" id="javax.security.auth.callback.CallbackHandler-org.apache.wiki.auth.login.WikiCallbackHandler" style="stroke: #A80036; stroke-width: 1.0; stroke-dasharray: 7.0,7.0;"/><polygon fill="none" points="765.7796,151.2475,753.7687,133.7907,774.0443,139.9473,765.7796,151.2475" style="stroke: #A80036; stroke-width: 1.0;"/><!--link org.apache.wiki.auth.login.AbstractLoginModule to org.apache.wiki.auth.login.WebContainerLoginModule--><path d="M828.6018,435.9034 C784.5583,508.4337 728.3965,600.9204 697.3266,652.086 " fill="none" id="org.apache.wiki.auth.login.AbstractLoginModule-org.apache.wiki.auth.login.WebContainerLoginModule" style="stroke: #A80036; stroke-width: 1.0;"/><polygon fill="none" points="822.8642,431.8656,839.2283,418.4039,834.8307,439.1322,822.8642,431.8656" style="stroke: #A80036; stroke-width: 1.0;"/><!--link javax.security.auth.callback.CallbackHandler to org.apache.wiki.auth.login.WebContainerCallbackHandler--><path d="M762.6355,145.995 C775.5687,155.234 790.1095,163.7697 805,169 C1031.2422,248.4677 1654.1327,145.4432 1883,217 C1933.7717,232.8741 1984.4127,266.5535 2019.337,293.2974 " fill="none" id="javax.security.auth.callback.CallbackHandler-org.apache.wiki.auth.login.WebContainerCallbackHandler" style="stroke: #A80036; stroke-width: 1.0; stroke-dasharray: 7.0,7.0;"/><polygon fill="none" points="758.2169,151.4271,746.6653,133.663,766.7734,140.3461,758.2169,151.4271" style="stroke: #A80036; stroke-width: 1.0;"/><!--link org.apache.wiki.auth.login.AbstractLoginModule to org.apache.wiki.auth.login.UserDatabaseLoginModule--><path d="M892,438.6344 C892,514.2637 892,610.4788 892,659.1958 " fill="none" id="org.apache.wiki.auth.login.AbstractLoginModule-org.apache.wiki.auth.login.UserDatabaseLoginModule" style="stroke: #A80036; stroke-width: 1.0;"/><polygon fill="none" points="885.0001,438.4039,892,418.4039,899.0001,438.4039,885.0001,438.4039" style="stroke: #A80036; stroke-width: 1.0;"/><!--link javax.security.auth.callback.Callback to org.apache.wiki.auth.login.UserDatabaseCallback--><path d="M565.6143,146.6683 C565.2425,189.2342 564.6859,252.9672 564.333,293.3739 " fill="none" id="javax.security.auth.callback.Callback-org.apache.wiki.auth.login.UserDatabaseCallback" style="stroke: #A80036; stroke-width: 1.0; stroke-dasharray: 7.0,7.0;"/><polygon fill="none" points="558.6152,146.5123,565.7897,126.5742,572.6147,146.6346,558.6152,146.5123" style="stroke: #A80036; stroke-width: 1.0;"/><!--link java.security.Principal to org.apache.wiki.auth.login.PrincipalWrapper--><path d="M2268.9094,488.468 C2261.5132,482.6855 2253.448,477.5491 2245,474 C2146.6963,432.702 1385.379,459.1181 1287,418 C1261.9541,407.5319 1239.1376,387.635 1222.0384,369.561 " fill="none" id="java.security.Principal-org.apache.wiki.auth.login.PrincipalWrapper" style="stroke: #A80036; stroke-width: 1.0; stroke-dasharray: 7.0,7.0;"/><polygon fill="none" points="2273.6106,483.281,2283.9212,501.793,2264.3168,493.7512,2273.6106,483.281" style="stroke: #A80036; stroke-width: 1.0;"/><!--link org.apache.wiki.auth.login.PrincipalWrapper to java.security.Principal--><path d="M1222.5931,369.7057 C1239.6775,387.582 1262.3141,407.2596 1287,418 C1399.0941,466.7701 1712.9305,459.4705 1835,466 C1857.7496,467.2169 2223.8285,465.5861 2245,474 C2258.2444,479.2636 2270.4862,488.5546 2280.6906,498.2284 " fill="none" id="org.apache.wiki.auth.login.PrincipalWrapper-java.security.Principal" style="stroke: #A80036; stroke-width: 1.0;"/><polygon fill="#A80036" points="2284.356,501.8029,2280.7054,492.6556,2280.7764,498.312,2275.12,498.383,2284.356,501.8029" style="stroke: #A80036; stroke-width: 1.0;"/><text fill="#000000" font-family="sans-serif" font-size="13" lengthAdjust="spacingAndGlyphs" textLength="48" x="1836" y="462.4951">principal</text><!--link javax.security.auth.callback.Callback to org.apache.wiki.auth.login.HttpRequestCallback--><path d="M505.3581,116.435 C438.8421,133.4634 330.575,166.4122 248,217 C214.1901,237.7129 181.75,268.8904 158.8313,293.4842 " fill="none" id="javax.security.auth.callback.Callback-org.apache.wiki.auth.login.HttpRequestCallback" style="stroke: #A80036; stroke-width: 1.0; stroke-dasharray: 7.0,7.0;"/><polygon fill="none" points="503.8965,109.5855,524.9938,111.5615,507.269,123.1732,503.8965,109.5855" style="stroke: #A80036; stroke-width: 1.0;"/><!--link org.apache.wiki.auth.login.AbstractLoginModule to org.apache.wiki.auth.login.CookieAuthenticationLoginModule--><path d="M907.4427,437.9864 C919.9679,490.8528 942.5212,552.36 983,595 C996.5418,609.2648 1012.5067,621.456 1029.6432,631.8635 " fill="none" id="org.apache.wiki.auth.login.AbstractLoginModule-org.apache.wiki.auth.login.CookieAuthenticationLoginModule" style="stroke: #A80036; stroke-width: 1.0;"/><polygon fill="none" points="900.5513,439.239,903.1169,418.2052,914.2281,436.248,900.5513,439.239" style="stroke: #A80036; stroke-width: 1.0;"/><!--link org.apache.wiki.auth.login.AbstractLoginModule to org.apache.wiki.auth.login.CookieAssertionLoginModule--><path d="M1077.7613,427.4544 C1198.6702,489.9095 1353.2029,569.7329 1460.1631,624.9828 " fill="none" id="org.apache.wiki.auth.login.AbstractLoginModule-org.apache.wiki.auth.login.CookieAssertionLoginModule" style="stroke: #A80036; stroke-width: 1.0;"/><polygon fill="none" points="1074.3538,433.5731,1059.797,418.175,1080.779,421.1345,1074.3538,433.5731" style="stroke: #A80036; stroke-width: 1.0;"/><!--link javax.security.auth.callback.Callback to org.apache.wiki.auth.login.AuthorizerCallback--><path d="M595.0558,142.3909 C603.7704,152.1971 613.975,161.9054 625,169 C675.8351,201.7125 695.2903,199.562 755,209 C784.1964,213.6149 1260.0039,204.961 1287,217 C1322.3788,232.7772 1351.3077,266.6554 1369.9533,293.4895 " fill="none" id="javax.security.auth.callback.Callback-org.apache.wiki.auth.login.AuthorizerCallback" style="stroke: #A80036; stroke-width: 1.0; stroke-dasharray: 7.0,7.0;"/><polygon fill="none" points="589.5195,146.6781,582.302,126.7556,600.368,137.8289,589.5195,146.6781" style="stroke: #A80036; stroke-width: 1.0;"/><!--link org.apache.wiki.auth.login.AbstractLoginModule to org.apache.wiki.auth.login.AnonymousLoginModule--><path d="M773.0865,431.2429 C689.4709,501.3784 581.5445,591.9054 517.8505,645.331 " fill="none" id="org.apache.wiki.auth.login.AbstractLoginModule-org.apache.wiki.auth.login.AnonymousLoginModule" style="stroke: #A80036; stroke-width: 1.0;"/><polygon fill="none" points="768.8442,425.6648,788.666,418.175,777.8413,436.3911,768.8442,425.6648" style="stroke: #A80036; stroke-width: 1.0;"/><!--link javax.security.auth.spi.LoginModule to org.apache.wiki.auth.login.AbstractLoginModule--><path d="M974.6762,178.8157 C963.2047,200.001 950.6667,223.1558 938.9012,244.8841 " fill="none" id="javax.security.auth.spi.LoginModule-org.apache.wiki.auth.login.AbstractLoginModule" style="stroke: #A80036; stroke-width: 1.0; stroke-dasharray: 7.0,7.0;"/><polygon fill="none" points="968.5492,175.4299,984.2279,161.1758,980.8602,182.0961,968.5492,175.4299" style="stroke: #A80036; stroke-width: 1.0;"/><!--link org.apache.wiki.auth.login.AbstractLoginModule to javax.security.auth.callback.CallbackHandler--><path d="M804.3417,244.7693 C794.0139,233.1106 783.9727,221.0187 775,209 C758.3392,186.6833 742.7902,159.3932 731.5606,138.0254 " fill="none" id="org.apache.wiki.auth.login.AbstractLoginModule-javax.security.auth.callback.CallbackHandler" style="stroke: #A80036; stroke-width: 1.0;"/><polygon fill="#A80036" points="729.2311,133.5596,729.8472,143.3892,731.5436,137.9927,736.9401,139.6891,729.2311,133.5596" style="stroke: #A80036; stroke-width: 1.0;"/><text fill="#000000" font-family="sans-serif" font-size="13" lengthAdjust="spacingAndGlyphs" textLength="60" x="776" y="205.4951">m_handler</text><!--link org.apache.wiki.auth.login.AbstractLoginModule to java.security.Principal--><path d="M1078.1792,412.3159 C1084.1597,414.3108 1090.1102,416.2127 1096,418 C1205.1007,451.108 1234.5398,454.7799 1348,466 C1372.7967,468.4522 2221.7956,464.9201 2245,474 C2258.2721,479.1934 2270.5214,488.4655 2280.7241,498.1435 " fill="none" id="org.apache.wiki.auth.login.AbstractLoginModule-java.security.Principal" style="stroke: #A80036; stroke-width: 1.0;"/><polygon fill="#A80036" points="2284.3884,501.7206,2280.7424,492.5714,2280.8106,498.2279,2275.1541,498.296,2284.3884,501.7206" style="stroke: #A80036; stroke-width: 1.0;"/><text fill="#000000" font-family="sans-serif" font-size="13" lengthAdjust="spacingAndGlyphs" textLength="73" x="1349" y="462.4951">m_principals</text><text fill="#000000" font-family="sans-serif" font-size="13" lengthAdjust="spacingAndGlyphs" textLength="5" x="2273.5904" y="491.1675">*</text><text fill="#888888" font-family="sans-serif" font-size="10" lengthAdjust="spacingAndGlyphs" textLength="184" x="1108.5" y="792.3809">UMLDoclet 1.1.4, PlantUML 1.2019.05</text><!--
@startuml

    namespace org.apache.wiki.auth.login {

        class WikiEngineCallback [[WikiEngineCallback.html]] {
            +setEngine(WikiEngine): void
            +getEngine(): WikiEngine
        }

        class WikiCallbackHandler [[WikiCallbackHandler.html]] {
            +WikiCallbackHandler(WikiEngine, HttpServletRequest, String, String)
            +handle(Callback[]): void
        }

        class WebContainerLoginModule [[WebContainerLoginModule.html]] {
            {static} #log: Logger
            +login(): boolean
        }

        class WebContainerCallbackHandler [[WebContainerCallbackHandler.html]] {
            +WebContainerCallbackHandler(WikiEngine, HttpServletRequest)
            +handle(Callback[]): void
        }

        class UserDatabaseLoginModule [[UserDatabaseLoginModule.html]] {
            +login(): boolean
        }

        class UserDatabaseCallback [[UserDatabaseCallback.html]] {
            +getUserDatabase(): UserDatabase
            +setUserDatabase(UserDatabase): void
        }

        class PrincipalWrapper [[PrincipalWrapper.html]] {
            +PrincipalWrapper(Principal)
            +getName(): String
        }

        class HttpRequestCallback [[HttpRequestCallback.html]] {
            +setRequest(HttpServletRequest): void
            +getRequest(): HttpServletRequest
        }

        class CookieAuthenticationLoginModule [[CookieAuthenticationLoginModule.html]] {
            {static} #COOKIE_DIR: String
            {static} +PROP_LOGIN_EXPIRY_DAYS: String
            +login(): boolean
            {static} +setLoginCookie(WikiEngine, HttpServletResponse, String): void
            {static} +clearLoginCookie(WikiEngine, HttpServletRequest, HttpServletResponse): void
        }

        class CookieAssertionLoginModule [[CookieAssertionLoginModule.html]] {
            {static} +PREFS_COOKIE_NAME: String
            {static} #log: Logger
            +login(): boolean
            {static} +getUserCookie(HttpServletRequest): String
            {static} +setUserCookie(HttpServletResponse, String): void
            {static} +clearUserCookie(HttpServletResponse): void
        }

        class AuthorizerCallback [[AuthorizerCallback.html]] {
            +setAuthorizer(Authorizer): void
            +getAuthorizer(): Authorizer
        }

        class AnonymousLoginModule [[AnonymousLoginModule.html]] {
            {static} +PROMPT: String
            {static} #log: Logger
            +login(): boolean
        }

        abstract class AbstractLoginModule [[AbstractLoginModule.html]] {
            {static} #NULL: String
            #m_options: Map<String, ?>
            #m_state: Map<String, ?>
            #m_subject: Subject
            +abort(): boolean
            +commit(): boolean
            +initialize(Subject, CallbackHandler, Map<String, ?>, Map<String, ?>): void
            +logout(): boolean
            {abstract} +login(): boolean
        }

        interface javax.security.auth.callback.Callback
        javax.security.auth.callback.Callback <|.. WikiEngineCallback

        interface javax.security.auth.callback.CallbackHandler {
            {abstract} +handle(Callback[]): void
        }
        javax.security.auth.callback.CallbackHandler <|.. WikiCallbackHandler

        AbstractLoginModule <|- - WebContainerLoginModule

        javax.security.auth.callback.CallbackHandler <|.. WebContainerCallbackHandler

        AbstractLoginModule <|- - UserDatabaseLoginModule

        javax.security.auth.callback.Callback <|.. UserDatabaseCallback

        interface java.security.Principal {
            {abstract} +getName(): String
        }
        java.security.Principal <|.. PrincipalWrapper

        javax.security.auth.callback.Callback <|.. HttpRequestCallback

        AbstractLoginModule <|- - CookieAuthenticationLoginModule

        AbstractLoginModule <|- - CookieAssertionLoginModule

        javax.security.auth.callback.Callback <|.. AuthorizerCallback

        AbstractLoginModule <|- - AnonymousLoginModule

        interface javax.security.auth.spi.LoginModule {
            {abstract} +initialize(Subject, CallbackHandler, Map<String, ?>, Map<String, ?>): void
            {abstract} +login(): boolean
            {abstract} +commit(): boolean
            {abstract} +abort(): boolean
            {abstract} +logout(): boolean
        }
        javax.security.auth.spi.LoginModule <|.. AbstractLoginModule

        PrincipalWrapper - -> java.security.Principal: principal

        AbstractLoginModule - -> javax.security.auth.callback.CallbackHandler: m_handler

        AbstractLoginModule - -> "*" java.security.Principal: m_principals

    }


    center footer UMLDoclet 1.1.4, PlantUML 1.2019.05
@enduml

PlantUML version 1.2019.05(Sat Apr 20 18:45:36 CEST 2019)
(APACHE source distribution)
Java Runtime: OpenJDK Runtime Environment
JVM: OpenJDK 64-Bit Server VM
Java Version: 1.8.0_212-b03
Operating System: Windows 10
OS Version: 10.0
Default Encoding: Cp1252
Language: es
Country: ES
--></g></svg>