<?xml version="1.0" encoding="UTF-8" standalone="no"?><svg xmlns="http://www.w3.org/2000/svg" xmlns:xlink="http://www.w3.org/1999/xlink" contentScriptType="application/ecmascript" contentStyleType="text/css" height="131px" preserveAspectRatio="none" style="width:196px;height:131px;" version="1.1" viewBox="0 0 196 131" width="196px" zoomAndPan="magnify"><defs><filter height="300%" id="f1c0i16wje5qst" width="300%" x="-1" y="-1"><feGaussianBlur result="blurOut" stdDeviation="2.0"/><feColorMatrix in="blurOut" result="blurOut2" type="matrix" values="0 0 0 0 0 0 0 0 0 0 0 0 0 0 0 0 0 0 .4 0"/><feOffset dx="4.0" dy="4.0" in="blurOut2" result="blurOut3"/><feBlend in="SourceGraphic" in2="blurOut3" mode="normal"/></filter></defs><g><!--class PrincipalWrapper--><a href="PrincipalWrapper.html" target="_top" xlink:actuate="onRequest" xlink:show="new" xlink:title="PrincipalWrapper.html" xlink:type="simple"><rect fill="#FEFECE" filter="url(#f1c0i16wje5qst)" height="89.5078" id="PrincipalWrapper" style="stroke: #A80036; stroke-width: 1.5;" width="156" x="8" y="8"/><ellipse cx="36.05" cy="24" fill="#ADD1B2" rx="11" ry="11" style="stroke: #A80036; stroke-width: 1.0;"/><path d="M38.8156,19.875 Q38.9719,19.6563 39.1594,19.5469 Q39.3469,19.4375 39.5656,19.4375 Q39.9406,19.4375 40.175,19.6953 Q40.4094,19.9531 40.4094,20.5625 L40.4094,22.0156 Q40.4094,22.625 40.175,22.8906 Q39.9406,23.1563 39.5656,23.1563 Q39.2219,23.1563 39.0188,22.9531 Q38.8156,22.7656 38.7063,22.25 Q38.6594,21.8906 38.4719,21.7031 Q38.1438,21.3281 37.5344,21.1094 Q36.925,20.8906 36.3,20.8906 Q35.5344,20.8906 34.9016,21.2188 Q34.2688,21.5469 33.7766,22.2969 Q33.2844,23.0469 33.2844,24.0781 L33.2844,25.1719 Q33.2844,26.4063 34.175,27.2266 Q35.0656,28.0469 36.6594,28.0469 Q37.5969,28.0469 38.2531,27.7969 Q38.6438,27.6406 39.0656,27.2031 Q39.3313,26.9375 39.4797,26.8594 Q39.6281,26.7813 39.8313,26.7813 Q40.1594,26.7813 40.4172,27.0391 Q40.675,27.2969 40.675,27.6406 Q40.675,27.9844 40.3313,28.3906 Q39.8313,28.9688 39.0344,29.2969 Q37.9563,29.75 36.6594,29.75 Q35.1438,29.75 33.9406,29.125 Q32.9563,28.625 32.2688,27.5547 Q31.5812,26.4844 31.5812,25.2031 L31.5812,24.0469 Q31.5812,22.7188 32.1984,21.5703 Q32.8156,20.4219 33.9094,19.8047 Q35.0031,19.1875 36.2375,19.1875 Q36.9719,19.1875 37.6203,19.3516 Q38.2688,19.5156 38.8156,19.875 Z "/><text fill="#000000" font-family="sans-serif" font-size="12" lengthAdjust="spacingAndGlyphs" textLength="95" x="52.95" y="28.9102">PrincipalWrapper</text><line style="stroke: #A80036; stroke-width: 1.5;" x1="9" x2="163" y1="40" y2="40"/><line style="stroke: #A80036; stroke-width: 1.5;" x1="9" x2="163" y1="48" y2="48"/><ellipse cx="19" cy="60.418" fill="#84BE84" rx="3" ry="3" style="stroke: #038048; stroke-width: 1.0;"/><text fill="#000000" font-family="sans-serif" font-size="11" lengthAdjust="spacingAndGlyphs" textLength="130" x="28" y="63.4189">PrincipalWrapper(Principal)</text><ellipse cx="19" cy="74.2539" fill="#84BE84" rx="3" ry="3" style="stroke: #038048; stroke-width: 1.0;"/><text fill="#000000" font-family="sans-serif" font-size="11" lengthAdjust="spacingAndGlyphs" textLength="109" x="28" y="77.2549">getPrincipal(): Principal</text><ellipse cx="19" cy="88.0898" fill="#84BE84" rx="3" ry="3" style="stroke: #038048; stroke-width: 1.0;"/><text fill="#000000" font-family="sans-serif" font-size="11" lengthAdjust="spacingAndGlyphs" textLength="84" x="28" y="91.0908">getName(): String</text></a><text fill="#888888" font-family="sans-serif" font-size="10" lengthAdjust="spacingAndGlyphs" textLength="184" x="0" y="118.3809">UMLDoclet 1.1.4, PlantUML 1.2019.05</text><!--
@startuml

    class PrincipalWrapper [[PrincipalWrapper.html]] {
        +PrincipalWrapper(Principal)
        +getPrincipal(): Principal
        +getName(): String
    }


    center footer UMLDoclet 1.1.4, PlantUML 1.2019.05
@enduml

PlantUML version 1.2019.05(Sat Apr 20 18:45:36 CEST 2019)
(APACHE source distribution)
Java Runtime: OpenJDK Runtime Environment
JVM: OpenJDK 64-Bit Server VM
Java Version: 1.8.0_212-b03
Operating System: Windows 10
OS Version: 10.0
Default Encoding: Cp1252
Language: es
Country: ES
--></g></svg>