<?xml version="1.0" encoding="UTF-8" standalone="no"?><svg xmlns="http://www.w3.org/2000/svg" xmlns:xlink="http://www.w3.org/1999/xlink" contentScriptType="application/ecmascript" contentStyleType="text/css" height="117px" preserveAspectRatio="none" style="width:365px;height:117px;" version="1.1" viewBox="0 0 365 117" width="365px" zoomAndPan="magnify"><defs><filter height="300%" id="f2vyyddgfl0gv" width="300%" x="-1" y="-1"><feGaussianBlur result="blurOut" stdDeviation="2.0"/><feColorMatrix in="blurOut" result="blurOut2" type="matrix" values="0 0 0 0 0 0 0 0 0 0 0 0 0 0 0 0 0 0 .4 0"/><feOffset dx="4.0" dy="4.0" in="blurOut2" result="blurOut3"/><feBlend in="SourceGraphic" in2="blurOut3" mode="normal"/></filter></defs><g><!--class WikiCallbackHandler--><a href="WikiCallbackHandler.html" target="_top" xlink:actuate="onRequest" xlink:show="new" xlink:title="WikiCallbackHandler.html" xlink:type="simple"><rect fill="#FEFECE" filter="url(#f2vyyddgfl0gv)" height="75.6719" id="WikiCallbackHandler" style="stroke: #A80036; stroke-width: 1.5;" width="348" x="6" y="8"/><ellipse cx="118.25" cy="24" fill="#ADD1B2" rx="11" ry="11" style="stroke: #A80036; stroke-width: 1.0;"/><path d="M121.0156,19.875 Q121.1719,19.6563 121.3594,19.5469 Q121.5469,19.4375 121.7656,19.4375 Q122.1406,19.4375 122.375,19.6953 Q122.6094,19.9531 122.6094,20.5625 L122.6094,22.0156 Q122.6094,22.625 122.375,22.8906 Q122.1406,23.1563 121.7656,23.1563 Q121.4219,23.1563 121.2188,22.9531 Q121.0156,22.7656 120.9063,22.25 Q120.8594,21.8906 120.6719,21.7031 Q120.3438,21.3281 119.7344,21.1094 Q119.125,20.8906 118.5,20.8906 Q117.7344,20.8906 117.1016,21.2188 Q116.4688,21.5469 115.9766,22.2969 Q115.4844,23.0469 115.4844,24.0781 L115.4844,25.1719 Q115.4844,26.4063 116.375,27.2266 Q117.2656,28.0469 118.8594,28.0469 Q119.7969,28.0469 120.4531,27.7969 Q120.8438,27.6406 121.2656,27.2031 Q121.5313,26.9375 121.6797,26.8594 Q121.8281,26.7813 122.0313,26.7813 Q122.3594,26.7813 122.6172,27.0391 Q122.875,27.2969 122.875,27.6406 Q122.875,27.9844 122.5313,28.3906 Q122.0313,28.9688 121.2344,29.2969 Q120.1563,29.75 118.8594,29.75 Q117.3438,29.75 116.1406,29.125 Q115.1563,28.625 114.4688,27.5547 Q113.7813,26.4844 113.7813,25.2031 L113.7813,24.0469 Q113.7813,22.7188 114.3984,21.5703 Q115.0156,20.4219 116.1094,19.8047 Q117.2031,19.1875 118.4375,19.1875 Q119.1719,19.1875 119.8203,19.3516 Q120.4688,19.5156 121.0156,19.875 Z "/><text fill="#000000" font-family="sans-serif" font-size="12" lengthAdjust="spacingAndGlyphs" textLength="115" x="138.75" y="28.9102">WikiCallbackHandler</text><line style="stroke: #A80036; stroke-width: 1.5;" x1="7" x2="353" y1="40" y2="40"/><line style="stroke: #A80036; stroke-width: 1.5;" x1="7" x2="353" y1="48" y2="48"/><ellipse cx="17" cy="60.418" fill="#84BE84" rx="3" ry="3" style="stroke: #038048; stroke-width: 1.0;"/><text fill="#000000" font-family="sans-serif" font-size="11" lengthAdjust="spacingAndGlyphs" textLength="322" x="26" y="63.4189">WikiCallbackHandler(WikiEngine, HttpServletRequest, String, String)</text><ellipse cx="17" cy="74.2539" fill="#84BE84" rx="3" ry="3" style="stroke: #038048; stroke-width: 1.0;"/><text fill="#000000" font-family="sans-serif" font-size="11" lengthAdjust="spacingAndGlyphs" textLength="112" x="26" y="77.2549">handle(Callback[]): void</text></a><text fill="#888888" font-family="sans-serif" font-size="10" lengthAdjust="spacingAndGlyphs" textLength="184" x="94" y="104.3809">UMLDoclet 1.1.4, PlantUML 1.2019.05</text><!--
@startuml

    class WikiCallbackHandler [[WikiCallbackHandler.html]] {
        +WikiCallbackHandler(WikiEngine, HttpServletRequest, String, String)
        +handle(Callback[]): void
    }


    center footer UMLDoclet 1.1.4, PlantUML 1.2019.05
@enduml

PlantUML version 1.2019.05(Sat Apr 20 18:45:36 CEST 2019)
(APACHE source distribution)
Java Runtime: OpenJDK Runtime Environment
JVM: OpenJDK 64-Bit Server VM
Java Version: 1.8.0_212-b03
Operating System: Windows 10
OS Version: 10.0
Default Encoding: Cp1252
Language: es
Country: ES
--></g></svg>