<?xml version="1.0" encoding="UTF-8" standalone="no"?><svg xmlns="http://www.w3.org/2000/svg" xmlns:xlink="http://www.w3.org/1999/xlink" contentScriptType="application/ecmascript" contentStyleType="text/css" height="241px" preserveAspectRatio="none" style="width:349px;height:241px;background:#FFFFFF;" version="1.1" viewBox="0 0 349 241" width="349px" zoomAndPan="magnify"><defs><filter height="300%" id="f14495b7a06mg5" width="300%" x="-1" y="-1"><feGaussianBlur result="blurOut" stdDeviation="2.0"/><feColorMatrix in="blurOut" result="blurOut2" type="matrix" values="0 0 0 0 0 0 0 0 0 0 0 0 0 0 0 0 0 0 .4 0"/><feOffset dx="4.0" dy="4.0" in="blurOut2" result="blurOut3"/><feBlend in="SourceGraphic" in2="blurOut3" mode="normal"/></filter></defs><g><!--MD5=[75d20303feb270dfa17a0b162a296feb]
class org.apache.wiki.content.DefaultPageRenamer--><a href="DefaultPageRenamer.html" target="_top" title="DefaultPageRenamer.html" xlink:actuate="onRequest" xlink:href="DefaultPageRenamer.html" xlink:show="new" xlink:title="DefaultPageRenamer.html" xlink:type="simple"><rect codeLine="5" fill="#FEFECE" filter="url(#f14495b7a06mg5)" height="71.5469" id="org.apache.wiki.content.DefaultPageRenamer" style="stroke:#A80036;stroke-width:1.5;" width="328" x="7" y="139"/><ellipse cx="93.25" cy="157.9688" fill="#ADD1B2" rx="11" ry="11" style="stroke:#A80036;stroke-width:1.0;"/><path d="M96.2188,163.6094 Q95.6406,163.9063 95,164.0469 Q94.3594,164.2031 93.6563,164.2031 Q91.1563,164.2031 89.8281,162.5625 Q88.5156,160.9063 88.5156,157.7813 Q88.5156,154.6563 89.8281,153 Q91.1563,151.3438 93.6563,151.3438 Q94.3594,151.3438 95,151.5 Q95.6563,151.6563 96.2188,151.9531 L96.2188,154.6719 Q95.5938,154.0938 95,153.8281 Q94.4063,153.5469 93.7813,153.5469 Q92.4375,153.5469 91.75,154.625 Q91.0625,155.6875 91.0625,157.7813 Q91.0625,159.875 91.75,160.9531 Q92.4375,162.0156 93.7813,162.0156 Q94.4063,162.0156 95,161.75 Q95.5938,161.4688 96.2188,160.8906 L96.2188,163.6094 Z " fill="#000000"/><text fill="#000000" font-family="sans-serif" font-size="14" lengthAdjust="spacing" textLength="147" x="113.75" y="156.9951">DefaultPageRenamer</text><text fill="#000000" font-family="sans-serif" font-size="10" lengthAdjust="spacing" textLength="114" x="130.25" y="169.5791">org.apache.wiki.content</text><line style="stroke:#A80036;stroke-width:1.5;" x1="8" x2="334" y1="176.9375" y2="176.9375"/><ellipse cx="18" cy="187.9375" fill="#84BE84" rx="3" ry="3" style="stroke:#038048;stroke-width:1.0;"/><text fill="#000000" font-family="sans-serif" font-size="11" lengthAdjust="spacing" textLength="302" x="27" y="191.1479">renamePage(Context, String, String, boolean): String</text><ellipse cx="18" cy="200.7422" fill="#84BE84" rx="3" ry="3" style="stroke:#038048;stroke-width:1.0;"/><text fill="#000000" font-family="sans-serif" font-size="11" lengthAdjust="spacing" textLength="239" x="27" y="203.9526">firePageRenameEvent(String, String): void</text></a><!--MD5=[c6f8d8d6992baa81226d892a3de9aa5f]
class org.apache.wiki.content.PageRenamer--><a href="PageRenamer.html" target="_top" title="PageRenamer.html" xlink:actuate="onRequest" xlink:href="PageRenamer.html" xlink:show="new" xlink:title="PageRenamer.html" xlink:type="simple"><rect codeLine="10" fill="#FEFECE" filter="url(#f14495b7a06mg5)" height="71.5469" id="org.apache.wiki.content.PageRenamer" style="stroke:#A80036;stroke-width:1.5;" width="326" x="8" y="7"/><ellipse cx="107.25" cy="25.9688" fill="#B4A7E5" rx="11" ry="11" style="stroke:#A80036;stroke-width:1.0;"/><path d="M103.1719,21.7344 L103.1719,19.5781 L110.5625,19.5781 L110.5625,21.7344 L108.0938,21.7344 L108.0938,29.8125 L110.5625,29.8125 L110.5625,31.9688 L103.1719,31.9688 L103.1719,29.8125 L105.6406,29.8125 L105.6406,21.7344 L103.1719,21.7344 Z " fill="#000000"/><text fill="#000000" font-family="sans-serif" font-size="14" font-style="italic" lengthAdjust="spacing" textLength="97" x="138.75" y="24.9951">PageRenamer</text><text fill="#000000" font-family="sans-serif" font-size="10" font-style="italic" lengthAdjust="spacing" textLength="119" x="127.75" y="37.5791">org.apache.wiki.content</text><line style="stroke:#A80036;stroke-width:1.5;" x1="9" x2="333" y1="44.9375" y2="44.9375"/><ellipse cx="19" cy="55.9375" fill="#84BE84" rx="3" ry="3" style="stroke:#038048;stroke-width:1.0;"/><text fill="#000000" font-family="sans-serif" font-size="11" font-style="italic" lengthAdjust="spacing" textLength="300" x="28" y="59.1479">renamePage(Context, String, String, boolean): String</text><ellipse cx="19" cy="68.7422" fill="#84BE84" rx="3" ry="3" style="stroke:#038048;stroke-width:1.0;"/><text fill="#000000" font-family="sans-serif" font-size="11" font-style="italic" lengthAdjust="spacing" textLength="240" x="28" y="71.9526">firePageRenameEvent(String, String): void</text></a><!--MD5=[ea15ee50d86092c2b552ebaa7fbc7ce0]
reverse link org.apache.wiki.content.PageRenamer to org.apache.wiki.content.DefaultPageRenamer--><path codeLine="15" d="M171,99.3792 C171,112.7962 171,126.7553 171,138.974 " fill="none" id="org.apache.wiki.content.PageRenamer-backto-org.apache.wiki.content.DefaultPageRenamer" style="stroke:#A80036;stroke-width:1.0;stroke-dasharray:7.0,7.0;"/><polygon fill="none" points="164.0001,99.0696,171,79.0696,178.0001,99.0695,164.0001,99.0696" style="stroke:#A80036;stroke-width:1.0;"/><text fill="#888888" font-family="sans-serif" font-size="10" lengthAdjust="spacing" textLength="186" x="75" y="232.8291">UMLDoclet 2.0.14, PlantUML 1.2021.9</text><!--MD5=[bccee11da10b94301f3e0130e9a45bf6]
@startuml
    set namespaceSeparator none
    hide empty fields
    hide empty methods

    class "<size:14>DefaultPageRenamer\n<size:10>org.apache.wiki.content" as org.apache.wiki.content.DefaultPageRenamer [[DefaultPageRenamer.html]] {
        +renamePage(Context, String, String, boolean): String
        +firePageRenameEvent(String, String): void
    }

    interface "<size:14>PageRenamer\n<size:10>org.apache.wiki.content" as org.apache.wiki.content.PageRenamer [[PageRenamer.html]] {
        {abstract} +renamePage(Context, String, String, boolean): String
        {abstract} +firePageRenameEvent(String, String): void
    }

    org.apache.wiki.content.PageRenamer <|.. org.apache.wiki.content.DefaultPageRenamer

    center footer UMLDoclet 2.0.14, PlantUML 1.2021.9
@enduml

PlantUML version 1.2021.9(Sun Jul 25 10:13:56 UTC 2021)
(APACHE source distribution)
Java Runtime: Java(TM) SE Runtime Environment
JVM: Java HotSpot(TM) 64-Bit Server VM
Default Encoding: ISO-8859-1
Language: en
Country: US
--></g></svg>