<?xml version="1.0" encoding="UTF-8" standalone="no"?><svg xmlns="http://www.w3.org/2000/svg" xmlns:xlink="http://www.w3.org/1999/xlink" contentScriptType="application/ecmascript" contentStyleType="text/css" height="866px" preserveAspectRatio="none" style="width:1156px;height:866px;" version="1.1" viewBox="0 0 1156 866" width="1156px" zoomAndPan="magnify"><defs><filter height="300%" id="f1f9xd2gn1ifro" width="300%" x="-1" y="-1"><feGaussianBlur result="blurOut" stdDeviation="2.0"/><feColorMatrix in="blurOut" result="blurOut2" type="matrix" values="0 0 0 0 0 0 0 0 0 0 0 0 0 0 0 0 0 0 .4 0"/><feOffset dx="4.0" dy="4.0" in="blurOut2" result="blurOut3"/><feBlend in="SourceGraphic" in2="blurOut3" mode="normal"/></filter></defs><g><!--MD5=[cefb3735973571d833b3829747bdbe52]
cluster org.apache.wiki.rss--><polygon fill="#FFFFFF" filter="url(#f1f9xd2gn1ifro)" points="16,133,177,133,184,155.2969,1134,155.2969,1134,838,16,838,16,133" style="stroke: #000000; stroke-width: 1.5;"/><line style="stroke: #000000; stroke-width: 1.5;" x1="16" x2="184" y1="155.2969" y2="155.2969"/><text fill="#000000" font-family="sans-serif" font-size="14" font-weight="bold" lengthAdjust="spacingAndGlyphs" textLength="155" x="20" y="147.9951">org.apache.wiki.rss</text><!--MD5=[06e4b2620a8b168056b961578cd367b2]
cluster org.apache.wiki.api.engine--><polygon fill="#FFFFFF" filter="url(#f1f9xd2gn1ifro)" points="86,6,304,6,311,28.2969,318,28.2969,318,102,86,102,86,6" style="stroke: #000000; stroke-width: 1.5;"/><line style="stroke: #000000; stroke-width: 1.5;" x1="86" x2="311" y1="28.2969" y2="28.2969"/><text fill="#000000" font-family="sans-serif" font-size="14" font-weight="bold" lengthAdjust="spacingAndGlyphs" textLength="212" x="90" y="20.9951">org.apache.wiki.api.engine</text><!--MD5=[0efc58285ba131b623584699d07d72ab]
cluster org.apache.wiki--><polygon fill="#FFFFFF" filter="url(#f1f9xd2gn1ifro)" points="410,6,541,6,548,28.2969,602,28.2969,602,102,410,102,410,6" style="stroke: #000000; stroke-width: 1.5;"/><line style="stroke: #000000; stroke-width: 1.5;" x1="410" x2="548" y1="28.2969" y2="28.2969"/><text fill="#000000" font-family="sans-serif" font-size="14" font-weight="bold" lengthAdjust="spacingAndGlyphs" textLength="125" x="414" y="20.9951">org.apache.wiki</text><!--MD5=[162b5f235675b57ed54f918f5239af89]
class org.apache.wiki.rss.Feed--><a href="Feed.html" target="_top" title="Feed.html" xlink:actuate="onRequest" xlink:href="Feed.html" xlink:show="new" xlink:title="Feed.html" xlink:type="simple"><rect codeLine="3" fill="#FEFECE" filter="url(#f1f9xd2gn1ifro)" height="329.7031" id="org.apache.wiki.rss.Feed" style="stroke: #A80036; stroke-width: 1.5;" width="276" x="670" y="172.5"/><ellipse cx="788.25" cy="188.5" fill="#A9DCDF" rx="11" ry="11" style="stroke: #A80036; stroke-width: 1.0;"/><path d="M788.3594,183.8438 L787.2031,188.9219 L789.5313,188.9219 L788.3594,183.8438 Z M786.875,181.6094 L789.8594,181.6094 L793.2188,194 L790.7656,194 L790,190.9375 L786.7188,190.9375 L785.9688,194 L783.5313,194 L786.875,181.6094 Z "/><text fill="#000000" font-family="sans-serif" font-size="12" font-style="italic" lengthAdjust="spacingAndGlyphs" textLength="31" x="808.75" y="192.6543">Feed</text><line style="stroke: #A80036; stroke-width: 1.5;" x1="671" x2="945" y1="204.5" y2="204.5"/><polygon fill="none" points="681,210.5,685,214.5,681,218.5,677,214.5" style="stroke: #B38D22; stroke-width: 1.0;"/><text fill="#000000" font-family="sans-serif" font-size="11" lengthAdjust="spacingAndGlyphs" textLength="105" x="690" y="218.7104">m_feedURL: String</text><polygon fill="none" points="681,223.3047,685,227.3047,681,231.3047,677,227.3047" style="stroke: #B38D22; stroke-width: 1.0;"/><text fill="#000000" font-family="sans-serif" font-size="11" lengthAdjust="spacingAndGlyphs" textLength="127" x="690" y="231.5151">m_channelTitle: String</text><polygon fill="none" points="681,236.1094,685,240.1094,681,244.1094,677,240.1094" style="stroke: #B38D22; stroke-width: 1.0;"/><text fill="#000000" font-family="sans-serif" font-size="11" lengthAdjust="spacingAndGlyphs" textLength="167" x="690" y="244.3198">m_channelDescription: String</text><polygon fill="none" points="681,248.9141,685,252.9141,681,256.9141,677,252.9141" style="stroke: #B38D22; stroke-width: 1.0;"/><text fill="#000000" font-family="sans-serif" font-size="11" lengthAdjust="spacingAndGlyphs" textLength="158" x="690" y="257.1245">m_channelLanguage: String</text><polygon fill="none" points="681,261.7188,685,265.7188,681,269.7188,677,265.7188" style="stroke: #B38D22; stroke-width: 1.0;"/><text fill="#000000" font-family="sans-serif" font-size="11" lengthAdjust="spacingAndGlyphs" textLength="132" x="690" y="269.9292">m_wikiContext: Context</text><polygon fill="none" points="681,274.5234,685,278.5234,681,282.5234,677,278.5234" style="stroke: #B38D22; stroke-width: 1.0;"/><text fill="#000000" font-family="sans-serif" font-size="11" lengthAdjust="spacingAndGlyphs" textLength="91" x="690" y="282.7339">m_mode: String</text><ellipse cx="681" cy="292.3281" fill="none" rx="3" ry="3" style="stroke: #038048; stroke-width: 1.0;"/><text fill="#000000" font-family="sans-serif" font-size="11" lengthAdjust="spacingAndGlyphs" text-decoration="underline" textLength="132" x="690" y="295.5386">VAR_BLOGNAME: String</text><line style="stroke: #A80036; stroke-width: 1.5;" x1="671" x2="945" y1="302.1328" y2="302.1328"/><ellipse cx="681" cy="313.1328" fill="#84BE84" rx="3" ry="3" style="stroke: #038048; stroke-width: 1.0;"/><text fill="#000000" font-family="sans-serif" font-size="11" lengthAdjust="spacingAndGlyphs" textLength="78" x="690" y="316.3433">Feed(Context)</text><ellipse cx="681" cy="325.9375" fill="#84BE84" rx="3" ry="3" style="stroke: #038048; stroke-width: 1.0;"/><text fill="#000000" font-family="sans-serif" font-size="11" lengthAdjust="spacingAndGlyphs" text-decoration="underline" textLength="166" x="690" y="329.1479">getSiteName(Context): String</text><ellipse cx="681" cy="338.7422" fill="#84BE84" rx="3" ry="3" style="stroke: #038048; stroke-width: 1.0;"/><text fill="#000000" font-family="sans-serif" font-size="11" lengthAdjust="spacingAndGlyphs" textLength="121" x="690" y="341.9526">setMode(String): void</text><ellipse cx="681" cy="351.5469" fill="#84BE84" rx="3" ry="3" style="stroke: #038048; stroke-width: 1.0;"/><text fill="#000000" font-family="sans-serif" font-size="11" lengthAdjust="spacingAndGlyphs" textLength="118" x="690" y="354.7573">addEntry(Entry): void</text><ellipse cx="681" cy="364.3516" fill="#84BE84" rx="3" ry="3" style="stroke: #038048; stroke-width: 1.0;"/><text fill="#000000" font-family="sans-serif" font-size="11" font-style="italic" lengthAdjust="spacingAndGlyphs" textLength="100" x="690" y="367.562">getString(): String</text><ellipse cx="681" cy="377.1563" fill="#84BE84" rx="3" ry="3" style="stroke: #038048; stroke-width: 1.0;"/><text fill="#000000" font-family="sans-serif" font-size="11" lengthAdjust="spacingAndGlyphs" textLength="178" x="690" y="380.3667">getChannelDescription(): String</text><ellipse cx="681" cy="389.9609" fill="#84BE84" rx="3" ry="3" style="stroke: #038048; stroke-width: 1.0;"/><text fill="#000000" font-family="sans-serif" font-size="11" lengthAdjust="spacingAndGlyphs" textLength="201" x="690" y="393.1714">setChannelDescription(String): void</text><ellipse cx="681" cy="402.7656" fill="#84BE84" rx="3" ry="3" style="stroke: #038048; stroke-width: 1.0;"/><text fill="#000000" font-family="sans-serif" font-size="11" lengthAdjust="spacingAndGlyphs" textLength="169" x="690" y="405.9761">getChannelLanguage(): String</text><ellipse cx="681" cy="415.5703" fill="#84BE84" rx="3" ry="3" style="stroke: #038048; stroke-width: 1.0;"/><text fill="#000000" font-family="sans-serif" font-size="11" lengthAdjust="spacingAndGlyphs" textLength="192" x="690" y="418.7808">setChannelLanguage(String): void</text><ellipse cx="681" cy="428.375" fill="#84BE84" rx="3" ry="3" style="stroke: #038048; stroke-width: 1.0;"/><text fill="#000000" font-family="sans-serif" font-size="11" lengthAdjust="spacingAndGlyphs" textLength="138" x="690" y="431.5854">getChannelTitle(): String</text><ellipse cx="681" cy="441.1797" fill="#84BE84" rx="3" ry="3" style="stroke: #038048; stroke-width: 1.0;"/><text fill="#000000" font-family="sans-serif" font-size="11" lengthAdjust="spacingAndGlyphs" textLength="161" x="690" y="444.3901">setChannelTitle(String): void</text><ellipse cx="681" cy="453.9844" fill="#84BE84" rx="3" ry="3" style="stroke: #038048; stroke-width: 1.0;"/><text fill="#000000" font-family="sans-serif" font-size="11" lengthAdjust="spacingAndGlyphs" textLength="116" x="690" y="457.1948">getFeedURL(): String</text><ellipse cx="681" cy="466.7891" fill="#84BE84" rx="3" ry="3" style="stroke: #038048; stroke-width: 1.0;"/><text fill="#000000" font-family="sans-serif" font-size="11" lengthAdjust="spacingAndGlyphs" textLength="139" x="690" y="469.9995">setFeedURL(String): void</text><polygon fill="#FFFF44" points="681,474.5938,685,478.5938,681,482.5938,677,478.5938" style="stroke: #B38D22; stroke-width: 1.0;"/><text fill="#000000" font-family="sans-serif" font-size="11" lengthAdjust="spacingAndGlyphs" textLength="250" x="690" y="482.8042">getMimeType(ServletContext, String): String</text><ellipse cx="681" cy="492.3984" fill="#84BE84" rx="3" ry="3" style="stroke: #038048; stroke-width: 1.0;"/><text fill="#000000" font-family="sans-serif" font-size="11" lengthAdjust="spacingAndGlyphs" text-decoration="underline" textLength="122" x="690" y="495.6089">format(String): String</text></a><!--MD5=[84cc67b1895f981e035e94563bf6fa31]
class org.apache.wiki.rss.DefaultRSSGenerator--><a href="DefaultRSSGenerator.html" target="_top" title="DefaultRSSGenerator.html" xlink:actuate="onRequest" xlink:href="DefaultRSSGenerator.html" xlink:show="new" xlink:title="DefaultRSSGenerator.html" xlink:type="simple"><rect codeLine="28" fill="#FEFECE" filter="url(#f1f9xd2gn1ifro)" height="176.0469" id="org.apache.wiki.rss.DefaultRSSGenerator" style="stroke: #A80036; stroke-width: 1.5;" width="355" x="24.5" y="654"/><ellipse cx="131.25" cy="670" fill="#ADD1B2" rx="11" ry="11" style="stroke: #A80036; stroke-width: 1.0;"/><path d="M134.2188,675.6406 Q133.6406,675.9375 133,676.0781 Q132.3594,676.2344 131.6563,676.2344 Q129.1563,676.2344 127.8281,674.5938 Q126.5156,672.9375 126.5156,669.8125 Q126.5156,666.6875 127.8281,665.0313 Q129.1563,663.375 131.6563,663.375 Q132.3594,663.375 133,663.5313 Q133.6563,663.6875 134.2188,663.9844 L134.2188,666.7031 Q133.5938,666.125 133,665.8594 Q132.4063,665.5781 131.7813,665.5781 Q130.4375,665.5781 129.75,666.6563 Q129.0625,667.7188 129.0625,669.8125 Q129.0625,671.9063 129.75,672.9844 Q130.4375,674.0469 131.7813,674.0469 Q132.4063,674.0469 133,673.7813 Q133.5938,673.5 134.2188,672.9219 L134.2188,675.6406 Z "/><text fill="#000000" font-family="sans-serif" font-size="12" lengthAdjust="spacingAndGlyphs" textLength="133" x="151.75" y="674.1543">DefaultRSSGenerator</text><line style="stroke: #A80036; stroke-width: 1.5;" x1="25.5" x2="378.5" y1="686" y2="686"/><line style="stroke: #A80036; stroke-width: 1.5;" x1="25.5" x2="378.5" y1="694" y2="694"/><ellipse cx="35.5" cy="705" fill="#84BE84" rx="3" ry="3" style="stroke: #038048; stroke-width: 1.0;"/><text fill="#000000" font-family="sans-serif" font-size="11" lengthAdjust="spacingAndGlyphs" textLength="234" x="44.5" y="708.2104">DefaultRSSGenerator(Engine, Properties)</text><ellipse cx="35.5" cy="717.8047" fill="#84BE84" rx="3" ry="3" style="stroke: #038048; stroke-width: 1.0;"/><text fill="#000000" font-family="sans-serif" font-size="11" lengthAdjust="spacingAndGlyphs" textLength="189" x="44.5" y="721.0151">initialize(Engine, Properties): void</text><ellipse cx="35.5" cy="730.6094" fill="#84BE84" rx="3" ry="3" style="stroke: #038048; stroke-width: 1.0;"/><text fill="#000000" font-family="sans-serif" font-size="11" lengthAdjust="spacingAndGlyphs" textLength="101" x="44.5" y="733.8198">generate(): String</text><ellipse cx="35.5" cy="743.4141" fill="#84BE84" rx="3" ry="3" style="stroke: #038048; stroke-width: 1.0;"/><text fill="#000000" font-family="sans-serif" font-size="11" lengthAdjust="spacingAndGlyphs" textLength="329" x="44.5" y="746.6245">generateFeed(Context, List&lt;Page&gt;, String, String): String</text><ellipse cx="35.5" cy="756.2188" fill="#84BE84" rx="3" ry="3" style="stroke: #038048; stroke-width: 1.0;"/><text fill="#000000" font-family="sans-serif" font-size="11" lengthAdjust="spacingAndGlyphs" textLength="116" x="44.5" y="759.4292">isEnabled(): boolean</text><ellipse cx="35.5" cy="769.0234" fill="#84BE84" rx="3" ry="3" style="stroke: #038048; stroke-width: 1.0;"/><text fill="#000000" font-family="sans-serif" font-size="11" lengthAdjust="spacingAndGlyphs" textLength="147" x="44.5" y="772.2339">setEnabled(boolean): void</text><ellipse cx="35.5" cy="781.8281" fill="#84BE84" rx="3" ry="3" style="stroke: #038048; stroke-width: 1.0;"/><text fill="#000000" font-family="sans-serif" font-size="11" lengthAdjust="spacingAndGlyphs" textLength="108" x="44.5" y="785.0386">getRssFile(): String</text><ellipse cx="35.5" cy="794.6328" fill="#84BE84" rx="3" ry="3" style="stroke: #038048; stroke-width: 1.0;"/><text fill="#000000" font-family="sans-serif" font-size="11" lengthAdjust="spacingAndGlyphs" textLength="242" x="44.5" y="797.8433">generateFullWikiRSS(Context, Feed): String</text><ellipse cx="35.5" cy="807.4375" fill="#84BE84" rx="3" ry="3" style="stroke: #038048; stroke-width: 1.0;"/><text fill="#000000" font-family="sans-serif" font-size="11" lengthAdjust="spacingAndGlyphs" textLength="325" x="44.5" y="810.6479">generateWikiPageRSS(Context, List&lt;Page&gt;, Feed): String</text><ellipse cx="35.5" cy="820.2422" fill="#84BE84" rx="3" ry="3" style="stroke: #038048; stroke-width: 1.0;"/><text fill="#000000" font-family="sans-serif" font-size="11" lengthAdjust="spacingAndGlyphs" textLength="301" x="44.5" y="823.4526">generateBlogRSS(Context, List&lt;Page&gt;, Feed): String</text></a><!--MD5=[af565d3f47da3ede56dab86a7c170b4d]
class org.apache.wiki.rss.RSSGenerator--><a href="RSSGenerator.html" target="_top" title="RSSGenerator.html" xlink:actuate="onRequest" xlink:href="RSSGenerator.html" xlink:show="new" xlink:title="RSSGenerator.html" xlink:type="simple"><rect codeLine="41" fill="#FEFECE" filter="url(#f1f9xd2gn1ifro)" height="355.3125" id="org.apache.wiki.rss.RSSGenerator" style="stroke: #A80036; stroke-width: 1.5;" width="352" x="26" y="160"/><ellipse cx="153.75" cy="176" fill="#B4A7E5" rx="11" ry="11" style="stroke: #A80036; stroke-width: 1.0;"/><path d="M149.6719,171.7656 L149.6719,169.6094 L157.0625,169.6094 L157.0625,171.7656 L154.5938,171.7656 L154.5938,179.8438 L157.0625,179.8438 L157.0625,182 L149.6719,182 L149.6719,179.8438 L152.1406,179.8438 L152.1406,171.7656 L149.6719,171.7656 Z "/><text fill="#000000" font-family="sans-serif" font-size="12" font-style="italic" lengthAdjust="spacingAndGlyphs" textLength="88" x="174.25" y="180.1543">RSSGenerator</text><line style="stroke: #A80036; stroke-width: 1.5;" x1="27" x2="377" y1="192" y2="192"/><ellipse cx="37" cy="203" fill="none" rx="3" ry="3" style="stroke: #038048; stroke-width: 1.0;"/><text fill="#000000" font-family="sans-serif" font-size="11" lengthAdjust="spacingAndGlyphs" text-decoration="underline" textLength="79" x="46" y="206.2104">RSS10: String</text><ellipse cx="37" cy="215.8047" fill="none" rx="3" ry="3" style="stroke: #038048; stroke-width: 1.0;"/><text fill="#000000" font-family="sans-serif" font-size="11" lengthAdjust="spacingAndGlyphs" text-decoration="underline" textLength="79" x="46" y="219.0151">RSS20: String</text><ellipse cx="37" cy="228.6094" fill="none" rx="3" ry="3" style="stroke: #038048; stroke-width: 1.0;"/><text fill="#000000" font-family="sans-serif" font-size="11" lengthAdjust="spacingAndGlyphs" text-decoration="underline" textLength="74" x="46" y="231.8198">ATOM: String</text><ellipse cx="37" cy="241.4141" fill="none" rx="3" ry="3" style="stroke: #038048; stroke-width: 1.0;"/><text fill="#000000" font-family="sans-serif" font-size="11" lengthAdjust="spacingAndGlyphs" text-decoration="underline" textLength="113" x="46" y="244.6245">MODE_BLOG: String</text><ellipse cx="37" cy="254.2188" fill="none" rx="3" ry="3" style="stroke: #038048; stroke-width: 1.0;"/><text fill="#000000" font-family="sans-serif" font-size="11" lengthAdjust="spacingAndGlyphs" text-decoration="underline" textLength="103" x="46" y="257.4292">MODE_WIKI: String</text><ellipse cx="37" cy="267.0234" fill="none" rx="3" ry="3" style="stroke: #038048; stroke-width: 1.0;"/><text fill="#000000" font-family="sans-serif" font-size="11" lengthAdjust="spacingAndGlyphs" text-decoration="underline" textLength="107" x="46" y="270.2339">MODE_FULL: String</text><ellipse cx="37" cy="279.8281" fill="none" rx="3" ry="3" style="stroke: #038048; stroke-width: 1.0;"/><text fill="#000000" font-family="sans-serif" font-size="11" lengthAdjust="spacingAndGlyphs" text-decoration="underline" textLength="211" x="46" y="283.0386">PROP_CHANNEL_DESCRIPTION: String</text><ellipse cx="37" cy="292.6328" fill="none" rx="3" ry="3" style="stroke: #038048; stroke-width: 1.0;"/><text fill="#000000" font-family="sans-serif" font-size="11" lengthAdjust="spacingAndGlyphs" text-decoration="underline" textLength="197" x="46" y="295.8433">PROP_CHANNEL_LANGUAGE: String</text><ellipse cx="37" cy="305.4375" fill="none" rx="3" ry="3" style="stroke: #038048; stroke-width: 1.0;"/><text fill="#000000" font-family="sans-serif" font-size="11" lengthAdjust="spacingAndGlyphs" text-decoration="underline" textLength="166" x="46" y="308.6479">PROP_CHANNEL_TITLE: String</text><ellipse cx="37" cy="318.2422" fill="none" rx="3" ry="3" style="stroke: #038048; stroke-width: 1.0;"/><text fill="#000000" font-family="sans-serif" font-size="11" lengthAdjust="spacingAndGlyphs" text-decoration="underline" textLength="166" x="46" y="321.4526">PROP_GENERATE_RSS: String</text><ellipse cx="37" cy="331.0469" fill="none" rx="3" ry="3" style="stroke: #038048; stroke-width: 1.0;"/><text fill="#000000" font-family="sans-serif" font-size="11" lengthAdjust="spacingAndGlyphs" text-decoration="underline" textLength="123" x="46" y="334.2573">PROP_RSSFILE: String</text><ellipse cx="37" cy="343.8516" fill="none" rx="3" ry="3" style="stroke: #038048; stroke-width: 1.0;"/><text fill="#000000" font-family="sans-serif" font-size="11" lengthAdjust="spacingAndGlyphs" text-decoration="underline" textLength="130" x="46" y="347.062">PROP_INTERVAL: String</text><ellipse cx="37" cy="356.6563" fill="none" rx="3" ry="3" style="stroke: #038048; stroke-width: 1.0;"/><text fill="#000000" font-family="sans-serif" font-size="11" lengthAdjust="spacingAndGlyphs" text-decoration="underline" textLength="153" x="46" y="359.8667">PROP_RSS_AUTHOR: String</text><ellipse cx="37" cy="369.4609" fill="none" rx="3" ry="3" style="stroke: #038048; stroke-width: 1.0;"/><text fill="#000000" font-family="sans-serif" font-size="11" lengthAdjust="spacingAndGlyphs" text-decoration="underline" textLength="185" x="46" y="372.6714">PROP_RSS_AUTHOREMAIL: String</text><line style="stroke: #A80036; stroke-width: 1.5;" x1="27" x2="377" y1="379.2656" y2="379.2656"/><ellipse cx="37" cy="390.2656" fill="#84BE84" rx="3" ry="3" style="stroke: #038048; stroke-width: 1.0;"/><text fill="#000000" font-family="sans-serif" font-size="11" font-style="italic" lengthAdjust="spacingAndGlyphs" textLength="100" x="46" y="393.4761">generate(): String</text><ellipse cx="37" cy="403.0703" fill="#84BE84" rx="3" ry="3" style="stroke: #038048; stroke-width: 1.0;"/><text fill="#000000" font-family="sans-serif" font-size="11" font-style="italic" lengthAdjust="spacingAndGlyphs" textLength="326" x="46" y="406.2808">generateFeed(Context, List&lt;Page&gt;, String, String): String</text><ellipse cx="37" cy="415.875" fill="#84BE84" rx="3" ry="3" style="stroke: #038048; stroke-width: 1.0;"/><text fill="#000000" font-family="sans-serif" font-size="11" font-style="italic" lengthAdjust="spacingAndGlyphs" textLength="115" x="46" y="419.0854">isEnabled(): boolean</text><ellipse cx="37" cy="428.6797" fill="#84BE84" rx="3" ry="3" style="stroke: #038048; stroke-width: 1.0;"/><text fill="#000000" font-family="sans-serif" font-size="11" font-style="italic" lengthAdjust="spacingAndGlyphs" textLength="147" x="46" y="431.8901">setEnabled(boolean): void</text><ellipse cx="37" cy="441.4844" fill="#84BE84" rx="3" ry="3" style="stroke: #038048; stroke-width: 1.0;"/><text fill="#000000" font-family="sans-serif" font-size="11" font-style="italic" lengthAdjust="spacingAndGlyphs" textLength="106" x="46" y="444.6948">getRssFile(): String</text><ellipse cx="37" cy="454.2891" fill="#84BE84" rx="3" ry="3" style="stroke: #038048; stroke-width: 1.0;"/><text fill="#000000" font-family="sans-serif" font-size="11" font-style="italic" lengthAdjust="spacingAndGlyphs" textLength="243" x="46" y="457.4995">generateFullWikiRSS(Context, Feed): String</text><ellipse cx="37" cy="467.0938" fill="#84BE84" rx="3" ry="3" style="stroke: #038048; stroke-width: 1.0;"/><text fill="#000000" font-family="sans-serif" font-size="11" font-style="italic" lengthAdjust="spacingAndGlyphs" textLength="325" x="46" y="470.3042">generateWikiPageRSS(Context, List&lt;Page&gt;, Feed): String</text><ellipse cx="37" cy="479.8984" fill="#84BE84" rx="3" ry="3" style="stroke: #038048; stroke-width: 1.0;"/><text fill="#000000" font-family="sans-serif" font-size="11" font-style="italic" lengthAdjust="spacingAndGlyphs" textLength="299" x="46" y="483.1089">generateBlogRSS(Context, List&lt;Page&gt;, Feed): String</text><ellipse cx="37" cy="492.7031" fill="#84BE84" rx="3" ry="3" style="stroke: #038048; stroke-width: 1.0;"/><text fill="#000000" font-family="sans-serif" font-size="11" lengthAdjust="spacingAndGlyphs" text-decoration="underline" textLength="122" x="46" y="495.9136">format(String): String</text><ellipse cx="37" cy="505.5078" fill="#84BE84" rx="3" ry="3" style="stroke: #038048; stroke-width: 1.0;"/><text fill="#000000" font-family="sans-serif" font-size="11" lengthAdjust="spacingAndGlyphs" text-decoration="underline" textLength="173" x="46" y="508.7183">getContentType(String): String</text></a><!--MD5=[d45d98c0f0db0aef2e9fd1bec61bf95e]
class org.apache.wiki.rss.RSS20Feed--><a href="RSS20Feed.html" target="_top" title="RSS20Feed.html" xlink:actuate="onRequest" xlink:href="RSS20Feed.html" xlink:show="new" xlink:title="RSS20Feed.html" xlink:type="simple"><rect codeLine="68" fill="#FEFECE" filter="url(#f1f9xd2gn1ifro)" height="73.6094" id="org.apache.wiki.rss.RSS20Feed" style="stroke: #A80036; stroke-width: 1.5;" width="141" x="984.5" y="705"/><ellipse cx="1016.6" cy="721" fill="#ADD1B2" rx="11" ry="11" style="stroke: #A80036; stroke-width: 1.0;"/><path d="M1019.5688,726.6406 Q1018.9906,726.9375 1018.35,727.0781 Q1017.7094,727.2344 1017.0063,727.2344 Q1014.5063,727.2344 1013.1781,725.5938 Q1011.8656,723.9375 1011.8656,720.8125 Q1011.8656,717.6875 1013.1781,716.0313 Q1014.5063,714.375 1017.0063,714.375 Q1017.7094,714.375 1018.35,714.5313 Q1019.0063,714.6875 1019.5688,714.9844 L1019.5688,717.7031 Q1018.9438,717.125 1018.35,716.8594 Q1017.7563,716.5781 1017.1313,716.5781 Q1015.7875,716.5781 1015.1,717.6563 Q1014.4125,718.7188 1014.4125,720.8125 Q1014.4125,722.9063 1015.1,723.9844 Q1015.7875,725.0469 1017.1313,725.0469 Q1017.7563,725.0469 1018.35,724.7813 Q1018.9438,724.5 1019.5688,723.9219 L1019.5688,726.6406 Z "/><text fill="#000000" font-family="sans-serif" font-size="12" lengthAdjust="spacingAndGlyphs" textLength="71" x="1034.4" y="725.1543">RSS20Feed</text><line style="stroke: #A80036; stroke-width: 1.5;" x1="985.5" x2="1124.5" y1="737" y2="737"/><line style="stroke: #A80036; stroke-width: 1.5;" x1="985.5" x2="1124.5" y1="745" y2="745"/><ellipse cx="995.5" cy="756" fill="#84BE84" rx="3" ry="3" style="stroke: #038048; stroke-width: 1.0;"/><text fill="#000000" font-family="sans-serif" font-size="11" lengthAdjust="spacingAndGlyphs" textLength="115" x="1004.5" y="759.2104">RSS20Feed(Context)</text><ellipse cx="995.5" cy="768.8047" fill="#84BE84" rx="3" ry="3" style="stroke: #038048; stroke-width: 1.0;"/><text fill="#000000" font-family="sans-serif" font-size="11" lengthAdjust="spacingAndGlyphs" textLength="102" x="1004.5" y="772.0151">getString(): String</text></a><!--MD5=[31504a94879cf9d7139415fdc0fbf03c]
class org.apache.wiki.rss.RSS10Feed--><a href="RSS10Feed.html" target="_top" title="RSS10Feed.html" xlink:actuate="onRequest" xlink:href="RSS10Feed.html" xlink:show="new" xlink:title="RSS10Feed.html" xlink:type="simple"><rect codeLine="73" fill="#FEFECE" filter="url(#f1f9xd2gn1ifro)" height="73.6094" id="org.apache.wiki.rss.RSS10Feed" style="stroke: #A80036; stroke-width: 1.5;" width="141" x="414.5" y="705"/><ellipse cx="446.6" cy="721" fill="#ADD1B2" rx="11" ry="11" style="stroke: #A80036; stroke-width: 1.0;"/><path d="M449.5688,726.6406 Q448.9906,726.9375 448.35,727.0781 Q447.7094,727.2344 447.0063,727.2344 Q444.5063,727.2344 443.1781,725.5938 Q441.8656,723.9375 441.8656,720.8125 Q441.8656,717.6875 443.1781,716.0313 Q444.5063,714.375 447.0063,714.375 Q447.7094,714.375 448.35,714.5313 Q449.0063,714.6875 449.5688,714.9844 L449.5688,717.7031 Q448.9438,717.125 448.35,716.8594 Q447.7563,716.5781 447.1313,716.5781 Q445.7875,716.5781 445.1,717.6563 Q444.4125,718.7188 444.4125,720.8125 Q444.4125,722.9063 445.1,723.9844 Q445.7875,725.0469 447.1313,725.0469 Q447.7563,725.0469 448.35,724.7813 Q448.9438,724.5 449.5688,723.9219 L449.5688,726.6406 Z "/><text fill="#000000" font-family="sans-serif" font-size="12" lengthAdjust="spacingAndGlyphs" textLength="71" x="464.4" y="725.1543">RSS10Feed</text><line style="stroke: #A80036; stroke-width: 1.5;" x1="415.5" x2="554.5" y1="737" y2="737"/><line style="stroke: #A80036; stroke-width: 1.5;" x1="415.5" x2="554.5" y1="745" y2="745"/><ellipse cx="425.5" cy="756" fill="#84BE84" rx="3" ry="3" style="stroke: #038048; stroke-width: 1.0;"/><text fill="#000000" font-family="sans-serif" font-size="11" lengthAdjust="spacingAndGlyphs" textLength="115" x="434.5" y="759.2104">RSS10Feed(Context)</text><ellipse cx="425.5" cy="768.8047" fill="#84BE84" rx="3" ry="3" style="stroke: #038048; stroke-width: 1.0;"/><text fill="#000000" font-family="sans-serif" font-size="11" lengthAdjust="spacingAndGlyphs" textLength="102" x="434.5" y="772.0151">getString(): String</text></a><!--MD5=[7d5fbccfcb062bdf576b52c940899d16]
class org.apache.wiki.rss.Entry--><a href="Entry.html" target="_top" title="Entry.html" xlink:actuate="onRequest" xlink:href="Entry.html" xlink:show="new" xlink:title="Entry.html" xlink:type="simple"><rect codeLine="78" fill="#FEFECE" filter="url(#f1f9xd2gn1ifro)" height="176.0469" id="org.apache.wiki.rss.Entry" style="stroke: #A80036; stroke-width: 1.5;" width="161" x="590.5" y="654"/><ellipse cx="650.75" cy="670" fill="#ADD1B2" rx="11" ry="11" style="stroke: #A80036; stroke-width: 1.0;"/><path d="M653.7188,675.6406 Q653.1406,675.9375 652.5,676.0781 Q651.8594,676.2344 651.1563,676.2344 Q648.6563,676.2344 647.3281,674.5938 Q646.0156,672.9375 646.0156,669.8125 Q646.0156,666.6875 647.3281,665.0313 Q648.6563,663.375 651.1563,663.375 Q651.8594,663.375 652.5,663.5313 Q653.1563,663.6875 653.7188,663.9844 L653.7188,666.7031 Q653.0938,666.125 652.5,665.8594 Q651.9063,665.5781 651.2813,665.5781 Q649.9375,665.5781 649.25,666.6563 Q648.5625,667.7188 648.5625,669.8125 Q648.5625,671.9063 649.25,672.9844 Q649.9375,674.0469 651.2813,674.0469 Q651.9063,674.0469 652.5,673.7813 Q653.0938,673.5 653.7188,672.9219 L653.7188,675.6406 Z "/><text fill="#000000" font-family="sans-serif" font-size="12" lengthAdjust="spacingAndGlyphs" textLength="32" x="671.25" y="674.1543">Entry</text><line style="stroke: #A80036; stroke-width: 1.5;" x1="591.5" x2="750.5" y1="686" y2="686"/><line style="stroke: #A80036; stroke-width: 1.5;" x1="591.5" x2="750.5" y1="694" y2="694"/><ellipse cx="601.5" cy="705" fill="#84BE84" rx="3" ry="3" style="stroke: #038048; stroke-width: 1.0;"/><text fill="#000000" font-family="sans-serif" font-size="11" lengthAdjust="spacingAndGlyphs" textLength="128" x="610.5" y="708.2104">setAuthor(String): void</text><ellipse cx="601.5" cy="717.8047" fill="#84BE84" rx="3" ry="3" style="stroke: #038048; stroke-width: 1.0;"/><text fill="#000000" font-family="sans-serif" font-size="11" lengthAdjust="spacingAndGlyphs" textLength="105" x="610.5" y="721.0151">getAuthor(): String</text><ellipse cx="601.5" cy="730.6094" fill="#84BE84" rx="3" ry="3" style="stroke: #038048; stroke-width: 1.0;"/><text fill="#000000" font-family="sans-serif" font-size="11" lengthAdjust="spacingAndGlyphs" textLength="90" x="610.5" y="733.8198">getPage(): Page</text><ellipse cx="601.5" cy="743.4141" fill="#84BE84" rx="3" ry="3" style="stroke: #038048; stroke-width: 1.0;"/><text fill="#000000" font-family="sans-serif" font-size="11" lengthAdjust="spacingAndGlyphs" textLength="113" x="610.5" y="746.6245">setPage(Page): void</text><ellipse cx="601.5" cy="756.2188" fill="#84BE84" rx="3" ry="3" style="stroke: #038048; stroke-width: 1.0;"/><text fill="#000000" font-family="sans-serif" font-size="11" lengthAdjust="spacingAndGlyphs" textLength="115" x="610.5" y="759.4292">setTitle(String): void</text><ellipse cx="601.5" cy="769.0234" fill="#84BE84" rx="3" ry="3" style="stroke: #038048; stroke-width: 1.0;"/><text fill="#000000" font-family="sans-serif" font-size="11" lengthAdjust="spacingAndGlyphs" textLength="92" x="610.5" y="772.2339">getTitle(): String</text><ellipse cx="601.5" cy="781.8281" fill="#84BE84" rx="3" ry="3" style="stroke: #038048; stroke-width: 1.0;"/><text fill="#000000" font-family="sans-serif" font-size="11" lengthAdjust="spacingAndGlyphs" textLength="112" x="610.5" y="785.0386">setURL(String): void</text><ellipse cx="601.5" cy="794.6328" fill="#84BE84" rx="3" ry="3" style="stroke: #038048; stroke-width: 1.0;"/><text fill="#000000" font-family="sans-serif" font-size="11" lengthAdjust="spacingAndGlyphs" textLength="89" x="610.5" y="797.8433">getURL(): String</text><ellipse cx="601.5" cy="807.4375" fill="#84BE84" rx="3" ry="3" style="stroke: #038048; stroke-width: 1.0;"/><text fill="#000000" font-family="sans-serif" font-size="11" lengthAdjust="spacingAndGlyphs" textLength="135" x="610.5" y="810.6479">setContent(String): void</text><ellipse cx="601.5" cy="820.2422" fill="#84BE84" rx="3" ry="3" style="stroke: #038048; stroke-width: 1.0;"/><text fill="#000000" font-family="sans-serif" font-size="11" lengthAdjust="spacingAndGlyphs" textLength="112" x="610.5" y="823.4526">getContent(): String</text></a><!--MD5=[d36d8d6ffe1c01a82a34749470ee719f]
class org.apache.wiki.rss.RSSThread--><a href="RSSThread.html" target="_top" title="RSSThread.html" xlink:actuate="onRequest" xlink:href="RSSThread.html" xlink:show="new" xlink:title="RSSThread.html" xlink:type="simple"><rect codeLine="91" fill="#FEFECE" filter="url(#f1f9xd2gn1ifro)" height="86.4141" id="org.apache.wiki.rss.RSSThread" style="stroke: #A80036; stroke-width: 1.5;" width="184" x="414" y="294.5"/><ellipse cx="467.75" cy="310.5" fill="#ADD1B2" rx="11" ry="11" style="stroke: #A80036; stroke-width: 1.0;"/><path d="M470.7188,316.1406 Q470.1406,316.4375 469.5,316.5781 Q468.8594,316.7344 468.1563,316.7344 Q465.6563,316.7344 464.3281,315.0938 Q463.0156,313.4375 463.0156,310.3125 Q463.0156,307.1875 464.3281,305.5313 Q465.6563,303.875 468.1563,303.875 Q468.8594,303.875 469.5,304.0313 Q470.1563,304.1875 470.7188,304.4844 L470.7188,307.2031 Q470.0938,306.625 469.5,306.3594 Q468.9063,306.0781 468.2813,306.0781 Q466.9375,306.0781 466.25,307.1563 Q465.5625,308.2188 465.5625,310.3125 Q465.5625,312.4063 466.25,313.4844 Q466.9375,314.5469 468.2813,314.5469 Q468.9063,314.5469 469.5,314.2813 Q470.0938,314 470.7188,313.4219 L470.7188,316.1406 Z "/><text fill="#000000" font-family="sans-serif" font-size="12" lengthAdjust="spacingAndGlyphs" textLength="68" x="488.25" y="314.6543">RSSThread</text><line style="stroke: #A80036; stroke-width: 1.5;" x1="415" x2="597" y1="326.5" y2="326.5"/><line style="stroke: #A80036; stroke-width: 1.5;" x1="415" x2="597" y1="334.5" y2="334.5"/><ellipse cx="425" cy="345.5" fill="#84BE84" rx="3" ry="3" style="stroke: #038048; stroke-width: 1.0;"/><text fill="#000000" font-family="sans-serif" font-size="11" lengthAdjust="spacingAndGlyphs" textLength="158" x="434" y="348.7104">RSSThread(Engine, File, int)</text><ellipse cx="425" cy="358.3047" fill="#84BE84" rx="3" ry="3" style="stroke: #038048; stroke-width: 1.0;"/><text fill="#000000" font-family="sans-serif" font-size="11" lengthAdjust="spacingAndGlyphs" textLength="107" x="434" y="361.5151">startupTask(): void</text><ellipse cx="425" cy="371.1094" fill="#84BE84" rx="3" ry="3" style="stroke: #038048; stroke-width: 1.0;"/><text fill="#000000" font-family="sans-serif" font-size="11" lengthAdjust="spacingAndGlyphs" textLength="132" x="434" y="374.3198">backgroundTask(): void</text></a><!--MD5=[dabbab17409e2d3abae6376238320a84]
class org.apache.wiki.rss.AtomFeed--><a href="AtomFeed.html" target="_top" title="AtomFeed.html" xlink:actuate="onRequest" xlink:href="AtomFeed.html" xlink:show="new" xlink:title="AtomFeed.html" xlink:type="simple"><rect codeLine="97" fill="#FEFECE" filter="url(#f1f9xd2gn1ifro)" height="86.4141" id="org.apache.wiki.rss.AtomFeed" style="stroke: #A80036; stroke-width: 1.5;" width="162" x="787" y="699"/><ellipse cx="832.25" cy="715" fill="#ADD1B2" rx="11" ry="11" style="stroke: #A80036; stroke-width: 1.0;"/><path d="M835.2188,720.6406 Q834.6406,720.9375 834,721.0781 Q833.3594,721.2344 832.6563,721.2344 Q830.1563,721.2344 828.8281,719.5938 Q827.5156,717.9375 827.5156,714.8125 Q827.5156,711.6875 828.8281,710.0313 Q830.1563,708.375 832.6563,708.375 Q833.3594,708.375 834,708.5313 Q834.6563,708.6875 835.2188,708.9844 L835.2188,711.7031 Q834.5938,711.125 834,710.8594 Q833.4063,710.5781 832.7813,710.5781 Q831.4375,710.5781 830.75,711.6563 Q830.0625,712.7188 830.0625,714.8125 Q830.0625,716.9063 830.75,717.9844 Q831.4375,719.0469 832.7813,719.0469 Q833.4063,719.0469 834,718.7813 Q834.5938,718.5 835.2188,717.9219 L835.2188,720.6406 Z "/><text fill="#000000" font-family="sans-serif" font-size="12" lengthAdjust="spacingAndGlyphs" textLength="63" x="852.75" y="719.1543">AtomFeed</text><line style="stroke: #A80036; stroke-width: 1.5;" x1="788" x2="948" y1="731" y2="731"/><ellipse cx="798" cy="742" fill="none" rx="3" ry="3" style="stroke: #038048; stroke-width: 1.0;"/><text fill="#000000" font-family="sans-serif" font-size="11" lengthAdjust="spacingAndGlyphs" text-decoration="underline" textLength="136" x="807" y="745.2104">RFC3339FORMAT: String</text><line style="stroke: #A80036; stroke-width: 1.5;" x1="788" x2="948" y1="751.8047" y2="751.8047"/><ellipse cx="798" cy="762.8047" fill="#84BE84" rx="3" ry="3" style="stroke: #038048; stroke-width: 1.0;"/><text fill="#000000" font-family="sans-serif" font-size="11" lengthAdjust="spacingAndGlyphs" textLength="107" x="807" y="766.0151">AtomFeed(Context)</text><ellipse cx="798" cy="775.6094" fill="#84BE84" rx="3" ry="3" style="stroke: #038048; stroke-width: 1.0;"/><text fill="#000000" font-family="sans-serif" font-size="11" lengthAdjust="spacingAndGlyphs" textLength="102" x="807" y="778.8198">getString(): String</text></a><!--MD5=[b42cfcd16e39a0fd6a37261d508d7333]
class org.apache.wiki.api.engine.Initializable--><a href="../api/engine/Initializable.html" target="_top" title="../api/engine/Initializable.html" xlink:actuate="onRequest" xlink:href="../api/engine/Initializable.html" xlink:show="new" xlink:title="../api/engine/Initializable.html" xlink:type="simple"><rect codeLine="113" fill="#FEFECE" filter="url(#f1f9xd2gn1ifro)" height="60.8047" id="org.apache.wiki.api.engine.Initializable" style="stroke: #A80036; stroke-width: 1.5;" width="216" x="94" y="33"/><ellipse cx="162.75" cy="49" fill="#B4A7E5" rx="11" ry="11" style="stroke: #A80036; stroke-width: 1.0;"/><path d="M158.6719,44.7656 L158.6719,42.6094 L166.0625,42.6094 L166.0625,44.7656 L163.5938,44.7656 L163.5938,52.8438 L166.0625,52.8438 L166.0625,55 L158.6719,55 L158.6719,52.8438 L161.1406,52.8438 L161.1406,44.7656 L158.6719,44.7656 Z "/><text fill="#000000" font-family="sans-serif" font-size="12" font-style="italic" lengthAdjust="spacingAndGlyphs" textLength="70" x="183.25" y="53.1543">Initializable</text><line style="stroke: #A80036; stroke-width: 1.5;" x1="95" x2="309" y1="65" y2="65"/><line style="stroke: #A80036; stroke-width: 1.5;" x1="95" x2="309" y1="73" y2="73"/><ellipse cx="105" cy="84" fill="#84BE84" rx="3" ry="3" style="stroke: #038048; stroke-width: 1.0;"/><text fill="#000000" font-family="sans-serif" font-size="11" font-style="italic" lengthAdjust="spacingAndGlyphs" textLength="190" x="114" y="87.2104">initialize(Engine, Properties): void</text></a><!--MD5=[66b4360082e1a13d0f52b45667453058]
class org.apache.wiki.WikiBackgroundThread--><a href="../WikiBackgroundThread.html" target="_top" title="../WikiBackgroundThread.html" xlink:actuate="onRequest" xlink:href="../WikiBackgroundThread.html" xlink:show="new" xlink:title="../WikiBackgroundThread.html" xlink:type="simple"><rect codeLine="119" fill="#FEFECE" filter="url(#f1f9xd2gn1ifro)" height="60.8047" id="org.apache.wiki.WikiBackgroundThread" style="stroke: #A80036; stroke-width: 1.5;" width="176" x="418" y="33"/><ellipse cx="433" cy="49" fill="#A9DCDF" rx="11" ry="11" style="stroke: #A80036; stroke-width: 1.0;"/><path d="M433.1094,44.3438 L431.9531,49.4219 L434.2813,49.4219 L433.1094,44.3438 Z M431.625,42.1094 L434.6094,42.1094 L437.9688,54.5 L435.5156,54.5 L434.75,51.4375 L431.4688,51.4375 L430.7188,54.5 L428.2813,54.5 L431.625,42.1094 Z "/><text fill="#000000" font-family="sans-serif" font-size="12" font-style="italic" lengthAdjust="spacingAndGlyphs" textLength="144" x="447" y="53.1543">WikiBackgroundThread</text><line style="stroke: #A80036; stroke-width: 1.5;" x1="419" x2="593" y1="65" y2="65"/><line style="stroke: #A80036; stroke-width: 1.5;" x1="419" x2="593" y1="73" y2="73"/><ellipse cx="429" cy="84" fill="#84BE84" rx="3" ry="3" style="stroke: #038048; stroke-width: 1.0;"/><text fill="#000000" font-family="sans-serif" font-size="11" font-style="italic" lengthAdjust="spacingAndGlyphs" textLength="132" x="438" y="87.2104">backgroundTask(): void</text></a><!--MD5=[def8e3fceccf0eb80a6a0f6ddec64389]
link org.apache.wiki.rss.Feed to org.apache.wiki.rss.Entry--><path codeLine="103" d="M752.0793,502.609 C735.1948,552.4614 717.2543,605.4315 702.5535,648.8365 " fill="none" id="org.apache.wiki.rss.Feed-to-org.apache.wiki.rss.Entry" style="stroke: #A80036; stroke-width: 1.0;"/><polygon fill="#A80036" points="700.8685,653.8115,707.5442,646.5703,702.4725,649.0758,699.967,644.004,700.8685,653.8115" style="stroke: #A80036; stroke-width: 1.0;"/><text fill="#000000" font-family="sans-serif" font-size="13" lengthAdjust="spacingAndGlyphs" textLength="64" x="728" y="589.0669">m_entries</text><text fill="#000000" font-family="sans-serif" font-size="13" lengthAdjust="spacingAndGlyphs" textLength="7" x="696.0521" y="642.9577">*</text><!--MD5=[222abc3ffba691eeb446dfd28b102717]
reverse link org.apache.wiki.rss.RSSGenerator to org.apache.wiki.rss.DefaultRSSGenerator--><path codeLine="104" d="M202,535.2797 C202,576.9262 202,618.8256 202,653.9098 " fill="none" id="org.apache.wiki.rss.RSSGenerator-backto-org.apache.wiki.rss.DefaultRSSGenerator" style="stroke: #A80036; stroke-width: 1.0; stroke-dasharray: 7.0,7.0;"/><polygon fill="none" points="195.0001,535.2139,202,515.2139,209.0001,535.2139,195.0001,535.2139" style="stroke: #A80036; stroke-width: 1.0;"/><!--MD5=[f6d09d6ea70772e41ecae64152889d60]
reverse link org.apache.wiki.api.engine.Initializable to org.apache.wiki.rss.RSSGenerator--><path codeLine="105" d="M202,114.4118 C202,128.0144 202,143.5208 202,159.8764 " fill="none" id="org.apache.wiki.api.engine.Initializable-backto-org.apache.wiki.rss.RSSGenerator" style="stroke: #A80036; stroke-width: 1.0;"/><polygon fill="none" points="195.0001,114.1338,202,94.1337,209.0001,114.1337,195.0001,114.1338" style="stroke: #A80036; stroke-width: 1.0;"/><!--MD5=[229092be556e41e68a1aac50860c7609]
reverse link org.apache.wiki.rss.Feed to org.apache.wiki.rss.RSS20Feed--><path codeLine="106" d="M919.2778,519.7343 C961.7603,589.3059 1006.1909,662.0678 1032.1965,704.6558 " fill="none" id="org.apache.wiki.rss.Feed-backto-org.apache.wiki.rss.RSS20Feed" style="stroke: #A80036; stroke-width: 1.0;"/><polygon fill="none" points="913.2694,523.3264,908.8206,502.609,925.2179,516.0303,913.2694,523.3264" style="stroke: #A80036; stroke-width: 1.0;"/><!--MD5=[85c9beffd3609efaeb74103baaac4be8]
reverse link org.apache.wiki.rss.Feed to org.apache.wiki.rss.RSS10Feed--><path codeLine="107" d="M663.5396,518.4109 C607.6668,588.3817 549.0429,661.7977 514.8199,704.6558 " fill="none" id="org.apache.wiki.rss.Feed-backto-org.apache.wiki.rss.RSS10Feed" style="stroke: #A80036; stroke-width: 1.0;"/><polygon fill="none" points="658.2078,513.8698,676.1577,502.609,669.1479,522.6057,658.2078,513.8698" style="stroke: #A80036; stroke-width: 1.0;"/><!--MD5=[2d208e75d3fa8aca4970939eb76dad7e]
reverse link org.apache.wiki.WikiBackgroundThread to org.apache.wiki.rss.RSSThread--><path codeLine="108" d="M506,114.4276 C506,166.0948 506,245.2147 506,294.0265 " fill="none" id="org.apache.wiki.WikiBackgroundThread-backto-org.apache.wiki.rss.RSSThread" style="stroke: #A80036; stroke-width: 1.0;"/><polygon fill="none" points="499.0001,114.1338,506,94.1337,513.0001,114.1337,499.0001,114.1338" style="stroke: #A80036; stroke-width: 1.0;"/><!--MD5=[c14a4846d51cfe4f13d1494e906e6372]
reverse link org.apache.wiki.rss.Feed to org.apache.wiki.rss.AtomFeed--><path codeLine="109" d="M835.4286,522.4144 C845.1679,588.0733 855.2712,656.187 861.5924,698.802 " fill="none" id="org.apache.wiki.rss.Feed-backto-org.apache.wiki.rss.AtomFeed" style="stroke: #A80036; stroke-width: 1.0;"/><polygon fill="none" points="828.5012,523.4197,832.4908,502.609,842.3497,521.3655,828.5012,523.4197" style="stroke: #A80036; stroke-width: 1.0;"/><text fill="#888888" font-family="sans-serif" font-size="10" lengthAdjust="spacingAndGlyphs" textLength="192" x="473" y="853.2822">UMLDoclet 2.0.12, PlantUML 1.2020.16</text><!--MD5=[d657c7c899864a4a5775a210100c849d]
@startuml
    namespace org.apache.wiki.rss {

        abstract class Feed [[Feed.html]] {
            #m_feedURL: String
            #m_channelTitle: String
            #m_channelDescription: String
            #m_channelLanguage: String
            #m_wikiContext: Context
            #m_mode: String
            {static} +VAR_BLOGNAME: String
            +Feed(Context)
            {static} +getSiteName(Context): String
            +setMode(String): void
            +addEntry(Entry): void
            {abstract} +getString(): String
            +getChannelDescription(): String
            +setChannelDescription(String): void
            +getChannelLanguage(): String
            +setChannelLanguage(String): void
            +getChannelTitle(): String
            +setChannelTitle(String): void
            +getFeedURL(): String
            +setFeedURL(String): void
            #getMimeType(ServletContext, String): String
            {static} +format(String): String
        }

        class DefaultRSSGenerator [[DefaultRSSGenerator.html]] {
            +DefaultRSSGenerator(Engine, Properties)
            +initialize(Engine, Properties): void
            +generate(): String
            +generateFeed(Context, List<Page>, String, String): String
            +isEnabled(): boolean
            +setEnabled(boolean): void
            +getRssFile(): String
            +generateFullWikiRSS(Context, Feed): String
            +generateWikiPageRSS(Context, List<Page>, Feed): String
            +generateBlogRSS(Context, List<Page>, Feed): String
        }

        interface RSSGenerator [[RSSGenerator.html]] {
            {static} +RSS10: String
            {static} +RSS20: String
            {static} +ATOM: String
            {static} +MODE_BLOG: String
            {static} +MODE_WIKI: String
            {static} +MODE_FULL: String
            {static} +PROP_CHANNEL_DESCRIPTION: String
            {static} +PROP_CHANNEL_LANGUAGE: String
            {static} +PROP_CHANNEL_TITLE: String
            {static} +PROP_GENERATE_RSS: String
            {static} +PROP_RSSFILE: String
            {static} +PROP_INTERVAL: String
            {static} +PROP_RSS_AUTHOR: String
            {static} +PROP_RSS_AUTHOREMAIL: String
            {abstract} +generate(): String
            {abstract} +generateFeed(Context, List<Page>, String, String): String
            {abstract} +isEnabled(): boolean
            {abstract} +setEnabled(boolean): void
            {abstract} +getRssFile(): String
            {abstract} +generateFullWikiRSS(Context, Feed): String
            {abstract} +generateWikiPageRSS(Context, List<Page>, Feed): String
            {abstract} +generateBlogRSS(Context, List<Page>, Feed): String
            {static} +format(String): String
            {static} +getContentType(String): String
        }

        class RSS20Feed [[RSS20Feed.html]] {
            +RSS20Feed(Context)
            +getString(): String
        }

        class RSS10Feed [[RSS10Feed.html]] {
            +RSS10Feed(Context)
            +getString(): String
        }

        class Entry [[Entry.html]] {
            +setAuthor(String): void
            +getAuthor(): String
            +getPage(): Page
            +setPage(Page): void
            +setTitle(String): void
            +getTitle(): String
            +setURL(String): void
            +getURL(): String
            +setContent(String): void
            +getContent(): String
        }

        class RSSThread [[RSSThread.html]] {
            +RSSThread(Engine, File, int)
            +startupTask(): void
            +backgroundTask(): void
        }

        class AtomFeed [[AtomFeed.html]] {
            {static} +RFC3339FORMAT: String
            +AtomFeed(Context)
            +getString(): String
        }

        Feed - -> "*" Entry: m_entries
        RSSGenerator <|.. DefaultRSSGenerator
        org.apache.wiki.api.engine.Initializable <|- - RSSGenerator
        Feed <|- - RSS20Feed
        Feed <|- - RSS10Feed
        org.apache.wiki.WikiBackgroundThread <|- - RSSThread
        Feed <|- - AtomFeed
    }

    namespace org.apache.wiki.api.engine {
        interface Initializable [[../api/engine/Initializable.html]] {
            {abstract} +initialize(Engine, Properties): void
        }
    }

    namespace org.apache.wiki {
        abstract class WikiBackgroundThread [[../WikiBackgroundThread.html]] {
            {abstract} +backgroundTask(): void
        }
    }

    center footer UMLDoclet 2.0.12, PlantUML 1.2020.16
@enduml

PlantUML version 1.2020.16(Sun Aug 23 20:20:43 UTC 2020)
(APACHE source distribution)
Java Runtime: Java(TM) SE Runtime Environment
JVM: Java HotSpot(TM) 64-Bit Server VM
Default Encoding: ISO-8859-1
Language: en
Country: US
--></g></svg>