<?xml version="1.0" encoding="UTF-8" standalone="no"?><svg xmlns="http://www.w3.org/2000/svg" xmlns:xlink="http://www.w3.org/1999/xlink" contentScriptType="application/ecmascript" contentStyleType="text/css" height="866px" preserveAspectRatio="none" style="width:1156px;height:866px;" version="1.1" viewBox="0 0 1156 866" width="1156px" zoomAndPan="magnify"><defs><filter height="300%" id="f147kc2c2urmca" width="300%" x="-1" y="-1"><feGaussianBlur result="blurOut" stdDeviation="2.0"/><feColorMatrix in="blurOut" result="blurOut2" type="matrix" values="0 0 0 0 0 0 0 0 0 0 0 0 0 0 0 0 0 0 .4 0"/><feOffset dx="4.0" dy="4.0" in="blurOut2" result="blurOut3"/><feBlend in="SourceGraphic" in2="blurOut3" mode="normal"/></filter></defs><g><!--MD5=[cefb3735973571d833b3829747bdbe52]
cluster org.apache.wiki.rss--><polygon fill="#FFFFFF" filter="url(#f147kc2c2urmca)" points="16,133,177,133,184,155.2969,1134,155.2969,1134,838,16,838,16,133" style="stroke: #000000; stroke-width: 1.5;"/><line style="stroke: #000000; stroke-width: 1.5;" x1="16" x2="184" y1="155.2969" y2="155.2969"/><text fill="#000000" font-family="sans-serif" font-size="14" font-weight="bold" lengthAdjust="spacingAndGlyphs" textLength="155" x="20" y="147.9951">org.apache.wiki.rss</text><!--MD5=[06e4b2620a8b168056b961578cd367b2]
cluster org.apache.wiki.api.engine--><polygon fill="#FFFFFF" filter="url(#f147kc2c2urmca)" points="86,6,304,6,311,28.2969,318,28.2969,318,102,86,102,86,6" style="stroke: #000000; stroke-width: 1.5;"/><line style="stroke: #000000; stroke-width: 1.5;" x1="86" x2="311" y1="28.2969" y2="28.2969"/><text fill="#000000" font-family="sans-serif" font-size="14" font-weight="bold" lengthAdjust="spacingAndGlyphs" textLength="212" x="90" y="20.9951">org.apache.wiki.api.engine</text><!--MD5=[0efc58285ba131b623584699d07d72ab]
cluster org.apache.wiki--><polygon fill="#FFFFFF" filter="url(#f147kc2c2urmca)" points="453,6,584,6,591,28.2969,645,28.2969,645,102,453,102,453,6" style="stroke: #000000; stroke-width: 1.5;"/><line style="stroke: #000000; stroke-width: 1.5;" x1="453" x2="591" y1="28.2969" y2="28.2969"/><text fill="#000000" font-family="sans-serif" font-size="14" font-weight="bold" lengthAdjust="spacingAndGlyphs" textLength="125" x="457" y="20.9951">org.apache.wiki</text><!--MD5=[7d5fbccfcb062bdf576b52c940899d16]
class org.apache.wiki.rss.Entry--><a href="Entry.html" target="_top" title="Entry.html" xlink:actuate="onRequest" xlink:href="Entry.html" xlink:show="new" xlink:title="Entry.html" xlink:type="simple"><rect codeLine="3" fill="#FEFECE" filter="url(#f147kc2c2urmca)" height="176.0469" id="org.apache.wiki.rss.Entry" style="stroke: #A80036; stroke-width: 1.5;" width="161" x="964.5" y="654"/><ellipse cx="1024.75" cy="670" fill="#ADD1B2" rx="11" ry="11" style="stroke: #A80036; stroke-width: 1.0;"/><path d="M1027.7188,675.6406 Q1027.1406,675.9375 1026.5,676.0781 Q1025.8594,676.2344 1025.1563,676.2344 Q1022.6563,676.2344 1021.3281,674.5938 Q1020.0156,672.9375 1020.0156,669.8125 Q1020.0156,666.6875 1021.3281,665.0313 Q1022.6563,663.375 1025.1563,663.375 Q1025.8594,663.375 1026.5,663.5313 Q1027.1563,663.6875 1027.7188,663.9844 L1027.7188,666.7031 Q1027.0938,666.125 1026.5,665.8594 Q1025.9063,665.5781 1025.2813,665.5781 Q1023.9375,665.5781 1023.25,666.6563 Q1022.5625,667.7188 1022.5625,669.8125 Q1022.5625,671.9063 1023.25,672.9844 Q1023.9375,674.0469 1025.2813,674.0469 Q1025.9063,674.0469 1026.5,673.7813 Q1027.0938,673.5 1027.7188,672.9219 L1027.7188,675.6406 Z "/><text fill="#000000" font-family="sans-serif" font-size="12" lengthAdjust="spacingAndGlyphs" textLength="32" x="1045.25" y="674.1543">Entry</text><line style="stroke: #A80036; stroke-width: 1.5;" x1="965.5" x2="1124.5" y1="686" y2="686"/><line style="stroke: #A80036; stroke-width: 1.5;" x1="965.5" x2="1124.5" y1="694" y2="694"/><ellipse cx="975.5" cy="705" fill="#84BE84" rx="3" ry="3" style="stroke: #038048; stroke-width: 1.0;"/><text fill="#000000" font-family="sans-serif" font-size="11" lengthAdjust="spacingAndGlyphs" textLength="128" x="984.5" y="708.2104">setAuthor(String): void</text><ellipse cx="975.5" cy="717.8047" fill="#84BE84" rx="3" ry="3" style="stroke: #038048; stroke-width: 1.0;"/><text fill="#000000" font-family="sans-serif" font-size="11" lengthAdjust="spacingAndGlyphs" textLength="105" x="984.5" y="721.0151">getAuthor(): String</text><ellipse cx="975.5" cy="730.6094" fill="#84BE84" rx="3" ry="3" style="stroke: #038048; stroke-width: 1.0;"/><text fill="#000000" font-family="sans-serif" font-size="11" lengthAdjust="spacingAndGlyphs" textLength="90" x="984.5" y="733.8198">getPage(): Page</text><ellipse cx="975.5" cy="743.4141" fill="#84BE84" rx="3" ry="3" style="stroke: #038048; stroke-width: 1.0;"/><text fill="#000000" font-family="sans-serif" font-size="11" lengthAdjust="spacingAndGlyphs" textLength="113" x="984.5" y="746.6245">setPage(Page): void</text><ellipse cx="975.5" cy="756.2188" fill="#84BE84" rx="3" ry="3" style="stroke: #038048; stroke-width: 1.0;"/><text fill="#000000" font-family="sans-serif" font-size="11" lengthAdjust="spacingAndGlyphs" textLength="115" x="984.5" y="759.4292">setTitle(String): void</text><ellipse cx="975.5" cy="769.0234" fill="#84BE84" rx="3" ry="3" style="stroke: #038048; stroke-width: 1.0;"/><text fill="#000000" font-family="sans-serif" font-size="11" lengthAdjust="spacingAndGlyphs" textLength="92" x="984.5" y="772.2339">getTitle(): String</text><ellipse cx="975.5" cy="781.8281" fill="#84BE84" rx="3" ry="3" style="stroke: #038048; stroke-width: 1.0;"/><text fill="#000000" font-family="sans-serif" font-size="11" lengthAdjust="spacingAndGlyphs" textLength="112" x="984.5" y="785.0386">setURL(String): void</text><ellipse cx="975.5" cy="794.6328" fill="#84BE84" rx="3" ry="3" style="stroke: #038048; stroke-width: 1.0;"/><text fill="#000000" font-family="sans-serif" font-size="11" lengthAdjust="spacingAndGlyphs" textLength="89" x="984.5" y="797.8433">getURL(): String</text><ellipse cx="975.5" cy="807.4375" fill="#84BE84" rx="3" ry="3" style="stroke: #038048; stroke-width: 1.0;"/><text fill="#000000" font-family="sans-serif" font-size="11" lengthAdjust="spacingAndGlyphs" textLength="135" x="984.5" y="810.6479">setContent(String): void</text><ellipse cx="975.5" cy="820.2422" fill="#84BE84" rx="3" ry="3" style="stroke: #038048; stroke-width: 1.0;"/><text fill="#000000" font-family="sans-serif" font-size="11" lengthAdjust="spacingAndGlyphs" textLength="112" x="984.5" y="823.4526">getContent(): String</text></a><!--MD5=[dabbab17409e2d3abae6376238320a84]
class org.apache.wiki.rss.AtomFeed--><a href="AtomFeed.html" target="_top" title="AtomFeed.html" xlink:actuate="onRequest" xlink:href="AtomFeed.html" xlink:show="new" xlink:title="AtomFeed.html" xlink:type="simple"><rect codeLine="16" fill="#FEFECE" filter="url(#f147kc2c2urmca)" height="86.4141" id="org.apache.wiki.rss.AtomFeed" style="stroke: #A80036; stroke-width: 1.5;" width="162" x="415" y="699"/><ellipse cx="460.25" cy="715" fill="#ADD1B2" rx="11" ry="11" style="stroke: #A80036; stroke-width: 1.0;"/><path d="M463.2188,720.6406 Q462.6406,720.9375 462,721.0781 Q461.3594,721.2344 460.6563,721.2344 Q458.1563,721.2344 456.8281,719.5938 Q455.5156,717.9375 455.5156,714.8125 Q455.5156,711.6875 456.8281,710.0313 Q458.1563,708.375 460.6563,708.375 Q461.3594,708.375 462,708.5313 Q462.6563,708.6875 463.2188,708.9844 L463.2188,711.7031 Q462.5938,711.125 462,710.8594 Q461.4063,710.5781 460.7813,710.5781 Q459.4375,710.5781 458.75,711.6563 Q458.0625,712.7188 458.0625,714.8125 Q458.0625,716.9063 458.75,717.9844 Q459.4375,719.0469 460.7813,719.0469 Q461.4063,719.0469 462,718.7813 Q462.5938,718.5 463.2188,717.9219 L463.2188,720.6406 Z "/><text fill="#000000" font-family="sans-serif" font-size="12" lengthAdjust="spacingAndGlyphs" textLength="63" x="480.75" y="719.1543">AtomFeed</text><line style="stroke: #A80036; stroke-width: 1.5;" x1="416" x2="576" y1="731" y2="731"/><ellipse cx="426" cy="742" fill="none" rx="3" ry="3" style="stroke: #038048; stroke-width: 1.0;"/><text fill="#000000" font-family="sans-serif" font-size="11" lengthAdjust="spacingAndGlyphs" text-decoration="underline" textLength="136" x="435" y="745.2104">RFC3339FORMAT: String</text><line style="stroke: #A80036; stroke-width: 1.5;" x1="416" x2="576" y1="751.8047" y2="751.8047"/><ellipse cx="426" cy="762.8047" fill="#84BE84" rx="3" ry="3" style="stroke: #038048; stroke-width: 1.0;"/><text fill="#000000" font-family="sans-serif" font-size="11" lengthAdjust="spacingAndGlyphs" textLength="107" x="435" y="766.0151">AtomFeed(Context)</text><ellipse cx="426" cy="775.6094" fill="#84BE84" rx="3" ry="3" style="stroke: #038048; stroke-width: 1.0;"/><text fill="#000000" font-family="sans-serif" font-size="11" lengthAdjust="spacingAndGlyphs" textLength="102" x="435" y="778.8198">getString(): String</text></a><!--MD5=[162b5f235675b57ed54f918f5239af89]
class org.apache.wiki.rss.Feed--><a href="Feed.html" target="_top" title="Feed.html" xlink:actuate="onRequest" xlink:href="Feed.html" xlink:show="new" xlink:title="Feed.html" xlink:type="simple"><rect codeLine="22" fill="#FEFECE" filter="url(#f147kc2c2urmca)" height="329.7031" id="org.apache.wiki.rss.Feed" style="stroke: #A80036; stroke-width: 1.5;" width="276" x="698" y="172.5"/><ellipse cx="816.25" cy="188.5" fill="#A9DCDF" rx="11" ry="11" style="stroke: #A80036; stroke-width: 1.0;"/><path d="M816.3594,183.8438 L815.2031,188.9219 L817.5313,188.9219 L816.3594,183.8438 Z M814.875,181.6094 L817.8594,181.6094 L821.2188,194 L818.7656,194 L818,190.9375 L814.7188,190.9375 L813.9688,194 L811.5313,194 L814.875,181.6094 Z "/><text fill="#000000" font-family="sans-serif" font-size="12" font-style="italic" lengthAdjust="spacingAndGlyphs" textLength="31" x="836.75" y="192.6543">Feed</text><line style="stroke: #A80036; stroke-width: 1.5;" x1="699" x2="973" y1="204.5" y2="204.5"/><polygon fill="none" points="709,210.5,713,214.5,709,218.5,705,214.5" style="stroke: #B38D22; stroke-width: 1.0;"/><text fill="#000000" font-family="sans-serif" font-size="11" lengthAdjust="spacingAndGlyphs" textLength="105" x="718" y="218.7104">m_feedURL: String</text><polygon fill="none" points="709,223.3047,713,227.3047,709,231.3047,705,227.3047" style="stroke: #B38D22; stroke-width: 1.0;"/><text fill="#000000" font-family="sans-serif" font-size="11" lengthAdjust="spacingAndGlyphs" textLength="127" x="718" y="231.5151">m_channelTitle: String</text><polygon fill="none" points="709,236.1094,713,240.1094,709,244.1094,705,240.1094" style="stroke: #B38D22; stroke-width: 1.0;"/><text fill="#000000" font-family="sans-serif" font-size="11" lengthAdjust="spacingAndGlyphs" textLength="167" x="718" y="244.3198">m_channelDescription: String</text><polygon fill="none" points="709,248.9141,713,252.9141,709,256.9141,705,252.9141" style="stroke: #B38D22; stroke-width: 1.0;"/><text fill="#000000" font-family="sans-serif" font-size="11" lengthAdjust="spacingAndGlyphs" textLength="158" x="718" y="257.1245">m_channelLanguage: String</text><polygon fill="none" points="709,261.7188,713,265.7188,709,269.7188,705,265.7188" style="stroke: #B38D22; stroke-width: 1.0;"/><text fill="#000000" font-family="sans-serif" font-size="11" lengthAdjust="spacingAndGlyphs" textLength="132" x="718" y="269.9292">m_wikiContext: Context</text><polygon fill="none" points="709,274.5234,713,278.5234,709,282.5234,705,278.5234" style="stroke: #B38D22; stroke-width: 1.0;"/><text fill="#000000" font-family="sans-serif" font-size="11" lengthAdjust="spacingAndGlyphs" textLength="91" x="718" y="282.7339">m_mode: String</text><ellipse cx="709" cy="292.3281" fill="none" rx="3" ry="3" style="stroke: #038048; stroke-width: 1.0;"/><text fill="#000000" font-family="sans-serif" font-size="11" lengthAdjust="spacingAndGlyphs" text-decoration="underline" textLength="132" x="718" y="295.5386">VAR_BLOGNAME: String</text><line style="stroke: #A80036; stroke-width: 1.5;" x1="699" x2="973" y1="302.1328" y2="302.1328"/><ellipse cx="709" cy="313.1328" fill="#84BE84" rx="3" ry="3" style="stroke: #038048; stroke-width: 1.0;"/><text fill="#000000" font-family="sans-serif" font-size="11" lengthAdjust="spacingAndGlyphs" textLength="78" x="718" y="316.3433">Feed(Context)</text><ellipse cx="709" cy="325.9375" fill="#84BE84" rx="3" ry="3" style="stroke: #038048; stroke-width: 1.0;"/><text fill="#000000" font-family="sans-serif" font-size="11" lengthAdjust="spacingAndGlyphs" text-decoration="underline" textLength="166" x="718" y="329.1479">getSiteName(Context): String</text><ellipse cx="709" cy="338.7422" fill="#84BE84" rx="3" ry="3" style="stroke: #038048; stroke-width: 1.0;"/><text fill="#000000" font-family="sans-serif" font-size="11" lengthAdjust="spacingAndGlyphs" textLength="121" x="718" y="341.9526">setMode(String): void</text><ellipse cx="709" cy="351.5469" fill="#84BE84" rx="3" ry="3" style="stroke: #038048; stroke-width: 1.0;"/><text fill="#000000" font-family="sans-serif" font-size="11" lengthAdjust="spacingAndGlyphs" textLength="118" x="718" y="354.7573">addEntry(Entry): void</text><ellipse cx="709" cy="364.3516" fill="#84BE84" rx="3" ry="3" style="stroke: #038048; stroke-width: 1.0;"/><text fill="#000000" font-family="sans-serif" font-size="11" font-style="italic" lengthAdjust="spacingAndGlyphs" textLength="100" x="718" y="367.562">getString(): String</text><ellipse cx="709" cy="377.1563" fill="#84BE84" rx="3" ry="3" style="stroke: #038048; stroke-width: 1.0;"/><text fill="#000000" font-family="sans-serif" font-size="11" lengthAdjust="spacingAndGlyphs" textLength="178" x="718" y="380.3667">getChannelDescription(): String</text><ellipse cx="709" cy="389.9609" fill="#84BE84" rx="3" ry="3" style="stroke: #038048; stroke-width: 1.0;"/><text fill="#000000" font-family="sans-serif" font-size="11" lengthAdjust="spacingAndGlyphs" textLength="201" x="718" y="393.1714">setChannelDescription(String): void</text><ellipse cx="709" cy="402.7656" fill="#84BE84" rx="3" ry="3" style="stroke: #038048; stroke-width: 1.0;"/><text fill="#000000" font-family="sans-serif" font-size="11" lengthAdjust="spacingAndGlyphs" textLength="169" x="718" y="405.9761">getChannelLanguage(): String</text><ellipse cx="709" cy="415.5703" fill="#84BE84" rx="3" ry="3" style="stroke: #038048; stroke-width: 1.0;"/><text fill="#000000" font-family="sans-serif" font-size="11" lengthAdjust="spacingAndGlyphs" textLength="192" x="718" y="418.7808">setChannelLanguage(String): void</text><ellipse cx="709" cy="428.375" fill="#84BE84" rx="3" ry="3" style="stroke: #038048; stroke-width: 1.0;"/><text fill="#000000" font-family="sans-serif" font-size="11" lengthAdjust="spacingAndGlyphs" textLength="138" x="718" y="431.5854">getChannelTitle(): String</text><ellipse cx="709" cy="441.1797" fill="#84BE84" rx="3" ry="3" style="stroke: #038048; stroke-width: 1.0;"/><text fill="#000000" font-family="sans-serif" font-size="11" lengthAdjust="spacingAndGlyphs" textLength="161" x="718" y="444.3901">setChannelTitle(String): void</text><ellipse cx="709" cy="453.9844" fill="#84BE84" rx="3" ry="3" style="stroke: #038048; stroke-width: 1.0;"/><text fill="#000000" font-family="sans-serif" font-size="11" lengthAdjust="spacingAndGlyphs" textLength="116" x="718" y="457.1948">getFeedURL(): String</text><ellipse cx="709" cy="466.7891" fill="#84BE84" rx="3" ry="3" style="stroke: #038048; stroke-width: 1.0;"/><text fill="#000000" font-family="sans-serif" font-size="11" lengthAdjust="spacingAndGlyphs" textLength="139" x="718" y="469.9995">setFeedURL(String): void</text><polygon fill="#FFFF44" points="709,474.5938,713,478.5938,709,482.5938,705,478.5938" style="stroke: #B38D22; stroke-width: 1.0;"/><text fill="#000000" font-family="sans-serif" font-size="11" lengthAdjust="spacingAndGlyphs" textLength="250" x="718" y="482.8042">getMimeType(ServletContext, String): String</text><ellipse cx="709" cy="492.3984" fill="#84BE84" rx="3" ry="3" style="stroke: #038048; stroke-width: 1.0;"/><text fill="#000000" font-family="sans-serif" font-size="11" lengthAdjust="spacingAndGlyphs" text-decoration="underline" textLength="122" x="718" y="495.6089">format(String): String</text></a><!--MD5=[d45d98c0f0db0aef2e9fd1bec61bf95e]
class org.apache.wiki.rss.RSS20Feed--><a href="RSS20Feed.html" target="_top" title="RSS20Feed.html" xlink:actuate="onRequest" xlink:href="RSS20Feed.html" xlink:show="new" xlink:title="RSS20Feed.html" xlink:type="simple"><rect codeLine="47" fill="#FEFECE" filter="url(#f147kc2c2urmca)" height="73.6094" id="org.apache.wiki.rss.RSS20Feed" style="stroke: #A80036; stroke-width: 1.5;" width="141" x="612.5" y="705"/><ellipse cx="644.6" cy="721" fill="#ADD1B2" rx="11" ry="11" style="stroke: #A80036; stroke-width: 1.0;"/><path d="M647.5688,726.6406 Q646.9906,726.9375 646.35,727.0781 Q645.7094,727.2344 645.0063,727.2344 Q642.5063,727.2344 641.1781,725.5938 Q639.8656,723.9375 639.8656,720.8125 Q639.8656,717.6875 641.1781,716.0313 Q642.5063,714.375 645.0063,714.375 Q645.7094,714.375 646.35,714.5313 Q647.0063,714.6875 647.5688,714.9844 L647.5688,717.7031 Q646.9438,717.125 646.35,716.8594 Q645.7563,716.5781 645.1313,716.5781 Q643.7875,716.5781 643.1,717.6563 Q642.4125,718.7188 642.4125,720.8125 Q642.4125,722.9063 643.1,723.9844 Q643.7875,725.0469 645.1313,725.0469 Q645.7563,725.0469 646.35,724.7813 Q646.9438,724.5 647.5688,723.9219 L647.5688,726.6406 Z "/><text fill="#000000" font-family="sans-serif" font-size="12" lengthAdjust="spacingAndGlyphs" textLength="71" x="662.4" y="725.1543">RSS20Feed</text><line style="stroke: #A80036; stroke-width: 1.5;" x1="613.5" x2="752.5" y1="737" y2="737"/><line style="stroke: #A80036; stroke-width: 1.5;" x1="613.5" x2="752.5" y1="745" y2="745"/><ellipse cx="623.5" cy="756" fill="#84BE84" rx="3" ry="3" style="stroke: #038048; stroke-width: 1.0;"/><text fill="#000000" font-family="sans-serif" font-size="11" lengthAdjust="spacingAndGlyphs" textLength="115" x="632.5" y="759.2104">RSS20Feed(Context)</text><ellipse cx="623.5" cy="768.8047" fill="#84BE84" rx="3" ry="3" style="stroke: #038048; stroke-width: 1.0;"/><text fill="#000000" font-family="sans-serif" font-size="11" lengthAdjust="spacingAndGlyphs" textLength="102" x="632.5" y="772.0151">getString(): String</text></a><!--MD5=[84cc67b1895f981e035e94563bf6fa31]
class org.apache.wiki.rss.DefaultRSSGenerator--><a href="DefaultRSSGenerator.html" target="_top" title="DefaultRSSGenerator.html" xlink:actuate="onRequest" xlink:href="DefaultRSSGenerator.html" xlink:show="new" xlink:title="DefaultRSSGenerator.html" xlink:type="simple"><rect codeLine="52" fill="#FEFECE" filter="url(#f147kc2c2urmca)" height="176.0469" id="org.apache.wiki.rss.DefaultRSSGenerator" style="stroke: #A80036; stroke-width: 1.5;" width="355" x="24.5" y="654"/><ellipse cx="131.25" cy="670" fill="#ADD1B2" rx="11" ry="11" style="stroke: #A80036; stroke-width: 1.0;"/><path d="M134.2188,675.6406 Q133.6406,675.9375 133,676.0781 Q132.3594,676.2344 131.6563,676.2344 Q129.1563,676.2344 127.8281,674.5938 Q126.5156,672.9375 126.5156,669.8125 Q126.5156,666.6875 127.8281,665.0313 Q129.1563,663.375 131.6563,663.375 Q132.3594,663.375 133,663.5313 Q133.6563,663.6875 134.2188,663.9844 L134.2188,666.7031 Q133.5938,666.125 133,665.8594 Q132.4063,665.5781 131.7813,665.5781 Q130.4375,665.5781 129.75,666.6563 Q129.0625,667.7188 129.0625,669.8125 Q129.0625,671.9063 129.75,672.9844 Q130.4375,674.0469 131.7813,674.0469 Q132.4063,674.0469 133,673.7813 Q133.5938,673.5 134.2188,672.9219 L134.2188,675.6406 Z "/><text fill="#000000" font-family="sans-serif" font-size="12" lengthAdjust="spacingAndGlyphs" textLength="133" x="151.75" y="674.1543">DefaultRSSGenerator</text><line style="stroke: #A80036; stroke-width: 1.5;" x1="25.5" x2="378.5" y1="686" y2="686"/><line style="stroke: #A80036; stroke-width: 1.5;" x1="25.5" x2="378.5" y1="694" y2="694"/><ellipse cx="35.5" cy="705" fill="#84BE84" rx="3" ry="3" style="stroke: #038048; stroke-width: 1.0;"/><text fill="#000000" font-family="sans-serif" font-size="11" lengthAdjust="spacingAndGlyphs" textLength="234" x="44.5" y="708.2104">DefaultRSSGenerator(Engine, Properties)</text><ellipse cx="35.5" cy="717.8047" fill="#84BE84" rx="3" ry="3" style="stroke: #038048; stroke-width: 1.0;"/><text fill="#000000" font-family="sans-serif" font-size="11" lengthAdjust="spacingAndGlyphs" textLength="189" x="44.5" y="721.0151">initialize(Engine, Properties): void</text><ellipse cx="35.5" cy="730.6094" fill="#84BE84" rx="3" ry="3" style="stroke: #038048; stroke-width: 1.0;"/><text fill="#000000" font-family="sans-serif" font-size="11" lengthAdjust="spacingAndGlyphs" textLength="101" x="44.5" y="733.8198">generate(): String</text><ellipse cx="35.5" cy="743.4141" fill="#84BE84" rx="3" ry="3" style="stroke: #038048; stroke-width: 1.0;"/><text fill="#000000" font-family="sans-serif" font-size="11" lengthAdjust="spacingAndGlyphs" textLength="329" x="44.5" y="746.6245">generateFeed(Context, List&lt;Page&gt;, String, String): String</text><ellipse cx="35.5" cy="756.2188" fill="#84BE84" rx="3" ry="3" style="stroke: #038048; stroke-width: 1.0;"/><text fill="#000000" font-family="sans-serif" font-size="11" lengthAdjust="spacingAndGlyphs" textLength="116" x="44.5" y="759.4292">isEnabled(): boolean</text><ellipse cx="35.5" cy="769.0234" fill="#84BE84" rx="3" ry="3" style="stroke: #038048; stroke-width: 1.0;"/><text fill="#000000" font-family="sans-serif" font-size="11" lengthAdjust="spacingAndGlyphs" textLength="147" x="44.5" y="772.2339">setEnabled(boolean): void</text><ellipse cx="35.5" cy="781.8281" fill="#84BE84" rx="3" ry="3" style="stroke: #038048; stroke-width: 1.0;"/><text fill="#000000" font-family="sans-serif" font-size="11" lengthAdjust="spacingAndGlyphs" textLength="108" x="44.5" y="785.0386">getRssFile(): String</text><ellipse cx="35.5" cy="794.6328" fill="#84BE84" rx="3" ry="3" style="stroke: #038048; stroke-width: 1.0;"/><text fill="#000000" font-family="sans-serif" font-size="11" lengthAdjust="spacingAndGlyphs" textLength="242" x="44.5" y="797.8433">generateFullWikiRSS(Context, Feed): String</text><ellipse cx="35.5" cy="807.4375" fill="#84BE84" rx="3" ry="3" style="stroke: #038048; stroke-width: 1.0;"/><text fill="#000000" font-family="sans-serif" font-size="11" lengthAdjust="spacingAndGlyphs" textLength="325" x="44.5" y="810.6479">generateWikiPageRSS(Context, List&lt;Page&gt;, Feed): String</text><ellipse cx="35.5" cy="820.2422" fill="#84BE84" rx="3" ry="3" style="stroke: #038048; stroke-width: 1.0;"/><text fill="#000000" font-family="sans-serif" font-size="11" lengthAdjust="spacingAndGlyphs" textLength="301" x="44.5" y="823.4526">generateBlogRSS(Context, List&lt;Page&gt;, Feed): String</text></a><!--MD5=[af565d3f47da3ede56dab86a7c170b4d]
class org.apache.wiki.rss.RSSGenerator--><a href="RSSGenerator.html" target="_top" title="RSSGenerator.html" xlink:actuate="onRequest" xlink:href="RSSGenerator.html" xlink:show="new" xlink:title="RSSGenerator.html" xlink:type="simple"><rect codeLine="65" fill="#FEFECE" filter="url(#f147kc2c2urmca)" height="355.3125" id="org.apache.wiki.rss.RSSGenerator" style="stroke: #A80036; stroke-width: 1.5;" width="352" x="26" y="160"/><ellipse cx="153.75" cy="176" fill="#B4A7E5" rx="11" ry="11" style="stroke: #A80036; stroke-width: 1.0;"/><path d="M149.6719,171.7656 L149.6719,169.6094 L157.0625,169.6094 L157.0625,171.7656 L154.5938,171.7656 L154.5938,179.8438 L157.0625,179.8438 L157.0625,182 L149.6719,182 L149.6719,179.8438 L152.1406,179.8438 L152.1406,171.7656 L149.6719,171.7656 Z "/><text fill="#000000" font-family="sans-serif" font-size="12" font-style="italic" lengthAdjust="spacingAndGlyphs" textLength="88" x="174.25" y="180.1543">RSSGenerator</text><line style="stroke: #A80036; stroke-width: 1.5;" x1="27" x2="377" y1="192" y2="192"/><ellipse cx="37" cy="203" fill="none" rx="3" ry="3" style="stroke: #038048; stroke-width: 1.0;"/><text fill="#000000" font-family="sans-serif" font-size="11" lengthAdjust="spacingAndGlyphs" text-decoration="underline" textLength="79" x="46" y="206.2104">RSS10: String</text><ellipse cx="37" cy="215.8047" fill="none" rx="3" ry="3" style="stroke: #038048; stroke-width: 1.0;"/><text fill="#000000" font-family="sans-serif" font-size="11" lengthAdjust="spacingAndGlyphs" text-decoration="underline" textLength="79" x="46" y="219.0151">RSS20: String</text><ellipse cx="37" cy="228.6094" fill="none" rx="3" ry="3" style="stroke: #038048; stroke-width: 1.0;"/><text fill="#000000" font-family="sans-serif" font-size="11" lengthAdjust="spacingAndGlyphs" text-decoration="underline" textLength="74" x="46" y="231.8198">ATOM: String</text><ellipse cx="37" cy="241.4141" fill="none" rx="3" ry="3" style="stroke: #038048; stroke-width: 1.0;"/><text fill="#000000" font-family="sans-serif" font-size="11" lengthAdjust="spacingAndGlyphs" text-decoration="underline" textLength="113" x="46" y="244.6245">MODE_BLOG: String</text><ellipse cx="37" cy="254.2188" fill="none" rx="3" ry="3" style="stroke: #038048; stroke-width: 1.0;"/><text fill="#000000" font-family="sans-serif" font-size="11" lengthAdjust="spacingAndGlyphs" text-decoration="underline" textLength="103" x="46" y="257.4292">MODE_WIKI: String</text><ellipse cx="37" cy="267.0234" fill="none" rx="3" ry="3" style="stroke: #038048; stroke-width: 1.0;"/><text fill="#000000" font-family="sans-serif" font-size="11" lengthAdjust="spacingAndGlyphs" text-decoration="underline" textLength="107" x="46" y="270.2339">MODE_FULL: String</text><ellipse cx="37" cy="279.8281" fill="none" rx="3" ry="3" style="stroke: #038048; stroke-width: 1.0;"/><text fill="#000000" font-family="sans-serif" font-size="11" lengthAdjust="spacingAndGlyphs" text-decoration="underline" textLength="211" x="46" y="283.0386">PROP_CHANNEL_DESCRIPTION: String</text><ellipse cx="37" cy="292.6328" fill="none" rx="3" ry="3" style="stroke: #038048; stroke-width: 1.0;"/><text fill="#000000" font-family="sans-serif" font-size="11" lengthAdjust="spacingAndGlyphs" text-decoration="underline" textLength="197" x="46" y="295.8433">PROP_CHANNEL_LANGUAGE: String</text><ellipse cx="37" cy="305.4375" fill="none" rx="3" ry="3" style="stroke: #038048; stroke-width: 1.0;"/><text fill="#000000" font-family="sans-serif" font-size="11" lengthAdjust="spacingAndGlyphs" text-decoration="underline" textLength="166" x="46" y="308.6479">PROP_CHANNEL_TITLE: String</text><ellipse cx="37" cy="318.2422" fill="none" rx="3" ry="3" style="stroke: #038048; stroke-width: 1.0;"/><text fill="#000000" font-family="sans-serif" font-size="11" lengthAdjust="spacingAndGlyphs" text-decoration="underline" textLength="166" x="46" y="321.4526">PROP_GENERATE_RSS: String</text><ellipse cx="37" cy="331.0469" fill="none" rx="3" ry="3" style="stroke: #038048; stroke-width: 1.0;"/><text fill="#000000" font-family="sans-serif" font-size="11" lengthAdjust="spacingAndGlyphs" text-decoration="underline" textLength="123" x="46" y="334.2573">PROP_RSSFILE: String</text><ellipse cx="37" cy="343.8516" fill="none" rx="3" ry="3" style="stroke: #038048; stroke-width: 1.0;"/><text fill="#000000" font-family="sans-serif" font-size="11" lengthAdjust="spacingAndGlyphs" text-decoration="underline" textLength="130" x="46" y="347.062">PROP_INTERVAL: String</text><ellipse cx="37" cy="356.6563" fill="none" rx="3" ry="3" style="stroke: #038048; stroke-width: 1.0;"/><text fill="#000000" font-family="sans-serif" font-size="11" lengthAdjust="spacingAndGlyphs" text-decoration="underline" textLength="153" x="46" y="359.8667">PROP_RSS_AUTHOR: String</text><ellipse cx="37" cy="369.4609" fill="none" rx="3" ry="3" style="stroke: #038048; stroke-width: 1.0;"/><text fill="#000000" font-family="sans-serif" font-size="11" lengthAdjust="spacingAndGlyphs" text-decoration="underline" textLength="185" x="46" y="372.6714">PROP_RSS_AUTHOREMAIL: String</text><line style="stroke: #A80036; stroke-width: 1.5;" x1="27" x2="377" y1="379.2656" y2="379.2656"/><ellipse cx="37" cy="390.2656" fill="#84BE84" rx="3" ry="3" style="stroke: #038048; stroke-width: 1.0;"/><text fill="#000000" font-family="sans-serif" font-size="11" font-style="italic" lengthAdjust="spacingAndGlyphs" textLength="100" x="46" y="393.4761">generate(): String</text><ellipse cx="37" cy="403.0703" fill="#84BE84" rx="3" ry="3" style="stroke: #038048; stroke-width: 1.0;"/><text fill="#000000" font-family="sans-serif" font-size="11" font-style="italic" lengthAdjust="spacingAndGlyphs" textLength="326" x="46" y="406.2808">generateFeed(Context, List&lt;Page&gt;, String, String): String</text><ellipse cx="37" cy="415.875" fill="#84BE84" rx="3" ry="3" style="stroke: #038048; stroke-width: 1.0;"/><text fill="#000000" font-family="sans-serif" font-size="11" font-style="italic" lengthAdjust="spacingAndGlyphs" textLength="115" x="46" y="419.0854">isEnabled(): boolean</text><ellipse cx="37" cy="428.6797" fill="#84BE84" rx="3" ry="3" style="stroke: #038048; stroke-width: 1.0;"/><text fill="#000000" font-family="sans-serif" font-size="11" font-style="italic" lengthAdjust="spacingAndGlyphs" textLength="147" x="46" y="431.8901">setEnabled(boolean): void</text><ellipse cx="37" cy="441.4844" fill="#84BE84" rx="3" ry="3" style="stroke: #038048; stroke-width: 1.0;"/><text fill="#000000" font-family="sans-serif" font-size="11" font-style="italic" lengthAdjust="spacingAndGlyphs" textLength="106" x="46" y="444.6948">getRssFile(): String</text><ellipse cx="37" cy="454.2891" fill="#84BE84" rx="3" ry="3" style="stroke: #038048; stroke-width: 1.0;"/><text fill="#000000" font-family="sans-serif" font-size="11" font-style="italic" lengthAdjust="spacingAndGlyphs" textLength="243" x="46" y="457.4995">generateFullWikiRSS(Context, Feed): String</text><ellipse cx="37" cy="467.0938" fill="#84BE84" rx="3" ry="3" style="stroke: #038048; stroke-width: 1.0;"/><text fill="#000000" font-family="sans-serif" font-size="11" font-style="italic" lengthAdjust="spacingAndGlyphs" textLength="325" x="46" y="470.3042">generateWikiPageRSS(Context, List&lt;Page&gt;, Feed): String</text><ellipse cx="37" cy="479.8984" fill="#84BE84" rx="3" ry="3" style="stroke: #038048; stroke-width: 1.0;"/><text fill="#000000" font-family="sans-serif" font-size="11" font-style="italic" lengthAdjust="spacingAndGlyphs" textLength="299" x="46" y="483.1089">generateBlogRSS(Context, List&lt;Page&gt;, Feed): String</text><ellipse cx="37" cy="492.7031" fill="#84BE84" rx="3" ry="3" style="stroke: #038048; stroke-width: 1.0;"/><text fill="#000000" font-family="sans-serif" font-size="11" lengthAdjust="spacingAndGlyphs" text-decoration="underline" textLength="122" x="46" y="495.9136">format(String): String</text><ellipse cx="37" cy="505.5078" fill="#84BE84" rx="3" ry="3" style="stroke: #038048; stroke-width: 1.0;"/><text fill="#000000" font-family="sans-serif" font-size="11" lengthAdjust="spacingAndGlyphs" text-decoration="underline" textLength="173" x="46" y="508.7183">getContentType(String): String</text></a><!--MD5=[d36d8d6ffe1c01a82a34749470ee719f]
class org.apache.wiki.rss.RSSThread--><a href="RSSThread.html" target="_top" title="RSSThread.html" xlink:actuate="onRequest" xlink:href="RSSThread.html" xlink:show="new" xlink:title="RSSThread.html" xlink:type="simple"><rect codeLine="92" fill="#FEFECE" filter="url(#f147kc2c2urmca)" height="86.4141" id="org.apache.wiki.rss.RSSThread" style="stroke: #A80036; stroke-width: 1.5;" width="184" x="457" y="294.5"/><ellipse cx="510.75" cy="310.5" fill="#ADD1B2" rx="11" ry="11" style="stroke: #A80036; stroke-width: 1.0;"/><path d="M513.7188,316.1406 Q513.1406,316.4375 512.5,316.5781 Q511.8594,316.7344 511.1563,316.7344 Q508.6563,316.7344 507.3281,315.0938 Q506.0156,313.4375 506.0156,310.3125 Q506.0156,307.1875 507.3281,305.5313 Q508.6563,303.875 511.1563,303.875 Q511.8594,303.875 512.5,304.0313 Q513.1563,304.1875 513.7188,304.4844 L513.7188,307.2031 Q513.0938,306.625 512.5,306.3594 Q511.9063,306.0781 511.2813,306.0781 Q509.9375,306.0781 509.25,307.1563 Q508.5625,308.2188 508.5625,310.3125 Q508.5625,312.4063 509.25,313.4844 Q509.9375,314.5469 511.2813,314.5469 Q511.9063,314.5469 512.5,314.2813 Q513.0938,314 513.7188,313.4219 L513.7188,316.1406 Z "/><text fill="#000000" font-family="sans-serif" font-size="12" lengthAdjust="spacingAndGlyphs" textLength="68" x="531.25" y="314.6543">RSSThread</text><line style="stroke: #A80036; stroke-width: 1.5;" x1="458" x2="640" y1="326.5" y2="326.5"/><line style="stroke: #A80036; stroke-width: 1.5;" x1="458" x2="640" y1="334.5" y2="334.5"/><ellipse cx="468" cy="345.5" fill="#84BE84" rx="3" ry="3" style="stroke: #038048; stroke-width: 1.0;"/><text fill="#000000" font-family="sans-serif" font-size="11" lengthAdjust="spacingAndGlyphs" textLength="158" x="477" y="348.7104">RSSThread(Engine, File, int)</text><ellipse cx="468" cy="358.3047" fill="#84BE84" rx="3" ry="3" style="stroke: #038048; stroke-width: 1.0;"/><text fill="#000000" font-family="sans-serif" font-size="11" lengthAdjust="spacingAndGlyphs" textLength="107" x="477" y="361.5151">startupTask(): void</text><ellipse cx="468" cy="371.1094" fill="#84BE84" rx="3" ry="3" style="stroke: #038048; stroke-width: 1.0;"/><text fill="#000000" font-family="sans-serif" font-size="11" lengthAdjust="spacingAndGlyphs" textLength="132" x="477" y="374.3198">backgroundTask(): void</text></a><!--MD5=[31504a94879cf9d7139415fdc0fbf03c]
class org.apache.wiki.rss.RSS10Feed--><a href="RSS10Feed.html" target="_top" title="RSS10Feed.html" xlink:actuate="onRequest" xlink:href="RSS10Feed.html" xlink:show="new" xlink:title="RSS10Feed.html" xlink:type="simple"><rect codeLine="98" fill="#FEFECE" filter="url(#f147kc2c2urmca)" height="73.6094" id="org.apache.wiki.rss.RSS10Feed" style="stroke: #A80036; stroke-width: 1.5;" width="141" x="788.5" y="705"/><ellipse cx="820.6" cy="721" fill="#ADD1B2" rx="11" ry="11" style="stroke: #A80036; stroke-width: 1.0;"/><path d="M823.5688,726.6406 Q822.9906,726.9375 822.35,727.0781 Q821.7094,727.2344 821.0063,727.2344 Q818.5063,727.2344 817.1781,725.5938 Q815.8656,723.9375 815.8656,720.8125 Q815.8656,717.6875 817.1781,716.0313 Q818.5063,714.375 821.0063,714.375 Q821.7094,714.375 822.35,714.5313 Q823.0063,714.6875 823.5688,714.9844 L823.5688,717.7031 Q822.9438,717.125 822.35,716.8594 Q821.7563,716.5781 821.1313,716.5781 Q819.7875,716.5781 819.1,717.6563 Q818.4125,718.7188 818.4125,720.8125 Q818.4125,722.9063 819.1,723.9844 Q819.7875,725.0469 821.1313,725.0469 Q821.7563,725.0469 822.35,724.7813 Q822.9438,724.5 823.5688,723.9219 L823.5688,726.6406 Z "/><text fill="#000000" font-family="sans-serif" font-size="12" lengthAdjust="spacingAndGlyphs" textLength="71" x="838.4" y="725.1543">RSS10Feed</text><line style="stroke: #A80036; stroke-width: 1.5;" x1="789.5" x2="928.5" y1="737" y2="737"/><line style="stroke: #A80036; stroke-width: 1.5;" x1="789.5" x2="928.5" y1="745" y2="745"/><ellipse cx="799.5" cy="756" fill="#84BE84" rx="3" ry="3" style="stroke: #038048; stroke-width: 1.0;"/><text fill="#000000" font-family="sans-serif" font-size="11" lengthAdjust="spacingAndGlyphs" textLength="115" x="808.5" y="759.2104">RSS10Feed(Context)</text><ellipse cx="799.5" cy="768.8047" fill="#84BE84" rx="3" ry="3" style="stroke: #038048; stroke-width: 1.0;"/><text fill="#000000" font-family="sans-serif" font-size="11" lengthAdjust="spacingAndGlyphs" textLength="102" x="808.5" y="772.0151">getString(): String</text></a><!--MD5=[b42cfcd16e39a0fd6a37261d508d7333]
class org.apache.wiki.api.engine.Initializable--><a href="../api/engine/Initializable.html" target="_top" title="../api/engine/Initializable.html" xlink:actuate="onRequest" xlink:href="../api/engine/Initializable.html" xlink:show="new" xlink:title="../api/engine/Initializable.html" xlink:type="simple"><rect codeLine="113" fill="#FEFECE" filter="url(#f147kc2c2urmca)" height="60.8047" id="org.apache.wiki.api.engine.Initializable" style="stroke: #A80036; stroke-width: 1.5;" width="216" x="94" y="33"/><ellipse cx="162.75" cy="49" fill="#B4A7E5" rx="11" ry="11" style="stroke: #A80036; stroke-width: 1.0;"/><path d="M158.6719,44.7656 L158.6719,42.6094 L166.0625,42.6094 L166.0625,44.7656 L163.5938,44.7656 L163.5938,52.8438 L166.0625,52.8438 L166.0625,55 L158.6719,55 L158.6719,52.8438 L161.1406,52.8438 L161.1406,44.7656 L158.6719,44.7656 Z "/><text fill="#000000" font-family="sans-serif" font-size="12" font-style="italic" lengthAdjust="spacingAndGlyphs" textLength="70" x="183.25" y="53.1543">Initializable</text><line style="stroke: #A80036; stroke-width: 1.5;" x1="95" x2="309" y1="65" y2="65"/><line style="stroke: #A80036; stroke-width: 1.5;" x1="95" x2="309" y1="73" y2="73"/><ellipse cx="105" cy="84" fill="#84BE84" rx="3" ry="3" style="stroke: #038048; stroke-width: 1.0;"/><text fill="#000000" font-family="sans-serif" font-size="11" font-style="italic" lengthAdjust="spacingAndGlyphs" textLength="190" x="114" y="87.2104">initialize(Engine, Properties): void</text></a><!--MD5=[66b4360082e1a13d0f52b45667453058]
class org.apache.wiki.WikiBackgroundThread--><a href="../WikiBackgroundThread.html" target="_top" title="../WikiBackgroundThread.html" xlink:actuate="onRequest" xlink:href="../WikiBackgroundThread.html" xlink:show="new" xlink:title="../WikiBackgroundThread.html" xlink:type="simple"><rect codeLine="119" fill="#FEFECE" filter="url(#f147kc2c2urmca)" height="60.8047" id="org.apache.wiki.WikiBackgroundThread" style="stroke: #A80036; stroke-width: 1.5;" width="176" x="461" y="33"/><ellipse cx="476" cy="49" fill="#A9DCDF" rx="11" ry="11" style="stroke: #A80036; stroke-width: 1.0;"/><path d="M476.1094,44.3438 L474.9531,49.4219 L477.2813,49.4219 L476.1094,44.3438 Z M474.625,42.1094 L477.6094,42.1094 L480.9688,54.5 L478.5156,54.5 L477.75,51.4375 L474.4688,51.4375 L473.7188,54.5 L471.2813,54.5 L474.625,42.1094 Z "/><text fill="#000000" font-family="sans-serif" font-size="12" font-style="italic" lengthAdjust="spacingAndGlyphs" textLength="144" x="490" y="53.1543">WikiBackgroundThread</text><line style="stroke: #A80036; stroke-width: 1.5;" x1="462" x2="636" y1="65" y2="65"/><line style="stroke: #A80036; stroke-width: 1.5;" x1="462" x2="636" y1="73" y2="73"/><ellipse cx="472" cy="84" fill="#84BE84" rx="3" ry="3" style="stroke: #038048; stroke-width: 1.0;"/><text fill="#000000" font-family="sans-serif" font-size="11" font-style="italic" lengthAdjust="spacingAndGlyphs" textLength="132" x="481" y="87.2104">backgroundTask(): void</text></a><!--MD5=[c14a4846d51cfe4f13d1494e906e6372]
reverse link org.apache.wiki.rss.Feed to org.apache.wiki.rss.AtomFeed--><path codeLine="103" d="M684.8376,517.3387 C628.4395,584.4359 569.2414,654.8642 532.4846,698.5941 " fill="none" id="org.apache.wiki.rss.Feed-backto-org.apache.wiki.rss.AtomFeed" style="stroke: #A80036; stroke-width: 1.0;"/><polygon fill="none" points="679.7268,512.54,697.9541,501.734,690.4438,521.5481,679.7268,512.54" style="stroke: #A80036; stroke-width: 1.0;"/><!--MD5=[def8e3fceccf0eb80a6a0f6ddec64389]
link org.apache.wiki.rss.Feed to org.apache.wiki.rss.Entry--><path codeLine="104" d="M921.3097,502.609 C947.1723,552.6637 974.6589,605.8614 997.1363,649.3643 " fill="none" id="org.apache.wiki.rss.Feed-to-org.apache.wiki.rss.Entry" style="stroke: #A80036; stroke-width: 1.0;"/><polygon fill="#A80036" points="999.4341,653.8115,998.8563,643.9796,997.1389,649.3694,991.749,647.652,999.4341,653.8115" style="stroke: #A80036; stroke-width: 1.0;"/><text fill="#000000" font-family="sans-serif" font-size="13" lengthAdjust="spacingAndGlyphs" textLength="64" x="968" y="589.0669">m_entries</text><text fill="#000000" font-family="sans-serif" font-size="13" lengthAdjust="spacingAndGlyphs" textLength="7" x="988.3708" y="642.9577">*</text><!--MD5=[229092be556e41e68a1aac50860c7609]
reverse link org.apache.wiki.rss.Feed to org.apache.wiki.rss.RSS20Feed--><path codeLine="105" d="M766.403,521.5 C740.2911,590.5344 713.0977,662.4279 697.1252,704.6558 " fill="none" id="org.apache.wiki.rss.Feed-backto-org.apache.wiki.rss.RSS20Feed" style="stroke: #A80036; stroke-width: 1.0;"/><polygon fill="none" points="759.9254,518.8391,773.5484,502.609,773.0199,523.7921,759.9254,518.8391" style="stroke: #A80036; stroke-width: 1.0;"/><!--MD5=[222abc3ffba691eeb446dfd28b102717]
reverse link org.apache.wiki.rss.RSSGenerator to org.apache.wiki.rss.DefaultRSSGenerator--><path codeLine="106" d="M202,535.2797 C202,576.9262 202,618.8256 202,653.9098 " fill="none" id="org.apache.wiki.rss.RSSGenerator-backto-org.apache.wiki.rss.DefaultRSSGenerator" style="stroke: #A80036; stroke-width: 1.0; stroke-dasharray: 7.0,7.0;"/><polygon fill="none" points="195.0001,535.2139,202,515.2139,209.0001,535.2139,195.0001,535.2139" style="stroke: #A80036; stroke-width: 1.0;"/><!--MD5=[f6d09d6ea70772e41ecae64152889d60]
reverse link org.apache.wiki.api.engine.Initializable to org.apache.wiki.rss.RSSGenerator--><path codeLine="107" d="M202,114.4118 C202,128.0144 202,143.5208 202,159.8764 " fill="none" id="org.apache.wiki.api.engine.Initializable-backto-org.apache.wiki.rss.RSSGenerator" style="stroke: #A80036; stroke-width: 1.0;"/><polygon fill="none" points="195.0001,114.1338,202,94.1337,209.0001,114.1337,195.0001,114.1338" style="stroke: #A80036; stroke-width: 1.0;"/><!--MD5=[2d208e75d3fa8aca4970939eb76dad7e]
reverse link org.apache.wiki.WikiBackgroundThread to org.apache.wiki.rss.RSSThread--><path codeLine="108" d="M549,114.4276 C549,166.0948 549,245.2147 549,294.0265 " fill="none" id="org.apache.wiki.WikiBackgroundThread-backto-org.apache.wiki.rss.RSSThread" style="stroke: #A80036; stroke-width: 1.0;"/><polygon fill="none" points="542.0001,114.1338,549,94.1337,556.0001,114.1337,542.0001,114.1338" style="stroke: #A80036; stroke-width: 1.0;"/><!--MD5=[85c9beffd3609efaeb74103baaac4be8]
reverse link org.apache.wiki.rss.Feed to org.apache.wiki.rss.RSS10Feed--><path codeLine="109" d="M846.5376,522.8251 C850.4398,591.4529 854.4909,662.698 856.8766,704.6558 " fill="none" id="org.apache.wiki.rss.Feed-backto-org.apache.wiki.rss.RSS10Feed" style="stroke: #A80036; stroke-width: 1.0;"/><polygon fill="none" points="839.5349,522.9742,845.3882,502.609,853.5123,522.1794,839.5349,522.9742" style="stroke: #A80036; stroke-width: 1.0;"/><text fill="#888888" font-family="sans-serif" font-size="10" lengthAdjust="spacingAndGlyphs" textLength="192" x="473" y="853.2822">UMLDoclet 2.0.12, PlantUML 1.2020.16</text><!--MD5=[43a7b349e9f7745180af5c48313f5162]
@startuml
    namespace org.apache.wiki.rss {

        class Entry [[Entry.html]] {
            +setAuthor(String): void
            +getAuthor(): String
            +getPage(): Page
            +setPage(Page): void
            +setTitle(String): void
            +getTitle(): String
            +setURL(String): void
            +getURL(): String
            +setContent(String): void
            +getContent(): String
        }

        class AtomFeed [[AtomFeed.html]] {
            {static} +RFC3339FORMAT: String
            +AtomFeed(Context)
            +getString(): String
        }

        abstract class Feed [[Feed.html]] {
            #m_feedURL: String
            #m_channelTitle: String
            #m_channelDescription: String
            #m_channelLanguage: String
            #m_wikiContext: Context
            #m_mode: String
            {static} +VAR_BLOGNAME: String
            +Feed(Context)
            {static} +getSiteName(Context): String
            +setMode(String): void
            +addEntry(Entry): void
            {abstract} +getString(): String
            +getChannelDescription(): String
            +setChannelDescription(String): void
            +getChannelLanguage(): String
            +setChannelLanguage(String): void
            +getChannelTitle(): String
            +setChannelTitle(String): void
            +getFeedURL(): String
            +setFeedURL(String): void
            #getMimeType(ServletContext, String): String
            {static} +format(String): String
        }

        class RSS20Feed [[RSS20Feed.html]] {
            +RSS20Feed(Context)
            +getString(): String
        }

        class DefaultRSSGenerator [[DefaultRSSGenerator.html]] {
            +DefaultRSSGenerator(Engine, Properties)
            +initialize(Engine, Properties): void
            +generate(): String
            +generateFeed(Context, List<Page>, String, String): String
            +isEnabled(): boolean
            +setEnabled(boolean): void
            +getRssFile(): String
            +generateFullWikiRSS(Context, Feed): String
            +generateWikiPageRSS(Context, List<Page>, Feed): String
            +generateBlogRSS(Context, List<Page>, Feed): String
        }

        interface RSSGenerator [[RSSGenerator.html]] {
            {static} +RSS10: String
            {static} +RSS20: String
            {static} +ATOM: String
            {static} +MODE_BLOG: String
            {static} +MODE_WIKI: String
            {static} +MODE_FULL: String
            {static} +PROP_CHANNEL_DESCRIPTION: String
            {static} +PROP_CHANNEL_LANGUAGE: String
            {static} +PROP_CHANNEL_TITLE: String
            {static} +PROP_GENERATE_RSS: String
            {static} +PROP_RSSFILE: String
            {static} +PROP_INTERVAL: String
            {static} +PROP_RSS_AUTHOR: String
            {static} +PROP_RSS_AUTHOREMAIL: String
            {abstract} +generate(): String
            {abstract} +generateFeed(Context, List<Page>, String, String): String
            {abstract} +isEnabled(): boolean
            {abstract} +setEnabled(boolean): void
            {abstract} +getRssFile(): String
            {abstract} +generateFullWikiRSS(Context, Feed): String
            {abstract} +generateWikiPageRSS(Context, List<Page>, Feed): String
            {abstract} +generateBlogRSS(Context, List<Page>, Feed): String
            {static} +format(String): String
            {static} +getContentType(String): String
        }

        class RSSThread [[RSSThread.html]] {
            +RSSThread(Engine, File, int)
            +startupTask(): void
            +backgroundTask(): void
        }

        class RSS10Feed [[RSS10Feed.html]] {
            +RSS10Feed(Context)
            +getString(): String
        }

        Feed <|- - AtomFeed
        Feed - -> "*" Entry: m_entries
        Feed <|- - RSS20Feed
        RSSGenerator <|.. DefaultRSSGenerator
        org.apache.wiki.api.engine.Initializable <|- - RSSGenerator
        org.apache.wiki.WikiBackgroundThread <|- - RSSThread
        Feed <|- - RSS10Feed
    }

    namespace org.apache.wiki.api.engine {
        interface Initializable [[../api/engine/Initializable.html]] {
            {abstract} +initialize(Engine, Properties): void
        }
    }

    namespace org.apache.wiki {
        abstract class WikiBackgroundThread [[../WikiBackgroundThread.html]] {
            {abstract} +backgroundTask(): void
        }
    }

    center footer UMLDoclet 2.0.12, PlantUML 1.2020.16
@enduml

PlantUML version 1.2020.16(Sun Aug 23 20:20:43 UTC 2020)
(APACHE source distribution)
Java Runtime: Java(TM) SE Runtime Environment
JVM: Java HotSpot(TM) 64-Bit Server VM
Default Encoding: ISO-8859-1
Language: en
Country: US
--></g></svg>