<?xml version="1.0" encoding="UTF-8" standalone="no"?><svg xmlns="http://www.w3.org/2000/svg" xmlns:xlink="http://www.w3.org/1999/xlink" contentScriptType="application/ecmascript" contentStyleType="text/css" height="637px" preserveAspectRatio="none" style="width:1613px;height:637px;" version="1.1" viewBox="0 0 1613 637" width="1613px" zoomAndPan="magnify"><defs><filter height="300%" id="f1nitn14wh72bs" width="300%" x="-1" y="-1"><feGaussianBlur result="blurOut" stdDeviation="2.0"/><feColorMatrix in="blurOut" result="blurOut2" type="matrix" values="0 0 0 0 0 0 0 0 0 0 0 0 0 0 0 0 0 0 .4 0"/><feOffset dx="4.0" dy="4.0" in="blurOut2" result="blurOut3"/><feBlend in="SourceGraphic" in2="blurOut3" mode="normal"/></filter></defs><g><!--cluster org.apache.wiki.diff--><polygon fill="#FFFFFF" filter="url(#f1nitn14wh72bs)" points="14,150,176,150,183,172.2969,1591,172.2969,1591,597,14,597,14,150" style="stroke: #000000; stroke-width: 1.5;"/><line style="stroke: #000000; stroke-width: 1.5;" x1="14" x2="183" y1="172.2969" y2="172.2969"/><text fill="#000000" font-family="sans-serif" font-size="14" font-weight="bold" lengthAdjust="spacingAndGlyphs" textLength="156" x="18" y="164.9951">org.apache.wiki.diff</text><!--cluster org.apache.wiki.api.providers--><polygon fill="#FFFFFF" filter="url(#f1nitn14wh72bs)" points="683,16,923,16,930,38.2969,933,38.2969,933,125,683,125,683,16" style="stroke: #000000; stroke-width: 1.5;"/><line style="stroke: #000000; stroke-width: 1.5;" x1="683" x2="930" y1="38.2969" y2="38.2969"/><text fill="#000000" font-family="sans-serif" font-size="14" font-weight="bold" lengthAdjust="spacingAndGlyphs" textLength="234" x="687" y="30.9951">org.apache.wiki.api.providers</text><!--class org.apache.wiki.diff.TraditionalDiffProvider--><a href="TraditionalDiffProvider.html" target="_top" xlink:actuate="onRequest" xlink:show="new" xlink:title="TraditionalDiffProvider.html" xlink:type="simple"><rect fill="#FEFECE" filter="url(#f1nitn14wh72bs)" height="86.4141" id="org.apache.wiki.diff.TraditionalDiffProvider" style="stroke: #A80036; stroke-width: 1.5;" width="279" x="22.5" y="413"/><ellipse cx="89.25" cy="429" fill="#ADD1B2" rx="11" ry="11" style="stroke: #A80036; stroke-width: 1.0;"/><path d="M92.2188,434.6406 Q91.6406,434.9375 91,435.0859 Q90.3594,435.2344 89.6563,435.2344 Q87.1563,435.2344 85.8359,433.5859 Q84.5156,431.9375 84.5156,428.8125 Q84.5156,425.6875 85.8359,424.0313 Q87.1563,422.375 89.6563,422.375 Q90.3594,422.375 91.0078,422.5313 Q91.6563,422.6875 92.2188,422.9844 L92.2188,425.7031 Q91.5938,425.125 91,424.8516 Q90.4063,424.5781 89.7813,424.5781 Q88.4375,424.5781 87.75,425.6484 Q87.0625,426.7188 87.0625,428.8125 Q87.0625,430.9063 87.75,431.9766 Q88.4375,433.0469 89.7813,433.0469 Q90.4063,433.0469 91,432.7734 Q91.5938,432.5 92.2188,431.9219 L92.2188,434.6406 Z "/><text fill="#000000" font-family="sans-serif" font-size="12" lengthAdjust="spacingAndGlyphs" textLength="137" x="109.75" y="433.1543">TraditionalDiffProvider</text><line style="stroke: #A80036; stroke-width: 1.5;" x1="23.5" x2="300.5" y1="445" y2="445"/><line style="stroke: #A80036; stroke-width: 1.5;" x1="23.5" x2="300.5" y1="453" y2="453"/><ellipse cx="33.5" cy="464.9023" fill="#84BE84" rx="3" ry="3" style="stroke: #038048; stroke-width: 1.0;"/><text fill="#000000" font-family="sans-serif" font-size="11" lengthAdjust="spacingAndGlyphs" textLength="136" x="42.5" y="467.2104">getProviderInfo(): String</text><ellipse cx="33.5" cy="477.707" fill="#84BE84" rx="3" ry="3" style="stroke: #038048; stroke-width: 1.0;"/><text fill="#000000" font-family="sans-serif" font-size="11" lengthAdjust="spacingAndGlyphs" textLength="189" x="42.5" y="480.0151">initialize(Engine, Properties): void</text><ellipse cx="33.5" cy="490.5117" fill="#84BE84" rx="3" ry="3" style="stroke: #038048; stroke-width: 1.0;"/><text fill="#000000" font-family="sans-serif" font-size="11" lengthAdjust="spacingAndGlyphs" textLength="253" x="42.5" y="492.8198">makeDiffHtml(Context, String, String): String</text></a><!--class org.apache.wiki.diff.DefaultDifferenceManager--><a href="DefaultDifferenceManager.html" target="_top" xlink:actuate="onRequest" xlink:show="new" xlink:title="DefaultDifferenceManager.html" xlink:type="simple"><rect fill="#FEFECE" filter="url(#f1nitn14wh72bs)" height="86.4141" id="org.apache.wiki.diff.DefaultDifferenceManager" style="stroke: #A80036; stroke-width: 1.5;" width="286" x="1297" y="413"/><ellipse cx="1353.75" cy="429" fill="#ADD1B2" rx="11" ry="11" style="stroke: #A80036; stroke-width: 1.0;"/><path d="M1356.7188,434.6406 Q1356.1406,434.9375 1355.5,435.0859 Q1354.8594,435.2344 1354.1563,435.2344 Q1351.6563,435.2344 1350.3359,433.5859 Q1349.0156,431.9375 1349.0156,428.8125 Q1349.0156,425.6875 1350.3359,424.0313 Q1351.6563,422.375 1354.1563,422.375 Q1354.8594,422.375 1355.5078,422.5313 Q1356.1563,422.6875 1356.7188,422.9844 L1356.7188,425.7031 Q1356.0938,425.125 1355.5,424.8516 Q1354.9063,424.5781 1354.2813,424.5781 Q1352.9375,424.5781 1352.25,425.6484 Q1351.5625,426.7188 1351.5625,428.8125 Q1351.5625,430.9063 1352.25,431.9766 Q1352.9375,433.0469 1354.2813,433.0469 Q1354.9063,433.0469 1355.5,432.7734 Q1356.0938,432.5 1356.7188,431.9219 L1356.7188,434.6406 Z "/><text fill="#000000" font-family="sans-serif" font-size="12" lengthAdjust="spacingAndGlyphs" textLength="164" x="1374.25" y="433.1543">DefaultDifferenceManager</text><line style="stroke: #A80036; stroke-width: 1.5;" x1="1298" x2="1582" y1="445" y2="445"/><line style="stroke: #A80036; stroke-width: 1.5;" x1="1298" x2="1582" y1="453" y2="453"/><ellipse cx="1308" cy="464.9023" fill="#84BE84" rx="3" ry="3" style="stroke: #038048; stroke-width: 1.0;"/><text fill="#000000" font-family="sans-serif" font-size="11" lengthAdjust="spacingAndGlyphs" textLength="260" x="1317" y="467.2104">DefaultDifferenceManager(Engine, Properties)</text><ellipse cx="1308" cy="477.707" fill="#84BE84" rx="3" ry="3" style="stroke: #038048; stroke-width: 1.0;"/><text fill="#000000" font-family="sans-serif" font-size="11" lengthAdjust="spacingAndGlyphs" textLength="227" x="1317" y="480.0151">makeDiff(Context, String, String): String</text><ellipse cx="1308" cy="490.5117" fill="#84BE84" rx="3" ry="3" style="stroke: #038048; stroke-width: 1.0;"/><text fill="#000000" font-family="sans-serif" font-size="11" lengthAdjust="spacingAndGlyphs" textLength="174" x="1317" y="492.8198">getDiff(Context, int, int): String</text></a><!--class org.apache.wiki.diff.DifferenceManager--><a href="DifferenceManager.html" target="_top" xlink:actuate="onRequest" xlink:show="new" xlink:title="DifferenceManager.html" xlink:type="simple"><rect fill="#FEFECE" filter="url(#f1nitn14wh72bs)" height="86.4141" id="org.apache.wiki.diff.DifferenceManager" style="stroke: #A80036; stroke-width: 1.5;" width="251" x="1314.5" y="177"/><ellipse cx="1376.25" cy="193" fill="#B4A7E5" rx="11" ry="11" style="stroke: #A80036; stroke-width: 1.0;"/><path d="M1372.1719,188.7656 L1372.1719,186.6094 L1379.5625,186.6094 L1379.5625,188.7656 L1377.0938,188.7656 L1377.0938,196.8438 L1379.5625,196.8438 L1379.5625,199 L1372.1719,199 L1372.1719,196.8438 L1374.6406,196.8438 L1374.6406,188.7656 L1372.1719,188.7656 Z "/><text fill="#000000" font-family="sans-serif" font-size="12" font-style="italic" lengthAdjust="spacingAndGlyphs" textLength="119" x="1396.75" y="197.1543">DifferenceManager</text><line style="stroke: #A80036; stroke-width: 1.5;" x1="1315.5" x2="1564.5" y1="209" y2="209"/><ellipse cx="1325.5" cy="220.9023" fill="none" rx="3" ry="3" style="stroke: #038048; stroke-width: 1.0;"/><text fill="#000000" font-family="sans-serif" font-size="11" lengthAdjust="spacingAndGlyphs" text-decoration="underline" textLength="162" x="1334.5" y="223.2104">PROP_DIFF_PROVIDER: String</text><line style="stroke: #A80036; stroke-width: 1.5;" x1="1315.5" x2="1564.5" y1="229.8047" y2="229.8047"/><ellipse cx="1325.5" cy="241.707" fill="#84BE84" rx="3" ry="3" style="stroke: #038048; stroke-width: 1.0;"/><text fill="#000000" font-family="sans-serif" font-size="11" font-style="italic" lengthAdjust="spacingAndGlyphs" textLength="225" x="1334.5" y="244.0151">makeDiff(Context, String, String): String</text><ellipse cx="1325.5" cy="254.5117" fill="#84BE84" rx="3" ry="3" style="stroke: #038048; stroke-width: 1.0;"/><text fill="#000000" font-family="sans-serif" font-size="11" font-style="italic" lengthAdjust="spacingAndGlyphs" textLength="174" x="1334.5" y="256.8198">getDiff(Context, int, int): String</text></a><!--class org.apache.wiki.diff.ContextualDiffProvider--><a href="ContextualDiffProvider.html" target="_top" xlink:actuate="onRequest" xlink:show="new" xlink:title="ContextualDiffProvider.html" xlink:type="simple"><rect fill="#FEFECE" filter="url(#f1nitn14wh72bs)" height="265.6797" id="org.apache.wiki.diff.ContextualDiffProvider" style="stroke: #A80036; stroke-width: 1.5;" width="297" x="336.5" y="323"/><ellipse cx="411.75" cy="339" fill="#ADD1B2" rx="11" ry="11" style="stroke: #A80036; stroke-width: 1.0;"/><path d="M414.7188,344.6406 Q414.1406,344.9375 413.5,345.0859 Q412.8594,345.2344 412.1563,345.2344 Q409.6563,345.2344 408.3359,343.5859 Q407.0156,341.9375 407.0156,338.8125 Q407.0156,335.6875 408.3359,334.0313 Q409.6563,332.375 412.1563,332.375 Q412.8594,332.375 413.5078,332.5313 Q414.1563,332.6875 414.7188,332.9844 L414.7188,335.7031 Q414.0938,335.125 413.5,334.8516 Q412.9063,334.5781 412.2813,334.5781 Q410.9375,334.5781 410.25,335.6484 Q409.5625,336.7188 409.5625,338.8125 Q409.5625,340.9063 410.25,341.9766 Q410.9375,343.0469 412.2813,343.0469 Q412.9063,343.0469 413.5,342.7734 Q414.0938,342.5 414.7188,341.9219 L414.7188,344.6406 Z "/><text fill="#000000" font-family="sans-serif" font-size="12" lengthAdjust="spacingAndGlyphs" textLength="138" x="432.25" y="343.1543">ContextualDiffProvider</text><line style="stroke: #A80036; stroke-width: 1.5;" x1="337.5" x2="632.5" y1="355" y2="355"/><ellipse cx="347.5" cy="366.9023" fill="none" rx="3" ry="3" style="stroke: #038048; stroke-width: 1.0;"/><text fill="#000000" font-family="sans-serif" font-size="11" lengthAdjust="spacingAndGlyphs" text-decoration="underline" textLength="242" x="356.5" y="369.2104">PROP_UNCHANGED_CONTEXT_LIMIT: String</text><ellipse cx="347.5" cy="379.707" fill="none" rx="3" ry="3" style="stroke: #038048; stroke-width: 1.0;"/><text fill="#000000" font-family="sans-serif" font-size="11" lengthAdjust="spacingAndGlyphs" text-decoration="underline" textLength="167" x="356.5" y="382.0151">CHANGE_START_HTML: String</text><ellipse cx="347.5" cy="392.5117" fill="none" rx="3" ry="3" style="stroke: #038048; stroke-width: 1.0;"/><text fill="#000000" font-family="sans-serif" font-size="11" lengthAdjust="spacingAndGlyphs" text-decoration="underline" textLength="154" x="356.5" y="394.8198">CHANGE_END_HTML: String</text><ellipse cx="347.5" cy="405.3164" fill="none" rx="3" ry="3" style="stroke: #038048; stroke-width: 1.0;"/><text fill="#000000" font-family="sans-serif" font-size="11" lengthAdjust="spacingAndGlyphs" text-decoration="underline" textLength="107" x="356.5" y="407.6245">DIFF_START: String</text><ellipse cx="347.5" cy="418.1211" fill="none" rx="3" ry="3" style="stroke: #038048; stroke-width: 1.0;"/><text fill="#000000" font-family="sans-serif" font-size="11" lengthAdjust="spacingAndGlyphs" text-decoration="underline" textLength="94" x="356.5" y="420.4292">DIFF_END: String</text><ellipse cx="347.5" cy="430.9258" fill="none" rx="3" ry="3" style="stroke: #038048; stroke-width: 1.0;"/><text fill="#000000" font-family="sans-serif" font-size="11" lengthAdjust="spacingAndGlyphs" text-decoration="underline" textLength="180" x="356.5" y="433.2339">INSERTION_START_HTML: String</text><ellipse cx="347.5" cy="443.7305" fill="none" rx="3" ry="3" style="stroke: #038048; stroke-width: 1.0;"/><text fill="#000000" font-family="sans-serif" font-size="11" lengthAdjust="spacingAndGlyphs" text-decoration="underline" textLength="167" x="356.5" y="446.0386">INSERTION_END_HTML: String</text><ellipse cx="347.5" cy="456.5352" fill="none" rx="3" ry="3" style="stroke: #038048; stroke-width: 1.0;"/><text fill="#000000" font-family="sans-serif" font-size="11" lengthAdjust="spacingAndGlyphs" text-decoration="underline" textLength="175" x="356.5" y="458.8433">DELETION_START_HTML: String</text><ellipse cx="347.5" cy="469.3398" fill="none" rx="3" ry="3" style="stroke: #038048; stroke-width: 1.0;"/><text fill="#000000" font-family="sans-serif" font-size="11" lengthAdjust="spacingAndGlyphs" text-decoration="underline" textLength="162" x="356.5" y="471.6479">DELETION_END_HTML: String</text><ellipse cx="347.5" cy="482.1445" fill="none" rx="3" ry="3" style="stroke: #038048; stroke-width: 1.0;"/><text fill="#000000" font-family="sans-serif" font-size="11" lengthAdjust="spacingAndGlyphs" text-decoration="underline" textLength="219" x="356.5" y="484.4526">ELIDED_HEAD_INDICATOR_HTML: String</text><ellipse cx="347.5" cy="494.9492" fill="none" rx="3" ry="3" style="stroke: #038048; stroke-width: 1.0;"/><text fill="#000000" font-family="sans-serif" font-size="11" lengthAdjust="spacingAndGlyphs" text-decoration="underline" textLength="212" x="356.5" y="497.2573">ELIDED_TAIL_INDICATOR_HTML: String</text><ellipse cx="347.5" cy="507.7539" fill="none" rx="3" ry="3" style="stroke: #038048; stroke-width: 1.0;"/><text fill="#000000" font-family="sans-serif" font-size="11" lengthAdjust="spacingAndGlyphs" text-decoration="underline" textLength="144" x="356.5" y="510.062">LINE_BREAK_HTML: String</text><ellipse cx="347.5" cy="520.5586" fill="none" rx="3" ry="3" style="stroke: #038048; stroke-width: 1.0;"/><text fill="#000000" font-family="sans-serif" font-size="11" lengthAdjust="spacingAndGlyphs" text-decoration="underline" textLength="197" x="356.5" y="522.8667">ALTERNATING_SPACE_HTML: String</text><ellipse cx="347.5" cy="533.3633" fill="none" rx="3" ry="3" style="stroke: #038048; stroke-width: 1.0;"/><text fill="#000000" font-family="sans-serif" font-size="11" lengthAdjust="spacingAndGlyphs" textLength="271" x="356.5" y="535.6714">m_emitChangeNextPreviousHyperlinks: boolean</text><line style="stroke: #A80036; stroke-width: 1.5;" x1="337.5" x2="632.5" y1="542.2656" y2="542.2656"/><ellipse cx="347.5" cy="554.168" fill="#84BE84" rx="3" ry="3" style="stroke: #038048; stroke-width: 1.0;"/><text fill="#000000" font-family="sans-serif" font-size="11" lengthAdjust="spacingAndGlyphs" textLength="136" x="356.5" y="556.4761">getProviderInfo(): String</text><ellipse cx="347.5" cy="566.9727" fill="#84BE84" rx="3" ry="3" style="stroke: #038048; stroke-width: 1.0;"/><text fill="#000000" font-family="sans-serif" font-size="11" lengthAdjust="spacingAndGlyphs" textLength="189" x="356.5" y="569.2808">initialize(Engine, Properties): void</text><ellipse cx="347.5" cy="579.7773" fill="#84BE84" rx="3" ry="3" style="stroke: #038048; stroke-width: 1.0;"/><text fill="#000000" font-family="sans-serif" font-size="11" lengthAdjust="spacingAndGlyphs" textLength="253" x="356.5" y="582.0854">makeDiffHtml(Context, String, String): String</text></a><!--class org.apache.wiki.diff.DiffProvider--><a href="DiffProvider.html" target="_top" xlink:actuate="onRequest" xlink:show="new" xlink:title="DiffProvider.html" xlink:type="simple"><rect fill="#FEFECE" filter="url(#f1nitn14wh72bs)" height="60.8047" id="org.apache.wiki.diff.DiffProvider" style="stroke: #A80036; stroke-width: 1.5;" width="277" x="669.5" y="189.5"/><ellipse cx="768.75" cy="205.5" fill="#B4A7E5" rx="11" ry="11" style="stroke: #A80036; stroke-width: 1.0;"/><path d="M764.6719,201.2656 L764.6719,199.1094 L772.0625,199.1094 L772.0625,201.2656 L769.5938,201.2656 L769.5938,209.3438 L772.0625,209.3438 L772.0625,211.5 L764.6719,211.5 L764.6719,209.3438 L767.1406,209.3438 L767.1406,201.2656 L764.6719,201.2656 Z "/><text fill="#000000" font-family="sans-serif" font-size="12" font-style="italic" lengthAdjust="spacingAndGlyphs" textLength="70" x="789.25" y="209.6543">DiffProvider</text><line style="stroke: #A80036; stroke-width: 1.5;" x1="670.5" x2="945.5" y1="221.5" y2="221.5"/><line style="stroke: #A80036; stroke-width: 1.5;" x1="670.5" x2="945.5" y1="229.5" y2="229.5"/><ellipse cx="680.5" cy="241.4023" fill="#84BE84" rx="3" ry="3" style="stroke: #038048; stroke-width: 1.0;"/><text fill="#000000" font-family="sans-serif" font-size="11" font-style="italic" lengthAdjust="spacingAndGlyphs" textLength="251" x="689.5" y="243.7104">makeDiffHtml(Context, String, String): String</text></a><!--class org.apache.wiki.diff.DiffProvider.NullDiffProvider--><a href="DiffProvider.NullDiffProvider.html" target="_top" xlink:actuate="onRequest" xlink:show="new" xlink:title="DiffProvider.NullDiffProvider.html" xlink:type="simple"><rect fill="#FEFECE" filter="url(#f1nitn14wh72bs)" height="86.4141" id="org.apache.wiki.diff.DiffProvider.NullDiffProvider" style="stroke: #A80036; stroke-width: 1.5;" width="279" x="668.5" y="413"/><ellipse cx="719.25" cy="429" fill="#ADD1B2" rx="11" ry="11" style="stroke: #A80036; stroke-width: 1.0;"/><path d="M722.2188,434.6406 Q721.6406,434.9375 721,435.0859 Q720.3594,435.2344 719.6563,435.2344 Q717.1563,435.2344 715.8359,433.5859 Q714.5156,431.9375 714.5156,428.8125 Q714.5156,425.6875 715.8359,424.0313 Q717.1563,422.375 719.6563,422.375 Q720.3594,422.375 721.0078,422.5313 Q721.6563,422.6875 722.2188,422.9844 L722.2188,425.7031 Q721.5938,425.125 721,424.8516 Q720.4063,424.5781 719.7813,424.5781 Q718.4375,424.5781 717.75,425.6484 Q717.0625,426.7188 717.0625,428.8125 Q717.0625,430.9063 717.75,431.9766 Q718.4375,433.0469 719.7813,433.0469 Q720.4063,433.0469 721,432.7734 Q721.5938,432.5 722.2188,431.9219 L722.2188,434.6406 Z "/><text fill="#000000" font-family="sans-serif" font-size="12" lengthAdjust="spacingAndGlyphs" textLength="169" x="739.75" y="433.1543">DiffProvider.NullDiffProvider</text><line style="stroke: #A80036; stroke-width: 1.5;" x1="669.5" x2="946.5" y1="445" y2="445"/><line style="stroke: #A80036; stroke-width: 1.5;" x1="669.5" x2="946.5" y1="453" y2="453"/><ellipse cx="679.5" cy="464.9023" fill="#84BE84" rx="3" ry="3" style="stroke: #038048; stroke-width: 1.0;"/><text fill="#000000" font-family="sans-serif" font-size="11" lengthAdjust="spacingAndGlyphs" textLength="253" x="688.5" y="467.2104">makeDiffHtml(Context, String, String): String</text><ellipse cx="679.5" cy="477.707" fill="#84BE84" rx="3" ry="3" style="stroke: #038048; stroke-width: 1.0;"/><text fill="#000000" font-family="sans-serif" font-size="11" lengthAdjust="spacingAndGlyphs" textLength="189" x="688.5" y="480.0151">initialize(Engine, Properties): void</text><ellipse cx="679.5" cy="490.5117" fill="#84BE84" rx="3" ry="3" style="stroke: #038048; stroke-width: 1.0;"/><text fill="#000000" font-family="sans-serif" font-size="11" lengthAdjust="spacingAndGlyphs" textLength="136" x="688.5" y="492.8198">getProviderInfo(): String</text></a><!--class org.apache.wiki.diff.ExternalDiffProvider--><a href="ExternalDiffProvider.html" target="_top" xlink:actuate="onRequest" xlink:show="new" xlink:title="ExternalDiffProvider.html" xlink:type="simple"><rect fill="#FEFECE" filter="url(#f1nitn14wh72bs)" height="99.2188" id="org.apache.wiki.diff.ExternalDiffProvider" style="stroke: #A80036; stroke-width: 1.5;" width="279" x="982.5" y="406.5"/><ellipse cx="1056.75" cy="422.5" fill="#ADD1B2" rx="11" ry="11" style="stroke: #A80036; stroke-width: 1.0;"/><path d="M1059.7188,428.1406 Q1059.1406,428.4375 1058.5,428.5859 Q1057.8594,428.7344 1057.1563,428.7344 Q1054.6563,428.7344 1053.3359,427.0859 Q1052.0156,425.4375 1052.0156,422.3125 Q1052.0156,419.1875 1053.3359,417.5313 Q1054.6563,415.875 1057.1563,415.875 Q1057.8594,415.875 1058.5078,416.0313 Q1059.1563,416.1875 1059.7188,416.4844 L1059.7188,419.2031 Q1059.0938,418.625 1058.5,418.3516 Q1057.9063,418.0781 1057.2813,418.0781 Q1055.9375,418.0781 1055.25,419.1484 Q1054.5625,420.2188 1054.5625,422.3125 Q1054.5625,424.4063 1055.25,425.4766 Q1055.9375,426.5469 1057.2813,426.5469 Q1057.9063,426.5469 1058.5,426.2734 Q1059.0938,426 1059.7188,425.4219 L1059.7188,428.1406 Z "/><text fill="#000000" font-family="sans-serif" font-size="12" lengthAdjust="spacingAndGlyphs" textLength="122" x="1077.25" y="426.6543">ExternalDiffProvider</text><line style="stroke: #A80036; stroke-width: 1.5;" x1="983.5" x2="1260.5" y1="438.5" y2="438.5"/><ellipse cx="993.5" cy="450.4023" fill="none" rx="3" ry="3" style="stroke: #038048; stroke-width: 1.0;"/><text fill="#000000" font-family="sans-serif" font-size="11" lengthAdjust="spacingAndGlyphs" text-decoration="underline" textLength="159" x="1002.5" y="452.7104">PROP_DIFFCOMMAND: String</text><line style="stroke: #A80036; stroke-width: 1.5;" x1="983.5" x2="1260.5" y1="459.3047" y2="459.3047"/><ellipse cx="993.5" cy="471.207" fill="#84BE84" rx="3" ry="3" style="stroke: #038048; stroke-width: 1.0;"/><text fill="#000000" font-family="sans-serif" font-size="11" lengthAdjust="spacingAndGlyphs" textLength="136" x="1002.5" y="473.5151">getProviderInfo(): String</text><ellipse cx="993.5" cy="484.0117" fill="#84BE84" rx="3" ry="3" style="stroke: #038048; stroke-width: 1.0;"/><text fill="#000000" font-family="sans-serif" font-size="11" lengthAdjust="spacingAndGlyphs" textLength="189" x="1002.5" y="486.3198">initialize(Engine, Properties): void</text><ellipse cx="993.5" cy="496.8164" fill="#84BE84" rx="3" ry="3" style="stroke: #038048; stroke-width: 1.0;"/><text fill="#000000" font-family="sans-serif" font-size="11" lengthAdjust="spacingAndGlyphs" textLength="253" x="1002.5" y="499.1245">makeDiffHtml(Context, String, String): String</text></a><!--class org.apache.wiki.api.providers.WikiProvider--><rect fill="#FEFECE" filter="url(#f1nitn14wh72bs)" height="73.6094" id="org.apache.wiki.api.providers.WikiProvider" style="stroke: #A80036; stroke-width: 1.5;" width="216" x="700" y="43"/><ellipse cx="766.25" cy="59" fill="#B4A7E5" rx="11" ry="11" style="stroke: #A80036; stroke-width: 1.0;"/><path d="M762.1719,54.7656 L762.1719,52.6094 L769.5625,52.6094 L769.5625,54.7656 L767.0938,54.7656 L767.0938,62.8438 L769.5625,62.8438 L769.5625,65 L762.1719,65 L762.1719,62.8438 L764.6406,62.8438 L764.6406,54.7656 L762.1719,54.7656 Z "/><text fill="#000000" font-family="sans-serif" font-size="12" font-style="italic" lengthAdjust="spacingAndGlyphs" textLength="75" x="786.75" y="63.1543">WikiProvider</text><line style="stroke: #A80036; stroke-width: 1.5;" x1="701" x2="915" y1="75" y2="75"/><line style="stroke: #A80036; stroke-width: 1.5;" x1="701" x2="915" y1="83" y2="83"/><ellipse cx="711" cy="94.9023" fill="#84BE84" rx="3" ry="3" style="stroke: #038048; stroke-width: 1.0;"/><text fill="#000000" font-family="sans-serif" font-size="11" font-style="italic" lengthAdjust="spacingAndGlyphs" textLength="190" x="720" y="97.2104">initialize(Engine, Properties): void</text><ellipse cx="711" cy="107.707" fill="#84BE84" rx="3" ry="3" style="stroke: #038048; stroke-width: 1.0;"/><text fill="#000000" font-family="sans-serif" font-size="11" font-style="italic" lengthAdjust="spacingAndGlyphs" textLength="136" x="720" y="110.0151">getProviderInfo(): String</text><!--link org.apache.wiki.diff.DiffProvider to org.apache.wiki.diff.TraditionalDiffProvider--><path d="M649.2535,233.3951 C550.2845,246.5086 422.5199,272.3269 319,323 C273.9208,345.0663 231.0327,382.9727 201.5091,412.6855 " fill="none" id="org.apache.wiki.diff.DiffProvider-org.apache.wiki.diff.TraditionalDiffProvider" style="stroke: #A80036; stroke-width: 1.0; stroke-dasharray: 7.0,7.0;"/><polygon fill="none" points="648.5608,226.427,669.2811,230.8617,650.3177,240.3163,648.5608,226.427" style="stroke: #A80036; stroke-width: 1.0;"/><!--link org.apache.wiki.diff.DifferenceManager to org.apache.wiki.diff.DefaultDifferenceManager--><path d="M1440,283.2797 C1440,324.2899 1440,376.6262 1440,412.8855 " fill="none" id="org.apache.wiki.diff.DifferenceManager-org.apache.wiki.diff.DefaultDifferenceManager" style="stroke: #A80036; stroke-width: 1.0; stroke-dasharray: 7.0,7.0;"/><polygon fill="none" points="1433.0001,283.0117,1440,263.0116,1447.0001,283.0116,1433.0001,283.0117" style="stroke: #A80036; stroke-width: 1.0;"/><!--link org.apache.wiki.diff.DiffProvider to org.apache.wiki.diff.ContextualDiffProvider--><path d="M741.7912,261.4574 C713.4175,279.7288 680.1627,301.8242 651,323 C645.3225,327.1226 639.5733,331.3659 633.7944,335.6892 " fill="none" id="org.apache.wiki.diff.DiffProvider-org.apache.wiki.diff.ContextualDiffProvider" style="stroke: #A80036; stroke-width: 1.0; stroke-dasharray: 7.0,7.0;"/><polygon fill="none" points="738.1257,255.4925,758.7469,250.6174,745.6668,267.288,738.1257,255.4925" style="stroke: #A80036; stroke-width: 1.0;"/><!--link org.apache.wiki.api.providers.WikiProvider to org.apache.wiki.diff.DiffProvider--><path d="M808,137.2538 C808,155.0722 808,174.0309 808,189.2994 " fill="none" id="org.apache.wiki.api.providers.WikiProvider-org.apache.wiki.diff.DiffProvider" style="stroke: #A80036; stroke-width: 1.0; stroke-dasharray: 7.0,7.0;"/><polygon fill="none" points="801.0001,137.1499,808,117.1499,815.0001,137.1498,801.0001,137.1499" style="stroke: #A80036; stroke-width: 1.0;"/><!--link org.apache.wiki.diff.DiffProvider to org.apache.wiki.diff.DiffProvider.NullDiffProvider--><path d="M797.2939,270.9186 C794.3891,313.2046 794.5805,372.7005 797.8682,412.7183 " fill="none" id="org.apache.wiki.diff.DiffProvider-org.apache.wiki.diff.DiffProvider.NullDiffProvider" style="stroke: #A80036; stroke-width: 1.0; stroke-dasharray: 7.0,7.0;"/><polygon fill="none" points="790.3335,270.1607,799.0632,250.8529,804.2794,271.3904,790.3335,270.1607" style="stroke: #A80036; stroke-width: 1.0;"/><!--link org.apache.wiki.diff.DiffProvider to org.apache.wiki.diff.DiffProvider.NullDiffProvider--><path d="M818.9391,265.7835 C822.4227,308.2702 822.3522,371.0522 818.7278,412.7183 " fill="none" id="org.apache.wiki.diff.DiffProvider-org.apache.wiki.diff.DiffProvider.NullDiffProvider-1" style="stroke: #A80036; stroke-width: 1.0;"/><ellipse cx="818.2499" cy="258.8141" fill="#FFFFFF" rx="8" ry="8" style="stroke: #A80036; stroke-width: 1.0;"/><line style="stroke: #A80036; stroke-width: 1.0;" x1="819.0372" x2="817.4625" y1="266.7752" y2="250.8529"/><line style="stroke: #A80036; stroke-width: 1.0;" x1="810.2887" x2="826.211" y1="259.6014" y2="258.0267"/><!--link org.apache.wiki.diff.DiffProvider to org.apache.wiki.diff.ExternalDiffProvider--><path d="M874.8114,261.2778 C903.1634,279.4438 936.2378,301.5082 965,323 C999.9117,349.0869 1037.2047,380.5156 1066.6805,406.27 " fill="none" id="org.apache.wiki.diff.DiffProvider-org.apache.wiki.diff.ExternalDiffProvider" style="stroke: #A80036; stroke-width: 1.0; stroke-dasharray: 7.0,7.0;"/><polygon fill="none" points="870.9832,267.139,857.8493,250.5106,878.4861,255.3192,870.9832,267.139" style="stroke: #A80036; stroke-width: 1.0;"/><text fill="#888888" font-family="sans-serif" font-size="10" lengthAdjust="spacingAndGlyphs" textLength="186" x="715.5" y="624.2822">UMLDoclet 1.1.4, PlantUML 1.2019.05</text><!--
@startuml

    namespace org.apache.wiki.diff {

        class TraditionalDiffProvider [[TraditionalDiffProvider.html]] {
            +getProviderInfo(): String
            +initialize(Engine, Properties): void
            +makeDiffHtml(Context, String, String): String
        }

        class DefaultDifferenceManager [[DefaultDifferenceManager.html]] {
            +DefaultDifferenceManager(Engine, Properties)
            +makeDiff(Context, String, String): String
            +getDiff(Context, int, int): String
        }

        interface DifferenceManager [[DifferenceManager.html]] {
            {static} +PROP_DIFF_PROVIDER: String
            {abstract} +makeDiff(Context, String, String): String
            {abstract} +getDiff(Context, int, int): String
        }

        class ContextualDiffProvider [[ContextualDiffProvider.html]] {
            {static} +PROP_UNCHANGED_CONTEXT_LIMIT: String
            {static} +CHANGE_START_HTML: String
            {static} +CHANGE_END_HTML: String
            {static} +DIFF_START: String
            {static} +DIFF_END: String
            {static} +INSERTION_START_HTML: String
            {static} +INSERTION_END_HTML: String
            {static} +DELETION_START_HTML: String
            {static} +DELETION_END_HTML: String
            {static} +ELIDED_HEAD_INDICATOR_HTML: String
            {static} +ELIDED_TAIL_INDICATOR_HTML: String
            {static} +LINE_BREAK_HTML: String
            {static} +ALTERNATING_SPACE_HTML: String
            +m_emitChangeNextPreviousHyperlinks: boolean
            +getProviderInfo(): String
            +initialize(Engine, Properties): void
            +makeDiffHtml(Context, String, String): String
        }

        interface DiffProvider [[DiffProvider.html]] {
            {abstract} +makeDiffHtml(Context, String, String): String
        }

        class org.apache.wiki.diff.DiffProvider.NullDiffProvider [[DiffProvider.NullDiffProvider.html]] {
            +makeDiffHtml(Context, String, String): String
            +initialize(Engine, Properties): void
            +getProviderInfo(): String
        }

        class ExternalDiffProvider [[ExternalDiffProvider.html]] {
            {static} +PROP_DIFFCOMMAND: String
            +getProviderInfo(): String
            +initialize(Engine, Properties): void
            +makeDiffHtml(Context, String, String): String
        }

        DiffProvider <|.. TraditionalDiffProvider

        DifferenceManager <|.. DefaultDifferenceManager

        DiffProvider <|.. ContextualDiffProvider

        interface org.apache.wiki.api.providers.WikiProvider {
            {abstract} +initialize(Engine, Properties): void
            {abstract} +getProviderInfo(): String
        }
        org.apache.wiki.api.providers.WikiProvider <|.. DiffProvider

        DiffProvider <|.. org.apache.wiki.diff.DiffProvider.NullDiffProvider

        DiffProvider +- - org.apache.wiki.diff.DiffProvider.NullDiffProvider

        DiffProvider <|.. ExternalDiffProvider

    }


    center footer UMLDoclet 1.1.4, PlantUML 1.2019.05
@enduml

PlantUML version 1.2019.05(Sat Apr 20 16:45:36 UTC 2019)
(APACHE source distribution)
Java Runtime: Java(TM) SE Runtime Environment
JVM: Java HotSpot(TM) 64-Bit Server VM
Java Version: 1.8.0_241-b07
Operating System: Linux
OS Version: 4.15.0-74-generic
Default Encoding: ISO-8859-1
Language: en
Country: US
--></g></svg>