<?xml version="1.0" encoding="UTF-8" standalone="no"?><svg xmlns="http://www.w3.org/2000/svg" xmlns:xlink="http://www.w3.org/1999/xlink" contentScriptType="application/ecmascript" contentStyleType="text/css" height="637px" preserveAspectRatio="none" style="width:1357px;height:637px;" version="1.1" viewBox="0 0 1357 637" width="1357px" zoomAndPan="magnify"><defs><filter height="300%" id="f1s9tb313qvagf" width="300%" x="-1" y="-1"><feGaussianBlur result="blurOut" stdDeviation="2.0"/><feColorMatrix in="blurOut" result="blurOut2" type="matrix" values="0 0 0 0 0 0 0 0 0 0 0 0 0 0 0 0 0 0 .4 0"/><feOffset dx="4.0" dy="4.0" in="blurOut2" result="blurOut3"/><feBlend in="SourceGraphic" in2="blurOut3" mode="normal"/></filter></defs><g><!--cluster org.apache.wiki.diff--><polygon fill="#FFFFFF" filter="url(#f1s9tb313qvagf)" points="14,150,176,150,183,172.2969,1335,172.2969,1335,597,14,597,14,150" style="stroke: #000000; stroke-width: 1.5;"/><line style="stroke: #000000; stroke-width: 1.5;" x1="14" x2="183" y1="172.2969" y2="172.2969"/><text fill="#000000" font-family="sans-serif" font-size="14" font-weight="bold" lengthAdjust="spacingAndGlyphs" textLength="156" x="18" y="164.9951">org.apache.wiki.diff</text><!--cluster org.apache.wiki--><polygon fill="#FFFFFF" filter="url(#f1s9tb313qvagf)" points="380,16,511,16,518,38.2969,634,38.2969,634,125,380,125,380,16" style="stroke: #000000; stroke-width: 1.5;"/><line style="stroke: #000000; stroke-width: 1.5;" x1="380" x2="518" y1="38.2969" y2="38.2969"/><text fill="#000000" font-family="sans-serif" font-size="14" font-weight="bold" lengthAdjust="spacingAndGlyphs" textLength="125" x="384" y="30.9951">org.apache.wiki</text><!--class org.apache.wiki.diff.DiffProvider--><a href="DiffProvider.html" target="_top" xlink:actuate="onRequest" xlink:show="new" xlink:title="DiffProvider.html" xlink:type="simple"><rect fill="#FEFECE" filter="url(#f1s9tb313qvagf)" height="60.8047" id="org.apache.wiki.diff.DiffProvider" style="stroke: #A80036; stroke-width: 1.5;" width="300" x="357" y="189.5"/><ellipse cx="467.75" cy="205.5" fill="#B4A7E5" rx="11" ry="11" style="stroke: #A80036; stroke-width: 1.0;"/><path d="M463.6719,201.2656 L463.6719,199.1094 L471.0625,199.1094 L471.0625,201.2656 L468.5938,201.2656 L468.5938,209.3438 L471.0625,209.3438 L471.0625,211.5 L463.6719,211.5 L463.6719,209.3438 L466.1406,209.3438 L466.1406,201.2656 L463.6719,201.2656 Z "/><text fill="#000000" font-family="sans-serif" font-size="12" font-style="italic" lengthAdjust="spacingAndGlyphs" textLength="70" x="488.25" y="209.6543">DiffProvider</text><line style="stroke: #A80036; stroke-width: 1.5;" x1="358" x2="656" y1="221.5" y2="221.5"/><line style="stroke: #A80036; stroke-width: 1.5;" x1="358" x2="656" y1="229.5" y2="229.5"/><ellipse cx="368" cy="241.4023" fill="#84BE84" rx="3" ry="3" style="stroke: #038048; stroke-width: 1.0;"/><text fill="#000000" font-family="sans-serif" font-size="11" font-style="italic" lengthAdjust="spacingAndGlyphs" textLength="274" x="377" y="243.7104">makeDiffHtml(WikiContext, String, String): String</text></a><!--class org.apache.wiki.diff.DiffProvider.NullDiffProvider--><a href="DiffProvider.NullDiffProvider.html" target="_top" xlink:actuate="onRequest" xlink:show="new" xlink:title="DiffProvider.NullDiffProvider.html" xlink:type="simple"><rect fill="#FEFECE" filter="url(#f1s9tb313qvagf)" height="86.4141" id="org.apache.wiki.diff.DiffProvider.NullDiffProvider" style="stroke: #A80036; stroke-width: 1.5;" width="300" x="22" y="413"/><ellipse cx="83.25" cy="429" fill="#ADD1B2" rx="11" ry="11" style="stroke: #A80036; stroke-width: 1.0;"/><path d="M86.2188,434.6406 Q85.6406,434.9375 85,435.0859 Q84.3594,435.2344 83.6563,435.2344 Q81.1563,435.2344 79.8359,433.5859 Q78.5156,431.9375 78.5156,428.8125 Q78.5156,425.6875 79.8359,424.0313 Q81.1563,422.375 83.6563,422.375 Q84.3594,422.375 85.0078,422.5313 Q85.6563,422.6875 86.2188,422.9844 L86.2188,425.7031 Q85.5938,425.125 85,424.8516 Q84.4063,424.5781 83.7813,424.5781 Q82.4375,424.5781 81.75,425.6484 Q81.0625,426.7188 81.0625,428.8125 Q81.0625,430.9063 81.75,431.9766 Q82.4375,433.0469 83.7813,433.0469 Q84.4063,433.0469 85,432.7734 Q85.5938,432.5 86.2188,431.9219 L86.2188,434.6406 Z "/><text fill="#000000" font-family="sans-serif" font-size="12" lengthAdjust="spacingAndGlyphs" textLength="169" x="103.75" y="433.1543">DiffProvider.NullDiffProvider</text><line style="stroke: #A80036; stroke-width: 1.5;" x1="23" x2="321" y1="445" y2="445"/><line style="stroke: #A80036; stroke-width: 1.5;" x1="23" x2="321" y1="453" y2="453"/><ellipse cx="33" cy="464.9023" fill="#84BE84" rx="3" ry="3" style="stroke: #038048; stroke-width: 1.0;"/><text fill="#000000" font-family="sans-serif" font-size="11" lengthAdjust="spacingAndGlyphs" textLength="274" x="42" y="467.2104">makeDiffHtml(WikiContext, String, String): String</text><ellipse cx="33" cy="477.707" fill="#84BE84" rx="3" ry="3" style="stroke: #038048; stroke-width: 1.0;"/><text fill="#000000" font-family="sans-serif" font-size="11" lengthAdjust="spacingAndGlyphs" textLength="210" x="42" y="480.0151">initialize(WikiEngine, Properties): void</text><ellipse cx="33" cy="490.5117" fill="#84BE84" rx="3" ry="3" style="stroke: #038048; stroke-width: 1.0;"/><text fill="#000000" font-family="sans-serif" font-size="11" lengthAdjust="spacingAndGlyphs" textLength="136" x="42" y="492.8198">getProviderInfo(): String</text></a><!--class org.apache.wiki.diff.DifferenceManager--><a href="DifferenceManager.html" target="_top" xlink:actuate="onRequest" xlink:show="new" xlink:title="DifferenceManager.html" xlink:type="simple"><rect fill="#FEFECE" filter="url(#f1s9tb313qvagf)" height="86.4141" id="org.apache.wiki.diff.DifferenceManager" style="stroke: #A80036; stroke-width: 1.5;" width="274" x="35" y="177"/><ellipse cx="108.25" cy="193" fill="#ADD1B2" rx="11" ry="11" style="stroke: #A80036; stroke-width: 1.0;"/><path d="M111.2188,198.6406 Q110.6406,198.9375 110,199.0859 Q109.3594,199.2344 108.6563,199.2344 Q106.1563,199.2344 104.8359,197.5859 Q103.5156,195.9375 103.5156,192.8125 Q103.5156,189.6875 104.8359,188.0313 Q106.1563,186.375 108.6563,186.375 Q109.3594,186.375 110.0078,186.5313 Q110.6563,186.6875 111.2188,186.9844 L111.2188,189.7031 Q110.5938,189.125 110,188.8516 Q109.4063,188.5781 108.7813,188.5781 Q107.4375,188.5781 106.75,189.6484 Q106.0625,190.7188 106.0625,192.8125 Q106.0625,194.9063 106.75,195.9766 Q107.4375,197.0469 108.7813,197.0469 Q109.4063,197.0469 110,196.7734 Q110.5938,196.5 111.2188,195.9219 L111.2188,198.6406 Z "/><text fill="#000000" font-family="sans-serif" font-size="12" lengthAdjust="spacingAndGlyphs" textLength="119" x="128.75" y="197.1543">DifferenceManager</text><line style="stroke: #A80036; stroke-width: 1.5;" x1="36" x2="308" y1="209" y2="209"/><ellipse cx="46" cy="220.9023" fill="none" rx="3" ry="3" style="stroke: #038048; stroke-width: 1.0;"/><text fill="#000000" font-family="sans-serif" font-size="11" lengthAdjust="spacingAndGlyphs" text-decoration="underline" textLength="162" x="55" y="223.2104">PROP_DIFF_PROVIDER: String</text><line style="stroke: #A80036; stroke-width: 1.5;" x1="36" x2="308" y1="229.8047" y2="229.8047"/><ellipse cx="46" cy="241.707" fill="#84BE84" rx="3" ry="3" style="stroke: #038048; stroke-width: 1.0;"/><text fill="#000000" font-family="sans-serif" font-size="11" lengthAdjust="spacingAndGlyphs" textLength="241" x="55" y="244.0151">DifferenceManager(WikiEngine, Properties)</text><ellipse cx="46" cy="254.5117" fill="#84BE84" rx="3" ry="3" style="stroke: #038048; stroke-width: 1.0;"/><text fill="#000000" font-family="sans-serif" font-size="11" lengthAdjust="spacingAndGlyphs" textLength="248" x="55" y="256.8198">makeDiff(WikiContext, String, String): String</text></a><!--class org.apache.wiki.diff.ContextualDiffProvider--><a href="ContextualDiffProvider.html" target="_top" xlink:actuate="onRequest" xlink:show="new" xlink:title="ContextualDiffProvider.html" xlink:type="simple"><rect fill="#FEFECE" filter="url(#f1s9tb313qvagf)" height="265.6797" id="org.apache.wiki.diff.ContextualDiffProvider" style="stroke: #A80036; stroke-width: 1.5;" width="300" x="357" y="323"/><ellipse cx="433.75" cy="339" fill="#ADD1B2" rx="11" ry="11" style="stroke: #A80036; stroke-width: 1.0;"/><path d="M436.7188,344.6406 Q436.1406,344.9375 435.5,345.0859 Q434.8594,345.2344 434.1563,345.2344 Q431.6563,345.2344 430.3359,343.5859 Q429.0156,341.9375 429.0156,338.8125 Q429.0156,335.6875 430.3359,334.0313 Q431.6563,332.375 434.1563,332.375 Q434.8594,332.375 435.5078,332.5313 Q436.1563,332.6875 436.7188,332.9844 L436.7188,335.7031 Q436.0938,335.125 435.5,334.8516 Q434.9063,334.5781 434.2813,334.5781 Q432.9375,334.5781 432.25,335.6484 Q431.5625,336.7188 431.5625,338.8125 Q431.5625,340.9063 432.25,341.9766 Q432.9375,343.0469 434.2813,343.0469 Q434.9063,343.0469 435.5,342.7734 Q436.0938,342.5 436.7188,341.9219 L436.7188,344.6406 Z "/><text fill="#000000" font-family="sans-serif" font-size="12" lengthAdjust="spacingAndGlyphs" textLength="138" x="454.25" y="343.1543">ContextualDiffProvider</text><line style="stroke: #A80036; stroke-width: 1.5;" x1="358" x2="656" y1="355" y2="355"/><ellipse cx="368" cy="366.9023" fill="none" rx="3" ry="3" style="stroke: #038048; stroke-width: 1.0;"/><text fill="#000000" font-family="sans-serif" font-size="11" lengthAdjust="spacingAndGlyphs" text-decoration="underline" textLength="242" x="377" y="369.2104">PROP_UNCHANGED_CONTEXT_LIMIT: String</text><ellipse cx="368" cy="379.707" fill="none" rx="3" ry="3" style="stroke: #038048; stroke-width: 1.0;"/><text fill="#000000" font-family="sans-serif" font-size="11" lengthAdjust="spacingAndGlyphs" textLength="271" x="377" y="382.0151">m_emitChangeNextPreviousHyperlinks: boolean</text><ellipse cx="368" cy="392.5117" fill="none" rx="3" ry="3" style="stroke: #038048; stroke-width: 1.0;"/><text fill="#000000" font-family="sans-serif" font-size="11" lengthAdjust="spacingAndGlyphs" textLength="154" x="377" y="394.8198">m_changeStartHtml: String</text><ellipse cx="368" cy="405.3164" fill="none" rx="3" ry="3" style="stroke: #038048; stroke-width: 1.0;"/><text fill="#000000" font-family="sans-serif" font-size="11" lengthAdjust="spacingAndGlyphs" textLength="147" x="377" y="407.6245">m_changeEndHtml: String</text><ellipse cx="368" cy="418.1211" fill="none" rx="3" ry="3" style="stroke: #038048; stroke-width: 1.0;"/><text fill="#000000" font-family="sans-serif" font-size="11" lengthAdjust="spacingAndGlyphs" textLength="105" x="377" y="420.4292">m_diffStart: String</text><ellipse cx="368" cy="430.9258" fill="none" rx="3" ry="3" style="stroke: #038048; stroke-width: 1.0;"/><text fill="#000000" font-family="sans-serif" font-size="11" lengthAdjust="spacingAndGlyphs" textLength="98" x="377" y="433.2339">m_diffEnd: String</text><ellipse cx="368" cy="443.7305" fill="none" rx="3" ry="3" style="stroke: #038048; stroke-width: 1.0;"/><text fill="#000000" font-family="sans-serif" font-size="11" lengthAdjust="spacingAndGlyphs" textLength="163" x="377" y="446.0386">m_insertionStartHtml: String</text><ellipse cx="368" cy="456.5352" fill="none" rx="3" ry="3" style="stroke: #038048; stroke-width: 1.0;"/><text fill="#000000" font-family="sans-serif" font-size="11" lengthAdjust="spacingAndGlyphs" textLength="156" x="377" y="458.8433">m_insertionEndHtml: String</text><ellipse cx="368" cy="469.3398" fill="none" rx="3" ry="3" style="stroke: #038048; stroke-width: 1.0;"/><text fill="#000000" font-family="sans-serif" font-size="11" lengthAdjust="spacingAndGlyphs" textLength="158" x="377" y="471.6479">m_deletionStartHtml: String</text><ellipse cx="368" cy="482.1445" fill="none" rx="3" ry="3" style="stroke: #038048; stroke-width: 1.0;"/><text fill="#000000" font-family="sans-serif" font-size="11" lengthAdjust="spacingAndGlyphs" textLength="151" x="377" y="484.4526">m_deletionEndHtml: String</text><ellipse cx="368" cy="494.9492" fill="none" rx="3" ry="3" style="stroke: #038048; stroke-width: 1.0;"/><text fill="#000000" font-family="sans-serif" font-size="11" lengthAdjust="spacingAndGlyphs" textLength="197" x="377" y="497.2573">m_elidedHeadIndicatorHtml: String</text><ellipse cx="368" cy="507.7539" fill="none" rx="3" ry="3" style="stroke: #038048; stroke-width: 1.0;"/><text fill="#000000" font-family="sans-serif" font-size="11" lengthAdjust="spacingAndGlyphs" textLength="188" x="377" y="510.062">m_elidedTailIndicatorHtml: String</text><ellipse cx="368" cy="520.5586" fill="none" rx="3" ry="3" style="stroke: #038048; stroke-width: 1.0;"/><text fill="#000000" font-family="sans-serif" font-size="11" lengthAdjust="spacingAndGlyphs" textLength="138" x="377" y="522.8667">m_lineBreakHtml: String</text><ellipse cx="368" cy="533.3633" fill="none" rx="3" ry="3" style="stroke: #038048; stroke-width: 1.0;"/><text fill="#000000" font-family="sans-serif" font-size="11" lengthAdjust="spacingAndGlyphs" textLength="181" x="377" y="535.6714">m_alternatingSpaceHtml: String</text><line style="stroke: #A80036; stroke-width: 1.5;" x1="358" x2="656" y1="542.2656" y2="542.2656"/><ellipse cx="368" cy="554.168" fill="#84BE84" rx="3" ry="3" style="stroke: #038048; stroke-width: 1.0;"/><text fill="#000000" font-family="sans-serif" font-size="11" lengthAdjust="spacingAndGlyphs" textLength="136" x="377" y="556.4761">getProviderInfo(): String</text><ellipse cx="368" cy="566.9727" fill="#84BE84" rx="3" ry="3" style="stroke: #038048; stroke-width: 1.0;"/><text fill="#000000" font-family="sans-serif" font-size="11" lengthAdjust="spacingAndGlyphs" textLength="210" x="377" y="569.2808">initialize(WikiEngine, Properties): void</text><ellipse cx="368" cy="579.7773" fill="#84BE84" rx="3" ry="3" style="stroke: #038048; stroke-width: 1.0;"/><text fill="#000000" font-family="sans-serif" font-size="11" lengthAdjust="spacingAndGlyphs" textLength="274" x="377" y="582.0854">makeDiffHtml(WikiContext, String, String): String</text></a><!--class org.apache.wiki.diff.ExternalDiffProvider--><a href="ExternalDiffProvider.html" target="_top" xlink:actuate="onRequest" xlink:show="new" xlink:title="ExternalDiffProvider.html" xlink:type="simple"><rect fill="#FEFECE" filter="url(#f1s9tb313qvagf)" height="99.2188" id="org.apache.wiki.diff.ExternalDiffProvider" style="stroke: #A80036; stroke-width: 1.5;" width="300" x="692" y="406.5"/><ellipse cx="776.75" cy="422.5" fill="#ADD1B2" rx="11" ry="11" style="stroke: #A80036; stroke-width: 1.0;"/><path d="M779.7188,428.1406 Q779.1406,428.4375 778.5,428.5859 Q777.8594,428.7344 777.1563,428.7344 Q774.6563,428.7344 773.3359,427.0859 Q772.0156,425.4375 772.0156,422.3125 Q772.0156,419.1875 773.3359,417.5313 Q774.6563,415.875 777.1563,415.875 Q777.8594,415.875 778.5078,416.0313 Q779.1563,416.1875 779.7188,416.4844 L779.7188,419.2031 Q779.0938,418.625 778.5,418.3516 Q777.9063,418.0781 777.2813,418.0781 Q775.9375,418.0781 775.25,419.1484 Q774.5625,420.2188 774.5625,422.3125 Q774.5625,424.4063 775.25,425.4766 Q775.9375,426.5469 777.2813,426.5469 Q777.9063,426.5469 778.5,426.2734 Q779.0938,426 779.7188,425.4219 L779.7188,428.1406 Z "/><text fill="#000000" font-family="sans-serif" font-size="12" lengthAdjust="spacingAndGlyphs" textLength="122" x="797.25" y="426.6543">ExternalDiffProvider</text><line style="stroke: #A80036; stroke-width: 1.5;" x1="693" x2="991" y1="438.5" y2="438.5"/><ellipse cx="703" cy="450.4023" fill="none" rx="3" ry="3" style="stroke: #038048; stroke-width: 1.0;"/><text fill="#000000" font-family="sans-serif" font-size="11" lengthAdjust="spacingAndGlyphs" text-decoration="underline" textLength="159" x="712" y="452.7104">PROP_DIFFCOMMAND: String</text><line style="stroke: #A80036; stroke-width: 1.5;" x1="693" x2="991" y1="459.3047" y2="459.3047"/><ellipse cx="703" cy="471.207" fill="#84BE84" rx="3" ry="3" style="stroke: #038048; stroke-width: 1.0;"/><text fill="#000000" font-family="sans-serif" font-size="11" lengthAdjust="spacingAndGlyphs" textLength="136" x="712" y="473.5151">getProviderInfo(): String</text><ellipse cx="703" cy="484.0117" fill="#84BE84" rx="3" ry="3" style="stroke: #038048; stroke-width: 1.0;"/><text fill="#000000" font-family="sans-serif" font-size="11" lengthAdjust="spacingAndGlyphs" textLength="210" x="712" y="486.3198">initialize(WikiEngine, Properties): void</text><ellipse cx="703" cy="496.8164" fill="#84BE84" rx="3" ry="3" style="stroke: #038048; stroke-width: 1.0;"/><text fill="#000000" font-family="sans-serif" font-size="11" lengthAdjust="spacingAndGlyphs" textLength="274" x="712" y="499.1245">makeDiffHtml(WikiContext, String, String): String</text></a><!--class org.apache.wiki.diff.TraditionalDiffProvider--><a href="TraditionalDiffProvider.html" target="_top" xlink:actuate="onRequest" xlink:show="new" xlink:title="TraditionalDiffProvider.html" xlink:type="simple"><rect fill="#FEFECE" filter="url(#f1s9tb313qvagf)" height="86.4141" id="org.apache.wiki.diff.TraditionalDiffProvider" style="stroke: #A80036; stroke-width: 1.5;" width="300" x="1027" y="413"/><ellipse cx="1104.25" cy="429" fill="#ADD1B2" rx="11" ry="11" style="stroke: #A80036; stroke-width: 1.0;"/><path d="M1107.2188,434.6406 Q1106.6406,434.9375 1106,435.0859 Q1105.3594,435.2344 1104.6563,435.2344 Q1102.1563,435.2344 1100.8359,433.5859 Q1099.5156,431.9375 1099.5156,428.8125 Q1099.5156,425.6875 1100.8359,424.0313 Q1102.1563,422.375 1104.6563,422.375 Q1105.3594,422.375 1106.0078,422.5313 Q1106.6563,422.6875 1107.2188,422.9844 L1107.2188,425.7031 Q1106.5938,425.125 1106,424.8516 Q1105.4063,424.5781 1104.7813,424.5781 Q1103.4375,424.5781 1102.75,425.6484 Q1102.0625,426.7188 1102.0625,428.8125 Q1102.0625,430.9063 1102.75,431.9766 Q1103.4375,433.0469 1104.7813,433.0469 Q1105.4063,433.0469 1106,432.7734 Q1106.5938,432.5 1107.2188,431.9219 L1107.2188,434.6406 Z "/><text fill="#000000" font-family="sans-serif" font-size="12" lengthAdjust="spacingAndGlyphs" textLength="137" x="1124.75" y="433.1543">TraditionalDiffProvider</text><line style="stroke: #A80036; stroke-width: 1.5;" x1="1028" x2="1326" y1="445" y2="445"/><line style="stroke: #A80036; stroke-width: 1.5;" x1="1028" x2="1326" y1="453" y2="453"/><ellipse cx="1038" cy="464.9023" fill="#84BE84" rx="3" ry="3" style="stroke: #038048; stroke-width: 1.0;"/><text fill="#000000" font-family="sans-serif" font-size="11" lengthAdjust="spacingAndGlyphs" textLength="136" x="1047" y="467.2104">getProviderInfo(): String</text><ellipse cx="1038" cy="477.707" fill="#84BE84" rx="3" ry="3" style="stroke: #038048; stroke-width: 1.0;"/><text fill="#000000" font-family="sans-serif" font-size="11" lengthAdjust="spacingAndGlyphs" textLength="210" x="1047" y="480.0151">initialize(WikiEngine, Properties): void</text><ellipse cx="1038" cy="490.5117" fill="#84BE84" rx="3" ry="3" style="stroke: #038048; stroke-width: 1.0;"/><text fill="#000000" font-family="sans-serif" font-size="11" lengthAdjust="spacingAndGlyphs" textLength="274" x="1047" y="492.8198">makeDiffHtml(WikiContext, String, String): String</text></a><!--class org.apache.wiki.WikiProvider--><rect fill="#FEFECE" filter="url(#f1s9tb313qvagf)" height="73.6094" id="org.apache.wiki.WikiProvider" style="stroke: #A80036; stroke-width: 1.5;" width="239" x="387.5" y="43"/><ellipse cx="465.25" cy="59" fill="#B4A7E5" rx="11" ry="11" style="stroke: #A80036; stroke-width: 1.0;"/><path d="M461.1719,54.7656 L461.1719,52.6094 L468.5625,52.6094 L468.5625,54.7656 L466.0938,54.7656 L466.0938,62.8438 L468.5625,62.8438 L468.5625,65 L461.1719,65 L461.1719,62.8438 L463.6406,62.8438 L463.6406,54.7656 L461.1719,54.7656 Z "/><text fill="#000000" font-family="sans-serif" font-size="12" font-style="italic" lengthAdjust="spacingAndGlyphs" textLength="75" x="485.75" y="63.1543">WikiProvider</text><line style="stroke: #A80036; stroke-width: 1.5;" x1="388.5" x2="625.5" y1="75" y2="75"/><line style="stroke: #A80036; stroke-width: 1.5;" x1="388.5" x2="625.5" y1="83" y2="83"/><ellipse cx="398.5" cy="94.9023" fill="#84BE84" rx="3" ry="3" style="stroke: #038048; stroke-width: 1.0;"/><text fill="#000000" font-family="sans-serif" font-size="11" font-style="italic" lengthAdjust="spacingAndGlyphs" textLength="213" x="407.5" y="97.2104">initialize(WikiEngine, Properties): void</text><ellipse cx="398.5" cy="107.707" fill="#84BE84" rx="3" ry="3" style="stroke: #038048; stroke-width: 1.0;"/><text fill="#000000" font-family="sans-serif" font-size="11" font-style="italic" lengthAdjust="spacingAndGlyphs" textLength="136" x="407.5" y="110.0151">getProviderInfo(): String</text><!--link org.apache.wiki.WikiProvider to org.apache.wiki.diff.DiffProvider--><path d="M507,137.2538 C507,155.0722 507,174.0309 507,189.2994 " fill="none" id="org.apache.wiki.WikiProvider-org.apache.wiki.diff.DiffProvider" style="stroke: #A80036; stroke-width: 1.0; stroke-dasharray: 7.0,7.0;"/><polygon fill="none" points="500.0001,137.1499,507,117.1499,514.0001,137.1498,500.0001,137.1499" style="stroke: #A80036; stroke-width: 1.0;"/><!--link org.apache.wiki.diff.DiffProvider to org.apache.wiki.diff.DiffProvider.NullDiffProvider--><path d="M421.3919,260.6802 C389.655,278.9458 354.0448,301.2491 323,323 C282.6318,351.2831 239.0459,385.9178 208.7444,412.7525 " fill="none" id="org.apache.wiki.diff.DiffProvider-org.apache.wiki.diff.DiffProvider.NullDiffProvider" style="stroke: #A80036; stroke-width: 1.0; stroke-dasharray: 7.0,7.0;"/><polygon fill="none" points="418.2095,254.4385,439.0673,250.703,425.0915,266.6302,418.2095,254.4385" style="stroke: #A80036; stroke-width: 1.0;"/><!--link org.apache.wiki.diff.DiffProvider to org.apache.wiki.diff.DiffProvider.NullDiffProvider--><path d="M456.3145,258.9092 C426.9787,277.4929 390.0556,300.5409 358,323 C317.6318,351.2831 274.0459,385.9178 238.8916,412.7525 " fill="none" id="org.apache.wiki.diff.DiffProvider-org.apache.wiki.diff.DiffProvider.NullDiffProvider-1" style="stroke: #A80036; stroke-width: 1.0;"/><ellipse cx="462.4646" cy="254.997" fill="#FFFFFF" rx="8" ry="8" style="stroke: #A80036; stroke-width: 1.0;"/><line style="stroke: #A80036; stroke-width: 1.0;" x1="455.7146" x2="469.2145" y1="259.291" y2="250.703"/><line style="stroke: #A80036; stroke-width: 1.0;" x1="458.1706" x2="466.7586" y1="248.2471" y2="261.7469"/><!--link org.apache.wiki.diff.DiffProvider to org.apache.wiki.diff.ContextualDiffProvider--><path d="M507,271.0809 C507,286.6115 507,304.4524 507,322.7917 " fill="none" id="org.apache.wiki.diff.DiffProvider-org.apache.wiki.diff.ContextualDiffProvider" style="stroke: #A80036; stroke-width: 1.0; stroke-dasharray: 7.0,7.0;"/><polygon fill="none" points="500.0001,270.8529,507,250.8529,514.0001,270.8528,500.0001,270.8529" style="stroke: #A80036; stroke-width: 1.0;"/><!--link org.apache.wiki.diff.DiffProvider to org.apache.wiki.diff.ExternalDiffProvider--><path d="M577.8524,261.191 C608.0071,279.3607 643.2439,301.4514 674,323 C711.1692,349.0418 751.0663,380.4684 782.6497,406.233 " fill="none" id="org.apache.wiki.diff.DiffProvider-org.apache.wiki.diff.ExternalDiffProvider" style="stroke: #A80036; stroke-width: 1.0; stroke-dasharray: 7.0,7.0;"/><polygon fill="none" points="573.872,266.9672,560.2898,250.703,581.05,254.9474,573.872,266.9672" style="stroke: #A80036; stroke-width: 1.0;"/><!--link org.apache.wiki.diff.DiffProvider to org.apache.wiki.diff.TraditionalDiffProvider--><path d="M677.2638,234.7588 C777.7573,248.2974 905.3526,274.0835 1010,323 C1057.3436,345.1303 1103.1964,383.2296 1134.8384,412.9936 " fill="none" id="org.apache.wiki.diff.DiffProvider-org.apache.wiki.diff.TraditionalDiffProvider" style="stroke: #A80036; stroke-width: 1.0; stroke-dasharray: 7.0,7.0;"/><polygon fill="none" points="676.1581,241.6743,657.2189,232.1714,677.9505,227.7895,676.1581,241.6743" style="stroke: #A80036; stroke-width: 1.0;"/><text fill="#888888" font-family="sans-serif" font-size="10" lengthAdjust="spacingAndGlyphs" textLength="186" x="587.5" y="624.2822">UMLDoclet 1.1.4, PlantUML 1.2019.05</text><!--
@startuml

    namespace org.apache.wiki.diff {

        interface DiffProvider [[DiffProvider.html]] {
            {abstract} +makeDiffHtml(WikiContext, String, String): String
        }

        class org.apache.wiki.diff.DiffProvider.NullDiffProvider [[DiffProvider.NullDiffProvider.html]] {
            +makeDiffHtml(WikiContext, String, String): String
            +initialize(WikiEngine, Properties): void
            +getProviderInfo(): String
        }

        class DifferenceManager [[DifferenceManager.html]] {
            {static} +PROP_DIFF_PROVIDER: String
            +DifferenceManager(WikiEngine, Properties)
            +makeDiff(WikiContext, String, String): String
        }

        class ContextualDiffProvider [[ContextualDiffProvider.html]] {
            {static} +PROP_UNCHANGED_CONTEXT_LIMIT: String
            +m_emitChangeNextPreviousHyperlinks: boolean
            +m_changeStartHtml: String
            +m_changeEndHtml: String
            +m_diffStart: String
            +m_diffEnd: String
            +m_insertionStartHtml: String
            +m_insertionEndHtml: String
            +m_deletionStartHtml: String
            +m_deletionEndHtml: String
            +m_elidedHeadIndicatorHtml: String
            +m_elidedTailIndicatorHtml: String
            +m_lineBreakHtml: String
            +m_alternatingSpaceHtml: String
            +getProviderInfo(): String
            +initialize(WikiEngine, Properties): void
            +makeDiffHtml(WikiContext, String, String): String
        }

        class ExternalDiffProvider [[ExternalDiffProvider.html]] {
            {static} +PROP_DIFFCOMMAND: String
            +getProviderInfo(): String
            +initialize(WikiEngine, Properties): void
            +makeDiffHtml(WikiContext, String, String): String
        }

        class TraditionalDiffProvider [[TraditionalDiffProvider.html]] {
            +getProviderInfo(): String
            +initialize(WikiEngine, Properties): void
            +makeDiffHtml(WikiContext, String, String): String
        }

        interface org.apache.wiki.WikiProvider {
            {abstract} +initialize(WikiEngine, Properties): void
            {abstract} +getProviderInfo(): String
        }
        org.apache.wiki.WikiProvider <|.. DiffProvider

        DiffProvider <|.. org.apache.wiki.diff.DiffProvider.NullDiffProvider

        DiffProvider +- - org.apache.wiki.diff.DiffProvider.NullDiffProvider

        DiffProvider <|.. ContextualDiffProvider

        DiffProvider <|.. ExternalDiffProvider

        DiffProvider <|.. TraditionalDiffProvider

    }


    center footer UMLDoclet 1.1.4, PlantUML 1.2019.05
@enduml

PlantUML version 1.2019.05(Sat Apr 20 16:45:36 UTC 2019)
(APACHE source distribution)
Java Runtime: Java(TM) SE Runtime Environment
JVM: Java HotSpot(TM) 64-Bit Server VM
Java Version: 1.8.0_191-b12
Operating System: Linux
OS Version: 4.15.0-66-generic
Default Encoding: ISO-8859-1
Language: en
Country: US
--></g></svg>