<?xml version="1.0" encoding="UTF-8" standalone="no"?><svg xmlns="http://www.w3.org/2000/svg" xmlns:xlink="http://www.w3.org/1999/xlink" contentScriptType="application/ecmascript" contentStyleType="text/css" height="227px" preserveAspectRatio="none" style="width:203px;height:227px;" version="1.1" viewBox="0 0 203 227" width="203px" zoomAndPan="magnify"><defs><filter height="300%" id="f1vmndq141knc7" width="300%" x="-1" y="-1"><feGaussianBlur result="blurOut" stdDeviation="2.0"/><feColorMatrix in="blurOut" result="blurOut2" type="matrix" values="0 0 0 0 0 0 0 0 0 0 0 0 0 0 0 0 0 0 .4 0"/><feOffset dx="4.0" dy="4.0" in="blurOut2" result="blurOut3"/><feBlend in="SourceGraphic" in2="blurOut3" mode="normal"/></filter></defs><g><!--class CoreBean--><a href="CoreBean.html" target="_top" xlink:actuate="onRequest" xlink:show="new" xlink:title="CoreBean.html" xlink:type="simple"><rect fill="#FEFECE" filter="url(#f1vmndq141knc7)" height="186.3594" id="CoreBean" style="stroke: #A80036; stroke-width: 1.5;" width="175" x="6" y="8"/><ellipse cx="61.25" cy="24" fill="#ADD1B2" rx="11" ry="11" style="stroke: #A80036; stroke-width: 1.0;"/><path d="M64.0156,19.875 Q64.1719,19.6563 64.3594,19.5469 Q64.5469,19.4375 64.7656,19.4375 Q65.1406,19.4375 65.375,19.6953 Q65.6094,19.9531 65.6094,20.5625 L65.6094,22.0156 Q65.6094,22.625 65.375,22.8906 Q65.1406,23.1563 64.7656,23.1563 Q64.4219,23.1563 64.2188,22.9531 Q64.0156,22.7656 63.9063,22.25 Q63.8594,21.8906 63.6719,21.7031 Q63.3438,21.3281 62.7344,21.1094 Q62.125,20.8906 61.5,20.8906 Q60.7344,20.8906 60.1016,21.2188 Q59.4688,21.5469 58.9766,22.2969 Q58.4844,23.0469 58.4844,24.0781 L58.4844,25.1719 Q58.4844,26.4063 59.375,27.2266 Q60.2656,28.0469 61.8594,28.0469 Q62.7969,28.0469 63.4531,27.7969 Q63.8438,27.6406 64.2656,27.2031 Q64.5313,26.9375 64.6797,26.8594 Q64.8281,26.7813 65.0313,26.7813 Q65.3594,26.7813 65.6172,27.0391 Q65.875,27.2969 65.875,27.6406 Q65.875,27.9844 65.5313,28.3906 Q65.0313,28.9688 64.2344,29.2969 Q63.1563,29.75 61.8594,29.75 Q60.3438,29.75 59.1406,29.125 Q58.1563,28.625 57.4688,27.5547 Q56.7813,26.4844 56.7813,25.2031 L56.7813,24.0469 Q56.7813,22.7188 57.3984,21.5703 Q58.0156,20.4219 59.1094,19.8047 Q60.2031,19.1875 61.4375,19.1875 Q62.1719,19.1875 62.8203,19.3516 Q63.4688,19.5156 64.0156,19.875 Z "/><text fill="#000000" font-family="sans-serif" font-size="12" lengthAdjust="spacingAndGlyphs" textLength="56" x="81.75" y="28.9102">CoreBean</text><line style="stroke: #A80036; stroke-width: 1.5;" x1="7" x2="180" y1="40" y2="40"/><line style="stroke: #A80036; stroke-width: 1.5;" x1="7" x2="180" y1="48" y2="48"/><ellipse cx="17" cy="60.418" fill="#84BE84" rx="3" ry="3" style="stroke: #038048; stroke-width: 1.0;"/><text fill="#000000" font-family="sans-serif" font-size="11" lengthAdjust="spacingAndGlyphs" textLength="107" x="26" y="63.4189">CoreBean(WikiEngine)</text><ellipse cx="17" cy="74.2539" fill="#84BE84" rx="3" ry="3" style="stroke: #038048; stroke-width: 1.0;"/><text fill="#000000" font-family="sans-serif" font-size="11" lengthAdjust="spacingAndGlyphs" textLength="70" x="26" y="77.2549">getPages(): int</text><ellipse cx="17" cy="88.0898" fill="#84BE84" rx="3" ry="3" style="stroke: #038048; stroke-width: 1.0;"/><text fill="#000000" font-family="sans-serif" font-size="11" lengthAdjust="spacingAndGlyphs" textLength="141" x="26" y="91.0908">getPagesDescription(): String</text><ellipse cx="17" cy="101.9258" fill="#84BE84" rx="3" ry="3" style="stroke: #038048; stroke-width: 1.0;"/><text fill="#000000" font-family="sans-serif" font-size="11" lengthAdjust="spacingAndGlyphs" textLength="95" x="26" y="104.9268">getVersion(): String</text><ellipse cx="17" cy="115.7617" fill="#84BE84" rx="3" ry="3" style="stroke: #038048; stroke-width: 1.0;"/><text fill="#000000" font-family="sans-serif" font-size="11" lengthAdjust="spacingAndGlyphs" textLength="149" x="26" y="118.7627">getVersionDescription(): String</text><ellipse cx="17" cy="129.5977" fill="#84BE84" rx="3" ry="3" style="stroke: #038048; stroke-width: 1.0;"/><text fill="#000000" font-family="sans-serif" font-size="11" lengthAdjust="spacingAndGlyphs" textLength="76" x="26" y="132.5986">getTitle(): String</text><ellipse cx="17" cy="143.4336" fill="#84BE84" rx="3" ry="3" style="stroke: #038048; stroke-width: 1.0;"/><text fill="#000000" font-family="sans-serif" font-size="11" lengthAdjust="spacingAndGlyphs" textLength="64" x="26" y="146.4346">getType(): int</text><ellipse cx="17" cy="157.2695" fill="#84BE84" rx="3" ry="3" style="stroke: #038048; stroke-width: 1.0;"/><text fill="#000000" font-family="sans-serif" font-size="11" lengthAdjust="spacingAndGlyphs" textLength="65" x="26" y="160.2705">getId(): String</text><ellipse cx="17" cy="171.1055" fill="#84BE84" rx="3" ry="3" style="stroke: #038048; stroke-width: 1.0;"/><text fill="#000000" font-family="sans-serif" font-size="11" lengthAdjust="spacingAndGlyphs" textLength="137" x="26" y="174.1064">getAttributeNames(): String[]</text><ellipse cx="17" cy="184.9414" fill="#84BE84" rx="3" ry="3" style="stroke: #038048; stroke-width: 1.0;"/><text fill="#000000" font-family="sans-serif" font-size="11" lengthAdjust="spacingAndGlyphs" textLength="131" x="26" y="187.9424">getMethodNames(): String[]</text></a><text fill="#888888" font-family="sans-serif" font-size="10" lengthAdjust="spacingAndGlyphs" textLength="184" x="7.5" y="214.3809">UMLDoclet 1.1.4, PlantUML 1.2019.05</text><!--
@startuml

    class CoreBean [[CoreBean.html]] {
        +CoreBean(WikiEngine)
        +getPages(): int
        +getPagesDescription(): String
        +getVersion(): String
        +getVersionDescription(): String
        +getTitle(): String
        +getType(): int
        +getId(): String
        +getAttributeNames(): String[]
        +getMethodNames(): String[]
    }


    center footer UMLDoclet 1.1.4, PlantUML 1.2019.05
@enduml

PlantUML version 1.2019.05(Sat Apr 20 18:45:36 CEST 2019)
(APACHE source distribution)
Java Runtime: OpenJDK Runtime Environment
JVM: OpenJDK 64-Bit Server VM
Java Version: 1.8.0_212-b03
Operating System: Windows 10
OS Version: 10.0
Default Encoding: Cp1252
Language: es
Country: ES
--></g></svg>