<?xml version="1.0" encoding="UTF-8" standalone="no"?><svg xmlns="http://www.w3.org/2000/svg" xmlns:xlink="http://www.w3.org/1999/xlink" contentScriptType="application/ecmascript" contentStyleType="text/css" height="227px" preserveAspectRatio="none" style="width:252px;height:227px;" version="1.1" viewBox="0 0 252 227" width="252px" zoomAndPan="magnify"><defs><filter height="300%" id="fhwjits3vkdlm" width="300%" x="-1" y="-1"><feGaussianBlur result="blurOut" stdDeviation="2.0"/><feColorMatrix in="blurOut" result="blurOut2" type="matrix" values="0 0 0 0 0 0 0 0 0 0 0 0 0 0 0 0 0 0 .4 0"/><feOffset dx="4.0" dy="4.0" in="blurOut2" result="blurOut3"/><feBlend in="SourceGraphic" in2="blurOut3" mode="normal"/></filter></defs><g><!--class ModuleBean--><a href="ModuleBean.html" target="_top" xlink:actuate="onRequest" xlink:show="new" xlink:title="ModuleBean.html" xlink:type="simple"><rect fill="#FEFECE" filter="url(#fhwjits3vkdlm)" height="186.3594" id="ModuleBean" style="stroke: #A80036; stroke-width: 1.5;" width="235" x="6" y="8"/><ellipse cx="84.75" cy="24" fill="#A9DCDF" rx="11" ry="11" style="stroke: #A80036; stroke-width: 1.0;"/><path d="M86.9375,25.7656 L82.7969,25.7656 L82.375,26.7969 L82.7969,26.7969 Q83.4063,26.7969 83.6719,27.0313 Q83.9375,27.2656 83.9375,27.6563 Q83.9375,28.0313 83.6719,28.2656 Q83.4063,28.5 82.7969,28.5 L80.5,28.5 Q79.8906,28.5 79.6328,28.2656 Q79.375,28.0313 79.375,27.6406 Q79.375,27.2656 79.6484,27.0234 Q79.9219,26.7813 80.5469,26.7969 L83.2188,20.1406 L82.1094,20.1406 Q81.5,20.1406 81.2344,19.9063 Q80.9688,19.6719 80.9688,19.2813 Q80.9688,18.9063 81.2344,18.6719 Q81.5,18.4375 82.1094,18.4375 L85.7813,18.4375 L89.1719,26.7969 Q89.7656,26.7969 89.9531,26.9375 Q90.3438,27.2031 90.3438,27.6563 Q90.3438,28.0313 90.0859,28.2656 Q89.8281,28.5 89.2188,28.5 L86.9219,28.5 Q86.3125,28.5 86.0469,28.2656 Q85.7813,28.0313 85.7813,27.6406 Q85.7813,27.2656 86.0469,27.0313 Q86.3125,26.7969 86.9219,26.7969 L87.3438,26.7969 L86.9375,25.7656 Z M86.2188,24.0625 L84.8594,20.6875 L83.4844,24.0625 L86.2188,24.0625 Z "/><text fill="#000000" font-family="sans-serif" font-size="12" font-style="italic" lengthAdjust="spacingAndGlyphs" textLength="69" x="105.25" y="28.9102">ModuleBean</text><line style="stroke: #A80036; stroke-width: 1.5;" x1="7" x2="240" y1="40" y2="40"/><line style="stroke: #A80036; stroke-width: 1.5;" x1="7" x2="240" y1="48" y2="48"/><ellipse cx="17" cy="60.418" fill="#84BE84" rx="3" ry="3" style="stroke: #038048; stroke-width: 1.0;"/><text fill="#000000" font-family="sans-serif" font-size="11" lengthAdjust="spacingAndGlyphs" textLength="118" x="26" y="63.4189">ModuleBean(WikiEngine)</text><ellipse cx="17" cy="74.2539" fill="#84BE84" rx="3" ry="3" style="stroke: #038048; stroke-width: 1.0;"/><text fill="#000000" font-family="sans-serif" font-size="11" lengthAdjust="spacingAndGlyphs" textLength="137" x="26" y="77.2549">getAttributeNames(): String[]</text><ellipse cx="17" cy="88.0898" fill="#84BE84" rx="3" ry="3" style="stroke: #038048; stroke-width: 1.0;"/><text fill="#000000" font-family="sans-serif" font-size="11" lengthAdjust="spacingAndGlyphs" textLength="131" x="26" y="91.0908">getMethodNames(): String[]</text><ellipse cx="17" cy="101.9258" fill="#84BE84" rx="3" ry="3" style="stroke: #038048; stroke-width: 1.0;"/><text fill="#000000" font-family="sans-serif" font-size="11" lengthAdjust="spacingAndGlyphs" textLength="127" x="26" y="104.9268">doGet(WikiContext): String</text><polygon fill="#FFFF44" points="17,110.7617,21,114.7617,17,118.7617,13,114.7617" style="stroke: #B38D22; stroke-width: 1.0;"/><text fill="#000000" font-family="sans-serif" font-size="11" lengthAdjust="spacingAndGlyphs" textLength="67" x="26" y="118.7627">title(): Element</text><polygon fill="#FFFF44" points="17,124.5977,21,128.5977,17,132.5977,13,128.5977" style="stroke: #B38D22; stroke-width: 1.0;"/><text fill="#000000" font-family="sans-serif" font-size="11" lengthAdjust="spacingAndGlyphs" textLength="209" x="26" y="132.5986">containerForModuleDetail(Element): Element</text><polygon fill="#FFFF44" points="17,138.4336,21,142.4336,17,146.4336,13,142.4336" style="stroke: #B38D22; stroke-width: 1.0;"/><text fill="#000000" font-family="sans-serif" font-size="11" lengthAdjust="spacingAndGlyphs" textLength="207" x="26" y="146.4346">validModuleVersion(WikiModuleInfo): String</text><polygon fill="#FFFF44" points="17,152.2695,21,156.2695,17,160.2695,13,156.2695" style="stroke: #B38D22; stroke-width: 1.0;"/><text fill="#000000" font-family="sans-serif" font-size="11" font-style="italic" lengthAdjust="spacingAndGlyphs" textLength="195" x="26" y="160.2705">modules(): Collection&lt;WikiModuleInfo&gt;</text><polygon fill="#FFFF44" points="17,166.1055,21,170.1055,17,174.1055,13,170.1055" style="stroke: #B38D22; stroke-width: 1.0;"/><text fill="#000000" font-family="sans-serif" font-size="11" font-style="italic" lengthAdjust="spacingAndGlyphs" textLength="93" x="26" y="174.1064">heading(): Element</text><polygon fill="#FFFF44" points="17,179.9414,21,183.9414,17,187.9414,13,183.9414" style="stroke: #B38D22; stroke-width: 1.0;"/><text fill="#000000" font-family="sans-serif" font-size="11" font-style="italic" lengthAdjust="spacingAndGlyphs" textLength="172" x="26" y="187.9424">rowBody(WikiModuleInfo): Element</text></a><text fill="#888888" font-family="sans-serif" font-size="10" lengthAdjust="spacingAndGlyphs" textLength="184" x="37.5" y="214.3809">UMLDoclet 1.1.4, PlantUML 1.2019.05</text><!--
@startuml

    abstract class ModuleBean [[ModuleBean.html]] {
        +ModuleBean(WikiEngine)
        +getAttributeNames(): String[]
        +getMethodNames(): String[]
        +doGet(WikiContext): String
        #title(): Element
        #containerForModuleDetail(Element): Element
        #validModuleVersion(WikiModuleInfo): String
        {abstract} #modules(): Collection<WikiModuleInfo>
        {abstract} #heading(): Element
        {abstract} #rowBody(WikiModuleInfo): Element
    }


    center footer UMLDoclet 1.1.4, PlantUML 1.2019.05
@enduml

PlantUML version 1.2019.05(Sat Apr 20 18:45:36 CEST 2019)
(APACHE source distribution)
Java Runtime: OpenJDK Runtime Environment
JVM: OpenJDK 64-Bit Server VM
Java Version: 1.8.0_212-b03
Operating System: Windows 10
OS Version: 10.0
Default Encoding: Cp1252
Language: es
Country: ES
--></g></svg>