<?xml version="1.0" encoding="UTF-8" standalone="no"?><svg xmlns="http://www.w3.org/2000/svg" xmlns:xlink="http://www.w3.org/1999/xlink" contentScriptType="application/ecmascript" contentStyleType="text/css" height="620px" preserveAspectRatio="none" style="width:1136px;height:620px;" version="1.1" viewBox="0 0 1136 620" width="1136px" zoomAndPan="magnify"><defs><filter height="300%" id="f4lhmbgfflggd" width="300%" x="-1" y="-1"><feGaussianBlur result="blurOut" stdDeviation="2.0"/><feColorMatrix in="blurOut" result="blurOut2" type="matrix" values="0 0 0 0 0 0 0 0 0 0 0 0 0 0 0 0 0 0 .4 0"/><feOffset dx="4.0" dy="4.0" in="blurOut2" result="blurOut3"/><feBlend in="SourceGraphic" in2="blurOut3" mode="normal"/></filter></defs><g><!--cluster org.apache.wiki.ui.admin.beans--><polygon fill="#FFFFFF" filter="url(#f4lhmbgfflggd)" points="14,166,240,166,247,189.6094,1094,189.6094,1094,579,14,579,14,166" style="stroke: #000000; stroke-width: 1.5;"/><line style="stroke: #000000; stroke-width: 1.5;" x1="14" x2="247" y1="189.6094" y2="189.6094"/><text fill="#000000" font-family="sans-serif" font-size="14" font-weight="bold" lengthAdjust="spacingAndGlyphs" textLength="220" x="18" y="182.5332">org.apache.wiki.ui.admin.beans</text><!--cluster org.apache.wiki.ui.admin--><polygon fill="#FFFFFF" filter="url(#f4lhmbgfflggd)" points="520,16,699,16,706,39.6094,866,39.6094,866,142,520,142,520,16" style="stroke: #000000; stroke-width: 1.5;"/><line style="stroke: #000000; stroke-width: 1.5;" x1="520" x2="706" y1="39.6094" y2="39.6094"/><text fill="#000000" font-family="sans-serif" font-size="14" font-weight="bold" lengthAdjust="spacingAndGlyphs" textLength="173" x="524" y="32.5332">org.apache.wiki.ui.admin</text><!--cluster org.apache.wiki.management--><polygon fill="#FFFFFF" filter="url(#f4lhmbgfflggd)" points="894,23,1104,23,1111,46.6094,1114,46.6094,1114,135,894,135,894,23" style="stroke: #000000; stroke-width: 1.5;"/><line style="stroke: #000000; stroke-width: 1.5;" x1="894" x2="1111" y1="46.6094" y2="46.6094"/><text fill="#000000" font-family="sans-serif" font-size="14" font-weight="bold" lengthAdjust="spacingAndGlyphs" textLength="204" x="898" y="39.5332">org.apache.wiki.management</text><!--class org.apache.wiki.ui.admin.beans.UserBean--><a href="UserBean.html" target="_top" xlink:actuate="onRequest" xlink:show="new" xlink:title="UserBean.html" xlink:type="simple"><rect fill="#FEFECE" filter="url(#f4lhmbgfflggd)" height="131.0156" id="org.apache.wiki.ui.admin.beans.UserBean" style="stroke: #A80036; stroke-width: 1.5;" width="163" x="724.5" y="221.5"/><ellipse cx="773.75" cy="237.5" fill="#ADD1B2" rx="11" ry="11" style="stroke: #A80036; stroke-width: 1.0;"/><path d="M776.5156,233.375 Q776.6719,233.1563 776.8594,233.0469 Q777.0469,232.9375 777.2656,232.9375 Q777.6406,232.9375 777.875,233.1953 Q778.1094,233.4531 778.1094,234.0625 L778.1094,235.5156 Q778.1094,236.125 777.875,236.3906 Q777.6406,236.6563 777.2656,236.6563 Q776.9219,236.6563 776.7188,236.4531 Q776.5156,236.2656 776.4063,235.75 Q776.3594,235.3906 776.1719,235.2031 Q775.8438,234.8281 775.2344,234.6094 Q774.625,234.3906 774,234.3906 Q773.2344,234.3906 772.6016,234.7188 Q771.9688,235.0469 771.4766,235.7969 Q770.9844,236.5469 770.9844,237.5781 L770.9844,238.6719 Q770.9844,239.9063 771.875,240.7266 Q772.7656,241.5469 774.3594,241.5469 Q775.2969,241.5469 775.9531,241.2969 Q776.3438,241.1406 776.7656,240.7031 Q777.0313,240.4375 777.1797,240.3594 Q777.3281,240.2813 777.5313,240.2813 Q777.8594,240.2813 778.1172,240.5391 Q778.375,240.7969 778.375,241.1406 Q778.375,241.4844 778.0313,241.8906 Q777.5313,242.4688 776.7344,242.7969 Q775.6563,243.25 774.3594,243.25 Q772.8438,243.25 771.6406,242.625 Q770.6563,242.125 769.9688,241.0547 Q769.2813,239.9844 769.2813,238.7031 L769.2813,237.5469 Q769.2813,236.2188 769.8984,235.0703 Q770.5156,233.9219 771.6094,233.3047 Q772.7031,232.6875 773.9375,232.6875 Q774.6719,232.6875 775.3203,232.8516 Q775.9688,233.0156 776.5156,233.375 Z "/><text fill="#000000" font-family="sans-serif" font-size="12" lengthAdjust="spacingAndGlyphs" textLength="56" x="794.25" y="242.4102">UserBean</text><line style="stroke: #A80036; stroke-width: 1.5;" x1="725.5" x2="886.5" y1="253.5" y2="253.5"/><line style="stroke: #A80036; stroke-width: 1.5;" x1="725.5" x2="886.5" y1="261.5" y2="261.5"/><ellipse cx="735.5" cy="273.918" fill="#84BE84" rx="3" ry="3" style="stroke: #038048; stroke-width: 1.0;"/><text fill="#000000" font-family="sans-serif" font-size="11" lengthAdjust="spacingAndGlyphs" textLength="107" x="744.5" y="276.9189">UserBean(WikiEngine)</text><ellipse cx="735.5" cy="287.7539" fill="#84BE84" rx="3" ry="3" style="stroke: #038048; stroke-width: 1.0;"/><text fill="#000000" font-family="sans-serif" font-size="11" lengthAdjust="spacingAndGlyphs" textLength="137" x="744.5" y="290.7549">getAttributeNames(): String[]</text><ellipse cx="735.5" cy="301.5898" fill="#84BE84" rx="3" ry="3" style="stroke: #038048; stroke-width: 1.0;"/><text fill="#000000" font-family="sans-serif" font-size="11" lengthAdjust="spacingAndGlyphs" textLength="131" x="744.5" y="304.5908">getMethodNames(): String[]</text><ellipse cx="735.5" cy="315.4258" fill="#84BE84" rx="3" ry="3" style="stroke: #038048; stroke-width: 1.0;"/><text fill="#000000" font-family="sans-serif" font-size="11" lengthAdjust="spacingAndGlyphs" textLength="131" x="744.5" y="318.4268">doPost(WikiContext): String</text><ellipse cx="735.5" cy="329.2617" fill="#84BE84" rx="3" ry="3" style="stroke: #038048; stroke-width: 1.0;"/><text fill="#000000" font-family="sans-serif" font-size="11" lengthAdjust="spacingAndGlyphs" textLength="76" x="744.5" y="332.2627">getTitle(): String</text><ellipse cx="735.5" cy="343.0977" fill="#84BE84" rx="3" ry="3" style="stroke: #038048; stroke-width: 1.0;"/><text fill="#000000" font-family="sans-serif" font-size="11" lengthAdjust="spacingAndGlyphs" textLength="64" x="744.5" y="346.0986">getType(): int</text></a><!--class org.apache.wiki.ui.admin.beans.SearchManagerBean--><a href="SearchManagerBean.html" target="_top" xlink:actuate="onRequest" xlink:show="new" xlink:title="SearchManagerBean.html" xlink:type="simple"><rect fill="#FEFECE" filter="url(#f4lhmbgfflggd)" height="158.6875" id="org.apache.wiki.ui.admin.beans.SearchManagerBean" style="stroke: #A80036; stroke-width: 1.5;" width="187" x="502.5" y="207.5"/><ellipse cx="535.05" cy="223.5" fill="#ADD1B2" rx="11" ry="11" style="stroke: #A80036; stroke-width: 1.0;"/><path d="M537.8156,219.375 Q537.9719,219.1563 538.1594,219.0469 Q538.3469,218.9375 538.5656,218.9375 Q538.9406,218.9375 539.175,219.1953 Q539.4094,219.4531 539.4094,220.0625 L539.4094,221.5156 Q539.4094,222.125 539.175,222.3906 Q538.9406,222.6563 538.5656,222.6563 Q538.2219,222.6563 538.0188,222.4531 Q537.8156,222.2656 537.7063,221.75 Q537.6594,221.3906 537.4719,221.2031 Q537.1438,220.8281 536.5344,220.6094 Q535.925,220.3906 535.3,220.3906 Q534.5344,220.3906 533.9016,220.7188 Q533.2688,221.0469 532.7766,221.7969 Q532.2844,222.5469 532.2844,223.5781 L532.2844,224.6719 Q532.2844,225.9063 533.175,226.7266 Q534.0656,227.5469 535.6594,227.5469 Q536.5969,227.5469 537.2531,227.2969 Q537.6438,227.1406 538.0656,226.7031 Q538.3313,226.4375 538.4797,226.3594 Q538.6281,226.2813 538.8313,226.2813 Q539.1594,226.2813 539.4172,226.5391 Q539.675,226.7969 539.675,227.1406 Q539.675,227.4844 539.3313,227.8906 Q538.8313,228.4688 538.0344,228.7969 Q536.9563,229.25 535.6594,229.25 Q534.1438,229.25 532.9406,228.625 Q531.9563,228.125 531.2688,227.0547 Q530.5813,225.9844 530.5813,224.7031 L530.5813,223.5469 Q530.5813,222.2188 531.1984,221.0703 Q531.8156,219.9219 532.9094,219.3047 Q534.0031,218.6875 535.2375,218.6875 Q535.9719,218.6875 536.6203,218.8516 Q537.2688,219.0156 537.8156,219.375 Z "/><text fill="#000000" font-family="sans-serif" font-size="12" lengthAdjust="spacingAndGlyphs" textLength="116" x="552.95" y="228.4102">SearchManagerBean</text><line style="stroke: #A80036; stroke-width: 1.5;" x1="503.5" x2="688.5" y1="239.5" y2="239.5"/><line style="stroke: #A80036; stroke-width: 1.5;" x1="503.5" x2="688.5" y1="247.5" y2="247.5"/><ellipse cx="513.5" cy="259.918" fill="#84BE84" rx="3" ry="3" style="stroke: #038048; stroke-width: 1.0;"/><text fill="#000000" font-family="sans-serif" font-size="11" lengthAdjust="spacingAndGlyphs" textLength="161" x="522.5" y="262.9189">SearchManagerBean(WikiEngine)</text><ellipse cx="513.5" cy="273.7539" fill="#84BE84" rx="3" ry="3" style="stroke: #038048; stroke-width: 1.0;"/><text fill="#000000" font-family="sans-serif" font-size="11" lengthAdjust="spacingAndGlyphs" textLength="137" x="522.5" y="276.7549">getAttributeNames(): String[]</text><ellipse cx="513.5" cy="287.5898" fill="#84BE84" rx="3" ry="3" style="stroke: #038048; stroke-width: 1.0;"/><text fill="#000000" font-family="sans-serif" font-size="11" lengthAdjust="spacingAndGlyphs" textLength="131" x="522.5" y="290.5908">getMethodNames(): String[]</text><ellipse cx="513.5" cy="301.4258" fill="#84BE84" rx="3" ry="3" style="stroke: #038048; stroke-width: 1.0;"/><text fill="#000000" font-family="sans-serif" font-size="11" lengthAdjust="spacingAndGlyphs" textLength="76" x="522.5" y="304.4268">getTitle(): String</text><ellipse cx="513.5" cy="315.2617" fill="#84BE84" rx="3" ry="3" style="stroke: #038048; stroke-width: 1.0;"/><text fill="#000000" font-family="sans-serif" font-size="11" lengthAdjust="spacingAndGlyphs" textLength="64" x="522.5" y="318.2627">reload(): void</text><ellipse cx="513.5" cy="329.0977" fill="#84BE84" rx="3" ry="3" style="stroke: #038048; stroke-width: 1.0;"/><text fill="#000000" font-family="sans-serif" font-size="11" lengthAdjust="spacingAndGlyphs" textLength="64" x="522.5" y="332.0986">getType(): int</text><ellipse cx="513.5" cy="342.9336" fill="#84BE84" rx="3" ry="3" style="stroke: #038048; stroke-width: 1.0;"/><text fill="#000000" font-family="sans-serif" font-size="11" lengthAdjust="spacingAndGlyphs" textLength="127" x="522.5" y="345.9346">doGet(WikiContext): String</text><ellipse cx="513.5" cy="356.7695" fill="#84BE84" rx="3" ry="3" style="stroke: #038048; stroke-width: 1.0;"/><text fill="#000000" font-family="sans-serif" font-size="11" lengthAdjust="spacingAndGlyphs" textLength="131" x="522.5" y="359.7705">doPost(WikiContext): String</text></a><!--class org.apache.wiki.ui.admin.beans.PluginBean--><a href="PluginBean.html" target="_top" xlink:actuate="onRequest" xlink:show="new" xlink:title="PluginBean.html" xlink:type="simple"><rect fill="#FEFECE" filter="url(#f4lhmbgfflggd)" height="131.0156" id="org.apache.wiki.ui.admin.beans.PluginBean" style="stroke: #A80036; stroke-width: 1.5;" width="209" x="28.5" y="440"/><ellipse cx="96.75" cy="456" fill="#ADD1B2" rx="11" ry="11" style="stroke: #A80036; stroke-width: 1.0;"/><path d="M99.5156,451.875 Q99.6719,451.6563 99.8594,451.5469 Q100.0469,451.4375 100.2656,451.4375 Q100.6406,451.4375 100.875,451.6953 Q101.1094,451.9531 101.1094,452.5625 L101.1094,454.0156 Q101.1094,454.625 100.875,454.8906 Q100.6406,455.1563 100.2656,455.1563 Q99.9219,455.1563 99.7188,454.9531 Q99.5156,454.7656 99.4063,454.25 Q99.3594,453.8906 99.1719,453.7031 Q98.8438,453.3281 98.2344,453.1094 Q97.625,452.8906 97,452.8906 Q96.2344,452.8906 95.6016,453.2188 Q94.9688,453.5469 94.4766,454.2969 Q93.9844,455.0469 93.9844,456.0781 L93.9844,457.1719 Q93.9844,458.4063 94.875,459.2266 Q95.7656,460.0469 97.3594,460.0469 Q98.2969,460.0469 98.9531,459.7969 Q99.3438,459.6406 99.7656,459.2031 Q100.0313,458.9375 100.1797,458.8594 Q100.3281,458.7813 100.5313,458.7813 Q100.8594,458.7813 101.1172,459.0391 Q101.375,459.2969 101.375,459.6406 Q101.375,459.9844 101.0313,460.3906 Q100.5313,460.9688 99.7344,461.2969 Q98.6563,461.75 97.3594,461.75 Q95.8438,461.75 94.6406,461.125 Q93.6563,460.625 92.9688,459.5547 Q92.2813,458.4844 92.2813,457.2031 L92.2813,456.0469 Q92.2813,454.7188 92.8984,453.5703 Q93.5156,452.4219 94.6094,451.8047 Q95.7031,451.1875 96.9375,451.1875 Q97.6719,451.1875 98.3203,451.3516 Q98.9688,451.5156 99.5156,451.875 Z "/><text fill="#000000" font-family="sans-serif" font-size="12" lengthAdjust="spacingAndGlyphs" textLength="64" x="117.25" y="460.9102">PluginBean</text><line style="stroke: #A80036; stroke-width: 1.5;" x1="29.5" x2="236.5" y1="472" y2="472"/><line style="stroke: #A80036; stroke-width: 1.5;" x1="29.5" x2="236.5" y1="480" y2="480"/><ellipse cx="39.5" cy="492.418" fill="#84BE84" rx="3" ry="3" style="stroke: #038048; stroke-width: 1.0;"/><text fill="#000000" font-family="sans-serif" font-size="11" lengthAdjust="spacingAndGlyphs" textLength="112" x="48.5" y="495.4189">PluginBean(WikiEngine)</text><ellipse cx="39.5" cy="506.2539" fill="#84BE84" rx="3" ry="3" style="stroke: #038048; stroke-width: 1.0;"/><text fill="#000000" font-family="sans-serif" font-size="11" lengthAdjust="spacingAndGlyphs" textLength="76" x="48.5" y="509.2549">getTitle(): String</text><ellipse cx="39.5" cy="520.0898" fill="#84BE84" rx="3" ry="3" style="stroke: #038048; stroke-width: 1.0;"/><text fill="#000000" font-family="sans-serif" font-size="11" lengthAdjust="spacingAndGlyphs" textLength="64" x="48.5" y="523.0908">getType(): int</text><polygon fill="#FFFF44" points="39.5,528.9258,43.5,532.9258,39.5,536.9258,35.5,532.9258" style="stroke: #B38D22; stroke-width: 1.0;"/><text fill="#000000" font-family="sans-serif" font-size="11" lengthAdjust="spacingAndGlyphs" textLength="183" x="48.5" y="536.9268">modules(): Collection&lt;WikiModuleInfo&gt;</text><polygon fill="#FFFF44" points="39.5,542.7617,43.5,546.7617,39.5,550.7617,35.5,546.7617" style="stroke: #B38D22; stroke-width: 1.0;"/><text fill="#000000" font-family="sans-serif" font-size="11" lengthAdjust="spacingAndGlyphs" textLength="89" x="48.5" y="550.7627">heading(): Element</text><polygon fill="#FFFF44" points="39.5,556.5977,43.5,560.5977,39.5,564.5977,35.5,560.5977" style="stroke: #B38D22; stroke-width: 1.0;"/><text fill="#000000" font-family="sans-serif" font-size="11" lengthAdjust="spacingAndGlyphs" textLength="167" x="48.5" y="564.5986">rowBody(WikiModuleInfo): Element</text></a><!--class org.apache.wiki.ui.admin.beans.PlainEditorAdminBean--><a href="PlainEditorAdminBean.html" target="_top" xlink:actuate="onRequest" xlink:show="new" xlink:title="PlainEditorAdminBean.html" xlink:type="simple"><rect fill="#FEFECE" filter="url(#f4lhmbgfflggd)" height="186.3594" id="org.apache.wiki.ui.admin.beans.PlainEditorAdminBean" style="stroke: #A80036; stroke-width: 1.5;" width="163" x="922.5" y="194"/><ellipse cx="940.65" cy="210" fill="#ADD1B2" rx="11" ry="11" style="stroke: #A80036; stroke-width: 1.0;"/><path d="M943.4156,205.875 Q943.5719,205.6563 943.7594,205.5469 Q943.9469,205.4375 944.1656,205.4375 Q944.5406,205.4375 944.775,205.6953 Q945.0094,205.9531 945.0094,206.5625 L945.0094,208.0156 Q945.0094,208.625 944.775,208.8906 Q944.5406,209.1563 944.1656,209.1563 Q943.8219,209.1563 943.6188,208.9531 Q943.4156,208.7656 943.3063,208.25 Q943.2594,207.8906 943.0719,207.7031 Q942.7438,207.3281 942.1344,207.1094 Q941.525,206.8906 940.9,206.8906 Q940.1344,206.8906 939.5016,207.2188 Q938.8688,207.5469 938.3766,208.2969 Q937.8844,209.0469 937.8844,210.0781 L937.8844,211.1719 Q937.8844,212.4063 938.775,213.2266 Q939.6656,214.0469 941.2594,214.0469 Q942.1969,214.0469 942.8531,213.7969 Q943.2438,213.6406 943.6656,213.2031 Q943.9313,212.9375 944.0797,212.8594 Q944.2281,212.7813 944.4313,212.7813 Q944.7594,212.7813 945.0172,213.0391 Q945.275,213.2969 945.275,213.6406 Q945.275,213.9844 944.9313,214.3906 Q944.4313,214.9688 943.6344,215.2969 Q942.5563,215.75 941.2594,215.75 Q939.7438,215.75 938.5406,215.125 Q937.5563,214.625 936.8688,213.5547 Q936.1813,212.4844 936.1813,211.2031 L936.1813,210.0469 Q936.1813,208.7188 936.7984,207.5703 Q937.4156,206.4219 938.5094,205.8047 Q939.6031,205.1875 940.8375,205.1875 Q941.5719,205.1875 942.2203,205.3516 Q942.8688,205.5156 943.4156,205.875 Z "/><text fill="#000000" font-family="sans-serif" font-size="12" lengthAdjust="spacingAndGlyphs" textLength="124" x="955.35" y="214.9102">PlainEditorAdminBean</text><line style="stroke: #A80036; stroke-width: 1.5;" x1="923.5" x2="1084.5" y1="226" y2="226"/><line style="stroke: #A80036; stroke-width: 1.5;" x1="923.5" x2="1084.5" y1="234" y2="234"/><ellipse cx="933.5" cy="246.418" fill="#84BE84" rx="3" ry="3" style="stroke: #038048; stroke-width: 1.0;"/><text fill="#000000" font-family="sans-serif" font-size="11" lengthAdjust="spacingAndGlyphs" textLength="127" x="942.5" y="249.4189">doGet(WikiContext): String</text><ellipse cx="933.5" cy="260.2539" fill="#84BE84" rx="3" ry="3" style="stroke: #038048; stroke-width: 1.0;"/><text fill="#000000" font-family="sans-serif" font-size="11" lengthAdjust="spacingAndGlyphs" textLength="131" x="942.5" y="263.2549">doPost(WikiContext): String</text><ellipse cx="933.5" cy="274.0898" fill="#84BE84" rx="3" ry="3" style="stroke: #038048; stroke-width: 1.0;"/><text fill="#000000" font-family="sans-serif" font-size="11" lengthAdjust="spacingAndGlyphs" textLength="76" x="942.5" y="277.0908">getTitle(): String</text><ellipse cx="933.5" cy="287.9258" fill="#84BE84" rx="3" ry="3" style="stroke: #038048; stroke-width: 1.0;"/><text fill="#000000" font-family="sans-serif" font-size="11" lengthAdjust="spacingAndGlyphs" textLength="64" x="942.5" y="290.9268">getType(): int</text><ellipse cx="933.5" cy="301.7617" fill="#84BE84" rx="3" ry="3" style="stroke: #038048; stroke-width: 1.0;"/><text fill="#000000" font-family="sans-serif" font-size="11" lengthAdjust="spacingAndGlyphs" textLength="98" x="942.5" y="304.7627">isEnabled(): boolean</text><ellipse cx="933.5" cy="315.5977" fill="#84BE84" rx="3" ry="3" style="stroke: #038048; stroke-width: 1.0;"/><text fill="#000000" font-family="sans-serif" font-size="11" lengthAdjust="spacingAndGlyphs" textLength="65" x="942.5" y="318.5986">getId(): String</text><ellipse cx="933.5" cy="329.4336" fill="#84BE84" rx="3" ry="3" style="stroke: #038048; stroke-width: 1.0;"/><text fill="#000000" font-family="sans-serif" font-size="11" lengthAdjust="spacingAndGlyphs" textLength="109" x="942.5" y="332.4346">getChecked(): boolean</text><ellipse cx="933.5" cy="343.2695" fill="#84BE84" rx="3" ry="3" style="stroke: #038048; stroke-width: 1.0;"/><text fill="#000000" font-family="sans-serif" font-size="11" lengthAdjust="spacingAndGlyphs" textLength="137" x="942.5" y="346.2705">getAttributeNames(): String[]</text><ellipse cx="933.5" cy="357.1055" fill="#84BE84" rx="3" ry="3" style="stroke: #038048; stroke-width: 1.0;"/><text fill="#000000" font-family="sans-serif" font-size="11" lengthAdjust="spacingAndGlyphs" textLength="131" x="942.5" y="360.1064">getMethodNames(): String[]</text><ellipse cx="933.5" cy="370.9414" fill="#84BE84" rx="3" ry="3" style="stroke: #038048; stroke-width: 1.0;"/><text fill="#000000" font-family="sans-serif" font-size="11" lengthAdjust="spacingAndGlyphs" textLength="122" x="942.5" y="373.9424">initialize(WikiEngine): void</text></a><!--class org.apache.wiki.ui.admin.beans.ModuleBean--><a href="ModuleBean.html" target="_top" xlink:actuate="onRequest" xlink:show="new" xlink:title="ModuleBean.html" xlink:type="simple"><rect fill="#FEFECE" filter="url(#f4lhmbgfflggd)" height="186.3594" id="org.apache.wiki.ui.admin.beans.ModuleBean" style="stroke: #A80036; stroke-width: 1.5;" width="235" x="22.5" y="194"/><ellipse cx="101.25" cy="210" fill="#A9DCDF" rx="11" ry="11" style="stroke: #A80036; stroke-width: 1.0;"/><path d="M103.4375,211.7656 L99.2969,211.7656 L98.875,212.7969 L99.2969,212.7969 Q99.9063,212.7969 100.1719,213.0313 Q100.4375,213.2656 100.4375,213.6563 Q100.4375,214.0313 100.1719,214.2656 Q99.9063,214.5 99.2969,214.5 L97,214.5 Q96.3906,214.5 96.1328,214.2656 Q95.875,214.0313 95.875,213.6406 Q95.875,213.2656 96.1484,213.0234 Q96.4219,212.7813 97.0469,212.7969 L99.7188,206.1406 L98.6094,206.1406 Q98,206.1406 97.7344,205.9063 Q97.4688,205.6719 97.4688,205.2813 Q97.4688,204.9063 97.7344,204.6719 Q98,204.4375 98.6094,204.4375 L102.2813,204.4375 L105.6719,212.7969 Q106.2656,212.7969 106.4531,212.9375 Q106.8438,213.2031 106.8438,213.6563 Q106.8438,214.0313 106.5859,214.2656 Q106.3281,214.5 105.7188,214.5 L103.4219,214.5 Q102.8125,214.5 102.5469,214.2656 Q102.2813,214.0313 102.2813,213.6406 Q102.2813,213.2656 102.5469,213.0313 Q102.8125,212.7969 103.4219,212.7969 L103.8438,212.7969 L103.4375,211.7656 Z M102.7188,210.0625 L101.3594,206.6875 L99.9844,210.0625 L102.7188,210.0625 Z "/><text fill="#000000" font-family="sans-serif" font-size="12" font-style="italic" lengthAdjust="spacingAndGlyphs" textLength="69" x="121.75" y="214.9102">ModuleBean</text><line style="stroke: #A80036; stroke-width: 1.5;" x1="23.5" x2="256.5" y1="226" y2="226"/><line style="stroke: #A80036; stroke-width: 1.5;" x1="23.5" x2="256.5" y1="234" y2="234"/><ellipse cx="33.5" cy="246.418" fill="#84BE84" rx="3" ry="3" style="stroke: #038048; stroke-width: 1.0;"/><text fill="#000000" font-family="sans-serif" font-size="11" lengthAdjust="spacingAndGlyphs" textLength="118" x="42.5" y="249.4189">ModuleBean(WikiEngine)</text><ellipse cx="33.5" cy="260.2539" fill="#84BE84" rx="3" ry="3" style="stroke: #038048; stroke-width: 1.0;"/><text fill="#000000" font-family="sans-serif" font-size="11" lengthAdjust="spacingAndGlyphs" textLength="137" x="42.5" y="263.2549">getAttributeNames(): String[]</text><ellipse cx="33.5" cy="274.0898" fill="#84BE84" rx="3" ry="3" style="stroke: #038048; stroke-width: 1.0;"/><text fill="#000000" font-family="sans-serif" font-size="11" lengthAdjust="spacingAndGlyphs" textLength="131" x="42.5" y="277.0908">getMethodNames(): String[]</text><ellipse cx="33.5" cy="287.9258" fill="#84BE84" rx="3" ry="3" style="stroke: #038048; stroke-width: 1.0;"/><text fill="#000000" font-family="sans-serif" font-size="11" lengthAdjust="spacingAndGlyphs" textLength="127" x="42.5" y="290.9268">doGet(WikiContext): String</text><polygon fill="#FFFF44" points="33.5,296.7617,37.5,300.7617,33.5,304.7617,29.5,300.7617" style="stroke: #B38D22; stroke-width: 1.0;"/><text fill="#000000" font-family="sans-serif" font-size="11" lengthAdjust="spacingAndGlyphs" textLength="67" x="42.5" y="304.7627">title(): Element</text><polygon fill="#FFFF44" points="33.5,310.5977,37.5,314.5977,33.5,318.5977,29.5,314.5977" style="stroke: #B38D22; stroke-width: 1.0;"/><text fill="#000000" font-family="sans-serif" font-size="11" lengthAdjust="spacingAndGlyphs" textLength="209" x="42.5" y="318.5986">containerForModuleDetail(Element): Element</text><polygon fill="#FFFF44" points="33.5,324.4336,37.5,328.4336,33.5,332.4336,29.5,328.4336" style="stroke: #B38D22; stroke-width: 1.0;"/><text fill="#000000" font-family="sans-serif" font-size="11" lengthAdjust="spacingAndGlyphs" textLength="207" x="42.5" y="332.4346">validModuleVersion(WikiModuleInfo): String</text><polygon fill="#FFFF44" points="33.5,338.2695,37.5,342.2695,33.5,346.2695,29.5,342.2695" style="stroke: #B38D22; stroke-width: 1.0;"/><text fill="#000000" font-family="sans-serif" font-size="11" font-style="italic" lengthAdjust="spacingAndGlyphs" textLength="195" x="42.5" y="346.2705">modules(): Collection&lt;WikiModuleInfo&gt;</text><polygon fill="#FFFF44" points="33.5,352.1055,37.5,356.1055,33.5,360.1055,29.5,356.1055" style="stroke: #B38D22; stroke-width: 1.0;"/><text fill="#000000" font-family="sans-serif" font-size="11" font-style="italic" lengthAdjust="spacingAndGlyphs" textLength="93" x="42.5" y="360.1064">heading(): Element</text><polygon fill="#FFFF44" points="33.5,365.9414,37.5,369.9414,33.5,373.9414,29.5,369.9414" style="stroke: #B38D22; stroke-width: 1.0;"/><text fill="#000000" font-family="sans-serif" font-size="11" font-style="italic" lengthAdjust="spacingAndGlyphs" textLength="172" x="42.5" y="373.9424">rowBody(WikiModuleInfo): Element</text></a><!--class org.apache.wiki.ui.admin.beans.FilterBean--><a href="FilterBean.html" target="_top" xlink:actuate="onRequest" xlink:show="new" xlink:title="FilterBean.html" xlink:type="simple"><rect fill="#FEFECE" filter="url(#f4lhmbgfflggd)" height="131.0156" id="org.apache.wiki.ui.admin.beans.FilterBean" style="stroke: #A80036; stroke-width: 1.5;" width="209" x="272.5" y="440"/><ellipse cx="344.75" cy="456" fill="#ADD1B2" rx="11" ry="11" style="stroke: #A80036; stroke-width: 1.0;"/><path d="M347.5156,451.875 Q347.6719,451.6563 347.8594,451.5469 Q348.0469,451.4375 348.2656,451.4375 Q348.6406,451.4375 348.875,451.6953 Q349.1094,451.9531 349.1094,452.5625 L349.1094,454.0156 Q349.1094,454.625 348.875,454.8906 Q348.6406,455.1563 348.2656,455.1563 Q347.9219,455.1563 347.7188,454.9531 Q347.5156,454.7656 347.4063,454.25 Q347.3594,453.8906 347.1719,453.7031 Q346.8438,453.3281 346.2344,453.1094 Q345.625,452.8906 345,452.8906 Q344.2344,452.8906 343.6016,453.2188 Q342.9688,453.5469 342.4766,454.2969 Q341.9844,455.0469 341.9844,456.0781 L341.9844,457.1719 Q341.9844,458.4063 342.875,459.2266 Q343.7656,460.0469 345.3594,460.0469 Q346.2969,460.0469 346.9531,459.7969 Q347.3438,459.6406 347.7656,459.2031 Q348.0313,458.9375 348.1797,458.8594 Q348.3281,458.7813 348.5313,458.7813 Q348.8594,458.7813 349.1172,459.0391 Q349.375,459.2969 349.375,459.6406 Q349.375,459.9844 349.0313,460.3906 Q348.5313,460.9688 347.7344,461.2969 Q346.6563,461.75 345.3594,461.75 Q343.8438,461.75 342.6406,461.125 Q341.6563,460.625 340.9688,459.5547 Q340.2813,458.4844 340.2813,457.2031 L340.2813,456.0469 Q340.2813,454.7188 340.8984,453.5703 Q341.5156,452.4219 342.6094,451.8047 Q343.7031,451.1875 344.9375,451.1875 Q345.6719,451.1875 346.3203,451.3516 Q346.9688,451.5156 347.5156,451.875 Z "/><text fill="#000000" font-family="sans-serif" font-size="12" lengthAdjust="spacingAndGlyphs" textLength="56" x="365.25" y="460.9102">FilterBean</text><line style="stroke: #A80036; stroke-width: 1.5;" x1="273.5" x2="480.5" y1="472" y2="472"/><line style="stroke: #A80036; stroke-width: 1.5;" x1="273.5" x2="480.5" y1="480" y2="480"/><ellipse cx="283.5" cy="492.418" fill="#84BE84" rx="3" ry="3" style="stroke: #038048; stroke-width: 1.0;"/><text fill="#000000" font-family="sans-serif" font-size="11" lengthAdjust="spacingAndGlyphs" textLength="107" x="292.5" y="495.4189">FilterBean(WikiEngine)</text><ellipse cx="283.5" cy="506.2539" fill="#84BE84" rx="3" ry="3" style="stroke: #038048; stroke-width: 1.0;"/><text fill="#000000" font-family="sans-serif" font-size="11" lengthAdjust="spacingAndGlyphs" textLength="76" x="292.5" y="509.2549">getTitle(): String</text><ellipse cx="283.5" cy="520.0898" fill="#84BE84" rx="3" ry="3" style="stroke: #038048; stroke-width: 1.0;"/><text fill="#000000" font-family="sans-serif" font-size="11" lengthAdjust="spacingAndGlyphs" textLength="64" x="292.5" y="523.0908">getType(): int</text><polygon fill="#FFFF44" points="283.5,528.9258,287.5,532.9258,283.5,536.9258,279.5,532.9258" style="stroke: #B38D22; stroke-width: 1.0;"/><text fill="#000000" font-family="sans-serif" font-size="11" lengthAdjust="spacingAndGlyphs" textLength="183" x="292.5" y="536.9268">modules(): Collection&lt;WikiModuleInfo&gt;</text><polygon fill="#FFFF44" points="283.5,542.7617,287.5,546.7617,283.5,550.7617,279.5,546.7617" style="stroke: #B38D22; stroke-width: 1.0;"/><text fill="#000000" font-family="sans-serif" font-size="11" lengthAdjust="spacingAndGlyphs" textLength="89" x="292.5" y="550.7627">heading(): Element</text><polygon fill="#FFFF44" points="283.5,556.5977,287.5,560.5977,283.5,564.5977,279.5,560.5977" style="stroke: #B38D22; stroke-width: 1.0;"/><text fill="#000000" font-family="sans-serif" font-size="11" lengthAdjust="spacingAndGlyphs" textLength="167" x="292.5" y="564.5986">rowBody(WikiModuleInfo): Element</text></a><!--class org.apache.wiki.ui.admin.beans.CoreBean--><a href="CoreBean.html" target="_top" xlink:actuate="onRequest" xlink:show="new" xlink:title="CoreBean.html" xlink:type="simple"><rect fill="#FEFECE" filter="url(#f4lhmbgfflggd)" height="186.3594" id="org.apache.wiki.ui.admin.beans.CoreBean" style="stroke: #A80036; stroke-width: 1.5;" width="175" x="292.5" y="194"/><ellipse cx="347.75" cy="210" fill="#ADD1B2" rx="11" ry="11" style="stroke: #A80036; stroke-width: 1.0;"/><path d="M350.5156,205.875 Q350.6719,205.6563 350.8594,205.5469 Q351.0469,205.4375 351.2656,205.4375 Q351.6406,205.4375 351.875,205.6953 Q352.1094,205.9531 352.1094,206.5625 L352.1094,208.0156 Q352.1094,208.625 351.875,208.8906 Q351.6406,209.1563 351.2656,209.1563 Q350.9219,209.1563 350.7188,208.9531 Q350.5156,208.7656 350.4063,208.25 Q350.3594,207.8906 350.1719,207.7031 Q349.8438,207.3281 349.2344,207.1094 Q348.625,206.8906 348,206.8906 Q347.2344,206.8906 346.6016,207.2188 Q345.9688,207.5469 345.4766,208.2969 Q344.9844,209.0469 344.9844,210.0781 L344.9844,211.1719 Q344.9844,212.4063 345.875,213.2266 Q346.7656,214.0469 348.3594,214.0469 Q349.2969,214.0469 349.9531,213.7969 Q350.3438,213.6406 350.7656,213.2031 Q351.0313,212.9375 351.1797,212.8594 Q351.3281,212.7813 351.5313,212.7813 Q351.8594,212.7813 352.1172,213.0391 Q352.375,213.2969 352.375,213.6406 Q352.375,213.9844 352.0313,214.3906 Q351.5313,214.9688 350.7344,215.2969 Q349.6563,215.75 348.3594,215.75 Q346.8438,215.75 345.6406,215.125 Q344.6563,214.625 343.9688,213.5547 Q343.2813,212.4844 343.2813,211.2031 L343.2813,210.0469 Q343.2813,208.7188 343.8984,207.5703 Q344.5156,206.4219 345.6094,205.8047 Q346.7031,205.1875 347.9375,205.1875 Q348.6719,205.1875 349.3203,205.3516 Q349.9688,205.5156 350.5156,205.875 Z "/><text fill="#000000" font-family="sans-serif" font-size="12" lengthAdjust="spacingAndGlyphs" textLength="56" x="368.25" y="214.9102">CoreBean</text><line style="stroke: #A80036; stroke-width: 1.5;" x1="293.5" x2="466.5" y1="226" y2="226"/><line style="stroke: #A80036; stroke-width: 1.5;" x1="293.5" x2="466.5" y1="234" y2="234"/><ellipse cx="303.5" cy="246.418" fill="#84BE84" rx="3" ry="3" style="stroke: #038048; stroke-width: 1.0;"/><text fill="#000000" font-family="sans-serif" font-size="11" lengthAdjust="spacingAndGlyphs" textLength="107" x="312.5" y="249.4189">CoreBean(WikiEngine)</text><ellipse cx="303.5" cy="260.2539" fill="#84BE84" rx="3" ry="3" style="stroke: #038048; stroke-width: 1.0;"/><text fill="#000000" font-family="sans-serif" font-size="11" lengthAdjust="spacingAndGlyphs" textLength="70" x="312.5" y="263.2549">getPages(): int</text><ellipse cx="303.5" cy="274.0898" fill="#84BE84" rx="3" ry="3" style="stroke: #038048; stroke-width: 1.0;"/><text fill="#000000" font-family="sans-serif" font-size="11" lengthAdjust="spacingAndGlyphs" textLength="141" x="312.5" y="277.0908">getPagesDescription(): String</text><ellipse cx="303.5" cy="287.9258" fill="#84BE84" rx="3" ry="3" style="stroke: #038048; stroke-width: 1.0;"/><text fill="#000000" font-family="sans-serif" font-size="11" lengthAdjust="spacingAndGlyphs" textLength="95" x="312.5" y="290.9268">getVersion(): String</text><ellipse cx="303.5" cy="301.7617" fill="#84BE84" rx="3" ry="3" style="stroke: #038048; stroke-width: 1.0;"/><text fill="#000000" font-family="sans-serif" font-size="11" lengthAdjust="spacingAndGlyphs" textLength="149" x="312.5" y="304.7627">getVersionDescription(): String</text><ellipse cx="303.5" cy="315.5977" fill="#84BE84" rx="3" ry="3" style="stroke: #038048; stroke-width: 1.0;"/><text fill="#000000" font-family="sans-serif" font-size="11" lengthAdjust="spacingAndGlyphs" textLength="76" x="312.5" y="318.5986">getTitle(): String</text><ellipse cx="303.5" cy="329.4336" fill="#84BE84" rx="3" ry="3" style="stroke: #038048; stroke-width: 1.0;"/><text fill="#000000" font-family="sans-serif" font-size="11" lengthAdjust="spacingAndGlyphs" textLength="64" x="312.5" y="332.4346">getType(): int</text><ellipse cx="303.5" cy="343.2695" fill="#84BE84" rx="3" ry="3" style="stroke: #038048; stroke-width: 1.0;"/><text fill="#000000" font-family="sans-serif" font-size="11" lengthAdjust="spacingAndGlyphs" textLength="65" x="312.5" y="346.2705">getId(): String</text><ellipse cx="303.5" cy="357.1055" fill="#84BE84" rx="3" ry="3" style="stroke: #038048; stroke-width: 1.0;"/><text fill="#000000" font-family="sans-serif" font-size="11" lengthAdjust="spacingAndGlyphs" textLength="137" x="312.5" y="360.1064">getAttributeNames(): String[]</text><ellipse cx="303.5" cy="370.9414" fill="#84BE84" rx="3" ry="3" style="stroke: #038048; stroke-width: 1.0;"/><text fill="#000000" font-family="sans-serif" font-size="11" lengthAdjust="spacingAndGlyphs" textLength="131" x="312.5" y="373.9424">getMethodNames(): String[]</text></a><!--class org.apache.wiki.ui.admin.SimpleAdminBean--><rect fill="#FEFECE" filter="url(#f4lhmbgfflggd)" height="48" id="org.apache.wiki.ui.admin.SimpleAdminBean" style="stroke: #A80036; stroke-width: 1.5;" width="136" x="528" y="65"/><ellipse cx="543" cy="81" fill="#A9DCDF" rx="11" ry="11" style="stroke: #A80036; stroke-width: 1.0;"/><path d="M545.1875,82.7656 L541.0469,82.7656 L540.625,83.7969 L541.0469,83.7969 Q541.6563,83.7969 541.9219,84.0313 Q542.1875,84.2656 542.1875,84.6563 Q542.1875,85.0313 541.9219,85.2656 Q541.6563,85.5 541.0469,85.5 L538.75,85.5 Q538.1406,85.5 537.8828,85.2656 Q537.625,85.0313 537.625,84.6406 Q537.625,84.2656 537.8984,84.0234 Q538.1719,83.7813 538.7969,83.7969 L541.4688,77.1406 L540.3594,77.1406 Q539.75,77.1406 539.4844,76.9063 Q539.2188,76.6719 539.2188,76.2813 Q539.2188,75.9063 539.4844,75.6719 Q539.75,75.4375 540.3594,75.4375 L544.0313,75.4375 L547.4219,83.7969 Q548.0156,83.7969 548.2031,83.9375 Q548.5938,84.2031 548.5938,84.6563 Q548.5938,85.0313 548.3359,85.2656 Q548.0781,85.5 547.4688,85.5 L545.1719,85.5 Q544.5625,85.5 544.2969,85.2656 Q544.0313,85.0313 544.0313,84.6406 Q544.0313,84.2656 544.2969,84.0313 Q544.5625,83.7969 545.1719,83.7969 L545.5938,83.7969 L545.1875,82.7656 Z M544.4688,81.0625 L543.1094,77.6875 L541.7344,81.0625 L544.4688,81.0625 Z "/><text fill="#000000" font-family="sans-serif" font-size="12" font-style="italic" lengthAdjust="spacingAndGlyphs" textLength="104" x="557" y="85.9102">SimpleAdminBean</text><line style="stroke: #A80036; stroke-width: 1.5;" x1="529" x2="663" y1="97" y2="97"/><line style="stroke: #A80036; stroke-width: 1.5;" x1="529" x2="663" y1="105" y2="105"/><!--class org.apache.wiki.ui.admin.AdminBean--><rect fill="#FEFECE" filter="url(#f4lhmbgfflggd)" height="89.5078" id="org.apache.wiki.ui.admin.AdminBean" style="stroke: #A80036; stroke-width: 1.5;" width="159" x="699.5" y="44"/><ellipse cx="742.4" cy="60" fill="#B4A7E5" rx="11" ry="11" style="stroke: #A80036; stroke-width: 1.0;"/><path d="M743.3531,56.6406 L743.3531,63.2969 L745.0719,63.2969 Q745.6813,63.2969 745.9469,63.5313 Q746.2125,63.7656 746.2125,64.1563 Q746.2125,64.5313 745.9469,64.7656 Q745.6813,65 745.0719,65 L739.9313,65 Q739.3219,65 739.0563,64.7656 Q738.7906,64.5313 738.7906,64.1406 Q738.7906,63.7656 739.0563,63.5313 Q739.3219,63.2969 739.9313,63.2969 L741.65,63.2969 L741.65,56.6406 L739.9313,56.6406 Q739.3219,56.6406 739.0563,56.4063 Q738.7906,56.1719 738.7906,55.7813 Q738.7906,55.4063 739.0563,55.1719 Q739.3219,54.9375 739.9313,54.9375 L745.0719,54.9375 Q745.6813,54.9375 745.9469,55.1719 Q746.2125,55.4063 746.2125,55.7813 Q746.2125,56.1719 745.9469,56.4063 Q745.6813,56.6406 745.0719,56.6406 L743.3531,56.6406 Z "/><text fill="#000000" font-family="sans-serif" font-size="12" font-style="italic" lengthAdjust="spacingAndGlyphs" textLength="65" x="762.6" y="64.9102">AdminBean</text><line style="stroke: #A80036; stroke-width: 1.5;" x1="700.5" x2="857.5" y1="76" y2="76"/><line style="stroke: #A80036; stroke-width: 1.5;" x1="700.5" x2="857.5" y1="84" y2="84"/><ellipse cx="710.5" cy="96.418" fill="#84BE84" rx="3" ry="3" style="stroke: #038048; stroke-width: 1.0;"/><text fill="#000000" font-family="sans-serif" font-size="11" font-style="italic" lengthAdjust="spacingAndGlyphs" textLength="133" x="719.5" y="99.4189">initialize(WikiEngine): void</text><ellipse cx="710.5" cy="110.2539" fill="#84BE84" rx="3" ry="3" style="stroke: #038048; stroke-width: 1.0;"/><text fill="#000000" font-family="sans-serif" font-size="11" font-style="italic" lengthAdjust="spacingAndGlyphs" textLength="80" x="719.5" y="113.2549">getTitle(): String</text><ellipse cx="710.5" cy="124.0898" fill="#84BE84" rx="3" ry="3" style="stroke: #038048; stroke-width: 1.0;"/><text fill="#000000" font-family="sans-serif" font-size="11" font-style="italic" lengthAdjust="spacingAndGlyphs" textLength="65" x="719.5" y="127.0908">getType(): int</text><!--class org.apache.wiki.management.SimpleMBean--><rect fill="#FEFECE" filter="url(#f4lhmbgfflggd)" height="75.6719" id="org.apache.wiki.management.SimpleMBean" style="stroke: #A80036; stroke-width: 1.5;" width="167" x="920.5" y="51"/><ellipse cx="961.6" cy="67" fill="#A9DCDF" rx="11" ry="11" style="stroke: #A80036; stroke-width: 1.0;"/><path d="M963.7875,68.7656 L959.6469,68.7656 L959.225,69.7969 L959.6469,69.7969 Q960.2563,69.7969 960.5219,70.0313 Q960.7875,70.2656 960.7875,70.6563 Q960.7875,71.0313 960.5219,71.2656 Q960.2563,71.5 959.6469,71.5 L957.35,71.5 Q956.7406,71.5 956.4828,71.2656 Q956.225,71.0313 956.225,70.6406 Q956.225,70.2656 956.4984,70.0234 Q956.7719,69.7813 957.3969,69.7969 L960.0688,63.1406 L958.9594,63.1406 Q958.35,63.1406 958.0844,62.9063 Q957.8188,62.6719 957.8188,62.2813 Q957.8188,61.9063 958.0844,61.6719 Q958.35,61.4375 958.9594,61.4375 L962.6313,61.4375 L966.0219,69.7969 Q966.6156,69.7969 966.8031,69.9375 Q967.1938,70.2031 967.1938,70.6563 Q967.1938,71.0313 966.9359,71.2656 Q966.6781,71.5 966.0688,71.5 L963.7719,71.5 Q963.1625,71.5 962.8969,71.2656 Q962.6313,71.0313 962.6313,70.6406 Q962.6313,70.2656 962.8969,70.0313 Q963.1625,69.7969 963.7719,69.7969 L964.1938,69.7969 L963.7875,68.7656 Z M963.0688,67.0625 L961.7094,63.6875 L960.3344,67.0625 L963.0688,67.0625 Z "/><text fill="#000000" font-family="sans-serif" font-size="12" font-style="italic" lengthAdjust="spacingAndGlyphs" textLength="77" x="981.4" y="71.9102">SimpleMBean</text><line style="stroke: #A80036; stroke-width: 1.5;" x1="921.5" x2="1086.5" y1="83" y2="83"/><line style="stroke: #A80036; stroke-width: 1.5;" x1="921.5" x2="1086.5" y1="91" y2="91"/><ellipse cx="931.5" cy="103.418" fill="#84BE84" rx="3" ry="3" style="stroke: #038048; stroke-width: 1.0;"/><text fill="#000000" font-family="sans-serif" font-size="11" font-style="italic" lengthAdjust="spacingAndGlyphs" textLength="141" x="940.5" y="106.4189">getAttributeNames(): String[]</text><ellipse cx="931.5" cy="117.2539" fill="#84BE84" rx="3" ry="3" style="stroke: #038048; stroke-width: 1.0;"/><text fill="#000000" font-family="sans-serif" font-size="11" font-style="italic" lengthAdjust="spacingAndGlyphs" textLength="135" x="940.5" y="120.2549">getMethodNames(): String[]</text><!--link org.apache.wiki.ui.admin.SimpleAdminBean to org.apache.wiki.ui.admin.beans.UserBean--><path d="M653.007,124.0788 C671.0846,136.3479 690.6151,150.8647 707,166 C724.9439,182.5754 742.5071,202.4514 757.7393,221.2585 " fill="none" id="org.apache.wiki.ui.admin.SimpleAdminBean-org.apache.wiki.ui.admin.beans.UserBean" style="stroke: #A80036; stroke-width: 1.0;"/><polygon fill="none" points="649.1241,129.9034,636.2702,113.0577,656.8237,118.2108,649.1241,129.9034" style="stroke: #A80036; stroke-width: 1.0;"/><!--link org.apache.wiki.ui.admin.SimpleAdminBean to org.apache.wiki.ui.admin.beans.SearchManagerBean--><path d="M596,133.4492 C596,155.2096 596,182.0823 596,207.2326 " fill="none" id="org.apache.wiki.ui.admin.SimpleAdminBean-org.apache.wiki.ui.admin.beans.SearchManagerBean" style="stroke: #A80036; stroke-width: 1.0;"/><polygon fill="none" points="589.0001,133.2787,596,113.2787,603.0001,133.2787,589.0001,133.2787" style="stroke: #A80036; stroke-width: 1.0;"/><!--link org.apache.wiki.ui.admin.beans.ModuleBean to org.apache.wiki.ui.admin.beans.PluginBean--><path d="M136.3586,400.6635 C135.9279,414.1075 135.5001,427.4622 135.1012,439.9116 " fill="none" id="org.apache.wiki.ui.admin.beans.ModuleBean-org.apache.wiki.ui.admin.beans.PluginBean" style="stroke: #A80036; stroke-width: 1.0;"/><polygon fill="none" points="129.3742,400.063,137.0111,380.2975,143.367,400.5114,129.3742,400.063" style="stroke: #A80036; stroke-width: 1.0;"/><!--link org.apache.wiki.management.SimpleMBean to org.apache.wiki.ui.admin.beans.PlainEditorAdminBean--><path d="M1004,147.3852 C1004,162.0066 1004,178.0578 1004,193.9064 " fill="none" id="org.apache.wiki.management.SimpleMBean-org.apache.wiki.ui.admin.beans.PlainEditorAdminBean" style="stroke: #A80036; stroke-width: 1.0;"/><polygon fill="none" points="997.0001,147.1764,1004,127.1764,1011.0001,147.1764,997.0001,147.1764" style="stroke: #A80036; stroke-width: 1.0;"/><!--link org.apache.wiki.ui.admin.AdminBean to org.apache.wiki.ui.admin.beans.PlainEditorAdminBean--><path d="M875.6469,143.3329 C885.9157,150.4754 895.9139,158.082 905,166 C914.7198,174.4702 924.241,183.9629 933.3026,193.807 " fill="none" id="org.apache.wiki.ui.admin.AdminBean-org.apache.wiki.ui.admin.beans.PlainEditorAdminBean" style="stroke: #A80036; stroke-width: 1.0; stroke-dasharray: 7.0,7.0;"/><polygon fill="none" points="871.5956,149.0454,858.8083,132.1491,879.3413,137.3833,871.5956,149.0454" style="stroke: #A80036; stroke-width: 1.0;"/><!--link org.apache.wiki.ui.admin.SimpleAdminBean to org.apache.wiki.ui.admin.beans.ModuleBean--><path d="M507.8482,98.2407 C440.9247,108.0062 348.2448,127.5792 275,166 C260.3672,173.6757 246.0584,183.2921 232.5561,193.7303 " fill="none" id="org.apache.wiki.ui.admin.SimpleAdminBean-org.apache.wiki.ui.admin.beans.ModuleBean" style="stroke: #A80036; stroke-width: 1.0;"/><polygon fill="none" points="506.9755,91.295,527.7406,95.5149,508.8761,105.1654,506.9755,91.295" style="stroke: #A80036; stroke-width: 1.0;"/><!--link org.apache.wiki.ui.admin.beans.ModuleBean to org.apache.wiki.ui.admin.beans.FilterBean--><path d="M256.078,394.017 C273.0712,409.6838 290.1308,425.4117 305.8583,439.9116 " fill="none" id="org.apache.wiki.ui.admin.beans.ModuleBean-org.apache.wiki.ui.admin.beans.FilterBean" style="stroke: #A80036; stroke-width: 1.0;"/><polygon fill="none" points="251.1564,399.0006,241.1968,380.2975,260.646,388.7075,251.1564,399.0006" style="stroke: #A80036; stroke-width: 1.0;"/><!--link org.apache.wiki.ui.admin.SimpleAdminBean to org.apache.wiki.ui.admin.beans.CoreBean--><path d="M539.4668,124.2154 C521.3452,136.5332 501.6687,151.0445 485,166 C475.3735,174.6371 465.7798,184.1288 456.5246,193.8795 " fill="none" id="org.apache.wiki.ui.admin.SimpleAdminBean-org.apache.wiki.ui.admin.beans.CoreBean" style="stroke: #A80036; stroke-width: 1.0;"/><polygon fill="none" points="535.6733,118.3319,556.2157,113.1348,543.3979,130.008,535.6733,118.3319" style="stroke: #A80036; stroke-width: 1.0;"/><text fill="#888888" font-family="sans-serif" font-size="10" lengthAdjust="spacingAndGlyphs" textLength="184" x="478" y="607.3809">UMLDoclet 1.1.4, PlantUML 1.2019.05</text><!--
@startuml

    namespace org.apache.wiki.ui.admin.beans {

        class UserBean [[UserBean.html]] {
            +UserBean(WikiEngine)
            +getAttributeNames(): String[]
            +getMethodNames(): String[]
            +doPost(WikiContext): String
            +getTitle(): String
            +getType(): int
        }

        class SearchManagerBean [[SearchManagerBean.html]] {
            +SearchManagerBean(WikiEngine)
            +getAttributeNames(): String[]
            +getMethodNames(): String[]
            +getTitle(): String
            +reload(): void
            +getType(): int
            +doGet(WikiContext): String
            +doPost(WikiContext): String
        }

        class PluginBean [[PluginBean.html]] {
            +PluginBean(WikiEngine)
            +getTitle(): String
            +getType(): int
            #modules(): Collection<WikiModuleInfo>
            #heading(): Element
            #rowBody(WikiModuleInfo): Element
        }

        class PlainEditorAdminBean [[PlainEditorAdminBean.html]] {
            +doGet(WikiContext): String
            +doPost(WikiContext): String
            +getTitle(): String
            +getType(): int
            +isEnabled(): boolean
            +getId(): String
            +getChecked(): boolean
            +getAttributeNames(): String[]
            +getMethodNames(): String[]
            +initialize(WikiEngine): void
        }

        abstract class ModuleBean [[ModuleBean.html]] {
            +ModuleBean(WikiEngine)
            +getAttributeNames(): String[]
            +getMethodNames(): String[]
            +doGet(WikiContext): String
            #title(): Element
            #containerForModuleDetail(Element): Element
            #validModuleVersion(WikiModuleInfo): String
            {abstract} #modules(): Collection<WikiModuleInfo>
            {abstract} #heading(): Element
            {abstract} #rowBody(WikiModuleInfo): Element
        }

        class FilterBean [[FilterBean.html]] {
            +FilterBean(WikiEngine)
            +getTitle(): String
            +getType(): int
            #modules(): Collection<WikiModuleInfo>
            #heading(): Element
            #rowBody(WikiModuleInfo): Element
        }

        class CoreBean [[CoreBean.html]] {
            +CoreBean(WikiEngine)
            +getPages(): int
            +getPagesDescription(): String
            +getVersion(): String
            +getVersionDescription(): String
            +getTitle(): String
            +getType(): int
            +getId(): String
            +getAttributeNames(): String[]
            +getMethodNames(): String[]
        }

        abstract class org.apache.wiki.ui.admin.SimpleAdminBean
        org.apache.wiki.ui.admin.SimpleAdminBean <|- - UserBean

        org.apache.wiki.ui.admin.SimpleAdminBean <|- - SearchManagerBean

        ModuleBean <|- - PluginBean

        abstract class org.apache.wiki.management.SimpleMBean {
            {abstract} +getAttributeNames(): String[]
            {abstract} +getMethodNames(): String[]
        }
        org.apache.wiki.management.SimpleMBean <|- - PlainEditorAdminBean

        interface org.apache.wiki.ui.admin.AdminBean {
            {abstract} +initialize(WikiEngine): void
            {abstract} +getTitle(): String
            {abstract} +getType(): int
        }
        org.apache.wiki.ui.admin.AdminBean <|.. PlainEditorAdminBean

        org.apache.wiki.ui.admin.SimpleAdminBean <|- - ModuleBean

        ModuleBean <|- - FilterBean

        org.apache.wiki.ui.admin.SimpleAdminBean <|- - CoreBean

    }


    center footer UMLDoclet 1.1.4, PlantUML 1.2019.05
@enduml

PlantUML version 1.2019.05(Sat Apr 20 18:45:36 CEST 2019)
(APACHE source distribution)
Java Runtime: OpenJDK Runtime Environment
JVM: OpenJDK 64-Bit Server VM
Java Version: 1.8.0_212-b03
Operating System: Windows 10
OS Version: 10.0
Default Encoding: Cp1252
Language: es
Country: ES
--></g></svg>