<?xml version="1.0" encoding="UTF-8" standalone="no"?><svg xmlns="http://www.w3.org/2000/svg" xmlns:xlink="http://www.w3.org/1999/xlink" contentScriptType="application/ecmascript" contentStyleType="text/css" height="227px" preserveAspectRatio="none" style="width:197px;height:227px;" version="1.1" viewBox="0 0 197 227" width="197px" zoomAndPan="magnify"><defs><filter height="300%" id="fvl03yulqobam" width="300%" x="-1" y="-1"><feGaussianBlur result="blurOut" stdDeviation="2.0"/><feColorMatrix in="blurOut" result="blurOut2" type="matrix" values="0 0 0 0 0 0 0 0 0 0 0 0 0 0 0 0 0 0 .4 0"/><feOffset dx="4.0" dy="4.0" in="blurOut2" result="blurOut3"/><feBlend in="SourceGraphic" in2="blurOut3" mode="normal"/></filter></defs><g><!--class PlainEditorAdminBean--><a href="PlainEditorAdminBean.html" target="_top" xlink:actuate="onRequest" xlink:show="new" xlink:title="PlainEditorAdminBean.html" xlink:type="simple"><rect fill="#FEFECE" filter="url(#fvl03yulqobam)" height="186.3594" id="PlainEditorAdminBean" style="stroke: #A80036; stroke-width: 1.5;" width="163" x="6" y="8"/><ellipse cx="24.15" cy="24" fill="#ADD1B2" rx="11" ry="11" style="stroke: #A80036; stroke-width: 1.0;"/><path d="M26.9156,19.875 Q27.0719,19.6563 27.2594,19.5469 Q27.4469,19.4375 27.6656,19.4375 Q28.0406,19.4375 28.275,19.6953 Q28.5094,19.9531 28.5094,20.5625 L28.5094,22.0156 Q28.5094,22.625 28.275,22.8906 Q28.0406,23.1563 27.6656,23.1563 Q27.3219,23.1563 27.1188,22.9531 Q26.9156,22.7656 26.8063,22.25 Q26.7594,21.8906 26.5719,21.7031 Q26.2438,21.3281 25.6344,21.1094 Q25.025,20.8906 24.4,20.8906 Q23.6344,20.8906 23.0016,21.2188 Q22.3688,21.5469 21.8766,22.2969 Q21.3844,23.0469 21.3844,24.0781 L21.3844,25.1719 Q21.3844,26.4063 22.275,27.2266 Q23.1656,28.0469 24.7594,28.0469 Q25.6969,28.0469 26.3531,27.7969 Q26.7438,27.6406 27.1656,27.2031 Q27.4313,26.9375 27.5797,26.8594 Q27.7281,26.7813 27.9313,26.7813 Q28.2594,26.7813 28.5172,27.0391 Q28.775,27.2969 28.775,27.6406 Q28.775,27.9844 28.4313,28.3906 Q27.9313,28.9688 27.1344,29.2969 Q26.0563,29.75 24.7594,29.75 Q23.2438,29.75 22.0406,29.125 Q21.0563,28.625 20.3688,27.5547 Q19.6813,26.4844 19.6813,25.2031 L19.6813,24.0469 Q19.6813,22.7188 20.2984,21.5703 Q20.9156,20.4219 22.0094,19.8047 Q23.1031,19.1875 24.3375,19.1875 Q25.0719,19.1875 25.7203,19.3516 Q26.3688,19.5156 26.9156,19.875 Z "/><text fill="#000000" font-family="sans-serif" font-size="12" lengthAdjust="spacingAndGlyphs" textLength="124" x="38.85" y="28.9102">PlainEditorAdminBean</text><line style="stroke: #A80036; stroke-width: 1.5;" x1="7" x2="168" y1="40" y2="40"/><line style="stroke: #A80036; stroke-width: 1.5;" x1="7" x2="168" y1="48" y2="48"/><ellipse cx="17" cy="60.418" fill="#84BE84" rx="3" ry="3" style="stroke: #038048; stroke-width: 1.0;"/><text fill="#000000" font-family="sans-serif" font-size="11" lengthAdjust="spacingAndGlyphs" textLength="127" x="26" y="63.4189">doGet(WikiContext): String</text><ellipse cx="17" cy="74.2539" fill="#84BE84" rx="3" ry="3" style="stroke: #038048; stroke-width: 1.0;"/><text fill="#000000" font-family="sans-serif" font-size="11" lengthAdjust="spacingAndGlyphs" textLength="131" x="26" y="77.2549">doPost(WikiContext): String</text><ellipse cx="17" cy="88.0898" fill="#84BE84" rx="3" ry="3" style="stroke: #038048; stroke-width: 1.0;"/><text fill="#000000" font-family="sans-serif" font-size="11" lengthAdjust="spacingAndGlyphs" textLength="76" x="26" y="91.0908">getTitle(): String</text><ellipse cx="17" cy="101.9258" fill="#84BE84" rx="3" ry="3" style="stroke: #038048; stroke-width: 1.0;"/><text fill="#000000" font-family="sans-serif" font-size="11" lengthAdjust="spacingAndGlyphs" textLength="64" x="26" y="104.9268">getType(): int</text><ellipse cx="17" cy="115.7617" fill="#84BE84" rx="3" ry="3" style="stroke: #038048; stroke-width: 1.0;"/><text fill="#000000" font-family="sans-serif" font-size="11" lengthAdjust="spacingAndGlyphs" textLength="98" x="26" y="118.7627">isEnabled(): boolean</text><ellipse cx="17" cy="129.5977" fill="#84BE84" rx="3" ry="3" style="stroke: #038048; stroke-width: 1.0;"/><text fill="#000000" font-family="sans-serif" font-size="11" lengthAdjust="spacingAndGlyphs" textLength="65" x="26" y="132.5986">getId(): String</text><ellipse cx="17" cy="143.4336" fill="#84BE84" rx="3" ry="3" style="stroke: #038048; stroke-width: 1.0;"/><text fill="#000000" font-family="sans-serif" font-size="11" lengthAdjust="spacingAndGlyphs" textLength="109" x="26" y="146.4346">getChecked(): boolean</text><ellipse cx="17" cy="157.2695" fill="#84BE84" rx="3" ry="3" style="stroke: #038048; stroke-width: 1.0;"/><text fill="#000000" font-family="sans-serif" font-size="11" lengthAdjust="spacingAndGlyphs" textLength="137" x="26" y="160.2705">getAttributeNames(): String[]</text><ellipse cx="17" cy="171.1055" fill="#84BE84" rx="3" ry="3" style="stroke: #038048; stroke-width: 1.0;"/><text fill="#000000" font-family="sans-serif" font-size="11" lengthAdjust="spacingAndGlyphs" textLength="131" x="26" y="174.1064">getMethodNames(): String[]</text><ellipse cx="17" cy="184.9414" fill="#84BE84" rx="3" ry="3" style="stroke: #038048; stroke-width: 1.0;"/><text fill="#000000" font-family="sans-serif" font-size="11" lengthAdjust="spacingAndGlyphs" textLength="122" x="26" y="187.9424">initialize(WikiEngine): void</text></a><text fill="#888888" font-family="sans-serif" font-size="10" lengthAdjust="spacingAndGlyphs" textLength="184" x="1.5" y="214.3809">UMLDoclet 1.1.4, PlantUML 1.2019.05</text><!--
@startuml

    class PlainEditorAdminBean [[PlainEditorAdminBean.html]] {
        +doGet(WikiContext): String
        +doPost(WikiContext): String
        +getTitle(): String
        +getType(): int
        +isEnabled(): boolean
        +getId(): String
        +getChecked(): boolean
        +getAttributeNames(): String[]
        +getMethodNames(): String[]
        +initialize(WikiEngine): void
    }


    center footer UMLDoclet 1.1.4, PlantUML 1.2019.05
@enduml

PlantUML version 1.2019.05(Sat Apr 20 18:45:36 CEST 2019)
(APACHE source distribution)
Java Runtime: OpenJDK Runtime Environment
JVM: OpenJDK 64-Bit Server VM
Java Version: 1.8.0_212-b03
Operating System: Windows 10
OS Version: 10.0
Default Encoding: Cp1252
Language: es
Country: ES
--></g></svg>