<?xml version="1.0" encoding="UTF-8" standalone="no"?><svg xmlns="http://www.w3.org/2000/svg" xmlns:xlink="http://www.w3.org/1999/xlink" contentScriptType="application/ecmascript" contentStyleType="text/css" height="812px" preserveAspectRatio="none" style="width:881px;height:812px;" version="1.1" viewBox="0 0 881 812" width="881px" zoomAndPan="magnify"><defs><filter height="300%" id="f6i8wa15njw1d" width="300%" x="-1" y="-1"><feGaussianBlur result="blurOut" stdDeviation="2.0"/><feColorMatrix in="blurOut" result="blurOut2" type="matrix" values="0 0 0 0 0 0 0 0 0 0 0 0 0 0 0 0 0 0 .4 0"/><feOffset dx="4.0" dy="4.0" in="blurOut2" result="blurOut3"/><feBlend in="SourceGraphic" in2="blurOut3" mode="normal"/></filter></defs><g><!--MD5=[4614dff1e4f4b4dfd6c534ad3b15c1c6]
cluster org.apache.wiki.xmlrpc--><polygon fill="#FFFFFF" filter="url(#f6i8wa15njw1d)" points="16,114,205,114,212,136.2969,859,136.2969,859,784,16,784,16,114" style="stroke: #000000; stroke-width: 1.5;"/><line style="stroke: #000000; stroke-width: 1.5;" x1="16" x2="212" y1="136.2969" y2="136.2969"/><text fill="#000000" font-family="sans-serif" font-size="14" font-weight="bold" lengthAdjust="spacingAndGlyphs" textLength="183" x="20" y="128.9951">org.apache.wiki.xmlrpc</text><!--MD5=[737c6b32201ecf86b9d7c6a8bb692317]
cluster javax.servlet.http--><polygon fill="#FFFFFF" filter="url(#f6i8wa15njw1d)" points="163,6,306,6,313,28.2969,316,28.2969,316,89,163,89,163,6" style="stroke: #000000; stroke-width: 1.5;"/><line style="stroke: #000000; stroke-width: 1.5;" x1="163" x2="313" y1="28.2969" y2="28.2969"/><text fill="#000000" font-family="sans-serif" font-size="14" font-weight="bold" lengthAdjust="spacingAndGlyphs" textLength="137" x="167" y="20.9951">javax.servlet.http</text><!--MD5=[f602c17365d4897dbaeea06cc6e42166]
class org.apache.wiki.xmlrpc.RPCHandler--><a href="RPCHandler.html" target="_top" title="RPCHandler.html" xlink:actuate="onRequest" xlink:href="RPCHandler.html" xlink:show="new" xlink:title="RPCHandler.html" xlink:type="simple"><rect codeLine="3" fill="#FEFECE" filter="url(#f6i8wa15njw1d)" height="188.8516" id="org.apache.wiki.xmlrpc.RPCHandler" style="stroke: #A80036; stroke-width: 1.5;" width="381" x="23.5" y="587"/><ellipse cx="173.25" cy="603" fill="#ADD1B2" rx="11" ry="11" style="stroke: #A80036; stroke-width: 1.0;"/><path d="M176.2188,608.6406 Q175.6406,608.9375 175,609.0781 Q174.3594,609.2344 173.6563,609.2344 Q171.1563,609.2344 169.8281,607.5938 Q168.5156,605.9375 168.5156,602.8125 Q168.5156,599.6875 169.8281,598.0313 Q171.1563,596.375 173.6563,596.375 Q174.3594,596.375 175,596.5313 Q175.6563,596.6875 176.2188,596.9844 L176.2188,599.7031 Q175.5938,599.125 175,598.8594 Q174.4063,598.5781 173.7813,598.5781 Q172.4375,598.5781 171.75,599.6563 Q171.0625,600.7188 171.0625,602.8125 Q171.0625,604.9063 171.75,605.9844 Q172.4375,607.0469 173.7813,607.0469 Q174.4063,607.0469 175,606.7813 Q175.5938,606.5 176.2188,605.9219 L176.2188,608.6406 Z "/><text fill="#000000" font-family="sans-serif" font-size="12" lengthAdjust="spacingAndGlyphs" textLength="73" x="193.75" y="607.1543">RPCHandler</text><line style="stroke: #A80036; stroke-width: 1.5;" x1="24.5" x2="403.5" y1="619" y2="619"/><line style="stroke: #A80036; stroke-width: 1.5;" x1="24.5" x2="403.5" y1="627" y2="627"/><ellipse cx="34.5" cy="638" fill="#84BE84" rx="3" ry="3" style="stroke: #038048; stroke-width: 1.0;"/><text fill="#000000" font-family="sans-serif" font-size="11" lengthAdjust="spacingAndGlyphs" textLength="162" x="43.5" y="641.2104">getApplicationName(): String</text><ellipse cx="34.5" cy="650.8047" fill="#84BE84" rx="3" ry="3" style="stroke: #038048; stroke-width: 1.0;"/><text fill="#000000" font-family="sans-serif" font-size="11" lengthAdjust="spacingAndGlyphs" textLength="170" x="43.5" y="654.0151">getAllPages(): Vector&lt;String&gt;</text><polygon fill="#FFFF44" points="34.5,658.6094,38.5,662.6094,34.5,666.6094,30.5,662.6094" style="stroke: #B38D22; stroke-width: 1.0;"/><text fill="#000000" font-family="sans-serif" font-size="11" lengthAdjust="spacingAndGlyphs" textLength="287" x="43.5" y="666.8198">encodeWikiPage(Page): Hashtable&lt;String, Object&gt;</text><ellipse cx="34.5" cy="676.4141" fill="#84BE84" rx="3" ry="3" style="stroke: #038048; stroke-width: 1.0;"/><text fill="#000000" font-family="sans-serif" font-size="11" lengthAdjust="spacingAndGlyphs" textLength="355" x="43.5" y="679.6245">getRecentChanges(Date): Vector&lt;Hashtable&lt;String, Object&gt;&gt;</text><ellipse cx="34.5" cy="689.2188" fill="#84BE84" rx="3" ry="3" style="stroke: #038048; stroke-width: 1.0;"/><text fill="#000000" font-family="sans-serif" font-size="11" lengthAdjust="spacingAndGlyphs" textLength="174" x="43.5" y="692.4292">getPageInfo(String): Hashtable</text><ellipse cx="34.5" cy="702.0234" fill="#84BE84" rx="3" ry="3" style="stroke: #038048; stroke-width: 1.0;"/><text fill="#000000" font-family="sans-serif" font-size="11" lengthAdjust="spacingAndGlyphs" textLength="239" x="43.5" y="705.2339">getPageInfoVersion(String, int): Hashtable</text><ellipse cx="34.5" cy="714.8281" fill="#84BE84" rx="3" ry="3" style="stroke: #038048; stroke-width: 1.0;"/><text fill="#000000" font-family="sans-serif" font-size="11" lengthAdjust="spacingAndGlyphs" textLength="128" x="43.5" y="718.0386">getPage(String): byte[]</text><ellipse cx="34.5" cy="727.6328" fill="#84BE84" rx="3" ry="3" style="stroke: #038048; stroke-width: 1.0;"/><text fill="#000000" font-family="sans-serif" font-size="11" lengthAdjust="spacingAndGlyphs" textLength="193" x="43.5" y="730.8433">getPageVersion(String, int): byte[]</text><ellipse cx="34.5" cy="740.4375" fill="#84BE84" rx="3" ry="3" style="stroke: #038048; stroke-width: 1.0;"/><text fill="#000000" font-family="sans-serif" font-size="11" lengthAdjust="spacingAndGlyphs" textLength="158" x="43.5" y="743.6479">getPageHTML(String): byte[]</text><ellipse cx="34.5" cy="753.2422" fill="#84BE84" rx="3" ry="3" style="stroke: #038048; stroke-width: 1.0;"/><text fill="#000000" font-family="sans-serif" font-size="11" lengthAdjust="spacingAndGlyphs" textLength="223" x="43.5" y="756.4526">getPageHTMLVersion(String, int): byte[]</text><ellipse cx="34.5" cy="766.0469" fill="#84BE84" rx="3" ry="3" style="stroke: #038048; stroke-width: 1.0;"/><text fill="#000000" font-family="sans-serif" font-size="11" lengthAdjust="spacingAndGlyphs" textLength="301" x="43.5" y="769.2573">listLinks(String): Vector&lt;Hashtable&lt;String, String&gt;&gt;</text></a><!--MD5=[8483cdb6557c85c4e71bb46d40d147dd]
class org.apache.wiki.xmlrpc.WikiRPCHandler--><a href="WikiRPCHandler.html" target="_top" title="WikiRPCHandler.html" xlink:actuate="onRequest" xlink:href="WikiRPCHandler.html" xlink:show="new" xlink:title="WikiRPCHandler.html" xlink:type="simple"><rect codeLine="17" fill="#FEFECE" filter="url(#f6i8wa15njw1d)" height="60.8047" id="org.apache.wiki.xmlrpc.WikiRPCHandler" style="stroke: #A80036; stroke-width: 1.5;" width="156" x="467" y="166.5"/><ellipse cx="494.15" cy="182.5" fill="#B4A7E5" rx="11" ry="11" style="stroke: #A80036; stroke-width: 1.0;"/><path d="M490.0719,178.2656 L490.0719,176.1094 L497.4625,176.1094 L497.4625,178.2656 L494.9938,178.2656 L494.9938,186.3438 L497.4625,186.3438 L497.4625,188.5 L490.0719,188.5 L490.0719,186.3438 L492.5406,186.3438 L492.5406,178.2656 L490.0719,178.2656 Z "/><text fill="#000000" font-family="sans-serif" font-size="12" font-style="italic" lengthAdjust="spacingAndGlyphs" textLength="97" x="510.85" y="186.6543">WikiRPCHandler</text><line style="stroke: #A80036; stroke-width: 1.5;" x1="468" x2="622" y1="198.5" y2="198.5"/><line style="stroke: #A80036; stroke-width: 1.5;" x1="468" x2="622" y1="206.5" y2="206.5"/><ellipse cx="478" cy="217.5" fill="#84BE84" rx="3" ry="3" style="stroke: #038048; stroke-width: 1.0;"/><text fill="#000000" font-family="sans-serif" font-size="11" font-style="italic" lengthAdjust="spacingAndGlyphs" textLength="130" x="487" y="220.7104">initialize(Context): void</text></a><!--MD5=[be336d43599d60bf28e1a06d558b5147]
class org.apache.wiki.xmlrpc.AbstractRPCHandler--><a href="AbstractRPCHandler.html" target="_top" title="AbstractRPCHandler.html" xlink:actuate="onRequest" xlink:href="AbstractRPCHandler.html" xlink:show="new" xlink:title="AbstractRPCHandler.html" xlink:type="simple"><rect codeLine="21" fill="#FEFECE" filter="url(#f6i8wa15njw1d)" height="214.4609" id="org.apache.wiki.xmlrpc.AbstractRPCHandler" style="stroke: #A80036; stroke-width: 1.5;" width="225" x="24.5" y="313"/><ellipse cx="70.75" cy="329" fill="#A9DCDF" rx="11" ry="11" style="stroke: #A80036; stroke-width: 1.0;"/><path d="M70.8594,324.3438 L69.7031,329.4219 L72.0313,329.4219 L70.8594,324.3438 Z M69.375,322.1094 L72.3594,322.1094 L75.7188,334.5 L73.2656,334.5 L72.5,331.4375 L69.2188,331.4375 L68.4688,334.5 L66.0313,334.5 L69.375,322.1094 Z "/><text fill="#000000" font-family="sans-serif" font-size="12" font-style="italic" lengthAdjust="spacingAndGlyphs" textLength="124" x="91.25" y="333.1543">AbstractRPCHandler</text><line style="stroke: #A80036; stroke-width: 1.5;" x1="25.5" x2="248.5" y1="345" y2="345"/><ellipse cx="35.5" cy="356" fill="none" rx="3" ry="3" style="stroke: #038048; stroke-width: 1.0;"/><text fill="#000000" font-family="sans-serif" font-size="11" lengthAdjust="spacingAndGlyphs" text-decoration="underline" textLength="96" x="44.5" y="359.2104">ERR_NOPAGE: int</text><ellipse cx="35.5" cy="368.8047" fill="none" rx="3" ry="3" style="stroke: #038048; stroke-width: 1.0;"/><text fill="#000000" font-family="sans-serif" font-size="11" lengthAdjust="spacingAndGlyphs" text-decoration="underline" textLength="135" x="44.5" y="372.0151">ERR_NOPERMISSION: int</text><ellipse cx="35.5" cy="381.6094" fill="none" rx="3" ry="3" style="stroke: #038048; stroke-width: 1.0;"/><text fill="#000000" font-family="sans-serif" font-size="11" lengthAdjust="spacingAndGlyphs" text-decoration="underline" textLength="108" x="44.5" y="384.8198">LINK_LOCAL: String</text><ellipse cx="35.5" cy="394.4141" fill="none" rx="3" ry="3" style="stroke: #038048; stroke-width: 1.0;"/><text fill="#000000" font-family="sans-serif" font-size="11" lengthAdjust="spacingAndGlyphs" text-decoration="underline" textLength="128" x="44.5" y="397.6245">LINK_EXTERNAL: String</text><ellipse cx="35.5" cy="407.2188" fill="none" rx="3" ry="3" style="stroke: #038048; stroke-width: 1.0;"/><text fill="#000000" font-family="sans-serif" font-size="11" lengthAdjust="spacingAndGlyphs" text-decoration="underline" textLength="107" x="44.5" y="410.4292">LINK_INLINE: String</text><polygon fill="none" points="35.5,415.0234,39.5,419.0234,35.5,423.0234,31.5,419.0234" style="stroke: #B38D22; stroke-width: 1.0;"/><text fill="#000000" font-family="sans-serif" font-size="11" lengthAdjust="spacingAndGlyphs" textLength="101" x="44.5" y="423.2339">m_engine: Engine</text><polygon fill="none" points="35.5,427.8281,39.5,431.8281,35.5,435.8281,31.5,431.8281" style="stroke: #B38D22; stroke-width: 1.0;"/><text fill="#000000" font-family="sans-serif" font-size="11" lengthAdjust="spacingAndGlyphs" textLength="109" x="44.5" y="436.0386">m_context: Context</text><ellipse cx="35.5" cy="445.6328" fill="none" rx="3" ry="3" style="stroke: #038048; stroke-width: 1.0;"/><text fill="#000000" font-family="sans-serif" font-size="11" lengthAdjust="spacingAndGlyphs" text-decoration="underline" textLength="99" x="44.5" y="448.8433">RPC_VERSION: int</text><line style="stroke: #A80036; stroke-width: 1.5;" x1="25.5" x2="248.5" y1="455.4375" y2="455.4375"/><ellipse cx="35.5" cy="466.4375" fill="#84BE84" rx="3" ry="3" style="stroke: #038048; stroke-width: 1.0;"/><text fill="#000000" font-family="sans-serif" font-size="11" lengthAdjust="spacingAndGlyphs" textLength="127" x="44.5" y="469.6479">initialize(Context): void</text><polygon fill="#FFFF44" points="35.5,474.2422,39.5,478.2422,35.5,482.2422,31.5,478.2422" style="stroke: #B38D22; stroke-width: 1.0;"/><text fill="#000000" font-family="sans-serif" font-size="11" font-style="italic" lengthAdjust="spacingAndGlyphs" textLength="192" x="44.5" y="482.4526">encodeWikiPage(Page): Hashtable</text><ellipse cx="35.5" cy="492.0469" fill="#84BE84" rx="3" ry="3" style="stroke: #038048; stroke-width: 1.0;"/><text fill="#000000" font-family="sans-serif" font-size="11" lengthAdjust="spacingAndGlyphs" textLength="184" x="44.5" y="495.2573">getRecentChanges(Date): Vector</text><polygon fill="#FFFF44" points="35.5,499.8516,39.5,503.8516,35.5,507.8516,31.5,503.8516" style="stroke: #B38D22; stroke-width: 1.0;"/><text fill="#000000" font-family="sans-serif" font-size="11" lengthAdjust="spacingAndGlyphs" textLength="199" x="44.5" y="508.062">checkPermission(Permission): void</text><ellipse cx="35.5" cy="517.6563" fill="#84BE84" rx="3" ry="3" style="stroke: #038048; stroke-width: 1.0;"/><text fill="#000000" font-family="sans-serif" font-size="11" lengthAdjust="spacingAndGlyphs" textLength="172" x="44.5" y="520.8667">getRPCVersionSupported(): int</text></a><!--MD5=[5d9f0da3d510941b79f67349759f568f]
class org.apache.wiki.xmlrpc.RPCServlet--><a href="RPCServlet.html" target="_top" title="RPCServlet.html" xlink:actuate="onRequest" xlink:href="RPCServlet.html" xlink:show="new" xlink:title="RPCServlet.html" xlink:type="simple"><rect codeLine="37" fill="#FEFECE" filter="url(#f6i8wa15njw1d)" height="112.0234" id="org.apache.wiki.xmlrpc.RPCServlet" style="stroke: #A80036; stroke-width: 1.5;" width="340" x="69" y="141"/><ellipse cx="201.25" cy="157" fill="#ADD1B2" rx="11" ry="11" style="stroke: #A80036; stroke-width: 1.0;"/><path d="M204.2188,162.6406 Q203.6406,162.9375 203,163.0781 Q202.3594,163.2344 201.6563,163.2344 Q199.1563,163.2344 197.8281,161.5938 Q196.5156,159.9375 196.5156,156.8125 Q196.5156,153.6875 197.8281,152.0313 Q199.1563,150.375 201.6563,150.375 Q202.3594,150.375 203,150.5313 Q203.6563,150.6875 204.2188,150.9844 L204.2188,153.7031 Q203.5938,153.125 203,152.8594 Q202.4063,152.5781 201.7813,152.5781 Q200.4375,152.5781 199.75,153.6563 Q199.0625,154.7188 199.0625,156.8125 Q199.0625,158.9063 199.75,159.9844 Q200.4375,161.0469 201.7813,161.0469 Q202.4063,161.0469 203,160.7813 Q203.5938,160.5 204.2188,159.9219 L204.2188,162.6406 Z "/><text fill="#000000" font-family="sans-serif" font-size="12" lengthAdjust="spacingAndGlyphs" textLength="67" x="221.75" y="161.1543">RPCServlet</text><line style="stroke: #A80036; stroke-width: 1.5;" x1="70" x2="408" y1="173" y2="173"/><ellipse cx="80" cy="184" fill="none" rx="3" ry="3" style="stroke: #038048; stroke-width: 1.0;"/><text fill="#000000" font-family="sans-serif" font-size="11" lengthAdjust="spacingAndGlyphs" text-decoration="underline" textLength="129" x="89" y="187.2104">XMLRPC_PREFIX: String</text><line style="stroke: #A80036; stroke-width: 1.5;" x1="70" x2="408" y1="193.8047" y2="193.8047"/><ellipse cx="80" cy="204.8047" fill="#84BE84" rx="3" ry="3" style="stroke: #038048; stroke-width: 1.0;"/><text fill="#000000" font-family="sans-serif" font-size="11" lengthAdjust="spacingAndGlyphs" textLength="176" x="89" y="208.0151">initHandler(String, String): void</text><ellipse cx="80" cy="217.6094" fill="#84BE84" rx="3" ry="3" style="stroke: #038048; stroke-width: 1.0;"/><text fill="#000000" font-family="sans-serif" font-size="11" lengthAdjust="spacingAndGlyphs" textLength="132" x="89" y="220.8198">init(ServletConfig): void</text><ellipse cx="80" cy="230.4141" fill="#84BE84" rx="3" ry="3" style="stroke: #038048; stroke-width: 1.0;"/><text fill="#000000" font-family="sans-serif" font-size="11" lengthAdjust="spacingAndGlyphs" textLength="314" x="89" y="233.6245">doPost(HttpServletRequest, HttpServletResponse): void</text><ellipse cx="80" cy="243.2188" fill="#84BE84" rx="3" ry="3" style="stroke: #038048; stroke-width: 1.0;"/><text fill="#000000" font-family="sans-serif" font-size="11" lengthAdjust="spacingAndGlyphs" textLength="309" x="89" y="246.4292">doGet(HttpServletRequest, HttpServletResponse): void</text></a><!--MD5=[735868dfc688089cfa93cbe1a7ce0e43]
class org.apache.wiki.xmlrpc.MetaWeblogHandler--><a href="MetaWeblogHandler.html" target="_top" title="MetaWeblogHandler.html" xlink:actuate="onRequest" xlink:href="MetaWeblogHandler.html" xlink:show="new" xlink:title="MetaWeblogHandler.html" xlink:type="simple"><rect codeLine="45" fill="#FEFECE" filter="url(#f6i8wa15njw1d)" height="112.0234" id="org.apache.wiki.xmlrpc.MetaWeblogHandler" style="stroke: #A80036; stroke-width: 1.5;" width="566" x="285" y="364"/><ellipse cx="500.75" cy="380" fill="#ADD1B2" rx="11" ry="11" style="stroke: #A80036; stroke-width: 1.0;"/><path d="M503.7188,385.6406 Q503.1406,385.9375 502.5,386.0781 Q501.8594,386.2344 501.1563,386.2344 Q498.6563,386.2344 497.3281,384.5938 Q496.0156,382.9375 496.0156,379.8125 Q496.0156,376.6875 497.3281,375.0313 Q498.6563,373.375 501.1563,373.375 Q501.8594,373.375 502.5,373.5313 Q503.1563,373.6875 503.7188,373.9844 L503.7188,376.7031 Q503.0938,376.125 502.5,375.8594 Q501.9063,375.5781 501.2813,375.5781 Q499.9375,375.5781 499.25,376.6563 Q498.5625,377.7188 498.5625,379.8125 Q498.5625,381.9063 499.25,382.9844 Q499.9375,384.0469 501.2813,384.0469 Q501.9063,384.0469 502.5,383.7813 Q503.0938,383.5 503.7188,382.9219 L503.7188,385.6406 Z "/><text fill="#000000" font-family="sans-serif" font-size="12" lengthAdjust="spacingAndGlyphs" textLength="126" x="521.25" y="384.1543">MetaWeblogHandler</text><line style="stroke: #A80036; stroke-width: 1.5;" x1="286" x2="850" y1="396" y2="396"/><line style="stroke: #A80036; stroke-width: 1.5;" x1="286" x2="850" y1="404" y2="404"/><ellipse cx="296" cy="415" fill="#84BE84" rx="3" ry="3" style="stroke: #038048; stroke-width: 1.0;"/><text fill="#000000" font-family="sans-serif" font-size="11" lengthAdjust="spacingAndGlyphs" textLength="127" x="305" y="418.2104">initialize(Context): void</text><ellipse cx="296" cy="427.8047" fill="#84BE84" rx="3" ry="3" style="stroke: #038048; stroke-width: 1.0;"/><text fill="#000000" font-family="sans-serif" font-size="11" lengthAdjust="spacingAndGlyphs" textLength="369" x="305" y="431.0151">getCategories(String, String, String): Hashtable&lt;Object, Object&gt;</text><ellipse cx="296" cy="440.6094" fill="#84BE84" rx="3" ry="3" style="stroke: #038048; stroke-width: 1.0;"/><text fill="#000000" font-family="sans-serif" font-size="11" lengthAdjust="spacingAndGlyphs" textLength="301" x="305" y="443.8198">getRecentPosts(String, String, String, int): Hashtable</text><ellipse cx="296" cy="453.4141" fill="#84BE84" rx="3" ry="3" style="stroke: #038048; stroke-width: 1.0;"/><text fill="#000000" font-family="sans-serif" font-size="11" lengthAdjust="spacingAndGlyphs" textLength="430" x="305" y="456.6245">newPost(String, String, String, Hashtable&lt;String, Object&gt;, boolean): String</text><ellipse cx="296" cy="466.2188" fill="#84BE84" rx="3" ry="3" style="stroke: #038048; stroke-width: 1.0;"/><text fill="#000000" font-family="sans-serif" font-size="11" lengthAdjust="spacingAndGlyphs" textLength="540" x="305" y="469.4292">newMediaObject(String, String, String, Hashtable&lt;String, Object&gt;): Hashtable&lt;String, Object&gt;</text></a><!--MD5=[09eef79e6deadbae15e7067be74e222e]
class org.apache.wiki.xmlrpc.RPCHandlerUTF8--><a href="RPCHandlerUTF8.html" target="_top" title="RPCHandlerUTF8.html" xlink:actuate="onRequest" xlink:href="RPCHandlerUTF8.html" xlink:show="new" xlink:title="RPCHandlerUTF8.html" xlink:type="simple"><rect codeLine="53" fill="#FEFECE" filter="url(#f6i8wa15njw1d)" height="188.8516" id="org.apache.wiki.xmlrpc.RPCHandlerUTF8" style="stroke: #A80036; stroke-width: 1.5;" width="381" x="439.5" y="587"/><ellipse cx="573.75" cy="603" fill="#ADD1B2" rx="11" ry="11" style="stroke: #A80036; stroke-width: 1.0;"/><path d="M576.7188,608.6406 Q576.1406,608.9375 575.5,609.0781 Q574.8594,609.2344 574.1563,609.2344 Q571.6563,609.2344 570.3281,607.5938 Q569.0156,605.9375 569.0156,602.8125 Q569.0156,599.6875 570.3281,598.0313 Q571.6563,596.375 574.1563,596.375 Q574.8594,596.375 575.5,596.5313 Q576.1563,596.6875 576.7188,596.9844 L576.7188,599.7031 Q576.0938,599.125 575.5,598.8594 Q574.9063,598.5781 574.2813,598.5781 Q572.9375,598.5781 572.25,599.6563 Q571.5625,600.7188 571.5625,602.8125 Q571.5625,604.9063 572.25,605.9844 Q572.9375,607.0469 574.2813,607.0469 Q574.9063,607.0469 575.5,606.7813 Q576.0938,606.5 576.7188,605.9219 L576.7188,608.6406 Z "/><text fill="#000000" font-family="sans-serif" font-size="12" lengthAdjust="spacingAndGlyphs" textLength="104" x="594.25" y="607.1543">RPCHandlerUTF8</text><line style="stroke: #A80036; stroke-width: 1.5;" x1="440.5" x2="819.5" y1="619" y2="619"/><line style="stroke: #A80036; stroke-width: 1.5;" x1="440.5" x2="819.5" y1="627" y2="627"/><ellipse cx="450.5" cy="638" fill="#84BE84" rx="3" ry="3" style="stroke: #038048; stroke-width: 1.0;"/><text fill="#000000" font-family="sans-serif" font-size="11" lengthAdjust="spacingAndGlyphs" textLength="162" x="459.5" y="641.2104">getApplicationName(): String</text><ellipse cx="450.5" cy="650.8047" fill="#84BE84" rx="3" ry="3" style="stroke: #038048; stroke-width: 1.0;"/><text fill="#000000" font-family="sans-serif" font-size="11" lengthAdjust="spacingAndGlyphs" textLength="170" x="459.5" y="654.0151">getAllPages(): Vector&lt;String&gt;</text><polygon fill="#FFFF44" points="450.5,658.6094,454.5,662.6094,450.5,666.6094,446.5,662.6094" style="stroke: #B38D22; stroke-width: 1.0;"/><text fill="#000000" font-family="sans-serif" font-size="11" lengthAdjust="spacingAndGlyphs" textLength="287" x="459.5" y="666.8198">encodeWikiPage(Page): Hashtable&lt;String, Object&gt;</text><ellipse cx="450.5" cy="676.4141" fill="#84BE84" rx="3" ry="3" style="stroke: #038048; stroke-width: 1.0;"/><text fill="#000000" font-family="sans-serif" font-size="11" lengthAdjust="spacingAndGlyphs" textLength="355" x="459.5" y="679.6245">getRecentChanges(Date): Vector&lt;Hashtable&lt;String, Object&gt;&gt;</text><ellipse cx="450.5" cy="689.2188" fill="#84BE84" rx="3" ry="3" style="stroke: #038048; stroke-width: 1.0;"/><text fill="#000000" font-family="sans-serif" font-size="11" lengthAdjust="spacingAndGlyphs" textLength="270" x="459.5" y="692.4292">getPageInfo(String): Hashtable&lt;String, Object&gt;</text><ellipse cx="450.5" cy="702.0234" fill="#84BE84" rx="3" ry="3" style="stroke: #038048; stroke-width: 1.0;"/><text fill="#000000" font-family="sans-serif" font-size="11" lengthAdjust="spacingAndGlyphs" textLength="335" x="459.5" y="705.2339">getPageInfoVersion(String, int): Hashtable&lt;String, Object&gt;</text><ellipse cx="450.5" cy="714.8281" fill="#84BE84" rx="3" ry="3" style="stroke: #038048; stroke-width: 1.0;"/><text fill="#000000" font-family="sans-serif" font-size="11" lengthAdjust="spacingAndGlyphs" textLength="130" x="459.5" y="718.0386">getPage(String): String</text><ellipse cx="450.5" cy="727.6328" fill="#84BE84" rx="3" ry="3" style="stroke: #038048; stroke-width: 1.0;"/><text fill="#000000" font-family="sans-serif" font-size="11" lengthAdjust="spacingAndGlyphs" textLength="195" x="459.5" y="730.8433">getPageVersion(String, int): String</text><ellipse cx="450.5" cy="740.4375" fill="#84BE84" rx="3" ry="3" style="stroke: #038048; stroke-width: 1.0;"/><text fill="#000000" font-family="sans-serif" font-size="11" lengthAdjust="spacingAndGlyphs" textLength="160" x="459.5" y="743.6479">getPageHTML(String): String</text><ellipse cx="450.5" cy="753.2422" fill="#84BE84" rx="3" ry="3" style="stroke: #038048; stroke-width: 1.0;"/><text fill="#000000" font-family="sans-serif" font-size="11" lengthAdjust="spacingAndGlyphs" textLength="225" x="459.5" y="756.4526">getPageHTMLVersion(String, int): String</text><ellipse cx="450.5" cy="766.0469" fill="#84BE84" rx="3" ry="3" style="stroke: #038048; stroke-width: 1.0;"/><text fill="#000000" font-family="sans-serif" font-size="11" lengthAdjust="spacingAndGlyphs" textLength="301" x="459.5" y="769.2573">listLinks(String): Vector&lt;Hashtable&lt;String, String&gt;&gt;</text></a><!--MD5=[f416d4ad4711b5ddf00f6f9e1e57970b]
class javax.servlet.http.HttpServlet--><rect codeLine="75" fill="#FEFECE" filter="url(#f6i8wa15njw1d)" height="48" id="javax.servlet.http.HttpServlet" style="stroke: #A80036; stroke-width: 1.5;" width="102" x="188" y="33"/><ellipse cx="203" cy="49" fill="#A9DCDF" rx="11" ry="11" style="stroke: #A80036; stroke-width: 1.0;"/><path d="M203.1094,44.3438 L201.9531,49.4219 L204.2813,49.4219 L203.1094,44.3438 Z M201.625,42.1094 L204.6094,42.1094 L207.9688,54.5 L205.5156,54.5 L204.75,51.4375 L201.4688,51.4375 L200.7188,54.5 L198.2813,54.5 L201.625,42.1094 Z "/><text fill="#000000" font-family="sans-serif" font-size="12" font-style="italic" lengthAdjust="spacingAndGlyphs" textLength="70" x="217" y="53.1543">HttpServlet</text><line style="stroke: #A80036; stroke-width: 1.5;" x1="189" x2="289" y1="65" y2="65"/><line style="stroke: #A80036; stroke-width: 1.5;" x1="189" x2="289" y1="73" y2="73"/><!--MD5=[1a0e0b568de5065bace6d5e4f4db5df1]
reverse link org.apache.wiki.xmlrpc.AbstractRPCHandler to org.apache.wiki.xmlrpc.RPCHandler--><path codeLine="67" d="M174.3159,546.7286 C178.279,560.1877 182.2588,573.7037 186.0873,586.7054 " fill="none" id="org.apache.wiki.xmlrpc.AbstractRPCHandler-backto-org.apache.wiki.xmlrpc.RPCHandler" style="stroke: #A80036; stroke-width: 1.0;"/><polygon fill="none" points="167.4754,548.2794,168.541,527.1166,180.9053,544.3249,167.4754,548.2794" style="stroke: #A80036; stroke-width: 1.0;"/><!--MD5=[b36d3daa24fba8274812f72a8266ab2f]
reverse link org.apache.wiki.xmlrpc.WikiRPCHandler to org.apache.wiki.xmlrpc.AbstractRPCHandler--><path codeLine="68" d="M464.1696,236.0833 C451.4699,241.9204 438.4325,247.7386 426,253 C356.4416,282.4367 332.3682,275.1596 267,313 C261.1814,316.3683 255.359,319.995 249.5805,323.8065 " fill="none" id="org.apache.wiki.xmlrpc.WikiRPCHandler-backto-org.apache.wiki.xmlrpc.AbstractRPCHandler" style="stroke: #A80036; stroke-width: 1.0; stroke-dasharray: 7.0,7.0;"/><polygon fill="none" points="461.3392,229.6796,482.4246,227.5803,467.2505,242.3704,461.3392,229.6796" style="stroke: #A80036; stroke-width: 1.0;"/><!--MD5=[007a222e11438a251d83523cc3827b39]
reverse link javax.servlet.http.HttpServlet to org.apache.wiki.xmlrpc.RPCServlet--><path codeLine="69" d="M239,101.2115 C239,113.7476 239,127.5665 239,140.7138 " fill="none" id="javax.servlet.http.HttpServlet-backto-org.apache.wiki.xmlrpc.RPCServlet" style="stroke: #A80036; stroke-width: 1.0;"/><polygon fill="none" points="232.0001,101.0669,239,81.0669,246.0001,101.0668,232.0001,101.0669" style="stroke: #A80036; stroke-width: 1.0;"/><!--MD5=[af9ca9dde8add6c952741abb9e89cfd0]
reverse link org.apache.wiki.xmlrpc.WikiRPCHandler to org.apache.wiki.xmlrpc.MetaWeblogHandler--><path codeLine="70" d="M550.2498,247.8998 C553.8097,282.4163 558.5176,328.0615 562.1902,363.6703 " fill="none" id="org.apache.wiki.xmlrpc.WikiRPCHandler-backto-org.apache.wiki.xmlrpc.MetaWeblogHandler" style="stroke: #A80036; stroke-width: 1.0; stroke-dasharray: 7.0,7.0;"/><polygon fill="none" points="543.2387,248.1523,548.1498,227.5396,557.1649,246.7159,543.2387,248.1523" style="stroke: #A80036; stroke-width: 1.0;"/><!--MD5=[b324e02ec6675c1033fc7ebbd9b0ee4f]
reverse link org.apache.wiki.xmlrpc.AbstractRPCHandler to org.apache.wiki.xmlrpc.RPCHandlerUTF8--><path codeLine="71" d="M266.7279,526.8408 C266.8186,526.8939 266.9093,526.947 267,527 C330.7732,564.2797 353.9006,558.3773 422,587 C427.759,589.4205 433.5966,591.9009 439.4815,594.4247 " fill="none" id="org.apache.wiki.xmlrpc.AbstractRPCHandler-backto-org.apache.wiki.xmlrpc.RPCHandlerUTF8" style="stroke: #A80036; stroke-width: 1.0;"/><polygon fill="none" points="262.8565,532.6758,249.6161,516.1321,270.2834,520.8081,262.8565,532.6758" style="stroke: #A80036; stroke-width: 1.0;"/><text fill="#888888" font-family="sans-serif" font-size="10" lengthAdjust="spacingAndGlyphs" textLength="192" x="335.5" y="799.2822">UMLDoclet 2.0.12, PlantUML 1.2020.16</text><!--MD5=[1b4fefef6fff6e9b9d8cfd6f0a32d948]
@startuml
    namespace org.apache.wiki.xmlrpc {

        class RPCHandler [[RPCHandler.html]] {
            +getApplicationName(): String
            +getAllPages(): Vector<String>
            #encodeWikiPage(Page): Hashtable<String, Object>
            +getRecentChanges(Date): Vector<Hashtable<String, Object>>
            +getPageInfo(String): Hashtable
            +getPageInfoVersion(String, int): Hashtable
            +getPage(String): byte[]
            +getPageVersion(String, int): byte[]
            +getPageHTML(String): byte[]
            +getPageHTMLVersion(String, int): byte[]
            +listLinks(String): Vector<Hashtable<String, String>>
        }

        interface WikiRPCHandler [[WikiRPCHandler.html]] {
            {abstract} +initialize(Context): void
        }

        abstract class AbstractRPCHandler [[AbstractRPCHandler.html]] {
            {static} +ERR_NOPAGE: int
            {static} +ERR_NOPERMISSION: int
            {static} +LINK_LOCAL: String
            {static} +LINK_EXTERNAL: String
            {static} +LINK_INLINE: String
            #m_engine: Engine
            #m_context: Context
            {static} +RPC_VERSION: int
            +initialize(Context): void
            {abstract} #encodeWikiPage(Page): Hashtable
            +getRecentChanges(Date): Vector
            #checkPermission(Permission): void
            +getRPCVersionSupported(): int
        }

        class RPCServlet [[RPCServlet.html]] {
            {static} +XMLRPC_PREFIX: String
            +initHandler(String, String): void
            +init(ServletConfig): void
            +doPost(HttpServletRequest, HttpServletResponse): void
            +doGet(HttpServletRequest, HttpServletResponse): void
        }

        class MetaWeblogHandler [[MetaWeblogHandler.html]] {
            +initialize(Context): void
            +getCategories(String, String, String): Hashtable<Object, Object>
            +getRecentPosts(String, String, String, int): Hashtable
            +newPost(String, String, String, Hashtable<String, Object>, boolean): String
            +newMediaObject(String, String, String, Hashtable<String, Object>): Hashtable<String, Object>
        }

        class RPCHandlerUTF8 [[RPCHandlerUTF8.html]] {
            +getApplicationName(): String
            +getAllPages(): Vector<String>
            #encodeWikiPage(Page): Hashtable<String, Object>
            +getRecentChanges(Date): Vector<Hashtable<String, Object>>
            +getPageInfo(String): Hashtable<String, Object>
            +getPageInfoVersion(String, int): Hashtable<String, Object>
            +getPage(String): String
            +getPageVersion(String, int): String
            +getPageHTML(String): String
            +getPageHTMLVersion(String, int): String
            +listLinks(String): Vector<Hashtable<String, String>>
        }

        AbstractRPCHandler <|- - RPCHandler
        WikiRPCHandler <|.. AbstractRPCHandler
        javax.servlet.http.HttpServlet <|- - RPCServlet
        WikiRPCHandler <|.. MetaWeblogHandler
        AbstractRPCHandler <|- - RPCHandlerUTF8
    }

    namespace javax.servlet.http {
        abstract class HttpServlet {
        }
    }

    center footer UMLDoclet 2.0.12, PlantUML 1.2020.16
@enduml

PlantUML version 1.2020.16(Sun Aug 23 20:20:43 UTC 2020)
(APACHE source distribution)
Java Runtime: Java(TM) SE Runtime Environment
JVM: Java HotSpot(TM) 64-Bit Server VM
Default Encoding: ISO-8859-1
Language: en
Country: US
--></g></svg>