<?xml version="1.0" encoding="UTF-8" standalone="no"?><svg xmlns="http://www.w3.org/2000/svg" xmlns:xlink="http://www.w3.org/1999/xlink" contentScriptType="application/ecmascript" contentStyleType="text/css" height="343px" preserveAspectRatio="none" style="width:404px;height:343px;background:#FFFFFF;" version="1.1" viewBox="0 0 404 343" width="404px" zoomAndPan="magnify"><defs><filter height="300%" id="fe9ap4xsswap8" width="300%" x="-1" y="-1"><feGaussianBlur result="blurOut" stdDeviation="2.0"/><feColorMatrix in="blurOut" result="blurOut2" type="matrix" values="0 0 0 0 0 0 0 0 0 0 0 0 0 0 0 0 0 0 .4 0"/><feOffset dx="4.0" dy="4.0" in="blurOut2" result="blurOut3"/><feBlend in="SourceGraphic" in2="blurOut3" mode="normal"/></filter></defs><g><!--MD5=[09eef79e6deadbae15e7067be74e222e]
class org.apache.wiki.xmlrpc.RPCHandlerUTF8--><a href="RPCHandlerUTF8.html" target="_top" title="RPCHandlerUTF8.html" xlink:actuate="onRequest" xlink:href="RPCHandlerUTF8.html" xlink:show="new" xlink:title="RPCHandlerUTF8.html" xlink:type="simple"><rect codeLine="5" fill="#FEFECE" filter="url(#fe9ap4xsswap8)" height="186.7891" id="org.apache.wiki.xmlrpc.RPCHandlerUTF8" style="stroke:#A80036;stroke-width:1.5;" width="381" x="9" y="126"/><ellipse cx="136.25" cy="144.9688" fill="#ADD1B2" rx="11" ry="11" style="stroke:#A80036;stroke-width:1.0;"/><path d="M139.2188,150.6094 Q138.6406,150.9063 138,151.0469 Q137.3594,151.2031 136.6563,151.2031 Q134.1563,151.2031 132.8281,149.5625 Q131.5156,147.9063 131.5156,144.7813 Q131.5156,141.6563 132.8281,140 Q134.1563,138.3438 136.6563,138.3438 Q137.3594,138.3438 138,138.5 Q138.6563,138.6563 139.2188,138.9531 L139.2188,141.6719 Q138.5938,141.0938 138,140.8281 Q137.4063,140.5469 136.7813,140.5469 Q135.4375,140.5469 134.75,141.625 Q134.0625,142.6875 134.0625,144.7813 Q134.0625,146.875 134.75,147.9531 Q135.4375,149.0156 136.7813,149.0156 Q137.4063,149.0156 138,148.75 Q138.5938,148.4688 139.2188,147.8906 L139.2188,150.6094 Z " fill="#000000"/><text fill="#000000" font-family="sans-serif" font-size="14" lengthAdjust="spacing" textLength="118" x="156.75" y="143.9951">RPCHandlerUTF8</text><text fill="#000000" font-family="sans-serif" font-size="10" lengthAdjust="spacing" textLength="110" x="160.75" y="156.5791">org.apache.wiki.xmlrpc</text><line style="stroke:#A80036;stroke-width:1.5;" x1="10" x2="389" y1="163.9375" y2="163.9375"/><ellipse cx="20" cy="174.9375" fill="#84BE84" rx="3" ry="3" style="stroke:#038048;stroke-width:1.0;"/><text fill="#000000" font-family="sans-serif" font-size="11" lengthAdjust="spacing" textLength="162" x="29" y="178.1479">getApplicationName(): String</text><ellipse cx="20" cy="187.7422" fill="#84BE84" rx="3" ry="3" style="stroke:#038048;stroke-width:1.0;"/><text fill="#000000" font-family="sans-serif" font-size="11" lengthAdjust="spacing" textLength="170" x="29" y="190.9526">getAllPages(): Vector&lt;String&gt;</text><polygon fill="#FFFF44" points="20,195.5469,24,199.5469,20,203.5469,16,199.5469" style="stroke:#B38D22;stroke-width:1.0;"/><text fill="#000000" font-family="sans-serif" font-size="11" lengthAdjust="spacing" textLength="287" x="29" y="203.7573">encodeWikiPage(Page): Hashtable&lt;String, Object&gt;</text><ellipse cx="20" cy="213.3516" fill="#84BE84" rx="3" ry="3" style="stroke:#038048;stroke-width:1.0;"/><text fill="#000000" font-family="sans-serif" font-size="11" lengthAdjust="spacing" textLength="355" x="29" y="216.562">getRecentChanges(Date): Vector&lt;Hashtable&lt;String, Object&gt;&gt;</text><ellipse cx="20" cy="226.1563" fill="#84BE84" rx="3" ry="3" style="stroke:#038048;stroke-width:1.0;"/><text fill="#000000" font-family="sans-serif" font-size="11" lengthAdjust="spacing" textLength="270" x="29" y="229.3667">getPageInfo(String): Hashtable&lt;String, Object&gt;</text><ellipse cx="20" cy="238.9609" fill="#84BE84" rx="3" ry="3" style="stroke:#038048;stroke-width:1.0;"/><text fill="#000000" font-family="sans-serif" font-size="11" lengthAdjust="spacing" textLength="335" x="29" y="242.1714">getPageInfoVersion(String, int): Hashtable&lt;String, Object&gt;</text><ellipse cx="20" cy="251.7656" fill="#84BE84" rx="3" ry="3" style="stroke:#038048;stroke-width:1.0;"/><text fill="#000000" font-family="sans-serif" font-size="11" lengthAdjust="spacing" textLength="130" x="29" y="254.9761">getPage(String): String</text><ellipse cx="20" cy="264.5703" fill="#84BE84" rx="3" ry="3" style="stroke:#038048;stroke-width:1.0;"/><text fill="#000000" font-family="sans-serif" font-size="11" lengthAdjust="spacing" textLength="195" x="29" y="267.7808">getPageVersion(String, int): String</text><ellipse cx="20" cy="277.375" fill="#84BE84" rx="3" ry="3" style="stroke:#038048;stroke-width:1.0;"/><text fill="#000000" font-family="sans-serif" font-size="11" lengthAdjust="spacing" textLength="160" x="29" y="280.5854">getPageHTML(String): String</text><ellipse cx="20" cy="290.1797" fill="#84BE84" rx="3" ry="3" style="stroke:#038048;stroke-width:1.0;"/><text fill="#000000" font-family="sans-serif" font-size="11" lengthAdjust="spacing" textLength="225" x="29" y="293.3901">getPageHTMLVersion(String, int): String</text><ellipse cx="20" cy="302.9844" fill="#84BE84" rx="3" ry="3" style="stroke:#038048;stroke-width:1.0;"/><text fill="#000000" font-family="sans-serif" font-size="11" lengthAdjust="spacing" textLength="301" x="29" y="306.1948">listLinks(String): Vector&lt;Hashtable&lt;String, String&gt;&gt;</text></a><!--MD5=[be336d43599d60bf28e1a06d558b5147]
class org.apache.wiki.xmlrpc.AbstractRPCHandler--><a href="AbstractRPCHandler.html" target="_top" title="AbstractRPCHandler.html" xlink:actuate="onRequest" xlink:href="AbstractRPCHandler.html" xlink:show="new" xlink:title="AbstractRPCHandler.html" xlink:type="simple"><rect codeLine="19" fill="#FEFECE" filter="url(#fe9ap4xsswap8)" height="58.7422" id="org.apache.wiki.xmlrpc.AbstractRPCHandler" style="stroke:#A80036;stroke-width:1.5;" width="218" x="90.5" y="7"/><ellipse cx="126.65" cy="25.9688" fill="#A9DCDF" rx="11" ry="11" style="stroke:#A80036;stroke-width:1.0;"/><path d="M126.7594,21.3125 L125.6031,26.3906 L127.9313,26.3906 L126.7594,21.3125 Z M125.275,19.0781 L128.2594,19.0781 L131.6188,31.4688 L129.1656,31.4688 L128.4,28.4063 L125.1188,28.4063 L124.3688,31.4688 L121.9313,31.4688 L125.275,19.0781 Z " fill="#000000"/><text fill="#000000" font-family="sans-serif" font-size="14" font-style="italic" lengthAdjust="spacing" textLength="139" x="145.35" y="24.9951">AbstractRPCHandler</text><text fill="#000000" font-family="sans-serif" font-size="10" font-style="italic" lengthAdjust="spacing" textLength="116" x="156.85" y="37.5791">org.apache.wiki.xmlrpc</text><line style="stroke:#A80036;stroke-width:1.5;" x1="91.5" x2="307.5" y1="44.9375" y2="44.9375"/><polygon fill="#FFFF44" points="101.5,50.9375,105.5,54.9375,101.5,58.9375,97.5,54.9375" style="stroke:#B38D22;stroke-width:1.0;"/><text fill="#000000" font-family="sans-serif" font-size="11" font-style="italic" lengthAdjust="spacing" textLength="192" x="110.5" y="59.1479">encodeWikiPage(Page): Hashtable</text></a><!--MD5=[b324e02ec6675c1033fc7ebbd9b0ee4f]
reverse link org.apache.wiki.xmlrpc.AbstractRPCHandler to org.apache.wiki.xmlrpc.RPCHandlerUTF8--><path codeLine="23" d="M199.5,86.6055 C199.5,98.7622 199.5,112.1541 199.5,125.6149 " fill="none" id="org.apache.wiki.xmlrpc.AbstractRPCHandler-backto-org.apache.wiki.xmlrpc.RPCHandlerUTF8" style="stroke:#A80036;stroke-width:1.0;"/><polygon fill="none" points="192.5001,86.3094,199.5,66.3094,206.5001,86.3094,192.5001,86.3094" style="stroke:#A80036;stroke-width:1.0;"/><text fill="#888888" font-family="sans-serif" font-size="10" lengthAdjust="spacing" textLength="186" x="102.5" y="335.0713">UMLDoclet 2.0.14, PlantUML 1.2021.9</text><!--MD5=[24bc1019c9a2ac21724897260f294f11]
@startuml
    set namespaceSeparator none
    hide empty fields
    hide empty methods

    class "<size:14>RPCHandlerUTF8\n<size:10>org.apache.wiki.xmlrpc" as org.apache.wiki.xmlrpc.RPCHandlerUTF8 [[RPCHandlerUTF8.html]] {
        +getApplicationName(): String
        +getAllPages(): Vector<String>
        #encodeWikiPage(Page): Hashtable<String, Object>
        +getRecentChanges(Date): Vector<Hashtable<String, Object>>
        +getPageInfo(String): Hashtable<String, Object>
        +getPageInfoVersion(String, int): Hashtable<String, Object>
        +getPage(String): String
        +getPageVersion(String, int): String
        +getPageHTML(String): String
        +getPageHTMLVersion(String, int): String
        +listLinks(String): Vector<Hashtable<String, String>>
    }

    abstract class "<size:14>AbstractRPCHandler\n<size:10>org.apache.wiki.xmlrpc" as org.apache.wiki.xmlrpc.AbstractRPCHandler [[AbstractRPCHandler.html]] {
        {abstract} #encodeWikiPage(Page): Hashtable
    }

    org.apache.wiki.xmlrpc.AbstractRPCHandler <|- - org.apache.wiki.xmlrpc.RPCHandlerUTF8

    center footer UMLDoclet 2.0.14, PlantUML 1.2021.9
@enduml

PlantUML version 1.2021.9(Sun Jul 25 10:13:56 UTC 2021)
(APACHE source distribution)
Java Runtime: Java(TM) SE Runtime Environment
JVM: Java HotSpot(TM) 64-Bit Server VM
Default Encoding: ISO-8859-1
Language: en
Country: US
--></g></svg>