<?xml version="1.0" encoding="UTF-8" standalone="no"?><svg xmlns="http://www.w3.org/2000/svg" xmlns:xlink="http://www.w3.org/1999/xlink" contentScriptType="application/ecmascript" contentStyleType="text/css" height="252px" preserveAspectRatio="none" style="width:446px;height:252px;" version="1.1" viewBox="0 0 446 252" width="446px" zoomAndPan="magnify"><defs><filter height="300%" id="f582gpd3u9zzo" width="300%" x="-1" y="-1"><feGaussianBlur result="blurOut" stdDeviation="2.0"/><feColorMatrix in="blurOut" result="blurOut2" type="matrix" values="0 0 0 0 0 0 0 0 0 0 0 0 0 0 0 0 0 0 .4 0"/><feOffset dx="4.0" dy="4.0" in="blurOut2" result="blurOut3"/><feBlend in="SourceGraphic" in2="blurOut3" mode="normal"/></filter></defs><g><!--cluster SearchManager--><polygon fill="#FFFFFF" filter="url(#f582gpd3u9zzo)" points="14,16,131,16,138,39.6094,424,39.6094,424,211,14,211,14,16" style="stroke: #000000; stroke-width: 1.5;"/><line style="stroke: #000000; stroke-width: 1.5;" x1="14" x2="138" y1="39.6094" y2="39.6094"/><text fill="#000000" font-family="sans-serif" font-size="14" font-weight="bold" lengthAdjust="spacingAndGlyphs" textLength="111" x="18" y="32.5332">SearchManager</text><!--class SearchManager.JSONSearch--><a href="SearchManager.JSONSearch.html" target="_top" xlink:actuate="onRequest" xlink:show="new" xlink:title="SearchManager.JSONSearch.html" xlink:type="simple"><rect fill="#FEFECE" filter="url(#f582gpd3u9zzo)" height="158.6875" id="SearchManager.JSONSearch" style="stroke: #A80036; stroke-width: 1.5;" width="394" x="22" y="44"/><ellipse cx="179.25" cy="60" fill="#ADD1B2" rx="11" ry="11" style="stroke: #A80036; stroke-width: 1.0;"/><path d="M182.0156,55.875 Q182.1719,55.6563 182.3594,55.5469 Q182.5469,55.4375 182.7656,55.4375 Q183.1406,55.4375 183.375,55.6953 Q183.6094,55.9531 183.6094,56.5625 L183.6094,58.0156 Q183.6094,58.625 183.375,58.8906 Q183.1406,59.1563 182.7656,59.1563 Q182.4219,59.1563 182.2188,58.9531 Q182.0156,58.7656 181.9063,58.25 Q181.8594,57.8906 181.6719,57.7031 Q181.3438,57.3281 180.7344,57.1094 Q180.125,56.8906 179.5,56.8906 Q178.7344,56.8906 178.1016,57.2188 Q177.4688,57.5469 176.9766,58.2969 Q176.4844,59.0469 176.4844,60.0781 L176.4844,61.1719 Q176.4844,62.4063 177.375,63.2266 Q178.2656,64.0469 179.8594,64.0469 Q180.7969,64.0469 181.4531,63.7969 Q181.8438,63.6406 182.2656,63.2031 Q182.5313,62.9375 182.6797,62.8594 Q182.8281,62.7813 183.0313,62.7813 Q183.3594,62.7813 183.6172,63.0391 Q183.875,63.2969 183.875,63.6406 Q183.875,63.9844 183.5313,64.3906 Q183.0313,64.9688 182.2344,65.2969 Q181.1563,65.75 179.8594,65.75 Q178.3438,65.75 177.1406,65.125 Q176.1563,64.625 175.4688,63.5547 Q174.7813,62.4844 174.7813,61.2031 L174.7813,60.0469 Q174.7813,58.7188 175.3984,57.5703 Q176.0156,56.4219 177.1094,55.8047 Q178.2031,55.1875 179.4375,55.1875 Q180.1719,55.1875 180.8203,55.3516 Q181.4688,55.5156 182.0156,55.875 Z "/><text fill="#000000" font-family="sans-serif" font-size="12" lengthAdjust="spacingAndGlyphs" textLength="71" x="199.75" y="64.9102">JSONSearch</text><line style="stroke: #A80036; stroke-width: 1.5;" x1="23" x2="415" y1="76" y2="76"/><ellipse cx="33" cy="88.418" fill="none" rx="3" ry="3" style="stroke: #038048; stroke-width: 1.0;"/><text fill="#000000" font-family="sans-serif" font-size="11" lengthAdjust="spacingAndGlyphs" text-decoration="underline" textLength="185" x="42" y="91.4189">AJAX_ACTION_SUGGESTIONS: String</text><ellipse cx="33" cy="102.2539" fill="none" rx="3" ry="3" style="stroke: #038048; stroke-width: 1.0;"/><text fill="#000000" font-family="sans-serif" font-size="11" lengthAdjust="spacingAndGlyphs" text-decoration="underline" textLength="147" x="42" y="105.2549">AJAX_ACTION_PAGES: String</text><ellipse cx="33" cy="116.0898" fill="none" rx="3" ry="3" style="stroke: #038048; stroke-width: 1.0;"/><text fill="#000000" font-family="sans-serif" font-size="11" lengthAdjust="spacingAndGlyphs" text-decoration="underline" textLength="144" x="42" y="119.0908">DEFAULT_MAX_RESULTS: int</text><ellipse cx="33" cy="129.9258" fill="none" rx="3" ry="3" style="stroke: #038048; stroke-width: 1.0;"/><text fill="#000000" font-family="sans-serif" font-size="11" lengthAdjust="spacingAndGlyphs" textLength="73" x="42" y="132.9268">maxResults: int</text><line style="stroke: #A80036; stroke-width: 1.5;" x1="23" x2="415" y1="139.3438" y2="139.3438"/><ellipse cx="33" cy="151.7617" fill="#84BE84" rx="3" ry="3" style="stroke: #038048; stroke-width: 1.0;"/><text fill="#000000" font-family="sans-serif" font-size="11" lengthAdjust="spacingAndGlyphs" textLength="131" x="42" y="154.7627">getServletMapping(): String</text><ellipse cx="33" cy="165.5977" fill="#84BE84" rx="3" ry="3" style="stroke: #038048; stroke-width: 1.0;"/><text fill="#000000" font-family="sans-serif" font-size="11" lengthAdjust="spacingAndGlyphs" textLength="368" x="42" y="168.5986">service(HttpServletRequest, HttpServletResponse, String, List&lt;String&gt;): void</text><ellipse cx="33" cy="179.4336" fill="#84BE84" rx="3" ry="3" style="stroke: #038048; stroke-width: 1.0;"/><text fill="#000000" font-family="sans-serif" font-size="11" lengthAdjust="spacingAndGlyphs" textLength="191" x="42" y="182.4346">getSuggestions(String, int): List&lt;String&gt;</text><ellipse cx="33" cy="193.2695" fill="#84BE84" rx="3" ry="3" style="stroke: #038048; stroke-width: 1.0;"/><text fill="#000000" font-family="sans-serif" font-size="11" lengthAdjust="spacingAndGlyphs" textLength="295" x="42" y="196.2705">findPages(String, int, WikiContext): List&lt;Map&lt;String, Object&gt;&gt;</text></a><text fill="#888888" font-family="sans-serif" font-size="10" lengthAdjust="spacingAndGlyphs" textLength="184" x="133" y="239.3809">UMLDoclet 1.1.4, PlantUML 1.2019.05</text><!--
@startuml

    class SearchManager.JSONSearch [[SearchManager.JSONSearch.html]] {
        {static} +AJAX_ACTION_SUGGESTIONS: String
        {static} +AJAX_ACTION_PAGES: String
        {static} +DEFAULT_MAX_RESULTS: int
        +maxResults: int
        +getServletMapping(): String
        +service(HttpServletRequest, HttpServletResponse, String, List<String>): void
        +getSuggestions(String, int): List<String>
        +findPages(String, int, WikiContext): List<Map<String, Object>>
    }


    center footer UMLDoclet 1.1.4, PlantUML 1.2019.05
@enduml

PlantUML version 1.2019.05(Sat Apr 20 18:45:36 CEST 2019)
(APACHE source distribution)
Java Runtime: OpenJDK Runtime Environment
JVM: OpenJDK 64-Bit Server VM
Java Version: 1.8.0_212-b03
Operating System: Windows 10
OS Version: 10.0
Default Encoding: Cp1252
Language: es
Country: ES
--></g></svg>