<?xml version="1.0" encoding="UTF-8" standalone="no"?><svg xmlns="http://www.w3.org/2000/svg" xmlns:xlink="http://www.w3.org/1999/xlink" contentScriptType="application/ecmascript" contentStyleType="text/css" height="407px" preserveAspectRatio="none" style="width:301px;height:407px;" version="1.1" viewBox="0 0 301 407" width="301px" zoomAndPan="magnify"><defs><filter height="300%" id="f1s8uo3uauqg7o" width="300%" x="-1" y="-1"><feGaussianBlur result="blurOut" stdDeviation="2.0"/><feColorMatrix in="blurOut" result="blurOut2" type="matrix" values="0 0 0 0 0 0 0 0 0 0 0 0 0 0 0 0 0 0 .4 0"/><feOffset dx="4.0" dy="4.0" in="blurOut2" result="blurOut3"/><feBlend in="SourceGraphic" in2="blurOut3" mode="normal"/></filter></defs><g><!--MD5=[ebfb9829b8ca2c9c74533c5118000651]
class org.apache.wiki.api.providers.PageProvider--><a href="PageProvider.html" target="_top" title="PageProvider.html" xlink:actuate="onRequest" xlink:href="PageProvider.html" xlink:show="new" xlink:title="PageProvider.html" xlink:type="simple"><rect codeLine="5" fill="#FEFECE" filter="url(#f1s8uo3uauqg7o)" height="228.0547" id="org.apache.wiki.api.providers.PageProvider" style="stroke: #A80036; stroke-width: 1.5;" width="275" x="7" y="143"/><ellipse cx="70.75" cy="163.0938" fill="#B4A7E5" rx="11" ry="11" style="stroke: #A80036; stroke-width: 1.0;"/><path d="M71.7031,159.7344 L71.7031,166.3906 L73.4219,166.3906 Q74.0313,166.3906 74.2969,166.625 Q74.5625,166.8594 74.5625,167.25 Q74.5625,167.625 74.2969,167.8594 Q74.0313,168.0938 73.4219,168.0938 L68.2813,168.0938 Q67.6719,168.0938 67.4063,167.8594 Q67.1406,167.625 67.1406,167.2344 Q67.1406,166.8594 67.4063,166.625 Q67.6719,166.3906 68.2813,166.3906 L70,166.3906 L70,159.7344 L68.2813,159.7344 Q67.6719,159.7344 67.4063,159.5 Q67.1406,159.2656 67.1406,158.875 Q67.1406,158.5 67.4063,158.2656 Q67.6719,158.0313 68.2813,158.0313 L73.4219,158.0313 Q74.0313,158.0313 74.2969,158.2656 Q74.5625,158.5 74.5625,158.875 Q74.5625,159.2656 74.2969,159.5 Q74.0313,159.7344 73.4219,159.7344 L71.7031,159.7344 Z "/><text fill="#000000" font-family="sans-serif" font-size="14" font-style="italic" lengthAdjust="spacingAndGlyphs" textLength="85" x="118.25" y="162.5332">PageProvider</text><text fill="#000000" font-family="sans-serif" font-size="10" font-style="italic" lengthAdjust="spacingAndGlyphs" textLength="139" x="91.25" y="175.9902">org.apache.wiki.api.providers</text><line style="stroke: #A80036; stroke-width: 1.5;" x1="8" x2="281" y1="183.1875" y2="183.1875"/><ellipse cx="18" cy="194.1875" fill="#84BE84" rx="3" ry="3" style="stroke: #038048; stroke-width: 1.0;"/><text fill="#000000" font-family="sans-serif" font-size="11" font-style="italic" lengthAdjust="spacingAndGlyphs" textLength="156" x="27" y="198.6064">putPageText(Page, String): void</text><ellipse cx="18" cy="208.0234" fill="#84BE84" rx="3" ry="3" style="stroke: #038048; stroke-width: 1.0;"/><text fill="#000000" font-family="sans-serif" font-size="11" font-style="italic" lengthAdjust="spacingAndGlyphs" textLength="138" x="27" y="212.4424">pageExists(String): boolean</text><ellipse cx="18" cy="221.8594" fill="#84BE84" rx="3" ry="3" style="stroke: #038048; stroke-width: 1.0;"/><text fill="#000000" font-family="sans-serif" font-size="11" font-style="italic" lengthAdjust="spacingAndGlyphs" textLength="156" x="27" y="226.2783">pageExists(String, int): boolean</text><ellipse cx="18" cy="235.6953" fill="#84BE84" rx="3" ry="3" style="stroke: #038048; stroke-width: 1.0;"/><text fill="#000000" font-family="sans-serif" font-size="11" font-style="italic" lengthAdjust="spacingAndGlyphs" textLength="249" x="27" y="240.1143">findPages(QueryItem[]): Collection&lt;SearchResult&gt;</text><ellipse cx="18" cy="249.5313" fill="#84BE84" rx="3" ry="3" style="stroke: #038048; stroke-width: 1.0;"/><text fill="#000000" font-family="sans-serif" font-size="11" font-style="italic" lengthAdjust="spacingAndGlyphs" textLength="144" x="27" y="253.9502">getPageInfo(String, int): Page</text><ellipse cx="18" cy="263.3672" fill="#84BE84" rx="3" ry="3" style="stroke: #038048; stroke-width: 1.0;"/><text fill="#000000" font-family="sans-serif" font-size="11" font-style="italic" lengthAdjust="spacingAndGlyphs" textLength="160" x="27" y="267.7861">getAllPages(): Collection&lt;Page&gt;</text><ellipse cx="18" cy="277.2031" fill="#84BE84" rx="3" ry="3" style="stroke: #038048; stroke-width: 1.0;"/><text fill="#000000" font-family="sans-serif" font-size="11" font-style="italic" lengthAdjust="spacingAndGlyphs" textLength="224" x="27" y="281.6221">getAllChangedSince(Date): Collection&lt;Page&gt;</text><ellipse cx="18" cy="291.0391" fill="#84BE84" rx="3" ry="3" style="stroke: #038048; stroke-width: 1.0;"/><text fill="#000000" font-family="sans-serif" font-size="11" font-style="italic" lengthAdjust="spacingAndGlyphs" textLength="95" x="27" y="295.458">getPageCount(): int</text><ellipse cx="18" cy="304.875" fill="#84BE84" rx="3" ry="3" style="stroke: #038048; stroke-width: 1.0;"/><text fill="#000000" font-family="sans-serif" font-size="11" font-style="italic" lengthAdjust="spacingAndGlyphs" textLength="186" x="27" y="309.2939">getVersionHistory(String): List&lt;Page&gt;</text><ellipse cx="18" cy="318.7109" fill="#84BE84" rx="3" ry="3" style="stroke: #038048; stroke-width: 1.0;"/><text fill="#000000" font-family="sans-serif" font-size="11" font-style="italic" lengthAdjust="spacingAndGlyphs" textLength="152" x="27" y="323.1299">getPageText(String, int): String</text><ellipse cx="18" cy="332.5469" fill="#84BE84" rx="3" ry="3" style="stroke: #038048; stroke-width: 1.0;"/><text fill="#000000" font-family="sans-serif" font-size="11" font-style="italic" lengthAdjust="spacingAndGlyphs" textLength="149" x="27" y="336.9658">deleteVersion(String, int): void</text><ellipse cx="18" cy="346.3828" fill="#84BE84" rx="3" ry="3" style="stroke: #038048; stroke-width: 1.0;"/><text fill="#000000" font-family="sans-serif" font-size="11" font-style="italic" lengthAdjust="spacingAndGlyphs" textLength="118" x="27" y="350.8018">deletePage(String): void</text><ellipse cx="18" cy="360.2188" fill="#84BE84" rx="3" ry="3" style="stroke: #038048; stroke-width: 1.0;"/><text fill="#000000" font-family="sans-serif" font-size="11" font-style="italic" lengthAdjust="spacingAndGlyphs" textLength="149" x="27" y="364.6377">movePage(String, String): void</text></a><!--MD5=[576393cc879ee6b41d5e539d7321559d]
class org.apache.wiki.api.providers.WikiProvider--><a href="WikiProvider.html" target="_top" title="WikiProvider.html" xlink:actuate="onRequest" xlink:href="WikiProvider.html" xlink:show="new" xlink:title="WikiProvider.html" xlink:type="simple"><rect codeLine="21" fill="#FEFECE" filter="url(#f1s8uo3uauqg7o)" height="75.8594" id="org.apache.wiki.api.providers.WikiProvider" style="stroke: #A80036; stroke-width: 1.5;" width="193" x="48" y="7"/><ellipse cx="72.9" cy="27.0938" fill="#B4A7E5" rx="11" ry="11" style="stroke: #A80036; stroke-width: 1.0;"/><path d="M73.8531,23.7344 L73.8531,30.3906 L75.5719,30.3906 Q76.1813,30.3906 76.4469,30.625 Q76.7125,30.8594 76.7125,31.25 Q76.7125,31.625 76.4469,31.8594 Q76.1813,32.0938 75.5719,32.0938 L70.4313,32.0938 Q69.8219,32.0938 69.5563,31.8594 Q69.2906,31.625 69.2906,31.2344 Q69.2906,30.8594 69.5563,30.625 Q69.8219,30.3906 70.4313,30.3906 L72.15,30.3906 L72.15,23.7344 L70.4313,23.7344 Q69.8219,23.7344 69.5563,23.5 Q69.2906,23.2656 69.2906,22.875 Q69.2906,22.5 69.5563,22.2656 Q69.8219,22.0313 70.4313,22.0313 L75.5719,22.0313 Q76.1813,22.0313 76.4469,22.2656 Q76.7125,22.5 76.7125,22.875 Q76.7125,23.2656 76.4469,23.5 Q76.1813,23.7344 75.5719,23.7344 L73.8531,23.7344 Z "/><text fill="#000000" font-family="sans-serif" font-size="14" font-style="italic" lengthAdjust="spacingAndGlyphs" textLength="80" x="118.6" y="26.5332">WikiProvider</text><text fill="#000000" font-family="sans-serif" font-size="10" font-style="italic" lengthAdjust="spacingAndGlyphs" textLength="139" x="89.1" y="39.9902">org.apache.wiki.api.providers</text><line style="stroke: #A80036; stroke-width: 1.5;" x1="49" x2="240" y1="47.1875" y2="47.1875"/><ellipse cx="59" cy="58.1875" fill="#84BE84" rx="3" ry="3" style="stroke: #038048; stroke-width: 1.0;"/><text fill="#000000" font-family="sans-serif" font-size="11" font-style="italic" lengthAdjust="spacingAndGlyphs" textLength="167" x="68" y="62.6064">initialize(Engine, Properties): void</text><ellipse cx="59" cy="72.0234" fill="#84BE84" rx="3" ry="3" style="stroke: #038048; stroke-width: 1.0;"/><text fill="#000000" font-family="sans-serif" font-size="11" font-style="italic" lengthAdjust="spacingAndGlyphs" textLength="117" x="68" y="76.4424">getProviderInfo(): String</text></a><!--MD5=[5743d5805f87714e152428fee7c9eb6d]
reverse link org.apache.wiki.api.providers.WikiProvider to org.apache.wiki.api.providers.PageProvider--><path codeLine="26" d="M144.5,103.4828 C144.5,115.7448 144.5,129.0764 144.5,142.5916 " fill="none" id="org.apache.wiki.api.providers.WikiProvider-backto-org.apache.wiki.api.providers.PageProvider" style="stroke: #A80036; stroke-width: 1.0;"/><polygon fill="none" points="137.5001,103.3916,144.5,83.3916,151.5001,103.3916,137.5001,103.3916" style="stroke: #A80036; stroke-width: 1.0;"/><text fill="#888888" font-family="sans-serif" font-size="10" lengthAdjust="spacingAndGlyphs" textLength="190" x="46.5" y="394.4355">UMLDoclet 2.0.12, PlantUML 1.2020.16</text><!--MD5=[ff100c92245600d882c184cef72bf2d3]
@startuml
    set namespaceSeparator none
    hide empty fields
    hide empty methods

    interface "<size:14>PageProvider\n<size:10>org.apache.wiki.api.providers" as org.apache.wiki.api.providers.PageProvider [[PageProvider.html]] {
        {abstract} +putPageText(Page, String): void
        {abstract} +pageExists(String): boolean
        {abstract} +pageExists(String, int): boolean
        {abstract} +findPages(QueryItem[]): Collection<SearchResult>
        {abstract} +getPageInfo(String, int): Page
        {abstract} +getAllPages(): Collection<Page>
        {abstract} +getAllChangedSince(Date): Collection<Page>
        {abstract} +getPageCount(): int
        {abstract} +getVersionHistory(String): List<Page>
        {abstract} +getPageText(String, int): String
        {abstract} +deleteVersion(String, int): void
        {abstract} +deletePage(String): void
        {abstract} +movePage(String, String): void
    }

    interface "<size:14>WikiProvider\n<size:10>org.apache.wiki.api.providers" as org.apache.wiki.api.providers.WikiProvider [[WikiProvider.html]] {
        {abstract} +initialize(Engine, Properties): void
        {abstract} +getProviderInfo(): String
    }

    org.apache.wiki.api.providers.WikiProvider <|- - org.apache.wiki.api.providers.PageProvider

    center footer UMLDoclet 2.0.12, PlantUML 1.2020.16
@enduml

PlantUML version 1.2020.16(Sun Aug 23 22:20:43 CEST 2020)
(APACHE source distribution)
Java Runtime: OpenJDK Runtime Environment
JVM: OpenJDK 64-Bit Server VM
Default Encoding: Cp1252
Language: es
Country: ES
--></g></svg>