<?xml version="1.0" encoding="UTF-8" standalone="no"?><svg xmlns="http://www.w3.org/2000/svg" xmlns:xlink="http://www.w3.org/1999/xlink" contentScriptType="application/ecmascript" contentStyleType="text/css" height="172px" preserveAspectRatio="none" style="width:238px;height:172px;" version="1.1" viewBox="0 0 238 172" width="238px" zoomAndPan="magnify"><defs><filter height="300%" id="fp0kjhk13u7b6" width="300%" x="-1" y="-1"><feGaussianBlur result="blurOut" stdDeviation="2.0"/><feColorMatrix in="blurOut" result="blurOut2" type="matrix" values="0 0 0 0 0 0 0 0 0 0 0 0 0 0 0 0 0 0 .4 0"/><feOffset dx="4.0" dy="4.0" in="blurOut2" result="blurOut3"/><feBlend in="SourceGraphic" in2="blurOut3" mode="normal"/></filter></defs><g><!--class AclEntryImpl--><a href="AclEntryImpl.html" target="_top" xlink:actuate="onRequest" xlink:show="new" xlink:title="AclEntryImpl.html" xlink:type="simple"><rect fill="#FEFECE" filter="url(#fp0kjhk13u7b6)" height="131.0156" id="AclEntryImpl" style="stroke: #A80036; stroke-width: 1.5;" width="221" x="6" y="8"/><ellipse cx="78.75" cy="24" fill="#ADD1B2" rx="11" ry="11" style="stroke: #A80036; stroke-width: 1.0;"/><path d="M81.5156,19.875 Q81.6719,19.6563 81.8594,19.5469 Q82.0469,19.4375 82.2656,19.4375 Q82.6406,19.4375 82.875,19.6953 Q83.1094,19.9531 83.1094,20.5625 L83.1094,22.0156 Q83.1094,22.625 82.875,22.8906 Q82.6406,23.1563 82.2656,23.1563 Q81.9219,23.1563 81.7188,22.9531 Q81.5156,22.7656 81.4063,22.25 Q81.3594,21.8906 81.1719,21.7031 Q80.8438,21.3281 80.2344,21.1094 Q79.625,20.8906 79,20.8906 Q78.2344,20.8906 77.6016,21.2188 Q76.9688,21.5469 76.4766,22.2969 Q75.9844,23.0469 75.9844,24.0781 L75.9844,25.1719 Q75.9844,26.4063 76.875,27.2266 Q77.7656,28.0469 79.3594,28.0469 Q80.2969,28.0469 80.9531,27.7969 Q81.3438,27.6406 81.7656,27.2031 Q82.0313,26.9375 82.1797,26.8594 Q82.3281,26.7813 82.5313,26.7813 Q82.8594,26.7813 83.1172,27.0391 Q83.375,27.2969 83.375,27.6406 Q83.375,27.9844 83.0313,28.3906 Q82.5313,28.9688 81.7344,29.2969 Q80.6563,29.75 79.3594,29.75 Q77.8438,29.75 76.6406,29.125 Q75.6563,28.625 74.9688,27.5547 Q74.2813,26.4844 74.2813,25.2031 L74.2813,24.0469 Q74.2813,22.7188 74.8984,21.5703 Q75.5156,20.4219 76.6094,19.8047 Q77.7031,19.1875 78.9375,19.1875 Q79.6719,19.1875 80.3203,19.3516 Q80.9688,19.5156 81.5156,19.875 Z "/><text fill="#000000" font-family="sans-serif" font-size="12" lengthAdjust="spacingAndGlyphs" textLength="67" x="99.25" y="28.9102">AclEntryImpl</text><line style="stroke: #A80036; stroke-width: 1.5;" x1="7" x2="226" y1="40" y2="40"/><line style="stroke: #A80036; stroke-width: 1.5;" x1="7" x2="226" y1="48" y2="48"/><ellipse cx="17" cy="60.418" fill="#84BE84" rx="3" ry="3" style="stroke: #038048; stroke-width: 1.0;"/><text fill="#000000" font-family="sans-serif" font-size="11" lengthAdjust="spacingAndGlyphs" textLength="174" x="26" y="63.4189">addPermission(Permission): boolean</text><ellipse cx="17" cy="74.2539" fill="#84BE84" rx="3" ry="3" style="stroke: #038048; stroke-width: 1.0;"/><text fill="#000000" font-family="sans-serif" font-size="11" lengthAdjust="spacingAndGlyphs" textLength="185" x="26" y="77.2549">checkPermission(Permission): boolean</text><ellipse cx="17" cy="88.0898" fill="#84BE84" rx="3" ry="3" style="stroke: #038048; stroke-width: 1.0;"/><text fill="#000000" font-family="sans-serif" font-size="11" lengthAdjust="spacingAndGlyphs" textLength="109" x="26" y="91.0908">getPrincipal(): Principal</text><ellipse cx="17" cy="101.9258" fill="#84BE84" rx="3" ry="3" style="stroke: #038048; stroke-width: 1.0;"/><text fill="#000000" font-family="sans-serif" font-size="11" lengthAdjust="spacingAndGlyphs" textLength="195" x="26" y="104.9268">permissions(): Enumeration&lt;Permission&gt;</text><ellipse cx="17" cy="115.7617" fill="#84BE84" rx="3" ry="3" style="stroke: #038048; stroke-width: 1.0;"/><text fill="#000000" font-family="sans-serif" font-size="11" lengthAdjust="spacingAndGlyphs" textLength="192" x="26" y="118.7627">removePermission(Permission): boolean</text><ellipse cx="17" cy="129.5977" fill="#84BE84" rx="3" ry="3" style="stroke: #038048; stroke-width: 1.0;"/><text fill="#000000" font-family="sans-serif" font-size="11" lengthAdjust="spacingAndGlyphs" textLength="147" x="26" y="132.5986">setPrincipal(Principal): boolean</text></a><text fill="#888888" font-family="sans-serif" font-size="10" lengthAdjust="spacingAndGlyphs" textLength="184" x="30.5" y="159.3809">UMLDoclet 1.1.4, PlantUML 1.2019.05</text><!--
@startuml

    class AclEntryImpl [[AclEntryImpl.html]] {
        +addPermission(Permission): boolean
        +checkPermission(Permission): boolean
        +getPrincipal(): Principal
        +permissions(): Enumeration<Permission>
        +removePermission(Permission): boolean
        +setPrincipal(Principal): boolean
    }


    center footer UMLDoclet 1.1.4, PlantUML 1.2019.05
@enduml

PlantUML version 1.2019.05(Sat Apr 20 18:45:36 CEST 2019)
(APACHE source distribution)
Java Runtime: OpenJDK Runtime Environment
JVM: OpenJDK 64-Bit Server VM
Java Version: 1.8.0_212-b03
Operating System: Windows 10
OS Version: 10.0
Default Encoding: Cp1252
Language: es
Country: ES
--></g></svg>