<?xml version="1.0" encoding="UTF-8" standalone="no"?><svg xmlns="http://www.w3.org/2000/svg" xmlns:xlink="http://www.w3.org/1999/xlink" contentScriptType="application/ecmascript" contentStyleType="text/css" height="103px" preserveAspectRatio="none" style="width:234px;height:103px;" version="1.1" viewBox="0 0 234 103" width="234px" zoomAndPan="magnify"><defs><filter height="300%" id="fo623bzwrglho" width="300%" x="-1" y="-1"><feGaussianBlur result="blurOut" stdDeviation="2.0"/><feColorMatrix in="blurOut" result="blurOut2" type="matrix" values="0 0 0 0 0 0 0 0 0 0 0 0 0 0 0 0 0 0 .4 0"/><feOffset dx="4.0" dy="4.0" in="blurOut2" result="blurOut3"/><feBlend in="SourceGraphic" in2="blurOut3" mode="normal"/></filter></defs><g><!--class AdminBeanIteratorInfo--><a href="AdminBeanIteratorInfo.html" target="_top" xlink:actuate="onRequest" xlink:show="new" xlink:title="AdminBeanIteratorInfo.html" xlink:type="simple"><rect fill="#FEFECE" filter="url(#fo623bzwrglho)" height="61.8359" id="AdminBeanIteratorInfo" style="stroke: #A80036; stroke-width: 1.5;" width="217" x="6" y="8"/><ellipse cx="49.35" cy="24" fill="#ADD1B2" rx="11" ry="11" style="stroke: #A80036; stroke-width: 1.0;"/><path d="M52.1156,19.875 Q52.2719,19.6563 52.4594,19.5469 Q52.6469,19.4375 52.8656,19.4375 Q53.2406,19.4375 53.475,19.6953 Q53.7094,19.9531 53.7094,20.5625 L53.7094,22.0156 Q53.7094,22.625 53.475,22.8906 Q53.2406,23.1563 52.8656,23.1563 Q52.5219,23.1563 52.3188,22.9531 Q52.1156,22.7656 52.0063,22.25 Q51.9594,21.8906 51.7719,21.7031 Q51.4438,21.3281 50.8344,21.1094 Q50.225,20.8906 49.6,20.8906 Q48.8344,20.8906 48.2016,21.2188 Q47.5688,21.5469 47.0766,22.2969 Q46.5844,23.0469 46.5844,24.0781 L46.5844,25.1719 Q46.5844,26.4063 47.475,27.2266 Q48.3656,28.0469 49.9594,28.0469 Q50.8969,28.0469 51.5531,27.7969 Q51.9438,27.6406 52.3656,27.2031 Q52.6313,26.9375 52.7797,26.8594 Q52.9281,26.7813 53.1313,26.7813 Q53.4594,26.7813 53.7172,27.0391 Q53.975,27.2969 53.975,27.6406 Q53.975,27.9844 53.6313,28.3906 Q53.1313,28.9688 52.3344,29.2969 Q51.2563,29.75 49.9594,29.75 Q48.4438,29.75 47.2406,29.125 Q46.2563,28.625 45.5688,27.5547 Q44.8813,26.4844 44.8813,25.2031 L44.8813,24.0469 Q44.8813,22.7188 45.4984,21.5703 Q46.1156,20.4219 47.2094,19.8047 Q48.3031,19.1875 49.5375,19.1875 Q50.2719,19.1875 50.9203,19.3516 Q51.5688,19.5156 52.1156,19.875 Z "/><text fill="#000000" font-family="sans-serif" font-size="12" lengthAdjust="spacingAndGlyphs" textLength="122" x="69.65" y="28.9102">AdminBeanIteratorInfo</text><line style="stroke: #A80036; stroke-width: 1.5;" x1="7" x2="222" y1="40" y2="40"/><line style="stroke: #A80036; stroke-width: 1.5;" x1="7" x2="222" y1="48" y2="48"/><ellipse cx="17" cy="60.418" fill="#84BE84" rx="3" ry="3" style="stroke: #038048; stroke-width: 1.0;"/><text fill="#000000" font-family="sans-serif" font-size="11" lengthAdjust="spacingAndGlyphs" textLength="191" x="26" y="63.4189">getVariableInfo(TagData): VariableInfo[]</text></a><text fill="#888888" font-family="sans-serif" font-size="10" lengthAdjust="spacingAndGlyphs" textLength="184" x="28.5" y="90.3809">UMLDoclet 1.1.4, PlantUML 1.2019.05</text><!--
@startuml

    class AdminBeanIteratorInfo [[AdminBeanIteratorInfo.html]] {
        +getVariableInfo(TagData): VariableInfo[]
    }


    center footer UMLDoclet 1.1.4, PlantUML 1.2019.05
@enduml

PlantUML version 1.2019.05(Sat Apr 20 18:45:36 CEST 2019)
(APACHE source distribution)
Java Runtime: OpenJDK Runtime Environment
JVM: OpenJDK 64-Bit Server VM
Java Version: 1.8.0_212-b03
Operating System: Windows 10
OS Version: 10.0
Default Encoding: Cp1252
Language: es
Country: ES
--></g></svg>