<?xml version="1.0" encoding="UTF-8" standalone="no"?><svg xmlns="http://www.w3.org/2000/svg" xmlns:xlink="http://www.w3.org/1999/xlink" contentScriptType="application/ecmascript" contentStyleType="text/css" height="103px" preserveAspectRatio="none" style="width:196px;height:103px;" version="1.1" viewBox="0 0 196 103" width="196px" zoomAndPan="magnify"><defs><filter height="300%" id="f1fasvgpof9upu" width="300%" x="-1" y="-1"><feGaussianBlur result="blurOut" stdDeviation="2.0"/><feColorMatrix in="blurOut" result="blurOut2" type="matrix" values="0 0 0 0 0 0 0 0 0 0 0 0 0 0 0 0 0 0 .4 0"/><feOffset dx="4.0" dy="4.0" in="blurOut2" result="blurOut3"/><feBlend in="SourceGraphic" in2="blurOut3" mode="normal"/></filter></defs><g><!--class BaseURLTag--><a href="BaseURLTag.html" target="_top" xlink:actuate="onRequest" xlink:show="new" xlink:title="BaseURLTag.html" xlink:type="simple"><rect fill="#FEFECE" filter="url(#f1fasvgpof9upu)" height="61.8359" id="BaseURLTag" style="stroke: #A80036; stroke-width: 1.5;" width="123" x="24.5" y="8"/><ellipse cx="46.7" cy="24" fill="#ADD1B2" rx="11" ry="11" style="stroke: #A80036; stroke-width: 1.0;"/><path d="M49.4656,19.875 Q49.6219,19.6563 49.8094,19.5469 Q49.9969,19.4375 50.2156,19.4375 Q50.5906,19.4375 50.825,19.6953 Q51.0594,19.9531 51.0594,20.5625 L51.0594,22.0156 Q51.0594,22.625 50.825,22.8906 Q50.5906,23.1563 50.2156,23.1563 Q49.8719,23.1563 49.6688,22.9531 Q49.4656,22.7656 49.3563,22.25 Q49.3094,21.8906 49.1219,21.7031 Q48.7938,21.3281 48.1844,21.1094 Q47.575,20.8906 46.95,20.8906 Q46.1844,20.8906 45.5516,21.2188 Q44.9188,21.5469 44.4266,22.2969 Q43.9344,23.0469 43.9344,24.0781 L43.9344,25.1719 Q43.9344,26.4063 44.825,27.2266 Q45.7156,28.0469 47.3094,28.0469 Q48.2469,28.0469 48.9031,27.7969 Q49.2938,27.6406 49.7156,27.2031 Q49.9813,26.9375 50.1297,26.8594 Q50.2781,26.7813 50.4813,26.7813 Q50.8094,26.7813 51.0672,27.0391 Q51.325,27.2969 51.325,27.6406 Q51.325,27.9844 50.9813,28.3906 Q50.4813,28.9688 49.6844,29.2969 Q48.6063,29.75 47.3094,29.75 Q45.7938,29.75 44.5906,29.125 Q43.6063,28.625 42.9188,27.5547 Q42.2313,26.4844 42.2313,25.2031 L42.2313,24.0469 Q42.2313,22.7188 42.8484,21.5703 Q43.4656,20.4219 44.5594,19.8047 Q45.6531,19.1875 46.8875,19.1875 Q47.6219,19.1875 48.2703,19.3516 Q48.9188,19.5156 49.4656,19.875 Z "/><text fill="#000000" font-family="sans-serif" font-size="12" lengthAdjust="spacingAndGlyphs" textLength="75" x="62.3" y="28.9102">BaseURLTag</text><line style="stroke: #A80036; stroke-width: 1.5;" x1="25.5" x2="146.5" y1="40" y2="40"/><line style="stroke: #A80036; stroke-width: 1.5;" x1="25.5" x2="146.5" y1="48" y2="48"/><ellipse cx="35.5" cy="60.418" fill="#84BE84" rx="3" ry="3" style="stroke: #038048; stroke-width: 1.0;"/><text fill="#000000" font-family="sans-serif" font-size="11" lengthAdjust="spacingAndGlyphs" textLength="97" x="44.5" y="63.4189">doWikiStartTag(): int</text></a><text fill="#888888" font-family="sans-serif" font-size="10" lengthAdjust="spacingAndGlyphs" textLength="184" x="0" y="90.3809">UMLDoclet 1.1.4, PlantUML 1.2019.05</text><!--
@startuml

    class BaseURLTag [[BaseURLTag.html]] {
        +doWikiStartTag(): int
    }


    center footer UMLDoclet 1.1.4, PlantUML 1.2019.05
@enduml

PlantUML version 1.2019.05(Sat Apr 20 18:45:36 CEST 2019)
(APACHE source distribution)
Java Runtime: OpenJDK Runtime Environment
JVM: OpenJDK 64-Bit Server VM
Java Version: 1.8.0_212-b03
Operating System: Windows 10
OS Version: 10.0
Default Encoding: Cp1252
Language: es
Country: ES
--></g></svg>