<?xml version="1.0" encoding="UTF-8" standalone="no"?><svg xmlns="http://www.w3.org/2000/svg" xmlns:xlink="http://www.w3.org/1999/xlink" contentScriptType="application/ecmascript" contentStyleType="text/css" height="155px" preserveAspectRatio="none" style="width:204px;height:155px;" version="1.1" viewBox="0 0 204 155" width="204px" zoomAndPan="magnify"><defs><filter height="300%" id="f91iavenbhuea" width="300%" x="-1" y="-1"><feGaussianBlur result="blurOut" stdDeviation="2.0"/><feColorMatrix in="blurOut" result="blurOut2" type="matrix" values="0 0 0 0 0 0 0 0 0 0 0 0 0 0 0 0 0 0 .4 0"/><feOffset dx="4.0" dy="4.0" in="blurOut2" result="blurOut3"/><feBlend in="SourceGraphic" in2="blurOut3" mode="normal"/></filter></defs><g><!--cluster BreadcrumbsTag--><polygon fill="#FFFFFF" filter="url(#f91iavenbhuea)" points="14,16,139,16,146,39.6094,174,39.6094,174,114,14,114,14,16" style="stroke: #000000; stroke-width: 1.5;"/><line style="stroke: #000000; stroke-width: 1.5;" x1="14" x2="146" y1="39.6094" y2="39.6094"/><text fill="#000000" font-family="sans-serif" font-size="14" font-weight="bold" lengthAdjust="spacingAndGlyphs" textLength="119" x="18" y="32.5332">BreadcrumbsTag</text><!--class BreadcrumbsTag.FixedQueue--><a href="BreadcrumbsTag.FixedQueue.html" target="_top" xlink:actuate="onRequest" xlink:show="new" xlink:title="BreadcrumbsTag.FixedQueue.html" xlink:type="simple"><rect fill="#FEFECE" filter="url(#f91iavenbhuea)" height="61.8359" id="BreadcrumbsTag.FixedQueue" style="stroke: #A80036; stroke-width: 1.5;" width="143" x="22.5" y="44"/><ellipse cx="57.75" cy="60" fill="#ADD1B2" rx="11" ry="11" style="stroke: #A80036; stroke-width: 1.0;"/><path d="M60.5156,55.875 Q60.6719,55.6563 60.8594,55.5469 Q61.0469,55.4375 61.2656,55.4375 Q61.6406,55.4375 61.875,55.6953 Q62.1094,55.9531 62.1094,56.5625 L62.1094,58.0156 Q62.1094,58.625 61.875,58.8906 Q61.6406,59.1563 61.2656,59.1563 Q60.9219,59.1563 60.7188,58.9531 Q60.5156,58.7656 60.4063,58.25 Q60.3594,57.8906 60.1719,57.7031 Q59.8438,57.3281 59.2344,57.1094 Q58.625,56.8906 58,56.8906 Q57.2344,56.8906 56.6016,57.2188 Q55.9688,57.5469 55.4766,58.2969 Q54.9844,59.0469 54.9844,60.0781 L54.9844,61.1719 Q54.9844,62.4063 55.875,63.2266 Q56.7656,64.0469 58.3594,64.0469 Q59.2969,64.0469 59.9531,63.7969 Q60.3438,63.6406 60.7656,63.2031 Q61.0313,62.9375 61.1797,62.8594 Q61.3281,62.7813 61.5313,62.7813 Q61.8594,62.7813 62.1172,63.0391 Q62.375,63.2969 62.375,63.6406 Q62.375,63.9844 62.0313,64.3906 Q61.5313,64.9688 60.7344,65.2969 Q59.6563,65.75 58.3594,65.75 Q56.8438,65.75 55.6406,65.125 Q54.6563,64.625 53.9688,63.5547 Q53.2813,62.4844 53.2813,61.2031 L53.2813,60.0469 Q53.2813,58.7188 53.8984,57.5703 Q54.5156,56.4219 55.6094,55.8047 Q56.7031,55.1875 57.9375,55.1875 Q58.6719,55.1875 59.3203,55.3516 Q59.9688,55.5156 60.5156,55.875 Z "/><text fill="#000000" font-family="sans-serif" font-size="12" lengthAdjust="spacingAndGlyphs" textLength="66" x="76.25" y="64.9102">FixedQueue</text><line style="stroke: #A80036; stroke-width: 1.5;" x1="23.5" x2="164.5" y1="76" y2="76"/><line style="stroke: #A80036; stroke-width: 1.5;" x1="23.5" x2="164.5" y1="84" y2="84"/><ellipse cx="33.5" cy="96.418" fill="#84BE84" rx="3" ry="3" style="stroke: #038048; stroke-width: 1.0;"/><text fill="#000000" font-family="sans-serif" font-size="11" lengthAdjust="spacingAndGlyphs" textLength="117" x="42.5" y="99.4189">removeItem(String): void</text></a><text fill="#888888" font-family="sans-serif" font-size="10" lengthAdjust="spacingAndGlyphs" textLength="184" x="8" y="142.3809">UMLDoclet 1.1.4, PlantUML 1.2019.05</text><!--
@startuml

    class BreadcrumbsTag.FixedQueue [[BreadcrumbsTag.FixedQueue.html]] {
        +removeItem(String): void
    }


    center footer UMLDoclet 1.1.4, PlantUML 1.2019.05
@enduml

PlantUML version 1.2019.05(Sat Apr 20 18:45:36 CEST 2019)
(APACHE source distribution)
Java Runtime: OpenJDK Runtime Environment
JVM: OpenJDK 64-Bit Server VM
Java Version: 1.8.0_212-b03
Operating System: Windows 10
OS Version: 10.0
Default Encoding: Cp1252
Language: es
Country: ES
--></g></svg>