<?xml version="1.0" encoding="UTF-8" standalone="no"?><svg xmlns="http://www.w3.org/2000/svg" xmlns:xlink="http://www.w3.org/1999/xlink" contentScriptType="application/ecmascript" contentStyleType="text/css" height="158px" preserveAspectRatio="none" style="width:203px;height:158px;" version="1.1" viewBox="0 0 203 158" width="203px" zoomAndPan="magnify"><defs><filter height="300%" id="fp404mod1it9x" width="300%" x="-1" y="-1"><feGaussianBlur result="blurOut" stdDeviation="2.0"/><feColorMatrix in="blurOut" result="blurOut2" type="matrix" values="0 0 0 0 0 0 0 0 0 0 0 0 0 0 0 0 0 0 .4 0"/><feOffset dx="4.0" dy="4.0" in="blurOut2" result="blurOut3"/><feBlend in="SourceGraphic" in2="blurOut3" mode="normal"/></filter></defs><g><!--class CalendarTag--><a href="CalendarTag.html" target="_top" xlink:actuate="onRequest" xlink:show="new" xlink:title="CalendarTag.html" xlink:type="simple"><rect fill="#FEFECE" filter="url(#fp404mod1it9x)" height="117.1797" id="CalendarTag" style="stroke: #A80036; stroke-width: 1.5;" width="175" x="6" y="8"/><ellipse cx="53.25" cy="24" fill="#ADD1B2" rx="11" ry="11" style="stroke: #A80036; stroke-width: 1.0;"/><path d="M56.0156,19.875 Q56.1719,19.6563 56.3594,19.5469 Q56.5469,19.4375 56.7656,19.4375 Q57.1406,19.4375 57.375,19.6953 Q57.6094,19.9531 57.6094,20.5625 L57.6094,22.0156 Q57.6094,22.625 57.375,22.8906 Q57.1406,23.1563 56.7656,23.1563 Q56.4219,23.1563 56.2188,22.9531 Q56.0156,22.7656 55.9063,22.25 Q55.8594,21.8906 55.6719,21.7031 Q55.3438,21.3281 54.7344,21.1094 Q54.125,20.8906 53.5,20.8906 Q52.7344,20.8906 52.1016,21.2188 Q51.4688,21.5469 50.9766,22.2969 Q50.4844,23.0469 50.4844,24.0781 L50.4844,25.1719 Q50.4844,26.4063 51.375,27.2266 Q52.2656,28.0469 53.8594,28.0469 Q54.7969,28.0469 55.4531,27.7969 Q55.8438,27.6406 56.2656,27.2031 Q56.5313,26.9375 56.6797,26.8594 Q56.8281,26.7813 57.0313,26.7813 Q57.3594,26.7813 57.6172,27.0391 Q57.875,27.2969 57.875,27.6406 Q57.875,27.9844 57.5313,28.3906 Q57.0313,28.9688 56.2344,29.2969 Q55.1563,29.75 53.8594,29.75 Q52.3438,29.75 51.1406,29.125 Q50.1563,28.625 49.4688,27.5547 Q48.7813,26.4844 48.7813,25.2031 L48.7813,24.0469 Q48.7813,22.7188 49.3984,21.5703 Q50.0156,20.4219 51.1094,19.8047 Q52.2031,19.1875 53.4375,19.1875 Q54.1719,19.1875 54.8203,19.3516 Q55.4688,19.5156 56.0156,19.875 Z "/><text fill="#000000" font-family="sans-serif" font-size="12" lengthAdjust="spacingAndGlyphs" textLength="72" x="73.75" y="28.9102">CalendarTag</text><line style="stroke: #A80036; stroke-width: 1.5;" x1="7" x2="180" y1="40" y2="40"/><line style="stroke: #A80036; stroke-width: 1.5;" x1="7" x2="180" y1="48" y2="48"/><ellipse cx="17" cy="60.418" fill="#84BE84" rx="3" ry="3" style="stroke: #038048; stroke-width: 1.0;"/><text fill="#000000" font-family="sans-serif" font-size="11" lengthAdjust="spacingAndGlyphs" textLength="65" x="26" y="63.4189">initTag(): void</text><ellipse cx="17" cy="74.2539" fill="#84BE84" rx="3" ry="3" style="stroke: #038048; stroke-width: 1.0;"/><text fill="#000000" font-family="sans-serif" font-size="11" lengthAdjust="spacingAndGlyphs" textLength="132" x="26" y="77.2549">setPageformat(String): void</text><ellipse cx="17" cy="88.0898" fill="#84BE84" rx="3" ry="3" style="stroke: #038048; stroke-width: 1.0;"/><text fill="#000000" font-family="sans-serif" font-size="11" lengthAdjust="spacingAndGlyphs" textLength="121" x="26" y="91.0908">setUrlformat(String): void</text><ellipse cx="17" cy="101.9258" fill="#84BE84" rx="3" ry="3" style="stroke: #038048; stroke-width: 1.0;"/><text fill="#000000" font-family="sans-serif" font-size="11" lengthAdjust="spacingAndGlyphs" textLength="149" x="26" y="104.9268">setMonthurlformat(String): void</text><ellipse cx="17" cy="115.7617" fill="#84BE84" rx="3" ry="3" style="stroke: #038048; stroke-width: 1.0;"/><text fill="#000000" font-family="sans-serif" font-size="11" lengthAdjust="spacingAndGlyphs" textLength="97" x="26" y="118.7627">doWikiStartTag(): int</text></a><text fill="#888888" font-family="sans-serif" font-size="10" lengthAdjust="spacingAndGlyphs" textLength="184" x="7.5" y="145.3809">UMLDoclet 1.1.4, PlantUML 1.2019.05</text><!--
@startuml

    class CalendarTag [[CalendarTag.html]] {
        +initTag(): void
        +setPageformat(String): void
        +setUrlformat(String): void
        +setMonthurlformat(String): void
        +doWikiStartTag(): int
    }


    center footer UMLDoclet 1.1.4, PlantUML 1.2019.05
@enduml

PlantUML version 1.2019.05(Sat Apr 20 18:45:36 CEST 2019)
(APACHE source distribution)
Java Runtime: OpenJDK Runtime Environment
JVM: OpenJDK 64-Bit Server VM
Java Version: 1.8.0_212-b03
Operating System: Windows 10
OS Version: 10.0
Default Encoding: Cp1252
Language: es
Country: ES
--></g></svg>