<?xml version="1.0" encoding="UTF-8" standalone="no"?><svg xmlns="http://www.w3.org/2000/svg" xmlns:xlink="http://www.w3.org/1999/xlink" contentScriptType="application/ecmascript" contentStyleType="text/css" height="200px" preserveAspectRatio="none" style="width:196px;height:200px;" version="1.1" viewBox="0 0 196 200" width="196px" zoomAndPan="magnify"><defs><filter height="300%" id="fo8soj6qbqt6z" width="300%" x="-1" y="-1"><feGaussianBlur result="blurOut" stdDeviation="2.0"/><feColorMatrix in="blurOut" result="blurOut2" type="matrix" values="0 0 0 0 0 0 0 0 0 0 0 0 0 0 0 0 0 0 .4 0"/><feOffset dx="4.0" dy="4.0" in="blurOut2" result="blurOut3"/><feBlend in="SourceGraphic" in2="blurOut3" mode="normal"/></filter></defs><g><!--class LinkToTag--><a href="LinkToTag.html" target="_top" xlink:actuate="onRequest" xlink:show="new" xlink:title="LinkToTag.html" xlink:type="simple"><rect fill="#FEFECE" filter="url(#fo8soj6qbqt6z)" height="158.6875" id="LinkToTag" style="stroke: #A80036; stroke-width: 1.5;" width="158" x="7" y="8"/><ellipse cx="52.75" cy="24" fill="#ADD1B2" rx="11" ry="11" style="stroke: #A80036; stroke-width: 1.0;"/><path d="M55.5156,19.875 Q55.6719,19.6563 55.8594,19.5469 Q56.0469,19.4375 56.2656,19.4375 Q56.6406,19.4375 56.875,19.6953 Q57.1094,19.9531 57.1094,20.5625 L57.1094,22.0156 Q57.1094,22.625 56.875,22.8906 Q56.6406,23.1563 56.2656,23.1563 Q55.9219,23.1563 55.7188,22.9531 Q55.5156,22.7656 55.4063,22.25 Q55.3594,21.8906 55.1719,21.7031 Q54.8438,21.3281 54.2344,21.1094 Q53.625,20.8906 53,20.8906 Q52.2344,20.8906 51.6016,21.2188 Q50.9688,21.5469 50.4766,22.2969 Q49.9844,23.0469 49.9844,24.0781 L49.9844,25.1719 Q49.9844,26.4063 50.875,27.2266 Q51.7656,28.0469 53.3594,28.0469 Q54.2969,28.0469 54.9531,27.7969 Q55.3438,27.6406 55.7656,27.2031 Q56.0313,26.9375 56.1797,26.8594 Q56.3281,26.7813 56.5313,26.7813 Q56.8594,26.7813 57.1172,27.0391 Q57.375,27.2969 57.375,27.6406 Q57.375,27.9844 57.0313,28.3906 Q56.5313,28.9688 55.7344,29.2969 Q54.6563,29.75 53.3594,29.75 Q51.8438,29.75 50.6406,29.125 Q49.6563,28.625 48.9688,27.5547 Q48.2813,26.4844 48.2813,25.2031 L48.2813,24.0469 Q48.2813,22.7188 48.8984,21.5703 Q49.5156,20.4219 50.6094,19.8047 Q51.7031,19.1875 52.9375,19.1875 Q53.6719,19.1875 54.3203,19.3516 Q54.9688,19.5156 55.5156,19.875 Z "/><text fill="#000000" font-family="sans-serif" font-size="12" lengthAdjust="spacingAndGlyphs" textLength="58" x="73.25" y="28.9102">LinkToTag</text><line style="stroke: #A80036; stroke-width: 1.5;" x1="8" x2="164" y1="40" y2="40"/><ellipse cx="18" cy="52.418" fill="none" rx="3" ry="3" style="stroke: #038048; stroke-width: 1.0;"/><text fill="#000000" font-family="sans-serif" font-size="11" lengthAdjust="spacingAndGlyphs" textLength="64" x="27" y="55.4189">m_title: String</text><ellipse cx="18" cy="66.2539" fill="none" rx="3" ry="3" style="stroke: #038048; stroke-width: 1.0;"/><text fill="#000000" font-family="sans-serif" font-size="11" lengthAdjust="spacingAndGlyphs" textLength="101" x="27" y="69.2549">m_accesskey: String</text><line style="stroke: #A80036; stroke-width: 1.5;" x1="8" x2="164" y1="75.6719" y2="75.6719"/><ellipse cx="18" cy="88.0898" fill="#84BE84" rx="3" ry="3" style="stroke: #038048; stroke-width: 1.0;"/><text fill="#000000" font-family="sans-serif" font-size="11" lengthAdjust="spacingAndGlyphs" textLength="65" x="27" y="91.0908">initTag(): void</text><ellipse cx="18" cy="101.9258" fill="#84BE84" rx="3" ry="3" style="stroke: #038048; stroke-width: 1.0;"/><text fill="#000000" font-family="sans-serif" font-size="11" lengthAdjust="spacingAndGlyphs" textLength="95" x="27" y="104.9268">getVersion(): String</text><ellipse cx="18" cy="115.7617" fill="#84BE84" rx="3" ry="3" style="stroke: #038048; stroke-width: 1.0;"/><text fill="#000000" font-family="sans-serif" font-size="11" lengthAdjust="spacingAndGlyphs" textLength="115" x="27" y="118.7627">setVersion(String): void</text><ellipse cx="18" cy="129.5977" fill="#84BE84" rx="3" ry="3" style="stroke: #038048; stroke-width: 1.0;"/><text fill="#000000" font-family="sans-serif" font-size="11" lengthAdjust="spacingAndGlyphs" textLength="96" x="27" y="132.5986">setTitle(String): void</text><ellipse cx="18" cy="143.4336" fill="#84BE84" rx="3" ry="3" style="stroke: #038048; stroke-width: 1.0;"/><text fill="#000000" font-family="sans-serif" font-size="11" lengthAdjust="spacingAndGlyphs" textLength="132" x="27" y="146.4346">setAccesskey(String): void</text><ellipse cx="18" cy="157.2695" fill="#84BE84" rx="3" ry="3" style="stroke: #038048; stroke-width: 1.0;"/><text fill="#000000" font-family="sans-serif" font-size="11" lengthAdjust="spacingAndGlyphs" textLength="97" x="27" y="160.2705">doWikiStartTag(): int</text></a><text fill="#888888" font-family="sans-serif" font-size="10" lengthAdjust="spacingAndGlyphs" textLength="184" x="0" y="187.3809">UMLDoclet 1.1.4, PlantUML 1.2019.05</text><!--
@startuml

    class LinkToTag [[LinkToTag.html]] {
        +m_title: String
        +m_accesskey: String
        +initTag(): void
        +getVersion(): String
        +setVersion(String): void
        +setTitle(String): void
        +setAccesskey(String): void
        +doWikiStartTag(): int
    }


    center footer UMLDoclet 1.1.4, PlantUML 1.2019.05
@enduml

PlantUML version 1.2019.05(Sat Apr 20 18:45:36 CEST 2019)
(APACHE source distribution)
Java Runtime: OpenJDK Runtime Environment
JVM: OpenJDK 64-Bit Server VM
Java Version: 1.8.0_212-b03
Operating System: Windows 10
OS Version: 10.0
Default Encoding: Cp1252
Language: es
Country: ES
--></g></svg>