<?xml version="1.0" encoding="UTF-8" standalone="no"?><svg xmlns="http://www.w3.org/2000/svg" xmlns:xlink="http://www.w3.org/1999/xlink" contentScriptType="application/ecmascript" contentStyleType="text/css" height="131px" preserveAspectRatio="none" style="width:196px;height:131px;" version="1.1" viewBox="0 0 196 131" width="196px" zoomAndPan="magnify"><defs><filter height="300%" id="f1v6rl9r49bc4s" width="300%" x="-1" y="-1"><feGaussianBlur result="blurOut" stdDeviation="2.0"/><feColorMatrix in="blurOut" result="blurOut2" type="matrix" values="0 0 0 0 0 0 0 0 0 0 0 0 0 0 0 0 0 0 .4 0"/><feOffset dx="4.0" dy="4.0" in="blurOut2" result="blurOut3"/><feBlend in="SourceGraphic" in2="blurOut3" mode="normal"/></filter></defs><g><!--class PermissionTag--><a href="PermissionTag.html" target="_top" xlink:actuate="onRequest" xlink:show="new" xlink:title="PermissionTag.html" xlink:type="simple"><rect fill="#FEFECE" filter="url(#f1v6rl9r49bc4s)" height="89.5078" id="PermissionTag" style="stroke: #A80036; stroke-width: 1.5;" width="155" x="8.5" y="8"/><ellipse cx="40.6" cy="24" fill="#ADD1B2" rx="11" ry="11" style="stroke: #A80036; stroke-width: 1.0;"/><path d="M43.3656,19.875 Q43.5219,19.6563 43.7094,19.5469 Q43.8969,19.4375 44.1156,19.4375 Q44.4906,19.4375 44.725,19.6953 Q44.9594,19.9531 44.9594,20.5625 L44.9594,22.0156 Q44.9594,22.625 44.725,22.8906 Q44.4906,23.1563 44.1156,23.1563 Q43.7719,23.1563 43.5688,22.9531 Q43.3656,22.7656 43.2563,22.25 Q43.2094,21.8906 43.0219,21.7031 Q42.6938,21.3281 42.0844,21.1094 Q41.475,20.8906 40.85,20.8906 Q40.0844,20.8906 39.4516,21.2188 Q38.8188,21.5469 38.3266,22.2969 Q37.8344,23.0469 37.8344,24.0781 L37.8344,25.1719 Q37.8344,26.4063 38.725,27.2266 Q39.6156,28.0469 41.2094,28.0469 Q42.1469,28.0469 42.8031,27.7969 Q43.1938,27.6406 43.6156,27.2031 Q43.8813,26.9375 44.0297,26.8594 Q44.1781,26.7813 44.3813,26.7813 Q44.7094,26.7813 44.9672,27.0391 Q45.225,27.2969 45.225,27.6406 Q45.225,27.9844 44.8813,28.3906 Q44.3813,28.9688 43.5844,29.2969 Q42.5063,29.75 41.2094,29.75 Q39.6938,29.75 38.4906,29.125 Q37.5063,28.625 36.8188,27.5547 Q36.1313,26.4844 36.1313,25.2031 L36.1313,24.0469 Q36.1313,22.7188 36.7484,21.5703 Q37.3656,20.4219 38.4594,19.8047 Q39.5531,19.1875 40.7875,19.1875 Q41.5219,19.1875 42.1703,19.3516 Q42.8188,19.5156 43.3656,19.875 Z "/><text fill="#000000" font-family="sans-serif" font-size="12" lengthAdjust="spacingAndGlyphs" textLength="85" x="58.4" y="28.9102">PermissionTag</text><line style="stroke: #A80036; stroke-width: 1.5;" x1="9.5" x2="162.5" y1="40" y2="40"/><line style="stroke: #A80036; stroke-width: 1.5;" x1="9.5" x2="162.5" y1="48" y2="48"/><ellipse cx="19.5" cy="60.418" fill="#84BE84" rx="3" ry="3" style="stroke: #038048; stroke-width: 1.0;"/><text fill="#000000" font-family="sans-serif" font-size="11" lengthAdjust="spacingAndGlyphs" textLength="65" x="28.5" y="63.4189">initTag(): void</text><ellipse cx="19.5" cy="74.2539" fill="#84BE84" rx="3" ry="3" style="stroke: #038048; stroke-width: 1.0;"/><text fill="#000000" font-family="sans-serif" font-size="11" lengthAdjust="spacingAndGlyphs" textLength="129" x="28.5" y="77.2549">setPermission(String): void</text><ellipse cx="19.5" cy="88.0898" fill="#84BE84" rx="3" ry="3" style="stroke: #038048; stroke-width: 1.0;"/><text fill="#000000" font-family="sans-serif" font-size="11" lengthAdjust="spacingAndGlyphs" textLength="97" x="28.5" y="91.0908">doWikiStartTag(): int</text></a><text fill="#888888" font-family="sans-serif" font-size="10" lengthAdjust="spacingAndGlyphs" textLength="184" x="0" y="118.3809">UMLDoclet 1.1.4, PlantUML 1.2019.05</text><!--
@startuml

    class PermissionTag [[PermissionTag.html]] {
        +initTag(): void
        +setPermission(String): void
        +doWikiStartTag(): int
    }


    center footer UMLDoclet 1.1.4, PlantUML 1.2019.05
@enduml

PlantUML version 1.2019.05(Sat Apr 20 18:45:36 CEST 2019)
(APACHE source distribution)
Java Runtime: OpenJDK Runtime Environment
JVM: OpenJDK 64-Bit Server VM
Java Version: 1.8.0_212-b03
Operating System: Windows 10
OS Version: 10.0
Default Encoding: Cp1252
Language: es
Country: ES
--></g></svg>