<?xml version="1.0" encoding="UTF-8" standalone="no"?><svg xmlns="http://www.w3.org/2000/svg" xmlns:xlink="http://www.w3.org/1999/xlink" contentScriptType="application/ecmascript" contentStyleType="text/css" height="172px" preserveAspectRatio="none" style="width:196px;height:172px;" version="1.1" viewBox="0 0 196 172" width="196px" zoomAndPan="magnify"><defs><filter height="300%" id="f19dtierdrwqw9" width="300%" x="-1" y="-1"><feGaussianBlur result="blurOut" stdDeviation="2.0"/><feColorMatrix in="blurOut" result="blurOut2" type="matrix" values="0 0 0 0 0 0 0 0 0 0 0 0 0 0 0 0 0 0 .4 0"/><feOffset dx="4.0" dy="4.0" in="blurOut2" result="blurOut3"/><feBlend in="SourceGraphic" in2="blurOut3" mode="normal"/></filter></defs><g><!--class RSSImageLinkTag--><a href="RSSImageLinkTag.html" target="_top" xlink:actuate="onRequest" xlink:show="new" xlink:title="RSSImageLinkTag.html" xlink:type="simple"><rect fill="#FEFECE" filter="url(#f19dtierdrwqw9)" height="131.0156" id="RSSImageLinkTag" style="stroke: #A80036; stroke-width: 1.5;" width="136" x="18" y="8"/><ellipse cx="33" cy="24" fill="#ADD1B2" rx="11" ry="11" style="stroke: #A80036; stroke-width: 1.0;"/><path d="M35.7656,19.875 Q35.9219,19.6563 36.1094,19.5469 Q36.2969,19.4375 36.5156,19.4375 Q36.8906,19.4375 37.125,19.6953 Q37.3594,19.9531 37.3594,20.5625 L37.3594,22.0156 Q37.3594,22.625 37.125,22.8906 Q36.8906,23.1563 36.5156,23.1563 Q36.1719,23.1563 35.9688,22.9531 Q35.7656,22.7656 35.6563,22.25 Q35.6094,21.8906 35.4219,21.7031 Q35.0938,21.3281 34.4844,21.1094 Q33.875,20.8906 33.25,20.8906 Q32.4844,20.8906 31.8516,21.2188 Q31.2188,21.5469 30.7266,22.2969 Q30.2344,23.0469 30.2344,24.0781 L30.2344,25.1719 Q30.2344,26.4063 31.125,27.2266 Q32.0156,28.0469 33.6094,28.0469 Q34.5469,28.0469 35.2031,27.7969 Q35.5938,27.6406 36.0156,27.2031 Q36.2813,26.9375 36.4297,26.8594 Q36.5781,26.7813 36.7813,26.7813 Q37.1094,26.7813 37.3672,27.0391 Q37.625,27.2969 37.625,27.6406 Q37.625,27.9844 37.2813,28.3906 Q36.7813,28.9688 35.9844,29.2969 Q34.9063,29.75 33.6094,29.75 Q32.0938,29.75 30.8906,29.125 Q29.9063,28.625 29.2188,27.5547 Q28.5313,26.4844 28.5313,25.2031 L28.5313,24.0469 Q28.5313,22.7188 29.1484,21.5703 Q29.7656,20.4219 30.8594,19.8047 Q31.9531,19.1875 33.1875,19.1875 Q33.9219,19.1875 34.5703,19.3516 Q35.2188,19.5156 35.7656,19.875 Z "/><text fill="#000000" font-family="sans-serif" font-size="12" lengthAdjust="spacingAndGlyphs" textLength="104" x="47" y="28.9102">RSSImageLinkTag</text><line style="stroke: #A80036; stroke-width: 1.5;" x1="19" x2="153" y1="40" y2="40"/><polygon fill="none" points="29,47.418,33,51.418,29,55.418,25,51.418" style="stroke: #B38D22; stroke-width: 1.0;"/><text fill="#000000" font-family="sans-serif" font-size="11" lengthAdjust="spacingAndGlyphs" textLength="64" x="38" y="55.4189">m_title: String</text><line style="stroke: #A80036; stroke-width: 1.5;" x1="19" x2="153" y1="61.8359" y2="61.8359"/><ellipse cx="29" cy="74.2539" fill="#84BE84" rx="3" ry="3" style="stroke: #038048; stroke-width: 1.0;"/><text fill="#000000" font-family="sans-serif" font-size="11" lengthAdjust="spacingAndGlyphs" textLength="65" x="38" y="77.2549">initTag(): void</text><ellipse cx="29" cy="88.0898" fill="#84BE84" rx="3" ry="3" style="stroke: #038048; stroke-width: 1.0;"/><text fill="#000000" font-family="sans-serif" font-size="11" lengthAdjust="spacingAndGlyphs" textLength="96" x="38" y="91.0908">setTitle(String): void</text><ellipse cx="29" cy="101.9258" fill="#84BE84" rx="3" ry="3" style="stroke: #038048; stroke-width: 1.0;"/><text fill="#000000" font-family="sans-serif" font-size="11" lengthAdjust="spacingAndGlyphs" textLength="103" x="38" y="104.9268">setMode(String): void</text><ellipse cx="29" cy="115.7617" fill="#84BE84" rx="3" ry="3" style="stroke: #038048; stroke-width: 1.0;"/><text fill="#000000" font-family="sans-serif" font-size="11" lengthAdjust="spacingAndGlyphs" textLength="76" x="38" y="118.7627">getTitle(): String</text><ellipse cx="29" cy="129.5977" fill="#84BE84" rx="3" ry="3" style="stroke: #038048; stroke-width: 1.0;"/><text fill="#000000" font-family="sans-serif" font-size="11" lengthAdjust="spacingAndGlyphs" textLength="97" x="38" y="132.5986">doWikiStartTag(): int</text></a><text fill="#888888" font-family="sans-serif" font-size="10" lengthAdjust="spacingAndGlyphs" textLength="184" x="0" y="159.3809">UMLDoclet 1.1.4, PlantUML 1.2019.05</text><!--
@startuml

    class RSSImageLinkTag [[RSSImageLinkTag.html]] {
        #m_title: String
        +initTag(): void
        +setTitle(String): void
        +setMode(String): void
        +getTitle(): String
        +doWikiStartTag(): int
    }


    center footer UMLDoclet 1.1.4, PlantUML 1.2019.05
@enduml

PlantUML version 1.2019.05(Sat Apr 20 18:45:36 CEST 2019)
(APACHE source distribution)
Java Runtime: OpenJDK Runtime Environment
JVM: OpenJDK 64-Bit Server VM
Java Version: 1.8.0_212-b03
Operating System: Windows 10
OS Version: 10.0
Default Encoding: Cp1252
Language: es
Country: ES
--></g></svg>