<?xml version="1.0" encoding="UTF-8" standalone="no"?><svg xmlns="http://www.w3.org/2000/svg" xmlns:xlink="http://www.w3.org/1999/xlink" contentScriptType="application/ecmascript" contentStyleType="text/css" height="214px" preserveAspectRatio="none" style="width:196px;height:214px;" version="1.1" viewBox="0 0 196 214" width="196px" zoomAndPan="magnify"><defs><filter height="300%" id="f1f7imzziomw9a" width="300%" x="-1" y="-1"><feGaussianBlur result="blurOut" stdDeviation="2.0"/><feColorMatrix in="blurOut" result="blurOut2" type="matrix" values="0 0 0 0 0 0 0 0 0 0 0 0 0 0 0 0 0 0 .4 0"/><feOffset dx="4.0" dy="4.0" in="blurOut2" result="blurOut3"/><feBlend in="SourceGraphic" in2="blurOut3" mode="normal"/></filter></defs><g><!--class SetPaginationTag--><a href="SetPaginationTag.html" target="_top" xlink:actuate="onRequest" xlink:show="new" xlink:title="SetPaginationTag.html" xlink:type="simple"><rect fill="#FEFECE" filter="url(#f1f7imzziomw9a)" height="172.5234" id="SetPaginationTag" style="stroke: #A80036; stroke-width: 1.5;" width="138" x="17" y="8"/><ellipse cx="35.6" cy="24" fill="#ADD1B2" rx="11" ry="11" style="stroke: #A80036; stroke-width: 1.0;"/><path d="M38.3656,19.875 Q38.5219,19.6563 38.7094,19.5469 Q38.8969,19.4375 39.1156,19.4375 Q39.4906,19.4375 39.725,19.6953 Q39.9594,19.9531 39.9594,20.5625 L39.9594,22.0156 Q39.9594,22.625 39.725,22.8906 Q39.4906,23.1563 39.1156,23.1563 Q38.7719,23.1563 38.5688,22.9531 Q38.3656,22.7656 38.2563,22.25 Q38.2094,21.8906 38.0219,21.7031 Q37.6938,21.3281 37.0844,21.1094 Q36.475,20.8906 35.85,20.8906 Q35.0844,20.8906 34.4516,21.2188 Q33.8188,21.5469 33.3266,22.2969 Q32.8344,23.0469 32.8344,24.0781 L32.8344,25.1719 Q32.8344,26.4063 33.725,27.2266 Q34.6156,28.0469 36.2094,28.0469 Q37.1469,28.0469 37.8031,27.7969 Q38.1938,27.6406 38.6156,27.2031 Q38.8813,26.9375 39.0297,26.8594 Q39.1781,26.7813 39.3813,26.7813 Q39.7094,26.7813 39.9672,27.0391 Q40.225,27.2969 40.225,27.6406 Q40.225,27.9844 39.8813,28.3906 Q39.3813,28.9688 38.5844,29.2969 Q37.5063,29.75 36.2094,29.75 Q34.6938,29.75 33.4906,29.125 Q32.5063,28.625 31.8188,27.5547 Q31.1313,26.4844 31.1313,25.2031 L31.1313,24.0469 Q31.1313,22.7188 31.7484,21.5703 Q32.3656,20.4219 33.4594,19.8047 Q34.5531,19.1875 35.7875,19.1875 Q36.5219,19.1875 37.1703,19.3516 Q37.8188,19.5156 38.3656,19.875 Z "/><text fill="#000000" font-family="sans-serif" font-size="12" lengthAdjust="spacingAndGlyphs" textLength="98" x="50.4" y="28.9102">SetPaginationTag</text><line style="stroke: #A80036; stroke-width: 1.5;" x1="18" x2="154" y1="40" y2="40"/><line style="stroke: #A80036; stroke-width: 1.5;" x1="18" x2="154" y1="48" y2="48"/><ellipse cx="28" cy="60.418" fill="#84BE84" rx="3" ry="3" style="stroke: #038048; stroke-width: 1.0;"/><text fill="#000000" font-family="sans-serif" font-size="11" lengthAdjust="spacingAndGlyphs" textLength="65" x="37" y="63.4189">initTag(): void</text><ellipse cx="28" cy="74.2539" fill="#84BE84" rx="3" ry="3" style="stroke: #038048; stroke-width: 1.0;"/><text fill="#000000" font-family="sans-serif" font-size="11" lengthAdjust="spacingAndGlyphs" textLength="83" x="37" y="77.2549">setStart(int): void</text><ellipse cx="28" cy="88.0898" fill="#84BE84" rx="3" ry="3" style="stroke: #038048; stroke-width: 1.0;"/><text fill="#000000" font-family="sans-serif" font-size="11" lengthAdjust="spacingAndGlyphs" textLength="83" x="37" y="91.0908">setTotal(int): void</text><ellipse cx="28" cy="101.9258" fill="#84BE84" rx="3" ry="3" style="stroke: #038048; stroke-width: 1.0;"/><text fill="#000000" font-family="sans-serif" font-size="11" lengthAdjust="spacingAndGlyphs" textLength="104" x="37" y="104.9268">setPagesize(int): void</text><ellipse cx="28" cy="115.7617" fill="#84BE84" rx="3" ry="3" style="stroke: #038048; stroke-width: 1.0;"/><text fill="#000000" font-family="sans-serif" font-size="11" lengthAdjust="spacingAndGlyphs" textLength="101" x="37" y="118.7627">setMaxlinks(int): void</text><ellipse cx="28" cy="129.5977" fill="#84BE84" rx="3" ry="3" style="stroke: #038048; stroke-width: 1.0;"/><text fill="#000000" font-family="sans-serif" font-size="11" lengthAdjust="spacingAndGlyphs" textLength="111" x="37" y="132.5986">setFmtkey(String): void</text><ellipse cx="28" cy="143.4336" fill="#84BE84" rx="3" ry="3" style="stroke: #038048; stroke-width: 1.0;"/><text fill="#000000" font-family="sans-serif" font-size="11" lengthAdjust="spacingAndGlyphs" textLength="98" x="37" y="146.4346">setHref(String): void</text><ellipse cx="28" cy="157.2695" fill="#84BE84" rx="3" ry="3" style="stroke: #038048; stroke-width: 1.0;"/><text fill="#000000" font-family="sans-serif" font-size="11" lengthAdjust="spacingAndGlyphs" textLength="112" x="37" y="160.2705">setOnclick(String): void</text><ellipse cx="28" cy="171.1055" fill="#84BE84" rx="3" ry="3" style="stroke: #038048; stroke-width: 1.0;"/><text fill="#000000" font-family="sans-serif" font-size="11" lengthAdjust="spacingAndGlyphs" textLength="97" x="37" y="174.1064">doWikiStartTag(): int</text></a><text fill="#888888" font-family="sans-serif" font-size="10" lengthAdjust="spacingAndGlyphs" textLength="184" x="0" y="201.3809">UMLDoclet 1.1.4, PlantUML 1.2019.05</text><!--
@startuml

    class SetPaginationTag [[SetPaginationTag.html]] {
        +initTag(): void
        +setStart(int): void
        +setTotal(int): void
        +setPagesize(int): void
        +setMaxlinks(int): void
        +setFmtkey(String): void
        +setHref(String): void
        +setOnclick(String): void
        +doWikiStartTag(): int
    }


    center footer UMLDoclet 1.1.4, PlantUML 1.2019.05
@enduml

PlantUML version 1.2019.05(Sat Apr 20 18:45:36 CEST 2019)
(APACHE source distribution)
Java Runtime: OpenJDK Runtime Environment
JVM: OpenJDK 64-Bit Server VM
Java Version: 1.8.0_212-b03
Operating System: Windows 10
OS Version: 10.0
Default Encoding: Cp1252
Language: es
Country: ES
--></g></svg>