<?xml version="1.0" encoding="UTF-8" standalone="no"?><svg xmlns="http://www.w3.org/2000/svg" xmlns:xlink="http://www.w3.org/1999/xlink" contentScriptType="application/ecmascript" contentStyleType="text/css" height="172px" preserveAspectRatio="none" style="width:206px;height:172px;" version="1.1" viewBox="0 0 206 172" width="206px" zoomAndPan="magnify"><defs><filter height="300%" id="f3y2quehdh5sg" width="300%" x="-1" y="-1"><feGaussianBlur result="blurOut" stdDeviation="2.0"/><feColorMatrix in="blurOut" result="blurOut2" type="matrix" values="0 0 0 0 0 0 0 0 0 0 0 0 0 0 0 0 0 0 .4 0"/><feOffset dx="4.0" dy="4.0" in="blurOut2" result="blurOut3"/><feBlend in="SourceGraphic" in2="blurOut3" mode="normal"/></filter></defs><g><!--class UserProfileTag--><a href="UserProfileTag.html" target="_top" xlink:actuate="onRequest" xlink:show="new" xlink:title="UserProfileTag.html" xlink:type="simple"><rect fill="#FEFECE" filter="url(#f3y2quehdh5sg)" height="131.0156" id="UserProfileTag" style="stroke: #A80036; stroke-width: 1.5;" width="181" x="6" y="8"/><ellipse cx="50.75" cy="24" fill="#ADD1B2" rx="11" ry="11" style="stroke: #A80036; stroke-width: 1.0;"/><path d="M53.5156,19.875 Q53.6719,19.6563 53.8594,19.5469 Q54.0469,19.4375 54.2656,19.4375 Q54.6406,19.4375 54.875,19.6953 Q55.1094,19.9531 55.1094,20.5625 L55.1094,22.0156 Q55.1094,22.625 54.875,22.8906 Q54.6406,23.1563 54.2656,23.1563 Q53.9219,23.1563 53.7188,22.9531 Q53.5156,22.7656 53.4063,22.25 Q53.3594,21.8906 53.1719,21.7031 Q52.8438,21.3281 52.2344,21.1094 Q51.625,20.8906 51,20.8906 Q50.2344,20.8906 49.6016,21.2188 Q48.9688,21.5469 48.4766,22.2969 Q47.9844,23.0469 47.9844,24.0781 L47.9844,25.1719 Q47.9844,26.4063 48.875,27.2266 Q49.7656,28.0469 51.3594,28.0469 Q52.2969,28.0469 52.9531,27.7969 Q53.3438,27.6406 53.7656,27.2031 Q54.0313,26.9375 54.1797,26.8594 Q54.3281,26.7813 54.5313,26.7813 Q54.8594,26.7813 55.1172,27.0391 Q55.375,27.2969 55.375,27.6406 Q55.375,27.9844 55.0313,28.3906 Q54.5313,28.9688 53.7344,29.2969 Q52.6563,29.75 51.3594,29.75 Q49.8438,29.75 48.6406,29.125 Q47.6563,28.625 46.9688,27.5547 Q46.2813,26.4844 46.2813,25.2031 L46.2813,24.0469 Q46.2813,22.7188 46.8984,21.5703 Q47.5156,20.4219 48.6094,19.8047 Q49.7031,19.1875 50.9375,19.1875 Q51.6719,19.1875 52.3203,19.3516 Q52.9688,19.5156 53.5156,19.875 Z "/><text fill="#000000" font-family="sans-serif" font-size="12" lengthAdjust="spacingAndGlyphs" textLength="83" x="71.25" y="28.9102">UserProfileTag</text><line style="stroke: #A80036; stroke-width: 1.5;" x1="7" x2="186" y1="40" y2="40"/><ellipse cx="17" cy="52.418" fill="none" rx="3" ry="3" style="stroke: #038048; stroke-width: 1.0;"/><text fill="#000000" font-family="sans-serif" font-size="11" lengthAdjust="spacingAndGlyphs" text-decoration="underline" textLength="69" x="26" y="55.4189">BLANK: String</text><line style="stroke: #A80036; stroke-width: 1.5;" x1="7" x2="186" y1="61.8359" y2="61.8359"/><ellipse cx="17" cy="74.2539" fill="#84BE84" rx="3" ry="3" style="stroke: #038048; stroke-width: 1.0;"/><text fill="#000000" font-family="sans-serif" font-size="11" lengthAdjust="spacingAndGlyphs" textLength="65" x="26" y="77.2549">initTag(): void</text><ellipse cx="17" cy="88.0898" fill="#84BE84" rx="3" ry="3" style="stroke: #038048; stroke-width: 1.0;"/><text fill="#000000" font-family="sans-serif" font-size="11" lengthAdjust="spacingAndGlyphs" textLength="97" x="26" y="91.0908">doWikiStartTag(): int</text><ellipse cx="17" cy="101.9258" fill="#84BE84" rx="3" ry="3" style="stroke: #038048; stroke-width: 1.0;"/><text fill="#000000" font-family="sans-serif" font-size="11" lengthAdjust="spacingAndGlyphs" textLength="118" x="26" y="104.9268">setProperty(String): void</text><ellipse cx="17" cy="115.7617" fill="#84BE84" rx="3" ry="3" style="stroke: #038048; stroke-width: 1.0;"/><text fill="#000000" font-family="sans-serif" font-size="11" lengthAdjust="spacingAndGlyphs" text-decoration="underline" textLength="155" x="26" y="118.7627">printGroups(WikiContext): String</text><ellipse cx="17" cy="129.5977" fill="#84BE84" rx="3" ry="3" style="stroke: #038048; stroke-width: 1.0;"/><text fill="#000000" font-family="sans-serif" font-size="11" lengthAdjust="spacingAndGlyphs" text-decoration="underline" textLength="146" x="26" y="132.5986">printRoles(WikiContext): String</text></a><text fill="#888888" font-family="sans-serif" font-size="10" lengthAdjust="spacingAndGlyphs" textLength="184" x="10.5" y="159.3809">UMLDoclet 1.1.4, PlantUML 1.2019.05</text><!--
@startuml

    class UserProfileTag [[UserProfileTag.html]] {
        {static} +BLANK: String
        +initTag(): void
        +doWikiStartTag(): int
        +setProperty(String): void
        {static} +printGroups(WikiContext): String
        {static} +printRoles(WikiContext): String
    }


    center footer UMLDoclet 1.1.4, PlantUML 1.2019.05
@enduml

PlantUML version 1.2019.05(Sat Apr 20 18:45:36 CEST 2019)
(APACHE source distribution)
Java Runtime: OpenJDK Runtime Environment
JVM: OpenJDK 64-Bit Server VM
Java Version: 1.8.0_212-b03
Operating System: Windows 10
OS Version: 10.0
Default Encoding: Cp1252
Language: es
Country: ES
--></g></svg>