<?xml version="1.0" encoding="UTF-8" standalone="no"?><svg xmlns="http://www.w3.org/2000/svg" xmlns:xlink="http://www.w3.org/1999/xlink" contentScriptType="application/ecmascript" contentStyleType="text/css" height="379px" preserveAspectRatio="none" style="width:361px;height:379px;" version="1.1" viewBox="0 0 361 379" width="361px" zoomAndPan="magnify"><defs><filter height="300%" id="fsvie055qm14a" width="300%" x="-1" y="-1"><feGaussianBlur result="blurOut" stdDeviation="2.0"/><feColorMatrix in="blurOut" result="blurOut2" type="matrix" values="0 0 0 0 0 0 0 0 0 0 0 0 0 0 0 0 0 0 .4 0"/><feOffset dx="4.0" dy="4.0" in="blurOut2" result="blurOut3"/><feBlend in="SourceGraphic" in2="blurOut3" mode="normal"/></filter></defs><g><!--MD5=[432f95c546818ac812fdf9c17b206998]
class org.apache.wiki.ui.DefaultCommandResolver--><a href="DefaultCommandResolver.html" target="_top" title="DefaultCommandResolver.html" xlink:actuate="onRequest" xlink:href="DefaultCommandResolver.html" xlink:show="new" xlink:title="DefaultCommandResolver.html" xlink:type="simple"><rect codeLine="5" fill="#FEFECE" filter="url(#fsvie055qm14a)" height="158.875" id="org.apache.wiki.ui.DefaultCommandResolver" style="stroke: #A80036; stroke-width: 1.5;" width="326" x="11.5" y="184"/><ellipse cx="87.75" cy="204.0938" fill="#ADD1B2" rx="11" ry="11" style="stroke: #A80036; stroke-width: 1.0;"/><path d="M90.5156,199.9688 Q90.6719,199.75 90.8594,199.6406 Q91.0469,199.5313 91.2656,199.5313 Q91.6406,199.5313 91.875,199.7969 Q92.1094,200.0469 92.1094,200.6563 L92.1094,202.1094 Q92.1094,202.7188 91.875,202.9844 Q91.6406,203.25 91.2656,203.25 Q90.9219,203.25 90.7188,203.0469 Q90.5156,202.8594 90.4063,202.3438 Q90.3594,201.9844 90.1719,201.7969 Q89.8438,201.4219 89.2344,201.2031 Q88.625,200.9844 88,200.9844 Q87.2344,200.9844 86.5938,201.3125 Q85.9688,201.6406 85.4688,202.3906 Q84.9844,203.1406 84.9844,204.1719 L84.9844,205.2656 Q84.9844,206.5 85.875,207.3281 Q86.7656,208.1406 88.3594,208.1406 Q89.2969,208.1406 89.9531,207.8906 Q90.3438,207.7344 90.7656,207.2969 Q91.0313,207.0313 91.1719,206.9531 Q91.3281,206.875 91.5313,206.875 Q91.8594,206.875 92.1094,207.1406 Q92.375,207.3906 92.375,207.7344 Q92.375,208.0781 92.0313,208.4844 Q91.5313,209.0625 90.7344,209.3906 Q89.6563,209.8438 88.3594,209.8438 Q86.8438,209.8438 85.6406,209.2188 Q84.6563,208.7188 83.9688,207.6563 Q83.2813,206.5781 83.2813,205.2969 L83.2813,204.1406 Q83.2813,202.8125 83.8906,201.6719 Q84.5156,200.5156 85.6094,199.9063 Q86.7031,199.2813 87.9375,199.2813 Q88.6719,199.2813 89.3125,199.4531 Q89.9688,199.6094 90.5156,199.9688 Z "/><text fill="#000000" font-family="sans-serif" font-size="14" lengthAdjust="spacingAndGlyphs" textLength="165" x="108.25" y="203.5332">DefaultCommandResolver</text><text fill="#000000" font-family="sans-serif" font-size="10" lengthAdjust="spacingAndGlyphs" textLength="86" x="147.75" y="216.9902">org.apache.wiki.ui</text><line style="stroke: #A80036; stroke-width: 1.5;" x1="12.5" x2="336.5" y1="224.1875" y2="224.1875"/><ellipse cx="22.5" cy="235.1875" fill="#84BE84" rx="3" ry="3" style="stroke: #038048; stroke-width: 1.0;"/><text fill="#000000" font-family="sans-serif" font-size="11" lengthAdjust="spacingAndGlyphs" textLength="219" x="31.5" y="239.6064">DefaultCommandResolver(Engine, Properties)</text><ellipse cx="22.5" cy="249.0234" fill="#84BE84" rx="3" ry="3" style="stroke: #038048; stroke-width: 1.0;"/><text fill="#000000" font-family="sans-serif" font-size="11" lengthAdjust="spacingAndGlyphs" textLength="253" x="31.5" y="253.4424">findCommand(HttpServletRequest, String): Command</text><ellipse cx="22.5" cy="262.8594" fill="#84BE84" rx="3" ry="3" style="stroke: #038048; stroke-width: 1.0;"/><text fill="#000000" font-family="sans-serif" font-size="11" lengthAdjust="spacingAndGlyphs" textLength="158" x="31.5" y="267.2783">getFinalPageName(String): String</text><ellipse cx="22.5" cy="276.6953" fill="#84BE84" rx="3" ry="3" style="stroke: #038048; stroke-width: 1.0;"/><text fill="#000000" font-family="sans-serif" font-size="11" lengthAdjust="spacingAndGlyphs" textLength="195" x="31.5" y="281.1143">getSpecialPageReference(String): String</text><polygon fill="#FFFF44" points="22.5,285.5313,26.5,289.5313,22.5,293.5313,18.5,289.5313" style="stroke: #B38D22; stroke-width: 1.0;"/><text fill="#000000" font-family="sans-serif" font-size="11" lengthAdjust="spacingAndGlyphs" textLength="280" x="31.5" y="294.9502">extractCommandFromPath(HttpServletRequest): Command</text><ellipse cx="22.5" cy="304.3672" fill="#84BE84" rx="3" ry="3" style="stroke: #038048; stroke-width: 1.0;"/><text fill="#000000" font-family="sans-serif" font-size="11" lengthAdjust="spacingAndGlyphs" textLength="300" x="31.5" y="308.7861">extractPageFromParameter(String, HttpServletRequest): String</text><ellipse cx="22.5" cy="318.2031" fill="#84BE84" rx="3" ry="3" style="stroke: #038048; stroke-width: 1.0;"/><text fill="#000000" font-family="sans-serif" font-size="11" lengthAdjust="spacingAndGlyphs" textLength="225" x="31.5" y="322.6221">resolvePage(HttpServletRequest, String): Page</text><polygon fill="#FFFF44" points="22.5,327.0391,26.5,331.0391,22.5,335.0391,18.5,331.0391" style="stroke: #B38D22; stroke-width: 1.0;"/><text fill="#000000" font-family="sans-serif" font-size="11" lengthAdjust="spacingAndGlyphs" textLength="163" x="31.5" y="336.458">simplePageExists(String): boolean</text></a><!--MD5=[27452c966d66ed20d76dfc80a8e49e42]
class org.apache.wiki.ui.CommandResolver--><a href="CommandResolver.html" target="_top" title="CommandResolver.html" xlink:actuate="onRequest" xlink:href="CommandResolver.html" xlink:show="new" xlink:title="CommandResolver.html" xlink:type="simple"><rect codeLine="16" fill="#FEFECE" filter="url(#fsvie055qm14a)" height="117.3672" id="org.apache.wiki.ui.CommandResolver" style="stroke: #A80036; stroke-width: 1.5;" width="335" x="7" y="7"/><ellipse cx="110.75" cy="27.0938" fill="#B4A7E5" rx="11" ry="11" style="stroke: #A80036; stroke-width: 1.0;"/><path d="M111.7031,23.7344 L111.7031,30.3906 L113.4219,30.3906 Q114.0313,30.3906 114.2969,30.625 Q114.5625,30.8594 114.5625,31.25 Q114.5625,31.625 114.2969,31.8594 Q114.0313,32.0938 113.4219,32.0938 L108.2813,32.0938 Q107.6719,32.0938 107.4063,31.8594 Q107.1406,31.625 107.1406,31.2344 Q107.1406,30.8594 107.4063,30.625 Q107.6719,30.3906 108.2813,30.3906 L110,30.3906 L110,23.7344 L108.2813,23.7344 Q107.6719,23.7344 107.4063,23.5 Q107.1406,23.2656 107.1406,22.875 Q107.1406,22.5 107.4063,22.2656 Q107.6719,22.0313 108.2813,22.0313 L113.4219,22.0313 Q114.0313,22.0313 114.2969,22.2656 Q114.5625,22.5 114.5625,22.875 Q114.5625,23.2656 114.2969,23.5 Q114.0313,23.7344 113.4219,23.7344 L111.7031,23.7344 Z "/><text fill="#000000" font-family="sans-serif" font-size="14" font-style="italic" lengthAdjust="spacingAndGlyphs" textLength="119" x="131.25" y="26.5332">CommandResolver</text><text fill="#000000" font-family="sans-serif" font-size="10" font-style="italic" lengthAdjust="spacingAndGlyphs" textLength="87" x="147.25" y="39.9902">org.apache.wiki.ui</text><line style="stroke: #A80036; stroke-width: 1.5;" x1="8" x2="341" y1="47.1875" y2="47.1875"/><ellipse cx="18" cy="58.1875" fill="#84BE84" rx="3" ry="3" style="stroke: #038048; stroke-width: 1.0;"/><text fill="#000000" font-family="sans-serif" font-size="11" font-style="italic" lengthAdjust="spacingAndGlyphs" textLength="262" x="27" y="62.6064">findCommand(HttpServletRequest, String): Command</text><ellipse cx="18" cy="72.0234" fill="#84BE84" rx="3" ry="3" style="stroke: #038048; stroke-width: 1.0;"/><text fill="#000000" font-family="sans-serif" font-size="11" font-style="italic" lengthAdjust="spacingAndGlyphs" textLength="166" x="27" y="76.4424">getFinalPageName(String): String</text><ellipse cx="18" cy="85.8594" fill="#84BE84" rx="3" ry="3" style="stroke: #038048; stroke-width: 1.0;"/><text fill="#000000" font-family="sans-serif" font-size="11" font-style="italic" lengthAdjust="spacingAndGlyphs" textLength="200" x="27" y="90.2783">getSpecialPageReference(String): String</text><ellipse cx="18" cy="99.6953" fill="#84BE84" rx="3" ry="3" style="stroke: #038048; stroke-width: 1.0;"/><text fill="#000000" font-family="sans-serif" font-size="11" font-style="italic" lengthAdjust="spacingAndGlyphs" textLength="309" x="27" y="104.1143">extractPageFromParameter(String, HttpServletRequest): String</text><ellipse cx="18" cy="113.5313" fill="#84BE84" rx="3" ry="3" style="stroke: #038048; stroke-width: 1.0;"/><text fill="#000000" font-family="sans-serif" font-size="11" font-style="italic" lengthAdjust="spacingAndGlyphs" textLength="230" x="27" y="117.9502">resolvePage(HttpServletRequest, String): Page</text></a><!--MD5=[b5e9b3eca88e642ff6268fe31c557d62]
reverse link org.apache.wiki.ui.CommandResolver to org.apache.wiki.ui.DefaultCommandResolver--><path codeLine="24" d="M174.5,144.54 C174.5,157.4522 174.5,170.8371 174.5,183.766 " fill="none" id="org.apache.wiki.ui.CommandResolver-backto-org.apache.wiki.ui.DefaultCommandResolver" style="stroke: #A80036; stroke-width: 1.0; stroke-dasharray: 7.0,7.0;"/><polygon fill="none" points="167.5001,144.1029,174.5,124.1029,181.5001,144.1028,167.5001,144.1029" style="stroke: #A80036; stroke-width: 1.0;"/><text fill="#888888" font-family="sans-serif" font-size="10" lengthAdjust="spacingAndGlyphs" textLength="190" x="76.5" y="366.2559">UMLDoclet 2.0.12, PlantUML 1.2020.16</text><!--MD5=[a40f5240a5d109fa747ae117ac94b238]
@startuml
    set namespaceSeparator none
    hide empty fields
    hide empty methods

    class "<size:14>DefaultCommandResolver\n<size:10>org.apache.wiki.ui" as org.apache.wiki.ui.DefaultCommandResolver [[DefaultCommandResolver.html]] {
        +DefaultCommandResolver(Engine, Properties)
        +findCommand(HttpServletRequest, String): Command
        +getFinalPageName(String): String
        +getSpecialPageReference(String): String
        #extractCommandFromPath(HttpServletRequest): Command
        +extractPageFromParameter(String, HttpServletRequest): String
        +resolvePage(HttpServletRequest, String): Page
        #simplePageExists(String): boolean
    }

    interface "<size:14>CommandResolver\n<size:10>org.apache.wiki.ui" as org.apache.wiki.ui.CommandResolver [[CommandResolver.html]] {
        {abstract} +findCommand(HttpServletRequest, String): Command
        {abstract} +getFinalPageName(String): String
        {abstract} +getSpecialPageReference(String): String
        {abstract} +extractPageFromParameter(String, HttpServletRequest): String
        {abstract} +resolvePage(HttpServletRequest, String): Page
    }

    org.apache.wiki.ui.CommandResolver <|.. org.apache.wiki.ui.DefaultCommandResolver

    center footer UMLDoclet 2.0.12, PlantUML 1.2020.16
@enduml

PlantUML version 1.2020.16(Sun Aug 23 22:20:43 CEST 2020)
(APACHE source distribution)
Java Runtime: OpenJDK Runtime Environment
JVM: OpenJDK 64-Bit Server VM
Default Encoding: Cp1252
Language: es
Country: ES
--></g></svg>