<?xml version="1.0" encoding="UTF-8" standalone="no"?><svg xmlns="http://www.w3.org/2000/svg" xmlns:xlink="http://www.w3.org/1999/xlink" contentScriptType="application/ecmascript" contentStyleType="text/css" height="338px" preserveAspectRatio="none" style="width:409px;height:338px;" version="1.1" viewBox="0 0 409 338" width="409px" zoomAndPan="magnify"><defs><filter height="300%" id="f1wah3ym2vje3n" width="300%" x="-1" y="-1"><feGaussianBlur result="blurOut" stdDeviation="2.0"/><feColorMatrix in="blurOut" result="blurOut2" type="matrix" values="0 0 0 0 0 0 0 0 0 0 0 0 0 0 0 0 0 0 .4 0"/><feOffset dx="4.0" dy="4.0" in="blurOut2" result="blurOut3"/><feBlend in="SourceGraphic" in2="blurOut3" mode="normal"/></filter></defs><g><!--MD5=[8bb43ef52b4639c155ff760bff9ee861]
class org.apache.wiki.ui.DefaultEditorManager--><a href="DefaultEditorManager.html" target="_top" title="DefaultEditorManager.html" xlink:actuate="onRequest" xlink:href="DefaultEditorManager.html" xlink:show="new" xlink:title="DefaultEditorManager.html" xlink:type="simple"><rect codeLine="5" fill="#FEFECE" filter="url(#f1wah3ym2vje3n)" height="145.0391" id="org.apache.wiki.ui.DefaultEditorManager" style="stroke: #A80036; stroke-width: 1.5;" width="209" x="90.5" y="157"/><ellipse cx="123.05" cy="177.0938" fill="#ADD1B2" rx="11" ry="11" style="stroke: #A80036; stroke-width: 1.0;"/><path d="M125.8156,172.9688 Q125.9719,172.75 126.1594,172.6406 Q126.3469,172.5313 126.5656,172.5313 Q126.9406,172.5313 127.175,172.7969 Q127.4094,173.0469 127.4094,173.6563 L127.4094,175.1094 Q127.4094,175.7188 127.175,175.9844 Q126.9406,176.25 126.5656,176.25 Q126.2219,176.25 126.0188,176.0469 Q125.8156,175.8594 125.7063,175.3438 Q125.6594,174.9844 125.4719,174.7969 Q125.1438,174.4219 124.5344,174.2031 Q123.925,173.9844 123.3,173.9844 Q122.5344,173.9844 121.8938,174.3125 Q121.2688,174.6406 120.7688,175.3906 Q120.2844,176.1406 120.2844,177.1719 L120.2844,178.2656 Q120.2844,179.5 121.175,180.3281 Q122.0656,181.1406 123.6594,181.1406 Q124.5969,181.1406 125.2531,180.8906 Q125.6438,180.7344 126.0656,180.2969 Q126.3313,180.0313 126.4719,179.9531 Q126.6281,179.875 126.8313,179.875 Q127.1594,179.875 127.4094,180.1406 Q127.675,180.3906 127.675,180.7344 Q127.675,181.0781 127.3313,181.4844 Q126.8313,182.0625 126.0344,182.3906 Q124.9563,182.8438 123.6594,182.8438 Q122.1438,182.8438 120.9406,182.2188 Q119.9563,181.7188 119.2688,180.6563 Q118.5813,179.5781 118.5813,178.2969 L118.5813,177.1406 Q118.5813,175.8125 119.1906,174.6719 Q119.8156,173.5156 120.9094,172.9063 Q122.0031,172.2813 123.2375,172.2813 Q123.9719,172.2813 124.6125,172.4531 Q125.2688,172.6094 125.8156,172.9688 Z "/><text fill="#000000" font-family="sans-serif" font-size="14" lengthAdjust="spacingAndGlyphs" textLength="138" x="140.95" y="176.5332">DefaultEditorManager</text><text fill="#000000" font-family="sans-serif" font-size="10" lengthAdjust="spacingAndGlyphs" textLength="86" x="166.95" y="189.9902">org.apache.wiki.ui</text><line style="stroke: #A80036; stroke-width: 1.5;" x1="91.5" x2="298.5" y1="197.1875" y2="197.1875"/><ellipse cx="101.5" cy="208.1875" fill="#84BE84" rx="3" ry="3" style="stroke: #038048; stroke-width: 1.0;"/><text fill="#000000" font-family="sans-serif" font-size="11" lengthAdjust="spacingAndGlyphs" textLength="143" x="110.5" y="212.6064">DefaultEditorManager(Engine)</text><ellipse cx="101.5" cy="222.0234" fill="#84BE84" rx="3" ry="3" style="stroke: #038048; stroke-width: 1.0;"/><text fill="#000000" font-family="sans-serif" font-size="11" lengthAdjust="spacingAndGlyphs" textLength="158" x="110.5" y="226.4424">initialize(Engine, Properties): void</text><ellipse cx="101.5" cy="235.8594" fill="#84BE84" rx="3" ry="3" style="stroke: #038048; stroke-width: 1.0;"/><text fill="#000000" font-family="sans-serif" font-size="11" lengthAdjust="spacingAndGlyphs" textLength="148" x="110.5" y="240.2783">getEditorName(Context): String</text><ellipse cx="101.5" cy="249.6953" fill="#84BE84" rx="3" ry="3" style="stroke: #038048; stroke-width: 1.0;"/><text fill="#000000" font-family="sans-serif" font-size="11" lengthAdjust="spacingAndGlyphs" textLength="107" x="110.5" y="254.1143">getEditorList(): String[]</text><ellipse cx="101.5" cy="263.5313" fill="#84BE84" rx="3" ry="3" style="stroke: #038048; stroke-width: 1.0;"/><text fill="#000000" font-family="sans-serif" font-size="11" lengthAdjust="spacingAndGlyphs" textLength="142" x="110.5" y="267.9502">getEditorPath(Context): String</text><ellipse cx="101.5" cy="277.3672" fill="#84BE84" rx="3" ry="3" style="stroke: #038048; stroke-width: 1.0;"/><text fill="#000000" font-family="sans-serif" font-size="11" lengthAdjust="spacingAndGlyphs" textLength="183" x="110.5" y="281.7861">modules(): Collection&lt;WikiModuleInfo&gt;</text><ellipse cx="101.5" cy="291.2031" fill="#84BE84" rx="3" ry="3" style="stroke: #038048; stroke-width: 1.0;"/><text fill="#000000" font-family="sans-serif" font-size="11" lengthAdjust="spacingAndGlyphs" textLength="173" x="110.5" y="295.6221">getModuleInfo(String): WikiEditorInfo</text></a><!--MD5=[443b563be18386622103a58c94c92556]
class org.apache.wiki.modules.BaseModuleManager--><a href="..\modules\BaseModuleManager.html" target="_top" title="..\modules\BaseModuleManager.html" xlink:actuate="onRequest" xlink:href="..\modules\BaseModuleManager.html" xlink:show="new" xlink:title="..\modules\BaseModuleManager.html" xlink:type="simple"><rect codeLine="15" fill="#FEFECE" filter="url(#f1wah3ym2vje3n)" height="40.1875" id="org.apache.wiki.modules.BaseModuleManager" style="stroke: #A80036; stroke-width: 1.5;" width="168" x="7" y="32"/><ellipse cx="22" cy="52.0938" fill="#A9DCDF" rx="11" ry="11" style="stroke: #A80036; stroke-width: 1.0;"/><path d="M24.1875,53.8594 L20.0469,53.8594 L19.625,54.8906 L20.0469,54.8906 Q20.6563,54.8906 20.9219,55.125 Q21.1875,55.3594 21.1875,55.75 Q21.1875,56.125 20.9219,56.3594 Q20.6563,56.5938 20.0469,56.5938 L17.75,56.5938 Q17.1406,56.5938 16.8906,56.3594 Q16.625,56.125 16.625,55.7344 Q16.625,55.3594 16.9063,55.125 Q17.1719,54.875 17.7969,54.8906 L20.4688,48.2344 L19.3594,48.2344 Q18.75,48.2344 18.4844,48 Q18.2188,47.7656 18.2188,47.375 Q18.2188,47 18.4844,46.7656 Q18.75,46.5313 19.3594,46.5313 L23.0313,46.5313 L26.4219,54.8906 Q27.0156,54.8906 27.2031,55.0313 Q27.5938,55.2969 27.5938,55.75 Q27.5938,56.125 27.3281,56.3594 Q27.0781,56.5938 26.4688,56.5938 L24.1719,56.5938 Q23.5625,56.5938 23.2969,56.3594 Q23.0313,56.125 23.0313,55.7344 Q23.0313,55.3594 23.2969,55.125 Q23.5625,54.8906 24.1719,54.8906 L24.5938,54.8906 L24.1875,53.8594 Z M23.4688,52.1563 L22.1094,48.7813 L20.7344,52.1563 L23.4688,52.1563 Z "/><text fill="#000000" font-family="sans-serif" font-size="14" font-style="italic" lengthAdjust="spacingAndGlyphs" textLength="136" x="36" y="51.5332">BaseModuleManager</text><text fill="#000000" font-family="sans-serif" font-size="10" font-style="italic" lengthAdjust="spacingAndGlyphs" textLength="117" x="45.5" y="64.9902">org.apache.wiki.modules</text></a><!--MD5=[95f26d1c8d4fa0007f9605c819e00d67]
class org.apache.wiki.ui.EditorManager--><a href="EditorManager.html" target="_top" title="EditorManager.html" xlink:actuate="onRequest" xlink:href="EditorManager.html" xlink:show="new" xlink:title="EditorManager.html" xlink:type="simple"><rect codeLine="16" fill="#FEFECE" filter="url(#f1wah3ym2vje3n)" height="89.6953" id="org.apache.wiki.ui.EditorManager" style="stroke: #A80036; stroke-width: 1.5;" width="180" x="210" y="7"/><ellipse cx="249.3" cy="27.0938" fill="#B4A7E5" rx="11" ry="11" style="stroke: #A80036; stroke-width: 1.0;"/><path d="M250.2531,23.7344 L250.2531,30.3906 L251.9719,30.3906 Q252.5813,30.3906 252.8469,30.625 Q253.1125,30.8594 253.1125,31.25 Q253.1125,31.625 252.8469,31.8594 Q252.5813,32.0938 251.9719,32.0938 L246.8313,32.0938 Q246.2219,32.0938 245.9563,31.8594 Q245.6906,31.625 245.6906,31.2344 Q245.6906,30.8594 245.9563,30.625 Q246.2219,30.3906 246.8313,30.3906 L248.55,30.3906 L248.55,23.7344 L246.8313,23.7344 Q246.2219,23.7344 245.9563,23.5 Q245.6906,23.2656 245.6906,22.875 Q245.6906,22.5 245.9563,22.2656 Q246.2219,22.0313 246.8313,22.0313 L251.9719,22.0313 Q252.5813,22.0313 252.8469,22.2656 Q253.1125,22.5 253.1125,22.875 Q253.1125,23.2656 252.8469,23.5 Q252.5813,23.7344 251.9719,23.7344 L250.2531,23.7344 Z "/><text fill="#000000" font-family="sans-serif" font-size="14" font-style="italic" lengthAdjust="spacingAndGlyphs" textLength="94" x="268.7" y="26.5332">EditorManager</text><text fill="#000000" font-family="sans-serif" font-size="10" font-style="italic" lengthAdjust="spacingAndGlyphs" textLength="87" x="272.2" y="39.9902">org.apache.wiki.ui</text><line style="stroke: #A80036; stroke-width: 1.5;" x1="211" x2="389" y1="47.1875" y2="47.1875"/><ellipse cx="221" cy="58.1875" fill="#84BE84" rx="3" ry="3" style="stroke: #038048; stroke-width: 1.0;"/><text fill="#000000" font-family="sans-serif" font-size="11" font-style="italic" lengthAdjust="spacingAndGlyphs" textLength="154" x="230" y="62.6064">getEditorName(Context): String</text><ellipse cx="221" cy="72.0234" fill="#84BE84" rx="3" ry="3" style="stroke: #038048; stroke-width: 1.0;"/><text fill="#000000" font-family="sans-serif" font-size="11" font-style="italic" lengthAdjust="spacingAndGlyphs" textLength="111" x="230" y="76.4424">getEditorList(): String[]</text><ellipse cx="221" cy="85.8594" fill="#84BE84" rx="3" ry="3" style="stroke: #038048; stroke-width: 1.0;"/><text fill="#000000" font-family="sans-serif" font-size="11" font-style="italic" lengthAdjust="spacingAndGlyphs" textLength="147" x="230" y="90.2783">getEditorPath(Context): String</text></a><!--MD5=[95354d6a79269aecb50c7ff1d9dab417]
reverse link org.apache.wiki.modules.BaseModuleManager to org.apache.wiki.ui.DefaultEditorManager--><path codeLine="22" d="M112.899,89.3758 C124.4021,109.0085 138.9025,133.7567 152.5047,156.9719 " fill="none" id="org.apache.wiki.modules.BaseModuleManager-backto-org.apache.wiki.ui.DefaultEditorManager" style="stroke: #A80036; stroke-width: 1.0;"/><polygon fill="none" points="106.799,92.8114,102.728,72.0165,118.8783,85.7339,106.799,92.8114" style="stroke: #A80036; stroke-width: 1.0;"/><!--MD5=[5600c5e4f169d4130dd9700844e8e375]
reverse link org.apache.wiki.ui.EditorManager to org.apache.wiki.ui.DefaultEditorManager--><path codeLine="23" d="M263.0032,114.5422 C254.9315,128.1872 246.3227,142.7402 238.0389,156.7438 " fill="none" id="org.apache.wiki.ui.EditorManager-backto-org.apache.wiki.ui.DefaultEditorManager" style="stroke: #A80036; stroke-width: 1.0; stroke-dasharray: 7.0,7.0;"/><polygon fill="none" points="257.0248,110.8997,273.2324,97.25,269.0744,118.0277,257.0248,110.8997" style="stroke: #A80036; stroke-width: 1.0;"/><text fill="#888888" font-family="sans-serif" font-size="10" lengthAdjust="spacingAndGlyphs" textLength="190" x="100.5" y="325.4199">UMLDoclet 2.0.12, PlantUML 1.2020.16</text><!--MD5=[7ed20e695cf1ea96c92b213ecc7aa191]
@startuml
    set namespaceSeparator none
    hide empty fields
    hide empty methods

    class "<size:14>DefaultEditorManager\n<size:10>org.apache.wiki.ui" as org.apache.wiki.ui.DefaultEditorManager [[DefaultEditorManager.html]] {
        +DefaultEditorManager(Engine)
        +initialize(Engine, Properties): void
        +getEditorName(Context): String
        +getEditorList(): String[]
        +getEditorPath(Context): String
        +modules(): Collection<WikiModuleInfo>
        +getModuleInfo(String): WikiEditorInfo
    }

    abstract class "<size:14>BaseModuleManager\n<size:10>org.apache.wiki.modules" as org.apache.wiki.modules.BaseModuleManager [[..\modules\BaseModuleManager.html]]
    interface "<size:14>EditorManager\n<size:10>org.apache.wiki.ui" as org.apache.wiki.ui.EditorManager [[EditorManager.html]] {
        {abstract} +getEditorName(Context): String
        {abstract} +getEditorList(): String[]
        {abstract} +getEditorPath(Context): String
    }

    org.apache.wiki.modules.BaseModuleManager <|- - org.apache.wiki.ui.DefaultEditorManager
    org.apache.wiki.ui.EditorManager <|.. org.apache.wiki.ui.DefaultEditorManager

    center footer UMLDoclet 2.0.12, PlantUML 1.2020.16
@enduml

PlantUML version 1.2020.16(Sun Aug 23 22:20:43 CEST 2020)
(APACHE source distribution)
Java Runtime: OpenJDK Runtime Environment
JVM: OpenJDK 64-Bit Server VM
Default Encoding: Cp1252
Language: es
Country: ES
--></g></svg>