<?xml version="1.0" encoding="UTF-8" standalone="no"?><svg xmlns="http://www.w3.org/2000/svg" xmlns:xlink="http://www.w3.org/1999/xlink" contentScriptType="application/ecmascript" contentStyleType="text/css" height="267px" preserveAspectRatio="none" style="width:343px;height:267px;background:#FFFFFF;" version="1.1" viewBox="0 0 343 267" width="343px" zoomAndPan="magnify"><defs><filter height="300%" id="fv0lubsq92lq3" width="300%" x="-1" y="-1"><feGaussianBlur result="blurOut" stdDeviation="2.0"/><feColorMatrix in="blurOut" result="blurOut2" type="matrix" values="0 0 0 0 0 0 0 0 0 0 0 0 0 0 0 0 0 0 .4 0"/><feOffset dx="4.0" dy="4.0" in="blurOut2" result="blurOut3"/><feBlend in="SourceGraphic" in2="blurOut3" mode="normal"/></filter></defs><g><!--MD5=[7c7ebcf94ef97716c8b2e541a0d84e6d]
class org.apache.wiki.search.SearchMatcher.SearchResultImpl--><a href="SearchMatcher.SearchResultImpl.html" target="_top" title="SearchMatcher.SearchResultImpl.html" xlink:actuate="onRequest" xlink:href="SearchMatcher.SearchResultImpl.html" xlink:show="new" xlink:title="SearchMatcher.SearchResultImpl.html" xlink:type="simple"><rect codeLine="5" fill="#FEFECE" filter="url(#fv0lubsq92lq3)" height="97.1563" id="org.apache.wiki.search.SearchMatcher.SearchResultImpl" style="stroke:#A80036;stroke-width:1.5;" width="260" x="39" y="140"/><ellipse cx="54" cy="158.9688" fill="#ADD1B2" rx="11" ry="11" style="stroke:#A80036;stroke-width:1.0;"/><path d="M56.9688,164.6094 Q56.3906,164.9063 55.75,165.0469 Q55.1094,165.2031 54.4063,165.2031 Q51.9063,165.2031 50.5781,163.5625 Q49.2656,161.9063 49.2656,158.7813 Q49.2656,155.6563 50.5781,154 Q51.9063,152.3438 54.4063,152.3438 Q55.1094,152.3438 55.75,152.5 Q56.4063,152.6563 56.9688,152.9531 L56.9688,155.6719 Q56.3438,155.0938 55.75,154.8281 Q55.1563,154.5469 54.5313,154.5469 Q53.1875,154.5469 52.5,155.625 Q51.8125,156.6875 51.8125,158.7813 Q51.8125,160.875 52.5,161.9531 Q53.1875,163.0156 54.5313,163.0156 Q55.1563,163.0156 55.75,162.75 Q56.3438,162.4688 56.9688,161.8906 L56.9688,164.6094 Z " fill="#000000"/><text fill="#000000" font-family="sans-serif" font-size="14" lengthAdjust="spacing" textLength="228" x="68" y="157.9951">SearchMatcher.SearchResultImpl</text><text fill="#000000" font-family="sans-serif" font-size="10" lengthAdjust="spacing" textLength="109" x="127.5" y="170.5791">org.apache.wiki.search</text><line style="stroke:#A80036;stroke-width:1.5;" x1="40" x2="298" y1="177.9375" y2="177.9375"/><ellipse cx="50" cy="188.9375" fill="#84BE84" rx="3" ry="3" style="stroke:#038048;stroke-width:1.0;"/><text fill="#000000" font-family="sans-serif" font-size="11" lengthAdjust="spacing" textLength="163" x="59" y="192.1479">SearchResultImpl(String, int)</text><ellipse cx="50" cy="201.7422" fill="#84BE84" rx="3" ry="3" style="stroke:#038048;stroke-width:1.0;"/><text fill="#000000" font-family="sans-serif" font-size="11" lengthAdjust="spacing" textLength="111" x="59" y="204.9526">getPage(): WikiPage</text><ellipse cx="50" cy="214.5469" fill="#84BE84" rx="3" ry="3" style="stroke:#038048;stroke-width:1.0;"/><text fill="#000000" font-family="sans-serif" font-size="11" lengthAdjust="spacing" textLength="81" x="59" y="217.7573">getScore(): int</text><ellipse cx="50" cy="227.3516" fill="#84BE84" rx="3" ry="3" style="stroke:#038048;stroke-width:1.0;"/><text fill="#000000" font-family="sans-serif" font-size="11" lengthAdjust="spacing" textLength="126" x="59" y="230.562">getContexts(): String[]</text></a><!--MD5=[30d506f94e96b03fad286d9445301ded]
class org.apache.wiki.search.SearchResult--><a href="SearchResult.html" target="_top" title="SearchResult.html" xlink:actuate="onRequest" xlink:href="SearchResult.html" xlink:show="new" xlink:title="SearchResult.html" xlink:type="simple"><rect codeLine="12" fill="#FEFECE" filter="url(#fv0lubsq92lq3)" height="72.7109" id="org.apache.wiki.search.SearchResult" style="stroke:#A80036;stroke-width:1.5;" width="146" x="7" y="7"/><ellipse cx="22" cy="32.9531" fill="#B4A7E5" rx="11" ry="11" style="stroke:#A80036;stroke-width:1.0;"/><path d="M17.9219,28.7188 L17.9219,26.5625 L25.3125,26.5625 L25.3125,28.7188 L22.8438,28.7188 L22.8438,36.7969 L25.3125,36.7969 L25.3125,38.9531 L17.9219,38.9531 L17.9219,36.7969 L20.3906,36.7969 L20.3906,28.7188 L17.9219,28.7188 Z " fill="#000000"/><text fill="#000000" font-family="sans-serif" font-size="12" font-style="italic" lengthAdjust="spacing" textLength="87" x="49.5" y="23.1387">«deprecated»</text><text fill="#000000" font-family="sans-serif" font-size="14" font-style="italic" lengthAdjust="spacing" textLength="91" x="47.5" y="38.9639">SearchResult</text><text fill="#000000" font-family="sans-serif" font-size="10" font-style="italic" lengthAdjust="spacing" textLength="114" x="36" y="51.5479">org.apache.wiki.search</text><line style="stroke:#A80036;stroke-width:1.5;" x1="8" x2="152" y1="58.9063" y2="58.9063"/><ellipse cx="18" cy="69.9063" fill="#84BE84" rx="3" ry="3" style="stroke:#038048;stroke-width:1.0;"/><text fill="#000000" font-family="sans-serif" font-size="11" font-style="italic" lengthAdjust="spacing" textLength="113" x="27" y="73.1167">getPage(): WikiPage</text></a><!--MD5=[31a26d3f3438b5b7a36c4d644befa6fd]
class org.apache.wiki.search.SearchMatcher--><a href="SearchMatcher.html" target="_top" title="SearchMatcher.html" xlink:actuate="onRequest" xlink:href="SearchMatcher.html" xlink:show="new" xlink:title="SearchMatcher.html" xlink:type="simple"><rect codeLine="15" fill="#FEFECE" filter="url(#fv0lubsq92lq3)" height="37.9375" id="org.apache.wiki.search.SearchMatcher" style="stroke:#A80036;stroke-width:1.5;" width="141" x="188.5" y="24.5"/><ellipse cx="203.5" cy="43.4688" fill="#ADD1B2" rx="11" ry="11" style="stroke:#A80036;stroke-width:1.0;"/><path d="M206.4688,49.1094 Q205.8906,49.4063 205.25,49.5469 Q204.6094,49.7031 203.9063,49.7031 Q201.4063,49.7031 200.0781,48.0625 Q198.7656,46.4063 198.7656,43.2813 Q198.7656,40.1563 200.0781,38.5 Q201.4063,36.8438 203.9063,36.8438 Q204.6094,36.8438 205.25,37 Q205.9063,37.1563 206.4688,37.4531 L206.4688,40.1719 Q205.8438,39.5938 205.25,39.3281 Q204.6563,39.0469 204.0313,39.0469 Q202.6875,39.0469 202,40.125 Q201.3125,41.1875 201.3125,43.2813 Q201.3125,45.375 202,46.4531 Q202.6875,47.5156 204.0313,47.5156 Q204.6563,47.5156 205.25,47.25 Q205.8438,46.9688 206.4688,46.3906 L206.4688,49.1094 Z " fill="#000000"/><text fill="#000000" font-family="sans-serif" font-size="14" lengthAdjust="spacing" textLength="104" x="220" y="42.4951">SearchMatcher</text><text fill="#000000" font-family="sans-serif" font-size="10" lengthAdjust="spacing" textLength="109" x="217.5" y="55.0791">org.apache.wiki.search</text></a><!--MD5=[71468b41f03fc1e418c2c373a9896f9c]
reverse link org.apache.wiki.search.SearchResult to org.apache.wiki.search.SearchMatcher.SearchResultImpl--><path codeLine="17" d="M113.1954,97.5824 C121.7092,111.4531 130.8141,126.287 139.1477,139.8642 " fill="none" id="org.apache.wiki.search.SearchResult-backto-org.apache.wiki.search.SearchMatcher.SearchResultImpl" style="stroke:#A80036;stroke-width:1.0;stroke-dasharray:7.0,7.0;"/><polygon fill="none" points="106.9549,100.7967,102.4585,80.0896,118.8866,93.4731,106.9549,100.7967" style="stroke:#A80036;stroke-width:1.0;"/><!--MD5=[7910e6aeabcf0f5a55519fd77ce83772]
reverse link org.apache.wiki.search.SearchMatcher to org.apache.wiki.search.SearchMatcher.SearchResultImpl--><path codeLine="18" d="M239.0175,75.694 C227.3287,94.526 212.3388,118.6764 199.2298,139.7964 " fill="none" id="org.apache.wiki.search.SearchMatcher-backto-org.apache.wiki.search.SearchMatcher.SearchResultImpl" style="stroke:#A80036;stroke-width:1.0;"/><ellipse cx="242.8297" cy="69.552" fill="#FFFFFF" rx="8" ry="8" style="stroke:#A80036;stroke-width:1.0;"/><line style="stroke:#A80036;stroke-width:1.0;" x1="238.6108" x2="247.0487" y1="76.3491" y2="62.7549"/><line style="stroke:#A80036;stroke-width:1.0;" x1="236.0327" x2="249.6268" y1="65.333" y2="73.7709"/><text fill="#888888" font-family="sans-serif" font-size="10" lengthAdjust="spacing" textLength="192" x="69.25" y="259.4385">UMLDoclet 2.0.15, PlantUML 1.2021.13</text><!--MD5=[775d8a58d8ebd9f0c0be0636343f8841]
@startuml
    set namespaceSeparator none
    hide empty fields
    hide empty methods

    class "<size:14>SearchMatcher.SearchResultImpl\n<size:10>org.apache.wiki.search" as org.apache.wiki.search.SearchMatcher.SearchResultImpl [[SearchMatcher.SearchResultImpl.html]] {
        +SearchResultImpl(String, int)
        +getPage(): WikiPage
        +getScore(): int
        +getContexts(): String[]
    }

    interface "<size:14>SearchResult\n<size:10>org.apache.wiki.search" as org.apache.wiki.search.SearchResult <<deprecated>> [[SearchResult.html]] {
        {abstract} +getPage(): WikiPage
    }
    class "<size:14>SearchMatcher\n<size:10>org.apache.wiki.search" as org.apache.wiki.search.SearchMatcher [[SearchMatcher.html]]

    org.apache.wiki.search.SearchResult <|.. org.apache.wiki.search.SearchMatcher.SearchResultImpl
    org.apache.wiki.search.SearchMatcher +- - org.apache.wiki.search.SearchMatcher.SearchResultImpl

    center footer UMLDoclet 2.0.15, PlantUML 1.2021.13
@enduml

PlantUML version 1.2021.13(Mon Nov 01 11:38:45 UTC 2021)
(APACHE source distribution)
Java Runtime: OpenJDK Runtime Environment
JVM: OpenJDK 64-Bit Server VM
Default Encoding: ISO-8859-1
Language: en
Country: US
--></g></svg>