<?xml version="1.0" encoding="UTF-8" standalone="no"?><svg xmlns="http://www.w3.org/2000/svg" xmlns:xlink="http://www.w3.org/1999/xlink" contentScriptType="application/ecmascript" contentStyleType="text/css" height="303px" preserveAspectRatio="none" style="width:277px;height:303px;background:#FFFFFF;" version="1.1" viewBox="0 0 277 303" width="277px" zoomAndPan="magnify"><defs><filter height="300%" id="f1p5vb16wte6un" width="300%" x="-1" y="-1"><feGaussianBlur result="blurOut" stdDeviation="2.0"/><feColorMatrix in="blurOut" result="blurOut2" type="matrix" values="0 0 0 0 0 0 0 0 0 0 0 0 0 0 0 0 0 0 .4 0"/><feOffset dx="4.0" dy="4.0" in="blurOut2" result="blurOut3"/><feBlend in="SourceGraphic" in2="blurOut3" mode="normal"/></filter></defs><g><!--MD5=[3ae2ed1c53c03a925464d2a0e32a49d4]
class org.apache.wiki.pages.PageSorter--><a href="PageSorter.html" target="_top" title="PageSorter.html" xlink:actuate="onRequest" xlink:href="PageSorter.html" xlink:show="new" xlink:title="PageSorter.html" xlink:type="simple"><rect codeLine="5" fill="#FEFECE" filter="url(#f1p5vb16wte6un)" height="143.5703" id="org.apache.wiki.pages.PageSorter" style="stroke:#A80036;stroke-width:1.5;" width="254" x="9" y="129"/><ellipse cx="78.75" cy="147.9688" fill="#ADD1B2" rx="11" ry="11" style="stroke:#A80036;stroke-width:1.0;"/><path d="M81.7188,153.6094 Q81.1406,153.9063 80.5,154.0469 Q79.8594,154.2031 79.1563,154.2031 Q76.6563,154.2031 75.3281,152.5625 Q74.0156,150.9063 74.0156,147.7813 Q74.0156,144.6563 75.3281,143 Q76.6563,141.3438 79.1563,141.3438 Q79.8594,141.3438 80.5,141.5 Q81.1563,141.6563 81.7188,141.9531 L81.7188,144.6719 Q81.0938,144.0938 80.5,143.8281 Q79.9063,143.5469 79.2813,143.5469 Q77.9375,143.5469 77.25,144.625 Q76.5625,145.6875 76.5625,147.7813 Q76.5625,149.875 77.25,150.9531 Q77.9375,152.0156 79.2813,152.0156 Q79.9063,152.0156 80.5,151.75 Q81.0938,151.4688 81.7188,150.8906 L81.7188,153.6094 Z " fill="#000000"/><text fill="#000000" font-family="sans-serif" font-size="14" lengthAdjust="spacing" textLength="77" x="113.75" y="146.9951">PageSorter</text><text fill="#000000" font-family="sans-serif" font-size="10" lengthAdjust="spacing" textLength="106" x="99.25" y="159.5791">org.apache.wiki.pages</text><line style="stroke:#A80036;stroke-width:1.5;" x1="10" x2="262" y1="166.9375" y2="166.9375"/><polygon fill="none" points="20,172.9375,24,176.9375,20,180.9375,16,176.9375" style="stroke:#B38D22;stroke-width:1.0;"/><text fill="#000000" font-family="sans-serif" font-size="11" lengthAdjust="spacing" text-decoration="underline" textLength="228" x="29" y="181.1479">PROP_PAGE_NAME_COMPARATOR: String</text><line style="stroke:#A80036;stroke-width:1.5;" x1="10" x2="262" y1="187.7422" y2="187.7422"/><ellipse cx="20" cy="198.7422" fill="#84BE84" rx="3" ry="3" style="stroke:#038048;stroke-width:1.0;"/><text fill="#000000" font-family="sans-serif" font-size="11" lengthAdjust="spacing" textLength="72" x="29" y="201.9526">PageSorter()</text><ellipse cx="20" cy="211.5469" fill="#84BE84" rx="3" ry="3" style="stroke:#038048;stroke-width:1.0;"/><text fill="#000000" font-family="sans-serif" font-size="11" lengthAdjust="spacing" textLength="192" x="29" y="214.7573">PageSorter(Comparator&lt;String&gt;)</text><ellipse cx="20" cy="224.3516" fill="#84BE84" rx="3" ry="3" style="stroke:#038048;stroke-width:1.0;"/><text fill="#000000" font-family="sans-serif" font-size="11" lengthAdjust="spacing" textLength="156" x="29" y="227.562">compare(String, String): int</text><ellipse cx="20" cy="237.1563" fill="#84BE84" rx="3" ry="3" style="stroke:#038048;stroke-width:1.0;"/><text fill="#000000" font-family="sans-serif" font-size="11" lengthAdjust="spacing" textLength="143" x="29" y="240.3667">initialize(Properties): void</text><ellipse cx="20" cy="249.9609" fill="#84BE84" rx="3" ry="3" style="stroke:#038048;stroke-width:1.0;"/><text fill="#000000" font-family="sans-serif" font-size="11" lengthAdjust="spacing" textLength="134" x="29" y="253.1714">sort(List&lt;String&gt;): void</text><ellipse cx="20" cy="262.7656" fill="#84BE84" rx="3" ry="3" style="stroke:#038048;stroke-width:1.0;"/><text fill="#000000" font-family="sans-serif" font-size="11" lengthAdjust="spacing" textLength="104" x="29" y="265.9761">sort(String[]): void</text></a><!--MD5=[ab8fa349a1e2e86ca8104897b03d4899]
class java.util.Comparator--><rect codeLine="15" fill="#FEFECE" filter="url(#f1p5vb16wte6un)" height="58.7422" id="java.util.Comparator" style="stroke:#A80036;stroke-width:1.5;" width="180" x="46" y="10"/><ellipse cx="72.7" cy="28.9688" fill="#B4A7E5" rx="11" ry="11" style="stroke:#A80036;stroke-width:1.0;"/><path d="M68.6219,24.7344 L68.6219,22.5781 L76.0125,22.5781 L76.0125,24.7344 L73.5438,24.7344 L73.5438,32.8125 L76.0125,32.8125 L76.0125,34.9688 L68.6219,34.9688 L68.6219,32.8125 L71.0906,32.8125 L71.0906,24.7344 L68.6219,24.7344 Z " fill="#000000"/><text fill="#000000" font-family="sans-serif" font-size="14" font-style="italic" lengthAdjust="spacing" textLength="81" x="89.3" y="27.9951">Comparator</text><text fill="#000000" font-family="sans-serif" font-size="10" font-style="italic" lengthAdjust="spacing" textLength="40" x="109.8" y="40.5791">java.util</text><rect fill="#FFFFFF" height="15.9688" style="stroke:#000000;stroke-width:1.0;stroke-dasharray:2.0,2.0;" width="39" x="190" y="7"/><text fill="#000000" font-family="sans-serif" font-size="12" font-style="italic" lengthAdjust="spacing" textLength="37" x="191" y="19.1387">String</text><line style="stroke:#A80036;stroke-width:1.5;" x1="47" x2="225" y1="47.9375" y2="47.9375"/><ellipse cx="57" cy="58.9375" fill="#84BE84" rx="3" ry="3" style="stroke:#038048;stroke-width:1.0;"/><text fill="#000000" font-family="sans-serif" font-size="11" font-style="italic" lengthAdjust="spacing" textLength="154" x="66" y="62.1479">compare(String, String): int</text><!--MD5=[cd0d04909e11c4b84ddd48719094b01c]
reverse link java.util.Comparator to org.apache.wiki.pages.PageSorter--><path codeLine="19" d="M136,89.4297 C136,101.9356 136,115.6018 136,128.9475 " fill="none" id="java.util.Comparator-backto-org.apache.wiki.pages.PageSorter" style="stroke:#A80036;stroke-width:1.0;stroke-dasharray:7.0,7.0;"/><polygon fill="none" points="129.0001,89.1216,136,69.1216,143.0001,89.1216,129.0001,89.1216" style="stroke:#A80036;stroke-width:1.0;"/><text fill="#888888" font-family="sans-serif" font-size="10" lengthAdjust="spacing" textLength="192" x="36" y="294.8525">UMLDoclet 2.0.15, PlantUML 1.2021.13</text><!--MD5=[587265e7badae64ed84cd24fd0bb97e8]
@startuml
    set namespaceSeparator none
    hide empty fields
    hide empty methods

    class "<size:14>PageSorter\n<size:10>org.apache.wiki.pages" as org.apache.wiki.pages.PageSorter [[PageSorter.html]] {
        {static} #PROP_PAGE_NAME_COMPARATOR: String
        +PageSorter()
        +PageSorter(Comparator<String>)
        +compare(String, String): int
        +initialize(Properties): void
        +sort(List<String>): void
        +sort(String[]): void
    }

    interface "<size:14>Comparator\n<size:10>java.util" as java.util.Comparator<String> {
        {abstract} +compare(String, String): int
    }

    java.util.Comparator <|.. org.apache.wiki.pages.PageSorter

    center footer UMLDoclet 2.0.15, PlantUML 1.2021.13
@enduml

PlantUML version 1.2021.13(Mon Nov 01 11:38:45 UTC 2021)
(APACHE source distribution)
Java Runtime: OpenJDK Runtime Environment
JVM: OpenJDK 64-Bit Server VM
Default Encoding: ISO-8859-1
Language: en
Country: US
--></g></svg>