<?xml version="1.0" encoding="UTF-8" standalone="no"?><svg xmlns="http://www.w3.org/2000/svg" xmlns:xlink="http://www.w3.org/1999/xlink" contentScriptType="application/ecmascript" contentStyleType="text/css" height="391px" preserveAspectRatio="none" style="width:475px;height:391px;" version="1.1" viewBox="0 0 475 391" width="475px" zoomAndPan="magnify"><defs><filter height="300%" id="f1ghu280i261b2" width="300%" x="-1" y="-1"><feGaussianBlur result="blurOut" stdDeviation="2.0"/><feColorMatrix in="blurOut" result="blurOut2" type="matrix" values="0 0 0 0 0 0 0 0 0 0 0 0 0 0 0 0 0 0 .4 0"/><feOffset dx="4.0" dy="4.0" in="blurOut2" result="blurOut3"/><feBlend in="SourceGraphic" in2="blurOut3" mode="normal"/></filter></defs><g><!--MD5=[3c1acb265eed92a2669cc0dfe948ca59]
class org.apache.wiki.auth.WikiPrincipal--><a href="WikiPrincipal.html" target="_top" title="WikiPrincipal.html" xlink:actuate="onRequest" xlink:href="WikiPrincipal.html" xlink:show="new" xlink:title="WikiPrincipal.html" xlink:type="simple"><rect codeLine="5" fill="#FEFECE" filter="url(#f1ghu280i261b2)" height="222.2188" id="org.apache.wiki.auth.WikiPrincipal" style="stroke: #A80036; stroke-width: 1.5;" width="213" x="129" y="132"/><ellipse cx="182.25" cy="152.0938" fill="#ADD1B2" rx="11" ry="11" style="stroke: #A80036; stroke-width: 1.0;"/><path d="M185.0156,147.9688 Q185.1719,147.75 185.3594,147.6406 Q185.5469,147.5313 185.7656,147.5313 Q186.1406,147.5313 186.375,147.7969 Q186.6094,148.0469 186.6094,148.6563 L186.6094,150.1094 Q186.6094,150.7188 186.375,150.9844 Q186.1406,151.25 185.7656,151.25 Q185.4219,151.25 185.2188,151.0469 Q185.0156,150.8594 184.9063,150.3438 Q184.8594,149.9844 184.6719,149.7969 Q184.3438,149.4219 183.7344,149.2031 Q183.125,148.9844 182.5,148.9844 Q181.7344,148.9844 181.0938,149.3125 Q180.4688,149.6406 179.9688,150.3906 Q179.4844,151.1406 179.4844,152.1719 L179.4844,153.2656 Q179.4844,154.5 180.375,155.3281 Q181.2656,156.1406 182.8594,156.1406 Q183.7969,156.1406 184.4531,155.8906 Q184.8438,155.7344 185.2656,155.2969 Q185.5313,155.0313 185.6719,154.9531 Q185.8281,154.875 186.0313,154.875 Q186.3594,154.875 186.6094,155.1406 Q186.875,155.3906 186.875,155.7344 Q186.875,156.0781 186.5313,156.4844 Q186.0313,157.0625 185.2344,157.3906 Q184.1563,157.8438 182.8594,157.8438 Q181.3438,157.8438 180.1406,157.2188 Q179.1563,156.7188 178.4688,155.6563 Q177.7813,154.5781 177.7813,153.2969 L177.7813,152.1406 Q177.7813,150.8125 178.3906,149.6719 Q179.0156,148.5156 180.1094,147.9063 Q181.2031,147.2813 182.4375,147.2813 Q183.1719,147.2813 183.8125,147.4531 Q184.4688,147.6094 185.0156,147.9688 Z "/><text fill="#000000" font-family="sans-serif" font-size="14" lengthAdjust="spacingAndGlyphs" textLength="80" x="211.75" y="151.5332">WikiPrincipal</text><text fill="#000000" font-family="sans-serif" font-size="10" lengthAdjust="spacingAndGlyphs" textLength="98" x="202.75" y="164.9902">org.apache.wiki.auth</text><line style="stroke: #A80036; stroke-width: 1.5;" x1="130" x2="341" y1="172.1875" y2="172.1875"/><ellipse cx="140" cy="183.1875" fill="none" rx="3" ry="3" style="stroke: #038048; stroke-width: 1.0;"/><text fill="#000000" font-family="sans-serif" font-size="11" lengthAdjust="spacingAndGlyphs" text-decoration="underline" textLength="80" x="149" y="187.6064">GUEST: Principal</text><ellipse cx="140" cy="197.0234" fill="none" rx="3" ry="3" style="stroke: #038048; stroke-width: 1.0;"/><text fill="#000000" font-family="sans-serif" font-size="11" lengthAdjust="spacingAndGlyphs" text-decoration="underline" textLength="94" x="149" y="201.4424">FULL_NAME: String</text><ellipse cx="140" cy="210.8594" fill="none" rx="3" ry="3" style="stroke: #038048; stroke-width: 1.0;"/><text fill="#000000" font-family="sans-serif" font-size="11" lengthAdjust="spacingAndGlyphs" text-decoration="underline" textLength="100" x="149" y="215.2783">LOGIN_NAME: String</text><ellipse cx="140" cy="224.6953" fill="none" rx="3" ry="3" style="stroke: #038048; stroke-width: 1.0;"/><text fill="#000000" font-family="sans-serif" font-size="11" lengthAdjust="spacingAndGlyphs" text-decoration="underline" textLength="90" x="149" y="229.1143">WIKI_NAME: String</text><ellipse cx="140" cy="238.5313" fill="none" rx="3" ry="3" style="stroke: #038048; stroke-width: 1.0;"/><text fill="#000000" font-family="sans-serif" font-size="11" lengthAdjust="spacingAndGlyphs" text-decoration="underline" textLength="97" x="149" y="242.9502">UNSPECIFIED: String</text><ellipse cx="140" cy="252.3672" fill="none" rx="3" ry="3" style="stroke: #038048; stroke-width: 1.0;"/><text fill="#000000" font-family="sans-serif" font-size="11" lengthAdjust="spacingAndGlyphs" text-decoration="underline" textLength="187" x="149" y="256.7861">COMPARATOR: Comparator&lt;Principal&gt;</text><line style="stroke: #A80036; stroke-width: 1.5;" x1="130" x2="341" y1="263.2031" y2="263.2031"/><polygon fill="#FFFF44" points="140,269.2031,144,273.2031,140,277.2031,136,273.2031" style="stroke: #B38D22; stroke-width: 1.0;"/><text fill="#000000" font-family="sans-serif" font-size="11" lengthAdjust="spacingAndGlyphs" textLength="67" x="149" y="278.6221">WikiPrincipal()</text><ellipse cx="140" cy="288.0391" fill="#84BE84" rx="3" ry="3" style="stroke: #038048; stroke-width: 1.0;"/><text fill="#000000" font-family="sans-serif" font-size="11" lengthAdjust="spacingAndGlyphs" textLength="95" x="149" y="292.458">WikiPrincipal(String)</text><ellipse cx="140" cy="301.875" fill="#84BE84" rx="3" ry="3" style="stroke: #038048; stroke-width: 1.0;"/><text fill="#000000" font-family="sans-serif" font-size="11" lengthAdjust="spacingAndGlyphs" textLength="129" x="149" y="306.2939">WikiPrincipal(String, String)</text><ellipse cx="140" cy="315.7109" fill="#84BE84" rx="3" ry="3" style="stroke: #038048; stroke-width: 1.0;"/><text fill="#000000" font-family="sans-serif" font-size="11" lengthAdjust="spacingAndGlyphs" textLength="84" x="149" y="320.1299">getName(): String</text><ellipse cx="140" cy="329.5469" fill="#84BE84" rx="3" ry="3" style="stroke: #038048; stroke-width: 1.0;"/><text fill="#000000" font-family="sans-serif" font-size="11" lengthAdjust="spacingAndGlyphs" textLength="81" x="149" y="333.9658">getType(): String</text><ellipse cx="140" cy="343.3828" fill="#84BE84" rx="3" ry="3" style="stroke: #038048; stroke-width: 1.0;"/><text fill="#000000" font-family="sans-serif" font-size="11" lengthAdjust="spacingAndGlyphs" textLength="119" x="149" y="347.8018">compareTo(Principal): int</text></a><!--MD5=[e2dc22e8225a918eadd77002df418415]
class java.security.Principal--><rect codeLine="20" fill="#FEFECE" filter="url(#f1ghu280i261b2)" height="62.0234" id="java.security.Principal" style="stroke: #A80036; stroke-width: 1.5;" width="113" x="7" y="10"/><ellipse cx="32.35" cy="30.0938" fill="#B4A7E5" rx="11" ry="11" style="stroke: #A80036; stroke-width: 1.0;"/><path d="M33.3031,26.7344 L33.3031,33.3906 L35.0219,33.3906 Q35.6313,33.3906 35.8969,33.625 Q36.1625,33.8594 36.1625,34.25 Q36.1625,34.625 35.8969,34.8594 Q35.6313,35.0938 35.0219,35.0938 L29.8813,35.0938 Q29.2719,35.0938 29.0063,34.8594 Q28.7406,34.625 28.7406,34.2344 Q28.7406,33.8594 29.0063,33.625 Q29.2719,33.3906 29.8813,33.3906 L31.6,33.3906 L31.6,26.7344 L29.8813,26.7344 Q29.2719,26.7344 29.0063,26.5 Q28.7406,26.2656 28.7406,25.875 Q28.7406,25.5 29.0063,25.2656 Q29.2719,25.0313 29.8813,25.0313 L35.0219,25.0313 Q35.6313,25.0313 35.8969,25.2656 Q36.1625,25.5 36.1625,25.875 Q36.1625,26.2656 35.8969,26.5 Q35.6313,26.7344 35.0219,26.7344 L33.3031,26.7344 Z "/><text fill="#000000" font-family="sans-serif" font-size="14" font-style="italic" lengthAdjust="spacingAndGlyphs" textLength="54" x="50.65" y="29.5332">Principal</text><text fill="#000000" font-family="sans-serif" font-size="10" font-style="italic" lengthAdjust="spacingAndGlyphs" textLength="58" x="48.65" y="42.9902">java.security</text><line style="stroke: #A80036; stroke-width: 1.5;" x1="8" x2="119" y1="50.1875" y2="50.1875"/><ellipse cx="18" cy="61.1875" fill="#84BE84" rx="3" ry="3" style="stroke: #038048; stroke-width: 1.0;"/><text fill="#000000" font-family="sans-serif" font-size="11" font-style="italic" lengthAdjust="spacingAndGlyphs" textLength="87" x="27" y="65.6064">getName(): String</text><!--MD5=[008d82c49f85b4d489e041917c99c847]
class java.lang.Comparable--><rect codeLine="23" fill="#FEFECE" filter="url(#f1ghu280i261b2)" height="62.0234" id="java.lang.Comparable" style="stroke: #A80036; stroke-width: 1.5;" width="161" x="155" y="10"/><ellipse cx="170" cy="30.0938" fill="#B4A7E5" rx="11" ry="11" style="stroke: #A80036; stroke-width: 1.0;"/><path d="M170.9531,26.7344 L170.9531,33.3906 L172.6719,33.3906 Q173.2813,33.3906 173.5469,33.625 Q173.8125,33.8594 173.8125,34.25 Q173.8125,34.625 173.5469,34.8594 Q173.2813,35.0938 172.6719,35.0938 L167.5313,35.0938 Q166.9219,35.0938 166.6563,34.8594 Q166.3906,34.625 166.3906,34.2344 Q166.3906,33.8594 166.6563,33.625 Q166.9219,33.3906 167.5313,33.3906 L169.25,33.3906 L169.25,26.7344 L167.5313,26.7344 Q166.9219,26.7344 166.6563,26.5 Q166.3906,26.2656 166.3906,25.875 Q166.3906,25.5 166.6563,25.2656 Q166.9219,25.0313 167.5313,25.0313 L172.6719,25.0313 Q173.2813,25.0313 173.5469,25.2656 Q173.8125,25.5 173.8125,25.875 Q173.8125,26.2656 173.5469,26.5 Q173.2813,26.7344 172.6719,26.7344 L170.9531,26.7344 Z "/><text fill="#000000" font-family="sans-serif" font-size="14" font-style="italic" lengthAdjust="spacingAndGlyphs" textLength="77" x="184" y="29.5332">Comparable</text><text fill="#000000" font-family="sans-serif" font-size="10" font-style="italic" lengthAdjust="spacingAndGlyphs" textLength="43" x="201" y="42.9902">java.lang</text><rect fill="#FFFFFF" height="17.0938" style="stroke: #000000; stroke-width: 1.0; stroke-dasharray: 2.0,2.0;" width="50" x="269" y="7"/><text fill="#000000" font-family="sans-serif" font-size="12" font-style="italic" lengthAdjust="spacingAndGlyphs" textLength="48" x="270" y="20.457">Principal</text><line style="stroke: #A80036; stroke-width: 1.5;" x1="156" x2="315" y1="50.1875" y2="50.1875"/><ellipse cx="166" cy="61.1875" fill="#84BE84" rx="3" ry="3" style="stroke: #038048; stroke-width: 1.0;"/><text fill="#000000" font-family="sans-serif" font-size="11" font-style="italic" lengthAdjust="spacingAndGlyphs" textLength="126" x="175" y="65.6064">compareTo(Principal): int</text><!--MD5=[5a5af9b0547913863cbe0ddf55a9ab5e]
class java.io.Serializable--><rect codeLine="26" fill="#FEFECE" filter="url(#f1ghu280i261b2)" height="40.1875" id="java.io.Serializable" style="stroke: #A80036; stroke-width: 1.5;" width="105" x="351" y="21"/><ellipse cx="366" cy="41.0938" fill="#B4A7E5" rx="11" ry="11" style="stroke: #A80036; stroke-width: 1.0;"/><path d="M366.9531,37.7344 L366.9531,44.3906 L368.6719,44.3906 Q369.2813,44.3906 369.5469,44.625 Q369.8125,44.8594 369.8125,45.25 Q369.8125,45.625 369.5469,45.8594 Q369.2813,46.0938 368.6719,46.0938 L363.5313,46.0938 Q362.9219,46.0938 362.6563,45.8594 Q362.3906,45.625 362.3906,45.2344 Q362.3906,44.8594 362.6563,44.625 Q362.9219,44.3906 363.5313,44.3906 L365.25,44.3906 L365.25,37.7344 L363.5313,37.7344 Q362.9219,37.7344 362.6563,37.5 Q362.3906,37.2656 362.3906,36.875 Q362.3906,36.5 362.6563,36.2656 Q362.9219,36.0313 363.5313,36.0313 L368.6719,36.0313 Q369.2813,36.0313 369.5469,36.2656 Q369.8125,36.5 369.8125,36.875 Q369.8125,37.2656 369.5469,37.5 Q369.2813,37.7344 368.6719,37.7344 L366.9531,37.7344 Z "/><text fill="#000000" font-family="sans-serif" font-size="14" font-style="italic" lengthAdjust="spacingAndGlyphs" textLength="73" x="380" y="40.5332">Serializable</text><text fill="#000000" font-family="sans-serif" font-size="10" font-style="italic" lengthAdjust="spacingAndGlyphs" textLength="31" x="401" y="53.9902">java.io</text><!--MD5=[01dff1c13eb9bbefaea62f2c037d9919]
reverse link java.security.Principal to org.apache.wiki.auth.WikiPrincipal--><path codeLine="28" d="M103.1273,87.5391 C114.6012,101.0141 127.6461,116.3343 140.9668,131.9784 " fill="none" id="java.security.Principal-backto-org.apache.wiki.auth.WikiPrincipal" style="stroke: #A80036; stroke-width: 1.0; stroke-dasharray: 7.0,7.0;"/><polygon fill="none" points="97.6345,91.8856,89.9981,72.1198,108.2939,82.8093,97.6345,91.8856" style="stroke: #A80036; stroke-width: 1.0;"/><!--MD5=[de6327563baad93a22d2f868a2ac8195]
reverse link java.lang.Comparable to org.apache.wiki.auth.WikiPrincipal--><path codeLine="29" d="M235.5,92.5038 C235.5,104.7227 235.5,118.2254 235.5,131.9784 " fill="none" id="java.lang.Comparable-backto-org.apache.wiki.auth.WikiPrincipal" style="stroke: #A80036; stroke-width: 1.0; stroke-dasharray: 7.0,7.0;"/><polygon fill="none" points="228.5001,92.1198,235.5,72.1198,242.5001,92.1198,228.5001,92.1198" style="stroke: #A80036; stroke-width: 1.0;"/><!--MD5=[ec8e80d48d4435410905123bd859e267]
reverse link java.io.Serializable to org.apache.wiki.auth.WikiPrincipal--><path codeLine="30" d="M373.9426,76.5392 C360.8846,92.24 344.7427,111.6487 328.1458,131.6045 " fill="none" id="java.io.Serializable-backto-org.apache.wiki.auth.WikiPrincipal" style="stroke: #A80036; stroke-width: 1.0; stroke-dasharray: 7.0,7.0;"/><polygon fill="none" points="368.6067,72.0079,386.7773,61.107,379.3705,80.96,368.6067,72.0079" style="stroke: #A80036; stroke-width: 1.0;"/><text fill="#888888" font-family="sans-serif" font-size="10" lengthAdjust="spacingAndGlyphs" textLength="190" x="133.5" y="377.5996">UMLDoclet 2.0.12, PlantUML 1.2020.16</text><!--MD5=[a4c818f827d4511a617eb60116a97618]
@startuml
    set namespaceSeparator none
    hide empty fields
    hide empty methods

    class "<size:14>WikiPrincipal\n<size:10>org.apache.wiki.auth" as org.apache.wiki.auth.WikiPrincipal [[WikiPrincipal.html]] {
        {static} +GUEST: Principal
        {static} +FULL_NAME: String
        {static} +LOGIN_NAME: String
        {static} +WIKI_NAME: String
        {static} +UNSPECIFIED: String
        {static} +COMPARATOR: Comparator<Principal>
        #WikiPrincipal()
        +WikiPrincipal(String)
        +WikiPrincipal(String, String)
        +getName(): String
        +getType(): String
        +compareTo(Principal): int
    }

    interface "<size:14>Principal\n<size:10>java.security" as java.security.Principal {
        {abstract} +getName(): String
    }
    interface "<size:14>Comparable\n<size:10>java.lang" as java.lang.Comparable<Principal> {
        {abstract} +compareTo(Principal): int
    }
    interface "<size:14>Serializable\n<size:10>java.io" as java.io.Serializable

    java.security.Principal <|.. org.apache.wiki.auth.WikiPrincipal
    java.lang.Comparable <|.. org.apache.wiki.auth.WikiPrincipal
    java.io.Serializable <|.. org.apache.wiki.auth.WikiPrincipal

    center footer UMLDoclet 2.0.12, PlantUML 1.2020.16
@enduml

PlantUML version 1.2020.16(Sun Aug 23 22:20:43 CEST 2020)
(APACHE source distribution)
Java Runtime: OpenJDK Runtime Environment
JVM: OpenJDK 64-Bit Server VM
Default Encoding: Cp1252
Language: es
Country: ES
--></g></svg>