<?xml version="1.0" encoding="UTF-8" standalone="no"?><svg xmlns="http://www.w3.org/2000/svg" xmlns:xlink="http://www.w3.org/1999/xlink" contentScriptType="application/ecmascript" contentStyleType="text/css" height="380px" preserveAspectRatio="none" style="width:629px;height:380px;" version="1.1" viewBox="0 0 629 380" width="629px" zoomAndPan="magnify"><defs><filter height="300%" id="f1qb6f7izquvv1" width="300%" x="-1" y="-1"><feGaussianBlur result="blurOut" stdDeviation="2.0"/><feColorMatrix in="blurOut" result="blurOut2" type="matrix" values="0 0 0 0 0 0 0 0 0 0 0 0 0 0 0 0 0 0 .4 0"/><feOffset dx="4.0" dy="4.0" in="blurOut2" result="blurOut3"/><feBlend in="SourceGraphic" in2="blurOut3" mode="normal"/></filter></defs><g><!--MD5=[1a682261387b7a948b33013247de62a1]
class org.apache.wiki.references.ReferenceManager--><a href="ReferenceManager.html" target="_top" title="ReferenceManager.html" xlink:actuate="onRequest" xlink:href="ReferenceManager.html" xlink:show="new" xlink:title="ReferenceManager.html" xlink:type="simple"><rect codeLine="5" fill="#FEFECE" filter="url(#f1qb6f7izquvv1)" height="214.2188" id="org.apache.wiki.references.ReferenceManager" style="stroke: #A80036; stroke-width: 1.5;" width="276" x="171.5" y="129"/><ellipse cx="241.75" cy="149.0938" fill="#B4A7E5" rx="11" ry="11" style="stroke: #A80036; stroke-width: 1.0;"/><path d="M242.7031,145.7344 L242.7031,152.3906 L244.4219,152.3906 Q245.0313,152.3906 245.2969,152.625 Q245.5625,152.8594 245.5625,153.25 Q245.5625,153.625 245.2969,153.8594 Q245.0313,154.0938 244.4219,154.0938 L239.2813,154.0938 Q238.6719,154.0938 238.4063,153.8594 Q238.1406,153.625 238.1406,153.2344 Q238.1406,152.8594 238.4063,152.625 Q238.6719,152.3906 239.2813,152.3906 L241,152.3906 L241,145.7344 L239.2813,145.7344 Q238.6719,145.7344 238.4063,145.5 Q238.1406,145.2656 238.1406,144.875 Q238.1406,144.5 238.4063,144.2656 Q238.6719,144.0313 239.2813,144.0313 L244.4219,144.0313 Q245.0313,144.0313 245.2969,144.2656 Q245.5625,144.5 245.5625,144.875 Q245.5625,145.2656 245.2969,145.5 Q245.0313,145.7344 244.4219,145.7344 L242.7031,145.7344 Z "/><text fill="#000000" font-family="sans-serif" font-size="14" font-style="italic" lengthAdjust="spacingAndGlyphs" textLength="123" x="264.25" y="148.5332">ReferenceManager</text><text fill="#000000" font-family="sans-serif" font-size="10" font-style="italic" lengthAdjust="spacingAndGlyphs" textLength="127" x="262.25" y="161.9902">org.apache.wiki.references</text><line style="stroke: #A80036; stroke-width: 1.5;" x1="172.5" x2="446.5" y1="169.1875" y2="169.1875"/><ellipse cx="182.5" cy="180.1875" fill="#84BE84" rx="3" ry="3" style="stroke: #038048; stroke-width: 1.0;"/><text fill="#000000" font-family="sans-serif" font-size="11" font-style="italic" lengthAdjust="spacingAndGlyphs" textLength="163" x="191.5" y="184.6064">initialize(Collection&lt;Page&gt;): void</text><ellipse cx="182.5" cy="194.0234" fill="#84BE84" rx="3" ry="3" style="stroke: #038048; stroke-width: 1.0;"/><text fill="#000000" font-family="sans-serif" font-size="11" font-style="italic" lengthAdjust="spacingAndGlyphs" textLength="239" x="191.5" y="198.4424">scanWikiLinks(Page, String): Collection&lt;String&gt;</text><ellipse cx="182.5" cy="207.8594" fill="#84BE84" rx="3" ry="3" style="stroke: #038048; stroke-width: 1.0;"/><text fill="#000000" font-family="sans-serif" font-size="11" font-style="italic" lengthAdjust="spacingAndGlyphs" textLength="129" x="191.5" y="212.2783">pageRemoved(Page): void</text><ellipse cx="182.5" cy="221.6953" fill="#84BE84" rx="3" ry="3" style="stroke: #038048; stroke-width: 1.0;"/><text fill="#000000" font-family="sans-serif" font-size="11" font-style="italic" lengthAdjust="spacingAndGlyphs" textLength="149" x="191.5" y="226.1143">updateReferences(Page): void</text><ellipse cx="182.5" cy="235.5313" fill="#84BE84" rx="3" ry="3" style="stroke: #038048; stroke-width: 1.0;"/><text fill="#000000" font-family="sans-serif" font-size="11" font-style="italic" lengthAdjust="spacingAndGlyphs" textLength="250" x="191.5" y="239.9502">updateReferences(String, Collection&lt;String&gt;): void</text><ellipse cx="182.5" cy="249.3672" fill="#84BE84" rx="3" ry="3" style="stroke: #038048; stroke-width: 1.0;"/><text fill="#000000" font-family="sans-serif" font-size="11" font-style="italic" lengthAdjust="spacingAndGlyphs" textLength="148" x="191.5" y="253.7861">clearPageEntries(String): void</text><ellipse cx="182.5" cy="263.2031" fill="#84BE84" rx="3" ry="3" style="stroke: #038048; stroke-width: 1.0;"/><text fill="#000000" font-family="sans-serif" font-size="11" font-style="italic" lengthAdjust="spacingAndGlyphs" textLength="189" x="191.5" y="267.6221">findUnreferenced(): Collection&lt;String&gt;</text><ellipse cx="182.5" cy="277.0391" fill="#84BE84" rx="3" ry="3" style="stroke: #038048; stroke-width: 1.0;"/><text fill="#000000" font-family="sans-serif" font-size="11" font-style="italic" lengthAdjust="spacingAndGlyphs" textLength="173" x="191.5" y="281.458">findUncreated(): Collection&lt;String&gt;</text><ellipse cx="182.5" cy="290.875" fill="#84BE84" rx="3" ry="3" style="stroke: #038048; stroke-width: 1.0;"/><text fill="#000000" font-family="sans-serif" font-size="11" font-style="italic" lengthAdjust="spacingAndGlyphs" textLength="165" x="191.5" y="295.2939">findReferrers(String): Set&lt;String&gt;</text><ellipse cx="182.5" cy="304.7109" fill="#84BE84" rx="3" ry="3" style="stroke: #038048; stroke-width: 1.0;"/><text fill="#000000" font-family="sans-serif" font-size="11" font-style="italic" lengthAdjust="spacingAndGlyphs" textLength="173" x="191.5" y="309.1299">findReferredBy(String): Set&lt;String&gt;</text><ellipse cx="182.5" cy="318.5469" fill="#84BE84" rx="3" ry="3" style="stroke: #038048; stroke-width: 1.0;"/><text fill="#000000" font-family="sans-serif" font-size="11" font-style="italic" lengthAdjust="spacingAndGlyphs" textLength="198" x="191.5" y="322.9658">findRefersTo(String): Collection&lt;String&gt;</text><ellipse cx="182.5" cy="332.3828" fill="#84BE84" rx="3" ry="3" style="stroke: #038048; stroke-width: 1.0;"/><text fill="#000000" font-family="sans-serif" font-size="11" font-style="italic" lengthAdjust="spacingAndGlyphs" textLength="128" x="191.5" y="336.8018">findCreated(): Set&lt;String&gt;</text></a><!--MD5=[a833b874e85e441aa0a4bb239711e1e4]
class org.apache.wiki.api.filters.PageFilter--><a href="..\api\filters\PageFilter.html" target="_top" title="..\api\filters\PageFilter.html" xlink:actuate="onRequest" xlink:href="..\api\filters\PageFilter.html" xlink:show="new" xlink:title="..\api\filters\PageFilter.html" xlink:type="simple"><rect codeLine="20" fill="#FEFECE" filter="url(#f1qb6f7izquvv1)" height="62.0234" id="org.apache.wiki.api.filters.PageFilter" style="stroke: #A80036; stroke-width: 1.5;" width="193" x="7" y="7"/><ellipse cx="39.55" cy="27.0938" fill="#B4A7E5" rx="11" ry="11" style="stroke: #A80036; stroke-width: 1.0;"/><path d="M40.5031,23.7344 L40.5031,30.3906 L42.2219,30.3906 Q42.8313,30.3906 43.0969,30.625 Q43.3625,30.8594 43.3625,31.25 Q43.3625,31.625 43.0969,31.8594 Q42.8313,32.0938 42.2219,32.0938 L37.0813,32.0938 Q36.4719,32.0938 36.2063,31.8594 Q35.9406,31.625 35.9406,31.2344 Q35.9406,30.8594 36.2063,30.625 Q36.4719,30.3906 37.0813,30.3906 L38.8,30.3906 L38.8,23.7344 L37.0813,23.7344 Q36.4719,23.7344 36.2063,23.5 Q35.9406,23.2656 35.9406,22.875 Q35.9406,22.5 36.2063,22.2656 Q36.4719,22.0313 37.0813,22.0313 L42.2219,22.0313 Q42.8313,22.0313 43.0969,22.2656 Q43.3625,22.5 43.3625,22.875 Q43.3625,23.2656 43.0969,23.5 Q42.8313,23.7344 42.2219,23.7344 L40.5031,23.7344 Z "/><text fill="#000000" font-family="sans-serif" font-size="14" font-style="italic" lengthAdjust="spacingAndGlyphs" textLength="65" x="85.95" y="26.5332">PageFilter</text><text fill="#000000" font-family="sans-serif" font-size="10" font-style="italic" lengthAdjust="spacingAndGlyphs" textLength="122" x="57.45" y="39.9902">org.apache.wiki.api.filters</text><line style="stroke: #A80036; stroke-width: 1.5;" x1="8" x2="199" y1="47.1875" y2="47.1875"/><ellipse cx="18" cy="58.1875" fill="#84BE84" rx="3" ry="3" style="stroke: #038048; stroke-width: 1.0;"/><text fill="#000000" font-family="sans-serif" font-size="11" font-style="italic" lengthAdjust="spacingAndGlyphs" textLength="167" x="27" y="62.6064">initialize(Engine, Properties): void</text></a><!--MD5=[b7bc5679f73a21bab50bb2c40ae49e22]
class org.apache.wiki.modules.InternalModule--><a href="..\modules\InternalModule.html" target="_top" title="..\modules\InternalModule.html" xlink:actuate="onRequest" xlink:href="..\modules\InternalModule.html" xlink:show="new" xlink:title="..\modules\InternalModule.html" xlink:type="simple"><rect codeLine="23" fill="#FEFECE" filter="url(#f1qb6f7izquvv1)" height="40.1875" id="org.apache.wiki.modules.InternalModule" style="stroke: #A80036; stroke-width: 1.5;" width="149" x="235" y="18"/><ellipse cx="250" cy="38.0938" fill="#B4A7E5" rx="11" ry="11" style="stroke: #A80036; stroke-width: 1.0;"/><path d="M250.9531,34.7344 L250.9531,41.3906 L252.6719,41.3906 Q253.2813,41.3906 253.5469,41.625 Q253.8125,41.8594 253.8125,42.25 Q253.8125,42.625 253.5469,42.8594 Q253.2813,43.0938 252.6719,43.0938 L247.5313,43.0938 Q246.9219,43.0938 246.6563,42.8594 Q246.3906,42.625 246.3906,42.2344 Q246.3906,41.8594 246.6563,41.625 Q246.9219,41.3906 247.5313,41.3906 L249.25,41.3906 L249.25,34.7344 L247.5313,34.7344 Q246.9219,34.7344 246.6563,34.5 Q246.3906,34.2656 246.3906,33.875 Q246.3906,33.5 246.6563,33.2656 Q246.9219,33.0313 247.5313,33.0313 L252.6719,33.0313 Q253.2813,33.0313 253.5469,33.2656 Q253.8125,33.5 253.8125,33.875 Q253.8125,34.2656 253.5469,34.5 Q253.2813,34.7344 252.6719,34.7344 L250.9531,34.7344 Z "/><text fill="#000000" font-family="sans-serif" font-size="14" font-style="italic" lengthAdjust="spacingAndGlyphs" textLength="95" x="275" y="37.5332">InternalModule</text><text fill="#000000" font-family="sans-serif" font-size="10" font-style="italic" lengthAdjust="spacingAndGlyphs" textLength="117" x="264" y="50.9902">org.apache.wiki.modules</text></a><!--MD5=[8c616ba9df2429bf0adc99a32a005079]
class org.apache.wiki.event.WikiEventListener--><a href="..\event\WikiEventListener.html" target="_top" title="..\event\WikiEventListener.html" xlink:actuate="onRequest" xlink:href="..\event\WikiEventListener.html" xlink:show="new" xlink:title="..\event\WikiEventListener.html" xlink:type="simple"><rect codeLine="24" fill="#FEFECE" filter="url(#f1qb6f7izquvv1)" height="62.0234" id="org.apache.wiki.event.WikiEventListener" style="stroke: #A80036; stroke-width: 1.5;" width="191" x="419" y="7"/><ellipse cx="454.25" cy="27.0938" fill="#B4A7E5" rx="11" ry="11" style="stroke: #A80036; stroke-width: 1.0;"/><path d="M455.2031,23.7344 L455.2031,30.3906 L456.9219,30.3906 Q457.5313,30.3906 457.7969,30.625 Q458.0625,30.8594 458.0625,31.25 Q458.0625,31.625 457.7969,31.8594 Q457.5313,32.0938 456.9219,32.0938 L451.7813,32.0938 Q451.1719,32.0938 450.9063,31.8594 Q450.6406,31.625 450.6406,31.2344 Q450.6406,30.8594 450.9063,30.625 Q451.1719,30.3906 451.7813,30.3906 L453.5,30.3906 L453.5,23.7344 L451.7813,23.7344 Q451.1719,23.7344 450.9063,23.5 Q450.6406,23.2656 450.6406,22.875 Q450.6406,22.5 450.9063,22.2656 Q451.1719,22.0313 451.7813,22.0313 L456.9219,22.0313 Q457.5313,22.0313 457.7969,22.2656 Q458.0625,22.5 458.0625,22.875 Q458.0625,23.2656 457.7969,23.5 Q457.5313,23.7344 456.9219,23.7344 L455.2031,23.7344 Z "/><text fill="#000000" font-family="sans-serif" font-size="14" font-style="italic" lengthAdjust="spacingAndGlyphs" textLength="114" x="472.75" y="26.5332">WikiEventListener</text><text fill="#000000" font-family="sans-serif" font-size="10" font-style="italic" lengthAdjust="spacingAndGlyphs" textLength="104" x="477.75" y="39.9902">org.apache.wiki.event</text><line style="stroke: #A80036; stroke-width: 1.5;" x1="420" x2="609" y1="47.1875" y2="47.1875"/><ellipse cx="430" cy="58.1875" fill="#84BE84" rx="3" ry="3" style="stroke: #038048; stroke-width: 1.0;"/><text fill="#000000" font-family="sans-serif" font-size="11" font-style="italic" lengthAdjust="spacingAndGlyphs" textLength="165" x="439" y="62.6064">actionPerformed(WikiEvent): void</text></a><!--MD5=[e0144d9ba2d1a2068c1eced04c8e57d6]
reverse link org.apache.wiki.api.filters.PageFilter to org.apache.wiki.references.ReferenceManager--><path codeLine="28" d="M150.7625,83.427 C165.0543,97.1639 181.3949,112.8699 198.0322,128.861 " fill="none" id="org.apache.wiki.api.filters.PageFilter-backto-org.apache.wiki.references.ReferenceManager" style="stroke: #A80036; stroke-width: 1.0;"/><polygon fill="none" points="145.7099,88.2799,136.1413,69.3737,155.4115,78.1863,145.7099,88.2799" style="stroke: #A80036; stroke-width: 1.0;"/><!--MD5=[9670c8de95bcd62c6a980093cd20b470]
reverse link org.apache.wiki.modules.InternalModule to org.apache.wiki.references.ReferenceManager--><path codeLine="29" d="M309.5,78.1598 C309.5,92.9987 309.5,110.6057 309.5,128.5854 " fill="none" id="org.apache.wiki.modules.InternalModule-backto-org.apache.wiki.references.ReferenceManager" style="stroke: #A80036; stroke-width: 1.0;"/><polygon fill="none" points="302.5001,78.075,309.5,58.0749,316.5001,78.0749,302.5001,78.075" style="stroke: #A80036; stroke-width: 1.0;"/><!--MD5=[46c830379aa3ad98c731b1d2548475f8]
reverse link org.apache.wiki.event.WikiEventListener to org.apache.wiki.references.ReferenceManager--><path codeLine="30" d="M467.467,83.427 C453.2445,97.1639 436.9832,112.8699 420.4267,128.861 " fill="none" id="org.apache.wiki.event.WikiEventListener-backto-org.apache.wiki.references.ReferenceManager" style="stroke: #A80036; stroke-width: 1.0;"/><polygon fill="none" points="462.7685,78.2331,482.0171,69.3737,472.4946,88.3031,462.7685,78.2331" style="stroke: #A80036; stroke-width: 1.0;"/><text fill="#888888" font-family="sans-serif" font-size="10" lengthAdjust="spacingAndGlyphs" textLength="190" x="210.5" y="366.5996">UMLDoclet 2.0.12, PlantUML 1.2020.16</text><!--MD5=[fec8ecfce6d0e8608481102ed396c475]
@startuml
    set namespaceSeparator none
    hide empty fields
    hide empty methods

    interface "<size:14>ReferenceManager\n<size:10>org.apache.wiki.references" as org.apache.wiki.references.ReferenceManager [[ReferenceManager.html]] {
        {abstract} +initialize(Collection<Page>): void
        {abstract} +scanWikiLinks(Page, String): Collection<String>
        {abstract} +pageRemoved(Page): void
        {abstract} +updateReferences(Page): void
        {abstract} +updateReferences(String, Collection<String>): void
        {abstract} +clearPageEntries(String): void
        {abstract} +findUnreferenced(): Collection<String>
        {abstract} +findUncreated(): Collection<String>
        {abstract} +findReferrers(String): Set<String>
        {abstract} +findReferredBy(String): Set<String>
        {abstract} +findRefersTo(String): Collection<String>
        {abstract} +findCreated(): Set<String>
    }

    interface "<size:14>PageFilter\n<size:10>org.apache.wiki.api.filters" as org.apache.wiki.api.filters.PageFilter [[..\api\filters\PageFilter.html]] {
        {abstract} +initialize(Engine, Properties): void
    }
    interface "<size:14>InternalModule\n<size:10>org.apache.wiki.modules" as org.apache.wiki.modules.InternalModule [[..\modules\InternalModule.html]]
    interface "<size:14>WikiEventListener\n<size:10>org.apache.wiki.event" as org.apache.wiki.event.WikiEventListener [[..\event\WikiEventListener.html]] {
        {abstract} +actionPerformed(WikiEvent): void
    }

    org.apache.wiki.api.filters.PageFilter <|- - org.apache.wiki.references.ReferenceManager
    org.apache.wiki.modules.InternalModule <|- - org.apache.wiki.references.ReferenceManager
    org.apache.wiki.event.WikiEventListener <|- - org.apache.wiki.references.ReferenceManager

    center footer UMLDoclet 2.0.12, PlantUML 1.2020.16
@enduml

PlantUML version 1.2020.16(Sun Aug 23 22:20:43 CEST 2020)
(APACHE source distribution)
Java Runtime: OpenJDK Runtime Environment
JVM: OpenJDK 64-Bit Server VM
Default Encoding: Cp1252
Language: es
Country: ES
--></g></svg>