<?xml version="1.0" encoding="UTF-8" standalone="no"?><svg xmlns="http://www.w3.org/2000/svg" xmlns:xlink="http://www.w3.org/1999/xlink" contentScriptType="application/ecmascript" contentStyleType="text/css" height="692px" preserveAspectRatio="none" style="width:1968px;height:692px;background:#FFFFFF;" version="1.1" viewBox="0 0 1968 692" width="1968px" zoomAndPan="magnify"><defs><filter height="300%" id="ffc54vi45p1pj" width="300%" x="-1" y="-1"><feGaussianBlur result="blurOut" stdDeviation="2.0"/><feColorMatrix in="blurOut" result="blurOut2" type="matrix" values="0 0 0 0 0 0 0 0 0 0 0 0 0 0 0 0 0 0 .4 0"/><feOffset dx="4.0" dy="4.0" in="blurOut2" result="blurOut3"/><feBlend in="SourceGraphic" in2="blurOut3" mode="normal"/></filter></defs><g><!--MD5=[27836ab87b215628176b57f2d9871caa]
cluster org.apache.wiki.forms--><polygon fill="#FFFFFF" filter="url(#ffc54vi45p1pj)" points="16,155,198,155,205,177.2969,1951,177.2969,1951,669,16,669,16,155" style="stroke:#000000;stroke-width:1.5;"/><line style="stroke:#000000;stroke-width:1.5;" x1="16" x2="205" y1="177.2969" y2="177.2969"/><text fill="#000000" font-family="sans-serif" font-size="14" font-weight="bold" lengthAdjust="spacing" textLength="176" x="20" y="169.9951">org.apache.wiki.forms</text><!--MD5=[995102a770b16a50c2339cd3df1cc322]
cluster org.apache.wiki.api.plugin--><polygon fill="#FFFFFF" filter="url(#ffc54vi45p1pj)" points="578,6,790,6,797,28.2969,898,28.2969,898,131,578,131,578,6" style="stroke:#000000;stroke-width:1.5;"/><line style="stroke:#000000;stroke-width:1.5;" x1="578" x2="797" y1="28.2969" y2="28.2969"/><text fill="#000000" font-family="sans-serif" font-size="14" font-weight="bold" lengthAdjust="spacing" textLength="206" x="582" y="20.9951">org.apache.wiki.api.plugin</text><!--MD5=[0d852700fdad35b7061d461d6907a324]
cluster java.io--><polygon fill="#FFFFFF" filter="url(#ffc54vi45p1pj)" points="1383,19,1439,19,1446,41.2969,1519,41.2969,1519,118,1383,118,1383,19" style="stroke:#000000;stroke-width:1.5;"/><line style="stroke:#000000;stroke-width:1.5;" x1="1383" x2="1446" y1="41.2969" y2="41.2969"/><text fill="#000000" font-family="sans-serif" font-size="14" font-weight="bold" lengthAdjust="spacing" textLength="50" x="1387" y="33.9951">java.io</text><!--MD5=[16a9f3453b0210d124daab26ebea5522]
class org.apache.wiki.forms.FormInput--><a href="FormInput.html" target="_top" title="FormInput.html" xlink:actuate="onRequest" xlink:href="FormInput.html" xlink:show="new" xlink:title="FormInput.html" xlink:type="simple"><rect codeLine="3" fill="#FEFECE" filter="url(#ffc54vi45p1pj)" height="99.2188" id="org.apache.wiki.forms.FormInput" style="stroke:#A80036;stroke-width:1.5;" width="288" x="32" y="554"/><ellipse cx="140.25" cy="570" fill="#ADD1B2" rx="11" ry="11" style="stroke:#A80036;stroke-width:1.0;"/><path d="M143.2188,575.6406 Q142.6406,575.9375 142,576.0781 Q141.3594,576.2344 140.6563,576.2344 Q138.1563,576.2344 136.8281,574.5938 Q135.5156,572.9375 135.5156,569.8125 Q135.5156,566.6875 136.8281,565.0313 Q138.1563,563.375 140.6563,563.375 Q141.3594,563.375 142,563.5313 Q142.6563,563.6875 143.2188,563.9844 L143.2188,566.7031 Q142.5938,566.125 142,565.8594 Q141.4063,565.5781 140.7813,565.5781 Q139.4375,565.5781 138.75,566.6563 Q138.0625,567.7188 138.0625,569.8125 Q138.0625,571.9063 138.75,572.9844 Q139.4375,574.0469 140.7813,574.0469 Q141.4063,574.0469 142,573.7813 Q142.5938,573.5 143.2188,572.9219 L143.2188,575.6406 Z " fill="#000000"/><text fill="#000000" font-family="sans-serif" font-size="12" lengthAdjust="spacing" textLength="63" x="160.75" y="574.1543">FormInput</text><line style="stroke:#A80036;stroke-width:1.5;" x1="33" x2="319" y1="586" y2="586"/><ellipse cx="43" cy="597" rx="3" ry="3" style="stroke:#038048;stroke-width:1.0;fill:none;"/><text fill="#000000" font-family="sans-serif" font-size="11" lengthAdjust="spacing" text-decoration="underline" textLength="113" x="52" y="600.2104">PARAM_TYPE: String</text><ellipse cx="43" cy="609.8047" rx="3" ry="3" style="stroke:#038048;stroke-width:1.0;fill:none;"/><text fill="#000000" font-family="sans-serif" font-size="11" lengthAdjust="spacing" text-decoration="underline" textLength="112" x="52" y="613.0151">PARAM_SIZE: String</text><ellipse cx="43" cy="622.6094" rx="3" ry="3" style="stroke:#038048;stroke-width:1.0;fill:none;"/><text fill="#000000" font-family="sans-serif" font-size="11" lengthAdjust="spacing" text-decoration="underline" textLength="138" x="52" y="625.8198">PARAM_CHECKED: String</text><line style="stroke:#A80036;stroke-width:1.5;" x1="33" x2="319" y1="632.4141" y2="632.4141"/><ellipse cx="43" cy="643.4141" fill="#84BE84" rx="3" ry="3" style="stroke:#038048;stroke-width:1.0;"/><text fill="#000000" font-family="sans-serif" font-size="11" lengthAdjust="spacing" textLength="262" x="52" y="646.6245">execute(Context, Map&lt;String, String&gt;): String</text></a><!--MD5=[b5760e09b85fcd19e8f5058b0a6f5985]
class org.apache.wiki.forms.FormTextarea--><a href="FormTextarea.html" target="_top" title="FormTextarea.html" xlink:actuate="onRequest" xlink:href="FormTextarea.html" xlink:show="new" xlink:title="FormTextarea.html" xlink:type="simple"><rect codeLine="10" fill="#FEFECE" filter="url(#ffc54vi45p1pj)" height="86.4141" id="org.apache.wiki.forms.FormTextarea" style="stroke:#A80036;stroke-width:1.5;" width="288" x="355" y="560.5"/><ellipse cx="451.75" cy="576.5" fill="#ADD1B2" rx="11" ry="11" style="stroke:#A80036;stroke-width:1.0;"/><path d="M454.7188,582.1406 Q454.1406,582.4375 453.5,582.5781 Q452.8594,582.7344 452.1563,582.7344 Q449.6563,582.7344 448.3281,581.0938 Q447.0156,579.4375 447.0156,576.3125 Q447.0156,573.1875 448.3281,571.5313 Q449.6563,569.875 452.1563,569.875 Q452.8594,569.875 453.5,570.0313 Q454.1563,570.1875 454.7188,570.4844 L454.7188,573.2031 Q454.0938,572.625 453.5,572.3594 Q452.9063,572.0781 452.2813,572.0781 Q450.9375,572.0781 450.25,573.1563 Q449.5625,574.2188 449.5625,576.3125 Q449.5625,578.4063 450.25,579.4844 Q450.9375,580.5469 452.2813,580.5469 Q452.9063,580.5469 453.5,580.2813 Q454.0938,580 454.7188,579.4219 L454.7188,582.1406 Z " fill="#000000"/><text fill="#000000" font-family="sans-serif" font-size="12" lengthAdjust="spacing" textLength="86" x="472.25" y="580.6543">FormTextarea</text><line style="stroke:#A80036;stroke-width:1.5;" x1="356" x2="642" y1="592.5" y2="592.5"/><ellipse cx="366" cy="603.5" rx="3" ry="3" style="stroke:#038048;stroke-width:1.0;fill:none;"/><text fill="#000000" font-family="sans-serif" font-size="11" lengthAdjust="spacing" text-decoration="underline" textLength="118" x="375" y="606.7104">PARAM_ROWS: String</text><ellipse cx="366" cy="616.3047" rx="3" ry="3" style="stroke:#038048;stroke-width:1.0;fill:none;"/><text fill="#000000" font-family="sans-serif" font-size="11" lengthAdjust="spacing" text-decoration="underline" textLength="116" x="375" y="619.5151">PARAM_COLS: String</text><line style="stroke:#A80036;stroke-width:1.5;" x1="356" x2="642" y1="626.1094" y2="626.1094"/><ellipse cx="366" cy="637.1094" fill="#84BE84" rx="3" ry="3" style="stroke:#038048;stroke-width:1.0;"/><text fill="#000000" font-family="sans-serif" font-size="11" lengthAdjust="spacing" textLength="262" x="375" y="640.3198">execute(Context, Map&lt;String, String&gt;): String</text></a><!--MD5=[aad51b2340c3e79eddea478695311397]
class org.apache.wiki.forms.FormOpen--><a href="FormOpen.html" target="_top" title="FormOpen.html" xlink:actuate="onRequest" xlink:href="FormOpen.html" xlink:show="new" xlink:title="FormOpen.html" xlink:type="simple"><rect codeLine="16" fill="#FEFECE" filter="url(#ffc54vi45p1pj)" height="73.6094" id="org.apache.wiki.forms.FormOpen" style="stroke:#A80036;stroke-width:1.5;" width="288" x="678" y="566.5"/><ellipse cx="785.75" cy="582.5" fill="#ADD1B2" rx="11" ry="11" style="stroke:#A80036;stroke-width:1.0;"/><path d="M788.7188,588.1406 Q788.1406,588.4375 787.5,588.5781 Q786.8594,588.7344 786.1563,588.7344 Q783.6563,588.7344 782.3281,587.0938 Q781.0156,585.4375 781.0156,582.3125 Q781.0156,579.1875 782.3281,577.5313 Q783.6563,575.875 786.1563,575.875 Q786.8594,575.875 787.5,576.0313 Q788.1563,576.1875 788.7188,576.4844 L788.7188,579.2031 Q788.0938,578.625 787.5,578.3594 Q786.9063,578.0781 786.2813,578.0781 Q784.9375,578.0781 784.25,579.1563 Q783.5625,580.2188 783.5625,582.3125 Q783.5625,584.4063 784.25,585.4844 Q784.9375,586.5469 786.2813,586.5469 Q786.9063,586.5469 787.5,586.2813 Q788.0938,586 788.7188,585.4219 L788.7188,588.1406 Z " fill="#000000"/><text fill="#000000" font-family="sans-serif" font-size="12" lengthAdjust="spacing" textLength="64" x="806.25" y="586.6543">FormOpen</text><line style="stroke:#A80036;stroke-width:1.5;" x1="679" x2="965" y1="598.5" y2="598.5"/><ellipse cx="689" cy="609.5" rx="3" ry="3" style="stroke:#038048;stroke-width:1.0;fill:none;"/><text fill="#000000" font-family="sans-serif" font-size="11" lengthAdjust="spacing" text-decoration="underline" textLength="133" x="698" y="612.7104">PARAM_METHOD: String</text><line style="stroke:#A80036;stroke-width:1.5;" x1="679" x2="965" y1="619.3047" y2="619.3047"/><ellipse cx="689" cy="630.3047" fill="#84BE84" rx="3" ry="3" style="stroke:#038048;stroke-width:1.0;"/><text fill="#000000" font-family="sans-serif" font-size="11" lengthAdjust="spacing" textLength="262" x="698" y="633.5151">execute(Context, Map&lt;String, String&gt;): String</text></a><!--MD5=[b6dc634ed3a21ebfe7cf5a0ba258dc03]
class org.apache.wiki.forms.FormHandler--><a href="FormHandler.html" target="_top" title="FormHandler.html" xlink:actuate="onRequest" xlink:href="FormHandler.html" xlink:show="new" xlink:title="FormHandler.html" xlink:type="simple"><rect codeLine="21" fill="#FEFECE" filter="url(#ffc54vi45p1pj)" height="48" id="org.apache.wiki.forms.FormHandler" style="stroke:#A80036;stroke-width:1.5;" width="112" x="1755" y="318"/><ellipse cx="1770" cy="334" fill="#B4A7E5" rx="11" ry="11" style="stroke:#A80036;stroke-width:1.0;"/><path d="M1765.9219,329.7656 L1765.9219,327.6094 L1773.3125,327.6094 L1773.3125,329.7656 L1770.8438,329.7656 L1770.8438,337.8438 L1773.3125,337.8438 L1773.3125,340 L1765.9219,340 L1765.9219,337.8438 L1768.3906,337.8438 L1768.3906,329.7656 L1765.9219,329.7656 Z " fill="#000000"/><text fill="#000000" font-family="sans-serif" font-size="12" font-style="italic" lengthAdjust="spacing" textLength="80" x="1784" y="338.1543">FormHandler</text><line style="stroke:#A80036;stroke-width:1.5;" x1="1756" x2="1866" y1="350" y2="350"/><line style="stroke:#A80036;stroke-width:1.5;" x1="1756" x2="1866" y1="358" y2="358"/></a><!--MD5=[a3f8cd2d51ef03517d3c56509cbaddb5]
class org.apache.wiki.forms.FormSet--><a href="FormSet.html" target="_top" title="FormSet.html" xlink:actuate="onRequest" xlink:href="FormSet.html" xlink:show="new" xlink:title="FormSet.html" xlink:type="simple"><rect codeLine="23" fill="#FEFECE" filter="url(#ffc54vi45p1pj)" height="60.8047" id="org.apache.wiki.forms.FormSet" style="stroke:#A80036;stroke-width:1.5;" width="288" x="443" y="311.5"/><ellipse cx="556.75" cy="327.5" fill="#ADD1B2" rx="11" ry="11" style="stroke:#A80036;stroke-width:1.0;"/><path d="M559.7188,333.1406 Q559.1406,333.4375 558.5,333.5781 Q557.8594,333.7344 557.1563,333.7344 Q554.6563,333.7344 553.3281,332.0938 Q552.0156,330.4375 552.0156,327.3125 Q552.0156,324.1875 553.3281,322.5313 Q554.6563,320.875 557.1563,320.875 Q557.8594,320.875 558.5,321.0313 Q559.1563,321.1875 559.7188,321.4844 L559.7188,324.2031 Q559.0938,323.625 558.5,323.3594 Q557.9063,323.0781 557.2813,323.0781 Q555.9375,323.0781 555.25,324.1563 Q554.5625,325.2188 554.5625,327.3125 Q554.5625,329.4063 555.25,330.4844 Q555.9375,331.5469 557.2813,331.5469 Q557.9063,331.5469 558.5,331.2813 Q559.0938,331 559.7188,330.4219 L559.7188,333.1406 Z " fill="#000000"/><text fill="#000000" font-family="sans-serif" font-size="12" lengthAdjust="spacing" textLength="52" x="577.25" y="331.6543">FormSet</text><line style="stroke:#A80036;stroke-width:1.5;" x1="444" x2="730" y1="343.5" y2="343.5"/><line style="stroke:#A80036;stroke-width:1.5;" x1="444" x2="730" y1="351.5" y2="351.5"/><ellipse cx="454" cy="362.5" fill="#84BE84" rx="3" ry="3" style="stroke:#038048;stroke-width:1.0;"/><text fill="#000000" font-family="sans-serif" font-size="11" lengthAdjust="spacing" textLength="262" x="463" y="365.7104">execute(Context, Map&lt;String, String&gt;): String</text></a><!--MD5=[693c924bc36a267e01f78f6f3fa6b213]
class org.apache.wiki.forms.FormElement--><a href="FormElement.html" target="_top" title="FormElement.html" xlink:actuate="onRequest" xlink:href="FormElement.html" xlink:show="new" xlink:title="FormElement.html" xlink:type="simple"><rect codeLine="27" fill="#FEFECE" filter="url(#ffc54vi45p1pj)" height="227.2656" id="org.apache.wiki.forms.FormElement" style="stroke:#A80036;stroke-width:1.5;" width="246" x="766" y="228.5"/><ellipse cx="843.75" cy="244.5" fill="#A9DCDF" rx="11" ry="11" style="stroke:#A80036;stroke-width:1.0;"/><path d="M843.8594,239.8438 L842.7031,244.9219 L845.0313,244.9219 L843.8594,239.8438 Z M842.375,237.6094 L845.3594,237.6094 L848.7188,250 L846.2656,250 L845.5,246.9375 L842.2188,246.9375 L841.4688,250 L839.0313,250 L842.375,237.6094 Z " fill="#000000"/><text fill="#000000" font-family="sans-serif" font-size="12" font-style="italic" lengthAdjust="spacing" textLength="82" x="864.25" y="248.6543">FormElement</text><line style="stroke:#A80036;stroke-width:1.5;" x1="767" x2="1011" y1="260.5" y2="260.5"/><ellipse cx="777" cy="271.5" rx="3" ry="3" style="stroke:#038048;stroke-width:1.0;fill:none;"/><text fill="#000000" font-family="sans-serif" font-size="11" lengthAdjust="spacing" text-decoration="underline" textLength="173" x="786" y="274.7104">HANDLERPARAM_PREFIX: String</text><ellipse cx="777" cy="284.3047" rx="3" ry="3" style="stroke:#038048;stroke-width:1.0;fill:none;"/><text fill="#000000" font-family="sans-serif" font-size="11" lengthAdjust="spacing" text-decoration="underline" textLength="174" x="786" y="287.5151">FORM_VALUES_CARRIER: String</text><ellipse cx="777" cy="297.1094" rx="3" ry="3" style="stroke:#038048;stroke-width:1.0;fill:none;"/><text fill="#000000" font-family="sans-serif" font-size="11" lengthAdjust="spacing" text-decoration="underline" textLength="129" x="786" y="300.3198">HIDE_SUCCESS: String</text><ellipse cx="777" cy="309.9141" rx="3" ry="3" style="stroke:#038048;stroke-width:1.0;fill:none;"/><text fill="#000000" font-family="sans-serif" font-size="11" lengthAdjust="spacing" text-decoration="underline" textLength="179" x="786" y="313.1245">PARAM_SUBMITHANDLER: String</text><ellipse cx="777" cy="322.7188" rx="3" ry="3" style="stroke:#038048;stroke-width:1.0;fill:none;"/><text fill="#000000" font-family="sans-serif" font-size="11" lengthAdjust="spacing" text-decoration="underline" textLength="136" x="786" y="325.9292">PARAM_ELEMENT: String</text><ellipse cx="777" cy="335.5234" rx="3" ry="3" style="stroke:#038048;stroke-width:1.0;fill:none;"/><text fill="#000000" font-family="sans-serif" font-size="11" lengthAdjust="spacing" text-decoration="underline" textLength="136" x="786" y="338.7339">PARAM_HANDLER: String</text><ellipse cx="777" cy="348.3281" rx="3" ry="3" style="stroke:#038048;stroke-width:1.0;fill:none;"/><text fill="#000000" font-family="sans-serif" font-size="11" lengthAdjust="spacing" text-decoration="underline" textLength="116" x="786" y="351.5386">PARAM_FORM: String</text><ellipse cx="777" cy="361.1328" rx="3" ry="3" style="stroke:#038048;stroke-width:1.0;fill:none;"/><text fill="#000000" font-family="sans-serif" font-size="11" lengthAdjust="spacing" text-decoration="underline" textLength="149" x="786" y="364.3433">PARAM_INPUTNAME: String</text><ellipse cx="777" cy="373.9375" rx="3" ry="3" style="stroke:#038048;stroke-width:1.0;fill:none;"/><text fill="#000000" font-family="sans-serif" font-size="11" lengthAdjust="spacing" text-decoration="underline" textLength="120" x="786" y="377.1479">PARAM_VALUE: String</text><ellipse cx="777" cy="386.7422" rx="3" ry="3" style="stroke:#038048;stroke-width:1.0;fill:none;"/><text fill="#000000" font-family="sans-serif" font-size="11" lengthAdjust="spacing" text-decoration="underline" textLength="142" x="786" y="389.9526">PARAM_HIDEFORM: String</text><ellipse cx="777" cy="399.5469" rx="3" ry="3" style="stroke:#038048;stroke-width:1.0;fill:none;"/><text fill="#000000" font-family="sans-serif" font-size="11" lengthAdjust="spacing" text-decoration="underline" textLength="143" x="786" y="402.7573">PARAM_POPULATE: String</text><ellipse cx="777" cy="412.3516" rx="3" ry="3" style="stroke:#038048;stroke-width:1.0;fill:none;"/><text fill="#000000" font-family="sans-serif" font-size="11" lengthAdjust="spacing" text-decoration="underline" textLength="189" x="786" y="415.562">PARAM_FORMNAMEHIDDEN: String</text><line style="stroke:#A80036;stroke-width:1.5;" x1="767" x2="1011" y1="422.1563" y2="422.1563"/><polygon fill="#FFFF44" points="777,428.1563,781,432.1563,777,436.1563,773,432.1563" style="stroke:#B38D22;stroke-width:1.0;"/><text fill="#000000" font-family="sans-serif" font-size="11" lengthAdjust="spacing" textLength="220" x="786" y="436.3667">storeFormInfo(Context, FormInfo): void</text><polygon fill="#FFFF44" points="777,440.9609,781,444.9609,777,448.9609,773,444.9609" style="stroke:#B38D22;stroke-width:1.0;"/><text fill="#000000" font-family="sans-serif" font-size="11" lengthAdjust="spacing" textLength="177" x="786" y="449.1714">getFormInfo(Context): FormInfo</text></a><!--MD5=[e192da31a341ed7ef922e26b04d8ff42]
class org.apache.wiki.forms.FormInfo--><a href="FormInfo.html" target="_top" title="FormInfo.html" xlink:actuate="onRequest" xlink:href="FormInfo.html" xlink:show="new" xlink:title="FormInfo.html" xlink:type="simple"><rect codeLine="44" fill="#FEFECE" filter="url(#ffc54vi45p1pj)" height="304.0938" id="org.apache.wiki.forms.FormInfo" style="stroke:#A80036;stroke-width:1.5;" width="270" x="1316" y="190"/><ellipse cx="1419.75" cy="206" fill="#ADD1B2" rx="11" ry="11" style="stroke:#A80036;stroke-width:1.0;"/><path d="M1422.7188,211.6406 Q1422.1406,211.9375 1421.5,212.0781 Q1420.8594,212.2344 1420.1563,212.2344 Q1417.6563,212.2344 1416.3281,210.5938 Q1415.0156,208.9375 1415.0156,205.8125 Q1415.0156,202.6875 1416.3281,201.0313 Q1417.6563,199.375 1420.1563,199.375 Q1420.8594,199.375 1421.5,199.5313 Q1422.1563,199.6875 1422.7188,199.9844 L1422.7188,202.7031 Q1422.0938,202.125 1421.5,201.8594 Q1420.9063,201.5781 1420.2813,201.5781 Q1418.9375,201.5781 1418.25,202.6563 Q1417.5625,203.7188 1417.5625,205.8125 Q1417.5625,207.9063 1418.25,208.9844 Q1418.9375,210.0469 1420.2813,210.0469 Q1420.9063,210.0469 1421.5,209.7813 Q1422.0938,209.5 1422.7188,208.9219 L1422.7188,211.6406 Z " fill="#000000"/><text fill="#000000" font-family="sans-serif" font-size="12" lengthAdjust="spacing" textLength="54" x="1440.25" y="210.1543">FormInfo</text><line style="stroke:#A80036;stroke-width:1.5;" x1="1317" x2="1585" y1="222" y2="222"/><ellipse cx="1327" cy="233" rx="3" ry="3" style="stroke:#038048;stroke-width:1.0;fill:none;"/><text fill="#000000" font-family="sans-serif" font-size="11" lengthAdjust="spacing" text-decoration="underline" textLength="81" x="1336" y="236.2104">EXECUTED: int</text><ellipse cx="1327" cy="245.8047" rx="3" ry="3" style="stroke:#038048;stroke-width:1.0;fill:none;"/><text fill="#000000" font-family="sans-serif" font-size="11" lengthAdjust="spacing" text-decoration="underline" textLength="38" x="1336" y="249.0151">OK: int</text><ellipse cx="1327" cy="258.6094" rx="3" ry="3" style="stroke:#038048;stroke-width:1.0;fill:none;"/><text fill="#000000" font-family="sans-serif" font-size="11" lengthAdjust="spacing" text-decoration="underline" textLength="59" x="1336" y="261.8198">ERROR: int</text><line style="stroke:#A80036;stroke-width:1.5;" x1="1317" x2="1585" y1="268.4141" y2="268.4141"/><ellipse cx="1327" cy="279.4141" fill="#84BE84" rx="3" ry="3" style="stroke:#038048;stroke-width:1.0;"/><text fill="#000000" font-family="sans-serif" font-size="11" lengthAdjust="spacing" textLength="108" x="1336" y="282.6245">setStatus(int): void</text><ellipse cx="1327" cy="292.2188" fill="#84BE84" rx="3" ry="3" style="stroke:#038048;stroke-width:1.0;"/><text fill="#000000" font-family="sans-serif" font-size="11" lengthAdjust="spacing" textLength="85" x="1336" y="295.4292">getStatus(): int</text><ellipse cx="1327" cy="305.0234" fill="#84BE84" rx="3" ry="3" style="stroke:#038048;stroke-width:1.0;"/><text fill="#000000" font-family="sans-serif" font-size="11" lengthAdjust="spacing" textLength="127" x="1336" y="308.2339">setHide(boolean): void</text><ellipse cx="1327" cy="317.8281" fill="#84BE84" rx="3" ry="3" style="stroke:#038048;stroke-width:1.0;"/><text fill="#000000" font-family="sans-serif" font-size="11" lengthAdjust="spacing" textLength="85" x="1336" y="321.0386">hide(): boolean</text><ellipse cx="1327" cy="330.6328" fill="#84BE84" rx="3" ry="3" style="stroke:#038048;stroke-width:1.0;"/><text fill="#000000" font-family="sans-serif" font-size="11" lengthAdjust="spacing" textLength="125" x="1336" y="333.8433">setAction(String): void</text><ellipse cx="1327" cy="343.4375" fill="#84BE84" rx="3" ry="3" style="stroke:#038048;stroke-width:1.0;"/><text fill="#000000" font-family="sans-serif" font-size="11" lengthAdjust="spacing" textLength="102" x="1336" y="346.6479">getAction(): String</text><ellipse cx="1327" cy="356.2422" fill="#84BE84" rx="3" ry="3" style="stroke:#038048;stroke-width:1.0;"/><text fill="#000000" font-family="sans-serif" font-size="11" lengthAdjust="spacing" textLength="124" x="1336" y="359.4526">setName(String): void</text><ellipse cx="1327" cy="369.0469" fill="#84BE84" rx="3" ry="3" style="stroke:#038048;stroke-width:1.0;"/><text fill="#000000" font-family="sans-serif" font-size="11" lengthAdjust="spacing" textLength="101" x="1336" y="372.2573">getName(): String</text><ellipse cx="1327" cy="381.8516" fill="#84BE84" rx="3" ry="3" style="stroke:#038048;stroke-width:1.0;"/><text fill="#000000" font-family="sans-serif" font-size="11" lengthAdjust="spacing" textLength="135" x="1336" y="385.062">setHandler(String): void</text><ellipse cx="1327" cy="394.6563" fill="#84BE84" rx="3" ry="3" style="stroke:#038048;stroke-width:1.0;"/><text fill="#000000" font-family="sans-serif" font-size="11" lengthAdjust="spacing" textLength="112" x="1336" y="397.8667">getHandler(): String</text><ellipse cx="1327" cy="407.4609" fill="#84BE84" rx="3" ry="3" style="stroke:#038048;stroke-width:1.0;"/><text fill="#000000" font-family="sans-serif" font-size="11" lengthAdjust="spacing" textLength="126" x="1336" y="410.6714">setResult(String): void</text><ellipse cx="1327" cy="420.2656" fill="#84BE84" rx="3" ry="3" style="stroke:#038048;stroke-width:1.0;"/><text fill="#000000" font-family="sans-serif" font-size="11" lengthAdjust="spacing" textLength="103" x="1336" y="423.4761">getResult(): String</text><ellipse cx="1327" cy="433.0703" fill="#84BE84" rx="3" ry="3" style="stroke:#038048;stroke-width:1.0;"/><text fill="#000000" font-family="sans-serif" font-size="11" lengthAdjust="spacing" textLength="120" x="1336" y="436.2808">setError(String): void</text><ellipse cx="1327" cy="445.875" fill="#84BE84" rx="3" ry="3" style="stroke:#038048;stroke-width:1.0;"/><text fill="#000000" font-family="sans-serif" font-size="11" lengthAdjust="spacing" textLength="97" x="1336" y="449.0854">getError(): String</text><ellipse cx="1327" cy="458.6797" fill="#84BE84" rx="3" ry="3" style="stroke:#038048;stroke-width:1.0;"/><text fill="#000000" font-family="sans-serif" font-size="11" lengthAdjust="spacing" textLength="241" x="1336" y="461.8901">setSubmission(Map&lt;String, String&gt;): void</text><ellipse cx="1327" cy="471.4844" fill="#84BE84" rx="3" ry="3" style="stroke:#038048;stroke-width:1.0;"/><text fill="#000000" font-family="sans-serif" font-size="11" lengthAdjust="spacing" textLength="244" x="1336" y="474.6948">addSubmission(Map&lt;String, String&gt;): void</text><ellipse cx="1327" cy="484.2891" fill="#84BE84" rx="3" ry="3" style="stroke:#038048;stroke-width:1.0;"/><text fill="#000000" font-family="sans-serif" font-size="11" lengthAdjust="spacing" textLength="218" x="1336" y="487.4995">getSubmission(): Map&lt;String, String&gt;</text></a><!--MD5=[261b13d61224fb48caf8ce2ed21df0fd]
class org.apache.wiki.forms.FormSelect--><a href="FormSelect.html" target="_top" title="FormSelect.html" xlink:actuate="onRequest" xlink:href="FormSelect.html" xlink:show="new" xlink:title="FormSelect.html" xlink:type="simple"><rect codeLine="67" fill="#FEFECE" filter="url(#ffc54vi45p1pj)" height="60.8047" id="org.apache.wiki.forms.FormSelect" style="stroke:#A80036;stroke-width:1.5;" width="288" x="1001" y="573"/><ellipse cx="1105.75" cy="589" fill="#ADD1B2" rx="11" ry="11" style="stroke:#A80036;stroke-width:1.0;"/><path d="M1108.7188,594.6406 Q1108.1406,594.9375 1107.5,595.0781 Q1106.8594,595.2344 1106.1563,595.2344 Q1103.6563,595.2344 1102.3281,593.5938 Q1101.0156,591.9375 1101.0156,588.8125 Q1101.0156,585.6875 1102.3281,584.0313 Q1103.6563,582.375 1106.1563,582.375 Q1106.8594,582.375 1107.5,582.5313 Q1108.1563,582.6875 1108.7188,582.9844 L1108.7188,585.7031 Q1108.0938,585.125 1107.5,584.8594 Q1106.9063,584.5781 1106.2813,584.5781 Q1104.9375,584.5781 1104.25,585.6563 Q1103.5625,586.7188 1103.5625,588.8125 Q1103.5625,590.9063 1104.25,591.9844 Q1104.9375,593.0469 1106.2813,593.0469 Q1106.9063,593.0469 1107.5,592.7813 Q1108.0938,592.5 1108.7188,591.9219 L1108.7188,594.6406 Z " fill="#000000"/><text fill="#000000" font-family="sans-serif" font-size="12" lengthAdjust="spacing" textLength="70" x="1126.25" y="593.1543">FormSelect</text><line style="stroke:#A80036;stroke-width:1.5;" x1="1002" x2="1288" y1="605" y2="605"/><line style="stroke:#A80036;stroke-width:1.5;" x1="1002" x2="1288" y1="613" y2="613"/><ellipse cx="1012" cy="624" fill="#84BE84" rx="3" ry="3" style="stroke:#038048;stroke-width:1.0;"/><text fill="#000000" font-family="sans-serif" font-size="11" lengthAdjust="spacing" textLength="262" x="1021" y="627.2104">execute(Context, Map&lt;String, String&gt;): String</text></a><!--MD5=[727b393a5f9479e5beecec01d85c3ad6]
class org.apache.wiki.forms.FormClose--><a href="FormClose.html" target="_top" title="FormClose.html" xlink:actuate="onRequest" xlink:href="FormClose.html" xlink:show="new" xlink:title="FormClose.html" xlink:type="simple"><rect codeLine="71" fill="#FEFECE" filter="url(#ffc54vi45p1pj)" height="60.8047" id="org.apache.wiki.forms.FormClose" style="stroke:#A80036;stroke-width:1.5;" width="288" x="1324" y="573"/><ellipse cx="1431.25" cy="589" fill="#ADD1B2" rx="11" ry="11" style="stroke:#A80036;stroke-width:1.0;"/><path d="M1434.2188,594.6406 Q1433.6406,594.9375 1433,595.0781 Q1432.3594,595.2344 1431.6563,595.2344 Q1429.1563,595.2344 1427.8281,593.5938 Q1426.5156,591.9375 1426.5156,588.8125 Q1426.5156,585.6875 1427.8281,584.0313 Q1429.1563,582.375 1431.6563,582.375 Q1432.3594,582.375 1433,582.5313 Q1433.6563,582.6875 1434.2188,582.9844 L1434.2188,585.7031 Q1433.5938,585.125 1433,584.8594 Q1432.4063,584.5781 1431.7813,584.5781 Q1430.4375,584.5781 1429.75,585.6563 Q1429.0625,586.7188 1429.0625,588.8125 Q1429.0625,590.9063 1429.75,591.9844 Q1430.4375,593.0469 1431.7813,593.0469 Q1432.4063,593.0469 1433,592.7813 Q1433.5938,592.5 1434.2188,591.9219 L1434.2188,594.6406 Z " fill="#000000"/><text fill="#000000" font-family="sans-serif" font-size="12" lengthAdjust="spacing" textLength="65" x="1451.75" y="593.1543">FormClose</text><line style="stroke:#A80036;stroke-width:1.5;" x1="1325" x2="1611" y1="605" y2="605"/><line style="stroke:#A80036;stroke-width:1.5;" x1="1325" x2="1611" y1="613" y2="613"/><ellipse cx="1335" cy="624" fill="#84BE84" rx="3" ry="3" style="stroke:#038048;stroke-width:1.0;"/><text fill="#000000" font-family="sans-serif" font-size="11" lengthAdjust="spacing" textLength="262" x="1344" y="627.2104">execute(Context, Map&lt;String, String&gt;): String</text></a><!--MD5=[eff7fad977b14e8287ff2efe614e7b07]
class org.apache.wiki.forms.FormOutput--><a href="FormOutput.html" target="_top" title="FormOutput.html" xlink:actuate="onRequest" xlink:href="FormOutput.html" xlink:show="new" xlink:title="FormOutput.html" xlink:type="simple"><rect codeLine="75" fill="#FEFECE" filter="url(#ffc54vi45p1pj)" height="60.8047" id="org.apache.wiki.forms.FormOutput" style="stroke:#A80036;stroke-width:1.5;" width="288" x="1647" y="573"/><ellipse cx="1749.75" cy="589" fill="#ADD1B2" rx="11" ry="11" style="stroke:#A80036;stroke-width:1.0;"/><path d="M1752.7188,594.6406 Q1752.1406,594.9375 1751.5,595.0781 Q1750.8594,595.2344 1750.1563,595.2344 Q1747.6563,595.2344 1746.3281,593.5938 Q1745.0156,591.9375 1745.0156,588.8125 Q1745.0156,585.6875 1746.3281,584.0313 Q1747.6563,582.375 1750.1563,582.375 Q1750.8594,582.375 1751.5,582.5313 Q1752.1563,582.6875 1752.7188,582.9844 L1752.7188,585.7031 Q1752.0938,585.125 1751.5,584.8594 Q1750.9063,584.5781 1750.2813,584.5781 Q1748.9375,584.5781 1748.25,585.6563 Q1747.5625,586.7188 1747.5625,588.8125 Q1747.5625,590.9063 1748.25,591.9844 Q1748.9375,593.0469 1750.2813,593.0469 Q1750.9063,593.0469 1751.5,592.7813 Q1752.0938,592.5 1752.7188,591.9219 L1752.7188,594.6406 Z " fill="#000000"/><text fill="#000000" font-family="sans-serif" font-size="12" lengthAdjust="spacing" textLength="74" x="1770.25" y="593.1543">FormOutput</text><line style="stroke:#A80036;stroke-width:1.5;" x1="1648" x2="1934" y1="605" y2="605"/><line style="stroke:#A80036;stroke-width:1.5;" x1="1648" x2="1934" y1="613" y2="613"/><ellipse cx="1658" cy="624" fill="#84BE84" rx="3" ry="3" style="stroke:#038048;stroke-width:1.0;"/><text fill="#000000" font-family="sans-serif" font-size="11" lengthAdjust="spacing" textLength="262" x="1667" y="627.2104">execute(Context, Map&lt;String, String&gt;): String</text></a><!--MD5=[5fde2029f8ce8ab8846f1aaf0f24b94e]
class org.apache.wiki.api.plugin.Plugin--><a href="../api/plugin/Plugin.html" target="_top" title="../api/plugin/Plugin.html" xlink:actuate="onRequest" xlink:href="../api/plugin/Plugin.html" xlink:show="new" xlink:title="../api/plugin/Plugin.html" xlink:type="simple"><rect codeLine="91" fill="#FEFECE" filter="url(#ffc54vi45p1pj)" height="73.6094" id="org.apache.wiki.api.plugin.Plugin" style="stroke:#A80036;stroke-width:1.5;" width="287" x="594.5" y="41"/><ellipse cx="715.25" cy="57" fill="#B4A7E5" rx="11" ry="11" style="stroke:#A80036;stroke-width:1.0;"/><path d="M711.1719,52.7656 L711.1719,50.6094 L718.5625,50.6094 L718.5625,52.7656 L716.0938,52.7656 L716.0938,60.8438 L718.5625,60.8438 L718.5625,63 L711.1719,63 L711.1719,60.8438 L713.6406,60.8438 L713.6406,52.7656 L711.1719,52.7656 Z " fill="#000000"/><text fill="#000000" font-family="sans-serif" font-size="12" font-style="italic" lengthAdjust="spacing" textLength="37" x="735.75" y="61.1543">Plugin</text><line style="stroke:#A80036;stroke-width:1.5;" x1="595.5" x2="880.5" y1="73" y2="73"/><ellipse cx="605.5" cy="84" rx="3" ry="3" style="stroke:#038048;stroke-width:1.0;fill:none;"/><text fill="#000000" font-family="sans-serif" font-size="11" lengthAdjust="spacing" text-decoration="underline" textLength="240" x="614.5" y="87.2104">CORE_PLUGINS_RESOURCEBUNDLE: String</text><line style="stroke:#A80036;stroke-width:1.5;" x1="595.5" x2="880.5" y1="93.8047" y2="93.8047"/><ellipse cx="605.5" cy="104.8047" fill="#84BE84" rx="3" ry="3" style="stroke:#038048;stroke-width:1.0;"/><text fill="#000000" font-family="sans-serif" font-size="11" font-style="italic" lengthAdjust="spacing" textLength="261" x="614.5" y="108.0151">execute(Context, Map&lt;String, String&gt;): String</text></a><!--MD5=[5a5af9b0547913863cbe0ddf55a9ab5e]
class java.io.Serializable--><rect codeLine="98" fill="#FEFECE" filter="url(#ffc54vi45p1pj)" height="48" id="java.io.Serializable" style="stroke:#A80036;stroke-width:1.5;" width="103" x="1399.5" y="54"/><ellipse cx="1414.5" cy="70" fill="#B4A7E5" rx="11" ry="11" style="stroke:#A80036;stroke-width:1.0;"/><path d="M1410.4219,65.7656 L1410.4219,63.6094 L1417.8125,63.6094 L1417.8125,65.7656 L1415.3438,65.7656 L1415.3438,73.8438 L1417.8125,73.8438 L1417.8125,76 L1410.4219,76 L1410.4219,73.8438 L1412.8906,73.8438 L1412.8906,65.7656 L1410.4219,65.7656 Z " fill="#000000"/><text fill="#000000" font-family="sans-serif" font-size="12" font-style="italic" lengthAdjust="spacing" textLength="71" x="1428.5" y="74.1543">Serializable</text><line style="stroke:#A80036;stroke-width:1.5;" x1="1400.5" x2="1501.5" y1="86" y2="86"/><line style="stroke:#A80036;stroke-width:1.5;" x1="1400.5" x2="1501.5" y1="94" y2="94"/><!--MD5=[5bdb5be654f9ad52e3dfcc93c539711d]
reverse link org.apache.wiki.forms.FormElement to org.apache.wiki.forms.FormInput--><path codeLine="79" d="M786,469.26 C774.33,478.71 761.94,487.2 749,494 C585.2,580.09 517.64,513.87 337,554 C331.44,555.23 325.8,556.56 320.11,557.96 " fill="none" id="org.apache.wiki.forms.FormElement-backto-org.apache.wiki.forms.FormInput" style="stroke:#A80036;stroke-width:1.0;"/><polygon fill="none" points="781.76,463.66,801.45,455.83,790.95,474.23,781.76,463.66" style="stroke:#A80036;stroke-width:1.0;"/><!--MD5=[bdaee6e8bc20e7d577eabaa8a902558f]
reverse link org.apache.wiki.forms.FormElement to org.apache.wiki.forms.FormTextarea--><path codeLine="80" d="M779.68,469.5 C769.74,478.29 759.46,486.59 749,494 C710.97,520.94 665.19,543.21 623.26,560.42 " fill="none" id="org.apache.wiki.forms.FormElement-backto-org.apache.wiki.forms.FormTextarea" style="stroke:#A80036;stroke-width:1.0;"/><polygon fill="none" points="775.04,464.26,794.48,455.84,784.54,474.54,775.04,464.26" style="stroke:#A80036;stroke-width:1.0;"/><!--MD5=[e34d4748b96154dee38ed8b58d62025b]
reverse link org.apache.wiki.forms.FormElement to org.apache.wiki.forms.FormOpen--><path codeLine="81" d="M854.82,475.39 C846.16,508.91 837.57,542.2 831.35,566.3 " fill="none" id="org.apache.wiki.forms.FormElement-backto-org.apache.wiki.forms.FormOpen" style="stroke:#A80036;stroke-width:1.0;"/><polygon fill="none" points="848.13,473.3,859.91,455.69,861.68,476.8,848.13,473.3" style="stroke:#A80036;stroke-width:1.0;"/><!--MD5=[0b8ad7aa6705b5560c62034254fc5150]
reverse link org.apache.wiki.api.plugin.Plugin to org.apache.wiki.forms.FormSet--><path codeLine="82" d="M707.07,132.66 C675.96,186.65 629.11,267.94 604.12,311.29 " fill="none" id="org.apache.wiki.api.plugin.Plugin-backto-org.apache.wiki.forms.FormSet" style="stroke:#A80036;stroke-width:1.0;stroke-dasharray:7.0,7.0;"/><polygon fill="none" points="701.11,128.99,717.16,115.15,713.24,135.98,701.11,128.99" style="stroke:#A80036;stroke-width:1.0;"/><!--MD5=[c43de8d4deda415d264dabd4bd393c57]
reverse link org.apache.wiki.api.plugin.Plugin to org.apache.wiki.forms.FormElement--><path codeLine="83" d="M768.92,132.64 C784.87,160.33 804.97,195.2 824.13,228.45 " fill="none" id="org.apache.wiki.api.plugin.Plugin-backto-org.apache.wiki.forms.FormElement" style="stroke:#A80036;stroke-width:1.0;stroke-dasharray:7.0,7.0;"/><polygon fill="none" points="762.76,135.98,758.84,115.15,774.89,128.99,762.76,135.98" style="stroke:#A80036;stroke-width:1.0;"/><!--MD5=[8f181c2b70317dadc4e8988b3ded06db]
reverse link java.io.Serializable to org.apache.wiki.forms.FormInfo--><path codeLine="84" d="M1451,122.33 C1451,141.42 1451,165.09 1451,189.75 " fill="none" id="java.io.Serializable-backto-org.apache.wiki.forms.FormInfo" style="stroke:#A80036;stroke-width:1.0;stroke-dasharray:7.0,7.0;"/><polygon fill="none" points="1444,122.25,1451,102.25,1458,122.25,1444,122.25" style="stroke:#A80036;stroke-width:1.0;"/><!--MD5=[87d6ba8c62a41055405d5dc90d7f504e]
reverse link org.apache.wiki.forms.FormElement to org.apache.wiki.forms.FormSelect--><path codeLine="85" d="M1014.39,470.1 C1052.33,508.56 1090.57,547.33 1115.78,572.88 " fill="none" id="org.apache.wiki.forms.FormElement-backto-org.apache.wiki.forms.FormSelect" style="stroke:#A80036;stroke-width:1.0;"/><polygon fill="none" points="1009.23,474.84,1000.17,455.69,1019.2,465.01,1009.23,474.84" style="stroke:#A80036;stroke-width:1.0;"/><!--MD5=[010d497ecd0facfd552a9d9d21317cb0]
reverse link org.apache.wiki.forms.FormElement to org.apache.wiki.forms.FormClose--><path codeLine="86" d="M1030.73,406.52 C1149.03,459.54 1312.31,532.72 1402.14,572.98 " fill="none" id="org.apache.wiki.forms.FormElement-backto-org.apache.wiki.forms.FormClose" style="stroke:#A80036;stroke-width:1.0;"/><polygon fill="none" points="1027.53,412.76,1012.15,398.19,1033.26,399.98,1027.53,412.76" style="stroke:#A80036;stroke-width:1.0;"/><!--MD5=[c573ed9ffa6160fe87b84992fad183e0]
reverse link org.apache.wiki.forms.FormElement to org.apache.wiki.forms.FormOutput--><path codeLine="87" d="M1031.18,402.29 C1109.18,433.05 1208.23,469.26 1299,494 C1443.25,533.32 1484.63,519.05 1630,554 C1652.71,559.46 1676.94,566.24 1699.54,572.99 " fill="none" id="org.apache.wiki.forms.FormElement-backto-org.apache.wiki.forms.FormOutput" style="stroke:#A80036;stroke-width:1.0;"/><polygon fill="none" points="1028.33,408.69,1012.33,394.8,1033.5,395.68,1028.33,408.69" style="stroke:#A80036;stroke-width:1.0;"/><text fill="#888888" font-family="sans-serif" font-size="10" lengthAdjust="spacing" textLength="192" x="881.5" y="684.2822">UMLDoclet 2.0.15, PlantUML 1.2021.13</text><!--MD5=[3a53655543dd9d54c272b9a8301bfe19]
@startuml
    namespace org.apache.wiki.forms {

        class FormInput [[FormInput.html]] {
            {static} +PARAM_TYPE: String
            {static} +PARAM_SIZE: String
            {static} +PARAM_CHECKED: String
            +execute(Context, Map<String, String>): String
        }

        class FormTextarea [[FormTextarea.html]] {
            {static} +PARAM_ROWS: String
            {static} +PARAM_COLS: String
            +execute(Context, Map<String, String>): String
        }

        class FormOpen [[FormOpen.html]] {
            {static} +PARAM_METHOD: String
            +execute(Context, Map<String, String>): String
        }

        interface FormHandler [[FormHandler.html]]

        class FormSet [[FormSet.html]] {
            +execute(Context, Map<String, String>): String
        }

        abstract class FormElement [[FormElement.html]] {
            {static} +HANDLERPARAM_PREFIX: String
            {static} +FORM_VALUES_CARRIER: String
            {static} +HIDE_SUCCESS: String
            {static} +PARAM_SUBMITHANDLER: String
            {static} +PARAM_ELEMENT: String
            {static} +PARAM_HANDLER: String
            {static} +PARAM_FORM: String
            {static} +PARAM_INPUTNAME: String
            {static} +PARAM_VALUE: String
            {static} +PARAM_HIDEFORM: String
            {static} +PARAM_POPULATE: String
            {static} +PARAM_FORMNAMEHIDDEN: String
            #storeFormInfo(Context, FormInfo): void
            #getFormInfo(Context): FormInfo
        }

        class FormInfo [[FormInfo.html]] {
            {static} +EXECUTED: int
            {static} +OK: int
            {static} +ERROR: int
            +setStatus(int): void
            +getStatus(): int
            +setHide(boolean): void
            +hide(): boolean
            +setAction(String): void
            +getAction(): String
            +setName(String): void
            +getName(): String
            +setHandler(String): void
            +getHandler(): String
            +setResult(String): void
            +getResult(): String
            +setError(String): void
            +getError(): String
            +setSubmission(Map<String, String>): void
            +addSubmission(Map<String, String>): void
            +getSubmission(): Map<String, String>
        }

        class FormSelect [[FormSelect.html]] {
            +execute(Context, Map<String, String>): String
        }

        class FormClose [[FormClose.html]] {
            +execute(Context, Map<String, String>): String
        }

        class FormOutput [[FormOutput.html]] {
            +execute(Context, Map<String, String>): String
        }

        FormElement <|- - FormInput
        FormElement <|- - FormTextarea
        FormElement <|- - FormOpen
        org.apache.wiki.api.plugin.Plugin <|.. FormSet
        org.apache.wiki.api.plugin.Plugin <|.. FormElement
        java.io.Serializable <|.. FormInfo
        FormElement <|- - FormSelect
        FormElement <|- - FormClose
        FormElement <|- - FormOutput
    }

    namespace org.apache.wiki.api.plugin {
        interface Plugin [[../api/plugin/Plugin.html]] {
            {static} +CORE_PLUGINS_RESOURCEBUNDLE: String
            {abstract} +execute(Context, Map<String, String>): String
        }
    }

    namespace java.io {
        interface Serializable
    }

    center footer UMLDoclet 2.0.15, PlantUML 1.2021.13
@enduml

PlantUML version 1.2021.13(Mon Nov 01 11:38:45 UTC 2021)
(APACHE source distribution)
Java Runtime: OpenJDK Runtime Environment
JVM: OpenJDK 64-Bit Server VM
Default Encoding: UTF-8
Language: en
Country: null
--></g></svg>