<?xml version="1.0" encoding="UTF-8" standalone="no"?><svg xmlns="http://www.w3.org/2000/svg" xmlns:xlink="http://www.w3.org/1999/xlink" contentScriptType="application/ecmascript" contentStyleType="text/css" height="114px" preserveAspectRatio="none" style="width:510px;height:114px;" version="1.1" viewBox="0 0 510 114" width="510px" zoomAndPan="magnify"><defs><filter height="300%" id="f8oixv8kdft8q" width="300%" x="-1" y="-1"><feGaussianBlur result="blurOut" stdDeviation="2.0"/><feColorMatrix in="blurOut" result="blurOut2" type="matrix" values="0 0 0 0 0 0 0 0 0 0 0 0 0 0 0 0 0 0 .4 0"/><feOffset dx="4.0" dy="4.0" in="blurOut2" result="blurOut3"/><feBlend in="SourceGraphic" in2="blurOut3" mode="normal"/></filter></defs><g><!--class InterWikiLinkNodePostProcessorState--><a href="InterWikiLinkNodePostProcessorState.html" target="_top" xlink:actuate="onRequest" xlink:show="new" xlink:title="InterWikiLinkNodePostProcessorState.html" xlink:type="simple"><rect fill="#FEFECE" filter="url(#f8oixv8kdft8q)" height="73.6094" id="InterWikiLinkNodePostProcessorState" style="stroke: #A80036; stroke-width: 1.5;" width="493" x="6" y="8"/><ellipse cx="130.75" cy="24" fill="#ADD1B2" rx="11" ry="11" style="stroke: #A80036; stroke-width: 1.0;"/><path d="M133.7188,29.6406 Q133.1406,29.9375 132.5,30.0781 Q131.8594,30.2344 131.1563,30.2344 Q128.6563,30.2344 127.3281,28.5938 Q126.0156,26.9375 126.0156,23.8125 Q126.0156,20.6875 127.3281,19.0313 Q128.6563,17.375 131.1563,17.375 Q131.8594,17.375 132.5,17.5313 Q133.1563,17.6875 133.7188,17.9844 L133.7188,20.7031 Q133.0938,20.125 132.5,19.8594 Q131.9063,19.5781 131.2813,19.5781 Q129.9375,19.5781 129.25,20.6563 Q128.5625,21.7188 128.5625,23.8125 Q128.5625,25.9063 129.25,26.9844 Q129.9375,28.0469 131.2813,28.0469 Q131.9063,28.0469 132.5,27.7813 Q133.0938,27.5 133.7188,26.9219 L133.7188,29.6406 Z "/><text fill="#000000" font-family="sans-serif" font-size="12" lengthAdjust="spacingAndGlyphs" textLength="235" x="151.25" y="28.1543">InterWikiLinkNodePostProcessorState</text><line style="stroke: #A80036; stroke-width: 1.5;" x1="7" x2="498" y1="40" y2="40"/><line style="stroke: #A80036; stroke-width: 1.5;" x1="7" x2="498" y1="48" y2="48"/><ellipse cx="17" cy="59.9023" fill="#84BE84" rx="3" ry="3" style="stroke: #038048; stroke-width: 1.0;"/><text fill="#000000" font-family="sans-serif" font-size="11" lengthAdjust="spacingAndGlyphs" textLength="467" x="26" y="62.2104">InterWikiLinkNodePostProcessorState(Context, Document, boolean, List&lt;Pattern&gt;)</text><ellipse cx="17" cy="72.707" fill="#84BE84" rx="3" ry="3" style="stroke: #038048; stroke-width: 1.0;"/><text fill="#000000" font-family="sans-serif" font-size="11" lengthAdjust="spacingAndGlyphs" textLength="226" x="26" y="75.0151">process(NodeTracker, JSPWikiLink): void</text></a><text fill="#888888" font-family="sans-serif" font-size="10" lengthAdjust="spacingAndGlyphs" textLength="186" x="165.5" y="101.2822">UMLDoclet 1.1.4, PlantUML 1.2019.05</text><!--
@startuml

    class InterWikiLinkNodePostProcessorState [[InterWikiLinkNodePostProcessorState.html]] {
        +InterWikiLinkNodePostProcessorState(Context, Document, boolean, List<Pattern>)
        +process(NodeTracker, JSPWikiLink): void
    }


    center footer UMLDoclet 1.1.4, PlantUML 1.2019.05
@enduml

PlantUML version 1.2019.05(Sat Apr 20 16:45:36 UTC 2019)
(APACHE source distribution)
Java Runtime: OpenJDK Runtime Environment
JVM: OpenJDK 64-Bit Server VM
Java Version: 1.8.0_252-b09
Operating System: Linux
OS Version: 4.15.0-66-generic
Default Encoding: ISO-8859-1
Language: en
Country: US
--></g></svg>