<?xml version="1.0" encoding="UTF-8" standalone="no"?><svg xmlns="http://www.w3.org/2000/svg" xmlns:xlink="http://www.w3.org/1999/xlink" contentScriptType="application/ecmascript" contentStyleType="text/css" height="229px" preserveAspectRatio="none" style="width:398px;height:229px;" version="1.1" viewBox="0 0 398 229" width="398px" zoomAndPan="magnify"><defs><filter height="300%" id="f128yuuyemw7km" width="300%" x="-1" y="-1"><feGaussianBlur result="blurOut" stdDeviation="2.0"/><feColorMatrix in="blurOut" result="blurOut2" type="matrix" values="0 0 0 0 0 0 0 0 0 0 0 0 0 0 0 0 0 0 .4 0"/><feOffset dx="4.0" dy="4.0" in="blurOut2" result="blurOut3"/><feBlend in="SourceGraphic" in2="blurOut3" mode="normal"/></filter></defs><g><!--class RPCHandlerUTF8--><a href="RPCHandlerUTF8.html" target="_top" xlink:actuate="onRequest" xlink:show="new" xlink:title="RPCHandlerUTF8.html" xlink:type="simple"><rect fill="#FEFECE" filter="url(#f128yuuyemw7km)" height="188.8516" id="RPCHandlerUTF8" style="stroke: #A80036; stroke-width: 1.5;" width="381" x="6" y="8"/><ellipse cx="140.25" cy="24" fill="#ADD1B2" rx="11" ry="11" style="stroke: #A80036; stroke-width: 1.0;"/><path d="M143.2188,29.6406 Q142.6406,29.9375 142,30.0859 Q141.3594,30.2344 140.6563,30.2344 Q138.1563,30.2344 136.8359,28.5859 Q135.5156,26.9375 135.5156,23.8125 Q135.5156,20.6875 136.8359,19.0313 Q138.1563,17.375 140.6563,17.375 Q141.3594,17.375 142.0078,17.5313 Q142.6563,17.6875 143.2188,17.9844 L143.2188,20.7031 Q142.5938,20.125 142,19.8516 Q141.4063,19.5781 140.7813,19.5781 Q139.4375,19.5781 138.75,20.6484 Q138.0625,21.7188 138.0625,23.8125 Q138.0625,25.9063 138.75,26.9766 Q139.4375,28.0469 140.7813,28.0469 Q141.4063,28.0469 142,27.7734 Q142.5938,27.5 143.2188,26.9219 L143.2188,29.6406 Z "/><text fill="#000000" font-family="sans-serif" font-size="12" lengthAdjust="spacingAndGlyphs" textLength="104" x="160.75" y="28.1543">RPCHandlerUTF8</text><line style="stroke: #A80036; stroke-width: 1.5;" x1="7" x2="386" y1="40" y2="40"/><line style="stroke: #A80036; stroke-width: 1.5;" x1="7" x2="386" y1="48" y2="48"/><ellipse cx="17" cy="59.9023" fill="#84BE84" rx="3" ry="3" style="stroke: #038048; stroke-width: 1.0;"/><text fill="#000000" font-family="sans-serif" font-size="11" lengthAdjust="spacingAndGlyphs" textLength="162" x="26" y="62.2104">getApplicationName(): String</text><ellipse cx="17" cy="72.707" fill="#84BE84" rx="3" ry="3" style="stroke: #038048; stroke-width: 1.0;"/><text fill="#000000" font-family="sans-serif" font-size="11" lengthAdjust="spacingAndGlyphs" textLength="170" x="26" y="75.0151">getAllPages(): Vector&lt;String&gt;</text><polygon fill="#FFFF44" points="17,80.5117,21,84.5117,17,88.5117,13,84.5117" style="stroke: #B38D22; stroke-width: 1.0;"/><text fill="#000000" font-family="sans-serif" font-size="11" lengthAdjust="spacingAndGlyphs" textLength="287" x="26" y="87.8198">encodeWikiPage(Page): Hashtable&lt;String, Object&gt;</text><ellipse cx="17" cy="98.3164" fill="#84BE84" rx="3" ry="3" style="stroke: #038048; stroke-width: 1.0;"/><text fill="#000000" font-family="sans-serif" font-size="11" lengthAdjust="spacingAndGlyphs" textLength="355" x="26" y="100.6245">getRecentChanges(Date): Vector&lt;Hashtable&lt;String, Object&gt;&gt;</text><ellipse cx="17" cy="111.1211" fill="#84BE84" rx="3" ry="3" style="stroke: #038048; stroke-width: 1.0;"/><text fill="#000000" font-family="sans-serif" font-size="11" lengthAdjust="spacingAndGlyphs" textLength="270" x="26" y="113.4292">getPageInfo(String): Hashtable&lt;String, Object&gt;</text><ellipse cx="17" cy="123.9258" fill="#84BE84" rx="3" ry="3" style="stroke: #038048; stroke-width: 1.0;"/><text fill="#000000" font-family="sans-serif" font-size="11" lengthAdjust="spacingAndGlyphs" textLength="335" x="26" y="126.2339">getPageInfoVersion(String, int): Hashtable&lt;String, Object&gt;</text><ellipse cx="17" cy="136.7305" fill="#84BE84" rx="3" ry="3" style="stroke: #038048; stroke-width: 1.0;"/><text fill="#000000" font-family="sans-serif" font-size="11" lengthAdjust="spacingAndGlyphs" textLength="130" x="26" y="139.0386">getPage(String): String</text><ellipse cx="17" cy="149.5352" fill="#84BE84" rx="3" ry="3" style="stroke: #038048; stroke-width: 1.0;"/><text fill="#000000" font-family="sans-serif" font-size="11" lengthAdjust="spacingAndGlyphs" textLength="195" x="26" y="151.8433">getPageVersion(String, int): String</text><ellipse cx="17" cy="162.3398" fill="#84BE84" rx="3" ry="3" style="stroke: #038048; stroke-width: 1.0;"/><text fill="#000000" font-family="sans-serif" font-size="11" lengthAdjust="spacingAndGlyphs" textLength="160" x="26" y="164.6479">getPageHTML(String): String</text><ellipse cx="17" cy="175.1445" fill="#84BE84" rx="3" ry="3" style="stroke: #038048; stroke-width: 1.0;"/><text fill="#000000" font-family="sans-serif" font-size="11" lengthAdjust="spacingAndGlyphs" textLength="225" x="26" y="177.4526">getPageHTMLVersion(String, int): String</text><ellipse cx="17" cy="187.9492" fill="#84BE84" rx="3" ry="3" style="stroke: #038048; stroke-width: 1.0;"/><text fill="#000000" font-family="sans-serif" font-size="11" lengthAdjust="spacingAndGlyphs" textLength="301" x="26" y="190.2573">listLinks(String): Vector&lt;Hashtable&lt;String, String&gt;&gt;</text></a><text fill="#888888" font-family="sans-serif" font-size="10" lengthAdjust="spacingAndGlyphs" textLength="186" x="109.5" y="216.2822">UMLDoclet 1.1.4, PlantUML 1.2019.05</text><!--
@startuml

    class RPCHandlerUTF8 [[RPCHandlerUTF8.html]] {
        +getApplicationName(): String
        +getAllPages(): Vector<String>
        #encodeWikiPage(Page): Hashtable<String, Object>
        +getRecentChanges(Date): Vector<Hashtable<String, Object>>
        +getPageInfo(String): Hashtable<String, Object>
        +getPageInfoVersion(String, int): Hashtable<String, Object>
        +getPage(String): String
        +getPageVersion(String, int): String
        +getPageHTML(String): String
        +getPageHTMLVersion(String, int): String
        +listLinks(String): Vector<Hashtable<String, String>>
    }


    center footer UMLDoclet 1.1.4, PlantUML 1.2019.05
@enduml

PlantUML version 1.2019.05(Sat Apr 20 16:45:36 UTC 2019)
(APACHE source distribution)
Java Runtime: Java(TM) SE Runtime Environment
JVM: Java HotSpot(TM) 64-Bit Server VM
Java Version: 1.8.0_241-b07
Operating System: Linux
OS Version: 4.15.0-74-generic
Default Encoding: ISO-8859-1
Language: en
Country: US
--></g></svg>