<?xml version="1.0" encoding="UTF-8" standalone="no"?><svg xmlns="http://www.w3.org/2000/svg" xmlns:xlink="http://www.w3.org/1999/xlink" contentScriptType="application/ecmascript" contentStyleType="text/css" height="152px" preserveAspectRatio="none" style="width:382px;height:152px;" version="1.1" viewBox="0 0 382 152" width="382px" zoomAndPan="magnify"><defs><filter height="300%" id="f1d1koi9niq3t5" width="300%" x="-1" y="-1"><feGaussianBlur result="blurOut" stdDeviation="2.0"/><feColorMatrix in="blurOut" result="blurOut2" type="matrix" values="0 0 0 0 0 0 0 0 0 0 0 0 0 0 0 0 0 0 .4 0"/><feOffset dx="4.0" dy="4.0" in="blurOut2" result="blurOut3"/><feBlend in="SourceGraphic" in2="blurOut3" mode="normal"/></filter></defs><g><!--class WikiServletFilter--><a href="WikiServletFilter.html" target="_top" xlink:actuate="onRequest" xlink:show="new" xlink:title="WikiServletFilter.html" xlink:type="simple"><rect fill="#FEFECE" filter="url(#f1d1koi9niq3t5)" height="112.0234" id="WikiServletFilter" style="stroke: #A80036; stroke-width: 1.5;" width="365" x="6" y="8"/><ellipse cx="135.25" cy="24" fill="#ADD1B2" rx="11" ry="11" style="stroke: #A80036; stroke-width: 1.0;"/><path d="M138.2188,29.6406 Q137.6406,29.9375 137,30.0859 Q136.3594,30.2344 135.6563,30.2344 Q133.1563,30.2344 131.8359,28.5859 Q130.5156,26.9375 130.5156,23.8125 Q130.5156,20.6875 131.8359,19.0313 Q133.1563,17.375 135.6563,17.375 Q136.3594,17.375 137.0078,17.5313 Q137.6563,17.6875 138.2188,17.9844 L138.2188,20.7031 Q137.5938,20.125 137,19.8516 Q136.4063,19.5781 135.7813,19.5781 Q134.4375,19.5781 133.75,20.6484 Q133.0625,21.7188 133.0625,23.8125 Q133.0625,25.9063 133.75,26.9766 Q134.4375,28.0469 135.7813,28.0469 Q136.4063,28.0469 137,27.7734 Q137.5938,27.5 138.2188,26.9219 L138.2188,29.6406 Z "/><text fill="#000000" font-family="sans-serif" font-size="12" lengthAdjust="spacingAndGlyphs" textLength="98" x="155.75" y="28.1543">WikiServletFilter</text><line style="stroke: #A80036; stroke-width: 1.5;" x1="7" x2="370" y1="40" y2="40"/><polygon fill="none" points="17,46.9023,21,50.9023,17,54.9023,13,50.9023" style="stroke: #B38D22; stroke-width: 1.0;"/><text fill="#000000" font-family="sans-serif" font-size="11" lengthAdjust="spacingAndGlyphs" textLength="122" x="26" y="54.2104">m_engine: WikiEngine</text><line style="stroke: #A80036; stroke-width: 1.5;" x1="7" x2="370" y1="60.8047" y2="60.8047"/><ellipse cx="17" cy="72.707" fill="#84BE84" rx="3" ry="3" style="stroke: #038048; stroke-width: 1.0;"/><text fill="#000000" font-family="sans-serif" font-size="11" lengthAdjust="spacingAndGlyphs" textLength="120" x="26" y="75.0151">init(FilterConfig): void</text><ellipse cx="17" cy="85.5117" fill="#84BE84" rx="3" ry="3" style="stroke: #038048; stroke-width: 1.0;"/><text fill="#000000" font-family="sans-serif" font-size="11" lengthAdjust="spacingAndGlyphs" textLength="82" x="26" y="87.8198">destroy(): void</text><ellipse cx="17" cy="98.3164" fill="#84BE84" rx="3" ry="3" style="stroke: #038048; stroke-width: 1.0;"/><text fill="#000000" font-family="sans-serif" font-size="11" lengthAdjust="spacingAndGlyphs" textLength="339" x="26" y="100.6245">doFilter(ServletRequest, ServletResponse, FilterChain): void</text><polygon fill="#FFFF44" points="17,106.1211,21,110.1211,17,114.1211,13,110.1211" style="stroke: #B38D22; stroke-width: 1.0;"/><text fill="#000000" font-family="sans-serif" font-size="11" lengthAdjust="spacingAndGlyphs" textLength="248" x="26" y="113.4292">getWikiContext(ServletRequest): WikiContext</text></a><text fill="#888888" font-family="sans-serif" font-size="10" lengthAdjust="spacingAndGlyphs" textLength="186" x="101.5" y="139.2822">UMLDoclet 1.1.4, PlantUML 1.2019.05</text><!--
@startuml

    class WikiServletFilter [[WikiServletFilter.html]] {
        #m_engine: WikiEngine
        +init(FilterConfig): void
        +destroy(): void
        +doFilter(ServletRequest, ServletResponse, FilterChain): void
        #getWikiContext(ServletRequest): WikiContext
    }


    center footer UMLDoclet 1.1.4, PlantUML 1.2019.05
@enduml

PlantUML version 1.2019.05(Sat Apr 20 16:45:36 UTC 2019)
(APACHE source distribution)
Java Runtime: Java(TM) SE Runtime Environment
JVM: Java HotSpot(TM) 64-Bit Server VM
Java Version: 1.8.0_191-b12
Operating System: Linux
OS Version: 4.15.0-58-generic
Default Encoding: ISO-8859-1
Language: en
Country: US
--></g></svg>