<?xml version="1.0" encoding="UTF-8" standalone="no"?><svg xmlns="http://www.w3.org/2000/svg" xmlns:xlink="http://www.w3.org/1999/xlink" contentScriptType="application/ecmascript" contentStyleType="text/css" height="220px" preserveAspectRatio="none" style="width:450px;height:220px;" version="1.1" viewBox="0 0 450 220" width="450px" zoomAndPan="magnify"><defs><filter height="300%" id="f77hmhooo121z" width="300%" x="-1" y="-1"><feGaussianBlur result="blurOut" stdDeviation="2.0"/><feColorMatrix in="blurOut" result="blurOut2" type="matrix" values="0 0 0 0 0 0 0 0 0 0 0 0 0 0 0 0 0 0 .4 0"/><feOffset dx="4.0" dy="4.0" in="blurOut2" result="blurOut3"/><feBlend in="SourceGraphic" in2="blurOut3" mode="normal"/></filter></defs><g><!--MD5=[3f8c2031555fcc4e1673ddaa56ef4f35]
class org.apache.wiki.providers.BasicAttachmentProvider.AttachmentFilter--><a href="BasicAttachmentProvider.AttachmentFilter.html" target="_top" title="BasicAttachmentProvider.AttachmentFilter.html" xlink:actuate="onRequest" xlink:href="BasicAttachmentProvider.AttachmentFilter.html" xlink:show="new" xlink:title="BasicAttachmentProvider.AttachmentFilter.html" xlink:type="simple"><rect codeLine="5" fill="#FEFECE" filter="url(#f77hmhooo121z)" height="58.7422" id="org.apache.wiki.providers.BasicAttachmentProvider.AttachmentFilter" style="stroke: #A80036; stroke-width: 1.5;" width="322" x="53" y="126"/><ellipse cx="68" cy="144.9688" fill="#ADD1B2" rx="11" ry="11" style="stroke: #A80036; stroke-width: 1.0;"/><path d="M70.9688,150.6094 Q70.3906,150.9063 69.75,151.0469 Q69.1094,151.2031 68.4063,151.2031 Q65.9063,151.2031 64.5781,149.5625 Q63.2656,147.9063 63.2656,144.7813 Q63.2656,141.6563 64.5781,140 Q65.9063,138.3438 68.4063,138.3438 Q69.1094,138.3438 69.75,138.5 Q70.4063,138.6563 70.9688,138.9531 L70.9688,141.6719 Q70.3438,141.0938 69.75,140.8281 Q69.1563,140.5469 68.5313,140.5469 Q67.1875,140.5469 66.5,141.625 Q65.8125,142.6875 65.8125,144.7813 Q65.8125,146.875 66.5,147.9531 Q67.1875,149.0156 68.5313,149.0156 Q69.1563,149.0156 69.75,148.75 Q70.3438,148.4688 70.9688,147.8906 L70.9688,150.6094 Z "/><text fill="#000000" font-family="sans-serif" font-size="14" lengthAdjust="spacingAndGlyphs" textLength="290" x="82" y="143.9951">BasicAttachmentProvider.AttachmentFilter</text><text fill="#000000" font-family="sans-serif" font-size="10" lengthAdjust="spacingAndGlyphs" textLength="122" x="166" y="156.5791">org.apache.wiki.providers</text><line style="stroke: #A80036; stroke-width: 1.5;" x1="54" x2="374" y1="163.9375" y2="163.9375"/><ellipse cx="64" cy="174.9375" fill="#84BE84" rx="3" ry="3" style="stroke: #038048; stroke-width: 1.0;"/><text fill="#000000" font-family="sans-serif" font-size="11" lengthAdjust="spacingAndGlyphs" textLength="159" x="73" y="178.1479">accept(File, String): boolean</text></a><!--MD5=[1f103cf3a35e9e21db31a7ed115cd719]
class java.io.FilenameFilter--><rect codeLine="9" fill="#FEFECE" filter="url(#f77hmhooo121z)" height="58.7422" id="java.io.FilenameFilter" style="stroke: #A80036; stroke-width: 1.5;" width="184" x="7" y="7"/><ellipse cx="47.65" cy="25.9688" fill="#B4A7E5" rx="11" ry="11" style="stroke: #A80036; stroke-width: 1.0;"/><path d="M43.5719,21.7344 L43.5719,19.5781 L50.9625,19.5781 L50.9625,21.7344 L48.4938,21.7344 L48.4938,29.8125 L50.9625,29.8125 L50.9625,31.9688 L43.5719,31.9688 L43.5719,29.8125 L46.0406,29.8125 L46.0406,21.7344 L43.5719,21.7344 Z "/><text fill="#000000" font-family="sans-serif" font-size="14" font-style="italic" lengthAdjust="spacingAndGlyphs" textLength="95" x="67.35" y="24.9951">FilenameFilter</text><text fill="#000000" font-family="sans-serif" font-size="10" font-style="italic" lengthAdjust="spacingAndGlyphs" textLength="33" x="98.35" y="37.5791">java.io</text><line style="stroke: #A80036; stroke-width: 1.5;" x1="8" x2="190" y1="44.9375" y2="44.9375"/><ellipse cx="18" cy="55.9375" fill="#84BE84" rx="3" ry="3" style="stroke: #038048; stroke-width: 1.0;"/><text fill="#000000" font-family="sans-serif" font-size="11" font-style="italic" lengthAdjust="spacingAndGlyphs" textLength="158" x="27" y="59.1479">accept(File, String): boolean</text><!--MD5=[4df0c5c98b4f35015dce97f4b78178c8]
class org.apache.wiki.providers.BasicAttachmentProvider--><a href="BasicAttachmentProvider.html" target="_top" title="BasicAttachmentProvider.html" xlink:actuate="onRequest" xlink:href="BasicAttachmentProvider.html" xlink:show="new" xlink:title="BasicAttachmentProvider.html" xlink:type="simple"><rect codeLine="12" fill="#FEFECE" filter="url(#f77hmhooo121z)" height="37.9375" id="org.apache.wiki.providers.BasicAttachmentProvider" style="stroke: #A80036; stroke-width: 1.5;" width="205" x="226.5" y="17.5"/><ellipse cx="241.5" cy="36.4688" fill="#ADD1B2" rx="11" ry="11" style="stroke: #A80036; stroke-width: 1.0;"/><path d="M244.4688,42.1094 Q243.8906,42.4063 243.25,42.5469 Q242.6094,42.7031 241.9063,42.7031 Q239.4063,42.7031 238.0781,41.0625 Q236.7656,39.4063 236.7656,36.2813 Q236.7656,33.1563 238.0781,31.5 Q239.4063,29.8438 241.9063,29.8438 Q242.6094,29.8438 243.25,30 Q243.9063,30.1563 244.4688,30.4531 L244.4688,33.1719 Q243.8438,32.5938 243.25,32.3281 Q242.6563,32.0469 242.0313,32.0469 Q240.6875,32.0469 240,33.125 Q239.3125,34.1875 239.3125,36.2813 Q239.3125,38.375 240,39.4531 Q240.6875,40.5156 242.0313,40.5156 Q242.6563,40.5156 243.25,40.25 Q243.8438,39.9688 244.4688,39.3906 L244.4688,42.1094 Z "/><text fill="#000000" font-family="sans-serif" font-size="14" lengthAdjust="spacingAndGlyphs" textLength="173" x="255.5" y="35.4951">BasicAttachmentProvider</text><text fill="#000000" font-family="sans-serif" font-size="10" lengthAdjust="spacingAndGlyphs" textLength="122" x="281" y="48.0791">org.apache.wiki.providers</text></a><!--MD5=[79b5611a438b80153ba30b9022d5a5e8]
reverse link java.io.FilenameFilter to org.apache.wiki.providers.BasicAttachmentProvider.AttachmentFilter--><path codeLine="14" d="M141.6494,80.6329 C156.1796,95.6684 172.068,112.1094 185.2449,125.7447 " fill="none" id="java.io.FilenameFilter-backto-org.apache.wiki.providers.BasicAttachmentProvider.AttachmentFilter" style="stroke: #A80036; stroke-width: 1.0; stroke-dasharray: 7.0,7.0;"/><polygon fill="none" points="136.5875,85.468,127.7227,66.2218,146.6547,75.7391,136.5875,85.468" style="stroke: #A80036; stroke-width: 1.0;"/><!--MD5=[9d52c70320088fa4029422974da40bc2]
reverse link org.apache.wiki.providers.BasicAttachmentProvider to org.apache.wiki.providers.BasicAttachmentProvider.AttachmentFilter--><path codeLine="15" d="M300.0487,66.4583 C282.5215,84.5951 260.2521,107.6391 242.7597,125.7399 " fill="none" id="org.apache.wiki.providers.BasicAttachmentProvider-backto-org.apache.wiki.providers.BasicAttachmentProvider.AttachmentFilter" style="stroke: #A80036; stroke-width: 1.0;"/><ellipse cx="304.964" cy="61.3721" fill="#FFFFFF" rx="8" ry="8" style="stroke: #A80036; stroke-width: 1.0;"/><line style="stroke: #A80036; stroke-width: 1.0;" x1="299.4046" x2="310.5233" y1="67.1248" y2="55.6194"/><line style="stroke: #A80036; stroke-width: 1.0;" x1="299.2112" x2="310.7167" y1="55.8128" y2="66.9315"/><text fill="#888888" font-family="sans-serif" font-size="10" lengthAdjust="spacingAndGlyphs" textLength="192" x="120.25" y="207.0244">UMLDoclet 2.0.12, PlantUML 1.2020.16</text><!--MD5=[cd2689d1da7bf1798cf4a6724e91a578]
@startuml
    set namespaceSeparator none
    hide empty fields
    hide empty methods

    class "<size:14>BasicAttachmentProvider.AttachmentFilter\n<size:10>org.apache.wiki.providers" as org.apache.wiki.providers.BasicAttachmentProvider.AttachmentFilter [[BasicAttachmentProvider.AttachmentFilter.html]] {
        +accept(File, String): boolean
    }

    interface "<size:14>FilenameFilter\n<size:10>java.io" as java.io.FilenameFilter {
        {abstract} +accept(File, String): boolean
    }
    class "<size:14>BasicAttachmentProvider\n<size:10>org.apache.wiki.providers" as org.apache.wiki.providers.BasicAttachmentProvider [[BasicAttachmentProvider.html]]

    java.io.FilenameFilter <|.. org.apache.wiki.providers.BasicAttachmentProvider.AttachmentFilter
    org.apache.wiki.providers.BasicAttachmentProvider +- - org.apache.wiki.providers.BasicAttachmentProvider.AttachmentFilter

    center footer UMLDoclet 2.0.12, PlantUML 1.2020.16
@enduml

PlantUML version 1.2020.16(Sun Aug 23 20:20:43 UTC 2020)
(APACHE source distribution)
Java Runtime: Java(TM) SE Runtime Environment
JVM: Java HotSpot(TM) 64-Bit Server VM
Default Encoding: ISO-8859-1
Language: en
Country: US
--></g></svg>