<?xml version="1.0" encoding="UTF-8" standalone="no"?><svg xmlns="http://www.w3.org/2000/svg" xmlns:xlink="http://www.w3.org/1999/xlink" contentScriptType="application/ecmascript" contentStyleType="text/css" height="641px" preserveAspectRatio="none" style="width:1267px;height:641px;background:#FFFFFF;" version="1.1" viewBox="0 0 1267 641" width="1267px" zoomAndPan="magnify"><defs><filter height="300%" id="ftw23yzsu50vg" width="300%" x="-1" y="-1"><feGaussianBlur result="blurOut" stdDeviation="2.0"/><feColorMatrix in="blurOut" result="blurOut2" type="matrix" values="0 0 0 0 0 0 0 0 0 0 0 0 0 0 0 0 0 0 .4 0"/><feOffset dx="4.0" dy="4.0" in="blurOut2" result="blurOut3"/><feBlend in="SourceGraphic" in2="blurOut3" mode="normal"/></filter></defs><g><!--MD5=[6dc57847958aaf38c65e6559a7764042]
cluster org.apache.wiki.ui.admin.beans--><polygon fill="#FFFFFF" filter="url(#ftw23yzsu50vg)" points="16,206,271,206,278,228.2969,1237,228.2969,1237,618,16,618,16,206" style="stroke:#000000;stroke-width:1.5;"/><line style="stroke:#000000;stroke-width:1.5;" x1="16" x2="278" y1="228.2969" y2="228.2969"/><text fill="#000000" font-family="sans-serif" font-size="14" font-weight="bold" lengthAdjust="spacing" textLength="249" x="20" y="220.9951">org.apache.wiki.ui.admin.beans</text><!--MD5=[bd4ea5e1bea20afbbde5ba34844f37b5]
cluster org.apache.wiki.ui.admin--><polygon fill="#FFFFFF" filter="url(#ftw23yzsu50vg)" points="588,6,790,6,797,28.2969,949,28.2969,949,182,588,182,588,6" style="stroke:#000000;stroke-width:1.5;"/><line style="stroke:#000000;stroke-width:1.5;" x1="588" x2="797" y1="28.2969" y2="28.2969"/><text fill="#000000" font-family="sans-serif" font-size="14" font-weight="bold" lengthAdjust="spacing" textLength="196" x="592" y="20.9951">org.apache.wiki.ui.admin</text><!--MD5=[4c36762682833c7223099323ed6a41cb]
cluster org.apache.wiki.management--><polygon fill="#FFFFFF" filter="url(#ftw23yzsu50vg)" points="1002,25.5,1240,25.5,1247,47.7969,1250,47.7969,1250,162.5,1002,162.5,1002,25.5" style="stroke:#000000;stroke-width:1.5;"/><line style="stroke:#000000;stroke-width:1.5;" x1="1002" x2="1247" y1="47.7969" y2="47.7969"/><text fill="#000000" font-family="sans-serif" font-size="14" font-weight="bold" lengthAdjust="spacing" textLength="232" x="1006" y="40.4951">org.apache.wiki.management</text><!--MD5=[0beda2561645e205a02a1aa514f1ee2a]
class org.apache.wiki.ui.admin.beans.PluginBean--><a href="PluginBean.html" target="_top" title="PluginBean.html" xlink:actuate="onRequest" xlink:href="PluginBean.html" xlink:show="new" xlink:title="PluginBean.html" xlink:type="simple"><rect codeLine="3" fill="#FEFECE" filter="url(#ftw23yzsu50vg)" height="124.8281" id="org.apache.wiki.ui.admin.beans.PluginBean" style="stroke:#A80036;stroke-width:1.5;" width="246" x="158" y="477"/><ellipse cx="241.75" cy="493" fill="#ADD1B2" rx="11" ry="11" style="stroke:#A80036;stroke-width:1.0;"/><path d="M244.7188,498.6406 Q244.1406,498.9375 243.5,499.0781 Q242.8594,499.2344 242.1563,499.2344 Q239.6563,499.2344 238.3281,497.5938 Q237.0156,495.9375 237.0156,492.8125 Q237.0156,489.6875 238.3281,488.0313 Q239.6563,486.375 242.1563,486.375 Q242.8594,486.375 243.5,486.5313 Q244.1563,486.6875 244.7188,486.9844 L244.7188,489.7031 Q244.0938,489.125 243.5,488.8594 Q242.9063,488.5781 242.2813,488.5781 Q240.9375,488.5781 240.25,489.6563 Q239.5625,490.7188 239.5625,492.8125 Q239.5625,494.9063 240.25,495.9844 Q240.9375,497.0469 242.2813,497.0469 Q242.9063,497.0469 243.5,496.7813 Q244.0938,496.5 244.7188,495.9219 L244.7188,498.6406 Z " fill="#000000"/><text fill="#000000" font-family="sans-serif" font-size="12" lengthAdjust="spacing" textLength="70" x="262.25" y="497.1543">PluginBean</text><line style="stroke:#A80036;stroke-width:1.5;" x1="159" x2="403" y1="509" y2="509"/><line style="stroke:#A80036;stroke-width:1.5;" x1="159" x2="403" y1="517" y2="517"/><ellipse cx="169" cy="528" fill="#84BE84" rx="3" ry="3" style="stroke:#038048;stroke-width:1.0;"/><text fill="#000000" font-family="sans-serif" font-size="11" lengthAdjust="spacing" textLength="109" x="178" y="531.2104">PluginBean(Engine)</text><ellipse cx="169" cy="540.8047" fill="#84BE84" rx="3" ry="3" style="stroke:#038048;stroke-width:1.0;"/><text fill="#000000" font-family="sans-serif" font-size="11" lengthAdjust="spacing" textLength="92" x="178" y="544.0151">getTitle(): String</text><ellipse cx="169" cy="553.6094" fill="#84BE84" rx="3" ry="3" style="stroke:#038048;stroke-width:1.0;"/><text fill="#000000" font-family="sans-serif" font-size="11" lengthAdjust="spacing" textLength="75" x="178" y="556.8198">getType(): int</text><polygon fill="#FFFF44" points="169,561.4141,173,565.4141,169,569.4141,165,565.4141" style="stroke:#B38D22;stroke-width:1.0;"/><text fill="#000000" font-family="sans-serif" font-size="11" lengthAdjust="spacing" textLength="220" x="178" y="569.6245">modules(): Collection&lt;WikiModuleInfo&gt;</text><polygon fill="#FFFF44" points="169,574.2188,173,578.2188,169,582.2188,165,578.2188" style="stroke:#B38D22;stroke-width:1.0;"/><text fill="#000000" font-family="sans-serif" font-size="11" lengthAdjust="spacing" textLength="107" x="178" y="582.4292">heading(): Element</text><polygon fill="#FFFF44" points="169,587.0234,173,591.0234,169,595.0234,165,591.0234" style="stroke:#B38D22;stroke-width:1.0;"/><text fill="#000000" font-family="sans-serif" font-size="11" lengthAdjust="spacing" textLength="193" x="178" y="595.2339">rowBody(WikiModuleInfo): Element</text></a><!--MD5=[f4502289d78f577e0c7f7be224bf5277]
class org.apache.wiki.ui.admin.beans.SearchManagerBean--><a href="SearchManagerBean.html" target="_top" title="SearchManagerBean.html" xlink:actuate="onRequest" xlink:href="SearchManagerBean.html" xlink:show="new" xlink:title="SearchManagerBean.html" xlink:type="simple"><rect codeLine="12" fill="#FEFECE" filter="url(#ftw23yzsu50vg)" height="150.4375" id="org.apache.wiki.ui.admin.beans.SearchManagerBean" style="stroke:#A80036;stroke-width:1.5;" width="190" x="806" y="254"/><ellipse cx="833.15" cy="270" fill="#ADD1B2" rx="11" ry="11" style="stroke:#A80036;stroke-width:1.0;"/><path d="M836.1188,275.6406 Q835.5406,275.9375 834.9,276.0781 Q834.2594,276.2344 833.5563,276.2344 Q831.0563,276.2344 829.7281,274.5938 Q828.4156,272.9375 828.4156,269.8125 Q828.4156,266.6875 829.7281,265.0313 Q831.0563,263.375 833.5563,263.375 Q834.2594,263.375 834.9,263.5313 Q835.5563,263.6875 836.1188,263.9844 L836.1188,266.7031 Q835.4938,266.125 834.9,265.8594 Q834.3063,265.5781 833.6813,265.5781 Q832.3375,265.5781 831.65,266.6563 Q830.9625,267.7188 830.9625,269.8125 Q830.9625,271.9063 831.65,272.9844 Q832.3375,274.0469 833.6813,274.0469 Q834.3063,274.0469 834.9,273.7813 Q835.4938,273.5 836.1188,272.9219 L836.1188,275.6406 Z " fill="#000000"/><text fill="#000000" font-family="sans-serif" font-size="12" lengthAdjust="spacing" textLength="131" x="849.85" y="274.1543">SearchManagerBean</text><line style="stroke:#A80036;stroke-width:1.5;" x1="807" x2="995" y1="286" y2="286"/><line style="stroke:#A80036;stroke-width:1.5;" x1="807" x2="995" y1="294" y2="294"/><ellipse cx="817" cy="305" fill="#84BE84" rx="3" ry="3" style="stroke:#038048;stroke-width:1.0;"/><text fill="#000000" font-family="sans-serif" font-size="11" lengthAdjust="spacing" textLength="164" x="826" y="308.2104">SearchManagerBean(Engine)</text><ellipse cx="817" cy="317.8047" fill="#84BE84" rx="3" ry="3" style="stroke:#038048;stroke-width:1.0;"/><text fill="#000000" font-family="sans-serif" font-size="11" lengthAdjust="spacing" textLength="164" x="826" y="321.0151">getAttributeNames(): String[]</text><ellipse cx="817" cy="330.6094" fill="#84BE84" rx="3" ry="3" style="stroke:#038048;stroke-width:1.0;"/><text fill="#000000" font-family="sans-serif" font-size="11" lengthAdjust="spacing" textLength="157" x="826" y="333.8198">getMethodNames(): String[]</text><ellipse cx="817" cy="343.4141" fill="#84BE84" rx="3" ry="3" style="stroke:#038048;stroke-width:1.0;"/><text fill="#000000" font-family="sans-serif" font-size="11" lengthAdjust="spacing" textLength="92" x="826" y="346.6245">getTitle(): String</text><ellipse cx="817" cy="356.2188" fill="#84BE84" rx="3" ry="3" style="stroke:#038048;stroke-width:1.0;"/><text fill="#000000" font-family="sans-serif" font-size="11" lengthAdjust="spacing" textLength="75" x="826" y="359.4292">reload(): void</text><ellipse cx="817" cy="369.0234" fill="#84BE84" rx="3" ry="3" style="stroke:#038048;stroke-width:1.0;"/><text fill="#000000" font-family="sans-serif" font-size="11" lengthAdjust="spacing" textLength="75" x="826" y="372.2339">getType(): int</text><ellipse cx="817" cy="381.8281" fill="#84BE84" rx="3" ry="3" style="stroke:#038048;stroke-width:1.0;"/><text fill="#000000" font-family="sans-serif" font-size="11" lengthAdjust="spacing" textLength="127" x="826" y="385.0386">doGet(Context): String</text><ellipse cx="817" cy="394.6328" fill="#84BE84" rx="3" ry="3" style="stroke:#038048;stroke-width:1.0;"/><text fill="#000000" font-family="sans-serif" font-size="11" lengthAdjust="spacing" textLength="132" x="826" y="397.8433">doPost(Context): String</text></a><!--MD5=[fa3bdf59ff49a0b4f88c7ee155846082]
class org.apache.wiki.ui.admin.beans.PlainEditorAdminBean--><a href="PlainEditorAdminBean.html" target="_top" title="PlainEditorAdminBean.html" xlink:actuate="onRequest" xlink:href="PlainEditorAdminBean.html" xlink:show="new" xlink:title="PlainEditorAdminBean.html" xlink:type="simple"><rect codeLine="23" fill="#FEFECE" filter="url(#ftw23yzsu50vg)" height="176.0469" id="org.apache.wiki.ui.admin.beans.PlainEditorAdminBean" style="stroke:#A80036;stroke-width:1.5;" width="190" x="1031" y="241"/><ellipse cx="1055.45" cy="257" fill="#ADD1B2" rx="11" ry="11" style="stroke:#A80036;stroke-width:1.0;"/><path d="M1058.4188,262.6406 Q1057.8406,262.9375 1057.2,263.0781 Q1056.5594,263.2344 1055.8563,263.2344 Q1053.3563,263.2344 1052.0281,261.5938 Q1050.7156,259.9375 1050.7156,256.8125 Q1050.7156,253.6875 1052.0281,252.0313 Q1053.3563,250.375 1055.8563,250.375 Q1056.5594,250.375 1057.2,250.5313 Q1057.8563,250.6875 1058.4188,250.9844 L1058.4188,253.7031 Q1057.7938,253.125 1057.2,252.8594 Q1056.6063,252.5781 1055.9813,252.5781 Q1054.6375,252.5781 1053.95,253.6563 Q1053.2625,254.7188 1053.2625,256.8125 Q1053.2625,258.9063 1053.95,259.9844 Q1054.6375,261.0469 1055.9813,261.0469 Q1056.6063,261.0469 1057.2,260.7813 Q1057.7938,260.5 1058.4188,259.9219 L1058.4188,262.6406 Z " fill="#000000"/><text fill="#000000" font-family="sans-serif" font-size="12" lengthAdjust="spacing" textLength="137" x="1071.55" y="261.1543">PlainEditorAdminBean</text><line style="stroke:#A80036;stroke-width:1.5;" x1="1032" x2="1220" y1="273" y2="273"/><line style="stroke:#A80036;stroke-width:1.5;" x1="1032" x2="1220" y1="281" y2="281"/><ellipse cx="1042" cy="292" fill="#84BE84" rx="3" ry="3" style="stroke:#038048;stroke-width:1.0;"/><text fill="#000000" font-family="sans-serif" font-size="11" lengthAdjust="spacing" textLength="127" x="1051" y="295.2104">doGet(Context): String</text><ellipse cx="1042" cy="304.8047" fill="#84BE84" rx="3" ry="3" style="stroke:#038048;stroke-width:1.0;"/><text fill="#000000" font-family="sans-serif" font-size="11" lengthAdjust="spacing" textLength="132" x="1051" y="308.0151">doPost(Context): String</text><ellipse cx="1042" cy="317.6094" fill="#84BE84" rx="3" ry="3" style="stroke:#038048;stroke-width:1.0;"/><text fill="#000000" font-family="sans-serif" font-size="11" lengthAdjust="spacing" textLength="92" x="1051" y="320.8198">getTitle(): String</text><ellipse cx="1042" cy="330.4141" fill="#84BE84" rx="3" ry="3" style="stroke:#038048;stroke-width:1.0;"/><text fill="#000000" font-family="sans-serif" font-size="11" lengthAdjust="spacing" textLength="75" x="1051" y="333.6245">getType(): int</text><ellipse cx="1042" cy="343.2188" fill="#84BE84" rx="3" ry="3" style="stroke:#038048;stroke-width:1.0;"/><text fill="#000000" font-family="sans-serif" font-size="11" lengthAdjust="spacing" textLength="116" x="1051" y="346.4292">isEnabled(): boolean</text><ellipse cx="1042" cy="356.0234" fill="#84BE84" rx="3" ry="3" style="stroke:#038048;stroke-width:1.0;"/><text fill="#000000" font-family="sans-serif" font-size="11" lengthAdjust="spacing" textLength="78" x="1051" y="359.2339">getId(): String</text><ellipse cx="1042" cy="368.8281" fill="#84BE84" rx="3" ry="3" style="stroke:#038048;stroke-width:1.0;"/><text fill="#000000" font-family="sans-serif" font-size="11" lengthAdjust="spacing" textLength="127" x="1051" y="372.0386">getChecked(): boolean</text><ellipse cx="1042" cy="381.6328" fill="#84BE84" rx="3" ry="3" style="stroke:#038048;stroke-width:1.0;"/><text fill="#000000" font-family="sans-serif" font-size="11" lengthAdjust="spacing" textLength="164" x="1051" y="384.8433">getAttributeNames(): String[]</text><ellipse cx="1042" cy="394.4375" fill="#84BE84" rx="3" ry="3" style="stroke:#038048;stroke-width:1.0;"/><text fill="#000000" font-family="sans-serif" font-size="11" lengthAdjust="spacing" textLength="157" x="1051" y="397.6479">getMethodNames(): String[]</text><ellipse cx="1042" cy="407.2422" fill="#84BE84" rx="3" ry="3" style="stroke:#038048;stroke-width:1.0;"/><text fill="#000000" font-family="sans-serif" font-size="11" lengthAdjust="spacing" textLength="122" x="1051" y="410.4526">initialize(Engine): void</text></a><!--MD5=[06ed52a08f9f650f8a5ab2ea17093d77]
class org.apache.wiki.ui.admin.beans.ModuleBean--><a href="ModuleBean.html" target="_top" title="ModuleBean.html" xlink:actuate="onRequest" xlink:href="ModuleBean.html" xlink:show="new" xlink:title="ModuleBean.html" xlink:type="simple"><rect codeLine="36" fill="#FEFECE" filter="url(#ftw23yzsu50vg)" height="176.0469" id="org.apache.wiki.ui.admin.beans.ModuleBean" style="stroke:#A80036;stroke-width:1.5;" width="277" x="268.5" y="241"/><ellipse cx="364.25" cy="257" fill="#A9DCDF" rx="11" ry="11" style="stroke:#A80036;stroke-width:1.0;"/><path d="M364.3594,252.3438 L363.2031,257.4219 L365.5313,257.4219 L364.3594,252.3438 Z M362.875,250.1094 L365.8594,250.1094 L369.2188,262.5 L366.7656,262.5 L366,259.4375 L362.7188,259.4375 L361.9688,262.5 L359.5313,262.5 L362.875,250.1094 Z " fill="#000000"/><text fill="#000000" font-family="sans-serif" font-size="12" font-style="italic" lengthAdjust="spacing" textLength="77" x="384.75" y="261.1543">ModuleBean</text><line style="stroke:#A80036;stroke-width:1.5;" x1="269.5" x2="544.5" y1="273" y2="273"/><line style="stroke:#A80036;stroke-width:1.5;" x1="269.5" x2="544.5" y1="281" y2="281"/><ellipse cx="279.5" cy="292" fill="#84BE84" rx="3" ry="3" style="stroke:#038048;stroke-width:1.0;"/><text fill="#000000" font-family="sans-serif" font-size="11" lengthAdjust="spacing" textLength="115" x="288.5" y="295.2104">ModuleBean(Engine)</text><ellipse cx="279.5" cy="304.8047" fill="#84BE84" rx="3" ry="3" style="stroke:#038048;stroke-width:1.0;"/><text fill="#000000" font-family="sans-serif" font-size="11" lengthAdjust="spacing" textLength="164" x="288.5" y="308.0151">getAttributeNames(): String[]</text><ellipse cx="279.5" cy="317.6094" fill="#84BE84" rx="3" ry="3" style="stroke:#038048;stroke-width:1.0;"/><text fill="#000000" font-family="sans-serif" font-size="11" lengthAdjust="spacing" textLength="157" x="288.5" y="320.8198">getMethodNames(): String[]</text><ellipse cx="279.5" cy="330.4141" fill="#84BE84" rx="3" ry="3" style="stroke:#038048;stroke-width:1.0;"/><text fill="#000000" font-family="sans-serif" font-size="11" lengthAdjust="spacing" textLength="127" x="288.5" y="333.6245">doGet(Context): String</text><polygon fill="#FFFF44" points="279.5,338.2188,283.5,342.2188,279.5,346.2188,275.5,342.2188" style="stroke:#B38D22;stroke-width:1.0;"/><text fill="#000000" font-family="sans-serif" font-size="11" lengthAdjust="spacing" textLength="83" x="288.5" y="346.4292">title(): Element</text><polygon fill="#FFFF44" points="279.5,351.0234,283.5,355.0234,279.5,359.0234,275.5,355.0234" style="stroke:#B38D22;stroke-width:1.0;"/><text fill="#000000" font-family="sans-serif" font-size="11" lengthAdjust="spacing" textLength="251" x="288.5" y="359.2339">containerForModuleDetail(Element): Element</text><polygon fill="#FFFF44" points="279.5,363.8281,283.5,367.8281,279.5,371.8281,275.5,367.8281" style="stroke:#B38D22;stroke-width:1.0;"/><text fill="#000000" font-family="sans-serif" font-size="11" font-style="italic" lengthAdjust="spacing" textLength="221" x="288.5" y="372.0386">modules(): Collection&lt;WikiModuleInfo&gt;</text><polygon fill="#FFFF44" points="279.5,376.6328,283.5,380.6328,279.5,384.6328,275.5,380.6328" style="stroke:#B38D22;stroke-width:1.0;"/><text fill="#000000" font-family="sans-serif" font-size="11" font-style="italic" lengthAdjust="spacing" textLength="107" x="288.5" y="384.8433">heading(): Element</text><polygon fill="#FFFF44" points="279.5,389.4375,283.5,393.4375,279.5,397.4375,275.5,393.4375" style="stroke:#B38D22;stroke-width:1.0;"/><text fill="#000000" font-family="sans-serif" font-size="11" font-style="italic" lengthAdjust="spacing" textLength="196" x="288.5" y="397.6479">rowBody(WikiModuleInfo): Element</text><polygon fill="#FFFF44" points="279.5,402.2422,283.5,406.2422,279.5,410.2422,275.5,406.2422" style="stroke:#B38D22;stroke-width:1.0;"/><text fill="#000000" font-family="sans-serif" font-size="11" lengthAdjust="spacing" textLength="241" x="288.5" y="410.4526">validModuleVersion(WikiModuleInfo): String</text></a><!--MD5=[6f4b698516e818847e5a672dbb84bd39]
class org.apache.wiki.ui.admin.beans.CoreBean--><a href="CoreBean.html" target="_top" title="CoreBean.html" xlink:actuate="onRequest" xlink:href="CoreBean.html" xlink:show="new" xlink:title="CoreBean.html" xlink:type="simple"><rect codeLine="49" fill="#FEFECE" filter="url(#ftw23yzsu50vg)" height="176.0469" id="org.apache.wiki.ui.admin.beans.CoreBean" style="stroke:#A80036;stroke-width:1.5;" width="201" x="32.5" y="241"/><ellipse cx="98.25" cy="257" fill="#ADD1B2" rx="11" ry="11" style="stroke:#A80036;stroke-width:1.0;"/><path d="M101.2188,262.6406 Q100.6406,262.9375 100,263.0781 Q99.3594,263.2344 98.6563,263.2344 Q96.1563,263.2344 94.8281,261.5938 Q93.5156,259.9375 93.5156,256.8125 Q93.5156,253.6875 94.8281,252.0313 Q96.1563,250.375 98.6563,250.375 Q99.3594,250.375 100,250.5313 Q100.6563,250.6875 101.2188,250.9844 L101.2188,253.7031 Q100.5938,253.125 100,252.8594 Q99.4063,252.5781 98.7813,252.5781 Q97.4375,252.5781 96.75,253.6563 Q96.0625,254.7188 96.0625,256.8125 Q96.0625,258.9063 96.75,259.9844 Q97.4375,261.0469 98.7813,261.0469 Q99.4063,261.0469 100,260.7813 Q100.5938,260.5 101.2188,259.9219 L101.2188,262.6406 Z " fill="#000000"/><text fill="#000000" font-family="sans-serif" font-size="12" lengthAdjust="spacing" textLength="61" x="118.75" y="261.1543">CoreBean</text><line style="stroke:#A80036;stroke-width:1.5;" x1="33.5" x2="232.5" y1="273" y2="273"/><line style="stroke:#A80036;stroke-width:1.5;" x1="33.5" x2="232.5" y1="281" y2="281"/><ellipse cx="43.5" cy="292" fill="#84BE84" rx="3" ry="3" style="stroke:#038048;stroke-width:1.0;"/><text fill="#000000" font-family="sans-serif" font-size="11" lengthAdjust="spacing" textLength="102" x="52.5" y="295.2104">CoreBean(Engine)</text><ellipse cx="43.5" cy="304.8047" fill="#84BE84" rx="3" ry="3" style="stroke:#038048;stroke-width:1.0;"/><text fill="#000000" font-family="sans-serif" font-size="11" lengthAdjust="spacing" textLength="83" x="52.5" y="308.0151">getPages(): int</text><ellipse cx="43.5" cy="317.6094" fill="#84BE84" rx="3" ry="3" style="stroke:#038048;stroke-width:1.0;"/><text fill="#000000" font-family="sans-serif" font-size="11" lengthAdjust="spacing" textLength="167" x="52.5" y="320.8198">getPagesDescription(): String</text><ellipse cx="43.5" cy="330.4141" fill="#84BE84" rx="3" ry="3" style="stroke:#038048;stroke-width:1.0;"/><text fill="#000000" font-family="sans-serif" font-size="11" lengthAdjust="spacing" textLength="111" x="52.5" y="333.6245">getVersion(): String</text><ellipse cx="43.5" cy="343.2188" fill="#84BE84" rx="3" ry="3" style="stroke:#038048;stroke-width:1.0;"/><text fill="#000000" font-family="sans-serif" font-size="11" lengthAdjust="spacing" textLength="175" x="52.5" y="346.4292">getVersionDescription(): String</text><ellipse cx="43.5" cy="356.0234" fill="#84BE84" rx="3" ry="3" style="stroke:#038048;stroke-width:1.0;"/><text fill="#000000" font-family="sans-serif" font-size="11" lengthAdjust="spacing" textLength="92" x="52.5" y="359.2339">getTitle(): String</text><ellipse cx="43.5" cy="368.8281" fill="#84BE84" rx="3" ry="3" style="stroke:#038048;stroke-width:1.0;"/><text fill="#000000" font-family="sans-serif" font-size="11" lengthAdjust="spacing" textLength="75" x="52.5" y="372.0386">getType(): int</text><ellipse cx="43.5" cy="381.6328" fill="#84BE84" rx="3" ry="3" style="stroke:#038048;stroke-width:1.0;"/><text fill="#000000" font-family="sans-serif" font-size="11" lengthAdjust="spacing" textLength="78" x="52.5" y="384.8433">getId(): String</text><ellipse cx="43.5" cy="394.4375" fill="#84BE84" rx="3" ry="3" style="stroke:#038048;stroke-width:1.0;"/><text fill="#000000" font-family="sans-serif" font-size="11" lengthAdjust="spacing" textLength="164" x="52.5" y="397.6479">getAttributeNames(): String[]</text><ellipse cx="43.5" cy="407.2422" fill="#84BE84" rx="3" ry="3" style="stroke:#038048;stroke-width:1.0;"/><text fill="#000000" font-family="sans-serif" font-size="11" lengthAdjust="spacing" textLength="157" x="52.5" y="410.4526">getMethodNames(): String[]</text></a><!--MD5=[7342196c61dd24d5387649e3050af40f]
class org.apache.wiki.ui.admin.beans.FilterBean--><a href="FilterBean.html" target="_top" title="FilterBean.html" xlink:actuate="onRequest" xlink:href="FilterBean.html" xlink:show="new" xlink:title="FilterBean.html" xlink:type="simple"><rect codeLine="62" fill="#FEFECE" filter="url(#ftw23yzsu50vg)" height="124.8281" id="org.apache.wiki.ui.admin.beans.FilterBean" style="stroke:#A80036;stroke-width:1.5;" width="246" x="439" y="477"/><ellipse cx="526.25" cy="493" fill="#ADD1B2" rx="11" ry="11" style="stroke:#A80036;stroke-width:1.0;"/><path d="M529.2188,498.6406 Q528.6406,498.9375 528,499.0781 Q527.3594,499.2344 526.6563,499.2344 Q524.1563,499.2344 522.8281,497.5938 Q521.5156,495.9375 521.5156,492.8125 Q521.5156,489.6875 522.8281,488.0313 Q524.1563,486.375 526.6563,486.375 Q527.3594,486.375 528,486.5313 Q528.6563,486.6875 529.2188,486.9844 L529.2188,489.7031 Q528.5938,489.125 528,488.8594 Q527.4063,488.5781 526.7813,488.5781 Q525.4375,488.5781 524.75,489.6563 Q524.0625,490.7188 524.0625,492.8125 Q524.0625,494.9063 524.75,495.9844 Q525.4375,497.0469 526.7813,497.0469 Q527.4063,497.0469 528,496.7813 Q528.5938,496.5 529.2188,495.9219 L529.2188,498.6406 Z " fill="#000000"/><text fill="#000000" font-family="sans-serif" font-size="12" lengthAdjust="spacing" textLength="63" x="546.75" y="497.1543">FilterBean</text><line style="stroke:#A80036;stroke-width:1.5;" x1="440" x2="684" y1="509" y2="509"/><line style="stroke:#A80036;stroke-width:1.5;" x1="440" x2="684" y1="517" y2="517"/><ellipse cx="450" cy="528" fill="#84BE84" rx="3" ry="3" style="stroke:#038048;stroke-width:1.0;"/><text fill="#000000" font-family="sans-serif" font-size="11" lengthAdjust="spacing" textLength="103" x="459" y="531.2104">FilterBean(Engine)</text><ellipse cx="450" cy="540.8047" fill="#84BE84" rx="3" ry="3" style="stroke:#038048;stroke-width:1.0;"/><text fill="#000000" font-family="sans-serif" font-size="11" lengthAdjust="spacing" textLength="92" x="459" y="544.0151">getTitle(): String</text><ellipse cx="450" cy="553.6094" fill="#84BE84" rx="3" ry="3" style="stroke:#038048;stroke-width:1.0;"/><text fill="#000000" font-family="sans-serif" font-size="11" lengthAdjust="spacing" textLength="75" x="459" y="556.8198">getType(): int</text><polygon fill="#FFFF44" points="450,561.4141,454,565.4141,450,569.4141,446,565.4141" style="stroke:#B38D22;stroke-width:1.0;"/><text fill="#000000" font-family="sans-serif" font-size="11" lengthAdjust="spacing" textLength="220" x="459" y="569.6245">modules(): Collection&lt;WikiModuleInfo&gt;</text><polygon fill="#FFFF44" points="450,574.2188,454,578.2188,450,582.2188,446,578.2188" style="stroke:#B38D22;stroke-width:1.0;"/><text fill="#000000" font-family="sans-serif" font-size="11" lengthAdjust="spacing" textLength="107" x="459" y="582.4292">heading(): Element</text><polygon fill="#FFFF44" points="450,587.0234,454,591.0234,450,595.0234,446,591.0234" style="stroke:#B38D22;stroke-width:1.0;"/><text fill="#000000" font-family="sans-serif" font-size="11" lengthAdjust="spacing" textLength="193" x="459" y="595.2339">rowBody(WikiModuleInfo): Element</text></a><!--MD5=[ba7790b672014fb41ea1502a6bb32e26]
class org.apache.wiki.ui.admin.beans.UserBean--><a href="UserBean.html" target="_top" title="UserBean.html" xlink:actuate="onRequest" xlink:href="UserBean.html" xlink:show="new" xlink:title="UserBean.html" xlink:type="simple"><rect codeLine="71" fill="#FEFECE" filter="url(#ftw23yzsu50vg)" height="124.8281" id="org.apache.wiki.ui.admin.beans.UserBean" style="stroke:#A80036;stroke-width:1.5;" width="190" x="581" y="266.5"/><ellipse cx="641.25" cy="282.5" fill="#ADD1B2" rx="11" ry="11" style="stroke:#A80036;stroke-width:1.0;"/><path d="M644.2188,288.1406 Q643.6406,288.4375 643,288.5781 Q642.3594,288.7344 641.6563,288.7344 Q639.1563,288.7344 637.8281,287.0938 Q636.5156,285.4375 636.5156,282.3125 Q636.5156,279.1875 637.8281,277.5313 Q639.1563,275.875 641.6563,275.875 Q642.3594,275.875 643,276.0313 Q643.6563,276.1875 644.2188,276.4844 L644.2188,279.2031 Q643.5938,278.625 643,278.3594 Q642.4063,278.0781 641.7813,278.0781 Q640.4375,278.0781 639.75,279.1563 Q639.0625,280.2188 639.0625,282.3125 Q639.0625,284.4063 639.75,285.4844 Q640.4375,286.5469 641.7813,286.5469 Q642.4063,286.5469 643,286.2813 Q643.5938,286 644.2188,285.4219 L644.2188,288.1406 Z " fill="#000000"/><text fill="#000000" font-family="sans-serif" font-size="12" lengthAdjust="spacing" textLength="61" x="661.75" y="286.6543">UserBean</text><line style="stroke:#A80036;stroke-width:1.5;" x1="582" x2="770" y1="298.5" y2="298.5"/><line style="stroke:#A80036;stroke-width:1.5;" x1="582" x2="770" y1="306.5" y2="306.5"/><ellipse cx="592" cy="317.5" fill="#84BE84" rx="3" ry="3" style="stroke:#038048;stroke-width:1.0;"/><text fill="#000000" font-family="sans-serif" font-size="11" lengthAdjust="spacing" textLength="102" x="601" y="320.7104">UserBean(Engine)</text><ellipse cx="592" cy="330.3047" fill="#84BE84" rx="3" ry="3" style="stroke:#038048;stroke-width:1.0;"/><text fill="#000000" font-family="sans-serif" font-size="11" lengthAdjust="spacing" textLength="164" x="601" y="333.5151">getAttributeNames(): String[]</text><ellipse cx="592" cy="343.1094" fill="#84BE84" rx="3" ry="3" style="stroke:#038048;stroke-width:1.0;"/><text fill="#000000" font-family="sans-serif" font-size="11" lengthAdjust="spacing" textLength="157" x="601" y="346.3198">getMethodNames(): String[]</text><ellipse cx="592" cy="355.9141" fill="#84BE84" rx="3" ry="3" style="stroke:#038048;stroke-width:1.0;"/><text fill="#000000" font-family="sans-serif" font-size="11" lengthAdjust="spacing" textLength="132" x="601" y="359.1245">doPost(Context): String</text><ellipse cx="592" cy="368.7188" fill="#84BE84" rx="3" ry="3" style="stroke:#038048;stroke-width:1.0;"/><text fill="#000000" font-family="sans-serif" font-size="11" lengthAdjust="spacing" textLength="92" x="601" y="371.9292">getTitle(): String</text><ellipse cx="592" cy="381.5234" fill="#84BE84" rx="3" ry="3" style="stroke:#038048;stroke-width:1.0;"/><text fill="#000000" font-family="sans-serif" font-size="11" lengthAdjust="spacing" textLength="75" x="601" y="384.7339">getType(): int</text></a><!--MD5=[4b823098d8674ba19cb416ea00e3335e]
class org.apache.wiki.ui.admin.SimpleAdminBean--><a href="../SimpleAdminBean.html" target="_top" title="../SimpleAdminBean.html" xlink:actuate="onRequest" xlink:href="../SimpleAdminBean.html" xlink:show="new" xlink:title="../SimpleAdminBean.html" xlink:type="simple"><rect codeLine="91" fill="#FEFECE" filter="url(#ftw23yzsu50vg)" height="60.8047" id="org.apache.wiki.ui.admin.SimpleAdminBean" style="stroke:#A80036;stroke-width:1.5;" width="143" x="604.5" y="73"/><ellipse cx="619.5" cy="89" fill="#A9DCDF" rx="11" ry="11" style="stroke:#A80036;stroke-width:1.0;"/><path d="M619.6094,84.3438 L618.4531,89.4219 L620.7813,89.4219 L619.6094,84.3438 Z M618.125,82.1094 L621.1094,82.1094 L624.4688,94.5 L622.0156,94.5 L621.25,91.4375 L617.9688,91.4375 L617.2188,94.5 L614.7813,94.5 L618.125,82.1094 Z " fill="#000000"/><text fill="#000000" font-family="sans-serif" font-size="12" font-style="italic" lengthAdjust="spacing" textLength="111" x="633.5" y="93.1543">SimpleAdminBean</text><line style="stroke:#A80036;stroke-width:1.5;" x1="605.5" x2="746.5" y1="105" y2="105"/><polygon fill="none" points="615.5,111,619.5,115,615.5,119,611.5,115" style="stroke:#B38D22;stroke-width:1.0;"/><text fill="#000000" font-family="sans-serif" font-size="11" lengthAdjust="spacing" textLength="101" x="624.5" y="119.2104">m_engine: Engine</text><line style="stroke:#A80036;stroke-width:1.5;" x1="605.5" x2="746.5" y1="125.8047" y2="125.8047"/></a><!--MD5=[3517fb5c0510b94d58fc0166fd09be85]
class org.apache.wiki.ui.admin.AdminBean--><a href="../AdminBean.html" target="_top" title="../AdminBean.html" xlink:actuate="onRequest" xlink:href="../AdminBean.html" xlink:show="new" xlink:title="../AdminBean.html" xlink:type="simple"><rect codeLine="94" fill="#FEFECE" filter="url(#ftw23yzsu50vg)" height="124.8281" id="org.apache.wiki.ui.admin.AdminBean" style="stroke:#A80036;stroke-width:1.5;" width="150" x="783" y="41"/><ellipse cx="819.6" cy="57" fill="#B4A7E5" rx="11" ry="11" style="stroke:#A80036;stroke-width:1.0;"/><path d="M815.5219,52.7656 L815.5219,50.6094 L822.9125,50.6094 L822.9125,52.7656 L820.4438,52.7656 L820.4438,60.8438 L822.9125,60.8438 L822.9125,63 L815.5219,63 L815.5219,60.8438 L817.9906,60.8438 L817.9906,52.7656 L815.5219,52.7656 Z " fill="#000000"/><text fill="#000000" font-family="sans-serif" font-size="12" font-style="italic" lengthAdjust="spacing" textLength="70" x="838.4" y="61.1543">AdminBean</text><line style="stroke:#A80036;stroke-width:1.5;" x1="784" x2="932" y1="73" y2="73"/><ellipse cx="794" cy="84" rx="3" ry="3" style="stroke:#038048;stroke-width:1.0;fill:none;"/><text fill="#000000" font-family="sans-serif" font-size="11" lengthAdjust="spacing" text-decoration="underline" textLength="79" x="803" y="87.2104">UNKNOWN: int</text><ellipse cx="794" cy="96.8047" rx="3" ry="3" style="stroke:#038048;stroke-width:1.0;fill:none;"/><text fill="#000000" font-family="sans-serif" font-size="11" lengthAdjust="spacing" text-decoration="underline" textLength="53" x="803" y="100.0151">CORE: int</text><ellipse cx="794" cy="109.6094" rx="3" ry="3" style="stroke:#038048;stroke-width:1.0;fill:none;"/><text fill="#000000" font-family="sans-serif" font-size="11" lengthAdjust="spacing" text-decoration="underline" textLength="63" x="803" y="112.8198">EDITOR: int</text><line style="stroke:#A80036;stroke-width:1.5;" x1="784" x2="932" y1="119.4141" y2="119.4141"/><ellipse cx="794" cy="130.4141" fill="#84BE84" rx="3" ry="3" style="stroke:#038048;stroke-width:1.0;"/><text fill="#000000" font-family="sans-serif" font-size="11" font-style="italic" lengthAdjust="spacing" textLength="124" x="803" y="133.6245">initialize(Engine): void</text><ellipse cx="794" cy="143.2188" fill="#84BE84" rx="3" ry="3" style="stroke:#038048;stroke-width:1.0;"/><text fill="#000000" font-family="sans-serif" font-size="11" font-style="italic" lengthAdjust="spacing" textLength="91" x="803" y="146.4292">getTitle(): String</text><ellipse cx="794" cy="156.0234" fill="#84BE84" rx="3" ry="3" style="stroke:#038048;stroke-width:1.0;"/><text fill="#000000" font-family="sans-serif" font-size="11" font-style="italic" lengthAdjust="spacing" textLength="76" x="803" y="159.2339">getType(): int</text></a><!--MD5=[a9696cc3406e3bfeff149f6647ff5cab]
class org.apache.wiki.management.SimpleMBean--><a href="../../../management/SimpleMBean.html" target="_top" title="../../../management/SimpleMBean.html" xlink:actuate="onRequest" xlink:href="../../../management/SimpleMBean.html" xlink:show="new" xlink:title="../../../management/SimpleMBean.html" xlink:type="simple"><rect codeLine="105" fill="#FEFECE" filter="url(#ftw23yzsu50vg)" height="86.4141" id="org.apache.wiki.management.SimpleMBean" style="stroke:#A80036;stroke-width:1.5;" width="189" x="1031.5" y="60.5"/><ellipse cx="1080.25" cy="76.5" fill="#A9DCDF" rx="11" ry="11" style="stroke:#A80036;stroke-width:1.0;"/><path d="M1080.3594,71.8438 L1079.2031,76.9219 L1081.5313,76.9219 L1080.3594,71.8438 Z M1078.875,69.6094 L1081.8594,69.6094 L1085.2188,82 L1082.7656,82 L1082,78.9375 L1078.7188,78.9375 L1077.9688,82 L1075.5313,82 L1078.875,69.6094 Z " fill="#000000"/><text fill="#000000" font-family="sans-serif" font-size="12" font-style="italic" lengthAdjust="spacing" textLength="83" x="1100.75" y="80.6543">SimpleMBean</text><line style="stroke:#A80036;stroke-width:1.5;" x1="1032.5" x2="1219.5" y1="92.5" y2="92.5"/><polygon fill="none" points="1042.5,98.5,1046.5,102.5,1042.5,106.5,1038.5,102.5" style="stroke:#B38D22;stroke-width:1.0;"/><text fill="#000000" font-family="sans-serif" font-size="11" lengthAdjust="spacing" textLength="133" x="1051.5" y="106.7104">m_beanInfo: MBeanInfo</text><line style="stroke:#A80036;stroke-width:1.5;" x1="1032.5" x2="1219.5" y1="113.3047" y2="113.3047"/><ellipse cx="1042.5" cy="124.3047" fill="#84BE84" rx="3" ry="3" style="stroke:#038048;stroke-width:1.0;"/><text fill="#000000" font-family="sans-serif" font-size="11" font-style="italic" lengthAdjust="spacing" textLength="163" x="1051.5" y="127.5151">getAttributeNames(): String[]</text><ellipse cx="1042.5" cy="137.1094" fill="#84BE84" rx="3" ry="3" style="stroke:#038048;stroke-width:1.0;"/><text fill="#000000" font-family="sans-serif" font-size="11" font-style="italic" lengthAdjust="spacing" textLength="155" x="1051.5" y="140.3198">getMethodNames(): String[]</text></a><!--MD5=[b56e03e824a683c894d21505a50509d2]
reverse link org.apache.wiki.ui.admin.beans.ModuleBean to org.apache.wiki.ui.admin.beans.PluginBean--><path codeLine="80" d="M343.68,434.78 C334.95,449.23 326.22,463.67 318.18,476.98 " fill="none" id="org.apache.wiki.ui.admin.beans.ModuleBean-backto-org.apache.wiki.ui.admin.beans.PluginBean" style="stroke:#A80036;stroke-width:1.0;"/><polygon fill="none" points="337.96,430.71,354.29,417.21,349.94,437.95,337.96,430.71" style="stroke:#A80036;stroke-width:1.0;"/><!--MD5=[f41e50272af7cf222efc3001e245f110]
reverse link org.apache.wiki.ui.admin.SimpleAdminBean to org.apache.wiki.ui.admin.beans.SearchManagerBean--><path codeLine="81" d="M715.27,148.8 C730.03,163.46 747.7,178.85 766,190 C775.24,195.63 780.05,191.91 789,198 C811.17,213.08 831.6,233.62 848.76,253.92 " fill="none" id="org.apache.wiki.ui.admin.SimpleAdminBean-backto-org.apache.wiki.ui.admin.beans.SearchManagerBean" style="stroke:#A80036;stroke-width:1.0;"/><polygon fill="none" points="709.86,153.27,701.04,134.01,719.95,143.57,709.86,153.27" style="stroke:#A80036;stroke-width:1.0;"/><!--MD5=[0e5d237d817b7583e019505be234d12e]
reverse link org.apache.wiki.management.SimpleMBean to org.apache.wiki.ui.admin.beans.PlainEditorAdminBean--><path codeLine="82" d="M1126,166.85 C1126,189.75 1126,216.11 1126,240.79 " fill="none" id="org.apache.wiki.management.SimpleMBean-backto-org.apache.wiki.ui.admin.beans.PlainEditorAdminBean" style="stroke:#A80036;stroke-width:1.0;"/><polygon fill="none" points="1119,166.54,1126,146.54,1133,166.54,1119,166.54" style="stroke:#A80036;stroke-width:1.0;"/><!--MD5=[a7740c23a8ca9b2973570bbd036450ce]
reverse link org.apache.wiki.ui.admin.AdminBean to org.apache.wiki.ui.admin.beans.PlainEditorAdminBean--><path codeLine="83" d="M950.34,153.2 C972.15,166.46 994.65,181.71 1014,198 C1029.15,210.76 1043.99,225.66 1057.66,240.73 " fill="none" id="org.apache.wiki.ui.admin.AdminBean-backto-org.apache.wiki.ui.admin.beans.PlainEditorAdminBean" style="stroke:#A80036;stroke-width:1.0;stroke-dasharray:7.0,7.0;"/><polygon fill="none" points="946.75,159.21,933.09,143.01,953.87,147.15,946.75,159.21" style="stroke:#A80036;stroke-width:1.0;"/><!--MD5=[e4bbc004e4cd596be5c4ae748f36c9f6]
reverse link org.apache.wiki.ui.admin.SimpleAdminBean to org.apache.wiki.ui.admin.beans.ModuleBean--><path codeLine="84" d="M624.59,147.21 C592.66,173.74 550.46,208.8 511.73,240.98 " fill="none" id="org.apache.wiki.ui.admin.SimpleAdminBean-backto-org.apache.wiki.ui.admin.beans.ModuleBean" style="stroke:#A80036;stroke-width:1.0;"/><polygon fill="none" points="620.42,141.58,640.28,134.18,629.37,152.34,620.42,141.58" style="stroke:#A80036;stroke-width:1.0;"/><!--MD5=[9b24dc26102375f1222e9745d75864d7]
reverse link org.apache.wiki.ui.admin.SimpleAdminBean to org.apache.wiki.ui.admin.beans.CoreBean--><path codeLine="85" d="M584.14,108.64 C493.9,116.27 355.01,137.74 251,198 C231.75,209.16 213.88,224.52 198.17,240.78 " fill="none" id="org.apache.wiki.ui.admin.SimpleAdminBean-backto-org.apache.wiki.ui.admin.beans.CoreBean" style="stroke:#A80036;stroke-width:1.0;"/><polygon fill="none" points="583.82,101.65,604.3,107.1,584.89,115.61,583.82,101.65" style="stroke:#A80036;stroke-width:1.0;"/><!--MD5=[b272b87b60605509cdeb62fbe5c8d212]
reverse link org.apache.wiki.ui.admin.beans.ModuleBean to org.apache.wiki.ui.admin.beans.FilterBean--><path codeLine="86" d="M483.83,433.35 C494.93,448.28 506.04,463.23 516.27,476.98 " fill="none" id="org.apache.wiki.ui.admin.beans.ModuleBean-backto-org.apache.wiki.ui.admin.beans.FilterBean" style="stroke:#A80036;stroke-width:1.0;"/><polygon fill="none" points="478.15,437.44,471.84,417.21,489.39,429.09,478.15,437.44" style="stroke:#A80036;stroke-width:1.0;"/><!--MD5=[a5800cf21b59961b691f39be1f00b754]
reverse link org.apache.wiki.ui.admin.SimpleAdminBean to org.apache.wiki.ui.admin.beans.UserBean--><path codeLine="87" d="M676,154.63 C676,187.59 676,230.96 676,266.07 " fill="none" id="org.apache.wiki.ui.admin.SimpleAdminBean-backto-org.apache.wiki.ui.admin.beans.UserBean" style="stroke:#A80036;stroke-width:1.0;"/><polygon fill="none" points="669,154.18,676,134.18,683,154.18,669,154.18" style="stroke:#A80036;stroke-width:1.0;"/><text fill="#888888" font-family="sans-serif" font-size="10" lengthAdjust="spacing" textLength="192" x="531" y="633.2822">UMLDoclet 2.0.15, PlantUML 1.2021.13</text><!--MD5=[f079f067441eaa7e69f36aaafd2e0d6e]
@startuml
    namespace org.apache.wiki.ui.admin.beans {

        class PluginBean [[PluginBean.html]] {
            +PluginBean(Engine)
            +getTitle(): String
            +getType(): int
            #modules(): Collection<WikiModuleInfo>
            #heading(): Element
            #rowBody(WikiModuleInfo): Element
        }

        class SearchManagerBean [[SearchManagerBean.html]] {
            +SearchManagerBean(Engine)
            +getAttributeNames(): String[]
            +getMethodNames(): String[]
            +getTitle(): String
            +reload(): void
            +getType(): int
            +doGet(Context): String
            +doPost(Context): String
        }

        class PlainEditorAdminBean [[PlainEditorAdminBean.html]] {
            +doGet(Context): String
            +doPost(Context): String
            +getTitle(): String
            +getType(): int
            +isEnabled(): boolean
            +getId(): String
            +getChecked(): boolean
            +getAttributeNames(): String[]
            +getMethodNames(): String[]
            +initialize(Engine): void
        }

        abstract class ModuleBean [[ModuleBean.html]] {
            +ModuleBean(Engine)
            +getAttributeNames(): String[]
            +getMethodNames(): String[]
            +doGet(Context): String
            #title(): Element
            #containerForModuleDetail(Element): Element
            {abstract} #modules(): Collection<WikiModuleInfo>
            {abstract} #heading(): Element
            {abstract} #rowBody(WikiModuleInfo): Element
            #validModuleVersion(WikiModuleInfo): String
        }

        class CoreBean [[CoreBean.html]] {
            +CoreBean(Engine)
            +getPages(): int
            +getPagesDescription(): String
            +getVersion(): String
            +getVersionDescription(): String
            +getTitle(): String
            +getType(): int
            +getId(): String
            +getAttributeNames(): String[]
            +getMethodNames(): String[]
        }

        class FilterBean [[FilterBean.html]] {
            +FilterBean(Engine)
            +getTitle(): String
            +getType(): int
            #modules(): Collection<WikiModuleInfo>
            #heading(): Element
            #rowBody(WikiModuleInfo): Element
        }

        class UserBean [[UserBean.html]] {
            +UserBean(Engine)
            +getAttributeNames(): String[]
            +getMethodNames(): String[]
            +doPost(Context): String
            +getTitle(): String
            +getType(): int
        }

        ModuleBean <|- - PluginBean
        org.apache.wiki.ui.admin.SimpleAdminBean <|- - SearchManagerBean
        org.apache.wiki.management.SimpleMBean <|- - PlainEditorAdminBean
        org.apache.wiki.ui.admin.AdminBean <|.. PlainEditorAdminBean
        org.apache.wiki.ui.admin.SimpleAdminBean <|- - ModuleBean
        org.apache.wiki.ui.admin.SimpleAdminBean <|- - CoreBean
        ModuleBean <|- - FilterBean
        org.apache.wiki.ui.admin.SimpleAdminBean <|- - UserBean
    }

    namespace org.apache.wiki.ui.admin {
        abstract class SimpleAdminBean [[../SimpleAdminBean.html]] {
            #m_engine: Engine
        }
        interface AdminBean [[../AdminBean.html]] {
            {static} +UNKNOWN: int
            {static} +CORE: int
            {static} +EDITOR: int
            {abstract} +initialize(Engine): void
            {abstract} +getTitle(): String
            {abstract} +getType(): int
        }
    }

    namespace org.apache.wiki.management {
        abstract class SimpleMBean [[../../../management/SimpleMBean.html]] {
            #m_beanInfo: MBeanInfo
            {abstract} +getAttributeNames(): String[]
            {abstract} +getMethodNames(): String[]
        }
    }

    center footer UMLDoclet 2.0.15, PlantUML 1.2021.13
@enduml

PlantUML version 1.2021.13(Mon Nov 01 11:38:45 UTC 2021)
(APACHE source distribution)
Java Runtime: OpenJDK Runtime Environment
JVM: OpenJDK 64-Bit Server VM
Default Encoding: UTF-8
Language: en
Country: US
--></g></svg>