<?xml version="1.0" encoding="UTF-8" standalone="no"?><svg xmlns="http://www.w3.org/2000/svg" xmlns:xlink="http://www.w3.org/1999/xlink" contentScriptType="application/ecmascript" contentStyleType="text/css" height="194px" preserveAspectRatio="none" style="width:239px;height:194px;background:#FFFFFF;" version="1.1" viewBox="0 0 239 194" width="239px" zoomAndPan="magnify"><defs><filter height="300%" id="fjl8fjbhdimq8" width="300%" x="-1" y="-1"><feGaussianBlur result="blurOut" stdDeviation="2.0"/><feColorMatrix in="blurOut" result="blurOut2" type="matrix" values="0 0 0 0 0 0 0 0 0 0 0 0 0 0 0 0 0 0 .4 0"/><feOffset dx="4.0" dy="4.0" in="blurOut2" result="blurOut3"/><feBlend in="SourceGraphic" in2="blurOut3" mode="normal"/></filter></defs><g><!--MD5=[3bddc2c9feeeb5d331b56d6de6921141]
class org.apache.wiki.workflow.NoSuchOutcomeException--><a href="NoSuchOutcomeException.html" target="_top" title="NoSuchOutcomeException.html" xlink:actuate="onRequest" xlink:href="NoSuchOutcomeException.html" xlink:show="new" xlink:title="NoSuchOutcomeException.html" xlink:type="simple"><rect codeLine="5" fill="#FEFECE" filter="url(#fjl8fjbhdimq8)" height="58.7422" id="org.apache.wiki.workflow.NoSuchOutcomeException" style="stroke:#A80036;stroke-width:1.5;" width="218" x="7" y="105"/><ellipse cx="22" cy="123.9688" fill="#ADD1B2" rx="11" ry="11" style="stroke:#A80036;stroke-width:1.0;"/><path d="M24.9688,129.6094 Q24.3906,129.9063 23.75,130.0469 Q23.1094,130.2031 22.4063,130.2031 Q19.9063,130.2031 18.5781,128.5625 Q17.2656,126.9063 17.2656,123.7813 Q17.2656,120.6563 18.5781,119 Q19.9063,117.3438 22.4063,117.3438 Q23.1094,117.3438 23.75,117.5 Q24.4063,117.6563 24.9688,117.9531 L24.9688,120.6719 Q24.3438,120.0938 23.75,119.8281 Q23.1563,119.5469 22.5313,119.5469 Q21.1875,119.5469 20.5,120.625 Q19.8125,121.6875 19.8125,123.7813 Q19.8125,125.875 20.5,126.9531 Q21.1875,128.0156 22.5313,128.0156 Q23.1563,128.0156 23.75,127.75 Q24.3438,127.4688 24.9688,126.8906 L24.9688,129.6094 Z " fill="#000000"/><text fill="#000000" font-family="sans-serif" font-size="14" lengthAdjust="spacing" textLength="186" x="36" y="122.9951">NoSuchOutcomeException</text><text fill="#000000" font-family="sans-serif" font-size="10" lengthAdjust="spacing" textLength="120" x="69" y="135.5791">org.apache.wiki.workflow</text><line style="stroke:#A80036;stroke-width:1.5;" x1="8" x2="224" y1="142.9375" y2="142.9375"/><ellipse cx="18" cy="153.9375" fill="#84BE84" rx="3" ry="3" style="stroke:#038048;stroke-width:1.0;"/><text fill="#000000" font-family="sans-serif" font-size="11" lengthAdjust="spacing" textLength="190" x="27" y="157.1479">NoSuchOutcomeException(String)</text></a><!--MD5=[51e0bd45a8d20f3becd765be19a9d68b]
class org.apache.wiki.api.exceptions.WikiException--><a href="../api/exceptions/WikiException.html" target="_top" title="../api/exceptions/WikiException.html" xlink:actuate="onRequest" xlink:href="../api/exceptions/WikiException.html" xlink:show="new" xlink:title="../api/exceptions/WikiException.html" xlink:type="simple"><rect codeLine="9" fill="#FEFECE" filter="url(#fjl8fjbhdimq8)" height="37.9375" id="org.apache.wiki.api.exceptions.WikiException" style="stroke:#A80036;stroke-width:1.5;" width="178" x="27" y="7"/><ellipse cx="42" cy="25.9688" fill="#ADD1B2" rx="11" ry="11" style="stroke:#A80036;stroke-width:1.0;"/><path d="M44.9688,31.6094 Q44.3906,31.9063 43.75,32.0469 Q43.1094,32.2031 42.4063,32.2031 Q39.9063,32.2031 38.5781,30.5625 Q37.2656,28.9063 37.2656,25.7813 Q37.2656,22.6563 38.5781,21 Q39.9063,19.3438 42.4063,19.3438 Q43.1094,19.3438 43.75,19.5 Q44.4063,19.6563 44.9688,19.9531 L44.9688,22.6719 Q44.3438,22.0938 43.75,21.8281 Q43.1563,21.5469 42.5313,21.5469 Q41.1875,21.5469 40.5,22.625 Q39.8125,23.6875 39.8125,25.7813 Q39.8125,27.875 40.5,28.9531 Q41.1875,30.0156 42.5313,30.0156 Q43.1563,30.0156 43.75,29.75 Q44.3438,29.4688 44.9688,28.8906 L44.9688,31.6094 Z " fill="#000000"/><text fill="#000000" font-family="sans-serif" font-size="14" lengthAdjust="spacing" textLength="95" x="81.5" y="24.9951">WikiException</text><text fill="#000000" font-family="sans-serif" font-size="10" lengthAdjust="spacing" textLength="146" x="56" y="37.5791">org.apache.wiki.api.exceptions</text></a><!--MD5=[f09b381e8e090eb8804a6832580db696]
reverse link org.apache.wiki.api.exceptions.WikiException to org.apache.wiki.workflow.NoSuchOutcomeException--><path codeLine="11" d="M116,65.22 C116,78.3 116,92.7 116,104.89 " fill="none" id="org.apache.wiki.api.exceptions.WikiException-backto-org.apache.wiki.workflow.NoSuchOutcomeException" style="stroke:#A80036;stroke-width:1.0;"/><polygon fill="none" points="109,65.07,116,45.07,123,65.07,109,65.07" style="stroke:#A80036;stroke-width:1.0;"/><text fill="#888888" font-family="sans-serif" font-size="10" lengthAdjust="spacing" textLength="192" x="17" y="186.0244">UMLDoclet 2.0.15, PlantUML 1.2021.13</text><!--MD5=[ff349cb41fc0b3ce2ae29bf8b5d0abb9]
@startuml
    set namespaceSeparator none
    hide empty fields
    hide empty methods

    class "<size:14>NoSuchOutcomeException\n<size:10>org.apache.wiki.workflow" as org.apache.wiki.workflow.NoSuchOutcomeException [[NoSuchOutcomeException.html]] {
        +NoSuchOutcomeException(String)
    }

    class "<size:14>WikiException\n<size:10>org.apache.wiki.api.exceptions" as org.apache.wiki.api.exceptions.WikiException [[../api/exceptions/WikiException.html]]

    org.apache.wiki.api.exceptions.WikiException <|- - org.apache.wiki.workflow.NoSuchOutcomeException

    center footer UMLDoclet 2.0.15, PlantUML 1.2021.13
@enduml

PlantUML version 1.2021.13(Mon Nov 01 11:38:45 UTC 2021)
(APACHE source distribution)
Java Runtime: OpenJDK Runtime Environment
JVM: OpenJDK 64-Bit Server VM
Default Encoding: UTF-8
Language: en
Country: US
--></g></svg>