<?xml version="1.0" encoding="UTF-8" standalone="no"?><svg xmlns="http://www.w3.org/2000/svg" xmlns:xlink="http://www.w3.org/1999/xlink" contentScriptType="application/ecmascript" contentStyleType="text/css" height="585px" preserveAspectRatio="none" style="width:1202px;height:585px;background:#FFFFFF;" version="1.1" viewBox="0 0 1202 585" width="1202px" zoomAndPan="magnify"><defs><filter height="300%" id="f1dyynp8l0nzqa" width="300%" x="-1" y="-1"><feGaussianBlur result="blurOut" stdDeviation="2.0"/><feColorMatrix in="blurOut" result="blurOut2" type="matrix" values="0 0 0 0 0 0 0 0 0 0 0 0 0 0 0 0 0 0 .4 0"/><feOffset dx="4.0" dy="4.0" in="blurOut2" result="blurOut3"/><feBlend in="SourceGraphic" in2="blurOut3" mode="normal"/></filter></defs><g><!--MD5=[ab4e46ae90e42f945278af21c606574a]
cluster org.apache.wiki.pages.haddock--><polygon fill="#FFFFFF" filter="url(#f1dyynp8l0nzqa)" points="16,204,272,204,279,226.2969,1185,226.2969,1185,562,16,562,16,204" style="stroke:#000000;stroke-width:1.5;"/><line style="stroke:#000000;stroke-width:1.5;" x1="16" x2="279" y1="226.2969" y2="226.2969"/><text fill="#000000" font-family="sans-serif" font-size="14" font-weight="bold" lengthAdjust="spacing" textLength="250" x="20" y="218.9951">org.apache.wiki.pages.haddock</text><!--MD5=[954f6ac704b42248268a3b144aae5ef0]
cluster org.apache.wiki.pages--><polygon fill="#FFFFFF" filter="url(#f1dyynp8l0nzqa)" points="486,6,670,6,677,28.2969,686,28.2969,686,179,486,179,486,6" style="stroke:#000000;stroke-width:1.5;"/><line style="stroke:#000000;stroke-width:1.5;" x1="486" x2="677" y1="28.2969" y2="28.2969"/><text fill="#000000" font-family="sans-serif" font-size="14" font-weight="bold" lengthAdjust="spacing" textLength="178" x="490" y="20.9951">org.apache.wiki.pages</text><!--MD5=[41e30840bbd613a8eda7650bb8abf4d5]
class org.apache.wiki.pages.haddock.EditWikiPage--><a href="EditWikiPage.html" target="_top" title="EditWikiPage.html" xlink:actuate="onRequest" xlink:href="EditWikiPage.html" xlink:show="new" xlink:title="EditWikiPage.html" xlink:type="simple"><rect codeLine="3" fill="#FEFECE" filter="url(#f1dyynp8l0nzqa)" height="99.2188" id="org.apache.wiki.pages.haddock.EditWikiPage" style="stroke:#A80036;stroke-width:1.5;" width="244" x="24" y="410"/><ellipse cx="101.75" cy="426" fill="#ADD1B2" rx="11" ry="11" style="stroke:#A80036;stroke-width:1.0;"/><path d="M104.7188,431.6406 Q104.1406,431.9375 103.5,432.0781 Q102.8594,432.2344 102.1563,432.2344 Q99.6563,432.2344 98.3281,430.5938 Q97.0156,428.9375 97.0156,425.8125 Q97.0156,422.6875 98.3281,421.0313 Q99.6563,419.375 102.1563,419.375 Q102.8594,419.375 103.5,419.5313 Q104.1563,419.6875 104.7188,419.9844 L104.7188,422.7031 Q104.0938,422.125 103.5,421.8594 Q102.9063,421.5781 102.2813,421.5781 Q100.9375,421.5781 100.25,422.6563 Q99.5625,423.7188 99.5625,425.8125 Q99.5625,427.9063 100.25,428.9844 Q100.9375,430.0469 102.2813,430.0469 Q102.9063,430.0469 103.5,429.7813 Q104.0938,429.5 104.7188,428.9219 L104.7188,431.6406 Z " fill="#000000"/><text fill="#000000" font-family="sans-serif" font-size="12" lengthAdjust="spacing" textLength="80" x="122.25" y="430.1543">EditWikiPage</text><line style="stroke:#A80036;stroke-width:1.5;" x1="25" x2="267" y1="442" y2="442"/><line style="stroke:#A80036;stroke-width:1.5;" x1="25" x2="267" y1="450" y2="450"/><ellipse cx="35" cy="461" fill="#84BE84" rx="3" ry="3" style="stroke:#038048;stroke-width:1.0;"/><text fill="#000000" font-family="sans-serif" font-size="11" lengthAdjust="spacing" text-decoration="underline" textLength="148" x="44" y="464.2104">open(String): EditWikiPage</text><ellipse cx="35" cy="473.8047" fill="#84BE84" rx="3" ry="3" style="stroke:#038048;stroke-width:1.0;"/><text fill="#000000" font-family="sans-serif" font-size="11" lengthAdjust="spacing" textLength="127" x="44" y="477.0151">cancel(): ViewWikiPage</text><ellipse cx="35" cy="486.6094" fill="#84BE84" rx="3" ry="3" style="stroke:#038048;stroke-width:1.0;"/><text fill="#000000" font-family="sans-serif" font-size="11" lengthAdjust="spacing" textLength="176" x="44" y="489.8198">saveText(String): ViewWikiPage</text><ellipse cx="35" cy="499.4141" fill="#84BE84" rx="3" ry="3" style="stroke:#038048;stroke-width:1.0;"/><text fill="#000000" font-family="sans-serif" font-size="11" lengthAdjust="spacing" textLength="218" x="44" y="502.6245">saveText(String, String): ViewWikiPage</text></a><!--MD5=[51fa92a3ff110d57e5424501b00811c5]
class org.apache.wiki.pages.haddock.HaddockPage--><a href="HaddockPage.html" target="_top" title="HaddockPage.html" xlink:actuate="onRequest" xlink:href="HaddockPage.html" xlink:show="new" xlink:title="HaddockPage.html" xlink:type="simple"><rect codeLine="10" fill="#FEFECE" filter="url(#f1dyynp8l0nzqa)" height="73.6094" id="org.apache.wiki.pages.haddock.HaddockPage" style="stroke:#A80036;stroke-width:1.5;" width="169" x="501.5" y="231"/><ellipse cx="539.45" cy="247" fill="#B4A7E5" rx="11" ry="11" style="stroke:#A80036;stroke-width:1.0;"/><path d="M535.3719,242.7656 L535.3719,240.6094 L542.7625,240.6094 L542.7625,242.7656 L540.2938,242.7656 L540.2938,250.8438 L542.7625,250.8438 L542.7625,253 L535.3719,253 L535.3719,250.8438 L537.8406,250.8438 L537.8406,242.7656 L535.3719,242.7656 Z " fill="#000000"/><text fill="#000000" font-family="sans-serif" font-size="12" font-style="italic" lengthAdjust="spacing" textLength="86" x="558.55" y="251.1543">HaddockPage</text><line style="stroke:#A80036;stroke-width:1.5;" x1="502.5" x2="669.5" y1="263" y2="263"/><line style="stroke:#A80036;stroke-width:1.5;" x1="502.5" x2="669.5" y1="271" y2="271"/><ellipse cx="512.5" cy="282" fill="#84BE84" rx="3" ry="3" style="stroke:#038048;stroke-width:1.0;"/><text fill="#000000" font-family="sans-serif" font-size="11" lengthAdjust="spacing" textLength="95" x="521.5" y="285.2104">wikiTitle(): String</text><ellipse cx="512.5" cy="294.8047" fill="#84BE84" rx="3" ry="3" style="stroke:#038048;stroke-width:1.0;"/><text fill="#000000" font-family="sans-serif" font-size="11" lengthAdjust="spacing" textLength="143" x="521.5" y="298.0151">wikiPageContent(): String</text></a><!--MD5=[c6257123337d91e7e698d8b5305329e8]
class org.apache.wiki.pages.haddock.LoginPage--><a href="LoginPage.html" target="_top" title="LoginPage.html" xlink:actuate="onRequest" xlink:href="LoginPage.html" xlink:show="new" xlink:title="LoginPage.html" xlink:type="simple"><rect codeLine="15" fill="#FEFECE" filter="url(#f1dyynp8l0nzqa)" height="73.6094" id="org.apache.wiki.pages.haddock.LoginPage" style="stroke:#A80036;stroke-width:1.5;" width="269" x="303.5" y="422.5"/><ellipse cx="401.25" cy="438.5" fill="#ADD1B2" rx="11" ry="11" style="stroke:#A80036;stroke-width:1.0;"/><path d="M404.2188,444.1406 Q403.6406,444.4375 403,444.5781 Q402.3594,444.7344 401.6563,444.7344 Q399.1563,444.7344 397.8281,443.0938 Q396.5156,441.4375 396.5156,438.3125 Q396.5156,435.1875 397.8281,433.5313 Q399.1563,431.875 401.6563,431.875 Q402.3594,431.875 403,432.0313 Q403.6563,432.1875 404.2188,432.4844 L404.2188,435.2031 Q403.5938,434.625 403,434.3594 Q402.4063,434.0781 401.7813,434.0781 Q400.4375,434.0781 399.75,435.1563 Q399.0625,436.2188 399.0625,438.3125 Q399.0625,440.4063 399.75,441.4844 Q400.4375,442.5469 401.7813,442.5469 Q402.4063,442.5469 403,442.2813 Q403.5938,442 404.2188,441.4219 L404.2188,444.1406 Z " fill="#000000"/><text fill="#000000" font-family="sans-serif" font-size="12" lengthAdjust="spacing" textLength="65" x="421.75" y="442.6543">LoginPage</text><line style="stroke:#A80036;stroke-width:1.5;" x1="304.5" x2="571.5" y1="454.5" y2="454.5"/><line style="stroke:#A80036;stroke-width:1.5;" x1="304.5" x2="571.5" y1="462.5" y2="462.5"/><ellipse cx="314.5" cy="473.5" fill="#84BE84" rx="3" ry="3" style="stroke:#038048;stroke-width:1.0;"/><text fill="#000000" font-family="sans-serif" font-size="11" lengthAdjust="spacing" textLength="167" x="323.5" y="476.7104">performLogin(): ViewWikiPage</text><ellipse cx="314.5" cy="486.3047" fill="#84BE84" rx="3" ry="3" style="stroke:#038048;stroke-width:1.0;"/><text fill="#000000" font-family="sans-serif" font-size="11" lengthAdjust="spacing" textLength="243" x="323.5" y="489.5151">performLogin(String, String): ViewWikiPage</text></a><!--MD5=[6918ca30fdf956c5b090e8366d1b7f58]
class org.apache.wiki.pages.haddock.ViewWikiPage--><a href="ViewWikiPage.html" target="_top" title="ViewWikiPage.html" xlink:actuate="onRequest" xlink:href="ViewWikiPage.html" xlink:show="new" xlink:title="ViewWikiPage.html" xlink:type="simple"><rect codeLine="20" fill="#FEFECE" filter="url(#f1dyynp8l0nzqa)" height="188.8516" id="org.apache.wiki.pages.haddock.ViewWikiPage" style="stroke:#A80036;stroke-width:1.5;" width="254" x="608" y="365"/><ellipse cx="688.75" cy="381" fill="#ADD1B2" rx="11" ry="11" style="stroke:#A80036;stroke-width:1.0;"/><path d="M691.7188,386.6406 Q691.1406,386.9375 690.5,387.0781 Q689.8594,387.2344 689.1563,387.2344 Q686.6563,387.2344 685.3281,385.5938 Q684.0156,383.9375 684.0156,380.8125 Q684.0156,377.6875 685.3281,376.0313 Q686.6563,374.375 689.1563,374.375 Q689.8594,374.375 690.5,374.5313 Q691.1563,374.6875 691.7188,374.9844 L691.7188,377.7031 Q691.0938,377.125 690.5,376.8594 Q689.9063,376.5781 689.2813,376.5781 Q687.9375,376.5781 687.25,377.6563 Q686.5625,378.7188 686.5625,380.8125 Q686.5625,382.9063 687.25,383.9844 Q687.9375,385.0469 689.2813,385.0469 Q689.9063,385.0469 690.5,384.7813 Q691.0938,384.5 691.7188,383.9219 L691.7188,386.6406 Z " fill="#000000"/><text fill="#000000" font-family="sans-serif" font-size="12" lengthAdjust="spacing" textLength="84" x="709.25" y="385.1543">ViewWikiPage</text><line style="stroke:#A80036;stroke-width:1.5;" x1="609" x2="861" y1="397" y2="397"/><line style="stroke:#A80036;stroke-width:1.5;" x1="609" x2="861" y1="405" y2="405"/><ellipse cx="619" cy="416" fill="#84BE84" rx="3" ry="3" style="stroke:#038048;stroke-width:1.0;"/><text fill="#000000" font-family="sans-serif" font-size="11" lengthAdjust="spacing" text-decoration="underline" textLength="153" x="628" y="419.2104">open(String): ViewWikiPage</text><ellipse cx="619" cy="428.8047" fill="#84BE84" rx="3" ry="3" style="stroke:#038048;stroke-width:1.0;"/><text fill="#000000" font-family="sans-serif" font-size="11" lengthAdjust="spacing" textLength="151" x="628" y="432.0151">authenticatedText(): String</text><ellipse cx="619" cy="441.6094" fill="#84BE84" rx="3" ry="3" style="stroke:#038048;stroke-width:1.0;"/><text fill="#000000" font-family="sans-serif" font-size="11" lengthAdjust="spacing" textLength="144" x="628" y="444.8198">clickOnLogin(): LoginPage</text><ellipse cx="619" cy="454.4141" fill="#84BE84" rx="3" ry="3" style="stroke:#038048;stroke-width:1.0;"/><text fill="#000000" font-family="sans-serif" font-size="11" lengthAdjust="spacing" textLength="228" x="628" y="457.6245">clickOnShowReaderView(): ViewWikiPage</text><ellipse cx="619" cy="467.2188" fill="#84BE84" rx="3" ry="3" style="stroke:#038048;stroke-width:1.0;"/><text fill="#000000" font-family="sans-serif" font-size="11" lengthAdjust="spacing" textLength="179" x="628" y="470.4292">hoverLoginArea(): ViewWikiPage</text><ellipse cx="619" cy="480.0234" fill="#84BE84" rx="3" ry="3" style="stroke:#038048;stroke-width:1.0;"/><text fill="#000000" font-family="sans-serif" font-size="11" lengthAdjust="spacing" textLength="177" x="628" y="483.2339">hoverMoreArea(): ViewWikiPage</text><ellipse cx="619" cy="492.8281" fill="#84BE84" rx="3" ry="3" style="stroke:#038048;stroke-width:1.0;"/><text fill="#000000" font-family="sans-serif" font-size="11" lengthAdjust="spacing" textLength="135" x="628" y="496.0386">editPage(): EditWikiPage</text><ellipse cx="619" cy="505.6328" fill="#84BE84" rx="3" ry="3" style="stroke:#038048;stroke-width:1.0;"/><text fill="#000000" font-family="sans-serif" font-size="11" lengthAdjust="spacing" textLength="217" x="628" y="508.8433">searchFor(String): SearchResultsPage</text><ellipse cx="619" cy="518.4375" fill="#84BE84" rx="3" ry="3" style="stroke:#038048;stroke-width:1.0;"/><text fill="#000000" font-family="sans-serif" font-size="11" lengthAdjust="spacing" textLength="169" x="628" y="521.6479">clickOnLogout(): ViewWikiPage</text><ellipse cx="619" cy="531.2422" fill="#84BE84" rx="3" ry="3" style="stroke:#038048;stroke-width:1.0;"/><text fill="#000000" font-family="sans-serif" font-size="11" lengthAdjust="spacing" textLength="187" x="628" y="534.4526">navigateTo(String): ViewWikiPage</text><ellipse cx="619" cy="544.0469" fill="#84BE84" rx="3" ry="3" style="stroke:#038048;stroke-width:1.0;"/><text fill="#000000" font-family="sans-serif" font-size="11" lengthAdjust="spacing" textLength="154" x="628" y="547.2573">sidebar(): SelenideElement</text></a><!--MD5=[794d9b721f214d610582c64d7ce310de]
class org.apache.wiki.pages.haddock.SearchResultsPage--><a href="SearchResultsPage.html" target="_top" title="SearchResultsPage.html" xlink:actuate="onRequest" xlink:href="SearchResultsPage.html" xlink:show="new" xlink:title="SearchResultsPage.html" xlink:type="simple"><rect codeLine="34" fill="#FEFECE" filter="url(#f1dyynp8l0nzqa)" height="99.2188" id="org.apache.wiki.pages.haddock.SearchResultsPage" style="stroke:#A80036;stroke-width:1.5;" width="279" x="897.5" y="410"/><ellipse cx="971.75" cy="426" fill="#ADD1B2" rx="11" ry="11" style="stroke:#A80036;stroke-width:1.0;"/><path d="M974.7188,431.6406 Q974.1406,431.9375 973.5,432.0781 Q972.8594,432.2344 972.1563,432.2344 Q969.6563,432.2344 968.3281,430.5938 Q967.0156,428.9375 967.0156,425.8125 Q967.0156,422.6875 968.3281,421.0313 Q969.6563,419.375 972.1563,419.375 Q972.8594,419.375 973.5,419.5313 Q974.1563,419.6875 974.7188,419.9844 L974.7188,422.7031 Q974.0938,422.125 973.5,421.8594 Q972.9063,421.5781 972.2813,421.5781 Q970.9375,421.5781 970.25,422.6563 Q969.5625,423.7188 969.5625,425.8125 Q969.5625,427.9063 970.25,428.9844 Q970.9375,430.0469 972.2813,430.0469 Q972.9063,430.0469 973.5,429.7813 Q974.0938,429.5 974.7188,428.9219 L974.7188,431.6406 Z " fill="#000000"/><text fill="#000000" font-family="sans-serif" font-size="12" lengthAdjust="spacing" textLength="122" x="992.25" y="430.1543">SearchResultsPage</text><line style="stroke:#A80036;stroke-width:1.5;" x1="898.5" x2="1175.5" y1="442" y2="442"/><line style="stroke:#A80036;stroke-width:1.5;" x1="898.5" x2="1175.5" y1="450" y2="450"/><ellipse cx="908.5" cy="461" fill="#84BE84" rx="3" ry="3" style="stroke:#038048;stroke-width:1.0;"/><text fill="#000000" font-family="sans-serif" font-size="11" lengthAdjust="spacing" text-decoration="underline" textLength="188" x="917.5" y="464.2104">open(String): SearchResultsPage</text><ellipse cx="908.5" cy="473.8047" fill="#84BE84" rx="3" ry="3" style="stroke:#038048;stroke-width:1.0;"/><text fill="#000000" font-family="sans-serif" font-size="11" lengthAdjust="spacing" textLength="157" x="917.5" y="477.0151">pagesFound(): List&lt;String&gt;</text><ellipse cx="908.5" cy="486.6094" fill="#84BE84" rx="3" ry="3" style="stroke:#038048;stroke-width:1.0;"/><text fill="#000000" font-family="sans-serif" font-size="11" lengthAdjust="spacing" textLength="253" x="917.5" y="489.8198">shouldContain(String...): SearchResultsPage</text><ellipse cx="908.5" cy="499.4141" fill="#84BE84" rx="3" ry="3" style="stroke:#038048;stroke-width:1.0;"/><text fill="#000000" font-family="sans-serif" font-size="11" lengthAdjust="spacing" textLength="187" x="917.5" y="502.6245">navigateTo(String): ViewWikiPage</text></a><!--MD5=[e6b9d11e12a2386dcaf6b730b8ea57a3]
class org.apache.wiki.pages.Page--><a href="../Page.html" target="_top" title="../Page.html" xlink:actuate="onRequest" xlink:href="../Page.html" xlink:show="new" xlink:title="../Page.html" xlink:type="simple"><rect codeLine="49" fill="#FEFECE" filter="url(#f1dyynp8l0nzqa)" height="137.6328" id="org.apache.wiki.pages.Page" style="stroke:#A80036;stroke-width:1.5;" width="183" x="494.5" y="33"/><ellipse cx="566.25" cy="49" fill="#B4A7E5" rx="11" ry="11" style="stroke:#A80036;stroke-width:1.0;"/><path d="M562.1719,44.7656 L562.1719,42.6094 L569.5625,42.6094 L569.5625,44.7656 L567.0938,44.7656 L567.0938,52.8438 L569.5625,52.8438 L569.5625,55 L562.1719,55 L562.1719,52.8438 L564.6406,52.8438 L564.6406,44.7656 L562.1719,44.7656 Z " fill="#000000"/><text fill="#000000" font-family="sans-serif" font-size="12" font-style="italic" lengthAdjust="spacing" textLength="31" x="586.75" y="53.1543">Page</text><line style="stroke:#A80036;stroke-width:1.5;" x1="495.5" x2="676.5" y1="65" y2="65"/><line style="stroke:#A80036;stroke-width:1.5;" x1="495.5" x2="676.5" y1="73" y2="73"/><ellipse cx="505.5" cy="84" fill="#84BE84" rx="3" ry="3" style="stroke:#038048;stroke-width:1.0;"/><text fill="#000000" font-family="sans-serif" font-size="11" lengthAdjust="spacing" text-decoration="underline" textLength="157" x="514.5" y="87.2104">withUrl(String): PageBuilder</text><ellipse cx="505.5" cy="96.8047" fill="#84BE84" rx="3" ry="3" style="stroke:#038048;stroke-width:1.0;"/><text fill="#000000" font-family="sans-serif" font-size="11" lengthAdjust="spacing" text-decoration="underline" textLength="94" x="514.5" y="100.0151">baseUrl(): String</text><ellipse cx="505.5" cy="109.6094" fill="#84BE84" rx="3" ry="3" style="stroke:#038048;stroke-width:1.0;"/><text fill="#000000" font-family="sans-serif" font-size="11" lengthAdjust="spacing" text-decoration="underline" textLength="123" x="514.5" y="112.8198">download(String): File</text><ellipse cx="505.5" cy="122.4141" fill="#84BE84" rx="3" ry="3" style="stroke:#038048;stroke-width:1.0;"/><text fill="#000000" font-family="sans-serif" font-size="11" lengthAdjust="spacing" textLength="71" x="514.5" y="125.6245">title(): String</text><ellipse cx="505.5" cy="135.2188" fill="#84BE84" rx="3" ry="3" style="stroke:#038048;stroke-width:1.0;"/><text fill="#000000" font-family="sans-serif" font-size="11" lengthAdjust="spacing" textLength="65" x="514.5" y="138.4292">url(): String</text><ellipse cx="505.5" cy="148.0234" fill="#84BE84" rx="3" ry="3" style="stroke:#038048;stroke-width:1.0;"/><text fill="#000000" font-family="sans-serif" font-size="11" font-style="italic" lengthAdjust="spacing" textLength="94" x="514.5" y="151.2339">wikiTitle(): String</text><ellipse cx="505.5" cy="160.8281" fill="#84BE84" rx="3" ry="3" style="stroke:#038048;stroke-width:1.0;"/><text fill="#000000" font-family="sans-serif" font-size="11" font-style="italic" lengthAdjust="spacing" textLength="142" x="514.5" y="164.0386">wikiPageContent(): String</text></a><!--MD5=[3cfe57979b4f3097f41fca5880da929f]
reverse link org.apache.wiki.pages.haddock.HaddockPage to org.apache.wiki.pages.haddock.EditWikiPage--><path codeLine="41" d="M482.0312,293.8297 C422.9705,310.4005 348.5621,334.5289 286,365 C260.4272,377.4553 234.134,394.0392 211.3378,409.8348 " fill="none" id="org.apache.wiki.pages.haddock.HaddockPage-backto-org.apache.wiki.pages.haddock.EditWikiPage" style="stroke:#A80036;stroke-width:1.0;stroke-dasharray:7.0,7.0;"/><polygon fill="none" points="480.2931,287.0479,501.4328,288.5015,484.0006,300.5481,480.2931,287.0479" style="stroke:#A80036;stroke-width:1.0;"/><!--MD5=[eadd6c3753b07f47c2f03fa9acd64816]
reverse link org.apache.wiki.pages.Page to org.apache.wiki.pages.haddock.HaddockPage--><path codeLine="42" d="M586,191.7347 C586,205.5894 586,219.1922 586,230.9852 " fill="none" id="org.apache.wiki.pages.Page-backto-org.apache.wiki.pages.haddock.HaddockPage" style="stroke:#A80036;stroke-width:1.0;"/><polygon fill="none" points="579.0001,191.4371,586,171.4371,593.0001,191.4371,579.0001,191.4371" style="stroke:#A80036;stroke-width:1.0;"/><!--MD5=[69fa6963d335ab919d5e415dcd915065]
reverse link org.apache.wiki.pages.haddock.HaddockPage to org.apache.wiki.pages.haddock.LoginPage--><path codeLine="43" d="M544.7801,321.3352 C519.9714,353.4357 489.0022,393.5073 466.8144,422.2165 " fill="none" id="org.apache.wiki.pages.haddock.HaddockPage-backto-org.apache.wiki.pages.haddock.LoginPage" style="stroke:#A80036;stroke-width:1.0;stroke-dasharray:7.0,7.0;"/><polygon fill="none" points="539.3439,316.922,557.1128,305.3777,550.4213,325.4831,539.3439,316.922" style="stroke:#A80036;stroke-width:1.0;"/><!--MD5=[86d7adb97df1cbde6ac9109c3333d74c]
reverse link org.apache.wiki.pages.haddock.HaddockPage to org.apache.wiki.pages.haddock.ViewWikiPage--><path codeLine="44" d="M627.667,321.5519 C638.1231,334.9904 649.6577,349.8151 661.171,364.6124 " fill="none" id="org.apache.wiki.pages.haddock.HaddockPage-backto-org.apache.wiki.pages.haddock.ViewWikiPage" style="stroke:#A80036;stroke-width:1.0;stroke-dasharray:7.0,7.0;"/><polygon fill="none" points="621.8394,325.4612,615.0824,305.3777,632.8888,316.864,621.8394,325.4612" style="stroke:#A80036;stroke-width:1.0;"/><!--MD5=[49fc634f611741c6cc98691ff604cb84]
reverse link org.apache.wiki.pages.haddock.HaddockPage to org.apache.wiki.pages.haddock.SearchResultsPage--><path codeLine="45" d="M689.8096,296.0751 C747.0874,313.0857 818.7997,336.9134 880,365 C907.7575,377.7388 936.7751,394.2125 962.2042,409.8286 " fill="none" id="org.apache.wiki.pages.haddock.HaddockPage-backto-org.apache.wiki.pages.haddock.SearchResultsPage" style="stroke:#A80036;stroke-width:1.0;stroke-dasharray:7.0,7.0;"/><polygon fill="none" points="687.819,302.7863,670.584,290.4592,691.7445,289.3478,687.819,302.7863" style="stroke:#A80036;stroke-width:1.0;"/><text fill="#888888" font-family="sans-serif" font-size="10" lengthAdjust="spacing" textLength="192" x="498.5" y="577.2822">UMLDoclet 2.0.15, PlantUML 1.2021.13</text><!--MD5=[bed9e897e7bc2ed04683d46e99953b92]
@startuml
    namespace org.apache.wiki.pages.haddock {

        class EditWikiPage [[EditWikiPage.html]] {
            {static} +open(String): EditWikiPage
            +cancel(): ViewWikiPage
            +saveText(String): ViewWikiPage
            +saveText(String, String): ViewWikiPage
        }

        interface HaddockPage [[HaddockPage.html]] {
            +wikiTitle(): String
            +wikiPageContent(): String
        }

        class LoginPage [[LoginPage.html]] {
            +performLogin(): ViewWikiPage
            +performLogin(String, String): ViewWikiPage
        }

        class ViewWikiPage [[ViewWikiPage.html]] {
            {static} +open(String): ViewWikiPage
            +authenticatedText(): String
            +clickOnLogin(): LoginPage
            +clickOnShowReaderView(): ViewWikiPage
            +hoverLoginArea(): ViewWikiPage
            +hoverMoreArea(): ViewWikiPage
            +editPage(): EditWikiPage
            +searchFor(String): SearchResultsPage
            +clickOnLogout(): ViewWikiPage
            +navigateTo(String): ViewWikiPage
            +sidebar(): SelenideElement
        }

        class SearchResultsPage [[SearchResultsPage.html]] {
            {static} +open(String): SearchResultsPage
            +pagesFound(): List<String>
            +shouldContain(String...): SearchResultsPage
            +navigateTo(String): ViewWikiPage
        }

        HaddockPage <|.. EditWikiPage
        org.apache.wiki.pages.Page <|- - HaddockPage
        HaddockPage <|.. LoginPage
        HaddockPage <|.. ViewWikiPage
        HaddockPage <|.. SearchResultsPage
    }

    namespace org.apache.wiki.pages {
        interface Page [[../Page.html]] {
            {static} +withUrl(String): PageBuilder
            {static} +baseUrl(): String
            {static} +download(String): File
            +title(): String
            +url(): String
            {abstract} +wikiTitle(): String
            {abstract} +wikiPageContent(): String
        }
    }

    center footer UMLDoclet 2.0.15, PlantUML 1.2021.13
@enduml

PlantUML version 1.2021.13(Mon Nov 01 11:38:45 UTC 2021)
(APACHE source distribution)
Java Runtime: Java(TM) SE Runtime Environment
JVM: Java HotSpot(TM) 64-Bit Server VM
Default Encoding: ISO-8859-1
Language: en
Country: US
--></g></svg>