<?xml version="1.0" encoding="UTF-8" standalone="no"?><svg xmlns="http://www.w3.org/2000/svg" xmlns:xlink="http://www.w3.org/1999/xlink" contentScriptType="application/ecmascript" contentStyleType="text/css" height="88px" preserveAspectRatio="none" style="width:198px;height:88px;" version="1.1" viewBox="0 0 198 88" width="198px" zoomAndPan="magnify"><defs><filter height="300%" id="fzdrjq2mfk4bz" width="300%" x="-1" y="-1"><feGaussianBlur result="blurOut" stdDeviation="2.0"/><feColorMatrix in="blurOut" result="blurOut2" type="matrix" values="0 0 0 0 0 0 0 0 0 0 0 0 0 0 0 0 0 0 .4 0"/><feOffset dx="4.0" dy="4.0" in="blurOut2" result="blurOut3"/><feBlend in="SourceGraphic" in2="blurOut3" mode="normal"/></filter></defs><g><!--class LoginIT--><a href="LoginIT.html" target="_top" xlink:actuate="onRequest" xlink:show="new" xlink:title="LoginIT.html" xlink:type="simple"><rect fill="#FEFECE" filter="url(#fzdrjq2mfk4bz)" height="48" id="LoginIT" style="stroke: #A80036; stroke-width: 1.5;" width="75" x="49.5" y="8"/><ellipse cx="64.5" cy="24" fill="#ADD1B2" rx="11" ry="11" style="stroke: #A80036; stroke-width: 1.0;"/><path d="M67.4688,29.6406 Q66.8906,29.9375 66.25,30.0859 Q65.6094,30.2344 64.9063,30.2344 Q62.4063,30.2344 61.0859,28.5859 Q59.7656,26.9375 59.7656,23.8125 Q59.7656,20.6875 61.0859,19.0313 Q62.4063,17.375 64.9063,17.375 Q65.6094,17.375 66.2578,17.5313 Q66.9063,17.6875 67.4688,17.9844 L67.4688,20.7031 Q66.8438,20.125 66.25,19.8516 Q65.6563,19.5781 65.0313,19.5781 Q63.6875,19.5781 63,20.6484 Q62.3125,21.7188 62.3125,23.8125 Q62.3125,25.9063 63,26.9766 Q63.6875,28.0469 65.0313,28.0469 Q65.6563,28.0469 66.25,27.7734 Q66.8438,27.5 67.4688,26.9219 L67.4688,29.6406 Z "/><text fill="#000000" font-family="sans-serif" font-size="12" lengthAdjust="spacingAndGlyphs" textLength="43" x="78.5" y="28.1543">LoginIT</text><line style="stroke: #A80036; stroke-width: 1.5;" x1="50.5" x2="123.5" y1="40" y2="40"/><line style="stroke: #A80036; stroke-width: 1.5;" x1="50.5" x2="123.5" y1="48" y2="48"/></a><text fill="#888888" font-family="sans-serif" font-size="10" lengthAdjust="spacingAndGlyphs" textLength="186" x="0" y="75.2822">UMLDoclet 1.1.4, PlantUML 1.2019.05</text><!--
@startuml

    class LoginIT [[LoginIT.html]] {
    }


    center footer UMLDoclet 1.1.4, PlantUML 1.2019.05
@enduml

PlantUML version 1.2019.05(Sat Apr 20 16:45:36 UTC 2019)
(APACHE source distribution)
Java Runtime: Java(TM) SE Runtime Environment
JVM: Java HotSpot(TM) 64-Bit Server VM
Java Version: 1.8.0_191-b12
Operating System: Linux
OS Version: 4.15.0-66-generic
Default Encoding: ISO-8859-1
Language: en
Country: US
--></g></svg>