<?xml version="1.0" encoding="UTF-8" standalone="no"?><svg xmlns="http://www.w3.org/2000/svg" xmlns:xlink="http://www.w3.org/1999/xlink" contentScriptType="application/ecmascript" contentStyleType="text/css" height="322px" preserveAspectRatio="none" style="width:1485px;height:322px;background:#FFFFFF;" version="1.1" viewBox="0 0 1485 322" width="1485px" zoomAndPan="magnify"><defs><filter height="300%" id="f19s59me65cuhd" width="300%" x="-1" y="-1"><feGaussianBlur result="blurOut" stdDeviation="2.0"/><feColorMatrix in="blurOut" result="blurOut2" type="matrix" values="0 0 0 0 0 0 0 0 0 0 0 0 0 0 0 0 0 0 .4 0"/><feOffset dx="4.0" dy="4.0" in="blurOut2" result="blurOut3"/><feBlend in="SourceGraphic" in2="blurOut3" mode="normal"/></filter></defs><g><!--MD5=[99bb6b03b9edc14496f1c9354e61e158]
cluster org.apache.wiki.spi--><polygon fill="#FFFFFF" filter="url(#f19s59me65cuhd)" points="16,165,175,165,182,187.2969,1468,187.2969,1468,299,16,299,16,165" style="stroke:#000000;stroke-width:1.5;"/><line style="stroke:#000000;stroke-width:1.5;" x1="16" x2="182" y1="187.2969" y2="187.2969"/><text fill="#000000" font-family="sans-serif" font-size="14" font-weight="bold" lengthAdjust="spacing" textLength="153" x="20" y="179.9951">org.apache.wiki.spi</text><!--MD5=[77af465126129a8e6058c3260ac3e597]
cluster org.apache.wiki.api.spi--><polygon fill="#FFFFFF" filter="url(#f19s59me65cuhd)" points="41,6,228,6,235,28.2969,1467,28.2969,1467,140,41,140,41,6" style="stroke:#000000;stroke-width:1.5;"/><line style="stroke:#000000;stroke-width:1.5;" x1="41" x2="235" y1="28.2969" y2="28.2969"/><text fill="#000000" font-family="sans-serif" font-size="14" font-weight="bold" lengthAdjust="spacing" textLength="181" x="45" y="20.9951">org.apache.wiki.api.spi</text><!--MD5=[f9dcc5841462d4e26bb663dfcd19f843]
class org.apache.wiki.spi.EngineSPIDefaultImpl--><a href="EngineSPIDefaultImpl.html" target="_top" title="EngineSPIDefaultImpl.html" xlink:actuate="onRequest" xlink:href="EngineSPIDefaultImpl.html" xlink:show="new" xlink:title="EngineSPIDefaultImpl.html" xlink:type="simple"><rect codeLine="3" fill="#FEFECE" filter="url(#f19s59me65cuhd)" height="60.8047" id="org.apache.wiki.spi.EngineSPIDefaultImpl" style="stroke:#A80036;stroke-width:1.5;" width="251" x="1208.5" y="211"/><ellipse cx="1263.75" cy="227" fill="#ADD1B2" rx="11" ry="11" style="stroke:#A80036;stroke-width:1.0;"/><path d="M1266.7188,232.6406 Q1266.1406,232.9375 1265.5,233.0781 Q1264.8594,233.2344 1264.1563,233.2344 Q1261.6563,233.2344 1260.3281,231.5938 Q1259.0156,229.9375 1259.0156,226.8125 Q1259.0156,223.6875 1260.3281,222.0313 Q1261.6563,220.375 1264.1563,220.375 Q1264.8594,220.375 1265.5,220.5313 Q1266.1563,220.6875 1266.7188,220.9844 L1266.7188,223.7031 Q1266.0938,223.125 1265.5,222.8594 Q1264.9063,222.5781 1264.2813,222.5781 Q1262.9375,222.5781 1262.25,223.6563 Q1261.5625,224.7188 1261.5625,226.8125 Q1261.5625,228.9063 1262.25,229.9844 Q1262.9375,231.0469 1264.2813,231.0469 Q1264.9063,231.0469 1265.5,230.7813 Q1266.0938,230.5 1266.7188,229.9219 L1266.7188,232.6406 Z " fill="#000000"/><text fill="#000000" font-family="sans-serif" font-size="12" lengthAdjust="spacing" textLength="132" x="1284.25" y="231.1543">EngineSPIDefaultImpl</text><line style="stroke:#A80036;stroke-width:1.5;" x1="1209.5" x2="1458.5" y1="243" y2="243"/><line style="stroke:#A80036;stroke-width:1.5;" x1="1209.5" x2="1458.5" y1="251" y2="251"/><ellipse cx="1219.5" cy="262" fill="#84BE84" rx="3" ry="3" style="stroke:#038048;stroke-width:1.0;"/><text fill="#000000" font-family="sans-serif" font-size="11" lengthAdjust="spacing" textLength="225" x="1228.5" y="265.2104">find(ServletContext, Properties): Engine</text></a><!--MD5=[6861a3ba990e090d402f6fb44333b95e]
class org.apache.wiki.spi.ContentsSPIDefaultImpl--><a href="ContentsSPIDefaultImpl.html" target="_top" title="ContentsSPIDefaultImpl.html" xlink:actuate="onRequest" xlink:href="ContentsSPIDefaultImpl.html" xlink:show="new" xlink:title="ContentsSPIDefaultImpl.html" xlink:type="simple"><rect codeLine="7" fill="#FEFECE" filter="url(#f19s59me65cuhd)" height="73.6094" id="org.apache.wiki.spi.ContentsSPIDefaultImpl" style="stroke:#A80036;stroke-width:1.5;" width="292" x="881" y="204.5"/><ellipse cx="949.75" cy="220.5" fill="#ADD1B2" rx="11" ry="11" style="stroke:#A80036;stroke-width:1.0;"/><path d="M952.7188,226.1406 Q952.1406,226.4375 951.5,226.5781 Q950.8594,226.7344 950.1563,226.7344 Q947.6563,226.7344 946.3281,225.0938 Q945.0156,223.4375 945.0156,220.3125 Q945.0156,217.1875 946.3281,215.5313 Q947.6563,213.875 950.1563,213.875 Q950.8594,213.875 951.5,214.0313 Q952.1563,214.1875 952.7188,214.4844 L952.7188,217.2031 Q952.0938,216.625 951.5,216.3594 Q950.9063,216.0781 950.2813,216.0781 Q948.9375,216.0781 948.25,217.1563 Q947.5625,218.2188 947.5625,220.3125 Q947.5625,222.4063 948.25,223.4844 Q948.9375,224.5469 950.2813,224.5469 Q950.9063,224.5469 951.5,224.2813 Q952.0938,224 952.7188,223.4219 L952.7188,226.1406 Z " fill="#000000"/><text fill="#000000" font-family="sans-serif" font-size="12" lengthAdjust="spacing" textLength="146" x="970.25" y="224.6543">ContentsSPIDefaultImpl</text><line style="stroke:#A80036;stroke-width:1.5;" x1="882" x2="1172" y1="236.5" y2="236.5"/><line style="stroke:#A80036;stroke-width:1.5;" x1="882" x2="1172" y1="244.5" y2="244.5"/><ellipse cx="892" cy="255.5" fill="#84BE84" rx="3" ry="3" style="stroke:#038048;stroke-width:1.0;"/><text fill="#000000" font-family="sans-serif" font-size="11" lengthAdjust="spacing" textLength="266" x="901" y="258.7104">attachment(Engine, String, String): Attachment</text><ellipse cx="892" cy="268.3047" fill="#84BE84" rx="3" ry="3" style="stroke:#038048;stroke-width:1.0;"/><text fill="#000000" font-family="sans-serif" font-size="11" lengthAdjust="spacing" textLength="152" x="901" y="271.5151">page(Engine, String): Page</text></a><!--MD5=[eb966b2a1cdf5ea93a7ce4f7b42b1565]
class org.apache.wiki.spi.ContextSPIDefaultImpl--><a href="ContextSPIDefaultImpl.html" target="_top" title="ContextSPIDefaultImpl.html" xlink:actuate="onRequest" xlink:href="ContextSPIDefaultImpl.html" xlink:show="new" xlink:title="ContextSPIDefaultImpl.html" xlink:type="simple"><rect codeLine="12" fill="#FEFECE" filter="url(#f19s59me65cuhd)" height="99.2188" id="org.apache.wiki.spi.ContextSPIDefaultImpl" style="stroke:#A80036;stroke-width:1.5;" width="342" x="504" y="192"/><ellipse cx="602.25" cy="208" fill="#ADD1B2" rx="11" ry="11" style="stroke:#A80036;stroke-width:1.0;"/><path d="M605.2188,213.6406 Q604.6406,213.9375 604,214.0781 Q603.3594,214.2344 602.6563,214.2344 Q600.1563,214.2344 598.8281,212.5938 Q597.5156,210.9375 597.5156,207.8125 Q597.5156,204.6875 598.8281,203.0313 Q600.1563,201.375 602.6563,201.375 Q603.3594,201.375 604,201.5313 Q604.6563,201.6875 605.2188,201.9844 L605.2188,204.7031 Q604.5938,204.125 604,203.8594 Q603.4063,203.5781 602.7813,203.5781 Q601.4375,203.5781 600.75,204.6563 Q600.0625,205.7188 600.0625,207.8125 Q600.0625,209.9063 600.75,210.9844 Q601.4375,212.0469 602.7813,212.0469 Q603.4063,212.0469 604,211.7813 Q604.5938,211.5 605.2188,210.9219 L605.2188,213.6406 Z " fill="#000000"/><text fill="#000000" font-family="sans-serif" font-size="12" lengthAdjust="spacing" textLength="137" x="622.75" y="212.1543">ContextSPIDefaultImpl</text><line style="stroke:#A80036;stroke-width:1.5;" x1="505" x2="845" y1="224" y2="224"/><line style="stroke:#A80036;stroke-width:1.5;" x1="505" x2="845" y1="232" y2="232"/><ellipse cx="515" cy="243" fill="#84BE84" rx="3" ry="3" style="stroke:#038048;stroke-width:1.0;"/><text fill="#000000" font-family="sans-serif" font-size="11" lengthAdjust="spacing" textLength="169" x="524" y="246.2104">create(Engine, Page): Context</text><ellipse cx="515" cy="255.8047" fill="#84BE84" rx="3" ry="3" style="stroke:#038048;stroke-width:1.0;"/><text fill="#000000" font-family="sans-serif" font-size="11" lengthAdjust="spacing" textLength="316" x="524" y="259.0151">create(Engine, HttpServletRequest, Command): Context</text><ellipse cx="515" cy="268.6094" fill="#84BE84" rx="3" ry="3" style="stroke:#038048;stroke-width:1.0;"/><text fill="#000000" font-family="sans-serif" font-size="11" lengthAdjust="spacing" textLength="286" x="524" y="271.8198">create(Engine, HttpServletRequest, Page): Context</text><ellipse cx="515" cy="281.4141" fill="#84BE84" rx="3" ry="3" style="stroke:#038048;stroke-width:1.0;"/><text fill="#000000" font-family="sans-serif" font-size="11" lengthAdjust="spacing" textLength="292" x="524" y="284.6245">create(Engine, HttpServletRequest, String): Context</text></a><!--MD5=[2bc55fd8165625d9167c85c4dc28a7d0]
class org.apache.wiki.spi.SessionSPIDefaultImpl--><a href="SessionSPIDefaultImpl.html" target="_top" title="SessionSPIDefaultImpl.html" xlink:actuate="onRequest" xlink:href="SessionSPIDefaultImpl.html" xlink:show="new" xlink:title="SessionSPIDefaultImpl.html" xlink:type="simple"><rect codeLine="19" fill="#FEFECE" filter="url(#f19s59me65cuhd)" height="86.4141" id="org.apache.wiki.spi.SessionSPIDefaultImpl" style="stroke:#A80036;stroke-width:1.5;" width="264" x="205" y="198.5"/><ellipse cx="263.75" cy="214.5" fill="#ADD1B2" rx="11" ry="11" style="stroke:#A80036;stroke-width:1.0;"/><path d="M266.7188,220.1406 Q266.1406,220.4375 265.5,220.5781 Q264.8594,220.7344 264.1563,220.7344 Q261.6563,220.7344 260.3281,219.0938 Q259.0156,217.4375 259.0156,214.3125 Q259.0156,211.1875 260.3281,209.5313 Q261.6563,207.875 264.1563,207.875 Q264.8594,207.875 265.5,208.0313 Q266.1563,208.1875 266.7188,208.4844 L266.7188,211.2031 Q266.0938,210.625 265.5,210.3594 Q264.9063,210.0781 264.2813,210.0781 Q262.9375,210.0781 262.25,211.1563 Q261.5625,212.2188 261.5625,214.3125 Q261.5625,216.4063 262.25,217.4844 Q262.9375,218.5469 264.2813,218.5469 Q264.9063,218.5469 265.5,218.2813 Q266.0938,218 266.7188,217.4219 L266.7188,220.1406 Z " fill="#000000"/><text fill="#000000" font-family="sans-serif" font-size="12" lengthAdjust="spacing" textLength="138" x="284.25" y="218.6543">SessionSPIDefaultImpl</text><line style="stroke:#A80036;stroke-width:1.5;" x1="206" x2="468" y1="230.5" y2="230.5"/><line style="stroke:#A80036;stroke-width:1.5;" x1="206" x2="468" y1="238.5" y2="238.5"/><ellipse cx="216" cy="249.5" fill="#84BE84" rx="3" ry="3" style="stroke:#038048;stroke-width:1.0;"/><text fill="#000000" font-family="sans-serif" font-size="11" lengthAdjust="spacing" textLength="237" x="225" y="252.7104">remove(Engine, HttpServletRequest): void</text><ellipse cx="216" cy="262.3047" fill="#84BE84" rx="3" ry="3" style="stroke:#038048;stroke-width:1.0;"/><text fill="#000000" font-family="sans-serif" font-size="11" lengthAdjust="spacing" textLength="238" x="225" y="265.5151">find(Engine, HttpServletRequest): Session</text><ellipse cx="216" cy="275.1094" fill="#84BE84" rx="3" ry="3" style="stroke:#038048;stroke-width:1.0;"/><text fill="#000000" font-family="sans-serif" font-size="11" lengthAdjust="spacing" textLength="132" x="225" y="278.3198">guest(Engine): Session</text></a><!--MD5=[d0d26a0ba7cf9360da845a8dc69b0583]
class org.apache.wiki.spi.AclsSPIDefaultImpl--><a href="AclsSPIDefaultImpl.html" target="_top" title="AclsSPIDefaultImpl.html" xlink:actuate="onRequest" xlink:href="AclsSPIDefaultImpl.html" xlink:show="new" xlink:title="AclsSPIDefaultImpl.html" xlink:type="simple"><rect codeLine="25" fill="#FEFECE" filter="url(#f19s59me65cuhd)" height="73.6094" id="org.apache.wiki.spi.AclsSPIDefaultImpl" style="stroke:#A80036;stroke-width:1.5;" width="146" x="24" y="204.5"/><ellipse cx="39" cy="220.5" fill="#ADD1B2" rx="11" ry="11" style="stroke:#A80036;stroke-width:1.0;"/><path d="M41.9688,226.1406 Q41.3906,226.4375 40.75,226.5781 Q40.1094,226.7344 39.4063,226.7344 Q36.9063,226.7344 35.5781,225.0938 Q34.2656,223.4375 34.2656,220.3125 Q34.2656,217.1875 35.5781,215.5313 Q36.9063,213.875 39.4063,213.875 Q40.1094,213.875 40.75,214.0313 Q41.4063,214.1875 41.9688,214.4844 L41.9688,217.2031 Q41.3438,216.625 40.75,216.3594 Q40.1563,216.0781 39.5313,216.0781 Q38.1875,216.0781 37.5,217.1563 Q36.8125,218.2188 36.8125,220.3125 Q36.8125,222.4063 37.5,223.4844 Q38.1875,224.5469 39.5313,224.5469 Q40.1563,224.5469 40.75,224.2813 Q41.3438,224 41.9688,223.4219 L41.9688,226.1406 Z " fill="#000000"/><text fill="#000000" font-family="sans-serif" font-size="12" lengthAdjust="spacing" textLength="114" x="53" y="224.6543">AclsSPIDefaultImpl</text><line style="stroke:#A80036;stroke-width:1.5;" x1="25" x2="169" y1="236.5" y2="236.5"/><line style="stroke:#A80036;stroke-width:1.5;" x1="25" x2="169" y1="244.5" y2="244.5"/><ellipse cx="35" cy="255.5" fill="#84BE84" rx="3" ry="3" style="stroke:#038048;stroke-width:1.0;"/><text fill="#000000" font-family="sans-serif" font-size="11" lengthAdjust="spacing" textLength="48" x="44" y="258.7104">acl(): Acl</text><ellipse cx="35" cy="268.3047" fill="#84BE84" rx="3" ry="3" style="stroke:#038048;stroke-width:1.0;"/><text fill="#000000" font-family="sans-serif" font-size="11" lengthAdjust="spacing" textLength="90" x="44" y="271.5151">entry(): AclEntry</text></a><!--MD5=[72cef5af7c1e5c0a14454e3c188183b9]
class org.apache.wiki.api.spi.EngineSPI--><a href="../api/spi/EngineSPI.html" target="_top" title="../api/spi/EngineSPI.html" xlink:actuate="onRequest" xlink:href="../api/spi/EngineSPI.html" xlink:show="new" xlink:title="../api/spi/EngineSPI.html" xlink:type="simple"><rect codeLine="38" fill="#FEFECE" filter="url(#f19s59me65cuhd)" height="60.8047" id="org.apache.wiki.api.spi.EngineSPI" style="stroke:#A80036;stroke-width:1.5;" width="251" x="1207.5" y="52"/><ellipse cx="1297.75" cy="68" fill="#B4A7E5" rx="11" ry="11" style="stroke:#A80036;stroke-width:1.0;"/><path d="M1293.6719,63.7656 L1293.6719,61.6094 L1301.0625,61.6094 L1301.0625,63.7656 L1298.5938,63.7656 L1298.5938,71.8438 L1301.0625,71.8438 L1301.0625,74 L1293.6719,74 L1293.6719,71.8438 L1296.1406,71.8438 L1296.1406,63.7656 L1293.6719,63.7656 Z " fill="#000000"/><text fill="#000000" font-family="sans-serif" font-size="12" font-style="italic" lengthAdjust="spacing" textLength="62" x="1318.25" y="72.1543">EngineSPI</text><line style="stroke:#A80036;stroke-width:1.5;" x1="1208.5" x2="1457.5" y1="84" y2="84"/><line style="stroke:#A80036;stroke-width:1.5;" x1="1208.5" x2="1457.5" y1="92" y2="92"/><ellipse cx="1218.5" cy="103" fill="#84BE84" rx="3" ry="3" style="stroke:#038048;stroke-width:1.0;"/><text fill="#000000" font-family="sans-serif" font-size="11" font-style="italic" lengthAdjust="spacing" textLength="225" x="1227.5" y="106.2104">find(ServletContext, Properties): Engine</text></a><!--MD5=[8f2da63379beffa948bd49efaa6b9718]
class org.apache.wiki.api.spi.ContentsSPI--><a href="../api/spi/ContentsSPI.html" target="_top" title="../api/spi/ContentsSPI.html" xlink:actuate="onRequest" xlink:href="../api/spi/ContentsSPI.html" xlink:show="new" xlink:title="../api/spi/ContentsSPI.html" xlink:type="simple"><rect codeLine="41" fill="#FEFECE" filter="url(#f19s59me65cuhd)" height="73.6094" id="org.apache.wiki.api.spi.ContentsSPI" style="stroke:#A80036;stroke-width:1.5;" width="291" x="881.5" y="45.5"/><ellipse cx="985.25" cy="61.5" fill="#B4A7E5" rx="11" ry="11" style="stroke:#A80036;stroke-width:1.0;"/><path d="M981.1719,57.2656 L981.1719,55.1094 L988.5625,55.1094 L988.5625,57.2656 L986.0938,57.2656 L986.0938,65.3438 L988.5625,65.3438 L988.5625,67.5 L981.1719,67.5 L981.1719,65.3438 L983.6406,65.3438 L983.6406,57.2656 L981.1719,57.2656 Z " fill="#000000"/><text fill="#000000" font-family="sans-serif" font-size="12" font-style="italic" lengthAdjust="spacing" textLength="75" x="1005.75" y="65.6543">ContentsSPI</text><line style="stroke:#A80036;stroke-width:1.5;" x1="882.5" x2="1171.5" y1="77.5" y2="77.5"/><line style="stroke:#A80036;stroke-width:1.5;" x1="882.5" x2="1171.5" y1="85.5" y2="85.5"/><ellipse cx="892.5" cy="96.5" fill="#84BE84" rx="3" ry="3" style="stroke:#038048;stroke-width:1.0;"/><text fill="#000000" font-family="sans-serif" font-size="11" font-style="italic" lengthAdjust="spacing" textLength="265" x="901.5" y="99.7104">attachment(Engine, String, String): Attachment</text><ellipse cx="892.5" cy="109.3047" fill="#84BE84" rx="3" ry="3" style="stroke:#038048;stroke-width:1.0;"/><text fill="#000000" font-family="sans-serif" font-size="11" font-style="italic" lengthAdjust="spacing" textLength="151" x="901.5" y="112.5151">page(Engine, String): Page</text></a><!--MD5=[f94607c025d7165374977c722d2704ab]
class org.apache.wiki.api.spi.ContextSPI--><a href="../api/spi/ContextSPI.html" target="_top" title="../api/spi/ContextSPI.html" xlink:actuate="onRequest" xlink:href="../api/spi/ContextSPI.html" xlink:show="new" xlink:title="../api/spi/ContextSPI.html" xlink:type="simple"><rect codeLine="45" fill="#FEFECE" filter="url(#f19s59me65cuhd)" height="99.2188" id="org.apache.wiki.api.spi.ContextSPI" style="stroke:#A80036;stroke-width:1.5;" width="343" x="503.5" y="33"/><ellipse cx="636.75" cy="49" fill="#B4A7E5" rx="11" ry="11" style="stroke:#A80036;stroke-width:1.0;"/><path d="M632.6719,44.7656 L632.6719,42.6094 L640.0625,42.6094 L640.0625,44.7656 L637.5938,44.7656 L637.5938,52.8438 L640.0625,52.8438 L640.0625,55 L632.6719,55 L632.6719,52.8438 L635.1406,52.8438 L635.1406,44.7656 L632.6719,44.7656 Z " fill="#000000"/><text fill="#000000" font-family="sans-serif" font-size="12" font-style="italic" lengthAdjust="spacing" textLength="68" x="657.25" y="53.1543">ContextSPI</text><line style="stroke:#A80036;stroke-width:1.5;" x1="504.5" x2="845.5" y1="65" y2="65"/><line style="stroke:#A80036;stroke-width:1.5;" x1="504.5" x2="845.5" y1="73" y2="73"/><ellipse cx="514.5" cy="84" fill="#84BE84" rx="3" ry="3" style="stroke:#038048;stroke-width:1.0;"/><text fill="#000000" font-family="sans-serif" font-size="11" font-style="italic" lengthAdjust="spacing" textLength="170" x="523.5" y="87.2104">create(Engine, Page): Context</text><ellipse cx="514.5" cy="96.8047" fill="#84BE84" rx="3" ry="3" style="stroke:#038048;stroke-width:1.0;"/><text fill="#000000" font-family="sans-serif" font-size="11" font-style="italic" lengthAdjust="spacing" textLength="317" x="523.5" y="100.0151">create(Engine, HttpServletRequest, Command): Context</text><ellipse cx="514.5" cy="109.6094" fill="#84BE84" rx="3" ry="3" style="stroke:#038048;stroke-width:1.0;"/><text fill="#000000" font-family="sans-serif" font-size="11" font-style="italic" lengthAdjust="spacing" textLength="287" x="523.5" y="112.8198">create(Engine, HttpServletRequest, Page): Context</text><ellipse cx="514.5" cy="122.4141" fill="#84BE84" rx="3" ry="3" style="stroke:#038048;stroke-width:1.0;"/><text fill="#000000" font-family="sans-serif" font-size="11" font-style="italic" lengthAdjust="spacing" textLength="292" x="523.5" y="125.6245">create(Engine, HttpServletRequest, String): Context</text></a><!--MD5=[52c031eca9d14e414123c0f3a82f168a]
class org.apache.wiki.api.spi.SessionSPI--><a href="../api/spi/SessionSPI.html" target="_top" title="../api/spi/SessionSPI.html" xlink:actuate="onRequest" xlink:href="../api/spi/SessionSPI.html" xlink:show="new" xlink:title="../api/spi/SessionSPI.html" xlink:type="simple"><rect codeLine="51" fill="#FEFECE" filter="url(#f19s59me65cuhd)" height="86.4141" id="org.apache.wiki.api.spi.SessionSPI" style="stroke:#A80036;stroke-width:1.5;" width="265" x="203.5" y="39.5"/><ellipse cx="298.75" cy="55.5" fill="#B4A7E5" rx="11" ry="11" style="stroke:#A80036;stroke-width:1.0;"/><path d="M294.6719,51.2656 L294.6719,49.1094 L302.0625,49.1094 L302.0625,51.2656 L299.5938,51.2656 L299.5938,59.3438 L302.0625,59.3438 L302.0625,61.5 L294.6719,61.5 L294.6719,59.3438 L297.1406,59.3438 L297.1406,51.2656 L294.6719,51.2656 Z " fill="#000000"/><text fill="#000000" font-family="sans-serif" font-size="12" font-style="italic" lengthAdjust="spacing" textLength="66" x="319.25" y="59.6543">SessionSPI</text><line style="stroke:#A80036;stroke-width:1.5;" x1="204.5" x2="467.5" y1="71.5" y2="71.5"/><line style="stroke:#A80036;stroke-width:1.5;" x1="204.5" x2="467.5" y1="79.5" y2="79.5"/><ellipse cx="214.5" cy="90.5" fill="#84BE84" rx="3" ry="3" style="stroke:#038048;stroke-width:1.0;"/><text fill="#000000" font-family="sans-serif" font-size="11" font-style="italic" lengthAdjust="spacing" textLength="239" x="223.5" y="93.7104">remove(Engine, HttpServletRequest): void</text><ellipse cx="214.5" cy="103.3047" fill="#84BE84" rx="3" ry="3" style="stroke:#038048;stroke-width:1.0;"/><text fill="#000000" font-family="sans-serif" font-size="11" font-style="italic" lengthAdjust="spacing" textLength="235" x="223.5" y="106.5151">find(Engine, HttpServletRequest): Session</text><ellipse cx="214.5" cy="116.1094" fill="#84BE84" rx="3" ry="3" style="stroke:#038048;stroke-width:1.0;"/><text fill="#000000" font-family="sans-serif" font-size="11" font-style="italic" lengthAdjust="spacing" textLength="128" x="223.5" y="119.3198">guest(Engine): Session</text></a><!--MD5=[3cc7a177362693a4101c4797076d4341]
class org.apache.wiki.api.spi.AclsSPI--><a href="../api/spi/AclsSPI.html" target="_top" title="../api/spi/AclsSPI.html" xlink:actuate="onRequest" xlink:href="../api/spi/AclsSPI.html" xlink:show="new" xlink:title="../api/spi/AclsSPI.html" xlink:type="simple"><rect codeLine="56" fill="#FEFECE" filter="url(#f19s59me65cuhd)" height="73.6094" id="org.apache.wiki.api.spi.AclsSPI" style="stroke:#A80036;stroke-width:1.5;" width="119" x="49.5" y="45.5"/><ellipse cx="84.3" cy="61.5" fill="#B4A7E5" rx="11" ry="11" style="stroke:#A80036;stroke-width:1.0;"/><path d="M80.2219,57.2656 L80.2219,55.1094 L87.6125,55.1094 L87.6125,57.2656 L85.1438,57.2656 L85.1438,65.3438 L87.6125,65.3438 L87.6125,67.5 L80.2219,67.5 L80.2219,65.3438 L82.6906,65.3438 L82.6906,57.2656 L80.2219,57.2656 Z " fill="#000000"/><text fill="#000000" font-family="sans-serif" font-size="12" font-style="italic" lengthAdjust="spacing" textLength="43" x="102.7" y="65.6543">AclsSPI</text><line style="stroke:#A80036;stroke-width:1.5;" x1="50.5" x2="167.5" y1="77.5" y2="77.5"/><line style="stroke:#A80036;stroke-width:1.5;" x1="50.5" x2="167.5" y1="85.5" y2="85.5"/><ellipse cx="60.5" cy="96.5" fill="#84BE84" rx="3" ry="3" style="stroke:#038048;stroke-width:1.0;"/><text fill="#000000" font-family="sans-serif" font-size="11" font-style="italic" lengthAdjust="spacing" textLength="49" x="69.5" y="99.7104">acl(): Acl</text><ellipse cx="60.5" cy="109.3047" fill="#84BE84" rx="3" ry="3" style="stroke:#038048;stroke-width:1.0;"/><text fill="#000000" font-family="sans-serif" font-size="11" font-style="italic" lengthAdjust="spacing" textLength="93" x="69.5" y="112.5151">entry(): AclEntry</text></a><!--MD5=[450734fb1794e4448a04b6eb726990cb]
reverse link org.apache.wiki.api.spi.EngineSPI to org.apache.wiki.spi.EngineSPIDefaultImpl--><path codeLine="30" d="M1333.3193,133.2697 C1333.4801,158.8282 1333.6696,188.9643 1333.8078,210.9373 " fill="none" id="org.apache.wiki.api.spi.EngineSPI-backto-org.apache.wiki.spi.EngineSPIDefaultImpl" style="stroke:#A80036;stroke-width:1.0;stroke-dasharray:7.0,7.0;"/><polygon fill="none" points="1326.3188,133.2005,1333.1928,113.1568,1340.3186,133.1123,1326.3188,133.2005" style="stroke:#A80036;stroke-width:1.0;"/><!--MD5=[76506b523babbddcba7740e56960da8f]
reverse link org.apache.wiki.api.spi.ContentsSPI to org.apache.wiki.spi.ContentsSPIDefaultImpl--><path codeLine="31" d="M1027,139.8582 C1027,161.3805 1027,185.2553 1027,204.4551 " fill="none" id="org.apache.wiki.api.spi.ContentsSPI-backto-org.apache.wiki.spi.ContentsSPIDefaultImpl" style="stroke:#A80036;stroke-width:1.0;stroke-dasharray:7.0,7.0;"/><polygon fill="none" points="1020.0001,139.7785,1027,119.7784,1034.0001,139.7784,1020.0001,139.7785" style="stroke:#A80036;stroke-width:1.0;"/><!--MD5=[1360acf7fc0cafca9b9fe5d9309b1c6a]
reverse link org.apache.wiki.api.spi.ContextSPI to org.apache.wiki.spi.ContextSPIDefaultImpl--><path codeLine="32" d="M675,152.6225 C675,165.8282 675,179.3839 675,191.8046 " fill="none" id="org.apache.wiki.api.spi.ContextSPI-backto-org.apache.wiki.spi.ContextSPIDefaultImpl" style="stroke:#A80036;stroke-width:1.0;stroke-dasharray:7.0,7.0;"/><polygon fill="none" points="668.0001,152.3724,675,132.3723,682.0001,152.3723,668.0001,152.3724" style="stroke:#A80036;stroke-width:1.0;"/><!--MD5=[e961bf79034f4e3b8f1711b47b5dac8c]
reverse link org.apache.wiki.api.spi.SessionSPI to org.apache.wiki.spi.SessionSPIDefaultImpl--><path codeLine="33" d="M336.3968,145.5874 C336.5082,163.3112 336.6269,182.1729 336.7292,198.4379 " fill="none" id="org.apache.wiki.api.spi.SessionSPI-backto-org.apache.wiki.spi.SessionSPIDefaultImpl" style="stroke:#A80036;stroke-width:1.0;stroke-dasharray:7.0,7.0;"/><polygon fill="none" points="329.3966,145.5714,336.2706,125.5277,343.3964,145.4832,329.3966,145.5714" style="stroke:#A80036;stroke-width:1.0;"/><!--MD5=[e9b31059058649ce94fcbaaa439892c6]
reverse link org.apache.wiki.api.spi.AclsSPI to org.apache.wiki.spi.AclsSPIDefaultImpl--><path codeLine="34" d="M104.6711,139.8582 C103.0468,161.3805 101.2449,185.2553 99.7958,204.4551 " fill="none" id="org.apache.wiki.api.spi.AclsSPI-backto-org.apache.wiki.spi.AclsSPIDefaultImpl" style="stroke:#A80036;stroke-width:1.0;stroke-dasharray:7.0,7.0;"/><polygon fill="none" points="97.7011,139.1949,106.1865,119.7784,111.6614,140.2486,97.7011,139.1949" style="stroke:#A80036;stroke-width:1.0;"/><text fill="#888888" font-family="sans-serif" font-size="10" lengthAdjust="spacing" textLength="186" x="643" y="314.2822">UMLDoclet 2.0.14, PlantUML 1.2021.9</text><!--MD5=[e9bdebb719cee1a456356f1c015eecb1]
@startuml
    namespace org.apache.wiki.spi {

        class EngineSPIDefaultImpl [[EngineSPIDefaultImpl.html]] {
            +find(ServletContext, Properties): Engine
        }

        class ContentsSPIDefaultImpl [[ContentsSPIDefaultImpl.html]] {
            +attachment(Engine, String, String): Attachment
            +page(Engine, String): Page
        }

        class ContextSPIDefaultImpl [[ContextSPIDefaultImpl.html]] {
            +create(Engine, Page): Context
            +create(Engine, HttpServletRequest, Command): Context
            +create(Engine, HttpServletRequest, Page): Context
            +create(Engine, HttpServletRequest, String): Context
        }

        class SessionSPIDefaultImpl [[SessionSPIDefaultImpl.html]] {
            +remove(Engine, HttpServletRequest): void
            +find(Engine, HttpServletRequest): Session
            +guest(Engine): Session
        }

        class AclsSPIDefaultImpl [[AclsSPIDefaultImpl.html]] {
            +acl(): Acl
            +entry(): AclEntry
        }

        org.apache.wiki.api.spi.EngineSPI <|.. EngineSPIDefaultImpl
        org.apache.wiki.api.spi.ContentsSPI <|.. ContentsSPIDefaultImpl
        org.apache.wiki.api.spi.ContextSPI <|.. ContextSPIDefaultImpl
        org.apache.wiki.api.spi.SessionSPI <|.. SessionSPIDefaultImpl
        org.apache.wiki.api.spi.AclsSPI <|.. AclsSPIDefaultImpl
    }

    namespace org.apache.wiki.api.spi {
        interface EngineSPI [[../api/spi/EngineSPI.html]] {
            {abstract} +find(ServletContext, Properties): Engine
        }
        interface ContentsSPI [[../api/spi/ContentsSPI.html]] {
            {abstract} +attachment(Engine, String, String): Attachment
            {abstract} +page(Engine, String): Page
        }
        interface ContextSPI [[../api/spi/ContextSPI.html]] {
            {abstract} +create(Engine, Page): Context
            {abstract} +create(Engine, HttpServletRequest, Command): Context
            {abstract} +create(Engine, HttpServletRequest, Page): Context
            {abstract} +create(Engine, HttpServletRequest, String): Context
        }
        interface SessionSPI [[../api/spi/SessionSPI.html]] {
            {abstract} +remove(Engine, HttpServletRequest): void
            {abstract} +find(Engine, HttpServletRequest): Session
            {abstract} +guest(Engine): Session
        }
        interface AclsSPI [[../api/spi/AclsSPI.html]] {
            {abstract} +acl(): Acl
            {abstract} +entry(): AclEntry
        }
    }

    center footer UMLDoclet 2.0.14, PlantUML 1.2021.9
@enduml

PlantUML version 1.2021.9(Sun Jul 25 10:13:56 UTC 2021)
(APACHE source distribution)
Java Runtime: Java(TM) SE Runtime Environment
JVM: Java HotSpot(TM) 64-Bit Server VM
Default Encoding: ISO-8859-1
Language: en
Country: US
--></g></svg>