<?xml version="1.0" encoding="UTF-8" standalone="no"?><svg xmlns="http://www.w3.org/2000/svg" xmlns:xlink="http://www.w3.org/1999/xlink" contentScriptType="application/ecmascript" contentStyleType="text/css" height="407px" preserveAspectRatio="none" style="width:284px;height:407px;" version="1.1" viewBox="0 0 284 407" width="284px" zoomAndPan="magnify"><defs><filter height="300%" id="frqxwbc57wo5b" width="300%" x="-1" y="-1"><feGaussianBlur result="blurOut" stdDeviation="2.0"/><feColorMatrix in="blurOut" result="blurOut2" type="matrix" values="0 0 0 0 0 0 0 0 0 0 0 0 0 0 0 0 0 0 .4 0"/><feOffset dx="4.0" dy="4.0" in="blurOut2" result="blurOut3"/><feBlend in="SourceGraphic" in2="blurOut3" mode="normal"/></filter></defs><g><!--MD5=[cea8a8cd2d049ba34e358e6ff20cdf1a]
cluster org.apache.wiki.search.tika--><polygon fill="#FFFFFF" filter="url(#frqxwbc57wo5b)" points="16,280,213,280,220,303.6094,262,303.6094,262,378,16,378,16,280" style="stroke: #000000; stroke-width: 1.5;"/><line style="stroke: #000000; stroke-width: 1.5;" x1="16" x2="220" y1="303.6094" y2="303.6094"/><text fill="#000000" font-family="sans-serif" font-size="14" font-weight="bold" lengthAdjust="spacingAndGlyphs" textLength="191" x="20" y="296.5332">org.apache.wiki.search.tika</text><!--MD5=[a3087aa6787ee7e367b5c34d6c65fe1b]
cluster org.apache.wiki.search--><polygon fill="#FFFFFF" filter="url(#frqxwbc57wo5b)" points="23,6,191,6,198,29.6094,255,29.6094,255,256,23,256,23,6" style="stroke: #000000; stroke-width: 1.5;"/><line style="stroke: #000000; stroke-width: 1.5;" x1="23" x2="198" y1="29.6094" y2="29.6094"/><text fill="#000000" font-family="sans-serif" font-size="14" font-weight="bold" lengthAdjust="spacingAndGlyphs" textLength="162" x="27" y="22.5332">org.apache.wiki.search</text><!--MD5=[f647b3b0468201bad4c868788c77da12]
class org.apache.wiki.search.tika.TikaSearchProvider--><a href="TikaSearchProvider.html" target="_top" title="TikaSearchProvider.html" xlink:actuate="onRequest" xlink:href="TikaSearchProvider.html" xlink:show="new" xlink:title="TikaSearchProvider.html" xlink:type="simple"><rect codeLine="3" fill="#FEFECE" filter="url(#frqxwbc57wo5b)" height="61.8359" id="org.apache.wiki.search.tika.TikaSearchProvider" style="stroke: #A80036; stroke-width: 1.5;" width="230" x="24" y="308"/><ellipse cx="81.25" cy="324" fill="#ADD1B2" rx="11" ry="11" style="stroke: #A80036; stroke-width: 1.0;"/><path d="M84.0156,319.875 Q84.1719,319.6563 84.3594,319.5469 Q84.5469,319.4375 84.7656,319.4375 Q85.1406,319.4375 85.375,319.7031 Q85.6094,319.9531 85.6094,320.5625 L85.6094,322.0156 Q85.6094,322.625 85.375,322.8906 Q85.1406,323.1563 84.7656,323.1563 Q84.4219,323.1563 84.2188,322.9531 Q84.0156,322.7656 83.9063,322.25 Q83.8594,321.8906 83.6719,321.7031 Q83.3438,321.3281 82.7344,321.1094 Q82.125,320.8906 81.5,320.8906 Q80.7344,320.8906 80.0938,321.2188 Q79.4688,321.5469 78.9688,322.2969 Q78.4844,323.0469 78.4844,324.0781 L78.4844,325.1719 Q78.4844,326.4063 79.375,327.2344 Q80.2656,328.0469 81.8594,328.0469 Q82.7969,328.0469 83.4531,327.7969 Q83.8438,327.6406 84.2656,327.2031 Q84.5313,326.9375 84.6719,326.8594 Q84.8281,326.7813 85.0313,326.7813 Q85.3594,326.7813 85.6094,327.0469 Q85.875,327.2969 85.875,327.6406 Q85.875,327.9844 85.5313,328.3906 Q85.0313,328.9688 84.2344,329.2969 Q83.1563,329.75 81.8594,329.75 Q80.3438,329.75 79.1406,329.125 Q78.1563,328.625 77.4688,327.5625 Q76.7813,326.4844 76.7813,325.2031 L76.7813,324.0469 Q76.7813,322.7188 77.3906,321.5781 Q78.0156,320.4219 79.1094,319.8125 Q80.2031,319.1875 81.4375,319.1875 Q82.1719,319.1875 82.8125,319.3594 Q83.4688,319.5156 84.0156,319.875 Z "/><text fill="#000000" font-family="sans-serif" font-size="12" lengthAdjust="spacingAndGlyphs" textLength="107" x="101.75" y="328.9102">TikaSearchProvider</text><line style="stroke: #A80036; stroke-width: 1.5;" x1="25" x2="253" y1="340" y2="340"/><line style="stroke: #A80036; stroke-width: 1.5;" x1="25" x2="253" y1="348" y2="348"/><polygon fill="#FFFF44" points="35,354,39,358,35,362,31,358" style="stroke: #B38D22; stroke-width: 1.0;"/><text fill="#000000" font-family="sans-serif" font-size="11" lengthAdjust="spacingAndGlyphs" textLength="204" x="44" y="363.4189">getAttachmentContent(Attachment): String</text></a><!--MD5=[20b1b52d4229289e9fd6a4aa923d6064]
class org.apache.wiki.search.LuceneSearchProvider--><a href="..\LuceneSearchProvider.html" target="_top" title="..\LuceneSearchProvider.html" xlink:actuate="onRequest" xlink:href="..\LuceneSearchProvider.html" xlink:show="new" xlink:title="..\LuceneSearchProvider.html" xlink:type="simple"><rect codeLine="11" fill="#FEFECE" filter="url(#frqxwbc57wo5b)" height="214.0313" id="org.apache.wiki.search.LuceneSearchProvider" style="stroke: #A80036; stroke-width: 1.5;" width="215" x="31.5" y="34"/><ellipse cx="72.6" cy="50" fill="#ADD1B2" rx="11" ry="11" style="stroke: #A80036; stroke-width: 1.0;"/><path d="M75.3656,45.875 Q75.5219,45.6563 75.7094,45.5469 Q75.8969,45.4375 76.1156,45.4375 Q76.4906,45.4375 76.725,45.7031 Q76.9594,45.9531 76.9594,46.5625 L76.9594,48.0156 Q76.9594,48.625 76.725,48.8906 Q76.4906,49.1563 76.1156,49.1563 Q75.7719,49.1563 75.5688,48.9531 Q75.3656,48.7656 75.2563,48.25 Q75.2094,47.8906 75.0219,47.7031 Q74.6938,47.3281 74.0844,47.1094 Q73.475,46.8906 72.85,46.8906 Q72.0844,46.8906 71.4438,47.2188 Q70.8188,47.5469 70.3188,48.2969 Q69.8344,49.0469 69.8344,50.0781 L69.8344,51.1719 Q69.8344,52.4063 70.725,53.2344 Q71.6156,54.0469 73.2094,54.0469 Q74.1469,54.0469 74.8031,53.7969 Q75.1938,53.6406 75.6156,53.2031 Q75.8813,52.9375 76.0219,52.8594 Q76.1781,52.7813 76.3813,52.7813 Q76.7094,52.7813 76.9594,53.0469 Q77.225,53.2969 77.225,53.6406 Q77.225,53.9844 76.8813,54.3906 Q76.3813,54.9688 75.5844,55.2969 Q74.5063,55.75 73.2094,55.75 Q71.6938,55.75 70.4906,55.125 Q69.5063,54.625 68.8188,53.5625 Q68.1313,52.4844 68.1313,51.2031 L68.1313,50.0469 Q68.1313,48.7188 68.7406,47.5781 Q69.3656,46.4219 70.4594,45.8125 Q71.5531,45.1875 72.7875,45.1875 Q73.5219,45.1875 74.1625,45.3594 Q74.8188,45.5156 75.3656,45.875 Z "/><text fill="#000000" font-family="sans-serif" font-size="12" lengthAdjust="spacingAndGlyphs" textLength="125" x="92.4" y="54.9102">LuceneSearchProvider</text><line style="stroke: #A80036; stroke-width: 1.5;" x1="32.5" x2="245.5" y1="66" y2="66"/><polygon fill="none" points="42.5,72,46.5,76,42.5,80,38.5,76" style="stroke: #B38D22; stroke-width: 1.0;"/><text fill="#000000" font-family="sans-serif" font-size="11" lengthAdjust="spacingAndGlyphs" text-decoration="underline" textLength="54" x="51.5" y="81.4189">log: Logger</text><ellipse cx="42.5" cy="90.8359" fill="none" rx="3" ry="3" style="stroke: #038048; stroke-width: 1.0;"/><text fill="#000000" font-family="sans-serif" font-size="11" lengthAdjust="spacingAndGlyphs" text-decoration="underline" textLength="169" x="51.5" y="95.2549">PROP_LUCENE_ANALYZER: String</text><ellipse cx="42.5" cy="104.6719" fill="none" rx="3" ry="3" style="stroke: #038048; stroke-width: 1.0;"/><text fill="#000000" font-family="sans-serif" font-size="11" lengthAdjust="spacingAndGlyphs" text-decoration="underline" textLength="189" x="51.5" y="109.0908">SEARCHABLE_FILE_SUFFIXES: String[]</text><polygon fill="none" points="42.5,113.5078,46.5,117.5078,42.5,121.5078,38.5,117.5078" style="stroke: #B38D22; stroke-width: 1.0;"/><text fill="#000000" font-family="sans-serif" font-size="11" lengthAdjust="spacingAndGlyphs" text-decoration="underline" textLength="88" x="51.5" y="122.9268">LUCENE_ID: String</text><polygon fill="none" points="42.5,127.3438,46.5,131.3438,42.5,135.3438,38.5,131.3438" style="stroke: #B38D22; stroke-width: 1.0;"/><text fill="#000000" font-family="sans-serif" font-size="11" lengthAdjust="spacingAndGlyphs" text-decoration="underline" textLength="167" x="51.5" y="136.7627">LUCENE_PAGE_CONTENTS: String</text><polygon fill="none" points="42.5,141.1797,46.5,145.1797,42.5,149.1797,38.5,145.1797" style="stroke: #B38D22; stroke-width: 1.0;"/><text fill="#000000" font-family="sans-serif" font-size="11" lengthAdjust="spacingAndGlyphs" text-decoration="underline" textLength="122" x="51.5" y="150.5986">LUCENE_AUTHOR: String</text><polygon fill="none" points="42.5,155.0156,46.5,159.0156,42.5,163.0156,38.5,159.0156" style="stroke: #B38D22; stroke-width: 1.0;"/><text fill="#000000" font-family="sans-serif" font-size="11" lengthAdjust="spacingAndGlyphs" text-decoration="underline" textLength="155" x="51.5" y="164.4346">LUCENE_ATTACHMENTS: String</text><polygon fill="none" points="42.5,168.8516,46.5,172.8516,42.5,176.8516,38.5,172.8516" style="stroke: #B38D22; stroke-width: 1.0;"/><text fill="#000000" font-family="sans-serif" font-size="11" lengthAdjust="spacingAndGlyphs" text-decoration="underline" textLength="142" x="51.5" y="178.2705">LUCENE_PAGE_NAME: String</text><polygon fill="none" points="42.5,182.6875,46.5,186.6875,42.5,190.6875,38.5,186.6875" style="stroke: #B38D22; stroke-width: 1.0;"/><text fill="#000000" font-family="sans-serif" font-size="11" lengthAdjust="spacingAndGlyphs" text-decoration="underline" textLength="173" x="51.5" y="192.1064">LUCENE_PAGE_KEYWORDS: String</text><polygon fill="none" points="42.5,196.5234,46.5,200.5234,42.5,204.5234,38.5,200.5234" style="stroke: #B38D22; stroke-width: 1.0;"/><text fill="#000000" font-family="sans-serif" font-size="11" lengthAdjust="spacingAndGlyphs" textLength="125" x="51.5" y="205.9424">m_updates: List&lt;Object[]&gt;</text><ellipse cx="42.5" cy="215.3594" fill="none" rx="3" ry="3" style="stroke: #038048; stroke-width: 1.0;"/><text fill="#000000" font-family="sans-serif" font-size="11" lengthAdjust="spacingAndGlyphs" text-decoration="underline" textLength="116" x="51.5" y="219.7783">MAX_SEARCH_HITS: int</text><ellipse cx="42.5" cy="229.1953" fill="none" rx="3" ry="3" style="stroke: #038048; stroke-width: 1.0;"/><text fill="#000000" font-family="sans-serif" font-size="11" lengthAdjust="spacingAndGlyphs" text-decoration="underline" textLength="105" x="51.5" y="233.6143">FLAG_CONTEXTS: int</text><line style="stroke: #A80036; stroke-width: 1.5;" x1="32.5" x2="245.5" y1="240.0313" y2="240.0313"/></a><!--MD5=[0faf1471b80963f356fe42928a9541aa]
reverse link org.apache.wiki.search.LuceneSearchProvider to org.apache.wiki.search.tika.TikaSearchProvider--><path codeLine="7" d="M139,268.3277 C139,282.8448 139,296.4745 139,307.8174 " fill="none" id="org.apache.wiki.search.LuceneSearchProvider-backto-org.apache.wiki.search.tika.TikaSearchProvider" style="stroke: #A80036; stroke-width: 1.0;"/><polygon fill="none" points="132.0001,268.113,139,248.113,146.0001,268.113,132.0001,268.113" style="stroke: #A80036; stroke-width: 1.0;"/><text fill="#888888" font-family="sans-serif" font-size="10" lengthAdjust="spacingAndGlyphs" textLength="190" x="38" y="394.3809">UMLDoclet 2.0.12, PlantUML 1.2020.16</text><!--MD5=[593f1228990da250a8211f9c9ca0b449]
@startuml
    namespace org.apache.wiki.search.tika {

        class TikaSearchProvider [[TikaSearchProvider.html]] {
            #getAttachmentContent(Attachment): String
        }

        org.apache.wiki.search.LuceneSearchProvider <|- - TikaSearchProvider
    }

    namespace org.apache.wiki.search {
        class LuceneSearchProvider [[..\LuceneSearchProvider.html]] {
            {static} #log: Logger
            {static} +PROP_LUCENE_ANALYZER: String
            {static} +SEARCHABLE_FILE_SUFFIXES: String[]
            {static} #LUCENE_ID: String
            {static} #LUCENE_PAGE_CONTENTS: String
            {static} #LUCENE_AUTHOR: String
            {static} #LUCENE_ATTACHMENTS: String
            {static} #LUCENE_PAGE_NAME: String
            {static} #LUCENE_PAGE_KEYWORDS: String
            #m_updates: List<Object[]>
            {static} +MAX_SEARCH_HITS: int
            {static} +FLAG_CONTEXTS: int
        }
    }

    center footer UMLDoclet 2.0.12, PlantUML 1.2020.16
@enduml

PlantUML version 1.2020.16(Sun Aug 23 22:20:43 CEST 2020)
(APACHE source distribution)
Java Runtime: OpenJDK Runtime Environment
JVM: OpenJDK 64-Bit Server VM
Default Encoding: Cp1252
Language: es
Country: ES
--></g></svg>