<?xml version="1.0" encoding="UTF-8" standalone="no"?><svg xmlns="http://www.w3.org/2000/svg" xmlns:xlink="http://www.w3.org/1999/xlink" contentScriptType="application/ecmascript" contentStyleType="text/css" height="241px" preserveAspectRatio="none" style="width:199px;height:241px;background:#FFFFFF;" version="1.1" viewBox="0 0 199 241" width="199px" zoomAndPan="magnify"><defs><filter height="300%" id="fgz099nyig9zy" width="300%" x="-1" y="-1"><feGaussianBlur result="blurOut" stdDeviation="2.0"/><feColorMatrix in="blurOut" result="blurOut2" type="matrix" values="0 0 0 0 0 0 0 0 0 0 0 0 0 0 0 0 0 0 .4 0"/><feOffset dx="4.0" dy="4.0" in="blurOut2" result="blurOut3"/><feBlend in="SourceGraphic" in2="blurOut3" mode="normal"/></filter></defs><g><!--MD5=[2eee00d0630945e31b2b627473d3bd10]
class org.apache.wiki.tags.CheckLockTag--><a href="CheckLockTag.html" target="_top" title="CheckLockTag.html" xlink:actuate="onRequest" xlink:href="CheckLockTag.html" xlink:show="new" xlink:title="CheckLockTag.html" xlink:type="simple"><rect codeLine="5" fill="#FEFECE" filter="url(#fgz099nyig9zy)" height="84.3516" id="org.apache.wiki.tags.CheckLockTag" style="stroke:#A80036;stroke-width:1.5;" width="147" x="25.5" y="126"/><ellipse cx="46.35" cy="144.9688" fill="#ADD1B2" rx="11" ry="11" style="stroke:#A80036;stroke-width:1.0;"/><path d="M49.3188,150.6094 Q48.7406,150.9063 48.1,151.0469 Q47.4594,151.2031 46.7563,151.2031 Q44.2563,151.2031 42.9281,149.5625 Q41.6156,147.9063 41.6156,144.7813 Q41.6156,141.6563 42.9281,140 Q44.2563,138.3438 46.7563,138.3438 Q47.4594,138.3438 48.1,138.5 Q48.7563,138.6563 49.3188,138.9531 L49.3188,141.6719 Q48.6938,141.0938 48.1,140.8281 Q47.5063,140.5469 46.8813,140.5469 Q45.5375,140.5469 44.85,141.625 Q44.1625,142.6875 44.1625,144.7813 Q44.1625,146.875 44.85,147.9531 Q45.5375,149.0156 46.8813,149.0156 Q47.5063,149.0156 48.1,148.75 Q48.6938,148.4688 49.3188,147.8906 L49.3188,150.6094 Z " fill="#000000"/><text fill="#000000" font-family="sans-serif" font-size="14" lengthAdjust="spacing" textLength="102" x="61.65" y="143.9951">CheckLockTag</text><text fill="#000000" font-family="sans-serif" font-size="10" lengthAdjust="spacing" textLength="98" x="63.65" y="156.5791">org.apache.wiki.tags</text><line style="stroke:#A80036;stroke-width:1.5;" x1="26.5" x2="171.5" y1="163.9375" y2="163.9375"/><ellipse cx="36.5" cy="174.9375" fill="#84BE84" rx="3" ry="3" style="stroke:#038048;stroke-width:1.0;"/><text fill="#000000" font-family="sans-serif" font-size="11" lengthAdjust="spacing" textLength="77" x="45.5" y="178.1479">initTag(): void</text><ellipse cx="36.5" cy="187.7422" fill="#84BE84" rx="3" ry="3" style="stroke:#038048;stroke-width:1.0;"/><text fill="#000000" font-family="sans-serif" font-size="11" lengthAdjust="spacing" textLength="121" x="45.5" y="190.9526">setMode(String): void</text><ellipse cx="36.5" cy="200.5469" fill="#84BE84" rx="3" ry="3" style="stroke:#038048;stroke-width:1.0;"/><text fill="#000000" font-family="sans-serif" font-size="11" lengthAdjust="spacing" textLength="114" x="45.5" y="203.7573">doWikiStartTag(): int</text></a><!--MD5=[0148d16490ea9d40379f79f2f3eafb9d]
class org.apache.wiki.tags.WikiTagBase--><a href="WikiTagBase.html" target="_top" title="WikiTagBase.html" xlink:actuate="onRequest" xlink:href="WikiTagBase.html" xlink:show="new" xlink:title="WikiTagBase.html" xlink:type="simple"><rect codeLine="11" fill="#FEFECE" filter="url(#fgz099nyig9zy)" height="58.7422" id="org.apache.wiki.tags.WikiTagBase" style="stroke:#A80036;stroke-width:1.5;" width="141" x="28.5" y="7"/><ellipse cx="46.65" cy="25.9688" fill="#A9DCDF" rx="11" ry="11" style="stroke:#A80036;stroke-width:1.0;"/><path d="M46.7594,21.3125 L45.6031,26.3906 L47.9313,26.3906 L46.7594,21.3125 Z M45.275,19.0781 L48.2594,19.0781 L51.6188,31.4688 L49.1656,31.4688 L48.4,28.4063 L45.1188,28.4063 L44.3688,31.4688 L41.9313,31.4688 L45.275,19.0781 Z " fill="#000000"/><text fill="#000000" font-family="sans-serif" font-size="14" font-style="italic" lengthAdjust="spacing" textLength="88" x="68.35" y="24.9951">WikiTagBase</text><text fill="#000000" font-family="sans-serif" font-size="10" font-style="italic" lengthAdjust="spacing" textLength="102" x="61.35" y="37.5791">org.apache.wiki.tags</text><line style="stroke:#A80036;stroke-width:1.5;" x1="29.5" x2="168.5" y1="44.9375" y2="44.9375"/><ellipse cx="39.5" cy="55.9375" fill="#84BE84" rx="3" ry="3" style="stroke:#038048;stroke-width:1.0;"/><text fill="#000000" font-family="sans-serif" font-size="11" font-style="italic" lengthAdjust="spacing" textLength="115" x="48.5" y="59.1479">doWikiStartTag(): int</text></a><!--MD5=[1ed78af8091f096e6e94282ab3baccb9]
reverse link org.apache.wiki.tags.WikiTagBase to org.apache.wiki.tags.CheckLockTag--><path codeLine="15" d="M99,86.63 C99,99.47 99,113.17 99,125.56 " fill="none" id="org.apache.wiki.tags.WikiTagBase-backto-org.apache.wiki.tags.CheckLockTag" style="stroke:#A80036;stroke-width:1.0;"/><polygon fill="none" points="92,86.24,99,66.24,106,86.24,92,86.24" style="stroke:#A80036;stroke-width:1.0;"/><text fill="#888888" font-family="sans-serif" font-size="10" lengthAdjust="spacing" textLength="192" x="0" y="232.6338">UMLDoclet 2.0.15, PlantUML 1.2021.13</text><!--MD5=[6785b41445e9356c9e1cf2f5df3cf28e]
@startuml
    set namespaceSeparator none
    hide empty fields
    hide empty methods

    class "<size:14>CheckLockTag\n<size:10>org.apache.wiki.tags" as org.apache.wiki.tags.CheckLockTag [[CheckLockTag.html]] {
        +initTag(): void
        +setMode(String): void
        +doWikiStartTag(): int
    }

    abstract class "<size:14>WikiTagBase\n<size:10>org.apache.wiki.tags" as org.apache.wiki.tags.WikiTagBase [[WikiTagBase.html]] {
        {abstract} +doWikiStartTag(): int
    }

    org.apache.wiki.tags.WikiTagBase <|- - org.apache.wiki.tags.CheckLockTag

    center footer UMLDoclet 2.0.15, PlantUML 1.2021.13
@enduml

PlantUML version 1.2021.13(Mon Nov 01 11:38:45 UTC 2021)
(APACHE source distribution)
Java Runtime: OpenJDK Runtime Environment
JVM: OpenJDK 64-Bit Server VM
Default Encoding: UTF-8
Language: en
Country: US
--></g></svg>