<?xml version="1.0" encoding="UTF-8" standalone="no"?><svg xmlns="http://www.w3.org/2000/svg" xmlns:xlink="http://www.w3.org/1999/xlink" contentScriptType="application/ecmascript" contentStyleType="text/css" height="313px" preserveAspectRatio="none" style="width:199px;height:313px;background:#FFFFFF;" version="1.1" viewBox="0 0 199 313" width="199px" zoomAndPan="magnify"><defs><filter height="300%" id="f1q7ztsqznwihw" width="300%" x="-1" y="-1"><feGaussianBlur result="blurOut" stdDeviation="2.0"/><feColorMatrix in="blurOut" result="blurOut2" type="matrix" values="0 0 0 0 0 0 0 0 0 0 0 0 0 0 0 0 0 0 .4 0"/><feOffset dx="4.0" dy="4.0" in="blurOut2" result="blurOut3"/><feBlend in="SourceGraphic" in2="blurOut3" mode="normal"/></filter></defs><g><!--MD5=[196ccef17e4d09a81037331a9ce17341]
class org.apache.wiki.tags.InsertPageTag--><a href="InsertPageTag.html" target="_top" title="InsertPageTag.html" xlink:actuate="onRequest" xlink:href="InsertPageTag.html" xlink:show="new" xlink:title="InsertPageTag.html" xlink:type="simple"><rect codeLine="5" fill="#FEFECE" filter="url(#f1q7ztsqznwihw)" height="156.375" id="org.apache.wiki.tags.InsertPageTag" style="stroke:#A80036;stroke-width:1.5;" width="147" x="26.5" y="126"/><ellipse cx="48.25" cy="144.9688" fill="#ADD1B2" rx="11" ry="11" style="stroke:#A80036;stroke-width:1.0;"/><path d="M51.2188,150.6094 Q50.6406,150.9063 50,151.0469 Q49.3594,151.2031 48.6563,151.2031 Q46.1563,151.2031 44.8281,149.5625 Q43.5156,147.9063 43.5156,144.7813 Q43.5156,141.6563 44.8281,140 Q46.1563,138.3438 48.6563,138.3438 Q49.3594,138.3438 50,138.5 Q50.6563,138.6563 51.2188,138.9531 L51.2188,141.6719 Q50.5938,141.0938 50,140.8281 Q49.4063,140.5469 48.7813,140.5469 Q47.4375,140.5469 46.75,141.625 Q46.0625,142.6875 46.0625,144.7813 Q46.0625,146.875 46.75,147.9531 Q47.4375,149.0156 48.7813,149.0156 Q49.4063,149.0156 50,148.75 Q50.5938,148.4688 51.2188,147.8906 L51.2188,150.6094 Z " fill="#000000"/><text fill="#000000" font-family="sans-serif" font-size="14" lengthAdjust="spacing" textLength="100" x="63.75" y="143.9951">InsertPageTag</text><text fill="#000000" font-family="sans-serif" font-size="10" lengthAdjust="spacing" textLength="98" x="64.75" y="156.5791">org.apache.wiki.tags</text><line style="stroke:#A80036;stroke-width:1.5;" x1="27.5" x2="172.5" y1="163.9375" y2="163.9375"/><ellipse cx="37.5" cy="174.9375" rx="3" ry="3" style="stroke:#038048;stroke-width:1.0;fill:none;"/><text fill="#000000" font-family="sans-serif" font-size="11" lengthAdjust="spacing" text-decoration="underline" textLength="52" x="46.5" y="178.1479">HTML: int</text><ellipse cx="37.5" cy="187.7422" rx="3" ry="3" style="stroke:#038048;stroke-width:1.0;fill:none;"/><text fill="#000000" font-family="sans-serif" font-size="11" lengthAdjust="spacing" text-decoration="underline" textLength="53" x="46.5" y="190.9526">PLAIN: int</text><polygon fill="none" points="37.5,195.5469,41.5,199.5469,37.5,203.5469,33.5,199.5469" style="stroke:#B38D22;stroke-width:1.0;"/><text fill="#000000" font-family="sans-serif" font-size="11" lengthAdjust="spacing" textLength="120" x="46.5" y="203.7573">m_pageName: String</text><line style="stroke:#A80036;stroke-width:1.5;" x1="27.5" x2="172.5" y1="210.3516" y2="210.3516"/><ellipse cx="37.5" cy="221.3516" fill="#84BE84" rx="3" ry="3" style="stroke:#038048;stroke-width:1.0;"/><text fill="#000000" font-family="sans-serif" font-size="11" lengthAdjust="spacing" textLength="77" x="46.5" y="224.562">initTag(): void</text><ellipse cx="37.5" cy="234.1563" fill="#84BE84" rx="3" ry="3" style="stroke:#038048;stroke-width:1.0;"/><text fill="#000000" font-family="sans-serif" font-size="11" lengthAdjust="spacing" textLength="119" x="46.5" y="237.3667">setPage(String): void</text><ellipse cx="37.5" cy="246.9609" fill="#84BE84" rx="3" ry="3" style="stroke:#038048;stroke-width:1.0;"/><text fill="#000000" font-family="sans-serif" font-size="11" lengthAdjust="spacing" textLength="96" x="46.5" y="250.1714">getPage(): String</text><ellipse cx="37.5" cy="259.7656" fill="#84BE84" rx="3" ry="3" style="stroke:#038048;stroke-width:1.0;"/><text fill="#000000" font-family="sans-serif" font-size="11" lengthAdjust="spacing" textLength="121" x="46.5" y="262.9761">setMode(String): void</text><ellipse cx="37.5" cy="272.5703" fill="#84BE84" rx="3" ry="3" style="stroke:#038048;stroke-width:1.0;"/><text fill="#000000" font-family="sans-serif" font-size="11" lengthAdjust="spacing" textLength="114" x="46.5" y="275.7808">doWikiStartTag(): int</text></a><!--MD5=[0148d16490ea9d40379f79f2f3eafb9d]
class org.apache.wiki.tags.WikiTagBase--><a href="WikiTagBase.html" target="_top" title="WikiTagBase.html" xlink:actuate="onRequest" xlink:href="WikiTagBase.html" xlink:show="new" xlink:title="WikiTagBase.html" xlink:type="simple"><rect codeLine="16" fill="#FEFECE" filter="url(#f1q7ztsqznwihw)" height="58.7422" id="org.apache.wiki.tags.WikiTagBase" style="stroke:#A80036;stroke-width:1.5;" width="141" x="29.5" y="7"/><ellipse cx="47.65" cy="25.9688" fill="#A9DCDF" rx="11" ry="11" style="stroke:#A80036;stroke-width:1.0;"/><path d="M47.7594,21.3125 L46.6031,26.3906 L48.9313,26.3906 L47.7594,21.3125 Z M46.275,19.0781 L49.2594,19.0781 L52.6188,31.4688 L50.1656,31.4688 L49.4,28.4063 L46.1188,28.4063 L45.3688,31.4688 L42.9313,31.4688 L46.275,19.0781 Z " fill="#000000"/><text fill="#000000" font-family="sans-serif" font-size="14" font-style="italic" lengthAdjust="spacing" textLength="88" x="69.35" y="24.9951">WikiTagBase</text><text fill="#000000" font-family="sans-serif" font-size="10" font-style="italic" lengthAdjust="spacing" textLength="102" x="62.35" y="37.5791">org.apache.wiki.tags</text><line style="stroke:#A80036;stroke-width:1.5;" x1="30.5" x2="169.5" y1="44.9375" y2="44.9375"/><ellipse cx="40.5" cy="55.9375" fill="#84BE84" rx="3" ry="3" style="stroke:#038048;stroke-width:1.0;"/><text fill="#000000" font-family="sans-serif" font-size="11" font-style="italic" lengthAdjust="spacing" textLength="115" x="49.5" y="59.1479">doWikiStartTag(): int</text></a><!--MD5=[120f1c3b9b4e249b55dc0c03399ccbdb]
reverse link org.apache.wiki.tags.WikiTagBase to org.apache.wiki.tags.InsertPageTag--><path codeLine="20" d="M100,86.38 C100,98.77 100,112.38 100,125.8 " fill="none" id="org.apache.wiki.tags.WikiTagBase-backto-org.apache.wiki.tags.InsertPageTag" style="stroke:#A80036;stroke-width:1.0;"/><polygon fill="none" points="93,86.33,100,66.33,107,86.33,93,86.33" style="stroke:#A80036;stroke-width:1.0;"/><text fill="#888888" font-family="sans-serif" font-size="10" lengthAdjust="spacing" textLength="192" x="0" y="304.6572">UMLDoclet 2.0.15, PlantUML 1.2021.13</text><!--MD5=[003a20eb3c9b070bbb2ef738775ebbaf]
@startuml
    set namespaceSeparator none
    hide empty fields
    hide empty methods

    class "<size:14>InsertPageTag\n<size:10>org.apache.wiki.tags" as org.apache.wiki.tags.InsertPageTag [[InsertPageTag.html]] {
        {static} +HTML: int
        {static} +PLAIN: int
        #m_pageName: String
        +initTag(): void
        +setPage(String): void
        +getPage(): String
        +setMode(String): void
        +doWikiStartTag(): int
    }

    abstract class "<size:14>WikiTagBase\n<size:10>org.apache.wiki.tags" as org.apache.wiki.tags.WikiTagBase [[WikiTagBase.html]] {
        {abstract} +doWikiStartTag(): int
    }

    org.apache.wiki.tags.WikiTagBase <|- - org.apache.wiki.tags.InsertPageTag

    center footer UMLDoclet 2.0.15, PlantUML 1.2021.13
@enduml

PlantUML version 1.2021.13(Mon Nov 01 11:38:45 UTC 2021)
(APACHE source distribution)
Java Runtime: OpenJDK Runtime Environment
JVM: OpenJDK 64-Bit Server VM
Default Encoding: UTF-8
Language: en
Country: US
--></g></svg>