<?xml version="1.0" encoding="UTF-8" standalone="no"?><svg xmlns="http://www.w3.org/2000/svg" xmlns:xlink="http://www.w3.org/1999/xlink" contentScriptType="application/ecmascript" contentStyleType="text/css" height="350px" preserveAspectRatio="none" style="width:687px;height:350px;" version="1.1" viewBox="0 0 687 350" width="687px" zoomAndPan="magnify"><defs><filter height="300%" id="f1m59ks4lnde75" width="300%" x="-1" y="-1"><feGaussianBlur result="blurOut" stdDeviation="2.0"/><feColorMatrix in="blurOut" result="blurOut2" type="matrix" values="0 0 0 0 0 0 0 0 0 0 0 0 0 0 0 0 0 0 .4 0"/><feOffset dx="4.0" dy="4.0" in="blurOut2" result="blurOut3"/><feBlend in="SourceGraphic" in2="blurOut3" mode="normal"/></filter></defs><g><!--cluster org.apache.wiki.api.plugin--><polygon fill="#FFFFFF" filter="url(#f1m59ks4lnde75)" points="14,16,226,16,233,38.2969,665,38.2969,665,310,14,310,14,16" style="stroke: #000000; stroke-width: 1.5;"/><line style="stroke: #000000; stroke-width: 1.5;" x1="14" x2="233" y1="38.2969" y2="38.2969"/><text fill="#000000" font-family="sans-serif" font-size="14" font-weight="bold" lengthAdjust="spacingAndGlyphs" textLength="206" x="18" y="30.9951">org.apache.wiki.api.plugin</text><!--class org.apache.wiki.api.plugin.PluginElement--><a href="PluginElement.html" target="_top" xlink:actuate="onRequest" xlink:show="new" xlink:title="PluginElement.html" xlink:type="simple"><rect fill="#FEFECE" filter="url(#f1m59ks4lnde75)" height="137.6328" id="org.apache.wiki.api.plugin.PluginElement" style="stroke: #A80036; stroke-width: 1.5;" width="241" x="70.5" y="43"/><ellipse cx="142.75" cy="59" fill="#B4A7E5" rx="11" ry="11" style="stroke: #A80036; stroke-width: 1.0;"/><path d="M138.6719,54.7656 L138.6719,52.6094 L146.0625,52.6094 L146.0625,54.7656 L143.5938,54.7656 L143.5938,62.8438 L146.0625,62.8438 L146.0625,65 L138.6719,65 L138.6719,62.8438 L141.1406,62.8438 L141.1406,54.7656 L138.6719,54.7656 Z "/><text fill="#000000" font-family="sans-serif" font-size="12" font-style="italic" lengthAdjust="spacingAndGlyphs" textLength="88" x="163.25" y="63.1543">PluginElement</text><line style="stroke: #A80036; stroke-width: 1.5;" x1="71.5" x2="310.5" y1="75" y2="75"/><line style="stroke: #A80036; stroke-width: 1.5;" x1="71.5" x2="310.5" y1="83" y2="83"/><ellipse cx="81.5" cy="94.9023" fill="#84BE84" rx="3" ry="3" style="stroke: #038048; stroke-width: 1.0;"/><text fill="#000000" font-family="sans-serif" font-size="11" font-style="italic" lengthAdjust="spacingAndGlyphs" textLength="134" x="90.5" y="97.2104">getPluginName(): String</text><ellipse cx="81.5" cy="107.707" fill="#84BE84" rx="3" ry="3" style="stroke: #038048; stroke-width: 1.0;"/><text fill="#000000" font-family="sans-serif" font-size="11" font-style="italic" lengthAdjust="spacingAndGlyphs" textLength="160" x="90.5" y="110.0151">getParameter(String): String</text><ellipse cx="81.5" cy="120.5117" fill="#84BE84" rx="3" ry="3" style="stroke: #038048; stroke-width: 1.0;"/><text fill="#000000" font-family="sans-serif" font-size="11" font-style="italic" lengthAdjust="spacingAndGlyphs" textLength="215" x="90.5" y="122.8198">getParameters(): Map&lt;String, String&gt;</text><ellipse cx="81.5" cy="133.3164" fill="#84BE84" rx="3" ry="3" style="stroke: #038048; stroke-width: 1.0;"/><text fill="#000000" font-family="sans-serif" font-size="11" font-style="italic" lengthAdjust="spacingAndGlyphs" textLength="99" x="90.5" y="135.6245">getValue(): String</text><ellipse cx="81.5" cy="146.1211" fill="#84BE84" rx="3" ry="3" style="stroke: #038048; stroke-width: 1.0;"/><text fill="#000000" font-family="sans-serif" font-size="11" font-style="italic" lengthAdjust="spacingAndGlyphs" textLength="92" x="90.5" y="148.4292">getText(): String</text><ellipse cx="81.5" cy="158.9258" fill="#84BE84" rx="3" ry="3" style="stroke: #038048; stroke-width: 1.0;"/><text fill="#000000" font-family="sans-serif" font-size="11" font-style="italic" lengthAdjust="spacingAndGlyphs" textLength="153" x="90.5" y="161.2339">invoke(WikiContext): String</text><ellipse cx="81.5" cy="171.7305" fill="#84BE84" rx="3" ry="3" style="stroke: #038048; stroke-width: 1.0;"/><text fill="#000000" font-family="sans-serif" font-size="11" font-style="italic" lengthAdjust="spacingAndGlyphs" textLength="184" x="90.5" y="174.0386">executeParse(WikiContext): void</text></a><!--class org.apache.wiki.api.plugin.WikiPlugin--><a href="WikiPlugin.html" target="_top" xlink:actuate="onRequest" xlink:show="new" xlink:title="WikiPlugin.html" xlink:type="simple"><rect fill="#FEFECE" filter="url(#f1m59ks4lnde75)" height="73.6094" id="org.apache.wiki.api.plugin.WikiPlugin" style="stroke: #A80036; stroke-width: 1.5;" width="310" x="347" y="75"/><ellipse cx="466.75" cy="91" fill="#B4A7E5" rx="11" ry="11" style="stroke: #A80036; stroke-width: 1.0;"/><path d="M462.6719,86.7656 L462.6719,84.6094 L470.0625,84.6094 L470.0625,86.7656 L467.5938,86.7656 L467.5938,94.8438 L470.0625,94.8438 L470.0625,97 L462.6719,97 L462.6719,94.8438 L465.1406,94.8438 L465.1406,86.7656 L462.6719,86.7656 Z "/><text fill="#000000" font-family="sans-serif" font-size="12" font-style="italic" lengthAdjust="spacingAndGlyphs" textLength="62" x="487.25" y="95.1543">WikiPlugin</text><line style="stroke: #A80036; stroke-width: 1.5;" x1="348" x2="656" y1="107" y2="107"/><ellipse cx="358" cy="118.9023" fill="none" rx="3" ry="3" style="stroke: #038048; stroke-width: 1.0;"/><text fill="#000000" font-family="sans-serif" font-size="11" lengthAdjust="spacingAndGlyphs" text-decoration="underline" textLength="240" x="367" y="121.2104">CORE_PLUGINS_RESOURCEBUNDLE: String</text><line style="stroke: #A80036; stroke-width: 1.5;" x1="348" x2="656" y1="127.8047" y2="127.8047"/><ellipse cx="358" cy="139.707" fill="#84BE84" rx="3" ry="3" style="stroke: #038048; stroke-width: 1.0;"/><text fill="#000000" font-family="sans-serif" font-size="11" font-style="italic" lengthAdjust="spacingAndGlyphs" textLength="284" x="367" y="142.0151">execute(WikiContext, Map&lt;String, String&gt;): String</text></a><!--class org.apache.wiki.api.plugin.ParserStagePlugin--><a href="ParserStagePlugin.html" target="_top" xlink:actuate="onRequest" xlink:show="new" xlink:title="ParserStagePlugin.html" xlink:type="simple"><rect fill="#FEFECE" filter="url(#f1m59ks4lnde75)" height="60.8047" id="org.apache.wiki.api.plugin.ParserStagePlugin" style="stroke: #A80036; stroke-width: 1.5;" width="426" x="22" y="241"/><ellipse cx="174.25" cy="257" fill="#B4A7E5" rx="11" ry="11" style="stroke: #A80036; stroke-width: 1.0;"/><path d="M170.1719,252.7656 L170.1719,250.6094 L177.5625,250.6094 L177.5625,252.7656 L175.0938,252.7656 L175.0938,260.8438 L177.5625,260.8438 L177.5625,263 L170.1719,263 L170.1719,260.8438 L172.6406,260.8438 L172.6406,252.7656 L170.1719,252.7656 Z "/><text fill="#000000" font-family="sans-serif" font-size="12" font-style="italic" lengthAdjust="spacingAndGlyphs" textLength="113" x="194.75" y="261.1543">ParserStagePlugin</text><line style="stroke: #A80036; stroke-width: 1.5;" x1="23" x2="447" y1="273" y2="273"/><line style="stroke: #A80036; stroke-width: 1.5;" x1="23" x2="447" y1="281" y2="281"/><ellipse cx="33" cy="292.9023" fill="#84BE84" rx="3" ry="3" style="stroke: #038048; stroke-width: 1.0;"/><text fill="#000000" font-family="sans-serif" font-size="11" font-style="italic" lengthAdjust="spacingAndGlyphs" textLength="400" x="42" y="295.2104">executeParser(PluginElement, WikiContext, Map&lt;String, String&gt;): void</text></a><!--class org.apache.wiki.api.plugin.InitializablePlugin--><a href="InitializablePlugin.html" target="_top" xlink:actuate="onRequest" xlink:show="new" xlink:title="InitializablePlugin.html" xlink:type="simple"><rect fill="#FEFECE" filter="url(#f1m59ks4lnde75)" height="60.8047" id="org.apache.wiki.api.plugin.InitializablePlugin" style="stroke: #A80036; stroke-width: 1.5;" width="173" x="483.5" y="241"/><ellipse cx="513.8" cy="257" fill="#B4A7E5" rx="11" ry="11" style="stroke: #A80036; stroke-width: 1.0;"/><path d="M509.7219,252.7656 L509.7219,250.6094 L517.1125,250.6094 L517.1125,252.7656 L514.6438,252.7656 L514.6438,260.8438 L517.1125,260.8438 L517.1125,263 L509.7219,263 L509.7219,260.8438 L512.1906,260.8438 L512.1906,252.7656 L509.7219,252.7656 Z "/><text fill="#000000" font-family="sans-serif" font-size="12" font-style="italic" lengthAdjust="spacingAndGlyphs" textLength="107" x="531.2" y="261.1543">InitializablePlugin</text><line style="stroke: #A80036; stroke-width: 1.5;" x1="484.5" x2="655.5" y1="273" y2="273"/><line style="stroke: #A80036; stroke-width: 1.5;" x1="484.5" x2="655.5" y1="281" y2="281"/><ellipse cx="494.5" cy="292.9023" fill="#84BE84" rx="3" ry="3" style="stroke: #038048; stroke-width: 1.0;"/><text fill="#000000" font-family="sans-serif" font-size="11" font-style="italic" lengthAdjust="spacingAndGlyphs" textLength="147" x="503.5" y="295.2104">initialize(WikiEngine): void</text></a><!--link org.apache.wiki.api.plugin.PluginElement to org.apache.wiki.api.plugin.WikiPlugin--><!--link org.apache.wiki.api.plugin.PluginElement to org.apache.wiki.api.plugin.ParserStagePlugin--><!--link org.apache.wiki.api.plugin.ParserStagePlugin to org.apache.wiki.api.plugin.InitializablePlugin--><text fill="#888888" font-family="sans-serif" font-size="10" lengthAdjust="spacingAndGlyphs" textLength="186" x="252.5" y="337.2822">UMLDoclet 1.1.4, PlantUML 1.2019.05</text><!--
@startuml

    namespace org.apache.wiki.api.plugin {

        interface PluginElement [[PluginElement.html]] {
            {abstract} +getPluginName(): String
            {abstract} +getParameter(String): String
            {abstract} +getParameters(): Map<String, String>
            {abstract} +getValue(): String
            {abstract} +getText(): String
            {abstract} +invoke(WikiContext): String
            {abstract} +executeParse(WikiContext): void
        }

        interface WikiPlugin [[WikiPlugin.html]] {
            {static} +CORE_PLUGINS_RESOURCEBUNDLE: String
            {abstract} +execute(WikiContext, Map<String, String>): String
        }

        interface ParserStagePlugin [[ParserStagePlugin.html]] {
            {abstract} +executeParser(PluginElement, WikiContext, Map<String, String>): void
        }

        interface InitializablePlugin [[InitializablePlugin.html]] {
            {abstract} +initialize(WikiEngine): void
        }

    }


    center footer UMLDoclet 1.1.4, PlantUML 1.2019.05
@enduml

PlantUML version 1.2019.05(Sat Apr 20 16:45:36 UTC 2019)
(APACHE source distribution)
Java Runtime: Java(TM) SE Runtime Environment
JVM: Java HotSpot(TM) 64-Bit Server VM
Java Version: 1.8.0_191-b12
Operating System: Linux
OS Version: 4.15.0-76-generic
Default Encoding: ISO-8859-1
Language: en
Country: US
--></g></svg>