<?xml version="1.0" encoding="UTF-8" standalone="no"?><svg xmlns="http://www.w3.org/2000/svg" xmlns:xlink="http://www.w3.org/1999/xlink" contentScriptType="application/ecmascript" contentStyleType="text/css" height="337px" preserveAspectRatio="none" style="width:298px;height:337px;" version="1.1" viewBox="0 0 298 337" width="298px" zoomAndPan="magnify"><defs><filter height="300%" id="f1dk1fkei11jpj" width="300%" x="-1" y="-1"><feGaussianBlur result="blurOut" stdDeviation="2.0"/><feColorMatrix in="blurOut" result="blurOut2" type="matrix" values="0 0 0 0 0 0 0 0 0 0 0 0 0 0 0 0 0 0 .4 0"/><feOffset dx="4.0" dy="4.0" in="blurOut2" result="blurOut3"/><feBlend in="SourceGraphic" in2="blurOut3" mode="normal"/></filter></defs><g><!--cluster LinkParser--><polygon fill="#FFFFFF" filter="url(#f1dk1fkei11jpj)" points="22,24,112,24,119,46.2969,276,46.2969,276,289,22,289,22,24" style="stroke: #000000; stroke-width: 1.5;"/><line style="stroke: #000000; stroke-width: 1.5;" x1="22" x2="119" y1="46.2969" y2="46.2969"/><text fill="#000000" font-family="sans-serif" font-size="14" font-weight="bold" lengthAdjust="spacingAndGlyphs" textLength="84" x="26" y="38.9951">LinkParser</text><!--class LinkParser.Link--><a href="LinkParser.Link.html" target="_top" xlink:actuate="onRequest" xlink:show="new" xlink:title="LinkParser.Link.html" xlink:type="simple"><rect fill="#FEFECE" filter="url(#f1dk1fkei11jpj)" height="214.4609" id="LinkParser.Link" style="stroke: #A80036; stroke-width: 1.5;" width="223" x="37.5" y="59"/><ellipse cx="132.75" cy="75" fill="#ADD1B2" rx="11" ry="11" style="stroke: #A80036; stroke-width: 1.0;"/><path d="M135.7188,80.6406 Q135.1406,80.9375 134.5,81.0859 Q133.8594,81.2344 133.1563,81.2344 Q130.6563,81.2344 129.3359,79.5859 Q128.0156,77.9375 128.0156,74.8125 Q128.0156,71.6875 129.3359,70.0313 Q130.6563,68.375 133.1563,68.375 Q133.8594,68.375 134.5078,68.5313 Q135.1563,68.6875 135.7188,68.9844 L135.7188,71.7031 Q135.0938,71.125 134.5,70.8516 Q133.9063,70.5781 133.2813,70.5781 Q131.9375,70.5781 131.25,71.6484 Q130.5625,72.7188 130.5625,74.8125 Q130.5625,76.9063 131.25,77.9766 Q131.9375,79.0469 133.2813,79.0469 Q133.9063,79.0469 134.5,78.7734 Q135.0938,78.5 135.7188,77.9219 L135.7188,80.6406 Z "/><text fill="#000000" font-family="sans-serif" font-size="12" lengthAdjust="spacingAndGlyphs" textLength="24" x="153.25" y="79.1543">Link</text><line style="stroke: #A80036; stroke-width: 1.5;" x1="38.5" x2="259.5" y1="91" y2="91"/><line style="stroke: #A80036; stroke-width: 1.5;" x1="38.5" x2="259.5" y1="99" y2="99"/><polygon fill="#FFFF44" points="48.5,105.9023,52.5,109.9023,48.5,113.9023,44.5,109.9023" style="stroke: #B38D22; stroke-width: 1.0;"/><text fill="#000000" font-family="sans-serif" font-size="11" lengthAdjust="spacingAndGlyphs" textLength="64" x="57.5" y="113.2104">Link(String)</text><polygon fill="#FFFF44" points="48.5,118.707,52.5,122.707,48.5,126.707,44.5,122.707" style="stroke: #B38D22; stroke-width: 1.0;"/><text fill="#000000" font-family="sans-serif" font-size="11" lengthAdjust="spacingAndGlyphs" textLength="106" x="57.5" y="126.0151">Link(String, String)</text><polygon fill="#FFFF44" points="48.5,131.5117,52.5,135.5117,48.5,139.5117,44.5,135.5117" style="stroke: #B38D22; stroke-width: 1.0;"/><text fill="#000000" font-family="sans-serif" font-size="11" lengthAdjust="spacingAndGlyphs" textLength="115" x="57.5" y="138.8198">setText(String): void</text><ellipse cx="48.5" cy="149.3164" fill="#84BE84" rx="3" ry="3" style="stroke: #038048; stroke-width: 1.0;"/><text fill="#000000" font-family="sans-serif" font-size="11" lengthAdjust="spacingAndGlyphs" textLength="92" x="57.5" y="151.6245">getText(): String</text><polygon fill="#FFFF44" points="48.5,157.1211,52.5,161.1211,48.5,165.1211,44.5,161.1211" style="stroke: #B38D22; stroke-width: 1.0;"/><text fill="#000000" font-family="sans-serif" font-size="11" lengthAdjust="spacingAndGlyphs" textLength="148" x="57.5" y="164.4292">setReference(String): void</text><ellipse cx="48.5" cy="174.9258" fill="#84BE84" rx="3" ry="3" style="stroke: #038048; stroke-width: 1.0;"/><text fill="#000000" font-family="sans-serif" font-size="11" lengthAdjust="spacingAndGlyphs" textLength="139" x="57.5" y="177.2339">hasReference(): boolean</text><ellipse cx="48.5" cy="187.7305" fill="#84BE84" rx="3" ry="3" style="stroke: #038048; stroke-width: 1.0;"/><text fill="#000000" font-family="sans-serif" font-size="11" lengthAdjust="spacingAndGlyphs" textLength="125" x="57.5" y="190.0386">getReference(): String</text><ellipse cx="48.5" cy="200.5352" fill="#84BE84" rx="3" ry="3" style="stroke: #038048; stroke-width: 1.0;"/><text fill="#000000" font-family="sans-serif" font-size="11" lengthAdjust="spacingAndGlyphs" textLength="140" x="57.5" y="202.8433">isInterwikiLink(): boolean</text><ellipse cx="48.5" cy="213.3398" fill="#84BE84" rx="3" ry="3" style="stroke: #038048; stroke-width: 1.0;"/><text fill="#000000" font-family="sans-serif" font-size="11" lengthAdjust="spacingAndGlyphs" textLength="135" x="57.5" y="215.6479">getExternalWiki(): String</text><ellipse cx="48.5" cy="226.1445" fill="#84BE84" rx="3" ry="3" style="stroke: #038048; stroke-width: 1.0;"/><text fill="#000000" font-family="sans-serif" font-size="11" lengthAdjust="spacingAndGlyphs" textLength="163" x="57.5" y="228.4526">getExternalWikiPage(): String</text><ellipse cx="48.5" cy="238.9492" fill="#84BE84" rx="3" ry="3" style="stroke: #038048; stroke-width: 1.0;"/><text fill="#000000" font-family="sans-serif" font-size="11" lengthAdjust="spacingAndGlyphs" textLength="111" x="57.5" y="241.2573">attributeCount(): int</text><ellipse cx="48.5" cy="251.7539" fill="#84BE84" rx="3" ry="3" style="stroke: #038048; stroke-width: 1.0;"/><text fill="#000000" font-family="sans-serif" font-size="11" lengthAdjust="spacingAndGlyphs" textLength="156" x="57.5" y="254.062">addAttribute(Attribute): void</text><ellipse cx="48.5" cy="264.5586" fill="#84BE84" rx="3" ry="3" style="stroke: #038048; stroke-width: 1.0;"/><text fill="#000000" font-family="sans-serif" font-size="11" lengthAdjust="spacingAndGlyphs" textLength="197" x="57.5" y="266.8667">getAttributes(): Iterator&lt;Attribute&gt;</text></a><text fill="#888888" font-family="sans-serif" font-size="10" lengthAdjust="spacingAndGlyphs" textLength="186" x="62" y="324.2822">UMLDoclet 1.1.4, PlantUML 1.2019.05</text><!--
@startuml

    class LinkParser.Link [[LinkParser.Link.html]] {
        #Link(String)
        #Link(String, String)
        #setText(String): void
        +getText(): String
        #setReference(String): void
        +hasReference(): boolean
        +getReference(): String
        +isInterwikiLink(): boolean
        +getExternalWiki(): String
        +getExternalWikiPage(): String
        +attributeCount(): int
        +addAttribute(Attribute): void
        +getAttributes(): Iterator<Attribute>
    }


    center footer UMLDoclet 1.1.4, PlantUML 1.2019.05
@enduml

PlantUML version 1.2019.05(Sat Apr 20 16:45:36 UTC 2019)
(APACHE source distribution)
Java Runtime: Java(TM) SE Runtime Environment
JVM: Java HotSpot(TM) 64-Bit Server VM
Java Version: 1.8.0_191-b12
Operating System: Linux
OS Version: 4.4.0-137-generic
Default Encoding: ISO-8859-1
Language: en
Country: US
--></g></svg>