<?xml version="1.0" encoding="UTF-8" standalone="no"?><svg xmlns="http://www.w3.org/2000/svg" xmlns:xlink="http://www.w3.org/1999/xlink" contentScriptType="application/ecmascript" contentStyleType="text/css" height="126px" preserveAspectRatio="none" style="width:198px;height:126px;" version="1.1" viewBox="0 0 198 126" width="198px" zoomAndPan="magnify"><defs><filter height="300%" id="f8hpjla32nx4q" width="300%" x="-1" y="-1"><feGaussianBlur result="blurOut" stdDeviation="2.0"/><feColorMatrix in="blurOut" result="blurOut2" type="matrix" values="0 0 0 0 0 0 0 0 0 0 0 0 0 0 0 0 0 0 .4 0"/><feOffset dx="4.0" dy="4.0" in="blurOut2" result="blurOut3"/><feBlend in="SourceGraphic" in2="blurOut3" mode="normal"/></filter></defs><g><!--class VariableContent--><a href="VariableContent.html" target="_top" xlink:actuate="onRequest" xlink:show="new" xlink:title="VariableContent.html" xlink:type="simple"><rect fill="#FEFECE" filter="url(#f8hpjla32nx4q)" height="86.4141" id="VariableContent" style="stroke: #A80036; stroke-width: 1.5;" width="158" x="8" y="8"/><ellipse cx="34.25" cy="24" fill="#ADD1B2" rx="11" ry="11" style="stroke: #A80036; stroke-width: 1.0;"/><path d="M37.2188,29.6406 Q36.6406,29.9375 36,30.0859 Q35.3594,30.2344 34.6563,30.2344 Q32.1563,30.2344 30.8359,28.5859 Q29.5156,26.9375 29.5156,23.8125 Q29.5156,20.6875 30.8359,19.0313 Q32.1563,17.375 34.6563,17.375 Q35.3594,17.375 36.0078,17.5313 Q36.6563,17.6875 37.2188,17.9844 L37.2188,20.7031 Q36.5938,20.125 36,19.8516 Q35.4063,19.5781 34.7813,19.5781 Q33.4375,19.5781 32.75,20.6484 Q32.0625,21.7188 32.0625,23.8125 Q32.0625,25.9063 32.75,26.9766 Q33.4375,28.0469 34.7813,28.0469 Q35.4063,28.0469 36,27.7734 Q36.5938,27.5 37.2188,26.9219 L37.2188,29.6406 Z "/><text fill="#000000" font-family="sans-serif" font-size="12" lengthAdjust="spacingAndGlyphs" textLength="101" x="50.75" y="28.1543">VariableContent</text><line style="stroke: #A80036; stroke-width: 1.5;" x1="9" x2="165" y1="40" y2="40"/><line style="stroke: #A80036; stroke-width: 1.5;" x1="9" x2="165" y1="48" y2="48"/><ellipse cx="19" cy="59.9023" fill="#84BE84" rx="3" ry="3" style="stroke: #038048; stroke-width: 1.0;"/><text fill="#000000" font-family="sans-serif" font-size="11" lengthAdjust="spacingAndGlyphs" textLength="132" x="28" y="62.2104">VariableContent(String)</text><ellipse cx="19" cy="72.707" fill="#84BE84" rx="3" ry="3" style="stroke: #038048; stroke-width: 1.0;"/><text fill="#000000" font-family="sans-serif" font-size="11" lengthAdjust="spacingAndGlyphs" textLength="99" x="28" y="75.0151">getValue(): String</text><ellipse cx="19" cy="85.5117" fill="#84BE84" rx="3" ry="3" style="stroke: #038048; stroke-width: 1.0;"/><text fill="#000000" font-family="sans-serif" font-size="11" lengthAdjust="spacingAndGlyphs" textLength="92" x="28" y="87.8198">getText(): String</text></a><text fill="#888888" font-family="sans-serif" font-size="10" lengthAdjust="spacingAndGlyphs" textLength="186" x="0" y="113.2822">UMLDoclet 1.1.4, PlantUML 1.2019.05</text><!--
@startuml

    class VariableContent [[VariableContent.html]] {
        +VariableContent(String)
        +getValue(): String
        +getText(): String
    }


    center footer UMLDoclet 1.1.4, PlantUML 1.2019.05
@enduml

PlantUML version 1.2019.05(Sat Apr 20 16:45:36 UTC 2019)
(APACHE source distribution)
Java Runtime: Java(TM) SE Runtime Environment
JVM: Java HotSpot(TM) 64-Bit Server VM
Java Version: 1.8.0_241-b07
Operating System: Linux
OS Version: 4.15.0-74-generic
Default Encoding: ISO-8859-1
Language: en
Country: US
--></g></svg>