<?xml version="1.0" encoding="UTF-8" standalone="no"?><svg xmlns="http://www.w3.org/2000/svg" xmlns:xlink="http://www.w3.org/1999/xlink" contentScriptType="application/ecmascript" contentStyleType="text/css" height="131px" preserveAspectRatio="none" style="width:236px;height:131px;" version="1.1" viewBox="0 0 236 131" width="236px" zoomAndPan="magnify"><defs><filter height="300%" id="f1fg6prige9ahg" width="300%" x="-1" y="-1"><feGaussianBlur result="blurOut" stdDeviation="2.0"/><feColorMatrix in="blurOut" result="blurOut2" type="matrix" values="0 0 0 0 0 0 0 0 0 0 0 0 0 0 0 0 0 0 .4 0"/><feOffset dx="4.0" dy="4.0" in="blurOut2" result="blurOut3"/><feBlend in="SourceGraphic" in2="blurOut3" mode="normal"/></filter></defs><g><!--class CreoleFilter--><a href="CreoleFilter.html" target="_top" xlink:actuate="onRequest" xlink:show="new" xlink:title="CreoleFilter.html" xlink:type="simple"><rect fill="#FEFECE" filter="url(#f1fg6prige9ahg)" height="89.5078" id="CreoleFilter" style="stroke: #A80036; stroke-width: 1.5;" width="219" x="6" y="8"/><ellipse cx="79.25" cy="24" fill="#ADD1B2" rx="11" ry="11" style="stroke: #A80036; stroke-width: 1.0;"/><path d="M82.0156,19.875 Q82.1719,19.6563 82.3594,19.5469 Q82.5469,19.4375 82.7656,19.4375 Q83.1406,19.4375 83.375,19.6953 Q83.6094,19.9531 83.6094,20.5625 L83.6094,22.0156 Q83.6094,22.625 83.375,22.8906 Q83.1406,23.1563 82.7656,23.1563 Q82.4219,23.1563 82.2188,22.9531 Q82.0156,22.7656 81.9063,22.25 Q81.8594,21.8906 81.6719,21.7031 Q81.3438,21.3281 80.7344,21.1094 Q80.125,20.8906 79.5,20.8906 Q78.7344,20.8906 78.1016,21.2188 Q77.4688,21.5469 76.9766,22.2969 Q76.4844,23.0469 76.4844,24.0781 L76.4844,25.1719 Q76.4844,26.4063 77.375,27.2266 Q78.2656,28.0469 79.8594,28.0469 Q80.7969,28.0469 81.4531,27.7969 Q81.8438,27.6406 82.2656,27.2031 Q82.5313,26.9375 82.6797,26.8594 Q82.8281,26.7813 83.0313,26.7813 Q83.3594,26.7813 83.6172,27.0391 Q83.875,27.2969 83.875,27.6406 Q83.875,27.9844 83.5313,28.3906 Q83.0313,28.9688 82.2344,29.2969 Q81.1563,29.75 79.8594,29.75 Q78.3438,29.75 77.1406,29.125 Q76.1563,28.625 75.4688,27.5547 Q74.7813,26.4844 74.7813,25.2031 L74.7813,24.0469 Q74.7813,22.7188 75.3984,21.5703 Q76.0156,20.4219 77.1094,19.8047 Q78.2031,19.1875 79.4375,19.1875 Q80.1719,19.1875 80.8203,19.3516 Q81.4688,19.5156 82.0156,19.875 Z "/><text fill="#000000" font-family="sans-serif" font-size="12" lengthAdjust="spacingAndGlyphs" textLength="64" x="99.75" y="28.9102">CreoleFilter</text><line style="stroke: #A80036; stroke-width: 1.5;" x1="7" x2="224" y1="40" y2="40"/><line style="stroke: #A80036; stroke-width: 1.5;" x1="7" x2="224" y1="48" y2="48"/><ellipse cx="17" cy="60.418" fill="#84BE84" rx="3" ry="3" style="stroke: #038048; stroke-width: 1.0;"/><text fill="#000000" font-family="sans-serif" font-size="11" lengthAdjust="spacingAndGlyphs" textLength="177" x="26" y="63.4189">initialize(WikiEngine, Properties): void</text><ellipse cx="17" cy="74.2539" fill="#84BE84" rx="3" ry="3" style="stroke: #038048; stroke-width: 1.0;"/><text fill="#000000" font-family="sans-serif" font-size="11" lengthAdjust="spacingAndGlyphs" textLength="173" x="26" y="77.2549">preSave(WikiContext, String): String</text><ellipse cx="17" cy="88.0898" fill="#84BE84" rx="3" ry="3" style="stroke: #038048; stroke-width: 1.0;"/><text fill="#000000" font-family="sans-serif" font-size="11" lengthAdjust="spacingAndGlyphs" textLength="193" x="26" y="91.0908">preTranslate(WikiContext, String): String</text></a><text fill="#888888" font-family="sans-serif" font-size="10" lengthAdjust="spacingAndGlyphs" textLength="184" x="29.5" y="118.3809">UMLDoclet 1.1.4, PlantUML 1.2019.05</text><!--
@startuml

    class CreoleFilter [[CreoleFilter.html]] {
        +initialize(WikiEngine, Properties): void
        +preSave(WikiContext, String): String
        +preTranslate(WikiContext, String): String
    }


    center footer UMLDoclet 1.1.4, PlantUML 1.2019.05
@enduml

PlantUML version 1.2019.05(Sat Apr 20 18:45:36 CEST 2019)
(APACHE source distribution)
Java Runtime: OpenJDK Runtime Environment
JVM: OpenJDK 64-Bit Server VM
Java Version: 1.8.0_212-b03
Operating System: Windows 10
OS Version: 10.0
Default Encoding: Cp1252
Language: es
Country: ES
--></g></svg>