<?xml version="1.0" encoding="UTF-8" standalone="no"?><svg xmlns="http://www.w3.org/2000/svg" xmlns:xlink="http://www.w3.org/1999/xlink" contentScriptType="application/ecmascript" contentStyleType="text/css" height="692px" preserveAspectRatio="none" style="width:1414px;height:692px;" version="1.1" viewBox="0 0 1414 692" width="1414px" zoomAndPan="magnify"><defs><filter height="300%" id="f1p1fgebbld5cf" width="300%" x="-1" y="-1"><feGaussianBlur result="blurOut" stdDeviation="2.0"/><feColorMatrix in="blurOut" result="blurOut2" type="matrix" values="0 0 0 0 0 0 0 0 0 0 0 0 0 0 0 0 0 0 .4 0"/><feOffset dx="4.0" dy="4.0" in="blurOut2" result="blurOut3"/><feBlend in="SourceGraphic" in2="blurOut3" mode="normal"/></filter></defs><g><!--cluster org.apache.wiki.filters--><polygon fill="#FFFFFF" filter="url(#f1p1fgebbld5cf)" points="14,249,175,249,182,272.6094,1392,272.6094,1392,651,14,651,14,249" style="stroke: #000000; stroke-width: 1.5;"/><line style="stroke: #000000; stroke-width: 1.5;" x1="14" x2="182" y1="272.6094" y2="272.6094"/><text fill="#000000" font-family="sans-serif" font-size="14" font-weight="bold" lengthAdjust="spacingAndGlyphs" textLength="155" x="18" y="265.5332">org.apache.wiki.filters</text><!--cluster org.apache.wiki.api.filters--><polygon fill="#FFFFFF" filter="url(#f1p1fgebbld5cf)" points="403,78.5,589,78.5,596,102.1094,599,102.1094,599,162.5,403,162.5,403,78.5" style="stroke: #000000; stroke-width: 1.5;"/><line style="stroke: #000000; stroke-width: 1.5;" x1="403" x2="596" y1="102.1094" y2="102.1094"/><text fill="#000000" font-family="sans-serif" font-size="14" font-weight="bold" lengthAdjust="spacingAndGlyphs" textLength="180" x="407" y="95.0332">org.apache.wiki.api.filters</text><!--cluster org.apache.wiki.modules--><polygon fill="#FFFFFF" filter="url(#f1p1fgebbld5cf)" points="829,64.5,1009,64.5,1016,88.1094,1065,88.1094,1065,176.5,829,176.5,829,64.5" style="stroke: #000000; stroke-width: 1.5;"/><line style="stroke: #000000; stroke-width: 1.5;" x1="829" x2="1016" y1="88.1094" y2="88.1094"/><text fill="#000000" font-family="sans-serif" font-size="14" font-weight="bold" lengthAdjust="spacingAndGlyphs" textLength="174" x="833" y="81.0332">org.apache.wiki.modules</text><!--cluster org.apache.wiki.api.engine--><polygon fill="#FFFFFF" filter="url(#f1p1fgebbld5cf)" points="1084,16,1278,16,1285,39.6094,1388,39.6094,1388,225,1084,225,1084,16" style="stroke: #000000; stroke-width: 1.5;"/><line style="stroke: #000000; stroke-width: 1.5;" x1="1084" x2="1285" y1="39.6094" y2="39.6094"/><text fill="#000000" font-family="sans-serif" font-size="14" font-weight="bold" lengthAdjust="spacingAndGlyphs" textLength="188" x="1088" y="32.5332">org.apache.wiki.api.engine</text><!--class org.apache.wiki.filters.SpamFilter--><a href="SpamFilter.html" target="_top" xlink:actuate="onRequest" xlink:show="new" xlink:title="SpamFilter.html" xlink:type="simple"><rect fill="#FEFECE" filter="url(#f1p1fgebbld5cf)" height="366.2266" id="org.apache.wiki.filters.SpamFilter" style="stroke: #A80036; stroke-width: 1.5;" width="278" x="769" y="277"/><ellipse cx="873.75" cy="293" fill="#ADD1B2" rx="11" ry="11" style="stroke: #A80036; stroke-width: 1.0;"/><path d="M876.5156,288.875 Q876.6719,288.6563 876.8594,288.5469 Q877.0469,288.4375 877.2656,288.4375 Q877.6406,288.4375 877.875,288.6953 Q878.1094,288.9531 878.1094,289.5625 L878.1094,291.0156 Q878.1094,291.625 877.875,291.8906 Q877.6406,292.1563 877.2656,292.1563 Q876.9219,292.1563 876.7188,291.9531 Q876.5156,291.7656 876.4063,291.25 Q876.3594,290.8906 876.1719,290.7031 Q875.8438,290.3281 875.2344,290.1094 Q874.625,289.8906 874,289.8906 Q873.2344,289.8906 872.6016,290.2188 Q871.9688,290.5469 871.4766,291.2969 Q870.9844,292.0469 870.9844,293.0781 L870.9844,294.1719 Q870.9844,295.4063 871.875,296.2266 Q872.7656,297.0469 874.3594,297.0469 Q875.2969,297.0469 875.9531,296.7969 Q876.3438,296.6406 876.7656,296.2031 Q877.0313,295.9375 877.1797,295.8594 Q877.3281,295.7813 877.5313,295.7813 Q877.8594,295.7813 878.1172,296.0391 Q878.375,296.2969 878.375,296.6406 Q878.375,296.9844 878.0313,297.3906 Q877.5313,297.9688 876.7344,298.2969 Q875.6563,298.75 874.3594,298.75 Q872.8438,298.75 871.6406,298.125 Q870.6563,297.625 869.9688,296.5547 Q869.2813,295.4844 869.2813,294.2031 L869.2813,293.0469 Q869.2813,291.7188 869.8984,290.5703 Q870.5156,289.4219 871.6094,288.8047 Q872.7031,288.1875 873.9375,288.1875 Q874.6719,288.1875 875.3203,288.3516 Q875.9688,288.5156 876.5156,288.875 Z "/><text fill="#000000" font-family="sans-serif" font-size="12" lengthAdjust="spacingAndGlyphs" textLength="60" x="894.25" y="297.9102">SpamFilter</text><line style="stroke: #A80036; stroke-width: 1.5;" x1="770" x2="1046" y1="309" y2="309"/><ellipse cx="780" cy="321.418" fill="none" rx="3" ry="3" style="stroke: #038048; stroke-width: 1.0;"/><text fill="#000000" font-family="sans-serif" font-size="11" lengthAdjust="spacingAndGlyphs" text-decoration="underline" textLength="120" x="789" y="324.4189">PROP_WORDLIST: String</text><ellipse cx="780" cy="335.2539" fill="none" rx="3" ry="3" style="stroke: #038048; stroke-width: 1.0;"/><text fill="#000000" font-family="sans-serif" font-size="11" lengthAdjust="spacingAndGlyphs" text-decoration="underline" textLength="96" x="789" y="338.2549">PROP_IPLIST: String</text><ellipse cx="780" cy="349.0898" fill="none" rx="3" ry="3" style="stroke: #038048; stroke-width: 1.0;"/><text fill="#000000" font-family="sans-serif" font-size="11" lengthAdjust="spacingAndGlyphs" text-decoration="underline" textLength="199" x="789" y="352.0908">PROP_MAX_PAGENAME_LENGTH: String</text><ellipse cx="780" cy="362.9258" fill="none" rx="3" ry="3" style="stroke: #038048; stroke-width: 1.0;"/><text fill="#000000" font-family="sans-serif" font-size="11" lengthAdjust="spacingAndGlyphs" text-decoration="underline" textLength="130" x="789" y="365.9268">PROP_ERRORPAGE: String</text><ellipse cx="780" cy="376.7617" fill="none" rx="3" ry="3" style="stroke: #038048; stroke-width: 1.0;"/><text fill="#000000" font-family="sans-serif" font-size="11" lengthAdjust="spacingAndGlyphs" text-decoration="underline" textLength="145" x="789" y="379.7627">PROP_PAGECHANGES: String</text><ellipse cx="780" cy="390.5977" fill="none" rx="3" ry="3" style="stroke: #038048; stroke-width: 1.0;"/><text fill="#000000" font-family="sans-serif" font-size="11" lengthAdjust="spacingAndGlyphs" text-decoration="underline" textLength="157" x="789" y="393.5986">PROP_SIMILARCHANGES: String</text><ellipse cx="780" cy="404.4336" fill="none" rx="3" ry="3" style="stroke: #038048; stroke-width: 1.0;"/><text fill="#000000" font-family="sans-serif" font-size="11" lengthAdjust="spacingAndGlyphs" text-decoration="underline" textLength="111" x="789" y="407.4346">PROP_BANTIME: String</text><ellipse cx="780" cy="418.2695" fill="none" rx="3" ry="3" style="stroke: #038048; stroke-width: 1.0;"/><text fill="#000000" font-family="sans-serif" font-size="11" lengthAdjust="spacingAndGlyphs" text-decoration="underline" textLength="123" x="789" y="421.2705">PROP_BLACKLIST: String</text><ellipse cx="780" cy="432.1055" fill="none" rx="3" ry="3" style="stroke: #038048; stroke-width: 1.0;"/><text fill="#000000" font-family="sans-serif" font-size="11" lengthAdjust="spacingAndGlyphs" text-decoration="underline" textLength="117" x="789" y="435.1064">PROP_MAXURLS: String</text><ellipse cx="780" cy="445.9414" fill="none" rx="3" ry="3" style="stroke: #038048; stroke-width: 1.0;"/><text fill="#000000" font-family="sans-serif" font-size="11" lengthAdjust="spacingAndGlyphs" text-decoration="underline" textLength="160" x="789" y="448.9424">PROP_AKISMET_API_KEY: String</text><ellipse cx="780" cy="459.7773" fill="none" rx="3" ry="3" style="stroke: #038048; stroke-width: 1.0;"/><text fill="#000000" font-family="sans-serif" font-size="11" lengthAdjust="spacingAndGlyphs" text-decoration="underline" textLength="194" x="789" y="462.7783">PROP_IGNORE_AUTHENTICATED: String</text><ellipse cx="780" cy="473.6133" fill="none" rx="3" ry="3" style="stroke: #038048; stroke-width: 1.0;"/><text fill="#000000" font-family="sans-serif" font-size="11" lengthAdjust="spacingAndGlyphs" text-decoration="underline" textLength="116" x="789" y="476.6143">PROP_CAPTCHA: String</text><ellipse cx="780" cy="487.4492" fill="none" rx="3" ry="3" style="stroke: #038048; stroke-width: 1.0;"/><text fill="#000000" font-family="sans-serif" font-size="11" lengthAdjust="spacingAndGlyphs" text-decoration="underline" textLength="156" x="789" y="490.4502">PROP_FILTERSTRATEGY: String</text><ellipse cx="780" cy="501.2852" fill="none" rx="3" ry="3" style="stroke: #038048; stroke-width: 1.0;"/><text fill="#000000" font-family="sans-serif" font-size="11" lengthAdjust="spacingAndGlyphs" text-decoration="underline" textLength="131" x="789" y="504.2861">STRATEGY_EAGER: String</text><ellipse cx="780" cy="515.1211" fill="none" rx="3" ry="3" style="stroke: #038048; stroke-width: 1.0;"/><text fill="#000000" font-family="sans-serif" font-size="11" lengthAdjust="spacingAndGlyphs" text-decoration="underline" textLength="131" x="789" y="518.1221">STRATEGY_SCORE: String</text><line style="stroke: #A80036; stroke-width: 1.5;" x1="770" x2="1046" y1="524.5391" y2="524.5391"/><ellipse cx="780" cy="536.957" fill="#84BE84" rx="3" ry="3" style="stroke: #038048; stroke-width: 1.0;"/><text fill="#000000" font-family="sans-serif" font-size="11" lengthAdjust="spacingAndGlyphs" textLength="177" x="789" y="539.958">initialize(WikiEngine, Properties): void</text><ellipse cx="780" cy="550.793" fill="#84BE84" rx="3" ry="3" style="stroke: #038048; stroke-width: 1.0;"/><text fill="#000000" font-family="sans-serif" font-size="11" lengthAdjust="spacingAndGlyphs" textLength="173" x="789" y="553.7939">preSave(WikiContext, String): String</text><ellipse cx="780" cy="564.6289" fill="#84BE84" rx="3" ry="3" style="stroke: #038048; stroke-width: 1.0;"/><text fill="#000000" font-family="sans-serif" font-size="11" lengthAdjust="spacingAndGlyphs" text-decoration="underline" textLength="122" x="789" y="567.6299">getBotFieldName(): String</text><ellipse cx="780" cy="578.4648" fill="#84BE84" rx="3" ry="3" style="stroke: #038048; stroke-width: 1.0;"/><text fill="#000000" font-family="sans-serif" font-size="11" lengthAdjust="spacingAndGlyphs" textLength="252" x="789" y="581.4658">isValidUserProfile(WikiContext, UserProfile): boolean</text><ellipse cx="780" cy="592.3008" fill="#84BE84" rx="3" ry="3" style="stroke: #038048; stroke-width: 1.0;"/><text fill="#000000" font-family="sans-serif" font-size="11" lengthAdjust="spacingAndGlyphs" text-decoration="underline" textLength="251" x="789" y="595.3018">getSpamHash(WikiPage, HttpServletRequest): String</text><ellipse cx="780" cy="606.1367" fill="#84BE84" rx="3" ry="3" style="stroke: #038048; stroke-width: 1.0;"/><text fill="#000000" font-family="sans-serif" font-size="11" lengthAdjust="spacingAndGlyphs" text-decoration="underline" textLength="224" x="789" y="609.1377">getHashFieldName(HttpServletRequest): String</text><ellipse cx="780" cy="619.9727" fill="#84BE84" rx="3" ry="3" style="stroke: #038048; stroke-width: 1.0;"/><text fill="#000000" font-family="sans-serif" font-size="11" lengthAdjust="spacingAndGlyphs" text-decoration="underline" textLength="229" x="789" y="622.9736">checkHash(WikiContext, PageContext): boolean</text><ellipse cx="780" cy="633.8086" fill="#84BE84" rx="3" ry="3" style="stroke: #038048; stroke-width: 1.0;"/><text fill="#000000" font-family="sans-serif" font-size="11" lengthAdjust="spacingAndGlyphs" text-decoration="underline" textLength="181" x="789" y="636.8096">insertInputFields(PageContext): String</text></a><!--class org.apache.wiki.filters.ProfanityFilter--><a href="ProfanityFilter.html" target="_top" xlink:actuate="onRequest" xlink:show="new" xlink:title="ProfanityFilter.html" xlink:type="simple"><rect fill="#FEFECE" filter="url(#f1p1fgebbld5cf)" height="61.8359" id="org.apache.wiki.filters.ProfanityFilter" style="stroke: #A80036; stroke-width: 1.5;" width="219" x="514.5" y="429"/><ellipse cx="582.75" cy="445" fill="#ADD1B2" rx="11" ry="11" style="stroke: #A80036; stroke-width: 1.0;"/><path d="M585.5156,440.875 Q585.6719,440.6563 585.8594,440.5469 Q586.0469,440.4375 586.2656,440.4375 Q586.6406,440.4375 586.875,440.6953 Q587.1094,440.9531 587.1094,441.5625 L587.1094,443.0156 Q587.1094,443.625 586.875,443.8906 Q586.6406,444.1563 586.2656,444.1563 Q585.9219,444.1563 585.7188,443.9531 Q585.5156,443.7656 585.4063,443.25 Q585.3594,442.8906 585.1719,442.7031 Q584.8438,442.3281 584.2344,442.1094 Q583.625,441.8906 583,441.8906 Q582.2344,441.8906 581.6016,442.2188 Q580.9688,442.5469 580.4766,443.2969 Q579.9844,444.0469 579.9844,445.0781 L579.9844,446.1719 Q579.9844,447.4063 580.875,448.2266 Q581.7656,449.0469 583.3594,449.0469 Q584.2969,449.0469 584.9531,448.7969 Q585.3438,448.6406 585.7656,448.2031 Q586.0313,447.9375 586.1797,447.8594 Q586.3281,447.7813 586.5313,447.7813 Q586.8594,447.7813 587.1172,448.0391 Q587.375,448.2969 587.375,448.6406 Q587.375,448.9844 587.0313,449.3906 Q586.5313,449.9688 585.7344,450.2969 Q584.6563,450.75 583.3594,450.75 Q581.8438,450.75 580.6406,450.125 Q579.6563,449.625 578.9688,448.5547 Q578.2813,447.4844 578.2813,446.2031 L578.2813,445.0469 Q578.2813,443.7188 578.8984,442.5703 Q579.5156,441.4219 580.6094,440.8047 Q581.7031,440.1875 582.9375,440.1875 Q583.6719,440.1875 584.3203,440.3516 Q584.9688,440.5156 585.5156,440.875 Z "/><text fill="#000000" font-family="sans-serif" font-size="12" lengthAdjust="spacingAndGlyphs" textLength="74" x="603.25" y="449.9102">ProfanityFilter</text><line style="stroke: #A80036; stroke-width: 1.5;" x1="515.5" x2="732.5" y1="461" y2="461"/><line style="stroke: #A80036; stroke-width: 1.5;" x1="515.5" x2="732.5" y1="469" y2="469"/><ellipse cx="525.5" cy="481.418" fill="#84BE84" rx="3" ry="3" style="stroke: #038048; stroke-width: 1.0;"/><text fill="#000000" font-family="sans-serif" font-size="11" lengthAdjust="spacingAndGlyphs" textLength="193" x="534.5" y="484.4189">preTranslate(WikiContext, String): String</text></a><!--class org.apache.wiki.filters.PingWeblogsComFilter--><a href="PingWeblogsComFilter.html" target="_top" xlink:actuate="onRequest" xlink:show="new" xlink:title="PingWeblogsComFilter.html" xlink:type="simple"><rect fill="#FEFECE" filter="url(#f1p1fgebbld5cf)" height="89.5078" id="org.apache.wiki.filters.PingWeblogsComFilter" style="stroke: #A80036; stroke-width: 1.5;" width="203" x="276.5" y="415"/><ellipse cx="310.85" cy="431" fill="#ADD1B2" rx="11" ry="11" style="stroke: #A80036; stroke-width: 1.0;"/><path d="M313.6156,426.875 Q313.7719,426.6563 313.9594,426.5469 Q314.1469,426.4375 314.3656,426.4375 Q314.7406,426.4375 314.975,426.6953 Q315.2094,426.9531 315.2094,427.5625 L315.2094,429.0156 Q315.2094,429.625 314.975,429.8906 Q314.7406,430.1563 314.3656,430.1563 Q314.0219,430.1563 313.8188,429.9531 Q313.6156,429.7656 313.5063,429.25 Q313.4594,428.8906 313.2719,428.7031 Q312.9438,428.3281 312.3344,428.1094 Q311.725,427.8906 311.1,427.8906 Q310.3344,427.8906 309.7016,428.2188 Q309.0688,428.5469 308.5766,429.2969 Q308.0844,430.0469 308.0844,431.0781 L308.0844,432.1719 Q308.0844,433.4063 308.975,434.2266 Q309.8656,435.0469 311.4594,435.0469 Q312.3969,435.0469 313.0531,434.7969 Q313.4438,434.6406 313.8656,434.2031 Q314.1313,433.9375 314.2797,433.8594 Q314.4281,433.7813 314.6313,433.7813 Q314.9594,433.7813 315.2172,434.0391 Q315.475,434.2969 315.475,434.6406 Q315.475,434.9844 315.1313,435.3906 Q314.6313,435.9688 313.8344,436.2969 Q312.7563,436.75 311.4594,436.75 Q309.9438,436.75 308.7406,436.125 Q307.7563,435.625 307.0688,434.5547 Q306.3813,433.4844 306.3813,432.2031 L306.3813,431.0469 Q306.3813,429.7188 306.9984,428.5703 Q307.6156,427.4219 308.7094,426.8047 Q309.8031,426.1875 311.0375,426.1875 Q311.7719,426.1875 312.4203,426.3516 Q313.0688,426.5156 313.6156,426.875 Z "/><text fill="#000000" font-family="sans-serif" font-size="12" lengthAdjust="spacingAndGlyphs" textLength="128" x="329.15" y="435.9102">PingWeblogsComFilter</text><line style="stroke: #A80036; stroke-width: 1.5;" x1="277.5" x2="478.5" y1="447" y2="447"/><ellipse cx="287.5" cy="459.418" fill="none" rx="3" ry="3" style="stroke: #038048; stroke-width: 1.0;"/><text fill="#000000" font-family="sans-serif" font-size="11" lengthAdjust="spacingAndGlyphs" text-decoration="underline" textLength="110" x="296.5" y="462.4189">PROP_PINGURL: String</text><line style="stroke: #A80036; stroke-width: 1.5;" x1="277.5" x2="478.5" y1="468.8359" y2="468.8359"/><ellipse cx="287.5" cy="481.2539" fill="#84BE84" rx="3" ry="3" style="stroke: #038048; stroke-width: 1.0;"/><text fill="#000000" font-family="sans-serif" font-size="11" lengthAdjust="spacingAndGlyphs" textLength="177" x="296.5" y="484.2549">initialize(WikiEngine, Properties): void</text><ellipse cx="287.5" cy="495.0898" fill="#84BE84" rx="3" ry="3" style="stroke: #038048; stroke-width: 1.0;"/><text fill="#000000" font-family="sans-serif" font-size="11" lengthAdjust="spacingAndGlyphs" textLength="170" x="296.5" y="498.0908">postSave(WikiContext, String): void</text></a><!--class org.apache.wiki.filters.DefaultFilterManager--><a href="DefaultFilterManager.html" target="_top" xlink:actuate="onRequest" xlink:show="new" xlink:title="DefaultFilterManager.html" xlink:type="simple"><rect fill="#FEFECE" filter="url(#f1p1fgebbld5cf)" height="214.0313" id="org.apache.wiki.filters.DefaultFilterManager" style="stroke: #A80036; stroke-width: 1.5;" width="302" x="1082" y="353"/><ellipse cx="1171.75" cy="369" fill="#ADD1B2" rx="11" ry="11" style="stroke: #A80036; stroke-width: 1.0;"/><path d="M1174.5156,364.875 Q1174.6719,364.6563 1174.8594,364.5469 Q1175.0469,364.4375 1175.2656,364.4375 Q1175.6406,364.4375 1175.875,364.6953 Q1176.1094,364.9531 1176.1094,365.5625 L1176.1094,367.0156 Q1176.1094,367.625 1175.875,367.8906 Q1175.6406,368.1563 1175.2656,368.1563 Q1174.9219,368.1563 1174.7188,367.9531 Q1174.5156,367.7656 1174.4063,367.25 Q1174.3594,366.8906 1174.1719,366.7031 Q1173.8438,366.3281 1173.2344,366.1094 Q1172.625,365.8906 1172,365.8906 Q1171.2344,365.8906 1170.6016,366.2188 Q1169.9688,366.5469 1169.4766,367.2969 Q1168.9844,368.0469 1168.9844,369.0781 L1168.9844,370.1719 Q1168.9844,371.4063 1169.875,372.2266 Q1170.7656,373.0469 1172.3594,373.0469 Q1173.2969,373.0469 1173.9531,372.7969 Q1174.3438,372.6406 1174.7656,372.2031 Q1175.0313,371.9375 1175.1797,371.8594 Q1175.3281,371.7813 1175.5313,371.7813 Q1175.8594,371.7813 1176.1172,372.0391 Q1176.375,372.2969 1176.375,372.6406 Q1176.375,372.9844 1176.0313,373.3906 Q1175.5313,373.9688 1174.7344,374.2969 Q1173.6563,374.75 1172.3594,374.75 Q1170.8438,374.75 1169.6406,374.125 Q1168.6563,373.625 1167.9688,372.5547 Q1167.2813,371.4844 1167.2813,370.2031 L1167.2813,369.0469 Q1167.2813,367.7188 1167.8984,366.5703 Q1168.5156,365.4219 1169.6094,364.8047 Q1170.7031,364.1875 1171.9375,364.1875 Q1172.6719,364.1875 1173.3203,364.3516 Q1173.9688,364.5156 1174.5156,364.875 Z "/><text fill="#000000" font-family="sans-serif" font-size="12" lengthAdjust="spacingAndGlyphs" textLength="114" x="1192.25" y="373.9102">DefaultFilterManager</text><line style="stroke: #A80036; stroke-width: 1.5;" x1="1083" x2="1383" y1="385" y2="385"/><line style="stroke: #A80036; stroke-width: 1.5;" x1="1083" x2="1383" y1="393" y2="393"/><ellipse cx="1093" cy="405.418" fill="#84BE84" rx="3" ry="3" style="stroke: #038048; stroke-width: 1.0;"/><text fill="#000000" font-family="sans-serif" font-size="11" lengthAdjust="spacingAndGlyphs" textLength="213" x="1102" y="408.4189">DefaultFilterManager(WikiEngine, Properties)</text><ellipse cx="1093" cy="419.2539" fill="#84BE84" rx="3" ry="3" style="stroke: #038048; stroke-width: 1.0;"/><text fill="#000000" font-family="sans-serif" font-size="11" lengthAdjust="spacingAndGlyphs" textLength="163" x="1102" y="422.2549">addPageFilter(PageFilter, int): void</text><polygon fill="#FFFF44" points="1093,428.0898,1097,432.0898,1093,436.0898,1089,432.0898" style="stroke: #B38D22; stroke-width: 1.0;"/><text fill="#000000" font-family="sans-serif" font-size="11" lengthAdjust="spacingAndGlyphs" textLength="120" x="1102" y="436.0908">initialize(Properties): void</text><ellipse cx="1093" cy="446.9258" fill="#84BE84" rx="3" ry="3" style="stroke: #038048; stroke-width: 1.0;"/><text fill="#000000" font-family="sans-serif" font-size="11" lengthAdjust="spacingAndGlyphs" textLength="242" x="1102" y="449.9268">doPreTranslateFiltering(WikiContext, String): String</text><ellipse cx="1093" cy="460.7617" fill="#84BE84" rx="3" ry="3" style="stroke: #038048; stroke-width: 1.0;"/><text fill="#000000" font-family="sans-serif" font-size="11" lengthAdjust="spacingAndGlyphs" textLength="247" x="1102" y="463.7627">doPostTranslateFiltering(WikiContext, String): String</text><ellipse cx="1093" cy="474.5977" fill="#84BE84" rx="3" ry="3" style="stroke: #038048; stroke-width: 1.0;"/><text fill="#000000" font-family="sans-serif" font-size="11" lengthAdjust="spacingAndGlyphs" textLength="222" x="1102" y="477.5986">doPreSaveFiltering(WikiContext, String): String</text><ellipse cx="1093" cy="488.4336" fill="#84BE84" rx="3" ry="3" style="stroke: #038048; stroke-width: 1.0;"/><text fill="#000000" font-family="sans-serif" font-size="11" lengthAdjust="spacingAndGlyphs" textLength="219" x="1102" y="491.4346">doPostSaveFiltering(WikiContext, String): void</text><ellipse cx="1093" cy="502.2695" fill="#84BE84" rx="3" ry="3" style="stroke: #038048; stroke-width: 1.0;"/><text fill="#000000" font-family="sans-serif" font-size="11" lengthAdjust="spacingAndGlyphs" textLength="145" x="1102" y="505.2705">getFilterList(): List&lt;PageFilter&gt;</text><ellipse cx="1093" cy="516.1055" fill="#84BE84" rx="3" ry="3" style="stroke: #038048; stroke-width: 1.0;"/><text fill="#000000" font-family="sans-serif" font-size="11" lengthAdjust="spacingAndGlyphs" textLength="71" x="1102" y="519.1064">destroy(): void</text><ellipse cx="1093" cy="529.9414" fill="#84BE84" rx="3" ry="3" style="stroke: #038048; stroke-width: 1.0;"/><text fill="#000000" font-family="sans-serif" font-size="11" lengthAdjust="spacingAndGlyphs" textLength="150" x="1102" y="532.9424">fireEvent(int, WikiContext): void</text><ellipse cx="1093" cy="543.7773" fill="#84BE84" rx="3" ry="3" style="stroke: #038048; stroke-width: 1.0;"/><text fill="#000000" font-family="sans-serif" font-size="11" lengthAdjust="spacingAndGlyphs" textLength="183" x="1102" y="546.7783">modules(): Collection&lt;WikiModuleInfo&gt;</text><ellipse cx="1093" cy="557.6133" fill="#84BE84" rx="3" ry="3" style="stroke: #038048; stroke-width: 1.0;"/><text fill="#000000" font-family="sans-serif" font-size="11" lengthAdjust="spacingAndGlyphs" textLength="276" x="1102" y="560.6143">getModuleInfo(String): DefaultFilterManager.PageFilterInfo</text></a><!--class org.apache.wiki.filters.CreoleFilter--><a href="CreoleFilter.html" target="_top" xlink:actuate="onRequest" xlink:show="new" xlink:title="CreoleFilter.html" xlink:type="simple"><rect fill="#FEFECE" filter="url(#f1p1fgebbld5cf)" height="89.5078" id="org.apache.wiki.filters.CreoleFilter" style="stroke: #A80036; stroke-width: 1.5;" width="219" x="22.5" y="415"/><ellipse cx="95.75" cy="431" fill="#ADD1B2" rx="11" ry="11" style="stroke: #A80036; stroke-width: 1.0;"/><path d="M98.5156,426.875 Q98.6719,426.6563 98.8594,426.5469 Q99.0469,426.4375 99.2656,426.4375 Q99.6406,426.4375 99.875,426.6953 Q100.1094,426.9531 100.1094,427.5625 L100.1094,429.0156 Q100.1094,429.625 99.875,429.8906 Q99.6406,430.1563 99.2656,430.1563 Q98.9219,430.1563 98.7188,429.9531 Q98.5156,429.7656 98.4063,429.25 Q98.3594,428.8906 98.1719,428.7031 Q97.8438,428.3281 97.2344,428.1094 Q96.625,427.8906 96,427.8906 Q95.2344,427.8906 94.6016,428.2188 Q93.9688,428.5469 93.4766,429.2969 Q92.9844,430.0469 92.9844,431.0781 L92.9844,432.1719 Q92.9844,433.4063 93.875,434.2266 Q94.7656,435.0469 96.3594,435.0469 Q97.2969,435.0469 97.9531,434.7969 Q98.3438,434.6406 98.7656,434.2031 Q99.0313,433.9375 99.1797,433.8594 Q99.3281,433.7813 99.5313,433.7813 Q99.8594,433.7813 100.1172,434.0391 Q100.375,434.2969 100.375,434.6406 Q100.375,434.9844 100.0313,435.3906 Q99.5313,435.9688 98.7344,436.2969 Q97.6563,436.75 96.3594,436.75 Q94.8438,436.75 93.6406,436.125 Q92.6563,435.625 91.9688,434.5547 Q91.2813,433.4844 91.2813,432.2031 L91.2813,431.0469 Q91.2813,429.7188 91.8984,428.5703 Q92.5156,427.4219 93.6094,426.8047 Q94.7031,426.1875 95.9375,426.1875 Q96.6719,426.1875 97.3203,426.3516 Q97.9688,426.5156 98.5156,426.875 Z "/><text fill="#000000" font-family="sans-serif" font-size="12" lengthAdjust="spacingAndGlyphs" textLength="64" x="116.25" y="435.9102">CreoleFilter</text><line style="stroke: #A80036; stroke-width: 1.5;" x1="23.5" x2="240.5" y1="447" y2="447"/><line style="stroke: #A80036; stroke-width: 1.5;" x1="23.5" x2="240.5" y1="455" y2="455"/><ellipse cx="33.5" cy="467.418" fill="#84BE84" rx="3" ry="3" style="stroke: #038048; stroke-width: 1.0;"/><text fill="#000000" font-family="sans-serif" font-size="11" lengthAdjust="spacingAndGlyphs" textLength="177" x="42.5" y="470.4189">initialize(WikiEngine, Properties): void</text><ellipse cx="33.5" cy="481.2539" fill="#84BE84" rx="3" ry="3" style="stroke: #038048; stroke-width: 1.0;"/><text fill="#000000" font-family="sans-serif" font-size="11" lengthAdjust="spacingAndGlyphs" textLength="173" x="42.5" y="484.2549">preSave(WikiContext, String): String</text><ellipse cx="33.5" cy="495.0898" fill="#84BE84" rx="3" ry="3" style="stroke: #038048; stroke-width: 1.0;"/><text fill="#000000" font-family="sans-serif" font-size="11" lengthAdjust="spacingAndGlyphs" textLength="193" x="42.5" y="498.0908">preTranslate(WikiContext, String): String</text></a><!--class org.apache.wiki.api.filters.BasicPageFilter--><rect fill="#FEFECE" filter="url(#f1p1fgebbld5cf)" height="48" id="org.apache.wiki.api.filters.BasicPageFilter" style="stroke: #A80036; stroke-width: 1.5;" width="119" x="441.5" y="106.5"/><ellipse cx="456.5" cy="122.5" fill="#ADD1B2" rx="11" ry="11" style="stroke: #A80036; stroke-width: 1.0;"/><path d="M459.2656,118.375 Q459.4219,118.1563 459.6094,118.0469 Q459.7969,117.9375 460.0156,117.9375 Q460.3906,117.9375 460.625,118.1953 Q460.8594,118.4531 460.8594,119.0625 L460.8594,120.5156 Q460.8594,121.125 460.625,121.3906 Q460.3906,121.6563 460.0156,121.6563 Q459.6719,121.6563 459.4688,121.4531 Q459.2656,121.2656 459.1563,120.75 Q459.1094,120.3906 458.9219,120.2031 Q458.5938,119.8281 457.9844,119.6094 Q457.375,119.3906 456.75,119.3906 Q455.9844,119.3906 455.3516,119.7188 Q454.7188,120.0469 454.2266,120.7969 Q453.7344,121.5469 453.7344,122.5781 L453.7344,123.6719 Q453.7344,124.9063 454.625,125.7266 Q455.5156,126.5469 457.1094,126.5469 Q458.0469,126.5469 458.7031,126.2969 Q459.0938,126.1406 459.5156,125.7031 Q459.7813,125.4375 459.9297,125.3594 Q460.0781,125.2813 460.2813,125.2813 Q460.6094,125.2813 460.8672,125.5391 Q461.125,125.7969 461.125,126.1406 Q461.125,126.4844 460.7813,126.8906 Q460.2813,127.4688 459.4844,127.7969 Q458.4063,128.25 457.1094,128.25 Q455.5938,128.25 454.3906,127.625 Q453.4063,127.125 452.7188,126.0547 Q452.0313,124.9844 452.0313,123.7031 L452.0313,122.5469 Q452.0313,121.2188 452.6484,120.0703 Q453.2656,118.9219 454.3594,118.3047 Q455.4531,117.6875 456.6875,117.6875 Q457.4219,117.6875 458.0703,117.8516 Q458.7188,118.0156 459.2656,118.375 Z "/><text fill="#000000" font-family="sans-serif" font-size="12" lengthAdjust="spacingAndGlyphs" textLength="87" x="470.5" y="127.4102">BasicPageFilter</text><line style="stroke: #A80036; stroke-width: 1.5;" x1="442.5" x2="559.5" y1="138.5" y2="138.5"/><line style="stroke: #A80036; stroke-width: 1.5;" x1="442.5" x2="559.5" y1="146.5" y2="146.5"/><!--class org.apache.wiki.modules.ModuleManager--><rect fill="#FEFECE" filter="url(#f1p1fgebbld5cf)" height="75.6719" id="org.apache.wiki.modules.ModuleManager" style="stroke: #A80036; stroke-width: 1.5;" width="221" x="836.5" y="92.5"/><ellipse cx="898.75" cy="108.5" fill="#A9DCDF" rx="11" ry="11" style="stroke: #A80036; stroke-width: 1.0;"/><path d="M900.9375,110.2656 L896.7969,110.2656 L896.375,111.2969 L896.7969,111.2969 Q897.4063,111.2969 897.6719,111.5313 Q897.9375,111.7656 897.9375,112.1563 Q897.9375,112.5313 897.6719,112.7656 Q897.4063,113 896.7969,113 L894.5,113 Q893.8906,113 893.6328,112.7656 Q893.375,112.5313 893.375,112.1406 Q893.375,111.7656 893.6484,111.5234 Q893.9219,111.2813 894.5469,111.2969 L897.2188,104.6406 L896.1094,104.6406 Q895.5,104.6406 895.2344,104.4063 Q894.9688,104.1719 894.9688,103.7813 Q894.9688,103.4063 895.2344,103.1719 Q895.5,102.9375 896.1094,102.9375 L899.7813,102.9375 L903.1719,111.2969 Q903.7656,111.2969 903.9531,111.4375 Q904.3438,111.7031 904.3438,112.1563 Q904.3438,112.5313 904.0859,112.7656 Q903.8281,113 903.2188,113 L900.9219,113 Q900.3125,113 900.0469,112.7656 Q899.7813,112.5313 899.7813,112.1406 Q899.7813,111.7656 900.0469,111.5313 Q900.3125,111.2969 900.9219,111.2969 L901.3438,111.2969 L900.9375,110.2656 Z M900.2188,108.5625 L898.8594,105.1875 L897.4844,108.5625 L900.2188,108.5625 Z "/><text fill="#000000" font-family="sans-serif" font-size="12" font-style="italic" lengthAdjust="spacingAndGlyphs" textLength="88" x="919.25" y="113.4102">ModuleManager</text><line style="stroke: #A80036; stroke-width: 1.5;" x1="837.5" x2="1056.5" y1="124.5" y2="124.5"/><line style="stroke: #A80036; stroke-width: 1.5;" x1="837.5" x2="1056.5" y1="132.5" y2="132.5"/><ellipse cx="847.5" cy="144.918" fill="#84BE84" rx="3" ry="3" style="stroke: #038048; stroke-width: 1.0;"/><text fill="#000000" font-family="sans-serif" font-size="11" font-style="italic" lengthAdjust="spacingAndGlyphs" textLength="195" x="856.5" y="147.9189">modules(): Collection&lt;WikiModuleInfo&gt;</text><ellipse cx="847.5" cy="158.7539" fill="#84BE84" rx="3" ry="3" style="stroke: #038048; stroke-width: 1.0;"/><text fill="#000000" font-family="sans-serif" font-size="11" font-style="italic" lengthAdjust="spacingAndGlyphs" textLength="189" x="856.5" y="161.7549">getModuleInfo(String): WikiModuleInfo</text><!--class org.apache.wiki.api.engine.FilterManager--><rect fill="#FEFECE" filter="url(#f1p1fgebbld5cf)" height="172.5234" id="org.apache.wiki.api.engine.FilterManager" style="stroke: #A80036; stroke-width: 1.5;" width="287" x="1092.5" y="44"/><ellipse cx="1194.25" cy="60" fill="#B4A7E5" rx="11" ry="11" style="stroke: #A80036; stroke-width: 1.0;"/><path d="M1195.2031,56.6406 L1195.2031,63.2969 L1196.9219,63.2969 Q1197.5313,63.2969 1197.7969,63.5313 Q1198.0625,63.7656 1198.0625,64.1563 Q1198.0625,64.5313 1197.7969,64.7656 Q1197.5313,65 1196.9219,65 L1191.7813,65 Q1191.1719,65 1190.9063,64.7656 Q1190.6406,64.5313 1190.6406,64.1406 Q1190.6406,63.7656 1190.9063,63.5313 Q1191.1719,63.2969 1191.7813,63.2969 L1193.5,63.2969 L1193.5,56.6406 L1191.7813,56.6406 Q1191.1719,56.6406 1190.9063,56.4063 Q1190.6406,56.1719 1190.6406,55.7813 Q1190.6406,55.4063 1190.9063,55.1719 Q1191.1719,54.9375 1191.7813,54.9375 L1196.9219,54.9375 Q1197.5313,54.9375 1197.7969,55.1719 Q1198.0625,55.4063 1198.0625,55.7813 Q1198.0625,56.1719 1197.7969,56.4063 Q1197.5313,56.6406 1196.9219,56.6406 L1195.2031,56.6406 Z "/><text fill="#000000" font-family="sans-serif" font-size="12" font-style="italic" lengthAdjust="spacingAndGlyphs" textLength="75" x="1214.75" y="64.9102">FilterManager</text><line style="stroke: #A80036; stroke-width: 1.5;" x1="1093.5" x2="1378.5" y1="76" y2="76"/><line style="stroke: #A80036; stroke-width: 1.5;" x1="1093.5" x2="1378.5" y1="84" y2="84"/><ellipse cx="1103.5" cy="96.418" fill="#84BE84" rx="3" ry="3" style="stroke: #038048; stroke-width: 1.0;"/><text fill="#000000" font-family="sans-serif" font-size="11" font-style="italic" lengthAdjust="spacingAndGlyphs" textLength="172" x="1112.5" y="99.4189">addPageFilter(PageFilter, int): void</text><ellipse cx="1103.5" cy="110.2539" fill="#84BE84" rx="3" ry="3" style="stroke: #038048; stroke-width: 1.0;"/><text fill="#000000" font-family="sans-serif" font-size="11" font-style="italic" lengthAdjust="spacingAndGlyphs" textLength="256" x="1112.5" y="113.2549">doPreTranslateFiltering(WikiContext, String): String</text><ellipse cx="1103.5" cy="124.0898" fill="#84BE84" rx="3" ry="3" style="stroke: #038048; stroke-width: 1.0;"/><text fill="#000000" font-family="sans-serif" font-size="11" font-style="italic" lengthAdjust="spacingAndGlyphs" textLength="261" x="1112.5" y="127.0908">doPostTranslateFiltering(WikiContext, String): String</text><ellipse cx="1103.5" cy="137.9258" fill="#84BE84" rx="3" ry="3" style="stroke: #038048; stroke-width: 1.0;"/><text fill="#000000" font-family="sans-serif" font-size="11" font-style="italic" lengthAdjust="spacingAndGlyphs" textLength="233" x="1112.5" y="140.9268">doPreSaveFiltering(WikiContext, String): String</text><ellipse cx="1103.5" cy="151.7617" fill="#84BE84" rx="3" ry="3" style="stroke: #038048; stroke-width: 1.0;"/><text fill="#000000" font-family="sans-serif" font-size="11" font-style="italic" lengthAdjust="spacingAndGlyphs" textLength="229" x="1112.5" y="154.7627">doPostSaveFiltering(WikiContext, String): void</text><ellipse cx="1103.5" cy="165.5977" fill="#84BE84" rx="3" ry="3" style="stroke: #038048; stroke-width: 1.0;"/><text fill="#000000" font-family="sans-serif" font-size="11" font-style="italic" lengthAdjust="spacingAndGlyphs" textLength="154" x="1112.5" y="168.5986">getFilterList(): List&lt;PageFilter&gt;</text><ellipse cx="1103.5" cy="179.4336" fill="#84BE84" rx="3" ry="3" style="stroke: #038048; stroke-width: 1.0;"/><text fill="#000000" font-family="sans-serif" font-size="11" font-style="italic" lengthAdjust="spacingAndGlyphs" textLength="70" x="1112.5" y="182.4346">destroy(): void</text><ellipse cx="1103.5" cy="193.2695" fill="#84BE84" rx="3" ry="3" style="stroke: #038048; stroke-width: 1.0;"/><text fill="#000000" font-family="sans-serif" font-size="11" font-style="italic" lengthAdjust="spacingAndGlyphs" textLength="195" x="1112.5" y="196.2705">modules(): Collection&lt;WikiModuleInfo&gt;</text><ellipse cx="1103.5" cy="207.1055" fill="#84BE84" rx="3" ry="3" style="stroke: #038048; stroke-width: 1.0;"/><text fill="#000000" font-family="sans-serif" font-size="11" font-style="italic" lengthAdjust="spacingAndGlyphs" textLength="189" x="1112.5" y="210.1064">getModuleInfo(String): WikiModuleInfo</text><!--link org.apache.wiki.api.filters.BasicPageFilter to org.apache.wiki.filters.SpamFilter--><path d="M579.5119,156.3323 C631.8001,176.1338 700.0069,207.1817 751,249 C761.4153,257.5414 771.515,266.9161 781.2335,276.8186 " fill="none" id="org.apache.wiki.api.filters.BasicPageFilter-org.apache.wiki.filters.SpamFilter" style="stroke: #A80036; stroke-width: 1.0;"/><polygon fill="none" points="577.0401,162.8818,560.6753,149.4209,581.8626,149.7386,577.0401,162.8818" style="stroke: #A80036; stroke-width: 1.0;"/><!--link org.apache.wiki.api.filters.BasicPageFilter to org.apache.wiki.filters.ProfanityFilter--><path d="M517.0507,173.4976 C542.168,240.7833 590.1739,369.3846 612.3006,428.659 " fill="none" id="org.apache.wiki.api.filters.BasicPageFilter-org.apache.wiki.filters.ProfanityFilter" style="stroke: #A80036; stroke-width: 1.0;"/><polygon fill="none" points="510.481,175.9141,510.0445,154.7289,523.5969,171.0179,510.481,175.9141" style="stroke: #A80036; stroke-width: 1.0;"/><!--link org.apache.wiki.api.filters.BasicPageFilter to org.apache.wiki.filters.PingWeblogsComFilter--><path d="M484.8448,173.7777 C461.4928,236.3344 418.5139,351.4688 394.8043,414.9836 " fill="none" id="org.apache.wiki.api.filters.BasicPageFilter-org.apache.wiki.filters.PingWeblogsComFilter" style="stroke: #A80036; stroke-width: 1.0;"/><polygon fill="none" points="478.4031,171.0179,491.9555,154.7289,491.519,175.9141,478.4031,171.0179" style="stroke: #A80036; stroke-width: 1.0;"/><!--link org.apache.wiki.modules.ModuleManager to org.apache.wiki.filters.DefaultFilterManager--><path d="M1001.5084,182.7268 C1021.9385,202.946 1045.028,226.5862 1065,249 C1094.2822,281.8622 1124.7112,319.0397 1151.4968,352.9327 " fill="none" id="org.apache.wiki.modules.ModuleManager-org.apache.wiki.filters.DefaultFilterManager" style="stroke: #A80036; stroke-width: 1.0;"/><polygon fill="none" points="996.5598,187.6781,987.1847,168.6752,1006.3639,177.6841,996.5598,187.6781" style="stroke: #A80036; stroke-width: 1.0;"/><!--link org.apache.wiki.api.engine.FilterManager to org.apache.wiki.filters.DefaultFilterManager--><path d="M1235.0291,237.133 C1234.6919,274.1773 1234.3136,315.718 1233.976,352.8073 " fill="none" id="org.apache.wiki.api.engine.FilterManager-org.apache.wiki.filters.DefaultFilterManager" style="stroke: #A80036; stroke-width: 1.0; stroke-dasharray: 7.0,7.0;"/><polygon fill="none" points="1228.0299,237.0077,1235.2118,217.0722,1242.0293,237.1352,1228.0299,237.0077" style="stroke: #A80036; stroke-width: 1.0;"/><!--link org.apache.wiki.api.filters.BasicPageFilter to org.apache.wiki.filters.CreoleFilter--><path d="M422.2743,155.8433 C371.2891,175.2281 305.9007,205.9888 259,249 C207.7944,295.9591 170.4241,368.3198 149.957,414.9129 " fill="none" id="org.apache.wiki.api.filters.BasicPageFilter-org.apache.wiki.filters.CreoleFilter" style="stroke: #A80036; stroke-width: 1.0;"/><polygon fill="none" points="420.2025,149.1475,441.39,148.8461,425.0149,162.2944,420.2025,149.1475" style="stroke: #A80036; stroke-width: 1.0;"/><text fill="#888888" font-family="sans-serif" font-size="10" lengthAdjust="spacingAndGlyphs" textLength="184" x="617" y="679.3809">UMLDoclet 1.1.4, PlantUML 1.2019.05</text><!--
@startuml

    namespace org.apache.wiki.filters {

        class SpamFilter [[SpamFilter.html]] {
            {static} +PROP_WORDLIST: String
            {static} +PROP_IPLIST: String
            {static} +PROP_MAX_PAGENAME_LENGTH: String
            {static} +PROP_ERRORPAGE: String
            {static} +PROP_PAGECHANGES: String
            {static} +PROP_SIMILARCHANGES: String
            {static} +PROP_BANTIME: String
            {static} +PROP_BLACKLIST: String
            {static} +PROP_MAXURLS: String
            {static} +PROP_AKISMET_API_KEY: String
            {static} +PROP_IGNORE_AUTHENTICATED: String
            {static} +PROP_CAPTCHA: String
            {static} +PROP_FILTERSTRATEGY: String
            {static} +STRATEGY_EAGER: String
            {static} +STRATEGY_SCORE: String
            +initialize(WikiEngine, Properties): void
            +preSave(WikiContext, String): String
            {static} +getBotFieldName(): String
            +isValidUserProfile(WikiContext, UserProfile): boolean
            {static} +getSpamHash(WikiPage, HttpServletRequest): String
            {static} +getHashFieldName(HttpServletRequest): String
            {static} +checkHash(WikiContext, PageContext): boolean
            {static} +insertInputFields(PageContext): String
        }

        class ProfanityFilter [[ProfanityFilter.html]] {
            +preTranslate(WikiContext, String): String
        }

        class PingWeblogsComFilter [[PingWeblogsComFilter.html]] {
            {static} +PROP_PINGURL: String
            +initialize(WikiEngine, Properties): void
            +postSave(WikiContext, String): void
        }

        class DefaultFilterManager [[DefaultFilterManager.html]] {
            +DefaultFilterManager(WikiEngine, Properties)
            +addPageFilter(PageFilter, int): void
            #initialize(Properties): void
            +doPreTranslateFiltering(WikiContext, String): String
            +doPostTranslateFiltering(WikiContext, String): String
            +doPreSaveFiltering(WikiContext, String): String
            +doPostSaveFiltering(WikiContext, String): void
            +getFilterList(): List<PageFilter>
            +destroy(): void
            +fireEvent(int, WikiContext): void
            +modules(): Collection<WikiModuleInfo>
            +getModuleInfo(String): DefaultFilterManager.PageFilterInfo
        }

        class CreoleFilter [[CreoleFilter.html]] {
            +initialize(WikiEngine, Properties): void
            +preSave(WikiContext, String): String
            +preTranslate(WikiContext, String): String
        }

        class org.apache.wiki.api.filters.BasicPageFilter
        org.apache.wiki.api.filters.BasicPageFilter <|- - SpamFilter

        org.apache.wiki.api.filters.BasicPageFilter <|- - ProfanityFilter

        org.apache.wiki.api.filters.BasicPageFilter <|- - PingWeblogsComFilter

        abstract class org.apache.wiki.modules.ModuleManager {
            {abstract} +modules(): Collection<WikiModuleInfo>
            {abstract} +getModuleInfo(String): WikiModuleInfo
        }
        org.apache.wiki.modules.ModuleManager <|- - DefaultFilterManager

        interface org.apache.wiki.api.engine.FilterManager {
            {abstract} +addPageFilter(PageFilter, int): void
            {abstract} +doPreTranslateFiltering(WikiContext, String): String
            {abstract} +doPostTranslateFiltering(WikiContext, String): String
            {abstract} +doPreSaveFiltering(WikiContext, String): String
            {abstract} +doPostSaveFiltering(WikiContext, String): void
            {abstract} +getFilterList(): List<PageFilter>
            {abstract} +destroy(): void
            {abstract} +modules(): Collection<WikiModuleInfo>
            {abstract} +getModuleInfo(String): WikiModuleInfo
        }
        org.apache.wiki.api.engine.FilterManager <|.. DefaultFilterManager

        org.apache.wiki.api.filters.BasicPageFilter <|- - CreoleFilter

    }


    center footer UMLDoclet 1.1.4, PlantUML 1.2019.05
@enduml

PlantUML version 1.2019.05(Sat Apr 20 18:45:36 CEST 2019)
(APACHE source distribution)
Java Runtime: OpenJDK Runtime Environment
JVM: OpenJDK 64-Bit Server VM
Java Version: 1.8.0_212-b03
Operating System: Windows 10
OS Version: 10.0
Default Encoding: Cp1252
Language: es
Country: ES
--></g></svg>