<?xml version="1.0" encoding="UTF-8" standalone="no"?><svg xmlns="http://www.w3.org/2000/svg" xmlns:xlink="http://www.w3.org/1999/xlink" contentScriptType="application/ecmascript" contentStyleType="text/css" height="657px" preserveAspectRatio="none" style="width:1942px;height:657px;" version="1.1" viewBox="0 0 1942 657" width="1942px" zoomAndPan="magnify"><defs><filter height="300%" id="fnppmm8bz7w99" width="300%" x="-1" y="-1"><feGaussianBlur result="blurOut" stdDeviation="2.0"/><feColorMatrix in="blurOut" result="blurOut2" type="matrix" values="0 0 0 0 0 0 0 0 0 0 0 0 0 0 0 0 0 0 .4 0"/><feOffset dx="4.0" dy="4.0" in="blurOut2" result="blurOut3"/><feBlend in="SourceGraphic" in2="blurOut3" mode="normal"/></filter></defs><g><!--cluster org.apache.wiki.filters--><polygon fill="#FFFFFF" filter="url(#fnppmm8bz7w99)" points="14,239,196,239,203,261.2969,1920,261.2969,1920,617,14,617,14,239" style="stroke: #000000; stroke-width: 1.5;"/><line style="stroke: #000000; stroke-width: 1.5;" x1="14" x2="203" y1="261.2969" y2="261.2969"/><text fill="#000000" font-family="sans-serif" font-size="14" font-weight="bold" lengthAdjust="spacingAndGlyphs" textLength="176" x="18" y="253.9951">org.apache.wiki.filters</text><!--cluster org.apache.wiki.modules--><polygon fill="#FFFFFF" filter="url(#fnppmm8bz7w99)" points="41,60.5,244,60.5,251,82.7969,305,82.7969,305,169.5,41,169.5,41,60.5" style="stroke: #000000; stroke-width: 1.5;"/><line style="stroke: #000000; stroke-width: 1.5;" x1="41" x2="251" y1="82.7969" y2="82.7969"/><text fill="#000000" font-family="sans-serif" font-size="14" font-weight="bold" lengthAdjust="spacingAndGlyphs" textLength="197" x="45" y="75.4951">org.apache.wiki.modules</text><!--cluster org.apache.wiki.api.engine--><polygon fill="#FFFFFF" filter="url(#fnppmm8bz7w99)" points="323,16,541,16,548,38.2969,659,38.2969,659,214,323,214,323,16" style="stroke: #000000; stroke-width: 1.5;"/><line style="stroke: #000000; stroke-width: 1.5;" x1="323" x2="548" y1="38.2969" y2="38.2969"/><text fill="#000000" font-family="sans-serif" font-size="14" font-weight="bold" lengthAdjust="spacingAndGlyphs" textLength="212" x="327" y="30.9951">org.apache.wiki.api.engine</text><!--cluster org.apache.wiki.api.filters--><polygon fill="#FFFFFF" filter="url(#fnppmm8bz7w99)" points="1060,73.5,1270,73.5,1277,95.7969,1280,95.7969,1280,156.5,1060,156.5,1060,73.5" style="stroke: #000000; stroke-width: 1.5;"/><line style="stroke: #000000; stroke-width: 1.5;" x1="1060" x2="1277" y1="95.7969" y2="95.7969"/><text fill="#000000" font-family="sans-serif" font-size="14" font-weight="bold" lengthAdjust="spacingAndGlyphs" textLength="204" x="1064" y="88.4951">org.apache.wiki.api.filters</text><!--class org.apache.wiki.filters.DefaultFilterManager--><a href="DefaultFilterManager.html" target="_top" xlink:actuate="onRequest" xlink:show="new" xlink:title="DefaultFilterManager.html" xlink:type="simple"><rect fill="#FEFECE" filter="url(#fnppmm8bz7w99)" height="201.6563" id="org.apache.wiki.filters.DefaultFilterManager" style="stroke: #A80036; stroke-width: 1.5;" width="353" x="22.5" y="336.5"/><ellipse cx="129.25" cy="352.5" fill="#ADD1B2" rx="11" ry="11" style="stroke: #A80036; stroke-width: 1.0;"/><path d="M132.2188,358.1406 Q131.6406,358.4375 131,358.5859 Q130.3594,358.7344 129.6563,358.7344 Q127.1563,358.7344 125.8359,357.0859 Q124.5156,355.4375 124.5156,352.3125 Q124.5156,349.1875 125.8359,347.5313 Q127.1563,345.875 129.6563,345.875 Q130.3594,345.875 131.0078,346.0313 Q131.6563,346.1875 132.2188,346.4844 L132.2188,349.2031 Q131.5938,348.625 131,348.3516 Q130.4063,348.0781 129.7813,348.0781 Q128.4375,348.0781 127.75,349.1484 Q127.0625,350.2188 127.0625,352.3125 Q127.0625,354.4063 127.75,355.4766 Q128.4375,356.5469 129.7813,356.5469 Q130.4063,356.5469 131,356.2734 Q131.5938,356 132.2188,355.4219 L132.2188,358.1406 Z "/><text fill="#000000" font-family="sans-serif" font-size="12" lengthAdjust="spacingAndGlyphs" textLength="131" x="149.75" y="356.6543">DefaultFilterManager</text><line style="stroke: #A80036; stroke-width: 1.5;" x1="23.5" x2="374.5" y1="368.5" y2="368.5"/><line style="stroke: #A80036; stroke-width: 1.5;" x1="23.5" x2="374.5" y1="376.5" y2="376.5"/><ellipse cx="33.5" cy="388.4023" fill="#84BE84" rx="3" ry="3" style="stroke: #038048; stroke-width: 1.0;"/><text fill="#000000" font-family="sans-serif" font-size="11" lengthAdjust="spacingAndGlyphs" textLength="230" x="42.5" y="390.7104">DefaultFilterManager(Engine, Properties)</text><ellipse cx="33.5" cy="401.207" fill="#84BE84" rx="3" ry="3" style="stroke: #038048; stroke-width: 1.0;"/><text fill="#000000" font-family="sans-serif" font-size="11" lengthAdjust="spacingAndGlyphs" textLength="194" x="42.5" y="403.5151">addPageFilter(PageFilter, int): void</text><polygon fill="#FFFF44" points="33.5,409.0117,37.5,413.0117,33.5,417.0117,29.5,413.0117" style="stroke: #B38D22; stroke-width: 1.0;"/><text fill="#000000" font-family="sans-serif" font-size="11" lengthAdjust="spacingAndGlyphs" textLength="143" x="42.5" y="416.3198">initialize(Properties): void</text><ellipse cx="33.5" cy="426.8164" fill="#84BE84" rx="3" ry="3" style="stroke: #038048; stroke-width: 1.0;"/><text fill="#000000" font-family="sans-serif" font-size="11" lengthAdjust="spacingAndGlyphs" textLength="288" x="42.5" y="429.1245">doPreTranslateFiltering(WikiContext, String): String</text><ellipse cx="33.5" cy="439.6211" fill="#84BE84" rx="3" ry="3" style="stroke: #038048; stroke-width: 1.0;"/><text fill="#000000" font-family="sans-serif" font-size="11" lengthAdjust="spacingAndGlyphs" textLength="294" x="42.5" y="441.9292">doPostTranslateFiltering(WikiContext, String): String</text><ellipse cx="33.5" cy="452.4258" fill="#84BE84" rx="3" ry="3" style="stroke: #038048; stroke-width: 1.0;"/><text fill="#000000" font-family="sans-serif" font-size="11" lengthAdjust="spacingAndGlyphs" textLength="262" x="42.5" y="454.7339">doPreSaveFiltering(WikiContext, String): String</text><ellipse cx="33.5" cy="465.2305" fill="#84BE84" rx="3" ry="3" style="stroke: #038048; stroke-width: 1.0;"/><text fill="#000000" font-family="sans-serif" font-size="11" lengthAdjust="spacingAndGlyphs" textLength="257" x="42.5" y="467.5386">doPostSaveFiltering(WikiContext, String): void</text><ellipse cx="33.5" cy="478.0352" fill="#84BE84" rx="3" ry="3" style="stroke: #038048; stroke-width: 1.0;"/><text fill="#000000" font-family="sans-serif" font-size="11" lengthAdjust="spacingAndGlyphs" textLength="176" x="42.5" y="480.3433">getFilterList(): List&lt;PageFilter&gt;</text><ellipse cx="33.5" cy="490.8398" fill="#84BE84" rx="3" ry="3" style="stroke: #038048; stroke-width: 1.0;"/><text fill="#000000" font-family="sans-serif" font-size="11" lengthAdjust="spacingAndGlyphs" textLength="82" x="42.5" y="493.1479">destroy(): void</text><ellipse cx="33.5" cy="503.6445" fill="#84BE84" rx="3" ry="3" style="stroke: #038048; stroke-width: 1.0;"/><text fill="#000000" font-family="sans-serif" font-size="11" lengthAdjust="spacingAndGlyphs" textLength="175" x="42.5" y="505.9526">fireEvent(int, WikiContext): void</text><ellipse cx="33.5" cy="516.4492" fill="#84BE84" rx="3" ry="3" style="stroke: #038048; stroke-width: 1.0;"/><text fill="#000000" font-family="sans-serif" font-size="11" lengthAdjust="spacingAndGlyphs" textLength="220" x="42.5" y="518.7573">modules(): Collection&lt;WikiModuleInfo&gt;</text><ellipse cx="33.5" cy="529.2539" fill="#84BE84" rx="3" ry="3" style="stroke: #038048; stroke-width: 1.0;"/><text fill="#000000" font-family="sans-serif" font-size="11" lengthAdjust="spacingAndGlyphs" textLength="327" x="42.5" y="531.562">getModuleInfo(String): DefaultFilterManager.PageFilterInfo</text></a><!--class org.apache.wiki.filters.PageEventFilter--><a href="PageEventFilter.html" target="_top" xlink:actuate="onRequest" xlink:show="new" xlink:title="PageEventFilter.html" xlink:type="simple"><rect fill="#FEFECE" filter="url(#fnppmm8bz7w99)" height="150.4375" id="org.apache.wiki.filters.PageEventFilter" style="stroke: #A80036; stroke-width: 1.5;" width="304" x="1317" y="362.5"/><ellipse cx="1415.75" cy="378.5" fill="#ADD1B2" rx="11" ry="11" style="stroke: #A80036; stroke-width: 1.0;"/><path d="M1418.7188,384.1406 Q1418.1406,384.4375 1417.5,384.5859 Q1416.8594,384.7344 1416.1563,384.7344 Q1413.6563,384.7344 1412.3359,383.0859 Q1411.0156,381.4375 1411.0156,378.3125 Q1411.0156,375.1875 1412.3359,373.5313 Q1413.6563,371.875 1416.1563,371.875 Q1416.8594,371.875 1417.5078,372.0313 Q1418.1563,372.1875 1418.7188,372.4844 L1418.7188,375.2031 Q1418.0938,374.625 1417.5,374.3516 Q1416.9063,374.0781 1416.2813,374.0781 Q1414.9375,374.0781 1414.25,375.1484 Q1413.5625,376.2188 1413.5625,378.3125 Q1413.5625,380.4063 1414.25,381.4766 Q1414.9375,382.5469 1416.2813,382.5469 Q1416.9063,382.5469 1417.5,382.2734 Q1418.0938,382 1418.7188,381.4219 L1418.7188,384.1406 Z "/><text fill="#000000" font-family="sans-serif" font-size="12" lengthAdjust="spacingAndGlyphs" textLength="98" x="1436.25" y="382.6543">PageEventFilter</text><line style="stroke: #A80036; stroke-width: 1.5;" x1="1318" x2="1620" y1="394.5" y2="394.5"/><line style="stroke: #A80036; stroke-width: 1.5;" x1="1318" x2="1620" y1="402.5" y2="402.5"/><ellipse cx="1328" cy="414.4023" fill="#84BE84" rx="3" ry="3" style="stroke: #038048; stroke-width: 1.0;"/><text fill="#000000" font-family="sans-serif" font-size="11" lengthAdjust="spacingAndGlyphs" textLength="143" x="1337" y="416.7104">initialize(Properties): void</text><ellipse cx="1328" cy="427.207" fill="#84BE84" rx="3" ry="3" style="stroke: #038048; stroke-width: 1.0;"/><text fill="#000000" font-family="sans-serif" font-size="11" lengthAdjust="spacingAndGlyphs" textLength="229" x="1337" y="429.5151">preTranslate(WikiContext, String): String</text><ellipse cx="1328" cy="440.0117" fill="#84BE84" rx="3" ry="3" style="stroke: #038048; stroke-width: 1.0;"/><text fill="#000000" font-family="sans-serif" font-size="11" lengthAdjust="spacingAndGlyphs" textLength="235" x="1337" y="442.3198">postTranslate(WikiContext, String): String</text><ellipse cx="1328" cy="452.8164" fill="#84BE84" rx="3" ry="3" style="stroke: #038048; stroke-width: 1.0;"/><text fill="#000000" font-family="sans-serif" font-size="11" lengthAdjust="spacingAndGlyphs" textLength="203" x="1337" y="455.1245">preSave(WikiContext, String): String</text><ellipse cx="1328" cy="465.6211" fill="#84BE84" rx="3" ry="3" style="stroke: #038048; stroke-width: 1.0;"/><text fill="#000000" font-family="sans-serif" font-size="11" lengthAdjust="spacingAndGlyphs" textLength="198" x="1337" y="467.9292">postSave(WikiContext, String): void</text><ellipse cx="1328" cy="478.4258" fill="#84BE84" rx="3" ry="3" style="stroke: #038048; stroke-width: 1.0;"/><text fill="#000000" font-family="sans-serif" font-size="11" lengthAdjust="spacingAndGlyphs" textLength="256" x="1337" y="480.7339">addWikiEventListener(WikiEventListener): void</text><ellipse cx="1328" cy="491.2305" fill="#84BE84" rx="3" ry="3" style="stroke: #038048; stroke-width: 1.0;"/><text fill="#000000" font-family="sans-serif" font-size="11" lengthAdjust="spacingAndGlyphs" textLength="278" x="1337" y="493.5386">removeWikiEventListener(WikiEventListener): void</text><polygon fill="#FFFF44" points="1328,499.0352,1332,503.0352,1328,507.0352,1324,503.0352" style="stroke: #B38D22; stroke-width: 1.0;"/><text fill="#000000" font-family="sans-serif" font-size="11" lengthAdjust="spacingAndGlyphs" textLength="175" x="1337" y="506.3433">fireEvent(int, WikiContext): void</text></a><!--class org.apache.wiki.filters.PingWeblogsComFilter--><a href="PingWeblogsComFilter.html" target="_top" xlink:actuate="onRequest" xlink:show="new" xlink:title="PingWeblogsComFilter.html" xlink:type="simple"><rect fill="#FEFECE" filter="url(#fnppmm8bz7w99)" height="86.4141" id="org.apache.wiki.filters.PingWeblogsComFilter" style="stroke: #A80036; stroke-width: 1.5;" width="224" x="1058" y="394.5"/><ellipse cx="1097.3" cy="410.5" fill="#ADD1B2" rx="11" ry="11" style="stroke: #A80036; stroke-width: 1.0;"/><path d="M1100.2688,416.1406 Q1099.6906,416.4375 1099.05,416.5859 Q1098.4094,416.7344 1097.7063,416.7344 Q1095.2063,416.7344 1093.8859,415.0859 Q1092.5656,413.4375 1092.5656,410.3125 Q1092.5656,407.1875 1093.8859,405.5313 Q1095.2063,403.875 1097.7063,403.875 Q1098.4094,403.875 1099.0578,404.0313 Q1099.7063,404.1875 1100.2688,404.4844 L1100.2688,407.2031 Q1099.6438,406.625 1099.05,406.3516 Q1098.4563,406.0781 1097.8313,406.0781 Q1096.4875,406.0781 1095.8,407.1484 Q1095.1125,408.2188 1095.1125,410.3125 Q1095.1125,412.4063 1095.8,413.4766 Q1096.4875,414.5469 1097.8313,414.5469 Q1098.4563,414.5469 1099.05,414.2734 Q1099.6438,414 1100.2688,413.4219 L1100.2688,416.1406 Z "/><text fill="#000000" font-family="sans-serif" font-size="12" lengthAdjust="spacingAndGlyphs" textLength="138" x="1116.7" y="414.6543">PingWeblogsComFilter</text><line style="stroke: #A80036; stroke-width: 1.5;" x1="1059" x2="1281" y1="426.5" y2="426.5"/><ellipse cx="1069" cy="438.4023" fill="none" rx="3" ry="3" style="stroke: #038048; stroke-width: 1.0;"/><text fill="#000000" font-family="sans-serif" font-size="11" lengthAdjust="spacingAndGlyphs" text-decoration="underline" textLength="126" x="1078" y="440.7104">PROP_PINGURL: String</text><line style="stroke: #A80036; stroke-width: 1.5;" x1="1059" x2="1281" y1="447.3047" y2="447.3047"/><ellipse cx="1069" cy="459.207" fill="#84BE84" rx="3" ry="3" style="stroke: #038048; stroke-width: 1.0;"/><text fill="#000000" font-family="sans-serif" font-size="11" lengthAdjust="spacingAndGlyphs" textLength="189" x="1078" y="461.5151">initialize(Engine, Properties): void</text><ellipse cx="1069" cy="472.0117" fill="#84BE84" rx="3" ry="3" style="stroke: #038048; stroke-width: 1.0;"/><text fill="#000000" font-family="sans-serif" font-size="11" lengthAdjust="spacingAndGlyphs" textLength="198" x="1078" y="474.3198">postSave(WikiContext, String): void</text></a><!--class org.apache.wiki.filters.SpamFilter--><a href="SpamFilter.html" target="_top" xlink:actuate="onRequest" xlink:show="new" xlink:title="SpamFilter.html" xlink:type="simple"><rect fill="#FEFECE" filter="url(#fnppmm8bz7w99)" height="342.5078" id="org.apache.wiki.filters.SpamFilter" style="stroke: #A80036; stroke-width: 1.5;" width="322" x="701" y="266"/><ellipse cx="824.75" cy="282" fill="#ADD1B2" rx="11" ry="11" style="stroke: #A80036; stroke-width: 1.0;"/><path d="M827.7188,287.6406 Q827.1406,287.9375 826.5,288.0859 Q825.8594,288.2344 825.1563,288.2344 Q822.6563,288.2344 821.3359,286.5859 Q820.0156,284.9375 820.0156,281.8125 Q820.0156,278.6875 821.3359,277.0313 Q822.6563,275.375 825.1563,275.375 Q825.8594,275.375 826.5078,275.5313 Q827.1563,275.6875 827.7188,275.9844 L827.7188,278.7031 Q827.0938,278.125 826.5,277.8516 Q825.9063,277.5781 825.2813,277.5781 Q823.9375,277.5781 823.25,278.6484 Q822.5625,279.7188 822.5625,281.8125 Q822.5625,283.9063 823.25,284.9766 Q823.9375,286.0469 825.2813,286.0469 Q825.9063,286.0469 826.5,285.7734 Q827.0938,285.5 827.7188,284.9219 L827.7188,287.6406 Z "/><text fill="#000000" font-family="sans-serif" font-size="12" lengthAdjust="spacingAndGlyphs" textLength="66" x="845.25" y="286.1543">SpamFilter</text><line style="stroke: #A80036; stroke-width: 1.5;" x1="702" x2="1022" y1="298" y2="298"/><ellipse cx="712" cy="309.9023" fill="none" rx="3" ry="3" style="stroke: #038048; stroke-width: 1.0;"/><text fill="#000000" font-family="sans-serif" font-size="11" lengthAdjust="spacingAndGlyphs" text-decoration="underline" textLength="135" x="721" y="312.2104">PROP_WORDLIST: String</text><ellipse cx="712" cy="322.707" fill="none" rx="3" ry="3" style="stroke: #038048; stroke-width: 1.0;"/><text fill="#000000" font-family="sans-serif" font-size="11" lengthAdjust="spacingAndGlyphs" text-decoration="underline" textLength="112" x="721" y="325.0151">PROP_IPLIST: String</text><ellipse cx="712" cy="335.5117" fill="none" rx="3" ry="3" style="stroke: #038048; stroke-width: 1.0;"/><text fill="#000000" font-family="sans-serif" font-size="11" lengthAdjust="spacingAndGlyphs" text-decoration="underline" textLength="219" x="721" y="337.8198">PROP_MAX_PAGENAME_LENGTH: String</text><ellipse cx="712" cy="348.3164" fill="none" rx="3" ry="3" style="stroke: #038048; stroke-width: 1.0;"/><text fill="#000000" font-family="sans-serif" font-size="11" lengthAdjust="spacingAndGlyphs" text-decoration="underline" textLength="145" x="721" y="350.6245">PROP_ERRORPAGE: String</text><ellipse cx="712" cy="361.1211" fill="none" rx="3" ry="3" style="stroke: #038048; stroke-width: 1.0;"/><text fill="#000000" font-family="sans-serif" font-size="11" lengthAdjust="spacingAndGlyphs" text-decoration="underline" textLength="163" x="721" y="363.4292">PROP_PAGECHANGES: String</text><ellipse cx="712" cy="373.9258" fill="none" rx="3" ry="3" style="stroke: #038048; stroke-width: 1.0;"/><text fill="#000000" font-family="sans-serif" font-size="11" lengthAdjust="spacingAndGlyphs" text-decoration="underline" textLength="176" x="721" y="376.2339">PROP_SIMILARCHANGES: String</text><ellipse cx="712" cy="386.7305" fill="none" rx="3" ry="3" style="stroke: #038048; stroke-width: 1.0;"/><text fill="#000000" font-family="sans-serif" font-size="11" lengthAdjust="spacingAndGlyphs" text-decoration="underline" textLength="127" x="721" y="389.0386">PROP_BANTIME: String</text><ellipse cx="712" cy="399.5352" fill="none" rx="3" ry="3" style="stroke: #038048; stroke-width: 1.0;"/><text fill="#000000" font-family="sans-serif" font-size="11" lengthAdjust="spacingAndGlyphs" text-decoration="underline" textLength="138" x="721" y="401.8433">PROP_BLACKLIST: String</text><ellipse cx="712" cy="412.3398" fill="none" rx="3" ry="3" style="stroke: #038048; stroke-width: 1.0;"/><text fill="#000000" font-family="sans-serif" font-size="11" lengthAdjust="spacingAndGlyphs" text-decoration="underline" textLength="130" x="721" y="414.6479">PROP_MAXURLS: String</text><ellipse cx="712" cy="425.1445" fill="none" rx="3" ry="3" style="stroke: #038048; stroke-width: 1.0;"/><text fill="#000000" font-family="sans-serif" font-size="11" lengthAdjust="spacingAndGlyphs" text-decoration="underline" textLength="176" x="721" y="427.4526">PROP_AKISMET_API_KEY: String</text><ellipse cx="712" cy="437.9492" fill="none" rx="3" ry="3" style="stroke: #038048; stroke-width: 1.0;"/><text fill="#000000" font-family="sans-serif" font-size="11" lengthAdjust="spacingAndGlyphs" text-decoration="underline" textLength="219" x="721" y="440.2573">PROP_IGNORE_AUTHENTICATED: String</text><ellipse cx="712" cy="450.7539" fill="none" rx="3" ry="3" style="stroke: #038048; stroke-width: 1.0;"/><text fill="#000000" font-family="sans-serif" font-size="11" lengthAdjust="spacingAndGlyphs" text-decoration="underline" textLength="130" x="721" y="453.062">PROP_CAPTCHA: String</text><ellipse cx="712" cy="463.5586" fill="none" rx="3" ry="3" style="stroke: #038048; stroke-width: 1.0;"/><text fill="#000000" font-family="sans-serif" font-size="11" lengthAdjust="spacingAndGlyphs" text-decoration="underline" textLength="173" x="721" y="465.8667">PROP_FILTERSTRATEGY: String</text><ellipse cx="712" cy="476.3633" fill="none" rx="3" ry="3" style="stroke: #038048; stroke-width: 1.0;"/><text fill="#000000" font-family="sans-serif" font-size="11" lengthAdjust="spacingAndGlyphs" text-decoration="underline" textLength="144" x="721" y="478.6714">STRATEGY_EAGER: String</text><ellipse cx="712" cy="489.168" fill="none" rx="3" ry="3" style="stroke: #038048; stroke-width: 1.0;"/><text fill="#000000" font-family="sans-serif" font-size="11" lengthAdjust="spacingAndGlyphs" text-decoration="underline" textLength="146" x="721" y="491.4761">STRATEGY_SCORE: String</text><line style="stroke: #A80036; stroke-width: 1.5;" x1="702" x2="1022" y1="498.0703" y2="498.0703"/><ellipse cx="712" cy="509.9727" fill="#84BE84" rx="3" ry="3" style="stroke: #038048; stroke-width: 1.0;"/><text fill="#000000" font-family="sans-serif" font-size="11" lengthAdjust="spacingAndGlyphs" textLength="189" x="721" y="512.2808">initialize(Engine, Properties): void</text><ellipse cx="712" cy="522.7773" fill="#84BE84" rx="3" ry="3" style="stroke: #038048; stroke-width: 1.0;"/><text fill="#000000" font-family="sans-serif" font-size="11" lengthAdjust="spacingAndGlyphs" textLength="203" x="721" y="525.0854">preSave(WikiContext, String): String</text><ellipse cx="712" cy="535.582" fill="#84BE84" rx="3" ry="3" style="stroke: #038048; stroke-width: 1.0;"/><text fill="#000000" font-family="sans-serif" font-size="11" lengthAdjust="spacingAndGlyphs" text-decoration="underline" textLength="146" x="721" y="537.8901">getBotFieldName(): String</text><ellipse cx="712" cy="548.3867" fill="#84BE84" rx="3" ry="3" style="stroke: #038048; stroke-width: 1.0;"/><text fill="#000000" font-family="sans-serif" font-size="11" lengthAdjust="spacingAndGlyphs" textLength="296" x="721" y="550.6948">isValidUserProfile(WikiContext, UserProfile): boolean</text><ellipse cx="712" cy="561.1914" fill="#84BE84" rx="3" ry="3" style="stroke: #038048; stroke-width: 1.0;"/><text fill="#000000" font-family="sans-serif" font-size="11" lengthAdjust="spacingAndGlyphs" text-decoration="underline" textLength="296" x="721" y="563.4995">getSpamHash(WikiPage, HttpServletRequest): String</text><ellipse cx="712" cy="573.9961" fill="#84BE84" rx="3" ry="3" style="stroke: #038048; stroke-width: 1.0;"/><text fill="#000000" font-family="sans-serif" font-size="11" lengthAdjust="spacingAndGlyphs" text-decoration="underline" textLength="265" x="721" y="576.3042">getHashFieldName(HttpServletRequest): String</text><ellipse cx="712" cy="586.8008" fill="#84BE84" rx="3" ry="3" style="stroke: #038048; stroke-width: 1.0;"/><text fill="#000000" font-family="sans-serif" font-size="11" lengthAdjust="spacingAndGlyphs" text-decoration="underline" textLength="265" x="721" y="589.1089">checkHash(WikiContext, PageContext): boolean</text><ellipse cx="712" cy="599.6055" fill="#84BE84" rx="3" ry="3" style="stroke: #038048; stroke-width: 1.0;"/><text fill="#000000" font-family="sans-serif" font-size="11" lengthAdjust="spacingAndGlyphs" text-decoration="underline" textLength="215" x="721" y="601.9136">insertInputFields(PageContext): String</text></a><!--class org.apache.wiki.filters.CreoleFilter--><a href="CreoleFilter.html" target="_top" xlink:actuate="onRequest" xlink:show="new" xlink:title="CreoleFilter.html" xlink:type="simple"><rect fill="#FEFECE" filter="url(#fnppmm8bz7w99)" height="86.4141" id="org.apache.wiki.filters.CreoleFilter" style="stroke: #A80036; stroke-width: 1.5;" width="255" x="410.5" y="394.5"/><ellipse cx="498.25" cy="410.5" fill="#ADD1B2" rx="11" ry="11" style="stroke: #A80036; stroke-width: 1.0;"/><path d="M501.2188,416.1406 Q500.6406,416.4375 500,416.5859 Q499.3594,416.7344 498.6563,416.7344 Q496.1563,416.7344 494.8359,415.0859 Q493.5156,413.4375 493.5156,410.3125 Q493.5156,407.1875 494.8359,405.5313 Q496.1563,403.875 498.6563,403.875 Q499.3594,403.875 500.0078,404.0313 Q500.6563,404.1875 501.2188,404.4844 L501.2188,407.2031 Q500.5938,406.625 500,406.3516 Q499.4063,406.0781 498.7813,406.0781 Q497.4375,406.0781 496.75,407.1484 Q496.0625,408.2188 496.0625,410.3125 Q496.0625,412.4063 496.75,413.4766 Q497.4375,414.5469 498.7813,414.5469 Q499.4063,414.5469 500,414.2734 Q500.5938,414 501.2188,413.4219 L501.2188,416.1406 Z "/><text fill="#000000" font-family="sans-serif" font-size="12" lengthAdjust="spacingAndGlyphs" textLength="71" x="518.75" y="414.6543">CreoleFilter</text><line style="stroke: #A80036; stroke-width: 1.5;" x1="411.5" x2="664.5" y1="426.5" y2="426.5"/><line style="stroke: #A80036; stroke-width: 1.5;" x1="411.5" x2="664.5" y1="434.5" y2="434.5"/><ellipse cx="421.5" cy="446.4023" fill="#84BE84" rx="3" ry="3" style="stroke: #038048; stroke-width: 1.0;"/><text fill="#000000" font-family="sans-serif" font-size="11" lengthAdjust="spacingAndGlyphs" textLength="189" x="430.5" y="448.7104">initialize(Engine, Properties): void</text><ellipse cx="421.5" cy="459.207" fill="#84BE84" rx="3" ry="3" style="stroke: #038048; stroke-width: 1.0;"/><text fill="#000000" font-family="sans-serif" font-size="11" lengthAdjust="spacingAndGlyphs" textLength="203" x="430.5" y="461.5151">preSave(WikiContext, String): String</text><ellipse cx="421.5" cy="472.0117" fill="#84BE84" rx="3" ry="3" style="stroke: #038048; stroke-width: 1.0;"/><text fill="#000000" font-family="sans-serif" font-size="11" lengthAdjust="spacingAndGlyphs" textLength="229" x="430.5" y="474.3198">preTranslate(WikiContext, String): String</text></a><!--class org.apache.wiki.filters.ProfanityFilter--><a href="ProfanityFilter.html" target="_top" xlink:actuate="onRequest" xlink:show="new" xlink:title="ProfanityFilter.html" xlink:type="simple"><rect fill="#FEFECE" filter="url(#fnppmm8bz7w99)" height="60.8047" id="org.apache.wiki.filters.ProfanityFilter" style="stroke: #A80036; stroke-width: 1.5;" width="255" x="1656.5" y="407"/><ellipse cx="1736.75" cy="423" fill="#ADD1B2" rx="11" ry="11" style="stroke: #A80036; stroke-width: 1.0;"/><path d="M1739.7188,428.6406 Q1739.1406,428.9375 1738.5,429.0859 Q1737.8594,429.2344 1737.1563,429.2344 Q1734.6563,429.2344 1733.3359,427.5859 Q1732.0156,425.9375 1732.0156,422.8125 Q1732.0156,419.6875 1733.3359,418.0313 Q1734.6563,416.375 1737.1563,416.375 Q1737.8594,416.375 1738.5078,416.5313 Q1739.1563,416.6875 1739.7188,416.9844 L1739.7188,419.7031 Q1739.0938,419.125 1738.5,418.8516 Q1737.9063,418.5781 1737.2813,418.5781 Q1735.9375,418.5781 1735.25,419.6484 Q1734.5625,420.7188 1734.5625,422.8125 Q1734.5625,424.9063 1735.25,425.9766 Q1735.9375,427.0469 1737.2813,427.0469 Q1737.9063,427.0469 1738.5,426.7734 Q1739.0938,426.5 1739.7188,425.9219 L1739.7188,428.6406 Z "/><text fill="#000000" font-family="sans-serif" font-size="12" lengthAdjust="spacingAndGlyphs" textLength="86" x="1757.25" y="427.1543">ProfanityFilter</text><line style="stroke: #A80036; stroke-width: 1.5;" x1="1657.5" x2="1910.5" y1="439" y2="439"/><line style="stroke: #A80036; stroke-width: 1.5;" x1="1657.5" x2="1910.5" y1="447" y2="447"/><ellipse cx="1667.5" cy="458.9023" fill="#84BE84" rx="3" ry="3" style="stroke: #038048; stroke-width: 1.0;"/><text fill="#000000" font-family="sans-serif" font-size="11" lengthAdjust="spacingAndGlyphs" textLength="229" x="1676.5" y="461.2104">preTranslate(WikiContext, String): String</text></a><!--class org.apache.wiki.modules.ModuleManager--><rect fill="#FEFECE" filter="url(#fnppmm8bz7w99)" height="73.6094" id="org.apache.wiki.modules.ModuleManager" style="stroke: #A80036; stroke-width: 1.5;" width="247" x="49.5" y="87.5"/><ellipse cx="118.75" cy="103.5" fill="#A9DCDF" rx="11" ry="11" style="stroke: #A80036; stroke-width: 1.0;"/><path d="M118.8594,98.8438 L117.7031,103.9219 L120.0313,103.9219 L118.8594,98.8438 Z M117.375,96.6094 L120.3594,96.6094 L123.7188,109 L121.2656,109 L120.5,105.9375 L117.2188,105.9375 L116.4688,109 L114.0313,109 L117.375,96.6094 Z "/><text fill="#000000" font-family="sans-serif" font-size="12" font-style="italic" lengthAdjust="spacingAndGlyphs" textLength="100" x="139.25" y="107.6543">ModuleManager</text><line style="stroke: #A80036; stroke-width: 1.5;" x1="50.5" x2="295.5" y1="119.5" y2="119.5"/><line style="stroke: #A80036; stroke-width: 1.5;" x1="50.5" x2="295.5" y1="127.5" y2="127.5"/><ellipse cx="60.5" cy="139.4023" fill="#84BE84" rx="3" ry="3" style="stroke: #038048; stroke-width: 1.0;"/><text fill="#000000" font-family="sans-serif" font-size="11" font-style="italic" lengthAdjust="spacingAndGlyphs" textLength="221" x="69.5" y="141.7104">modules(): Collection&lt;WikiModuleInfo&gt;</text><ellipse cx="60.5" cy="152.207" fill="#84BE84" rx="3" ry="3" style="stroke: #038048; stroke-width: 1.0;"/><text fill="#000000" font-family="sans-serif" font-size="11" font-style="italic" lengthAdjust="spacingAndGlyphs" textLength="212" x="69.5" y="154.5151">getModuleInfo(String): WikiModuleInfo</text><!--class org.apache.wiki.api.engine.FilterManager--><rect fill="#FEFECE" filter="url(#fnppmm8bz7w99)" height="163.2422" id="org.apache.wiki.api.engine.FilterManager" style="stroke: #A80036; stroke-width: 1.5;" width="319" x="331.5" y="43"/><ellipse cx="443.75" cy="59" fill="#B4A7E5" rx="11" ry="11" style="stroke: #A80036; stroke-width: 1.0;"/><path d="M439.6719,54.7656 L439.6719,52.6094 L447.0625,52.6094 L447.0625,54.7656 L444.5938,54.7656 L444.5938,62.8438 L447.0625,62.8438 L447.0625,65 L439.6719,65 L439.6719,62.8438 L442.1406,62.8438 L442.1406,54.7656 L439.6719,54.7656 Z "/><text fill="#000000" font-family="sans-serif" font-size="12" font-style="italic" lengthAdjust="spacingAndGlyphs" textLength="86" x="464.25" y="63.1543">FilterManager</text><line style="stroke: #A80036; stroke-width: 1.5;" x1="332.5" x2="649.5" y1="75" y2="75"/><line style="stroke: #A80036; stroke-width: 1.5;" x1="332.5" x2="649.5" y1="83" y2="83"/><ellipse cx="342.5" cy="94.9023" fill="#84BE84" rx="3" ry="3" style="stroke: #038048; stroke-width: 1.0;"/><text fill="#000000" font-family="sans-serif" font-size="11" font-style="italic" lengthAdjust="spacingAndGlyphs" textLength="195" x="351.5" y="97.2104">addPageFilter(PageFilter, int): void</text><ellipse cx="342.5" cy="107.707" fill="#84BE84" rx="3" ry="3" style="stroke: #038048; stroke-width: 1.0;"/><text fill="#000000" font-family="sans-serif" font-size="11" font-style="italic" lengthAdjust="spacingAndGlyphs" textLength="288" x="351.5" y="110.0151">doPreTranslateFiltering(WikiContext, String): String</text><ellipse cx="342.5" cy="120.5117" fill="#84BE84" rx="3" ry="3" style="stroke: #038048; stroke-width: 1.0;"/><text fill="#000000" font-family="sans-serif" font-size="11" font-style="italic" lengthAdjust="spacingAndGlyphs" textLength="293" x="351.5" y="122.8198">doPostTranslateFiltering(WikiContext, String): String</text><ellipse cx="342.5" cy="133.3164" fill="#84BE84" rx="3" ry="3" style="stroke: #038048; stroke-width: 1.0;"/><text fill="#000000" font-family="sans-serif" font-size="11" font-style="italic" lengthAdjust="spacingAndGlyphs" textLength="263" x="351.5" y="135.6245">doPreSaveFiltering(WikiContext, String): String</text><ellipse cx="342.5" cy="146.1211" fill="#84BE84" rx="3" ry="3" style="stroke: #038048; stroke-width: 1.0;"/><text fill="#000000" font-family="sans-serif" font-size="11" font-style="italic" lengthAdjust="spacingAndGlyphs" textLength="259" x="351.5" y="148.4292">doPostSaveFiltering(WikiContext, String): void</text><ellipse cx="342.5" cy="158.9258" fill="#84BE84" rx="3" ry="3" style="stroke: #038048; stroke-width: 1.0;"/><text fill="#000000" font-family="sans-serif" font-size="11" font-style="italic" lengthAdjust="spacingAndGlyphs" textLength="174" x="351.5" y="161.2339">getFilterList(): List&lt;PageFilter&gt;</text><ellipse cx="342.5" cy="171.7305" fill="#84BE84" rx="3" ry="3" style="stroke: #038048; stroke-width: 1.0;"/><text fill="#000000" font-family="sans-serif" font-size="11" font-style="italic" lengthAdjust="spacingAndGlyphs" textLength="83" x="351.5" y="174.0386">destroy(): void</text><ellipse cx="342.5" cy="184.5352" fill="#84BE84" rx="3" ry="3" style="stroke: #038048; stroke-width: 1.0;"/><text fill="#000000" font-family="sans-serif" font-size="11" font-style="italic" lengthAdjust="spacingAndGlyphs" textLength="221" x="351.5" y="186.8433">modules(): Collection&lt;WikiModuleInfo&gt;</text><ellipse cx="342.5" cy="197.3398" fill="#84BE84" rx="3" ry="3" style="stroke: #038048; stroke-width: 1.0;"/><text fill="#000000" font-family="sans-serif" font-size="11" font-style="italic" lengthAdjust="spacingAndGlyphs" textLength="212" x="351.5" y="199.6479">getModuleInfo(String): WikiModuleInfo</text><!--class org.apache.wiki.api.filters.BasicPageFilter--><rect fill="#FEFECE" filter="url(#fnppmm8bz7w99)" height="48" id="org.apache.wiki.api.filters.BasicPageFilter" style="stroke: #A80036; stroke-width: 1.5;" width="128" x="1106" y="100.5"/><ellipse cx="1121" cy="116.5" fill="#ADD1B2" rx="11" ry="11" style="stroke: #A80036; stroke-width: 1.0;"/><path d="M1123.9688,122.1406 Q1123.3906,122.4375 1122.75,122.5859 Q1122.1094,122.7344 1121.4063,122.7344 Q1118.9063,122.7344 1117.5859,121.0859 Q1116.2656,119.4375 1116.2656,116.3125 Q1116.2656,113.1875 1117.5859,111.5313 Q1118.9063,109.875 1121.4063,109.875 Q1122.1094,109.875 1122.7578,110.0313 Q1123.4063,110.1875 1123.9688,110.4844 L1123.9688,113.2031 Q1123.3438,112.625 1122.75,112.3516 Q1122.1563,112.0781 1121.5313,112.0781 Q1120.1875,112.0781 1119.5,113.1484 Q1118.8125,114.2188 1118.8125,116.3125 Q1118.8125,118.4063 1119.5,119.4766 Q1120.1875,120.5469 1121.5313,120.5469 Q1122.1563,120.5469 1122.75,120.2734 Q1123.3438,120 1123.9688,119.4219 L1123.9688,122.1406 Z "/><text fill="#000000" font-family="sans-serif" font-size="12" lengthAdjust="spacingAndGlyphs" textLength="96" x="1135" y="120.6543">BasicPageFilter</text><line style="stroke: #A80036; stroke-width: 1.5;" x1="1107" x2="1233" y1="132.5" y2="132.5"/><line style="stroke: #A80036; stroke-width: 1.5;" x1="1107" x2="1233" y1="140.5" y2="140.5"/><!--link org.apache.wiki.modules.ModuleManager to org.apache.wiki.filters.DefaultFilterManager--><path d="M177.7452,181.6249 C181.3318,224.8021 186.3482,285.1915 190.6069,336.4603 " fill="none" id="org.apache.wiki.modules.ModuleManager-org.apache.wiki.filters.DefaultFilterManager" style="stroke: #A80036; stroke-width: 1.0;"/><polygon fill="none" points="170.7644,182.1452,176.0846,161.6343,184.7163,180.9862,170.7644,182.1452" style="stroke: #A80036; stroke-width: 1.0;"/><!--link org.apache.wiki.api.engine.FilterManager to org.apache.wiki.filters.DefaultFilterManager--><path d="M400.8668,221.1153 C366.7743,257.6598 327.8956,299.3345 293.4201,336.2894 " fill="none" id="org.apache.wiki.api.engine.FilterManager-org.apache.wiki.filters.DefaultFilterManager" style="stroke: #A80036; stroke-width: 1.0; stroke-dasharray: 7.0,7.0;"/><polygon fill="none" points="395.9003,216.1774,414.6618,206.3282,406.1373,225.7275,395.9003,216.1774" style="stroke: #A80036; stroke-width: 1.0;"/><!--link org.apache.wiki.api.filters.BasicPageFilter to org.apache.wiki.filters.PageEventFilter--><path d="M1215.154,161.4997 C1240.8424,183.2206 1273.1471,211.6924 1300,239 C1338.2393,277.8868 1377.9238,324.1453 1409.2206,362.2199 " fill="none" id="org.apache.wiki.api.filters.BasicPageFilter-org.apache.wiki.filters.PageEventFilter" style="stroke: #A80036; stroke-width: 1.0;"/><polygon fill="none" points="1210.5846,166.8036,1199.7382,148.6004,1219.5689,156.0666,1210.5846,166.8036" style="stroke: #A80036; stroke-width: 1.0;"/><!--link org.apache.wiki.api.filters.BasicPageFilter to org.apache.wiki.filters.PingWeblogsComFilter--><path d="M1170,168.6862 C1170,228.5898 1170,334.8905 1170,394.2868 " fill="none" id="org.apache.wiki.api.filters.BasicPageFilter-org.apache.wiki.filters.PingWeblogsComFilter" style="stroke: #A80036; stroke-width: 1.0;"/><polygon fill="none" points="1163.0001,168.5409,1170,148.5409,1177.0001,168.5408,1163.0001,168.5409" style="stroke: #A80036; stroke-width: 1.0;"/><!--link org.apache.wiki.api.filters.BasicPageFilter to org.apache.wiki.filters.SpamFilter--><path d="M1125.7606,161.6288 C1100.3359,183.4884 1068.1576,212.0553 1041,239 C1032.2705,247.6611 1023.4302,256.6561 1014.5955,265.8231 " fill="none" id="org.apache.wiki.api.filters.BasicPageFilter-org.apache.wiki.filters.SpamFilter" style="stroke: #A80036; stroke-width: 1.0;"/><polygon fill="none" points="1121.2321,156.2909,1140.9918,148.6387,1130.3168,166.943,1121.2321,156.2909" style="stroke: #A80036; stroke-width: 1.0;"/><!--link org.apache.wiki.api.filters.BasicPageFilter to org.apache.wiki.filters.CreoleFilter--><path d="M1085.7338,137.1537 C964.7982,156.5084 749.3722,195.7951 684,239 C625.2909,277.8012 581.7478,348.6987 558.1214,394.4226 " fill="none" id="org.apache.wiki.api.filters.BasicPageFilter-org.apache.wiki.filters.CreoleFilter" style="stroke: #A80036; stroke-width: 1.0;"/><polygon fill="none" points="1084.8797,130.202,1105.7265,133.9979,1087.0626,144.0307,1084.8797,130.202" style="stroke: #A80036; stroke-width: 1.0;"/><!--link org.apache.wiki.api.filters.BasicPageFilter to org.apache.wiki.filters.ProfanityFilter--><path d="M1254.0127,137.8819 C1371.2287,157.7395 1576.5065,197.1861 1639,239 C1702.8454,281.7184 1748.594,362.4994 1770.1302,406.6982 " fill="none" id="org.apache.wiki.api.filters.BasicPageFilter-org.apache.wiki.filters.ProfanityFilter" style="stroke: #A80036; stroke-width: 1.0;"/><polygon fill="none" points="1252.822,144.7801,1234.2499,134.5781,1255.1304,130.9717,1252.822,144.7801" style="stroke: #A80036; stroke-width: 1.0;"/><text fill="#888888" font-family="sans-serif" font-size="10" lengthAdjust="spacingAndGlyphs" textLength="186" x="880" y="644.2822">UMLDoclet 1.1.4, PlantUML 1.2019.05</text><!--
@startuml

    namespace org.apache.wiki.filters {

        class DefaultFilterManager [[DefaultFilterManager.html]] {
            +DefaultFilterManager(Engine, Properties)
            +addPageFilter(PageFilter, int): void
            #initialize(Properties): void
            +doPreTranslateFiltering(WikiContext, String): String
            +doPostTranslateFiltering(WikiContext, String): String
            +doPreSaveFiltering(WikiContext, String): String
            +doPostSaveFiltering(WikiContext, String): void
            +getFilterList(): List<PageFilter>
            +destroy(): void
            +fireEvent(int, WikiContext): void
            +modules(): Collection<WikiModuleInfo>
            +getModuleInfo(String): DefaultFilterManager.PageFilterInfo
        }

        class PageEventFilter [[PageEventFilter.html]] {
            +initialize(Properties): void
            +preTranslate(WikiContext, String): String
            +postTranslate(WikiContext, String): String
            +preSave(WikiContext, String): String
            +postSave(WikiContext, String): void
            +addWikiEventListener(WikiEventListener): void
            +removeWikiEventListener(WikiEventListener): void
            #fireEvent(int, WikiContext): void
        }

        class PingWeblogsComFilter [[PingWeblogsComFilter.html]] {
            {static} +PROP_PINGURL: String
            +initialize(Engine, Properties): void
            +postSave(WikiContext, String): void
        }

        class SpamFilter [[SpamFilter.html]] {
            {static} +PROP_WORDLIST: String
            {static} +PROP_IPLIST: String
            {static} +PROP_MAX_PAGENAME_LENGTH: String
            {static} +PROP_ERRORPAGE: String
            {static} +PROP_PAGECHANGES: String
            {static} +PROP_SIMILARCHANGES: String
            {static} +PROP_BANTIME: String
            {static} +PROP_BLACKLIST: String
            {static} +PROP_MAXURLS: String
            {static} +PROP_AKISMET_API_KEY: String
            {static} +PROP_IGNORE_AUTHENTICATED: String
            {static} +PROP_CAPTCHA: String
            {static} +PROP_FILTERSTRATEGY: String
            {static} +STRATEGY_EAGER: String
            {static} +STRATEGY_SCORE: String
            +initialize(Engine, Properties): void
            +preSave(WikiContext, String): String
            {static} +getBotFieldName(): String
            +isValidUserProfile(WikiContext, UserProfile): boolean
            {static} +getSpamHash(WikiPage, HttpServletRequest): String
            {static} +getHashFieldName(HttpServletRequest): String
            {static} +checkHash(WikiContext, PageContext): boolean
            {static} +insertInputFields(PageContext): String
        }

        class CreoleFilter [[CreoleFilter.html]] {
            +initialize(Engine, Properties): void
            +preSave(WikiContext, String): String
            +preTranslate(WikiContext, String): String
        }

        class ProfanityFilter [[ProfanityFilter.html]] {
            +preTranslate(WikiContext, String): String
        }

        abstract class org.apache.wiki.modules.ModuleManager {
            {abstract} +modules(): Collection<WikiModuleInfo>
            {abstract} +getModuleInfo(String): WikiModuleInfo
        }
        org.apache.wiki.modules.ModuleManager <|- - DefaultFilterManager

        interface org.apache.wiki.api.engine.FilterManager {
            {abstract} +addPageFilter(PageFilter, int): void
            {abstract} +doPreTranslateFiltering(WikiContext, String): String
            {abstract} +doPostTranslateFiltering(WikiContext, String): String
            {abstract} +doPreSaveFiltering(WikiContext, String): String
            {abstract} +doPostSaveFiltering(WikiContext, String): void
            {abstract} +getFilterList(): List<PageFilter>
            {abstract} +destroy(): void
            {abstract} +modules(): Collection<WikiModuleInfo>
            {abstract} +getModuleInfo(String): WikiModuleInfo
        }
        org.apache.wiki.api.engine.FilterManager <|.. DefaultFilterManager

        class org.apache.wiki.api.filters.BasicPageFilter
        org.apache.wiki.api.filters.BasicPageFilter <|- - PageEventFilter

        org.apache.wiki.api.filters.BasicPageFilter <|- - PingWeblogsComFilter

        org.apache.wiki.api.filters.BasicPageFilter <|- - SpamFilter

        org.apache.wiki.api.filters.BasicPageFilter <|- - CreoleFilter

        org.apache.wiki.api.filters.BasicPageFilter <|- - ProfanityFilter

    }


    center footer UMLDoclet 1.1.4, PlantUML 1.2019.05
@enduml

PlantUML version 1.2019.05(Sat Apr 20 16:45:36 UTC 2019)
(APACHE source distribution)
Java Runtime: Java(TM) SE Runtime Environment
JVM: Java HotSpot(TM) 64-Bit Server VM
Java Version: 1.8.0_241-b07
Operating System: Linux
OS Version: 4.15.0-74-generic
Default Encoding: ISO-8859-1
Language: en
Country: US
--></g></svg>