<?xml version="1.0" encoding="UTF-8" standalone="no"?><svg xmlns="http://www.w3.org/2000/svg" xmlns:xlink="http://www.w3.org/1999/xlink" contentScriptType="application/ecmascript" contentStyleType="text/css" height="842px" preserveAspectRatio="none" style="width:1986px;height:842px;" version="1.1" viewBox="0 0 1986 842" width="1986px" zoomAndPan="magnify"><defs><filter height="300%" id="f8dwydrugk3rw" width="300%" x="-1" y="-1"><feGaussianBlur result="blurOut" stdDeviation="2.0"/><feColorMatrix in="blurOut" result="blurOut2" type="matrix" values="0 0 0 0 0 0 0 0 0 0 0 0 0 0 0 0 0 0 .4 0"/><feOffset dx="4.0" dy="4.0" in="blurOut2" result="blurOut3"/><feBlend in="SourceGraphic" in2="blurOut3" mode="normal"/></filter></defs><g><!--cluster org.apache.wiki.filters--><polygon fill="#FFFFFF" filter="url(#f8dwydrugk3rw)" points="14,162,196,162,203,184.2969,1790,184.2969,1790,802,14,802,14,162" style="stroke: #000000; stroke-width: 1.5;"/><line style="stroke: #000000; stroke-width: 1.5;" x1="14" x2="203" y1="184.2969" y2="184.2969"/><text fill="#000000" font-family="sans-serif" font-size="14" font-weight="bold" lengthAdjust="spacingAndGlyphs" textLength="176" x="18" y="176.9951">org.apache.wiki.filters</text><!--cluster org.apache.wiki.modules--><polygon fill="#FFFFFF" filter="url(#f8dwydrugk3rw)" points="1473,16,1676,16,1683,38.2969,1964,38.2969,1964,137,1473,137,1473,16" style="stroke: #000000; stroke-width: 1.5;"/><line style="stroke: #000000; stroke-width: 1.5;" x1="1473" x2="1683" y1="38.2969" y2="38.2969"/><text fill="#000000" font-family="sans-serif" font-size="14" font-weight="bold" lengthAdjust="spacingAndGlyphs" textLength="197" x="1477" y="30.9951">org.apache.wiki.modules</text><!--cluster org.apache.wiki.api.filters--><polygon fill="#FFFFFF" filter="url(#f8dwydrugk3rw)" points="628,35,838,35,845,57.2969,848,57.2969,848,118,628,118,628,35" style="stroke: #000000; stroke-width: 1.5;"/><line style="stroke: #000000; stroke-width: 1.5;" x1="628" x2="845" y1="57.2969" y2="57.2969"/><text fill="#000000" font-family="sans-serif" font-size="14" font-weight="bold" lengthAdjust="spacingAndGlyphs" textLength="204" x="632" y="49.9951">org.apache.wiki.api.filters</text><!--class org.apache.wiki.filters.FilterManager--><a href="FilterManager.html" target="_top" xlink:actuate="onRequest" xlink:show="new" xlink:title="FilterManager.html" xlink:type="simple"><rect fill="#FEFECE" filter="url(#f8dwydrugk3rw)" height="188.8516" id="org.apache.wiki.filters.FilterManager" style="stroke: #A80036; stroke-width: 1.5;" width="296" x="1486" y="266"/><ellipse cx="1586.75" cy="282" fill="#B4A7E5" rx="11" ry="11" style="stroke: #A80036; stroke-width: 1.0;"/><path d="M1582.6719,277.7656 L1582.6719,275.6094 L1590.0625,275.6094 L1590.0625,277.7656 L1587.5938,277.7656 L1587.5938,285.8438 L1590.0625,285.8438 L1590.0625,288 L1582.6719,288 L1582.6719,285.8438 L1585.1406,285.8438 L1585.1406,277.7656 L1582.6719,277.7656 Z "/><text fill="#000000" font-family="sans-serif" font-size="12" font-style="italic" lengthAdjust="spacingAndGlyphs" textLength="86" x="1607.25" y="286.1543">FilterManager</text><line style="stroke: #A80036; stroke-width: 1.5;" x1="1487" x2="1781" y1="298" y2="298"/><ellipse cx="1497" cy="309.9023" fill="none" rx="3" ry="3" style="stroke: #038048; stroke-width: 1.0;"/><text fill="#000000" font-family="sans-serif" font-size="11" lengthAdjust="spacingAndGlyphs" text-decoration="underline" textLength="136" x="1506" y="312.2104">PROP_FILTERXML: String</text><ellipse cx="1497" cy="322.707" fill="none" rx="3" ry="3" style="stroke: #038048; stroke-width: 1.0;"/><text fill="#000000" font-family="sans-serif" font-size="11" lengthAdjust="spacingAndGlyphs" text-decoration="underline" textLength="141" x="1506" y="325.0151">DEFAULT_XMLFILE: String</text><ellipse cx="1497" cy="335.5117" fill="none" rx="3" ry="3" style="stroke: #038048; stroke-width: 1.0;"/><text fill="#000000" font-family="sans-serif" font-size="11" lengthAdjust="spacingAndGlyphs" text-decoration="underline" textLength="166" x="1506" y="337.8198">SYSTEM_FILTER_PRIORITY: int</text><ellipse cx="1497" cy="348.3164" fill="none" rx="3" ry="3" style="stroke: #038048; stroke-width: 1.0;"/><text fill="#000000" font-family="sans-serif" font-size="11" lengthAdjust="spacingAndGlyphs" text-decoration="underline" textLength="150" x="1506" y="350.6245">USER_FILTER_PRIORITY: int</text><line style="stroke: #A80036; stroke-width: 1.5;" x1="1487" x2="1781" y1="357.2188" y2="357.2188"/><ellipse cx="1497" cy="369.1211" fill="#84BE84" rx="3" ry="3" style="stroke: #038048; stroke-width: 1.0;"/><text fill="#000000" font-family="sans-serif" font-size="11" font-style="italic" lengthAdjust="spacingAndGlyphs" textLength="195" x="1506" y="371.4292">addPageFilter(PageFilter, int): void</text><ellipse cx="1497" cy="381.9258" fill="#84BE84" rx="3" ry="3" style="stroke: #038048; stroke-width: 1.0;"/><text fill="#000000" font-family="sans-serif" font-size="11" font-style="italic" lengthAdjust="spacingAndGlyphs" textLength="265" x="1506" y="384.2339">doPreTranslateFiltering(Context, String): String</text><ellipse cx="1497" cy="394.7305" fill="#84BE84" rx="3" ry="3" style="stroke: #038048; stroke-width: 1.0;"/><text fill="#000000" font-family="sans-serif" font-size="11" font-style="italic" lengthAdjust="spacingAndGlyphs" textLength="270" x="1506" y="397.0386">doPostTranslateFiltering(Context, String): String</text><ellipse cx="1497" cy="407.5352" fill="#84BE84" rx="3" ry="3" style="stroke: #038048; stroke-width: 1.0;"/><text fill="#000000" font-family="sans-serif" font-size="11" font-style="italic" lengthAdjust="spacingAndGlyphs" textLength="240" x="1506" y="409.8433">doPreSaveFiltering(Context, String): String</text><ellipse cx="1497" cy="420.3398" fill="#84BE84" rx="3" ry="3" style="stroke: #038048; stroke-width: 1.0;"/><text fill="#000000" font-family="sans-serif" font-size="11" font-style="italic" lengthAdjust="spacingAndGlyphs" textLength="236" x="1506" y="422.6479">doPostSaveFiltering(Context, String): void</text><ellipse cx="1497" cy="433.1445" fill="#84BE84" rx="3" ry="3" style="stroke: #038048; stroke-width: 1.0;"/><text fill="#000000" font-family="sans-serif" font-size="11" font-style="italic" lengthAdjust="spacingAndGlyphs" textLength="174" x="1506" y="435.4526">getFilterList(): List&lt;PageFilter&gt;</text><ellipse cx="1497" cy="445.9492" fill="#84BE84" rx="3" ry="3" style="stroke: #038048; stroke-width: 1.0;"/><text fill="#000000" font-family="sans-serif" font-size="11" font-style="italic" lengthAdjust="spacingAndGlyphs" textLength="83" x="1506" y="448.2573">destroy(): void</text></a><!--class org.apache.wiki.filters.DefaultFilterManager--><a href="DefaultFilterManager.html" target="_top" xlink:actuate="onRequest" xlink:show="new" xlink:title="DefaultFilterManager.html" xlink:type="simple"><rect fill="#FEFECE" filter="url(#f8dwydrugk3rw)" height="201.6563" id="org.apache.wiki.filters.DefaultFilterManager" style="stroke: #A80036; stroke-width: 1.5;" width="353" x="1428.5" y="592"/><ellipse cx="1535.25" cy="608" fill="#ADD1B2" rx="11" ry="11" style="stroke: #A80036; stroke-width: 1.0;"/><path d="M1538.2188,613.6406 Q1537.6406,613.9375 1537,614.0859 Q1536.3594,614.2344 1535.6563,614.2344 Q1533.1563,614.2344 1531.8359,612.5859 Q1530.5156,610.9375 1530.5156,607.8125 Q1530.5156,604.6875 1531.8359,603.0313 Q1533.1563,601.375 1535.6563,601.375 Q1536.3594,601.375 1537.0078,601.5313 Q1537.6563,601.6875 1538.2188,601.9844 L1538.2188,604.7031 Q1537.5938,604.125 1537,603.8516 Q1536.4063,603.5781 1535.7813,603.5781 Q1534.4375,603.5781 1533.75,604.6484 Q1533.0625,605.7188 1533.0625,607.8125 Q1533.0625,609.9063 1533.75,610.9766 Q1534.4375,612.0469 1535.7813,612.0469 Q1536.4063,612.0469 1537,611.7734 Q1537.5938,611.5 1538.2188,610.9219 L1538.2188,613.6406 Z "/><text fill="#000000" font-family="sans-serif" font-size="12" lengthAdjust="spacingAndGlyphs" textLength="131" x="1555.75" y="612.1543">DefaultFilterManager</text><line style="stroke: #A80036; stroke-width: 1.5;" x1="1429.5" x2="1780.5" y1="624" y2="624"/><line style="stroke: #A80036; stroke-width: 1.5;" x1="1429.5" x2="1780.5" y1="632" y2="632"/><ellipse cx="1439.5" cy="643.9023" fill="#84BE84" rx="3" ry="3" style="stroke: #038048; stroke-width: 1.0;"/><text fill="#000000" font-family="sans-serif" font-size="11" lengthAdjust="spacingAndGlyphs" textLength="230" x="1448.5" y="646.2104">DefaultFilterManager(Engine, Properties)</text><ellipse cx="1439.5" cy="656.707" fill="#84BE84" rx="3" ry="3" style="stroke: #038048; stroke-width: 1.0;"/><text fill="#000000" font-family="sans-serif" font-size="11" lengthAdjust="spacingAndGlyphs" textLength="194" x="1448.5" y="659.0151">addPageFilter(PageFilter, int): void</text><polygon fill="#FFFF44" points="1439.5,664.5117,1443.5,668.5117,1439.5,672.5117,1435.5,668.5117" style="stroke: #B38D22; stroke-width: 1.0;"/><text fill="#000000" font-family="sans-serif" font-size="11" lengthAdjust="spacingAndGlyphs" textLength="143" x="1448.5" y="671.8198">initialize(Properties): void</text><ellipse cx="1439.5" cy="682.3164" fill="#84BE84" rx="3" ry="3" style="stroke: #038048; stroke-width: 1.0;"/><text fill="#000000" font-family="sans-serif" font-size="11" lengthAdjust="spacingAndGlyphs" textLength="267" x="1448.5" y="684.6245">doPreTranslateFiltering(Context, String): String</text><ellipse cx="1439.5" cy="695.1211" fill="#84BE84" rx="3" ry="3" style="stroke: #038048; stroke-width: 1.0;"/><text fill="#000000" font-family="sans-serif" font-size="11" lengthAdjust="spacingAndGlyphs" textLength="273" x="1448.5" y="697.4292">doPostTranslateFiltering(Context, String): String</text><ellipse cx="1439.5" cy="707.9258" fill="#84BE84" rx="3" ry="3" style="stroke: #038048; stroke-width: 1.0;"/><text fill="#000000" font-family="sans-serif" font-size="11" lengthAdjust="spacingAndGlyphs" textLength="241" x="1448.5" y="710.2339">doPreSaveFiltering(Context, String): String</text><ellipse cx="1439.5" cy="720.7305" fill="#84BE84" rx="3" ry="3" style="stroke: #038048; stroke-width: 1.0;"/><text fill="#000000" font-family="sans-serif" font-size="11" lengthAdjust="spacingAndGlyphs" textLength="236" x="1448.5" y="723.0386">doPostSaveFiltering(Context, String): void</text><ellipse cx="1439.5" cy="733.5352" fill="#84BE84" rx="3" ry="3" style="stroke: #038048; stroke-width: 1.0;"/><text fill="#000000" font-family="sans-serif" font-size="11" lengthAdjust="spacingAndGlyphs" textLength="176" x="1448.5" y="735.8433">getFilterList(): List&lt;PageFilter&gt;</text><ellipse cx="1439.5" cy="746.3398" fill="#84BE84" rx="3" ry="3" style="stroke: #038048; stroke-width: 1.0;"/><text fill="#000000" font-family="sans-serif" font-size="11" lengthAdjust="spacingAndGlyphs" textLength="82" x="1448.5" y="748.6479">destroy(): void</text><ellipse cx="1439.5" cy="759.1445" fill="#84BE84" rx="3" ry="3" style="stroke: #038048; stroke-width: 1.0;"/><text fill="#000000" font-family="sans-serif" font-size="11" lengthAdjust="spacingAndGlyphs" textLength="154" x="1448.5" y="761.4526">fireEvent(int, Context): void</text><ellipse cx="1439.5" cy="771.9492" fill="#84BE84" rx="3" ry="3" style="stroke: #038048; stroke-width: 1.0;"/><text fill="#000000" font-family="sans-serif" font-size="11" lengthAdjust="spacingAndGlyphs" textLength="220" x="1448.5" y="774.2573">modules(): Collection&lt;WikiModuleInfo&gt;</text><ellipse cx="1439.5" cy="784.7539" fill="#84BE84" rx="3" ry="3" style="stroke: #038048; stroke-width: 1.0;"/><text fill="#000000" font-family="sans-serif" font-size="11" lengthAdjust="spacingAndGlyphs" textLength="327" x="1448.5" y="787.062">getModuleInfo(String): DefaultFilterManager.PageFilterInfo</text></a><!--class org.apache.wiki.filters.CreoleFilter--><a href="CreoleFilter.html" target="_top" xlink:actuate="onRequest" xlink:show="new" xlink:title="CreoleFilter.html" xlink:type="simple"><rect fill="#FEFECE" filter="url(#f8dwydrugk3rw)" height="86.4141" id="org.apache.wiki.filters.CreoleFilter" style="stroke: #A80036; stroke-width: 1.5;" width="234" x="1217" y="317.5"/><ellipse cx="1294.25" cy="333.5" fill="#ADD1B2" rx="11" ry="11" style="stroke: #A80036; stroke-width: 1.0;"/><path d="M1297.2188,339.1406 Q1296.6406,339.4375 1296,339.5859 Q1295.3594,339.7344 1294.6563,339.7344 Q1292.1563,339.7344 1290.8359,338.0859 Q1289.5156,336.4375 1289.5156,333.3125 Q1289.5156,330.1875 1290.8359,328.5313 Q1292.1563,326.875 1294.6563,326.875 Q1295.3594,326.875 1296.0078,327.0313 Q1296.6563,327.1875 1297.2188,327.4844 L1297.2188,330.2031 Q1296.5938,329.625 1296,329.3516 Q1295.4063,329.0781 1294.7813,329.0781 Q1293.4375,329.0781 1292.75,330.1484 Q1292.0625,331.2188 1292.0625,333.3125 Q1292.0625,335.4063 1292.75,336.4766 Q1293.4375,337.5469 1294.7813,337.5469 Q1295.4063,337.5469 1296,337.2734 Q1296.5938,337 1297.2188,336.4219 L1297.2188,339.1406 Z "/><text fill="#000000" font-family="sans-serif" font-size="12" lengthAdjust="spacingAndGlyphs" textLength="71" x="1314.75" y="337.6543">CreoleFilter</text><line style="stroke: #A80036; stroke-width: 1.5;" x1="1218" x2="1450" y1="349.5" y2="349.5"/><line style="stroke: #A80036; stroke-width: 1.5;" x1="1218" x2="1450" y1="357.5" y2="357.5"/><ellipse cx="1228" cy="369.4023" fill="#84BE84" rx="3" ry="3" style="stroke: #038048; stroke-width: 1.0;"/><text fill="#000000" font-family="sans-serif" font-size="11" lengthAdjust="spacingAndGlyphs" textLength="189" x="1237" y="371.7104">initialize(Engine, Properties): void</text><ellipse cx="1228" cy="382.207" fill="#84BE84" rx="3" ry="3" style="stroke: #038048; stroke-width: 1.0;"/><text fill="#000000" font-family="sans-serif" font-size="11" lengthAdjust="spacingAndGlyphs" textLength="182" x="1237" y="384.5151">preSave(Context, String): String</text><ellipse cx="1228" cy="395.0117" fill="#84BE84" rx="3" ry="3" style="stroke: #038048; stroke-width: 1.0;"/><text fill="#000000" font-family="sans-serif" font-size="11" lengthAdjust="spacingAndGlyphs" textLength="208" x="1237" y="397.3198">preTranslate(Context, String): String</text></a><!--class org.apache.wiki.filters.SpamFilter--><a href="SpamFilter.html" target="_top" xlink:actuate="onRequest" xlink:show="new" xlink:title="SpamFilter.html" xlink:type="simple"><rect fill="#FEFECE" filter="url(#f8dwydrugk3rw)" height="342.5078" id="org.apache.wiki.filters.SpamFilter" style="stroke: #A80036; stroke-width: 1.5;" width="301" x="880.5" y="189"/><ellipse cx="993.75" cy="205" fill="#ADD1B2" rx="11" ry="11" style="stroke: #A80036; stroke-width: 1.0;"/><path d="M996.7188,210.6406 Q996.1406,210.9375 995.5,211.0859 Q994.8594,211.2344 994.1563,211.2344 Q991.6563,211.2344 990.3359,209.5859 Q989.0156,207.9375 989.0156,204.8125 Q989.0156,201.6875 990.3359,200.0313 Q991.6563,198.375 994.1563,198.375 Q994.8594,198.375 995.5078,198.5313 Q996.1563,198.6875 996.7188,198.9844 L996.7188,201.7031 Q996.0938,201.125 995.5,200.8516 Q994.9063,200.5781 994.2813,200.5781 Q992.9375,200.5781 992.25,201.6484 Q991.5625,202.7188 991.5625,204.8125 Q991.5625,206.9063 992.25,207.9766 Q992.9375,209.0469 994.2813,209.0469 Q994.9063,209.0469 995.5,208.7734 Q996.0938,208.5 996.7188,207.9219 L996.7188,210.6406 Z "/><text fill="#000000" font-family="sans-serif" font-size="12" lengthAdjust="spacingAndGlyphs" textLength="66" x="1014.25" y="209.1543">SpamFilter</text><line style="stroke: #A80036; stroke-width: 1.5;" x1="881.5" x2="1180.5" y1="221" y2="221"/><ellipse cx="891.5" cy="232.9023" fill="none" rx="3" ry="3" style="stroke: #038048; stroke-width: 1.0;"/><text fill="#000000" font-family="sans-serif" font-size="11" lengthAdjust="spacingAndGlyphs" text-decoration="underline" textLength="135" x="900.5" y="235.2104">PROP_WORDLIST: String</text><ellipse cx="891.5" cy="245.707" fill="none" rx="3" ry="3" style="stroke: #038048; stroke-width: 1.0;"/><text fill="#000000" font-family="sans-serif" font-size="11" lengthAdjust="spacingAndGlyphs" text-decoration="underline" textLength="112" x="900.5" y="248.0151">PROP_IPLIST: String</text><ellipse cx="891.5" cy="258.5117" fill="none" rx="3" ry="3" style="stroke: #038048; stroke-width: 1.0;"/><text fill="#000000" font-family="sans-serif" font-size="11" lengthAdjust="spacingAndGlyphs" text-decoration="underline" textLength="219" x="900.5" y="260.8198">PROP_MAX_PAGENAME_LENGTH: String</text><ellipse cx="891.5" cy="271.3164" fill="none" rx="3" ry="3" style="stroke: #038048; stroke-width: 1.0;"/><text fill="#000000" font-family="sans-serif" font-size="11" lengthAdjust="spacingAndGlyphs" text-decoration="underline" textLength="145" x="900.5" y="273.6245">PROP_ERRORPAGE: String</text><ellipse cx="891.5" cy="284.1211" fill="none" rx="3" ry="3" style="stroke: #038048; stroke-width: 1.0;"/><text fill="#000000" font-family="sans-serif" font-size="11" lengthAdjust="spacingAndGlyphs" text-decoration="underline" textLength="163" x="900.5" y="286.4292">PROP_PAGECHANGES: String</text><ellipse cx="891.5" cy="296.9258" fill="none" rx="3" ry="3" style="stroke: #038048; stroke-width: 1.0;"/><text fill="#000000" font-family="sans-serif" font-size="11" lengthAdjust="spacingAndGlyphs" text-decoration="underline" textLength="176" x="900.5" y="299.2339">PROP_SIMILARCHANGES: String</text><ellipse cx="891.5" cy="309.7305" fill="none" rx="3" ry="3" style="stroke: #038048; stroke-width: 1.0;"/><text fill="#000000" font-family="sans-serif" font-size="11" lengthAdjust="spacingAndGlyphs" text-decoration="underline" textLength="127" x="900.5" y="312.0386">PROP_BANTIME: String</text><ellipse cx="891.5" cy="322.5352" fill="none" rx="3" ry="3" style="stroke: #038048; stroke-width: 1.0;"/><text fill="#000000" font-family="sans-serif" font-size="11" lengthAdjust="spacingAndGlyphs" text-decoration="underline" textLength="138" x="900.5" y="324.8433">PROP_BLACKLIST: String</text><ellipse cx="891.5" cy="335.3398" fill="none" rx="3" ry="3" style="stroke: #038048; stroke-width: 1.0;"/><text fill="#000000" font-family="sans-serif" font-size="11" lengthAdjust="spacingAndGlyphs" text-decoration="underline" textLength="130" x="900.5" y="337.6479">PROP_MAXURLS: String</text><ellipse cx="891.5" cy="348.1445" fill="none" rx="3" ry="3" style="stroke: #038048; stroke-width: 1.0;"/><text fill="#000000" font-family="sans-serif" font-size="11" lengthAdjust="spacingAndGlyphs" text-decoration="underline" textLength="176" x="900.5" y="350.4526">PROP_AKISMET_API_KEY: String</text><ellipse cx="891.5" cy="360.9492" fill="none" rx="3" ry="3" style="stroke: #038048; stroke-width: 1.0;"/><text fill="#000000" font-family="sans-serif" font-size="11" lengthAdjust="spacingAndGlyphs" text-decoration="underline" textLength="219" x="900.5" y="363.2573">PROP_IGNORE_AUTHENTICATED: String</text><ellipse cx="891.5" cy="373.7539" fill="none" rx="3" ry="3" style="stroke: #038048; stroke-width: 1.0;"/><text fill="#000000" font-family="sans-serif" font-size="11" lengthAdjust="spacingAndGlyphs" text-decoration="underline" textLength="130" x="900.5" y="376.062">PROP_CAPTCHA: String</text><ellipse cx="891.5" cy="386.5586" fill="none" rx="3" ry="3" style="stroke: #038048; stroke-width: 1.0;"/><text fill="#000000" font-family="sans-serif" font-size="11" lengthAdjust="spacingAndGlyphs" text-decoration="underline" textLength="173" x="900.5" y="388.8667">PROP_FILTERSTRATEGY: String</text><ellipse cx="891.5" cy="399.3633" fill="none" rx="3" ry="3" style="stroke: #038048; stroke-width: 1.0;"/><text fill="#000000" font-family="sans-serif" font-size="11" lengthAdjust="spacingAndGlyphs" text-decoration="underline" textLength="144" x="900.5" y="401.6714">STRATEGY_EAGER: String</text><ellipse cx="891.5" cy="412.168" fill="none" rx="3" ry="3" style="stroke: #038048; stroke-width: 1.0;"/><text fill="#000000" font-family="sans-serif" font-size="11" lengthAdjust="spacingAndGlyphs" text-decoration="underline" textLength="146" x="900.5" y="414.4761">STRATEGY_SCORE: String</text><line style="stroke: #A80036; stroke-width: 1.5;" x1="881.5" x2="1180.5" y1="421.0703" y2="421.0703"/><ellipse cx="891.5" cy="432.9727" fill="#84BE84" rx="3" ry="3" style="stroke: #038048; stroke-width: 1.0;"/><text fill="#000000" font-family="sans-serif" font-size="11" lengthAdjust="spacingAndGlyphs" textLength="189" x="900.5" y="435.2808">initialize(Engine, Properties): void</text><ellipse cx="891.5" cy="445.7773" fill="#84BE84" rx="3" ry="3" style="stroke: #038048; stroke-width: 1.0;"/><text fill="#000000" font-family="sans-serif" font-size="11" lengthAdjust="spacingAndGlyphs" textLength="182" x="900.5" y="448.0854">preSave(Context, String): String</text><ellipse cx="891.5" cy="458.582" fill="#84BE84" rx="3" ry="3" style="stroke: #038048; stroke-width: 1.0;"/><text fill="#000000" font-family="sans-serif" font-size="11" lengthAdjust="spacingAndGlyphs" text-decoration="underline" textLength="146" x="900.5" y="460.8901">getBotFieldName(): String</text><ellipse cx="891.5" cy="471.3867" fill="#84BE84" rx="3" ry="3" style="stroke: #038048; stroke-width: 1.0;"/><text fill="#000000" font-family="sans-serif" font-size="11" lengthAdjust="spacingAndGlyphs" textLength="275" x="900.5" y="473.6948">isValidUserProfile(Context, UserProfile): boolean</text><ellipse cx="891.5" cy="484.1914" fill="#84BE84" rx="3" ry="3" style="stroke: #038048; stroke-width: 1.0;"/><text fill="#000000" font-family="sans-serif" font-size="11" lengthAdjust="spacingAndGlyphs" text-decoration="underline" textLength="275" x="900.5" y="486.4995">getSpamHash(Page, HttpServletRequest): String</text><ellipse cx="891.5" cy="496.9961" fill="#84BE84" rx="3" ry="3" style="stroke: #038048; stroke-width: 1.0;"/><text fill="#000000" font-family="sans-serif" font-size="11" lengthAdjust="spacingAndGlyphs" text-decoration="underline" textLength="265" x="900.5" y="499.3042">getHashFieldName(HttpServletRequest): String</text><ellipse cx="891.5" cy="509.8008" fill="#84BE84" rx="3" ry="3" style="stroke: #038048; stroke-width: 1.0;"/><text fill="#000000" font-family="sans-serif" font-size="11" lengthAdjust="spacingAndGlyphs" text-decoration="underline" textLength="244" x="900.5" y="512.1089">checkHash(Context, PageContext): boolean</text><ellipse cx="891.5" cy="522.6055" fill="#84BE84" rx="3" ry="3" style="stroke: #038048; stroke-width: 1.0;"/><text fill="#000000" font-family="sans-serif" font-size="11" lengthAdjust="spacingAndGlyphs" text-decoration="underline" textLength="215" x="900.5" y="524.9136">insertInputFields(PageContext): String</text></a><!--class org.apache.wiki.filters.PingWeblogsComFilter--><a href="PingWeblogsComFilter.html" target="_top" xlink:actuate="onRequest" xlink:show="new" xlink:title="PingWeblogsComFilter.html" xlink:type="simple"><rect fill="#FEFECE" filter="url(#f8dwydrugk3rw)" height="86.4141" id="org.apache.wiki.filters.PingWeblogsComFilter" style="stroke: #A80036; stroke-width: 1.5;" width="215" x="630.5" y="317.5"/><ellipse cx="665.75" cy="333.5" fill="#ADD1B2" rx="11" ry="11" style="stroke: #A80036; stroke-width: 1.0;"/><path d="M668.7188,339.1406 Q668.1406,339.4375 667.5,339.5859 Q666.8594,339.7344 666.1563,339.7344 Q663.6563,339.7344 662.3359,338.0859 Q661.0156,336.4375 661.0156,333.3125 Q661.0156,330.1875 662.3359,328.5313 Q663.6563,326.875 666.1563,326.875 Q666.8594,326.875 667.5078,327.0313 Q668.1563,327.1875 668.7188,327.4844 L668.7188,330.2031 Q668.0938,329.625 667.5,329.3516 Q666.9063,329.0781 666.2813,329.0781 Q664.9375,329.0781 664.25,330.1484 Q663.5625,331.2188 663.5625,333.3125 Q663.5625,335.4063 664.25,336.4766 Q664.9375,337.5469 666.2813,337.5469 Q666.9063,337.5469 667.5,337.2734 Q668.0938,337 668.7188,336.4219 L668.7188,339.1406 Z "/><text fill="#000000" font-family="sans-serif" font-size="12" lengthAdjust="spacingAndGlyphs" textLength="138" x="684.25" y="337.6543">PingWeblogsComFilter</text><line style="stroke: #A80036; stroke-width: 1.5;" x1="631.5" x2="844.5" y1="349.5" y2="349.5"/><ellipse cx="641.5" cy="361.4023" fill="none" rx="3" ry="3" style="stroke: #038048; stroke-width: 1.0;"/><text fill="#000000" font-family="sans-serif" font-size="11" lengthAdjust="spacingAndGlyphs" text-decoration="underline" textLength="126" x="650.5" y="363.7104">PROP_PINGURL: String</text><line style="stroke: #A80036; stroke-width: 1.5;" x1="631.5" x2="844.5" y1="370.3047" y2="370.3047"/><ellipse cx="641.5" cy="382.207" fill="#84BE84" rx="3" ry="3" style="stroke: #038048; stroke-width: 1.0;"/><text fill="#000000" font-family="sans-serif" font-size="11" lengthAdjust="spacingAndGlyphs" textLength="189" x="650.5" y="384.5151">initialize(Engine, Properties): void</text><ellipse cx="641.5" cy="395.0117" fill="#84BE84" rx="3" ry="3" style="stroke: #038048; stroke-width: 1.0;"/><text fill="#000000" font-family="sans-serif" font-size="11" lengthAdjust="spacingAndGlyphs" textLength="177" x="650.5" y="397.3198">postSave(Context, String): void</text></a><!--class org.apache.wiki.filters.PageEventFilter--><a href="PageEventFilter.html" target="_top" xlink:actuate="onRequest" xlink:show="new" xlink:title="PageEventFilter.html" xlink:type="simple"><rect fill="#FEFECE" filter="url(#f8dwydrugk3rw)" height="150.4375" id="org.apache.wiki.filters.PageEventFilter" style="stroke: #A80036; stroke-width: 1.5;" width="304" x="291" y="285.5"/><ellipse cx="389.75" cy="301.5" fill="#ADD1B2" rx="11" ry="11" style="stroke: #A80036; stroke-width: 1.0;"/><path d="M392.7188,307.1406 Q392.1406,307.4375 391.5,307.5859 Q390.8594,307.7344 390.1563,307.7344 Q387.6563,307.7344 386.3359,306.0859 Q385.0156,304.4375 385.0156,301.3125 Q385.0156,298.1875 386.3359,296.5313 Q387.6563,294.875 390.1563,294.875 Q390.8594,294.875 391.5078,295.0313 Q392.1563,295.1875 392.7188,295.4844 L392.7188,298.2031 Q392.0938,297.625 391.5,297.3516 Q390.9063,297.0781 390.2813,297.0781 Q388.9375,297.0781 388.25,298.1484 Q387.5625,299.2188 387.5625,301.3125 Q387.5625,303.4063 388.25,304.4766 Q388.9375,305.5469 390.2813,305.5469 Q390.9063,305.5469 391.5,305.2734 Q392.0938,305 392.7188,304.4219 L392.7188,307.1406 Z "/><text fill="#000000" font-family="sans-serif" font-size="12" lengthAdjust="spacingAndGlyphs" textLength="98" x="410.25" y="305.6543">PageEventFilter</text><line style="stroke: #A80036; stroke-width: 1.5;" x1="292" x2="594" y1="317.5" y2="317.5"/><line style="stroke: #A80036; stroke-width: 1.5;" x1="292" x2="594" y1="325.5" y2="325.5"/><ellipse cx="302" cy="337.4023" fill="#84BE84" rx="3" ry="3" style="stroke: #038048; stroke-width: 1.0;"/><text fill="#000000" font-family="sans-serif" font-size="11" lengthAdjust="spacingAndGlyphs" textLength="189" x="311" y="339.7104">initialize(Engine, Properties): void</text><ellipse cx="302" cy="350.207" fill="#84BE84" rx="3" ry="3" style="stroke: #038048; stroke-width: 1.0;"/><text fill="#000000" font-family="sans-serif" font-size="11" lengthAdjust="spacingAndGlyphs" textLength="208" x="311" y="352.5151">preTranslate(Context, String): String</text><ellipse cx="302" cy="363.0117" fill="#84BE84" rx="3" ry="3" style="stroke: #038048; stroke-width: 1.0;"/><text fill="#000000" font-family="sans-serif" font-size="11" lengthAdjust="spacingAndGlyphs" textLength="214" x="311" y="365.3198">postTranslate(Context, String): String</text><ellipse cx="302" cy="375.8164" fill="#84BE84" rx="3" ry="3" style="stroke: #038048; stroke-width: 1.0;"/><text fill="#000000" font-family="sans-serif" font-size="11" lengthAdjust="spacingAndGlyphs" textLength="182" x="311" y="378.1245">preSave(Context, String): String</text><ellipse cx="302" cy="388.6211" fill="#84BE84" rx="3" ry="3" style="stroke: #038048; stroke-width: 1.0;"/><text fill="#000000" font-family="sans-serif" font-size="11" lengthAdjust="spacingAndGlyphs" textLength="177" x="311" y="390.9292">postSave(Context, String): void</text><ellipse cx="302" cy="401.4258" fill="#84BE84" rx="3" ry="3" style="stroke: #038048; stroke-width: 1.0;"/><text fill="#000000" font-family="sans-serif" font-size="11" lengthAdjust="spacingAndGlyphs" textLength="256" x="311" y="403.7339">addWikiEventListener(WikiEventListener): void</text><ellipse cx="302" cy="414.2305" fill="#84BE84" rx="3" ry="3" style="stroke: #038048; stroke-width: 1.0;"/><text fill="#000000" font-family="sans-serif" font-size="11" lengthAdjust="spacingAndGlyphs" textLength="278" x="311" y="416.5386">removeWikiEventListener(WikiEventListener): void</text><polygon fill="#FFFF44" points="302,422.0352,306,426.0352,302,430.0352,298,426.0352" style="stroke: #B38D22; stroke-width: 1.0;"/><text fill="#000000" font-family="sans-serif" font-size="11" lengthAdjust="spacingAndGlyphs" textLength="154" x="311" y="429.3433">fireEvent(int, Context): void</text></a><!--class org.apache.wiki.filters.ProfanityFilter--><a href="ProfanityFilter.html" target="_top" xlink:actuate="onRequest" xlink:show="new" xlink:title="ProfanityFilter.html" xlink:type="simple"><rect fill="#FEFECE" filter="url(#f8dwydrugk3rw)" height="60.8047" id="org.apache.wiki.filters.ProfanityFilter" style="stroke: #A80036; stroke-width: 1.5;" width="234" x="22" y="330"/><ellipse cx="91.75" cy="346" fill="#ADD1B2" rx="11" ry="11" style="stroke: #A80036; stroke-width: 1.0;"/><path d="M94.7188,351.6406 Q94.1406,351.9375 93.5,352.0859 Q92.8594,352.2344 92.1563,352.2344 Q89.6563,352.2344 88.3359,350.5859 Q87.0156,348.9375 87.0156,345.8125 Q87.0156,342.6875 88.3359,341.0313 Q89.6563,339.375 92.1563,339.375 Q92.8594,339.375 93.5078,339.5313 Q94.1563,339.6875 94.7188,339.9844 L94.7188,342.7031 Q94.0938,342.125 93.5,341.8516 Q92.9063,341.5781 92.2813,341.5781 Q90.9375,341.5781 90.25,342.6484 Q89.5625,343.7188 89.5625,345.8125 Q89.5625,347.9063 90.25,348.9766 Q90.9375,350.0469 92.2813,350.0469 Q92.9063,350.0469 93.5,349.7734 Q94.0938,349.5 94.7188,348.9219 L94.7188,351.6406 Z "/><text fill="#000000" font-family="sans-serif" font-size="12" lengthAdjust="spacingAndGlyphs" textLength="86" x="112.25" y="350.1543">ProfanityFilter</text><line style="stroke: #A80036; stroke-width: 1.5;" x1="23" x2="255" y1="362" y2="362"/><line style="stroke: #A80036; stroke-width: 1.5;" x1="23" x2="255" y1="370" y2="370"/><ellipse cx="33" cy="381.9023" fill="#84BE84" rx="3" ry="3" style="stroke: #038048; stroke-width: 1.0;"/><text fill="#000000" font-family="sans-serif" font-size="11" lengthAdjust="spacingAndGlyphs" textLength="208" x="42" y="384.2104">preTranslate(Context, String): String</text></a><!--class org.apache.wiki.modules.ModuleManager--><rect fill="#FEFECE" filter="url(#f8dwydrugk3rw)" height="86.4141" id="org.apache.wiki.modules.ModuleManager" style="stroke: #A80036; stroke-width: 1.5;" width="277" x="1481.5" y="43"/><ellipse cx="1565.75" cy="59" fill="#B4A7E5" rx="11" ry="11" style="stroke: #A80036; stroke-width: 1.0;"/><path d="M1561.6719,54.7656 L1561.6719,52.6094 L1569.0625,52.6094 L1569.0625,54.7656 L1566.5938,54.7656 L1566.5938,62.8438 L1569.0625,62.8438 L1569.0625,65 L1561.6719,65 L1561.6719,62.8438 L1564.1406,62.8438 L1564.1406,54.7656 L1561.6719,54.7656 Z "/><text fill="#000000" font-family="sans-serif" font-size="12" font-style="italic" lengthAdjust="spacingAndGlyphs" textLength="100" x="1586.25" y="63.1543">ModuleManager</text><line style="stroke: #A80036; stroke-width: 1.5;" x1="1482.5" x2="1757.5" y1="75" y2="75"/><line style="stroke: #A80036; stroke-width: 1.5;" x1="1482.5" x2="1757.5" y1="83" y2="83"/><ellipse cx="1492.5" cy="94.9023" fill="#84BE84" rx="3" ry="3" style="stroke: #038048; stroke-width: 1.0;"/><text fill="#000000" font-family="sans-serif" font-size="11" font-style="italic" lengthAdjust="spacingAndGlyphs" textLength="251" x="1501.5" y="97.2104">checkCompatibility(WikiModuleInfo): boolean</text><ellipse cx="1492.5" cy="107.707" fill="#84BE84" rx="3" ry="3" style="stroke: #038048; stroke-width: 1.0;"/><text fill="#000000" font-family="sans-serif" font-size="11" font-style="italic" lengthAdjust="spacingAndGlyphs" textLength="212" x="1501.5" y="110.0151">getModuleInfo(String): WikiModuleInfo</text><ellipse cx="1492.5" cy="120.5117" fill="#84BE84" rx="3" ry="3" style="stroke: #038048; stroke-width: 1.0;"/><text fill="#000000" font-family="sans-serif" font-size="11" font-style="italic" lengthAdjust="spacingAndGlyphs" textLength="221" x="1501.5" y="122.8198">modules(): Collection&lt;WikiModuleInfo&gt;</text><!--class org.apache.wiki.modules.BaseModuleManager--><rect fill="#FEFECE" filter="url(#f8dwydrugk3rw)" height="48" id="org.apache.wiki.modules.BaseModuleManager" style="stroke: #A80036; stroke-width: 1.5;" width="162" x="1794" y="62"/><ellipse cx="1809" cy="78" fill="#A9DCDF" rx="11" ry="11" style="stroke: #A80036; stroke-width: 1.0;"/><path d="M1809.1094,73.3438 L1807.9531,78.4219 L1810.2813,78.4219 L1809.1094,73.3438 Z M1807.625,71.1094 L1810.6094,71.1094 L1813.9688,83.5 L1811.5156,83.5 L1810.75,80.4375 L1807.4688,80.4375 L1806.7188,83.5 L1804.2813,83.5 L1807.625,71.1094 Z "/><text fill="#000000" font-family="sans-serif" font-size="12" font-style="italic" lengthAdjust="spacingAndGlyphs" textLength="130" x="1823" y="82.1543">BaseModuleManager</text><line style="stroke: #A80036; stroke-width: 1.5;" x1="1795" x2="1955" y1="94" y2="94"/><line style="stroke: #A80036; stroke-width: 1.5;" x1="1795" x2="1955" y1="102" y2="102"/><!--class org.apache.wiki.api.filters.BasePageFilter--><rect fill="#FEFECE" filter="url(#f8dwydrugk3rw)" height="48" id="org.apache.wiki.api.filters.BasePageFilter" style="stroke: #A80036; stroke-width: 1.5;" width="126" x="675" y="62"/><ellipse cx="690" cy="78" fill="#ADD1B2" rx="11" ry="11" style="stroke: #A80036; stroke-width: 1.0;"/><path d="M692.9688,83.6406 Q692.3906,83.9375 691.75,84.0859 Q691.1094,84.2344 690.4063,84.2344 Q687.9063,84.2344 686.5859,82.5859 Q685.2656,80.9375 685.2656,77.8125 Q685.2656,74.6875 686.5859,73.0313 Q687.9063,71.375 690.4063,71.375 Q691.1094,71.375 691.7578,71.5313 Q692.4063,71.6875 692.9688,71.9844 L692.9688,74.7031 Q692.3438,74.125 691.75,73.8516 Q691.1563,73.5781 690.5313,73.5781 Q689.1875,73.5781 688.5,74.6484 Q687.8125,75.7188 687.8125,77.8125 Q687.8125,79.9063 688.5,80.9766 Q689.1875,82.0469 690.5313,82.0469 Q691.1563,82.0469 691.75,81.7734 Q692.3438,81.5 692.9688,80.9219 L692.9688,83.6406 Z "/><text fill="#000000" font-family="sans-serif" font-size="12" lengthAdjust="spacingAndGlyphs" textLength="94" x="704" y="82.1543">BasePageFilter</text><line style="stroke: #A80036; stroke-width: 1.5;" x1="676" x2="800" y1="94" y2="94"/><line style="stroke: #A80036; stroke-width: 1.5;" x1="676" x2="800" y1="102" y2="102"/><!--link org.apache.wiki.modules.ModuleManager to org.apache.wiki.filters.FilterManager--><path d="M1623.2349,149.4273 C1624.9965,183.967 1627.211,227.3867 1629.1727,265.851 " fill="none" id="org.apache.wiki.modules.ModuleManager-org.apache.wiki.filters.FilterManager" style="stroke: #A80036; stroke-width: 1.0; stroke-dasharray: 7.0,7.0;"/><polygon fill="none" points="1616.2308,149.5232,1622.2029,129.1926,1630.2126,148.81,1616.2308,149.5232" style="stroke: #A80036; stroke-width: 1.0;"/><!--link org.apache.wiki.modules.BaseModuleManager to org.apache.wiki.filters.DefaultFilterManager--><path d="M1877.3846,130.1903 C1879.9118,214.3508 1875.682,400.918 1800,532 C1787.4877,553.6714 1770.88,573.674 1752.621,591.6765 " fill="none" id="org.apache.wiki.modules.BaseModuleManager-org.apache.wiki.filters.DefaultFilterManager" style="stroke: #A80036; stroke-width: 1.0;"/><polygon fill="none" points="1870.3897,130.4559,1876.5914,110.1941,1884.3787,129.9009,1870.3897,130.4559" style="stroke: #A80036; stroke-width: 1.0;"/><!--link org.apache.wiki.filters.FilterManager to org.apache.wiki.filters.DefaultFilterManager--><path d="M1623.9836,475.3435 C1620.6766,513.2594 1617.0246,555.1319 1613.8143,591.9391 " fill="none" id="org.apache.wiki.filters.FilterManager-org.apache.wiki.filters.DefaultFilterManager" style="stroke: #A80036; stroke-width: 1.0; stroke-dasharray: 7.0,7.0;"/><polygon fill="none" points="1617.0172,474.6523,1625.7286,455.3362,1630.9642,475.8688,1617.0172,474.6523" style="stroke: #A80036; stroke-width: 1.0;"/><!--link org.apache.wiki.api.filters.BasePageFilter to org.apache.wiki.filters.CreoleFilter--><path d="M821.3234,91.8752 C936.6918,101.3197 1137.8018,122.9059 1199,162 C1256.9511,199.0199 1296.2814,270.7798 1316.9202,317.1188 " fill="none" id="org.apache.wiki.api.filters.BasePageFilter-org.apache.wiki.filters.CreoleFilter" style="stroke: #A80036; stroke-width: 1.0;"/><polygon fill="none" points="820.5598,98.8367,801.1757,90.2778,821.6664,84.8805,820.5598,98.8367" style="stroke: #A80036; stroke-width: 1.0;"/><!--link org.apache.wiki.api.filters.BasePageFilter to org.apache.wiki.filters.SpamFilter--><path d="M803.0921,120.1917 C823.2345,132.1543 844.8765,146.5055 863,162 C872.7801,170.3613 882.4647,179.3212 891.954,188.6426 " fill="none" id="org.apache.wiki.api.filters.BasePageFilter-org.apache.wiki.filters.SpamFilter" style="stroke: #A80036; stroke-width: 1.0;"/><polygon fill="none" points="799.3987,126.143,785.533,110.1198,806.3646,113.999,799.3987,126.143" style="stroke: #A80036; stroke-width: 1.0;"/><!--link org.apache.wiki.api.filters.BasePageFilter to org.apache.wiki.filters.PingWeblogsComFilter--><path d="M738,130.5247 C738,181.9564 738,266.0199 738,317.0094 " fill="none" id="org.apache.wiki.api.filters.BasePageFilter-org.apache.wiki.filters.PingWeblogsComFilter" style="stroke: #A80036; stroke-width: 1.0;"/><polygon fill="none" points="731.0001,130.3601,738,110.36,745.0001,130.36,731.0001,130.3601" style="stroke: #A80036; stroke-width: 1.0;"/><!--link org.apache.wiki.api.filters.BasePageFilter to org.apache.wiki.filters.PageEventFilter--><path d="M673.2097,120.1085 C653.0003,132.104 631.2431,146.4952 613,162 C570.3023,198.2886 529.2369,245.7614 498.1661,285.182 " fill="none" id="org.apache.wiki.api.filters.BasePageFilter-org.apache.wiki.filters.PageEventFilter" style="stroke: #A80036; stroke-width: 1.0;"/><polygon fill="none" points="669.9836,113.8892,690.8151,110.01,676.9495,126.0332,669.9836,113.8892" style="stroke: #A80036; stroke-width: 1.0;"/><!--link org.apache.wiki.api.filters.BasePageFilter to org.apache.wiki.filters.ProfanityFilter--><path d="M654.7591,91.7028 C538.5069,100.982 334.8195,122.4187 273,162 C209.62,202.5804 168.8776,285.0064 150.445,329.8198 " fill="none" id="org.apache.wiki.api.filters.BasePageFilter-org.apache.wiki.filters.ProfanityFilter" style="stroke: #A80036; stroke-width: 1.0;"/><polygon fill="none" points="654.2237,84.7234,674.7036,90.1616,655.3024,98.6818,654.2237,84.7234" style="stroke: #A80036; stroke-width: 1.0;"/><text fill="#888888" font-family="sans-serif" font-size="10" lengthAdjust="spacingAndGlyphs" textLength="186" x="902" y="829.2822">UMLDoclet 1.1.4, PlantUML 1.2019.05</text><!--
@startuml

    namespace org.apache.wiki.filters {

        interface FilterManager [[FilterManager.html]] {
            {static} +PROP_FILTERXML: String
            {static} +DEFAULT_XMLFILE: String
            {static} +SYSTEM_FILTER_PRIORITY: int
            {static} +USER_FILTER_PRIORITY: int
            {abstract} +addPageFilter(PageFilter, int): void
            {abstract} +doPreTranslateFiltering(Context, String): String
            {abstract} +doPostTranslateFiltering(Context, String): String
            {abstract} +doPreSaveFiltering(Context, String): String
            {abstract} +doPostSaveFiltering(Context, String): void
            {abstract} +getFilterList(): List<PageFilter>
            {abstract} +destroy(): void
        }

        class DefaultFilterManager [[DefaultFilterManager.html]] {
            +DefaultFilterManager(Engine, Properties)
            +addPageFilter(PageFilter, int): void
            #initialize(Properties): void
            +doPreTranslateFiltering(Context, String): String
            +doPostTranslateFiltering(Context, String): String
            +doPreSaveFiltering(Context, String): String
            +doPostSaveFiltering(Context, String): void
            +getFilterList(): List<PageFilter>
            +destroy(): void
            +fireEvent(int, Context): void
            +modules(): Collection<WikiModuleInfo>
            +getModuleInfo(String): DefaultFilterManager.PageFilterInfo
        }

        class CreoleFilter [[CreoleFilter.html]] {
            +initialize(Engine, Properties): void
            +preSave(Context, String): String
            +preTranslate(Context, String): String
        }

        class SpamFilter [[SpamFilter.html]] {
            {static} +PROP_WORDLIST: String
            {static} +PROP_IPLIST: String
            {static} +PROP_MAX_PAGENAME_LENGTH: String
            {static} +PROP_ERRORPAGE: String
            {static} +PROP_PAGECHANGES: String
            {static} +PROP_SIMILARCHANGES: String
            {static} +PROP_BANTIME: String
            {static} +PROP_BLACKLIST: String
            {static} +PROP_MAXURLS: String
            {static} +PROP_AKISMET_API_KEY: String
            {static} +PROP_IGNORE_AUTHENTICATED: String
            {static} +PROP_CAPTCHA: String
            {static} +PROP_FILTERSTRATEGY: String
            {static} +STRATEGY_EAGER: String
            {static} +STRATEGY_SCORE: String
            +initialize(Engine, Properties): void
            +preSave(Context, String): String
            {static} +getBotFieldName(): String
            +isValidUserProfile(Context, UserProfile): boolean
            {static} +getSpamHash(Page, HttpServletRequest): String
            {static} +getHashFieldName(HttpServletRequest): String
            {static} +checkHash(Context, PageContext): boolean
            {static} +insertInputFields(PageContext): String
        }

        class PingWeblogsComFilter [[PingWeblogsComFilter.html]] {
            {static} +PROP_PINGURL: String
            +initialize(Engine, Properties): void
            +postSave(Context, String): void
        }

        class PageEventFilter [[PageEventFilter.html]] {
            +initialize(Engine, Properties): void
            +preTranslate(Context, String): String
            +postTranslate(Context, String): String
            +preSave(Context, String): String
            +postSave(Context, String): void
            +addWikiEventListener(WikiEventListener): void
            +removeWikiEventListener(WikiEventListener): void
            #fireEvent(int, Context): void
        }

        class ProfanityFilter [[ProfanityFilter.html]] {
            +preTranslate(Context, String): String
        }

        interface org.apache.wiki.modules.ModuleManager {
            {abstract} +checkCompatibility(WikiModuleInfo): boolean
            {abstract} +getModuleInfo(String): WikiModuleInfo
            {abstract} +modules(): Collection<WikiModuleInfo>
        }
        org.apache.wiki.modules.ModuleManager <|.. FilterManager

        abstract class org.apache.wiki.modules.BaseModuleManager
        org.apache.wiki.modules.BaseModuleManager <|- - DefaultFilterManager

        FilterManager <|.. DefaultFilterManager

        class org.apache.wiki.api.filters.BasePageFilter
        org.apache.wiki.api.filters.BasePageFilter <|- - CreoleFilter

        org.apache.wiki.api.filters.BasePageFilter <|- - SpamFilter

        org.apache.wiki.api.filters.BasePageFilter <|- - PingWeblogsComFilter

        org.apache.wiki.api.filters.BasePageFilter <|- - PageEventFilter

        org.apache.wiki.api.filters.BasePageFilter <|- - ProfanityFilter

    }


    center footer UMLDoclet 1.1.4, PlantUML 1.2019.05
@enduml

PlantUML version 1.2019.05(Sat Apr 20 16:45:36 UTC 2019)
(APACHE source distribution)
Java Runtime: Java(TM) SE Runtime Environment
JVM: Java HotSpot(TM) 64-Bit Server VM
Java Version: 1.8.0_241-b07
Operating System: Linux
OS Version: 4.15.0-74-generic
Default Encoding: ISO-8859-1
Language: en
Country: US
--></g></svg>