<?xml version="1.0" encoding="UTF-8" standalone="no"?><svg xmlns="http://www.w3.org/2000/svg" xmlns:xlink="http://www.w3.org/1999/xlink" contentScriptType="application/ecmascript" contentStyleType="text/css" height="126px" preserveAspectRatio="none" style="width:253px;height:126px;" version="1.1" viewBox="0 0 253 126" width="253px" zoomAndPan="magnify"><defs><filter height="300%" id="f14n3skurvefcp" width="300%" x="-1" y="-1"><feGaussianBlur result="blurOut" stdDeviation="2.0"/><feColorMatrix in="blurOut" result="blurOut2" type="matrix" values="0 0 0 0 0 0 0 0 0 0 0 0 0 0 0 0 0 0 .4 0"/><feOffset dx="4.0" dy="4.0" in="blurOut2" result="blurOut3"/><feBlend in="SourceGraphic" in2="blurOut3" mode="normal"/></filter></defs><g><!--class PingWeblogsComFilter--><a href="PingWeblogsComFilter.html" target="_top" xlink:actuate="onRequest" xlink:show="new" xlink:title="PingWeblogsComFilter.html" xlink:type="simple"><rect fill="#FEFECE" filter="url(#f14n3skurvefcp)" height="86.4141" id="PingWeblogsComFilter" style="stroke: #A80036; stroke-width: 1.5;" width="236" x="6" y="8"/><ellipse cx="50.75" cy="24" fill="#ADD1B2" rx="11" ry="11" style="stroke: #A80036; stroke-width: 1.0;"/><path d="M53.7188,29.6406 Q53.1406,29.9375 52.5,30.0859 Q51.8594,30.2344 51.1563,30.2344 Q48.6563,30.2344 47.3359,28.5859 Q46.0156,26.9375 46.0156,23.8125 Q46.0156,20.6875 47.3359,19.0313 Q48.6563,17.375 51.1563,17.375 Q51.8594,17.375 52.5078,17.5313 Q53.1563,17.6875 53.7188,17.9844 L53.7188,20.7031 Q53.0938,20.125 52.5,19.8516 Q51.9063,19.5781 51.2813,19.5781 Q49.9375,19.5781 49.25,20.6484 Q48.5625,21.7188 48.5625,23.8125 Q48.5625,25.9063 49.25,26.9766 Q49.9375,28.0469 51.2813,28.0469 Q51.9063,28.0469 52.5,27.7734 Q53.0938,27.5 53.7188,26.9219 L53.7188,29.6406 Z "/><text fill="#000000" font-family="sans-serif" font-size="12" lengthAdjust="spacingAndGlyphs" textLength="138" x="71.25" y="28.1543">PingWeblogsComFilter</text><line style="stroke: #A80036; stroke-width: 1.5;" x1="7" x2="241" y1="40" y2="40"/><ellipse cx="17" cy="51.9023" fill="none" rx="3" ry="3" style="stroke: #038048; stroke-width: 1.0;"/><text fill="#000000" font-family="sans-serif" font-size="11" lengthAdjust="spacingAndGlyphs" text-decoration="underline" textLength="126" x="26" y="54.2104">PROP_PINGURL: String</text><line style="stroke: #A80036; stroke-width: 1.5;" x1="7" x2="241" y1="60.8047" y2="60.8047"/><ellipse cx="17" cy="72.707" fill="#84BE84" rx="3" ry="3" style="stroke: #038048; stroke-width: 1.0;"/><text fill="#000000" font-family="sans-serif" font-size="11" lengthAdjust="spacingAndGlyphs" textLength="210" x="26" y="75.0151">initialize(WikiEngine, Properties): void</text><ellipse cx="17" cy="85.5117" fill="#84BE84" rx="3" ry="3" style="stroke: #038048; stroke-width: 1.0;"/><text fill="#000000" font-family="sans-serif" font-size="11" lengthAdjust="spacingAndGlyphs" textLength="198" x="26" y="87.8198">postSave(WikiContext, String): void</text></a><text fill="#888888" font-family="sans-serif" font-size="10" lengthAdjust="spacingAndGlyphs" textLength="186" x="37" y="113.2822">UMLDoclet 1.1.4, PlantUML 1.2019.05</text><!--
@startuml

    class PingWeblogsComFilter [[PingWeblogsComFilter.html]] {
        {static} +PROP_PINGURL: String
        +initialize(WikiEngine, Properties): void
        +postSave(WikiContext, String): void
    }


    center footer UMLDoclet 1.1.4, PlantUML 1.2019.05
@enduml

PlantUML version 1.2019.05(Sat Apr 20 16:45:36 UTC 2019)
(APACHE source distribution)
Java Runtime: Java(TM) SE Runtime Environment
JVM: Java HotSpot(TM) 64-Bit Server VM
Java Version: 1.8.0_191-b12
Operating System: Linux
OS Version: 4.15.0-60-generic
Default Encoding: ISO-8859-1
Language: en
Country: US
--></g></svg>