<?xml version="1.0" encoding="UTF-8" standalone="no"?><svg xmlns="http://www.w3.org/2000/svg" xmlns:xlink="http://www.w3.org/1999/xlink" contentScriptType="application/ecmascript" contentStyleType="text/css" height="590px" preserveAspectRatio="none" style="width:1207px;height:590px;" version="1.1" viewBox="0 0 1207 590" width="1207px" zoomAndPan="magnify"><defs><filter height="300%" id="fbjambwseatqr" width="300%" x="-1" y="-1"><feGaussianBlur result="blurOut" stdDeviation="2.0"/><feColorMatrix in="blurOut" result="blurOut2" type="matrix" values="0 0 0 0 0 0 0 0 0 0 0 0 0 0 0 0 0 0 .4 0"/><feOffset dx="4.0" dy="4.0" in="blurOut2" result="blurOut3"/><feBlend in="SourceGraphic" in2="blurOut3" mode="normal"/></filter></defs><g><!--MD5=[ab4e46ae90e42f945278af21c606574a]
cluster org.apache.wiki.pages.haddock--><polygon fill="#FFFFFF" filter="url(#fbjambwseatqr)" points="16,204,272,204,279,226.2969,1185,226.2969,1185,562,16,562,16,204" style="stroke: #000000; stroke-width: 1.5;"/><line style="stroke: #000000; stroke-width: 1.5;" x1="16" x2="279" y1="226.2969" y2="226.2969"/><text fill="#000000" font-family="sans-serif" font-size="14" font-weight="bold" lengthAdjust="spacingAndGlyphs" textLength="250" x="20" y="218.9951">org.apache.wiki.pages.haddock</text><!--MD5=[954f6ac704b42248268a3b144aae5ef0]
cluster org.apache.wiki.pages--><polygon fill="#FFFFFF" filter="url(#fbjambwseatqr)" points="498,6,682,6,689,28.2969,698,28.2969,698,179,498,179,498,6" style="stroke: #000000; stroke-width: 1.5;"/><line style="stroke: #000000; stroke-width: 1.5;" x1="498" x2="689" y1="28.2969" y2="28.2969"/><text fill="#000000" font-family="sans-serif" font-size="14" font-weight="bold" lengthAdjust="spacingAndGlyphs" textLength="178" x="502" y="20.9951">org.apache.wiki.pages</text><!--MD5=[c6257123337d91e7e698d8b5305329e8]
class org.apache.wiki.pages.haddock.LoginPage--><a href="LoginPage.html" target="_top" title="LoginPage.html" xlink:actuate="onRequest" xlink:href="LoginPage.html" xlink:show="new" xlink:title="LoginPage.html" xlink:type="simple"><rect codeLine="3" fill="#FEFECE" filter="url(#fbjambwseatqr)" height="73.6094" id="org.apache.wiki.pages.haddock.LoginPage" style="stroke: #A80036; stroke-width: 1.5;" width="269" x="24.5" y="422.5"/><ellipse cx="122.25" cy="438.5" fill="#ADD1B2" rx="11" ry="11" style="stroke: #A80036; stroke-width: 1.0;"/><path d="M125.2188,444.1406 Q124.6406,444.4375 124,444.5781 Q123.3594,444.7344 122.6563,444.7344 Q120.1563,444.7344 118.8281,443.0938 Q117.5156,441.4375 117.5156,438.3125 Q117.5156,435.1875 118.8281,433.5313 Q120.1563,431.875 122.6563,431.875 Q123.3594,431.875 124,432.0313 Q124.6563,432.1875 125.2188,432.4844 L125.2188,435.2031 Q124.5938,434.625 124,434.3594 Q123.4063,434.0781 122.7813,434.0781 Q121.4375,434.0781 120.75,435.1563 Q120.0625,436.2188 120.0625,438.3125 Q120.0625,440.4063 120.75,441.4844 Q121.4375,442.5469 122.7813,442.5469 Q123.4063,442.5469 124,442.2813 Q124.5938,442 125.2188,441.4219 L125.2188,444.1406 Z "/><text fill="#000000" font-family="sans-serif" font-size="12" lengthAdjust="spacingAndGlyphs" textLength="65" x="142.75" y="442.6543">LoginPage</text><line style="stroke: #A80036; stroke-width: 1.5;" x1="25.5" x2="292.5" y1="454.5" y2="454.5"/><line style="stroke: #A80036; stroke-width: 1.5;" x1="25.5" x2="292.5" y1="462.5" y2="462.5"/><ellipse cx="35.5" cy="473.5" fill="#84BE84" rx="3" ry="3" style="stroke: #038048; stroke-width: 1.0;"/><text fill="#000000" font-family="sans-serif" font-size="11" lengthAdjust="spacingAndGlyphs" textLength="167" x="44.5" y="476.7104">performLogin(): ViewWikiPage</text><ellipse cx="35.5" cy="486.3047" fill="#84BE84" rx="3" ry="3" style="stroke: #038048; stroke-width: 1.0;"/><text fill="#000000" font-family="sans-serif" font-size="11" lengthAdjust="spacingAndGlyphs" textLength="243" x="44.5" y="489.5151">performLogin(String, String): ViewWikiPage</text></a><!--MD5=[6918ca30fdf956c5b090e8366d1b7f58]
class org.apache.wiki.pages.haddock.ViewWikiPage--><a href="ViewWikiPage.html" target="_top" title="ViewWikiPage.html" xlink:actuate="onRequest" xlink:href="ViewWikiPage.html" xlink:show="new" xlink:title="ViewWikiPage.html" xlink:type="simple"><rect codeLine="8" fill="#FEFECE" filter="url(#fbjambwseatqr)" height="188.8516" id="org.apache.wiki.pages.haddock.ViewWikiPage" style="stroke: #A80036; stroke-width: 1.5;" width="254" x="329" y="365"/><ellipse cx="409.75" cy="381" fill="#ADD1B2" rx="11" ry="11" style="stroke: #A80036; stroke-width: 1.0;"/><path d="M412.7188,386.6406 Q412.1406,386.9375 411.5,387.0781 Q410.8594,387.2344 410.1563,387.2344 Q407.6563,387.2344 406.3281,385.5938 Q405.0156,383.9375 405.0156,380.8125 Q405.0156,377.6875 406.3281,376.0313 Q407.6563,374.375 410.1563,374.375 Q410.8594,374.375 411.5,374.5313 Q412.1563,374.6875 412.7188,374.9844 L412.7188,377.7031 Q412.0938,377.125 411.5,376.8594 Q410.9063,376.5781 410.2813,376.5781 Q408.9375,376.5781 408.25,377.6563 Q407.5625,378.7188 407.5625,380.8125 Q407.5625,382.9063 408.25,383.9844 Q408.9375,385.0469 410.2813,385.0469 Q410.9063,385.0469 411.5,384.7813 Q412.0938,384.5 412.7188,383.9219 L412.7188,386.6406 Z "/><text fill="#000000" font-family="sans-serif" font-size="12" lengthAdjust="spacingAndGlyphs" textLength="84" x="430.25" y="385.1543">ViewWikiPage</text><line style="stroke: #A80036; stroke-width: 1.5;" x1="330" x2="582" y1="397" y2="397"/><line style="stroke: #A80036; stroke-width: 1.5;" x1="330" x2="582" y1="405" y2="405"/><ellipse cx="340" cy="416" fill="#84BE84" rx="3" ry="3" style="stroke: #038048; stroke-width: 1.0;"/><text fill="#000000" font-family="sans-serif" font-size="11" lengthAdjust="spacingAndGlyphs" text-decoration="underline" textLength="153" x="349" y="419.2104">open(String): ViewWikiPage</text><ellipse cx="340" cy="428.8047" fill="#84BE84" rx="3" ry="3" style="stroke: #038048; stroke-width: 1.0;"/><text fill="#000000" font-family="sans-serif" font-size="11" lengthAdjust="spacingAndGlyphs" textLength="151" x="349" y="432.0151">authenticatedText(): String</text><ellipse cx="340" cy="441.6094" fill="#84BE84" rx="3" ry="3" style="stroke: #038048; stroke-width: 1.0;"/><text fill="#000000" font-family="sans-serif" font-size="11" lengthAdjust="spacingAndGlyphs" textLength="144" x="349" y="444.8198">clickOnLogin(): LoginPage</text><ellipse cx="340" cy="454.4141" fill="#84BE84" rx="3" ry="3" style="stroke: #038048; stroke-width: 1.0;"/><text fill="#000000" font-family="sans-serif" font-size="11" lengthAdjust="spacingAndGlyphs" textLength="228" x="349" y="457.6245">clickOnShowReaderView(): ViewWikiPage</text><ellipse cx="340" cy="467.2188" fill="#84BE84" rx="3" ry="3" style="stroke: #038048; stroke-width: 1.0;"/><text fill="#000000" font-family="sans-serif" font-size="11" lengthAdjust="spacingAndGlyphs" textLength="179" x="349" y="470.4292">hoverLoginArea(): ViewWikiPage</text><ellipse cx="340" cy="480.0234" fill="#84BE84" rx="3" ry="3" style="stroke: #038048; stroke-width: 1.0;"/><text fill="#000000" font-family="sans-serif" font-size="11" lengthAdjust="spacingAndGlyphs" textLength="177" x="349" y="483.2339">hoverMoreArea(): ViewWikiPage</text><ellipse cx="340" cy="492.8281" fill="#84BE84" rx="3" ry="3" style="stroke: #038048; stroke-width: 1.0;"/><text fill="#000000" font-family="sans-serif" font-size="11" lengthAdjust="spacingAndGlyphs" textLength="135" x="349" y="496.0386">editPage(): EditWikiPage</text><ellipse cx="340" cy="505.6328" fill="#84BE84" rx="3" ry="3" style="stroke: #038048; stroke-width: 1.0;"/><text fill="#000000" font-family="sans-serif" font-size="11" lengthAdjust="spacingAndGlyphs" textLength="217" x="349" y="508.8433">searchFor(String): SearchResultsPage</text><ellipse cx="340" cy="518.4375" fill="#84BE84" rx="3" ry="3" style="stroke: #038048; stroke-width: 1.0;"/><text fill="#000000" font-family="sans-serif" font-size="11" lengthAdjust="spacingAndGlyphs" textLength="169" x="349" y="521.6479">clickOnLogout(): ViewWikiPage</text><ellipse cx="340" cy="531.2422" fill="#84BE84" rx="3" ry="3" style="stroke: #038048; stroke-width: 1.0;"/><text fill="#000000" font-family="sans-serif" font-size="11" lengthAdjust="spacingAndGlyphs" textLength="187" x="349" y="534.4526">navigateTo(String): ViewWikiPage</text><ellipse cx="340" cy="544.0469" fill="#84BE84" rx="3" ry="3" style="stroke: #038048; stroke-width: 1.0;"/><text fill="#000000" font-family="sans-serif" font-size="11" lengthAdjust="spacingAndGlyphs" textLength="154" x="349" y="547.2573">sidebar(): SelenideElement</text></a><!--MD5=[41e30840bbd613a8eda7650bb8abf4d5]
class org.apache.wiki.pages.haddock.EditWikiPage--><a href="EditWikiPage.html" target="_top" title="EditWikiPage.html" xlink:actuate="onRequest" xlink:href="EditWikiPage.html" xlink:show="new" xlink:title="EditWikiPage.html" xlink:type="simple"><rect codeLine="22" fill="#FEFECE" filter="url(#fbjambwseatqr)" height="99.2188" id="org.apache.wiki.pages.haddock.EditWikiPage" style="stroke: #A80036; stroke-width: 1.5;" width="244" x="618" y="410"/><ellipse cx="695.75" cy="426" fill="#ADD1B2" rx="11" ry="11" style="stroke: #A80036; stroke-width: 1.0;"/><path d="M698.7188,431.6406 Q698.1406,431.9375 697.5,432.0781 Q696.8594,432.2344 696.1563,432.2344 Q693.6563,432.2344 692.3281,430.5938 Q691.0156,428.9375 691.0156,425.8125 Q691.0156,422.6875 692.3281,421.0313 Q693.6563,419.375 696.1563,419.375 Q696.8594,419.375 697.5,419.5313 Q698.1563,419.6875 698.7188,419.9844 L698.7188,422.7031 Q698.0938,422.125 697.5,421.8594 Q696.9063,421.5781 696.2813,421.5781 Q694.9375,421.5781 694.25,422.6563 Q693.5625,423.7188 693.5625,425.8125 Q693.5625,427.9063 694.25,428.9844 Q694.9375,430.0469 696.2813,430.0469 Q696.9063,430.0469 697.5,429.7813 Q698.0938,429.5 698.7188,428.9219 L698.7188,431.6406 Z "/><text fill="#000000" font-family="sans-serif" font-size="12" lengthAdjust="spacingAndGlyphs" textLength="80" x="716.25" y="430.1543">EditWikiPage</text><line style="stroke: #A80036; stroke-width: 1.5;" x1="619" x2="861" y1="442" y2="442"/><line style="stroke: #A80036; stroke-width: 1.5;" x1="619" x2="861" y1="450" y2="450"/><ellipse cx="629" cy="461" fill="#84BE84" rx="3" ry="3" style="stroke: #038048; stroke-width: 1.0;"/><text fill="#000000" font-family="sans-serif" font-size="11" lengthAdjust="spacingAndGlyphs" text-decoration="underline" textLength="148" x="638" y="464.2104">open(String): EditWikiPage</text><ellipse cx="629" cy="473.8047" fill="#84BE84" rx="3" ry="3" style="stroke: #038048; stroke-width: 1.0;"/><text fill="#000000" font-family="sans-serif" font-size="11" lengthAdjust="spacingAndGlyphs" textLength="127" x="638" y="477.0151">cancel(): ViewWikiPage</text><ellipse cx="629" cy="486.6094" fill="#84BE84" rx="3" ry="3" style="stroke: #038048; stroke-width: 1.0;"/><text fill="#000000" font-family="sans-serif" font-size="11" lengthAdjust="spacingAndGlyphs" textLength="176" x="638" y="489.8198">saveText(String): ViewWikiPage</text><ellipse cx="629" cy="499.4141" fill="#84BE84" rx="3" ry="3" style="stroke: #038048; stroke-width: 1.0;"/><text fill="#000000" font-family="sans-serif" font-size="11" lengthAdjust="spacingAndGlyphs" textLength="218" x="638" y="502.6245">saveText(String, String): ViewWikiPage</text></a><!--MD5=[794d9b721f214d610582c64d7ce310de]
class org.apache.wiki.pages.haddock.SearchResultsPage--><a href="SearchResultsPage.html" target="_top" title="SearchResultsPage.html" xlink:actuate="onRequest" xlink:href="SearchResultsPage.html" xlink:show="new" xlink:title="SearchResultsPage.html" xlink:type="simple"><rect codeLine="29" fill="#FEFECE" filter="url(#fbjambwseatqr)" height="99.2188" id="org.apache.wiki.pages.haddock.SearchResultsPage" style="stroke: #A80036; stroke-width: 1.5;" width="279" x="897.5" y="410"/><ellipse cx="971.75" cy="426" fill="#ADD1B2" rx="11" ry="11" style="stroke: #A80036; stroke-width: 1.0;"/><path d="M974.7188,431.6406 Q974.1406,431.9375 973.5,432.0781 Q972.8594,432.2344 972.1563,432.2344 Q969.6563,432.2344 968.3281,430.5938 Q967.0156,428.9375 967.0156,425.8125 Q967.0156,422.6875 968.3281,421.0313 Q969.6563,419.375 972.1563,419.375 Q972.8594,419.375 973.5,419.5313 Q974.1563,419.6875 974.7188,419.9844 L974.7188,422.7031 Q974.0938,422.125 973.5,421.8594 Q972.9063,421.5781 972.2813,421.5781 Q970.9375,421.5781 970.25,422.6563 Q969.5625,423.7188 969.5625,425.8125 Q969.5625,427.9063 970.25,428.9844 Q970.9375,430.0469 972.2813,430.0469 Q972.9063,430.0469 973.5,429.7813 Q974.0938,429.5 974.7188,428.9219 L974.7188,431.6406 Z "/><text fill="#000000" font-family="sans-serif" font-size="12" lengthAdjust="spacingAndGlyphs" textLength="122" x="992.25" y="430.1543">SearchResultsPage</text><line style="stroke: #A80036; stroke-width: 1.5;" x1="898.5" x2="1175.5" y1="442" y2="442"/><line style="stroke: #A80036; stroke-width: 1.5;" x1="898.5" x2="1175.5" y1="450" y2="450"/><ellipse cx="908.5" cy="461" fill="#84BE84" rx="3" ry="3" style="stroke: #038048; stroke-width: 1.0;"/><text fill="#000000" font-family="sans-serif" font-size="11" lengthAdjust="spacingAndGlyphs" text-decoration="underline" textLength="188" x="917.5" y="464.2104">open(String): SearchResultsPage</text><ellipse cx="908.5" cy="473.8047" fill="#84BE84" rx="3" ry="3" style="stroke: #038048; stroke-width: 1.0;"/><text fill="#000000" font-family="sans-serif" font-size="11" lengthAdjust="spacingAndGlyphs" textLength="157" x="917.5" y="477.0151">pagesFound(): List&lt;String&gt;</text><ellipse cx="908.5" cy="486.6094" fill="#84BE84" rx="3" ry="3" style="stroke: #038048; stroke-width: 1.0;"/><text fill="#000000" font-family="sans-serif" font-size="11" lengthAdjust="spacingAndGlyphs" textLength="253" x="917.5" y="489.8198">shouldContain(String...): SearchResultsPage</text><ellipse cx="908.5" cy="499.4141" fill="#84BE84" rx="3" ry="3" style="stroke: #038048; stroke-width: 1.0;"/><text fill="#000000" font-family="sans-serif" font-size="11" lengthAdjust="spacingAndGlyphs" textLength="187" x="917.5" y="502.6245">navigateTo(String): ViewWikiPage</text></a><!--MD5=[51fa92a3ff110d57e5424501b00811c5]
class org.apache.wiki.pages.haddock.HaddockPage--><a href="HaddockPage.html" target="_top" title="HaddockPage.html" xlink:actuate="onRequest" xlink:href="HaddockPage.html" xlink:show="new" xlink:title="HaddockPage.html" xlink:type="simple"><rect codeLine="36" fill="#FEFECE" filter="url(#fbjambwseatqr)" height="73.6094" id="org.apache.wiki.pages.haddock.HaddockPage" style="stroke: #A80036; stroke-width: 1.5;" width="169" x="513.5" y="231"/><ellipse cx="551.45" cy="247" fill="#B4A7E5" rx="11" ry="11" style="stroke: #A80036; stroke-width: 1.0;"/><path d="M547.3719,242.7656 L547.3719,240.6094 L554.7625,240.6094 L554.7625,242.7656 L552.2938,242.7656 L552.2938,250.8438 L554.7625,250.8438 L554.7625,253 L547.3719,253 L547.3719,250.8438 L549.8406,250.8438 L549.8406,242.7656 L547.3719,242.7656 Z "/><text fill="#000000" font-family="sans-serif" font-size="12" font-style="italic" lengthAdjust="spacingAndGlyphs" textLength="86" x="570.55" y="251.1543">HaddockPage</text><line style="stroke: #A80036; stroke-width: 1.5;" x1="514.5" x2="681.5" y1="263" y2="263"/><line style="stroke: #A80036; stroke-width: 1.5;" x1="514.5" x2="681.5" y1="271" y2="271"/><ellipse cx="524.5" cy="282" fill="#84BE84" rx="3" ry="3" style="stroke: #038048; stroke-width: 1.0;"/><text fill="#000000" font-family="sans-serif" font-size="11" lengthAdjust="spacingAndGlyphs" textLength="95" x="533.5" y="285.2104">wikiTitle(): String</text><ellipse cx="524.5" cy="294.8047" fill="#84BE84" rx="3" ry="3" style="stroke: #038048; stroke-width: 1.0;"/><text fill="#000000" font-family="sans-serif" font-size="11" lengthAdjust="spacingAndGlyphs" textLength="143" x="533.5" y="298.0151">wikiPageContent(): String</text></a><!--MD5=[e6b9d11e12a2386dcaf6b730b8ea57a3]
class org.apache.wiki.pages.Page--><a href="../Page.html" target="_top" title="../Page.html" xlink:actuate="onRequest" xlink:href="../Page.html" xlink:show="new" xlink:title="../Page.html" xlink:type="simple"><rect codeLine="49" fill="#FEFECE" filter="url(#fbjambwseatqr)" height="137.6328" id="org.apache.wiki.pages.Page" style="stroke: #A80036; stroke-width: 1.5;" width="183" x="506.5" y="33"/><ellipse cx="578.25" cy="49" fill="#B4A7E5" rx="11" ry="11" style="stroke: #A80036; stroke-width: 1.0;"/><path d="M574.1719,44.7656 L574.1719,42.6094 L581.5625,42.6094 L581.5625,44.7656 L579.0938,44.7656 L579.0938,52.8438 L581.5625,52.8438 L581.5625,55 L574.1719,55 L574.1719,52.8438 L576.6406,52.8438 L576.6406,44.7656 L574.1719,44.7656 Z "/><text fill="#000000" font-family="sans-serif" font-size="12" font-style="italic" lengthAdjust="spacingAndGlyphs" textLength="31" x="598.75" y="53.1543">Page</text><line style="stroke: #A80036; stroke-width: 1.5;" x1="507.5" x2="688.5" y1="65" y2="65"/><line style="stroke: #A80036; stroke-width: 1.5;" x1="507.5" x2="688.5" y1="73" y2="73"/><ellipse cx="517.5" cy="84" fill="#84BE84" rx="3" ry="3" style="stroke: #038048; stroke-width: 1.0;"/><text fill="#000000" font-family="sans-serif" font-size="11" lengthAdjust="spacingAndGlyphs" text-decoration="underline" textLength="157" x="526.5" y="87.2104">withUrl(String): PageBuilder</text><ellipse cx="517.5" cy="96.8047" fill="#84BE84" rx="3" ry="3" style="stroke: #038048; stroke-width: 1.0;"/><text fill="#000000" font-family="sans-serif" font-size="11" lengthAdjust="spacingAndGlyphs" text-decoration="underline" textLength="94" x="526.5" y="100.0151">baseUrl(): String</text><ellipse cx="517.5" cy="109.6094" fill="#84BE84" rx="3" ry="3" style="stroke: #038048; stroke-width: 1.0;"/><text fill="#000000" font-family="sans-serif" font-size="11" lengthAdjust="spacingAndGlyphs" text-decoration="underline" textLength="123" x="526.5" y="112.8198">download(String): File</text><ellipse cx="517.5" cy="122.4141" fill="#84BE84" rx="3" ry="3" style="stroke: #038048; stroke-width: 1.0;"/><text fill="#000000" font-family="sans-serif" font-size="11" lengthAdjust="spacingAndGlyphs" textLength="71" x="526.5" y="125.6245">title(): String</text><ellipse cx="517.5" cy="135.2188" fill="#84BE84" rx="3" ry="3" style="stroke: #038048; stroke-width: 1.0;"/><text fill="#000000" font-family="sans-serif" font-size="11" lengthAdjust="spacingAndGlyphs" textLength="65" x="526.5" y="138.4292">url(): String</text><ellipse cx="517.5" cy="148.0234" fill="#84BE84" rx="3" ry="3" style="stroke: #038048; stroke-width: 1.0;"/><text fill="#000000" font-family="sans-serif" font-size="11" font-style="italic" lengthAdjust="spacingAndGlyphs" textLength="94" x="526.5" y="151.2339">wikiTitle(): String</text><ellipse cx="517.5" cy="160.8281" fill="#84BE84" rx="3" ry="3" style="stroke: #038048; stroke-width: 1.0;"/><text fill="#000000" font-family="sans-serif" font-size="11" font-style="italic" lengthAdjust="spacingAndGlyphs" textLength="142" x="526.5" y="164.0386">wikiPageContent(): String</text></a><!--MD5=[69fa6963d335ab919d5e415dcd915065]
reverse link org.apache.wiki.pages.haddock.HaddockPage to org.apache.wiki.pages.haddock.LoginPage--><path codeLine="41" d="M494.105,297.0185 C438.841,313.9902 370.4269,337.4837 312,365 C277.541,381.2285 241.1776,403.4513 212.551,422.2694 " fill="none" id="org.apache.wiki.pages.haddock.HaddockPage-backto-org.apache.wiki.pages.haddock.LoginPage" style="stroke: #A80036; stroke-width: 1.0; stroke-dasharray: 7.0,7.0;"/><polygon fill="none" points="492.2767,290.2585,513.4464,291.1786,496.3235,303.6609,492.2767,290.2585" style="stroke: #A80036; stroke-width: 1.0;"/><!--MD5=[86d7adb97df1cbde6ac9109c3333d74c]
reverse link org.apache.wiki.pages.haddock.HaddockPage to org.apache.wiki.pages.haddock.ViewWikiPage--><path codeLine="42" d="M558.2905,321.5519 C548.3257,334.9904 537.3329,349.8151 526.3605,364.6124 " fill="none" id="org.apache.wiki.pages.haddock.HaddockPage-backto-org.apache.wiki.pages.haddock.ViewWikiPage" style="stroke: #A80036; stroke-width: 1.0; stroke-dasharray: 7.0,7.0;"/><polygon fill="none" points="552.7484,317.2735,570.2839,305.3777,563.9941,325.6124,552.7484,317.2735" style="stroke: #A80036; stroke-width: 1.0;"/><!--MD5=[3cfe57979b4f3097f41fca5880da929f]
reverse link org.apache.wiki.pages.haddock.HaddockPage to org.apache.wiki.pages.haddock.EditWikiPage--><path codeLine="43" d="M637.8408,321.7289 C658.3417,349.3764 683.1664,382.8547 703.2107,409.8863 " fill="none" id="org.apache.wiki.pages.haddock.HaddockPage-backto-org.apache.wiki.pages.haddock.EditWikiPage" style="stroke: #A80036; stroke-width: 1.0; stroke-dasharray: 7.0,7.0;"/><polygon fill="none" points="632.0059,325.6124,625.7161,305.3777,643.2516,317.2735,632.0059,325.6124" style="stroke: #A80036; stroke-width: 1.0;"/><!--MD5=[49fc634f611741c6cc98691ff604cb84]
reverse link org.apache.wiki.pages.haddock.HaddockPage to org.apache.wiki.pages.haddock.SearchResultsPage--><path codeLine="44" d="M702.1338,298.0423 C756.2579,315.0901 822.8573,338.3381 880,365 C907.5325,377.8462 936.372,394.259 961.7117,409.7895 " fill="none" id="org.apache.wiki.pages.haddock.HaddockPage-backto-org.apache.wiki.pages.haddock.SearchResultsPage" style="stroke: #A80036; stroke-width: 1.0; stroke-dasharray: 7.0,7.0;"/><polygon fill="none" points="699.8282,304.6563,682.7984,292.0472,703.9743,291.2843,699.8282,304.6563" style="stroke: #A80036; stroke-width: 1.0;"/><!--MD5=[eadd6c3753b07f47c2f03fa9acd64816]
reverse link org.apache.wiki.pages.Page to org.apache.wiki.pages.haddock.HaddockPage--><path codeLine="45" d="M598,191.7347 C598,205.5894 598,219.1922 598,230.9852 " fill="none" id="org.apache.wiki.pages.Page-backto-org.apache.wiki.pages.haddock.HaddockPage" style="stroke: #A80036; stroke-width: 1.0;"/><polygon fill="none" points="591.0001,191.4371,598,171.4371,605.0001,191.4371,591.0001,191.4371" style="stroke: #A80036; stroke-width: 1.0;"/><text fill="#888888" font-family="sans-serif" font-size="10" lengthAdjust="spacingAndGlyphs" textLength="192" x="498.5" y="577.2822">UMLDoclet 2.0.12, PlantUML 1.2020.16</text><!--MD5=[41287c59fb7546df632a7927ae28f7a2]
@startuml
    namespace org.apache.wiki.pages.haddock {

        class LoginPage [[LoginPage.html]] {
            +performLogin(): ViewWikiPage
            +performLogin(String, String): ViewWikiPage
        }

        class ViewWikiPage [[ViewWikiPage.html]] {
            {static} +open(String): ViewWikiPage
            +authenticatedText(): String
            +clickOnLogin(): LoginPage
            +clickOnShowReaderView(): ViewWikiPage
            +hoverLoginArea(): ViewWikiPage
            +hoverMoreArea(): ViewWikiPage
            +editPage(): EditWikiPage
            +searchFor(String): SearchResultsPage
            +clickOnLogout(): ViewWikiPage
            +navigateTo(String): ViewWikiPage
            +sidebar(): SelenideElement
        }

        class EditWikiPage [[EditWikiPage.html]] {
            {static} +open(String): EditWikiPage
            +cancel(): ViewWikiPage
            +saveText(String): ViewWikiPage
            +saveText(String, String): ViewWikiPage
        }

        class SearchResultsPage [[SearchResultsPage.html]] {
            {static} +open(String): SearchResultsPage
            +pagesFound(): List<String>
            +shouldContain(String...): SearchResultsPage
            +navigateTo(String): ViewWikiPage
        }

        interface HaddockPage [[HaddockPage.html]] {
            +wikiTitle(): String
            +wikiPageContent(): String
        }

        HaddockPage <|.. LoginPage
        HaddockPage <|.. ViewWikiPage
        HaddockPage <|.. EditWikiPage
        HaddockPage <|.. SearchResultsPage
        org.apache.wiki.pages.Page <|- - HaddockPage
    }

    namespace org.apache.wiki.pages {
        interface Page [[../Page.html]] {
            {static} +withUrl(String): PageBuilder
            {static} +baseUrl(): String
            {static} +download(String): File
            +title(): String
            +url(): String
            {abstract} +wikiTitle(): String
            {abstract} +wikiPageContent(): String
        }
    }

    center footer UMLDoclet 2.0.12, PlantUML 1.2020.16
@enduml

PlantUML version 1.2020.16(Sun Aug 23 20:20:43 UTC 2020)
(APACHE source distribution)
Java Runtime: Java(TM) SE Runtime Environment
JVM: Java HotSpot(TM) 64-Bit Server VM
Default Encoding: ISO-8859-1
Language: en
Country: US
--></g></svg>