<?xml version="1.0" encoding="UTF-8" standalone="no"?><svg xmlns="http://www.w3.org/2000/svg" xmlns:xlink="http://www.w3.org/1999/xlink" contentScriptType="application/ecmascript" contentStyleType="text/css" height="302px" preserveAspectRatio="none" style="width:259px;height:302px;" version="1.1" viewBox="0 0 259 302" width="259px" zoomAndPan="magnify"><defs><filter height="300%" id="fb0ayg21lxjqj" width="300%" x="-1" y="-1"><feGaussianBlur result="blurOut" stdDeviation="2.0"/><feColorMatrix in="blurOut" result="blurOut2" type="matrix" values="0 0 0 0 0 0 0 0 0 0 0 0 0 0 0 0 0 0 .4 0"/><feOffset dx="4.0" dy="4.0" in="blurOut2" result="blurOut3"/><feBlend in="SourceGraphic" in2="blurOut3" mode="normal"/></filter></defs><g><!--MD5=[615d156814b2047144a02fd91d7ba9f6]
class org.apache.wiki.pages.haddock.ReadWikiPage--><a href="ReadWikiPage.html" target="_top" title="ReadWikiPage.html" xlink:actuate="onRequest" xlink:href="ReadWikiPage.html" xlink:show="new" xlink:title="ReadWikiPage.html" xlink:type="simple"><rect codeLine="5" fill="#FEFECE" filter="url(#fb0ayg21lxjqj)" height="158.875" id="org.apache.wiki.pages.haddock.ReadWikiPage" style="stroke: #A80036; stroke-width: 1.5;" width="233" x="7" y="107"/><ellipse cx="45.85" cy="127.0938" fill="#ADD1B2" rx="11" ry="11" style="stroke: #A80036; stroke-width: 1.0;"/><path d="M48.6156,122.9688 Q48.7719,122.75 48.9594,122.6406 Q49.1469,122.5313 49.3656,122.5313 Q49.7406,122.5313 49.975,122.7969 Q50.2094,123.0469 50.2094,123.6563 L50.2094,125.1094 Q50.2094,125.7188 49.975,125.9844 Q49.7406,126.25 49.3656,126.25 Q49.0219,126.25 48.8188,126.0469 Q48.6156,125.8594 48.5063,125.3438 Q48.4594,124.9844 48.2719,124.7969 Q47.9438,124.4219 47.3344,124.2031 Q46.725,123.9844 46.1,123.9844 Q45.3344,123.9844 44.6938,124.3125 Q44.0688,124.6406 43.5688,125.3906 Q43.0844,126.1406 43.0844,127.1719 L43.0844,128.2656 Q43.0844,129.5 43.975,130.3281 Q44.8656,131.1406 46.4594,131.1406 Q47.3969,131.1406 48.0531,130.8906 Q48.4438,130.7344 48.8656,130.2969 Q49.1313,130.0313 49.2719,129.9531 Q49.4281,129.875 49.6313,129.875 Q49.9594,129.875 50.2094,130.1406 Q50.475,130.3906 50.475,130.7344 Q50.475,131.0781 50.1313,131.4844 Q49.6313,132.0625 48.8344,132.3906 Q47.7563,132.8438 46.4594,132.8438 Q44.9438,132.8438 43.7406,132.2188 Q42.7563,131.7188 42.0688,130.6563 Q41.3813,129.5781 41.3813,128.2969 L41.3813,127.1406 Q41.3813,125.8125 41.9906,124.6719 Q42.6156,123.5156 43.7094,122.9063 Q44.8031,122.2813 46.0375,122.2813 Q46.7719,122.2813 47.4125,122.4531 Q48.0688,122.6094 48.6156,122.9688 Z "/><text fill="#000000" font-family="sans-serif" font-size="14" lengthAdjust="spacingAndGlyphs" textLength="93" x="92.65" y="126.5332">ReadWikiPage</text><text fill="#000000" font-family="sans-serif" font-size="10" lengthAdjust="spacingAndGlyphs" textLength="148" x="65.15" y="139.9902">org.apache.wiki.pages.haddock</text><line style="stroke: #A80036; stroke-width: 1.5;" x1="8" x2="239" y1="147.1875" y2="147.1875"/><ellipse cx="18" cy="158.1875" fill="#84BE84" rx="3" ry="3" style="stroke: #038048; stroke-width: 1.0;"/><text fill="#000000" font-family="sans-serif" font-size="11" lengthAdjust="spacingAndGlyphs" textLength="128" x="27" y="162.6064">authenticatedText(): String</text><ellipse cx="18" cy="172.0234" fill="#84BE84" rx="3" ry="3" style="stroke: #038048; stroke-width: 1.0;"/><text fill="#000000" font-family="sans-serif" font-size="11" lengthAdjust="spacingAndGlyphs" textLength="125" x="27" y="176.4424">clickOnLogin(): LoginPage</text><ellipse cx="18" cy="185.8594" fill="#84BE84" rx="3" ry="3" style="stroke: #038048; stroke-width: 1.0;"/><text fill="#000000" font-family="sans-serif" font-size="11" lengthAdjust="spacingAndGlyphs" textLength="207" x="27" y="190.2783">clickOnShowReaderView(): ReadWikiPage</text><ellipse cx="18" cy="199.6953" fill="#84BE84" rx="3" ry="3" style="stroke: #038048; stroke-width: 1.0;"/><text fill="#000000" font-family="sans-serif" font-size="11" lengthAdjust="spacingAndGlyphs" textLength="160" x="27" y="204.1143">hoverLoginArea(): ReadWikiPage</text><ellipse cx="18" cy="213.5313" fill="#84BE84" rx="3" ry="3" style="stroke: #038048; stroke-width: 1.0;"/><text fill="#000000" font-family="sans-serif" font-size="11" lengthAdjust="spacingAndGlyphs" textLength="158" x="27" y="217.9502">hoverMoreArea(): ReadWikiPage</text><ellipse cx="18" cy="227.3672" fill="#84BE84" rx="3" ry="3" style="stroke: #038048; stroke-width: 1.0;"/><text fill="#000000" font-family="sans-serif" font-size="11" lengthAdjust="spacingAndGlyphs" textLength="111" x="27" y="231.7861">logout(): ReadWikiPage</text><ellipse cx="18" cy="241.2031" fill="#84BE84" rx="3" ry="3" style="stroke: #038048; stroke-width: 1.0;"/><text fill="#000000" font-family="sans-serif" font-size="11" lengthAdjust="spacingAndGlyphs" textLength="163" x="27" y="245.6221">navigateTo(String): ReadWikiPage</text><ellipse cx="18" cy="255.0391" fill="#84BE84" rx="3" ry="3" style="stroke: #038048; stroke-width: 1.0;"/><text fill="#000000" font-family="sans-serif" font-size="11" lengthAdjust="spacingAndGlyphs" textLength="128" x="27" y="259.458">sidebar(): SelenideElement</text></a><!--MD5=[51fa92a3ff110d57e5424501b00811c5]
class org.apache.wiki.pages.haddock.HaddockPage--><a href="HaddockPage.html" target="_top" title="HaddockPage.html" xlink:actuate="onRequest" xlink:href="HaddockPage.html" xlink:show="new" xlink:title="HaddockPage.html" xlink:type="simple"><rect codeLine="16" fill="#FEFECE" filter="url(#fb0ayg21lxjqj)" height="40.1875" id="org.apache.wiki.pages.haddock.HaddockPage" style="stroke: #A80036; stroke-width: 1.5;" width="182" x="32.5" y="7"/><ellipse cx="47.5" cy="27.0938" fill="#B4A7E5" rx="11" ry="11" style="stroke: #A80036; stroke-width: 1.0;"/><path d="M48.4531,23.7344 L48.4531,30.3906 L50.1719,30.3906 Q50.7813,30.3906 51.0469,30.625 Q51.3125,30.8594 51.3125,31.25 Q51.3125,31.625 51.0469,31.8594 Q50.7813,32.0938 50.1719,32.0938 L45.0313,32.0938 Q44.4219,32.0938 44.1563,31.8594 Q43.8906,31.625 43.8906,31.2344 Q43.8906,30.8594 44.1563,30.625 Q44.4219,30.3906 45.0313,30.3906 L46.75,30.3906 L46.75,23.7344 L45.0313,23.7344 Q44.4219,23.7344 44.1563,23.5 Q43.8906,23.2656 43.8906,22.875 Q43.8906,22.5 44.1563,22.2656 Q44.4219,22.0313 45.0313,22.0313 L50.1719,22.0313 Q50.7813,22.0313 51.0469,22.2656 Q51.3125,22.5 51.3125,22.875 Q51.3125,23.2656 51.0469,23.5 Q50.7813,23.7344 50.1719,23.7344 L48.4531,23.7344 Z "/><text fill="#000000" font-family="sans-serif" font-size="14" font-style="italic" lengthAdjust="spacingAndGlyphs" textLength="90" x="91.5" y="26.5332">HaddockPage</text><text fill="#000000" font-family="sans-serif" font-size="10" font-style="italic" lengthAdjust="spacingAndGlyphs" textLength="150" x="61.5" y="39.9902">org.apache.wiki.pages.haddock</text></a><!--MD5=[59efc4fe1069ed3b3ca331d8b91f35fa]
reverse link org.apache.wiki.pages.haddock.HaddockPage to org.apache.wiki.pages.haddock.ReadWikiPage--><path codeLine="18" d="M123.5,67.4369 C123.5,79.5131 123.5,93.1932 123.5,106.8686 " fill="none" id="org.apache.wiki.pages.haddock.HaddockPage-backto-org.apache.wiki.pages.haddock.ReadWikiPage" style="stroke: #A80036; stroke-width: 1.0; stroke-dasharray: 7.0,7.0;"/><polygon fill="none" points="116.5001,67.2008,123.5,47.2008,130.5001,67.2008,116.5001,67.2008" style="stroke: #A80036; stroke-width: 1.0;"/><text fill="#888888" font-family="sans-serif" font-size="10" lengthAdjust="spacingAndGlyphs" textLength="190" x="25.5" y="289.2559">UMLDoclet 2.0.12, PlantUML 1.2020.16</text><!--MD5=[b3237295c5ad6fa1cc7d92f4901efbf0]
@startuml
    set namespaceSeparator none
    hide empty fields
    hide empty methods

    class "<size:14>ReadWikiPage\n<size:10>org.apache.wiki.pages.haddock" as org.apache.wiki.pages.haddock.ReadWikiPage [[ReadWikiPage.html]] {
        +authenticatedText(): String
        +clickOnLogin(): LoginPage
        +clickOnShowReaderView(): ReadWikiPage
        +hoverLoginArea(): ReadWikiPage
        +hoverMoreArea(): ReadWikiPage
        +logout(): ReadWikiPage
        +navigateTo(String): ReadWikiPage
        +sidebar(): SelenideElement
    }

    interface "<size:14>HaddockPage\n<size:10>org.apache.wiki.pages.haddock" as org.apache.wiki.pages.haddock.HaddockPage [[HaddockPage.html]]

    org.apache.wiki.pages.haddock.HaddockPage <|.. org.apache.wiki.pages.haddock.ReadWikiPage

    center footer UMLDoclet 2.0.12, PlantUML 1.2020.16
@enduml

PlantUML version 1.2020.16(Sun Aug 23 22:20:43 CEST 2020)
(APACHE source distribution)
Java Runtime: OpenJDK Runtime Environment
JVM: OpenJDK 64-Bit Server VM
Default Encoding: Cp1252
Language: es
Country: ES
--></g></svg>