<?xml version="1.0" encoding="UTF-8" standalone="no"?><svg xmlns="http://www.w3.org/2000/svg" xmlns:xlink="http://www.w3.org/1999/xlink" contentScriptType="application/ecmascript" contentStyleType="text/css" height="358px" preserveAspectRatio="none" style="width:1067px;height:358px;background:#FFFFFF;" version="1.1" viewBox="0 0 1067 358" width="1067px" zoomAndPan="magnify"><defs><filter height="300%" id="fn9ww7koj2je8" width="300%" x="-1" y="-1"><feGaussianBlur result="blurOut" stdDeviation="2.0"/><feColorMatrix in="blurOut" result="blurOut2" type="matrix" values="0 0 0 0 0 0 0 0 0 0 0 0 0 0 0 0 0 0 .4 0"/><feOffset dx="4.0" dy="4.0" in="blurOut2" result="blurOut3"/><feBlend in="SourceGraphic" in2="blurOut3" mode="normal"/></filter></defs><g><!--MD5=[995102a770b16a50c2339cd3df1cc322]
cluster org.apache.wiki.api.plugin--><polygon fill="#FFFFFF" filter="url(#fn9ww7koj2je8)" points="16,6,228,6,235,28.2969,1050,28.2969,1050,335,16,335,16,6" style="stroke:#000000;stroke-width:1.5;"/><line style="stroke:#000000;stroke-width:1.5;" x1="16" x2="235" y1="28.2969" y2="28.2969"/><text fill="#000000" font-family="sans-serif" font-size="14" font-weight="bold" lengthAdjust="spacing" textLength="206" x="20" y="20.9951">org.apache.wiki.api.plugin</text><!--MD5=[e635f748fe944f22e1d279b3c2c934ec]
class org.apache.wiki.api.plugin.ParserStagePlugin--><a href="ParserStagePlugin.html" target="_top" title="ParserStagePlugin.html" xlink:actuate="onRequest" xlink:href="ParserStagePlugin.html" xlink:show="new" xlink:title="ParserStagePlugin.html" xlink:type="simple"><rect codeLine="3" fill="#FEFECE" filter="url(#fn9ww7koj2je8)" height="60.8047" id="org.apache.wiki.api.plugin.ParserStagePlugin" style="stroke:#A80036;stroke-width:1.5;" width="403" x="354.5" y="79.5"/><ellipse cx="495.25" cy="95.5" fill="#B4A7E5" rx="11" ry="11" style="stroke:#A80036;stroke-width:1.0;"/><path d="M491.1719,91.2656 L491.1719,89.1094 L498.5625,89.1094 L498.5625,91.2656 L496.0938,91.2656 L496.0938,99.3438 L498.5625,99.3438 L498.5625,101.5 L491.1719,101.5 L491.1719,99.3438 L493.6406,99.3438 L493.6406,91.2656 L491.1719,91.2656 Z " fill="#000000"/><text fill="#000000" font-family="sans-serif" font-size="12" font-style="italic" lengthAdjust="spacing" textLength="113" x="515.75" y="99.6543">ParserStagePlugin</text><line style="stroke:#A80036;stroke-width:1.5;" x1="355.5" x2="756.5" y1="111.5" y2="111.5"/><line style="stroke:#A80036;stroke-width:1.5;" x1="355.5" x2="756.5" y1="119.5" y2="119.5"/><ellipse cx="365.5" cy="130.5" fill="#84BE84" rx="3" ry="3" style="stroke:#038048;stroke-width:1.0;"/><text fill="#000000" font-family="sans-serif" font-size="11" font-style="italic" lengthAdjust="spacing" textLength="377" x="374.5" y="133.7104">executeParser(PluginElement, Context, Map&lt;String, String&gt;): void</text></a><!--MD5=[222b1348fd968d1d09b20aa49a96d291]
class org.apache.wiki.api.plugin.PluginElement--><a href="PluginElement.html" target="_top" title="PluginElement.html" xlink:actuate="onRequest" xlink:href="PluginElement.html" xlink:show="new" xlink:title="PluginElement.html" xlink:type="simple"><rect codeLine="7" fill="#FEFECE" filter="url(#fn9ww7koj2je8)" height="137.6328" id="org.apache.wiki.api.plugin.PluginElement" style="stroke:#A80036;stroke-width:1.5;" width="241" x="792.5" y="41"/><ellipse cx="864.75" cy="57" fill="#B4A7E5" rx="11" ry="11" style="stroke:#A80036;stroke-width:1.0;"/><path d="M860.6719,52.7656 L860.6719,50.6094 L868.0625,50.6094 L868.0625,52.7656 L865.5938,52.7656 L865.5938,60.8438 L868.0625,60.8438 L868.0625,63 L860.6719,63 L860.6719,60.8438 L863.1406,60.8438 L863.1406,52.7656 L860.6719,52.7656 Z " fill="#000000"/><text fill="#000000" font-family="sans-serif" font-size="12" font-style="italic" lengthAdjust="spacing" textLength="88" x="885.25" y="61.1543">PluginElement</text><line style="stroke:#A80036;stroke-width:1.5;" x1="793.5" x2="1032.5" y1="73" y2="73"/><line style="stroke:#A80036;stroke-width:1.5;" x1="793.5" x2="1032.5" y1="81" y2="81"/><ellipse cx="803.5" cy="92" fill="#84BE84" rx="3" ry="3" style="stroke:#038048;stroke-width:1.0;"/><text fill="#000000" font-family="sans-serif" font-size="11" font-style="italic" lengthAdjust="spacing" textLength="134" x="812.5" y="95.2104">getPluginName(): String</text><ellipse cx="803.5" cy="104.8047" fill="#84BE84" rx="3" ry="3" style="stroke:#038048;stroke-width:1.0;"/><text fill="#000000" font-family="sans-serif" font-size="11" font-style="italic" lengthAdjust="spacing" textLength="160" x="812.5" y="108.0151">getParameter(String): String</text><ellipse cx="803.5" cy="117.6094" fill="#84BE84" rx="3" ry="3" style="stroke:#038048;stroke-width:1.0;"/><text fill="#000000" font-family="sans-serif" font-size="11" font-style="italic" lengthAdjust="spacing" textLength="215" x="812.5" y="120.8198">getParameters(): Map&lt;String, String&gt;</text><ellipse cx="803.5" cy="130.4141" fill="#84BE84" rx="3" ry="3" style="stroke:#038048;stroke-width:1.0;"/><text fill="#000000" font-family="sans-serif" font-size="11" font-style="italic" lengthAdjust="spacing" textLength="99" x="812.5" y="133.6245">getValue(): String</text><ellipse cx="803.5" cy="143.2188" fill="#84BE84" rx="3" ry="3" style="stroke:#038048;stroke-width:1.0;"/><text fill="#000000" font-family="sans-serif" font-size="11" font-style="italic" lengthAdjust="spacing" textLength="92" x="812.5" y="146.4292">getText(): String</text><ellipse cx="803.5" cy="156.0234" fill="#84BE84" rx="3" ry="3" style="stroke:#038048;stroke-width:1.0;"/><text fill="#000000" font-family="sans-serif" font-size="11" font-style="italic" lengthAdjust="spacing" textLength="130" x="812.5" y="159.2339">invoke(Context): String</text><ellipse cx="803.5" cy="168.8281" fill="#84BE84" rx="3" ry="3" style="stroke:#038048;stroke-width:1.0;"/><text fill="#000000" font-family="sans-serif" font-size="11" font-style="italic" lengthAdjust="spacing" textLength="161" x="812.5" y="172.0386">executeParse(Context): void</text></a><!--MD5=[c734dc17d5c62ee069eb735a20fecb46]
class org.apache.wiki.api.plugin.InitializablePlugin--><a href="InitializablePlugin.html" target="_top" title="InitializablePlugin.html" xlink:actuate="onRequest" xlink:href="InitializablePlugin.html" xlink:show="new" xlink:title="InitializablePlugin.html" xlink:type="simple"><rect codeLine="17" fill="#FEFECE" filter="url(#fn9ww7koj2je8)" height="60.8047" id="org.apache.wiki.api.plugin.InitializablePlugin" style="stroke:#A80036;stroke-width:1.5;" width="150" x="481" y="248.5"/><ellipse cx="500.95" cy="264.5" fill="#B4A7E5" rx="11" ry="11" style="stroke:#A80036;stroke-width:1.0;"/><path d="M496.8719,260.2656 L496.8719,258.1094 L504.2625,258.1094 L504.2625,260.2656 L501.7938,260.2656 L501.7938,268.3438 L504.2625,268.3438 L504.2625,270.5 L496.8719,270.5 L496.8719,268.3438 L499.3406,268.3438 L499.3406,260.2656 L496.8719,260.2656 Z " fill="#000000"/><text fill="#000000" font-family="sans-serif" font-size="12" font-style="italic" lengthAdjust="spacing" textLength="107" x="516.05" y="268.6543">InitializablePlugin</text><line style="stroke:#A80036;stroke-width:1.5;" x1="482" x2="630" y1="280.5" y2="280.5"/><line style="stroke:#A80036;stroke-width:1.5;" x1="482" x2="630" y1="288.5" y2="288.5"/><ellipse cx="492" cy="299.5" fill="#84BE84" rx="3" ry="3" style="stroke:#038048;stroke-width:1.0;"/><text fill="#000000" font-family="sans-serif" font-size="11" font-style="italic" lengthAdjust="spacing" textLength="124" x="501" y="302.7104">initialize(Engine): void</text></a><!--MD5=[5fde2029f8ce8ab8846f1aaf0f24b94e]
class org.apache.wiki.api.plugin.Plugin--><a href="Plugin.html" target="_top" title="Plugin.html" xlink:actuate="onRequest" xlink:href="Plugin.html" xlink:show="new" xlink:title="Plugin.html" xlink:type="simple"><rect codeLine="21" fill="#FEFECE" filter="url(#fn9ww7koj2je8)" height="73.6094" id="org.apache.wiki.api.plugin.Plugin" style="stroke:#A80036;stroke-width:1.5;" width="287" x="32.5" y="73"/><ellipse cx="153.25" cy="89" fill="#B4A7E5" rx="11" ry="11" style="stroke:#A80036;stroke-width:1.0;"/><path d="M149.1719,84.7656 L149.1719,82.6094 L156.5625,82.6094 L156.5625,84.7656 L154.0938,84.7656 L154.0938,92.8438 L156.5625,92.8438 L156.5625,95 L149.1719,95 L149.1719,92.8438 L151.6406,92.8438 L151.6406,84.7656 L149.1719,84.7656 Z " fill="#000000"/><text fill="#000000" font-family="sans-serif" font-size="12" font-style="italic" lengthAdjust="spacing" textLength="37" x="173.75" y="93.1543">Plugin</text><line style="stroke:#A80036;stroke-width:1.5;" x1="33.5" x2="318.5" y1="105" y2="105"/><ellipse cx="43.5" cy="116" rx="3" ry="3" style="stroke:#038048;stroke-width:1.0;fill:none;"/><text fill="#000000" font-family="sans-serif" font-size="11" lengthAdjust="spacing" text-decoration="underline" textLength="240" x="52.5" y="119.2104">CORE_PLUGINS_RESOURCEBUNDLE: String</text><line style="stroke:#A80036;stroke-width:1.5;" x1="33.5" x2="318.5" y1="125.8047" y2="125.8047"/><ellipse cx="43.5" cy="136.8047" fill="#84BE84" rx="3" ry="3" style="stroke:#038048;stroke-width:1.0;"/><text fill="#000000" font-family="sans-serif" font-size="11" font-style="italic" lengthAdjust="spacing" textLength="261" x="52.5" y="140.0151">execute(Context, Map&lt;String, String&gt;): String</text></a><!--MD5=[1c9d1f4292506d4c63287f23fa9e56ec]
class org.apache.wiki.api.plugin.WikiPlugin--><a href="WikiPlugin.html" target="_top" title="WikiPlugin.html" xlink:actuate="onRequest" xlink:href="WikiPlugin.html" xlink:show="new" xlink:title="WikiPlugin.html" xlink:type="simple"><rect codeLine="26" fill="#FEFECE" filter="url(#fn9ww7koj2je8)" height="79.5469" id="org.apache.wiki.api.plugin.WikiPlugin" style="stroke:#A80036;stroke-width:1.5;" width="310" x="32" y="239"/><ellipse cx="141.25" cy="257.9688" fill="#B4A7E5" rx="11" ry="11" style="stroke:#A80036;stroke-width:1.0;"/><path d="M137.1719,253.7344 L137.1719,251.5781 L144.5625,251.5781 L144.5625,253.7344 L142.0938,253.7344 L142.0938,261.8125 L144.5625,261.8125 L144.5625,263.9688 L137.1719,263.9688 L137.1719,261.8125 L139.6406,261.8125 L139.6406,253.7344 L137.1719,253.7344 Z " fill="#000000"/><text fill="#000000" font-family="sans-serif" font-size="12" font-style="italic" lengthAdjust="spacing" textLength="87" x="159.75" y="255.1387">«deprecated»</text><text fill="#000000" font-family="sans-serif" font-size="12" font-style="italic" lengthAdjust="spacing" textLength="62" x="172.25" y="269.1074">WikiPlugin</text><line style="stroke:#A80036;stroke-width:1.5;" x1="33" x2="341" y1="276.9375" y2="276.9375"/><line style="stroke:#A80036;stroke-width:1.5;" x1="33" x2="341" y1="284.9375" y2="284.9375"/><ellipse cx="43" cy="295.9375" fill="#84BE84" rx="3" ry="3" style="stroke:#038048;stroke-width:1.0;"/><text fill="#000000" font-family="sans-serif" font-size="11" lengthAdjust="spacing" textLength="262" x="52" y="299.1479">execute(Context, Map&lt;String, String&gt;): String</text><ellipse cx="43" cy="308.7422" fill="#84BE84" rx="3" ry="3" style="stroke:#038048;stroke-width:1.0;"/><text fill="#000000" font-family="sans-serif" font-size="11" font-style="italic" lengthAdjust="spacing" textLength="284" x="52" y="311.9526">execute(WikiContext, Map&lt;String, String&gt;): String</text></a><!--MD5=[d3975c76adc152db7dc0e6c9c074fd8e]
reverse link org.apache.wiki.api.plugin.Plugin to org.apache.wiki.api.plugin.WikiPlugin--><path codeLine="31" d="M179.71,167.28 C181.26,190.82 183.02,217.6 184.43,238.92 " fill="none" id="org.apache.wiki.api.plugin.Plugin-backto-org.apache.wiki.api.plugin.WikiPlugin" style="stroke:#A80036;stroke-width:1.0;"/><polygon fill="none" points="172.72,167.65,178.39,147.24,186.69,166.73,172.72,167.65" style="stroke:#A80036;stroke-width:1.0;"/><!--MD5=[14cfd92be189fbbe378463b88f44709e]
link org.apache.wiki.api.plugin.ParserStagePlugin to org.apache.wiki.api.plugin.PluginElement--><!--MD5=[49a08b3acff6e9026af26693c85b10fb]
link org.apache.wiki.api.plugin.ParserStagePlugin to org.apache.wiki.api.plugin.InitializablePlugin--><text fill="#888888" font-family="sans-serif" font-size="10" lengthAdjust="spacing" textLength="192" x="431" y="350.2822">UMLDoclet 2.0.15, PlantUML 1.2021.13</text><!--MD5=[99cc4d647383d6e1b227e93cc62ce28d]
@startuml
    namespace org.apache.wiki.api.plugin {

        interface ParserStagePlugin [[ParserStagePlugin.html]] {
            {abstract} +executeParser(PluginElement, Context, Map<String, String>): void
        }

        interface PluginElement [[PluginElement.html]] {
            {abstract} +getPluginName(): String
            {abstract} +getParameter(String): String
            {abstract} +getParameters(): Map<String, String>
            {abstract} +getValue(): String
            {abstract} +getText(): String
            {abstract} +invoke(Context): String
            {abstract} +executeParse(Context): void
        }

        interface InitializablePlugin [[InitializablePlugin.html]] {
            {abstract} +initialize(Engine): void
        }

        interface Plugin [[Plugin.html]] {
            {static} +CORE_PLUGINS_RESOURCEBUNDLE: String
            {abstract} +execute(Context, Map<String, String>): String
        }

        interface WikiPlugin <<deprecated>> [[WikiPlugin.html]] {
            +execute(Context, Map<String, String>): String
            {abstract} +execute(WikiContext, Map<String, String>): String
        }

        Plugin <|- - WikiPlugin
    }

    center footer UMLDoclet 2.0.15, PlantUML 1.2021.13
@enduml

PlantUML version 1.2021.13(Mon Nov 01 11:38:45 UTC 2021)
(APACHE source distribution)
Java Runtime: OpenJDK Runtime Environment
JVM: OpenJDK 64-Bit Server VM
Default Encoding: UTF-8
Language: en
Country: null
--></g></svg>