<?xml version="1.0" encoding="UTF-8" standalone="no"?><svg xmlns="http://www.w3.org/2000/svg" xmlns:xlink="http://www.w3.org/1999/xlink" contentScriptType="application/ecmascript" contentStyleType="text/css" height="463px" preserveAspectRatio="none" style="width:419px;height:463px;" version="1.1" viewBox="0 0 419 463" width="419px" zoomAndPan="magnify"><defs><filter height="300%" id="folh0mp430u6f" width="300%" x="-1" y="-1"><feGaussianBlur result="blurOut" stdDeviation="2.0"/><feColorMatrix in="blurOut" result="blurOut2" type="matrix" values="0 0 0 0 0 0 0 0 0 0 0 0 0 0 0 0 0 0 .4 0"/><feOffset dx="4.0" dy="4.0" in="blurOut2" result="blurOut3"/><feBlend in="SourceGraphic" in2="blurOut3" mode="normal"/></filter></defs><g><!--class AuthenticationManager--><a href="AuthenticationManager.html" target="_top" xlink:actuate="onRequest" xlink:show="new" xlink:title="AuthenticationManager.html" xlink:type="simple"><rect fill="#FEFECE" filter="url(#folh0mp430u6f)" height="421.5703" id="AuthenticationManager" style="stroke: #A80036; stroke-width: 1.5;" width="402" x="6" y="8"/><ellipse cx="140.25" cy="24" fill="#ADD1B2" rx="11" ry="11" style="stroke: #A80036; stroke-width: 1.0;"/><path d="M143.0156,19.875 Q143.1719,19.6563 143.3594,19.5469 Q143.5469,19.4375 143.7656,19.4375 Q144.1406,19.4375 144.375,19.6953 Q144.6094,19.9531 144.6094,20.5625 L144.6094,22.0156 Q144.6094,22.625 144.375,22.8906 Q144.1406,23.1563 143.7656,23.1563 Q143.4219,23.1563 143.2188,22.9531 Q143.0156,22.7656 142.9063,22.25 Q142.8594,21.8906 142.6719,21.7031 Q142.3438,21.3281 141.7344,21.1094 Q141.125,20.8906 140.5,20.8906 Q139.7344,20.8906 139.1016,21.2188 Q138.4688,21.5469 137.9766,22.2969 Q137.4844,23.0469 137.4844,24.0781 L137.4844,25.1719 Q137.4844,26.4063 138.375,27.2266 Q139.2656,28.0469 140.8594,28.0469 Q141.7969,28.0469 142.4531,27.7969 Q142.8438,27.6406 143.2656,27.2031 Q143.5313,26.9375 143.6797,26.8594 Q143.8281,26.7813 144.0313,26.7813 Q144.3594,26.7813 144.6172,27.0391 Q144.875,27.2969 144.875,27.6406 Q144.875,27.9844 144.5313,28.3906 Q144.0313,28.9688 143.2344,29.2969 Q142.1563,29.75 140.8594,29.75 Q139.3438,29.75 138.1406,29.125 Q137.1563,28.625 136.4688,27.5547 Q135.7813,26.4844 135.7813,25.2031 L135.7813,24.0469 Q135.7813,22.7188 136.3984,21.5703 Q137.0156,20.4219 138.1094,19.8047 Q139.2031,19.1875 140.4375,19.1875 Q141.1719,19.1875 141.8203,19.3516 Q142.4688,19.5156 143.0156,19.875 Z "/><text fill="#000000" font-family="sans-serif" font-size="12" lengthAdjust="spacingAndGlyphs" textLength="125" x="160.75" y="28.9102">AuthenticationManager</text><line style="stroke: #A80036; stroke-width: 1.5;" x1="7" x2="407" y1="40" y2="40"/><ellipse cx="17" cy="52.418" fill="none" rx="3" ry="3" style="stroke: #038048; stroke-width: 1.0;"/><text fill="#000000" font-family="sans-serif" font-size="11" lengthAdjust="spacingAndGlyphs" text-decoration="underline" textLength="120" x="26" y="55.4189">COOKIE_MODULE: String</text><ellipse cx="17" cy="66.2539" fill="none" rx="3" ry="3" style="stroke: #038048; stroke-width: 1.0;"/><text fill="#000000" font-family="sans-serif" font-size="11" lengthAdjust="spacingAndGlyphs" text-decoration="underline" textLength="213" x="26" y="69.2549">COOKIE_AUTHENTICATION_MODULE: String</text><ellipse cx="17" cy="80.0898" fill="none" rx="3" ry="3" style="stroke: #038048; stroke-width: 1.0;"/><text fill="#000000" font-family="sans-serif" font-size="11" lengthAdjust="spacingAndGlyphs" text-decoration="underline" textLength="158" x="26" y="83.0908">PROP_STOREIPADDRESS: String</text><ellipse cx="17" cy="93.9258" fill="none" rx="3" ry="3" style="stroke: #038048; stroke-width: 1.0;"/><text fill="#000000" font-family="sans-serif" font-size="11" lengthAdjust="spacingAndGlyphs" text-decoration="underline" textLength="183" x="26" y="96.9268">PROP_ALLOW_COOKIE_AUTH: String</text><ellipse cx="17" cy="107.7617" fill="none" rx="3" ry="3" style="stroke: #038048; stroke-width: 1.0;"/><text fill="#000000" font-family="sans-serif" font-size="11" lengthAdjust="spacingAndGlyphs" text-decoration="underline" textLength="167" x="26" y="110.7627">PROP_LOGIN_THROTTLING: String</text><polygon fill="none" points="17,116.5977,21,120.5977,17,124.5977,13,120.5977" style="stroke: #B38D22; stroke-width: 1.0;"/><text fill="#000000" font-family="sans-serif" font-size="11" lengthAdjust="spacingAndGlyphs" text-decoration="underline" textLength="54" x="26" y="124.5986">log: Logger</text><polygon fill="none" points="17,130.4336,21,134.4336,17,138.4336,13,134.4336" style="stroke: #B38D22; stroke-width: 1.0;"/><text fill="#000000" font-family="sans-serif" font-size="11" lengthAdjust="spacingAndGlyphs" text-decoration="underline" textLength="203" x="26" y="138.4346">PREFIX_LOGIN_MODULE_OPTIONS: String</text><polygon fill="none" points="17,144.2695,21,148.2695,17,152.2695,13,148.2695" style="stroke: #B38D22; stroke-width: 1.0;"/><text fill="#000000" font-family="sans-serif" font-size="11" lengthAdjust="spacingAndGlyphs" text-decoration="underline" textLength="220" x="26" y="152.2705">PROP_ALLOW_COOKIE_ASSERTIONS: String</text><polygon fill="none" points="17,158.1055,21,162.1055,17,166.1055,13,162.1055" style="stroke: #B38D22; stroke-width: 1.0;"/><text fill="#000000" font-family="sans-serif" font-size="11" lengthAdjust="spacingAndGlyphs" text-decoration="underline" textLength="146" x="26" y="166.1064">PROP_LOGIN_MODULE: String</text><polygon fill="none" points="17,171.9414,21,175.9414,17,179.9414,13,175.9414" style="stroke: #B38D22; stroke-width: 1.0;"/><text fill="#000000" font-family="sans-serif" font-size="11" lengthAdjust="spacingAndGlyphs" text-decoration="underline" textLength="162" x="26" y="179.9424">EMPTY_MAP: Map&lt;String, String&gt;</text><polygon fill="none" points="17,185.7773,21,189.7773,17,193.7773,13,189.7773" style="stroke: #B38D22; stroke-width: 1.0;"/><text fill="#000000" font-family="sans-serif" font-size="11" lengthAdjust="spacingAndGlyphs" textLength="148" x="26" y="193.7783">m_loginModuleClass: Class&lt;?&gt;</text><polygon fill="none" points="17,199.6133,21,203.6133,17,207.6133,13,203.6133" style="stroke: #B38D22; stroke-width: 1.0;"/><text fill="#000000" font-family="sans-serif" font-size="11" lengthAdjust="spacingAndGlyphs" textLength="207" x="26" y="207.6143">m_loginModuleOptions: Map&lt;String, String&gt;</text><line style="stroke: #A80036; stroke-width: 1.5;" x1="7" x2="407" y1="214.0313" y2="214.0313"/><ellipse cx="17" cy="226.4492" fill="#84BE84" rx="3" ry="3" style="stroke: #038048; stroke-width: 1.0;"/><text fill="#000000" font-family="sans-serif" font-size="11" lengthAdjust="spacingAndGlyphs" textLength="177" x="26" y="229.4502">initialize(WikiEngine, Properties): void</text><ellipse cx="17" cy="240.2852" fill="#84BE84" rx="3" ry="3" style="stroke: #038048; stroke-width: 1.0;"/><text fill="#000000" font-family="sans-serif" font-size="11" lengthAdjust="spacingAndGlyphs" textLength="173" x="26" y="243.2861">isContainerAuthenticated(): boolean</text><ellipse cx="17" cy="254.1211" fill="#84BE84" rx="3" ry="3" style="stroke: #038048; stroke-width: 1.0;"/><text fill="#000000" font-family="sans-serif" font-size="11" lengthAdjust="spacingAndGlyphs" textLength="167" x="26" y="257.1221">login(HttpServletRequest): boolean</text><ellipse cx="17" cy="267.957" fill="#84BE84" rx="3" ry="3" style="stroke: #038048; stroke-width: 1.0;"/><text fill="#000000" font-family="sans-serif" font-size="11" lengthAdjust="spacingAndGlyphs" textLength="299" x="26" y="270.958">login(WikiSession, HttpServletRequest, String, String): boolean</text><ellipse cx="17" cy="281.793" fill="#84BE84" rx="3" ry="3" style="stroke: #038048; stroke-width: 1.0;"/><text fill="#000000" font-family="sans-serif" font-size="11" lengthAdjust="spacingAndGlyphs" textLength="156" x="26" y="284.7939">logout(HttpServletRequest): void</text><ellipse cx="17" cy="295.6289" fill="#84BE84" rx="3" ry="3" style="stroke: #038048; stroke-width: 1.0;"/><text fill="#000000" font-family="sans-serif" font-size="11" lengthAdjust="spacingAndGlyphs" textLength="169" x="26" y="298.6299">allowsCookieAssertions(): boolean</text><ellipse cx="17" cy="309.4648" fill="#84BE84" rx="3" ry="3" style="stroke: #038048; stroke-width: 1.0;"/><text fill="#000000" font-family="sans-serif" font-size="11" lengthAdjust="spacingAndGlyphs" textLength="185" x="26" y="312.4658">allowsCookieAuthentication(): boolean</text><ellipse cx="17" cy="323.3008" fill="#84BE84" rx="3" ry="3" style="stroke: #038048; stroke-width: 1.0;"/><text fill="#000000" font-family="sans-serif" font-size="11" lengthAdjust="spacingAndGlyphs" text-decoration="underline" textLength="161" x="26" y="326.3018">isRolePrincipal(Principal): boolean</text><ellipse cx="17" cy="337.1367" fill="#84BE84" rx="3" ry="3" style="stroke: #038048; stroke-width: 1.0;"/><text fill="#000000" font-family="sans-serif" font-size="11" lengthAdjust="spacingAndGlyphs" text-decoration="underline" textLength="163" x="26" y="340.1377">isUserPrincipal(Principal): boolean</text><polygon fill="#FFFF44" points="17,345.9727,21,349.9727,17,353.9727,13,349.9727" style="stroke: #B38D22; stroke-width: 1.0;"/><text fill="#000000" font-family="sans-serif" font-size="11" lengthAdjust="spacingAndGlyphs" textLength="376" x="26" y="353.9736">doJAASLogin(Class&lt;?&gt;, CallbackHandler, Map&lt;String, String&gt;): Set&lt;Principal&gt;</text><polygon fill="#FFFF44" points="17,359.8086,21,363.8086,17,367.8086,13,363.8086" style="stroke: #B38D22; stroke-width: 1.0;"/><text fill="#000000" font-family="sans-serif" font-size="11" lengthAdjust="spacingAndGlyphs" text-decoration="underline" textLength="184" x="26" y="367.8096">findConfigFile(WikiEngine, String): URL</text><polygon fill="#FFFF44" points="17,373.6445,21,377.6445,17,381.6445,13,377.6445" style="stroke: #B38D22; stroke-width: 1.0;"/><text fill="#000000" font-family="sans-serif" font-size="11" lengthAdjust="spacingAndGlyphs" textLength="203" x="26" y="381.6455">getLoginPrincipal(Set&lt;Principal&gt;): Principal</text><ellipse cx="17" cy="392.4805" fill="#84BE84" rx="3" ry="3" style="stroke: #038048; stroke-width: 1.0;"/><text fill="#000000" font-family="sans-serif" font-size="11" lengthAdjust="spacingAndGlyphs" textLength="222" x="26" y="395.4814">addWikiEventListener(WikiEventListener): void</text><ellipse cx="17" cy="406.3164" fill="#84BE84" rx="3" ry="3" style="stroke: #038048; stroke-width: 1.0;"/><text fill="#000000" font-family="sans-serif" font-size="11" lengthAdjust="spacingAndGlyphs" textLength="240" x="26" y="409.3174">removeWikiEventListener(WikiEventListener): void</text><polygon fill="#FFFF44" points="17,415.1523,21,419.1523,17,423.1523,13,419.1523" style="stroke: #B38D22; stroke-width: 1.0;"/><text fill="#000000" font-family="sans-serif" font-size="11" lengthAdjust="spacingAndGlyphs" textLength="171" x="26" y="423.1533">fireEvent(int, Principal, Object): void</text></a><text fill="#888888" font-family="sans-serif" font-size="10" lengthAdjust="spacingAndGlyphs" textLength="184" x="121" y="450.3809">UMLDoclet 1.1.4, PlantUML 1.2019.05</text><!--
@startuml

    class AuthenticationManager [[AuthenticationManager.html]] {
        {static} +COOKIE_MODULE: String
        {static} +COOKIE_AUTHENTICATION_MODULE: String
        {static} +PROP_STOREIPADDRESS: String
        {static} +PROP_ALLOW_COOKIE_AUTH: String
        {static} +PROP_LOGIN_THROTTLING: String
        {static} #log: Logger
        {static} #PREFIX_LOGIN_MODULE_OPTIONS: String
        {static} #PROP_ALLOW_COOKIE_ASSERTIONS: String
        {static} #PROP_LOGIN_MODULE: String
        {static} #EMPTY_MAP: Map<String, String>
        #m_loginModuleClass: Class<?>
        #m_loginModuleOptions: Map<String, String>
        +initialize(WikiEngine, Properties): void
        +isContainerAuthenticated(): boolean
        +login(HttpServletRequest): boolean
        +login(WikiSession, HttpServletRequest, String, String): boolean
        +logout(HttpServletRequest): void
        +allowsCookieAssertions(): boolean
        +allowsCookieAuthentication(): boolean
        {static} +isRolePrincipal(Principal): boolean
        {static} +isUserPrincipal(Principal): boolean
        #doJAASLogin(Class<?>, CallbackHandler, Map<String, String>): Set<Principal>
        {static} #findConfigFile(WikiEngine, String): URL
        #getLoginPrincipal(Set<Principal>): Principal
        +addWikiEventListener(WikiEventListener): void
        +removeWikiEventListener(WikiEventListener): void
        #fireEvent(int, Principal, Object): void
    }


    center footer UMLDoclet 1.1.4, PlantUML 1.2019.05
@enduml

PlantUML version 1.2019.05(Sat Apr 20 18:45:36 CEST 2019)
(APACHE source distribution)
Java Runtime: OpenJDK Runtime Environment
JVM: OpenJDK 64-Bit Server VM
Java Version: 1.8.0_212-b03
Operating System: Windows 10
OS Version: 10.0
Default Encoding: Cp1252
Language: es
Country: ES
--></g></svg>