<?xml version="1.0" encoding="UTF-8" standalone="no"?><svg xmlns="http://www.w3.org/2000/svg" xmlns:xlink="http://www.w3.org/1999/xlink" contentScriptType="application/ecmascript" contentStyleType="text/css" height="172px" preserveAspectRatio="none" style="width:291px;height:172px;" version="1.1" viewBox="0 0 291 172" width="291px" zoomAndPan="magnify"><defs><filter height="300%" id="f8rgli4imnx2n" width="300%" x="-1" y="-1"><feGaussianBlur result="blurOut" stdDeviation="2.0"/><feColorMatrix in="blurOut" result="blurOut2" type="matrix" values="0 0 0 0 0 0 0 0 0 0 0 0 0 0 0 0 0 0 .4 0"/><feOffset dx="4.0" dy="4.0" in="blurOut2" result="blurOut3"/><feBlend in="SourceGraphic" in2="blurOut3" mode="normal"/></filter></defs><g><!--class AllPermissionCollection--><a href="AllPermissionCollection.html" target="_top" xlink:actuate="onRequest" xlink:show="new" xlink:title="AllPermissionCollection.html" xlink:type="simple"><rect fill="#FEFECE" filter="url(#f8rgli4imnx2n)" height="131.0156" id="AllPermissionCollection" style="stroke: #A80036; stroke-width: 1.5;" width="274" x="6" y="8"/><ellipse cx="72.75" cy="24" fill="#ADD1B2" rx="11" ry="11" style="stroke: #A80036; stroke-width: 1.0;"/><path d="M75.5156,19.875 Q75.6719,19.6563 75.8594,19.5469 Q76.0469,19.4375 76.2656,19.4375 Q76.6406,19.4375 76.875,19.6953 Q77.1094,19.9531 77.1094,20.5625 L77.1094,22.0156 Q77.1094,22.625 76.875,22.8906 Q76.6406,23.1563 76.2656,23.1563 Q75.9219,23.1563 75.7188,22.9531 Q75.5156,22.7656 75.4063,22.25 Q75.3594,21.8906 75.1719,21.7031 Q74.8438,21.3281 74.2344,21.1094 Q73.625,20.8906 73,20.8906 Q72.2344,20.8906 71.6016,21.2188 Q70.9688,21.5469 70.4766,22.2969 Q69.9844,23.0469 69.9844,24.0781 L69.9844,25.1719 Q69.9844,26.4063 70.875,27.2266 Q71.7656,28.0469 73.3594,28.0469 Q74.2969,28.0469 74.9531,27.7969 Q75.3438,27.6406 75.7656,27.2031 Q76.0313,26.9375 76.1797,26.8594 Q76.3281,26.7813 76.5313,26.7813 Q76.8594,26.7813 77.1172,27.0391 Q77.375,27.2969 77.375,27.6406 Q77.375,27.9844 77.0313,28.3906 Q76.5313,28.9688 75.7344,29.2969 Q74.6563,29.75 73.3594,29.75 Q71.8438,29.75 70.6406,29.125 Q69.6563,28.625 68.9688,27.5547 Q68.2813,26.4844 68.2813,25.2031 L68.2813,24.0469 Q68.2813,22.7188 68.8984,21.5703 Q69.5156,20.4219 70.6094,19.8047 Q71.7031,19.1875 72.9375,19.1875 Q73.6719,19.1875 74.3203,19.3516 Q74.9688,19.5156 75.5156,19.875 Z "/><text fill="#000000" font-family="sans-serif" font-size="12" lengthAdjust="spacingAndGlyphs" textLength="132" x="93.25" y="28.9102">AllPermissionCollection</text><line style="stroke: #A80036; stroke-width: 1.5;" x1="7" x2="279" y1="40" y2="40"/><polygon fill="none" points="17,47.418,21,51.418,17,55.418,13,51.418" style="stroke: #B38D22; stroke-width: 1.0;"/><text fill="#000000" font-family="sans-serif" font-size="11" lengthAdjust="spacingAndGlyphs" textLength="248" x="26" y="55.4189">m_permissions: Hashtable&lt;Permission, Permission&gt;</text><line style="stroke: #A80036; stroke-width: 1.5;" x1="7" x2="279" y1="61.8359" y2="61.8359"/><ellipse cx="17" cy="74.2539" fill="#84BE84" rx="3" ry="3" style="stroke: #038048; stroke-width: 1.0;"/><text fill="#000000" font-family="sans-serif" font-size="11" lengthAdjust="spacingAndGlyphs" textLength="104" x="26" y="77.2549">add(Permission): void</text><ellipse cx="17" cy="88.0898" fill="#84BE84" rx="3" ry="3" style="stroke: #038048; stroke-width: 1.0;"/><text fill="#000000" font-family="sans-serif" font-size="11" lengthAdjust="spacingAndGlyphs" textLength="180" x="26" y="91.0908">elements(): Enumeration&lt;Permission&gt;</text><ellipse cx="17" cy="101.9258" fill="#84BE84" rx="3" ry="3" style="stroke: #038048; stroke-width: 1.0;"/><text fill="#000000" font-family="sans-serif" font-size="11" lengthAdjust="spacingAndGlyphs" textLength="136" x="26" y="104.9268">implies(Permission): boolean</text><ellipse cx="17" cy="115.7617" fill="#84BE84" rx="3" ry="3" style="stroke: #038048; stroke-width: 1.0;"/><text fill="#000000" font-family="sans-serif" font-size="11" lengthAdjust="spacingAndGlyphs" textLength="107" x="26" y="118.7627">isReadOnly(): boolean</text><ellipse cx="17" cy="129.5977" fill="#84BE84" rx="3" ry="3" style="stroke: #038048; stroke-width: 1.0;"/><text fill="#000000" font-family="sans-serif" font-size="11" lengthAdjust="spacingAndGlyphs" textLength="96" x="26" y="132.5986">setReadOnly(): void</text></a><text fill="#888888" font-family="sans-serif" font-size="10" lengthAdjust="spacingAndGlyphs" textLength="184" x="57" y="159.3809">UMLDoclet 1.1.4, PlantUML 1.2019.05</text><!--
@startuml

    class AllPermissionCollection [[AllPermissionCollection.html]] {
        #m_permissions: Hashtable<Permission, Permission>
        +add(Permission): void
        +elements(): Enumeration<Permission>
        +implies(Permission): boolean
        +isReadOnly(): boolean
        +setReadOnly(): void
    }


    center footer UMLDoclet 1.1.4, PlantUML 1.2019.05
@enduml

PlantUML version 1.2019.05(Sat Apr 20 18:45:36 CEST 2019)
(APACHE source distribution)
Java Runtime: OpenJDK Runtime Environment
JVM: OpenJDK 64-Bit Server VM
Java Version: 1.8.0_212-b03
Operating System: Windows 10
OS Version: 10.0
Default Encoding: Cp1252
Language: es
Country: ES
--></g></svg>