<?xml version="1.0" encoding="UTF-8" standalone="no"?><svg xmlns="http://www.w3.org/2000/svg" xmlns:xlink="http://www.w3.org/1999/xlink" contentScriptType="application/ecmascript" contentStyleType="text/css" height="216px" preserveAspectRatio="none" style="width:384px;height:216px;" version="1.1" viewBox="0 0 384 216" width="384px" zoomAndPan="magnify"><defs><filter height="300%" id="fifh4l2jvlz4k" width="300%" x="-1" y="-1"><feGaussianBlur result="blurOut" stdDeviation="2.0"/><feColorMatrix in="blurOut" result="blurOut2" type="matrix" values="0 0 0 0 0 0 0 0 0 0 0 0 0 0 0 0 0 0 .4 0"/><feOffset dx="4.0" dy="4.0" in="blurOut2" result="blurOut3"/><feBlend in="SourceGraphic" in2="blurOut3" mode="normal"/></filter></defs><g><!--class DefaultUserManager--><a href="DefaultUserManager.html" target="_top" xlink:actuate="onRequest" xlink:show="new" xlink:title="DefaultUserManager.html" xlink:type="simple"><rect fill="#FEFECE" filter="url(#fifh4l2jvlz4k)" height="176.0469" id="DefaultUserManager" style="stroke: #A80036; stroke-width: 1.5;" width="367" x="6" y="8"/><ellipse cx="120.75" cy="24" fill="#ADD1B2" rx="11" ry="11" style="stroke: #A80036; stroke-width: 1.0;"/><path d="M123.7188,29.6406 Q123.1406,29.9375 122.5,30.0781 Q121.8594,30.2344 121.1563,30.2344 Q118.6563,30.2344 117.3281,28.5938 Q116.0156,26.9375 116.0156,23.8125 Q116.0156,20.6875 117.3281,19.0313 Q118.6563,17.375 121.1563,17.375 Q121.8594,17.375 122.5,17.5313 Q123.1563,17.6875 123.7188,17.9844 L123.7188,20.7031 Q123.0938,20.125 122.5,19.8594 Q121.9063,19.5781 121.2813,19.5781 Q119.9375,19.5781 119.25,20.6563 Q118.5625,21.7188 118.5625,23.8125 Q118.5625,25.9063 119.25,26.9844 Q119.9375,28.0469 121.2813,28.0469 Q121.9063,28.0469 122.5,27.7813 Q123.0938,27.5 123.7188,26.9219 L123.7188,29.6406 Z "/><text fill="#000000" font-family="sans-serif" font-size="12" lengthAdjust="spacingAndGlyphs" textLength="129" x="141.25" y="28.1543">DefaultUserManager</text><line style="stroke: #A80036; stroke-width: 1.5;" x1="7" x2="372" y1="40" y2="40"/><line style="stroke: #A80036; stroke-width: 1.5;" x1="7" x2="372" y1="48" y2="48"/><ellipse cx="17" cy="59.9023" fill="#84BE84" rx="3" ry="3" style="stroke: #038048; stroke-width: 1.0;"/><text fill="#000000" font-family="sans-serif" font-size="11" lengthAdjust="spacingAndGlyphs" textLength="189" x="26" y="62.2104">initialize(Engine, Properties): void</text><ellipse cx="17" cy="72.707" fill="#84BE84" rx="3" ry="3" style="stroke: #038048; stroke-width: 1.0;"/><text fill="#000000" font-family="sans-serif" font-size="11" lengthAdjust="spacingAndGlyphs" textLength="196" x="26" y="75.0151">getUserDatabase(): UserDatabase</text><ellipse cx="17" cy="85.5117" fill="#84BE84" rx="3" ry="3" style="stroke: #038048; stroke-width: 1.0;"/><text fill="#000000" font-family="sans-serif" font-size="11" lengthAdjust="spacingAndGlyphs" textLength="206" x="26" y="87.8198">getUserProfile(Session): UserProfile</text><ellipse cx="17" cy="98.3164" fill="#84BE84" rx="3" ry="3" style="stroke: #038048; stroke-width: 1.0;"/><text fill="#000000" font-family="sans-serif" font-size="11" lengthAdjust="spacingAndGlyphs" textLength="234" x="26" y="100.6245">setUserProfile(Context, UserProfile): void</text><ellipse cx="17" cy="111.1211" fill="#84BE84" rx="3" ry="3" style="stroke: #038048; stroke-width: 1.0;"/><text fill="#000000" font-family="sans-serif" font-size="11" lengthAdjust="spacingAndGlyphs" textLength="341" x="26" y="113.4292">startUserProfileCreationWorkflow(Context, UserProfile): void</text><ellipse cx="17" cy="123.9258" fill="#84BE84" rx="3" ry="3" style="stroke: #038048; stroke-width: 1.0;"/><text fill="#000000" font-family="sans-serif" font-size="11" lengthAdjust="spacingAndGlyphs" textLength="191" x="26" y="126.2339">parseProfile(Context): UserProfile</text><ellipse cx="17" cy="136.7305" fill="#84BE84" rx="3" ry="3" style="stroke: #038048; stroke-width: 1.0;"/><text fill="#000000" font-family="sans-serif" font-size="11" lengthAdjust="spacingAndGlyphs" textLength="233" x="26" y="139.0386">validateProfile(Context, UserProfile): void</text><ellipse cx="17" cy="149.5352" fill="#84BE84" rx="3" ry="3" style="stroke: #038048; stroke-width: 1.0;"/><text fill="#000000" font-family="sans-serif" font-size="11" lengthAdjust="spacingAndGlyphs" textLength="150" x="26" y="151.8433">listWikiNames(): Principal[]</text><ellipse cx="17" cy="162.3398" fill="#84BE84" rx="3" ry="3" style="stroke: #038048; stroke-width: 1.0;"/><text fill="#000000" font-family="sans-serif" font-size="11" lengthAdjust="spacingAndGlyphs" textLength="256" x="26" y="164.6479">addWikiEventListener(WikiEventListener): void</text><ellipse cx="17" cy="175.1445" fill="#84BE84" rx="3" ry="3" style="stroke: #038048; stroke-width: 1.0;"/><text fill="#000000" font-family="sans-serif" font-size="11" lengthAdjust="spacingAndGlyphs" textLength="278" x="26" y="177.4526">removeWikiEventListener(WikiEventListener): void</text></a><text fill="#888888" font-family="sans-serif" font-size="10" lengthAdjust="spacingAndGlyphs" textLength="186" x="102.5" y="203.2822">UMLDoclet 1.1.4, PlantUML 1.2019.05</text><!--
@startuml

    class DefaultUserManager [[DefaultUserManager.html]] {
        +initialize(Engine, Properties): void
        +getUserDatabase(): UserDatabase
        +getUserProfile(Session): UserProfile
        +setUserProfile(Context, UserProfile): void
        +startUserProfileCreationWorkflow(Context, UserProfile): void
        +parseProfile(Context): UserProfile
        +validateProfile(Context, UserProfile): void
        +listWikiNames(): Principal[]
        +addWikiEventListener(WikiEventListener): void
        +removeWikiEventListener(WikiEventListener): void
    }


    center footer UMLDoclet 1.1.4, PlantUML 1.2019.05
@enduml

PlantUML version 1.2019.05(Sat Apr 20 16:45:36 UTC 2019)
(APACHE source distribution)
Java Runtime: OpenJDK Runtime Environment
JVM: OpenJDK 64-Bit Server VM
Java Version: 1.8.0_252-b09
Operating System: Linux
OS Version: 4.15.0-74-generic
Default Encoding: ISO-8859-1
Language: en
Country: US
--></g></svg>