<?xml version="1.0" encoding="UTF-8" standalone="no"?><svg xmlns="http://www.w3.org/2000/svg" xmlns:xlink="http://www.w3.org/1999/xlink" contentScriptType="application/ecmascript" contentStyleType="text/css" height="462px" preserveAspectRatio="none" style="width:305px;height:462px;" version="1.1" viewBox="0 0 305 462" width="305px" zoomAndPan="magnify"><defs><filter height="300%" id="f1avo1lfu2yebw" width="300%" x="-1" y="-1"><feGaussianBlur result="blurOut" stdDeviation="2.0"/><feColorMatrix in="blurOut" result="blurOut2" type="matrix" values="0 0 0 0 0 0 0 0 0 0 0 0 0 0 0 0 0 0 .4 0"/><feOffset dx="4.0" dy="4.0" in="blurOut2" result="blurOut3"/><feBlend in="SourceGraphic" in2="blurOut3" mode="normal"/></filter></defs><g><!--MD5=[39110873176236ae772377eb17db3cdb]
class org.apache.wiki.workflow.DefaultWorkflowManager--><a href="DefaultWorkflowManager.html" target="_top" title="DefaultWorkflowManager.html" xlink:actuate="onRequest" xlink:href="DefaultWorkflowManager.html" xlink:show="new" xlink:title="DefaultWorkflowManager.html" xlink:type="simple"><rect codeLine="5" fill="#FEFECE" filter="url(#f1avo1lfu2yebw)" height="228.0547" id="org.apache.wiki.workflow.DefaultWorkflowManager" style="stroke: #A80036; stroke-width: 1.5;" width="277" x="9" y="198"/><ellipse cx="64.25" cy="218.0938" fill="#ADD1B2" rx="11" ry="11" style="stroke: #A80036; stroke-width: 1.0;"/><path d="M67.0156,213.9688 Q67.1719,213.75 67.3594,213.6406 Q67.5469,213.5313 67.7656,213.5313 Q68.1406,213.5313 68.375,213.7969 Q68.6094,214.0469 68.6094,214.6563 L68.6094,216.1094 Q68.6094,216.7188 68.375,216.9844 Q68.1406,217.25 67.7656,217.25 Q67.4219,217.25 67.2188,217.0469 Q67.0156,216.8594 66.9063,216.3438 Q66.8594,215.9844 66.6719,215.7969 Q66.3438,215.4219 65.7344,215.2031 Q65.125,214.9844 64.5,214.9844 Q63.7344,214.9844 63.0938,215.3125 Q62.4688,215.6406 61.9688,216.3906 Q61.4844,217.1406 61.4844,218.1719 L61.4844,219.2656 Q61.4844,220.5 62.375,221.3281 Q63.2656,222.1406 64.8594,222.1406 Q65.7969,222.1406 66.4531,221.8906 Q66.8438,221.7344 67.2656,221.2969 Q67.5313,221.0313 67.6719,220.9531 Q67.8281,220.875 68.0313,220.875 Q68.3594,220.875 68.6094,221.1406 Q68.875,221.3906 68.875,221.7344 Q68.875,222.0781 68.5313,222.4844 Q68.0313,223.0625 67.2344,223.3906 Q66.1563,223.8438 64.8594,223.8438 Q63.3438,223.8438 62.1406,223.2188 Q61.1563,222.7188 60.4688,221.6563 Q59.7813,220.5781 59.7813,219.2969 L59.7813,218.1406 Q59.7813,216.8125 60.3906,215.6719 Q61.0156,214.5156 62.1094,213.9063 Q63.2031,213.2813 64.4375,213.2813 Q65.1719,213.2813 65.8125,213.4531 Q66.4688,213.6094 67.0156,213.9688 Z "/><text fill="#000000" font-family="sans-serif" font-size="14" lengthAdjust="spacingAndGlyphs" textLength="158" x="84.75" y="217.5332">DefaultWorkflowManager</text><text fill="#000000" font-family="sans-serif" font-size="10" lengthAdjust="spacingAndGlyphs" textLength="116" x="105.75" y="230.9902">org.apache.wiki.workflow</text><line style="stroke: #A80036; stroke-width: 1.5;" x1="10" x2="285" y1="238.1875" y2="238.1875"/><ellipse cx="20" cy="249.1875" fill="#84BE84" rx="3" ry="3" style="stroke: #038048; stroke-width: 1.0;"/><text fill="#000000" font-family="sans-serif" font-size="11" lengthAdjust="spacingAndGlyphs" textLength="157" x="29" y="253.6064">getWorkflows(): Set&lt;Workflow&gt;</text><ellipse cx="20" cy="263.0234" fill="#84BE84" rx="3" ry="3" style="stroke: #038048; stroke-width: 1.0;"/><text fill="#000000" font-family="sans-serif" font-size="11" lengthAdjust="spacingAndGlyphs" textLength="208" x="29" y="267.4424">getCompletedWorkflows(): List&lt;Workflow&gt;</text><ellipse cx="20" cy="276.8594" fill="#84BE84" rx="3" ry="3" style="stroke: #038048; stroke-width: 1.0;"/><text fill="#000000" font-family="sans-serif" font-size="11" lengthAdjust="spacingAndGlyphs" textLength="158" x="29" y="281.2783">initialize(Engine, Properties): void</text><ellipse cx="20" cy="290.6953" fill="#84BE84" rx="3" ry="3" style="stroke: #038048; stroke-width: 1.0;"/><text fill="#000000" font-family="sans-serif" font-size="11" lengthAdjust="spacingAndGlyphs" textLength="164" x="29" y="295.1143">requiresApproval(String): boolean</text><ellipse cx="20" cy="304.5313" fill="#84BE84" rx="3" ry="3" style="stroke: #038048; stroke-width: 1.0;"/><text fill="#000000" font-family="sans-serif" font-size="11" lengthAdjust="spacingAndGlyphs" textLength="143" x="29" y="308.9502">getApprover(String): Principal</text><polygon fill="#FFFF44" points="20,313.3672,24,317.3672,20,321.3672,16,317.3672" style="stroke: #B38D22; stroke-width: 1.0;"/><text fill="#000000" font-family="sans-serif" font-size="11" lengthAdjust="spacingAndGlyphs" textLength="93" x="29" y="322.7861">getEngine(): Engine</text><ellipse cx="20" cy="332.2031" fill="#84BE84" rx="3" ry="3" style="stroke: #038048; stroke-width: 1.0;"/><text fill="#000000" font-family="sans-serif" font-size="11" lengthAdjust="spacingAndGlyphs" textLength="175" x="29" y="336.6221">getDecisionQueue(): DecisionQueue</text><ellipse cx="20" cy="346.0391" fill="#84BE84" rx="3" ry="3" style="stroke: #038048; stroke-width: 1.0;"/><text fill="#000000" font-family="sans-serif" font-size="11" lengthAdjust="spacingAndGlyphs" textLength="231" x="29" y="350.458">getOwnerWorkflows(Session): List&lt;Workflow&gt;</text><ellipse cx="20" cy="359.875" fill="#84BE84" rx="3" ry="3" style="stroke: #038048; stroke-width: 1.0;"/><text fill="#000000" font-family="sans-serif" font-size="11" lengthAdjust="spacingAndGlyphs" textLength="159" x="29" y="364.2939">actionPerformed(WikiEvent): void</text><polygon fill="#FFFF44" points="20,368.7109,24,372.7109,20,376.7109,16,372.7109" style="stroke: #B38D22; stroke-width: 1.0;"/><text fill="#000000" font-family="sans-serif" font-size="11" lengthAdjust="spacingAndGlyphs" textLength="99" x="29" y="378.1299">add(Workflow): void</text><polygon fill="#FFFF44" points="20,382.5469,24,386.5469,20,390.5469,16,386.5469" style="stroke: #B38D22; stroke-width: 1.0;"/><text fill="#000000" font-family="sans-serif" font-size="11" lengthAdjust="spacingAndGlyphs" textLength="117" x="29" y="391.9658">remove(Workflow): void</text><polygon fill="#FFFF44" points="20,396.3828,24,400.3828,20,404.3828,16,400.3828" style="stroke: #B38D22; stroke-width: 1.0;"/><text fill="#000000" font-family="sans-serif" font-size="11" lengthAdjust="spacingAndGlyphs" textLength="251" x="29" y="405.8018">removeFromDecisionQueue(Decision, Context): void</text><polygon fill="#FFFF44" points="20,410.2188,24,414.2188,20,418.2188,16,414.2188" style="stroke: #B38D22; stroke-width: 1.0;"/><text fill="#000000" font-family="sans-serif" font-size="11" lengthAdjust="spacingAndGlyphs" textLength="178" x="29" y="419.6377">addToDecisionQueue(Decision): void</text></a><!--MD5=[a3cf4bf153fbc14661326a38c8cff141]
class org.apache.wiki.workflow.WorkflowManager--><a href="WorkflowManager.html" target="_top" title="WorkflowManager.html" xlink:actuate="onRequest" xlink:href="WorkflowManager.html" xlink:show="new" xlink:title="WorkflowManager.html" xlink:type="simple"><rect codeLine="21" fill="#FEFECE" filter="url(#f1avo1lfu2yebw)" height="131.2031" id="org.apache.wiki.workflow.WorkflowManager" style="stroke: #A80036; stroke-width: 1.5;" width="255" x="20" y="7"/><ellipse cx="83.25" cy="27.0938" fill="#B4A7E5" rx="11" ry="11" style="stroke: #A80036; stroke-width: 1.0;"/><path d="M84.2031,23.7344 L84.2031,30.3906 L85.9219,30.3906 Q86.5313,30.3906 86.7969,30.625 Q87.0625,30.8594 87.0625,31.25 Q87.0625,31.625 86.7969,31.8594 Q86.5313,32.0938 85.9219,32.0938 L80.7813,32.0938 Q80.1719,32.0938 79.9063,31.8594 Q79.6406,31.625 79.6406,31.2344 Q79.6406,30.8594 79.9063,30.625 Q80.1719,30.3906 80.7813,30.3906 L82.5,30.3906 L82.5,23.7344 L80.7813,23.7344 Q80.1719,23.7344 79.9063,23.5 Q79.6406,23.2656 79.6406,22.875 Q79.6406,22.5 79.9063,22.2656 Q80.1719,22.0313 80.7813,22.0313 L85.9219,22.0313 Q86.5313,22.0313 86.7969,22.2656 Q87.0625,22.5 87.0625,22.875 Q87.0625,23.2656 86.7969,23.5 Q86.5313,23.7344 85.9219,23.7344 L84.2031,23.7344 Z "/><text fill="#000000" font-family="sans-serif" font-size="14" font-style="italic" lengthAdjust="spacingAndGlyphs" textLength="116" x="105.75" y="26.5332">WorkflowManager</text><text fill="#000000" font-family="sans-serif" font-size="10" font-style="italic" lengthAdjust="spacingAndGlyphs" textLength="120" x="103.75" y="39.9902">org.apache.wiki.workflow</text><line style="stroke: #A80036; stroke-width: 1.5;" x1="21" x2="274" y1="47.1875" y2="47.1875"/><ellipse cx="31" cy="58.1875" fill="#84BE84" rx="3" ry="3" style="stroke: #038048; stroke-width: 1.0;"/><text fill="#000000" font-family="sans-serif" font-size="11" font-style="italic" lengthAdjust="spacingAndGlyphs" textLength="155" x="40" y="62.6064">getWorkflows(): Set&lt;Workflow&gt;</text><ellipse cx="31" cy="72.0234" fill="#84BE84" rx="3" ry="3" style="stroke: #038048; stroke-width: 1.0;"/><text fill="#000000" font-family="sans-serif" font-size="11" font-style="italic" lengthAdjust="spacingAndGlyphs" textLength="210" x="40" y="76.4424">getCompletedWorkflows(): List&lt;Workflow&gt;</text><ellipse cx="31" cy="85.8594" fill="#84BE84" rx="3" ry="3" style="stroke: #038048; stroke-width: 1.0;"/><text fill="#000000" font-family="sans-serif" font-size="11" font-style="italic" lengthAdjust="spacingAndGlyphs" textLength="167" x="40" y="90.2783">requiresApproval(String): boolean</text><ellipse cx="31" cy="99.6953" fill="#84BE84" rx="3" ry="3" style="stroke: #038048; stroke-width: 1.0;"/><text fill="#000000" font-family="sans-serif" font-size="11" font-style="italic" lengthAdjust="spacingAndGlyphs" textLength="146" x="40" y="104.1143">getApprover(String): Principal</text><ellipse cx="31" cy="113.5313" fill="#84BE84" rx="3" ry="3" style="stroke: #038048; stroke-width: 1.0;"/><text fill="#000000" font-family="sans-serif" font-size="11" font-style="italic" lengthAdjust="spacingAndGlyphs" textLength="183" x="40" y="117.9502">getDecisionQueue(): DecisionQueue</text><ellipse cx="31" cy="127.3672" fill="#84BE84" rx="3" ry="3" style="stroke: #038048; stroke-width: 1.0;"/><text fill="#000000" font-family="sans-serif" font-size="11" font-style="italic" lengthAdjust="spacingAndGlyphs" textLength="229" x="40" y="131.7861">getOwnerWorkflows(Session): List&lt;Workflow&gt;</text></a><!--MD5=[53ac23e6b50a5effb801f4700f4de1ec]
reverse link org.apache.wiki.workflow.WorkflowManager to org.apache.wiki.workflow.DefaultWorkflowManager--><path codeLine="30" d="M147.5,158.3826 C147.5,171.1186 147.5,184.4114 147.5,197.6171 " fill="none" id="org.apache.wiki.workflow.WorkflowManager-backto-org.apache.wiki.workflow.DefaultWorkflowManager" style="stroke: #A80036; stroke-width: 1.0; stroke-dasharray: 7.0,7.0;"/><polygon fill="none" points="140.5001,158.2612,147.5,138.2612,154.5001,158.2612,140.5001,158.2612" style="stroke: #A80036; stroke-width: 1.0;"/><text fill="#888888" font-family="sans-serif" font-size="10" lengthAdjust="spacingAndGlyphs" textLength="190" x="48.5" y="449.4355">UMLDoclet 2.0.12, PlantUML 1.2020.16</text><!--MD5=[8db17fd8592d29d32e7fcb8ffb6a0878]
@startuml
    set namespaceSeparator none
    hide empty fields
    hide empty methods

    class "<size:14>DefaultWorkflowManager\n<size:10>org.apache.wiki.workflow" as org.apache.wiki.workflow.DefaultWorkflowManager [[DefaultWorkflowManager.html]] {
        +getWorkflows(): Set<Workflow>
        +getCompletedWorkflows(): List<Workflow>
        +initialize(Engine, Properties): void
        +requiresApproval(String): boolean
        +getApprover(String): Principal
        #getEngine(): Engine
        +getDecisionQueue(): DecisionQueue
        +getOwnerWorkflows(Session): List<Workflow>
        +actionPerformed(WikiEvent): void
        #add(Workflow): void
        #remove(Workflow): void
        #removeFromDecisionQueue(Decision, Context): void
        #addToDecisionQueue(Decision): void
    }

    interface "<size:14>WorkflowManager\n<size:10>org.apache.wiki.workflow" as org.apache.wiki.workflow.WorkflowManager [[WorkflowManager.html]] {
        {abstract} +getWorkflows(): Set<Workflow>
        {abstract} +getCompletedWorkflows(): List<Workflow>
        {abstract} +requiresApproval(String): boolean
        {abstract} +getApprover(String): Principal
        {abstract} +getDecisionQueue(): DecisionQueue
        {abstract} +getOwnerWorkflows(Session): List<Workflow>
    }

    org.apache.wiki.workflow.WorkflowManager <|.. org.apache.wiki.workflow.DefaultWorkflowManager

    center footer UMLDoclet 2.0.12, PlantUML 1.2020.16
@enduml

PlantUML version 1.2020.16(Sun Aug 23 22:20:43 CEST 2020)
(APACHE source distribution)
Java Runtime: OpenJDK Runtime Environment
JVM: OpenJDK 64-Bit Server VM
Default Encoding: Cp1252
Language: es
Country: ES
--></g></svg>