<?xml version="1.0" encoding="UTF-8" standalone="no"?><svg xmlns="http://www.w3.org/2000/svg" xmlns:xlink="http://www.w3.org/1999/xlink" contentScriptType="application/ecmascript" contentStyleType="text/css" height="297px" preserveAspectRatio="none" style="width:255px;height:297px;" version="1.1" viewBox="0 0 255 297" width="255px" zoomAndPan="magnify"><defs><filter height="300%" id="fw2ixx3ckhfjp" width="300%" x="-1" y="-1"><feGaussianBlur result="blurOut" stdDeviation="2.0"/><feColorMatrix in="blurOut" result="blurOut2" type="matrix" values="0 0 0 0 0 0 0 0 0 0 0 0 0 0 0 0 0 0 .4 0"/><feOffset dx="4.0" dy="4.0" in="blurOut2" result="blurOut3"/><feBlend in="SourceGraphic" in2="blurOut3" mode="normal"/></filter></defs><g><!--MD5=[ddd9fe3ac7221505577f2a4ed232731a]
class org.apache.wiki.workflow.Task--><a href="Task.html" target="_top" title="Task.html" xlink:actuate="onRequest" xlink:href="Task.html" xlink:show="new" xlink:title="Task.html" xlink:type="simple"><rect codeLine="5" fill="#FEFECE" filter="url(#fw2ixx3ckhfjp)" height="117.3672" id="org.apache.wiki.workflow.Task" style="stroke: #A80036; stroke-width: 1.5;" width="229" x="7" y="143"/><ellipse cx="57.25" cy="163.0938" fill="#A9DCDF" rx="11" ry="11" style="stroke: #A80036; stroke-width: 1.0;"/><path d="M59.4375,164.8594 L55.2969,164.8594 L54.875,165.8906 L55.2969,165.8906 Q55.9063,165.8906 56.1719,166.125 Q56.4375,166.3594 56.4375,166.75 Q56.4375,167.125 56.1719,167.3594 Q55.9063,167.5938 55.2969,167.5938 L53,167.5938 Q52.3906,167.5938 52.1406,167.3594 Q51.875,167.125 51.875,166.7344 Q51.875,166.3594 52.1563,166.125 Q52.4219,165.875 53.0469,165.8906 L55.7188,159.2344 L54.6094,159.2344 Q54,159.2344 53.7344,159 Q53.4688,158.7656 53.4688,158.375 Q53.4688,158 53.7344,157.7656 Q54,157.5313 54.6094,157.5313 L58.2813,157.5313 L61.6719,165.8906 Q62.2656,165.8906 62.4531,166.0313 Q62.8438,166.2969 62.8438,166.75 Q62.8438,167.125 62.5781,167.3594 Q62.3281,167.5938 61.7188,167.5938 L59.4219,167.5938 Q58.8125,167.5938 58.5469,167.3594 Q58.2813,167.125 58.2813,166.7344 Q58.2813,166.3594 58.5469,166.125 Q58.8125,165.8906 59.4219,165.8906 L59.8438,165.8906 L59.4375,164.8594 Z M58.7188,163.1563 L57.3594,159.7813 L55.9844,163.1563 L58.7188,163.1563 Z "/><text fill="#000000" font-family="sans-serif" font-size="14" font-style="italic" lengthAdjust="spacingAndGlyphs" textLength="32" x="121.75" y="162.5332">Task</text><text fill="#000000" font-family="sans-serif" font-size="10" font-style="italic" lengthAdjust="spacingAndGlyphs" textLength="120" x="77.75" y="175.9902">org.apache.wiki.workflow</text><line style="stroke: #A80036; stroke-width: 1.5;" x1="8" x2="235" y1="183.1875" y2="183.1875"/><ellipse cx="18" cy="194.1875" fill="#84BE84" rx="3" ry="3" style="stroke: #038048; stroke-width: 1.0;"/><text fill="#000000" font-family="sans-serif" font-size="11" lengthAdjust="spacingAndGlyphs" textLength="59" x="27" y="198.6064">Task(String)</text><ellipse cx="18" cy="208.0234" fill="#84BE84" rx="3" ry="3" style="stroke: #038048; stroke-width: 1.0;"/><text fill="#000000" font-family="sans-serif" font-size="11" lengthAdjust="spacingAndGlyphs" textLength="203" x="27" y="212.4424">Task(int, Map&lt;String, Serializable&gt;, String)</text><ellipse cx="18" cy="221.8594" fill="#84BE84" rx="3" ry="3" style="stroke: #038048; stroke-width: 1.0;"/><text fill="#000000" font-family="sans-serif" font-size="11" lengthAdjust="spacingAndGlyphs" textLength="96" x="27" y="226.2783">getActor(): Principal</text><ellipse cx="18" cy="235.6953" fill="#84BE84" rx="3" ry="3" style="stroke: #038048; stroke-width: 1.0;"/><text fill="#000000" font-family="sans-serif" font-size="11" lengthAdjust="spacingAndGlyphs" textLength="124" x="27" y="240.1143">setSuccessor(Step): void</text><ellipse cx="18" cy="249.5313" fill="#84BE84" rx="3" ry="3" style="stroke: #038048; stroke-width: 1.0;"/><text fill="#000000" font-family="sans-serif" font-size="11" lengthAdjust="spacingAndGlyphs" textLength="104" x="27" y="253.9502">getSuccessor(): Step</text></a><!--MD5=[e94edfeeb93c8385ecf221029d90b5e6]
class org.apache.wiki.workflow.AbstractStep--><a href="AbstractStep.html" target="_top" title="AbstractStep.html" xlink:actuate="onRequest" xlink:href="AbstractStep.html" xlink:show="new" xlink:title="AbstractStep.html" xlink:type="simple"><rect codeLine="13" fill="#FEFECE" filter="url(#fw2ixx3ckhfjp)" height="75.8594" id="org.apache.wiki.workflow.AbstractStep" style="stroke: #A80036; stroke-width: 1.5;" width="162" x="40.5" y="7"/><ellipse cx="60" cy="27.0938" fill="#A9DCDF" rx="11" ry="11" style="stroke: #A80036; stroke-width: 1.0;"/><path d="M62.1875,28.8594 L58.0469,28.8594 L57.625,29.8906 L58.0469,29.8906 Q58.6563,29.8906 58.9219,30.125 Q59.1875,30.3594 59.1875,30.75 Q59.1875,31.125 58.9219,31.3594 Q58.6563,31.5938 58.0469,31.5938 L55.75,31.5938 Q55.1406,31.5938 54.8906,31.3594 Q54.625,31.125 54.625,30.7344 Q54.625,30.3594 54.9063,30.125 Q55.1719,29.875 55.7969,29.8906 L58.4688,23.2344 L57.3594,23.2344 Q56.75,23.2344 56.4844,23 Q56.2188,22.7656 56.2188,22.375 Q56.2188,22 56.4844,21.7656 Q56.75,21.5313 57.3594,21.5313 L61.0313,21.5313 L64.4219,29.8906 Q65.0156,29.8906 65.2031,30.0313 Q65.5938,30.2969 65.5938,30.75 Q65.5938,31.125 65.3281,31.3594 Q65.0781,31.5938 64.4688,31.5938 L62.1719,31.5938 Q61.5625,31.5938 61.2969,31.3594 Q61.0313,31.125 61.0313,30.7344 Q61.0313,30.3594 61.2969,30.125 Q61.5625,29.8906 62.1719,29.8906 L62.5938,29.8906 L62.1875,28.8594 Z M61.4688,27.1563 L60.1094,23.7813 L58.7344,27.1563 L61.4688,27.1563 Z "/><text fill="#000000" font-family="sans-serif" font-size="14" font-style="italic" lengthAdjust="spacingAndGlyphs" textLength="81" x="94.5" y="26.5332">AbstractStep</text><text fill="#000000" font-family="sans-serif" font-size="10" font-style="italic" lengthAdjust="spacingAndGlyphs" textLength="120" x="75" y="39.9902">org.apache.wiki.workflow</text><line style="stroke: #A80036; stroke-width: 1.5;" x1="41.5" x2="201.5" y1="47.1875" y2="47.1875"/><ellipse cx="51.5" cy="58.1875" fill="#84BE84" rx="3" ry="3" style="stroke: #038048; stroke-width: 1.0;"/><text fill="#000000" font-family="sans-serif" font-size="11" font-style="italic" lengthAdjust="spacingAndGlyphs" textLength="136" x="60.5" y="62.6064">execute(Context): Outcome</text><ellipse cx="51.5" cy="72.0234" fill="#84BE84" rx="3" ry="3" style="stroke: #038048; stroke-width: 1.0;"/><text fill="#000000" font-family="sans-serif" font-size="11" font-style="italic" lengthAdjust="spacingAndGlyphs" textLength="99" x="60.5" y="76.4424">getActor(): Principal</text></a><!--MD5=[bc17bc488805e0d437dba178ced0c194]
reverse link org.apache.wiki.workflow.AbstractStep to org.apache.wiki.workflow.Task--><path codeLine="18" d="M121.5,103.3534 C121.5,116.2624 121.5,129.9451 121.5,142.8652 " fill="none" id="org.apache.wiki.workflow.AbstractStep-backto-org.apache.wiki.workflow.Task" style="stroke: #A80036; stroke-width: 1.0;"/><polygon fill="none" points="114.5001,103.2842,121.5,83.2842,128.5001,103.2842,114.5001,103.2842" style="stroke: #A80036; stroke-width: 1.0;"/><text fill="#888888" font-family="sans-serif" font-size="10" lengthAdjust="spacingAndGlyphs" textLength="190" x="23.5" y="283.748">UMLDoclet 2.0.12, PlantUML 1.2020.16</text><!--MD5=[6bd3f7219fae2aed401f902032e1ac26]
@startuml
    set namespaceSeparator none
    hide empty fields
    hide empty methods

    abstract class "<size:14>Task\n<size:10>org.apache.wiki.workflow" as org.apache.wiki.workflow.Task [[Task.html]] {
        +Task(String)
        +Task(int, Map<String, Serializable>, String)
        +getActor(): Principal
        +setSuccessor(Step): void
        +getSuccessor(): Step
    }

    abstract class "<size:14>AbstractStep\n<size:10>org.apache.wiki.workflow" as org.apache.wiki.workflow.AbstractStep [[AbstractStep.html]] {
        {abstract} +execute(Context): Outcome
        {abstract} +getActor(): Principal
    }

    org.apache.wiki.workflow.AbstractStep <|- - org.apache.wiki.workflow.Task

    center footer UMLDoclet 2.0.12, PlantUML 1.2020.16
@enduml

PlantUML version 1.2020.16(Sun Aug 23 22:20:43 CEST 2020)
(APACHE source distribution)
Java Runtime: OpenJDK Runtime Environment
JVM: OpenJDK 64-Bit Server VM
Default Encoding: Cp1252
Language: es
Country: ES
--></g></svg>