<?xml version="1.0" encoding="UTF-8" standalone="no"?><svg xmlns="http://www.w3.org/2000/svg" xmlns:xlink="http://www.w3.org/1999/xlink" contentScriptType="application/ecmascript" contentStyleType="text/css" height="187px" preserveAspectRatio="none" style="width:193px;height:187px;background:#FFFFFF;" version="1.1" viewBox="0 0 193 187" width="193px" zoomAndPan="magnify"><defs><filter height="300%" id="f16lyw1y8ln8je" width="300%" x="-1" y="-1"><feGaussianBlur result="blurOut" stdDeviation="2.0"/><feColorMatrix in="blurOut" result="blurOut2" type="matrix" values="0 0 0 0 0 0 0 0 0 0 0 0 0 0 0 0 0 0 .4 0"/><feOffset dx="4.0" dy="4.0" in="blurOut2" result="blurOut3"/><feBlend in="SourceGraphic" in2="blurOut3" mode="normal"/></filter></defs><g><!--MD5=[717d0245ec1d05666859d5a70d7afa80]
class org.apache.wiki.search.QueryItem--><a href="QueryItem.html" target="_top" title="QueryItem.html" xlink:actuate="onRequest" xlink:href="QueryItem.html" xlink:show="new" xlink:title="QueryItem.html" xlink:type="simple"><rect codeLine="5" fill="#FEFECE" filter="url(#f16lyw1y8ln8je)" height="51.9063" id="org.apache.wiki.search.QueryItem" style="stroke:#A80036;stroke-width:1.5;" width="141" x="25.5" y="105"/><ellipse cx="40.5" cy="130.9531" fill="#ADD1B2" rx="11" ry="11" style="stroke:#A80036;stroke-width:1.0;"/><path d="M43.4688,136.5938 Q42.8906,136.8906 42.25,137.0313 Q41.6094,137.1875 40.9063,137.1875 Q38.4063,137.1875 37.0781,135.5469 Q35.7656,133.8906 35.7656,130.7656 Q35.7656,127.6406 37.0781,125.9844 Q38.4063,124.3281 40.9063,124.3281 Q41.6094,124.3281 42.25,124.4844 Q42.9063,124.6406 43.4688,124.9375 L43.4688,127.6563 Q42.8438,127.0781 42.25,126.8125 Q41.6563,126.5313 41.0313,126.5313 Q39.6875,126.5313 39,127.6094 Q38.3125,128.6719 38.3125,130.7656 Q38.3125,132.8594 39,133.9375 Q39.6875,135 41.0313,135 Q41.6563,135 42.25,134.7344 Q42.8438,134.4531 43.4688,133.875 L43.4688,136.5938 Z " fill="#000000"/><text fill="#000000" font-family="sans-serif" font-size="12" font-style="italic" lengthAdjust="spacing" textLength="87" x="65.5" y="121.1387">«deprecated»</text><text fill="#000000" font-family="sans-serif" font-size="14" lengthAdjust="spacing" textLength="71" x="73.5" y="136.9639">QueryItem</text><text fill="#000000" font-family="sans-serif" font-size="10" lengthAdjust="spacing" textLength="109" x="54.5" y="149.5479">org.apache.wiki.search</text></a><!--MD5=[4898dc02c93ff0c7bc5f9c18a16b63d2]
class org.apache.wiki.api.search.QueryItem--><a href="../api/search/QueryItem.html" target="_top" title="../api/search/QueryItem.html" xlink:actuate="onRequest" xlink:href="../api/search/QueryItem.html" xlink:show="new" xlink:title="../api/search/QueryItem.html" xlink:type="simple"><rect codeLine="7" fill="#FEFECE" filter="url(#f16lyw1y8ln8je)" height="37.9375" id="org.apache.wiki.api.search.QueryItem" style="stroke:#A80036;stroke-width:1.5;" width="158" x="17" y="7"/><ellipse cx="32" cy="25.9688" fill="#ADD1B2" rx="11" ry="11" style="stroke:#A80036;stroke-width:1.0;"/><path d="M34.9688,31.6094 Q34.3906,31.9063 33.75,32.0469 Q33.1094,32.2031 32.4063,32.2031 Q29.9063,32.2031 28.5781,30.5625 Q27.2656,28.9063 27.2656,25.7813 Q27.2656,22.6563 28.5781,21 Q29.9063,19.3438 32.4063,19.3438 Q33.1094,19.3438 33.75,19.5 Q34.4063,19.6563 34.9688,19.9531 L34.9688,22.6719 Q34.3438,22.0938 33.75,21.8281 Q33.1563,21.5469 32.5313,21.5469 Q31.1875,21.5469 30.5,22.625 Q29.8125,23.6875 29.8125,25.7813 Q29.8125,27.875 30.5,28.9531 Q31.1875,30.0156 32.5313,30.0156 Q33.1563,30.0156 33.75,29.75 Q34.3438,29.4688 34.9688,28.8906 L34.9688,31.6094 Z " fill="#000000"/><text fill="#000000" font-family="sans-serif" font-size="14" lengthAdjust="spacing" textLength="71" x="73.5" y="24.9951">QueryItem</text><text fill="#000000" font-family="sans-serif" font-size="10" lengthAdjust="spacing" textLength="126" x="46" y="37.5791">org.apache.wiki.api.search</text></a><!--MD5=[f04925a7b040ed9edd027688f4f472e2]
reverse link org.apache.wiki.api.search.QueryItem to org.apache.wiki.search.QueryItem--><path codeLine="9" d="M96,65.586 C96,78.6765 96,92.909 96,104.7453 " fill="none" id="org.apache.wiki.api.search.QueryItem-backto-org.apache.wiki.search.QueryItem" style="stroke:#A80036;stroke-width:1.0;"/><polygon fill="none" points="89.0001,65.2587,96,45.2586,103.0001,65.2586,89.0001,65.2587" style="stroke:#A80036;stroke-width:1.0;"/><text fill="#888888" font-family="sans-serif" font-size="10" lengthAdjust="spacing" textLength="186" x="0" y="179.1885">UMLDoclet 2.0.14, PlantUML 1.2021.9</text><!--MD5=[41c87455d6c6da2581f3dc9a692e8612]
@startuml
    set namespaceSeparator none
    hide empty fields
    hide empty methods

    class "<size:14>QueryItem\n<size:10>org.apache.wiki.search" as org.apache.wiki.search.QueryItem <<deprecated>> [[QueryItem.html]]

    class "<size:14>QueryItem\n<size:10>org.apache.wiki.api.search" as org.apache.wiki.api.search.QueryItem [[../api/search/QueryItem.html]]

    org.apache.wiki.api.search.QueryItem <|- - org.apache.wiki.search.QueryItem

    center footer UMLDoclet 2.0.14, PlantUML 1.2021.9
@enduml

PlantUML version 1.2021.9(Sun Jul 25 10:13:56 UTC 2021)
(APACHE source distribution)
Java Runtime: Java(TM) SE Runtime Environment
JVM: Java HotSpot(TM) 64-Bit Server VM
Default Encoding: ISO-8859-1
Language: en
Country: US
--></g></svg>