<?xml version="1.0" encoding="UTF-8" standalone="no"?><svg xmlns="http://www.w3.org/2000/svg" xmlns:xlink="http://www.w3.org/1999/xlink" contentScriptType="application/ecmascript" contentStyleType="text/css" height="847px" preserveAspectRatio="none" style="width:755px;height:847px;" version="1.1" viewBox="0 0 755 847" width="755px" zoomAndPan="magnify"><defs><filter height="300%" id="f1tnwclr3a35le" width="300%" x="-1" y="-1"><feGaussianBlur result="blurOut" stdDeviation="2.0"/><feColorMatrix in="blurOut" result="blurOut2" type="matrix" values="0 0 0 0 0 0 0 0 0 0 0 0 0 0 0 0 0 0 .4 0"/><feOffset dx="4.0" dy="4.0" in="blurOut2" result="blurOut3"/><feBlend in="SourceGraphic" in2="blurOut3" mode="normal"/></filter></defs><g><!--cluster org.apache.wiki.xmlrpc--><polygon fill="#FFFFFF" filter="url(#f1tnwclr3a35le)" points="14,124,203,124,210,146.2969,733,146.2969,733,807,14,807,14,124" style="stroke: #000000; stroke-width: 1.5;"/><line style="stroke: #000000; stroke-width: 1.5;" x1="14" x2="210" y1="146.2969" y2="146.2969"/><text fill="#000000" font-family="sans-serif" font-size="14" font-weight="bold" lengthAdjust="spacingAndGlyphs" textLength="183" x="18" y="138.9951">org.apache.wiki.xmlrpc</text><!--cluster javax.servlet.http--><polygon fill="#FFFFFF" filter="url(#f1tnwclr3a35le)" points="464,16,607,16,614,38.2969,617,38.2969,617,99,464,99,464,16" style="stroke: #000000; stroke-width: 1.5;"/><line style="stroke: #000000; stroke-width: 1.5;" x1="464" x2="614" y1="38.2969" y2="38.2969"/><text fill="#000000" font-family="sans-serif" font-size="14" font-weight="bold" lengthAdjust="spacingAndGlyphs" textLength="137" x="468" y="30.9951">javax.servlet.http</text><!--class org.apache.wiki.xmlrpc.AbstractRPCHandler--><a href="AbstractRPCHandler.html" target="_top" xlink:actuate="onRequest" xlink:show="new" xlink:title="AbstractRPCHandler.html" xlink:type="simple"><rect fill="#FEFECE" filter="url(#f1tnwclr3a35le)" height="214.4609" id="org.apache.wiki.xmlrpc.AbstractRPCHandler" style="stroke: #A80036; stroke-width: 1.5;" width="241" x="71.5" y="323"/><ellipse cx="125.75" cy="339" fill="#A9DCDF" rx="11" ry="11" style="stroke: #A80036; stroke-width: 1.0;"/><path d="M125.8594,334.3438 L124.7031,339.4219 L127.0313,339.4219 L125.8594,334.3438 Z M124.375,332.1094 L127.3594,332.1094 L130.7188,344.5 L128.2656,344.5 L127.5,341.4375 L124.2188,341.4375 L123.4688,344.5 L121.0313,344.5 L124.375,332.1094 Z "/><text fill="#000000" font-family="sans-serif" font-size="12" font-style="italic" lengthAdjust="spacingAndGlyphs" textLength="124" x="146.25" y="343.1543">AbstractRPCHandler</text><line style="stroke: #A80036; stroke-width: 1.5;" x1="72.5" x2="311.5" y1="355" y2="355"/><ellipse cx="82.5" cy="366.9023" fill="none" rx="3" ry="3" style="stroke: #038048; stroke-width: 1.0;"/><text fill="#000000" font-family="sans-serif" font-size="11" lengthAdjust="spacingAndGlyphs" text-decoration="underline" textLength="96" x="91.5" y="369.2104">ERR_NOPAGE: int</text><ellipse cx="82.5" cy="379.707" fill="none" rx="3" ry="3" style="stroke: #038048; stroke-width: 1.0;"/><text fill="#000000" font-family="sans-serif" font-size="11" lengthAdjust="spacingAndGlyphs" text-decoration="underline" textLength="135" x="91.5" y="382.0151">ERR_NOPERMISSION: int</text><ellipse cx="82.5" cy="392.5117" fill="none" rx="3" ry="3" style="stroke: #038048; stroke-width: 1.0;"/><text fill="#000000" font-family="sans-serif" font-size="11" lengthAdjust="spacingAndGlyphs" text-decoration="underline" textLength="108" x="91.5" y="394.8198">LINK_LOCAL: String</text><ellipse cx="82.5" cy="405.3164" fill="none" rx="3" ry="3" style="stroke: #038048; stroke-width: 1.0;"/><text fill="#000000" font-family="sans-serif" font-size="11" lengthAdjust="spacingAndGlyphs" text-decoration="underline" textLength="128" x="91.5" y="407.6245">LINK_EXTERNAL: String</text><ellipse cx="82.5" cy="418.1211" fill="none" rx="3" ry="3" style="stroke: #038048; stroke-width: 1.0;"/><text fill="#000000" font-family="sans-serif" font-size="11" lengthAdjust="spacingAndGlyphs" text-decoration="underline" textLength="107" x="91.5" y="420.4292">LINK_INLINE: String</text><ellipse cx="82.5" cy="430.9258" fill="none" rx="3" ry="3" style="stroke: #038048; stroke-width: 1.0;"/><text fill="#000000" font-family="sans-serif" font-size="11" lengthAdjust="spacingAndGlyphs" text-decoration="underline" textLength="99" x="91.5" y="433.2339">RPC_VERSION: int</text><polygon fill="none" points="82.5,438.7305,86.5,442.7305,82.5,446.7305,78.5,442.7305" style="stroke: #B38D22; stroke-width: 1.0;"/><text fill="#000000" font-family="sans-serif" font-size="11" lengthAdjust="spacingAndGlyphs" textLength="122" x="91.5" y="446.0386">m_engine: WikiEngine</text><polygon fill="none" points="82.5,451.5352,86.5,455.5352,82.5,459.5352,78.5,455.5352" style="stroke: #B38D22; stroke-width: 1.0;"/><text fill="#000000" font-family="sans-serif" font-size="11" lengthAdjust="spacingAndGlyphs" textLength="130" x="91.5" y="458.8433">m_context: WikiContext</text><line style="stroke: #A80036; stroke-width: 1.5;" x1="72.5" x2="311.5" y1="465.4375" y2="465.4375"/><ellipse cx="82.5" cy="477.3398" fill="#84BE84" rx="3" ry="3" style="stroke: #038048; stroke-width: 1.0;"/><text fill="#000000" font-family="sans-serif" font-size="11" lengthAdjust="spacingAndGlyphs" textLength="148" x="91.5" y="479.6479">initialize(WikiContext): void</text><ellipse cx="82.5" cy="490.1445" fill="#84BE84" rx="3" ry="3" style="stroke: #038048; stroke-width: 1.0;"/><text fill="#000000" font-family="sans-serif" font-size="11" lengthAdjust="spacingAndGlyphs" textLength="184" x="91.5" y="492.4526">getRecentChanges(Date): Vector</text><polygon fill="#FFFF44" points="82.5,497.9492,86.5,501.9492,82.5,505.9492,78.5,501.9492" style="stroke: #B38D22; stroke-width: 1.0;"/><text fill="#000000" font-family="sans-serif" font-size="11" lengthAdjust="spacingAndGlyphs" textLength="199" x="91.5" y="505.2573">checkPermission(Permission): void</text><ellipse cx="82.5" cy="515.7539" fill="#84BE84" rx="3" ry="3" style="stroke: #038048; stroke-width: 1.0;"/><text fill="#000000" font-family="sans-serif" font-size="11" lengthAdjust="spacingAndGlyphs" textLength="172" x="91.5" y="518.062">getRPCVersionSupported(): int</text><polygon fill="#FFFF44" points="82.5,523.5586,86.5,527.5586,82.5,531.5586,78.5,527.5586" style="stroke: #B38D22; stroke-width: 1.0;"/><text fill="#000000" font-family="sans-serif" font-size="11" font-style="italic" lengthAdjust="spacingAndGlyphs" textLength="215" x="91.5" y="530.8667">encodeWikiPage(WikiPage): Hashtable</text></a><!--class org.apache.wiki.xmlrpc.RPCServlet--><a href="RPCServlet.html" target="_top" xlink:actuate="onRequest" xlink:show="new" xlink:title="RPCServlet.html" xlink:type="simple"><rect fill="#FEFECE" filter="url(#f1tnwclr3a35le)" height="112.0234" id="org.apache.wiki.xmlrpc.RPCServlet" style="stroke: #A80036; stroke-width: 1.5;" width="340" x="370" y="151"/><ellipse cx="502.25" cy="167" fill="#ADD1B2" rx="11" ry="11" style="stroke: #A80036; stroke-width: 1.0;"/><path d="M505.2188,172.6406 Q504.6406,172.9375 504,173.0859 Q503.3594,173.2344 502.6563,173.2344 Q500.1563,173.2344 498.8359,171.5859 Q497.5156,169.9375 497.5156,166.8125 Q497.5156,163.6875 498.8359,162.0313 Q500.1563,160.375 502.6563,160.375 Q503.3594,160.375 504.0078,160.5313 Q504.6563,160.6875 505.2188,160.9844 L505.2188,163.7031 Q504.5938,163.125 504,162.8516 Q503.4063,162.5781 502.7813,162.5781 Q501.4375,162.5781 500.75,163.6484 Q500.0625,164.7188 500.0625,166.8125 Q500.0625,168.9063 500.75,169.9766 Q501.4375,171.0469 502.7813,171.0469 Q503.4063,171.0469 504,170.7734 Q504.5938,170.5 505.2188,169.9219 L505.2188,172.6406 Z "/><text fill="#000000" font-family="sans-serif" font-size="12" lengthAdjust="spacingAndGlyphs" textLength="67" x="522.75" y="171.1543">RPCServlet</text><line style="stroke: #A80036; stroke-width: 1.5;" x1="371" x2="709" y1="183" y2="183"/><ellipse cx="381" cy="194.9023" fill="none" rx="3" ry="3" style="stroke: #038048; stroke-width: 1.0;"/><text fill="#000000" font-family="sans-serif" font-size="11" lengthAdjust="spacingAndGlyphs" text-decoration="underline" textLength="129" x="390" y="197.2104">XMLRPC_PREFIX: String</text><line style="stroke: #A80036; stroke-width: 1.5;" x1="371" x2="709" y1="203.8047" y2="203.8047"/><ellipse cx="381" cy="215.707" fill="#84BE84" rx="3" ry="3" style="stroke: #038048; stroke-width: 1.0;"/><text fill="#000000" font-family="sans-serif" font-size="11" lengthAdjust="spacingAndGlyphs" textLength="176" x="390" y="218.0151">initHandler(String, String): void</text><ellipse cx="381" cy="228.5117" fill="#84BE84" rx="3" ry="3" style="stroke: #038048; stroke-width: 1.0;"/><text fill="#000000" font-family="sans-serif" font-size="11" lengthAdjust="spacingAndGlyphs" textLength="132" x="390" y="230.8198">init(ServletConfig): void</text><ellipse cx="381" cy="241.3164" fill="#84BE84" rx="3" ry="3" style="stroke: #038048; stroke-width: 1.0;"/><text fill="#000000" font-family="sans-serif" font-size="11" lengthAdjust="spacingAndGlyphs" textLength="314" x="390" y="243.6245">doPost(HttpServletRequest, HttpServletResponse): void</text><ellipse cx="381" cy="254.1211" fill="#84BE84" rx="3" ry="3" style="stroke: #038048; stroke-width: 1.0;"/><text fill="#000000" font-family="sans-serif" font-size="11" lengthAdjust="spacingAndGlyphs" textLength="309" x="390" y="256.4292">doGet(HttpServletRequest, HttpServletResponse): void</text></a><!--class org.apache.wiki.xmlrpc.RPCHandler--><a href="RPCHandler.html" target="_top" xlink:actuate="onRequest" xlink:show="new" xlink:title="RPCHandler.html" xlink:type="simple"><rect fill="#FEFECE" filter="url(#f1tnwclr3a35le)" height="201.6563" id="org.apache.wiki.xmlrpc.RPCHandler" style="stroke: #A80036; stroke-width: 1.5;" width="334" x="22" y="597"/><ellipse cx="148.25" cy="613" fill="#ADD1B2" rx="11" ry="11" style="stroke: #A80036; stroke-width: 1.0;"/><path d="M151.2188,618.6406 Q150.6406,618.9375 150,619.0859 Q149.3594,619.2344 148.6563,619.2344 Q146.1563,619.2344 144.8359,617.5859 Q143.5156,615.9375 143.5156,612.8125 Q143.5156,609.6875 144.8359,608.0313 Q146.1563,606.375 148.6563,606.375 Q149.3594,606.375 150.0078,606.5313 Q150.6563,606.6875 151.2188,606.9844 L151.2188,609.7031 Q150.5938,609.125 150,608.8516 Q149.4063,608.5781 148.7813,608.5781 Q147.4375,608.5781 146.75,609.6484 Q146.0625,610.7188 146.0625,612.8125 Q146.0625,614.9063 146.75,615.9766 Q147.4375,617.0469 148.7813,617.0469 Q149.4063,617.0469 150,616.7734 Q150.5938,616.5 151.2188,615.9219 L151.2188,618.6406 Z "/><text fill="#000000" font-family="sans-serif" font-size="12" lengthAdjust="spacingAndGlyphs" textLength="73" x="168.75" y="617.1543">RPCHandler</text><line style="stroke: #A80036; stroke-width: 1.5;" x1="23" x2="355" y1="629" y2="629"/><line style="stroke: #A80036; stroke-width: 1.5;" x1="23" x2="355" y1="637" y2="637"/><ellipse cx="33" cy="648.9023" fill="#84BE84" rx="3" ry="3" style="stroke: #038048; stroke-width: 1.0;"/><text fill="#000000" font-family="sans-serif" font-size="11" lengthAdjust="spacingAndGlyphs" textLength="148" x="42" y="651.2104">initialize(WikiContext): void</text><ellipse cx="33" cy="661.707" fill="#84BE84" rx="3" ry="3" style="stroke: #038048; stroke-width: 1.0;"/><text fill="#000000" font-family="sans-serif" font-size="11" lengthAdjust="spacingAndGlyphs" textLength="162" x="42" y="664.0151">getApplicationName(): String</text><ellipse cx="33" cy="674.5117" fill="#84BE84" rx="3" ry="3" style="stroke: #038048; stroke-width: 1.0;"/><text fill="#000000" font-family="sans-serif" font-size="11" lengthAdjust="spacingAndGlyphs" textLength="118" x="42" y="676.8198">getAllPages(): Vector</text><polygon fill="#FFFF44" points="33,682.3164,37,686.3164,33,690.3164,29,686.3164" style="stroke: #B38D22; stroke-width: 1.0;"/><text fill="#000000" font-family="sans-serif" font-size="11" lengthAdjust="spacingAndGlyphs" textLength="308" x="42" y="689.6245">encodeWikiPage(WikiPage): Hashtable&lt;String, Object&gt;</text><ellipse cx="33" cy="700.1211" fill="#84BE84" rx="3" ry="3" style="stroke: #038048; stroke-width: 1.0;"/><text fill="#000000" font-family="sans-serif" font-size="11" lengthAdjust="spacingAndGlyphs" textLength="184" x="42" y="702.4292">getRecentChanges(Date): Vector</text><ellipse cx="33" cy="712.9258" fill="#84BE84" rx="3" ry="3" style="stroke: #038048; stroke-width: 1.0;"/><text fill="#000000" font-family="sans-serif" font-size="11" lengthAdjust="spacingAndGlyphs" textLength="174" x="42" y="715.2339">getPageInfo(String): Hashtable</text><ellipse cx="33" cy="725.7305" fill="#84BE84" rx="3" ry="3" style="stroke: #038048; stroke-width: 1.0;"/><text fill="#000000" font-family="sans-serif" font-size="11" lengthAdjust="spacingAndGlyphs" textLength="239" x="42" y="728.0386">getPageInfoVersion(String, int): Hashtable</text><ellipse cx="33" cy="738.5352" fill="#84BE84" rx="3" ry="3" style="stroke: #038048; stroke-width: 1.0;"/><text fill="#000000" font-family="sans-serif" font-size="11" lengthAdjust="spacingAndGlyphs" textLength="128" x="42" y="740.8433">getPage(String): byte[]</text><ellipse cx="33" cy="751.3398" fill="#84BE84" rx="3" ry="3" style="stroke: #038048; stroke-width: 1.0;"/><text fill="#000000" font-family="sans-serif" font-size="11" lengthAdjust="spacingAndGlyphs" textLength="193" x="42" y="753.6479">getPageVersion(String, int): byte[]</text><ellipse cx="33" cy="764.1445" fill="#84BE84" rx="3" ry="3" style="stroke: #038048; stroke-width: 1.0;"/><text fill="#000000" font-family="sans-serif" font-size="11" lengthAdjust="spacingAndGlyphs" textLength="158" x="42" y="766.4526">getPageHTML(String): byte[]</text><ellipse cx="33" cy="776.9492" fill="#84BE84" rx="3" ry="3" style="stroke: #038048; stroke-width: 1.0;"/><text fill="#000000" font-family="sans-serif" font-size="11" lengthAdjust="spacingAndGlyphs" textLength="223" x="42" y="779.2573">getPageHTMLVersion(String, int): byte[]</text><ellipse cx="33" cy="789.7539" fill="#84BE84" rx="3" ry="3" style="stroke: #038048; stroke-width: 1.0;"/><text fill="#000000" font-family="sans-serif" font-size="11" lengthAdjust="spacingAndGlyphs" textLength="132" x="42" y="792.062">listLinks(String): Vector</text></a><!--class org.apache.wiki.xmlrpc.WikiRPCHandler--><a href="WikiRPCHandler.html" target="_top" xlink:actuate="onRequest" xlink:show="new" xlink:title="WikiRPCHandler.html" xlink:type="simple"><rect fill="#FEFECE" filter="url(#f1tnwclr3a35le)" height="60.8047" id="org.apache.wiki.xmlrpc.WikiRPCHandler" style="stroke: #A80036; stroke-width: 1.5;" width="179" x="120.5" y="176.5"/><ellipse cx="158" cy="192.5" fill="#B4A7E5" rx="11" ry="11" style="stroke: #A80036; stroke-width: 1.0;"/><path d="M153.9219,188.2656 L153.9219,186.1094 L161.3125,186.1094 L161.3125,188.2656 L158.8438,188.2656 L158.8438,196.3438 L161.3125,196.3438 L161.3125,198.5 L153.9219,198.5 L153.9219,196.3438 L156.3906,196.3438 L156.3906,188.2656 L153.9219,188.2656 Z "/><text fill="#000000" font-family="sans-serif" font-size="12" font-style="italic" lengthAdjust="spacingAndGlyphs" textLength="97" x="177" y="196.6543">WikiRPCHandler</text><line style="stroke: #A80036; stroke-width: 1.5;" x1="121.5" x2="298.5" y1="208.5" y2="208.5"/><line style="stroke: #A80036; stroke-width: 1.5;" x1="121.5" x2="298.5" y1="216.5" y2="216.5"/><ellipse cx="131.5" cy="228.4023" fill="#84BE84" rx="3" ry="3" style="stroke: #038048; stroke-width: 1.0;"/><text fill="#000000" font-family="sans-serif" font-size="11" font-style="italic" lengthAdjust="spacingAndGlyphs" textLength="153" x="140.5" y="230.7104">initialize(WikiContext): void</text></a><!--class org.apache.wiki.xmlrpc.RPCHandlerUTF8--><a href="RPCHandlerUTF8.html" target="_top" xlink:actuate="onRequest" xlink:show="new" xlink:title="RPCHandlerUTF8.html" xlink:type="simple"><rect fill="#FEFECE" filter="url(#f1tnwclr3a35le)" height="188.8516" id="org.apache.wiki.xmlrpc.RPCHandlerUTF8" style="stroke: #A80036; stroke-width: 1.5;" width="334" x="391" y="603.5"/><ellipse cx="501.75" cy="619.5" fill="#ADD1B2" rx="11" ry="11" style="stroke: #A80036; stroke-width: 1.0;"/><path d="M504.7188,625.1406 Q504.1406,625.4375 503.5,625.5859 Q502.8594,625.7344 502.1563,625.7344 Q499.6563,625.7344 498.3359,624.0859 Q497.0156,622.4375 497.0156,619.3125 Q497.0156,616.1875 498.3359,614.5313 Q499.6563,612.875 502.1563,612.875 Q502.8594,612.875 503.5078,613.0313 Q504.1563,613.1875 504.7188,613.4844 L504.7188,616.2031 Q504.0938,615.625 503.5,615.3516 Q502.9063,615.0781 502.2813,615.0781 Q500.9375,615.0781 500.25,616.1484 Q499.5625,617.2188 499.5625,619.3125 Q499.5625,621.4063 500.25,622.4766 Q500.9375,623.5469 502.2813,623.5469 Q502.9063,623.5469 503.5,623.2734 Q504.0938,623 504.7188,622.4219 L504.7188,625.1406 Z "/><text fill="#000000" font-family="sans-serif" font-size="12" lengthAdjust="spacingAndGlyphs" textLength="104" x="522.25" y="623.6543">RPCHandlerUTF8</text><line style="stroke: #A80036; stroke-width: 1.5;" x1="392" x2="724" y1="635.5" y2="635.5"/><line style="stroke: #A80036; stroke-width: 1.5;" x1="392" x2="724" y1="643.5" y2="643.5"/><ellipse cx="402" cy="655.4023" fill="#84BE84" rx="3" ry="3" style="stroke: #038048; stroke-width: 1.0;"/><text fill="#000000" font-family="sans-serif" font-size="11" lengthAdjust="spacingAndGlyphs" textLength="162" x="411" y="657.7104">getApplicationName(): String</text><ellipse cx="402" cy="668.207" fill="#84BE84" rx="3" ry="3" style="stroke: #038048; stroke-width: 1.0;"/><text fill="#000000" font-family="sans-serif" font-size="11" lengthAdjust="spacingAndGlyphs" textLength="118" x="411" y="670.5151">getAllPages(): Vector</text><polygon fill="#FFFF44" points="402,676.0117,406,680.0117,402,684.0117,398,680.0117" style="stroke: #B38D22; stroke-width: 1.0;"/><text fill="#000000" font-family="sans-serif" font-size="11" lengthAdjust="spacingAndGlyphs" textLength="308" x="411" y="683.3198">encodeWikiPage(WikiPage): Hashtable&lt;String, Object&gt;</text><ellipse cx="402" cy="693.8164" fill="#84BE84" rx="3" ry="3" style="stroke: #038048; stroke-width: 1.0;"/><text fill="#000000" font-family="sans-serif" font-size="11" lengthAdjust="spacingAndGlyphs" textLength="184" x="411" y="696.1245">getRecentChanges(Date): Vector</text><ellipse cx="402" cy="706.6211" fill="#84BE84" rx="3" ry="3" style="stroke: #038048; stroke-width: 1.0;"/><text fill="#000000" font-family="sans-serif" font-size="11" lengthAdjust="spacingAndGlyphs" textLength="174" x="411" y="708.9292">getPageInfo(String): Hashtable</text><ellipse cx="402" cy="719.4258" fill="#84BE84" rx="3" ry="3" style="stroke: #038048; stroke-width: 1.0;"/><text fill="#000000" font-family="sans-serif" font-size="11" lengthAdjust="spacingAndGlyphs" textLength="239" x="411" y="721.7339">getPageInfoVersion(String, int): Hashtable</text><ellipse cx="402" cy="732.2305" fill="#84BE84" rx="3" ry="3" style="stroke: #038048; stroke-width: 1.0;"/><text fill="#000000" font-family="sans-serif" font-size="11" lengthAdjust="spacingAndGlyphs" textLength="130" x="411" y="734.5386">getPage(String): String</text><ellipse cx="402" cy="745.0352" fill="#84BE84" rx="3" ry="3" style="stroke: #038048; stroke-width: 1.0;"/><text fill="#000000" font-family="sans-serif" font-size="11" lengthAdjust="spacingAndGlyphs" textLength="195" x="411" y="747.3433">getPageVersion(String, int): String</text><ellipse cx="402" cy="757.8398" fill="#84BE84" rx="3" ry="3" style="stroke: #038048; stroke-width: 1.0;"/><text fill="#000000" font-family="sans-serif" font-size="11" lengthAdjust="spacingAndGlyphs" textLength="160" x="411" y="760.1479">getPageHTML(String): String</text><ellipse cx="402" cy="770.6445" fill="#84BE84" rx="3" ry="3" style="stroke: #038048; stroke-width: 1.0;"/><text fill="#000000" font-family="sans-serif" font-size="11" lengthAdjust="spacingAndGlyphs" textLength="225" x="411" y="772.9526">getPageHTMLVersion(String, int): String</text><ellipse cx="402" cy="783.4492" fill="#84BE84" rx="3" ry="3" style="stroke: #038048; stroke-width: 1.0;"/><text fill="#000000" font-family="sans-serif" font-size="11" lengthAdjust="spacingAndGlyphs" textLength="132" x="411" y="785.7573">listLinks(String): Vector</text></a><!--class org.apache.wiki.xmlrpc.MetaWeblogHandler--><a href="MetaWeblogHandler.html" target="_top" xlink:actuate="onRequest" xlink:show="new" xlink:title="MetaWeblogHandler.html" xlink:type="simple"><rect fill="#FEFECE" filter="url(#f1tnwclr3a35le)" height="112.0234" id="org.apache.wiki.xmlrpc.MetaWeblogHandler" style="stroke: #A80036; stroke-width: 1.5;" width="374" x="348" y="374"/><ellipse cx="467.75" cy="390" fill="#ADD1B2" rx="11" ry="11" style="stroke: #A80036; stroke-width: 1.0;"/><path d="M470.7188,395.6406 Q470.1406,395.9375 469.5,396.0859 Q468.8594,396.2344 468.1563,396.2344 Q465.6563,396.2344 464.3359,394.5859 Q463.0156,392.9375 463.0156,389.8125 Q463.0156,386.6875 464.3359,385.0313 Q465.6563,383.375 468.1563,383.375 Q468.8594,383.375 469.5078,383.5313 Q470.1563,383.6875 470.7188,383.9844 L470.7188,386.7031 Q470.0938,386.125 469.5,385.8516 Q468.9063,385.5781 468.2813,385.5781 Q466.9375,385.5781 466.25,386.6484 Q465.5625,387.7188 465.5625,389.8125 Q465.5625,391.9063 466.25,392.9766 Q466.9375,394.0469 468.2813,394.0469 Q468.9063,394.0469 469.5,393.7734 Q470.0938,393.5 470.7188,392.9219 L470.7188,395.6406 Z "/><text fill="#000000" font-family="sans-serif" font-size="12" lengthAdjust="spacingAndGlyphs" textLength="126" x="488.25" y="394.1543">MetaWeblogHandler</text><line style="stroke: #A80036; stroke-width: 1.5;" x1="349" x2="721" y1="406" y2="406"/><line style="stroke: #A80036; stroke-width: 1.5;" x1="349" x2="721" y1="414" y2="414"/><ellipse cx="359" cy="425.9023" fill="#84BE84" rx="3" ry="3" style="stroke: #038048; stroke-width: 1.0;"/><text fill="#000000" font-family="sans-serif" font-size="11" lengthAdjust="spacingAndGlyphs" textLength="148" x="368" y="428.2104">initialize(WikiContext): void</text><ellipse cx="359" cy="438.707" fill="#84BE84" rx="3" ry="3" style="stroke: #038048; stroke-width: 1.0;"/><text fill="#000000" font-family="sans-serif" font-size="11" lengthAdjust="spacingAndGlyphs" textLength="271" x="368" y="441.0151">getCategories(String, String, String): Hashtable</text><ellipse cx="359" cy="451.5117" fill="#84BE84" rx="3" ry="3" style="stroke: #038048; stroke-width: 1.0;"/><text fill="#000000" font-family="sans-serif" font-size="11" lengthAdjust="spacingAndGlyphs" textLength="301" x="368" y="453.8198">getRecentPosts(String, String, String, int): Hashtable</text><ellipse cx="359" cy="464.3164" fill="#84BE84" rx="3" ry="3" style="stroke: #038048; stroke-width: 1.0;"/><text fill="#000000" font-family="sans-serif" font-size="11" lengthAdjust="spacingAndGlyphs" textLength="334" x="368" y="466.6245">newPost(String, String, String, Hashtable, boolean): String</text><ellipse cx="359" cy="477.1211" fill="#84BE84" rx="3" ry="3" style="stroke: #038048; stroke-width: 1.0;"/><text fill="#000000" font-family="sans-serif" font-size="11" lengthAdjust="spacingAndGlyphs" textLength="348" x="368" y="479.4292">newMediaObject(String, String, String, Hashtable): Hashtable</text></a><!--class javax.servlet.http.HttpServlet--><rect fill="#FEFECE" filter="url(#f1tnwclr3a35le)" height="48" id="javax.servlet.http.HttpServlet" style="stroke: #A80036; stroke-width: 1.5;" width="102" x="489" y="43"/><ellipse cx="504" cy="59" fill="#A9DCDF" rx="11" ry="11" style="stroke: #A80036; stroke-width: 1.0;"/><path d="M504.1094,54.3438 L502.9531,59.4219 L505.2813,59.4219 L504.1094,54.3438 Z M502.625,52.1094 L505.6094,52.1094 L508.9688,64.5 L506.5156,64.5 L505.75,61.4375 L502.4688,61.4375 L501.7188,64.5 L499.2813,64.5 L502.625,52.1094 Z "/><text fill="#000000" font-family="sans-serif" font-size="12" font-style="italic" lengthAdjust="spacingAndGlyphs" textLength="70" x="518" y="63.1543">HttpServlet</text><line style="stroke: #A80036; stroke-width: 1.5;" x1="490" x2="590" y1="75" y2="75"/><line style="stroke: #A80036; stroke-width: 1.5;" x1="490" x2="590" y1="83" y2="83"/><!--link org.apache.wiki.xmlrpc.WikiRPCHandler to org.apache.wiki.xmlrpc.AbstractRPCHandler--><path d="M205.9043,257.7407 C204.3384,277.1407 202.4873,300.0734 200.6553,322.7699 " fill="none" id="org.apache.wiki.xmlrpc.WikiRPCHandler-org.apache.wiki.xmlrpc.AbstractRPCHandler" style="stroke: #A80036; stroke-width: 1.0; stroke-dasharray: 7.0,7.0;"/><polygon fill="none" points="198.9484,256.9116,207.5349,237.5396,212.903,258.038,198.9484,256.9116" style="stroke: #A80036; stroke-width: 1.0;"/><!--link javax.servlet.http.HttpServlet to org.apache.wiki.xmlrpc.RPCServlet--><path d="M540,111.2115 C540,123.7476 540,137.5665 540,150.7138 " fill="none" id="javax.servlet.http.HttpServlet-org.apache.wiki.xmlrpc.RPCServlet" style="stroke: #A80036; stroke-width: 1.0;"/><polygon fill="none" points="533.0001,111.0669,540,91.0669,547.0001,111.0668,533.0001,111.0669" style="stroke: #A80036; stroke-width: 1.0;"/><!--link org.apache.wiki.xmlrpc.AbstractRPCHandler to org.apache.wiki.xmlrpc.RPCHandler--><path d="M190.577,557.1182 C190.4282,570.4149 190.2783,583.8022 190.1333,596.7546 " fill="none" id="org.apache.wiki.xmlrpc.AbstractRPCHandler-org.apache.wiki.xmlrpc.RPCHandler" style="stroke: #A80036; stroke-width: 1.0;"/><polygon fill="none" points="183.5779,556.9965,190.8014,537.0761,197.577,557.1532,183.5779,556.9965" style="stroke: #A80036; stroke-width: 1.0;"/><!--link org.apache.wiki.xmlrpc.AbstractRPCHandler to org.apache.wiki.xmlrpc.RPCHandlerUTF8--><path d="M328.7442,535.331 C329.498,535.8893 330.25,536.4457 331,537 C360.4329,558.7532 392.3226,581.7295 422.6383,603.3003 " fill="none" id="org.apache.wiki.xmlrpc.AbstractRPCHandler-org.apache.wiki.xmlrpc.RPCHandlerUTF8" style="stroke: #A80036; stroke-width: 1.0;"/><polygon fill="none" points="324.5514,540.9364,312.7042,523.3681,332.9213,529.7139,324.5514,540.9364" style="stroke: #A80036; stroke-width: 1.0;"/><!--link org.apache.wiki.xmlrpc.WikiRPCHandler to org.apache.wiki.xmlrpc.MetaWeblogHandler--><path d="M271.0388,248.882 C322.5126,284.201 396.6277,335.0553 453.2273,373.8913 " fill="none" id="org.apache.wiki.xmlrpc.WikiRPCHandler-org.apache.wiki.xmlrpc.MetaWeblogHandler" style="stroke: #A80036; stroke-width: 1.0; stroke-dasharray: 7.0,7.0;"/><polygon fill="none" points="267.0392,254.6271,254.5084,237.5396,274.9601,243.0832,267.0392,254.6271" style="stroke: #A80036; stroke-width: 1.0;"/><text fill="#888888" font-family="sans-serif" font-size="10" lengthAdjust="spacingAndGlyphs" textLength="186" x="286.5" y="834.2822">UMLDoclet 1.1.4, PlantUML 1.2019.05</text><!--
@startuml

    namespace org.apache.wiki.xmlrpc {

        abstract class AbstractRPCHandler [[AbstractRPCHandler.html]] {
            {static} +ERR_NOPAGE: int
            {static} +ERR_NOPERMISSION: int
            {static} +LINK_LOCAL: String
            {static} +LINK_EXTERNAL: String
            {static} +LINK_INLINE: String
            {static} +RPC_VERSION: int
            #m_engine: WikiEngine
            #m_context: WikiContext
            +initialize(WikiContext): void
            +getRecentChanges(Date): Vector
            #checkPermission(Permission): void
            +getRPCVersionSupported(): int
            {abstract} #encodeWikiPage(WikiPage): Hashtable
        }

        class RPCServlet [[RPCServlet.html]] {
            {static} +XMLRPC_PREFIX: String
            +initHandler(String, String): void
            +init(ServletConfig): void
            +doPost(HttpServletRequest, HttpServletResponse): void
            +doGet(HttpServletRequest, HttpServletResponse): void
        }

        class RPCHandler [[RPCHandler.html]] {
            +initialize(WikiContext): void
            +getApplicationName(): String
            +getAllPages(): Vector
            #encodeWikiPage(WikiPage): Hashtable<String, Object>
            +getRecentChanges(Date): Vector
            +getPageInfo(String): Hashtable
            +getPageInfoVersion(String, int): Hashtable
            +getPage(String): byte[]
            +getPageVersion(String, int): byte[]
            +getPageHTML(String): byte[]
            +getPageHTMLVersion(String, int): byte[]
            +listLinks(String): Vector
        }

        interface WikiRPCHandler [[WikiRPCHandler.html]] {
            {abstract} +initialize(WikiContext): void
        }

        class RPCHandlerUTF8 [[RPCHandlerUTF8.html]] {
            +getApplicationName(): String
            +getAllPages(): Vector
            #encodeWikiPage(WikiPage): Hashtable<String, Object>
            +getRecentChanges(Date): Vector
            +getPageInfo(String): Hashtable
            +getPageInfoVersion(String, int): Hashtable
            +getPage(String): String
            +getPageVersion(String, int): String
            +getPageHTML(String): String
            +getPageHTMLVersion(String, int): String
            +listLinks(String): Vector
        }

        class MetaWeblogHandler [[MetaWeblogHandler.html]] {
            +initialize(WikiContext): void
            +getCategories(String, String, String): Hashtable
            +getRecentPosts(String, String, String, int): Hashtable
            +newPost(String, String, String, Hashtable, boolean): String
            +newMediaObject(String, String, String, Hashtable): Hashtable
        }

        WikiRPCHandler <|.. AbstractRPCHandler

        abstract class javax.servlet.http.HttpServlet
        javax.servlet.http.HttpServlet <|- - RPCServlet

        AbstractRPCHandler <|- - RPCHandler

        AbstractRPCHandler <|- - RPCHandlerUTF8

        WikiRPCHandler <|.. MetaWeblogHandler

    }


    center footer UMLDoclet 1.1.4, PlantUML 1.2019.05
@enduml

PlantUML version 1.2019.05(Sat Apr 20 16:45:36 UTC 2019)
(APACHE source distribution)
Java Runtime: Java(TM) SE Runtime Environment
JVM: Java HotSpot(TM) 64-Bit Server VM
Java Version: 1.8.0_191-b12
Operating System: Linux
OS Version: 4.15.0-66-generic
Default Encoding: ISO-8859-1
Language: en
Country: US
--></g></svg>