<?xml version="1.0" encoding="UTF-8" standalone="no"?><svg xmlns="http://www.w3.org/2000/svg" xmlns:xlink="http://www.w3.org/1999/xlink" contentScriptType="application/ecmascript" contentStyleType="text/css" height="353px" preserveAspectRatio="none" style="width:240px;height:353px;" version="1.1" viewBox="0 0 240 353" width="240px" zoomAndPan="magnify"><defs><filter height="300%" id="fvzfgmubgy9oe" width="300%" x="-1" y="-1"><feGaussianBlur result="blurOut" stdDeviation="2.0"/><feColorMatrix in="blurOut" result="blurOut2" type="matrix" values="0 0 0 0 0 0 0 0 0 0 0 0 0 0 0 0 0 0 .4 0"/><feOffset dx="4.0" dy="4.0" in="blurOut2" result="blurOut3"/><feBlend in="SourceGraphic" in2="blurOut3" mode="normal"/></filter></defs><g><!--MD5=[c115711a15917d2a78b4d8dec1e54354]
class org.apache.wiki.auth.acl.Acl--><a href="Acl.html" target="_top" title="Acl.html" xlink:actuate="onRequest" xlink:href="Acl.html" xlink:show="new" xlink:title="Acl.html" xlink:type="simple"><rect codeLine="5" fill="#FEFECE" filter="url(#fvzfgmubgy9oe)" height="118.625" id="org.apache.wiki.auth.acl.Acl" style="stroke: #A80036; stroke-width: 1.5;" width="185" x="21.5" y="198"/><ellipse cx="53.15" cy="225.6406" fill="#B4A7E5" rx="11" ry="11" style="stroke: #A80036; stroke-width: 1.0;"/><path d="M54.1031,222.2813 L54.1031,228.9375 L55.8219,228.9375 Q56.4313,228.9375 56.6969,229.1719 Q56.9625,229.4063 56.9625,229.7969 Q56.9625,230.1719 56.6969,230.4063 Q56.4313,230.6406 55.8219,230.6406 L50.6813,230.6406 Q50.0719,230.6406 49.8063,230.4063 Q49.5406,230.1719 49.5406,229.7813 Q49.5406,229.4063 49.8063,229.1719 Q50.0719,228.9375 50.6813,228.9375 L52.4,228.9375 L52.4,222.2813 L50.6813,222.2813 Q50.0719,222.2813 49.8063,222.0469 Q49.5406,221.8125 49.5406,221.4219 Q49.5406,221.0469 49.8063,220.8125 Q50.0719,220.5781 50.6813,220.5781 L55.8219,220.5781 Q56.4313,220.5781 56.6969,220.8125 Q56.9625,221.0469 56.9625,221.4219 Q56.9625,221.8125 56.6969,222.0469 Q56.4313,222.2813 55.8219,222.2813 L54.1031,222.2813 Z "/><text fill="#000000" font-family="sans-serif" font-size="12" font-style="italic" lengthAdjust="spacingAndGlyphs" textLength="76" x="90.85" y="215.457">«deprecated»</text><text fill="#000000" font-family="sans-serif" font-size="14" font-style="italic" lengthAdjust="spacingAndGlyphs" textLength="19" x="119.35" y="232.627">Acl</text><text fill="#000000" font-family="sans-serif" font-size="10" font-style="italic" lengthAdjust="spacingAndGlyphs" textLength="116" x="70.85" y="246.084">org.apache.wiki.auth.acl</text><line style="stroke: #A80036; stroke-width: 1.5;" x1="22.5" x2="205.5" y1="253.2813" y2="253.2813"/><ellipse cx="32.5" cy="264.2813" fill="#84BE84" rx="3" ry="3" style="stroke: #038048; stroke-width: 1.0;"/><text fill="#000000" font-family="sans-serif" font-size="11" lengthAdjust="spacingAndGlyphs" text-decoration="line-through" textLength="43" x="41.5" y="268.7002">addEntry</text><text fill="#000000" font-family="sans-serif" font-size="11" lengthAdjust="spacingAndGlyphs" textLength="93" x="84.5" y="268.7002">(AclEntry): boolean</text><ellipse cx="32.5" cy="278.1172" fill="#84BE84" rx="3" ry="3" style="stroke: #038048; stroke-width: 1.0;"/><text fill="#000000" font-family="sans-serif" font-size="11" lengthAdjust="spacingAndGlyphs" text-decoration="line-through" textLength="33" x="41.5" y="282.5361">entries</text><text fill="#000000" font-family="sans-serif" font-size="11" lengthAdjust="spacingAndGlyphs" textLength="126" x="74.5" y="282.5361">(): Enumeration&lt;AclEntry&gt;</text><ellipse cx="32.5" cy="291.9531" fill="#84BE84" rx="3" ry="3" style="stroke: #038048; stroke-width: 1.0;"/><text fill="#000000" font-family="sans-serif" font-size="11" lengthAdjust="spacingAndGlyphs" text-decoration="line-through" textLength="40" x="41.5" y="296.3721">getEntry</text><text fill="#000000" font-family="sans-serif" font-size="11" lengthAdjust="spacingAndGlyphs" textLength="95" x="81.5" y="296.3721">(Principal): AclEntry</text><ellipse cx="32.5" cy="305.7891" fill="#84BE84" rx="3" ry="3" style="stroke: #038048; stroke-width: 1.0;"/><text fill="#000000" font-family="sans-serif" font-size="11" lengthAdjust="spacingAndGlyphs" text-decoration="line-through" textLength="61" x="41.5" y="310.208">removeEntry</text><text fill="#000000" font-family="sans-serif" font-size="11" lengthAdjust="spacingAndGlyphs" textLength="93" x="102.5" y="310.208">(AclEntry): boolean</text></a><!--MD5=[07c66f7fa7c432145e668262fdfa9f38]
class org.apache.wiki.api.core.Acl--><a href="..\..\api\core\Acl.html" target="_top" title="..\..\api\core\Acl.html" xlink:actuate="onRequest" xlink:href="..\..\api\core\Acl.html" xlink:show="new" xlink:title="..\..\api\core\Acl.html" xlink:type="simple"><rect codeLine="12" fill="#FEFECE" filter="url(#fvzfgmubgy9oe)" height="131.2031" id="org.apache.wiki.api.core.Acl" style="stroke: #A80036; stroke-width: 1.5;" width="214" x="7" y="7"/><ellipse cx="51.75" cy="27.0938" fill="#B4A7E5" rx="11" ry="11" style="stroke: #A80036; stroke-width: 1.0;"/><path d="M52.7031,23.7344 L52.7031,30.3906 L54.4219,30.3906 Q55.0313,30.3906 55.2969,30.625 Q55.5625,30.8594 55.5625,31.25 Q55.5625,31.625 55.2969,31.8594 Q55.0313,32.0938 54.4219,32.0938 L49.2813,32.0938 Q48.6719,32.0938 48.4063,31.8594 Q48.1406,31.625 48.1406,31.2344 Q48.1406,30.8594 48.4063,30.625 Q48.6719,30.3906 49.2813,30.3906 L51,30.3906 L51,23.7344 L49.2813,23.7344 Q48.6719,23.7344 48.4063,23.5 Q48.1406,23.2656 48.1406,22.875 Q48.1406,22.5 48.4063,22.2656 Q48.6719,22.0313 49.2813,22.0313 L54.4219,22.0313 Q55.0313,22.0313 55.2969,22.2656 Q55.5625,22.5 55.5625,22.875 Q55.5625,23.2656 55.2969,23.5 Q55.0313,23.7344 54.4219,23.7344 L52.7031,23.7344 Z "/><text fill="#000000" font-family="sans-serif" font-size="14" font-style="italic" lengthAdjust="spacingAndGlyphs" textLength="19" x="120.75" y="26.5332">Acl</text><text fill="#000000" font-family="sans-serif" font-size="10" font-style="italic" lengthAdjust="spacingAndGlyphs" textLength="116" x="72.25" y="39.9902">org.apache.wiki.api.core</text><line style="stroke: #A80036; stroke-width: 1.5;" x1="8" x2="220" y1="47.1875" y2="47.1875"/><ellipse cx="18" cy="58.1875" fill="#84BE84" rx="3" ry="3" style="stroke: #038048; stroke-width: 1.0;"/><text fill="#000000" font-family="sans-serif" font-size="11" font-style="italic" lengthAdjust="spacingAndGlyphs" textLength="138" x="27" y="62.6064">addEntry(AclEntry): boolean</text><ellipse cx="18" cy="72.0234" fill="#84BE84" rx="3" ry="3" style="stroke: #038048; stroke-width: 1.0;"/><text fill="#000000" font-family="sans-serif" font-size="11" font-style="italic" lengthAdjust="spacingAndGlyphs" textLength="179" x="27" y="76.4424">aclEntries(): Enumeration&lt;AclEntry&gt;</text><ellipse cx="18" cy="85.8594" fill="#84BE84" rx="3" ry="3" style="stroke: #038048; stroke-width: 1.0;"/><text fill="#000000" font-family="sans-serif" font-size="11" font-style="italic" lengthAdjust="spacingAndGlyphs" textLength="93" x="27" y="90.2783">isEmpty(): boolean</text><ellipse cx="18" cy="99.6953" fill="#84BE84" rx="3" ry="3" style="stroke: #038048; stroke-width: 1.0;"/><text fill="#000000" font-family="sans-serif" font-size="11" font-style="italic" lengthAdjust="spacingAndGlyphs" textLength="188" x="27" y="104.1143">findPrincipals(Permission): Principal[]</text><ellipse cx="18" cy="113.5313" fill="#84BE84" rx="3" ry="3" style="stroke: #038048; stroke-width: 1.0;"/><text fill="#000000" font-family="sans-serif" font-size="11" font-style="italic" lengthAdjust="spacingAndGlyphs" textLength="155" x="27" y="117.9502">getAclEntry(Principal): AclEntry</text><ellipse cx="18" cy="127.3672" fill="#84BE84" rx="3" ry="3" style="stroke: #038048; stroke-width: 1.0;"/><text fill="#000000" font-family="sans-serif" font-size="11" font-style="italic" lengthAdjust="spacingAndGlyphs" textLength="156" x="27" y="131.7861">removeEntry(AclEntry): boolean</text></a><!--MD5=[72698a6f5a9e5c8b1e06147d59665af6]
reverse link org.apache.wiki.api.core.Acl to org.apache.wiki.auth.acl.Acl--><path codeLine="21" d="M114,158.2548 C114,171.6314 114,185.197 114,197.8249 " fill="none" id="org.apache.wiki.api.core.Acl-backto-org.apache.wiki.auth.acl.Acl" style="stroke: #A80036; stroke-width: 1.0;"/><polygon fill="none" points="107.0001,158.245,114,138.245,121.0001,158.2449,107.0001,158.245" style="stroke: #A80036; stroke-width: 1.0;"/><text fill="#888888" font-family="sans-serif" font-size="10" lengthAdjust="spacingAndGlyphs" textLength="190" x="16" y="340.0059">UMLDoclet 2.0.12, PlantUML 1.2020.16</text><!--MD5=[704b6d43e2cc81b6f3121a2afddebec6]
@startuml
    set namespaceSeparator none
    hide empty fields
    hide empty methods

    interface "<size:14>Acl\n<size:10>org.apache.wiki.auth.acl" as org.apache.wiki.auth.acl.Acl <<deprecated>> [[Acl.html]] {
        +- -addEntry- -(AclEntry): boolean
        +- -entries- -(): Enumeration<AclEntry>
        +- -getEntry- -(Principal): AclEntry
        +- -removeEntry- -(AclEntry): boolean
    }

    interface "<size:14>Acl\n<size:10>org.apache.wiki.api.core" as org.apache.wiki.api.core.Acl [[..\..\api\core\Acl.html]] {
        {abstract} +addEntry(AclEntry): boolean
        {abstract} +aclEntries(): Enumeration<AclEntry>
        {abstract} +isEmpty(): boolean
        {abstract} +findPrincipals(Permission): Principal[]
        {abstract} +getAclEntry(Principal): AclEntry
        {abstract} +removeEntry(AclEntry): boolean
    }

    org.apache.wiki.api.core.Acl <|- - org.apache.wiki.auth.acl.Acl

    center footer UMLDoclet 2.0.12, PlantUML 1.2020.16
@enduml

PlantUML version 1.2020.16(Sun Aug 23 22:20:43 CEST 2020)
(APACHE source distribution)
Java Runtime: OpenJDK Runtime Environment
JVM: OpenJDK 64-Bit Server VM
Default Encoding: Cp1252
Language: es
Country: ES
--></g></svg>