<?xml version="1.0" encoding="UTF-8" standalone="no"?><svg xmlns="http://www.w3.org/2000/svg" xmlns:xlink="http://www.w3.org/1999/xlink" contentScriptType="application/ecmascript" contentStyleType="text/css" height="290px" preserveAspectRatio="none" style="width:257px;height:290px;" version="1.1" viewBox="0 0 257 290" width="257px" zoomAndPan="magnify"><defs><filter height="300%" id="f138geqgxfyvxo" width="300%" x="-1" y="-1"><feGaussianBlur result="blurOut" stdDeviation="2.0"/><feColorMatrix in="blurOut" result="blurOut2" type="matrix" values="0 0 0 0 0 0 0 0 0 0 0 0 0 0 0 0 0 0 .4 0"/><feOffset dx="4.0" dy="4.0" in="blurOut2" result="blurOut3"/><feBlend in="SourceGraphic" in2="blurOut3" mode="normal"/></filter></defs><g><!--MD5=[c9aca57148ac18c28ec5be086ea2179e]
class org.apache.wiki.auth.acl.AclEntry--><a href="AclEntry.html" target="_top" title="AclEntry.html" xlink:actuate="onRequest" xlink:href="AclEntry.html" xlink:show="new" xlink:title="AclEntry.html" xlink:type="simple"><rect codeLine="5" fill="#FEFECE" filter="url(#f138geqgxfyvxo)" height="55.2813" id="org.apache.wiki.auth.acl.AclEntry" style="stroke: #A80036; stroke-width: 1.5;" width="148" x="48.5" y="198"/><ellipse cx="63.5" cy="225.6406" fill="#B4A7E5" rx="11" ry="11" style="stroke: #A80036; stroke-width: 1.0;"/><path d="M64.4531,222.2813 L64.4531,228.9375 L66.1719,228.9375 Q66.7813,228.9375 67.0469,229.1719 Q67.3125,229.4063 67.3125,229.7969 Q67.3125,230.1719 67.0469,230.4063 Q66.7813,230.6406 66.1719,230.6406 L61.0313,230.6406 Q60.4219,230.6406 60.1563,230.4063 Q59.8906,230.1719 59.8906,229.7813 Q59.8906,229.4063 60.1563,229.1719 Q60.4219,228.9375 61.0313,228.9375 L62.75,228.9375 L62.75,222.2813 L61.0313,222.2813 Q60.4219,222.2813 60.1563,222.0469 Q59.8906,221.8125 59.8906,221.4219 Q59.8906,221.0469 60.1563,220.8125 Q60.4219,220.5781 61.0313,220.5781 L66.1719,220.5781 Q66.7813,220.5781 67.0469,220.8125 Q67.3125,221.0469 67.3125,221.4219 Q67.3125,221.8125 67.0469,222.0469 Q66.7813,222.2813 66.1719,222.2813 L64.4531,222.2813 Z "/><text fill="#000000" font-family="sans-serif" font-size="12" font-style="italic" lengthAdjust="spacingAndGlyphs" textLength="76" x="97.5" y="215.457">«deprecated»</text><text fill="#000000" font-family="sans-serif" font-size="14" font-style="italic" lengthAdjust="spacingAndGlyphs" textLength="52" x="109.5" y="232.627">AclEntry</text><text fill="#000000" font-family="sans-serif" font-size="10" font-style="italic" lengthAdjust="spacingAndGlyphs" textLength="116" x="77.5" y="246.084">org.apache.wiki.auth.acl</text></a><!--MD5=[bce3939ba6bdc8e4d23f359911bbf7fa]
class org.apache.wiki.api.core.AclEntry--><a href="..\..\api\core\AclEntry.html" target="_top" title="..\..\api\core\AclEntry.html" xlink:actuate="onRequest" xlink:href="..\..\api\core\AclEntry.html" xlink:show="new" xlink:title="..\..\api\core\AclEntry.html" xlink:type="simple"><rect codeLine="7" fill="#FEFECE" filter="url(#f138geqgxfyvxo)" height="131.2031" id="org.apache.wiki.api.core.AclEntry" style="stroke: #A80036; stroke-width: 1.5;" width="231" x="7" y="7"/><ellipse cx="60.25" cy="27.0938" fill="#B4A7E5" rx="11" ry="11" style="stroke: #A80036; stroke-width: 1.0;"/><path d="M61.2031,23.7344 L61.2031,30.3906 L62.9219,30.3906 Q63.5313,30.3906 63.7969,30.625 Q64.0625,30.8594 64.0625,31.25 Q64.0625,31.625 63.7969,31.8594 Q63.5313,32.0938 62.9219,32.0938 L57.7813,32.0938 Q57.1719,32.0938 56.9063,31.8594 Q56.6406,31.625 56.6406,31.2344 Q56.6406,30.8594 56.9063,30.625 Q57.1719,30.3906 57.7813,30.3906 L59.5,30.3906 L59.5,23.7344 L57.7813,23.7344 Q57.1719,23.7344 56.9063,23.5 Q56.6406,23.2656 56.6406,22.875 Q56.6406,22.5 56.9063,22.2656 Q57.1719,22.0313 57.7813,22.0313 L62.9219,22.0313 Q63.5313,22.0313 63.7969,22.2656 Q64.0625,22.5 64.0625,22.875 Q64.0625,23.2656 63.7969,23.5 Q63.5313,23.7344 62.9219,23.7344 L61.2031,23.7344 Z "/><text fill="#000000" font-family="sans-serif" font-size="14" font-style="italic" lengthAdjust="spacingAndGlyphs" textLength="52" x="112.75" y="26.5332">AclEntry</text><text fill="#000000" font-family="sans-serif" font-size="10" font-style="italic" lengthAdjust="spacingAndGlyphs" textLength="116" x="80.75" y="39.9902">org.apache.wiki.api.core</text><line style="stroke: #A80036; stroke-width: 1.5;" x1="8" x2="237" y1="47.1875" y2="47.1875"/><ellipse cx="18" cy="58.1875" fill="#84BE84" rx="3" ry="3" style="stroke: #038048; stroke-width: 1.0;"/><text fill="#000000" font-family="sans-serif" font-size="11" font-style="italic" lengthAdjust="spacingAndGlyphs" textLength="184" x="27" y="62.6064">addPermission(Permission): boolean</text><ellipse cx="18" cy="72.0234" fill="#84BE84" rx="3" ry="3" style="stroke: #038048; stroke-width: 1.0;"/><text fill="#000000" font-family="sans-serif" font-size="11" font-style="italic" lengthAdjust="spacingAndGlyphs" textLength="196" x="27" y="76.4424">checkPermission(Permission): boolean</text><ellipse cx="18" cy="85.8594" fill="#84BE84" rx="3" ry="3" style="stroke: #038048; stroke-width: 1.0;"/><text fill="#000000" font-family="sans-serif" font-size="11" font-style="italic" lengthAdjust="spacingAndGlyphs" textLength="117" x="27" y="90.2783">getPrincipal(): Principal</text><ellipse cx="18" cy="99.6953" fill="#84BE84" rx="3" ry="3" style="stroke: #038048; stroke-width: 1.0;"/><text fill="#000000" font-family="sans-serif" font-size="11" font-style="italic" lengthAdjust="spacingAndGlyphs" textLength="205" x="27" y="104.1143">permissions(): Enumeration&lt;Permission&gt;</text><ellipse cx="18" cy="113.5313" fill="#84BE84" rx="3" ry="3" style="stroke: #038048; stroke-width: 1.0;"/><text fill="#000000" font-family="sans-serif" font-size="11" font-style="italic" lengthAdjust="spacingAndGlyphs" textLength="202" x="27" y="117.9502">removePermission(Permission): boolean</text><ellipse cx="18" cy="127.3672" fill="#84BE84" rx="3" ry="3" style="stroke: #038048; stroke-width: 1.0;"/><text fill="#000000" font-family="sans-serif" font-size="11" font-style="italic" lengthAdjust="spacingAndGlyphs" textLength="157" x="27" y="131.7861">setPrincipal(Principal): boolean</text></a><!--MD5=[a8e3dc15917c773071ba65d9f289b39f]
reverse link org.apache.wiki.api.core.AclEntry to org.apache.wiki.auth.acl.AclEntry--><path codeLine="16" d="M122.5,158.4784 C122.5,172.7089 122.5,186.4951 122.5,197.8261 " fill="none" id="org.apache.wiki.api.core.AclEntry-backto-org.apache.wiki.auth.acl.AclEntry" style="stroke: #A80036; stroke-width: 1.0;"/><polygon fill="none" points="115.5001,158.2737,122.5,138.2737,129.5001,158.2737,115.5001,158.2737" style="stroke: #A80036; stroke-width: 1.0;"/><text fill="#888888" font-family="sans-serif" font-size="10" lengthAdjust="spacingAndGlyphs" textLength="190" x="24.5" y="276.6621">UMLDoclet 2.0.12, PlantUML 1.2020.16</text><!--MD5=[36718340f336763bc0bb24e078a206f1]
@startuml
    set namespaceSeparator none
    hide empty fields
    hide empty methods

    interface "<size:14>AclEntry\n<size:10>org.apache.wiki.auth.acl" as org.apache.wiki.auth.acl.AclEntry <<deprecated>> [[AclEntry.html]]

    interface "<size:14>AclEntry\n<size:10>org.apache.wiki.api.core" as org.apache.wiki.api.core.AclEntry [[..\..\api\core\AclEntry.html]] {
        {abstract} +addPermission(Permission): boolean
        {abstract} +checkPermission(Permission): boolean
        {abstract} +getPrincipal(): Principal
        {abstract} +permissions(): Enumeration<Permission>
        {abstract} +removePermission(Permission): boolean
        {abstract} +setPrincipal(Principal): boolean
    }

    org.apache.wiki.api.core.AclEntry <|- - org.apache.wiki.auth.acl.AclEntry

    center footer UMLDoclet 2.0.12, PlantUML 1.2020.16
@enduml

PlantUML version 1.2020.16(Sun Aug 23 22:20:43 CEST 2020)
(APACHE source distribution)
Java Runtime: OpenJDK Runtime Environment
JVM: OpenJDK 64-Bit Server VM
Default Encoding: Cp1252
Language: es
Country: ES
--></g></svg>