<?xml version="1.0" encoding="UTF-8" standalone="no"?><svg xmlns="http://www.w3.org/2000/svg" xmlns:xlink="http://www.w3.org/1999/xlink" contentScriptType="application/ecmascript" contentStyleType="text/css" height="449px" preserveAspectRatio="none" style="width:338px;height:449px;" version="1.1" viewBox="0 0 338 449" width="338px" zoomAndPan="magnify"><defs><filter height="300%" id="ffc35ns8gki48" width="300%" x="-1" y="-1"><feGaussianBlur result="blurOut" stdDeviation="2.0"/><feColorMatrix in="blurOut" result="blurOut2" type="matrix" values="0 0 0 0 0 0 0 0 0 0 0 0 0 0 0 0 0 0 .4 0"/><feOffset dx="4.0" dy="4.0" in="blurOut2" result="blurOut3"/><feBlend in="SourceGraphic" in2="blurOut3" mode="normal"/></filter></defs><g><!--MD5=[84cc67b1895f981e035e94563bf6fa31]
class org.apache.wiki.rss.DefaultRSSGenerator--><a href="DefaultRSSGenerator.html" target="_top" title="DefaultRSSGenerator.html" xlink:actuate="onRequest" xlink:href="DefaultRSSGenerator.html" xlink:show="new" xlink:title="DefaultRSSGenerator.html" xlink:type="simple"><rect codeLine="5" fill="#FEFECE" filter="url(#ffc35ns8gki48)" height="186.5469" id="org.apache.wiki.rss.DefaultRSSGenerator" style="stroke: #A80036; stroke-width: 1.5;" width="301" x="12.5" y="226"/><ellipse cx="89.75" cy="246.0938" fill="#ADD1B2" rx="11" ry="11" style="stroke: #A80036; stroke-width: 1.0;"/><path d="M92.5156,241.9688 Q92.6719,241.75 92.8594,241.6406 Q93.0469,241.5313 93.2656,241.5313 Q93.6406,241.5313 93.875,241.7969 Q94.1094,242.0469 94.1094,242.6563 L94.1094,244.1094 Q94.1094,244.7188 93.875,244.9844 Q93.6406,245.25 93.2656,245.25 Q92.9219,245.25 92.7188,245.0469 Q92.5156,244.8594 92.4063,244.3438 Q92.3594,243.9844 92.1719,243.7969 Q91.8438,243.4219 91.2344,243.2031 Q90.625,242.9844 90,242.9844 Q89.2344,242.9844 88.5938,243.3125 Q87.9688,243.6406 87.4688,244.3906 Q86.9844,245.1406 86.9844,246.1719 L86.9844,247.2656 Q86.9844,248.5 87.875,249.3281 Q88.7656,250.1406 90.3594,250.1406 Q91.2969,250.1406 91.9531,249.8906 Q92.3438,249.7344 92.7656,249.2969 Q93.0313,249.0313 93.1719,248.9531 Q93.3281,248.875 93.5313,248.875 Q93.8594,248.875 94.1094,249.1406 Q94.375,249.3906 94.375,249.7344 Q94.375,250.0781 94.0313,250.4844 Q93.5313,251.0625 92.7344,251.3906 Q91.6563,251.8438 90.3594,251.8438 Q88.8438,251.8438 87.6406,251.2188 Q86.6563,250.7188 85.9688,249.6563 Q85.2813,248.5781 85.2813,247.2969 L85.2813,246.1406 Q85.2813,244.8125 85.8906,243.6719 Q86.5156,242.5156 87.6094,241.9063 Q88.7031,241.2813 89.9375,241.2813 Q90.6719,241.2813 91.3125,241.4531 Q91.9688,241.6094 92.5156,241.9688 Z "/><text fill="#000000" font-family="sans-serif" font-size="14" lengthAdjust="spacingAndGlyphs" textLength="138" x="110.25" y="245.5332">DefaultRSSGenerator</text><text fill="#000000" font-family="sans-serif" font-size="10" lengthAdjust="spacingAndGlyphs" textLength="88" x="135.25" y="258.9902">org.apache.wiki.rss</text><line style="stroke: #A80036; stroke-width: 1.5;" x1="13.5" x2="312.5" y1="266.1875" y2="266.1875"/><ellipse cx="23.5" cy="277.1875" fill="#84BE84" rx="3" ry="3" style="stroke: #038048; stroke-width: 1.0;"/><text fill="#000000" font-family="sans-serif" font-size="11" lengthAdjust="spacingAndGlyphs" textLength="199" x="32.5" y="281.6064">DefaultRSSGenerator(Engine, Properties)</text><ellipse cx="23.5" cy="291.0234" fill="#84BE84" rx="3" ry="3" style="stroke: #038048; stroke-width: 1.0;"/><text fill="#000000" font-family="sans-serif" font-size="11" lengthAdjust="spacingAndGlyphs" textLength="158" x="32.5" y="295.4424">initialize(Engine, Properties): void</text><ellipse cx="23.5" cy="304.8594" fill="#84BE84" rx="3" ry="3" style="stroke: #038048; stroke-width: 1.0;"/><text fill="#000000" font-family="sans-serif" font-size="11" lengthAdjust="spacingAndGlyphs" textLength="85" x="32.5" y="309.2783">generate(): String</text><ellipse cx="23.5" cy="318.6953" fill="#84BE84" rx="3" ry="3" style="stroke: #038048; stroke-width: 1.0;"/><text fill="#000000" font-family="sans-serif" font-size="11" lengthAdjust="spacingAndGlyphs" textLength="273" x="32.5" y="323.1143">generateFeed(Context, List&lt;Page&gt;, String, String): String</text><ellipse cx="23.5" cy="332.5313" fill="#84BE84" rx="3" ry="3" style="stroke: #038048; stroke-width: 1.0;"/><text fill="#000000" font-family="sans-serif" font-size="11" lengthAdjust="spacingAndGlyphs" textLength="98" x="32.5" y="336.9502">isEnabled(): boolean</text><ellipse cx="23.5" cy="346.3672" fill="#84BE84" rx="3" ry="3" style="stroke: #038048; stroke-width: 1.0;"/><text fill="#000000" font-family="sans-serif" font-size="11" lengthAdjust="spacingAndGlyphs" textLength="125" x="32.5" y="350.7861">setEnabled(boolean): void</text><ellipse cx="23.5" cy="360.2031" fill="#84BE84" rx="3" ry="3" style="stroke: #038048; stroke-width: 1.0;"/><text fill="#000000" font-family="sans-serif" font-size="11" lengthAdjust="spacingAndGlyphs" textLength="92" x="32.5" y="364.6221">getRssFile(): String</text><ellipse cx="23.5" cy="374.0391" fill="#84BE84" rx="3" ry="3" style="stroke: #038048; stroke-width: 1.0;"/><text fill="#000000" font-family="sans-serif" font-size="11" lengthAdjust="spacingAndGlyphs" textLength="208" x="32.5" y="378.458">generateFullWikiRSS(Context, Feed): String</text><ellipse cx="23.5" cy="387.875" fill="#84BE84" rx="3" ry="3" style="stroke: #038048; stroke-width: 1.0;"/><text fill="#000000" font-family="sans-serif" font-size="11" lengthAdjust="spacingAndGlyphs" textLength="275" x="32.5" y="392.2939">generateWikiPageRSS(Context, List&lt;Page&gt;, Feed): String</text><ellipse cx="23.5" cy="401.7109" fill="#84BE84" rx="3" ry="3" style="stroke: #038048; stroke-width: 1.0;"/><text fill="#000000" font-family="sans-serif" font-size="11" lengthAdjust="spacingAndGlyphs" textLength="253" x="32.5" y="406.1299">generateBlogRSS(Context, List&lt;Page&gt;, Feed): String</text></a><!--MD5=[af565d3f47da3ede56dab86a7c170b4d]
class org.apache.wiki.rss.RSSGenerator--><a href="RSSGenerator.html" target="_top" title="RSSGenerator.html" xlink:actuate="onRequest" xlink:href="RSSGenerator.html" xlink:show="new" xlink:title="RSSGenerator.html" xlink:type="simple"><rect codeLine="18" fill="#FEFECE" filter="url(#ffc35ns8gki48)" height="158.875" id="org.apache.wiki.rss.RSSGenerator" style="stroke: #A80036; stroke-width: 1.5;" width="312" x="7" y="7"/><ellipse cx="112.25" cy="27.0938" fill="#B4A7E5" rx="11" ry="11" style="stroke: #A80036; stroke-width: 1.0;"/><path d="M113.2031,23.7344 L113.2031,30.3906 L114.9219,30.3906 Q115.5313,30.3906 115.7969,30.625 Q116.0625,30.8594 116.0625,31.25 Q116.0625,31.625 115.7969,31.8594 Q115.5313,32.0938 114.9219,32.0938 L109.7813,32.0938 Q109.1719,32.0938 108.9063,31.8594 Q108.6406,31.625 108.6406,31.2344 Q108.6406,30.8594 108.9063,30.625 Q109.1719,30.3906 109.7813,30.3906 L111.5,30.3906 L111.5,23.7344 L109.7813,23.7344 Q109.1719,23.7344 108.9063,23.5 Q108.6406,23.2656 108.6406,22.875 Q108.6406,22.5 108.9063,22.2656 Q109.1719,22.0313 109.7813,22.0313 L114.9219,22.0313 Q115.5313,22.0313 115.7969,22.2656 Q116.0625,22.5 116.0625,22.875 Q116.0625,23.2656 115.7969,23.5 Q115.5313,23.7344 114.9219,23.7344 L113.2031,23.7344 Z "/><text fill="#000000" font-family="sans-serif" font-size="14" font-style="italic" lengthAdjust="spacingAndGlyphs" textLength="93" x="132.75" y="26.5332">RSSGenerator</text><text fill="#000000" font-family="sans-serif" font-size="10" font-style="italic" lengthAdjust="spacingAndGlyphs" textLength="91" x="133.75" y="39.9902">org.apache.wiki.rss</text><line style="stroke: #A80036; stroke-width: 1.5;" x1="8" x2="318" y1="47.1875" y2="47.1875"/><ellipse cx="18" cy="58.1875" fill="#84BE84" rx="3" ry="3" style="stroke: #038048; stroke-width: 1.0;"/><text fill="#000000" font-family="sans-serif" font-size="11" font-style="italic" lengthAdjust="spacingAndGlyphs" textLength="86" x="27" y="62.6064">generate(): String</text><ellipse cx="18" cy="72.0234" fill="#84BE84" rx="3" ry="3" style="stroke: #038048; stroke-width: 1.0;"/><text fill="#000000" font-family="sans-serif" font-size="11" font-style="italic" lengthAdjust="spacingAndGlyphs" textLength="280" x="27" y="76.4424">generateFeed(Context, List&lt;Page&gt;, String, String): String</text><ellipse cx="18" cy="85.8594" fill="#84BE84" rx="3" ry="3" style="stroke: #038048; stroke-width: 1.0;"/><text fill="#000000" font-family="sans-serif" font-size="11" font-style="italic" lengthAdjust="spacingAndGlyphs" textLength="104" x="27" y="90.2783">isEnabled(): boolean</text><ellipse cx="18" cy="99.6953" fill="#84BE84" rx="3" ry="3" style="stroke: #038048; stroke-width: 1.0;"/><text fill="#000000" font-family="sans-serif" font-size="11" font-style="italic" lengthAdjust="spacingAndGlyphs" textLength="130" x="27" y="104.1143">setEnabled(boolean): void</text><ellipse cx="18" cy="113.5313" fill="#84BE84" rx="3" ry="3" style="stroke: #038048; stroke-width: 1.0;"/><text fill="#000000" font-family="sans-serif" font-size="11" font-style="italic" lengthAdjust="spacingAndGlyphs" textLength="97" x="27" y="117.9502">getRssFile(): String</text><ellipse cx="18" cy="127.3672" fill="#84BE84" rx="3" ry="3" style="stroke: #038048; stroke-width: 1.0;"/><text fill="#000000" font-family="sans-serif" font-size="11" font-style="italic" lengthAdjust="spacingAndGlyphs" textLength="219" x="27" y="131.7861">generateFullWikiRSS(Context, Feed): String</text><ellipse cx="18" cy="141.2031" fill="#84BE84" rx="3" ry="3" style="stroke: #038048; stroke-width: 1.0;"/><text fill="#000000" font-family="sans-serif" font-size="11" font-style="italic" lengthAdjust="spacingAndGlyphs" textLength="286" x="27" y="145.6221">generateWikiPageRSS(Context, List&lt;Page&gt;, Feed): String</text><ellipse cx="18" cy="155.0391" fill="#84BE84" rx="3" ry="3" style="stroke: #038048; stroke-width: 1.0;"/><text fill="#000000" font-family="sans-serif" font-size="11" font-style="italic" lengthAdjust="spacingAndGlyphs" textLength="260" x="27" y="159.458">generateBlogRSS(Context, List&lt;Page&gt;, Feed): String</text></a><!--MD5=[222abc3ffba691eeb446dfd28b102717]
reverse link org.apache.wiki.rss.RSSGenerator to org.apache.wiki.rss.DefaultRSSGenerator--><path codeLine="29" d="M163,186.3168 C163,199.4378 163,212.8471 163,225.8603 " fill="none" id="org.apache.wiki.rss.RSSGenerator-backto-org.apache.wiki.rss.DefaultRSSGenerator" style="stroke: #A80036; stroke-width: 1.0; stroke-dasharray: 7.0,7.0;"/><polygon fill="none" points="156.0001,186.0337,163,166.0337,170.0001,186.0337,156.0001,186.0337" style="stroke: #A80036; stroke-width: 1.0;"/><text fill="#888888" font-family="sans-serif" font-size="10" lengthAdjust="spacingAndGlyphs" textLength="190" x="65" y="435.9277">UMLDoclet 2.0.12, PlantUML 1.2020.16</text><!--MD5=[1862db500f2339efd09ada5ba737e44e]
@startuml
    set namespaceSeparator none
    hide empty fields
    hide empty methods

    class "<size:14>DefaultRSSGenerator\n<size:10>org.apache.wiki.rss" as org.apache.wiki.rss.DefaultRSSGenerator [[DefaultRSSGenerator.html]] {
        +DefaultRSSGenerator(Engine, Properties)
        +initialize(Engine, Properties): void
        +generate(): String
        +generateFeed(Context, List<Page>, String, String): String
        +isEnabled(): boolean
        +setEnabled(boolean): void
        +getRssFile(): String
        +generateFullWikiRSS(Context, Feed): String
        +generateWikiPageRSS(Context, List<Page>, Feed): String
        +generateBlogRSS(Context, List<Page>, Feed): String
    }

    interface "<size:14>RSSGenerator\n<size:10>org.apache.wiki.rss" as org.apache.wiki.rss.RSSGenerator [[RSSGenerator.html]] {
        {abstract} +generate(): String
        {abstract} +generateFeed(Context, List<Page>, String, String): String
        {abstract} +isEnabled(): boolean
        {abstract} +setEnabled(boolean): void
        {abstract} +getRssFile(): String
        {abstract} +generateFullWikiRSS(Context, Feed): String
        {abstract} +generateWikiPageRSS(Context, List<Page>, Feed): String
        {abstract} +generateBlogRSS(Context, List<Page>, Feed): String
    }

    org.apache.wiki.rss.RSSGenerator <|.. org.apache.wiki.rss.DefaultRSSGenerator

    center footer UMLDoclet 2.0.12, PlantUML 1.2020.16
@enduml

PlantUML version 1.2020.16(Sun Aug 23 22:20:43 CEST 2020)
(APACHE source distribution)
Java Runtime: OpenJDK Runtime Environment
JVM: OpenJDK 64-Bit Server VM
Default Encoding: Cp1252
Language: es
Country: ES
--></g></svg>