<?xml version="1.0" encoding="UTF-8" standalone="no"?><svg xmlns="http://www.w3.org/2000/svg" xmlns:xlink="http://www.w3.org/1999/xlink" contentScriptType="application/ecmascript" contentStyleType="text/css" height="484px" preserveAspectRatio="none" style="width:867px;height:484px;" version="1.1" viewBox="0 0 867 484" width="867px" zoomAndPan="magnify"><defs><filter height="300%" id="fdcb0fyyqmoxx" width="300%" x="-1" y="-1"><feGaussianBlur result="blurOut" stdDeviation="2.0"/><feColorMatrix in="blurOut" result="blurOut2" type="matrix" values="0 0 0 0 0 0 0 0 0 0 0 0 0 0 0 0 0 0 .4 0"/><feOffset dx="4.0" dy="4.0" in="blurOut2" result="blurOut3"/><feBlend in="SourceGraphic" in2="blurOut3" mode="normal"/></filter></defs><g><!--MD5=[6e594fdbb075d8f8a18805139be3e305]
class org.apache.wiki.render.RenderingManager--><a href="RenderingManager.html" target="_top" title="RenderingManager.html" xlink:actuate="onRequest" xlink:href="RenderingManager.html" xlink:show="new" xlink:title="RenderingManager.html" xlink:type="simple"><rect codeLine="5" fill="#FEFECE" filter="url(#fdcb0fyyqmoxx)" height="319.0703" id="org.apache.wiki.render.RenderingManager" style="stroke: #A80036; stroke-width: 1.5;" width="598" x="143.5" y="129"/><ellipse cx="376.75" cy="149.0938" fill="#B4A7E5" rx="11" ry="11" style="stroke: #A80036; stroke-width: 1.0;"/><path d="M377.7031,145.7344 L377.7031,152.3906 L379.4219,152.3906 Q380.0313,152.3906 380.2969,152.625 Q380.5625,152.8594 380.5625,153.25 Q380.5625,153.625 380.2969,153.8594 Q380.0313,154.0938 379.4219,154.0938 L374.2813,154.0938 Q373.6719,154.0938 373.4063,153.8594 Q373.1406,153.625 373.1406,153.2344 Q373.1406,152.8594 373.4063,152.625 Q373.6719,152.3906 374.2813,152.3906 L376,152.3906 L376,145.7344 L374.2813,145.7344 Q373.6719,145.7344 373.4063,145.5 Q373.1406,145.2656 373.1406,144.875 Q373.1406,144.5 373.4063,144.2656 Q373.6719,144.0313 374.2813,144.0313 L379.4219,144.0313 Q380.0313,144.0313 380.2969,144.2656 Q380.5625,144.5 380.5625,144.875 Q380.5625,145.2656 380.2969,145.5 Q380.0313,145.7344 379.4219,145.7344 L377.7031,145.7344 Z "/><text fill="#000000" font-family="sans-serif" font-size="14" font-style="italic" lengthAdjust="spacingAndGlyphs" textLength="123" x="397.25" y="148.5332">RenderingManager</text><text fill="#000000" font-family="sans-serif" font-size="10" font-style="italic" lengthAdjust="spacingAndGlyphs" textLength="108" x="404.75" y="161.9902">org.apache.wiki.render</text><line style="stroke: #A80036; stroke-width: 1.5;" x1="144.5" x2="740.5" y1="169.1875" y2="169.1875"/><ellipse cx="154.5" cy="180.1875" fill="none" rx="3" ry="3" style="stroke: #038048; stroke-width: 1.0;"/><text fill="#000000" font-family="sans-serif" font-size="11" lengthAdjust="spacingAndGlyphs" text-decoration="underline" textLength="108" x="163.5" y="184.6064">PROP_PARSER: String</text><ellipse cx="154.5" cy="194.0234" fill="none" rx="3" ry="3" style="stroke: #038048; stroke-width: 1.0;"/><text fill="#000000" font-family="sans-serif" font-size="11" lengthAdjust="spacingAndGlyphs" text-decoration="underline" textLength="120" x="163.5" y="198.4424">PROP_RENDERER: String</text><ellipse cx="154.5" cy="207.8594" fill="none" rx="3" ry="3" style="stroke: #038048; stroke-width: 1.0;"/><text fill="#000000" font-family="sans-serif" font-size="11" lengthAdjust="spacingAndGlyphs" text-decoration="underline" textLength="179" x="163.5" y="212.2783">PROP_WYSIWYG_RENDERER: String</text><ellipse cx="154.5" cy="221.6953" fill="none" rx="3" ry="3" style="stroke: #038048; stroke-width: 1.0;"/><text fill="#000000" font-family="sans-serif" font-size="11" lengthAdjust="spacingAndGlyphs" text-decoration="underline" textLength="143" x="163.5" y="226.1143">PROP_BEAUTIFYTITLE: String</text><ellipse cx="154.5" cy="235.5313" fill="none" rx="3" ry="3" style="stroke: #038048; stroke-width: 1.0;"/><text fill="#000000" font-family="sans-serif" font-size="11" lengthAdjust="spacingAndGlyphs" text-decoration="underline" textLength="160" x="163.5" y="239.9502">DOCUMENTCACHE_NAME: String</text><line style="stroke: #A80036; stroke-width: 1.5;" x1="144.5" x2="740.5" y1="246.3672" y2="246.3672"/><ellipse cx="154.5" cy="257.3672" fill="#84BE84" rx="3" ry="3" style="stroke: #038048; stroke-width: 1.0;"/><text fill="#000000" font-family="sans-serif" font-size="11" font-style="italic" lengthAdjust="spacingAndGlyphs" textLength="133" x="163.5" y="261.7861">beautifyTitle(String): String</text><ellipse cx="154.5" cy="271.2031" fill="#84BE84" rx="3" ry="3" style="stroke: #038048; stroke-width: 1.0;"/><text fill="#000000" font-family="sans-serif" font-size="11" font-style="italic" lengthAdjust="spacingAndGlyphs" textLength="176" x="163.5" y="275.6221">beautifyTitleNoBreak(String): String</text><ellipse cx="154.5" cy="285.0391" fill="#84BE84" rx="3" ry="3" style="stroke: #038048; stroke-width: 1.0;"/><text fill="#000000" font-family="sans-serif" font-size="11" font-style="italic" lengthAdjust="spacingAndGlyphs" textLength="205" x="163.5" y="289.458">getParser(Context, String): MarkupParser</text><ellipse cx="154.5" cy="298.875" fill="#84BE84" rx="3" ry="3" style="stroke: #038048; stroke-width: 1.0;"/><text fill="#000000" font-family="sans-serif" font-size="11" font-style="italic" lengthAdjust="spacingAndGlyphs" textLength="273" x="163.5" y="303.2939">getRenderedDocument(Context, String): WikiDocument</text><ellipse cx="154.5" cy="312.7109" fill="#84BE84" rx="3" ry="3" style="stroke: #038048; stroke-width: 1.0;"/><text fill="#000000" font-family="sans-serif" font-size="11" font-style="italic" lengthAdjust="spacingAndGlyphs" textLength="261" x="163.5" y="317.1299">getRenderer(Context, WikiDocument): WikiRenderer</text><ellipse cx="154.5" cy="326.5469" fill="#84BE84" rx="3" ry="3" style="stroke: #038048; stroke-width: 1.0;"/><text fill="#000000" font-family="sans-serif" font-size="11" font-style="italic" lengthAdjust="spacingAndGlyphs" textLength="304" x="163.5" y="330.9658">getWysiwygRenderer(Context, WikiDocument): WikiRenderer</text><ellipse cx="154.5" cy="340.3828" fill="#84BE84" rx="3" ry="3" style="stroke: #038048; stroke-width: 1.0;"/><text fill="#000000" font-family="sans-serif" font-size="11" font-style="italic" lengthAdjust="spacingAndGlyphs" textLength="205" x="163.5" y="344.8018">getHTML(Context, WikiDocument): String</text><ellipse cx="154.5" cy="354.2188" fill="#84BE84" rx="3" ry="3" style="stroke: #038048; stroke-width: 1.0;"/><text fill="#000000" font-family="sans-serif" font-size="11" font-style="italic" lengthAdjust="spacingAndGlyphs" textLength="157" x="163.5" y="358.6377">getHTML(Context, Page): String</text><ellipse cx="154.5" cy="368.0547" fill="#84BE84" rx="3" ry="3" style="stroke: #038048; stroke-width: 1.0;"/><text fill="#000000" font-family="sans-serif" font-size="11" font-style="italic" lengthAdjust="spacingAndGlyphs" textLength="135" x="163.5" y="372.4736">getHTML(String, int): String</text><ellipse cx="154.5" cy="381.8906" fill="#84BE84" rx="3" ry="3" style="stroke: #038048; stroke-width: 1.0;"/><text fill="#000000" font-family="sans-serif" font-size="11" lengthAdjust="spacingAndGlyphs" textLength="155" x="163.5" y="386.3096">getHTML(Context, String): String</text><ellipse cx="154.5" cy="395.7266" fill="#84BE84" rx="3" ry="3" style="stroke: #038048; stroke-width: 1.0;"/><text fill="#000000" font-family="sans-serif" font-size="11" lengthAdjust="spacingAndGlyphs" textLength="112" x="163.5" y="400.1455">getHTML(String): String</text><ellipse cx="154.5" cy="409.5625" fill="#84BE84" rx="3" ry="3" style="stroke: #038048; stroke-width: 1.0;"/><text fill="#000000" font-family="sans-serif" font-size="11" font-style="italic" lengthAdjust="spacingAndGlyphs" textLength="572" x="163.5" y="413.9814">textToHTML(Context, String, StringTransmutator, StringTransmutator, StringTransmutator, boolean, boolean): String</text><ellipse cx="154.5" cy="423.3984" fill="#84BE84" rx="3" ry="3" style="stroke: #038048; stroke-width: 1.0;"/><text fill="#000000" font-family="sans-serif" font-size="11" lengthAdjust="spacingAndGlyphs" textLength="366" x="163.5" y="427.8174">textToHTML(Context, String, StringTransmutator, StringTransmutator): String</text><ellipse cx="154.5" cy="437.2344" fill="#84BE84" rx="3" ry="3" style="stroke: #038048; stroke-width: 1.0;"/><text fill="#000000" font-family="sans-serif" font-size="11" lengthAdjust="spacingAndGlyphs" textLength="464" x="163.5" y="441.6533">textToHTML(Context, String, StringTransmutator, StringTransmutator, StringTransmutator): String</text></a><!--MD5=[58109a6d9b4ddee4f79158fbe9ae1694]
class org.apache.wiki.api.engine.RenderApi--><a href="..\api\engine\RenderApi.html" target="_top" title="..\api\engine\RenderApi.html" xlink:actuate="onRequest" xlink:href="..\api\engine\RenderApi.html" xlink:show="new" xlink:title="..\api\engine\RenderApi.html" xlink:type="simple"><rect codeLine="27" fill="#FEFECE" filter="url(#fdcb0fyyqmoxx)" height="62.0234" id="org.apache.wiki.api.engine.RenderApi" style="stroke: #A80036; stroke-width: 1.5;" width="203" x="7" y="7"/><ellipse cx="40.9" cy="27.0938" fill="#B4A7E5" rx="11" ry="11" style="stroke: #A80036; stroke-width: 1.0;"/><path d="M41.8531,23.7344 L41.8531,30.3906 L43.5719,30.3906 Q44.1813,30.3906 44.4469,30.625 Q44.7125,30.8594 44.7125,31.25 Q44.7125,31.625 44.4469,31.8594 Q44.1813,32.0938 43.5719,32.0938 L38.4313,32.0938 Q37.8219,32.0938 37.5563,31.8594 Q37.2906,31.625 37.2906,31.2344 Q37.2906,30.8594 37.5563,30.625 Q37.8219,30.3906 38.4313,30.3906 L40.15,30.3906 L40.15,23.7344 L38.4313,23.7344 Q37.8219,23.7344 37.5563,23.5 Q37.2906,23.2656 37.2906,22.875 Q37.2906,22.5 37.5563,22.2656 Q37.8219,22.0313 38.4313,22.0313 L43.5719,22.0313 Q44.1813,22.0313 44.4469,22.2656 Q44.7125,22.5 44.7125,22.875 Q44.7125,23.2656 44.4469,23.5 Q44.1813,23.7344 43.5719,23.7344 L41.8531,23.7344 Z "/><text fill="#000000" font-family="sans-serif" font-size="14" font-style="italic" lengthAdjust="spacingAndGlyphs" textLength="67" x="90.1" y="26.5332">RenderApi</text><text fill="#000000" font-family="sans-serif" font-size="10" font-style="italic" lengthAdjust="spacingAndGlyphs" textLength="129" x="59.1" y="39.9902">org.apache.wiki.api.engine</text><line style="stroke: #A80036; stroke-width: 1.5;" x1="8" x2="209" y1="47.1875" y2="47.1875"/><ellipse cx="18" cy="58.1875" fill="#84BE84" rx="3" ry="3" style="stroke: #038048; stroke-width: 1.0;"/><text fill="#000000" font-family="sans-serif" font-size="11" font-style="italic" lengthAdjust="spacingAndGlyphs" textLength="177" x="27" y="62.6064">textToHTML(Context, String): String</text></a><!--MD5=[8c616ba9df2429bf0adc99a32a005079]
class org.apache.wiki.event.WikiEventListener--><a href="..\event\WikiEventListener.html" target="_top" title="..\event\WikiEventListener.html" xlink:actuate="onRequest" xlink:href="..\event\WikiEventListener.html" xlink:show="new" xlink:title="..\event\WikiEventListener.html" xlink:type="simple"><rect codeLine="30" fill="#FEFECE" filter="url(#fdcb0fyyqmoxx)" height="62.0234" id="org.apache.wiki.event.WikiEventListener" style="stroke: #A80036; stroke-width: 1.5;" width="191" x="245" y="7"/><ellipse cx="280.25" cy="27.0938" fill="#B4A7E5" rx="11" ry="11" style="stroke: #A80036; stroke-width: 1.0;"/><path d="M281.2031,23.7344 L281.2031,30.3906 L282.9219,30.3906 Q283.5313,30.3906 283.7969,30.625 Q284.0625,30.8594 284.0625,31.25 Q284.0625,31.625 283.7969,31.8594 Q283.5313,32.0938 282.9219,32.0938 L277.7813,32.0938 Q277.1719,32.0938 276.9063,31.8594 Q276.6406,31.625 276.6406,31.2344 Q276.6406,30.8594 276.9063,30.625 Q277.1719,30.3906 277.7813,30.3906 L279.5,30.3906 L279.5,23.7344 L277.7813,23.7344 Q277.1719,23.7344 276.9063,23.5 Q276.6406,23.2656 276.6406,22.875 Q276.6406,22.5 276.9063,22.2656 Q277.1719,22.0313 277.7813,22.0313 L282.9219,22.0313 Q283.5313,22.0313 283.7969,22.2656 Q284.0625,22.5 284.0625,22.875 Q284.0625,23.2656 283.7969,23.5 Q283.5313,23.7344 282.9219,23.7344 L281.2031,23.7344 Z "/><text fill="#000000" font-family="sans-serif" font-size="14" font-style="italic" lengthAdjust="spacingAndGlyphs" textLength="114" x="298.75" y="26.5332">WikiEventListener</text><text fill="#000000" font-family="sans-serif" font-size="10" font-style="italic" lengthAdjust="spacingAndGlyphs" textLength="104" x="303.75" y="39.9902">org.apache.wiki.event</text><line style="stroke: #A80036; stroke-width: 1.5;" x1="246" x2="435" y1="47.1875" y2="47.1875"/><ellipse cx="256" cy="58.1875" fill="#84BE84" rx="3" ry="3" style="stroke: #038048; stroke-width: 1.0;"/><text fill="#000000" font-family="sans-serif" font-size="11" font-style="italic" lengthAdjust="spacingAndGlyphs" textLength="165" x="265" y="62.6064">actionPerformed(WikiEvent): void</text></a><!--MD5=[b7bc5679f73a21bab50bb2c40ae49e22]
class org.apache.wiki.modules.InternalModule--><a href="..\modules\InternalModule.html" target="_top" title="..\modules\InternalModule.html" xlink:actuate="onRequest" xlink:href="..\modules\InternalModule.html" xlink:show="new" xlink:title="..\modules\InternalModule.html" xlink:type="simple"><rect codeLine="33" fill="#FEFECE" filter="url(#fdcb0fyyqmoxx)" height="40.1875" id="org.apache.wiki.modules.InternalModule" style="stroke: #A80036; stroke-width: 1.5;" width="149" x="471" y="18"/><ellipse cx="486" cy="38.0938" fill="#B4A7E5" rx="11" ry="11" style="stroke: #A80036; stroke-width: 1.0;"/><path d="M486.9531,34.7344 L486.9531,41.3906 L488.6719,41.3906 Q489.2813,41.3906 489.5469,41.625 Q489.8125,41.8594 489.8125,42.25 Q489.8125,42.625 489.5469,42.8594 Q489.2813,43.0938 488.6719,43.0938 L483.5313,43.0938 Q482.9219,43.0938 482.6563,42.8594 Q482.3906,42.625 482.3906,42.2344 Q482.3906,41.8594 482.6563,41.625 Q482.9219,41.3906 483.5313,41.3906 L485.25,41.3906 L485.25,34.7344 L483.5313,34.7344 Q482.9219,34.7344 482.6563,34.5 Q482.3906,34.2656 482.3906,33.875 Q482.3906,33.5 482.6563,33.2656 Q482.9219,33.0313 483.5313,33.0313 L488.6719,33.0313 Q489.2813,33.0313 489.5469,33.2656 Q489.8125,33.5 489.8125,33.875 Q489.8125,34.2656 489.5469,34.5 Q489.2813,34.7344 488.6719,34.7344 L486.9531,34.7344 Z "/><text fill="#000000" font-family="sans-serif" font-size="14" font-style="italic" lengthAdjust="spacingAndGlyphs" textLength="95" x="511" y="37.5332">InternalModule</text><text fill="#000000" font-family="sans-serif" font-size="10" font-style="italic" lengthAdjust="spacingAndGlyphs" textLength="117" x="500" y="50.9902">org.apache.wiki.modules</text></a><!--MD5=[b42cfcd16e39a0fd6a37261d508d7333]
class org.apache.wiki.api.engine.Initializable--><a href="..\api\engine\Initializable.html" target="_top" title="..\api\engine\Initializable.html" xlink:actuate="onRequest" xlink:href="..\api\engine\Initializable.html" xlink:show="new" xlink:title="..\api\engine\Initializable.html" xlink:type="simple"><rect codeLine="34" fill="#FEFECE" filter="url(#fdcb0fyyqmoxx)" height="62.0234" id="org.apache.wiki.api.engine.Initializable" style="stroke: #A80036; stroke-width: 1.5;" width="193" x="655" y="7"/><ellipse cx="684.4" cy="27.0938" fill="#B4A7E5" rx="11" ry="11" style="stroke: #A80036; stroke-width: 1.0;"/><path d="M685.3531,23.7344 L685.3531,30.3906 L687.0719,30.3906 Q687.6813,30.3906 687.9469,30.625 Q688.2125,30.8594 688.2125,31.25 Q688.2125,31.625 687.9469,31.8594 Q687.6813,32.0938 687.0719,32.0938 L681.9313,32.0938 Q681.3219,32.0938 681.0563,31.8594 Q680.7906,31.625 680.7906,31.2344 Q680.7906,30.8594 681.0563,30.625 Q681.3219,30.3906 681.9313,30.3906 L683.65,30.3906 L683.65,23.7344 L681.9313,23.7344 Q681.3219,23.7344 681.0563,23.5 Q680.7906,23.2656 680.7906,22.875 Q680.7906,22.5 681.0563,22.2656 Q681.3219,22.0313 681.9313,22.0313 L687.0719,22.0313 Q687.6813,22.0313 687.9469,22.2656 Q688.2125,22.5 688.2125,22.875 Q688.2125,23.2656 687.9469,23.5 Q687.6813,23.7344 687.0719,23.7344 L685.3531,23.7344 Z "/><text fill="#000000" font-family="sans-serif" font-size="14" font-style="italic" lengthAdjust="spacingAndGlyphs" textLength="70" x="731.1" y="26.5332">Initializable</text><text fill="#000000" font-family="sans-serif" font-size="10" font-style="italic" lengthAdjust="spacingAndGlyphs" textLength="129" x="701.6" y="39.9902">org.apache.wiki.api.engine</text><line style="stroke: #A80036; stroke-width: 1.5;" x1="656" x2="847" y1="47.1875" y2="47.1875"/><ellipse cx="666" cy="58.1875" fill="#84BE84" rx="3" ry="3" style="stroke: #038048; stroke-width: 1.0;"/><text fill="#000000" font-family="sans-serif" font-size="11" font-style="italic" lengthAdjust="spacingAndGlyphs" textLength="167" x="675" y="62.6064">initialize(Engine, Properties): void</text></a><!--MD5=[085e4af89f663d9a0b0c1da35c841511]
reverse link org.apache.wiki.api.engine.RenderApi to org.apache.wiki.render.RenderingManager--><path codeLine="38" d="M166.2014,81.276 C184.7481,95.1861 206.502,111.5015 229.5198,128.7648 " fill="none" id="org.apache.wiki.api.engine.RenderApi-backto-org.apache.wiki.render.RenderingManager" style="stroke: #A80036; stroke-width: 1.0;"/><polygon fill="none" points="161.926,86.8196,150.126,69.2195,170.326,75.6195,161.926,86.8196" style="stroke: #A80036; stroke-width: 1.0;"/><!--MD5=[d6ad290e80184e99fcf30b6a763a97ee]
reverse link org.apache.wiki.event.WikiEventListener to org.apache.wiki.render.RenderingManager--><path codeLine="39" d="M360.7889,87.8271 C365.8281,100.2028 371.5047,114.1439 377.4581,128.7648 " fill="none" id="org.apache.wiki.event.WikiEventListener-backto-org.apache.wiki.render.RenderingManager" style="stroke: #A80036; stroke-width: 1.0;"/><polygon fill="none" points="354.2715,90.3827,353.2121,69.2195,367.2378,85.1029,354.2715,90.3827" style="stroke: #A80036; stroke-width: 1.0;"/><!--MD5=[d578fae8ddea6a72ef0738eaac51ee32]
reverse link org.apache.wiki.modules.InternalModule to org.apache.wiki.render.RenderingManager--><path codeLine="40" d="M529.5482,76.7954 C523.4258,91.6853 515.9946,109.7583 508.0831,128.9995 " fill="none" id="org.apache.wiki.modules.InternalModule-backto-org.apache.wiki.render.RenderingManager" style="stroke: #A80036; stroke-width: 1.0;"/><polygon fill="none" points="523.1653,73.9114,537.2452,58.076,536.1135,79.2354,523.1653,73.9114" style="stroke: #A80036; stroke-width: 1.0;"/><!--MD5=[f11cea714489a1ce21dcbf3449e9ef8d]
reverse link org.apache.wiki.api.engine.Initializable to org.apache.wiki.render.RenderingManager--><path codeLine="41" d="M697.3276,81.9164 C680.3427,95.6858 660.5075,111.7657 639.5386,128.7648 " fill="none" id="org.apache.wiki.api.engine.Initializable-backto-org.apache.wiki.render.RenderingManager" style="stroke: #A80036; stroke-width: 1.0;"/><polygon fill="none" points="693.0454,76.3767,712.9897,69.2195,701.8618,87.252,693.0454,76.3767" style="stroke: #A80036; stroke-width: 1.0;"/><text fill="#888888" font-family="sans-serif" font-size="10" lengthAdjust="spacingAndGlyphs" textLength="190" x="329.5" y="471.4512">UMLDoclet 2.0.12, PlantUML 1.2020.16</text><!--MD5=[6e55f20ed6ce37a61877273b5801fb06]
@startuml
    set namespaceSeparator none
    hide empty fields
    hide empty methods

    interface "<size:14>RenderingManager\n<size:10>org.apache.wiki.render" as org.apache.wiki.render.RenderingManager [[RenderingManager.html]] {
        {static} +PROP_PARSER: String
        {static} +PROP_RENDERER: String
        {static} +PROP_WYSIWYG_RENDERER: String
        {static} +PROP_BEAUTIFYTITLE: String
        {static} +DOCUMENTCACHE_NAME: String
        {abstract} +beautifyTitle(String): String
        {abstract} +beautifyTitleNoBreak(String): String
        {abstract} +getParser(Context, String): MarkupParser
        {abstract} +getRenderedDocument(Context, String): WikiDocument
        {abstract} +getRenderer(Context, WikiDocument): WikiRenderer
        {abstract} +getWysiwygRenderer(Context, WikiDocument): WikiRenderer
        {abstract} +getHTML(Context, WikiDocument): String
        {abstract} +getHTML(Context, Page): String
        {abstract} +getHTML(String, int): String
        +getHTML(Context, String): String
        +getHTML(String): String
        {abstract} +textToHTML(Context, String, StringTransmutator, StringTransmutator, StringTransmutator, boolean, boolean): String
        +textToHTML(Context, String, StringTransmutator, StringTransmutator): String
        +textToHTML(Context, String, StringTransmutator, StringTransmutator, StringTransmutator): String
    }

    interface "<size:14>RenderApi\n<size:10>org.apache.wiki.api.engine" as org.apache.wiki.api.engine.RenderApi [[..\api\engine\RenderApi.html]] {
        {abstract} +textToHTML(Context, String): String
    }
    interface "<size:14>WikiEventListener\n<size:10>org.apache.wiki.event" as org.apache.wiki.event.WikiEventListener [[..\event\WikiEventListener.html]] {
        {abstract} +actionPerformed(WikiEvent): void
    }
    interface "<size:14>InternalModule\n<size:10>org.apache.wiki.modules" as org.apache.wiki.modules.InternalModule [[..\modules\InternalModule.html]]
    interface "<size:14>Initializable\n<size:10>org.apache.wiki.api.engine" as org.apache.wiki.api.engine.Initializable [[..\api\engine\Initializable.html]] {
        {abstract} +initialize(Engine, Properties): void
    }

    org.apache.wiki.api.engine.RenderApi <|- - org.apache.wiki.render.RenderingManager
    org.apache.wiki.event.WikiEventListener <|- - org.apache.wiki.render.RenderingManager
    org.apache.wiki.modules.InternalModule <|- - org.apache.wiki.render.RenderingManager
    org.apache.wiki.api.engine.Initializable <|- - org.apache.wiki.render.RenderingManager

    center footer UMLDoclet 2.0.12, PlantUML 1.2020.16
@enduml

PlantUML version 1.2020.16(Sun Aug 23 22:20:43 CEST 2020)
(APACHE source distribution)
Java Runtime: OpenJDK Runtime Environment
JVM: OpenJDK 64-Bit Server VM
Default Encoding: Cp1252
Language: es
Country: ES
--></g></svg>