<?xml version="1.0" encoding="UTF-8" standalone="no"?><svg xmlns="http://www.w3.org/2000/svg" xmlns:xlink="http://www.w3.org/1999/xlink" contentScriptType="application/ecmascript" contentStyleType="text/css" height="598px" preserveAspectRatio="none" style="width:1283px;height:598px;" version="1.1" viewBox="0 0 1283 598" width="1283px" zoomAndPan="magnify"><defs><filter height="300%" id="fdg0fmherot2p" width="300%" x="-1" y="-1"><feGaussianBlur result="blurOut" stdDeviation="2.0"/><feColorMatrix in="blurOut" result="blurOut2" type="matrix" values="0 0 0 0 0 0 0 0 0 0 0 0 0 0 0 0 0 0 .4 0"/><feOffset dx="4.0" dy="4.0" in="blurOut2" result="blurOut3"/><feBlend in="SourceGraphic" in2="blurOut3" mode="normal"/></filter></defs><g><!--cluster org.apache.wiki.ui.admin.beans--><polygon fill="#FFFFFF" filter="url(#fdg0fmherot2p)" points="35,162,290,162,297,184.2969,1261,184.2969,1261,558,35,558,35,162" style="stroke: #000000; stroke-width: 1.5;"/><line style="stroke: #000000; stroke-width: 1.5;" x1="35" x2="297" y1="184.2969" y2="184.2969"/><text fill="#000000" font-family="sans-serif" font-size="14" font-weight="bold" lengthAdjust="spacingAndGlyphs" textLength="249" x="39" y="176.9951">org.apache.wiki.ui.admin.beans</text><!--cluster org.apache.wiki.management--><polygon fill="#FFFFFF" filter="url(#fdg0fmherot2p)" points="14,22,252,22,259,44.2969,262,44.2969,262,131,14,131,14,22" style="stroke: #000000; stroke-width: 1.5;"/><line style="stroke: #000000; stroke-width: 1.5;" x1="14" x2="259" y1="44.2969" y2="44.2969"/><text fill="#000000" font-family="sans-serif" font-size="14" font-weight="bold" lengthAdjust="spacingAndGlyphs" textLength="232" x="18" y="36.9951">org.apache.wiki.management</text><!--cluster org.apache.wiki.ui.admin--><polygon fill="#FFFFFF" filter="url(#fdg0fmherot2p)" points="344,16,546,16,553,38.2969,712,38.2969,712,137,344,137,344,16" style="stroke: #000000; stroke-width: 1.5;"/><line style="stroke: #000000; stroke-width: 1.5;" x1="344" x2="553" y1="38.2969" y2="38.2969"/><text fill="#000000" font-family="sans-serif" font-size="14" font-weight="bold" lengthAdjust="spacingAndGlyphs" textLength="196" x="348" y="30.9951">org.apache.wiki.ui.admin</text><!--class org.apache.wiki.ui.admin.beans.PlainEditorAdminBean--><a href="PlainEditorAdminBean.html" target="_top" xlink:actuate="onRequest" xlink:show="new" xlink:title="PlainEditorAdminBean.html" xlink:type="simple"><rect fill="#FEFECE" filter="url(#fdg0fmherot2p)" height="176.0469" id="org.apache.wiki.ui.admin.beans.PlainEditorAdminBean" style="stroke: #A80036; stroke-width: 1.5;" width="190" x="43" y="189"/><ellipse cx="67.45" cy="205" fill="#ADD1B2" rx="11" ry="11" style="stroke: #A80036; stroke-width: 1.0;"/><path d="M70.4188,210.6406 Q69.8406,210.9375 69.2,211.0859 Q68.5594,211.2344 67.8563,211.2344 Q65.3563,211.2344 64.0359,209.5859 Q62.7156,207.9375 62.7156,204.8125 Q62.7156,201.6875 64.0359,200.0313 Q65.3563,198.375 67.8563,198.375 Q68.5594,198.375 69.2078,198.5313 Q69.8563,198.6875 70.4188,198.9844 L70.4188,201.7031 Q69.7938,201.125 69.2,200.8516 Q68.6063,200.5781 67.9813,200.5781 Q66.6375,200.5781 65.95,201.6484 Q65.2625,202.7188 65.2625,204.8125 Q65.2625,206.9063 65.95,207.9766 Q66.6375,209.0469 67.9813,209.0469 Q68.6063,209.0469 69.2,208.7734 Q69.7938,208.5 70.4188,207.9219 L70.4188,210.6406 Z "/><text fill="#000000" font-family="sans-serif" font-size="12" lengthAdjust="spacingAndGlyphs" textLength="137" x="83.55" y="209.1543">PlainEditorAdminBean</text><line style="stroke: #A80036; stroke-width: 1.5;" x1="44" x2="232" y1="221" y2="221"/><line style="stroke: #A80036; stroke-width: 1.5;" x1="44" x2="232" y1="229" y2="229"/><ellipse cx="54" cy="240.9023" fill="#84BE84" rx="3" ry="3" style="stroke: #038048; stroke-width: 1.0;"/><text fill="#000000" font-family="sans-serif" font-size="11" lengthAdjust="spacingAndGlyphs" textLength="148" x="63" y="243.2104">doGet(WikiContext): String</text><ellipse cx="54" cy="253.707" fill="#84BE84" rx="3" ry="3" style="stroke: #038048; stroke-width: 1.0;"/><text fill="#000000" font-family="sans-serif" font-size="11" lengthAdjust="spacingAndGlyphs" textLength="153" x="63" y="256.0151">doPost(WikiContext): String</text><ellipse cx="54" cy="266.5117" fill="#84BE84" rx="3" ry="3" style="stroke: #038048; stroke-width: 1.0;"/><text fill="#000000" font-family="sans-serif" font-size="11" lengthAdjust="spacingAndGlyphs" textLength="92" x="63" y="268.8198">getTitle(): String</text><ellipse cx="54" cy="279.3164" fill="#84BE84" rx="3" ry="3" style="stroke: #038048; stroke-width: 1.0;"/><text fill="#000000" font-family="sans-serif" font-size="11" lengthAdjust="spacingAndGlyphs" textLength="75" x="63" y="281.6245">getType(): int</text><ellipse cx="54" cy="292.1211" fill="#84BE84" rx="3" ry="3" style="stroke: #038048; stroke-width: 1.0;"/><text fill="#000000" font-family="sans-serif" font-size="11" lengthAdjust="spacingAndGlyphs" textLength="116" x="63" y="294.4292">isEnabled(): boolean</text><ellipse cx="54" cy="304.9258" fill="#84BE84" rx="3" ry="3" style="stroke: #038048; stroke-width: 1.0;"/><text fill="#000000" font-family="sans-serif" font-size="11" lengthAdjust="spacingAndGlyphs" textLength="78" x="63" y="307.2339">getId(): String</text><ellipse cx="54" cy="317.7305" fill="#84BE84" rx="3" ry="3" style="stroke: #038048; stroke-width: 1.0;"/><text fill="#000000" font-family="sans-serif" font-size="11" lengthAdjust="spacingAndGlyphs" textLength="127" x="63" y="320.0386">getChecked(): boolean</text><ellipse cx="54" cy="330.5352" fill="#84BE84" rx="3" ry="3" style="stroke: #038048; stroke-width: 1.0;"/><text fill="#000000" font-family="sans-serif" font-size="11" lengthAdjust="spacingAndGlyphs" textLength="164" x="63" y="332.8433">getAttributeNames(): String[]</text><ellipse cx="54" cy="343.3398" fill="#84BE84" rx="3" ry="3" style="stroke: #038048; stroke-width: 1.0;"/><text fill="#000000" font-family="sans-serif" font-size="11" lengthAdjust="spacingAndGlyphs" textLength="157" x="63" y="345.6479">getMethodNames(): String[]</text><ellipse cx="54" cy="356.1445" fill="#84BE84" rx="3" ry="3" style="stroke: #038048; stroke-width: 1.0;"/><text fill="#000000" font-family="sans-serif" font-size="11" lengthAdjust="spacingAndGlyphs" textLength="143" x="63" y="358.4526">initialize(WikiEngine): void</text></a><!--class org.apache.wiki.ui.admin.beans.PluginBean--><a href="PluginBean.html" target="_top" xlink:actuate="onRequest" xlink:show="new" xlink:title="PluginBean.html" xlink:type="simple"><rect fill="#FEFECE" filter="url(#fdg0fmherot2p)" height="124.8281" id="org.apache.wiki.ui.admin.beans.PluginBean" style="stroke: #A80036; stroke-width: 1.5;" width="246" x="368" y="425"/><ellipse cx="451.75" cy="441" fill="#ADD1B2" rx="11" ry="11" style="stroke: #A80036; stroke-width: 1.0;"/><path d="M454.7188,446.6406 Q454.1406,446.9375 453.5,447.0859 Q452.8594,447.2344 452.1563,447.2344 Q449.6563,447.2344 448.3359,445.5859 Q447.0156,443.9375 447.0156,440.8125 Q447.0156,437.6875 448.3359,436.0313 Q449.6563,434.375 452.1563,434.375 Q452.8594,434.375 453.5078,434.5313 Q454.1563,434.6875 454.7188,434.9844 L454.7188,437.7031 Q454.0938,437.125 453.5,436.8516 Q452.9063,436.5781 452.2813,436.5781 Q450.9375,436.5781 450.25,437.6484 Q449.5625,438.7188 449.5625,440.8125 Q449.5625,442.9063 450.25,443.9766 Q450.9375,445.0469 452.2813,445.0469 Q452.9063,445.0469 453.5,444.7734 Q454.0938,444.5 454.7188,443.9219 L454.7188,446.6406 Z "/><text fill="#000000" font-family="sans-serif" font-size="12" lengthAdjust="spacingAndGlyphs" textLength="70" x="472.25" y="445.1543">PluginBean</text><line style="stroke: #A80036; stroke-width: 1.5;" x1="369" x2="613" y1="457" y2="457"/><line style="stroke: #A80036; stroke-width: 1.5;" x1="369" x2="613" y1="465" y2="465"/><ellipse cx="379" cy="476.9023" fill="#84BE84" rx="3" ry="3" style="stroke: #038048; stroke-width: 1.0;"/><text fill="#000000" font-family="sans-serif" font-size="11" lengthAdjust="spacingAndGlyphs" textLength="130" x="388" y="479.2104">PluginBean(WikiEngine)</text><ellipse cx="379" cy="489.707" fill="#84BE84" rx="3" ry="3" style="stroke: #038048; stroke-width: 1.0;"/><text fill="#000000" font-family="sans-serif" font-size="11" lengthAdjust="spacingAndGlyphs" textLength="92" x="388" y="492.0151">getTitle(): String</text><ellipse cx="379" cy="502.5117" fill="#84BE84" rx="3" ry="3" style="stroke: #038048; stroke-width: 1.0;"/><text fill="#000000" font-family="sans-serif" font-size="11" lengthAdjust="spacingAndGlyphs" textLength="75" x="388" y="504.8198">getType(): int</text><polygon fill="#FFFF44" points="379,510.3164,383,514.3164,379,518.3164,375,514.3164" style="stroke: #B38D22; stroke-width: 1.0;"/><text fill="#000000" font-family="sans-serif" font-size="11" lengthAdjust="spacingAndGlyphs" textLength="220" x="388" y="517.6245">modules(): Collection&lt;WikiModuleInfo&gt;</text><polygon fill="#FFFF44" points="379,523.1211,383,527.1211,379,531.1211,375,527.1211" style="stroke: #B38D22; stroke-width: 1.0;"/><text fill="#000000" font-family="sans-serif" font-size="11" lengthAdjust="spacingAndGlyphs" textLength="107" x="388" y="530.4292">heading(): Element</text><polygon fill="#FFFF44" points="379,535.9258,383,539.9258,379,543.9258,375,539.9258" style="stroke: #B38D22; stroke-width: 1.0;"/><text fill="#000000" font-family="sans-serif" font-size="11" lengthAdjust="spacingAndGlyphs" textLength="193" x="388" y="543.2339">rowBody(WikiModuleInfo): Element</text></a><!--class org.apache.wiki.ui.admin.beans.CoreBean--><a href="CoreBean.html" target="_top" xlink:actuate="onRequest" xlink:show="new" xlink:title="CoreBean.html" xlink:type="simple"><rect fill="#FEFECE" filter="url(#fdg0fmherot2p)" height="176.0469" id="org.apache.wiki.ui.admin.beans.CoreBean" style="stroke: #A80036; stroke-width: 1.5;" width="201" x="805.5" y="189"/><ellipse cx="871.25" cy="205" fill="#ADD1B2" rx="11" ry="11" style="stroke: #A80036; stroke-width: 1.0;"/><path d="M874.2188,210.6406 Q873.6406,210.9375 873,211.0859 Q872.3594,211.2344 871.6563,211.2344 Q869.1563,211.2344 867.8359,209.5859 Q866.5156,207.9375 866.5156,204.8125 Q866.5156,201.6875 867.8359,200.0313 Q869.1563,198.375 871.6563,198.375 Q872.3594,198.375 873.0078,198.5313 Q873.6563,198.6875 874.2188,198.9844 L874.2188,201.7031 Q873.5938,201.125 873,200.8516 Q872.4063,200.5781 871.7813,200.5781 Q870.4375,200.5781 869.75,201.6484 Q869.0625,202.7188 869.0625,204.8125 Q869.0625,206.9063 869.75,207.9766 Q870.4375,209.0469 871.7813,209.0469 Q872.4063,209.0469 873,208.7734 Q873.5938,208.5 874.2188,207.9219 L874.2188,210.6406 Z "/><text fill="#000000" font-family="sans-serif" font-size="12" lengthAdjust="spacingAndGlyphs" textLength="61" x="891.75" y="209.1543">CoreBean</text><line style="stroke: #A80036; stroke-width: 1.5;" x1="806.5" x2="1005.5" y1="221" y2="221"/><line style="stroke: #A80036; stroke-width: 1.5;" x1="806.5" x2="1005.5" y1="229" y2="229"/><ellipse cx="816.5" cy="240.9023" fill="#84BE84" rx="3" ry="3" style="stroke: #038048; stroke-width: 1.0;"/><text fill="#000000" font-family="sans-serif" font-size="11" lengthAdjust="spacingAndGlyphs" textLength="123" x="825.5" y="243.2104">CoreBean(WikiEngine)</text><ellipse cx="816.5" cy="253.707" fill="#84BE84" rx="3" ry="3" style="stroke: #038048; stroke-width: 1.0;"/><text fill="#000000" font-family="sans-serif" font-size="11" lengthAdjust="spacingAndGlyphs" textLength="83" x="825.5" y="256.0151">getPages(): int</text><ellipse cx="816.5" cy="266.5117" fill="#84BE84" rx="3" ry="3" style="stroke: #038048; stroke-width: 1.0;"/><text fill="#000000" font-family="sans-serif" font-size="11" lengthAdjust="spacingAndGlyphs" textLength="167" x="825.5" y="268.8198">getPagesDescription(): String</text><ellipse cx="816.5" cy="279.3164" fill="#84BE84" rx="3" ry="3" style="stroke: #038048; stroke-width: 1.0;"/><text fill="#000000" font-family="sans-serif" font-size="11" lengthAdjust="spacingAndGlyphs" textLength="111" x="825.5" y="281.6245">getVersion(): String</text><ellipse cx="816.5" cy="292.1211" fill="#84BE84" rx="3" ry="3" style="stroke: #038048; stroke-width: 1.0;"/><text fill="#000000" font-family="sans-serif" font-size="11" lengthAdjust="spacingAndGlyphs" textLength="175" x="825.5" y="294.4292">getVersionDescription(): String</text><ellipse cx="816.5" cy="304.9258" fill="#84BE84" rx="3" ry="3" style="stroke: #038048; stroke-width: 1.0;"/><text fill="#000000" font-family="sans-serif" font-size="11" lengthAdjust="spacingAndGlyphs" textLength="92" x="825.5" y="307.2339">getTitle(): String</text><ellipse cx="816.5" cy="317.7305" fill="#84BE84" rx="3" ry="3" style="stroke: #038048; stroke-width: 1.0;"/><text fill="#000000" font-family="sans-serif" font-size="11" lengthAdjust="spacingAndGlyphs" textLength="75" x="825.5" y="320.0386">getType(): int</text><ellipse cx="816.5" cy="330.5352" fill="#84BE84" rx="3" ry="3" style="stroke: #038048; stroke-width: 1.0;"/><text fill="#000000" font-family="sans-serif" font-size="11" lengthAdjust="spacingAndGlyphs" textLength="78" x="825.5" y="332.8433">getId(): String</text><ellipse cx="816.5" cy="343.3398" fill="#84BE84" rx="3" ry="3" style="stroke: #038048; stroke-width: 1.0;"/><text fill="#000000" font-family="sans-serif" font-size="11" lengthAdjust="spacingAndGlyphs" textLength="164" x="825.5" y="345.6479">getAttributeNames(): String[]</text><ellipse cx="816.5" cy="356.1445" fill="#84BE84" rx="3" ry="3" style="stroke: #038048; stroke-width: 1.0;"/><text fill="#000000" font-family="sans-serif" font-size="11" lengthAdjust="spacingAndGlyphs" textLength="157" x="825.5" y="358.4526">getMethodNames(): String[]</text></a><!--class org.apache.wiki.ui.admin.beans.ModuleBean--><a href="ModuleBean.html" target="_top" xlink:actuate="onRequest" xlink:show="new" xlink:title="ModuleBean.html" xlink:type="simple"><rect fill="#FEFECE" filter="url(#fdg0fmherot2p)" height="176.0469" id="org.apache.wiki.ui.admin.beans.ModuleBean" style="stroke: #A80036; stroke-width: 1.5;" width="277" x="493.5" y="189"/><ellipse cx="589.25" cy="205" fill="#A9DCDF" rx="11" ry="11" style="stroke: #A80036; stroke-width: 1.0;"/><path d="M589.3594,200.3438 L588.2031,205.4219 L590.5313,205.4219 L589.3594,200.3438 Z M587.875,198.1094 L590.8594,198.1094 L594.2188,210.5 L591.7656,210.5 L591,207.4375 L587.7188,207.4375 L586.9688,210.5 L584.5313,210.5 L587.875,198.1094 Z "/><text fill="#000000" font-family="sans-serif" font-size="12" font-style="italic" lengthAdjust="spacingAndGlyphs" textLength="77" x="609.75" y="209.1543">ModuleBean</text><line style="stroke: #A80036; stroke-width: 1.5;" x1="494.5" x2="769.5" y1="221" y2="221"/><line style="stroke: #A80036; stroke-width: 1.5;" x1="494.5" x2="769.5" y1="229" y2="229"/><ellipse cx="504.5" cy="240.9023" fill="#84BE84" rx="3" ry="3" style="stroke: #038048; stroke-width: 1.0;"/><text fill="#000000" font-family="sans-serif" font-size="11" lengthAdjust="spacingAndGlyphs" textLength="136" x="513.5" y="243.2104">ModuleBean(WikiEngine)</text><ellipse cx="504.5" cy="253.707" fill="#84BE84" rx="3" ry="3" style="stroke: #038048; stroke-width: 1.0;"/><text fill="#000000" font-family="sans-serif" font-size="11" lengthAdjust="spacingAndGlyphs" textLength="164" x="513.5" y="256.0151">getAttributeNames(): String[]</text><ellipse cx="504.5" cy="266.5117" fill="#84BE84" rx="3" ry="3" style="stroke: #038048; stroke-width: 1.0;"/><text fill="#000000" font-family="sans-serif" font-size="11" lengthAdjust="spacingAndGlyphs" textLength="157" x="513.5" y="268.8198">getMethodNames(): String[]</text><ellipse cx="504.5" cy="279.3164" fill="#84BE84" rx="3" ry="3" style="stroke: #038048; stroke-width: 1.0;"/><text fill="#000000" font-family="sans-serif" font-size="11" lengthAdjust="spacingAndGlyphs" textLength="148" x="513.5" y="281.6245">doGet(WikiContext): String</text><polygon fill="#FFFF44" points="504.5,287.1211,508.5,291.1211,504.5,295.1211,500.5,291.1211" style="stroke: #B38D22; stroke-width: 1.0;"/><text fill="#000000" font-family="sans-serif" font-size="11" lengthAdjust="spacingAndGlyphs" textLength="83" x="513.5" y="294.4292">title(): Element</text><polygon fill="#FFFF44" points="504.5,299.9258,508.5,303.9258,504.5,307.9258,500.5,303.9258" style="stroke: #B38D22; stroke-width: 1.0;"/><text fill="#000000" font-family="sans-serif" font-size="11" lengthAdjust="spacingAndGlyphs" textLength="251" x="513.5" y="307.2339">containerForModuleDetail(Element): Element</text><polygon fill="#FFFF44" points="504.5,312.7305,508.5,316.7305,504.5,320.7305,500.5,316.7305" style="stroke: #B38D22; stroke-width: 1.0;"/><text fill="#000000" font-family="sans-serif" font-size="11" lengthAdjust="spacingAndGlyphs" textLength="241" x="513.5" y="320.0386">validModuleVersion(WikiModuleInfo): String</text><polygon fill="#FFFF44" points="504.5,325.5352,508.5,329.5352,504.5,333.5352,500.5,329.5352" style="stroke: #B38D22; stroke-width: 1.0;"/><text fill="#000000" font-family="sans-serif" font-size="11" font-style="italic" lengthAdjust="spacingAndGlyphs" textLength="221" x="513.5" y="332.8433">modules(): Collection&lt;WikiModuleInfo&gt;</text><polygon fill="#FFFF44" points="504.5,338.3398,508.5,342.3398,504.5,346.3398,500.5,342.3398" style="stroke: #B38D22; stroke-width: 1.0;"/><text fill="#000000" font-family="sans-serif" font-size="11" font-style="italic" lengthAdjust="spacingAndGlyphs" textLength="107" x="513.5" y="345.6479">heading(): Element</text><polygon fill="#FFFF44" points="504.5,351.1445,508.5,355.1445,504.5,359.1445,500.5,355.1445" style="stroke: #B38D22; stroke-width: 1.0;"/><text fill="#000000" font-family="sans-serif" font-size="11" font-style="italic" lengthAdjust="spacingAndGlyphs" textLength="196" x="513.5" y="358.4526">rowBody(WikiModuleInfo): Element</text></a><!--class org.apache.wiki.ui.admin.beans.FilterBean--><a href="FilterBean.html" target="_top" xlink:actuate="onRequest" xlink:show="new" xlink:title="FilterBean.html" xlink:type="simple"><rect fill="#FEFECE" filter="url(#fdg0fmherot2p)" height="124.8281" id="org.apache.wiki.ui.admin.beans.FilterBean" style="stroke: #A80036; stroke-width: 1.5;" width="246" x="649" y="425"/><ellipse cx="736.25" cy="441" fill="#ADD1B2" rx="11" ry="11" style="stroke: #A80036; stroke-width: 1.0;"/><path d="M739.2188,446.6406 Q738.6406,446.9375 738,447.0859 Q737.3594,447.2344 736.6563,447.2344 Q734.1563,447.2344 732.8359,445.5859 Q731.5156,443.9375 731.5156,440.8125 Q731.5156,437.6875 732.8359,436.0313 Q734.1563,434.375 736.6563,434.375 Q737.3594,434.375 738.0078,434.5313 Q738.6563,434.6875 739.2188,434.9844 L739.2188,437.7031 Q738.5938,437.125 738,436.8516 Q737.4063,436.5781 736.7813,436.5781 Q735.4375,436.5781 734.75,437.6484 Q734.0625,438.7188 734.0625,440.8125 Q734.0625,442.9063 734.75,443.9766 Q735.4375,445.0469 736.7813,445.0469 Q737.4063,445.0469 738,444.7734 Q738.5938,444.5 739.2188,443.9219 L739.2188,446.6406 Z "/><text fill="#000000" font-family="sans-serif" font-size="12" lengthAdjust="spacingAndGlyphs" textLength="63" x="756.75" y="445.1543">FilterBean</text><line style="stroke: #A80036; stroke-width: 1.5;" x1="650" x2="894" y1="457" y2="457"/><line style="stroke: #A80036; stroke-width: 1.5;" x1="650" x2="894" y1="465" y2="465"/><ellipse cx="660" cy="476.9023" fill="#84BE84" rx="3" ry="3" style="stroke: #038048; stroke-width: 1.0;"/><text fill="#000000" font-family="sans-serif" font-size="11" lengthAdjust="spacingAndGlyphs" textLength="124" x="669" y="479.2104">FilterBean(WikiEngine)</text><ellipse cx="660" cy="489.707" fill="#84BE84" rx="3" ry="3" style="stroke: #038048; stroke-width: 1.0;"/><text fill="#000000" font-family="sans-serif" font-size="11" lengthAdjust="spacingAndGlyphs" textLength="92" x="669" y="492.0151">getTitle(): String</text><ellipse cx="660" cy="502.5117" fill="#84BE84" rx="3" ry="3" style="stroke: #038048; stroke-width: 1.0;"/><text fill="#000000" font-family="sans-serif" font-size="11" lengthAdjust="spacingAndGlyphs" textLength="75" x="669" y="504.8198">getType(): int</text><polygon fill="#FFFF44" points="660,510.3164,664,514.3164,660,518.3164,656,514.3164" style="stroke: #B38D22; stroke-width: 1.0;"/><text fill="#000000" font-family="sans-serif" font-size="11" lengthAdjust="spacingAndGlyphs" textLength="220" x="669" y="517.6245">modules(): Collection&lt;WikiModuleInfo&gt;</text><polygon fill="#FFFF44" points="660,523.1211,664,527.1211,660,531.1211,656,527.1211" style="stroke: #B38D22; stroke-width: 1.0;"/><text fill="#000000" font-family="sans-serif" font-size="11" lengthAdjust="spacingAndGlyphs" textLength="107" x="669" y="530.4292">heading(): Element</text><polygon fill="#FFFF44" points="660,535.9258,664,539.9258,660,543.9258,656,539.9258" style="stroke: #B38D22; stroke-width: 1.0;"/><text fill="#000000" font-family="sans-serif" font-size="11" lengthAdjust="spacingAndGlyphs" textLength="193" x="669" y="543.2339">rowBody(WikiModuleInfo): Element</text></a><!--class org.apache.wiki.ui.admin.beans.UserBean--><a href="UserBean.html" target="_top" xlink:actuate="onRequest" xlink:show="new" xlink:title="UserBean.html" xlink:type="simple"><rect fill="#FEFECE" filter="url(#fdg0fmherot2p)" height="124.8281" id="org.apache.wiki.ui.admin.beans.UserBean" style="stroke: #A80036; stroke-width: 1.5;" width="190" x="268" y="214.5"/><ellipse cx="328.25" cy="230.5" fill="#ADD1B2" rx="11" ry="11" style="stroke: #A80036; stroke-width: 1.0;"/><path d="M331.2188,236.1406 Q330.6406,236.4375 330,236.5859 Q329.3594,236.7344 328.6563,236.7344 Q326.1563,236.7344 324.8359,235.0859 Q323.5156,233.4375 323.5156,230.3125 Q323.5156,227.1875 324.8359,225.5313 Q326.1563,223.875 328.6563,223.875 Q329.3594,223.875 330.0078,224.0313 Q330.6563,224.1875 331.2188,224.4844 L331.2188,227.2031 Q330.5938,226.625 330,226.3516 Q329.4063,226.0781 328.7813,226.0781 Q327.4375,226.0781 326.75,227.1484 Q326.0625,228.2188 326.0625,230.3125 Q326.0625,232.4063 326.75,233.4766 Q327.4375,234.5469 328.7813,234.5469 Q329.4063,234.5469 330,234.2734 Q330.5938,234 331.2188,233.4219 L331.2188,236.1406 Z "/><text fill="#000000" font-family="sans-serif" font-size="12" lengthAdjust="spacingAndGlyphs" textLength="61" x="348.75" y="234.6543">UserBean</text><line style="stroke: #A80036; stroke-width: 1.5;" x1="269" x2="457" y1="246.5" y2="246.5"/><line style="stroke: #A80036; stroke-width: 1.5;" x1="269" x2="457" y1="254.5" y2="254.5"/><ellipse cx="279" cy="266.4023" fill="#84BE84" rx="3" ry="3" style="stroke: #038048; stroke-width: 1.0;"/><text fill="#000000" font-family="sans-serif" font-size="11" lengthAdjust="spacingAndGlyphs" textLength="123" x="288" y="268.7104">UserBean(WikiEngine)</text><ellipse cx="279" cy="279.207" fill="#84BE84" rx="3" ry="3" style="stroke: #038048; stroke-width: 1.0;"/><text fill="#000000" font-family="sans-serif" font-size="11" lengthAdjust="spacingAndGlyphs" textLength="164" x="288" y="281.5151">getAttributeNames(): String[]</text><ellipse cx="279" cy="292.0117" fill="#84BE84" rx="3" ry="3" style="stroke: #038048; stroke-width: 1.0;"/><text fill="#000000" font-family="sans-serif" font-size="11" lengthAdjust="spacingAndGlyphs" textLength="157" x="288" y="294.3198">getMethodNames(): String[]</text><ellipse cx="279" cy="304.8164" fill="#84BE84" rx="3" ry="3" style="stroke: #038048; stroke-width: 1.0;"/><text fill="#000000" font-family="sans-serif" font-size="11" lengthAdjust="spacingAndGlyphs" textLength="153" x="288" y="307.1245">doPost(WikiContext): String</text><ellipse cx="279" cy="317.6211" fill="#84BE84" rx="3" ry="3" style="stroke: #038048; stroke-width: 1.0;"/><text fill="#000000" font-family="sans-serif" font-size="11" lengthAdjust="spacingAndGlyphs" textLength="92" x="288" y="319.9292">getTitle(): String</text><ellipse cx="279" cy="330.4258" fill="#84BE84" rx="3" ry="3" style="stroke: #038048; stroke-width: 1.0;"/><text fill="#000000" font-family="sans-serif" font-size="11" lengthAdjust="spacingAndGlyphs" textLength="75" x="288" y="332.7339">getType(): int</text></a><!--class org.apache.wiki.ui.admin.beans.SearchManagerBean--><a href="SearchManagerBean.html" target="_top" xlink:actuate="onRequest" xlink:show="new" xlink:title="SearchManagerBean.html" xlink:type="simple"><rect fill="#FEFECE" filter="url(#fdg0fmherot2p)" height="150.4375" id="org.apache.wiki.ui.admin.beans.SearchManagerBean" style="stroke: #A80036; stroke-width: 1.5;" width="211" x="1041.5" y="202"/><ellipse cx="1078.1" cy="218" fill="#ADD1B2" rx="11" ry="11" style="stroke: #A80036; stroke-width: 1.0;"/><path d="M1081.0688,223.6406 Q1080.4906,223.9375 1079.85,224.0859 Q1079.2094,224.2344 1078.5063,224.2344 Q1076.0063,224.2344 1074.6859,222.5859 Q1073.3656,220.9375 1073.3656,217.8125 Q1073.3656,214.6875 1074.6859,213.0313 Q1076.0063,211.375 1078.5063,211.375 Q1079.2094,211.375 1079.8578,211.5313 Q1080.5063,211.6875 1081.0688,211.9844 L1081.0688,214.7031 Q1080.4438,214.125 1079.85,213.8516 Q1079.2563,213.5781 1078.6313,213.5781 Q1077.2875,213.5781 1076.6,214.6484 Q1075.9125,215.7188 1075.9125,217.8125 Q1075.9125,219.9063 1076.6,220.9766 Q1077.2875,222.0469 1078.6313,222.0469 Q1079.2563,222.0469 1079.85,221.7734 Q1080.4438,221.5 1081.0688,220.9219 L1081.0688,223.6406 Z "/><text fill="#000000" font-family="sans-serif" font-size="12" lengthAdjust="spacingAndGlyphs" textLength="131" x="1096.9" y="222.1543">SearchManagerBean</text><line style="stroke: #A80036; stroke-width: 1.5;" x1="1042.5" x2="1251.5" y1="234" y2="234"/><line style="stroke: #A80036; stroke-width: 1.5;" x1="1042.5" x2="1251.5" y1="242" y2="242"/><ellipse cx="1052.5" cy="253.9023" fill="#84BE84" rx="3" ry="3" style="stroke: #038048; stroke-width: 1.0;"/><text fill="#000000" font-family="sans-serif" font-size="11" lengthAdjust="spacingAndGlyphs" textLength="185" x="1061.5" y="256.2104">SearchManagerBean(WikiEngine)</text><ellipse cx="1052.5" cy="266.707" fill="#84BE84" rx="3" ry="3" style="stroke: #038048; stroke-width: 1.0;"/><text fill="#000000" font-family="sans-serif" font-size="11" lengthAdjust="spacingAndGlyphs" textLength="164" x="1061.5" y="269.0151">getAttributeNames(): String[]</text><ellipse cx="1052.5" cy="279.5117" fill="#84BE84" rx="3" ry="3" style="stroke: #038048; stroke-width: 1.0;"/><text fill="#000000" font-family="sans-serif" font-size="11" lengthAdjust="spacingAndGlyphs" textLength="157" x="1061.5" y="281.8198">getMethodNames(): String[]</text><ellipse cx="1052.5" cy="292.3164" fill="#84BE84" rx="3" ry="3" style="stroke: #038048; stroke-width: 1.0;"/><text fill="#000000" font-family="sans-serif" font-size="11" lengthAdjust="spacingAndGlyphs" textLength="92" x="1061.5" y="294.6245">getTitle(): String</text><ellipse cx="1052.5" cy="305.1211" fill="#84BE84" rx="3" ry="3" style="stroke: #038048; stroke-width: 1.0;"/><text fill="#000000" font-family="sans-serif" font-size="11" lengthAdjust="spacingAndGlyphs" textLength="75" x="1061.5" y="307.4292">reload(): void</text><ellipse cx="1052.5" cy="317.9258" fill="#84BE84" rx="3" ry="3" style="stroke: #038048; stroke-width: 1.0;"/><text fill="#000000" font-family="sans-serif" font-size="11" lengthAdjust="spacingAndGlyphs" textLength="75" x="1061.5" y="320.2339">getType(): int</text><ellipse cx="1052.5" cy="330.7305" fill="#84BE84" rx="3" ry="3" style="stroke: #038048; stroke-width: 1.0;"/><text fill="#000000" font-family="sans-serif" font-size="11" lengthAdjust="spacingAndGlyphs" textLength="148" x="1061.5" y="333.0386">doGet(WikiContext): String</text><ellipse cx="1052.5" cy="343.5352" fill="#84BE84" rx="3" ry="3" style="stroke: #038048; stroke-width: 1.0;"/><text fill="#000000" font-family="sans-serif" font-size="11" lengthAdjust="spacingAndGlyphs" textLength="153" x="1061.5" y="345.8433">doPost(WikiContext): String</text></a><!--class org.apache.wiki.management.SimpleMBean--><rect fill="#FEFECE" filter="url(#fdg0fmherot2p)" height="73.6094" id="org.apache.wiki.management.SimpleMBean" style="stroke: #A80036; stroke-width: 1.5;" width="189" x="43.5" y="49"/><ellipse cx="92.25" cy="65" fill="#A9DCDF" rx="11" ry="11" style="stroke: #A80036; stroke-width: 1.0;"/><path d="M92.3594,60.3438 L91.2031,65.4219 L93.5313,65.4219 L92.3594,60.3438 Z M90.875,58.1094 L93.8594,58.1094 L97.2188,70.5 L94.7656,70.5 L94,67.4375 L90.7188,67.4375 L89.9688,70.5 L87.5313,70.5 L90.875,58.1094 Z "/><text fill="#000000" font-family="sans-serif" font-size="12" font-style="italic" lengthAdjust="spacingAndGlyphs" textLength="83" x="112.75" y="69.1543">SimpleMBean</text><line style="stroke: #A80036; stroke-width: 1.5;" x1="44.5" x2="231.5" y1="81" y2="81"/><line style="stroke: #A80036; stroke-width: 1.5;" x1="44.5" x2="231.5" y1="89" y2="89"/><ellipse cx="54.5" cy="100.9023" fill="#84BE84" rx="3" ry="3" style="stroke: #038048; stroke-width: 1.0;"/><text fill="#000000" font-family="sans-serif" font-size="11" font-style="italic" lengthAdjust="spacingAndGlyphs" textLength="163" x="63.5" y="103.2104">getAttributeNames(): String[]</text><ellipse cx="54.5" cy="113.707" fill="#84BE84" rx="3" ry="3" style="stroke: #038048; stroke-width: 1.0;"/><text fill="#000000" font-family="sans-serif" font-size="11" font-style="italic" lengthAdjust="spacingAndGlyphs" textLength="155" x="63.5" y="116.0151">getMethodNames(): String[]</text><!--class org.apache.wiki.ui.admin.AdminBean--><rect fill="#FEFECE" filter="url(#fdg0fmherot2p)" height="86.4141" id="org.apache.wiki.ui.admin.AdminBean" style="stroke: #A80036; stroke-width: 1.5;" width="173" x="352.5" y="43"/><ellipse cx="399.75" cy="59" fill="#B4A7E5" rx="11" ry="11" style="stroke: #A80036; stroke-width: 1.0;"/><path d="M395.6719,54.7656 L395.6719,52.6094 L403.0625,52.6094 L403.0625,54.7656 L400.5938,54.7656 L400.5938,62.8438 L403.0625,62.8438 L403.0625,65 L395.6719,65 L395.6719,62.8438 L398.1406,62.8438 L398.1406,54.7656 L395.6719,54.7656 Z "/><text fill="#000000" font-family="sans-serif" font-size="12" font-style="italic" lengthAdjust="spacingAndGlyphs" textLength="70" x="420.25" y="63.1543">AdminBean</text><line style="stroke: #A80036; stroke-width: 1.5;" x1="353.5" x2="524.5" y1="75" y2="75"/><line style="stroke: #A80036; stroke-width: 1.5;" x1="353.5" x2="524.5" y1="83" y2="83"/><ellipse cx="363.5" cy="94.9023" fill="#84BE84" rx="3" ry="3" style="stroke: #038048; stroke-width: 1.0;"/><text fill="#000000" font-family="sans-serif" font-size="11" font-style="italic" lengthAdjust="spacingAndGlyphs" textLength="147" x="372.5" y="97.2104">initialize(WikiEngine): void</text><ellipse cx="363.5" cy="107.707" fill="#84BE84" rx="3" ry="3" style="stroke: #038048; stroke-width: 1.0;"/><text fill="#000000" font-family="sans-serif" font-size="11" font-style="italic" lengthAdjust="spacingAndGlyphs" textLength="91" x="372.5" y="110.0151">getTitle(): String</text><ellipse cx="363.5" cy="120.5117" fill="#84BE84" rx="3" ry="3" style="stroke: #038048; stroke-width: 1.0;"/><text fill="#000000" font-family="sans-serif" font-size="11" font-style="italic" lengthAdjust="spacingAndGlyphs" textLength="76" x="372.5" y="122.8198">getType(): int</text><!--class org.apache.wiki.ui.admin.SimpleAdminBean--><rect fill="#FEFECE" filter="url(#fdg0fmherot2p)" height="48" id="org.apache.wiki.ui.admin.SimpleAdminBean" style="stroke: #A80036; stroke-width: 1.5;" width="143" x="560.5" y="62"/><ellipse cx="575.5" cy="78" fill="#A9DCDF" rx="11" ry="11" style="stroke: #A80036; stroke-width: 1.0;"/><path d="M575.6094,73.3438 L574.4531,78.4219 L576.7813,78.4219 L575.6094,73.3438 Z M574.125,71.1094 L577.1094,71.1094 L580.4688,83.5 L578.0156,83.5 L577.25,80.4375 L573.9688,80.4375 L573.2188,83.5 L570.7813,83.5 L574.125,71.1094 Z "/><text fill="#000000" font-family="sans-serif" font-size="12" font-style="italic" lengthAdjust="spacingAndGlyphs" textLength="111" x="589.5" y="82.1543">SimpleAdminBean</text><line style="stroke: #A80036; stroke-width: 1.5;" x1="561.5" x2="702.5" y1="94" y2="94"/><line style="stroke: #A80036; stroke-width: 1.5;" x1="561.5" x2="702.5" y1="102" y2="102"/><!--link org.apache.wiki.management.SimpleMBean to org.apache.wiki.ui.admin.beans.PlainEditorAdminBean--><path d="M138,143.3963 C138,157.697 138,173.3612 138,188.7714 " fill="none" id="org.apache.wiki.management.SimpleMBean-org.apache.wiki.ui.admin.beans.PlainEditorAdminBean" style="stroke: #A80036; stroke-width: 1.0;"/><polygon fill="none" points="131.0001,143.2802,138,123.2801,145.0001,143.2801,131.0001,143.2802" style="stroke: #A80036; stroke-width: 1.0;"/><!--link org.apache.wiki.ui.admin.AdminBean to org.apache.wiki.ui.admin.beans.PlainEditorAdminBean--><path d="M333.6114,119.4177 C305.2558,130.7562 275.4232,144.9604 250,162 C238.309,169.8357 226.8722,179.0551 216.0441,188.8073 " fill="none" id="org.apache.wiki.ui.admin.AdminBean-org.apache.wiki.ui.admin.beans.PlainEditorAdminBean" style="stroke: #A80036; stroke-width: 1.0; stroke-dasharray: 7.0,7.0;"/><polygon fill="none" points="331.2696,112.8189,352.4503,112.2034,336.2763,125.893,331.2696,112.8189" style="stroke: #A80036; stroke-width: 1.0;"/><!--link org.apache.wiki.ui.admin.beans.ModuleBean to org.apache.wiki.ui.admin.beans.PluginBean--><path d="M561.5954,382.1076 C551.8238,396.6956 542.0498,411.2874 533.0242,424.7617 " fill="none" id="org.apache.wiki.ui.admin.beans.ModuleBean-org.apache.wiki.ui.admin.beans.PluginBean" style="stroke: #A80036; stroke-width: 1.0;"/><polygon fill="none" points="556.074,377.7723,573.0203,365.0513,567.7057,385.5636,556.074,377.7723" style="stroke: #A80036; stroke-width: 1.0;"/><!--link org.apache.wiki.ui.admin.SimpleAdminBean to org.apache.wiki.ui.admin.beans.CoreBean--><path d="M711.1631,118.5717 C736.6696,130.6105 764.4189,145.4156 788,162 C799.4653,170.0634 810.8646,179.2533 821.8032,188.8429 " fill="none" id="org.apache.wiki.ui.admin.SimpleAdminBean-org.apache.wiki.ui.admin.beans.CoreBean" style="stroke: #A80036; stroke-width: 1.0;"/><polygon fill="none" points="707.9279,124.7898,692.6417,110.1155,713.7425,112.0543,707.9279,124.7898" style="stroke: #A80036; stroke-width: 1.0;"/><!--link org.apache.wiki.ui.admin.SimpleAdminBean to org.apache.wiki.ui.admin.beans.ModuleBean--><path d="M632,130.2628 C632,147.693 632,168.3581 632,188.5959 " fill="none" id="org.apache.wiki.ui.admin.SimpleAdminBean-org.apache.wiki.ui.admin.beans.ModuleBean" style="stroke: #A80036; stroke-width: 1.0;"/><polygon fill="none" points="625.0001,130.1903,632,110.1903,639.0001,130.1902,625.0001,130.1903" style="stroke: #A80036; stroke-width: 1.0;"/><!--link org.apache.wiki.ui.admin.beans.ModuleBean to org.apache.wiki.ui.admin.beans.FilterBean--><path d="M701.9053,382.1076 C711.6076,396.6956 721.3123,411.2874 730.2738,424.7617 " fill="none" id="org.apache.wiki.ui.admin.beans.ModuleBean-org.apache.wiki.ui.admin.beans.FilterBean" style="stroke: #A80036; stroke-width: 1.0;"/><polygon fill="none" points="695.8086,385.581,690.5614,365.0513,707.4658,377.8279,695.8086,385.581" style="stroke: #A80036; stroke-width: 1.0;"/><!--link org.apache.wiki.ui.admin.SimpleAdminBean to org.apache.wiki.ui.admin.beans.UserBean--><path d="M575.8875,119.9895 C565.1346,125.9757 553.8444,131.9113 543,137 C514.2271,150.5016 502.661,144.6978 476,162 C453.9291,176.3234 432.8311,195.6331 414.9673,214.3361 " fill="none" id="org.apache.wiki.ui.admin.SimpleAdminBean-org.apache.wiki.ui.admin.beans.UserBean" style="stroke: #A80036; stroke-width: 1.0;"/><polygon fill="none" points="572.4704,113.8799,593.3033,110.0082,579.4318,126.0264,572.4704,113.8799" style="stroke: #A80036; stroke-width: 1.0;"/><!--link org.apache.wiki.ui.admin.SimpleAdminBean to org.apache.wiki.ui.admin.beans.SearchManagerBean--><path d="M723.6469,97.7939 C822.4983,111.5595 972.6349,135.8016 1024,162 C1044.0524,172.2276 1063.1697,186.7066 1080.1004,201.9543 " fill="none" id="org.apache.wiki.ui.admin.SimpleAdminBean-org.apache.wiki.ui.admin.beans.SearchManagerBean" style="stroke: #A80036; stroke-width: 1.0;"/><polygon fill="none" points="722.5553,104.7099,703.6906,95.0597,724.4557,90.8394,722.5553,104.7099" style="stroke: #A80036; stroke-width: 1.0;"/><text fill="#888888" font-family="sans-serif" font-size="10" lengthAdjust="spacingAndGlyphs" textLength="186" x="550.5" y="585.2822">UMLDoclet 1.1.4, PlantUML 1.2019.05</text><!--
@startuml

    namespace org.apache.wiki.ui.admin.beans {

        class PlainEditorAdminBean [[PlainEditorAdminBean.html]] {
            +doGet(WikiContext): String
            +doPost(WikiContext): String
            +getTitle(): String
            +getType(): int
            +isEnabled(): boolean
            +getId(): String
            +getChecked(): boolean
            +getAttributeNames(): String[]
            +getMethodNames(): String[]
            +initialize(WikiEngine): void
        }

        class PluginBean [[PluginBean.html]] {
            +PluginBean(WikiEngine)
            +getTitle(): String
            +getType(): int
            #modules(): Collection<WikiModuleInfo>
            #heading(): Element
            #rowBody(WikiModuleInfo): Element
        }

        class CoreBean [[CoreBean.html]] {
            +CoreBean(WikiEngine)
            +getPages(): int
            +getPagesDescription(): String
            +getVersion(): String
            +getVersionDescription(): String
            +getTitle(): String
            +getType(): int
            +getId(): String
            +getAttributeNames(): String[]
            +getMethodNames(): String[]
        }

        abstract class ModuleBean [[ModuleBean.html]] {
            +ModuleBean(WikiEngine)
            +getAttributeNames(): String[]
            +getMethodNames(): String[]
            +doGet(WikiContext): String
            #title(): Element
            #containerForModuleDetail(Element): Element
            #validModuleVersion(WikiModuleInfo): String
            {abstract} #modules(): Collection<WikiModuleInfo>
            {abstract} #heading(): Element
            {abstract} #rowBody(WikiModuleInfo): Element
        }

        class FilterBean [[FilterBean.html]] {
            +FilterBean(WikiEngine)
            +getTitle(): String
            +getType(): int
            #modules(): Collection<WikiModuleInfo>
            #heading(): Element
            #rowBody(WikiModuleInfo): Element
        }

        class UserBean [[UserBean.html]] {
            +UserBean(WikiEngine)
            +getAttributeNames(): String[]
            +getMethodNames(): String[]
            +doPost(WikiContext): String
            +getTitle(): String
            +getType(): int
        }

        class SearchManagerBean [[SearchManagerBean.html]] {
            +SearchManagerBean(WikiEngine)
            +getAttributeNames(): String[]
            +getMethodNames(): String[]
            +getTitle(): String
            +reload(): void
            +getType(): int
            +doGet(WikiContext): String
            +doPost(WikiContext): String
        }

        abstract class org.apache.wiki.management.SimpleMBean {
            {abstract} +getAttributeNames(): String[]
            {abstract} +getMethodNames(): String[]
        }
        org.apache.wiki.management.SimpleMBean <|- - PlainEditorAdminBean

        interface org.apache.wiki.ui.admin.AdminBean {
            {abstract} +initialize(WikiEngine): void
            {abstract} +getTitle(): String
            {abstract} +getType(): int
        }
        org.apache.wiki.ui.admin.AdminBean <|.. PlainEditorAdminBean

        ModuleBean <|- - PluginBean

        abstract class org.apache.wiki.ui.admin.SimpleAdminBean
        org.apache.wiki.ui.admin.SimpleAdminBean <|- - CoreBean

        org.apache.wiki.ui.admin.SimpleAdminBean <|- - ModuleBean

        ModuleBean <|- - FilterBean

        org.apache.wiki.ui.admin.SimpleAdminBean <|- - UserBean

        org.apache.wiki.ui.admin.SimpleAdminBean <|- - SearchManagerBean

    }


    center footer UMLDoclet 1.1.4, PlantUML 1.2019.05
@enduml

PlantUML version 1.2019.05(Sat Apr 20 16:45:36 UTC 2019)
(APACHE source distribution)
Java Runtime: Java(TM) SE Runtime Environment
JVM: Java HotSpot(TM) 64-Bit Server VM
Java Version: 1.8.0_191-b12
Operating System: Linux
OS Version: 4.15.0-60-generic
Default Encoding: ISO-8859-1
Language: en
Country: US
--></g></svg>