<?xml version="1.0" encoding="UTF-8" standalone="no"?><svg xmlns="http://www.w3.org/2000/svg" xmlns:xlink="http://www.w3.org/1999/xlink" contentScriptType="application/ecmascript" contentStyleType="text/css" height="541px" preserveAspectRatio="none" style="width:1326px;height:541px;" version="1.1" viewBox="0 0 1326 541" width="1326px" zoomAndPan="magnify"><defs><filter height="300%" id="f1qzsd19yqn6r2" width="300%" x="-1" y="-1"><feGaussianBlur result="blurOut" stdDeviation="2.0"/><feColorMatrix in="blurOut" result="blurOut2" type="matrix" values="0 0 0 0 0 0 0 0 0 0 0 0 0 0 0 0 0 0 .4 0"/><feOffset dx="4.0" dy="4.0" in="blurOut2" result="blurOut3"/><feBlend in="SourceGraphic" in2="blurOut3" mode="normal"/></filter></defs><g><!--MD5=[033be043fb277336b8890b347fde2a9a]
cluster org.apache.wiki.api.exceptions--><polygon fill="#FFFFFF" filter="url(#f1qzsd19yqn6r2)" points="16,114,239,114,246,137.6094,1304,137.6094,1304,512,16,512,16,114" style="stroke: #000000; stroke-width: 1.5;"/><line style="stroke: #000000; stroke-width: 1.5;" x1="16" x2="246" y1="137.6094" y2="137.6094"/><text fill="#000000" font-family="sans-serif" font-size="14" font-weight="bold" lengthAdjust="spacingAndGlyphs" textLength="217" x="20" y="130.5332">org.apache.wiki.api.exceptions</text><!--MD5=[aa8f7b917213fcc1c2766e2d59b49067]
cluster java.lang--><polygon fill="#FFFFFF" filter="url(#f1qzsd19yqn6r2)" points="622,6,691,6,698,29.6094,724,29.6094,724,90,622,90,622,6" style="stroke: #000000; stroke-width: 1.5;"/><line style="stroke: #000000; stroke-width: 1.5;" x1="622" x2="698" y1="29.6094" y2="29.6094"/><text fill="#000000" font-family="sans-serif" font-size="14" font-weight="bold" lengthAdjust="spacingAndGlyphs" textLength="63" x="626" y="22.5332">java.lang</text><!--MD5=[7b3401d984463d04818fd1f6037aaa8a]
class org.apache.wiki.api.exceptions.FilterException--><a href="FilterException.html" target="_top" title="FilterException.html" xlink:actuate="onRequest" xlink:href="FilterException.html" xlink:show="new" xlink:title="FilterException.html" xlink:type="simple"><rect codeLine="3" fill="#FEFECE" filter="url(#f1qzsd19yqn6r2)" height="61.8359" id="org.apache.wiki.api.exceptions.FilterException" style="stroke: #A80036; stroke-width: 1.5;" width="132" x="24" y="292"/><ellipse cx="48" cy="308" fill="#ADD1B2" rx="11" ry="11" style="stroke: #A80036; stroke-width: 1.0;"/><path d="M50.7656,303.875 Q50.9219,303.6563 51.1094,303.5469 Q51.2969,303.4375 51.5156,303.4375 Q51.8906,303.4375 52.125,303.7031 Q52.3594,303.9531 52.3594,304.5625 L52.3594,306.0156 Q52.3594,306.625 52.125,306.8906 Q51.8906,307.1563 51.5156,307.1563 Q51.1719,307.1563 50.9688,306.9531 Q50.7656,306.7656 50.6563,306.25 Q50.6094,305.8906 50.4219,305.7031 Q50.0938,305.3281 49.4844,305.1094 Q48.875,304.8906 48.25,304.8906 Q47.4844,304.8906 46.8438,305.2188 Q46.2188,305.5469 45.7188,306.2969 Q45.2344,307.0469 45.2344,308.0781 L45.2344,309.1719 Q45.2344,310.4063 46.125,311.2344 Q47.0156,312.0469 48.6094,312.0469 Q49.5469,312.0469 50.2031,311.7969 Q50.5938,311.6406 51.0156,311.2031 Q51.2813,310.9375 51.4219,310.8594 Q51.5781,310.7813 51.7813,310.7813 Q52.1094,310.7813 52.3594,311.0469 Q52.625,311.2969 52.625,311.6406 Q52.625,311.9844 52.2813,312.3906 Q51.7813,312.9688 50.9844,313.2969 Q49.9063,313.75 48.6094,313.75 Q47.0938,313.75 45.8906,313.125 Q44.9063,312.625 44.2188,311.5625 Q43.5313,310.4844 43.5313,309.2031 L43.5313,308.0469 Q43.5313,306.7188 44.1406,305.5781 Q44.7656,304.4219 45.8594,303.8125 Q46.9531,303.1875 48.1875,303.1875 Q48.9219,303.1875 49.5625,303.3594 Q50.2188,303.5156 50.7656,303.875 Z "/><text fill="#000000" font-family="sans-serif" font-size="12" lengthAdjust="spacingAndGlyphs" textLength="80" x="64" y="312.9102">FilterException</text><line style="stroke: #A80036; stroke-width: 1.5;" x1="25" x2="155" y1="324" y2="324"/><line style="stroke: #A80036; stroke-width: 1.5;" x1="25" x2="155" y1="332" y2="332"/><ellipse cx="35" cy="343" fill="#84BE84" rx="3" ry="3" style="stroke: #038048; stroke-width: 1.0;"/><text fill="#000000" font-family="sans-serif" font-size="11" lengthAdjust="spacingAndGlyphs" textLength="106" x="44" y="347.4189">FilterException(String)</text></a><!--MD5=[86cdede55c62ee6e2c64f60e4ecc29af]
class org.apache.wiki.api.exceptions.NoRequiredPropertyException--><a href="NoRequiredPropertyException.html" target="_top" title="NoRequiredPropertyException.html" xlink:actuate="onRequest" xlink:href="NoRequiredPropertyException.html" xlink:show="new" xlink:title="NoRequiredPropertyException.html" xlink:type="simple"><rect codeLine="7" fill="#FEFECE" filter="url(#f1qzsd19yqn6r2)" height="61.8359" id="org.apache.wiki.api.exceptions.NoRequiredPropertyException" style="stroke: #A80036; stroke-width: 1.5;" width="240" x="191" y="292"/><ellipse cx="225.35" cy="308" fill="#ADD1B2" rx="11" ry="11" style="stroke: #A80036; stroke-width: 1.0;"/><path d="M228.1156,303.875 Q228.2719,303.6563 228.4594,303.5469 Q228.6469,303.4375 228.8656,303.4375 Q229.2406,303.4375 229.475,303.7031 Q229.7094,303.9531 229.7094,304.5625 L229.7094,306.0156 Q229.7094,306.625 229.475,306.8906 Q229.2406,307.1563 228.8656,307.1563 Q228.5219,307.1563 228.3188,306.9531 Q228.1156,306.7656 228.0063,306.25 Q227.9594,305.8906 227.7719,305.7031 Q227.4438,305.3281 226.8344,305.1094 Q226.225,304.8906 225.6,304.8906 Q224.8344,304.8906 224.1938,305.2188 Q223.5688,305.5469 223.0688,306.2969 Q222.5844,307.0469 222.5844,308.0781 L222.5844,309.1719 Q222.5844,310.4063 223.475,311.2344 Q224.3656,312.0469 225.9594,312.0469 Q226.8969,312.0469 227.5531,311.7969 Q227.9438,311.6406 228.3656,311.2031 Q228.6313,310.9375 228.7719,310.8594 Q228.9281,310.7813 229.1313,310.7813 Q229.4594,310.7813 229.7094,311.0469 Q229.975,311.2969 229.975,311.6406 Q229.975,311.9844 229.6313,312.3906 Q229.1313,312.9688 228.3344,313.2969 Q227.2563,313.75 225.9594,313.75 Q224.4438,313.75 223.2406,313.125 Q222.2563,312.625 221.5688,311.5625 Q220.8813,310.4844 220.8813,309.2031 L220.8813,308.0469 Q220.8813,306.7188 221.4906,305.5781 Q222.1156,304.4219 223.2094,303.8125 Q224.3031,303.1875 225.5375,303.1875 Q226.2719,303.1875 226.9125,303.3594 Q227.5688,303.5156 228.1156,303.875 Z "/><text fill="#000000" font-family="sans-serif" font-size="12" lengthAdjust="spacingAndGlyphs" textLength="165" x="243.65" y="312.9102">NoRequiredPropertyException</text><line style="stroke: #A80036; stroke-width: 1.5;" x1="192" x2="430" y1="324" y2="324"/><line style="stroke: #A80036; stroke-width: 1.5;" x1="192" x2="430" y1="332" y2="332"/><ellipse cx="202" cy="343" fill="#84BE84" rx="3" ry="3" style="stroke: #038048; stroke-width: 1.0;"/><text fill="#000000" font-family="sans-serif" font-size="11" lengthAdjust="spacingAndGlyphs" textLength="214" x="211" y="347.4189">NoRequiredPropertyException(String, String)</text></a><!--MD5=[fe642f6a06a6f958bbc14bfb47242453]
class org.apache.wiki.api.exceptions.NoSuchVariableException--><a href="NoSuchVariableException.html" target="_top" title="NoSuchVariableException.html" xlink:actuate="onRequest" xlink:href="NoSuchVariableException.html" xlink:show="new" xlink:title="NoSuchVariableException.html" xlink:type="simple"><rect codeLine="11" fill="#FEFECE" filter="url(#f1qzsd19yqn6r2)" height="61.8359" id="org.apache.wiki.api.exceptions.NoSuchVariableException" style="stroke: #A80036; stroke-width: 1.5;" width="187" x="466.5" y="292"/><ellipse cx="487.35" cy="308" fill="#ADD1B2" rx="11" ry="11" style="stroke: #A80036; stroke-width: 1.0;"/><path d="M490.1156,303.875 Q490.2719,303.6563 490.4594,303.5469 Q490.6469,303.4375 490.8656,303.4375 Q491.2406,303.4375 491.475,303.7031 Q491.7094,303.9531 491.7094,304.5625 L491.7094,306.0156 Q491.7094,306.625 491.475,306.8906 Q491.2406,307.1563 490.8656,307.1563 Q490.5219,307.1563 490.3188,306.9531 Q490.1156,306.7656 490.0063,306.25 Q489.9594,305.8906 489.7719,305.7031 Q489.4438,305.3281 488.8344,305.1094 Q488.225,304.8906 487.6,304.8906 Q486.8344,304.8906 486.1938,305.2188 Q485.5688,305.5469 485.0688,306.2969 Q484.5844,307.0469 484.5844,308.0781 L484.5844,309.1719 Q484.5844,310.4063 485.475,311.2344 Q486.3656,312.0469 487.9594,312.0469 Q488.8969,312.0469 489.5531,311.7969 Q489.9438,311.6406 490.3656,311.2031 Q490.6313,310.9375 490.7719,310.8594 Q490.9281,310.7813 491.1313,310.7813 Q491.4594,310.7813 491.7094,311.0469 Q491.975,311.2969 491.975,311.6406 Q491.975,311.9844 491.6313,312.3906 Q491.1313,312.9688 490.3344,313.2969 Q489.2563,313.75 487.9594,313.75 Q486.4438,313.75 485.2406,313.125 Q484.2563,312.625 483.5688,311.5625 Q482.8813,310.4844 482.8813,309.2031 L482.8813,308.0469 Q482.8813,306.7188 483.4906,305.5781 Q484.1156,304.4219 485.2094,303.8125 Q486.3031,303.1875 487.5375,303.1875 Q488.2719,303.1875 488.9125,303.3594 Q489.5688,303.5156 490.1156,303.875 Z "/><text fill="#000000" font-family="sans-serif" font-size="12" lengthAdjust="spacingAndGlyphs" textLength="142" x="502.65" y="312.9102">NoSuchVariableException</text><line style="stroke: #A80036; stroke-width: 1.5;" x1="467.5" x2="652.5" y1="324" y2="324"/><line style="stroke: #A80036; stroke-width: 1.5;" x1="467.5" x2="652.5" y1="332" y2="332"/><ellipse cx="477.5" cy="343" fill="#84BE84" rx="3" ry="3" style="stroke: #038048; stroke-width: 1.0;"/><text fill="#000000" font-family="sans-serif" font-size="11" lengthAdjust="spacingAndGlyphs" textLength="161" x="486.5" y="347.4189">NoSuchVariableException(String)</text></a><!--MD5=[537623f78fe54ea63d01296e26bbd90b]
class org.apache.wiki.api.exceptions.PluginException--><a href="PluginException.html" target="_top" title="PluginException.html" xlink:actuate="onRequest" xlink:href="PluginException.html" xlink:show="new" xlink:title="PluginException.html" xlink:type="simple"><rect codeLine="15" fill="#FEFECE" filter="url(#f1qzsd19yqn6r2)" height="89.5078" id="org.apache.wiki.api.exceptions.PluginException" style="stroke: #A80036; stroke-width: 1.5;" width="195" x="688.5" y="278"/><ellipse cx="737.75" cy="294" fill="#ADD1B2" rx="11" ry="11" style="stroke: #A80036; stroke-width: 1.0;"/><path d="M740.5156,289.875 Q740.6719,289.6563 740.8594,289.5469 Q741.0469,289.4375 741.2656,289.4375 Q741.6406,289.4375 741.875,289.7031 Q742.1094,289.9531 742.1094,290.5625 L742.1094,292.0156 Q742.1094,292.625 741.875,292.8906 Q741.6406,293.1563 741.2656,293.1563 Q740.9219,293.1563 740.7188,292.9531 Q740.5156,292.7656 740.4063,292.25 Q740.3594,291.8906 740.1719,291.7031 Q739.8438,291.3281 739.2344,291.1094 Q738.625,290.8906 738,290.8906 Q737.2344,290.8906 736.5938,291.2188 Q735.9688,291.5469 735.4688,292.2969 Q734.9844,293.0469 734.9844,294.0781 L734.9844,295.1719 Q734.9844,296.4063 735.875,297.2344 Q736.7656,298.0469 738.3594,298.0469 Q739.2969,298.0469 739.9531,297.7969 Q740.3438,297.6406 740.7656,297.2031 Q741.0313,296.9375 741.1719,296.8594 Q741.3281,296.7813 741.5313,296.7813 Q741.8594,296.7813 742.1094,297.0469 Q742.375,297.2969 742.375,297.6406 Q742.375,297.9844 742.0313,298.3906 Q741.5313,298.9688 740.7344,299.2969 Q739.6563,299.75 738.3594,299.75 Q736.8438,299.75 735.6406,299.125 Q734.6563,298.625 733.9688,297.5625 Q733.2813,296.4844 733.2813,295.2031 L733.2813,294.0469 Q733.2813,292.7188 733.8906,291.5781 Q734.5156,290.4219 735.6094,289.8125 Q736.7031,289.1875 737.9375,289.1875 Q738.6719,289.1875 739.3125,289.3594 Q739.9688,289.5156 740.5156,289.875 Z "/><text fill="#000000" font-family="sans-serif" font-size="12" lengthAdjust="spacingAndGlyphs" textLength="88" x="758.25" y="298.9102">PluginException</text><line style="stroke: #A80036; stroke-width: 1.5;" x1="689.5" x2="882.5" y1="310" y2="310"/><line style="stroke: #A80036; stroke-width: 1.5;" x1="689.5" x2="882.5" y1="318" y2="318"/><ellipse cx="699.5" cy="329" fill="#84BE84" rx="3" ry="3" style="stroke: #038048; stroke-width: 1.0;"/><text fill="#000000" font-family="sans-serif" font-size="11" lengthAdjust="spacingAndGlyphs" textLength="111" x="708.5" y="333.4189">PluginException(String)</text><ellipse cx="699.5" cy="342.8359" fill="#84BE84" rx="3" ry="3" style="stroke: #038048; stroke-width: 1.0;"/><text fill="#000000" font-family="sans-serif" font-size="11" lengthAdjust="spacingAndGlyphs" textLength="169" x="708.5" y="347.2549">PluginException(String, Throwable)</text><ellipse cx="699.5" cy="356.6719" fill="#84BE84" rx="3" ry="3" style="stroke: #038048; stroke-width: 1.0;"/><text fill="#000000" font-family="sans-serif" font-size="11" lengthAdjust="spacingAndGlyphs" textLength="155" x="708.5" y="361.0908">getRootThrowable(): Throwable</text></a><!--MD5=[6346ac6320f1e597efc440bdcfb72a27]
class org.apache.wiki.api.exceptions.ProviderException--><a href="ProviderException.html" target="_top" title="ProviderException.html" xlink:actuate="onRequest" xlink:href="ProviderException.html" xlink:show="new" xlink:title="ProviderException.html" xlink:type="simple"><rect codeLine="21" fill="#FEFECE" filter="url(#f1qzsd19yqn6r2)" height="61.8359" id="org.apache.wiki.api.exceptions.ProviderException" style="stroke: #A80036; stroke-width: 1.5;" width="149" x="918.5" y="292"/><ellipse cx="942.05" cy="308" fill="#ADD1B2" rx="11" ry="11" style="stroke: #A80036; stroke-width: 1.0;"/><path d="M944.8156,303.875 Q944.9719,303.6563 945.1594,303.5469 Q945.3469,303.4375 945.5656,303.4375 Q945.9406,303.4375 946.175,303.7031 Q946.4094,303.9531 946.4094,304.5625 L946.4094,306.0156 Q946.4094,306.625 946.175,306.8906 Q945.9406,307.1563 945.5656,307.1563 Q945.2219,307.1563 945.0188,306.9531 Q944.8156,306.7656 944.7063,306.25 Q944.6594,305.8906 944.4719,305.7031 Q944.1438,305.3281 943.5344,305.1094 Q942.925,304.8906 942.3,304.8906 Q941.5344,304.8906 940.8938,305.2188 Q940.2688,305.5469 939.7688,306.2969 Q939.2844,307.0469 939.2844,308.0781 L939.2844,309.1719 Q939.2844,310.4063 940.175,311.2344 Q941.0656,312.0469 942.6594,312.0469 Q943.5969,312.0469 944.2531,311.7969 Q944.6438,311.6406 945.0656,311.2031 Q945.3313,310.9375 945.4719,310.8594 Q945.6281,310.7813 945.8313,310.7813 Q946.1594,310.7813 946.4094,311.0469 Q946.675,311.2969 946.675,311.6406 Q946.675,311.9844 946.3313,312.3906 Q945.8313,312.9688 945.0344,313.2969 Q943.9563,313.75 942.6594,313.75 Q941.1438,313.75 939.9406,313.125 Q938.9563,312.625 938.2688,311.5625 Q937.5813,310.4844 937.5813,309.2031 L937.5813,308.0469 Q937.5813,306.7188 938.1906,305.5781 Q938.8156,304.4219 939.9094,303.8125 Q941.0031,303.1875 942.2375,303.1875 Q942.9719,303.1875 943.6125,303.3594 Q944.2688,303.5156 944.8156,303.875 Z "/><text fill="#000000" font-family="sans-serif" font-size="12" lengthAdjust="spacingAndGlyphs" textLength="98" x="957.95" y="312.9102">ProviderException</text><line style="stroke: #A80036; stroke-width: 1.5;" x1="919.5" x2="1066.5" y1="324" y2="324"/><line style="stroke: #A80036; stroke-width: 1.5;" x1="919.5" x2="1066.5" y1="332" y2="332"/><ellipse cx="929.5" cy="343" fill="#84BE84" rx="3" ry="3" style="stroke: #038048; stroke-width: 1.0;"/><text fill="#000000" font-family="sans-serif" font-size="11" lengthAdjust="spacingAndGlyphs" textLength="123" x="938.5" y="347.4189">ProviderException(String)</text></a><!--MD5=[24a53e4790a197f300953d98b1392050]
class org.apache.wiki.api.exceptions.RedirectException--><a href="RedirectException.html" target="_top" title="RedirectException.html" xlink:actuate="onRequest" xlink:href="RedirectException.html" xlink:show="new" xlink:title="RedirectException.html" xlink:type="simple"><rect codeLine="25" fill="#FEFECE" filter="url(#f1qzsd19yqn6r2)" height="75.6719" id="org.apache.wiki.api.exceptions.RedirectException" style="stroke: #A80036; stroke-width: 1.5;" width="183" x="24.5" y="428"/><ellipse cx="62.9" cy="444" fill="#ADD1B2" rx="11" ry="11" style="stroke: #A80036; stroke-width: 1.0;"/><path d="M65.6656,439.875 Q65.8219,439.6563 66.0094,439.5469 Q66.1969,439.4375 66.4156,439.4375 Q66.7906,439.4375 67.025,439.7031 Q67.2594,439.9531 67.2594,440.5625 L67.2594,442.0156 Q67.2594,442.625 67.025,442.8906 Q66.7906,443.1563 66.4156,443.1563 Q66.0719,443.1563 65.8688,442.9531 Q65.6656,442.7656 65.5563,442.25 Q65.5094,441.8906 65.3219,441.7031 Q64.9938,441.3281 64.3844,441.1094 Q63.775,440.8906 63.15,440.8906 Q62.3844,440.8906 61.7438,441.2188 Q61.1188,441.5469 60.6188,442.2969 Q60.1344,443.0469 60.1344,444.0781 L60.1344,445.1719 Q60.1344,446.4063 61.025,447.2344 Q61.9156,448.0469 63.5094,448.0469 Q64.4469,448.0469 65.1031,447.7969 Q65.4938,447.6406 65.9156,447.2031 Q66.1813,446.9375 66.3219,446.8594 Q66.4781,446.7813 66.6813,446.7813 Q67.0094,446.7813 67.2594,447.0469 Q67.525,447.2969 67.525,447.6406 Q67.525,447.9844 67.1813,448.3906 Q66.6813,448.9688 65.8844,449.2969 Q64.8063,449.75 63.5094,449.75 Q61.9938,449.75 60.7906,449.125 Q59.8063,448.625 59.1188,447.5625 Q58.4313,446.4844 58.4313,445.2031 L58.4313,444.0469 Q58.4313,442.7188 59.0406,441.5781 Q59.6656,440.4219 60.7594,439.8125 Q61.8531,439.1875 63.0875,439.1875 Q63.8219,439.1875 64.4625,439.3594 Q65.1188,439.5156 65.6656,439.875 Z "/><text fill="#000000" font-family="sans-serif" font-size="12" lengthAdjust="spacingAndGlyphs" textLength="99" x="82.1" y="448.9102">RedirectException</text><line style="stroke: #A80036; stroke-width: 1.5;" x1="25.5" x2="206.5" y1="460" y2="460"/><line style="stroke: #A80036; stroke-width: 1.5;" x1="25.5" x2="206.5" y1="468" y2="468"/><ellipse cx="35.5" cy="479" fill="#84BE84" rx="3" ry="3" style="stroke: #038048; stroke-width: 1.0;"/><text fill="#000000" font-family="sans-serif" font-size="11" lengthAdjust="spacingAndGlyphs" textLength="157" x="44.5" y="483.4189">RedirectException(String, String)</text><ellipse cx="35.5" cy="492.8359" fill="#84BE84" rx="3" ry="3" style="stroke: #038048; stroke-width: 1.0;"/><text fill="#000000" font-family="sans-serif" font-size="11" lengthAdjust="spacingAndGlyphs" textLength="97" x="44.5" y="497.2549">getRedirect(): String</text></a><!--MD5=[51e0bd45a8d20f3becd765be19a9d68b]
class org.apache.wiki.api.exceptions.WikiException--><a href="WikiException.html" target="_top" title="WikiException.html" xlink:actuate="onRequest" xlink:href="WikiException.html" xlink:show="new" xlink:title="WikiException.html" xlink:type="simple"><rect codeLine="30" fill="#FEFECE" filter="url(#f1qzsd19yqn6r2)" height="75.6719" id="org.apache.wiki.api.exceptions.WikiException" style="stroke: #A80036; stroke-width: 1.5;" width="186" x="580" y="142"/><ellipse cx="630.75" cy="158" fill="#ADD1B2" rx="11" ry="11" style="stroke: #A80036; stroke-width: 1.0;"/><path d="M633.5156,153.875 Q633.6719,153.6563 633.8594,153.5469 Q634.0469,153.4375 634.2656,153.4375 Q634.6406,153.4375 634.875,153.7031 Q635.1094,153.9531 635.1094,154.5625 L635.1094,156.0156 Q635.1094,156.625 634.875,156.8906 Q634.6406,157.1563 634.2656,157.1563 Q633.9219,157.1563 633.7188,156.9531 Q633.5156,156.7656 633.4063,156.25 Q633.3594,155.8906 633.1719,155.7031 Q632.8438,155.3281 632.2344,155.1094 Q631.625,154.8906 631,154.8906 Q630.2344,154.8906 629.5938,155.2188 Q628.9688,155.5469 628.4688,156.2969 Q627.9844,157.0469 627.9844,158.0781 L627.9844,159.1719 Q627.9844,160.4063 628.875,161.2344 Q629.7656,162.0469 631.3594,162.0469 Q632.2969,162.0469 632.9531,161.7969 Q633.3438,161.6406 633.7656,161.2031 Q634.0313,160.9375 634.1719,160.8594 Q634.3281,160.7813 634.5313,160.7813 Q634.8594,160.7813 635.1094,161.0469 Q635.375,161.2969 635.375,161.6406 Q635.375,161.9844 635.0313,162.3906 Q634.5313,162.9688 633.7344,163.2969 Q632.6563,163.75 631.3594,163.75 Q629.8438,163.75 628.6406,163.125 Q627.6563,162.625 626.9688,161.5625 Q626.2813,160.4844 626.2813,159.2031 L626.2813,158.0469 Q626.2813,156.7188 626.8906,155.5781 Q627.5156,154.4219 628.6094,153.8125 Q629.7031,153.1875 630.9375,153.1875 Q631.6719,153.1875 632.3125,153.3594 Q632.9688,153.5156 633.5156,153.875 Z "/><text fill="#000000" font-family="sans-serif" font-size="12" lengthAdjust="spacingAndGlyphs" textLength="76" x="651.25" y="162.9102">WikiException</text><line style="stroke: #A80036; stroke-width: 1.5;" x1="581" x2="765" y1="174" y2="174"/><line style="stroke: #A80036; stroke-width: 1.5;" x1="581" x2="765" y1="182" y2="182"/><ellipse cx="591" cy="193" fill="#84BE84" rx="3" ry="3" style="stroke: #038048; stroke-width: 1.0;"/><text fill="#000000" font-family="sans-serif" font-size="11" lengthAdjust="spacingAndGlyphs" textLength="102" x="600" y="197.4189">WikiException(String)</text><ellipse cx="591" cy="206.8359" fill="#84BE84" rx="3" ry="3" style="stroke: #038048; stroke-width: 1.0;"/><text fill="#000000" font-family="sans-serif" font-size="11" lengthAdjust="spacingAndGlyphs" textLength="160" x="600" y="211.2549">WikiException(String, Throwable)</text></a><!--MD5=[676e832b30a9eebd8a3177baabd07280]
class org.apache.wiki.api.exceptions.WikiI18nException--><a href="WikiI18nException.html" target="_top" title="WikiI18nException.html" xlink:actuate="onRequest" xlink:href="WikiI18nException.html" xlink:show="new" xlink:title="WikiI18nException.html" xlink:type="simple"><rect codeLine="35" fill="#FEFECE" filter="url(#f1qzsd19yqn6r2)" height="89.5078" id="org.apache.wiki.api.exceptions.WikiI18nException" style="stroke: #A80036; stroke-width: 1.5;" width="194" x="1102" y="278"/><ellipse cx="1144.9" cy="294" fill="#ADD1B2" rx="11" ry="11" style="stroke: #A80036; stroke-width: 1.0;"/><path d="M1147.6656,289.875 Q1147.8219,289.6563 1148.0094,289.5469 Q1148.1969,289.4375 1148.4156,289.4375 Q1148.7906,289.4375 1149.025,289.7031 Q1149.2594,289.9531 1149.2594,290.5625 L1149.2594,292.0156 Q1149.2594,292.625 1149.025,292.8906 Q1148.7906,293.1563 1148.4156,293.1563 Q1148.0719,293.1563 1147.8688,292.9531 Q1147.6656,292.7656 1147.5563,292.25 Q1147.5094,291.8906 1147.3219,291.7031 Q1146.9938,291.3281 1146.3844,291.1094 Q1145.775,290.8906 1145.15,290.8906 Q1144.3844,290.8906 1143.7438,291.2188 Q1143.1188,291.5469 1142.6188,292.2969 Q1142.1344,293.0469 1142.1344,294.0781 L1142.1344,295.1719 Q1142.1344,296.4063 1143.025,297.2344 Q1143.9156,298.0469 1145.5094,298.0469 Q1146.4469,298.0469 1147.1031,297.7969 Q1147.4938,297.6406 1147.9156,297.2031 Q1148.1813,296.9375 1148.3219,296.8594 Q1148.4781,296.7813 1148.6813,296.7813 Q1149.0094,296.7813 1149.2594,297.0469 Q1149.525,297.2969 1149.525,297.6406 Q1149.525,297.9844 1149.1813,298.3906 Q1148.6813,298.9688 1147.8844,299.2969 Q1146.8063,299.75 1145.5094,299.75 Q1143.9938,299.75 1142.7906,299.125 Q1141.8063,298.625 1141.1188,297.5625 Q1140.4313,296.4844 1140.4313,295.2031 L1140.4313,294.0469 Q1140.4313,292.7188 1141.0406,291.5781 Q1141.6656,290.4219 1142.7594,289.8125 Q1143.8531,289.1875 1145.0875,289.1875 Q1145.8219,289.1875 1146.4625,289.3594 Q1147.1188,289.5156 1147.6656,289.875 Z "/><text fill="#000000" font-family="sans-serif" font-size="12" lengthAdjust="spacingAndGlyphs" textLength="100" x="1165.1" y="298.9102">WikiI18nException</text><line style="stroke: #A80036; stroke-width: 1.5;" x1="1103" x2="1295" y1="310" y2="310"/><polygon fill="none" points="1113,316,1117,320,1113,324,1109,320" style="stroke: #B38D22; stroke-width: 1.0;"/><text fill="#000000" font-family="sans-serif" font-size="11" lengthAdjust="spacingAndGlyphs" textLength="65" x="1122" y="325.4189">args: Object[]</text><line style="stroke: #A80036; stroke-width: 1.5;" x1="1103" x2="1295" y1="331.8359" y2="331.8359"/><ellipse cx="1113" cy="342.8359" fill="#84BE84" rx="3" ry="3" style="stroke: #038048; stroke-width: 1.0;"/><text fill="#000000" font-family="sans-serif" font-size="11" lengthAdjust="spacingAndGlyphs" textLength="168" x="1122" y="347.2549">WikiI18nException(String, Object...)</text><ellipse cx="1113" cy="356.6719" fill="#84BE84" rx="3" ry="3" style="stroke: #038048; stroke-width: 1.0;"/><text fill="#000000" font-family="sans-serif" font-size="11" lengthAdjust="spacingAndGlyphs" textLength="90" x="1122" y="361.0908">getArgs(): Object[]</text></a><!--MD5=[46c05dfe24a0851e179497c4631d3ff2]
class java.lang.Exception--><rect codeLine="52" fill="#FEFECE" filter="url(#f1qzsd19yqn6r2)" height="48" id="java.lang.Exception" style="stroke: #A80036; stroke-width: 1.5;" width="85" x="630.5" y="34"/><ellipse cx="645.5" cy="50" fill="#ADD1B2" rx="11" ry="11" style="stroke: #A80036; stroke-width: 1.0;"/><path d="M648.2656,45.875 Q648.4219,45.6563 648.6094,45.5469 Q648.7969,45.4375 649.0156,45.4375 Q649.3906,45.4375 649.625,45.7031 Q649.8594,45.9531 649.8594,46.5625 L649.8594,48.0156 Q649.8594,48.625 649.625,48.8906 Q649.3906,49.1563 649.0156,49.1563 Q648.6719,49.1563 648.4688,48.9531 Q648.2656,48.7656 648.1563,48.25 Q648.1094,47.8906 647.9219,47.7031 Q647.5938,47.3281 646.9844,47.1094 Q646.375,46.8906 645.75,46.8906 Q644.9844,46.8906 644.3438,47.2188 Q643.7188,47.5469 643.2188,48.2969 Q642.7344,49.0469 642.7344,50.0781 L642.7344,51.1719 Q642.7344,52.4063 643.625,53.2344 Q644.5156,54.0469 646.1094,54.0469 Q647.0469,54.0469 647.7031,53.7969 Q648.0938,53.6406 648.5156,53.2031 Q648.7813,52.9375 648.9219,52.8594 Q649.0781,52.7813 649.2813,52.7813 Q649.6094,52.7813 649.8594,53.0469 Q650.125,53.2969 650.125,53.6406 Q650.125,53.9844 649.7813,54.3906 Q649.2813,54.9688 648.4844,55.2969 Q647.4063,55.75 646.1094,55.75 Q644.5938,55.75 643.3906,55.125 Q642.4063,54.625 641.7188,53.5625 Q641.0313,52.4844 641.0313,51.2031 L641.0313,50.0469 Q641.0313,48.7188 641.6406,47.5781 Q642.2656,46.4219 643.3594,45.8125 Q644.4531,45.1875 645.6875,45.1875 Q646.4219,45.1875 647.0625,45.3594 Q647.7188,45.5156 648.2656,45.875 Z "/><text fill="#000000" font-family="sans-serif" font-size="12" lengthAdjust="spacingAndGlyphs" textLength="53" x="659.5" y="54.9102">Exception</text><line style="stroke: #A80036; stroke-width: 1.5;" x1="631.5" x2="714.5" y1="66" y2="66"/><line style="stroke: #A80036; stroke-width: 1.5;" x1="631.5" x2="714.5" y1="74" y2="74"/><!--MD5=[0bc9dd1b575c567de88e8c17c18850f6]
reverse link org.apache.wiki.api.exceptions.WikiException to org.apache.wiki.api.exceptions.FilterException--><path codeLine="41" d="M559.8958,192.4486 C457.0543,206.0375 302.2299,232.2263 174,278 C163.4048,281.7821 152.5115,286.73 142.2261,291.9576 " fill="none" id="org.apache.wiki.api.exceptions.WikiException-backto-org.apache.wiki.api.exceptions.FilterException" style="stroke: #A80036; stroke-width: 1.0;"/><polygon fill="none" points="559.0184,185.5039,579.7477,189.8968,560.8034,199.3896,559.0184,185.5039" style="stroke: #A80036; stroke-width: 1.0;"/><!--MD5=[39264478238c0831a0f9e5371d7d9738]
reverse link org.apache.wiki.api.exceptions.WikiException to org.apache.wiki.api.exceptions.NoRequiredPropertyException--><path codeLine="42" d="M560.9753,224.2529 C505.409,246.2031 439.6442,272.182 389.519,291.9828 " fill="none" id="org.apache.wiki.api.exceptions.WikiException-backto-org.apache.wiki.api.exceptions.NoRequiredPropertyException" style="stroke: #A80036; stroke-width: 1.0;"/><polygon fill="none" points="558.6029,217.6637,579.776,216.8261,563.7466,230.6846,558.6029,217.6637" style="stroke: #A80036; stroke-width: 1.0;"/><!--MD5=[993e9671c3b593f7bdd3df7b08783192]
reverse link org.apache.wiki.api.exceptions.WikiException to org.apache.wiki.api.exceptions.NoSuchVariableException--><path codeLine="43" d="M630.2326,234.1216 C614.8336,253.6089 597.9858,274.9295 584.6522,291.803 " fill="none" id="org.apache.wiki.api.exceptions.WikiException-backto-org.apache.wiki.api.exceptions.NoSuchVariableException" style="stroke: #A80036; stroke-width: 1.0;"/><polygon fill="none" points="624.8258,229.6734,642.7181,218.3214,635.8103,238.3534,624.8258,229.6734" style="stroke: #A80036; stroke-width: 1.0;"/><!--MD5=[6a69a9de40e333362dc32b7eb51cedcc]
reverse link org.apache.wiki.api.exceptions.WikiException to org.apache.wiki.api.exceptions.PluginException--><path codeLine="44" d="M715.7441,234.0922 C727.1793,248.5632 739.415,264.0473 750.4181,277.9716 " fill="none" id="org.apache.wiki.api.exceptions.WikiException-backto-org.apache.wiki.api.exceptions.PluginException" style="stroke: #A80036; stroke-width: 1.0;"/><polygon fill="none" points="710.1897,238.3534,703.2819,218.3214,721.1742,229.6734,710.1897,238.3534" style="stroke: #A80036; stroke-width: 1.0;"/><!--MD5=[a656e25f6046074046b2742b96157540]
reverse link org.apache.wiki.api.exceptions.WikiException to org.apache.wiki.api.exceptions.ProviderException--><path codeLine="45" d="M783.0451,226.013 C820.6347,242.0709 862.8147,260.4675 901,278 C910.5336,282.3773 920.5595,287.1272 930.3443,291.8453 " fill="none" id="org.apache.wiki.api.exceptions.WikiException-backto-org.apache.wiki.api.exceptions.ProviderException" style="stroke: #A80036; stroke-width: 1.0;"/><polygon fill="none" points="780.089,232.3625,764.4273,218.0897,785.5713,219.4806,780.089,232.3625" style="stroke: #A80036; stroke-width: 1.0;"/><!--MD5=[da79e2284644c267c82b4b2852046e57]
reverse link org.apache.wiki.api.exceptions.FilterException to org.apache.wiki.api.exceptions.RedirectException--><path codeLine="46" d="M99.2338,373.7856 C102.4736,391.6046 106.0549,411.3022 109.073,427.9017 " fill="none" id="org.apache.wiki.api.exceptions.FilterException-backto-org.apache.wiki.api.exceptions.RedirectException" style="stroke: #A80036; stroke-width: 1.0;"/><polygon fill="none" points="92.3323,374.9585,95.6416,354.0289,106.1065,372.454,92.3323,374.9585" style="stroke: #A80036; stroke-width: 1.0;"/><!--MD5=[eed413f56936acbb0f540fee28899af8]
reverse link java.lang.Exception to org.apache.wiki.api.exceptions.WikiException--><path codeLine="47" d="M673,102.2804 C673,115.1383 673,129.0701 673,141.5397 " fill="none" id="java.lang.Exception-backto-org.apache.wiki.api.exceptions.WikiException" style="stroke: #A80036; stroke-width: 1.0;"/><polygon fill="none" points="666.0001,102.1033,673,82.1033,680.0001,102.1032,666.0001,102.1033" style="stroke: #A80036; stroke-width: 1.0;"/><!--MD5=[7154bccf71731a0642a8c6a4edb907b3]
reverse link org.apache.wiki.api.exceptions.WikiException to org.apache.wiki.api.exceptions.WikiI18nException--><path codeLine="48" d="M785.7566,202.2868 C869.2287,219.8768 985.2748,246.6324 1085,278 C1090.4803,279.7238 1096.0727,281.5845 1101.6926,283.5341 " fill="none" id="org.apache.wiki.api.exceptions.WikiException-backto-org.apache.wiki.api.exceptions.WikiI18nException" style="stroke: #A80036; stroke-width: 1.0;"/><polygon fill="none" points="784.2172,209.1164,766.0678,198.1803,787.0757,195.4113,784.2172,209.1164" style="stroke: #A80036; stroke-width: 1.0;"/><text fill="#888888" font-family="sans-serif" font-size="10" lengthAdjust="spacingAndGlyphs" textLength="190" x="559" y="528.3809">UMLDoclet 2.0.12, PlantUML 1.2020.16</text><!--MD5=[bbd78eb5333bb2673f5f2f531dfea56b]
@startuml
    namespace org.apache.wiki.api.exceptions {

        class FilterException [[FilterException.html]] {
            +FilterException(String)
        }

        class NoRequiredPropertyException [[NoRequiredPropertyException.html]] {
            +NoRequiredPropertyException(String, String)
        }

        class NoSuchVariableException [[NoSuchVariableException.html]] {
            +NoSuchVariableException(String)
        }

        class PluginException [[PluginException.html]] {
            +PluginException(String)
            +PluginException(String, Throwable)
            +getRootThrowable(): Throwable
        }

        class ProviderException [[ProviderException.html]] {
            +ProviderException(String)
        }

        class RedirectException [[RedirectException.html]] {
            +RedirectException(String, String)
            +getRedirect(): String
        }

        class WikiException [[WikiException.html]] {
            +WikiException(String)
            +WikiException(String, Throwable)
        }

        class WikiI18nException [[WikiI18nException.html]] {
            #args: Object[]
            +WikiI18nException(String, Object...)
            +getArgs(): Object[]
        }

        WikiException <|- - FilterException
        WikiException <|- - NoRequiredPropertyException
        WikiException <|- - NoSuchVariableException
        WikiException <|- - PluginException
        WikiException <|- - ProviderException
        FilterException <|- - RedirectException
        java.lang.Exception <|- - WikiException
        WikiException <|- - WikiI18nException
    }

    namespace java.lang {
        class Exception {
        }
    }

    center footer UMLDoclet 2.0.12, PlantUML 1.2020.16
@enduml

PlantUML version 1.2020.16(Sun Aug 23 22:20:43 CEST 2020)
(APACHE source distribution)
Java Runtime: OpenJDK Runtime Environment
JVM: OpenJDK 64-Bit Server VM
Default Encoding: Cp1252
Language: es
Country: ES
--></g></svg>