<?xml version="1.0" encoding="UTF-8" standalone="no"?><svg xmlns="http://www.w3.org/2000/svg" xmlns:xlink="http://www.w3.org/1999/xlink" contentScriptType="application/ecmascript" contentStyleType="text/css" height="233px" preserveAspectRatio="none" style="width:221px;height:233px;" version="1.1" viewBox="0 0 221 233" width="221px" zoomAndPan="magnify"><defs><filter height="300%" id="fnfl4u160i7fp" width="300%" x="-1" y="-1"><feGaussianBlur result="blurOut" stdDeviation="2.0"/><feColorMatrix in="blurOut" result="blurOut2" type="matrix" values="0 0 0 0 0 0 0 0 0 0 0 0 0 0 0 0 0 0 .4 0"/><feOffset dx="4.0" dy="4.0" in="blurOut2" result="blurOut3"/><feBlend in="SourceGraphic" in2="blurOut3" mode="normal"/></filter></defs><g><!--MD5=[537623f78fe54ea63d01296e26bbd90b]
class org.apache.wiki.api.exceptions.PluginException--><a href="PluginException.html" target="_top" title="PluginException.html" xlink:actuate="onRequest" xlink:href="PluginException.html" xlink:show="new" xlink:title="PluginException.html" xlink:type="simple"><rect codeLine="5" fill="#FEFECE" filter="url(#fnfl4u160i7fp)" height="89.6953" id="org.apache.wiki.api.exceptions.PluginException" style="stroke: #A80036; stroke-width: 1.5;" width="195" x="7" y="107"/><ellipse cx="29.65" cy="127.0938" fill="#ADD1B2" rx="11" ry="11" style="stroke: #A80036; stroke-width: 1.0;"/><path d="M32.4156,122.9688 Q32.5719,122.75 32.7594,122.6406 Q32.9469,122.5313 33.1656,122.5313 Q33.5406,122.5313 33.775,122.7969 Q34.0094,123.0469 34.0094,123.6563 L34.0094,125.1094 Q34.0094,125.7188 33.775,125.9844 Q33.5406,126.25 33.1656,126.25 Q32.8219,126.25 32.6188,126.0469 Q32.4156,125.8594 32.3063,125.3438 Q32.2594,124.9844 32.0719,124.7969 Q31.7438,124.4219 31.1344,124.2031 Q30.525,123.9844 29.9,123.9844 Q29.1344,123.9844 28.4938,124.3125 Q27.8688,124.6406 27.3688,125.3906 Q26.8844,126.1406 26.8844,127.1719 L26.8844,128.2656 Q26.8844,129.5 27.775,130.3281 Q28.6656,131.1406 30.2594,131.1406 Q31.1969,131.1406 31.8531,130.8906 Q32.2438,130.7344 32.6656,130.2969 Q32.9313,130.0313 33.0719,129.9531 Q33.2281,129.875 33.4313,129.875 Q33.7594,129.875 34.0094,130.1406 Q34.275,130.3906 34.275,130.7344 Q34.275,131.0781 33.9313,131.4844 Q33.4313,132.0625 32.6344,132.3906 Q31.5563,132.8438 30.2594,132.8438 Q28.7438,132.8438 27.5406,132.2188 Q26.5563,131.7188 25.8688,130.6563 Q25.1813,129.5781 25.1813,128.2969 L25.1813,127.1406 Q25.1813,125.8125 25.7906,124.6719 Q26.4156,123.5156 27.5094,122.9063 Q28.6031,122.2813 29.8375,122.2813 Q30.5719,122.2813 31.2125,122.4531 Q31.8688,122.6094 32.4156,122.9688 Z "/><text fill="#000000" font-family="sans-serif" font-size="14" lengthAdjust="spacingAndGlyphs" textLength="100" x="68.35" y="126.5332">PluginException</text><text fill="#000000" font-family="sans-serif" font-size="10" lengthAdjust="spacingAndGlyphs" textLength="146" x="45.35" y="139.9902">org.apache.wiki.api.exceptions</text><line style="stroke: #A80036; stroke-width: 1.5;" x1="8" x2="201" y1="147.1875" y2="147.1875"/><ellipse cx="18" cy="158.1875" fill="#84BE84" rx="3" ry="3" style="stroke: #038048; stroke-width: 1.0;"/><text fill="#000000" font-family="sans-serif" font-size="11" lengthAdjust="spacingAndGlyphs" textLength="111" x="27" y="162.6064">PluginException(String)</text><ellipse cx="18" cy="172.0234" fill="#84BE84" rx="3" ry="3" style="stroke: #038048; stroke-width: 1.0;"/><text fill="#000000" font-family="sans-serif" font-size="11" lengthAdjust="spacingAndGlyphs" textLength="169" x="27" y="176.4424">PluginException(String, Throwable)</text><ellipse cx="18" cy="185.8594" fill="#84BE84" rx="3" ry="3" style="stroke: #038048; stroke-width: 1.0;"/><text fill="#000000" font-family="sans-serif" font-size="11" lengthAdjust="spacingAndGlyphs" textLength="155" x="27" y="190.2783">getRootThrowable(): Throwable</text></a><!--MD5=[51e0bd45a8d20f3becd765be19a9d68b]
class org.apache.wiki.api.exceptions.WikiException--><a href="WikiException.html" target="_top" title="WikiException.html" xlink:actuate="onRequest" xlink:href="WikiException.html" xlink:show="new" xlink:title="WikiException.html" xlink:type="simple"><rect codeLine="11" fill="#FEFECE" filter="url(#fnfl4u160i7fp)" height="40.1875" id="org.apache.wiki.api.exceptions.WikiException" style="stroke: #A80036; stroke-width: 1.5;" width="178" x="15.5" y="7"/><ellipse cx="30.5" cy="27.0938" fill="#ADD1B2" rx="11" ry="11" style="stroke: #A80036; stroke-width: 1.0;"/><path d="M33.2656,22.9688 Q33.4219,22.75 33.6094,22.6406 Q33.7969,22.5313 34.0156,22.5313 Q34.3906,22.5313 34.625,22.7969 Q34.8594,23.0469 34.8594,23.6563 L34.8594,25.1094 Q34.8594,25.7188 34.625,25.9844 Q34.3906,26.25 34.0156,26.25 Q33.6719,26.25 33.4688,26.0469 Q33.2656,25.8594 33.1563,25.3438 Q33.1094,24.9844 32.9219,24.7969 Q32.5938,24.4219 31.9844,24.2031 Q31.375,23.9844 30.75,23.9844 Q29.9844,23.9844 29.3438,24.3125 Q28.7188,24.6406 28.2188,25.3906 Q27.7344,26.1406 27.7344,27.1719 L27.7344,28.2656 Q27.7344,29.5 28.625,30.3281 Q29.5156,31.1406 31.1094,31.1406 Q32.0469,31.1406 32.7031,30.8906 Q33.0938,30.7344 33.5156,30.2969 Q33.7813,30.0313 33.9219,29.9531 Q34.0781,29.875 34.2813,29.875 Q34.6094,29.875 34.8594,30.1406 Q35.125,30.3906 35.125,30.7344 Q35.125,31.0781 34.7813,31.4844 Q34.2813,32.0625 33.4844,32.3906 Q32.4063,32.8438 31.1094,32.8438 Q29.5938,32.8438 28.3906,32.2188 Q27.4063,31.7188 26.7188,30.6563 Q26.0313,29.5781 26.0313,28.2969 L26.0313,27.1406 Q26.0313,25.8125 26.6406,24.6719 Q27.2656,23.5156 28.3594,22.9063 Q29.4531,22.2813 30.6875,22.2813 Q31.4219,22.2813 32.0625,22.4531 Q32.7188,22.6094 33.2656,22.9688 Z "/><text fill="#000000" font-family="sans-serif" font-size="14" lengthAdjust="spacingAndGlyphs" textLength="87" x="74" y="26.5332">WikiException</text><text fill="#000000" font-family="sans-serif" font-size="10" lengthAdjust="spacingAndGlyphs" textLength="146" x="44.5" y="39.9902">org.apache.wiki.api.exceptions</text></a><!--MD5=[6a69a9de40e333362dc32b7eb51cedcc]
reverse link org.apache.wiki.api.exceptions.WikiException to org.apache.wiki.api.exceptions.PluginException--><path codeLine="13" d="M104.5,67.1809 C104.5,79.8177 104.5,93.8558 104.5,106.8155 " fill="none" id="org.apache.wiki.api.exceptions.WikiException-backto-org.apache.wiki.api.exceptions.PluginException" style="stroke: #A80036; stroke-width: 1.0;"/><polygon fill="none" points="97.5001,67.0834,104.5,47.0834,111.5001,67.0834,97.5001,67.0834" style="stroke: #A80036; stroke-width: 1.0;"/><text fill="#888888" font-family="sans-serif" font-size="10" lengthAdjust="spacingAndGlyphs" textLength="190" x="6.5" y="220.0762">UMLDoclet 2.0.12, PlantUML 1.2020.16</text><!--MD5=[c3e9d391a54a28a50ea65374225a7686]
@startuml
    set namespaceSeparator none
    hide empty fields
    hide empty methods

    class "<size:14>PluginException\n<size:10>org.apache.wiki.api.exceptions" as org.apache.wiki.api.exceptions.PluginException [[PluginException.html]] {
        +PluginException(String)
        +PluginException(String, Throwable)
        +getRootThrowable(): Throwable
    }

    class "<size:14>WikiException\n<size:10>org.apache.wiki.api.exceptions" as org.apache.wiki.api.exceptions.WikiException [[WikiException.html]]

    org.apache.wiki.api.exceptions.WikiException <|- - org.apache.wiki.api.exceptions.PluginException

    center footer UMLDoclet 2.0.12, PlantUML 1.2020.16
@enduml

PlantUML version 1.2020.16(Sun Aug 23 22:20:43 CEST 2020)
(APACHE source distribution)
Java Runtime: OpenJDK Runtime Environment
JVM: OpenJDK 64-Bit Server VM
Default Encoding: Cp1252
Language: es
Country: ES
--></g></svg>