<?xml version="1.0" encoding="UTF-8" standalone="no"?><svg xmlns="http://www.w3.org/2000/svg" xmlns:xlink="http://www.w3.org/1999/xlink" contentScriptType="application/ecmascript" contentStyleType="text/css" height="830px" preserveAspectRatio="none" style="width:404px;height:830px;" version="1.1" viewBox="0 0 404 830" width="404px" zoomAndPan="magnify"><defs><filter height="300%" id="f1kxh5m5xxyzvu" width="300%" x="-1" y="-1"><feGaussianBlur result="blurOut" stdDeviation="2.0"/><feColorMatrix in="blurOut" result="blurOut2" type="matrix" values="0 0 0 0 0 0 0 0 0 0 0 0 0 0 0 0 0 0 .4 0"/><feOffset dx="4.0" dy="4.0" in="blurOut2" result="blurOut3"/><feBlend in="SourceGraphic" in2="blurOut3" mode="normal"/></filter></defs><g><!--MD5=[55ae1ca8ba60d41d8ba4ea5542bd994b]
cluster org.apache.wiki.url--><polygon fill="#FFFFFF" filter="url(#f1kxh5m5xxyzvu)" points="16,127,173,127,180,149.2969,382,149.2969,382,802,16,802,16,127" style="stroke: #000000; stroke-width: 1.5;"/><line style="stroke: #000000; stroke-width: 1.5;" x1="16" x2="180" y1="149.2969" y2="149.2969"/><text fill="#000000" font-family="sans-serif" font-size="14" font-weight="bold" lengthAdjust="spacingAndGlyphs" textLength="151" x="20" y="141.9951">org.apache.wiki.url</text><!--MD5=[06e4b2620a8b168056b961578cd367b2]
cluster org.apache.wiki.api.engine--><polygon fill="#FFFFFF" filter="url(#f1kxh5m5xxyzvu)" points="83,6,301,6,308,28.2969,315,28.2969,315,102,83,102,83,6" style="stroke: #000000; stroke-width: 1.5;"/><line style="stroke: #000000; stroke-width: 1.5;" x1="83" x2="308" y1="28.2969" y2="28.2969"/><text fill="#000000" font-family="sans-serif" font-size="14" font-weight="bold" lengthAdjust="spacingAndGlyphs" textLength="212" x="87" y="20.9951">org.apache.wiki.api.engine</text><!--MD5=[90e04e17e6818b0a1fac62cd41b193a2]
class org.apache.wiki.url.DefaultURLConstructor--><a href="DefaultURLConstructor.html" target="_top" title="DefaultURLConstructor.html" xlink:actuate="onRequest" xlink:href="DefaultURLConstructor.html" xlink:show="new" xlink:title="DefaultURLConstructor.html" xlink:type="simple"><rect codeLine="3" fill="#FEFECE" filter="url(#f1kxh5m5xxyzvu)" height="150.4375" id="org.apache.wiki.url.DefaultURLConstructor" style="stroke: #A80036; stroke-width: 1.5;" width="341" x="28.5" y="313"/><ellipse cx="123.75" cy="329" fill="#ADD1B2" rx="11" ry="11" style="stroke: #A80036; stroke-width: 1.0;"/><path d="M126.7188,334.6406 Q126.1406,334.9375 125.5,335.0781 Q124.8594,335.2344 124.1563,335.2344 Q121.6563,335.2344 120.3281,333.5938 Q119.0156,331.9375 119.0156,328.8125 Q119.0156,325.6875 120.3281,324.0313 Q121.6563,322.375 124.1563,322.375 Q124.8594,322.375 125.5,322.5313 Q126.1563,322.6875 126.7188,322.9844 L126.7188,325.7031 Q126.0938,325.125 125.5,324.8594 Q124.9063,324.5781 124.2813,324.5781 Q122.9375,324.5781 122.25,325.6563 Q121.5625,326.7188 121.5625,328.8125 Q121.5625,330.9063 122.25,331.9844 Q122.9375,333.0469 124.2813,333.0469 Q124.9063,333.0469 125.5,332.7813 Q126.0938,332.5 126.7188,331.9219 L126.7188,334.6406 Z "/><text fill="#000000" font-family="sans-serif" font-size="12" lengthAdjust="spacingAndGlyphs" textLength="142" x="144.25" y="333.1543">DefaultURLConstructor</text><line style="stroke: #A80036; stroke-width: 1.5;" x1="29.5" x2="368.5" y1="345" y2="345"/><polygon fill="none" points="39.5,351,43.5,355,39.5,359,35.5,355" style="stroke: #B38D22; stroke-width: 1.0;"/><text fill="#000000" font-family="sans-serif" font-size="11" lengthAdjust="spacingAndGlyphs" textLength="101" x="48.5" y="359.2104">m_engine: Engine</text><polygon fill="none" points="39.5,363.8047,43.5,367.8047,39.5,371.8047,35.5,367.8047" style="stroke: #B38D22; stroke-width: 1.0;"/><text fill="#000000" font-family="sans-serif" font-size="11" lengthAdjust="spacingAndGlyphs" textLength="116" x="48.5" y="372.0151">m_pathPrefix: String</text><line style="stroke: #A80036; stroke-width: 1.5;" x1="29.5" x2="368.5" y1="378.6094" y2="378.6094"/><ellipse cx="39.5" cy="389.6094" fill="#84BE84" rx="3" ry="3" style="stroke: #038048; stroke-width: 1.0;"/><text fill="#000000" font-family="sans-serif" font-size="11" lengthAdjust="spacingAndGlyphs" textLength="189" x="48.5" y="392.8198">initialize(Engine, Properties): void</text><polygon fill="#FFFF44" points="39.5,397.4141,43.5,401.4141,39.5,405.4141,35.5,401.4141" style="stroke: #B38D22; stroke-width: 1.0;"/><text fill="#000000" font-family="sans-serif" font-size="11" lengthAdjust="spacingAndGlyphs" textLength="213" x="48.5" y="405.6245">doReplacement(String, String): String</text><ellipse cx="39.5" cy="415.2188" fill="#84BE84" rx="3" ry="3" style="stroke: #038048; stroke-width: 1.0;"/><text fill="#000000" font-family="sans-serif" font-size="11" lengthAdjust="spacingAndGlyphs" text-decoration="underline" textLength="206" x="48.5" y="418.4292">getURLPattern(String, String): String</text><ellipse cx="39.5" cy="428.0234" fill="#84BE84" rx="3" ry="3" style="stroke: #038048; stroke-width: 1.0;"/><text fill="#000000" font-family="sans-serif" font-size="11" lengthAdjust="spacingAndGlyphs" textLength="220" x="48.5" y="431.2339">makeURL(String, String, String): String</text><ellipse cx="39.5" cy="440.8281" fill="#84BE84" rx="3" ry="3" style="stroke: #038048; stroke-width: 1.0;"/><text fill="#000000" font-family="sans-serif" font-size="11" lengthAdjust="spacingAndGlyphs" textLength="315" x="48.5" y="444.0386">parsePage(String, HttpServletRequest, Charset): String</text><ellipse cx="39.5" cy="453.6328" fill="#84BE84" rx="3" ry="3" style="stroke: #038048; stroke-width: 1.0;"/><text fill="#000000" font-family="sans-serif" font-size="11" lengthAdjust="spacingAndGlyphs" textLength="251" x="48.5" y="456.8433">getForwardPage(HttpServletRequest): String</text></a><!--MD5=[a78f8a598b24f626fe1cd9ec8cca10b7]
class org.apache.wiki.url.URLConstructor--><a href="URLConstructor.html" target="_top" title="URLConstructor.html" xlink:actuate="onRequest" xlink:href="URLConstructor.html" xlink:show="new" xlink:title="URLConstructor.html" xlink:type="simple"><rect codeLine="14" fill="#FEFECE" filter="url(#f1kxh5m5xxyzvu)" height="99.2188" id="org.apache.wiki.url.URLConstructor" style="stroke: #A80036; stroke-width: 1.5;" width="349" x="24.5" y="154"/><ellipse cx="146.25" cy="170" fill="#B4A7E5" rx="11" ry="11" style="stroke: #A80036; stroke-width: 1.0;"/><path d="M142.1719,165.7656 L142.1719,163.6094 L149.5625,163.6094 L149.5625,165.7656 L147.0938,165.7656 L147.0938,173.8438 L149.5625,173.8438 L149.5625,176 L142.1719,176 L142.1719,173.8438 L144.6406,173.8438 L144.6406,165.7656 L142.1719,165.7656 Z "/><text fill="#000000" font-family="sans-serif" font-size="12" font-style="italic" lengthAdjust="spacingAndGlyphs" textLength="97" x="166.75" y="174.1543">URLConstructor</text><line style="stroke: #A80036; stroke-width: 1.5;" x1="25.5" x2="372.5" y1="186" y2="186"/><line style="stroke: #A80036; stroke-width: 1.5;" x1="25.5" x2="372.5" y1="194" y2="194"/><ellipse cx="35.5" cy="205" fill="#84BE84" rx="3" ry="3" style="stroke: #038048; stroke-width: 1.0;"/><text fill="#000000" font-family="sans-serif" font-size="11" font-style="italic" lengthAdjust="spacingAndGlyphs" textLength="217" x="44.5" y="208.2104">makeURL(String, String, String): String</text><ellipse cx="35.5" cy="217.8047" fill="#84BE84" rx="3" ry="3" style="stroke: #038048; stroke-width: 1.0;"/><text fill="#000000" font-family="sans-serif" font-size="11" font-style="italic" lengthAdjust="spacingAndGlyphs" textLength="311" x="44.5" y="221.0151">parsePage(String, HttpServletRequest, Charset): String</text><ellipse cx="35.5" cy="230.6094" fill="#84BE84" rx="3" ry="3" style="stroke: #038048; stroke-width: 1.0;"/><text fill="#000000" font-family="sans-serif" font-size="11" font-style="italic" lengthAdjust="spacingAndGlyphs" textLength="250" x="44.5" y="233.8198">getForwardPage(HttpServletRequest): String</text><ellipse cx="35.5" cy="243.4141" fill="#84BE84" rx="3" ry="3" style="stroke: #038048; stroke-width: 1.0;"/><text fill="#000000" font-family="sans-serif" font-size="11" lengthAdjust="spacingAndGlyphs" text-decoration="underline" textLength="323" x="44.5" y="246.6245">parsePageFromURL(HttpServletRequest, Charset): String</text></a><!--MD5=[17a79f8d4af2dd765d506790925b0664]
class org.apache.wiki.url.ShortViewURLConstructor--><a href="ShortViewURLConstructor.html" target="_top" title="ShortViewURLConstructor.html" xlink:actuate="onRequest" xlink:href="ShortViewURLConstructor.html" xlink:show="new" xlink:title="ShortViewURLConstructor.html" xlink:type="simple"><rect codeLine="21" fill="#FEFECE" filter="url(#f1kxh5m5xxyzvu)" height="86.4141" id="org.apache.wiki.url.ShortViewURLConstructor" style="stroke: #A80036; stroke-width: 1.5;" width="277" x="60.5" y="708"/><ellipse cx="115.25" cy="724" fill="#ADD1B2" rx="11" ry="11" style="stroke: #A80036; stroke-width: 1.0;"/><path d="M118.2188,729.6406 Q117.6406,729.9375 117,730.0781 Q116.3594,730.2344 115.6563,730.2344 Q113.1563,730.2344 111.8281,728.5938 Q110.5156,726.9375 110.5156,723.8125 Q110.5156,720.6875 111.8281,719.0313 Q113.1563,717.375 115.6563,717.375 Q116.3594,717.375 117,717.5313 Q117.6563,717.6875 118.2188,717.9844 L118.2188,720.7031 Q117.5938,720.125 117,719.8594 Q116.4063,719.5781 115.7813,719.5781 Q114.4375,719.5781 113.75,720.6563 Q113.0625,721.7188 113.0625,723.8125 Q113.0625,725.9063 113.75,726.9844 Q114.4375,728.0469 115.7813,728.0469 Q116.4063,728.0469 117,727.7813 Q117.5938,727.5 118.2188,726.9219 L118.2188,729.6406 Z "/><text fill="#000000" font-family="sans-serif" font-size="12" lengthAdjust="spacingAndGlyphs" textLength="159" x="135.75" y="728.1543">ShortViewURLConstructor</text><line style="stroke: #A80036; stroke-width: 1.5;" x1="61.5" x2="336.5" y1="740" y2="740"/><line style="stroke: #A80036; stroke-width: 1.5;" x1="61.5" x2="336.5" y1="748" y2="748"/><ellipse cx="71.5" cy="759" fill="#84BE84" rx="3" ry="3" style="stroke: #038048; stroke-width: 1.0;"/><text fill="#000000" font-family="sans-serif" font-size="11" lengthAdjust="spacingAndGlyphs" textLength="189" x="80.5" y="762.2104">initialize(Engine, Properties): void</text><ellipse cx="71.5" cy="771.8047" fill="#84BE84" rx="3" ry="3" style="stroke: #038048; stroke-width: 1.0;"/><text fill="#000000" font-family="sans-serif" font-size="11" lengthAdjust="spacingAndGlyphs" textLength="220" x="80.5" y="775.0151">makeURL(String, String, String): String</text><ellipse cx="71.5" cy="784.6094" fill="#84BE84" rx="3" ry="3" style="stroke: #038048; stroke-width: 1.0;"/><text fill="#000000" font-family="sans-serif" font-size="11" lengthAdjust="spacingAndGlyphs" textLength="251" x="80.5" y="787.8198">getForwardPage(HttpServletRequest): String</text></a><!--MD5=[3b2c199703195c73578603f45a7e1435]
class org.apache.wiki.url.ShortURLConstructor--><a href="ShortURLConstructor.html" target="_top" title="ShortURLConstructor.html" xlink:actuate="onRequest" xlink:href="ShortURLConstructor.html" xlink:show="new" xlink:title="ShortURLConstructor.html" xlink:type="simple"><rect codeLine="27" fill="#FEFECE" filter="url(#f1kxh5m5xxyzvu)" height="124.8281" id="org.apache.wiki.url.ShortURLConstructor" style="stroke: #A80036; stroke-width: 1.5;" width="341" x="28.5" y="523"/><ellipse cx="129.25" cy="539" fill="#ADD1B2" rx="11" ry="11" style="stroke: #A80036; stroke-width: 1.0;"/><path d="M132.2188,544.6406 Q131.6406,544.9375 131,545.0781 Q130.3594,545.2344 129.6563,545.2344 Q127.1563,545.2344 125.8281,543.5938 Q124.5156,541.9375 124.5156,538.8125 Q124.5156,535.6875 125.8281,534.0313 Q127.1563,532.375 129.6563,532.375 Q130.3594,532.375 131,532.5313 Q131.6563,532.6875 132.2188,532.9844 L132.2188,535.7031 Q131.5938,535.125 131,534.8594 Q130.4063,534.5781 129.7813,534.5781 Q128.4375,534.5781 127.75,535.6563 Q127.0625,536.7188 127.0625,538.8125 Q127.0625,540.9063 127.75,541.9844 Q128.4375,543.0469 129.7813,543.0469 Q130.4063,543.0469 131,542.7813 Q131.5938,542.5 132.2188,541.9219 L132.2188,544.6406 Z "/><text fill="#000000" font-family="sans-serif" font-size="12" lengthAdjust="spacingAndGlyphs" textLength="131" x="149.75" y="543.1543">ShortURLConstructor</text><line style="stroke: #A80036; stroke-width: 1.5;" x1="29.5" x2="368.5" y1="555" y2="555"/><polygon fill="none" points="39.5,561,43.5,565,39.5,569,35.5,565" style="stroke: #B38D22; stroke-width: 1.0;"/><text fill="#000000" font-family="sans-serif" font-size="11" lengthAdjust="spacingAndGlyphs" textLength="106" x="48.5" y="569.2104">m_urlPrefix: String</text><ellipse cx="39.5" cy="578.8047" fill="none" rx="3" ry="3" style="stroke: #038048; stroke-width: 1.0;"/><text fill="#000000" font-family="sans-serif" font-size="11" lengthAdjust="spacingAndGlyphs" text-decoration="underline" textLength="115" x="48.5" y="582.0151">PROP_PREFIX: String</text><line style="stroke: #A80036; stroke-width: 1.5;" x1="29.5" x2="368.5" y1="588.6094" y2="588.6094"/><ellipse cx="39.5" cy="599.6094" fill="#84BE84" rx="3" ry="3" style="stroke: #038048; stroke-width: 1.0;"/><text fill="#000000" font-family="sans-serif" font-size="11" lengthAdjust="spacingAndGlyphs" textLength="189" x="48.5" y="602.8198">initialize(Engine, Properties): void</text><ellipse cx="39.5" cy="612.4141" fill="#84BE84" rx="3" ry="3" style="stroke: #038048; stroke-width: 1.0;"/><text fill="#000000" font-family="sans-serif" font-size="11" lengthAdjust="spacingAndGlyphs" textLength="220" x="48.5" y="615.6245">makeURL(String, String, String): String</text><ellipse cx="39.5" cy="625.2188" fill="#84BE84" rx="3" ry="3" style="stroke: #038048; stroke-width: 1.0;"/><text fill="#000000" font-family="sans-serif" font-size="11" lengthAdjust="spacingAndGlyphs" textLength="315" x="48.5" y="628.4292">parsePage(String, HttpServletRequest, Charset): String</text><ellipse cx="39.5" cy="638.0234" fill="#84BE84" rx="3" ry="3" style="stroke: #038048; stroke-width: 1.0;"/><text fill="#000000" font-family="sans-serif" font-size="11" lengthAdjust="spacingAndGlyphs" textLength="251" x="48.5" y="641.2339">getForwardPage(HttpServletRequest): String</text></a><!--MD5=[b42cfcd16e39a0fd6a37261d508d7333]
class org.apache.wiki.api.engine.Initializable--><a href="../api/engine/Initializable.html" target="_top" title="../api/engine/Initializable.html" xlink:actuate="onRequest" xlink:href="../api/engine/Initializable.html" xlink:show="new" xlink:title="../api/engine/Initializable.html" xlink:type="simple"><rect codeLine="43" fill="#FEFECE" filter="url(#f1kxh5m5xxyzvu)" height="60.8047" id="org.apache.wiki.api.engine.Initializable" style="stroke: #A80036; stroke-width: 1.5;" width="216" x="91" y="33"/><ellipse cx="159.75" cy="49" fill="#B4A7E5" rx="11" ry="11" style="stroke: #A80036; stroke-width: 1.0;"/><path d="M155.6719,44.7656 L155.6719,42.6094 L163.0625,42.6094 L163.0625,44.7656 L160.5938,44.7656 L160.5938,52.8438 L163.0625,52.8438 L163.0625,55 L155.6719,55 L155.6719,52.8438 L158.1406,52.8438 L158.1406,44.7656 L155.6719,44.7656 Z "/><text fill="#000000" font-family="sans-serif" font-size="12" font-style="italic" lengthAdjust="spacingAndGlyphs" textLength="70" x="180.25" y="53.1543">Initializable</text><line style="stroke: #A80036; stroke-width: 1.5;" x1="92" x2="306" y1="65" y2="65"/><line style="stroke: #A80036; stroke-width: 1.5;" x1="92" x2="306" y1="73" y2="73"/><ellipse cx="102" cy="84" fill="#84BE84" rx="3" ry="3" style="stroke: #038048; stroke-width: 1.0;"/><text fill="#000000" font-family="sans-serif" font-size="11" font-style="italic" lengthAdjust="spacingAndGlyphs" textLength="190" x="111" y="87.2104">initialize(Engine, Properties): void</text></a><!--MD5=[b0f5bce18bc3ce2db7a8da9cdd3b99f9]
reverse link org.apache.wiki.url.URLConstructor to org.apache.wiki.url.DefaultURLConstructor--><path codeLine="36" d="M199,273.5511 C199,286.3565 199,299.7687 199,312.7188 " fill="none" id="org.apache.wiki.url.URLConstructor-backto-org.apache.wiki.url.DefaultURLConstructor" style="stroke: #A80036; stroke-width: 1.0; stroke-dasharray: 7.0,7.0;"/><polygon fill="none" points="192.0001,273.4284,199,253.4284,206.0001,273.4283,192.0001,273.4284" style="stroke: #A80036; stroke-width: 1.0;"/><!--MD5=[efb2738b45559bf6c66b129485216bc2]
reverse link org.apache.wiki.api.engine.Initializable to org.apache.wiki.url.URLConstructor--><path codeLine="37" d="M199,114.5882 C199,127.4009 199,141.1275 199,153.868 " fill="none" id="org.apache.wiki.api.engine.Initializable-backto-org.apache.wiki.url.URLConstructor" style="stroke: #A80036; stroke-width: 1.0;"/><polygon fill="none" points="192.0001,114.2236,199,94.2236,206.0001,114.2236,192.0001,114.2236" style="stroke: #A80036; stroke-width: 1.0;"/><!--MD5=[d0f204998b715b57410372793a717e14]
reverse link org.apache.wiki.url.ShortURLConstructor to org.apache.wiki.url.ShortViewURLConstructor--><path codeLine="38" d="M199,668.0723 C199,681.8503 199,695.635 199,707.8983 " fill="none" id="org.apache.wiki.url.ShortURLConstructor-backto-org.apache.wiki.url.ShortViewURLConstructor" style="stroke: #A80036; stroke-width: 1.0;"/><polygon fill="none" points="192.0001,668.0685,199,648.0685,206.0001,668.0684,192.0001,668.0685" style="stroke: #A80036; stroke-width: 1.0;"/><!--MD5=[7aa4bacb480d67169d965a73370d4502]
reverse link org.apache.wiki.url.DefaultURLConstructor to org.apache.wiki.url.ShortURLConstructor--><path codeLine="39" d="M199,483.3233 C199,496.6893 199,510.1391 199,522.6917 " fill="none" id="org.apache.wiki.url.DefaultURLConstructor-backto-org.apache.wiki.url.ShortURLConstructor" style="stroke: #A80036; stroke-width: 1.0;"/><polygon fill="none" points="192.0001,483.2297,199,463.2297,206.0001,483.2297,192.0001,483.2297" style="stroke: #A80036; stroke-width: 1.0;"/><text fill="#888888" font-family="sans-serif" font-size="10" lengthAdjust="spacingAndGlyphs" textLength="192" x="97" y="817.2822">UMLDoclet 2.0.12, PlantUML 1.2020.16</text><!--MD5=[6b35ba3133f95407f83c8fb91bb87e07]
@startuml
    namespace org.apache.wiki.url {

        class DefaultURLConstructor [[DefaultURLConstructor.html]] {
            #m_engine: Engine
            #m_pathPrefix: String
            +initialize(Engine, Properties): void
            #doReplacement(String, String): String
            {static} +getURLPattern(String, String): String
            +makeURL(String, String, String): String
            +parsePage(String, HttpServletRequest, Charset): String
            +getForwardPage(HttpServletRequest): String
        }

        interface URLConstructor [[URLConstructor.html]] {
            {abstract} +makeURL(String, String, String): String
            {abstract} +parsePage(String, HttpServletRequest, Charset): String
            {abstract} +getForwardPage(HttpServletRequest): String
            {static} +parsePageFromURL(HttpServletRequest, Charset): String
        }

        class ShortViewURLConstructor [[ShortViewURLConstructor.html]] {
            +initialize(Engine, Properties): void
            +makeURL(String, String, String): String
            +getForwardPage(HttpServletRequest): String
        }

        class ShortURLConstructor [[ShortURLConstructor.html]] {
            #m_urlPrefix: String
            {static} +PROP_PREFIX: String
            +initialize(Engine, Properties): void
            +makeURL(String, String, String): String
            +parsePage(String, HttpServletRequest, Charset): String
            +getForwardPage(HttpServletRequest): String
        }

        URLConstructor <|.. DefaultURLConstructor
        org.apache.wiki.api.engine.Initializable <|- - URLConstructor
        ShortURLConstructor <|- - ShortViewURLConstructor
        DefaultURLConstructor <|- - ShortURLConstructor
    }

    namespace org.apache.wiki.api.engine {
        interface Initializable [[../api/engine/Initializable.html]] {
            {abstract} +initialize(Engine, Properties): void
        }
    }

    center footer UMLDoclet 2.0.12, PlantUML 1.2020.16
@enduml

PlantUML version 1.2020.16(Sun Aug 23 20:20:43 UTC 2020)
(APACHE source distribution)
Java Runtime: Java(TM) SE Runtime Environment
JVM: Java HotSpot(TM) 64-Bit Server VM
Default Encoding: ISO-8859-1
Language: en
Country: US
--></g></svg>