<?xml version="1.0" encoding="UTF-8" standalone="no"?><svg xmlns="http://www.w3.org/2000/svg" xmlns:xlink="http://www.w3.org/1999/xlink" contentScriptType="application/ecmascript" contentStyleType="text/css" height="144px" preserveAspectRatio="none" style="width:297px;height:144px;" version="1.1" viewBox="0 0 297 144" width="297px" zoomAndPan="magnify"><defs><filter height="300%" id="f1sg5zga1t8y60" width="300%" x="-1" y="-1"><feGaussianBlur result="blurOut" stdDeviation="2.0"/><feColorMatrix in="blurOut" result="blurOut2" type="matrix" values="0 0 0 0 0 0 0 0 0 0 0 0 0 0 0 0 0 0 .4 0"/><feOffset dx="4.0" dy="4.0" in="blurOut2" result="blurOut3"/><feBlend in="SourceGraphic" in2="blurOut3" mode="normal"/></filter></defs><g><!--class JSPWikiLinkAttributeProvider--><a href="JSPWikiLinkAttributeProvider.html" target="_top" xlink:actuate="onRequest" xlink:show="new" xlink:title="JSPWikiLinkAttributeProvider.html" xlink:type="simple"><rect fill="#FEFECE" filter="url(#f1sg5zga1t8y60)" height="103.3438" id="JSPWikiLinkAttributeProvider" style="stroke: #A80036; stroke-width: 1.5;" width="280" x="6" y="8"/><ellipse cx="63.25" cy="24" fill="#ADD1B2" rx="11" ry="11" style="stroke: #A80036; stroke-width: 1.0;"/><path d="M66.0156,19.875 Q66.1719,19.6563 66.3594,19.5469 Q66.5469,19.4375 66.7656,19.4375 Q67.1406,19.4375 67.375,19.6953 Q67.6094,19.9531 67.6094,20.5625 L67.6094,22.0156 Q67.6094,22.625 67.375,22.8906 Q67.1406,23.1563 66.7656,23.1563 Q66.4219,23.1563 66.2188,22.9531 Q66.0156,22.7656 65.9063,22.25 Q65.8594,21.8906 65.6719,21.7031 Q65.3438,21.3281 64.7344,21.1094 Q64.125,20.8906 63.5,20.8906 Q62.7344,20.8906 62.1016,21.2188 Q61.4688,21.5469 60.9766,22.2969 Q60.4844,23.0469 60.4844,24.0781 L60.4844,25.1719 Q60.4844,26.4063 61.375,27.2266 Q62.2656,28.0469 63.8594,28.0469 Q64.7969,28.0469 65.4531,27.7969 Q65.8438,27.6406 66.2656,27.2031 Q66.5313,26.9375 66.6797,26.8594 Q66.8281,26.7813 67.0313,26.7813 Q67.3594,26.7813 67.6172,27.0391 Q67.875,27.2969 67.875,27.6406 Q67.875,27.9844 67.5313,28.3906 Q67.0313,28.9688 66.2344,29.2969 Q65.1563,29.75 63.8594,29.75 Q62.3438,29.75 61.1406,29.125 Q60.1563,28.625 59.4688,27.5547 Q58.7813,26.4844 58.7813,25.2031 L58.7813,24.0469 Q58.7813,22.7188 59.3984,21.5703 Q60.0156,20.4219 61.1094,19.8047 Q62.2031,19.1875 63.4375,19.1875 Q64.1719,19.1875 64.8203,19.3516 Q65.4688,19.5156 66.0156,19.875 Z "/><text fill="#000000" font-family="sans-serif" font-size="12" lengthAdjust="spacingAndGlyphs" textLength="157" x="83.75" y="28.9102">JSPWikiLinkAttributeProvider</text><line style="stroke: #A80036; stroke-width: 1.5;" x1="7" x2="285" y1="40" y2="40"/><polygon fill="none" points="17,47.418,21,51.418,17,55.418,13,51.418" style="stroke: #B38D22; stroke-width: 1.0;"/><text fill="#000000" font-family="sans-serif" font-size="11" lengthAdjust="spacingAndGlyphs" textLength="118" x="26" y="55.4189">wikiContext: WikiContext</text><polygon fill="none" points="17,61.2539,21,65.2539,17,69.2539,13,65.2539" style="stroke: #B38D22; stroke-width: 1.0;"/><text fill="#000000" font-family="sans-serif" font-size="11" lengthAdjust="spacingAndGlyphs" textLength="182" x="26" y="69.2549">linkOperations: LinkParsingOperations</text><line style="stroke: #A80036; stroke-width: 1.5;" x1="7" x2="285" y1="75.6719" y2="75.6719"/><ellipse cx="17" cy="88.0898" fill="#84BE84" rx="3" ry="3" style="stroke: #038048; stroke-width: 1.0;"/><text fill="#000000" font-family="sans-serif" font-size="11" lengthAdjust="spacingAndGlyphs" textLength="201" x="26" y="91.0908">JSPWikiLinkAttributeProvider(WikiContext)</text><ellipse cx="17" cy="101.9258" fill="#84BE84" rx="3" ry="3" style="stroke: #038048; stroke-width: 1.0;"/><text fill="#000000" font-family="sans-serif" font-size="11" lengthAdjust="spacingAndGlyphs" textLength="254" x="26" y="104.9268">setAttributes(Node, AttributablePart, Attributes): void</text></a><text fill="#888888" font-family="sans-serif" font-size="10" lengthAdjust="spacingAndGlyphs" textLength="184" x="60" y="131.3809">UMLDoclet 1.1.4, PlantUML 1.2019.05</text><!--
@startuml

    class JSPWikiLinkAttributeProvider [[JSPWikiLinkAttributeProvider.html]] {
        #wikiContext: WikiContext
        #linkOperations: LinkParsingOperations
        +JSPWikiLinkAttributeProvider(WikiContext)
        +setAttributes(Node, AttributablePart, Attributes): void
    }


    center footer UMLDoclet 1.1.4, PlantUML 1.2019.05
@enduml

PlantUML version 1.2019.05(Sat Apr 20 18:45:36 CEST 2019)
(APACHE source distribution)
Java Runtime: OpenJDK Runtime Environment
JVM: OpenJDK 64-Bit Server VM
Java Version: 1.8.0_212-b03
Operating System: Windows 10
OS Version: 10.0
Default Encoding: Cp1252
Language: es
Country: ES
--></g></svg>