<?xml version="1.0" encoding="UTF-8" standalone="no"?><svg xmlns="http://www.w3.org/2000/svg" xmlns:xlink="http://www.w3.org/1999/xlink" contentScriptType="application/ecmascript" contentStyleType="text/css" height="117px" preserveAspectRatio="none" style="width:309px;height:117px;" version="1.1" viewBox="0 0 309 117" width="309px" zoomAndPan="magnify"><defs><filter height="300%" id="f17f73n6yrejur" width="300%" x="-1" y="-1"><feGaussianBlur result="blurOut" stdDeviation="2.0"/><feColorMatrix in="blurOut" result="blurOut2" type="matrix" values="0 0 0 0 0 0 0 0 0 0 0 0 0 0 0 0 0 0 .4 0"/><feOffset dx="4.0" dy="4.0" in="blurOut2" result="blurOut3"/><feBlend in="SourceGraphic" in2="blurOut3" mode="normal"/></filter></defs><g><!--class LocalEditLinkAttributeProviderState--><a href="LocalEditLinkAttributeProviderState.html" target="_top" xlink:actuate="onRequest" xlink:show="new" xlink:title="LocalEditLinkAttributeProviderState.html" xlink:type="simple"><rect fill="#FEFECE" filter="url(#f17f73n6yrejur)" height="75.6719" id="LocalEditLinkAttributeProviderState" style="stroke: #A80036; stroke-width: 1.5;" width="292" x="6" y="8"/><ellipse cx="52.25" cy="24" fill="#ADD1B2" rx="11" ry="11" style="stroke: #A80036; stroke-width: 1.0;"/><path d="M55.0156,19.875 Q55.1719,19.6563 55.3594,19.5469 Q55.5469,19.4375 55.7656,19.4375 Q56.1406,19.4375 56.375,19.6953 Q56.6094,19.9531 56.6094,20.5625 L56.6094,22.0156 Q56.6094,22.625 56.375,22.8906 Q56.1406,23.1563 55.7656,23.1563 Q55.4219,23.1563 55.2188,22.9531 Q55.0156,22.7656 54.9063,22.25 Q54.8594,21.8906 54.6719,21.7031 Q54.3438,21.3281 53.7344,21.1094 Q53.125,20.8906 52.5,20.8906 Q51.7344,20.8906 51.1016,21.2188 Q50.4688,21.5469 49.9766,22.2969 Q49.4844,23.0469 49.4844,24.0781 L49.4844,25.1719 Q49.4844,26.4063 50.375,27.2266 Q51.2656,28.0469 52.8594,28.0469 Q53.7969,28.0469 54.4531,27.7969 Q54.8438,27.6406 55.2656,27.2031 Q55.5313,26.9375 55.6797,26.8594 Q55.8281,26.7813 56.0313,26.7813 Q56.3594,26.7813 56.6172,27.0391 Q56.875,27.2969 56.875,27.6406 Q56.875,27.9844 56.5313,28.3906 Q56.0313,28.9688 55.2344,29.2969 Q54.1563,29.75 52.8594,29.75 Q51.3438,29.75 50.1406,29.125 Q49.1563,28.625 48.4688,27.5547 Q47.7813,26.4844 47.7813,25.2031 L47.7813,24.0469 Q47.7813,22.7188 48.3984,21.5703 Q49.0156,20.4219 50.1094,19.8047 Q51.2031,19.1875 52.4375,19.1875 Q53.1719,19.1875 53.8203,19.3516 Q54.4688,19.5156 55.0156,19.875 Z "/><text fill="#000000" font-family="sans-serif" font-size="12" lengthAdjust="spacingAndGlyphs" textLength="191" x="72.75" y="28.9102">LocalEditLinkAttributeProviderState</text><line style="stroke: #A80036; stroke-width: 1.5;" x1="7" x2="297" y1="40" y2="40"/><line style="stroke: #A80036; stroke-width: 1.5;" x1="7" x2="297" y1="48" y2="48"/><ellipse cx="17" cy="60.418" fill="#84BE84" rx="3" ry="3" style="stroke: #038048; stroke-width: 1.0;"/><text fill="#000000" font-family="sans-serif" font-size="11" lengthAdjust="spacingAndGlyphs" textLength="266" x="26" y="63.4189">LocalEditLinkAttributeProviderState(WikiContext, String)</text><ellipse cx="17" cy="74.2539" fill="#84BE84" rx="3" ry="3" style="stroke: #038048; stroke-width: 1.0;"/><text fill="#000000" font-family="sans-serif" font-size="11" lengthAdjust="spacingAndGlyphs" textLength="205" x="26" y="77.2549">setAttributes(Attributes, JSPWikiLink): void</text></a><text fill="#888888" font-family="sans-serif" font-size="10" lengthAdjust="spacingAndGlyphs" textLength="184" x="66" y="104.3809">UMLDoclet 1.1.4, PlantUML 1.2019.05</text><!--
@startuml

    class LocalEditLinkAttributeProviderState [[LocalEditLinkAttributeProviderState.html]] {
        +LocalEditLinkAttributeProviderState(WikiContext, String)
        +setAttributes(Attributes, JSPWikiLink): void
    }


    center footer UMLDoclet 1.1.4, PlantUML 1.2019.05
@enduml

PlantUML version 1.2019.05(Sat Apr 20 18:45:36 CEST 2019)
(APACHE source distribution)
Java Runtime: OpenJDK Runtime Environment
JVM: OpenJDK 64-Bit Server VM
Java Version: 1.8.0_212-b03
Operating System: Windows 10
OS Version: 10.0
Default Encoding: Cp1252
Language: es
Country: ES
--></g></svg>