<?xml version="1.0" encoding="UTF-8" standalone="no"?><svg xmlns="http://www.w3.org/2000/svg" xmlns:xlink="http://www.w3.org/1999/xlink" contentScriptType="application/ecmascript" contentStyleType="text/css" height="283px" preserveAspectRatio="none" style="width:300px;height:283px;" version="1.1" viewBox="0 0 300 283" width="300px" zoomAndPan="magnify"><defs><filter height="300%" id="f1u64ohodbw72y" width="300%" x="-1" y="-1"><feGaussianBlur result="blurOut" stdDeviation="2.0"/><feColorMatrix in="blurOut" result="blurOut2" type="matrix" values="0 0 0 0 0 0 0 0 0 0 0 0 0 0 0 0 0 0 .4 0"/><feOffset dx="4.0" dy="4.0" in="blurOut2" result="blurOut3"/><feBlend in="SourceGraphic" in2="blurOut3" mode="normal"/></filter></defs><g><!--MD5=[091a20c8220a40d37b5e82c35d3b86d0]
class org.apache.wiki.tasks.DefaultTasksManager--><a href="DefaultTasksManager.html" target="_top" title="DefaultTasksManager.html" xlink:actuate="onRequest" xlink:href="DefaultTasksManager.html" xlink:show="new" xlink:title="DefaultTasksManager.html" xlink:type="simple"><rect codeLine="5" fill="#FEFECE" filter="url(#f1u64ohodbw72y)" height="89.6953" id="org.apache.wiki.tasks.DefaultTasksManager" style="stroke: #A80036; stroke-width: 1.5;" width="262" x="13" y="157"/><ellipse cx="70.25" cy="177.0938" fill="#ADD1B2" rx="11" ry="11" style="stroke: #A80036; stroke-width: 1.0;"/><path d="M73.0156,172.9688 Q73.1719,172.75 73.3594,172.6406 Q73.5469,172.5313 73.7656,172.5313 Q74.1406,172.5313 74.375,172.7969 Q74.6094,173.0469 74.6094,173.6563 L74.6094,175.1094 Q74.6094,175.7188 74.375,175.9844 Q74.1406,176.25 73.7656,176.25 Q73.4219,176.25 73.2188,176.0469 Q73.0156,175.8594 72.9063,175.3438 Q72.8594,174.9844 72.6719,174.7969 Q72.3438,174.4219 71.7344,174.2031 Q71.125,173.9844 70.5,173.9844 Q69.7344,173.9844 69.0938,174.3125 Q68.4688,174.6406 67.9688,175.3906 Q67.4844,176.1406 67.4844,177.1719 L67.4844,178.2656 Q67.4844,179.5 68.375,180.3281 Q69.2656,181.1406 70.8594,181.1406 Q71.7969,181.1406 72.4531,180.8906 Q72.8438,180.7344 73.2656,180.2969 Q73.5313,180.0313 73.6719,179.9531 Q73.8281,179.875 74.0313,179.875 Q74.3594,179.875 74.6094,180.1406 Q74.875,180.3906 74.875,180.7344 Q74.875,181.0781 74.5313,181.4844 Q74.0313,182.0625 73.2344,182.3906 Q72.1563,182.8438 70.8594,182.8438 Q69.3438,182.8438 68.1406,182.2188 Q67.1563,181.7188 66.4688,180.6563 Q65.7813,179.5781 65.7813,178.2969 L65.7813,177.1406 Q65.7813,175.8125 66.3906,174.6719 Q67.0156,173.5156 68.1094,172.9063 Q69.2031,172.2813 70.4375,172.2813 Q71.1719,172.2813 71.8125,172.4531 Q72.4688,172.6094 73.0156,172.9688 Z "/><text fill="#000000" font-family="sans-serif" font-size="14" lengthAdjust="spacingAndGlyphs" textLength="139" x="90.75" y="176.5332">DefaultTasksManager</text><text fill="#000000" font-family="sans-serif" font-size="10" lengthAdjust="spacingAndGlyphs" textLength="98" x="111.25" y="189.9902">org.apache.wiki.tasks</text><line style="stroke: #A80036; stroke-width: 1.5;" x1="14" x2="274" y1="197.1875" y2="197.1875"/><ellipse cx="24" cy="208.1875" fill="#84BE84" rx="3" ry="3" style="stroke: #038048; stroke-width: 1.0;"/><text fill="#000000" font-family="sans-serif" font-size="11" lengthAdjust="spacingAndGlyphs" textLength="236" x="33" y="212.6064">buildPreSaveWikiPageTask(Context, String): Step</text><ellipse cx="24" cy="222.0234" fill="#84BE84" rx="3" ry="3" style="stroke: #038048; stroke-width: 1.0;"/><text fill="#000000" font-family="sans-serif" font-size="11" lengthAdjust="spacingAndGlyphs" textLength="186" x="33" y="226.4424">buildSaveWikiPageTask(Context): Step</text><ellipse cx="24" cy="235.8594" fill="#84BE84" rx="3" ry="3" style="stroke: #038048; stroke-width: 1.0;"/><text fill="#000000" font-family="sans-serif" font-size="11" lengthAdjust="spacingAndGlyphs" textLength="229" x="33" y="240.2783">buildSaveUserProfileTask(Engine, Locale): Step</text></a><!--MD5=[7f1e611d6ffb6300e1a5462a91b61034]
class org.apache.wiki.tasks.TasksManager--><a href="TasksManager.html" target="_top" title="TasksManager.html" xlink:actuate="onRequest" xlink:href="TasksManager.html" xlink:show="new" xlink:title="TasksManager.html" xlink:type="simple"><rect codeLine="11" fill="#FEFECE" filter="url(#f1u64ohodbw72y)" height="89.6953" id="org.apache.wiki.tasks.TasksManager" style="stroke: #A80036; stroke-width: 1.5;" width="274" x="7" y="7"/><ellipse cx="88.75" cy="27.0938" fill="#B4A7E5" rx="11" ry="11" style="stroke: #A80036; stroke-width: 1.0;"/><path d="M89.7031,23.7344 L89.7031,30.3906 L91.4219,30.3906 Q92.0313,30.3906 92.2969,30.625 Q92.5625,30.8594 92.5625,31.25 Q92.5625,31.625 92.2969,31.8594 Q92.0313,32.0938 91.4219,32.0938 L86.2813,32.0938 Q85.6719,32.0938 85.4063,31.8594 Q85.1406,31.625 85.1406,31.2344 Q85.1406,30.8594 85.4063,30.625 Q85.6719,30.3906 86.2813,30.3906 L88,30.3906 L88,23.7344 L86.2813,23.7344 Q85.6719,23.7344 85.4063,23.5 Q85.1406,23.2656 85.1406,22.875 Q85.1406,22.5 85.4063,22.2656 Q85.6719,22.0313 86.2813,22.0313 L91.4219,22.0313 Q92.0313,22.0313 92.2969,22.2656 Q92.5625,22.5 92.5625,22.875 Q92.5625,23.2656 92.2969,23.5 Q92.0313,23.7344 91.4219,23.7344 L89.7031,23.7344 Z "/><text fill="#000000" font-family="sans-serif" font-size="14" font-style="italic" lengthAdjust="spacingAndGlyphs" textLength="96" x="112.25" y="26.5332">TasksManager</text><text fill="#000000" font-family="sans-serif" font-size="10" font-style="italic" lengthAdjust="spacingAndGlyphs" textLength="102" x="109.25" y="39.9902">org.apache.wiki.tasks</text><line style="stroke: #A80036; stroke-width: 1.5;" x1="8" x2="280" y1="47.1875" y2="47.1875"/><ellipse cx="18" cy="58.1875" fill="#84BE84" rx="3" ry="3" style="stroke: #038048; stroke-width: 1.0;"/><text fill="#000000" font-family="sans-serif" font-size="11" font-style="italic" lengthAdjust="spacingAndGlyphs" textLength="248" x="27" y="62.6064">buildPreSaveWikiPageTask(Context, String): Step</text><ellipse cx="18" cy="72.0234" fill="#84BE84" rx="3" ry="3" style="stroke: #038048; stroke-width: 1.0;"/><text fill="#000000" font-family="sans-serif" font-size="11" font-style="italic" lengthAdjust="spacingAndGlyphs" textLength="196" x="27" y="76.4424">buildSaveWikiPageTask(Context): Step</text><ellipse cx="18" cy="85.8594" fill="#84BE84" rx="3" ry="3" style="stroke: #038048; stroke-width: 1.0;"/><text fill="#000000" font-family="sans-serif" font-size="11" font-style="italic" lengthAdjust="spacingAndGlyphs" textLength="238" x="27" y="90.2783">buildSaveUserProfileTask(Engine, Locale): Step</text></a><!--MD5=[c88b1361e30b34f2763f36929061337a]
reverse link org.apache.wiki.tasks.TasksManager to org.apache.wiki.tasks.DefaultTasksManager--><path codeLine="17" d="M144,117.3266 C144,130.6316 144,144.3495 144,156.7678 " fill="none" id="org.apache.wiki.tasks.TasksManager-backto-org.apache.wiki.tasks.DefaultTasksManager" style="stroke: #A80036; stroke-width: 1.0; stroke-dasharray: 7.0,7.0;"/><polygon fill="none" points="137.0001,117.005,144,97.0049,151.0001,117.0049,137.0001,117.005" style="stroke: #A80036; stroke-width: 1.0;"/><text fill="#888888" font-family="sans-serif" font-size="10" lengthAdjust="spacingAndGlyphs" textLength="190" x="46" y="270.0762">UMLDoclet 2.0.12, PlantUML 1.2020.16</text><!--MD5=[a7ef443ce1bde20139b1b8f671c4e918]
@startuml
    set namespaceSeparator none
    hide empty fields
    hide empty methods

    class "<size:14>DefaultTasksManager\n<size:10>org.apache.wiki.tasks" as org.apache.wiki.tasks.DefaultTasksManager [[DefaultTasksManager.html]] {
        +buildPreSaveWikiPageTask(Context, String): Step
        +buildSaveWikiPageTask(Context): Step
        +buildSaveUserProfileTask(Engine, Locale): Step
    }

    interface "<size:14>TasksManager\n<size:10>org.apache.wiki.tasks" as org.apache.wiki.tasks.TasksManager [[TasksManager.html]] {
        {abstract} +buildPreSaveWikiPageTask(Context, String): Step
        {abstract} +buildSaveWikiPageTask(Context): Step
        {abstract} +buildSaveUserProfileTask(Engine, Locale): Step
    }

    org.apache.wiki.tasks.TasksManager <|.. org.apache.wiki.tasks.DefaultTasksManager

    center footer UMLDoclet 2.0.12, PlantUML 1.2020.16
@enduml

PlantUML version 1.2020.16(Sun Aug 23 22:20:43 CEST 2020)
(APACHE source distribution)
Java Runtime: OpenJDK Runtime Environment
JVM: OpenJDK 64-Bit Server VM
Default Encoding: Cp1252
Language: es
Country: ES
--></g></svg>