<?xml version="1.0" encoding="UTF-8" standalone="no"?><svg xmlns="http://www.w3.org/2000/svg" xmlns:xlink="http://www.w3.org/1999/xlink" contentScriptType="application/ecmascript" contentStyleType="text/css" height="269px" preserveAspectRatio="none" style="width:202px;height:269px;" version="1.1" viewBox="0 0 202 269" width="202px" zoomAndPan="magnify"><defs><filter height="300%" id="f8k106gyby3fu" width="300%" x="-1" y="-1"><feGaussianBlur result="blurOut" stdDeviation="2.0"/><feColorMatrix in="blurOut" result="blurOut2" type="matrix" values="0 0 0 0 0 0 0 0 0 0 0 0 0 0 0 0 0 0 .4 0"/><feOffset dx="4.0" dy="4.0" in="blurOut2" result="blurOut3"/><feBlend in="SourceGraphic" in2="blurOut3" mode="normal"/></filter></defs><g><!--MD5=[c289935f4f3ae7acb7f6093ea5cd00ad]
class org.apache.wiki.tags.NoSuchPageTag--><a href="NoSuchPageTag.html" target="_top" title="NoSuchPageTag.html" xlink:actuate="onRequest" xlink:href="NoSuchPageTag.html" xlink:show="new" xlink:title="NoSuchPageTag.html" xlink:type="simple"><rect codeLine="5" fill="#FEFECE" filter="url(#f8k106gyby3fu)" height="103.5313" id="org.apache.wiki.tags.NoSuchPageTag" style="stroke: #A80036; stroke-width: 1.5;" width="139" x="28.5" y="129"/><ellipse cx="43.5" cy="149.0938" fill="#ADD1B2" rx="11" ry="11" style="stroke: #A80036; stroke-width: 1.0;"/><path d="M46.2656,144.9688 Q46.4219,144.75 46.6094,144.6406 Q46.7969,144.5313 47.0156,144.5313 Q47.3906,144.5313 47.625,144.7969 Q47.8594,145.0469 47.8594,145.6563 L47.8594,147.1094 Q47.8594,147.7188 47.625,147.9844 Q47.3906,148.25 47.0156,148.25 Q46.6719,148.25 46.4688,148.0469 Q46.2656,147.8594 46.1563,147.3438 Q46.1094,146.9844 45.9219,146.7969 Q45.5938,146.4219 44.9844,146.2031 Q44.375,145.9844 43.75,145.9844 Q42.9844,145.9844 42.3438,146.3125 Q41.7188,146.6406 41.2188,147.3906 Q40.7344,148.1406 40.7344,149.1719 L40.7344,150.2656 Q40.7344,151.5 41.625,152.3281 Q42.5156,153.1406 44.1094,153.1406 Q45.0469,153.1406 45.7031,152.8906 Q46.0938,152.7344 46.5156,152.2969 Q46.7813,152.0313 46.9219,151.9531 Q47.0781,151.875 47.2813,151.875 Q47.6094,151.875 47.8594,152.1406 Q48.125,152.3906 48.125,152.7344 Q48.125,153.0781 47.7813,153.4844 Q47.2813,154.0625 46.4844,154.3906 Q45.4063,154.8438 44.1094,154.8438 Q42.5938,154.8438 41.3906,154.2188 Q40.4063,153.7188 39.7188,152.6563 Q39.0313,151.5781 39.0313,150.2969 L39.0313,149.1406 Q39.0313,147.8125 39.6406,146.6719 Q40.2656,145.5156 41.3594,144.9063 Q42.4531,144.2813 43.6875,144.2813 Q44.4219,144.2813 45.0625,144.4531 Q45.7188,144.6094 46.2656,144.9688 Z "/><text fill="#000000" font-family="sans-serif" font-size="14" lengthAdjust="spacingAndGlyphs" textLength="107" x="57.5" y="148.5332">NoSuchPageTag</text><text fill="#000000" font-family="sans-serif" font-size="10" lengthAdjust="spacingAndGlyphs" textLength="96" x="63" y="161.9902">org.apache.wiki.tags</text><line style="stroke: #A80036; stroke-width: 1.5;" x1="29.5" x2="166.5" y1="169.1875" y2="169.1875"/><ellipse cx="39.5" cy="180.1875" fill="#84BE84" rx="3" ry="3" style="stroke: #038048; stroke-width: 1.0;"/><text fill="#000000" font-family="sans-serif" font-size="11" lengthAdjust="spacingAndGlyphs" textLength="65" x="48.5" y="184.6064">initTag(): void</text><ellipse cx="39.5" cy="194.0234" fill="#84BE84" rx="3" ry="3" style="stroke: #038048; stroke-width: 1.0;"/><text fill="#000000" font-family="sans-serif" font-size="11" lengthAdjust="spacingAndGlyphs" textLength="101" x="48.5" y="198.4424">setPage(String): void</text><ellipse cx="39.5" cy="207.8594" fill="#84BE84" rx="3" ry="3" style="stroke: #038048; stroke-width: 1.0;"/><text fill="#000000" font-family="sans-serif" font-size="11" lengthAdjust="spacingAndGlyphs" textLength="81" x="48.5" y="212.2783">getPage(): String</text><ellipse cx="39.5" cy="221.6953" fill="#84BE84" rx="3" ry="3" style="stroke: #038048; stroke-width: 1.0;"/><text fill="#000000" font-family="sans-serif" font-size="11" lengthAdjust="spacingAndGlyphs" textLength="97" x="48.5" y="226.1143">doWikiStartTag(): int</text></a><!--MD5=[0148d16490ea9d40379f79f2f3eafb9d]
class org.apache.wiki.tags.WikiTagBase--><a href="WikiTagBase.html" target="_top" title="WikiTagBase.html" xlink:actuate="onRequest" xlink:href="WikiTagBase.html" xlink:show="new" xlink:title="WikiTagBase.html" xlink:type="simple"><rect codeLine="12" fill="#FEFECE" filter="url(#f8k106gyby3fu)" height="62.0234" id="org.apache.wiki.tags.WikiTagBase" style="stroke: #A80036; stroke-width: 1.5;" width="130" x="33" y="7"/><ellipse cx="48" cy="27.0938" fill="#A9DCDF" rx="11" ry="11" style="stroke: #A80036; stroke-width: 1.0;"/><path d="M50.1875,28.8594 L46.0469,28.8594 L45.625,29.8906 L46.0469,29.8906 Q46.6563,29.8906 46.9219,30.125 Q47.1875,30.3594 47.1875,30.75 Q47.1875,31.125 46.9219,31.3594 Q46.6563,31.5938 46.0469,31.5938 L43.75,31.5938 Q43.1406,31.5938 42.8906,31.3594 Q42.625,31.125 42.625,30.7344 Q42.625,30.3594 42.9063,30.125 Q43.1719,29.875 43.7969,29.8906 L46.4688,23.2344 L45.3594,23.2344 Q44.75,23.2344 44.4844,23 Q44.2188,22.7656 44.2188,22.375 Q44.2188,22 44.4844,21.7656 Q44.75,21.5313 45.3594,21.5313 L49.0313,21.5313 L52.4219,29.8906 Q53.0156,29.8906 53.2031,30.0313 Q53.5938,30.2969 53.5938,30.75 Q53.5938,31.125 53.3281,31.3594 Q53.0781,31.5938 52.4688,31.5938 L50.1719,31.5938 Q49.5625,31.5938 49.2969,31.3594 Q49.0313,31.125 49.0313,30.7344 Q49.0313,30.3594 49.2969,30.125 Q49.5625,29.8906 50.1719,29.8906 L50.5938,29.8906 L50.1875,28.8594 Z M49.4688,27.1563 L48.1094,23.7813 L46.7344,27.1563 L49.4688,27.1563 Z "/><text fill="#000000" font-family="sans-serif" font-size="14" font-style="italic" lengthAdjust="spacingAndGlyphs" textLength="85" x="68.5" y="26.5332">WikiTagBase</text><text fill="#000000" font-family="sans-serif" font-size="10" font-style="italic" lengthAdjust="spacingAndGlyphs" textLength="98" x="62" y="39.9902">org.apache.wiki.tags</text><line style="stroke: #A80036; stroke-width: 1.5;" x1="34" x2="162" y1="47.1875" y2="47.1875"/><ellipse cx="44" cy="58.1875" fill="#84BE84" rx="3" ry="3" style="stroke: #038048; stroke-width: 1.0;"/><text fill="#000000" font-family="sans-serif" font-size="11" font-style="italic" lengthAdjust="spacingAndGlyphs" textLength="103" x="53" y="62.6064">doWikiStartTag(): int</text></a><!--MD5=[155e1a14dbaa24b738c61cf3194369d2]
reverse link org.apache.wiki.tags.WikiTagBase to org.apache.wiki.tags.NoSuchPageTag--><path codeLine="16" d="M98,89.4335 C98,102.2797 98,116.0662 98,128.9423 " fill="none" id="org.apache.wiki.tags.WikiTagBase-backto-org.apache.wiki.tags.NoSuchPageTag" style="stroke: #A80036; stroke-width: 1.0;"/><polygon fill="none" points="91.0001,89.0289,98,69.0289,105.0001,89.0288,91.0001,89.0289" style="stroke: #A80036; stroke-width: 1.0;"/><text fill="#888888" font-family="sans-serif" font-size="10" lengthAdjust="spacingAndGlyphs" textLength="190" x="0" y="255.9121">UMLDoclet 2.0.12, PlantUML 1.2020.16</text><!--MD5=[f367c11e442a716fd7b6fc2a863ba723]
@startuml
    set namespaceSeparator none
    hide empty fields
    hide empty methods

    class "<size:14>NoSuchPageTag\n<size:10>org.apache.wiki.tags" as org.apache.wiki.tags.NoSuchPageTag [[NoSuchPageTag.html]] {
        +initTag(): void
        +setPage(String): void
        +getPage(): String
        +doWikiStartTag(): int
    }

    abstract class "<size:14>WikiTagBase\n<size:10>org.apache.wiki.tags" as org.apache.wiki.tags.WikiTagBase [[WikiTagBase.html]] {
        {abstract} +doWikiStartTag(): int
    }

    org.apache.wiki.tags.WikiTagBase <|- - org.apache.wiki.tags.NoSuchPageTag

    center footer UMLDoclet 2.0.12, PlantUML 1.2020.16
@enduml

PlantUML version 1.2020.16(Sun Aug 23 22:20:43 CEST 2020)
(APACHE source distribution)
Java Runtime: OpenJDK Runtime Environment
JVM: OpenJDK 64-Bit Server VM
Default Encoding: Cp1252
Language: es
Country: ES
--></g></svg>