<?xml version="1.0" encoding="UTF-8" standalone="no"?><svg xmlns="http://www.w3.org/2000/svg" xmlns:xlink="http://www.w3.org/1999/xlink" contentScriptType="application/ecmascript" contentStyleType="text/css" height="227px" preserveAspectRatio="none" style="width:202px;height:227px;" version="1.1" viewBox="0 0 202 227" width="202px" zoomAndPan="magnify"><defs><filter height="300%" id="f1kgp8zsgdh1gb" width="300%" x="-1" y="-1"><feGaussianBlur result="blurOut" stdDeviation="2.0"/><feColorMatrix in="blurOut" result="blurOut2" type="matrix" values="0 0 0 0 0 0 0 0 0 0 0 0 0 0 0 0 0 0 .4 0"/><feOffset dx="4.0" dy="4.0" in="blurOut2" result="blurOut3"/><feBlend in="SourceGraphic" in2="blurOut3" mode="normal"/></filter></defs><g><!--MD5=[e20d07aab3a65d4fbb81d0d57e4b6abc]
class org.apache.wiki.tags.PreviousVersionTag--><a href="PreviousVersionTag.html" target="_top" title="PreviousVersionTag.html" xlink:actuate="onRequest" xlink:href="PreviousVersionTag.html" xlink:show="new" xlink:title="PreviousVersionTag.html" xlink:type="simple"><rect codeLine="5" fill="#FEFECE" filter="url(#f1kgp8zsgdh1gb)" height="62.0234" id="org.apache.wiki.tags.PreviousVersionTag" style="stroke: #A80036; stroke-width: 1.5;" width="160" x="18" y="129"/><ellipse cx="33" cy="149.0938" fill="#ADD1B2" rx="11" ry="11" style="stroke: #A80036; stroke-width: 1.0;"/><path d="M35.7656,144.9688 Q35.9219,144.75 36.1094,144.6406 Q36.2969,144.5313 36.5156,144.5313 Q36.8906,144.5313 37.125,144.7969 Q37.3594,145.0469 37.3594,145.6563 L37.3594,147.1094 Q37.3594,147.7188 37.125,147.9844 Q36.8906,148.25 36.5156,148.25 Q36.1719,148.25 35.9688,148.0469 Q35.7656,147.8594 35.6563,147.3438 Q35.6094,146.9844 35.4219,146.7969 Q35.0938,146.4219 34.4844,146.2031 Q33.875,145.9844 33.25,145.9844 Q32.4844,145.9844 31.8438,146.3125 Q31.2188,146.6406 30.7188,147.3906 Q30.2344,148.1406 30.2344,149.1719 L30.2344,150.2656 Q30.2344,151.5 31.125,152.3281 Q32.0156,153.1406 33.6094,153.1406 Q34.5469,153.1406 35.2031,152.8906 Q35.5938,152.7344 36.0156,152.2969 Q36.2813,152.0313 36.4219,151.9531 Q36.5781,151.875 36.7813,151.875 Q37.1094,151.875 37.3594,152.1406 Q37.625,152.3906 37.625,152.7344 Q37.625,153.0781 37.2813,153.4844 Q36.7813,154.0625 35.9844,154.3906 Q34.9063,154.8438 33.6094,154.8438 Q32.0938,154.8438 30.8906,154.2188 Q29.9063,153.7188 29.2188,152.6563 Q28.5313,151.5781 28.5313,150.2969 L28.5313,149.1406 Q28.5313,147.8125 29.1406,146.6719 Q29.7656,145.5156 30.8594,144.9063 Q31.9531,144.2813 33.1875,144.2813 Q33.9219,144.2813 34.5625,144.4531 Q35.2188,144.6094 35.7656,144.9688 Z "/><text fill="#000000" font-family="sans-serif" font-size="14" lengthAdjust="spacingAndGlyphs" textLength="128" x="47" y="148.5332">PreviousVersionTag</text><text fill="#000000" font-family="sans-serif" font-size="10" lengthAdjust="spacingAndGlyphs" textLength="96" x="63" y="161.9902">org.apache.wiki.tags</text><line style="stroke: #A80036; stroke-width: 1.5;" x1="19" x2="177" y1="169.1875" y2="169.1875"/><ellipse cx="29" cy="180.1875" fill="#84BE84" rx="3" ry="3" style="stroke: #038048; stroke-width: 1.0;"/><text fill="#000000" font-family="sans-serif" font-size="11" lengthAdjust="spacingAndGlyphs" textLength="97" x="38" y="184.6064">doWikiStartTag(): int</text></a><!--MD5=[0148d16490ea9d40379f79f2f3eafb9d]
class org.apache.wiki.tags.WikiTagBase--><a href="WikiTagBase.html" target="_top" title="WikiTagBase.html" xlink:actuate="onRequest" xlink:href="WikiTagBase.html" xlink:show="new" xlink:title="WikiTagBase.html" xlink:type="simple"><rect codeLine="9" fill="#FEFECE" filter="url(#f1kgp8zsgdh1gb)" height="62.0234" id="org.apache.wiki.tags.WikiTagBase" style="stroke: #A80036; stroke-width: 1.5;" width="130" x="33" y="7"/><ellipse cx="48" cy="27.0938" fill="#A9DCDF" rx="11" ry="11" style="stroke: #A80036; stroke-width: 1.0;"/><path d="M50.1875,28.8594 L46.0469,28.8594 L45.625,29.8906 L46.0469,29.8906 Q46.6563,29.8906 46.9219,30.125 Q47.1875,30.3594 47.1875,30.75 Q47.1875,31.125 46.9219,31.3594 Q46.6563,31.5938 46.0469,31.5938 L43.75,31.5938 Q43.1406,31.5938 42.8906,31.3594 Q42.625,31.125 42.625,30.7344 Q42.625,30.3594 42.9063,30.125 Q43.1719,29.875 43.7969,29.8906 L46.4688,23.2344 L45.3594,23.2344 Q44.75,23.2344 44.4844,23 Q44.2188,22.7656 44.2188,22.375 Q44.2188,22 44.4844,21.7656 Q44.75,21.5313 45.3594,21.5313 L49.0313,21.5313 L52.4219,29.8906 Q53.0156,29.8906 53.2031,30.0313 Q53.5938,30.2969 53.5938,30.75 Q53.5938,31.125 53.3281,31.3594 Q53.0781,31.5938 52.4688,31.5938 L50.1719,31.5938 Q49.5625,31.5938 49.2969,31.3594 Q49.0313,31.125 49.0313,30.7344 Q49.0313,30.3594 49.2969,30.125 Q49.5625,29.8906 50.1719,29.8906 L50.5938,29.8906 L50.1875,28.8594 Z M49.4688,27.1563 L48.1094,23.7813 L46.7344,27.1563 L49.4688,27.1563 Z "/><text fill="#000000" font-family="sans-serif" font-size="14" font-style="italic" lengthAdjust="spacingAndGlyphs" textLength="85" x="68.5" y="26.5332">WikiTagBase</text><text fill="#000000" font-family="sans-serif" font-size="10" font-style="italic" lengthAdjust="spacingAndGlyphs" textLength="98" x="62" y="39.9902">org.apache.wiki.tags</text><line style="stroke: #A80036; stroke-width: 1.5;" x1="34" x2="162" y1="47.1875" y2="47.1875"/><ellipse cx="44" cy="58.1875" fill="#84BE84" rx="3" ry="3" style="stroke: #038048; stroke-width: 1.0;"/><text fill="#000000" font-family="sans-serif" font-size="11" font-style="italic" lengthAdjust="spacingAndGlyphs" textLength="103" x="53" y="62.6064">doWikiStartTag(): int</text></a><!--MD5=[8ad85e005dfd48cfc9f269f266baf3ec]
reverse link org.apache.wiki.tags.WikiTagBase to org.apache.wiki.tags.PreviousVersionTag--><path codeLine="13" d="M98,89.341 C98,102.8065 98,116.9163 98,128.9554 " fill="none" id="org.apache.wiki.tags.WikiTagBase-backto-org.apache.wiki.tags.PreviousVersionTag" style="stroke: #A80036; stroke-width: 1.0;"/><polygon fill="none" points="91.0001,89.1015,98,69.1014,105.0001,89.1014,91.0001,89.1015" style="stroke: #A80036; stroke-width: 1.0;"/><text fill="#888888" font-family="sans-serif" font-size="10" lengthAdjust="spacingAndGlyphs" textLength="190" x="0" y="214.4043">UMLDoclet 2.0.12, PlantUML 1.2020.16</text><!--MD5=[b1e1293abd635646e5692dae39bd022c]
@startuml
    set namespaceSeparator none
    hide empty fields
    hide empty methods

    class "<size:14>PreviousVersionTag\n<size:10>org.apache.wiki.tags" as org.apache.wiki.tags.PreviousVersionTag [[PreviousVersionTag.html]] {
        +doWikiStartTag(): int
    }

    abstract class "<size:14>WikiTagBase\n<size:10>org.apache.wiki.tags" as org.apache.wiki.tags.WikiTagBase [[WikiTagBase.html]] {
        {abstract} +doWikiStartTag(): int
    }

    org.apache.wiki.tags.WikiTagBase <|- - org.apache.wiki.tags.PreviousVersionTag

    center footer UMLDoclet 2.0.12, PlantUML 1.2020.16
@enduml

PlantUML version 1.2020.16(Sun Aug 23 22:20:43 CEST 2020)
(APACHE source distribution)
Java Runtime: OpenJDK Runtime Environment
JVM: OpenJDK 64-Bit Server VM
Default Encoding: Cp1252
Language: es
Country: ES
--></g></svg>