<?xml version="1.0" encoding="UTF-8" standalone="no"?><svg xmlns="http://www.w3.org/2000/svg" xmlns:xlink="http://www.w3.org/1999/xlink" contentScriptType="application/ecmascript" contentStyleType="text/css" height="230px" preserveAspectRatio="none" style="width:317px;height:230px;" version="1.1" viewBox="0 0 317 230" width="317px" zoomAndPan="magnify"><defs><filter height="300%" id="f1k4knlqgm1ttq" width="300%" x="-1" y="-1"><feGaussianBlur result="blurOut" stdDeviation="2.0"/><feColorMatrix in="blurOut" result="blurOut2" type="matrix" values="0 0 0 0 0 0 0 0 0 0 0 0 0 0 0 0 0 0 .4 0"/><feOffset dx="4.0" dy="4.0" in="blurOut2" result="blurOut3"/><feBlend in="SourceGraphic" in2="blurOut3" mode="normal"/></filter></defs><g><!--MD5=[2af377139c61a5c9c39438b46f68eab1]
class org.apache.wiki.pages.PageTimeComparator--><a href="PageTimeComparator.html" target="_top" title="PageTimeComparator.html" xlink:actuate="onRequest" xlink:href="PageTimeComparator.html" xlink:show="new" xlink:title="PageTimeComparator.html" xlink:type="simple"><rect codeLine="5" fill="#FEFECE" filter="url(#f1k4knlqgm1ttq)" height="62.0234" id="org.apache.wiki.pages.PageTimeComparator" style="stroke: #A80036; stroke-width: 1.5;" width="171" x="78" y="132"/><ellipse cx="93" cy="152.0938" fill="#ADD1B2" rx="11" ry="11" style="stroke: #A80036; stroke-width: 1.0;"/><path d="M95.7656,147.9688 Q95.9219,147.75 96.1094,147.6406 Q96.2969,147.5313 96.5156,147.5313 Q96.8906,147.5313 97.125,147.7969 Q97.3594,148.0469 97.3594,148.6563 L97.3594,150.1094 Q97.3594,150.7188 97.125,150.9844 Q96.8906,151.25 96.5156,151.25 Q96.1719,151.25 95.9688,151.0469 Q95.7656,150.8594 95.6563,150.3438 Q95.6094,149.9844 95.4219,149.7969 Q95.0938,149.4219 94.4844,149.2031 Q93.875,148.9844 93.25,148.9844 Q92.4844,148.9844 91.8438,149.3125 Q91.2188,149.6406 90.7188,150.3906 Q90.2344,151.1406 90.2344,152.1719 L90.2344,153.2656 Q90.2344,154.5 91.125,155.3281 Q92.0156,156.1406 93.6094,156.1406 Q94.5469,156.1406 95.2031,155.8906 Q95.5938,155.7344 96.0156,155.2969 Q96.2813,155.0313 96.4219,154.9531 Q96.5781,154.875 96.7813,154.875 Q97.1094,154.875 97.3594,155.1406 Q97.625,155.3906 97.625,155.7344 Q97.625,156.0781 97.2813,156.4844 Q96.7813,157.0625 95.9844,157.3906 Q94.9063,157.8438 93.6094,157.8438 Q92.0938,157.8438 90.8906,157.2188 Q89.9063,156.7188 89.2188,155.6563 Q88.5313,154.5781 88.5313,153.2969 L88.5313,152.1406 Q88.5313,150.8125 89.1406,149.6719 Q89.7656,148.5156 90.8594,147.9063 Q91.9531,147.2813 93.1875,147.2813 Q93.9219,147.2813 94.5625,147.4531 Q95.2188,147.6094 95.7656,147.9688 Z "/><text fill="#000000" font-family="sans-serif" font-size="14" lengthAdjust="spacingAndGlyphs" textLength="139" x="107" y="151.5332">PageTimeComparator</text><text fill="#000000" font-family="sans-serif" font-size="10" lengthAdjust="spacingAndGlyphs" textLength="105" x="124" y="164.9902">org.apache.wiki.pages</text><line style="stroke: #A80036; stroke-width: 1.5;" x1="79" x2="248" y1="172.1875" y2="172.1875"/><ellipse cx="89" cy="183.1875" fill="#84BE84" rx="3" ry="3" style="stroke: #038048; stroke-width: 1.0;"/><text fill="#000000" font-family="sans-serif" font-size="11" lengthAdjust="spacingAndGlyphs" textLength="121" x="98" y="187.6064">compare(Page, Page): int</text></a><!--MD5=[ab8fa349a1e2e86ca8104897b03d4899]
class java.util.Comparator--><rect codeLine="9" fill="#FEFECE" filter="url(#f1k4knlqgm1ttq)" height="62.0234" id="java.util.Comparator" style="stroke: #A80036; stroke-width: 1.5;" width="151" x="7" y="10"/><ellipse cx="26.95" cy="30.0938" fill="#B4A7E5" rx="11" ry="11" style="stroke: #A80036; stroke-width: 1.0;"/><path d="M27.9031,26.7344 L27.9031,33.3906 L29.6219,33.3906 Q30.2313,33.3906 30.4969,33.625 Q30.7625,33.8594 30.7625,34.25 Q30.7625,34.625 30.4969,34.8594 Q30.2313,35.0938 29.6219,35.0938 L24.4813,35.0938 Q23.8719,35.0938 23.6063,34.8594 Q23.3406,34.625 23.3406,34.2344 Q23.3406,33.8594 23.6063,33.625 Q23.8719,33.3906 24.4813,33.3906 L26.2,33.3906 L26.2,26.7344 L24.4813,26.7344 Q23.8719,26.7344 23.6063,26.5 Q23.3406,26.2656 23.3406,25.875 Q23.3406,25.5 23.6063,25.2656 Q23.8719,25.0313 24.4813,25.0313 L29.6219,25.0313 Q30.2313,25.0313 30.4969,25.2656 Q30.7625,25.5 30.7625,25.875 Q30.7625,26.2656 30.4969,26.5 Q30.2313,26.7344 29.6219,26.7344 L27.9031,26.7344 Z "/><text fill="#000000" font-family="sans-serif" font-size="14" font-style="italic" lengthAdjust="spacingAndGlyphs" textLength="75" x="42.05" y="29.5332">Comparator</text><text fill="#000000" font-family="sans-serif" font-size="10" font-style="italic" lengthAdjust="spacingAndGlyphs" textLength="37" x="61.05" y="42.9902">java.util</text><rect fill="#FFFFFF" height="17.0938" style="stroke: #000000; stroke-width: 1.0; stroke-dasharray: 2.0,2.0;" width="31" x="130" y="7"/><text fill="#000000" font-family="sans-serif" font-size="12" font-style="italic" lengthAdjust="spacingAndGlyphs" textLength="29" x="131" y="20.457">Page</text><line style="stroke: #A80036; stroke-width: 1.5;" x1="8" x2="157" y1="50.1875" y2="50.1875"/><ellipse cx="18" cy="61.1875" fill="#84BE84" rx="3" ry="3" style="stroke: #038048; stroke-width: 1.0;"/><text fill="#000000" font-family="sans-serif" font-size="11" font-style="italic" lengthAdjust="spacingAndGlyphs" textLength="125" x="27" y="65.6064">compare(Page, Page): int</text><!--MD5=[5a5af9b0547913863cbe0ddf55a9ab5e]
class java.io.Serializable--><rect codeLine="12" fill="#FEFECE" filter="url(#f1k4knlqgm1ttq)" height="40.1875" id="java.io.Serializable" style="stroke: #A80036; stroke-width: 1.5;" width="105" x="193" y="21"/><ellipse cx="208" cy="41.0938" fill="#B4A7E5" rx="11" ry="11" style="stroke: #A80036; stroke-width: 1.0;"/><path d="M208.9531,37.7344 L208.9531,44.3906 L210.6719,44.3906 Q211.2813,44.3906 211.5469,44.625 Q211.8125,44.8594 211.8125,45.25 Q211.8125,45.625 211.5469,45.8594 Q211.2813,46.0938 210.6719,46.0938 L205.5313,46.0938 Q204.9219,46.0938 204.6563,45.8594 Q204.3906,45.625 204.3906,45.2344 Q204.3906,44.8594 204.6563,44.625 Q204.9219,44.3906 205.5313,44.3906 L207.25,44.3906 L207.25,37.7344 L205.5313,37.7344 Q204.9219,37.7344 204.6563,37.5 Q204.3906,37.2656 204.3906,36.875 Q204.3906,36.5 204.6563,36.2656 Q204.9219,36.0313 205.5313,36.0313 L210.6719,36.0313 Q211.2813,36.0313 211.5469,36.2656 Q211.8125,36.5 211.8125,36.875 Q211.8125,37.2656 211.5469,37.5 Q211.2813,37.7344 210.6719,37.7344 L208.9531,37.7344 Z "/><text fill="#000000" font-family="sans-serif" font-size="14" font-style="italic" lengthAdjust="spacingAndGlyphs" textLength="73" x="222" y="40.5332">Serializable</text><text fill="#000000" font-family="sans-serif" font-size="10" font-style="italic" lengthAdjust="spacingAndGlyphs" textLength="31" x="243" y="53.9902">java.io</text><!--MD5=[e50eec47889896f9628178ef84fad310]
reverse link java.util.Comparator to org.apache.wiki.pages.PageTimeComparator--><path codeLine="14" d="M114.3619,88.9896 C123.9564,103.4405 134.2292,118.913 142.8884,131.9554 " fill="none" id="java.util.Comparator-backto-org.apache.wiki.pages.PageTimeComparator" style="stroke: #A80036; stroke-width: 1.0; stroke-dasharray: 7.0,7.0;"/><polygon fill="none" points="108.3801,92.6353,103.1493,72.1014,120.0435,84.8915,108.3801,92.6353" style="stroke: #A80036; stroke-width: 1.0;"/><!--MD5=[a3434ff41d55479dd8f56b4e49e61d2b]
reverse link java.io.Serializable to org.apache.wiki.pages.PageTimeComparator--><path codeLine="15" d="M220.6379,77.9899 C209.0774,95.1897 195.4802,115.4198 184.4507,131.8294 " fill="none" id="java.io.Serializable-backto-org.apache.wiki.pages.PageTimeComparator" style="stroke: #A80036; stroke-width: 1.0; stroke-dasharray: 7.0,7.0;"/><polygon fill="none" points="214.9929,73.84,231.9594,61.1458,226.6123,81.6497,214.9929,73.84" style="stroke: #A80036; stroke-width: 1.0;"/><text fill="#888888" font-family="sans-serif" font-size="10" lengthAdjust="spacingAndGlyphs" textLength="190" x="54.5" y="217.4043">UMLDoclet 2.0.12, PlantUML 1.2020.16</text><!--MD5=[f13bd3d0ce7e51981598fe912994be3c]
@startuml
    set namespaceSeparator none
    hide empty fields
    hide empty methods

    class "<size:14>PageTimeComparator\n<size:10>org.apache.wiki.pages" as org.apache.wiki.pages.PageTimeComparator [[PageTimeComparator.html]] {
        +compare(Page, Page): int
    }

    interface "<size:14>Comparator\n<size:10>java.util" as java.util.Comparator<Page> {
        {abstract} +compare(Page, Page): int
    }
    interface "<size:14>Serializable\n<size:10>java.io" as java.io.Serializable

    java.util.Comparator <|.. org.apache.wiki.pages.PageTimeComparator
    java.io.Serializable <|.. org.apache.wiki.pages.PageTimeComparator

    center footer UMLDoclet 2.0.12, PlantUML 1.2020.16
@enduml

PlantUML version 1.2020.16(Sun Aug 23 22:20:43 CEST 2020)
(APACHE source distribution)
Java Runtime: OpenJDK Runtime Environment
JVM: OpenJDK 64-Bit Server VM
Default Encoding: Cp1252
Language: es
Country: ES
--></g></svg>