<?xml version="1.0" encoding="UTF-8" standalone="no"?><svg xmlns="http://www.w3.org/2000/svg" xmlns:xlink="http://www.w3.org/1999/xlink" contentScriptType="application/ecmascript" contentStyleType="text/css" height="192px" preserveAspectRatio="none" style="width:368px;height:192px;background:#FFFFFF;" version="1.1" viewBox="0 0 368 192" width="368px" zoomAndPan="magnify"><defs><filter height="300%" id="fu5z7tm61cjnj" width="300%" x="-1" y="-1"><feGaussianBlur result="blurOut" stdDeviation="2.0"/><feColorMatrix in="blurOut" result="blurOut2" type="matrix" values="0 0 0 0 0 0 0 0 0 0 0 0 0 0 0 0 0 0 .4 0"/><feOffset dx="4.0" dy="4.0" in="blurOut2" result="blurOut3"/><feBlend in="SourceGraphic" in2="blurOut3" mode="normal"/></filter></defs><g><!--MD5=[8856f73f612109ae16483db9ad7793fd]
cluster org.apache.wiki.api.search--><polygon fill="#FFFFFF" filter="url(#fu5z7tm61cjnj)" points="16,6,234,6,241,28.2969,351,28.2969,351,169,16,169,16,6" style="stroke:#000000;stroke-width:1.5;"/><line style="stroke:#000000;stroke-width:1.5;" x1="16" x2="241" y1="28.2969" y2="28.2969"/><text fill="#000000" font-family="sans-serif" font-size="14" font-weight="bold" lengthAdjust="spacing" textLength="212" x="20" y="20.9951">org.apache.wiki.api.search</text><!--MD5=[48c1a0424b68d58c2410d32168730897]
class org.apache.wiki.api.search.SearchResult--><a href="SearchResult.html" target="_top" title="SearchResult.html" xlink:actuate="onRequest" xlink:href="SearchResult.html" xlink:show="new" xlink:title="SearchResult.html" xlink:type="simple"><rect codeLine="3" fill="#FEFECE" filter="url(#fu5z7tm61cjnj)" height="86.4141" id="org.apache.wiki.api.search.SearchResult" style="stroke:#A80036;stroke-width:1.5;" width="151" x="183.5" y="54"/><ellipse cx="215.15" cy="70" fill="#B4A7E5" rx="11" ry="11" style="stroke:#A80036;stroke-width:1.0;"/><path d="M211.0719,65.7656 L211.0719,63.6094 L218.4625,63.6094 L218.4625,65.7656 L215.9938,65.7656 L215.9938,73.8438 L218.4625,73.8438 L218.4625,76 L211.0719,76 L211.0719,73.8438 L213.5406,73.8438 L213.5406,65.7656 L211.0719,65.7656 Z " fill="#000000"/><text fill="#000000" font-family="sans-serif" font-size="12" font-style="italic" lengthAdjust="spacing" textLength="82" x="232.85" y="74.1543">SearchResult</text><line style="stroke:#A80036;stroke-width:1.5;" x1="184.5" x2="333.5" y1="86" y2="86"/><line style="stroke:#A80036;stroke-width:1.5;" x1="184.5" x2="333.5" y1="94" y2="94"/><ellipse cx="194.5" cy="105" fill="#84BE84" rx="3" ry="3" style="stroke:#038048;stroke-width:1.0;"/><text fill="#000000" font-family="sans-serif" font-size="11" font-style="italic" lengthAdjust="spacing" textLength="90" x="203.5" y="108.2104">getPage(): Page</text><ellipse cx="194.5" cy="117.8047" fill="#84BE84" rx="3" ry="3" style="stroke:#038048;stroke-width:1.0;"/><text fill="#000000" font-family="sans-serif" font-size="11" font-style="italic" lengthAdjust="spacing" textLength="80" x="203.5" y="121.0151">getScore(): int</text><ellipse cx="194.5" cy="130.6094" fill="#84BE84" rx="3" ry="3" style="stroke:#038048;stroke-width:1.0;"/><text fill="#000000" font-family="sans-serif" font-size="11" font-style="italic" lengthAdjust="spacing" textLength="125" x="203.5" y="133.8198">getContexts(): String[]</text></a><!--MD5=[4898dc02c93ff0c7bc5f9c18a16b63d2]
class org.apache.wiki.api.search.QueryItem--><a href="QueryItem.html" target="_top" title="QueryItem.html" xlink:actuate="onRequest" xlink:href="QueryItem.html" xlink:show="new" xlink:title="QueryItem.html" xlink:type="simple"><rect codeLine="9" fill="#FEFECE" filter="url(#fu5z7tm61cjnj)" height="112.0234" id="org.apache.wiki.api.search.QueryItem" style="stroke:#A80036;stroke-width:1.5;" width="116" x="32" y="41"/><ellipse cx="56.45" cy="57" fill="#ADD1B2" rx="11" ry="11" style="stroke:#A80036;stroke-width:1.0;"/><path d="M59.4188,62.6406 Q58.8406,62.9375 58.2,63.0781 Q57.5594,63.2344 56.8563,63.2344 Q54.3563,63.2344 53.0281,61.5938 Q51.7156,59.9375 51.7156,56.8125 Q51.7156,53.6875 53.0281,52.0313 Q54.3563,50.375 56.8563,50.375 Q57.5594,50.375 58.2,50.5313 Q58.8563,50.6875 59.4188,50.9844 L59.4188,53.7031 Q58.7938,53.125 58.2,52.8594 Q57.6063,52.5781 56.9813,52.5781 Q55.6375,52.5781 54.95,53.6563 Q54.2625,54.7188 54.2625,56.8125 Q54.2625,58.9063 54.95,59.9844 Q55.6375,61.0469 56.9813,61.0469 Q57.6063,61.0469 58.2,60.7813 Q58.7938,60.5 59.4188,59.9219 L59.4188,62.6406 Z " fill="#000000"/><text fill="#000000" font-family="sans-serif" font-size="12" lengthAdjust="spacing" textLength="63" x="72.55" y="61.1543">QueryItem</text><line style="stroke:#A80036;stroke-width:1.5;" x1="33" x2="147" y1="73" y2="73"/><ellipse cx="43" cy="84" rx="3" ry="3" style="stroke:#038048;stroke-width:1.0;fill:none;"/><text fill="#000000" font-family="sans-serif" font-size="11" lengthAdjust="spacing" text-decoration="underline" textLength="78" x="52" y="87.2104">REQUIRED: int</text><ellipse cx="43" cy="96.8047" rx="3" ry="3" style="stroke:#038048;stroke-width:1.0;fill:none;"/><text fill="#000000" font-family="sans-serif" font-size="11" lengthAdjust="spacing" text-decoration="underline" textLength="86" x="52" y="100.0151">FORBIDDEN: int</text><ellipse cx="43" cy="109.6094" rx="3" ry="3" style="stroke:#038048;stroke-width:1.0;fill:none;"/><text fill="#000000" font-family="sans-serif" font-size="11" lengthAdjust="spacing" text-decoration="underline" textLength="90" x="52" y="112.8198">REQUESTED: int</text><ellipse cx="43" cy="122.4141" rx="3" ry="3" style="stroke:#038048;stroke-width:1.0;fill:none;"/><text fill="#000000" font-family="sans-serif" font-size="11" lengthAdjust="spacing" textLength="70" x="52" y="125.6245">word: String</text><ellipse cx="43" cy="135.2188" rx="3" ry="3" style="stroke:#038048;stroke-width:1.0;fill:none;"/><text fill="#000000" font-family="sans-serif" font-size="11" lengthAdjust="spacing" textLength="46" x="52" y="138.4292">type: int</text><line style="stroke:#A80036;stroke-width:1.5;" x1="33" x2="147" y1="145.0234" y2="145.0234"/></a><text fill="#888888" font-family="sans-serif" font-size="10" lengthAdjust="spacing" textLength="192" x="81.5" y="184.2822">UMLDoclet 2.0.15, PlantUML 1.2021.13</text><!--MD5=[8f0af001724cee58a65ae8c73524592b]
@startuml
    namespace org.apache.wiki.api.search {

        interface SearchResult [[SearchResult.html]] {
            {abstract} +getPage(): Page
            {abstract} +getScore(): int
            {abstract} +getContexts(): String[]
        }

        class QueryItem [[QueryItem.html]] {
            {static} +REQUIRED: int
            {static} +FORBIDDEN: int
            {static} +REQUESTED: int
            +word: String
            +type: int
        }

    }

    center footer UMLDoclet 2.0.15, PlantUML 1.2021.13
@enduml

PlantUML version 1.2021.13(Mon Nov 01 11:38:45 UTC 2021)
(APACHE source distribution)
Java Runtime: OpenJDK Runtime Environment
JVM: OpenJDK 64-Bit Server VM
Default Encoding: UTF-8
Language: en
Country: US
--></g></svg>