<?xml version="1.0" encoding="UTF-8" standalone="no"?><svg xmlns="http://www.w3.org/2000/svg" xmlns:xlink="http://www.w3.org/1999/xlink" contentScriptType="application/ecmascript" contentStyleType="text/css" height="325px" preserveAspectRatio="none" style="width:269px;height:325px;background:#FFFFFF;" version="1.1" viewBox="0 0 269 325" width="269px" zoomAndPan="magnify"><defs><filter height="300%" id="f1df4pqz9fba1f" width="300%" x="-1" y="-1"><feGaussianBlur result="blurOut" stdDeviation="2.0"/><feColorMatrix in="blurOut" result="blurOut2" type="matrix" values="0 0 0 0 0 0 0 0 0 0 0 0 0 0 0 0 0 0 .4 0"/><feOffset dx="4.0" dy="4.0" in="blurOut2" result="blurOut3"/><feBlend in="SourceGraphic" in2="blurOut3" mode="normal"/></filter></defs><g><!--MD5=[4813a44c5a4854b149b5f436d79b1d25]
class org.apache.wiki.htmltowiki.WhitespaceTrimWriter--><a href="WhitespaceTrimWriter.html" target="_top" title="WhitespaceTrimWriter.html" xlink:actuate="onRequest" xlink:href="WhitespaceTrimWriter.html" xlink:show="new" xlink:title="WhitespaceTrimWriter.html" xlink:type="simple"><rect codeLine="5" fill="#FEFECE" filter="url(#f1df4pqz9fba1f)" height="143.5703" id="org.apache.wiki.htmltowiki.WhitespaceTrimWriter" style="stroke:#A80036;stroke-width:1.5;" width="248" x="7" y="151"/><ellipse cx="51.25" cy="169.9688" fill="#ADD1B2" rx="11" ry="11" style="stroke:#A80036;stroke-width:1.0;"/><path d="M54.2188,175.6094 Q53.6406,175.9063 53,176.0469 Q52.3594,176.2031 51.6563,176.2031 Q49.1563,176.2031 47.8281,174.5625 Q46.5156,172.9063 46.5156,169.7813 Q46.5156,166.6563 47.8281,165 Q49.1563,163.3438 51.6563,163.3438 Q52.3594,163.3438 53,163.5 Q53.6563,163.6563 54.2188,163.9531 L54.2188,166.6719 Q53.5938,166.0938 53,165.8281 Q52.4063,165.5469 51.7813,165.5469 Q50.4375,165.5469 49.75,166.625 Q49.0625,167.6875 49.0625,169.7813 Q49.0625,171.875 49.75,172.9531 Q50.4375,174.0156 51.7813,174.0156 Q52.4063,174.0156 53,173.75 Q53.5938,173.4688 54.2188,172.8906 L54.2188,175.6094 Z " fill="#000000"/><text fill="#000000" font-family="sans-serif" font-size="14" lengthAdjust="spacing" textLength="151" x="71.75" y="168.9951">WhitespaceTrimWriter</text><text fill="#000000" font-family="sans-serif" font-size="10" lengthAdjust="spacing" textLength="126" x="84.25" y="181.5791">org.apache.wiki.htmltowiki</text><line style="stroke:#A80036;stroke-width:1.5;" x1="8" x2="254" y1="188.9375" y2="188.9375"/><ellipse cx="18" cy="199.9375" rx="3" ry="3" style="stroke:#038048;stroke-width:1.0;fill:none;"/><text fill="#000000" font-family="sans-serif" font-size="11" lengthAdjust="spacing" text-decoration="underline" textLength="158" x="27" y="203.1479">NO_TRIMMED_SPACE: String</text><line style="stroke:#A80036;stroke-width:1.5;" x1="8" x2="254" y1="209.7422" y2="209.7422"/><ellipse cx="18" cy="220.7422" fill="#84BE84" rx="3" ry="3" style="stroke:#038048;stroke-width:1.0;"/><text fill="#000000" font-family="sans-serif" font-size="11" lengthAdjust="spacing" textLength="67" x="27" y="223.9526">flush(): void</text><ellipse cx="18" cy="233.5469" fill="#84BE84" rx="3" ry="3" style="stroke:#038048;stroke-width:1.0;"/><text fill="#000000" font-family="sans-serif" font-size="11" lengthAdjust="spacing" textLength="191" x="27" y="236.7573">isWhitespaceTrimMode(): boolean</text><ellipse cx="18" cy="246.3516" fill="#84BE84" rx="3" ry="3" style="stroke:#038048;stroke-width:1.0;"/><text fill="#000000" font-family="sans-serif" font-size="11" lengthAdjust="spacing" textLength="222" x="27" y="249.562">setWhitespaceTrimMode(boolean): void</text><ellipse cx="18" cy="259.1563" fill="#84BE84" rx="3" ry="3" style="stroke:#038048;stroke-width:1.0;"/><text fill="#000000" font-family="sans-serif" font-size="11" lengthAdjust="spacing" textLength="144" x="27" y="262.3667">write(char[], int, int): void</text><ellipse cx="18" cy="271.9609" fill="#84BE84" rx="3" ry="3" style="stroke:#038048;stroke-width:1.0;"/><text fill="#000000" font-family="sans-serif" font-size="11" lengthAdjust="spacing" textLength="69" x="27" y="275.1714">close(): void</text><ellipse cx="18" cy="284.7656" fill="#84BE84" rx="3" ry="3" style="stroke:#038048;stroke-width:1.0;"/><text fill="#000000" font-family="sans-serif" font-size="11" lengthAdjust="spacing" textLength="194" x="27" y="287.9761">isCurrentlyOnLineBegin(): boolean</text></a><!--MD5=[048c3133f4c34f5b25aafff9853428d6]
class java.io.Writer--><rect codeLine="15" fill="#FEFECE" filter="url(#f1df4pqz9fba1f)" height="84.3516" id="java.io.Writer" style="stroke:#A80036;stroke-width:1.5;" width="171" x="45.5" y="7"/><ellipse cx="106.25" cy="25.9688" fill="#A9DCDF" rx="11" ry="11" style="stroke:#A80036;stroke-width:1.0;"/><path d="M106.3594,21.3125 L105.2031,26.3906 L107.5313,26.3906 L106.3594,21.3125 Z M104.875,19.0781 L107.8594,19.0781 L111.2188,31.4688 L108.7656,31.4688 L108,28.4063 L104.7188,28.4063 L103.9688,31.4688 L101.5313,31.4688 L104.875,19.0781 Z " fill="#000000"/><text fill="#000000" font-family="sans-serif" font-size="14" font-style="italic" lengthAdjust="spacing" textLength="41" x="126.75" y="24.9951">Writer</text><text fill="#000000" font-family="sans-serif" font-size="10" font-style="italic" lengthAdjust="spacing" textLength="33" x="130.75" y="37.5791">java.io</text><line style="stroke:#A80036;stroke-width:1.5;" x1="46.5" x2="215.5" y1="44.9375" y2="44.9375"/><ellipse cx="56.5" cy="55.9375" fill="#84BE84" rx="3" ry="3" style="stroke:#038048;stroke-width:1.0;"/><text fill="#000000" font-family="sans-serif" font-size="11" font-style="italic" lengthAdjust="spacing" textLength="145" x="65.5" y="59.1479">write(char[], int, int): void</text><ellipse cx="56.5" cy="68.7422" fill="#84BE84" rx="3" ry="3" style="stroke:#038048;stroke-width:1.0;"/><text fill="#000000" font-family="sans-serif" font-size="11" font-style="italic" lengthAdjust="spacing" textLength="67" x="65.5" y="71.9526">flush(): void</text><ellipse cx="56.5" cy="81.5469" fill="#84BE84" rx="3" ry="3" style="stroke:#038048;stroke-width:1.0;"/><text fill="#000000" font-family="sans-serif" font-size="11" font-style="italic" lengthAdjust="spacing" textLength="69" x="65.5" y="84.7573">close(): void</text><!--MD5=[606416bd2c81f50ca67eab872be04471]
reverse link java.io.Writer to org.apache.wiki.htmltowiki.WhitespaceTrimWriter--><path codeLine="21" d="M131,111.66 C131,124.38 131,137.87 131,150.9 " fill="none" id="java.io.Writer-backto-org.apache.wiki.htmltowiki.WhitespaceTrimWriter" style="stroke:#A80036;stroke-width:1.0;"/><polygon fill="none" points="124,111.2,131,91.2,138,111.2,124,111.2" style="stroke:#A80036;stroke-width:1.0;"/><text fill="#888888" font-family="sans-serif" font-size="10" lengthAdjust="spacing" textLength="192" x="32" y="316.8525">UMLDoclet 2.0.15, PlantUML 1.2021.13</text><!--MD5=[dd4e51a0bad9c2c7cc02c36f85d81ab1]
@startuml
    set namespaceSeparator none
    hide empty fields
    hide empty methods

    class "<size:14>WhitespaceTrimWriter\n<size:10>org.apache.wiki.htmltowiki" as org.apache.wiki.htmltowiki.WhitespaceTrimWriter [[WhitespaceTrimWriter.html]] {
        {static} +NO_TRIMMED_SPACE: String
        +flush(): void
        +isWhitespaceTrimMode(): boolean
        +setWhitespaceTrimMode(boolean): void
        +write(char[], int, int): void
        +close(): void
        +isCurrentlyOnLineBegin(): boolean
    }

    abstract class "<size:14>Writer\n<size:10>java.io" as java.io.Writer {
        {abstract} +write(char[], int, int): void
        {abstract} +flush(): void
        {abstract} +close(): void
    }

    java.io.Writer <|- - org.apache.wiki.htmltowiki.WhitespaceTrimWriter

    center footer UMLDoclet 2.0.15, PlantUML 1.2021.13
@enduml

PlantUML version 1.2021.13(Mon Nov 01 11:38:45 UTC 2021)
(APACHE source distribution)
Java Runtime: OpenJDK Runtime Environment
JVM: OpenJDK 64-Bit Server VM
Default Encoding: UTF-8
Language: en
Country: US
--></g></svg>