<?xml version="1.0" encoding="UTF-8" standalone="no"?><svg xmlns="http://www.w3.org/2000/svg" xmlns:xlink="http://www.w3.org/1999/xlink" contentScriptType="application/ecmascript" contentStyleType="text/css" height="119px" preserveAspectRatio="none" style="width:296px;height:119px;" version="1.1" viewBox="0 0 296 119" width="296px" zoomAndPan="magnify"><defs><filter height="300%" id="fwqwjzcn8d98h" width="300%" x="-1" y="-1"><feGaussianBlur result="blurOut" stdDeviation="2.0"/><feColorMatrix in="blurOut" result="blurOut2" type="matrix" values="0 0 0 0 0 0 0 0 0 0 0 0 0 0 0 0 0 0 .4 0"/><feOffset dx="4.0" dy="4.0" in="blurOut2" result="blurOut3"/><feBlend in="SourceGraphic" in2="blurOut3" mode="normal"/></filter></defs><g><!--MD5=[e385c4ac64efaf1cd7bd4f4c5abfc1c7]
cluster org.apache.wiki.its--><polygon fill="#FFFFFF" filter="url(#fwqwjzcn8d98h)" points="16,6,153,6,160,29.6094,274,29.6094,274,90,16,90,16,6" style="stroke: #000000; stroke-width: 1.5;"/><line style="stroke: #000000; stroke-width: 1.5;" x1="16" x2="160" y1="29.6094" y2="29.6094"/><text fill="#000000" font-family="sans-serif" font-size="14" font-weight="bold" lengthAdjust="spacingAndGlyphs" textLength="131" x="20" y="22.5332">org.apache.wiki.its</text><!--MD5=[c019967ff6c5a47948359e0516e6c2a9]
class org.apache.wiki.its.AnonymousViewIT--><a href="AnonymousViewIT.html" target="_top" title="AnonymousViewIT.html" xlink:actuate="onRequest" xlink:href="AnonymousViewIT.html" xlink:show="new" xlink:title="AnonymousViewIT.html" xlink:type="simple"><rect codeLine="3" fill="#FEFECE" filter="url(#fwqwjzcn8d98h)" height="48" id="org.apache.wiki.its.AnonymousViewIT" style="stroke: #A80036; stroke-width: 1.5;" width="133" x="132.5" y="34"/><ellipse cx="147.5" cy="50" fill="#ADD1B2" rx="11" ry="11" style="stroke: #A80036; stroke-width: 1.0;"/><path d="M150.2656,45.875 Q150.4219,45.6563 150.6094,45.5469 Q150.7969,45.4375 151.0156,45.4375 Q151.3906,45.4375 151.625,45.7031 Q151.8594,45.9531 151.8594,46.5625 L151.8594,48.0156 Q151.8594,48.625 151.625,48.8906 Q151.3906,49.1563 151.0156,49.1563 Q150.6719,49.1563 150.4688,48.9531 Q150.2656,48.7656 150.1563,48.25 Q150.1094,47.8906 149.9219,47.7031 Q149.5938,47.3281 148.9844,47.1094 Q148.375,46.8906 147.75,46.8906 Q146.9844,46.8906 146.3438,47.2188 Q145.7188,47.5469 145.2188,48.2969 Q144.7344,49.0469 144.7344,50.0781 L144.7344,51.1719 Q144.7344,52.4063 145.625,53.2344 Q146.5156,54.0469 148.1094,54.0469 Q149.0469,54.0469 149.7031,53.7969 Q150.0938,53.6406 150.5156,53.2031 Q150.7813,52.9375 150.9219,52.8594 Q151.0781,52.7813 151.2813,52.7813 Q151.6094,52.7813 151.8594,53.0469 Q152.125,53.2969 152.125,53.6406 Q152.125,53.9844 151.7813,54.3906 Q151.2813,54.9688 150.4844,55.2969 Q149.4063,55.75 148.1094,55.75 Q146.5938,55.75 145.3906,55.125 Q144.4063,54.625 143.7188,53.5625 Q143.0313,52.4844 143.0313,51.2031 L143.0313,50.0469 Q143.0313,48.7188 143.6406,47.5781 Q144.2656,46.4219 145.3594,45.8125 Q146.4531,45.1875 147.6875,45.1875 Q148.4219,45.1875 149.0625,45.3594 Q149.7188,45.5156 150.2656,45.875 Z "/><text fill="#000000" font-family="sans-serif" font-size="12" lengthAdjust="spacingAndGlyphs" textLength="101" x="161.5" y="54.9102">AnonymousViewIT</text><line style="stroke: #A80036; stroke-width: 1.5;" x1="133.5" x2="264.5" y1="66" y2="66"/><line style="stroke: #A80036; stroke-width: 1.5;" x1="133.5" x2="264.5" y1="74" y2="74"/></a><!--MD5=[bad4b48a349e97ba1aee7cd87cab0492]
class org.apache.wiki.its.LoginIT--><a href="LoginIT.html" target="_top" title="LoginIT.html" xlink:actuate="onRequest" xlink:href="LoginIT.html" xlink:show="new" xlink:title="LoginIT.html" xlink:type="simple"><rect codeLine="6" fill="#FEFECE" filter="url(#fwqwjzcn8d98h)" height="48" id="org.apache.wiki.its.LoginIT" style="stroke: #A80036; stroke-width: 1.5;" width="73" x="24.5" y="34"/><ellipse cx="39.5" cy="50" fill="#ADD1B2" rx="11" ry="11" style="stroke: #A80036; stroke-width: 1.0;"/><path d="M42.2656,45.875 Q42.4219,45.6563 42.6094,45.5469 Q42.7969,45.4375 43.0156,45.4375 Q43.3906,45.4375 43.625,45.7031 Q43.8594,45.9531 43.8594,46.5625 L43.8594,48.0156 Q43.8594,48.625 43.625,48.8906 Q43.3906,49.1563 43.0156,49.1563 Q42.6719,49.1563 42.4688,48.9531 Q42.2656,48.7656 42.1563,48.25 Q42.1094,47.8906 41.9219,47.7031 Q41.5938,47.3281 40.9844,47.1094 Q40.375,46.8906 39.75,46.8906 Q38.9844,46.8906 38.3438,47.2188 Q37.7188,47.5469 37.2188,48.2969 Q36.7344,49.0469 36.7344,50.0781 L36.7344,51.1719 Q36.7344,52.4063 37.625,53.2344 Q38.5156,54.0469 40.1094,54.0469 Q41.0469,54.0469 41.7031,53.7969 Q42.0938,53.6406 42.5156,53.2031 Q42.7813,52.9375 42.9219,52.8594 Q43.0781,52.7813 43.2813,52.7813 Q43.6094,52.7813 43.8594,53.0469 Q44.125,53.2969 44.125,53.6406 Q44.125,53.9844 43.7813,54.3906 Q43.2813,54.9688 42.4844,55.2969 Q41.4063,55.75 40.1094,55.75 Q38.5938,55.75 37.3906,55.125 Q36.4063,54.625 35.7188,53.5625 Q35.0313,52.4844 35.0313,51.2031 L35.0313,50.0469 Q35.0313,48.7188 35.6406,47.5781 Q36.2656,46.4219 37.3594,45.8125 Q38.4531,45.1875 39.6875,45.1875 Q40.4219,45.1875 41.0625,45.3594 Q41.7188,45.5156 42.2656,45.875 Z "/><text fill="#000000" font-family="sans-serif" font-size="12" lengthAdjust="spacingAndGlyphs" textLength="41" x="53.5" y="54.9102">LoginIT</text><line style="stroke: #A80036; stroke-width: 1.5;" x1="25.5" x2="96.5" y1="66" y2="66"/><line style="stroke: #A80036; stroke-width: 1.5;" x1="25.5" x2="96.5" y1="74" y2="74"/></a><text fill="#888888" font-family="sans-serif" font-size="10" lengthAdjust="spacingAndGlyphs" textLength="190" x="44" y="106.3809">UMLDoclet 2.0.12, PlantUML 1.2020.16</text><!--MD5=[00a9ffcda632059a81e0dc7161975cce]
@startuml
    namespace org.apache.wiki.its {

        class AnonymousViewIT [[AnonymousViewIT.html]] {
        }

        class LoginIT [[LoginIT.html]] {
        }

    }

    center footer UMLDoclet 2.0.12, PlantUML 1.2020.16
@enduml

PlantUML version 1.2020.16(Sun Aug 23 22:20:43 CEST 2020)
(APACHE source distribution)
Java Runtime: OpenJDK Runtime Environment
JVM: OpenJDK 64-Bit Server VM
Default Encoding: Cp1252
Language: es
Country: ES
--></g></svg>