<?xml version="1.0" encoding="UTF-8" standalone="no"?><svg xmlns="http://www.w3.org/2000/svg" xmlns:xlink="http://www.w3.org/1999/xlink" contentScriptType="application/ecmascript" contentStyleType="text/css" height="1212px" preserveAspectRatio="none" style="width:1226px;height:1212px;background:#FFFFFF;" version="1.1" viewBox="0 0 1226 1212" width="1226px" zoomAndPan="magnify"><defs><filter height="300%" id="f1da2xj5e20f66" width="300%" x="-1" y="-1"><feGaussianBlur result="blurOut" stdDeviation="2.0"/><feColorMatrix in="blurOut" result="blurOut2" type="matrix" values="0 0 0 0 0 0 0 0 0 0 0 0 0 0 0 0 0 0 .4 0"/><feOffset dx="4.0" dy="4.0" in="blurOut2" result="blurOut3"/><feBlend in="SourceGraphic" in2="blurOut3" mode="normal"/></filter></defs><g><!--MD5=[d7377990620a0f6e07a0031b1796547d]
cluster org.apache.wiki.attachment--><polygon fill="#FFFFFF" filter="url(#f1da2xj5e20f66)" points="16,184,241,184,248,206.2969,1209,206.2969,1209,1189,16,1189,16,184" style="stroke:#000000;stroke-width:1.5;"/><line style="stroke:#000000;stroke-width:1.5;" x1="16" x2="248" y1="206.2969" y2="206.2969"/><text fill="#000000" font-family="sans-serif" font-size="14" font-weight="bold" lengthAdjust="spacing" textLength="219" x="20" y="198.9951">org.apache.wiki.attachment</text><!--MD5=[737c6b32201ecf86b9d7c6a8bb692317]
cluster javax.servlet.http--><polygon fill="#FFFFFF" filter="url(#f1da2xj5e20f66)" points="192,38,335,38,342,60.2969,345,60.2969,345,121,192,121,192,38" style="stroke:#000000;stroke-width:1.5;"/><line style="stroke:#000000;stroke-width:1.5;" x1="192" x2="342" y1="60.2969" y2="60.2969"/><text fill="#000000" font-family="sans-serif" font-size="14" font-weight="bold" lengthAdjust="spacing" textLength="137" x="196" y="52.9951">javax.servlet.http</text><!--MD5=[0efc58285ba131b623584699d07d72ab]
cluster org.apache.wiki--><polygon fill="#FFFFFF" filter="url(#f1da2xj5e20f66)" points="497,38,628,38,635,60.2969,638,60.2969,638,121,497,121,497,38" style="stroke:#000000;stroke-width:1.5;"/><line style="stroke:#000000;stroke-width:1.5;" x1="497" x2="635" y1="60.2969" y2="60.2969"/><text fill="#000000" font-family="sans-serif" font-size="14" font-weight="bold" lengthAdjust="spacing" textLength="125" x="501" y="52.9951">org.apache.wiki</text><!--MD5=[329450b53650989569259c82e5e37fa6]
cluster org.apache.wiki.api.core--><polygon fill="#FFFFFF" filter="url(#f1da2xj5e20f66)" points="652,6,852,6,859,28.2969,862,28.2969,862,153,652,153,652,6" style="stroke:#000000;stroke-width:1.5;"/><line style="stroke:#000000;stroke-width:1.5;" x1="652" x2="859" y1="28.2969" y2="28.2969"/><text fill="#000000" font-family="sans-serif" font-size="14" font-weight="bold" lengthAdjust="spacing" textLength="194" x="656" y="20.9951">org.apache.wiki.api.core</text><!--MD5=[add9248fa87ca9697e67281340ec9c9f]
class org.apache.wiki.attachment.DynamicAttachmentProvider--><a href="DynamicAttachmentProvider.html" target="_top" title="DynamicAttachmentProvider.html" xlink:actuate="onRequest" xlink:href="DynamicAttachmentProvider.html" xlink:show="new" xlink:title="DynamicAttachmentProvider.html" xlink:type="simple"><rect codeLine="3" fill="#FEFECE" filter="url(#f1da2xj5e20f66)" height="60.8047" id="org.apache.wiki.attachment.DynamicAttachmentProvider" style="stroke:#A80036;stroke-width:1.5;" width="337" x="409.5" y="1120"/><ellipse cx="485.75" cy="1136" fill="#B4A7E5" rx="11" ry="11" style="stroke:#A80036;stroke-width:1.0;"/><path d="M481.6719,1131.7656 L481.6719,1129.6094 L489.0625,1129.6094 L489.0625,1131.7656 L486.5938,1131.7656 L486.5938,1139.8438 L489.0625,1139.8438 L489.0625,1142 L481.6719,1142 L481.6719,1139.8438 L484.1406,1139.8438 L484.1406,1131.7656 L481.6719,1131.7656 Z " fill="#000000"/><text fill="#000000" font-family="sans-serif" font-size="12" font-style="italic" lengthAdjust="spacing" textLength="176" x="506.25" y="1140.1543">DynamicAttachmentProvider</text><line style="stroke:#A80036;stroke-width:1.5;" x1="410.5" x2="745.5" y1="1152" y2="1152"/><line style="stroke:#A80036;stroke-width:1.5;" x1="410.5" x2="745.5" y1="1160" y2="1160"/><ellipse cx="420.5" cy="1171" fill="#84BE84" rx="3" ry="3" style="stroke:#038048;stroke-width:1.0;"/><text fill="#000000" font-family="sans-serif" font-size="11" font-style="italic" lengthAdjust="spacing" textLength="311" x="429.5" y="1174.2104">getAttachmentData(Context, Attachment): InputStream</text></a><!--MD5=[2d69f9029f561f66f9c9e603a1116d9b]
class org.apache.wiki.attachment.AttachmentManager--><a href="AttachmentManager.html" target="_top" title="AttachmentManager.html" xlink:actuate="onRequest" xlink:href="AttachmentManager.html" xlink:show="new" xlink:title="AttachmentManager.html" xlink:type="simple"><rect codeLine="7" fill="#FEFECE" filter="url(#f1da2xj5e20f66)" height="406.5313" id="org.apache.wiki.attachment.AttachmentManager" style="stroke:#A80036;stroke-width:1.5;" width="375" x="825.5" y="211"/><ellipse cx="944.75" cy="227" fill="#B4A7E5" rx="11" ry="11" style="stroke:#A80036;stroke-width:1.0;"/><path d="M940.6719,222.7656 L940.6719,220.6094 L948.0625,220.6094 L948.0625,222.7656 L945.5938,222.7656 L945.5938,230.8438 L948.0625,230.8438 L948.0625,233 L940.6719,233 L940.6719,230.8438 L943.1406,230.8438 L943.1406,222.7656 L940.6719,222.7656 Z " fill="#000000"/><text fill="#000000" font-family="sans-serif" font-size="12" font-style="italic" lengthAdjust="spacing" textLength="128" x="965.25" y="231.1543">AttachmentManager</text><line style="stroke:#A80036;stroke-width:1.5;" x1="826.5" x2="1199.5" y1="243" y2="243"/><ellipse cx="836.5" cy="254" rx="3" ry="3" style="stroke:#038048;stroke-width:1.0;fill:none;"/><text fill="#000000" font-family="sans-serif" font-size="11" lengthAdjust="spacing" text-decoration="underline" textLength="133" x="845.5" y="257.2104">PROP_PROVIDER: String</text><ellipse cx="836.5" cy="266.8047" rx="3" ry="3" style="stroke:#038048;stroke-width:1.0;fill:none;"/><text fill="#000000" font-family="sans-serif" font-size="11" lengthAdjust="spacing" text-decoration="underline" textLength="128" x="845.5" y="270.0151">PROP_MAXSIZE: String</text><ellipse cx="836.5" cy="279.6094" rx="3" ry="3" style="stroke:#038048;stroke-width:1.0;fill:none;"/><text fill="#000000" font-family="sans-serif" font-size="11" lengthAdjust="spacing" text-decoration="underline" textLength="202" x="845.5" y="282.8198">PROP_ALLOWEDEXTENSIONS: String</text><ellipse cx="836.5" cy="292.4141" rx="3" ry="3" style="stroke:#038048;stroke-width:1.0;fill:none;"/><text fill="#000000" font-family="sans-serif" font-size="11" lengthAdjust="spacing" text-decoration="underline" textLength="214" x="845.5" y="295.6245">PROP_FORBIDDENEXTENSIONS: String</text><ellipse cx="836.5" cy="305.2188" rx="3" ry="3" style="stroke:#038048;stroke-width:1.0;fill:none;"/><text fill="#000000" font-family="sans-serif" font-size="11" lengthAdjust="spacing" text-decoration="underline" textLength="179" x="845.5" y="308.4292">PROP_FORCEDOWNLOAD: String</text><ellipse cx="836.5" cy="318.0234" rx="3" ry="3" style="stroke:#038048;stroke-width:1.0;fill:none;"/><text fill="#000000" font-family="sans-serif" font-size="11" lengthAdjust="spacing" text-decoration="underline" textLength="117" x="845.5" y="321.2339">CACHE_NAME: String</text><ellipse cx="836.5" cy="330.8281" rx="3" ry="3" style="stroke:#038048;stroke-width:1.0;fill:none;"/><text fill="#000000" font-family="sans-serif" font-size="11" lengthAdjust="spacing" text-decoration="underline" textLength="169" x="845.5" y="334.0386">DEFAULT_CACHECAPACITY: int</text><line style="stroke:#A80036;stroke-width:1.5;" x1="826.5" x2="1199.5" y1="340.6328" y2="340.6328"/><ellipse cx="836.5" cy="351.6328" fill="#84BE84" rx="3" ry="3" style="stroke:#038048;stroke-width:1.0;"/><text fill="#000000" font-family="sans-serif" font-size="11" font-style="italic" lengthAdjust="spacing" textLength="176" x="845.5" y="354.8433">attachmentsEnabled(): boolean</text><ellipse cx="836.5" cy="364.4375" fill="#84BE84" rx="3" ry="3" style="stroke:#038048;stroke-width:1.0;"/><text fill="#000000" font-family="sans-serif" font-size="11" lengthAdjust="spacing" textLength="217" x="845.5" y="367.6479">getAttachmentInfo(String): Attachment</text><ellipse cx="836.5" cy="377.2422" fill="#84BE84" rx="3" ry="3" style="stroke:#038048;stroke-width:1.0;"/><text fill="#000000" font-family="sans-serif" font-size="11" lengthAdjust="spacing" textLength="239" x="845.5" y="380.4526">getAttachmentInfo(String, int): Attachment</text><ellipse cx="836.5" cy="390.0469" fill="#84BE84" rx="3" ry="3" style="stroke:#038048;stroke-width:1.0;"/><text fill="#000000" font-family="sans-serif" font-size="11" lengthAdjust="spacing" textLength="268" x="845.5" y="393.2573">getAttachmentInfo(Context, String): Attachment</text><ellipse cx="836.5" cy="402.8516" fill="#84BE84" rx="3" ry="3" style="stroke:#038048;stroke-width:1.0;"/><text fill="#000000" font-family="sans-serif" font-size="11" font-style="italic" lengthAdjust="spacing" textLength="292" x="845.5" y="406.062">getAttachmentInfo(Context, String, int): Attachment</text><ellipse cx="836.5" cy="415.6563" fill="#84BE84" rx="3" ry="3" style="stroke:#038048;stroke-width:1.0;"/><text fill="#000000" font-family="sans-serif" font-size="11" font-style="italic" lengthAdjust="spacing" textLength="271" x="845.5" y="418.8667">getAttachmentInfoName(Context, String): String</text><ellipse cx="836.5" cy="428.4609" fill="#84BE84" rx="3" ry="3" style="stroke:#038048;stroke-width:1.0;"/><text fill="#000000" font-family="sans-serif" font-size="11" font-style="italic" lengthAdjust="spacing" textLength="233" x="845.5" y="431.6714">listAttachments(Page): List&lt;Attachment&gt;</text><ellipse cx="836.5" cy="441.2656" fill="#84BE84" rx="3" ry="3" style="stroke:#038048;stroke-width:1.0;"/><text fill="#000000" font-family="sans-serif" font-size="11" lengthAdjust="spacing" textLength="181" x="845.5" y="444.4761">hasAttachments(Page): boolean</text><ellipse cx="836.5" cy="454.0703" fill="#84BE84" rx="3" ry="3" style="stroke:#038048;stroke-width:1.0;"/><text fill="#000000" font-family="sans-serif" font-size="11" font-style="italic" lengthAdjust="spacing" textLength="178" x="845.5" y="457.2808">forceDownload(String): boolean</text><ellipse cx="836.5" cy="466.875" fill="#84BE84" rx="3" ry="3" style="stroke:#038048;stroke-width:1.0;"/><text fill="#000000" font-family="sans-serif" font-size="11" lengthAdjust="spacing" textLength="274" x="845.5" y="470.0854">getAttachmentStream(Attachment): InputStream</text><ellipse cx="836.5" cy="479.6797" fill="#84BE84" rx="3" ry="3" style="stroke:#038048;stroke-width:1.0;"/><text fill="#000000" font-family="sans-serif" font-size="11" font-style="italic" lengthAdjust="spacing" textLength="326" x="845.5" y="482.8901">getAttachmentStream(Context, Attachment): InputStream</text><ellipse cx="836.5" cy="492.4844" fill="#84BE84" rx="3" ry="3" style="stroke:#038048;stroke-width:1.0;"/><text fill="#000000" font-family="sans-serif" font-size="11" font-style="italic" lengthAdjust="spacing" textLength="349" x="845.5" y="495.6948">storeDynamicAttachment(Context, DynamicAttachment): void</text><ellipse cx="836.5" cy="505.2891" fill="#84BE84" rx="3" ry="3" style="stroke:#038048;stroke-width:1.0;"/><text fill="#000000" font-family="sans-serif" font-size="11" font-style="italic" lengthAdjust="spacing" textLength="295" x="845.5" y="508.4995">getDynamicAttachment(String): DynamicAttachment</text><ellipse cx="836.5" cy="518.0938" fill="#84BE84" rx="3" ry="3" style="stroke:#038048;stroke-width:1.0;"/><text fill="#000000" font-family="sans-serif" font-size="11" lengthAdjust="spacing" textLength="224" x="845.5" y="521.3042">storeAttachment(Attachment, File): void</text><ellipse cx="836.5" cy="530.8984" fill="#84BE84" rx="3" ry="3" style="stroke:#038048;stroke-width:1.0;"/><text fill="#000000" font-family="sans-serif" font-size="11" font-style="italic" lengthAdjust="spacing" textLength="276" x="845.5" y="534.1089">storeAttachment(Attachment, InputStream): void</text><ellipse cx="836.5" cy="543.7031" fill="#84BE84" rx="3" ry="3" style="stroke:#038048;stroke-width:1.0;"/><text fill="#000000" font-family="sans-serif" font-size="11" font-style="italic" lengthAdjust="spacing" textLength="252" x="845.5" y="546.9136">getVersionHistory(String): List&lt;Attachment&gt;</text><ellipse cx="836.5" cy="556.5078" fill="#84BE84" rx="3" ry="3" style="stroke:#038048;stroke-width:1.0;"/><text fill="#000000" font-family="sans-serif" font-size="11" font-style="italic" lengthAdjust="spacing" textLength="257" x="845.5" y="559.7183">getAllAttachments(): Collection&lt;Attachment&gt;</text><ellipse cx="836.5" cy="569.3125" fill="#84BE84" rx="3" ry="3" style="stroke:#038048;stroke-width:1.0;"/><text fill="#000000" font-family="sans-serif" font-size="11" font-style="italic" lengthAdjust="spacing" textLength="238" x="845.5" y="572.5229">getCurrentProvider(): AttachmentProvider</text><ellipse cx="836.5" cy="582.1172" fill="#84BE84" rx="3" ry="3" style="stroke:#038048;stroke-width:1.0;"/><text fill="#000000" font-family="sans-serif" font-size="11" font-style="italic" lengthAdjust="spacing" textLength="183" x="845.5" y="585.3276">deleteVersion(Attachment): void</text><ellipse cx="836.5" cy="594.9219" fill="#84BE84" rx="3" ry="3" style="stroke:#038048;stroke-width:1.0;"/><text fill="#000000" font-family="sans-serif" font-size="11" font-style="italic" lengthAdjust="spacing" textLength="205" x="845.5" y="598.1323">deleteAttachment(Attachment): void</text><ellipse cx="836.5" cy="607.7266" fill="#84BE84" rx="3" ry="3" style="stroke:#038048;stroke-width:1.0;"/><text fill="#000000" font-family="sans-serif" font-size="11" lengthAdjust="spacing" text-decoration="underline" textLength="180" x="845.5" y="610.937">validateFileName(String): String</text></a><!--MD5=[2371672daf94c2a3f859003eb586c9c3]
class org.apache.wiki.attachment.AttachmentServlet--><a href="AttachmentServlet.html" target="_top" title="AttachmentServlet.html" xlink:actuate="onRequest" xlink:href="AttachmentServlet.html" xlink:show="new" xlink:title="AttachmentServlet.html" xlink:type="simple"><rect codeLine="38" fill="#FEFECE" filter="url(#f1da2xj5e20f66)" height="137.6328" id="org.apache.wiki.attachment.AttachmentServlet" style="stroke:#A80036;stroke-width:1.5;" width="491" x="23.5" y="345.5"/><ellipse cx="206.75" cy="361.5" fill="#ADD1B2" rx="11" ry="11" style="stroke:#A80036;stroke-width:1.0;"/><path d="M209.7188,367.1406 Q209.1406,367.4375 208.5,367.5781 Q207.8594,367.7344 207.1563,367.7344 Q204.6563,367.7344 203.3281,366.0938 Q202.0156,364.4375 202.0156,361.3125 Q202.0156,358.1875 203.3281,356.5313 Q204.6563,354.875 207.1563,354.875 Q207.8594,354.875 208.5,355.0313 Q209.1563,355.1875 209.7188,355.4844 L209.7188,358.2031 Q209.0938,357.625 208.5,357.3594 Q207.9063,357.0781 207.2813,357.0781 Q205.9375,357.0781 205.25,358.1563 Q204.5625,359.2188 204.5625,361.3125 Q204.5625,363.4063 205.25,364.4844 Q205.9375,365.5469 207.2813,365.5469 Q207.9063,365.5469 208.5,365.2813 Q209.0938,365 209.7188,364.4219 L209.7188,367.1406 Z " fill="#000000"/><text fill="#000000" font-family="sans-serif" font-size="12" lengthAdjust="spacing" textLength="116" x="227.25" y="365.6543">AttachmentServlet</text><line style="stroke:#A80036;stroke-width:1.5;" x1="24.5" x2="513.5" y1="377.5" y2="377.5"/><polygon fill="none" points="34.5,383.5,38.5,387.5,34.5,391.5,30.5,387.5" style="stroke:#B38D22;stroke-width:1.0;"/><text fill="#000000" font-family="sans-serif" font-size="11" lengthAdjust="spacing" text-decoration="underline" textLength="125" x="43.5" y="391.7104">DEFAULT_EXPIRY: long</text><line style="stroke:#A80036;stroke-width:1.5;" x1="24.5" x2="513.5" y1="398.3047" y2="398.3047"/><ellipse cx="34.5" cy="409.3047" fill="#84BE84" rx="3" ry="3" style="stroke:#038048;stroke-width:1.0;"/><text fill="#000000" font-family="sans-serif" font-size="11" lengthAdjust="spacing" textLength="132" x="43.5" y="412.5151">init(ServletConfig): void</text><polygon fill="#FFFF44" points="34.5,417.1094,38.5,421.1094,34.5,425.1094,30.5,421.1094" style="stroke:#B38D22;stroke-width:1.0;"/><text fill="#000000" font-family="sans-serif" font-size="11" lengthAdjust="spacing" textLength="333" x="43.5" y="425.3198">doOptions(HttpServletRequest, HttpServletResponse): void</text><ellipse cx="34.5" cy="434.9141" fill="#84BE84" rx="3" ry="3" style="stroke:#038048;stroke-width:1.0;"/><text fill="#000000" font-family="sans-serif" font-size="11" lengthAdjust="spacing" textLength="309" x="43.5" y="438.1245">doGet(HttpServletRequest, HttpServletResponse): void</text><ellipse cx="34.5" cy="447.7188" fill="#84BE84" rx="3" ry="3" style="stroke:#038048;stroke-width:1.0;"/><text fill="#000000" font-family="sans-serif" font-size="11" lengthAdjust="spacing" textLength="314" x="43.5" y="450.9292">doPost(HttpServletRequest, HttpServletResponse): void</text><polygon fill="#FFFF44" points="34.5,455.5234,38.5,459.5234,34.5,463.5234,30.5,459.5234" style="stroke:#B38D22;stroke-width:1.0;"/><text fill="#000000" font-family="sans-serif" font-size="11" lengthAdjust="spacing" textLength="197" x="43.5" y="463.7339">upload(HttpServletRequest): String</text><polygon fill="#FFFF44" points="34.5,468.3281,38.5,472.3281,34.5,476.3281,30.5,472.3281" style="stroke:#B38D22;stroke-width:1.0;"/><text fill="#000000" font-family="sans-serif" font-size="11" lengthAdjust="spacing" textLength="465" x="43.5" y="476.5386">executeUpload(Context, InputStream, String, String, String, String, long): boolean</text></a><!--MD5=[0b44f007d0e13b82cf959f113ef1b0ae]
class org.apache.wiki.attachment.DynamicAttachment--><a href="DynamicAttachment.html" target="_top" title="DynamicAttachment.html" xlink:actuate="onRequest" xlink:href="DynamicAttachment.html" xlink:show="new" xlink:title="DynamicAttachment.html" xlink:type="simple"><rect codeLine="48" fill="#FEFECE" filter="url(#f1da2xj5e20f66)" height="60.8047" id="org.apache.wiki.attachment.DynamicAttachment" style="stroke:#A80036;stroke-width:1.5;" width="435" x="360.5" y="830.5"/><ellipse cx="511.25" cy="846.5" fill="#ADD1B2" rx="11" ry="11" style="stroke:#A80036;stroke-width:1.0;"/><path d="M514.2188,852.1406 Q513.6406,852.4375 513,852.5781 Q512.3594,852.7344 511.6563,852.7344 Q509.1563,852.7344 507.8281,851.0938 Q506.5156,849.4375 506.5156,846.3125 Q506.5156,843.1875 507.8281,841.5313 Q509.1563,839.875 511.6563,839.875 Q512.3594,839.875 513,840.0313 Q513.6563,840.1875 514.2188,840.4844 L514.2188,843.2031 Q513.5938,842.625 513,842.3594 Q512.4063,842.0781 511.7813,842.0781 Q510.4375,842.0781 509.75,843.1563 Q509.0625,844.2188 509.0625,846.3125 Q509.0625,848.4063 509.75,849.4844 Q510.4375,850.5469 511.7813,850.5469 Q512.4063,850.5469 513,850.2813 Q513.5938,850 514.2188,849.4219 L514.2188,852.1406 Z " fill="#000000"/><text fill="#000000" font-family="sans-serif" font-size="12" lengthAdjust="spacing" textLength="125" x="531.75" y="850.6543">DynamicAttachment</text><line style="stroke:#A80036;stroke-width:1.5;" x1="361.5" x2="794.5" y1="862.5" y2="862.5"/><line style="stroke:#A80036;stroke-width:1.5;" x1="361.5" x2="794.5" y1="870.5" y2="870.5"/><ellipse cx="371.5" cy="881.5" fill="#84BE84" rx="3" ry="3" style="stroke:#038048;stroke-width:1.0;"/><text fill="#000000" font-family="sans-serif" font-size="11" lengthAdjust="spacing" textLength="409" x="380.5" y="884.7104">DynamicAttachment(Engine, String, String, DynamicAttachmentProvider)</text></a><!--MD5=[220d8dd95f97487a17b2caedc3dff0a6]
class org.apache.wiki.attachment.DefaultAttachmentManager--><a href="DefaultAttachmentManager.html" target="_top" title="DefaultAttachmentManager.html" xlink:actuate="onRequest" xlink:href="DefaultAttachmentManager.html" xlink:show="new" xlink:title="DefaultAttachmentManager.html" xlink:type="simple"><rect codeLine="52" fill="#FEFECE" filter="url(#f1da2xj5e20f66)" height="240.0703" id="org.apache.wiki.attachment.DefaultAttachmentManager" style="stroke:#A80036;stroke-width:1.5;" width="370" x="830" y="741"/><ellipse cx="924.25" cy="757" fill="#ADD1B2" rx="11" ry="11" style="stroke:#A80036;stroke-width:1.0;"/><path d="M927.2188,762.6406 Q926.6406,762.9375 926,763.0781 Q925.3594,763.2344 924.6563,763.2344 Q922.1563,763.2344 920.8281,761.5938 Q919.5156,759.9375 919.5156,756.8125 Q919.5156,753.6875 920.8281,752.0313 Q922.1563,750.375 924.6563,750.375 Q925.3594,750.375 926,750.5313 Q926.6563,750.6875 927.2188,750.9844 L927.2188,753.7031 Q926.5938,753.125 926,752.8594 Q925.4063,752.5781 924.7813,752.5781 Q923.4375,752.5781 922.75,753.6563 Q922.0625,754.7188 922.0625,756.8125 Q922.0625,758.9063 922.75,759.9844 Q923.4375,761.0469 924.7813,761.0469 Q925.4063,761.0469 926,760.7813 Q926.5938,760.5 927.2188,759.9219 L927.2188,762.6406 Z " fill="#000000"/><text fill="#000000" font-family="sans-serif" font-size="12" lengthAdjust="spacing" textLength="173" x="944.75" y="761.1543">DefaultAttachmentManager</text><line style="stroke:#A80036;stroke-width:1.5;" x1="831" x2="1199" y1="773" y2="773"/><line style="stroke:#A80036;stroke-width:1.5;" x1="831" x2="1199" y1="781" y2="781"/><ellipse cx="841" cy="792" fill="#84BE84" rx="3" ry="3" style="stroke:#038048;stroke-width:1.0;"/><text fill="#000000" font-family="sans-serif" font-size="11" lengthAdjust="spacing" textLength="266" x="850" y="795.2104">DefaultAttachmentManager(Engine, Properties)</text><ellipse cx="841" cy="804.8047" fill="#84BE84" rx="3" ry="3" style="stroke:#038048;stroke-width:1.0;"/><text fill="#000000" font-family="sans-serif" font-size="11" lengthAdjust="spacing" textLength="177" x="850" y="808.0151">attachmentsEnabled(): boolean</text><ellipse cx="841" cy="817.6094" fill="#84BE84" rx="3" ry="3" style="stroke:#038048;stroke-width:1.0;"/><text fill="#000000" font-family="sans-serif" font-size="11" lengthAdjust="spacing" textLength="271" x="850" y="820.8198">getAttachmentInfoName(Context, String): String</text><ellipse cx="841" cy="830.4141" fill="#84BE84" rx="3" ry="3" style="stroke:#038048;stroke-width:1.0;"/><text fill="#000000" font-family="sans-serif" font-size="11" lengthAdjust="spacing" textLength="290" x="850" y="833.6245">getAttachmentInfo(Context, String, int): Attachment</text><ellipse cx="841" cy="843.2188" fill="#84BE84" rx="3" ry="3" style="stroke:#038048;stroke-width:1.0;"/><text fill="#000000" font-family="sans-serif" font-size="11" lengthAdjust="spacing" textLength="234" x="850" y="846.4292">listAttachments(Page): List&lt;Attachment&gt;</text><ellipse cx="841" cy="856.0234" fill="#84BE84" rx="3" ry="3" style="stroke:#038048;stroke-width:1.0;"/><text fill="#000000" font-family="sans-serif" font-size="11" lengthAdjust="spacing" textLength="179" x="850" y="859.2339">forceDownload(String): boolean</text><ellipse cx="841" cy="868.8281" fill="#84BE84" rx="3" ry="3" style="stroke:#038048;stroke-width:1.0;"/><text fill="#000000" font-family="sans-serif" font-size="11" lengthAdjust="spacing" textLength="325" x="850" y="872.0386">getAttachmentStream(Context, Attachment): InputStream</text><ellipse cx="841" cy="881.6328" fill="#84BE84" rx="3" ry="3" style="stroke:#038048;stroke-width:1.0;"/><text fill="#000000" font-family="sans-serif" font-size="11" lengthAdjust="spacing" textLength="344" x="850" y="884.8433">storeDynamicAttachment(Context, DynamicAttachment): void</text><ellipse cx="841" cy="894.4375" fill="#84BE84" rx="3" ry="3" style="stroke:#038048;stroke-width:1.0;"/><text fill="#000000" font-family="sans-serif" font-size="11" lengthAdjust="spacing" textLength="292" x="850" y="897.6479">getDynamicAttachment(String): DynamicAttachment</text><ellipse cx="841" cy="907.2422" fill="#84BE84" rx="3" ry="3" style="stroke:#038048;stroke-width:1.0;"/><text fill="#000000" font-family="sans-serif" font-size="11" lengthAdjust="spacing" textLength="275" x="850" y="910.4526">storeAttachment(Attachment, InputStream): void</text><ellipse cx="841" cy="920.0469" fill="#84BE84" rx="3" ry="3" style="stroke:#038048;stroke-width:1.0;"/><text fill="#000000" font-family="sans-serif" font-size="11" lengthAdjust="spacing" textLength="253" x="850" y="923.2573">getVersionHistory(String): List&lt;Attachment&gt;</text><ellipse cx="841" cy="932.8516" fill="#84BE84" rx="3" ry="3" style="stroke:#038048;stroke-width:1.0;"/><text fill="#000000" font-family="sans-serif" font-size="11" lengthAdjust="spacing" textLength="255" x="850" y="936.062">getAllAttachments(): Collection&lt;Attachment&gt;</text><ellipse cx="841" cy="945.6563" fill="#84BE84" rx="3" ry="3" style="stroke:#038048;stroke-width:1.0;"/><text fill="#000000" font-family="sans-serif" font-size="11" lengthAdjust="spacing" textLength="235" x="850" y="948.8667">getCurrentProvider(): AttachmentProvider</text><ellipse cx="841" cy="958.4609" fill="#84BE84" rx="3" ry="3" style="stroke:#038048;stroke-width:1.0;"/><text fill="#000000" font-family="sans-serif" font-size="11" lengthAdjust="spacing" textLength="181" x="850" y="961.6714">deleteVersion(Attachment): void</text><ellipse cx="841" cy="971.2656" fill="#84BE84" rx="3" ry="3" style="stroke:#038048;stroke-width:1.0;"/><text fill="#000000" font-family="sans-serif" font-size="11" lengthAdjust="spacing" textLength="202" x="850" y="974.4761">deleteAttachment(Attachment): void</text></a><!--MD5=[f9f3519c2fba3d3baeaecee01983e523]
class org.apache.wiki.attachment.Attachment--><a href="Attachment.html" target="_top" title="Attachment.html" xlink:actuate="onRequest" xlink:href="Attachment.html" xlink:show="new" xlink:title="Attachment.html" xlink:type="simple"><rect codeLine="70" fill="#FEFECE" filter="url(#f1da2xj5e20f66)" height="137.6328" id="org.apache.wiki.attachment.Attachment" style="stroke:#A80036;stroke-width:1.5;" width="241" x="549.5" y="345.5"/><ellipse cx="629.25" cy="361.5" fill="#ADD1B2" rx="11" ry="11" style="stroke:#A80036;stroke-width:1.0;"/><path d="M632.2188,367.1406 Q631.6406,367.4375 631,367.5781 Q630.3594,367.7344 629.6563,367.7344 Q627.1563,367.7344 625.8281,366.0938 Q624.5156,364.4375 624.5156,361.3125 Q624.5156,358.1875 625.8281,356.5313 Q627.1563,354.875 629.6563,354.875 Q630.3594,354.875 631,355.0313 Q631.6563,355.1875 632.2188,355.4844 L632.2188,358.2031 Q631.5938,357.625 631,357.3594 Q630.4063,357.0781 629.7813,357.0781 Q628.4375,357.0781 627.75,358.1563 Q627.0625,359.2188 627.0625,361.3125 Q627.0625,363.4063 627.75,364.4844 Q628.4375,365.5469 629.7813,365.5469 Q630.4063,365.5469 631,365.2813 Q631.5938,365 632.2188,364.4219 L632.2188,367.1406 Z " fill="#000000"/><text fill="#000000" font-family="sans-serif" font-size="12" lengthAdjust="spacing" textLength="73" x="649.75" y="365.6543">Attachment</text><line style="stroke:#A80036;stroke-width:1.5;" x1="550.5" x2="789.5" y1="377.5" y2="377.5"/><line style="stroke:#A80036;stroke-width:1.5;" x1="550.5" x2="789.5" y1="385.5" y2="385.5"/><ellipse cx="560.5" cy="396.5" fill="#84BE84" rx="3" ry="3" style="stroke:#038048;stroke-width:1.0;"/><text fill="#000000" font-family="sans-serif" font-size="11" lengthAdjust="spacing" textLength="194" x="569.5" y="399.7104">Attachment(Engine, String, String)</text><ellipse cx="560.5" cy="409.3047" fill="#84BE84" rx="3" ry="3" style="stroke:#038048;stroke-width:1.0;"/><text fill="#000000" font-family="sans-serif" font-size="11" lengthAdjust="spacing" text-decoration="line-through" textLength="64" x="569.5" y="412.5151">Attachment</text><text fill="#000000" font-family="sans-serif" font-size="11" lengthAdjust="spacing" textLength="151" x="633.5" y="412.5151">(WikiEngine, String, String)</text><ellipse cx="560.5" cy="422.1094" fill="#84BE84" rx="3" ry="3" style="stroke:#038048;stroke-width:1.0;"/><text fill="#000000" font-family="sans-serif" font-size="11" lengthAdjust="spacing" textLength="120" x="569.5" y="425.3198">getFileName(): String</text><ellipse cx="560.5" cy="434.9141" fill="#84BE84" rx="3" ry="3" style="stroke:#038048;stroke-width:1.0;"/><text fill="#000000" font-family="sans-serif" font-size="11" lengthAdjust="spacing" textLength="143" x="569.5" y="438.1245">setFileName(String): void</text><ellipse cx="560.5" cy="447.7188" fill="#84BE84" rx="3" ry="3" style="stroke:#038048;stroke-width:1.0;"/><text fill="#000000" font-family="sans-serif" font-size="11" lengthAdjust="spacing" textLength="138" x="569.5" y="450.9292">getParentName(): String</text><ellipse cx="560.5" cy="460.5234" fill="#84BE84" rx="3" ry="3" style="stroke:#038048;stroke-width:1.0;"/><text fill="#000000" font-family="sans-serif" font-size="11" lengthAdjust="spacing" textLength="130" x="569.5" y="463.7339">isCacheable(): boolean</text><ellipse cx="560.5" cy="473.3281" fill="#84BE84" rx="3" ry="3" style="stroke:#038048;stroke-width:1.0;"/><text fill="#000000" font-family="sans-serif" font-size="11" lengthAdjust="spacing" textLength="161" x="569.5" y="476.5386">setCacheable(boolean): void</text></a><!--MD5=[f416d4ad4711b5ddf00f6f9e1e57970b]
class javax.servlet.http.HttpServlet--><rect codeLine="89" fill="#FEFECE" filter="url(#f1da2xj5e20f66)" height="48" id="javax.servlet.http.HttpServlet" style="stroke:#A80036;stroke-width:1.5;" width="102" x="218" y="65"/><ellipse cx="233" cy="81" fill="#A9DCDF" rx="11" ry="11" style="stroke:#A80036;stroke-width:1.0;"/><path d="M233.1094,76.3438 L231.9531,81.4219 L234.2813,81.4219 L233.1094,76.3438 Z M231.625,74.1094 L234.6094,74.1094 L237.9688,86.5 L235.5156,86.5 L234.75,83.4375 L231.4688,83.4375 L230.7188,86.5 L228.2813,86.5 L231.625,74.1094 Z " fill="#000000"/><text fill="#000000" font-family="sans-serif" font-size="12" font-style="italic" lengthAdjust="spacing" textLength="70" x="247" y="85.1543">HttpServlet</text><line style="stroke:#A80036;stroke-width:1.5;" x1="219" x2="319" y1="97" y2="97"/><line style="stroke:#A80036;stroke-width:1.5;" x1="219" x2="319" y1="105" y2="105"/><!--MD5=[3bc2df164c3a4a2de8520ef3a3b40447]
class org.apache.wiki.WikiPage--><a href="../WikiPage.html" target="_top" title="../WikiPage.html" xlink:actuate="onRequest" xlink:href="../WikiPage.html" xlink:show="new" xlink:title="../WikiPage.html" xlink:type="simple"><rect codeLine="94" fill="#FEFECE" filter="url(#f1da2xj5e20f66)" height="48" id="org.apache.wiki.WikiPage" style="stroke:#A80036;stroke-width:1.5;" width="88" x="539" y="65"/><ellipse cx="554" cy="81" fill="#ADD1B2" rx="11" ry="11" style="stroke:#A80036;stroke-width:1.0;"/><path d="M556.9688,86.6406 Q556.3906,86.9375 555.75,87.0781 Q555.1094,87.2344 554.4063,87.2344 Q551.9063,87.2344 550.5781,85.5938 Q549.2656,83.9375 549.2656,80.8125 Q549.2656,77.6875 550.5781,76.0313 Q551.9063,74.375 554.4063,74.375 Q555.1094,74.375 555.75,74.5313 Q556.4063,74.6875 556.9688,74.9844 L556.9688,77.7031 Q556.3438,77.125 555.75,76.8594 Q555.1563,76.5781 554.5313,76.5781 Q553.1875,76.5781 552.5,77.6563 Q551.8125,78.7188 551.8125,80.8125 Q551.8125,82.9063 552.5,83.9844 Q553.1875,85.0469 554.5313,85.0469 Q555.1563,85.0469 555.75,84.7813 Q556.3438,84.5 556.9688,83.9219 L556.9688,86.6406 Z " fill="#000000"/><text fill="#000000" font-family="sans-serif" font-size="12" lengthAdjust="spacing" textLength="56" x="568" y="85.1543">WikiPage</text><line style="stroke:#A80036;stroke-width:1.5;" x1="540" x2="626" y1="97" y2="97"/><line style="stroke:#A80036;stroke-width:1.5;" x1="540" x2="626" y1="105" y2="105"/></a><!--MD5=[c9716cc666394953356cbeeb06aa7610]
class org.apache.wiki.api.core.Attachment--><a href="../api/core/Attachment.html" target="_top" title="../api/core/Attachment.html" xlink:actuate="onRequest" xlink:href="../api/core/Attachment.html" xlink:show="new" xlink:title="../api/core/Attachment.html" xlink:type="simple"><rect codeLine="99" fill="#FEFECE" filter="url(#f1da2xj5e20f66)" height="112.0234" id="org.apache.wiki.api.core.Attachment" style="stroke:#A80036;stroke-width:1.5;" width="187" x="662.5" y="33"/><ellipse cx="715.25" cy="49" fill="#B4A7E5" rx="11" ry="11" style="stroke:#A80036;stroke-width:1.0;"/><path d="M711.1719,44.7656 L711.1719,42.6094 L718.5625,42.6094 L718.5625,44.7656 L716.0938,44.7656 L716.0938,52.8438 L718.5625,52.8438 L718.5625,55 L711.1719,55 L711.1719,52.8438 L713.6406,52.8438 L713.6406,44.7656 L711.1719,44.7656 Z " fill="#000000"/><text fill="#000000" font-family="sans-serif" font-size="12" font-style="italic" lengthAdjust="spacing" textLength="73" x="735.75" y="53.1543">Attachment</text><line style="stroke:#A80036;stroke-width:1.5;" x1="663.5" x2="848.5" y1="65" y2="65"/><line style="stroke:#A80036;stroke-width:1.5;" x1="663.5" x2="848.5" y1="73" y2="73"/><ellipse cx="673.5" cy="84" fill="#84BE84" rx="3" ry="3" style="stroke:#038048;stroke-width:1.0;"/><text fill="#000000" font-family="sans-serif" font-size="11" font-style="italic" lengthAdjust="spacing" textLength="119" x="682.5" y="87.2104">getFileName(): String</text><ellipse cx="673.5" cy="96.8047" fill="#84BE84" rx="3" ry="3" style="stroke:#038048;stroke-width:1.0;"/><text fill="#000000" font-family="sans-serif" font-size="11" font-style="italic" lengthAdjust="spacing" textLength="142" x="682.5" y="100.0151">setFileName(String): void</text><ellipse cx="673.5" cy="109.6094" fill="#84BE84" rx="3" ry="3" style="stroke:#038048;stroke-width:1.0;"/><text fill="#000000" font-family="sans-serif" font-size="11" font-style="italic" lengthAdjust="spacing" textLength="137" x="682.5" y="112.8198">getParentName(): String</text><ellipse cx="673.5" cy="122.4141" fill="#84BE84" rx="3" ry="3" style="stroke:#038048;stroke-width:1.0;"/><text fill="#000000" font-family="sans-serif" font-size="11" font-style="italic" lengthAdjust="spacing" textLength="129" x="682.5" y="125.6245">isCacheable(): boolean</text><ellipse cx="673.5" cy="135.2188" fill="#84BE84" rx="3" ry="3" style="stroke:#038048;stroke-width:1.0;"/><text fill="#000000" font-family="sans-serif" font-size="11" font-style="italic" lengthAdjust="spacing" textLength="161" x="682.5" y="138.4292">setCacheable(boolean): void</text></a><!--MD5=[d50287646e5a69fb17a4091a21dc1a73]
reverse link javax.servlet.http.HttpServlet to org.apache.wiki.attachment.AttachmentServlet--><path codeLine="80" d="M269,133.3983 C269,188.0354 269,281.4178 269,345.4508 " fill="none" id="javax.servlet.http.HttpServlet-backto-org.apache.wiki.attachment.AttachmentServlet" style="stroke:#A80036;stroke-width:1.0;"/><polygon fill="none" points="262.0001,133.1995,269,113.1995,276.0001,133.1994,262.0001,133.1995" style="stroke:#A80036;stroke-width:1.0;"/><!--MD5=[1508e32f84694784f2480e7a994ca68c]
reverse link org.apache.wiki.attachment.Attachment to org.apache.wiki.attachment.DynamicAttachment--><path codeLine="81" d="M651.6673,503.4732 C630.8437,604.5359 597.9839,764.0128 584.3027,830.4112 " fill="none" id="org.apache.wiki.attachment.Attachment-backto-org.apache.wiki.attachment.DynamicAttachment" style="stroke:#A80036;stroke-width:1.0;"/><polygon fill="none" points="644.8337,501.9515,655.7259,483.7757,658.5457,504.7769,644.8337,501.9515" style="stroke:#A80036;stroke-width:1.0;"/><!--MD5=[28a9c9cfa8dbb5ff1f448c7145ae4857]
link org.apache.wiki.attachment.DynamicAttachment to org.apache.wiki.attachment.DynamicAttachmentProvider--><path codeLine="82" d="M578,891.7075 C578,945.6676 578,1057.2092 578,1114.6241 " fill="none" id="org.apache.wiki.attachment.DynamicAttachment-to-org.apache.wiki.attachment.DynamicAttachmentProvider" style="stroke:#A80036;stroke-width:1.0;"/><polygon fill="#A80036" points="578,1119.6716,582,1110.6716,578,1114.6716,574,1110.6716,578,1119.6716" style="stroke:#A80036;stroke-width:1.0;"/><text fill="#000000" font-family="sans-serif" font-size="13" lengthAdjust="spacing" textLength="52" x="579" y="1055.0669">provider</text><!--MD5=[1f0bac36cdefe313a58bd3101046f366]
reverse link org.apache.wiki.attachment.AttachmentManager to org.apache.wiki.attachment.DefaultAttachmentManager--><path codeLine="83" d="M1014.0028,638.3655 C1014.1612,673.7393 1014.3196,709.0924 1014.4619,740.8725 " fill="none" id="org.apache.wiki.attachment.AttachmentManager-backto-org.apache.wiki.attachment.DefaultAttachmentManager" style="stroke:#A80036;stroke-width:1.0;stroke-dasharray:7.0,7.0;"/><polygon fill="none" points="1007.002,638.1821,1013.9122,618.1509,1021.0018,638.1193,1007.002,638.1821" style="stroke:#A80036;stroke-width:1.0;"/><!--MD5=[baf7c3e44b02c798a1e716d3cd4e6b87]
reverse link org.apache.wiki.WikiPage to org.apache.wiki.attachment.Attachment--><path codeLine="84" d="M594.6727,132.6721 C609.2483,187.2048 634.3536,281.1332 651.5444,345.4508 " fill="none" id="org.apache.wiki.WikiPage-backto-org.apache.wiki.attachment.Attachment" style="stroke:#A80036;stroke-width:1.0;"/><polygon fill="none" points="587.8699,134.3288,589.4681,113.1995,601.3951,130.7137,587.8699,134.3288" style="stroke:#A80036;stroke-width:1.0;"/><!--MD5=[11c9514100c55d9786e81b457b673b58]
reverse link org.apache.wiki.api.core.Attachment to org.apache.wiki.attachment.Attachment--><path codeLine="85" d="M735.9521,164.879 C721.5439,219.4123 702.2724,292.3529 688.2842,345.2964 " fill="none" id="org.apache.wiki.api.core.Attachment-backto-org.apache.wiki.attachment.Attachment" style="stroke:#A80036;stroke-width:1.0;stroke-dasharray:7.0,7.0;"/><polygon fill="none" points="729.2414,162.8745,741.1181,145.3262,742.7769,166.4508,729.2414,162.8745" style="stroke:#A80036;stroke-width:1.0;"/><text fill="#888888" font-family="sans-serif" font-size="10" lengthAdjust="spacing" textLength="192" x="510.5" y="1204.2822">UMLDoclet 2.0.15, PlantUML 1.2021.13</text><!--MD5=[85129ece0360c1671d9e2125c26fb2ae]
@startuml
    namespace org.apache.wiki.attachment {

        interface DynamicAttachmentProvider [[DynamicAttachmentProvider.html]] {
            {abstract} +getAttachmentData(Context, Attachment): InputStream
        }

        interface AttachmentManager [[AttachmentManager.html]] {
            {static} +PROP_PROVIDER: String
            {static} +PROP_MAXSIZE: String
            {static} +PROP_ALLOWEDEXTENSIONS: String
            {static} +PROP_FORBIDDENEXTENSIONS: String
            {static} +PROP_FORCEDOWNLOAD: String
            {static} +CACHE_NAME: String
            {static} +DEFAULT_CACHECAPACITY: int
            {abstract} +attachmentsEnabled(): boolean
            +getAttachmentInfo(String): Attachment
            +getAttachmentInfo(String, int): Attachment
            +getAttachmentInfo(Context, String): Attachment
            {abstract} +getAttachmentInfo(Context, String, int): Attachment
            {abstract} +getAttachmentInfoName(Context, String): String
            {abstract} +listAttachments(Page): List<Attachment>
            +hasAttachments(Page): boolean
            {abstract} +forceDownload(String): boolean
            +getAttachmentStream(Attachment): InputStream
            {abstract} +getAttachmentStream(Context, Attachment): InputStream
            {abstract} +storeDynamicAttachment(Context, DynamicAttachment): void
            {abstract} +getDynamicAttachment(String): DynamicAttachment
            +storeAttachment(Attachment, File): void
            {abstract} +storeAttachment(Attachment, InputStream): void
            {abstract} +getVersionHistory(String): List<Attachment>
            {abstract} +getAllAttachments(): Collection<Attachment>
            {abstract} +getCurrentProvider(): AttachmentProvider
            {abstract} +deleteVersion(Attachment): void
            {abstract} +deleteAttachment(Attachment): void
            {static} +validateFileName(String): String
        }

        class AttachmentServlet [[AttachmentServlet.html]] {
            {static} #DEFAULT_EXPIRY: long
            +init(ServletConfig): void
            #doOptions(HttpServletRequest, HttpServletResponse): void
            +doGet(HttpServletRequest, HttpServletResponse): void
            +doPost(HttpServletRequest, HttpServletResponse): void
            #upload(HttpServletRequest): String
            #executeUpload(Context, InputStream, String, String, String, String, long): boolean
        }

        class DynamicAttachment [[DynamicAttachment.html]] {
            +DynamicAttachment(Engine, String, String, DynamicAttachmentProvider)
        }

        class DefaultAttachmentManager [[DefaultAttachmentManager.html]] {
            +DefaultAttachmentManager(Engine, Properties)
            +attachmentsEnabled(): boolean
            +getAttachmentInfoName(Context, String): String
            +getAttachmentInfo(Context, String, int): Attachment
            +listAttachments(Page): List<Attachment>
            +forceDownload(String): boolean
            +getAttachmentStream(Context, Attachment): InputStream
            +storeDynamicAttachment(Context, DynamicAttachment): void
            +getDynamicAttachment(String): DynamicAttachment
            +storeAttachment(Attachment, InputStream): void
            +getVersionHistory(String): List<Attachment>
            +getAllAttachments(): Collection<Attachment>
            +getCurrentProvider(): AttachmentProvider
            +deleteVersion(Attachment): void
            +deleteAttachment(Attachment): void
        }

        class Attachment [[Attachment.html]] {
            +Attachment(Engine, String, String)
            +- -Attachment- -(WikiEngine, String, String)
            +getFileName(): String
            +setFileName(String): void
            +getParentName(): String
            +isCacheable(): boolean
            +setCacheable(boolean): void
        }

        javax.servlet.http.HttpServlet <|- - AttachmentServlet
        Attachment <|- - DynamicAttachment
        DynamicAttachment - -> DynamicAttachmentProvider: provider
        AttachmentManager <|.. DefaultAttachmentManager
        org.apache.wiki.WikiPage <|- - Attachment
        org.apache.wiki.api.core.Attachment <|.. Attachment
    }

    namespace javax.servlet.http {
        abstract class HttpServlet {
        }
    }

    namespace org.apache.wiki {
        class WikiPage [[../WikiPage.html]] {
        }
    }

    namespace org.apache.wiki.api.core {
        interface Attachment [[../api/core/Attachment.html]] {
            {abstract} +getFileName(): String
            {abstract} +setFileName(String): void
            {abstract} +getParentName(): String
            {abstract} +isCacheable(): boolean
            {abstract} +setCacheable(boolean): void
        }
    }

    center footer UMLDoclet 2.0.15, PlantUML 1.2021.13
@enduml

PlantUML version 1.2021.13(Mon Nov 01 11:38:45 UTC 2021)
(APACHE source distribution)
Java Runtime: Java(TM) SE Runtime Environment
JVM: Java HotSpot(TM) 64-Bit Server VM
Default Encoding: ISO-8859-1
Language: en
Country: US
--></g></svg>