<?xml version="1.0" encoding="UTF-8" standalone="no"?><svg xmlns="http://www.w3.org/2000/svg" xmlns:xlink="http://www.w3.org/1999/xlink" contentScriptType="application/ecmascript" contentStyleType="text/css" height="165px" preserveAspectRatio="none" style="width:348px;height:165px;" version="1.1" viewBox="0 0 348 165" width="348px" zoomAndPan="magnify"><defs><filter height="300%" id="fcdbsyqk71ipw" width="300%" x="-1" y="-1"><feGaussianBlur result="blurOut" stdDeviation="2.0"/><feColorMatrix in="blurOut" result="blurOut2" type="matrix" values="0 0 0 0 0 0 0 0 0 0 0 0 0 0 0 0 0 0 .4 0"/><feOffset dx="4.0" dy="4.0" in="blurOut2" result="blurOut3"/><feBlend in="SourceGraphic" in2="blurOut3" mode="normal"/></filter></defs><g><!--class BasicSearchProvider--><a href="BasicSearchProvider.html" target="_top" xlink:actuate="onRequest" xlink:show="new" xlink:title="BasicSearchProvider.html" xlink:type="simple"><rect fill="#FEFECE" filter="url(#fcdbsyqk71ipw)" height="124.8281" id="BasicSearchProvider" style="stroke: #A80036; stroke-width: 1.5;" width="331" x="6" y="8"/><ellipse cx="103.25" cy="24" fill="#ADD1B2" rx="11" ry="11" style="stroke: #A80036; stroke-width: 1.0;"/><path d="M106.2188,29.6406 Q105.6406,29.9375 105,30.0859 Q104.3594,30.2344 103.6563,30.2344 Q101.1563,30.2344 99.8359,28.5859 Q98.5156,26.9375 98.5156,23.8125 Q98.5156,20.6875 99.8359,19.0313 Q101.1563,17.375 103.6563,17.375 Q104.3594,17.375 105.0078,17.5313 Q105.6563,17.6875 106.2188,17.9844 L106.2188,20.7031 Q105.5938,20.125 105,19.8516 Q104.4063,19.5781 103.7813,19.5781 Q102.4375,19.5781 101.75,20.6484 Q101.0625,21.7188 101.0625,23.8125 Q101.0625,25.9063 101.75,26.9766 Q102.4375,28.0469 103.7813,28.0469 Q104.4063,28.0469 105,27.7734 Q105.5938,27.5 106.2188,26.9219 L106.2188,29.6406 Z "/><text fill="#000000" font-family="sans-serif" font-size="12" lengthAdjust="spacingAndGlyphs" textLength="128" x="123.75" y="28.1543">BasicSearchProvider</text><line style="stroke: #A80036; stroke-width: 1.5;" x1="7" x2="336" y1="40" y2="40"/><line style="stroke: #A80036; stroke-width: 1.5;" x1="7" x2="336" y1="48" y2="48"/><ellipse cx="17" cy="59.9023" fill="#84BE84" rx="3" ry="3" style="stroke: #038048; stroke-width: 1.0;"/><text fill="#000000" font-family="sans-serif" font-size="11" lengthAdjust="spacingAndGlyphs" textLength="189" x="26" y="62.2104">initialize(Engine, Properties): void</text><ellipse cx="17" cy="72.707" fill="#84BE84" rx="3" ry="3" style="stroke: #038048; stroke-width: 1.0;"/><text fill="#000000" font-family="sans-serif" font-size="11" lengthAdjust="spacingAndGlyphs" textLength="147" x="26" y="75.0151">pageRemoved(Page): void</text><ellipse cx="17" cy="85.5117" fill="#84BE84" rx="3" ry="3" style="stroke: #038048; stroke-width: 1.0;"/><text fill="#000000" font-family="sans-serif" font-size="11" lengthAdjust="spacingAndGlyphs" textLength="137" x="26" y="87.8198">reindexPage(Page): void</text><ellipse cx="17" cy="98.3164" fill="#84BE84" rx="3" ry="3" style="stroke: #038048; stroke-width: 1.0;"/><text fill="#000000" font-family="sans-serif" font-size="11" lengthAdjust="spacingAndGlyphs" textLength="184" x="26" y="100.6245">parseQuery(String): QueryItem[]</text><ellipse cx="17" cy="111.1211" fill="#84BE84" rx="3" ry="3" style="stroke: #038048; stroke-width: 1.0;"/><text fill="#000000" font-family="sans-serif" font-size="11" lengthAdjust="spacingAndGlyphs" textLength="305" x="26" y="113.4292">findPages(String, Context): Collection&lt;SearchResult&gt;</text><ellipse cx="17" cy="123.9258" fill="#84BE84" rx="3" ry="3" style="stroke: #038048; stroke-width: 1.0;"/><text fill="#000000" font-family="sans-serif" font-size="11" lengthAdjust="spacingAndGlyphs" textLength="136" x="26" y="126.2339">getProviderInfo(): String</text></a><text fill="#888888" font-family="sans-serif" font-size="10" lengthAdjust="spacingAndGlyphs" textLength="186" x="84.5" y="152.2822">UMLDoclet 1.1.4, PlantUML 1.2019.05</text><!--
@startuml

    class BasicSearchProvider [[BasicSearchProvider.html]] {
        +initialize(Engine, Properties): void
        +pageRemoved(Page): void
        +reindexPage(Page): void
        +parseQuery(String): QueryItem[]
        +findPages(String, Context): Collection<SearchResult>
        +getProviderInfo(): String
    }


    center footer UMLDoclet 1.1.4, PlantUML 1.2019.05
@enduml

PlantUML version 1.2019.05(Sat Apr 20 16:45:36 UTC 2019)
(APACHE source distribution)
Java Runtime: Java(TM) SE Runtime Environment
JVM: Java HotSpot(TM) 64-Bit Server VM
Java Version: 1.8.0_241-b07
Operating System: Linux
OS Version: 4.15.0-76-generic
Default Encoding: ISO-8859-1
Language: en
Country: US
--></g></svg>