<?xml version="1.0" encoding="UTF-8" standalone="no"?><svg xmlns="http://www.w3.org/2000/svg" xmlns:xlink="http://www.w3.org/1999/xlink" contentScriptType="application/ecmascript" contentStyleType="text/css" height="241px" preserveAspectRatio="none" style="width:516px;height:241px;" version="1.1" viewBox="0 0 516 241" width="516px" zoomAndPan="magnify"><defs><filter height="300%" id="f582gpd3u9zzo" width="300%" x="-1" y="-1"><feGaussianBlur result="blurOut" stdDeviation="2.0"/><feColorMatrix in="blurOut" result="blurOut2" type="matrix" values="0 0 0 0 0 0 0 0 0 0 0 0 0 0 0 0 0 0 .4 0"/><feOffset dx="4.0" dy="4.0" in="blurOut2" result="blurOut3"/><feBlend in="SourceGraphic" in2="blurOut3" mode="normal"/></filter></defs><g><!--cluster SearchManager--><polygon fill="#FFFFFF" filter="url(#f582gpd3u9zzo)" points="14,16,143,16,150,38.2969,494,38.2969,494,201,14,201,14,16" style="stroke: #000000; stroke-width: 1.5;"/><line style="stroke: #000000; stroke-width: 1.5;" x1="14" x2="150" y1="38.2969" y2="38.2969"/><text fill="#000000" font-family="sans-serif" font-size="14" font-weight="bold" lengthAdjust="spacingAndGlyphs" textLength="123" x="18" y="30.9951">SearchManager</text><!--class SearchManager.JSONSearch--><a href="SearchManager.JSONSearch.html" target="_top" xlink:actuate="onRequest" xlink:show="new" xlink:title="SearchManager.JSONSearch.html" xlink:type="simple"><rect fill="#FEFECE" filter="url(#f582gpd3u9zzo)" height="150.4375" id="SearchManager.JSONSearch" style="stroke: #A80036; stroke-width: 1.5;" width="464" x="22" y="43"/><ellipse cx="213.25" cy="59" fill="#ADD1B2" rx="11" ry="11" style="stroke: #A80036; stroke-width: 1.0;"/><path d="M216.2188,64.6406 Q215.6406,64.9375 215,65.0859 Q214.3594,65.2344 213.6563,65.2344 Q211.1563,65.2344 209.8359,63.5859 Q208.5156,61.9375 208.5156,58.8125 Q208.5156,55.6875 209.8359,54.0313 Q211.1563,52.375 213.6563,52.375 Q214.3594,52.375 215.0078,52.5313 Q215.6563,52.6875 216.2188,52.9844 L216.2188,55.7031 Q215.5938,55.125 215,54.8516 Q214.4063,54.5781 213.7813,54.5781 Q212.4375,54.5781 211.75,55.6484 Q211.0625,56.7188 211.0625,58.8125 Q211.0625,60.9063 211.75,61.9766 Q212.4375,63.0469 213.7813,63.0469 Q214.4063,63.0469 215,62.7734 Q215.5938,62.5 216.2188,61.9219 L216.2188,64.6406 Z "/><text fill="#000000" font-family="sans-serif" font-size="12" lengthAdjust="spacingAndGlyphs" textLength="73" x="233.75" y="63.1543">JSONSearch</text><line style="stroke: #A80036; stroke-width: 1.5;" x1="23" x2="485" y1="75" y2="75"/><ellipse cx="33" cy="86.9023" fill="none" rx="3" ry="3" style="stroke: #038048; stroke-width: 1.0;"/><text fill="#000000" font-family="sans-serif" font-size="11" lengthAdjust="spacingAndGlyphs" text-decoration="underline" textLength="204" x="42" y="89.2104">AJAX_ACTION_SUGGESTIONS: String</text><ellipse cx="33" cy="99.707" fill="none" rx="3" ry="3" style="stroke: #038048; stroke-width: 1.0;"/><text fill="#000000" font-family="sans-serif" font-size="11" lengthAdjust="spacingAndGlyphs" text-decoration="underline" textLength="158" x="42" y="102.0151">AJAX_ACTION_PAGES: String</text><ellipse cx="33" cy="112.5117" fill="none" rx="3" ry="3" style="stroke: #038048; stroke-width: 1.0;"/><text fill="#000000" font-family="sans-serif" font-size="11" lengthAdjust="spacingAndGlyphs" text-decoration="underline" textLength="157" x="42" y="114.8198">DEFAULT_MAX_RESULTS: int</text><ellipse cx="33" cy="125.3164" fill="none" rx="3" ry="3" style="stroke: #038048; stroke-width: 1.0;"/><text fill="#000000" font-family="sans-serif" font-size="11" lengthAdjust="spacingAndGlyphs" textLength="88" x="42" y="127.6245">maxResults: int</text><line style="stroke: #A80036; stroke-width: 1.5;" x1="23" x2="485" y1="134.2188" y2="134.2188"/><ellipse cx="33" cy="146.1211" fill="#84BE84" rx="3" ry="3" style="stroke: #038048; stroke-width: 1.0;"/><text fill="#000000" font-family="sans-serif" font-size="11" lengthAdjust="spacingAndGlyphs" textLength="155" x="42" y="148.4292">getServletMapping(): String</text><ellipse cx="33" cy="158.9258" fill="#84BE84" rx="3" ry="3" style="stroke: #038048; stroke-width: 1.0;"/><text fill="#000000" font-family="sans-serif" font-size="11" lengthAdjust="spacingAndGlyphs" textLength="438" x="42" y="161.2339">service(HttpServletRequest, HttpServletResponse, String, List&lt;String&gt;): void</text><ellipse cx="33" cy="171.7305" fill="#84BE84" rx="3" ry="3" style="stroke: #038048; stroke-width: 1.0;"/><text fill="#000000" font-family="sans-serif" font-size="11" lengthAdjust="spacingAndGlyphs" textLength="233" x="42" y="174.0386">getSuggestions(String, int): List&lt;String&gt;</text><ellipse cx="33" cy="184.5352" fill="#84BE84" rx="3" ry="3" style="stroke: #038048; stroke-width: 1.0;"/><text fill="#000000" font-family="sans-serif" font-size="11" lengthAdjust="spacingAndGlyphs" textLength="357" x="42" y="186.8433">findPages(String, int, WikiContext): List&lt;Map&lt;String, Object&gt;&gt;</text></a><text fill="#888888" font-family="sans-serif" font-size="10" lengthAdjust="spacingAndGlyphs" textLength="186" x="167" y="228.2822">UMLDoclet 1.1.4, PlantUML 1.2019.05</text><!--
@startuml

    class SearchManager.JSONSearch [[SearchManager.JSONSearch.html]] {
        {static} +AJAX_ACTION_SUGGESTIONS: String
        {static} +AJAX_ACTION_PAGES: String
        {static} +DEFAULT_MAX_RESULTS: int
        +maxResults: int
        +getServletMapping(): String
        +service(HttpServletRequest, HttpServletResponse, String, List<String>): void
        +getSuggestions(String, int): List<String>
        +findPages(String, int, WikiContext): List<Map<String, Object>>
    }


    center footer UMLDoclet 1.1.4, PlantUML 1.2019.05
@enduml

PlantUML version 1.2019.05(Sat Apr 20 16:45:36 UTC 2019)
(APACHE source distribution)
Java Runtime: Java(TM) SE Runtime Environment
JVM: Java HotSpot(TM) 64-Bit Server VM
Java Version: 1.8.0_191-b12
Operating System: Linux
OS Version: 4.15.0-60-generic
Default Encoding: ISO-8859-1
Language: en
Country: US
--></g></svg>