<?xml version="1.0" encoding="UTF-8" standalone="no"?><svg xmlns="http://www.w3.org/2000/svg" xmlns:xlink="http://www.w3.org/1999/xlink" contentScriptType="application/ecmascript" contentStyleType="text/css" height="216px" preserveAspectRatio="none" style="width:369px;height:216px;" version="1.1" viewBox="0 0 369 216" width="369px" zoomAndPan="magnify"><defs><filter height="300%" id="fkankae2zvuyx" width="300%" x="-1" y="-1"><feGaussianBlur result="blurOut" stdDeviation="2.0"/><feColorMatrix in="blurOut" result="blurOut2" type="matrix" values="0 0 0 0 0 0 0 0 0 0 0 0 0 0 0 0 0 0 .4 0"/><feOffset dx="4.0" dy="4.0" in="blurOut2" result="blurOut3"/><feBlend in="SourceGraphic" in2="blurOut3" mode="normal"/></filter></defs><g><!--class SearchManager--><a href="SearchManager.html" target="_top" xlink:actuate="onRequest" xlink:show="new" xlink:title="SearchManager.html" xlink:type="simple"><rect fill="#FEFECE" filter="url(#fkankae2zvuyx)" height="176.0469" id="SearchManager" style="stroke: #A80036; stroke-width: 1.5;" width="352" x="6" y="8"/><ellipse cx="128.25" cy="24" fill="#ADD1B2" rx="11" ry="11" style="stroke: #A80036; stroke-width: 1.0;"/><path d="M131.2188,29.6406 Q130.6406,29.9375 130,30.0859 Q129.3594,30.2344 128.6563,30.2344 Q126.1563,30.2344 124.8359,28.5859 Q123.5156,26.9375 123.5156,23.8125 Q123.5156,20.6875 124.8359,19.0313 Q126.1563,17.375 128.6563,17.375 Q129.3594,17.375 130.0078,17.5313 Q130.6563,17.6875 131.2188,17.9844 L131.2188,20.7031 Q130.5938,20.125 130,19.8516 Q129.4063,19.5781 128.7813,19.5781 Q127.4375,19.5781 126.75,20.6484 Q126.0625,21.7188 126.0625,23.8125 Q126.0625,25.9063 126.75,26.9766 Q127.4375,28.0469 128.7813,28.0469 Q129.4063,28.0469 130,27.7734 Q130.5938,27.5 131.2188,26.9219 L131.2188,29.6406 Z "/><text fill="#000000" font-family="sans-serif" font-size="12" lengthAdjust="spacingAndGlyphs" textLength="99" x="148.75" y="28.1543">SearchManager</text><line style="stroke: #A80036; stroke-width: 1.5;" x1="7" x2="357" y1="40" y2="40"/><ellipse cx="17" cy="51.9023" fill="none" rx="3" ry="3" style="stroke: #038048; stroke-width: 1.0;"/><text fill="#000000" font-family="sans-serif" font-size="11" lengthAdjust="spacingAndGlyphs" text-decoration="underline" textLength="178" x="26" y="54.2104">PROP_SEARCHPROVIDER: String</text><ellipse cx="17" cy="64.707" fill="none" rx="3" ry="3" style="stroke: #038048; stroke-width: 1.0;"/><text fill="#000000" font-family="sans-serif" font-size="11" lengthAdjust="spacingAndGlyphs" text-decoration="underline" textLength="121" x="26" y="67.0151">JSON_SEARCH: String</text><line style="stroke: #A80036; stroke-width: 1.5;" x1="7" x2="357" y1="73.6094" y2="73.6094"/><ellipse cx="17" cy="85.5117" fill="#84BE84" rx="3" ry="3" style="stroke: #038048; stroke-width: 1.0;"/><text fill="#000000" font-family="sans-serif" font-size="11" lengthAdjust="spacingAndGlyphs" textLength="223" x="26" y="87.8198">SearchManager(WikiEngine, Properties)</text><ellipse cx="17" cy="98.3164" fill="#84BE84" rx="3" ry="3" style="stroke: #038048; stroke-width: 1.0;"/><text fill="#000000" font-family="sans-serif" font-size="11" lengthAdjust="spacingAndGlyphs" textLength="210" x="26" y="100.6245">initialize(WikiEngine, Properties): void</text><ellipse cx="17" cy="111.1211" fill="#84BE84" rx="3" ry="3" style="stroke: #038048; stroke-width: 1.0;"/><text fill="#000000" font-family="sans-serif" font-size="11" lengthAdjust="spacingAndGlyphs" textLength="199" x="26" y="113.4292">getSearchEngine(): SearchProvider</text><ellipse cx="17" cy="123.9258" fill="#84BE84" rx="3" ry="3" style="stroke: #038048; stroke-width: 1.0;"/><text fill="#000000" font-family="sans-serif" font-size="11" lengthAdjust="spacingAndGlyphs" textLength="326" x="26" y="126.2339">findPages(String, WikiContext): Collection&lt;SearchResult&gt;</text><ellipse cx="17" cy="136.7305" fill="#84BE84" rx="3" ry="3" style="stroke: #038048; stroke-width: 1.0;"/><text fill="#000000" font-family="sans-serif" font-size="11" lengthAdjust="spacingAndGlyphs" textLength="168" x="26" y="139.0386">pageRemoved(WikiPage): void</text><ellipse cx="17" cy="149.5352" fill="#84BE84" rx="3" ry="3" style="stroke: #038048; stroke-width: 1.0;"/><text fill="#000000" font-family="sans-serif" font-size="11" lengthAdjust="spacingAndGlyphs" textLength="198" x="26" y="151.8433">postSave(WikiContext, String): void</text><ellipse cx="17" cy="162.3398" fill="#84BE84" rx="3" ry="3" style="stroke: #038048; stroke-width: 1.0;"/><text fill="#000000" font-family="sans-serif" font-size="11" lengthAdjust="spacingAndGlyphs" textLength="158" x="26" y="164.6479">reindexPage(WikiPage): void</text><ellipse cx="17" cy="175.1445" fill="#84BE84" rx="3" ry="3" style="stroke: #038048; stroke-width: 1.0;"/><text fill="#000000" font-family="sans-serif" font-size="11" lengthAdjust="spacingAndGlyphs" textLength="185" x="26" y="177.4526">actionPerformed(WikiEvent): void</text></a><text fill="#888888" font-family="sans-serif" font-size="10" lengthAdjust="spacingAndGlyphs" textLength="186" x="95" y="203.2822">UMLDoclet 1.1.4, PlantUML 1.2019.05</text><!--
@startuml

    class SearchManager [[SearchManager.html]] {
        {static} +PROP_SEARCHPROVIDER: String
        {static} +JSON_SEARCH: String
        +SearchManager(WikiEngine, Properties)
        +initialize(WikiEngine, Properties): void
        +getSearchEngine(): SearchProvider
        +findPages(String, WikiContext): Collection<SearchResult>
        +pageRemoved(WikiPage): void
        +postSave(WikiContext, String): void
        +reindexPage(WikiPage): void
        +actionPerformed(WikiEvent): void
    }


    center footer UMLDoclet 1.1.4, PlantUML 1.2019.05
@enduml

PlantUML version 1.2019.05(Sat Apr 20 16:45:36 UTC 2019)
(APACHE source distribution)
Java Runtime: Java(TM) SE Runtime Environment
JVM: Java HotSpot(TM) 64-Bit Server VM
Java Version: 1.8.0_191-b12
Operating System: Linux
OS Version: 4.15.0-58-generic
Default Encoding: ISO-8859-1
Language: en
Country: US
--></g></svg>