<?xml version="1.0" encoding="UTF-8" standalone="no"?><svg xmlns="http://www.w3.org/2000/svg" xmlns:xlink="http://www.w3.org/1999/xlink" contentScriptType="application/ecmascript" contentStyleType="text/css" height="271px" preserveAspectRatio="none" style="width:278px;height:271px;" version="1.1" viewBox="0 0 278 271" width="278px" zoomAndPan="magnify"><defs><filter height="300%" id="fcj5z9d7rr4oo" width="300%" x="-1" y="-1"><feGaussianBlur result="blurOut" stdDeviation="2.0"/><feColorMatrix in="blurOut" result="blurOut2" type="matrix" values="0 0 0 0 0 0 0 0 0 0 0 0 0 0 0 0 0 0 .4 0"/><feOffset dx="4.0" dy="4.0" in="blurOut2" result="blurOut3"/><feBlend in="SourceGraphic" in2="blurOut3" mode="normal"/></filter></defs><g><!--MD5=[091a20c8220a40d37b5e82c35d3b86d0]
class org.apache.wiki.tasks.DefaultTasksManager--><a href="DefaultTasksManager.html" target="_top" title="DefaultTasksManager.html" xlink:actuate="onRequest" xlink:href="DefaultTasksManager.html" xlink:show="new" xlink:title="DefaultTasksManager.html" xlink:type="simple"><rect codeLine="5" fill="#FEFECE" filter="url(#fcj5z9d7rr4oo)" height="84.3516" id="org.apache.wiki.tasks.DefaultTasksManager" style="stroke: #A80036; stroke-width: 1.5;" width="252" x="7" y="151"/><ellipse cx="53.75" cy="169.9688" fill="#ADD1B2" rx="11" ry="11" style="stroke: #A80036; stroke-width: 1.0;"/><path d="M56.7188,175.6094 Q56.1406,175.9063 55.5,176.0469 Q54.8594,176.2031 54.1563,176.2031 Q51.6563,176.2031 50.3281,174.5625 Q49.0156,172.9063 49.0156,169.7813 Q49.0156,166.6563 50.3281,165 Q51.6563,163.3438 54.1563,163.3438 Q54.8594,163.3438 55.5,163.5 Q56.1563,163.6563 56.7188,163.9531 L56.7188,166.6719 Q56.0938,166.0938 55.5,165.8281 Q54.9063,165.5469 54.2813,165.5469 Q52.9375,165.5469 52.25,166.625 Q51.5625,167.6875 51.5625,169.7813 Q51.5625,171.875 52.25,172.9531 Q52.9375,174.0156 54.2813,174.0156 Q54.9063,174.0156 55.5,173.75 Q56.0938,173.4688 56.7188,172.8906 L56.7188,175.6094 Z "/><text fill="#000000" font-family="sans-serif" font-size="14" lengthAdjust="spacingAndGlyphs" textLength="150" x="74.25" y="168.9951">DefaultTasksManager</text><text fill="#000000" font-family="sans-serif" font-size="10" lengthAdjust="spacingAndGlyphs" textLength="102" x="98.25" y="181.5791">org.apache.wiki.tasks</text><line style="stroke: #A80036; stroke-width: 1.5;" x1="8" x2="258" y1="188.9375" y2="188.9375"/><ellipse cx="18" cy="199.9375" fill="#84BE84" rx="3" ry="3" style="stroke: #038048; stroke-width: 1.0;"/><text fill="#000000" font-family="sans-serif" font-size="11" lengthAdjust="spacingAndGlyphs" textLength="226" x="27" y="203.1479">buildPreSaveWikiPageTask(String): Step</text><ellipse cx="18" cy="212.7422" fill="#84BE84" rx="3" ry="3" style="stroke: #038048; stroke-width: 1.0;"/><text fill="#000000" font-family="sans-serif" font-size="11" lengthAdjust="spacingAndGlyphs" textLength="173" x="27" y="215.9526">buildSaveWikiPageTask(): Step</text><ellipse cx="18" cy="225.5469" fill="#84BE84" rx="3" ry="3" style="stroke: #038048; stroke-width: 1.0;"/><text fill="#000000" font-family="sans-serif" font-size="11" lengthAdjust="spacingAndGlyphs" textLength="223" x="27" y="228.7573">buildSaveUserProfileTask(Locale): Step</text></a><!--MD5=[7f1e611d6ffb6300e1a5462a91b61034]
class org.apache.wiki.tasks.TasksManager--><a href="TasksManager.html" target="_top" title="TasksManager.html" xlink:actuate="onRequest" xlink:href="TasksManager.html" xlink:show="new" xlink:title="TasksManager.html" xlink:type="simple"><rect codeLine="11" fill="#FEFECE" filter="url(#fcj5z9d7rr4oo)" height="84.3516" id="org.apache.wiki.tasks.TasksManager" style="stroke: #A80036; stroke-width: 1.5;" width="251" x="7.5" y="7"/><ellipse cx="75.25" cy="25.9688" fill="#B4A7E5" rx="11" ry="11" style="stroke: #A80036; stroke-width: 1.0;"/><path d="M71.1719,21.7344 L71.1719,19.5781 L78.5625,19.5781 L78.5625,21.7344 L76.0938,21.7344 L76.0938,29.8125 L78.5625,29.8125 L78.5625,31.9688 L71.1719,31.9688 L71.1719,29.8125 L73.6406,29.8125 L73.6406,21.7344 L71.1719,21.7344 Z "/><text fill="#000000" font-family="sans-serif" font-size="14" font-style="italic" lengthAdjust="spacingAndGlyphs" textLength="99" x="99.75" y="24.9951">TasksManager</text><text fill="#000000" font-family="sans-serif" font-size="10" font-style="italic" lengthAdjust="spacingAndGlyphs" textLength="107" x="95.75" y="37.5791">org.apache.wiki.tasks</text><line style="stroke: #A80036; stroke-width: 1.5;" x1="8.5" x2="257.5" y1="44.9375" y2="44.9375"/><ellipse cx="18.5" cy="55.9375" fill="#84BE84" rx="3" ry="3" style="stroke: #038048; stroke-width: 1.0;"/><text fill="#000000" font-family="sans-serif" font-size="11" font-style="italic" lengthAdjust="spacingAndGlyphs" textLength="225" x="27.5" y="59.1479">buildPreSaveWikiPageTask(String): Step</text><ellipse cx="18.5" cy="68.7422" fill="#84BE84" rx="3" ry="3" style="stroke: #038048; stroke-width: 1.0;"/><text fill="#000000" font-family="sans-serif" font-size="11" font-style="italic" lengthAdjust="spacingAndGlyphs" textLength="173" x="27.5" y="71.9526">buildSaveWikiPageTask(): Step</text><ellipse cx="18.5" cy="81.5469" fill="#84BE84" rx="3" ry="3" style="stroke: #038048; stroke-width: 1.0;"/><text fill="#000000" font-family="sans-serif" font-size="11" font-style="italic" lengthAdjust="spacingAndGlyphs" textLength="220" x="27.5" y="84.7573">buildSaveUserProfileTask(Locale): Step</text></a><!--MD5=[c88b1361e30b34f2763f36929061337a]
reverse link org.apache.wiki.tasks.TasksManager to org.apache.wiki.tasks.DefaultTasksManager--><path codeLine="17" d="M133,111.2896 C133,124.5826 133,138.3254 133,150.6606 " fill="none" id="org.apache.wiki.tasks.TasksManager-backto-org.apache.wiki.tasks.DefaultTasksManager" style="stroke: #A80036; stroke-width: 1.0; stroke-dasharray: 7.0,7.0;"/><polygon fill="none" points="126.0001,111.0379,133,91.0379,140.0001,111.0378,126.0001,111.0379" style="stroke: #A80036; stroke-width: 1.0;"/><text fill="#888888" font-family="sans-serif" font-size="10" lengthAdjust="spacingAndGlyphs" textLength="192" x="34" y="257.6338">UMLDoclet 2.0.12, PlantUML 1.2020.16</text><!--MD5=[8fba2051953ae44273d434b25c9055d5]
@startuml
    set namespaceSeparator none
    hide empty fields
    hide empty methods

    class "<size:14>DefaultTasksManager\n<size:10>org.apache.wiki.tasks" as org.apache.wiki.tasks.DefaultTasksManager [[DefaultTasksManager.html]] {
        +buildPreSaveWikiPageTask(String): Step
        +buildSaveWikiPageTask(): Step
        +buildSaveUserProfileTask(Locale): Step
    }

    interface "<size:14>TasksManager\n<size:10>org.apache.wiki.tasks" as org.apache.wiki.tasks.TasksManager [[TasksManager.html]] {
        {abstract} +buildPreSaveWikiPageTask(String): Step
        {abstract} +buildSaveWikiPageTask(): Step
        {abstract} +buildSaveUserProfileTask(Locale): Step
    }

    org.apache.wiki.tasks.TasksManager <|.. org.apache.wiki.tasks.DefaultTasksManager

    center footer UMLDoclet 2.0.12, PlantUML 1.2020.16
@enduml

PlantUML version 1.2020.16(Sun Aug 23 20:20:43 UTC 2020)
(APACHE source distribution)
Java Runtime: Java(TM) SE Runtime Environment
JVM: Java HotSpot(TM) 64-Bit Server VM
Default Encoding: ISO-8859-1
Language: en
Country: US
--></g></svg>