<?xml version="1.0" encoding="UTF-8" standalone="no"?><svg xmlns="http://www.w3.org/2000/svg" xmlns:xlink="http://www.w3.org/1999/xlink" contentScriptType="application/ecmascript" contentStyleType="text/css" height="768px" preserveAspectRatio="none" style="width:2108px;height:768px;" version="1.1" viewBox="0 0 2108 768" width="2108px" zoomAndPan="magnify"><defs><filter height="300%" id="fxc14dscpzxqk" width="300%" x="-1" y="-1"><feGaussianBlur result="blurOut" stdDeviation="2.0"/><feColorMatrix in="blurOut" result="blurOut2" type="matrix" values="0 0 0 0 0 0 0 0 0 0 0 0 0 0 0 0 0 0 .4 0"/><feOffset dx="4.0" dy="4.0" in="blurOut2" result="blurOut3"/><feBlend in="SourceGraphic" in2="blurOut3" mode="normal"/></filter></defs><g><!--MD5=[3b373063fa179093f31377309d463d45]
cluster org.apache.wiki.render--><polygon fill="#FFFFFF" filter="url(#fxc14dscpzxqk)" points="162,140,352,140,359,162.2969,2086,162.2969,2086,740,162,740,162,140" style="stroke: #000000; stroke-width: 1.5;"/><line style="stroke: #000000; stroke-width: 1.5;" x1="162" x2="359" y1="162.2969" y2="162.2969"/><text fill="#000000" font-family="sans-serif" font-size="14" font-weight="bold" lengthAdjust="spacingAndGlyphs" textLength="184" x="166" y="154.9951">org.apache.wiki.render</text><!--MD5=[06e4b2620a8b168056b961578cd367b2]
cluster org.apache.wiki.api.engine--><polygon fill="#FFFFFF" filter="url(#fxc14dscpzxqk)" points="16,12.5,234,12.5,241,34.7969,509,34.7969,509,108.5,16,108.5,16,12.5" style="stroke: #000000; stroke-width: 1.5;"/><line style="stroke: #000000; stroke-width: 1.5;" x1="16" x2="241" y1="34.7969" y2="34.7969"/><text fill="#000000" font-family="sans-serif" font-size="14" font-weight="bold" lengthAdjust="spacingAndGlyphs" textLength="212" x="20" y="27.4951">org.apache.wiki.api.engine</text><!--MD5=[73faa91e05492c377d111539776da6fd]
cluster org.apache.wiki.event--><polygon fill="#FFFFFF" filter="url(#fxc14dscpzxqk)" points="528,12.5,709,12.5,716,34.7969,760,34.7969,760,108.5,528,108.5,528,12.5" style="stroke: #000000; stroke-width: 1.5;"/><line style="stroke: #000000; stroke-width: 1.5;" x1="528" x2="716" y1="34.7969" y2="34.7969"/><text fill="#000000" font-family="sans-serif" font-size="14" font-weight="bold" lengthAdjust="spacingAndGlyphs" textLength="175" x="532" y="27.4951">org.apache.wiki.event</text><!--MD5=[ba14b7e446e59558acdd58a8e641054c]
cluster org.apache.wiki.modules--><polygon fill="#FFFFFF" filter="url(#fxc14dscpzxqk)" points="774,19,977,19,984,41.2969,987,41.2969,987,102,774,102,774,19" style="stroke: #000000; stroke-width: 1.5;"/><line style="stroke: #000000; stroke-width: 1.5;" x1="774" x2="984" y1="41.2969" y2="41.2969"/><text fill="#000000" font-family="sans-serif" font-size="14" font-weight="bold" lengthAdjust="spacingAndGlyphs" textLength="197" x="778" y="33.9951">org.apache.wiki.modules</text><!--MD5=[56305472176d3236625db78282a0c4e4]
cluster org.jdom2.output.support--><polygon fill="#FFFFFF" filter="url(#fxc14dscpzxqk)" points="1719,6,1929,6,1936,28.2969,1947,28.2969,1947,115,1719,115,1719,6" style="stroke: #000000; stroke-width: 1.5;"/><line style="stroke: #000000; stroke-width: 1.5;" x1="1719" x2="1936" y1="28.2969" y2="28.2969"/><text fill="#000000" font-family="sans-serif" font-size="14" font-weight="bold" lengthAdjust="spacingAndGlyphs" textLength="204" x="1723" y="20.9951">org.jdom2.output.support</text><!--MD5=[943f3551c3cbba80d8936af72abf630e]
class org.apache.wiki.render.CleanTextRenderer--><a href="CleanTextRenderer.html" target="_top" title="CleanTextRenderer.html" xlink:actuate="onRequest" xlink:href="CleanTextRenderer.html" xlink:show="new" xlink:title="CleanTextRenderer.html" xlink:type="simple"><rect codeLine="3" fill="#FEFECE" filter="url(#fxc14dscpzxqk)" height="73.6094" id="org.apache.wiki.render.CleanTextRenderer" style="stroke: #A80036; stroke-width: 1.5;" width="271" x="1806.5" y="588"/><ellipse cx="1878.25" cy="604" fill="#ADD1B2" rx="11" ry="11" style="stroke: #A80036; stroke-width: 1.0;"/><path d="M1881.2188,609.6406 Q1880.6406,609.9375 1880,610.0781 Q1879.3594,610.2344 1878.6563,610.2344 Q1876.1563,610.2344 1874.8281,608.5938 Q1873.5156,606.9375 1873.5156,603.8125 Q1873.5156,600.6875 1874.8281,599.0313 Q1876.1563,597.375 1878.6563,597.375 Q1879.3594,597.375 1880,597.5313 Q1880.6563,597.6875 1881.2188,597.9844 L1881.2188,600.7031 Q1880.5938,600.125 1880,599.8594 Q1879.4063,599.5781 1878.7813,599.5781 Q1877.4375,599.5781 1876.75,600.6563 Q1876.0625,601.7188 1876.0625,603.8125 Q1876.0625,605.9063 1876.75,606.9844 Q1877.4375,608.0469 1878.7813,608.0469 Q1879.4063,608.0469 1880,607.7813 Q1880.5938,607.5 1881.2188,606.9219 L1881.2188,609.6406 Z "/><text fill="#000000" font-family="sans-serif" font-size="12" lengthAdjust="spacingAndGlyphs" textLength="119" x="1898.75" y="608.1543">CleanTextRenderer</text><line style="stroke: #A80036; stroke-width: 1.5;" x1="1807.5" x2="2076.5" y1="620" y2="620"/><line style="stroke: #A80036; stroke-width: 1.5;" x1="1807.5" x2="2076.5" y1="628" y2="628"/><ellipse cx="1817.5" cy="639" fill="#84BE84" rx="3" ry="3" style="stroke: #038048; stroke-width: 1.0;"/><text fill="#000000" font-family="sans-serif" font-size="11" lengthAdjust="spacingAndGlyphs" textLength="245" x="1826.5" y="642.2104">CleanTextRenderer(Context, WikiDocument)</text><ellipse cx="1817.5" cy="651.8047" fill="#84BE84" rx="3" ry="3" style="stroke: #038048; stroke-width: 1.0;"/><text fill="#000000" font-family="sans-serif" font-size="11" lengthAdjust="spacingAndGlyphs" textLength="102" x="1826.5" y="655.0151">getString(): String</text></a><!--MD5=[7babe8c7ef4daa3618c3d415a67c592e]
class org.apache.wiki.render.CreoleRenderer--><a href="CreoleRenderer.html" target="_top" title="CreoleRenderer.html" xlink:actuate="onRequest" xlink:href="CreoleRenderer.html" xlink:show="new" xlink:title="CreoleRenderer.html" xlink:type="simple"><rect codeLine="8" fill="#FEFECE" filter="url(#fxc14dscpzxqk)" height="73.6094" id="org.apache.wiki.render.CreoleRenderer" style="stroke: #A80036; stroke-width: 1.5;" width="252" x="897" y="588"/><ellipse cx="969.75" cy="604" fill="#ADD1B2" rx="11" ry="11" style="stroke: #A80036; stroke-width: 1.0;"/><path d="M972.7188,609.6406 Q972.1406,609.9375 971.5,610.0781 Q970.8594,610.2344 970.1563,610.2344 Q967.6563,610.2344 966.3281,608.5938 Q965.0156,606.9375 965.0156,603.8125 Q965.0156,600.6875 966.3281,599.0313 Q967.6563,597.375 970.1563,597.375 Q970.8594,597.375 971.5,597.5313 Q972.1563,597.6875 972.7188,597.9844 L972.7188,600.7031 Q972.0938,600.125 971.5,599.8594 Q970.9063,599.5781 970.2813,599.5781 Q968.9375,599.5781 968.25,600.6563 Q967.5625,601.7188 967.5625,603.8125 Q967.5625,605.9063 968.25,606.9844 Q968.9375,608.0469 970.2813,608.0469 Q970.9063,608.0469 971.5,607.7813 Q972.0938,607.5 972.7188,606.9219 L972.7188,609.6406 Z "/><text fill="#000000" font-family="sans-serif" font-size="12" lengthAdjust="spacingAndGlyphs" textLength="98" x="990.25" y="608.1543">CreoleRenderer</text><line style="stroke: #A80036; stroke-width: 1.5;" x1="898" x2="1148" y1="620" y2="620"/><line style="stroke: #A80036; stroke-width: 1.5;" x1="898" x2="1148" y1="628" y2="628"/><ellipse cx="908" cy="639" fill="#84BE84" rx="3" ry="3" style="stroke: #038048; stroke-width: 1.0;"/><text fill="#000000" font-family="sans-serif" font-size="11" lengthAdjust="spacingAndGlyphs" textLength="226" x="917" y="642.2104">CreoleRenderer(Context, WikiDocument)</text><ellipse cx="908" cy="651.8047" fill="#84BE84" rx="3" ry="3" style="stroke: #038048; stroke-width: 1.0;"/><text fill="#000000" font-family="sans-serif" font-size="11" lengthAdjust="spacingAndGlyphs" textLength="102" x="917" y="655.0151">getString(): String</text></a><!--MD5=[2960548a459148fa97fc999510a22891]
class org.apache.wiki.render.DefaultRenderingManager--><a href="DefaultRenderingManager.html" target="_top" title="DefaultRenderingManager.html" xlink:actuate="onRequest" xlink:href="DefaultRenderingManager.html" xlink:show="new" xlink:title="DefaultRenderingManager.html" xlink:type="simple"><rect codeLine="13" fill="#FEFECE" filter="url(#fxc14dscpzxqk)" height="214.4609" id="org.apache.wiki.render.DefaultRenderingManager" style="stroke: #A80036; stroke-width: 1.5;" width="692" x="170" y="518"/><ellipse cx="429.75" cy="534" fill="#ADD1B2" rx="11" ry="11" style="stroke: #A80036; stroke-width: 1.0;"/><path d="M432.7188,539.6406 Q432.1406,539.9375 431.5,540.0781 Q430.8594,540.2344 430.1563,540.2344 Q427.6563,540.2344 426.3281,538.5938 Q425.0156,536.9375 425.0156,533.8125 Q425.0156,530.6875 426.3281,529.0313 Q427.6563,527.375 430.1563,527.375 Q430.8594,527.375 431.5,527.5313 Q432.1563,527.6875 432.7188,527.9844 L432.7188,530.7031 Q432.0938,530.125 431.5,529.8594 Q430.9063,529.5781 430.2813,529.5781 Q428.9375,529.5781 428.25,530.6563 Q427.5625,531.7188 427.5625,533.8125 Q427.5625,535.9063 428.25,536.9844 Q428.9375,538.0469 430.2813,538.0469 Q430.9063,538.0469 431.5,537.7813 Q432.0938,537.5 432.7188,536.9219 L432.7188,539.6406 Z "/><text fill="#000000" font-family="sans-serif" font-size="12" lengthAdjust="spacingAndGlyphs" textLength="164" x="450.25" y="538.1543">DefaultRenderingManager</text><line style="stroke: #A80036; stroke-width: 1.5;" x1="171" x2="861" y1="550" y2="550"/><line style="stroke: #A80036; stroke-width: 1.5;" x1="171" x2="861" y1="558" y2="558"/><ellipse cx="181" cy="569" fill="#84BE84" rx="3" ry="3" style="stroke: #038048; stroke-width: 1.0;"/><text fill="#000000" font-family="sans-serif" font-size="11" lengthAdjust="spacingAndGlyphs" textLength="189" x="190" y="572.2104">initialize(Engine, Properties): void</text><ellipse cx="181" cy="581.8047" fill="#84BE84" rx="3" ry="3" style="stroke: #038048; stroke-width: 1.0;"/><text fill="#000000" font-family="sans-serif" font-size="11" lengthAdjust="spacingAndGlyphs" textLength="153" x="190" y="585.0151">beautifyTitle(String): String</text><ellipse cx="181" cy="594.6094" fill="#84BE84" rx="3" ry="3" style="stroke: #038048; stroke-width: 1.0;"/><text fill="#000000" font-family="sans-serif" font-size="11" lengthAdjust="spacingAndGlyphs" textLength="201" x="190" y="597.8198">beautifyTitleNoBreak(String): String</text><ellipse cx="181" cy="607.4141" fill="#84BE84" rx="3" ry="3" style="stroke: #038048; stroke-width: 1.0;"/><text fill="#000000" font-family="sans-serif" font-size="11" lengthAdjust="spacingAndGlyphs" textLength="236" x="190" y="610.6245">getParser(Context, String): MarkupParser</text><ellipse cx="181" cy="620.2188" fill="#84BE84" rx="3" ry="3" style="stroke: #038048; stroke-width: 1.0;"/><text fill="#000000" font-family="sans-serif" font-size="11" lengthAdjust="spacingAndGlyphs" textLength="308" x="190" y="623.4292">getRenderedDocument(Context, String): WikiDocument</text><ellipse cx="181" cy="633.0234" fill="#84BE84" rx="3" ry="3" style="stroke: #038048; stroke-width: 1.0;"/><text fill="#000000" font-family="sans-serif" font-size="11" lengthAdjust="spacingAndGlyphs" textLength="227" x="190" y="636.2339">getHTML(Context, WikiDocument): String</text><ellipse cx="181" cy="645.8281" fill="#84BE84" rx="3" ry="3" style="stroke: #038048; stroke-width: 1.0;"/><text fill="#000000" font-family="sans-serif" font-size="11" lengthAdjust="spacingAndGlyphs" textLength="177" x="190" y="649.0386">getHTML(Context, Page): String</text><ellipse cx="181" cy="658.6328" fill="#84BE84" rx="3" ry="3" style="stroke: #038048; stroke-width: 1.0;"/><text fill="#000000" font-family="sans-serif" font-size="11" lengthAdjust="spacingAndGlyphs" textLength="154" x="190" y="661.8433">getHTML(String, int): String</text><ellipse cx="181" cy="671.4375" fill="#84BE84" rx="3" ry="3" style="stroke: #038048; stroke-width: 1.0;"/><text fill="#000000" font-family="sans-serif" font-size="11" lengthAdjust="spacingAndGlyphs" textLength="200" x="190" y="674.6479">textToHTML(Context, String): String</text><ellipse cx="181" cy="684.2422" fill="#84BE84" rx="3" ry="3" style="stroke: #038048; stroke-width: 1.0;"/><text fill="#000000" font-family="sans-serif" font-size="11" lengthAdjust="spacingAndGlyphs" textLength="666" x="190" y="687.4526">textToHTML(Context, String, StringTransmutator, StringTransmutator, StringTransmutator, boolean, boolean): String</text><ellipse cx="181" cy="697.0469" fill="#84BE84" rx="3" ry="3" style="stroke: #038048; stroke-width: 1.0;"/><text fill="#000000" font-family="sans-serif" font-size="11" lengthAdjust="spacingAndGlyphs" textLength="288" x="190" y="700.2573">getRenderer(Context, WikiDocument): WikiRenderer</text><ellipse cx="181" cy="709.8516" fill="#84BE84" rx="3" ry="3" style="stroke: #038048; stroke-width: 1.0;"/><text fill="#000000" font-family="sans-serif" font-size="11" lengthAdjust="spacingAndGlyphs" textLength="335" x="190" y="713.062">getWysiwygRenderer(Context, WikiDocument): WikiRenderer</text><ellipse cx="181" cy="722.6563" fill="#84BE84" rx="3" ry="3" style="stroke: #038048; stroke-width: 1.0;"/><text fill="#000000" font-family="sans-serif" font-size="11" lengthAdjust="spacingAndGlyphs" textLength="185" x="190" y="725.8667">actionPerformed(WikiEvent): void</text></a><!--MD5=[6e594fdbb075d8f8a18805139be3e305]
class org.apache.wiki.render.RenderingManager--><a href="RenderingManager.html" target="_top" title="RenderingManager.html" xlink:actuate="onRequest" xlink:href="RenderingManager.html" xlink:show="new" xlink:title="RenderingManager.html" xlink:type="simple"><rect codeLine="29" fill="#FEFECE" filter="url(#fxc14dscpzxqk)" height="291.2891" id="org.apache.wiki.render.RenderingManager" style="stroke: #A80036; stroke-width: 1.5;" width="686" x="173" y="167"/><ellipse cx="452.25" cy="183" fill="#B4A7E5" rx="11" ry="11" style="stroke: #A80036; stroke-width: 1.0;"/><path d="M448.1719,178.7656 L448.1719,176.6094 L455.5625,176.6094 L455.5625,178.7656 L453.0938,178.7656 L453.0938,186.8438 L455.5625,186.8438 L455.5625,189 L448.1719,189 L448.1719,186.8438 L450.6406,186.8438 L450.6406,178.7656 L448.1719,178.7656 Z "/><text fill="#000000" font-family="sans-serif" font-size="12" font-style="italic" lengthAdjust="spacingAndGlyphs" textLength="119" x="472.75" y="187.1543">RenderingManager</text><line style="stroke: #A80036; stroke-width: 1.5;" x1="174" x2="858" y1="199" y2="199"/><ellipse cx="184" cy="210" fill="none" rx="3" ry="3" style="stroke: #038048; stroke-width: 1.0;"/><text fill="#000000" font-family="sans-serif" font-size="11" lengthAdjust="spacingAndGlyphs" text-decoration="underline" textLength="121" x="193" y="213.2104">PROP_PARSER: String</text><ellipse cx="184" cy="222.8047" fill="none" rx="3" ry="3" style="stroke: #038048; stroke-width: 1.0;"/><text fill="#000000" font-family="sans-serif" font-size="11" lengthAdjust="spacingAndGlyphs" text-decoration="underline" textLength="136" x="193" y="226.0151">PROP_RENDERER: String</text><ellipse cx="184" cy="235.6094" fill="none" rx="3" ry="3" style="stroke: #038048; stroke-width: 1.0;"/><text fill="#000000" font-family="sans-serif" font-size="11" lengthAdjust="spacingAndGlyphs" text-decoration="underline" textLength="194" x="193" y="238.8198">PROP_WYSIWYG_RENDERER: String</text><ellipse cx="184" cy="248.4141" fill="none" rx="3" ry="3" style="stroke: #038048; stroke-width: 1.0;"/><text fill="#000000" font-family="sans-serif" font-size="11" lengthAdjust="spacingAndGlyphs" text-decoration="underline" textLength="161" x="193" y="251.6245">PROP_BEAUTIFYTITLE: String</text><ellipse cx="184" cy="261.2188" fill="none" rx="3" ry="3" style="stroke: #038048; stroke-width: 1.0;"/><text fill="#000000" font-family="sans-serif" font-size="11" lengthAdjust="spacingAndGlyphs" text-decoration="underline" textLength="181" x="193" y="264.4292">DOCUMENTCACHE_NAME: String</text><line style="stroke: #A80036; stroke-width: 1.5;" x1="174" x2="858" y1="271.0234" y2="271.0234"/><ellipse cx="184" cy="282.0234" fill="#84BE84" rx="3" ry="3" style="stroke: #038048; stroke-width: 1.0;"/><text fill="#000000" font-family="sans-serif" font-size="11" font-style="italic" lengthAdjust="spacingAndGlyphs" textLength="152" x="193" y="285.2339">beautifyTitle(String): String</text><ellipse cx="184" cy="294.8281" fill="#84BE84" rx="3" ry="3" style="stroke: #038048; stroke-width: 1.0;"/><text fill="#000000" font-family="sans-serif" font-size="11" font-style="italic" lengthAdjust="spacingAndGlyphs" textLength="200" x="193" y="298.0386">beautifyTitleNoBreak(String): String</text><ellipse cx="184" cy="307.6328" fill="#84BE84" rx="3" ry="3" style="stroke: #038048; stroke-width: 1.0;"/><text fill="#000000" font-family="sans-serif" font-size="11" font-style="italic" lengthAdjust="spacingAndGlyphs" textLength="234" x="193" y="310.8433">getParser(Context, String): MarkupParser</text><ellipse cx="184" cy="320.4375" fill="#84BE84" rx="3" ry="3" style="stroke: #038048; stroke-width: 1.0;"/><text fill="#000000" font-family="sans-serif" font-size="11" font-style="italic" lengthAdjust="spacingAndGlyphs" textLength="311" x="193" y="323.6479">getRenderedDocument(Context, String): WikiDocument</text><ellipse cx="184" cy="333.2422" fill="#84BE84" rx="3" ry="3" style="stroke: #038048; stroke-width: 1.0;"/><text fill="#000000" font-family="sans-serif" font-size="11" font-style="italic" lengthAdjust="spacingAndGlyphs" textLength="295" x="193" y="336.4526">getRenderer(Context, WikiDocument): WikiRenderer</text><ellipse cx="184" cy="346.0469" fill="#84BE84" rx="3" ry="3" style="stroke: #038048; stroke-width: 1.0;"/><text fill="#000000" font-family="sans-serif" font-size="11" font-style="italic" lengthAdjust="spacingAndGlyphs" textLength="345" x="193" y="349.2573">getWysiwygRenderer(Context, WikiDocument): WikiRenderer</text><ellipse cx="184" cy="358.8516" fill="#84BE84" rx="3" ry="3" style="stroke: #038048; stroke-width: 1.0;"/><text fill="#000000" font-family="sans-serif" font-size="11" font-style="italic" lengthAdjust="spacingAndGlyphs" textLength="229" x="193" y="362.062">getHTML(Context, WikiDocument): String</text><ellipse cx="184" cy="371.6563" fill="#84BE84" rx="3" ry="3" style="stroke: #038048; stroke-width: 1.0;"/><text fill="#000000" font-family="sans-serif" font-size="11" font-style="italic" lengthAdjust="spacingAndGlyphs" textLength="177" x="193" y="374.8667">getHTML(Context, Page): String</text><ellipse cx="184" cy="384.4609" fill="#84BE84" rx="3" ry="3" style="stroke: #038048; stroke-width: 1.0;"/><text fill="#000000" font-family="sans-serif" font-size="11" font-style="italic" lengthAdjust="spacingAndGlyphs" textLength="152" x="193" y="387.6714">getHTML(String, int): String</text><ellipse cx="184" cy="397.2656" fill="#84BE84" rx="3" ry="3" style="stroke: #038048; stroke-width: 1.0;"/><text fill="#000000" font-family="sans-serif" font-size="11" lengthAdjust="spacingAndGlyphs" textLength="183" x="193" y="400.4761">getHTML(Context, String): String</text><ellipse cx="184" cy="410.0703" fill="#84BE84" rx="3" ry="3" style="stroke: #038048; stroke-width: 1.0;"/><text fill="#000000" font-family="sans-serif" font-size="11" lengthAdjust="spacingAndGlyphs" textLength="132" x="193" y="413.2808">getHTML(String): String</text><ellipse cx="184" cy="422.875" fill="#84BE84" rx="3" ry="3" style="stroke: #038048; stroke-width: 1.0;"/><text fill="#000000" font-family="sans-serif" font-size="11" font-style="italic" lengthAdjust="spacingAndGlyphs" textLength="660" x="193" y="426.0854">textToHTML(Context, String, StringTransmutator, StringTransmutator, StringTransmutator, boolean, boolean): String</text><ellipse cx="184" cy="435.6797" fill="#84BE84" rx="3" ry="3" style="stroke: #038048; stroke-width: 1.0;"/><text fill="#000000" font-family="sans-serif" font-size="11" lengthAdjust="spacingAndGlyphs" textLength="440" x="193" y="438.8901">textToHTML(Context, String, StringTransmutator, StringTransmutator): String</text><ellipse cx="184" cy="448.4844" fill="#84BE84" rx="3" ry="3" style="stroke: #038048; stroke-width: 1.0;"/><text fill="#000000" font-family="sans-serif" font-size="11" lengthAdjust="spacingAndGlyphs" textLength="560" x="193" y="451.6948">textToHTML(Context, String, StringTransmutator, StringTransmutator, StringTransmutator): String</text></a><!--MD5=[9c181a8998c980c40d8613e944bc5e5b]
class org.apache.wiki.render.WikiRenderer--><a href="WikiRenderer.html" target="_top" title="WikiRenderer.html" xlink:actuate="onRequest" xlink:href="WikiRenderer.html" xlink:show="new" xlink:title="WikiRenderer.html" xlink:type="simple"><rect codeLine="51" fill="#FEFECE" filter="url(#fxc14dscpzxqk)" height="124.8281" id="org.apache.wiki.render.WikiRenderer" style="stroke: #A80036; stroke-width: 1.5;" width="236" x="1267" y="250"/><ellipse cx="1339.25" cy="266" fill="#A9DCDF" rx="11" ry="11" style="stroke: #A80036; stroke-width: 1.0;"/><path d="M1339.3594,261.3438 L1338.2031,266.4219 L1340.5313,266.4219 L1339.3594,261.3438 Z M1337.875,259.1094 L1340.8594,259.1094 L1344.2188,271.5 L1341.7656,271.5 L1341,268.4375 L1337.7188,268.4375 L1336.9688,271.5 L1334.5313,271.5 L1337.875,259.1094 Z "/><text fill="#000000" font-family="sans-serif" font-size="12" font-style="italic" lengthAdjust="spacingAndGlyphs" textLength="83" x="1359.75" y="270.1543">WikiRenderer</text><line style="stroke: #A80036; stroke-width: 1.5;" x1="1268" x2="1502" y1="282" y2="282"/><polygon fill="none" points="1278,288,1282,292,1278,296,1274,292" style="stroke: #B38D22; stroke-width: 1.0;"/><text fill="#000000" font-family="sans-serif" font-size="11" lengthAdjust="spacingAndGlyphs" textLength="109" x="1287" y="296.2104">m_context: Context</text><polygon fill="none" points="1278,300.8047,1282,304.8047,1278,308.8047,1274,304.8047" style="stroke: #B38D22; stroke-width: 1.0;"/><text fill="#000000" font-family="sans-serif" font-size="11" lengthAdjust="spacingAndGlyphs" textLength="159" x="1287" y="309.0151">m_document: WikiDocument</text><ellipse cx="1278" cy="318.6094" fill="none" rx="3" ry="3" style="stroke: #038048; stroke-width: 1.0;"/><text fill="#000000" font-family="sans-serif" font-size="11" lengthAdjust="spacingAndGlyphs" text-decoration="underline" textLength="157" x="1287" y="321.8198">LINKS_TRANSLATION: String</text><ellipse cx="1278" cy="331.4141" fill="none" rx="3" ry="3" style="stroke: #038048; stroke-width: 1.0;"/><text fill="#000000" font-family="sans-serif" font-size="11" lengthAdjust="spacingAndGlyphs" text-decoration="underline" textLength="127" x="1287" y="334.6245">LINKS_SOURCE: String</text><line style="stroke: #A80036; stroke-width: 1.5;" x1="1268" x2="1502" y1="341.2188" y2="341.2188"/><polygon fill="#FFFF44" points="1278,347.2188,1282,351.2188,1278,355.2188,1274,351.2188" style="stroke: #B38D22; stroke-width: 1.0;"/><text fill="#000000" font-family="sans-serif" font-size="11" lengthAdjust="spacingAndGlyphs" textLength="210" x="1287" y="355.4292">WikiRenderer(Context, WikiDocument)</text><ellipse cx="1278" cy="365.0234" fill="#84BE84" rx="3" ry="3" style="stroke: #038048; stroke-width: 1.0;"/><text fill="#000000" font-family="sans-serif" font-size="11" font-style="italic" lengthAdjust="spacingAndGlyphs" textLength="100" x="1287" y="368.2339">getString(): String</text></a><!--MD5=[badd4c12b723bbecfef86826085280fc]
class org.apache.wiki.render.WysiwygEditingRenderer--><a href="WysiwygEditingRenderer.html" target="_top" title="WysiwygEditingRenderer.html" xlink:actuate="onRequest" xlink:href="WysiwygEditingRenderer.html" xlink:show="new" xlink:title="WysiwygEditingRenderer.html" xlink:type="simple"><rect codeLine="60" fill="#FEFECE" filter="url(#fxc14dscpzxqk)" height="73.6094" id="org.apache.wiki.render.WysiwygEditingRenderer" style="stroke: #A80036; stroke-width: 1.5;" width="300" x="1184" y="588"/><ellipse cx="1254.25" cy="604" fill="#ADD1B2" rx="11" ry="11" style="stroke: #A80036; stroke-width: 1.0;"/><path d="M1257.2188,609.6406 Q1256.6406,609.9375 1256,610.0781 Q1255.3594,610.2344 1254.6563,610.2344 Q1252.1563,610.2344 1250.8281,608.5938 Q1249.5156,606.9375 1249.5156,603.8125 Q1249.5156,600.6875 1250.8281,599.0313 Q1252.1563,597.375 1254.6563,597.375 Q1255.3594,597.375 1256,597.5313 Q1256.6563,597.6875 1257.2188,597.9844 L1257.2188,600.7031 Q1256.5938,600.125 1256,599.8594 Q1255.4063,599.5781 1254.7813,599.5781 Q1253.4375,599.5781 1252.75,600.6563 Q1252.0625,601.7188 1252.0625,603.8125 Q1252.0625,605.9063 1252.75,606.9844 Q1253.4375,608.0469 1254.7813,608.0469 Q1255.4063,608.0469 1256,607.7813 Q1256.5938,607.5 1257.2188,606.9219 L1257.2188,609.6406 Z "/><text fill="#000000" font-family="sans-serif" font-size="12" lengthAdjust="spacingAndGlyphs" textLength="151" x="1274.75" y="608.1543">WysiwygEditingRenderer</text><line style="stroke: #A80036; stroke-width: 1.5;" x1="1185" x2="1483" y1="620" y2="620"/><line style="stroke: #A80036; stroke-width: 1.5;" x1="1185" x2="1483" y1="628" y2="628"/><ellipse cx="1195" cy="639" fill="#84BE84" rx="3" ry="3" style="stroke: #038048; stroke-width: 1.0;"/><text fill="#000000" font-family="sans-serif" font-size="11" lengthAdjust="spacingAndGlyphs" textLength="274" x="1204" y="642.2104">WysiwygEditingRenderer(Context, WikiDocument)</text><ellipse cx="1195" cy="651.8047" fill="#84BE84" rx="3" ry="3" style="stroke: #038048; stroke-width: 1.0;"/><text fill="#000000" font-family="sans-serif" font-size="11" lengthAdjust="spacingAndGlyphs" textLength="102" x="1204" y="655.0151">getString(): String</text></a><!--MD5=[6ce2b85b05609a3a2488a5ad64e6f1da]
class org.apache.wiki.render.XHTMLRenderer--><a href="XHTMLRenderer.html" target="_top" title="XHTMLRenderer.html" xlink:actuate="onRequest" xlink:href="XHTMLRenderer.html" xlink:show="new" xlink:title="XHTMLRenderer.html" xlink:type="simple"><rect codeLine="65" fill="#FEFECE" filter="url(#fxc14dscpzxqk)" height="73.6094" id="org.apache.wiki.render.XHTMLRenderer" style="stroke: #A80036; stroke-width: 1.5;" width="252" x="1519" y="588"/><ellipse cx="1592.25" cy="604" fill="#ADD1B2" rx="11" ry="11" style="stroke: #A80036; stroke-width: 1.0;"/><path d="M1595.2188,609.6406 Q1594.6406,609.9375 1594,610.0781 Q1593.3594,610.2344 1592.6563,610.2344 Q1590.1563,610.2344 1588.8281,608.5938 Q1587.5156,606.9375 1587.5156,603.8125 Q1587.5156,600.6875 1588.8281,599.0313 Q1590.1563,597.375 1592.6563,597.375 Q1593.3594,597.375 1594,597.5313 Q1594.6563,597.6875 1595.2188,597.9844 L1595.2188,600.7031 Q1594.5938,600.125 1594,599.8594 Q1593.4063,599.5781 1592.7813,599.5781 Q1591.4375,599.5781 1590.75,600.6563 Q1590.0625,601.7188 1590.0625,603.8125 Q1590.0625,605.9063 1590.75,606.9844 Q1591.4375,608.0469 1592.7813,608.0469 Q1593.4063,608.0469 1594,607.7813 Q1594.5938,607.5 1595.2188,606.9219 L1595.2188,609.6406 Z "/><text fill="#000000" font-family="sans-serif" font-size="12" lengthAdjust="spacingAndGlyphs" textLength="97" x="1612.75" y="608.1543">XHTMLRenderer</text><line style="stroke: #A80036; stroke-width: 1.5;" x1="1520" x2="1770" y1="620" y2="620"/><line style="stroke: #A80036; stroke-width: 1.5;" x1="1520" x2="1770" y1="628" y2="628"/><ellipse cx="1530" cy="639" fill="#84BE84" rx="3" ry="3" style="stroke: #038048; stroke-width: 1.0;"/><text fill="#000000" font-family="sans-serif" font-size="11" lengthAdjust="spacingAndGlyphs" textLength="226" x="1539" y="642.2104">XHTMLRenderer(Context, WikiDocument)</text><ellipse cx="1530" cy="651.8047" fill="#84BE84" rx="3" ry="3" style="stroke: #038048; stroke-width: 1.0;"/><text fill="#000000" font-family="sans-serif" font-size="11" lengthAdjust="spacingAndGlyphs" textLength="102" x="1539" y="655.0151">getString(): String</text></a><!--MD5=[ea910bea1f99ca20ba9c07452042f4d9]
class org.apache.wiki.render.CustomXMLOutputProcessor--><a href="CustomXMLOutputProcessor.html" target="_top" title="CustomXMLOutputProcessor.html" xlink:actuate="onRequest" xlink:href="CustomXMLOutputProcessor.html" xlink:show="new" xlink:title="CustomXMLOutputProcessor.html" xlink:type="simple"><rect codeLine="70" fill="#FEFECE" filter="url(#fxc14dscpzxqk)" height="60.8047" id="org.apache.wiki.render.CustomXMLOutputProcessor" style="stroke: #A80036; stroke-width: 1.5;" width="385" x="1640.5" y="282"/><ellipse cx="1740.75" cy="298" fill="#ADD1B2" rx="11" ry="11" style="stroke: #A80036; stroke-width: 1.0;"/><path d="M1743.7188,303.6406 Q1743.1406,303.9375 1742.5,304.0781 Q1741.8594,304.2344 1741.1563,304.2344 Q1738.6563,304.2344 1737.3281,302.5938 Q1736.0156,300.9375 1736.0156,297.8125 Q1736.0156,294.6875 1737.3281,293.0313 Q1738.6563,291.375 1741.1563,291.375 Q1741.8594,291.375 1742.5,291.5313 Q1743.1563,291.6875 1743.7188,291.9844 L1743.7188,294.7031 Q1743.0938,294.125 1742.5,293.8594 Q1741.9063,293.5781 1741.2813,293.5781 Q1739.9375,293.5781 1739.25,294.6563 Q1738.5625,295.7188 1738.5625,297.8125 Q1738.5625,299.9063 1739.25,300.9844 Q1739.9375,302.0469 1741.2813,302.0469 Q1741.9063,302.0469 1742.5,301.7813 Q1743.0938,301.5 1743.7188,300.9219 L1743.7188,303.6406 Z "/><text fill="#000000" font-family="sans-serif" font-size="12" lengthAdjust="spacingAndGlyphs" textLength="176" x="1761.25" y="302.1543">CustomXMLOutputProcessor</text><line style="stroke: #A80036; stroke-width: 1.5;" x1="1641.5" x2="2024.5" y1="314" y2="314"/><line style="stroke: #A80036; stroke-width: 1.5;" x1="1641.5" x2="2024.5" y1="322" y2="322"/><polygon fill="#FFFF44" points="1651.5,328,1655.5,332,1651.5,336,1647.5,332" style="stroke: #B38D22; stroke-width: 1.0;"/><text fill="#000000" font-family="sans-serif" font-size="11" lengthAdjust="spacingAndGlyphs" textLength="359" x="1660.5" y="336.2104">attributeEscapedEntitiesFilter(Writer, FormatStack, String): void</text></a><!--MD5=[58109a6d9b4ddee4f79158fbe9ae1694]
class org.apache.wiki.api.engine.RenderApi--><a href="../api/engine/RenderApi.html" target="_top" title="../api/engine/RenderApi.html" xlink:actuate="onRequest" xlink:href="../api/engine/RenderApi.html" xlink:show="new" xlink:title="../api/engine/RenderApi.html" xlink:type="simple"><rect codeLine="87" fill="#FEFECE" filter="url(#fxc14dscpzxqk)" height="60.8047" id="org.apache.wiki.api.engine.RenderApi" style="stroke: #A80036; stroke-width: 1.5;" width="226" x="275" y="39.5"/><ellipse cx="351.75" cy="55.5" fill="#B4A7E5" rx="11" ry="11" style="stroke: #A80036; stroke-width: 1.0;"/><path d="M347.6719,51.2656 L347.6719,49.1094 L355.0625,49.1094 L355.0625,51.2656 L352.5938,51.2656 L352.5938,59.3438 L355.0625,59.3438 L355.0625,61.5 L347.6719,61.5 L347.6719,59.3438 L350.1406,59.3438 L350.1406,51.2656 L347.6719,51.2656 Z "/><text fill="#000000" font-family="sans-serif" font-size="12" font-style="italic" lengthAdjust="spacingAndGlyphs" textLength="64" x="372.25" y="59.6543">RenderApi</text><line style="stroke: #A80036; stroke-width: 1.5;" x1="276" x2="500" y1="71.5" y2="71.5"/><line style="stroke: #A80036; stroke-width: 1.5;" x1="276" x2="500" y1="79.5" y2="79.5"/><ellipse cx="286" cy="90.5" fill="#84BE84" rx="3" ry="3" style="stroke: #038048; stroke-width: 1.0;"/><text fill="#000000" font-family="sans-serif" font-size="11" font-style="italic" lengthAdjust="spacingAndGlyphs" textLength="200" x="295" y="93.7104">textToHTML(Context, String): String</text></a><!--MD5=[b42cfcd16e39a0fd6a37261d508d7333]
class org.apache.wiki.api.engine.Initializable--><a href="../api/engine/Initializable.html" target="_top" title="../api/engine/Initializable.html" xlink:actuate="onRequest" xlink:href="../api/engine/Initializable.html" xlink:show="new" xlink:title="../api/engine/Initializable.html" xlink:type="simple"><rect codeLine="90" fill="#FEFECE" filter="url(#fxc14dscpzxqk)" height="60.8047" id="org.apache.wiki.api.engine.Initializable" style="stroke: #A80036; stroke-width: 1.5;" width="216" x="24" y="39.5"/><ellipse cx="92.75" cy="55.5" fill="#B4A7E5" rx="11" ry="11" style="stroke: #A80036; stroke-width: 1.0;"/><path d="M88.6719,51.2656 L88.6719,49.1094 L96.0625,49.1094 L96.0625,51.2656 L93.5938,51.2656 L93.5938,59.3438 L96.0625,59.3438 L96.0625,61.5 L88.6719,61.5 L88.6719,59.3438 L91.1406,59.3438 L91.1406,51.2656 L88.6719,51.2656 Z "/><text fill="#000000" font-family="sans-serif" font-size="12" font-style="italic" lengthAdjust="spacingAndGlyphs" textLength="70" x="113.25" y="59.6543">Initializable</text><line style="stroke: #A80036; stroke-width: 1.5;" x1="25" x2="239" y1="71.5" y2="71.5"/><line style="stroke: #A80036; stroke-width: 1.5;" x1="25" x2="239" y1="79.5" y2="79.5"/><ellipse cx="35" cy="90.5" fill="#84BE84" rx="3" ry="3" style="stroke: #038048; stroke-width: 1.0;"/><text fill="#000000" font-family="sans-serif" font-size="11" font-style="italic" lengthAdjust="spacingAndGlyphs" textLength="190" x="44" y="93.7104">initialize(Engine, Properties): void</text></a><!--MD5=[8c616ba9df2429bf0adc99a32a005079]
class org.apache.wiki.event.WikiEventListener--><a href="../event/WikiEventListener.html" target="_top" title="../event/WikiEventListener.html" xlink:actuate="onRequest" xlink:href="../event/WikiEventListener.html" xlink:show="new" xlink:title="../event/WikiEventListener.html" xlink:type="simple"><rect codeLine="96" fill="#FEFECE" filter="url(#fxc14dscpzxqk)" height="60.8047" id="org.apache.wiki.event.WikiEventListener" style="stroke: #A80036; stroke-width: 1.5;" width="215" x="536.5" y="39.5"/><ellipse cx="584.75" cy="55.5" fill="#B4A7E5" rx="11" ry="11" style="stroke: #A80036; stroke-width: 1.0;"/><path d="M580.6719,51.2656 L580.6719,49.1094 L588.0625,49.1094 L588.0625,51.2656 L585.5938,51.2656 L585.5938,59.3438 L588.0625,59.3438 L588.0625,61.5 L580.6719,61.5 L580.6719,59.3438 L583.1406,59.3438 L583.1406,51.2656 L580.6719,51.2656 Z "/><text fill="#000000" font-family="sans-serif" font-size="12" font-style="italic" lengthAdjust="spacingAndGlyphs" textLength="110" x="605.25" y="59.6543">WikiEventListener</text><line style="stroke: #A80036; stroke-width: 1.5;" x1="537.5" x2="750.5" y1="71.5" y2="71.5"/><line style="stroke: #A80036; stroke-width: 1.5;" x1="537.5" x2="750.5" y1="79.5" y2="79.5"/><ellipse cx="547.5" cy="90.5" fill="#84BE84" rx="3" ry="3" style="stroke: #038048; stroke-width: 1.0;"/><text fill="#000000" font-family="sans-serif" font-size="11" font-style="italic" lengthAdjust="spacingAndGlyphs" textLength="189" x="556.5" y="93.7104">actionPerformed(WikiEvent): void</text></a><!--MD5=[b7bc5679f73a21bab50bb2c40ae49e22]
class org.apache.wiki.modules.InternalModule--><a href="../modules/InternalModule.html" target="_top" title="../modules/InternalModule.html" xlink:actuate="onRequest" xlink:href="../modules/InternalModule.html" xlink:show="new" xlink:title="../modules/InternalModule.html" xlink:type="simple"><rect codeLine="102" fill="#FEFECE" filter="url(#fxc14dscpzxqk)" height="48" id="org.apache.wiki.modules.InternalModule" style="stroke: #A80036; stroke-width: 1.5;" width="126" x="787" y="46"/><ellipse cx="802" cy="62" fill="#B4A7E5" rx="11" ry="11" style="stroke: #A80036; stroke-width: 1.0;"/><path d="M797.9219,57.7656 L797.9219,55.6094 L805.3125,55.6094 L805.3125,57.7656 L802.8438,57.7656 L802.8438,65.8438 L805.3125,65.8438 L805.3125,68 L797.9219,68 L797.9219,65.8438 L800.3906,65.8438 L800.3906,57.7656 L797.9219,57.7656 Z "/><text fill="#000000" font-family="sans-serif" font-size="12" font-style="italic" lengthAdjust="spacingAndGlyphs" textLength="94" x="816" y="66.1543">InternalModule</text><line style="stroke: #A80036; stroke-width: 1.5;" x1="788" x2="912" y1="78" y2="78"/><line style="stroke: #A80036; stroke-width: 1.5;" x1="788" x2="912" y1="86" y2="86"/></a><!--MD5=[c7a462810be9eaa6a4d9c2efa9eeb67e]
class org.jdom2.output.support.AbstractXMLOutputProcessor--><rect codeLine="106" fill="#FEFECE" filter="url(#fxc14dscpzxqk)" height="73.6094" id="org.jdom2.output.support.AbstractXMLOutputProcessor" style="stroke: #A80036; stroke-width: 1.5;" width="211" x="1727.5" y="33"/><ellipse cx="1742.5" cy="49" fill="#A9DCDF" rx="11" ry="11" style="stroke: #A80036; stroke-width: 1.0;"/><path d="M1742.6094,44.3438 L1741.4531,49.4219 L1743.7813,49.4219 L1742.6094,44.3438 Z M1741.125,42.1094 L1744.1094,42.1094 L1747.4688,54.5 L1745.0156,54.5 L1744.25,51.4375 L1740.9688,51.4375 L1740.2188,54.5 L1737.7813,54.5 L1741.125,42.1094 Z "/><text fill="#000000" font-family="sans-serif" font-size="12" font-style="italic" lengthAdjust="spacingAndGlyphs" textLength="179" x="1756.5" y="53.1543">AbstractXMLOutputProcessor</text><line style="stroke: #A80036; stroke-width: 1.5;" x1="1728.5" x2="1937.5" y1="65" y2="65"/><polygon fill="none" points="1738.5,71,1742.5,75,1738.5,79,1734.5,75" style="stroke: #B38D22; stroke-width: 1.0;"/><text fill="#000000" font-family="sans-serif" font-size="11" lengthAdjust="spacingAndGlyphs" text-decoration="underline" textLength="100" x="1747.5" y="79.2104">CDATAPRE: String</text><polygon fill="none" points="1738.5,83.8047,1742.5,87.8047,1738.5,91.8047,1734.5,87.8047" style="stroke: #B38D22; stroke-width: 1.0;"/><text fill="#000000" font-family="sans-serif" font-size="11" lengthAdjust="spacingAndGlyphs" text-decoration="underline" textLength="110" x="1747.5" y="92.0151">CDATAPOST: String</text><line style="stroke: #A80036; stroke-width: 1.5;" x1="1728.5" x2="1937.5" y1="98.6094" y2="98.6094"/><!--MD5=[ffd759f7df7f5b16464532516311a2a5]
reverse link org.apache.wiki.render.WikiRenderer to org.apache.wiki.render.CleanTextRenderer--><path codeLine="74" d="M1494.621,385.9005 C1534.1177,410.6159 1579.6489,437.1778 1623,458 C1693.715,491.9656 1719.3639,481.874 1789,518 C1826.9794,537.7031 1866.4706,565.5354 1895.8169,587.8752 " fill="none" id="org.apache.wiki.render.WikiRenderer-backto-org.apache.wiki.render.CleanTextRenderer" style="stroke: #A80036; stroke-width: 1.0;"/><polygon fill="none" points="1490.6681,391.683,1477.5096,375.0741,1498.1535,379.8522,1490.6681,391.683" style="stroke: #A80036; stroke-width: 1.0;"/><!--MD5=[7a2dc4263685589dc58d490160cb31a9]
reverse link org.apache.wiki.render.WikiRenderer to org.apache.wiki.render.CreoleRenderer--><path codeLine="75" d="M1296.9993,388.4675 C1223.7551,451.6962 1122.6149,539.0065 1065.9411,587.9307 " fill="none" id="org.apache.wiki.render.WikiRenderer-backto-org.apache.wiki.render.CreoleRenderer" style="stroke: #A80036; stroke-width: 1.0;"/><polygon fill="none" points="1292.4658,383.1335,1312.1794,375.3631,1301.6143,393.731,1292.4658,383.1335" style="stroke: #A80036; stroke-width: 1.0;"/><!--MD5=[8703b756c5f037ca6eed5bcf73c552ff]
reverse link org.apache.wiki.render.RenderingManager to org.apache.wiki.render.DefaultRenderingManager--><path codeLine="76" d="M516,478.4626 C516,491.7805 516,505.0039 516,517.7439 " fill="none" id="org.apache.wiki.render.RenderingManager-backto-org.apache.wiki.render.DefaultRenderingManager" style="stroke: #A80036; stroke-width: 1.0; stroke-dasharray: 7.0,7.0;"/><polygon fill="none" points="509.0001,478.2286,516,458.2285,523.0001,478.2285,509.0001,478.2286" style="stroke: #A80036; stroke-width: 1.0;"/><!--MD5=[085e4af89f663d9a0b0c1da35c841511]
reverse link org.apache.wiki.api.engine.RenderApi to org.apache.wiki.render.RenderingManager--><path codeLine="77" d="M413.7558,118.7952 C421.3193,133.1245 430.0082,149.5859 439.0574,166.7299 " fill="none" id="org.apache.wiki.api.engine.RenderApi-backto-org.apache.wiki.render.RenderingManager" style="stroke: #A80036; stroke-width: 1.0;"/><polygon fill="none" points="407.3568,121.6677,404.2113,100.7128,419.7379,115.1325,407.3568,121.6677" style="stroke: #A80036; stroke-width: 1.0;"/><!--MD5=[d6ad290e80184e99fcf30b6a763a97ee]
reverse link org.apache.wiki.event.WikiEventListener to org.apache.wiki.render.RenderingManager--><path codeLine="78" d="M618.2442,118.7952 C610.6807,133.1245 601.9918,149.5859 592.9426,166.7299 " fill="none" id="org.apache.wiki.event.WikiEventListener-backto-org.apache.wiki.render.RenderingManager" style="stroke: #A80036; stroke-width: 1.0;"/><polygon fill="none" points="612.2621,115.1325,627.7887,100.7128,624.6432,121.6677,612.2621,115.1325" style="stroke: #A80036; stroke-width: 1.0;"/><!--MD5=[d578fae8ddea6a72ef0738eaac51ee32]
reverse link org.apache.wiki.modules.InternalModule to org.apache.wiki.render.RenderingManager--><path codeLine="79" d="M800.5686,105.8895 C777.2432,122.8249 747.7077,144.2691 716.5469,166.8933 " fill="none" id="org.apache.wiki.modules.InternalModule-backto-org.apache.wiki.render.RenderingManager" style="stroke: #A80036; stroke-width: 1.0;"/><polygon fill="none" points="796.4569,100.2244,816.7537,94.1384,804.6822,111.5534,796.4569,100.2244" style="stroke: #A80036; stroke-width: 1.0;"/><!--MD5=[f11cea714489a1ce21dcbf3449e9ef8d]
reverse link org.apache.wiki.api.engine.Initializable to org.apache.wiki.render.RenderingManager--><path codeLine="80" d="M197.6042,111.4298 C222.8089,127.3468 253.2431,146.5663 285.1722,166.7299 " fill="none" id="org.apache.wiki.api.engine.Initializable-backto-org.apache.wiki.render.RenderingManager" style="stroke: #A80036; stroke-width: 1.0;"/><polygon fill="none" points="193.8065,117.3105,180.6339,100.7128,201.2819,105.4733,193.8065,117.3105" style="stroke: #A80036; stroke-width: 1.0;"/><!--MD5=[cfbd5c131391b00adc089a0c287cb00a]
reverse link org.apache.wiki.render.WikiRenderer to org.apache.wiki.render.WysiwygEditingRenderer--><path codeLine="81" d="M1371.4914,395.2732 C1361.2976,457.7352 1347.7934,540.4817 1340.0856,587.7106 " fill="none" id="org.apache.wiki.render.WikiRenderer-backto-org.apache.wiki.render.WysiwygEditingRenderer" style="stroke: #A80036; stroke-width: 1.0;"/><polygon fill="none" points="1364.6107,393.9745,1374.7407,375.3631,1378.4279,396.2295,1364.6107,393.9745" style="stroke: #A80036; stroke-width: 1.0;"/><!--MD5=[e3fa91ae3e1045b531959a42ff5ede38]
reverse link org.apache.wiki.render.WikiRenderer to org.apache.wiki.render.XHTMLRenderer--><path codeLine="82" d="M1450.1766,390.8373 C1502.5334,453.7661 1573.7432,539.3548 1613.9752,587.7106 " fill="none" id="org.apache.wiki.render.WikiRenderer-backto-org.apache.wiki.render.XHTMLRenderer" style="stroke: #A80036; stroke-width: 1.0;"/><polygon fill="none" points="1444.7127,395.2147,1437.3021,375.3631,1455.4748,386.2606,1444.7127,395.2147" style="stroke: #A80036; stroke-width: 1.0;"/><!--MD5=[cec529fa02df071c52a396e2d6ba8c14]
reverse link org.jdom2.output.support.AbstractXMLOutputProcessor to org.apache.wiki.render.CustomXMLOutputProcessor--><path codeLine="83" d="M1833,127.1852 C1833,175.6218 1833,243.194 1833,281.9384 " fill="none" id="org.jdom2.output.support.AbstractXMLOutputProcessor-backto-org.apache.wiki.render.CustomXMLOutputProcessor" style="stroke: #A80036; stroke-width: 1.0;"/><polygon fill="none" points="1826.0001,127.0945,1833,107.0945,1840.0001,127.0945,1826.0001,127.0945" style="stroke: #A80036; stroke-width: 1.0;"/><text fill="#888888" font-family="sans-serif" font-size="10" lengthAdjust="spacingAndGlyphs" textLength="192" x="949" y="755.2822">UMLDoclet 2.0.12, PlantUML 1.2020.16</text><!--MD5=[1d9b63da7e3ca66bd3937aa4614e65ce]
@startuml
    namespace org.apache.wiki.render {

        class CleanTextRenderer [[CleanTextRenderer.html]] {
            +CleanTextRenderer(Context, WikiDocument)
            +getString(): String
        }

        class CreoleRenderer [[CreoleRenderer.html]] {
            +CreoleRenderer(Context, WikiDocument)
            +getString(): String
        }

        class DefaultRenderingManager [[DefaultRenderingManager.html]] {
            +initialize(Engine, Properties): void
            +beautifyTitle(String): String
            +beautifyTitleNoBreak(String): String
            +getParser(Context, String): MarkupParser
            +getRenderedDocument(Context, String): WikiDocument
            +getHTML(Context, WikiDocument): String
            +getHTML(Context, Page): String
            +getHTML(String, int): String
            +textToHTML(Context, String): String
            +textToHTML(Context, String, StringTransmutator, StringTransmutator, StringTransmutator, boolean, boolean): String
            +getRenderer(Context, WikiDocument): WikiRenderer
            +getWysiwygRenderer(Context, WikiDocument): WikiRenderer
            +actionPerformed(WikiEvent): void
        }

        interface RenderingManager [[RenderingManager.html]] {
            {static} +PROP_PARSER: String
            {static} +PROP_RENDERER: String
            {static} +PROP_WYSIWYG_RENDERER: String
            {static} +PROP_BEAUTIFYTITLE: String
            {static} +DOCUMENTCACHE_NAME: String
            {abstract} +beautifyTitle(String): String
            {abstract} +beautifyTitleNoBreak(String): String
            {abstract} +getParser(Context, String): MarkupParser
            {abstract} +getRenderedDocument(Context, String): WikiDocument
            {abstract} +getRenderer(Context, WikiDocument): WikiRenderer
            {abstract} +getWysiwygRenderer(Context, WikiDocument): WikiRenderer
            {abstract} +getHTML(Context, WikiDocument): String
            {abstract} +getHTML(Context, Page): String
            {abstract} +getHTML(String, int): String
            +getHTML(Context, String): String
            +getHTML(String): String
            {abstract} +textToHTML(Context, String, StringTransmutator, StringTransmutator, StringTransmutator, boolean, boolean): String
            +textToHTML(Context, String, StringTransmutator, StringTransmutator): String
            +textToHTML(Context, String, StringTransmutator, StringTransmutator, StringTransmutator): String
        }

        abstract class WikiRenderer [[WikiRenderer.html]] {
            #m_context: Context
            #m_document: WikiDocument
            {static} +LINKS_TRANSLATION: String
            {static} +LINKS_SOURCE: String
            #WikiRenderer(Context, WikiDocument)
            {abstract} +getString(): String
        }

        class WysiwygEditingRenderer [[WysiwygEditingRenderer.html]] {
            +WysiwygEditingRenderer(Context, WikiDocument)
            +getString(): String
        }

        class XHTMLRenderer [[XHTMLRenderer.html]] {
            +XHTMLRenderer(Context, WikiDocument)
            +getString(): String
        }

        class CustomXMLOutputProcessor [[CustomXMLOutputProcessor.html]] {
            #attributeEscapedEntitiesFilter(Writer, FormatStack, String): void
        }

        WikiRenderer <|- - CleanTextRenderer
        WikiRenderer <|- - CreoleRenderer
        RenderingManager <|.. DefaultRenderingManager
        org.apache.wiki.api.engine.RenderApi <|- - RenderingManager
        org.apache.wiki.event.WikiEventListener <|- - RenderingManager
        org.apache.wiki.modules.InternalModule <|- - RenderingManager
        org.apache.wiki.api.engine.Initializable <|- - RenderingManager
        WikiRenderer <|- - WysiwygEditingRenderer
        WikiRenderer <|- - XHTMLRenderer
        org.jdom2.output.support.AbstractXMLOutputProcessor <|- - CustomXMLOutputProcessor
    }

    namespace org.apache.wiki.api.engine {
        interface RenderApi [[../api/engine/RenderApi.html]] {
            {abstract} +textToHTML(Context, String): String
        }
        interface Initializable [[../api/engine/Initializable.html]] {
            {abstract} +initialize(Engine, Properties): void
        }
    }

    namespace org.apache.wiki.event {
        interface WikiEventListener [[../event/WikiEventListener.html]] {
            {abstract} +actionPerformed(WikiEvent): void
        }
    }

    namespace org.apache.wiki.modules {
        interface InternalModule [[../modules/InternalModule.html]]
    }

    namespace org.jdom2.output.support {
        abstract class AbstractXMLOutputProcessor {
            {static} #CDATAPRE: String
            {static} #CDATAPOST: String
        }
    }

    center footer UMLDoclet 2.0.12, PlantUML 1.2020.16
@enduml

PlantUML version 1.2020.16(Sun Aug 23 20:20:43 UTC 2020)
(APACHE source distribution)
Java Runtime: Java(TM) SE Runtime Environment
JVM: Java HotSpot(TM) 64-Bit Server VM
Default Encoding: ISO-8859-1
Language: en
Country: US
--></g></svg>