<?xml version="1.0" encoding="UTF-8" standalone="no"?><svg xmlns="http://www.w3.org/2000/svg" xmlns:xlink="http://www.w3.org/1999/xlink" contentScriptType="application/ecmascript" contentStyleType="text/css" height="114px" preserveAspectRatio="none" style="width:317px;height:114px;" version="1.1" viewBox="0 0 317 114" width="317px" zoomAndPan="magnify"><defs><filter height="300%" id="f1mn114z9za34f" width="300%" x="-1" y="-1"><feGaussianBlur result="blurOut" stdDeviation="2.0"/><feColorMatrix in="blurOut" result="blurOut2" type="matrix" values="0 0 0 0 0 0 0 0 0 0 0 0 0 0 0 0 0 0 .4 0"/><feOffset dx="4.0" dy="4.0" in="blurOut2" result="blurOut3"/><feBlend in="SourceGraphic" in2="blurOut3" mode="normal"/></filter></defs><g><!--class WysiwygEditingRenderer--><a href="WysiwygEditingRenderer.html" target="_top" xlink:actuate="onRequest" xlink:show="new" xlink:title="WysiwygEditingRenderer.html" xlink:type="simple"><rect fill="#FEFECE" filter="url(#f1mn114z9za34f)" height="73.6094" id="WysiwygEditingRenderer" style="stroke: #A80036; stroke-width: 1.5;" width="300" x="6" y="8"/><ellipse cx="76.25" cy="24" fill="#ADD1B2" rx="11" ry="11" style="stroke: #A80036; stroke-width: 1.0;"/><path d="M79.2188,29.6406 Q78.6406,29.9375 78,30.0781 Q77.3594,30.2344 76.6563,30.2344 Q74.1563,30.2344 72.8281,28.5938 Q71.5156,26.9375 71.5156,23.8125 Q71.5156,20.6875 72.8281,19.0313 Q74.1563,17.375 76.6563,17.375 Q77.3594,17.375 78,17.5313 Q78.6563,17.6875 79.2188,17.9844 L79.2188,20.7031 Q78.5938,20.125 78,19.8594 Q77.4063,19.5781 76.7813,19.5781 Q75.4375,19.5781 74.75,20.6563 Q74.0625,21.7188 74.0625,23.8125 Q74.0625,25.9063 74.75,26.9844 Q75.4375,28.0469 76.7813,28.0469 Q77.4063,28.0469 78,27.7813 Q78.5938,27.5 79.2188,26.9219 L79.2188,29.6406 Z "/><text fill="#000000" font-family="sans-serif" font-size="12" lengthAdjust="spacingAndGlyphs" textLength="151" x="96.75" y="28.1543">WysiwygEditingRenderer</text><line style="stroke: #A80036; stroke-width: 1.5;" x1="7" x2="305" y1="40" y2="40"/><line style="stroke: #A80036; stroke-width: 1.5;" x1="7" x2="305" y1="48" y2="48"/><ellipse cx="17" cy="59.9023" fill="#84BE84" rx="3" ry="3" style="stroke: #038048; stroke-width: 1.0;"/><text fill="#000000" font-family="sans-serif" font-size="11" lengthAdjust="spacingAndGlyphs" textLength="274" x="26" y="62.2104">WysiwygEditingRenderer(Context, WikiDocument)</text><ellipse cx="17" cy="72.707" fill="#84BE84" rx="3" ry="3" style="stroke: #038048; stroke-width: 1.0;"/><text fill="#000000" font-family="sans-serif" font-size="11" lengthAdjust="spacingAndGlyphs" textLength="102" x="26" y="75.0151">getString(): String</text></a><text fill="#888888" font-family="sans-serif" font-size="10" lengthAdjust="spacingAndGlyphs" textLength="186" x="69" y="101.2822">UMLDoclet 1.1.4, PlantUML 1.2019.05</text><!--
@startuml

    class WysiwygEditingRenderer [[WysiwygEditingRenderer.html]] {
        +WysiwygEditingRenderer(Context, WikiDocument)
        +getString(): String
    }


    center footer UMLDoclet 1.1.4, PlantUML 1.2019.05
@enduml

PlantUML version 1.2019.05(Sat Apr 20 16:45:36 UTC 2019)
(APACHE source distribution)
Java Runtime: OpenJDK Runtime Environment
JVM: OpenJDK 64-Bit Server VM
Java Version: 1.8.0_252-b09
Operating System: Linux
OS Version: 4.15.0-66-generic
Default Encoding: ISO-8859-1
Language: en
Country: US
--></g></svg>