<?xml version="1.0" encoding="UTF-8" standalone="no"?><svg xmlns="http://www.w3.org/2000/svg" xmlns:xlink="http://www.w3.org/1999/xlink" contentScriptType="application/ecmascript" contentStyleType="text/css" height="205px" preserveAspectRatio="none" style="width:270px;height:205px;" version="1.1" viewBox="0 0 270 205" width="270px" zoomAndPan="magnify"><defs><filter height="300%" id="fu2n3fjj26vc6" width="300%" x="-1" y="-1"><feGaussianBlur result="blurOut" stdDeviation="2.0"/><feColorMatrix in="blurOut" result="blurOut2" type="matrix" values="0 0 0 0 0 0 0 0 0 0 0 0 0 0 0 0 0 0 .4 0"/><feOffset dx="4.0" dy="4.0" in="blurOut2" result="blurOut3"/><feBlend in="SourceGraphic" in2="blurOut3" mode="normal"/></filter></defs><g><!--MD5=[eff7fad977b14e8287ff2efe614e7b07]
class org.apache.wiki.forms.FormOutput--><a href="FormOutput.html" target="_top" title="FormOutput.html" xlink:actuate="onRequest" xlink:href="FormOutput.html" xlink:show="new" xlink:title="FormOutput.html" xlink:type="simple"><rect codeLine="5" fill="#FEFECE" filter="url(#fu2n3fjj26vc6)" height="62.0234" id="org.apache.wiki.forms.FormOutput" style="stroke: #A80036; stroke-width: 1.5;" width="244" x="7" y="107"/><ellipse cx="73.75" cy="127.0938" fill="#ADD1B2" rx="11" ry="11" style="stroke: #A80036; stroke-width: 1.0;"/><path d="M76.5156,122.9688 Q76.6719,122.75 76.8594,122.6406 Q77.0469,122.5313 77.2656,122.5313 Q77.6406,122.5313 77.875,122.7969 Q78.1094,123.0469 78.1094,123.6563 L78.1094,125.1094 Q78.1094,125.7188 77.875,125.9844 Q77.6406,126.25 77.2656,126.25 Q76.9219,126.25 76.7188,126.0469 Q76.5156,125.8594 76.4063,125.3438 Q76.3594,124.9844 76.1719,124.7969 Q75.8438,124.4219 75.2344,124.2031 Q74.625,123.9844 74,123.9844 Q73.2344,123.9844 72.5938,124.3125 Q71.9688,124.6406 71.4688,125.3906 Q70.9844,126.1406 70.9844,127.1719 L70.9844,128.2656 Q70.9844,129.5 71.875,130.3281 Q72.7656,131.1406 74.3594,131.1406 Q75.2969,131.1406 75.9531,130.8906 Q76.3438,130.7344 76.7656,130.2969 Q77.0313,130.0313 77.1719,129.9531 Q77.3281,129.875 77.5313,129.875 Q77.8594,129.875 78.1094,130.1406 Q78.375,130.3906 78.375,130.7344 Q78.375,131.0781 78.0313,131.4844 Q77.5313,132.0625 76.7344,132.3906 Q75.6563,132.8438 74.3594,132.8438 Q72.8438,132.8438 71.6406,132.2188 Q70.6563,131.7188 69.9688,130.6563 Q69.2813,129.5781 69.2813,128.2969 L69.2813,127.1406 Q69.2813,125.8125 69.8906,124.6719 Q70.5156,123.5156 71.6094,122.9063 Q72.7031,122.2813 73.9375,122.2813 Q74.6719,122.2813 75.3125,122.4531 Q75.9688,122.6094 76.5156,122.9688 Z "/><text fill="#000000" font-family="sans-serif" font-size="14" lengthAdjust="spacingAndGlyphs" textLength="76" x="107.25" y="126.5332">FormOutput</text><text fill="#000000" font-family="sans-serif" font-size="10" lengthAdjust="spacingAndGlyphs" textLength="102" x="94.25" y="139.9902">org.apache.wiki.forms</text><line style="stroke: #A80036; stroke-width: 1.5;" x1="8" x2="250" y1="147.1875" y2="147.1875"/><ellipse cx="18" cy="158.1875" fill="#84BE84" rx="3" ry="3" style="stroke: #038048; stroke-width: 1.0;"/><text fill="#000000" font-family="sans-serif" font-size="11" lengthAdjust="spacingAndGlyphs" textLength="218" x="27" y="162.6064">execute(Context, Map&lt;String, String&gt;): String</text></a><!--MD5=[693c924bc36a267e01f78f6f3fa6b213]
class org.apache.wiki.forms.FormElement--><a href="FormElement.html" target="_top" title="FormElement.html" xlink:actuate="onRequest" xlink:href="FormElement.html" xlink:show="new" xlink:title="FormElement.html" xlink:type="simple"><rect codeLine="9" fill="#FEFECE" filter="url(#fu2n3fjj26vc6)" height="40.1875" id="org.apache.wiki.forms.FormElement" style="stroke: #A80036; stroke-width: 1.5;" width="134" x="62" y="7"/><ellipse cx="77" cy="27.0938" fill="#A9DCDF" rx="11" ry="11" style="stroke: #A80036; stroke-width: 1.0;"/><path d="M79.1875,28.8594 L75.0469,28.8594 L74.625,29.8906 L75.0469,29.8906 Q75.6563,29.8906 75.9219,30.125 Q76.1875,30.3594 76.1875,30.75 Q76.1875,31.125 75.9219,31.3594 Q75.6563,31.5938 75.0469,31.5938 L72.75,31.5938 Q72.1406,31.5938 71.8906,31.3594 Q71.625,31.125 71.625,30.7344 Q71.625,30.3594 71.9063,30.125 Q72.1719,29.875 72.7969,29.8906 L75.4688,23.2344 L74.3594,23.2344 Q73.75,23.2344 73.4844,23 Q73.2188,22.7656 73.2188,22.375 Q73.2188,22 73.4844,21.7656 Q73.75,21.5313 74.3594,21.5313 L78.0313,21.5313 L81.4219,29.8906 Q82.0156,29.8906 82.2031,30.0313 Q82.5938,30.2969 82.5938,30.75 Q82.5938,31.125 82.3281,31.3594 Q82.0781,31.5938 81.4688,31.5938 L79.1719,31.5938 Q78.5625,31.5938 78.2969,31.3594 Q78.0313,31.125 78.0313,30.7344 Q78.0313,30.3594 78.2969,30.125 Q78.5625,29.8906 79.1719,29.8906 L79.5938,29.8906 L79.1875,28.8594 Z M78.4688,27.1563 L77.1094,23.7813 L75.7344,27.1563 L78.4688,27.1563 Z "/><text fill="#000000" font-family="sans-serif" font-size="14" font-style="italic" lengthAdjust="spacingAndGlyphs" textLength="84" x="100" y="26.5332">FormElement</text><text fill="#000000" font-family="sans-serif" font-size="10" font-style="italic" lengthAdjust="spacingAndGlyphs" textLength="102" x="91" y="39.9902">org.apache.wiki.forms</text></a><!--MD5=[c573ed9ffa6160fe87b84992fad183e0]
reverse link org.apache.wiki.forms.FormElement to org.apache.wiki.forms.FormOutput--><path codeLine="11" d="M129,67.2749 C129,80.2714 129,94.475 129,106.7214 " fill="none" id="org.apache.wiki.forms.FormElement-backto-org.apache.wiki.forms.FormOutput" style="stroke: #A80036; stroke-width: 1.0;"/><polygon fill="none" points="122.0001,67.1013,129,47.1013,136.0001,67.1012,122.0001,67.1013" style="stroke: #A80036; stroke-width: 1.0;"/><text fill="#888888" font-family="sans-serif" font-size="10" lengthAdjust="spacingAndGlyphs" textLength="190" x="31" y="192.4043">UMLDoclet 2.0.12, PlantUML 1.2020.16</text><!--MD5=[120f851c9786eb940786709ea0c0a497]
@startuml
    set namespaceSeparator none
    hide empty fields
    hide empty methods

    class "<size:14>FormOutput\n<size:10>org.apache.wiki.forms" as org.apache.wiki.forms.FormOutput [[FormOutput.html]] {
        +execute(Context, Map<String, String>): String
    }

    abstract class "<size:14>FormElement\n<size:10>org.apache.wiki.forms" as org.apache.wiki.forms.FormElement [[FormElement.html]]

    org.apache.wiki.forms.FormElement <|- - org.apache.wiki.forms.FormOutput

    center footer UMLDoclet 2.0.12, PlantUML 1.2020.16
@enduml

PlantUML version 1.2020.16(Sun Aug 23 22:20:43 CEST 2020)
(APACHE source distribution)
Java Runtime: OpenJDK Runtime Environment
JVM: OpenJDK 64-Bit Server VM
Default Encoding: Cp1252
Language: es
Country: ES
--></g></svg>