<?xml version="1.0" encoding="UTF-8" standalone="no"?><svg xmlns="http://www.w3.org/2000/svg" xmlns:xlink="http://www.w3.org/1999/xlink" contentScriptType="application/ecmascript" contentStyleType="text/css" height="476px" preserveAspectRatio="none" style="width:253px;height:476px;" version="1.1" viewBox="0 0 253 476" width="253px" zoomAndPan="magnify"><defs><filter height="300%" id="f1rhdt4eocu2f0" width="300%" x="-1" y="-1"><feGaussianBlur result="blurOut" stdDeviation="2.0"/><feColorMatrix in="blurOut" result="blurOut2" type="matrix" values="0 0 0 0 0 0 0 0 0 0 0 0 0 0 0 0 0 0 .4 0"/><feOffset dx="4.0" dy="4.0" in="blurOut2" result="blurOut3"/><feBlend in="SourceGraphic" in2="blurOut3" mode="normal"/></filter></defs><g><!--MD5=[e192da31a341ed7ef922e26b04d8ff42]
class org.apache.wiki.forms.FormInfo--><a href="FormInfo.html" target="_top" title="FormInfo.html" xlink:actuate="onRequest" xlink:href="FormInfo.html" xlink:show="new" xlink:title="FormInfo.html" xlink:type="simple"><rect codeLine="5" fill="#FEFECE" filter="url(#f1rhdt4eocu2f0)" height="332.9063" id="org.apache.wiki.forms.FormInfo" style="stroke: #A80036; stroke-width: 1.5;" width="227" x="7" y="107"/><ellipse cx="65.25" cy="127.0938" fill="#ADD1B2" rx="11" ry="11" style="stroke: #A80036; stroke-width: 1.0;"/><path d="M68.0156,122.9688 Q68.1719,122.75 68.3594,122.6406 Q68.5469,122.5313 68.7656,122.5313 Q69.1406,122.5313 69.375,122.7969 Q69.6094,123.0469 69.6094,123.6563 L69.6094,125.1094 Q69.6094,125.7188 69.375,125.9844 Q69.1406,126.25 68.7656,126.25 Q68.4219,126.25 68.2188,126.0469 Q68.0156,125.8594 67.9063,125.3438 Q67.8594,124.9844 67.6719,124.7969 Q67.3438,124.4219 66.7344,124.2031 Q66.125,123.9844 65.5,123.9844 Q64.7344,123.9844 64.0938,124.3125 Q63.4688,124.6406 62.9688,125.3906 Q62.4844,126.1406 62.4844,127.1719 L62.4844,128.2656 Q62.4844,129.5 63.375,130.3281 Q64.2656,131.1406 65.8594,131.1406 Q66.7969,131.1406 67.4531,130.8906 Q67.8438,130.7344 68.2656,130.2969 Q68.5313,130.0313 68.6719,129.9531 Q68.8281,129.875 69.0313,129.875 Q69.3594,129.875 69.6094,130.1406 Q69.875,130.3906 69.875,130.7344 Q69.875,131.0781 69.5313,131.4844 Q69.0313,132.0625 68.2344,132.3906 Q67.1563,132.8438 65.8594,132.8438 Q64.3438,132.8438 63.1406,132.2188 Q62.1563,131.7188 61.4688,130.6563 Q60.7813,129.5781 60.7813,128.2969 L60.7813,127.1406 Q60.7813,125.8125 61.3906,124.6719 Q62.0156,123.5156 63.1094,122.9063 Q64.2031,122.2813 65.4375,122.2813 Q66.1719,122.2813 66.8125,122.4531 Q67.4688,122.6094 68.0156,122.9688 Z "/><text fill="#000000" font-family="sans-serif" font-size="14" lengthAdjust="spacingAndGlyphs" textLength="56" x="108.75" y="126.5332">FormInfo</text><text fill="#000000" font-family="sans-serif" font-size="10" lengthAdjust="spacingAndGlyphs" textLength="102" x="85.75" y="139.9902">org.apache.wiki.forms</text><line style="stroke: #A80036; stroke-width: 1.5;" x1="8" x2="233" y1="147.1875" y2="147.1875"/><ellipse cx="18" cy="158.1875" fill="none" rx="3" ry="3" style="stroke: #038048; stroke-width: 1.0;"/><text fill="#000000" font-family="sans-serif" font-size="11" lengthAdjust="spacingAndGlyphs" text-decoration="underline" textLength="69" x="27" y="162.6064">EXECUTED: int</text><ellipse cx="18" cy="172.0234" fill="none" rx="3" ry="3" style="stroke: #038048; stroke-width: 1.0;"/><text fill="#000000" font-family="sans-serif" font-size="11" lengthAdjust="spacingAndGlyphs" text-decoration="underline" textLength="32" x="27" y="176.4424">OK: int</text><ellipse cx="18" cy="185.8594" fill="none" rx="3" ry="3" style="stroke: #038048; stroke-width: 1.0;"/><text fill="#000000" font-family="sans-serif" font-size="11" lengthAdjust="spacingAndGlyphs" text-decoration="underline" textLength="52" x="27" y="190.2783">ERROR: int</text><line style="stroke: #A80036; stroke-width: 1.5;" x1="8" x2="233" y1="196.6953" y2="196.6953"/><ellipse cx="18" cy="207.6953" fill="#84BE84" rx="3" ry="3" style="stroke: #038048; stroke-width: 1.0;"/><text fill="#000000" font-family="sans-serif" font-size="11" lengthAdjust="spacingAndGlyphs" textLength="91" x="27" y="212.1143">setStatus(int): void</text><ellipse cx="18" cy="221.5313" fill="#84BE84" rx="3" ry="3" style="stroke: #038048; stroke-width: 1.0;"/><text fill="#000000" font-family="sans-serif" font-size="11" lengthAdjust="spacingAndGlyphs" textLength="71" x="27" y="225.9502">getStatus(): int</text><ellipse cx="18" cy="235.3672" fill="#84BE84" rx="3" ry="3" style="stroke: #038048; stroke-width: 1.0;"/><text fill="#000000" font-family="sans-serif" font-size="11" lengthAdjust="spacingAndGlyphs" textLength="108" x="27" y="239.7861">setHide(boolean): void</text><ellipse cx="18" cy="249.2031" fill="#84BE84" rx="3" ry="3" style="stroke: #038048; stroke-width: 1.0;"/><text fill="#000000" font-family="sans-serif" font-size="11" lengthAdjust="spacingAndGlyphs" textLength="72" x="27" y="253.6221">hide(): boolean</text><ellipse cx="18" cy="263.0391" fill="#84BE84" rx="3" ry="3" style="stroke: #038048; stroke-width: 1.0;"/><text fill="#000000" font-family="sans-serif" font-size="11" lengthAdjust="spacingAndGlyphs" textLength="108" x="27" y="267.458">setAction(String): void</text><ellipse cx="18" cy="276.875" fill="#84BE84" rx="3" ry="3" style="stroke: #038048; stroke-width: 1.0;"/><text fill="#000000" font-family="sans-serif" font-size="11" lengthAdjust="spacingAndGlyphs" textLength="88" x="27" y="281.2939">getAction(): String</text><ellipse cx="18" cy="290.7109" fill="#84BE84" rx="3" ry="3" style="stroke: #038048; stroke-width: 1.0;"/><text fill="#000000" font-family="sans-serif" font-size="11" lengthAdjust="spacingAndGlyphs" textLength="104" x="27" y="295.1299">setName(String): void</text><ellipse cx="18" cy="304.5469" fill="#84BE84" rx="3" ry="3" style="stroke: #038048; stroke-width: 1.0;"/><text fill="#000000" font-family="sans-serif" font-size="11" lengthAdjust="spacingAndGlyphs" textLength="84" x="27" y="308.9658">getName(): String</text><ellipse cx="18" cy="318.3828" fill="#84BE84" rx="3" ry="3" style="stroke: #038048; stroke-width: 1.0;"/><text fill="#000000" font-family="sans-serif" font-size="11" lengthAdjust="spacingAndGlyphs" textLength="114" x="27" y="322.8018">setHandler(String): void</text><ellipse cx="18" cy="332.2188" fill="#84BE84" rx="3" ry="3" style="stroke: #038048; stroke-width: 1.0;"/><text fill="#000000" font-family="sans-serif" font-size="11" lengthAdjust="spacingAndGlyphs" textLength="94" x="27" y="336.6377">getHandler(): String</text><ellipse cx="18" cy="346.0547" fill="#84BE84" rx="3" ry="3" style="stroke: #038048; stroke-width: 1.0;"/><text fill="#000000" font-family="sans-serif" font-size="11" lengthAdjust="spacingAndGlyphs" textLength="107" x="27" y="350.4736">setResult(String): void</text><ellipse cx="18" cy="359.8906" fill="#84BE84" rx="3" ry="3" style="stroke: #038048; stroke-width: 1.0;"/><text fill="#000000" font-family="sans-serif" font-size="11" lengthAdjust="spacingAndGlyphs" textLength="87" x="27" y="364.3096">getResult(): String</text><ellipse cx="18" cy="373.7266" fill="#84BE84" rx="3" ry="3" style="stroke: #038048; stroke-width: 1.0;"/><text fill="#000000" font-family="sans-serif" font-size="11" lengthAdjust="spacingAndGlyphs" textLength="101" x="27" y="378.1455">setError(String): void</text><ellipse cx="18" cy="387.5625" fill="#84BE84" rx="3" ry="3" style="stroke: #038048; stroke-width: 1.0;"/><text fill="#000000" font-family="sans-serif" font-size="11" lengthAdjust="spacingAndGlyphs" textLength="81" x="27" y="391.9814">getError(): String</text><ellipse cx="18" cy="401.3984" fill="#84BE84" rx="3" ry="3" style="stroke: #038048; stroke-width: 1.0;"/><text fill="#000000" font-family="sans-serif" font-size="11" lengthAdjust="spacingAndGlyphs" textLength="198" x="27" y="405.8174">setSubmission(Map&lt;String, String&gt;): void</text><ellipse cx="18" cy="415.2344" fill="#84BE84" rx="3" ry="3" style="stroke: #038048; stroke-width: 1.0;"/><text fill="#000000" font-family="sans-serif" font-size="11" lengthAdjust="spacingAndGlyphs" textLength="201" x="27" y="419.6533">addSubmission(Map&lt;String, String&gt;): void</text><ellipse cx="18" cy="429.0703" fill="#84BE84" rx="3" ry="3" style="stroke: #038048; stroke-width: 1.0;"/><text fill="#000000" font-family="sans-serif" font-size="11" lengthAdjust="spacingAndGlyphs" textLength="178" x="27" y="433.4893">getSubmission(): Map&lt;String, String&gt;</text></a><!--MD5=[5a5af9b0547913863cbe0ddf55a9ab5e]
class java.io.Serializable--><rect codeLine="28" fill="#FEFECE" filter="url(#f1rhdt4eocu2f0)" height="40.1875" id="java.io.Serializable" style="stroke: #A80036; stroke-width: 1.5;" width="105" x="68" y="7"/><ellipse cx="83" cy="27.0938" fill="#B4A7E5" rx="11" ry="11" style="stroke: #A80036; stroke-width: 1.0;"/><path d="M83.9531,23.7344 L83.9531,30.3906 L85.6719,30.3906 Q86.2813,30.3906 86.5469,30.625 Q86.8125,30.8594 86.8125,31.25 Q86.8125,31.625 86.5469,31.8594 Q86.2813,32.0938 85.6719,32.0938 L80.5313,32.0938 Q79.9219,32.0938 79.6563,31.8594 Q79.3906,31.625 79.3906,31.2344 Q79.3906,30.8594 79.6563,30.625 Q79.9219,30.3906 80.5313,30.3906 L82.25,30.3906 L82.25,23.7344 L80.5313,23.7344 Q79.9219,23.7344 79.6563,23.5 Q79.3906,23.2656 79.3906,22.875 Q79.3906,22.5 79.6563,22.2656 Q79.9219,22.0313 80.5313,22.0313 L85.6719,22.0313 Q86.2813,22.0313 86.5469,22.2656 Q86.8125,22.5 86.8125,22.875 Q86.8125,23.2656 86.5469,23.5 Q86.2813,23.7344 85.6719,23.7344 L83.9531,23.7344 Z "/><text fill="#000000" font-family="sans-serif" font-size="14" font-style="italic" lengthAdjust="spacingAndGlyphs" textLength="73" x="97" y="26.5332">Serializable</text><text fill="#000000" font-family="sans-serif" font-size="10" font-style="italic" lengthAdjust="spacingAndGlyphs" textLength="31" x="118" y="39.9902">java.io</text><!--MD5=[8f181c2b70317dadc4e8988b3ded06db]
reverse link java.io.Serializable to org.apache.wiki.forms.FormInfo--><path codeLine="30" d="M120.5,67.5425 C120.5,79.1274 120.5,92.5225 120.5,106.8107 " fill="none" id="java.io.Serializable-backto-org.apache.wiki.forms.FormInfo" style="stroke: #A80036; stroke-width: 1.0; stroke-dasharray: 7.0,7.0;"/><polygon fill="none" points="113.5001,67.1722,120.5,47.1721,127.5001,67.1721,113.5001,67.1722" style="stroke: #A80036; stroke-width: 1.0;"/><text fill="#888888" font-family="sans-serif" font-size="10" lengthAdjust="spacingAndGlyphs" textLength="190" x="22.5" y="463.2871">UMLDoclet 2.0.12, PlantUML 1.2020.16</text><!--MD5=[01f7a23b71365c85d0b31ef7f7e0e942]
@startuml
    set namespaceSeparator none
    hide empty fields
    hide empty methods

    class "<size:14>FormInfo\n<size:10>org.apache.wiki.forms" as org.apache.wiki.forms.FormInfo [[FormInfo.html]] {
        {static} +EXECUTED: int
        {static} +OK: int
        {static} +ERROR: int
        +setStatus(int): void
        +getStatus(): int
        +setHide(boolean): void
        +hide(): boolean
        +setAction(String): void
        +getAction(): String
        +setName(String): void
        +getName(): String
        +setHandler(String): void
        +getHandler(): String
        +setResult(String): void
        +getResult(): String
        +setError(String): void
        +getError(): String
        +setSubmission(Map<String, String>): void
        +addSubmission(Map<String, String>): void
        +getSubmission(): Map<String, String>
    }

    interface "<size:14>Serializable\n<size:10>java.io" as java.io.Serializable

    java.io.Serializable <|.. org.apache.wiki.forms.FormInfo

    center footer UMLDoclet 2.0.12, PlantUML 1.2020.16
@enduml

PlantUML version 1.2020.16(Sun Aug 23 22:20:43 CEST 2020)
(APACHE source distribution)
Java Runtime: OpenJDK Runtime Environment
JVM: OpenJDK 64-Bit Server VM
Default Encoding: Cp1252
Language: es
Country: ES
--></g></svg>