<?xml version="1.0" encoding="UTF-8" standalone="no"?><svg xmlns="http://www.w3.org/2000/svg" xmlns:xlink="http://www.w3.org/1999/xlink" contentScriptType="application/ecmascript" contentStyleType="text/css" height="317px" preserveAspectRatio="none" style="width:199px;height:317px;background:#FFFFFF;" version="1.1" viewBox="0 0 199 317" width="199px" zoomAndPan="magnify"><defs><filter height="300%" id="f4dt7pmcighbo" width="300%" x="-1" y="-1"><feGaussianBlur result="blurOut" stdDeviation="2.0"/><feColorMatrix in="blurOut" result="blurOut2" type="matrix" values="0 0 0 0 0 0 0 0 0 0 0 0 0 0 0 0 0 0 .4 0"/><feOffset dx="4.0" dy="4.0" in="blurOut2" result="blurOut3"/><feBlend in="SourceGraphic" in2="blurOut3" mode="normal"/></filter></defs><g><!--MD5=[c0c46f76a1ff4c5fb3c03245ab803dec]
class org.apache.wiki.tags.SetPaginationTag--><a href="SetPaginationTag.html" target="_top" title="SetPaginationTag.html" xlink:actuate="onRequest" xlink:href="SetPaginationTag.html" xlink:show="new" xlink:title="SetPaginationTag.html" xlink:type="simple"><rect codeLine="5" fill="#FEFECE" filter="url(#f4dt7pmcighbo)" height="161.1797" id="org.apache.wiki.tags.SetPaginationTag" style="stroke:#A80036;stroke-width:1.5;" width="157" x="20.5" y="126"/><ellipse cx="37.3" cy="144.9688" fill="#ADD1B2" rx="11" ry="11" style="stroke:#A80036;stroke-width:1.0;"/><path d="M40.2688,150.6094 Q39.6906,150.9063 39.05,151.0469 Q38.4094,151.2031 37.7063,151.2031 Q35.2063,151.2031 33.8781,149.5625 Q32.5656,147.9063 32.5656,144.7813 Q32.5656,141.6563 33.8781,140 Q35.2063,138.3438 37.7063,138.3438 Q38.4094,138.3438 39.05,138.5 Q39.7063,138.6563 40.2688,138.9531 L40.2688,141.6719 Q39.6438,141.0938 39.05,140.8281 Q38.4563,140.5469 37.8313,140.5469 Q36.4875,140.5469 35.8,141.625 Q35.1125,142.6875 35.1125,144.7813 Q35.1125,146.875 35.8,147.9531 Q36.4875,149.0156 37.8313,149.0156 Q38.4563,149.0156 39.05,148.75 Q39.6438,148.4688 40.2688,147.8906 L40.2688,150.6094 Z " fill="#000000"/><text fill="#000000" font-family="sans-serif" font-size="14" lengthAdjust="spacing" textLength="121" x="51.7" y="143.9951">SetPaginationTag</text><text fill="#000000" font-family="sans-serif" font-size="10" lengthAdjust="spacing" textLength="98" x="63.2" y="156.5791">org.apache.wiki.tags</text><line style="stroke:#A80036;stroke-width:1.5;" x1="21.5" x2="176.5" y1="163.9375" y2="163.9375"/><ellipse cx="31.5" cy="174.9375" fill="#84BE84" rx="3" ry="3" style="stroke:#038048;stroke-width:1.0;"/><text fill="#000000" font-family="sans-serif" font-size="11" lengthAdjust="spacing" textLength="77" x="40.5" y="178.1479">initTag(): void</text><ellipse cx="31.5" cy="187.7422" fill="#84BE84" rx="3" ry="3" style="stroke:#038048;stroke-width:1.0;"/><text fill="#000000" font-family="sans-serif" font-size="11" lengthAdjust="spacing" textLength="99" x="40.5" y="190.9526">setStart(int): void</text><ellipse cx="31.5" cy="200.5469" fill="#84BE84" rx="3" ry="3" style="stroke:#038048;stroke-width:1.0;"/><text fill="#000000" font-family="sans-serif" font-size="11" lengthAdjust="spacing" textLength="99" x="40.5" y="203.7573">setTotal(int): void</text><ellipse cx="31.5" cy="213.3516" fill="#84BE84" rx="3" ry="3" style="stroke:#038048;stroke-width:1.0;"/><text fill="#000000" font-family="sans-serif" font-size="11" lengthAdjust="spacing" textLength="121" x="40.5" y="216.562">setPagesize(int): void</text><ellipse cx="31.5" cy="226.1563" fill="#84BE84" rx="3" ry="3" style="stroke:#038048;stroke-width:1.0;"/><text fill="#000000" font-family="sans-serif" font-size="11" lengthAdjust="spacing" textLength="119" x="40.5" y="229.3667">setMaxlinks(int): void</text><ellipse cx="31.5" cy="238.9609" fill="#84BE84" rx="3" ry="3" style="stroke:#038048;stroke-width:1.0;"/><text fill="#000000" font-family="sans-serif" font-size="11" lengthAdjust="spacing" textLength="131" x="40.5" y="242.1714">setFmtkey(String): void</text><ellipse cx="31.5" cy="251.7656" fill="#84BE84" rx="3" ry="3" style="stroke:#038048;stroke-width:1.0;"/><text fill="#000000" font-family="sans-serif" font-size="11" lengthAdjust="spacing" textLength="115" x="40.5" y="254.9761">setHref(String): void</text><ellipse cx="31.5" cy="264.5703" fill="#84BE84" rx="3" ry="3" style="stroke:#038048;stroke-width:1.0;"/><text fill="#000000" font-family="sans-serif" font-size="11" lengthAdjust="spacing" textLength="131" x="40.5" y="267.7808">setOnclick(String): void</text><ellipse cx="31.5" cy="277.375" fill="#84BE84" rx="3" ry="3" style="stroke:#038048;stroke-width:1.0;"/><text fill="#000000" font-family="sans-serif" font-size="11" lengthAdjust="spacing" textLength="114" x="40.5" y="280.5854">doWikiStartTag(): int</text></a><!--MD5=[0148d16490ea9d40379f79f2f3eafb9d]
class org.apache.wiki.tags.WikiTagBase--><a href="WikiTagBase.html" target="_top" title="WikiTagBase.html" xlink:actuate="onRequest" xlink:href="WikiTagBase.html" xlink:show="new" xlink:title="WikiTagBase.html" xlink:type="simple"><rect codeLine="17" fill="#FEFECE" filter="url(#f4dt7pmcighbo)" height="58.7422" id="org.apache.wiki.tags.WikiTagBase" style="stroke:#A80036;stroke-width:1.5;" width="141" x="28.5" y="7"/><ellipse cx="46.65" cy="25.9688" fill="#A9DCDF" rx="11" ry="11" style="stroke:#A80036;stroke-width:1.0;"/><path d="M46.7594,21.3125 L45.6031,26.3906 L47.9313,26.3906 L46.7594,21.3125 Z M45.275,19.0781 L48.2594,19.0781 L51.6188,31.4688 L49.1656,31.4688 L48.4,28.4063 L45.1188,28.4063 L44.3688,31.4688 L41.9313,31.4688 L45.275,19.0781 Z " fill="#000000"/><text fill="#000000" font-family="sans-serif" font-size="14" font-style="italic" lengthAdjust="spacing" textLength="88" x="68.35" y="24.9951">WikiTagBase</text><text fill="#000000" font-family="sans-serif" font-size="10" font-style="italic" lengthAdjust="spacing" textLength="102" x="61.35" y="37.5791">org.apache.wiki.tags</text><line style="stroke:#A80036;stroke-width:1.5;" x1="29.5" x2="168.5" y1="44.9375" y2="44.9375"/><ellipse cx="39.5" cy="55.9375" fill="#84BE84" rx="3" ry="3" style="stroke:#038048;stroke-width:1.0;"/><text fill="#000000" font-family="sans-serif" font-size="11" font-style="italic" lengthAdjust="spacing" textLength="115" x="48.5" y="59.1479">doWikiStartTag(): int</text></a><!--MD5=[d4fc8a95eacb0a80d31f824b5ff385e9]
reverse link org.apache.wiki.tags.WikiTagBase to org.apache.wiki.tags.SetPaginationTag--><path codeLine="21" d="M99,86.2147 C99,98.6239 99,112.2531 99,125.7396 " fill="none" id="org.apache.wiki.tags.WikiTagBase-backto-org.apache.wiki.tags.SetPaginationTag" style="stroke:#A80036;stroke-width:1.0;"/><polygon fill="none" points="92.0001,86.1118,99,66.1117,106.0001,86.1117,92.0001,86.1118" style="stroke:#A80036;stroke-width:1.0;"/><text fill="#888888" font-family="sans-serif" font-size="10" lengthAdjust="spacing" textLength="192" x="0" y="309.4619">UMLDoclet 2.0.15, PlantUML 1.2021.13</text><!--MD5=[3467174ea5799319968241a7de79f1e3]
@startuml
    set namespaceSeparator none
    hide empty fields
    hide empty methods

    class "<size:14>SetPaginationTag\n<size:10>org.apache.wiki.tags" as org.apache.wiki.tags.SetPaginationTag [[SetPaginationTag.html]] {
        +initTag(): void
        +setStart(int): void
        +setTotal(int): void
        +setPagesize(int): void
        +setMaxlinks(int): void
        +setFmtkey(String): void
        +setHref(String): void
        +setOnclick(String): void
        +doWikiStartTag(): int
    }

    abstract class "<size:14>WikiTagBase\n<size:10>org.apache.wiki.tags" as org.apache.wiki.tags.WikiTagBase [[WikiTagBase.html]] {
        {abstract} +doWikiStartTag(): int
    }

    org.apache.wiki.tags.WikiTagBase <|- - org.apache.wiki.tags.SetPaginationTag

    center footer UMLDoclet 2.0.15, PlantUML 1.2021.13
@enduml

PlantUML version 1.2021.13(Mon Nov 01 11:38:45 UTC 2021)
(APACHE source distribution)
Java Runtime: Java(TM) SE Runtime Environment
JVM: Java HotSpot(TM) 64-Bit Server VM
Default Encoding: ISO-8859-1
Language: en
Country: US
--></g></svg>