<?xml version="1.0" encoding="UTF-8" standalone="no"?><svg xmlns="http://www.w3.org/2000/svg" xmlns:xlink="http://www.w3.org/1999/xlink" contentScriptType="application/ecmascript" contentStyleType="text/css" height="861px" preserveAspectRatio="none" style="width:1150px;height:861px;background:#FFFFFF;" version="1.1" viewBox="0 0 1150 861" width="1150px" zoomAndPan="magnify"><defs><filter height="300%" id="f3sucq0yu7kuz" width="300%" x="-1" y="-1"><feGaussianBlur result="blurOut" stdDeviation="2.0"/><feColorMatrix in="blurOut" result="blurOut2" type="matrix" values="0 0 0 0 0 0 0 0 0 0 0 0 0 0 0 0 0 0 .4 0"/><feOffset dx="4.0" dy="4.0" in="blurOut2" result="blurOut3"/><feBlend in="SourceGraphic" in2="blurOut3" mode="normal"/></filter></defs><g><!--MD5=[cefb3735973571d833b3829747bdbe52]
cluster org.apache.wiki.rss--><polygon fill="#FFFFFF" filter="url(#f3sucq0yu7kuz)" points="16,133,177,133,184,155.2969,1133,155.2969,1133,838,16,838,16,133" style="stroke:#000000;stroke-width:1.5;"/><line style="stroke:#000000;stroke-width:1.5;" x1="16" x2="184" y1="155.2969" y2="155.2969"/><text fill="#000000" font-family="sans-serif" font-size="14" font-weight="bold" lengthAdjust="spacing" textLength="155" x="20" y="147.9951">org.apache.wiki.rss</text><!--MD5=[0efc58285ba131b623584699d07d72ab]
cluster org.apache.wiki--><polygon fill="#FFFFFF" filter="url(#f3sucq0yu7kuz)" points="34,6,165,6,172,28.2969,226,28.2969,226,102,34,102,34,6" style="stroke:#000000;stroke-width:1.5;"/><line style="stroke:#000000;stroke-width:1.5;" x1="34" x2="172" y1="28.2969" y2="28.2969"/><text fill="#000000" font-family="sans-serif" font-size="14" font-weight="bold" lengthAdjust="spacing" textLength="125" x="38" y="20.9951">org.apache.wiki</text><!--MD5=[06e4b2620a8b168056b961578cd367b2]
cluster org.apache.wiki.api.engine--><polygon fill="#FFFFFF" filter="url(#f3sucq0yu7kuz)" points="831,6,1049,6,1056,28.2969,1063,28.2969,1063,102,831,102,831,6" style="stroke:#000000;stroke-width:1.5;"/><line style="stroke:#000000;stroke-width:1.5;" x1="831" x2="1056" y1="28.2969" y2="28.2969"/><text fill="#000000" font-family="sans-serif" font-size="14" font-weight="bold" lengthAdjust="spacing" textLength="212" x="835" y="20.9951">org.apache.wiki.api.engine</text><!--MD5=[84cc67b1895f981e035e94563bf6fa31]
class org.apache.wiki.rss.DefaultRSSGenerator--><a href="DefaultRSSGenerator.html" target="_top" title="DefaultRSSGenerator.html" xlink:actuate="onRequest" xlink:href="DefaultRSSGenerator.html" xlink:show="new" xlink:title="DefaultRSSGenerator.html" xlink:type="simple"><rect codeLine="3" fill="#FEFECE" filter="url(#f3sucq0yu7kuz)" height="176.0469" id="org.apache.wiki.rss.DefaultRSSGenerator" style="stroke:#A80036;stroke-width:1.5;" width="355" x="769.5" y="654"/><ellipse cx="876.25" cy="670" fill="#ADD1B2" rx="11" ry="11" style="stroke:#A80036;stroke-width:1.0;"/><path d="M879.2188,675.6406 Q878.6406,675.9375 878,676.0781 Q877.3594,676.2344 876.6563,676.2344 Q874.1563,676.2344 872.8281,674.5938 Q871.5156,672.9375 871.5156,669.8125 Q871.5156,666.6875 872.8281,665.0313 Q874.1563,663.375 876.6563,663.375 Q877.3594,663.375 878,663.5313 Q878.6563,663.6875 879.2188,663.9844 L879.2188,666.7031 Q878.5938,666.125 878,665.8594 Q877.4063,665.5781 876.7813,665.5781 Q875.4375,665.5781 874.75,666.6563 Q874.0625,667.7188 874.0625,669.8125 Q874.0625,671.9063 874.75,672.9844 Q875.4375,674.0469 876.7813,674.0469 Q877.4063,674.0469 878,673.7813 Q878.5938,673.5 879.2188,672.9219 L879.2188,675.6406 Z " fill="#000000"/><text fill="#000000" font-family="sans-serif" font-size="12" lengthAdjust="spacing" textLength="133" x="896.75" y="674.1543">DefaultRSSGenerator</text><line style="stroke:#A80036;stroke-width:1.5;" x1="770.5" x2="1123.5" y1="686" y2="686"/><line style="stroke:#A80036;stroke-width:1.5;" x1="770.5" x2="1123.5" y1="694" y2="694"/><ellipse cx="780.5" cy="705" fill="#84BE84" rx="3" ry="3" style="stroke:#038048;stroke-width:1.0;"/><text fill="#000000" font-family="sans-serif" font-size="11" lengthAdjust="spacing" textLength="234" x="789.5" y="708.2104">DefaultRSSGenerator(Engine, Properties)</text><ellipse cx="780.5" cy="717.8047" fill="#84BE84" rx="3" ry="3" style="stroke:#038048;stroke-width:1.0;"/><text fill="#000000" font-family="sans-serif" font-size="11" lengthAdjust="spacing" textLength="189" x="789.5" y="721.0151">initialize(Engine, Properties): void</text><ellipse cx="780.5" cy="730.6094" fill="#84BE84" rx="3" ry="3" style="stroke:#038048;stroke-width:1.0;"/><text fill="#000000" font-family="sans-serif" font-size="11" lengthAdjust="spacing" textLength="101" x="789.5" y="733.8198">generate(): String</text><ellipse cx="780.5" cy="743.4141" fill="#84BE84" rx="3" ry="3" style="stroke:#038048;stroke-width:1.0;"/><text fill="#000000" font-family="sans-serif" font-size="11" lengthAdjust="spacing" textLength="329" x="789.5" y="746.6245">generateFeed(Context, List&lt;Page&gt;, String, String): String</text><ellipse cx="780.5" cy="756.2188" fill="#84BE84" rx="3" ry="3" style="stroke:#038048;stroke-width:1.0;"/><text fill="#000000" font-family="sans-serif" font-size="11" lengthAdjust="spacing" textLength="116" x="789.5" y="759.4292">isEnabled(): boolean</text><ellipse cx="780.5" cy="769.0234" fill="#84BE84" rx="3" ry="3" style="stroke:#038048;stroke-width:1.0;"/><text fill="#000000" font-family="sans-serif" font-size="11" lengthAdjust="spacing" textLength="147" x="789.5" y="772.2339">setEnabled(boolean): void</text><ellipse cx="780.5" cy="781.8281" fill="#84BE84" rx="3" ry="3" style="stroke:#038048;stroke-width:1.0;"/><text fill="#000000" font-family="sans-serif" font-size="11" lengthAdjust="spacing" textLength="108" x="789.5" y="785.0386">getRssFile(): String</text><ellipse cx="780.5" cy="794.6328" fill="#84BE84" rx="3" ry="3" style="stroke:#038048;stroke-width:1.0;"/><text fill="#000000" font-family="sans-serif" font-size="11" lengthAdjust="spacing" textLength="242" x="789.5" y="797.8433">generateFullWikiRSS(Context, Feed): String</text><ellipse cx="780.5" cy="807.4375" fill="#84BE84" rx="3" ry="3" style="stroke:#038048;stroke-width:1.0;"/><text fill="#000000" font-family="sans-serif" font-size="11" lengthAdjust="spacing" textLength="325" x="789.5" y="810.6479">generateWikiPageRSS(Context, List&lt;Page&gt;, Feed): String</text><ellipse cx="780.5" cy="820.2422" fill="#84BE84" rx="3" ry="3" style="stroke:#038048;stroke-width:1.0;"/><text fill="#000000" font-family="sans-serif" font-size="11" lengthAdjust="spacing" textLength="301" x="789.5" y="823.4526">generateBlogRSS(Context, List&lt;Page&gt;, Feed): String</text></a><!--MD5=[dabbab17409e2d3abae6376238320a84]
class org.apache.wiki.rss.AtomFeed--><a href="AtomFeed.html" target="_top" title="AtomFeed.html" xlink:actuate="onRequest" xlink:href="AtomFeed.html" xlink:show="new" xlink:title="AtomFeed.html" xlink:type="simple"><rect codeLine="16" fill="#FEFECE" filter="url(#f3sucq0yu7kuz)" height="86.4141" id="org.apache.wiki.rss.AtomFeed" style="stroke:#A80036;stroke-width:1.5;" width="162" x="24" y="699"/><ellipse cx="69.25" cy="715" fill="#ADD1B2" rx="11" ry="11" style="stroke:#A80036;stroke-width:1.0;"/><path d="M72.2188,720.6406 Q71.6406,720.9375 71,721.0781 Q70.3594,721.2344 69.6563,721.2344 Q67.1563,721.2344 65.8281,719.5938 Q64.5156,717.9375 64.5156,714.8125 Q64.5156,711.6875 65.8281,710.0313 Q67.1563,708.375 69.6563,708.375 Q70.3594,708.375 71,708.5313 Q71.6563,708.6875 72.2188,708.9844 L72.2188,711.7031 Q71.5938,711.125 71,710.8594 Q70.4063,710.5781 69.7813,710.5781 Q68.4375,710.5781 67.75,711.6563 Q67.0625,712.7188 67.0625,714.8125 Q67.0625,716.9063 67.75,717.9844 Q68.4375,719.0469 69.7813,719.0469 Q70.4063,719.0469 71,718.7813 Q71.5938,718.5 72.2188,717.9219 L72.2188,720.6406 Z " fill="#000000"/><text fill="#000000" font-family="sans-serif" font-size="12" lengthAdjust="spacing" textLength="63" x="89.75" y="719.1543">AtomFeed</text><line style="stroke:#A80036;stroke-width:1.5;" x1="25" x2="185" y1="731" y2="731"/><ellipse cx="35" cy="742" rx="3" ry="3" style="stroke:#038048;stroke-width:1.0;fill:none;"/><text fill="#000000" font-family="sans-serif" font-size="11" lengthAdjust="spacing" text-decoration="underline" textLength="136" x="44" y="745.2104">RFC3339FORMAT: String</text><line style="stroke:#A80036;stroke-width:1.5;" x1="25" x2="185" y1="751.8047" y2="751.8047"/><ellipse cx="35" cy="762.8047" fill="#84BE84" rx="3" ry="3" style="stroke:#038048;stroke-width:1.0;"/><text fill="#000000" font-family="sans-serif" font-size="11" lengthAdjust="spacing" textLength="107" x="44" y="766.0151">AtomFeed(Context)</text><ellipse cx="35" cy="775.6094" fill="#84BE84" rx="3" ry="3" style="stroke:#038048;stroke-width:1.0;"/><text fill="#000000" font-family="sans-serif" font-size="11" lengthAdjust="spacing" textLength="102" x="44" y="778.8198">getString(): String</text></a><!--MD5=[7d5fbccfcb062bdf576b52c940899d16]
class org.apache.wiki.rss.Entry--><a href="Entry.html" target="_top" title="Entry.html" xlink:actuate="onRequest" xlink:href="Entry.html" xlink:show="new" xlink:title="Entry.html" xlink:type="simple"><rect codeLine="22" fill="#FEFECE" filter="url(#f3sucq0yu7kuz)" height="176.0469" id="org.apache.wiki.rss.Entry" style="stroke:#A80036;stroke-width:1.5;" width="161" x="221.5" y="654"/><ellipse cx="281.75" cy="670" fill="#ADD1B2" rx="11" ry="11" style="stroke:#A80036;stroke-width:1.0;"/><path d="M284.7188,675.6406 Q284.1406,675.9375 283.5,676.0781 Q282.8594,676.2344 282.1563,676.2344 Q279.6563,676.2344 278.3281,674.5938 Q277.0156,672.9375 277.0156,669.8125 Q277.0156,666.6875 278.3281,665.0313 Q279.6563,663.375 282.1563,663.375 Q282.8594,663.375 283.5,663.5313 Q284.1563,663.6875 284.7188,663.9844 L284.7188,666.7031 Q284.0938,666.125 283.5,665.8594 Q282.9063,665.5781 282.2813,665.5781 Q280.9375,665.5781 280.25,666.6563 Q279.5625,667.7188 279.5625,669.8125 Q279.5625,671.9063 280.25,672.9844 Q280.9375,674.0469 282.2813,674.0469 Q282.9063,674.0469 283.5,673.7813 Q284.0938,673.5 284.7188,672.9219 L284.7188,675.6406 Z " fill="#000000"/><text fill="#000000" font-family="sans-serif" font-size="12" lengthAdjust="spacing" textLength="32" x="302.25" y="674.1543">Entry</text><line style="stroke:#A80036;stroke-width:1.5;" x1="222.5" x2="381.5" y1="686" y2="686"/><line style="stroke:#A80036;stroke-width:1.5;" x1="222.5" x2="381.5" y1="694" y2="694"/><ellipse cx="232.5" cy="705" fill="#84BE84" rx="3" ry="3" style="stroke:#038048;stroke-width:1.0;"/><text fill="#000000" font-family="sans-serif" font-size="11" lengthAdjust="spacing" textLength="128" x="241.5" y="708.2104">setAuthor(String): void</text><ellipse cx="232.5" cy="717.8047" fill="#84BE84" rx="3" ry="3" style="stroke:#038048;stroke-width:1.0;"/><text fill="#000000" font-family="sans-serif" font-size="11" lengthAdjust="spacing" textLength="105" x="241.5" y="721.0151">getAuthor(): String</text><ellipse cx="232.5" cy="730.6094" fill="#84BE84" rx="3" ry="3" style="stroke:#038048;stroke-width:1.0;"/><text fill="#000000" font-family="sans-serif" font-size="11" lengthAdjust="spacing" textLength="90" x="241.5" y="733.8198">getPage(): Page</text><ellipse cx="232.5" cy="743.4141" fill="#84BE84" rx="3" ry="3" style="stroke:#038048;stroke-width:1.0;"/><text fill="#000000" font-family="sans-serif" font-size="11" lengthAdjust="spacing" textLength="113" x="241.5" y="746.6245">setPage(Page): void</text><ellipse cx="232.5" cy="756.2188" fill="#84BE84" rx="3" ry="3" style="stroke:#038048;stroke-width:1.0;"/><text fill="#000000" font-family="sans-serif" font-size="11" lengthAdjust="spacing" textLength="115" x="241.5" y="759.4292">setTitle(String): void</text><ellipse cx="232.5" cy="769.0234" fill="#84BE84" rx="3" ry="3" style="stroke:#038048;stroke-width:1.0;"/><text fill="#000000" font-family="sans-serif" font-size="11" lengthAdjust="spacing" textLength="92" x="241.5" y="772.2339">getTitle(): String</text><ellipse cx="232.5" cy="781.8281" fill="#84BE84" rx="3" ry="3" style="stroke:#038048;stroke-width:1.0;"/><text fill="#000000" font-family="sans-serif" font-size="11" lengthAdjust="spacing" textLength="112" x="241.5" y="785.0386">setURL(String): void</text><ellipse cx="232.5" cy="794.6328" fill="#84BE84" rx="3" ry="3" style="stroke:#038048;stroke-width:1.0;"/><text fill="#000000" font-family="sans-serif" font-size="11" lengthAdjust="spacing" textLength="89" x="241.5" y="797.8433">getURL(): String</text><ellipse cx="232.5" cy="807.4375" fill="#84BE84" rx="3" ry="3" style="stroke:#038048;stroke-width:1.0;"/><text fill="#000000" font-family="sans-serif" font-size="11" lengthAdjust="spacing" textLength="135" x="241.5" y="810.6479">setContent(String): void</text><ellipse cx="232.5" cy="820.2422" fill="#84BE84" rx="3" ry="3" style="stroke:#038048;stroke-width:1.0;"/><text fill="#000000" font-family="sans-serif" font-size="11" lengthAdjust="spacing" textLength="112" x="241.5" y="823.4526">getContent(): String</text></a><!--MD5=[d45d98c0f0db0aef2e9fd1bec61bf95e]
class org.apache.wiki.rss.RSS20Feed--><a href="RSS20Feed.html" target="_top" title="RSS20Feed.html" xlink:actuate="onRequest" xlink:href="RSS20Feed.html" xlink:show="new" xlink:title="RSS20Feed.html" xlink:type="simple"><rect codeLine="35" fill="#FEFECE" filter="url(#f3sucq0yu7kuz)" height="73.6094" id="org.apache.wiki.rss.RSS20Feed" style="stroke:#A80036;stroke-width:1.5;" width="141" x="417.5" y="705"/><ellipse cx="449.6" cy="721" fill="#ADD1B2" rx="11" ry="11" style="stroke:#A80036;stroke-width:1.0;"/><path d="M452.5688,726.6406 Q451.9906,726.9375 451.35,727.0781 Q450.7094,727.2344 450.0063,727.2344 Q447.5063,727.2344 446.1781,725.5938 Q444.8656,723.9375 444.8656,720.8125 Q444.8656,717.6875 446.1781,716.0313 Q447.5063,714.375 450.0063,714.375 Q450.7094,714.375 451.35,714.5313 Q452.0063,714.6875 452.5688,714.9844 L452.5688,717.7031 Q451.9438,717.125 451.35,716.8594 Q450.7563,716.5781 450.1313,716.5781 Q448.7875,716.5781 448.1,717.6563 Q447.4125,718.7188 447.4125,720.8125 Q447.4125,722.9063 448.1,723.9844 Q448.7875,725.0469 450.1313,725.0469 Q450.7563,725.0469 451.35,724.7813 Q451.9438,724.5 452.5688,723.9219 L452.5688,726.6406 Z " fill="#000000"/><text fill="#000000" font-family="sans-serif" font-size="12" lengthAdjust="spacing" textLength="71" x="467.4" y="725.1543">RSS20Feed</text><line style="stroke:#A80036;stroke-width:1.5;" x1="418.5" x2="557.5" y1="737" y2="737"/><line style="stroke:#A80036;stroke-width:1.5;" x1="418.5" x2="557.5" y1="745" y2="745"/><ellipse cx="428.5" cy="756" fill="#84BE84" rx="3" ry="3" style="stroke:#038048;stroke-width:1.0;"/><text fill="#000000" font-family="sans-serif" font-size="11" lengthAdjust="spacing" textLength="115" x="437.5" y="759.2104">RSS20Feed(Context)</text><ellipse cx="428.5" cy="768.8047" fill="#84BE84" rx="3" ry="3" style="stroke:#038048;stroke-width:1.0;"/><text fill="#000000" font-family="sans-serif" font-size="11" lengthAdjust="spacing" textLength="102" x="437.5" y="772.0151">getString(): String</text></a><!--MD5=[31504a94879cf9d7139415fdc0fbf03c]
class org.apache.wiki.rss.RSS10Feed--><a href="RSS10Feed.html" target="_top" title="RSS10Feed.html" xlink:actuate="onRequest" xlink:href="RSS10Feed.html" xlink:show="new" xlink:title="RSS10Feed.html" xlink:type="simple"><rect codeLine="40" fill="#FEFECE" filter="url(#f3sucq0yu7kuz)" height="73.6094" id="org.apache.wiki.rss.RSS10Feed" style="stroke:#A80036;stroke-width:1.5;" width="141" x="593.5" y="705"/><ellipse cx="625.6" cy="721" fill="#ADD1B2" rx="11" ry="11" style="stroke:#A80036;stroke-width:1.0;"/><path d="M628.5688,726.6406 Q627.9906,726.9375 627.35,727.0781 Q626.7094,727.2344 626.0063,727.2344 Q623.5063,727.2344 622.1781,725.5938 Q620.8656,723.9375 620.8656,720.8125 Q620.8656,717.6875 622.1781,716.0313 Q623.5063,714.375 626.0063,714.375 Q626.7094,714.375 627.35,714.5313 Q628.0063,714.6875 628.5688,714.9844 L628.5688,717.7031 Q627.9438,717.125 627.35,716.8594 Q626.7563,716.5781 626.1313,716.5781 Q624.7875,716.5781 624.1,717.6563 Q623.4125,718.7188 623.4125,720.8125 Q623.4125,722.9063 624.1,723.9844 Q624.7875,725.0469 626.1313,725.0469 Q626.7563,725.0469 627.35,724.7813 Q627.9438,724.5 628.5688,723.9219 L628.5688,726.6406 Z " fill="#000000"/><text fill="#000000" font-family="sans-serif" font-size="12" lengthAdjust="spacing" textLength="71" x="643.4" y="725.1543">RSS10Feed</text><line style="stroke:#A80036;stroke-width:1.5;" x1="594.5" x2="733.5" y1="737" y2="737"/><line style="stroke:#A80036;stroke-width:1.5;" x1="594.5" x2="733.5" y1="745" y2="745"/><ellipse cx="604.5" cy="756" fill="#84BE84" rx="3" ry="3" style="stroke:#038048;stroke-width:1.0;"/><text fill="#000000" font-family="sans-serif" font-size="11" lengthAdjust="spacing" textLength="115" x="613.5" y="759.2104">RSS10Feed(Context)</text><ellipse cx="604.5" cy="768.8047" fill="#84BE84" rx="3" ry="3" style="stroke:#038048;stroke-width:1.0;"/><text fill="#000000" font-family="sans-serif" font-size="11" lengthAdjust="spacing" textLength="102" x="613.5" y="772.0151">getString(): String</text></a><!--MD5=[d36d8d6ffe1c01a82a34749470ee719f]
class org.apache.wiki.rss.RSSThread--><a href="RSSThread.html" target="_top" title="RSSThread.html" xlink:actuate="onRequest" xlink:href="RSSThread.html" xlink:show="new" xlink:title="RSSThread.html" xlink:type="simple"><rect codeLine="45" fill="#FEFECE" filter="url(#f3sucq0yu7kuz)" height="86.4141" id="org.apache.wiki.rss.RSSThread" style="stroke:#A80036;stroke-width:1.5;" width="184" x="38" y="294.5"/><ellipse cx="91.75" cy="310.5" fill="#ADD1B2" rx="11" ry="11" style="stroke:#A80036;stroke-width:1.0;"/><path d="M94.7188,316.1406 Q94.1406,316.4375 93.5,316.5781 Q92.8594,316.7344 92.1563,316.7344 Q89.6563,316.7344 88.3281,315.0938 Q87.0156,313.4375 87.0156,310.3125 Q87.0156,307.1875 88.3281,305.5313 Q89.6563,303.875 92.1563,303.875 Q92.8594,303.875 93.5,304.0313 Q94.1563,304.1875 94.7188,304.4844 L94.7188,307.2031 Q94.0938,306.625 93.5,306.3594 Q92.9063,306.0781 92.2813,306.0781 Q90.9375,306.0781 90.25,307.1563 Q89.5625,308.2188 89.5625,310.3125 Q89.5625,312.4063 90.25,313.4844 Q90.9375,314.5469 92.2813,314.5469 Q92.9063,314.5469 93.5,314.2813 Q94.0938,314 94.7188,313.4219 L94.7188,316.1406 Z " fill="#000000"/><text fill="#000000" font-family="sans-serif" font-size="12" lengthAdjust="spacing" textLength="68" x="112.25" y="314.6543">RSSThread</text><line style="stroke:#A80036;stroke-width:1.5;" x1="39" x2="221" y1="326.5" y2="326.5"/><line style="stroke:#A80036;stroke-width:1.5;" x1="39" x2="221" y1="334.5" y2="334.5"/><ellipse cx="49" cy="345.5" fill="#84BE84" rx="3" ry="3" style="stroke:#038048;stroke-width:1.0;"/><text fill="#000000" font-family="sans-serif" font-size="11" lengthAdjust="spacing" textLength="158" x="58" y="348.7104">RSSThread(Engine, File, int)</text><ellipse cx="49" cy="358.3047" fill="#84BE84" rx="3" ry="3" style="stroke:#038048;stroke-width:1.0;"/><text fill="#000000" font-family="sans-serif" font-size="11" lengthAdjust="spacing" textLength="107" x="58" y="361.5151">startupTask(): void</text><ellipse cx="49" cy="371.1094" fill="#84BE84" rx="3" ry="3" style="stroke:#038048;stroke-width:1.0;"/><text fill="#000000" font-family="sans-serif" font-size="11" lengthAdjust="spacing" textLength="132" x="58" y="374.3198">backgroundTask(): void</text></a><!--MD5=[162b5f235675b57ed54f918f5239af89]
class org.apache.wiki.rss.Feed--><a href="Feed.html" target="_top" title="Feed.html" xlink:actuate="onRequest" xlink:href="Feed.html" xlink:show="new" xlink:title="Feed.html" xlink:type="simple"><rect codeLine="51" fill="#FEFECE" filter="url(#f3sucq0yu7kuz)" height="329.7031" id="org.apache.wiki.rss.Feed" style="stroke:#A80036;stroke-width:1.5;" width="276" x="284" y="172.5"/><ellipse cx="402.25" cy="188.5" fill="#A9DCDF" rx="11" ry="11" style="stroke:#A80036;stroke-width:1.0;"/><path d="M402.3594,183.8438 L401.2031,188.9219 L403.5313,188.9219 L402.3594,183.8438 Z M400.875,181.6094 L403.8594,181.6094 L407.2188,194 L404.7656,194 L404,190.9375 L400.7188,190.9375 L399.9688,194 L397.5313,194 L400.875,181.6094 Z " fill="#000000"/><text fill="#000000" font-family="sans-serif" font-size="12" font-style="italic" lengthAdjust="spacing" textLength="31" x="422.75" y="192.6543">Feed</text><line style="stroke:#A80036;stroke-width:1.5;" x1="285" x2="559" y1="204.5" y2="204.5"/><polygon fill="none" points="295,210.5,299,214.5,295,218.5,291,214.5" style="stroke:#B38D22;stroke-width:1.0;"/><text fill="#000000" font-family="sans-serif" font-size="11" lengthAdjust="spacing" textLength="105" x="304" y="218.7104">m_feedURL: String</text><polygon fill="none" points="295,223.3047,299,227.3047,295,231.3047,291,227.3047" style="stroke:#B38D22;stroke-width:1.0;"/><text fill="#000000" font-family="sans-serif" font-size="11" lengthAdjust="spacing" textLength="127" x="304" y="231.5151">m_channelTitle: String</text><polygon fill="none" points="295,236.1094,299,240.1094,295,244.1094,291,240.1094" style="stroke:#B38D22;stroke-width:1.0;"/><text fill="#000000" font-family="sans-serif" font-size="11" lengthAdjust="spacing" textLength="167" x="304" y="244.3198">m_channelDescription: String</text><polygon fill="none" points="295,248.9141,299,252.9141,295,256.9141,291,252.9141" style="stroke:#B38D22;stroke-width:1.0;"/><text fill="#000000" font-family="sans-serif" font-size="11" lengthAdjust="spacing" textLength="158" x="304" y="257.1245">m_channelLanguage: String</text><polygon fill="none" points="295,261.7188,299,265.7188,295,269.7188,291,265.7188" style="stroke:#B38D22;stroke-width:1.0;"/><text fill="#000000" font-family="sans-serif" font-size="11" lengthAdjust="spacing" textLength="132" x="304" y="269.9292">m_wikiContext: Context</text><polygon fill="none" points="295,274.5234,299,278.5234,295,282.5234,291,278.5234" style="stroke:#B38D22;stroke-width:1.0;"/><text fill="#000000" font-family="sans-serif" font-size="11" lengthAdjust="spacing" textLength="91" x="304" y="282.7339">m_mode: String</text><ellipse cx="295" cy="292.3281" rx="3" ry="3" style="stroke:#038048;stroke-width:1.0;fill:none;"/><text fill="#000000" font-family="sans-serif" font-size="11" lengthAdjust="spacing" text-decoration="underline" textLength="132" x="304" y="295.5386">VAR_BLOGNAME: String</text><line style="stroke:#A80036;stroke-width:1.5;" x1="285" x2="559" y1="302.1328" y2="302.1328"/><ellipse cx="295" cy="313.1328" fill="#84BE84" rx="3" ry="3" style="stroke:#038048;stroke-width:1.0;"/><text fill="#000000" font-family="sans-serif" font-size="11" lengthAdjust="spacing" textLength="78" x="304" y="316.3433">Feed(Context)</text><ellipse cx="295" cy="325.9375" fill="#84BE84" rx="3" ry="3" style="stroke:#038048;stroke-width:1.0;"/><text fill="#000000" font-family="sans-serif" font-size="11" lengthAdjust="spacing" text-decoration="underline" textLength="166" x="304" y="329.1479">getSiteName(Context): String</text><ellipse cx="295" cy="338.7422" fill="#84BE84" rx="3" ry="3" style="stroke:#038048;stroke-width:1.0;"/><text fill="#000000" font-family="sans-serif" font-size="11" lengthAdjust="spacing" textLength="121" x="304" y="341.9526">setMode(String): void</text><ellipse cx="295" cy="351.5469" fill="#84BE84" rx="3" ry="3" style="stroke:#038048;stroke-width:1.0;"/><text fill="#000000" font-family="sans-serif" font-size="11" lengthAdjust="spacing" textLength="118" x="304" y="354.7573">addEntry(Entry): void</text><ellipse cx="295" cy="364.3516" fill="#84BE84" rx="3" ry="3" style="stroke:#038048;stroke-width:1.0;"/><text fill="#000000" font-family="sans-serif" font-size="11" font-style="italic" lengthAdjust="spacing" textLength="100" x="304" y="367.562">getString(): String</text><ellipse cx="295" cy="377.1563" fill="#84BE84" rx="3" ry="3" style="stroke:#038048;stroke-width:1.0;"/><text fill="#000000" font-family="sans-serif" font-size="11" lengthAdjust="spacing" textLength="178" x="304" y="380.3667">getChannelDescription(): String</text><ellipse cx="295" cy="389.9609" fill="#84BE84" rx="3" ry="3" style="stroke:#038048;stroke-width:1.0;"/><text fill="#000000" font-family="sans-serif" font-size="11" lengthAdjust="spacing" textLength="201" x="304" y="393.1714">setChannelDescription(String): void</text><ellipse cx="295" cy="402.7656" fill="#84BE84" rx="3" ry="3" style="stroke:#038048;stroke-width:1.0;"/><text fill="#000000" font-family="sans-serif" font-size="11" lengthAdjust="spacing" textLength="169" x="304" y="405.9761">getChannelLanguage(): String</text><ellipse cx="295" cy="415.5703" fill="#84BE84" rx="3" ry="3" style="stroke:#038048;stroke-width:1.0;"/><text fill="#000000" font-family="sans-serif" font-size="11" lengthAdjust="spacing" textLength="192" x="304" y="418.7808">setChannelLanguage(String): void</text><ellipse cx="295" cy="428.375" fill="#84BE84" rx="3" ry="3" style="stroke:#038048;stroke-width:1.0;"/><text fill="#000000" font-family="sans-serif" font-size="11" lengthAdjust="spacing" textLength="138" x="304" y="431.5854">getChannelTitle(): String</text><ellipse cx="295" cy="441.1797" fill="#84BE84" rx="3" ry="3" style="stroke:#038048;stroke-width:1.0;"/><text fill="#000000" font-family="sans-serif" font-size="11" lengthAdjust="spacing" textLength="161" x="304" y="444.3901">setChannelTitle(String): void</text><ellipse cx="295" cy="453.9844" fill="#84BE84" rx="3" ry="3" style="stroke:#038048;stroke-width:1.0;"/><text fill="#000000" font-family="sans-serif" font-size="11" lengthAdjust="spacing" textLength="116" x="304" y="457.1948">getFeedURL(): String</text><ellipse cx="295" cy="466.7891" fill="#84BE84" rx="3" ry="3" style="stroke:#038048;stroke-width:1.0;"/><text fill="#000000" font-family="sans-serif" font-size="11" lengthAdjust="spacing" textLength="139" x="304" y="469.9995">setFeedURL(String): void</text><polygon fill="#FFFF44" points="295,474.5938,299,478.5938,295,482.5938,291,478.5938" style="stroke:#B38D22;stroke-width:1.0;"/><text fill="#000000" font-family="sans-serif" font-size="11" lengthAdjust="spacing" textLength="250" x="304" y="482.8042">getMimeType(ServletContext, String): String</text><ellipse cx="295" cy="492.3984" fill="#84BE84" rx="3" ry="3" style="stroke:#038048;stroke-width:1.0;"/><text fill="#000000" font-family="sans-serif" font-size="11" lengthAdjust="spacing" text-decoration="underline" textLength="122" x="304" y="495.6089">format(String): String</text></a><!--MD5=[af565d3f47da3ede56dab86a7c170b4d]
class org.apache.wiki.rss.RSSGenerator--><a href="RSSGenerator.html" target="_top" title="RSSGenerator.html" xlink:actuate="onRequest" xlink:href="RSSGenerator.html" xlink:show="new" xlink:title="RSSGenerator.html" xlink:type="simple"><rect codeLine="76" fill="#FEFECE" filter="url(#f3sucq0yu7kuz)" height="355.3125" id="org.apache.wiki.rss.RSSGenerator" style="stroke:#A80036;stroke-width:1.5;" width="352" x="771" y="160"/><ellipse cx="898.75" cy="176" fill="#B4A7E5" rx="11" ry="11" style="stroke:#A80036;stroke-width:1.0;"/><path d="M894.6719,171.7656 L894.6719,169.6094 L902.0625,169.6094 L902.0625,171.7656 L899.5938,171.7656 L899.5938,179.8438 L902.0625,179.8438 L902.0625,182 L894.6719,182 L894.6719,179.8438 L897.1406,179.8438 L897.1406,171.7656 L894.6719,171.7656 Z " fill="#000000"/><text fill="#000000" font-family="sans-serif" font-size="12" font-style="italic" lengthAdjust="spacing" textLength="88" x="919.25" y="180.1543">RSSGenerator</text><line style="stroke:#A80036;stroke-width:1.5;" x1="772" x2="1122" y1="192" y2="192"/><ellipse cx="782" cy="203" rx="3" ry="3" style="stroke:#038048;stroke-width:1.0;fill:none;"/><text fill="#000000" font-family="sans-serif" font-size="11" lengthAdjust="spacing" text-decoration="underline" textLength="79" x="791" y="206.2104">RSS10: String</text><ellipse cx="782" cy="215.8047" rx="3" ry="3" style="stroke:#038048;stroke-width:1.0;fill:none;"/><text fill="#000000" font-family="sans-serif" font-size="11" lengthAdjust="spacing" text-decoration="underline" textLength="79" x="791" y="219.0151">RSS20: String</text><ellipse cx="782" cy="228.6094" rx="3" ry="3" style="stroke:#038048;stroke-width:1.0;fill:none;"/><text fill="#000000" font-family="sans-serif" font-size="11" lengthAdjust="spacing" text-decoration="underline" textLength="74" x="791" y="231.8198">ATOM: String</text><ellipse cx="782" cy="241.4141" rx="3" ry="3" style="stroke:#038048;stroke-width:1.0;fill:none;"/><text fill="#000000" font-family="sans-serif" font-size="11" lengthAdjust="spacing" text-decoration="underline" textLength="113" x="791" y="244.6245">MODE_BLOG: String</text><ellipse cx="782" cy="254.2188" rx="3" ry="3" style="stroke:#038048;stroke-width:1.0;fill:none;"/><text fill="#000000" font-family="sans-serif" font-size="11" lengthAdjust="spacing" text-decoration="underline" textLength="103" x="791" y="257.4292">MODE_WIKI: String</text><ellipse cx="782" cy="267.0234" rx="3" ry="3" style="stroke:#038048;stroke-width:1.0;fill:none;"/><text fill="#000000" font-family="sans-serif" font-size="11" lengthAdjust="spacing" text-decoration="underline" textLength="107" x="791" y="270.2339">MODE_FULL: String</text><ellipse cx="782" cy="279.8281" rx="3" ry="3" style="stroke:#038048;stroke-width:1.0;fill:none;"/><text fill="#000000" font-family="sans-serif" font-size="11" lengthAdjust="spacing" text-decoration="underline" textLength="211" x="791" y="283.0386">PROP_CHANNEL_DESCRIPTION: String</text><ellipse cx="782" cy="292.6328" rx="3" ry="3" style="stroke:#038048;stroke-width:1.0;fill:none;"/><text fill="#000000" font-family="sans-serif" font-size="11" lengthAdjust="spacing" text-decoration="underline" textLength="197" x="791" y="295.8433">PROP_CHANNEL_LANGUAGE: String</text><ellipse cx="782" cy="305.4375" rx="3" ry="3" style="stroke:#038048;stroke-width:1.0;fill:none;"/><text fill="#000000" font-family="sans-serif" font-size="11" lengthAdjust="spacing" text-decoration="underline" textLength="166" x="791" y="308.6479">PROP_CHANNEL_TITLE: String</text><ellipse cx="782" cy="318.2422" rx="3" ry="3" style="stroke:#038048;stroke-width:1.0;fill:none;"/><text fill="#000000" font-family="sans-serif" font-size="11" lengthAdjust="spacing" text-decoration="underline" textLength="166" x="791" y="321.4526">PROP_GENERATE_RSS: String</text><ellipse cx="782" cy="331.0469" rx="3" ry="3" style="stroke:#038048;stroke-width:1.0;fill:none;"/><text fill="#000000" font-family="sans-serif" font-size="11" lengthAdjust="spacing" text-decoration="underline" textLength="123" x="791" y="334.2573">PROP_RSSFILE: String</text><ellipse cx="782" cy="343.8516" rx="3" ry="3" style="stroke:#038048;stroke-width:1.0;fill:none;"/><text fill="#000000" font-family="sans-serif" font-size="11" lengthAdjust="spacing" text-decoration="underline" textLength="130" x="791" y="347.062">PROP_INTERVAL: String</text><ellipse cx="782" cy="356.6563" rx="3" ry="3" style="stroke:#038048;stroke-width:1.0;fill:none;"/><text fill="#000000" font-family="sans-serif" font-size="11" lengthAdjust="spacing" text-decoration="underline" textLength="153" x="791" y="359.8667">PROP_RSS_AUTHOR: String</text><ellipse cx="782" cy="369.4609" rx="3" ry="3" style="stroke:#038048;stroke-width:1.0;fill:none;"/><text fill="#000000" font-family="sans-serif" font-size="11" lengthAdjust="spacing" text-decoration="underline" textLength="185" x="791" y="372.6714">PROP_RSS_AUTHOREMAIL: String</text><line style="stroke:#A80036;stroke-width:1.5;" x1="772" x2="1122" y1="379.2656" y2="379.2656"/><ellipse cx="782" cy="390.2656" fill="#84BE84" rx="3" ry="3" style="stroke:#038048;stroke-width:1.0;"/><text fill="#000000" font-family="sans-serif" font-size="11" font-style="italic" lengthAdjust="spacing" textLength="100" x="791" y="393.4761">generate(): String</text><ellipse cx="782" cy="403.0703" fill="#84BE84" rx="3" ry="3" style="stroke:#038048;stroke-width:1.0;"/><text fill="#000000" font-family="sans-serif" font-size="11" font-style="italic" lengthAdjust="spacing" textLength="326" x="791" y="406.2808">generateFeed(Context, List&lt;Page&gt;, String, String): String</text><ellipse cx="782" cy="415.875" fill="#84BE84" rx="3" ry="3" style="stroke:#038048;stroke-width:1.0;"/><text fill="#000000" font-family="sans-serif" font-size="11" font-style="italic" lengthAdjust="spacing" textLength="115" x="791" y="419.0854">isEnabled(): boolean</text><ellipse cx="782" cy="428.6797" fill="#84BE84" rx="3" ry="3" style="stroke:#038048;stroke-width:1.0;"/><text fill="#000000" font-family="sans-serif" font-size="11" font-style="italic" lengthAdjust="spacing" textLength="147" x="791" y="431.8901">setEnabled(boolean): void</text><ellipse cx="782" cy="441.4844" fill="#84BE84" rx="3" ry="3" style="stroke:#038048;stroke-width:1.0;"/><text fill="#000000" font-family="sans-serif" font-size="11" font-style="italic" lengthAdjust="spacing" textLength="106" x="791" y="444.6948">getRssFile(): String</text><ellipse cx="782" cy="454.2891" fill="#84BE84" rx="3" ry="3" style="stroke:#038048;stroke-width:1.0;"/><text fill="#000000" font-family="sans-serif" font-size="11" font-style="italic" lengthAdjust="spacing" textLength="243" x="791" y="457.4995">generateFullWikiRSS(Context, Feed): String</text><ellipse cx="782" cy="467.0938" fill="#84BE84" rx="3" ry="3" style="stroke:#038048;stroke-width:1.0;"/><text fill="#000000" font-family="sans-serif" font-size="11" font-style="italic" lengthAdjust="spacing" textLength="325" x="791" y="470.3042">generateWikiPageRSS(Context, List&lt;Page&gt;, Feed): String</text><ellipse cx="782" cy="479.8984" fill="#84BE84" rx="3" ry="3" style="stroke:#038048;stroke-width:1.0;"/><text fill="#000000" font-family="sans-serif" font-size="11" font-style="italic" lengthAdjust="spacing" textLength="299" x="791" y="483.1089">generateBlogRSS(Context, List&lt;Page&gt;, Feed): String</text><ellipse cx="782" cy="492.7031" fill="#84BE84" rx="3" ry="3" style="stroke:#038048;stroke-width:1.0;"/><text fill="#000000" font-family="sans-serif" font-size="11" lengthAdjust="spacing" text-decoration="underline" textLength="122" x="791" y="495.9136">format(String): String</text><ellipse cx="782" cy="505.5078" fill="#84BE84" rx="3" ry="3" style="stroke:#038048;stroke-width:1.0;"/><text fill="#000000" font-family="sans-serif" font-size="11" lengthAdjust="spacing" text-decoration="underline" textLength="173" x="791" y="508.7183">getContentType(String): String</text></a><!--MD5=[66b4360082e1a13d0f52b45667453058]
class org.apache.wiki.WikiBackgroundThread--><a href="../WikiBackgroundThread.html" target="_top" title="../WikiBackgroundThread.html" xlink:actuate="onRequest" xlink:href="../WikiBackgroundThread.html" xlink:show="new" xlink:title="../WikiBackgroundThread.html" xlink:type="simple"><rect codeLine="113" fill="#FEFECE" filter="url(#f3sucq0yu7kuz)" height="60.8047" id="org.apache.wiki.WikiBackgroundThread" style="stroke:#A80036;stroke-width:1.5;" width="176" x="42" y="33"/><ellipse cx="57" cy="49" fill="#A9DCDF" rx="11" ry="11" style="stroke:#A80036;stroke-width:1.0;"/><path d="M57.1094,44.3438 L55.9531,49.4219 L58.2813,49.4219 L57.1094,44.3438 Z M55.625,42.1094 L58.6094,42.1094 L61.9688,54.5 L59.5156,54.5 L58.75,51.4375 L55.4688,51.4375 L54.7188,54.5 L52.2813,54.5 L55.625,42.1094 Z " fill="#000000"/><text fill="#000000" font-family="sans-serif" font-size="12" font-style="italic" lengthAdjust="spacing" textLength="144" x="71" y="53.1543">WikiBackgroundThread</text><line style="stroke:#A80036;stroke-width:1.5;" x1="43" x2="217" y1="65" y2="65"/><line style="stroke:#A80036;stroke-width:1.5;" x1="43" x2="217" y1="73" y2="73"/><ellipse cx="53" cy="84" fill="#84BE84" rx="3" ry="3" style="stroke:#038048;stroke-width:1.0;"/><text fill="#000000" font-family="sans-serif" font-size="11" font-style="italic" lengthAdjust="spacing" textLength="132" x="62" y="87.2104">backgroundTask(): void</text></a><!--MD5=[b42cfcd16e39a0fd6a37261d508d7333]
class org.apache.wiki.api.engine.Initializable--><a href="../api/engine/Initializable.html" target="_top" title="../api/engine/Initializable.html" xlink:actuate="onRequest" xlink:href="../api/engine/Initializable.html" xlink:show="new" xlink:title="../api/engine/Initializable.html" xlink:type="simple"><rect codeLine="119" fill="#FEFECE" filter="url(#f3sucq0yu7kuz)" height="60.8047" id="org.apache.wiki.api.engine.Initializable" style="stroke:#A80036;stroke-width:1.5;" width="216" x="839" y="33"/><ellipse cx="907.75" cy="49" fill="#B4A7E5" rx="11" ry="11" style="stroke:#A80036;stroke-width:1.0;"/><path d="M903.6719,44.7656 L903.6719,42.6094 L911.0625,42.6094 L911.0625,44.7656 L908.5938,44.7656 L908.5938,52.8438 L911.0625,52.8438 L911.0625,55 L903.6719,55 L903.6719,52.8438 L906.1406,52.8438 L906.1406,44.7656 L903.6719,44.7656 Z " fill="#000000"/><text fill="#000000" font-family="sans-serif" font-size="12" font-style="italic" lengthAdjust="spacing" textLength="70" x="928.25" y="53.1543">Initializable</text><line style="stroke:#A80036;stroke-width:1.5;" x1="840" x2="1054" y1="65" y2="65"/><line style="stroke:#A80036;stroke-width:1.5;" x1="840" x2="1054" y1="73" y2="73"/><ellipse cx="850" cy="84" fill="#84BE84" rx="3" ry="3" style="stroke:#038048;stroke-width:1.0;"/><text fill="#000000" font-family="sans-serif" font-size="11" font-style="italic" lengthAdjust="spacing" textLength="190" x="859" y="87.2104">initialize(Engine, Properties): void</text></a><!--MD5=[222abc3ffba691eeb446dfd28b102717]
reverse link org.apache.wiki.rss.RSSGenerator to org.apache.wiki.rss.DefaultRSSGenerator--><path codeLine="103" d="M947,535.2797 C947,576.9262 947,618.8256 947,653.9098 " fill="none" id="org.apache.wiki.rss.RSSGenerator-backto-org.apache.wiki.rss.DefaultRSSGenerator" style="stroke:#A80036;stroke-width:1.0;stroke-dasharray:7.0,7.0;"/><polygon fill="none" points="940.0001,535.2139,947,515.2139,954.0001,535.2139,940.0001,535.2139" style="stroke:#A80036;stroke-width:1.0;"/><!--MD5=[c14a4846d51cfe4f13d1494e906e6372]
reverse link org.apache.wiki.rss.Feed to org.apache.wiki.rss.AtomFeed--><path codeLine="104" d="M280.071,518.6049 C227.7036,585.4271 172.8966,655.3622 138.8535,698.802 " fill="none" id="org.apache.wiki.rss.Feed-backto-org.apache.wiki.rss.AtomFeed" style="stroke:#A80036;stroke-width:1.0;"/><polygon fill="none" points="274.7604,514.0331,292.6068,502.609,285.7797,522.6688,274.7604,514.0331" style="stroke:#A80036;stroke-width:1.0;"/><!--MD5=[229092be556e41e68a1aac50860c7609]
reverse link org.apache.wiki.rss.Feed to org.apache.wiki.rss.RSS20Feed--><path codeLine="105" d="M452.1664,522.3833 C463.3862,591.147 475.0461,662.608 481.9068,704.6558 " fill="none" id="org.apache.wiki.rss.Feed-backto-org.apache.wiki.rss.RSS20Feed" style="stroke:#A80036;stroke-width:1.0;"/><polygon fill="none" points="445.2521,523.4753,448.9399,502.609,459.0693,521.2208,445.2521,523.4753" style="stroke:#A80036;stroke-width:1.0;"/><!--MD5=[85c9beffd3609efaeb74103baaac4be8]
reverse link org.apache.wiki.rss.Feed to org.apache.wiki.rss.RSS10Feed--><path codeLine="106" d="M531.2892,520.1756 C572.8318,589.6134 616.2329,662.1578 641.6581,704.6558 " fill="none" id="org.apache.wiki.rss.Feed-backto-org.apache.wiki.rss.RSS10Feed" style="stroke:#A80036;stroke-width:1.0;"/><polygon fill="none" points="525.0408,523.3659,520.7797,502.609,537.0549,516.1782,525.0408,523.3659" style="stroke:#A80036;stroke-width:1.0;"/><!--MD5=[2d208e75d3fa8aca4970939eb76dad7e]
reverse link org.apache.wiki.WikiBackgroundThread to org.apache.wiki.rss.RSSThread--><path codeLine="107" d="M130,114.4276 C130,166.0948 130,245.2147 130,294.0265 " fill="none" id="org.apache.wiki.WikiBackgroundThread-backto-org.apache.wiki.rss.RSSThread" style="stroke:#A80036;stroke-width:1.0;"/><polygon fill="none" points="123.0001,114.1338,130,94.1337,137.0001,114.1337,123.0001,114.1338" style="stroke:#A80036;stroke-width:1.0;"/><!--MD5=[def8e3fceccf0eb80a6a0f6ddec64389]
link org.apache.wiki.rss.Feed to org.apache.wiki.rss.Entry--><path codeLine="108" d="M373.0183,502.609 C358.229,552.4614 342.5147,605.4315 329.6381,648.8365 " fill="none" id="org.apache.wiki.rss.Feed-to-org.apache.wiki.rss.Entry" style="stroke:#A80036;stroke-width:1.0;"/><polygon fill="#A80036" points="328.1622,653.8115,334.5568,646.3209,329.5843,649.018,326.8872,644.0455,328.1622,653.8115" style="stroke:#A80036;stroke-width:1.0;"/><text fill="#000000" font-family="sans-serif" font-size="13" lengthAdjust="spacing" textLength="64" x="352" y="589.0669">m_entries</text><text fill="#000000" font-family="sans-serif" font-size="13" lengthAdjust="spacing" textLength="7" x="323.0389" y="642.9577">*</text><!--MD5=[f6d09d6ea70772e41ecae64152889d60]
reverse link org.apache.wiki.api.engine.Initializable to org.apache.wiki.rss.RSSGenerator--><path codeLine="109" d="M947,114.4118 C947,128.0144 947,143.5208 947,159.8764 " fill="none" id="org.apache.wiki.api.engine.Initializable-backto-org.apache.wiki.rss.RSSGenerator" style="stroke:#A80036;stroke-width:1.0;"/><polygon fill="none" points="940.0001,114.1338,947,94.1337,954.0001,114.1337,940.0001,114.1338" style="stroke:#A80036;stroke-width:1.0;"/><text fill="#888888" font-family="sans-serif" font-size="10" lengthAdjust="spacing" textLength="192" x="472.5" y="853.2822">UMLDoclet 2.0.15, PlantUML 1.2021.13</text><!--MD5=[00bef03be9a83fe79d34e46db9ba73a8]
@startuml
    namespace org.apache.wiki.rss {

        class DefaultRSSGenerator [[DefaultRSSGenerator.html]] {
            +DefaultRSSGenerator(Engine, Properties)
            +initialize(Engine, Properties): void
            +generate(): String
            +generateFeed(Context, List<Page>, String, String): String
            +isEnabled(): boolean
            +setEnabled(boolean): void
            +getRssFile(): String
            +generateFullWikiRSS(Context, Feed): String
            +generateWikiPageRSS(Context, List<Page>, Feed): String
            +generateBlogRSS(Context, List<Page>, Feed): String
        }

        class AtomFeed [[AtomFeed.html]] {
            {static} +RFC3339FORMAT: String
            +AtomFeed(Context)
            +getString(): String
        }

        class Entry [[Entry.html]] {
            +setAuthor(String): void
            +getAuthor(): String
            +getPage(): Page
            +setPage(Page): void
            +setTitle(String): void
            +getTitle(): String
            +setURL(String): void
            +getURL(): String
            +setContent(String): void
            +getContent(): String
        }

        class RSS20Feed [[RSS20Feed.html]] {
            +RSS20Feed(Context)
            +getString(): String
        }

        class RSS10Feed [[RSS10Feed.html]] {
            +RSS10Feed(Context)
            +getString(): String
        }

        class RSSThread [[RSSThread.html]] {
            +RSSThread(Engine, File, int)
            +startupTask(): void
            +backgroundTask(): void
        }

        abstract class Feed [[Feed.html]] {
            #m_feedURL: String
            #m_channelTitle: String
            #m_channelDescription: String
            #m_channelLanguage: String
            #m_wikiContext: Context
            #m_mode: String
            {static} +VAR_BLOGNAME: String
            +Feed(Context)
            {static} +getSiteName(Context): String
            +setMode(String): void
            +addEntry(Entry): void
            {abstract} +getString(): String
            +getChannelDescription(): String
            +setChannelDescription(String): void
            +getChannelLanguage(): String
            +setChannelLanguage(String): void
            +getChannelTitle(): String
            +setChannelTitle(String): void
            +getFeedURL(): String
            +setFeedURL(String): void
            #getMimeType(ServletContext, String): String
            {static} +format(String): String
        }

        interface RSSGenerator [[RSSGenerator.html]] {
            {static} +RSS10: String
            {static} +RSS20: String
            {static} +ATOM: String
            {static} +MODE_BLOG: String
            {static} +MODE_WIKI: String
            {static} +MODE_FULL: String
            {static} +PROP_CHANNEL_DESCRIPTION: String
            {static} +PROP_CHANNEL_LANGUAGE: String
            {static} +PROP_CHANNEL_TITLE: String
            {static} +PROP_GENERATE_RSS: String
            {static} +PROP_RSSFILE: String
            {static} +PROP_INTERVAL: String
            {static} +PROP_RSS_AUTHOR: String
            {static} +PROP_RSS_AUTHOREMAIL: String
            {abstract} +generate(): String
            {abstract} +generateFeed(Context, List<Page>, String, String): String
            {abstract} +isEnabled(): boolean
            {abstract} +setEnabled(boolean): void
            {abstract} +getRssFile(): String
            {abstract} +generateFullWikiRSS(Context, Feed): String
            {abstract} +generateWikiPageRSS(Context, List<Page>, Feed): String
            {abstract} +generateBlogRSS(Context, List<Page>, Feed): String
            {static} +format(String): String
            {static} +getContentType(String): String
        }

        RSSGenerator <|.. DefaultRSSGenerator
        Feed <|- - AtomFeed
        Feed <|- - RSS20Feed
        Feed <|- - RSS10Feed
        org.apache.wiki.WikiBackgroundThread <|- - RSSThread
        Feed - -> "*" Entry: m_entries
        org.apache.wiki.api.engine.Initializable <|- - RSSGenerator
    }

    namespace org.apache.wiki {
        abstract class WikiBackgroundThread [[../WikiBackgroundThread.html]] {
            {abstract} +backgroundTask(): void
        }
    }

    namespace org.apache.wiki.api.engine {
        interface Initializable [[../api/engine/Initializable.html]] {
            {abstract} +initialize(Engine, Properties): void
        }
    }

    center footer UMLDoclet 2.0.15, PlantUML 1.2021.13
@enduml

PlantUML version 1.2021.13(Mon Nov 01 11:38:45 UTC 2021)
(APACHE source distribution)
Java Runtime: Java(TM) SE Runtime Environment
JVM: Java HotSpot(TM) 64-Bit Server VM
Default Encoding: ISO-8859-1
Language: en
Country: US
--></g></svg>