<?xml version="1.0" encoding="UTF-8" standalone="no"?><svg xmlns="http://www.w3.org/2000/svg" xmlns:xlink="http://www.w3.org/1999/xlink" contentScriptType="application/ecmascript" contentStyleType="text/css" height="750px" preserveAspectRatio="none" style="width:956px;height:750px;background:#FFFFFF;" version="1.1" viewBox="0 0 956 750" width="956px" zoomAndPan="magnify"><defs><filter height="300%" id="fmd705bblkmpm" width="300%" x="-1" y="-1"><feGaussianBlur result="blurOut" stdDeviation="2.0"/><feColorMatrix in="blurOut" result="blurOut2" type="matrix" values="0 0 0 0 0 0 0 0 0 0 0 0 0 0 0 0 0 0 .4 0"/><feOffset dx="4.0" dy="4.0" in="blurOut2" result="blurOut3"/><feBlend in="SourceGraphic" in2="blurOut3" mode="normal"/></filter></defs><g><!--MD5=[bd4ea5e1bea20afbbde5ba34844f37b5]
cluster org.apache.wiki.ui.admin--><polygon fill="#FFFFFF" filter="url(#fmd705bblkmpm)" points="16,6,218,6,225,28.2969,667,28.2969,667,726.5,16,726.5,16,6" style="stroke:#000000;stroke-width:1.5;"/><line style="stroke:#000000;stroke-width:1.5;" x1="16" x2="225" y1="28.2969" y2="28.2969"/><text fill="#000000" font-family="sans-serif" font-size="14" font-weight="bold" lengthAdjust="spacing" textLength="196" x="20" y="20.9951">org.apache.wiki.ui.admin</text><!--MD5=[4c36762682833c7223099323ed6a41cb]
cluster org.apache.wiki.management--><polygon fill="#FFFFFF" filter="url(#fmd705bblkmpm)" points="691,397,929,397,936,419.2969,939,419.2969,939,534,691,534,691,397" style="stroke:#000000;stroke-width:1.5;"/><line style="stroke:#000000;stroke-width:1.5;" x1="691" x2="936" y1="419.2969" y2="419.2969"/><text fill="#000000" font-family="sans-serif" font-size="14" font-weight="bold" lengthAdjust="spacing" textLength="232" x="695" y="411.9951">org.apache.wiki.management</text><!--MD5=[f6af4a93d67581305a0960a3682f0550]
cluster org.apache.wiki.ui--><polygon fill="#FFFFFF" filter="url(#fmd705bblkmpm)" points="691,200,841,200,848,222.2969,881,222.2969,881,337,691,337,691,200" style="stroke:#000000;stroke-width:1.5;"/><line style="stroke:#000000;stroke-width:1.5;" x1="691" x2="848" y1="222.2969" y2="222.2969"/><text fill="#000000" font-family="sans-serif" font-size="14" font-weight="bold" lengthAdjust="spacing" textLength="144" x="695" y="214.9951">org.apache.wiki.ui</text><!--MD5=[73faa91e05492c377d111539776da6fd]
cluster org.apache.wiki.event--><polygon fill="#FFFFFF" filter="url(#fmd705bblkmpm)" points="691,31.5,872,31.5,879,53.7969,939,53.7969,939,143.5,691,143.5,691,31.5" style="stroke:#000000;stroke-width:1.5;"/><line style="stroke:#000000;stroke-width:1.5;" x1="691" x2="879" y1="53.7969" y2="53.7969"/><text fill="#000000" font-family="sans-serif" font-size="14" font-weight="bold" lengthAdjust="spacing" textLength="175" x="695" y="46.4951">org.apache.wiki.event</text><!--MD5=[4b823098d8674ba19cb416ea00e3335e]
class org.apache.wiki.ui.admin.SimpleAdminBean--><a href="SimpleAdminBean.html" target="_top" title="SimpleAdminBean.html" xlink:actuate="onRequest" xlink:href="SimpleAdminBean.html" xlink:show="new" xlink:title="SimpleAdminBean.html" xlink:type="simple"><rect codeLine="3" fill="#FEFECE" filter="url(#fmd705bblkmpm)" height="112.0234" id="org.apache.wiki.ui.admin.SimpleAdminBean" style="stroke:#A80036;stroke-width:1.5;" width="158" x="493" y="598.5"/><ellipse cx="514.75" cy="614.5" fill="#A9DCDF" rx="11" ry="11" style="stroke:#A80036;stroke-width:1.0;"/><path d="M514.8594,609.8438 L513.7031,614.9219 L516.0313,614.9219 L514.8594,609.8438 Z M513.375,607.6094 L516.3594,607.6094 L519.7188,620 L517.2656,620 L516.5,616.9375 L513.2188,616.9375 L512.4688,620 L510.0313,620 L513.375,607.6094 Z " fill="#000000"/><text fill="#000000" font-family="sans-serif" font-size="12" font-style="italic" lengthAdjust="spacing" textLength="111" x="530.25" y="618.6543">SimpleAdminBean</text><line style="stroke:#A80036;stroke-width:1.5;" x1="494" x2="650" y1="630.5" y2="630.5"/><polygon fill="none" points="504,636.5,508,640.5,504,644.5,500,640.5" style="stroke:#B38D22;stroke-width:1.0;"/><text fill="#000000" font-family="sans-serif" font-size="11" lengthAdjust="spacing" textLength="101" x="513" y="644.7104">m_engine: Engine</text><line style="stroke:#A80036;stroke-width:1.5;" x1="494" x2="650" y1="651.3047" y2="651.3047"/><ellipse cx="504" cy="662.3047" fill="#84BE84" rx="3" ry="3" style="stroke:#038048;stroke-width:1.0;"/><text fill="#000000" font-family="sans-serif" font-size="11" lengthAdjust="spacing" textLength="122" x="513" y="665.5151">initialize(Engine): void</text><ellipse cx="504" cy="675.1094" fill="#84BE84" rx="3" ry="3" style="stroke:#038048;stroke-width:1.0;"/><text fill="#000000" font-family="sans-serif" font-size="11" lengthAdjust="spacing" textLength="127" x="513" y="678.3198">doGet(Context): String</text><ellipse cx="504" cy="687.9141" fill="#84BE84" rx="3" ry="3" style="stroke:#038048;stroke-width:1.0;"/><text fill="#000000" font-family="sans-serif" font-size="11" lengthAdjust="spacing" textLength="132" x="513" y="691.1245">doPost(Context): String</text><ellipse cx="504" cy="700.7188" fill="#84BE84" rx="3" ry="3" style="stroke:#038048;stroke-width:1.0;"/><text fill="#000000" font-family="sans-serif" font-size="11" lengthAdjust="spacing" textLength="78" x="513" y="703.9292">getId(): String</text></a><!--MD5=[3517fb5c0510b94d58fc0166fd09be85]
class org.apache.wiki.ui.admin.AdminBean--><a href="AdminBean.html" target="_top" title="AdminBean.html" xlink:actuate="onRequest" xlink:href="AdminBean.html" xlink:show="new" xlink:title="AdminBean.html" xlink:type="simple"><rect codeLine="11" fill="#FEFECE" filter="url(#fmd705bblkmpm)" height="124.8281" id="org.apache.wiki.ui.admin.AdminBean" style="stroke:#A80036;stroke-width:1.5;" width="150" x="480" y="412.5"/><ellipse cx="516.6" cy="428.5" fill="#B4A7E5" rx="11" ry="11" style="stroke:#A80036;stroke-width:1.0;"/><path d="M512.5219,424.2656 L512.5219,422.1094 L519.9125,422.1094 L519.9125,424.2656 L517.4438,424.2656 L517.4438,432.3438 L519.9125,432.3438 L519.9125,434.5 L512.5219,434.5 L512.5219,432.3438 L514.9906,432.3438 L514.9906,424.2656 L512.5219,424.2656 Z " fill="#000000"/><text fill="#000000" font-family="sans-serif" font-size="12" font-style="italic" lengthAdjust="spacing" textLength="70" x="535.4" y="432.6543">AdminBean</text><line style="stroke:#A80036;stroke-width:1.5;" x1="481" x2="629" y1="444.5" y2="444.5"/><ellipse cx="491" cy="455.5" rx="3" ry="3" style="stroke:#038048;stroke-width:1.0;fill:none;"/><text fill="#000000" font-family="sans-serif" font-size="11" lengthAdjust="spacing" text-decoration="underline" textLength="79" x="500" y="458.7104">UNKNOWN: int</text><ellipse cx="491" cy="468.3047" rx="3" ry="3" style="stroke:#038048;stroke-width:1.0;fill:none;"/><text fill="#000000" font-family="sans-serif" font-size="11" lengthAdjust="spacing" text-decoration="underline" textLength="53" x="500" y="471.5151">CORE: int</text><ellipse cx="491" cy="481.1094" rx="3" ry="3" style="stroke:#038048;stroke-width:1.0;fill:none;"/><text fill="#000000" font-family="sans-serif" font-size="11" lengthAdjust="spacing" text-decoration="underline" textLength="63" x="500" y="484.3198">EDITOR: int</text><line style="stroke:#A80036;stroke-width:1.5;" x1="481" x2="629" y1="490.9141" y2="490.9141"/><ellipse cx="491" cy="501.9141" fill="#84BE84" rx="3" ry="3" style="stroke:#038048;stroke-width:1.0;"/><text fill="#000000" font-family="sans-serif" font-size="11" font-style="italic" lengthAdjust="spacing" textLength="124" x="500" y="505.1245">initialize(Engine): void</text><ellipse cx="491" cy="514.7188" fill="#84BE84" rx="3" ry="3" style="stroke:#038048;stroke-width:1.0;"/><text fill="#000000" font-family="sans-serif" font-size="11" font-style="italic" lengthAdjust="spacing" textLength="91" x="500" y="517.9292">getTitle(): String</text><ellipse cx="491" cy="527.5234" fill="#84BE84" rx="3" ry="3" style="stroke:#038048;stroke-width:1.0;"/><text fill="#000000" font-family="sans-serif" font-size="11" font-style="italic" lengthAdjust="spacing" textLength="76" x="500" y="530.7339">getType(): int</text></a><!--MD5=[a3e5c14e26aedfd0b12c20eb1ccd7dde]
class org.apache.wiki.ui.admin.DefaultAdminBeanManager--><a href="DefaultAdminBeanManager.html" target="_top" title="DefaultAdminBeanManager.html" xlink:actuate="onRequest" xlink:href="DefaultAdminBeanManager.html" xlink:show="new" xlink:title="DefaultAdminBeanManager.html" xlink:type="simple"><rect codeLine="20" fill="#FEFECE" filter="url(#fmd705bblkmpm)" height="112.0234" id="org.apache.wiki.ui.admin.DefaultAdminBeanManager" style="stroke:#A80036;stroke-width:1.5;" width="225" x="425.5" y="222"/><ellipse cx="450.85" cy="238" fill="#ADD1B2" rx="11" ry="11" style="stroke:#A80036;stroke-width:1.0;"/><path d="M453.8188,243.6406 Q453.2406,243.9375 452.6,244.0781 Q451.9594,244.2344 451.2563,244.2344 Q448.7563,244.2344 447.4281,242.5938 Q446.1156,240.9375 446.1156,237.8125 Q446.1156,234.6875 447.4281,233.0313 Q448.7563,231.375 451.2563,231.375 Q451.9594,231.375 452.6,231.5313 Q453.2563,231.6875 453.8188,231.9844 L453.8188,234.7031 Q453.1938,234.125 452.6,233.8594 Q452.0063,233.5781 451.3813,233.5781 Q450.0375,233.5781 449.35,234.6563 Q448.6625,235.7188 448.6625,237.8125 Q448.6625,239.9063 449.35,240.9844 Q450.0375,242.0469 451.3813,242.0469 Q452.0063,242.0469 452.6,241.7813 Q453.1938,241.5 453.8188,240.9219 L453.8188,243.6406 Z " fill="#000000"/><text fill="#000000" font-family="sans-serif" font-size="12" lengthAdjust="spacing" textLength="170" x="467.15" y="242.1543">DefaultAdminBeanManager</text><line style="stroke:#A80036;stroke-width:1.5;" x1="426.5" x2="649.5" y1="254" y2="254"/><line style="stroke:#A80036;stroke-width:1.5;" x1="426.5" x2="649.5" y1="262" y2="262"/><ellipse cx="436.5" cy="273" fill="#84BE84" rx="3" ry="3" style="stroke:#038048;stroke-width:1.0;"/><text fill="#000000" font-family="sans-serif" font-size="11" lengthAdjust="spacing" textLength="199" x="445.5" y="276.2104">DefaultAdminBeanManager(Engine)</text><ellipse cx="436.5" cy="285.8047" fill="#84BE84" rx="3" ry="3" style="stroke:#038048;stroke-width:1.0;"/><text fill="#000000" font-family="sans-serif" font-size="11" lengthAdjust="spacing" textLength="84" x="445.5" y="289.0151">initialize(): void</text><ellipse cx="436.5" cy="298.6094" fill="#84BE84" rx="3" ry="3" style="stroke:#038048;stroke-width:1.0;"/><text fill="#000000" font-family="sans-serif" font-size="11" lengthAdjust="spacing" textLength="164" x="445.5" y="301.8198">findBean(String): AdminBean</text><ellipse cx="436.5" cy="311.4141" fill="#84BE84" rx="3" ry="3" style="stroke:#038048;stroke-width:1.0;"/><text fill="#000000" font-family="sans-serif" font-size="11" lengthAdjust="spacing" textLength="172" x="445.5" y="314.6245">getTypeFromString(String): int</text><ellipse cx="436.5" cy="324.2188" fill="#84BE84" rx="3" ry="3" style="stroke:#038048;stroke-width:1.0;"/><text fill="#000000" font-family="sans-serif" font-size="11" lengthAdjust="spacing" textLength="185" x="445.5" y="327.4292">actionPerformed(WikiEvent): void</text></a><!--MD5=[3a93cbb98a6410da7268cc7462622e5e]
class org.apache.wiki.ui.admin.WikiFormAdminBean--><a href="WikiFormAdminBean.html" target="_top" title="WikiFormAdminBean.html" xlink:actuate="onRequest" xlink:href="WikiFormAdminBean.html" xlink:show="new" xlink:title="WikiFormAdminBean.html" xlink:type="simple"><rect codeLine="28" fill="#FEFECE" filter="url(#fmd705bblkmpm)" height="99.2188" id="org.apache.wiki.ui.admin.WikiFormAdminBean" style="stroke:#A80036;stroke-width:1.5;" width="426" x="32" y="605"/><ellipse cx="177.75" cy="621" fill="#A9DCDF" rx="11" ry="11" style="stroke:#A80036;stroke-width:1.0;"/><path d="M177.8594,616.3438 L176.7031,621.4219 L179.0313,621.4219 L177.8594,616.3438 Z M176.375,614.1094 L179.3594,614.1094 L182.7188,626.5 L180.2656,626.5 L179.5,623.4375 L176.2188,623.4375 L175.4688,626.5 L173.0313,626.5 L176.375,614.1094 Z " fill="#000000"/><text fill="#000000" font-family="sans-serif" font-size="12" font-style="italic" lengthAdjust="spacing" textLength="126" x="198.25" y="625.1543">WikiFormAdminBean</text><line style="stroke:#A80036;stroke-width:1.5;" x1="33" x2="457" y1="637" y2="637"/><line style="stroke:#A80036;stroke-width:1.5;" x1="33" x2="457" y1="645" y2="645"/><ellipse cx="43" cy="656" fill="#84BE84" rx="3" ry="3" style="stroke:#038048;stroke-width:1.0;"/><text fill="#000000" font-family="sans-serif" font-size="11" font-style="italic" lengthAdjust="spacing" textLength="140" x="52" y="659.2104">getForm(Context): String</text><ellipse cx="43" cy="668.8047" fill="#84BE84" rx="3" ry="3" style="stroke:#038048;stroke-width:1.0;"/><text fill="#000000" font-family="sans-serif" font-size="11" font-style="italic" lengthAdjust="spacing" textLength="246" x="52" y="672.0151">handleResponse(Context, Map&lt;?, ?&gt;): void</text><ellipse cx="43" cy="681.6094" fill="#84BE84" rx="3" ry="3" style="stroke:#038048;stroke-width:1.0;"/><text fill="#000000" font-family="sans-serif" font-size="11" lengthAdjust="spacing" textLength="127" x="52" y="684.8198">doGet(Context): String</text><ellipse cx="43" cy="694.4141" fill="#84BE84" rx="3" ry="3" style="stroke:#038048;stroke-width:1.0;"/><text fill="#000000" font-family="sans-serif" font-size="11" lengthAdjust="spacing" textLength="400" x="52" y="697.6245">handlePost(Context, HttpServletRequest, HttpServletResponse): String</text></a><!--MD5=[eaf324bf0b62dc1f78cf95820ea8ff30]
class org.apache.wiki.ui.admin.AdminBeanManager--><a href="AdminBeanManager.html" target="_top" title="AdminBeanManager.html" xlink:actuate="onRequest" xlink:href="AdminBeanManager.html" xlink:show="new" xlink:title="AdminBeanManager.html" xlink:type="simple"><rect codeLine="35" fill="#FEFECE" filter="url(#fmd705bblkmpm)" height="112.0234" id="org.apache.wiki.ui.admin.AdminBeanManager" style="stroke:#A80036;stroke-width:1.5;" width="215" x="430.5" y="41"/><ellipse cx="471.6" cy="57" fill="#B4A7E5" rx="11" ry="11" style="stroke:#A80036;stroke-width:1.0;"/><path d="M467.5219,52.7656 L467.5219,50.6094 L474.9125,50.6094 L474.9125,52.7656 L472.4438,52.7656 L472.4438,60.8438 L474.9125,60.8438 L474.9125,63 L467.5219,63 L467.5219,60.8438 L469.9906,60.8438 L469.9906,52.7656 L467.5219,52.7656 Z " fill="#000000"/><text fill="#000000" font-family="sans-serif" font-size="12" font-style="italic" lengthAdjust="spacing" textLength="125" x="491.4" y="61.1543">AdminBeanManager</text><line style="stroke:#A80036;stroke-width:1.5;" x1="431.5" x2="644.5" y1="73" y2="73"/><line style="stroke:#A80036;stroke-width:1.5;" x1="431.5" x2="644.5" y1="81" y2="81"/><ellipse cx="441.5" cy="92" fill="#84BE84" rx="3" ry="3" style="stroke:#038048;stroke-width:1.0;"/><text fill="#000000" font-family="sans-serif" font-size="11" font-style="italic" lengthAdjust="spacing" textLength="86" x="450.5" y="95.2104">initialize(): void</text><ellipse cx="441.5" cy="104.8047" fill="#84BE84" rx="3" ry="3" style="stroke:#038048;stroke-width:1.0;"/><text fill="#000000" font-family="sans-serif" font-size="11" font-style="italic" lengthAdjust="spacing" textLength="185" x="450.5" y="108.0151">getAllBeans(): List&lt;AdminBean&gt;</text><ellipse cx="441.5" cy="117.6094" fill="#84BE84" rx="3" ry="3" style="stroke:#038048;stroke-width:1.0;"/><text fill="#000000" font-family="sans-serif" font-size="11" font-style="italic" lengthAdjust="spacing" textLength="164" x="450.5" y="120.8198">findBean(String): AdminBean</text><ellipse cx="441.5" cy="130.4141" fill="#84BE84" rx="3" ry="3" style="stroke:#038048;stroke-width:1.0;"/><text fill="#000000" font-family="sans-serif" font-size="11" font-style="italic" lengthAdjust="spacing" textLength="189" x="450.5" y="133.6245">actionPerformed(WikiEvent): void</text><ellipse cx="441.5" cy="143.2188" fill="#84BE84" rx="3" ry="3" style="stroke:#038048;stroke-width:1.0;"/><text fill="#000000" font-family="sans-serif" font-size="11" font-style="italic" lengthAdjust="spacing" textLength="171" x="450.5" y="146.4292">getTypeFromString(String): int</text></a><!--MD5=[a9696cc3406e3bfeff149f6647ff5cab]
class org.apache.wiki.management.SimpleMBean--><a href="../../management/SimpleMBean.html" target="_top" title="../../management/SimpleMBean.html" xlink:actuate="onRequest" xlink:href="../../management/SimpleMBean.html" xlink:show="new" xlink:title="../../management/SimpleMBean.html" xlink:type="simple"><rect codeLine="53" fill="#FEFECE" filter="url(#fmd705bblkmpm)" height="86.4141" id="org.apache.wiki.management.SimpleMBean" style="stroke:#A80036;stroke-width:1.5;" width="189" x="707.5" y="432"/><ellipse cx="756.25" cy="448" fill="#A9DCDF" rx="11" ry="11" style="stroke:#A80036;stroke-width:1.0;"/><path d="M756.3594,443.3438 L755.2031,448.4219 L757.5313,448.4219 L756.3594,443.3438 Z M754.875,441.1094 L757.8594,441.1094 L761.2188,453.5 L758.7656,453.5 L758,450.4375 L754.7188,450.4375 L753.9688,453.5 L751.5313,453.5 L754.875,441.1094 Z " fill="#000000"/><text fill="#000000" font-family="sans-serif" font-size="12" font-style="italic" lengthAdjust="spacing" textLength="83" x="776.75" y="452.1543">SimpleMBean</text><line style="stroke:#A80036;stroke-width:1.5;" x1="708.5" x2="895.5" y1="464" y2="464"/><polygon fill="none" points="718.5,470,722.5,474,718.5,478,714.5,474" style="stroke:#B38D22;stroke-width:1.0;"/><text fill="#000000" font-family="sans-serif" font-size="11" lengthAdjust="spacing" textLength="133" x="727.5" y="478.2104">m_beanInfo: MBeanInfo</text><line style="stroke:#A80036;stroke-width:1.5;" x1="708.5" x2="895.5" y1="484.8047" y2="484.8047"/><ellipse cx="718.5" cy="495.8047" fill="#84BE84" rx="3" ry="3" style="stroke:#038048;stroke-width:1.0;"/><text fill="#000000" font-family="sans-serif" font-size="11" font-style="italic" lengthAdjust="spacing" textLength="163" x="727.5" y="499.0151">getAttributeNames(): String[]</text><ellipse cx="718.5" cy="508.6094" fill="#84BE84" rx="3" ry="3" style="stroke:#038048;stroke-width:1.0;"/><text fill="#000000" font-family="sans-serif" font-size="11" font-style="italic" lengthAdjust="spacing" textLength="155" x="727.5" y="511.8198">getMethodNames(): String[]</text></a><!--MD5=[3c5109154d8a02a7e81f5de5d8be1ee4]
class org.apache.wiki.ui.GenericHTTPHandler--><a href="../GenericHTTPHandler.html" target="_top" title="../GenericHTTPHandler.html" xlink:actuate="onRequest" xlink:href="../GenericHTTPHandler.html" xlink:show="new" xlink:title="../GenericHTTPHandler.html" xlink:type="simple"><rect codeLine="61" fill="#FEFECE" filter="url(#fmd705bblkmpm)" height="86.4141" id="org.apache.wiki.ui.GenericHTTPHandler" style="stroke:#A80036;stroke-width:1.5;" width="159" x="706.5" y="235"/><ellipse cx="721.5" cy="251" fill="#B4A7E5" rx="11" ry="11" style="stroke:#A80036;stroke-width:1.0;"/><path d="M717.4219,246.7656 L717.4219,244.6094 L724.8125,244.6094 L724.8125,246.7656 L722.3438,246.7656 L722.3438,254.8438 L724.8125,254.8438 L724.8125,257 L717.4219,257 L717.4219,254.8438 L719.8906,254.8438 L719.8906,246.7656 L717.4219,246.7656 Z " fill="#000000"/><text fill="#000000" font-family="sans-serif" font-size="12" font-style="italic" lengthAdjust="spacing" textLength="127" x="735.5" y="255.1543">GenericHTTPHandler</text><line style="stroke:#A80036;stroke-width:1.5;" x1="707.5" x2="864.5" y1="267" y2="267"/><line style="stroke:#A80036;stroke-width:1.5;" x1="707.5" x2="864.5" y1="275" y2="275"/><ellipse cx="717.5" cy="286" fill="#84BE84" rx="3" ry="3" style="stroke:#038048;stroke-width:1.0;"/><text fill="#000000" font-family="sans-serif" font-size="11" font-style="italic" lengthAdjust="spacing" textLength="77" x="726.5" y="289.2104">getId(): String</text><ellipse cx="717.5" cy="298.8047" fill="#84BE84" rx="3" ry="3" style="stroke:#038048;stroke-width:1.0;"/><text fill="#000000" font-family="sans-serif" font-size="11" font-style="italic" lengthAdjust="spacing" textLength="127" x="726.5" y="302.0151">doGet(Context): String</text><ellipse cx="717.5" cy="311.6094" fill="#84BE84" rx="3" ry="3" style="stroke:#038048;stroke-width:1.0;"/><text fill="#000000" font-family="sans-serif" font-size="11" font-style="italic" lengthAdjust="spacing" textLength="131" x="726.5" y="314.8198">doPost(Context): String</text></a><!--MD5=[8c616ba9df2429bf0adc99a32a005079]
class org.apache.wiki.event.WikiEventListener--><a href="../../event/WikiEventListener.html" target="_top" title="../../event/WikiEventListener.html" xlink:actuate="onRequest" xlink:href="../../event/WikiEventListener.html" xlink:show="new" xlink:title="../../event/WikiEventListener.html" xlink:type="simple"><rect codeLine="69" fill="#FEFECE" filter="url(#fmd705bblkmpm)" height="60.8047" id="org.apache.wiki.event.WikiEventListener" style="stroke:#A80036;stroke-width:1.5;" width="215" x="707.5" y="66.5"/><ellipse cx="755.75" cy="82.5" fill="#B4A7E5" rx="11" ry="11" style="stroke:#A80036;stroke-width:1.0;"/><path d="M751.6719,78.2656 L751.6719,76.1094 L759.0625,76.1094 L759.0625,78.2656 L756.5938,78.2656 L756.5938,86.3438 L759.0625,86.3438 L759.0625,88.5 L751.6719,88.5 L751.6719,86.3438 L754.1406,86.3438 L754.1406,78.2656 L751.6719,78.2656 Z " fill="#000000"/><text fill="#000000" font-family="sans-serif" font-size="12" font-style="italic" lengthAdjust="spacing" textLength="110" x="776.25" y="86.6543">WikiEventListener</text><line style="stroke:#A80036;stroke-width:1.5;" x1="708.5" x2="921.5" y1="98.5" y2="98.5"/><line style="stroke:#A80036;stroke-width:1.5;" x1="708.5" x2="921.5" y1="106.5" y2="106.5"/><ellipse cx="718.5" cy="117.5" fill="#84BE84" rx="3" ry="3" style="stroke:#038048;stroke-width:1.0;"/><text fill="#000000" font-family="sans-serif" font-size="11" font-style="italic" lengthAdjust="spacing" textLength="189" x="727.5" y="120.7104">actionPerformed(WikiEvent): void</text></a><!--MD5=[8712097dfcc74359ce00b8fe26c89873]
reverse link org.apache.wiki.management.SimpleMBean to org.apache.wiki.ui.admin.SimpleAdminBean--><path codeLine="43" d="M731.59,530.34 C703.66,551.89 671.58,576.65 643.54,598.29 " fill="none" id="org.apache.wiki.management.SimpleMBean-backto-org.apache.wiki.ui.admin.SimpleAdminBean" style="stroke:#A80036;stroke-width:1.0;"/><polygon fill="none" points="727.38,524.74,747.49,518.07,735.94,535.83,727.38,524.74" style="stroke:#A80036;stroke-width:1.0;"/><!--MD5=[575741902e8b9a6d913759e56b9e522b]
reverse link org.apache.wiki.ui.admin.AdminBean to org.apache.wiki.ui.admin.SimpleAdminBean--><path codeLine="44" d="M561.03,558.07 C561.35,561.59 561.67,565.08 562,568.5 C562.93,578.11 564.03,588.32 565.16,598.21 " fill="none" id="org.apache.wiki.ui.admin.AdminBean-backto-org.apache.wiki.ui.admin.SimpleAdminBean" style="stroke:#A80036;stroke-width:1.0;stroke-dasharray:7.0,7.0;"/><polygon fill="none" points="554.02,558.25,559.31,537.73,567.97,557.07,554.02,558.25" style="stroke:#A80036;stroke-width:1.0;"/><!--MD5=[3baa28e98a0a2874476594576aabbbf2]
reverse link org.apache.wiki.ui.GenericHTTPHandler to org.apache.wiki.ui.admin.AdminBean--><path codeLine="45" d="M720.71,334.12 C691.82,358.5 657.72,387.28 628,412.38 " fill="none" id="org.apache.wiki.ui.GenericHTTPHandler-backto-org.apache.wiki.ui.admin.AdminBean" style="stroke:#A80036;stroke-width:1.0;"/><polygon fill="none" points="716.36,328.62,736.16,321.07,725.39,339.32,716.36,328.62" style="stroke:#A80036;stroke-width:1.0;"/><!--MD5=[1b08f6ad36cfcbb01688ecbe2c5932fc]
reverse link org.apache.wiki.event.WikiEventListener to org.apache.wiki.ui.admin.DefaultAdminBeanManager--><path codeLine="46" d="M752.31,138.51 C714.17,163.16 664.94,194.97 623.28,221.89 " fill="none" id="org.apache.wiki.event.WikiEventListener-backto-org.apache.wiki.ui.admin.DefaultAdminBeanManager" style="stroke:#A80036;stroke-width:1.0;stroke-dasharray:7.0,7.0;"/><polygon fill="none" points="748.66,132.53,769.26,127.56,756.26,144.29,748.66,132.53" style="stroke:#A80036;stroke-width:1.0;"/><!--MD5=[e48fab71882128a79ca1260fa9014d7e]
reverse link org.apache.wiki.ui.admin.AdminBeanManager to org.apache.wiki.ui.admin.DefaultAdminBeanManager--><path codeLine="47" d="M538,173.24 C538,189.49 538,206.39 538,221.71 " fill="none" id="org.apache.wiki.ui.admin.AdminBeanManager-backto-org.apache.wiki.ui.admin.DefaultAdminBeanManager" style="stroke:#A80036;stroke-width:1.0;stroke-dasharray:7.0,7.0;"/><polygon fill="none" points="531,173.17,538,153.17,545,173.17,531,173.17" style="stroke:#A80036;stroke-width:1.0;"/><!--MD5=[d75590dc8f9042e7200678feeaaffa59]
link org.apache.wiki.ui.admin.DefaultAdminBeanManager to org.apache.wiki.ui.admin.AdminBean--><path codeLine="48" d="M542.8,334.1 C544.78,356.81 547.1,383.33 549.17,407.14 " fill="none" id="org.apache.wiki.ui.admin.DefaultAdminBeanManager-to-org.apache.wiki.ui.admin.AdminBean" style="stroke:#A80036;stroke-width:1.0;"/><polygon fill="#A80036" points="549.61,412.18,552.8245,402.8705,549.1818,407.1984,544.8539,403.5556,549.61,412.18" style="stroke:#A80036;stroke-width:1.0;"/><text fill="#000000" font-family="sans-serif" font-size="13" lengthAdjust="spacing" textLength="54" x="547" y="377.0669">allBeans</text><text fill="#000000" font-family="sans-serif" font-size="13" lengthAdjust="spacing" textLength="7" x="541.6377" y="401.5723">*</text><!--MD5=[af146db7d5f8bd42c59dbcf72558aee6]
reverse link org.apache.wiki.ui.admin.AdminBean to org.apache.wiki.ui.admin.WikiFormAdminBean--><path codeLine="49" d="M462.41,529.01 C420.32,553.12 370.85,581.44 329.74,604.98 " fill="none" id="org.apache.wiki.ui.admin.AdminBean-backto-org.apache.wiki.ui.admin.WikiFormAdminBean" style="stroke:#A80036;stroke-width:1.0;stroke-dasharray:7.0,7.0;"/><polygon fill="none" points="459.12,522.83,479.96,518.97,466.08,534.98,459.12,522.83" style="stroke:#A80036;stroke-width:1.0;"/><text fill="#888888" font-family="sans-serif" font-size="10" lengthAdjust="spacing" textLength="192" x="375.5" y="741.7822">UMLDoclet 2.0.15, PlantUML 1.2021.13</text><!--MD5=[77fa5b2e220e19803e8e8a5947bc57be]
@startuml
    namespace org.apache.wiki.ui.admin {

        abstract class SimpleAdminBean [[SimpleAdminBean.html]] {
            #m_engine: Engine
            +initialize(Engine): void
            +doGet(Context): String
            +doPost(Context): String
            +getId(): String
        }

        interface AdminBean [[AdminBean.html]] {
            {static} +UNKNOWN: int
            {static} +CORE: int
            {static} +EDITOR: int
            {abstract} +initialize(Engine): void
            {abstract} +getTitle(): String
            {abstract} +getType(): int
        }

        class DefaultAdminBeanManager [[DefaultAdminBeanManager.html]] {
            +DefaultAdminBeanManager(Engine)
            +initialize(): void
            +findBean(String): AdminBean
            +getTypeFromString(String): int
            +actionPerformed(WikiEvent): void
        }

        abstract class WikiFormAdminBean [[WikiFormAdminBean.html]] {
            {abstract} +getForm(Context): String
            {abstract} +handleResponse(Context, Map<?, ?>): void
            +doGet(Context): String
            +handlePost(Context, HttpServletRequest, HttpServletResponse): String
        }

        interface AdminBeanManager [[AdminBeanManager.html]] {
            {abstract} +initialize(): void
            {abstract} +getAllBeans(): List<AdminBean>
            {abstract} +findBean(String): AdminBean
            {abstract} +actionPerformed(WikiEvent): void
            {abstract} +getTypeFromString(String): int
        }

        org.apache.wiki.management.SimpleMBean <|- - SimpleAdminBean
        AdminBean <|.. SimpleAdminBean
        org.apache.wiki.ui.GenericHTTPHandler <|- - AdminBean
        org.apache.wiki.event.WikiEventListener <|.. DefaultAdminBeanManager
        AdminBeanManager <|.. DefaultAdminBeanManager
        DefaultAdminBeanManager - -> "*" AdminBean: allBeans
        AdminBean <|.. WikiFormAdminBean
    }

    namespace org.apache.wiki.management {
        abstract class SimpleMBean [[../../management/SimpleMBean.html]] {
            #m_beanInfo: MBeanInfo
            {abstract} +getAttributeNames(): String[]
            {abstract} +getMethodNames(): String[]
        }
    }

    namespace org.apache.wiki.ui {
        interface GenericHTTPHandler [[../GenericHTTPHandler.html]] {
            {abstract} +getId(): String
            {abstract} +doGet(Context): String
            {abstract} +doPost(Context): String
        }
    }

    namespace org.apache.wiki.event {
        interface WikiEventListener [[../../event/WikiEventListener.html]] {
            {abstract} +actionPerformed(WikiEvent): void
        }
    }

    center footer UMLDoclet 2.0.15, PlantUML 1.2021.13
@enduml

PlantUML version 1.2021.13(Mon Nov 01 11:38:45 UTC 2021)
(APACHE source distribution)
Java Runtime: OpenJDK Runtime Environment
JVM: OpenJDK 64-Bit Server VM
Default Encoding: UTF-8
Language: en
Country: US
--></g></svg>