<?xml version="1.0" encoding="UTF-8" standalone="no"?><svg xmlns="http://www.w3.org/2000/svg" xmlns:xlink="http://www.w3.org/1999/xlink" contentScriptType="application/ecmascript" contentStyleType="text/css" height="553px" preserveAspectRatio="none" style="width:1476px;height:553px;" version="1.1" viewBox="0 0 1476 553" width="1476px" zoomAndPan="magnify"><defs><filter height="300%" id="f87zr7w5imq32" width="300%" x="-1" y="-1"><feGaussianBlur result="blurOut" stdDeviation="2.0"/><feColorMatrix in="blurOut" result="blurOut2" type="matrix" values="0 0 0 0 0 0 0 0 0 0 0 0 0 0 0 0 0 0 .4 0"/><feOffset dx="4.0" dy="4.0" in="blurOut2" result="blurOut3"/><feBlend in="SourceGraphic" in2="blurOut3" mode="normal"/></filter></defs><g><!--cluster org.apache.wiki.api.exceptions--><polygon fill="#FFFFFF" filter="url(#f87zr7w5imq32)" points="14,124,265,124,272,146.2969,1454,146.2969,1454,513,14,513,14,124" style="stroke: #000000; stroke-width: 1.5;"/><line style="stroke: #000000; stroke-width: 1.5;" x1="14" x2="272" y1="146.2969" y2="146.2969"/><text fill="#000000" font-family="sans-serif" font-size="14" font-weight="bold" lengthAdjust="spacingAndGlyphs" textLength="245" x="18" y="138.9951">org.apache.wiki.api.exceptions</text><!--cluster java.lang--><polygon fill="#FFFFFF" filter="url(#f87zr7w5imq32)" points="719,16,794,16,801,38.2969,827,38.2969,827,99,719,99,719,16" style="stroke: #000000; stroke-width: 1.5;"/><line style="stroke: #000000; stroke-width: 1.5;" x1="719" x2="801" y1="38.2969" y2="38.2969"/><text fill="#000000" font-family="sans-serif" font-size="14" font-weight="bold" lengthAdjust="spacingAndGlyphs" textLength="69" x="723" y="30.9951">java.lang</text><!--class org.apache.wiki.api.exceptions.NoRequiredPropertyException--><a href="NoRequiredPropertyException.html" target="_top" xlink:actuate="onRequest" xlink:show="new" xlink:title="NoRequiredPropertyException.html" xlink:type="simple"><rect fill="#FEFECE" filter="url(#f87zr7w5imq32)" height="60.8047" id="org.apache.wiki.api.exceptions.NoRequiredPropertyException" style="stroke: #A80036; stroke-width: 1.5;" width="277" x="22.5" y="297.5"/><ellipse cx="63.6" cy="313.5" fill="#ADD1B2" rx="11" ry="11" style="stroke: #A80036; stroke-width: 1.0;"/><path d="M66.5688,319.1406 Q65.9906,319.4375 65.35,319.5859 Q64.7094,319.7344 64.0063,319.7344 Q61.5063,319.7344 60.1859,318.0859 Q58.8656,316.4375 58.8656,313.3125 Q58.8656,310.1875 60.1859,308.5313 Q61.5063,306.875 64.0063,306.875 Q64.7094,306.875 65.3578,307.0313 Q66.0063,307.1875 66.5688,307.4844 L66.5688,310.2031 Q65.9438,309.625 65.35,309.3516 Q64.7563,309.0781 64.1313,309.0781 Q62.7875,309.0781 62.1,310.1484 Q61.4125,311.2188 61.4125,313.3125 Q61.4125,315.4063 62.1,316.4766 Q62.7875,317.5469 64.1313,317.5469 Q64.7563,317.5469 65.35,317.2734 Q65.9438,317 66.5688,316.4219 L66.5688,319.1406 Z "/><text fill="#000000" font-family="sans-serif" font-size="12" lengthAdjust="spacingAndGlyphs" textLength="187" x="83.4" y="317.6543">NoRequiredPropertyException</text><line style="stroke: #A80036; stroke-width: 1.5;" x1="23.5" x2="298.5" y1="329.5" y2="329.5"/><line style="stroke: #A80036; stroke-width: 1.5;" x1="23.5" x2="298.5" y1="337.5" y2="337.5"/><ellipse cx="33.5" cy="349.4023" fill="#84BE84" rx="3" ry="3" style="stroke: #038048; stroke-width: 1.0;"/><text fill="#000000" font-family="sans-serif" font-size="11" lengthAdjust="spacingAndGlyphs" textLength="251" x="42.5" y="351.7104">NoRequiredPropertyException(String, String)</text></a><!--class org.apache.wiki.api.exceptions.ProviderException--><a href="ProviderException.html" target="_top" xlink:actuate="onRequest" xlink:show="new" xlink:title="ProviderException.html" xlink:type="simple"><rect fill="#FEFECE" filter="url(#f87zr7w5imq32)" height="60.8047" id="org.apache.wiki.api.exceptions.ProviderException" style="stroke: #A80036; stroke-width: 1.5;" width="169" x="334.5" y="297.5"/><ellipse cx="360.75" cy="313.5" fill="#ADD1B2" rx="11" ry="11" style="stroke: #A80036; stroke-width: 1.0;"/><path d="M363.7188,319.1406 Q363.1406,319.4375 362.5,319.5859 Q361.8594,319.7344 361.1563,319.7344 Q358.6563,319.7344 357.3359,318.0859 Q356.0156,316.4375 356.0156,313.3125 Q356.0156,310.1875 357.3359,308.5313 Q358.6563,306.875 361.1563,306.875 Q361.8594,306.875 362.5078,307.0313 Q363.1563,307.1875 363.7188,307.4844 L363.7188,310.2031 Q363.0938,309.625 362.5,309.3516 Q361.9063,309.0781 361.2813,309.0781 Q359.9375,309.0781 359.25,310.1484 Q358.5625,311.2188 358.5625,313.3125 Q358.5625,315.4063 359.25,316.4766 Q359.9375,317.5469 361.2813,317.5469 Q361.9063,317.5469 362.5,317.2734 Q363.0938,317 363.7188,316.4219 L363.7188,319.1406 Z "/><text fill="#000000" font-family="sans-serif" font-size="12" lengthAdjust="spacingAndGlyphs" textLength="112" x="377.25" y="317.6543">ProviderException</text><line style="stroke: #A80036; stroke-width: 1.5;" x1="335.5" x2="502.5" y1="329.5" y2="329.5"/><line style="stroke: #A80036; stroke-width: 1.5;" x1="335.5" x2="502.5" y1="337.5" y2="337.5"/><ellipse cx="345.5" cy="349.4023" fill="#84BE84" rx="3" ry="3" style="stroke: #038048; stroke-width: 1.0;"/><text fill="#000000" font-family="sans-serif" font-size="11" lengthAdjust="spacingAndGlyphs" textLength="143" x="354.5" y="351.7104">ProviderException(String)</text></a><!--class org.apache.wiki.api.exceptions.WikiI18nException--><a href="WikiI18nException.html" target="_top" xlink:actuate="onRequest" xlink:show="new" xlink:title="WikiI18nException.html" xlink:type="simple"><rect fill="#FEFECE" filter="url(#f87zr7w5imq32)" height="86.4141" id="org.apache.wiki.api.exceptions.WikiI18nException" style="stroke: #A80036; stroke-width: 1.5;" width="219" x="538.5" y="285"/><ellipse cx="587.75" cy="301" fill="#ADD1B2" rx="11" ry="11" style="stroke: #A80036; stroke-width: 1.0;"/><path d="M590.7188,306.6406 Q590.1406,306.9375 589.5,307.0859 Q588.8594,307.2344 588.1563,307.2344 Q585.6563,307.2344 584.3359,305.5859 Q583.0156,303.9375 583.0156,300.8125 Q583.0156,297.6875 584.3359,296.0313 Q585.6563,294.375 588.1563,294.375 Q588.8594,294.375 589.5078,294.5313 Q590.1563,294.6875 590.7188,294.9844 L590.7188,297.7031 Q590.0938,297.125 589.5,296.8516 Q588.9063,296.5781 588.2813,296.5781 Q586.9375,296.5781 586.25,297.6484 Q585.5625,298.7188 585.5625,300.8125 Q585.5625,302.9063 586.25,303.9766 Q586.9375,305.0469 588.2813,305.0469 Q588.9063,305.0469 589.5,304.7734 Q590.0938,304.5 590.7188,303.9219 L590.7188,306.6406 Z "/><text fill="#000000" font-family="sans-serif" font-size="12" lengthAdjust="spacingAndGlyphs" textLength="112" x="608.25" y="305.1543">WikiI18nException</text><line style="stroke: #A80036; stroke-width: 1.5;" x1="539.5" x2="756.5" y1="317" y2="317"/><polygon fill="none" points="549.5,323.9023,553.5,327.9023,549.5,331.9023,545.5,327.9023" style="stroke: #B38D22; stroke-width: 1.0;"/><text fill="#000000" font-family="sans-serif" font-size="11" lengthAdjust="spacingAndGlyphs" textLength="78" x="558.5" y="331.2104">args: Object[]</text><line style="stroke: #A80036; stroke-width: 1.5;" x1="539.5" x2="756.5" y1="337.8047" y2="337.8047"/><ellipse cx="549.5" cy="349.707" fill="#84BE84" rx="3" ry="3" style="stroke: #038048; stroke-width: 1.0;"/><text fill="#000000" font-family="sans-serif" font-size="11" lengthAdjust="spacingAndGlyphs" textLength="193" x="558.5" y="352.0151">WikiI18nException(String, Object[])</text><ellipse cx="549.5" cy="362.5117" fill="#84BE84" rx="3" ry="3" style="stroke: #038048; stroke-width: 1.0;"/><text fill="#000000" font-family="sans-serif" font-size="11" lengthAdjust="spacingAndGlyphs" textLength="104" x="558.5" y="364.8198">getArgs(): Object[]</text></a><!--class org.apache.wiki.api.exceptions.WikiException--><a href="WikiException.html" target="_top" xlink:actuate="onRequest" xlink:show="new" xlink:title="WikiException.html" xlink:type="simple"><rect fill="#FEFECE" filter="url(#f87zr7w5imq32)" height="73.6094" id="org.apache.wiki.api.exceptions.WikiException" style="stroke: #A80036; stroke-width: 1.5;" width="210" x="668" y="151"/><ellipse cx="726.25" cy="167" fill="#ADD1B2" rx="11" ry="11" style="stroke: #A80036; stroke-width: 1.0;"/><path d="M729.2188,172.6406 Q728.6406,172.9375 728,173.0859 Q727.3594,173.2344 726.6563,173.2344 Q724.1563,173.2344 722.8359,171.5859 Q721.5156,169.9375 721.5156,166.8125 Q721.5156,163.6875 722.8359,162.0313 Q724.1563,160.375 726.6563,160.375 Q727.3594,160.375 728.0078,160.5313 Q728.6563,160.6875 729.2188,160.9844 L729.2188,163.7031 Q728.5938,163.125 728,162.8516 Q727.4063,162.5781 726.7813,162.5781 Q725.4375,162.5781 724.75,163.6484 Q724.0625,164.7188 724.0625,166.8125 Q724.0625,168.9063 724.75,169.9766 Q725.4375,171.0469 726.7813,171.0469 Q727.4063,171.0469 728,170.7734 Q728.5938,170.5 729.2188,169.9219 L729.2188,172.6406 Z "/><text fill="#000000" font-family="sans-serif" font-size="12" lengthAdjust="spacingAndGlyphs" textLength="85" x="746.75" y="171.1543">WikiException</text><line style="stroke: #A80036; stroke-width: 1.5;" x1="669" x2="877" y1="183" y2="183"/><line style="stroke: #A80036; stroke-width: 1.5;" x1="669" x2="877" y1="191" y2="191"/><ellipse cx="679" cy="202.9023" fill="#84BE84" rx="3" ry="3" style="stroke: #038048; stroke-width: 1.0;"/><text fill="#000000" font-family="sans-serif" font-size="11" lengthAdjust="spacingAndGlyphs" textLength="117" x="688" y="205.2104">WikiException(String)</text><ellipse cx="679" cy="215.707" fill="#84BE84" rx="3" ry="3" style="stroke: #038048; stroke-width: 1.0;"/><text fill="#000000" font-family="sans-serif" font-size="11" lengthAdjust="spacingAndGlyphs" textLength="184" x="688" y="218.0151">WikiException(String, Throwable)</text></a><!--class org.apache.wiki.api.exceptions.RedirectException--><a href="RedirectException.html" target="_top" xlink:actuate="onRequest" xlink:show="new" xlink:title="RedirectException.html" xlink:type="simple"><rect fill="#FEFECE" filter="url(#f87zr7w5imq32)" height="73.6094" id="org.apache.wiki.api.exceptions.RedirectException" style="stroke: #A80036; stroke-width: 1.5;" width="210" x="1009" y="431"/><ellipse cx="1053.25" cy="447" fill="#ADD1B2" rx="11" ry="11" style="stroke: #A80036; stroke-width: 1.0;"/><path d="M1056.2188,452.6406 Q1055.6406,452.9375 1055,453.0859 Q1054.3594,453.2344 1053.6563,453.2344 Q1051.1563,453.2344 1049.8359,451.5859 Q1048.5156,449.9375 1048.5156,446.8125 Q1048.5156,443.6875 1049.8359,442.0313 Q1051.1563,440.375 1053.6563,440.375 Q1054.3594,440.375 1055.0078,440.5313 Q1055.6563,440.6875 1056.2188,440.9844 L1056.2188,443.7031 Q1055.5938,443.125 1055,442.8516 Q1054.4063,442.5781 1053.7813,442.5781 Q1052.4375,442.5781 1051.75,443.6484 Q1051.0625,444.7188 1051.0625,446.8125 Q1051.0625,448.9063 1051.75,449.9766 Q1052.4375,451.0469 1053.7813,451.0469 Q1054.4063,451.0469 1055,450.7734 Q1055.5938,450.5 1056.2188,449.9219 L1056.2188,452.6406 Z "/><text fill="#000000" font-family="sans-serif" font-size="12" lengthAdjust="spacingAndGlyphs" textLength="113" x="1073.75" y="451.1543">RedirectException</text><line style="stroke: #A80036; stroke-width: 1.5;" x1="1010" x2="1218" y1="463" y2="463"/><line style="stroke: #A80036; stroke-width: 1.5;" x1="1010" x2="1218" y1="471" y2="471"/><ellipse cx="1020" cy="482.9023" fill="#84BE84" rx="3" ry="3" style="stroke: #038048; stroke-width: 1.0;"/><text fill="#000000" font-family="sans-serif" font-size="11" lengthAdjust="spacingAndGlyphs" textLength="184" x="1029" y="485.2104">RedirectException(String, String)</text><ellipse cx="1020" cy="495.707" fill="#84BE84" rx="3" ry="3" style="stroke: #038048; stroke-width: 1.0;"/><text fill="#000000" font-family="sans-serif" font-size="11" lengthAdjust="spacingAndGlyphs" textLength="114" x="1029" y="498.0151">getRedirect(): String</text></a><!--class org.apache.wiki.api.exceptions.NoSuchVariableException--><a href="NoSuchVariableException.html" target="_top" xlink:actuate="onRequest" xlink:show="new" xlink:title="NoSuchVariableException.html" xlink:type="simple"><rect fill="#FEFECE" filter="url(#f87zr7w5imq32)" height="60.8047" id="org.apache.wiki.api.exceptions.NoSuchVariableException" style="stroke: #A80036; stroke-width: 1.5;" width="211" x="792.5" y="297.5"/><ellipse cx="816.05" cy="313.5" fill="#ADD1B2" rx="11" ry="11" style="stroke: #A80036; stroke-width: 1.0;"/><path d="M819.0188,319.1406 Q818.4406,319.4375 817.8,319.5859 Q817.1594,319.7344 816.4563,319.7344 Q813.9563,319.7344 812.6359,318.0859 Q811.3156,316.4375 811.3156,313.3125 Q811.3156,310.1875 812.6359,308.5313 Q813.9563,306.875 816.4563,306.875 Q817.1594,306.875 817.8078,307.0313 Q818.4563,307.1875 819.0188,307.4844 L819.0188,310.2031 Q818.3938,309.625 817.8,309.3516 Q817.2063,309.0781 816.5813,309.0781 Q815.2375,309.0781 814.55,310.1484 Q813.8625,311.2188 813.8625,313.3125 Q813.8625,315.4063 814.55,316.4766 Q815.2375,317.5469 816.5813,317.5469 Q817.2063,317.5469 817.8,317.2734 Q818.3938,317 819.0188,316.4219 L819.0188,319.1406 Z "/><text fill="#000000" font-family="sans-serif" font-size="12" lengthAdjust="spacingAndGlyphs" textLength="160" x="831.95" y="317.6543">NoSuchVariableException</text><line style="stroke: #A80036; stroke-width: 1.5;" x1="793.5" x2="1002.5" y1="329.5" y2="329.5"/><line style="stroke: #A80036; stroke-width: 1.5;" x1="793.5" x2="1002.5" y1="337.5" y2="337.5"/><ellipse cx="803.5" cy="349.4023" fill="#84BE84" rx="3" ry="3" style="stroke: #038048; stroke-width: 1.0;"/><text fill="#000000" font-family="sans-serif" font-size="11" lengthAdjust="spacingAndGlyphs" textLength="185" x="812.5" y="351.7104">NoSuchVariableException(String)</text></a><!--class org.apache.wiki.api.exceptions.FilterException--><a href="FilterException.html" target="_top" xlink:actuate="onRequest" xlink:show="new" xlink:title="FilterException.html" xlink:type="simple"><rect fill="#FEFECE" filter="url(#f87zr7w5imq32)" height="60.8047" id="org.apache.wiki.api.exceptions.FilterException" style="stroke: #A80036; stroke-width: 1.5;" width="150" x="1039" y="297.5"/><ellipse cx="1065.7" cy="313.5" fill="#ADD1B2" rx="11" ry="11" style="stroke: #A80036; stroke-width: 1.0;"/><path d="M1068.6688,319.1406 Q1068.0906,319.4375 1067.45,319.5859 Q1066.8094,319.7344 1066.1063,319.7344 Q1063.6063,319.7344 1062.2859,318.0859 Q1060.9656,316.4375 1060.9656,313.3125 Q1060.9656,310.1875 1062.2859,308.5313 Q1063.6063,306.875 1066.1063,306.875 Q1066.8094,306.875 1067.4578,307.0313 Q1068.1063,307.1875 1068.6688,307.4844 L1068.6688,310.2031 Q1068.0438,309.625 1067.45,309.3516 Q1066.8563,309.0781 1066.2313,309.0781 Q1064.8875,309.0781 1064.2,310.1484 Q1063.5125,311.2188 1063.5125,313.3125 Q1063.5125,315.4063 1064.2,316.4766 Q1064.8875,317.5469 1066.2313,317.5469 Q1066.8563,317.5469 1067.45,317.2734 Q1068.0438,317 1068.6688,316.4219 L1068.6688,319.1406 Z "/><text fill="#000000" font-family="sans-serif" font-size="12" lengthAdjust="spacingAndGlyphs" textLength="92" x="1082.3" y="317.6543">FilterException</text><line style="stroke: #A80036; stroke-width: 1.5;" x1="1040" x2="1188" y1="329.5" y2="329.5"/><line style="stroke: #A80036; stroke-width: 1.5;" x1="1040" x2="1188" y1="337.5" y2="337.5"/><ellipse cx="1050" cy="349.4023" fill="#84BE84" rx="3" ry="3" style="stroke: #038048; stroke-width: 1.0;"/><text fill="#000000" font-family="sans-serif" font-size="11" lengthAdjust="spacingAndGlyphs" textLength="124" x="1059" y="351.7104">FilterException(String)</text></a><!--class org.apache.wiki.api.exceptions.PluginException--><a href="PluginException.html" target="_top" xlink:actuate="onRequest" xlink:show="new" xlink:title="PluginException.html" xlink:type="simple"><rect fill="#FEFECE" filter="url(#f87zr7w5imq32)" height="86.4141" id="org.apache.wiki.api.exceptions.PluginException" style="stroke: #A80036; stroke-width: 1.5;" width="223" x="1223.5" y="285"/><ellipse cx="1281.25" cy="301" fill="#ADD1B2" rx="11" ry="11" style="stroke: #A80036; stroke-width: 1.0;"/><path d="M1284.2188,306.6406 Q1283.6406,306.9375 1283,307.0859 Q1282.3594,307.2344 1281.6563,307.2344 Q1279.1563,307.2344 1277.8359,305.5859 Q1276.5156,303.9375 1276.5156,300.8125 Q1276.5156,297.6875 1277.8359,296.0313 Q1279.1563,294.375 1281.6563,294.375 Q1282.3594,294.375 1283.0078,294.5313 Q1283.6563,294.6875 1284.2188,294.9844 L1284.2188,297.7031 Q1283.5938,297.125 1283,296.8516 Q1282.4063,296.5781 1281.7813,296.5781 Q1280.4375,296.5781 1279.75,297.6484 Q1279.0625,298.7188 1279.0625,300.8125 Q1279.0625,302.9063 1279.75,303.9766 Q1280.4375,305.0469 1281.7813,305.0469 Q1282.4063,305.0469 1283,304.7734 Q1283.5938,304.5 1284.2188,303.9219 L1284.2188,306.6406 Z "/><text fill="#000000" font-family="sans-serif" font-size="12" lengthAdjust="spacingAndGlyphs" textLength="99" x="1301.75" y="305.1543">PluginException</text><line style="stroke: #A80036; stroke-width: 1.5;" x1="1224.5" x2="1445.5" y1="317" y2="317"/><line style="stroke: #A80036; stroke-width: 1.5;" x1="1224.5" x2="1445.5" y1="325" y2="325"/><ellipse cx="1234.5" cy="336.9023" fill="#84BE84" rx="3" ry="3" style="stroke: #038048; stroke-width: 1.0;"/><text fill="#000000" font-family="sans-serif" font-size="11" lengthAdjust="spacingAndGlyphs" textLength="130" x="1243.5" y="339.2104">PluginException(String)</text><ellipse cx="1234.5" cy="349.707" fill="#84BE84" rx="3" ry="3" style="stroke: #038048; stroke-width: 1.0;"/><text fill="#000000" font-family="sans-serif" font-size="11" lengthAdjust="spacingAndGlyphs" textLength="197" x="1243.5" y="352.0151">PluginException(String, Throwable)</text><ellipse cx="1234.5" cy="362.5117" fill="#84BE84" rx="3" ry="3" style="stroke: #038048; stroke-width: 1.0;"/><text fill="#000000" font-family="sans-serif" font-size="11" lengthAdjust="spacingAndGlyphs" textLength="177" x="1243.5" y="364.8198">getRootThrowable(): Throwable</text></a><!--class java.lang.Exception--><rect fill="#FEFECE" filter="url(#f87zr7w5imq32)" height="48" id="java.lang.Exception" style="stroke: #A80036; stroke-width: 1.5;" width="93" x="726.5" y="43"/><ellipse cx="741.5" cy="59" fill="#ADD1B2" rx="11" ry="11" style="stroke: #A80036; stroke-width: 1.0;"/><path d="M744.4688,64.6406 Q743.8906,64.9375 743.25,65.0859 Q742.6094,65.2344 741.9063,65.2344 Q739.4063,65.2344 738.0859,63.5859 Q736.7656,61.9375 736.7656,58.8125 Q736.7656,55.6875 738.0859,54.0313 Q739.4063,52.375 741.9063,52.375 Q742.6094,52.375 743.2578,52.5313 Q743.9063,52.6875 744.4688,52.9844 L744.4688,55.7031 Q743.8438,55.125 743.25,54.8516 Q742.6563,54.5781 742.0313,54.5781 Q740.6875,54.5781 740,55.6484 Q739.3125,56.7188 739.3125,58.8125 Q739.3125,60.9063 740,61.9766 Q740.6875,63.0469 742.0313,63.0469 Q742.6563,63.0469 743.25,62.7734 Q743.8438,62.5 744.4688,61.9219 L744.4688,64.6406 Z "/><text fill="#000000" font-family="sans-serif" font-size="12" lengthAdjust="spacingAndGlyphs" textLength="61" x="755.5" y="63.1543">Exception</text><line style="stroke: #A80036; stroke-width: 1.5;" x1="727.5" x2="818.5" y1="75" y2="75"/><line style="stroke: #A80036; stroke-width: 1.5;" x1="727.5" x2="818.5" y1="83" y2="83"/><!--link org.apache.wiki.api.exceptions.WikiException to org.apache.wiki.api.exceptions.NoRequiredPropertyException--><path d="M647.9236,212.523 C556.0416,231.0432 428.3503,257.8358 317,285 C301.3065,288.8285 284.7928,293.1064 268.6189,297.4388 " fill="none" id="org.apache.wiki.api.exceptions.WikiException-org.apache.wiki.api.exceptions.NoRequiredPropertyException" style="stroke: #A80036; stroke-width: 1.0;"/><polygon fill="none" points="646.5637,205.6564,667.5502,208.5829,649.3193,219.3826,646.5637,205.6564" style="stroke: #A80036; stroke-width: 1.0;"/><!--link org.apache.wiki.api.exceptions.WikiException to org.apache.wiki.api.exceptions.ProviderException--><path d="M655.7922,232.2359 C613.2296,248.5313 564.8358,267.3285 521,285 C511.1969,288.9519 500.898,293.1905 490.7688,297.4102 " fill="none" id="org.apache.wiki.api.exceptions.WikiException-org.apache.wiki.api.exceptions.ProviderException" style="stroke: #A80036; stroke-width: 1.0;"/><polygon fill="none" points="653.4038,225.655,674.585,225.058,658.3991,238.7335,653.4038,225.655" style="stroke: #A80036; stroke-width: 1.0;"/><!--link org.apache.wiki.api.exceptions.WikiException to org.apache.wiki.api.exceptions.WikiI18nException--><path d="M726.1263,240.4985 C713.0342,255.1617 698.9646,270.9196 686.4222,284.9672 " fill="none" id="org.apache.wiki.api.exceptions.WikiException-org.apache.wiki.api.exceptions.WikiI18nException" style="stroke: #A80036; stroke-width: 1.0;"/><polygon fill="none" points="721.2886,235.4065,739.8305,225.1499,731.7317,244.7308,721.2886,235.4065" style="stroke: #A80036; stroke-width: 1.0;"/><!--link java.lang.Exception to org.apache.wiki.api.exceptions.WikiException--><path d="M773,111.5529 C773,124.5142 773,138.5269 773,150.9716 " fill="none" id="java.lang.Exception-org.apache.wiki.api.exceptions.WikiException" style="stroke: #A80036; stroke-width: 1.0;"/><polygon fill="none" points="766.0001,111.1954,773,91.1953,780.0001,111.1953,766.0001,111.1954" style="stroke: #A80036; stroke-width: 1.0;"/><!--link org.apache.wiki.api.exceptions.FilterException to org.apache.wiki.api.exceptions.RedirectException--><path d="M1114,378.9112 C1114,396.1034 1114,414.959 1114,430.8788 " fill="none" id="org.apache.wiki.api.exceptions.FilterException-org.apache.wiki.api.exceptions.RedirectException" style="stroke: #A80036; stroke-width: 1.0;"/><polygon fill="none" points="1107.0001,378.7236,1114,358.7236,1121.0001,378.7236,1107.0001,378.7236" style="stroke: #A80036; stroke-width: 1.0;"/><!--link org.apache.wiki.api.exceptions.WikiException to org.apache.wiki.api.exceptions.NoSuchVariableException--><path d="M819.7393,240.3481 C836.8727,259.5375 855.6967,280.6203 870.5888,297.2994 " fill="none" id="org.apache.wiki.api.exceptions.WikiException-org.apache.wiki.api.exceptions.NoSuchVariableException" style="stroke: #A80036; stroke-width: 1.0;"/><polygon fill="none" points="814.2683,244.7308,806.1695,225.1499,824.7114,235.4065,814.2683,244.7308" style="stroke: #A80036; stroke-width: 1.0;"/><!--link org.apache.wiki.api.exceptions.WikiException to org.apache.wiki.api.exceptions.FilterException--><path d="M890.2741,232.2012 C931.7884,248.2875 978.6797,266.9593 1021,285 C1030.1635,288.9063 1039.7682,293.1612 1049.1825,297.4253 " fill="none" id="org.apache.wiki.api.exceptions.WikiException-org.apache.wiki.api.exceptions.FilterException" style="stroke: #A80036; stroke-width: 1.0;"/><polygon fill="none" points="887.7549,238.7322,871.614,225.0037,892.7932,225.6702,887.7549,238.7322" style="stroke: #A80036; stroke-width: 1.0;"/><!--link org.apache.wiki.api.exceptions.WikiException to org.apache.wiki.api.exceptions.PluginException--><path d="M897.8926,212.3144 C985.0825,230.1642 1103.8544,256.2325 1207,285 C1212.3065,286.48 1217.7174,288.0506 1223.1687,289.6828 " fill="none" id="org.apache.wiki.api.exceptions.WikiException-org.apache.wiki.api.exceptions.PluginException" style="stroke: #A80036; stroke-width: 1.0;"/><polygon fill="none" points="896.3203,219.1381,878.1149,208.2954,899.1083,205.4185,896.3203,219.1381" style="stroke: #A80036; stroke-width: 1.0;"/><text fill="#888888" font-family="sans-serif" font-size="10" lengthAdjust="spacingAndGlyphs" textLength="186" x="647" y="540.2822">UMLDoclet 1.1.4, PlantUML 1.2019.05</text><!--
@startuml

    namespace org.apache.wiki.api.exceptions {

        class NoRequiredPropertyException [[NoRequiredPropertyException.html]] {
            +NoRequiredPropertyException(String, String)
        }

        class ProviderException [[ProviderException.html]] {
            +ProviderException(String)
        }

        class WikiI18nException [[WikiI18nException.html]] {
            #args: Object[]
            +WikiI18nException(String, Object[])
            +getArgs(): Object[]
        }

        class WikiException [[WikiException.html]] {
            +WikiException(String)
            +WikiException(String, Throwable)
        }

        class RedirectException [[RedirectException.html]] {
            +RedirectException(String, String)
            +getRedirect(): String
        }

        class NoSuchVariableException [[NoSuchVariableException.html]] {
            +NoSuchVariableException(String)
        }

        class FilterException [[FilterException.html]] {
            +FilterException(String)
        }

        class PluginException [[PluginException.html]] {
            +PluginException(String)
            +PluginException(String, Throwable)
            +getRootThrowable(): Throwable
        }

        WikiException <|- - NoRequiredPropertyException

        WikiException <|- - ProviderException

        WikiException <|- - WikiI18nException

        class java.lang.Exception
        java.lang.Exception <|- - WikiException

        FilterException <|- - RedirectException

        WikiException <|- - NoSuchVariableException

        WikiException <|- - FilterException

        WikiException <|- - PluginException

    }


    center footer UMLDoclet 1.1.4, PlantUML 1.2019.05
@enduml

PlantUML version 1.2019.05(Sat Apr 20 16:45:36 UTC 2019)
(APACHE source distribution)
Java Runtime: Java(TM) SE Runtime Environment
JVM: Java HotSpot(TM) 64-Bit Server VM
Java Version: 1.8.0_191-b12
Operating System: Linux
OS Version: 4.15.0-76-generic
Default Encoding: ISO-8859-1
Language: en
Country: US
--></g></svg>